<?xml version="1.0" encoding="UTF-8" standalone="no"?>
<svg
   xmlns:dc="http://purl.org/dc/elements/1.1/"
   xmlns:cc="http://creativecommons.org/ns#"
   xmlns:rdf="http://www.w3.org/1999/02/22-rdf-syntax-ns#"
   xmlns:svg="http://www.w3.org/2000/svg"
   xmlns="http://www.w3.org/2000/svg"
   viewBox="0 0 600 330"
   height="330"
   width="600"
   xml:space="preserve"
   version="1.1"
   id="svg4551"><metadata
     id="metadata4557"><rdf:RDF><cc:Work
         rdf:about=""><dc:format>image/svg+xml</dc:format><dc:type
           rdf:resource="http://purl.org/dc/dcmitype/StillImage" /><dc:title></dc:title></cc:Work></rdf:RDF></metadata><defs
     id="defs4555"><clipPath
       id="clipPath4569"
       clipPathUnits="userSpaceOnUse"><path
         id="path4571"
         d="M 0,0 480,0 480,264 0,264 0,0 Z" /></clipPath></defs><g
     transform="matrix(1.25,0,0,-1.25,0,330)"
     id="g4559"><g
       id="g4561"><g
         id="g4563"><g
           id="g4565"><g
             clip-path="url(#clipPath4569)"
             id="g4567"><g
               id="g4573"><path
                 id="path4575"
                 style="fill:#ffffff;fill-opacity:1;fill-rule:nonzero;stroke:none"
                 d="m 31.996,263.758 c -17.512,0 -31.754,-14.254 -31.754,-31.766 l 0,-199.996 C 0.242,14.484 14.484,0.242 31.996,0.242 l 416.008,0 c 17.512,0 31.754,14.242 31.754,31.754 l 0,199.996 c 0,17.512 -14.242,31.766 -31.754,31.766" /><path
                 id="path4577"
                 style="fill:#000000;fill-opacity:1;fill-rule:nonzero;stroke:none"
                 d="M 31.996,0.484 C 14.613,0.484 0.484,14.613 0.484,31.996 l 0,199.996 c 0,17.383 14.129,31.524 31.512,31.524 l 416.008,0 c 17.383,0 31.512,-14.141 31.512,-31.524 l 0,-199.996 c 0,-17.383 -14.129,-31.512 -31.512,-31.512 l -416.008,0 z M 448.004,264 31.996,264 C 14.32,264 0,249.672 0,231.992 L 0,31.996 C 0,14.328 14.32,0 31.996,0 L 448.004,0 C 465.672,0 480,14.328 480,31.996 l 0,199.996 C 480,249.672 465.672,264 448.004,264" /></g></g></g></g><path
         id="path4579"
         style="fill:#000000;fill-opacity:1;fill-rule:nonzero;stroke:none"
         d="m 31.996,19.996 416.008,0 c 6.629,0 12,5.371 12,12 l 0,199.996 c 0,6.629 -5.371,12 -12,12 l -416.008,0 c -6.629,0 -12,-5.371 -12,-12 l 0,-199.996 c 0,-6.629 5.371,-12 12,-12 z m 0,-12 c -13.258,0 -24,10.742 -24,24 l 0,199.996 c 0,13.258 10.742,24 24,24 l 416.008,0 c 13.258,0 24,-10.742 24,-24 l 0,-199.996 c 0,-13.258 -10.742,-24 -24,-24" /><path
         id="path4581"
         style="fill:#000000;fill-opacity:1;fill-rule:nonzero;stroke:none"
         d="m 143.422,169.059 c 0,5.253 -1.637,9.644 -4.996,12.574 -2.582,2.324 -5.77,3.703 -11.453,4.562 l -6.977,1.035 c -2.84,0.43 -5.34,1.461 -6.887,2.84 -1.636,1.465 -2.328,3.446 -2.328,5.684 0,5.426 3.961,9.558 11.196,9.558 5.168,0 9.558,-1.121 13.347,-4.734 l 5.942,5.856 c -5.25,4.906 -10.934,6.972 -19.032,6.972 -12.742,0 -20.492,-7.32 -20.492,-17.996 0,-4.996 1.461,-8.871 4.477,-11.711 2.668,-2.5 6.629,-4.222 11.625,-4.91 l 7.234,-1.031 c 3.617,-0.52 5.168,-1.121 6.715,-2.586 1.637,-1.465 2.414,-3.703 2.414,-6.371 0,-5.942 -4.652,-9.387 -12.66,-9.387 -6.285,0 -11.195,1.379 -15.672,5.856 l -6.199,-6.114 c 5.855,-5.941 12.484,-8.094 21.699,-8.094 12.832,0 22.047,6.715 22.047,17.997 z" /><path
         id="path4583"
         style="fill:#000000;fill-opacity:1;fill-rule:nonzero;stroke:none"
         d="m 186.047,173.449 c 0,6.633 -0.516,14.039 -4.906,18.43 -2.414,2.41 -6.289,3.875 -10.68,3.875 -4.734,0 -8.266,-1.207 -11.539,-5.168 l 0,4.652 -8.61,0 0,-61.312 8.782,0 0,22.129 c 3.187,-3.789 6.804,-4.993 11.453,-4.993 4.391,0 8.18,1.461 10.594,3.876 4.39,4.39 4.906,11.882 4.906,18.511 z m -8.781,0 c 0,-7.75 -1.121,-14.551 -9.043,-14.551 -7.922,0 -9.129,6.801 -9.129,14.551 0,7.75 1.207,14.469 9.129,14.469 7.922,0 9.043,-6.719 9.043,-14.469 z" /><path
         id="path4585"
         style="fill:#000000;fill-opacity:1;fill-rule:nonzero;stroke:none"
         d="m 223.93,191.621 c -3.012,3.012 -6.2,4.133 -10.418,4.133 -4.91,0 -9.387,-2.152 -11.625,-5.254 l 0,4.738 -8.614,0 0,-43.66 8.786,0 0,26.524 c 0,6.027 3.961,9.816 8.695,9.816 3.016,0 4.566,-0.949 6.547,-2.93 l 6.629,6.633 z" /><path
         id="path4587"
         style="fill:#000000;fill-opacity:1;fill-rule:nonzero;stroke:none"
         d="m 257.945,170.867 0,3.875 c 0,12.403 -6.8,21.012 -18.515,21.012 -11.192,0 -18.512,-8.18 -18.512,-22.305 0,-16.617 8.695,-22.387 19.633,-22.387 7.664,0 11.883,2.325 16.363,6.801 l -5.598,5.254 c -3.101,-3.101 -5.683,-4.476 -10.593,-4.476 -7.149,0 -11.11,4.734 -11.11,12.226 l 28.332,0 z m -8.695,6.113 -19.637,0 c 0.086,2.672 0.258,3.961 1.121,5.942 1.379,3.273 4.563,5.512 8.696,5.512 4.136,0 7.234,-2.239 8.613,-5.512 0.859,-1.981 1.121,-3.27 1.207,-5.942 z" /><path
         id="path4589"
         style="fill:#000000;fill-opacity:1;fill-rule:nonzero;stroke:none"
         d="m 300.336,151.578 0,27.899 c 0,4.91 -1.035,9.043 -4.395,12.316 -2.582,2.496 -6.285,3.961 -10.761,3.961 -4.395,0 -8.614,-1.637 -11.625,-4.91 l 0,4.394 -8.614,0 0,-43.66 8.786,0 0,26.61 c 0,6.714 4.132,9.73 9.043,9.73 4.906,0 8.781,-2.93 8.781,-9.73 l 0,-26.61 8.785,0 z" /><path
         id="path4591"
         style="fill:#000000;fill-opacity:1;fill-rule:nonzero;stroke:none"
         d="m 342.367,151.836 0,43.402 -8.523,0 0,-4.652 c -3.274,3.961 -6.805,5.168 -11.453,5.168 -4.395,0 -8.098,-1.379 -10.508,-3.789 -4.219,-4.219 -4.906,-10.332 -4.906,-17.738 0,-7.407 0.687,-13.52 4.906,-17.743 2.41,-2.41 6.027,-3.875 10.422,-3.875 4.476,0 8.093,1.207 11.281,4.996 l 0,-5.597 c 0,-5.856 -2.844,-11.11 -10.25,-11.11 -4.305,0 -6.715,1.293 -9.473,3.875 l -5.597,-5.597 c 4.566,-4.219 8.785,-5.77 15.414,-5.77 11.625,0 18.687,7.75 18.687,18.43 z m -8.781,22.391 c 0,-6.891 -0.949,-13.692 -8.871,-13.692 -7.922,0 -8.957,6.801 -8.957,13.692 0,6.886 1.035,13.691 8.957,13.691 7.922,0 8.871,-6.805 8.871,-13.691 z" /><path
         id="path4593"
         style="fill:#000000;fill-opacity:1;fill-rule:nonzero;stroke:none"
         d="m 355.18,179.523 25.145,0 0,-8.18 -25.145,0 0,8.18 z" /><path
         id="path4595"
         style="fill:#000000;fill-opacity:1;fill-rule:nonzero;stroke:none"
         d="m 133.637,54.301 0,29.312 c 0,9.946 -6.055,15.047 -18.075,15.047 -7.261,0 -11.585,-1.469 -15.738,-6.312 l 5.797,-5.45 c 2.418,3.114 4.754,4.239 9.598,4.239 6.832,0 9.597,-2.68 9.597,-8.215 l 0,-3.113 -11.586,0 c -10.031,0 -15.132,-5.274 -15.132,-12.625 0,-3.719 1.211,-7.09 3.457,-9.426 2.679,-2.68 6.312,-3.977 11.761,-3.977 5.446,0 8.473,1.297 11.672,4.496 l 0,-3.976 8.649,0 z m -8.821,15.824 c 0,-3.113 -0.605,-5.191 -1.902,-6.488 -2.336,-2.246 -4.844,-2.508 -8.215,-2.508 -5.535,0 -8.043,2.25 -8.043,6.226 0,3.981 2.68,6.313 7.871,6.313 l 10.289,0 0,-3.543 z" /><path
         id="path4597"
         style="fill:#000000;fill-opacity:1;fill-rule:nonzero;stroke:none"
         d="m 173.137,94.508 c -3.028,3.027 -6.227,4.152 -10.465,4.152 -4.93,0 -9.426,-2.164 -11.672,-5.277 l 0,4.758 -8.648,0 0,-43.84 8.82,0 0,26.633 c 0,6.05 3.976,9.855 8.734,9.855 3.028,0 4.582,-0.949 6.571,-2.937 l 6.66,6.656 z" /><path
         id="path4599"
         style="fill:#000000;fill-opacity:1;fill-rule:nonzero;stroke:none"
         d="m 211.27,76.262 c 0,6.66 -0.52,14.097 -4.93,18.508 -2.422,2.421 -6.227,3.89 -10.637,3.89 -4.668,0 -8.301,-1.125 -11.5,-4.93 l 0,22.137 -8.82,0 0,-61.566 8.648,0 0,4.668 c 3.285,-3.977 6.832,-5.188 11.586,-5.188 4.41,0 8.301,1.469 10.723,3.891 4.41,4.41 4.93,11.933 4.93,18.59 z m -8.821,0 c 0,-7.782 -1.125,-14.614 -9.078,-14.614 -7.957,0 -9.168,6.832 -9.168,14.614 0,7.785 1.211,14.527 9.168,14.527 7.953,0 9.078,-6.742 9.078,-14.527 z" /><path
         id="path4601"
         style="fill:#000000;fill-opacity:1;fill-rule:nonzero;stroke:none"
         d="m 253.312,73.668 0,3.891 c 0,12.453 -6.828,21.101 -18.589,21.101 -11.243,0 -18.59,-8.215 -18.59,-22.398 0,-16.688 8.73,-22.481 19.715,-22.481 7.695,0 11.933,2.336 16.429,6.832 l -5.621,5.274 c -3.113,-3.114 -5.707,-4.496 -10.636,-4.496 -7.176,0 -11.157,4.754 -11.157,12.277 l 28.449,0 z m -8.73,6.141 -19.719,0 c 0.09,2.679 0.262,3.976 1.125,5.964 1.383,3.289 4.582,5.536 8.735,5.536 4.152,0 7.265,-2.247 8.648,-5.536 0.863,-1.988 1.121,-3.285 1.211,-5.964 z" /><path
         id="path4603"
         style="fill:#000000;fill-opacity:1;fill-rule:nonzero;stroke:none"
         d="m 269.273,106.789 0,9.336 -9.339,0 0,-9.336 9.339,0 z m -0.261,-52.488 0,43.84 -8.817,0 0,-43.84 8.817,0 z" /><path
         id="path4605"
         style="fill:#000000;fill-opacity:1;fill-rule:nonzero;stroke:none"
         d="m 298.125,54.301 0,7.523 -3.633,0 c -3.285,0 -4.84,1.903 -4.84,5.102 l 0,23.691 8.473,0 0,6.746 -8.473,0 0,13.317 -8.82,0 0,-13.317 -5.016,0 0,-6.746 5.016,0 0,-24.125 c 0,-6.312 3.805,-12.191 12.02,-12.191 l 5.273,0 z" /><path
         id="path4607"
         style="fill:#000000;fill-opacity:1;fill-rule:nonzero;stroke:none"
         d="m 337.883,73.668 0,3.891 c 0,12.453 -6.828,21.101 -18.59,21.101 -11.242,0 -18.59,-8.215 -18.59,-22.398 0,-16.688 8.731,-22.481 19.715,-22.481 7.695,0 11.934,2.336 16.43,6.832 l -5.621,5.274 c -3.114,-3.114 -5.707,-4.496 -10.637,-4.496 -7.176,0 -11.156,4.754 -11.156,12.277 l 28.449,0 z m -8.731,6.141 -19.718,0 c 0.086,2.679 0.261,3.976 1.125,5.964 1.382,3.289 4.582,5.536 8.734,5.536 4.152,0 7.262,-2.247 8.648,-5.536 0.864,-1.988 1.121,-3.285 1.211,-5.964 z" /><path
         id="path4609"
         style="fill:#000000;fill-opacity:1;fill-rule:nonzero;stroke:none"
         d="m 381.902,54.301 0,28.015 c 0,4.93 -1.035,9.079 -4.41,12.368 -2.594,2.507 -6.312,3.976 -10.808,3.976 -4.411,0 -8.645,-1.644 -11.672,-4.93 l 0,4.411 -8.649,0 0,-43.84 8.821,0 0,26.719 c 0,6.746 4.152,9.769 9.078,9.769 4.929,0 8.82,-2.937 8.82,-9.769 l 0,-26.719 8.82,0 z" /></g></g></svg>