<?xml version="1.0" encoding="UTF-8" standalone="no"?>
<svg
   xmlns:dc="http://purl.org/dc/elements/1.1/"
   xmlns:cc="http://creativecommons.org/ns#"
   xmlns:rdf="http://www.w3.org/1999/02/22-rdf-syntax-ns#"
   xmlns:svg="http://www.w3.org/2000/svg"
   xmlns="http://www.w3.org/2000/svg"
   viewBox="0 0 600 330"
   height="330"
   width="600"
   xml:space="preserve"
   version="1.1"
   id="svg4386"><metadata
     id="metadata4392"><rdf:RDF><cc:Work
         rdf:about=""><dc:format>image/svg+xml</dc:format><dc:type
           rdf:resource="http://purl.org/dc/dcmitype/StillImage" /><dc:title></dc:title></cc:Work></rdf:RDF></metadata><defs
     id="defs4390"><clipPath
       id="clipPath4404"
       clipPathUnits="userSpaceOnUse"><path
         id="path4406"
         d="M 0,0 480,0 480,264 0,264 0,0 Z" /></clipPath></defs><g
     transform="matrix(1.25,0,0,-1.25,0,330)"
     id="g4394"><g
       id="g4396"><g
         id="g4398"><g
           id="g4400"><g
             clip-path="url(#clipPath4404)"
             id="g4402"><g
               id="g4408"><path
                 id="path4410"
                 style="fill:#ffffff;fill-opacity:1;fill-rule:nonzero;stroke:none"
                 d="m 31.996,263.758 c -17.512,0 -31.754,-14.254 -31.754,-31.766 l 0,-199.996 C 0.242,14.484 14.484,0.242 31.996,0.242 l 416.008,0 c 17.512,0 31.754,14.242 31.754,31.754 l 0,199.996 c 0,17.512 -14.242,31.766 -31.754,31.766" /><path
                 id="path4412"
                 style="fill:#000000;fill-opacity:1;fill-rule:nonzero;stroke:none"
                 d="M 31.996,0.484 C 14.613,0.484 0.484,14.613 0.484,31.996 l 0,199.996 c 0,17.383 14.129,31.524 31.512,31.524 l 416.008,0 c 17.383,0 31.512,-14.141 31.512,-31.524 l 0,-199.996 c 0,-17.383 -14.129,-31.512 -31.512,-31.512 l -416.008,0 z M 448.004,264 31.996,264 C 14.32,264 0,249.672 0,231.992 L 0,31.996 C 0,14.328 14.32,0 31.996,0 L 448.004,0 C 465.672,0 480,14.328 480,31.996 l 0,199.996 C 480,249.672 465.672,264 448.004,264" /></g></g></g></g><path
         id="path4414"
         style="fill:#000000;fill-opacity:1;fill-rule:nonzero;stroke:none"
         d="m 31.996,19.996 416.008,0 c 6.629,0 12,5.371 12,12 l 0,199.996 c 0,6.629 -5.371,12 -12,12 l -416.008,0 c -6.629,0 -12,-5.371 -12,-12 l 0,-199.996 c 0,-6.629 5.371,-12 12,-12 z m 0,-12 c -13.258,0 -24,10.742 -24,24 l 0,199.996 c 0,13.258 10.742,24 24,24 l 416.008,0 c 13.258,0 24,-10.742 24,-24 l 0,-199.996 c 0,-13.258 -10.742,-24 -24,-24" /><path
         id="path4416"
         style="fill:#000000;fill-opacity:1;fill-rule:nonzero;stroke:none"
         d="m 146.656,91.586 -31.515,53.519 28.55,34.481 -16.316,0 -35.965,-44.246 0,44.246 -13.348,0 0,-88 13.348,0 0,25.586 14.832,17.797 24.719,-43.383 15.695,0 z" /><path
         id="path4418"
         style="fill:#000000;fill-opacity:1;fill-rule:nonzero;stroke:none"
         d="m 206.508,91.586 0,62.664 -12.606,0 0,-38.191 c 0,-9.641 -5.933,-13.965 -12.976,-13.965 -7.047,0 -12.61,4.199 -12.61,13.965 l 0,38.191 -12.605,0 0,-40.047 c 0,-7.043 1.484,-12.976 6.305,-17.672 3.707,-3.586 9.019,-5.687 15.449,-5.687 6.301,0 12.359,2.351 16.683,7.047 l 0,-6.305 12.36,0 z" /><path
         id="path4420"
         style="fill:#000000;fill-opacity:1;fill-rule:nonzero;stroke:none"
         d="m 273.066,122.98 c 0,9.516 -0.742,20.145 -7.043,26.45 -3.461,3.461 -9.023,5.562 -15.328,5.562 -6.797,0 -11.863,-1.73 -16.558,-7.418 l 0,6.676 -12.36,0 0,-88 12.606,0 0,31.766 c 4.574,-5.442 9.762,-7.172 16.437,-7.172 6.305,0 11.742,2.101 15.203,5.562 6.301,6.305 7.043,17.059 7.043,26.574 z m -12.605,0 c 0,-11.125 -1.606,-20.886 -12.977,-20.886 -11.371,0 -13.101,9.761 -13.101,20.886 0,11.125 1.73,20.766 13.101,20.766 11.371,0 12.977,-9.641 12.977,-20.766 z" /><path
         id="path4422"
         style="fill:#000000;fill-opacity:1;fill-rule:nonzero;stroke:none"
         d="m 338.184,122.98 c 0,9.516 -0.743,20.145 -7.047,26.45 -3.461,3.461 -9.02,5.562 -15.325,5.562 -6.796,0 -11.867,-1.73 -16.562,-7.418 l 0,6.676 -12.359,0 0,-88 12.605,0 0,31.766 c 4.574,-5.442 9.766,-7.172 16.442,-7.172 6.3,0 11.738,2.101 15.199,5.562 6.304,6.305 7.047,17.059 7.047,26.574 z m -12.606,0 c 0,-11.125 -1.609,-20.886 -12.98,-20.886 -11.371,0 -13.102,9.761 -13.102,20.886 0,11.125 1.731,20.766 13.102,20.766 11.371,0 12.98,-9.641 12.98,-20.766 z" /><path
         id="path4424"
         style="fill:#000000;fill-opacity:1;fill-rule:nonzero;stroke:none"
         d="m 401.938,119.273 0,5.563 c 0,17.797 -9.762,30.156 -26.571,30.156 -16.07,0 -26.574,-11.742 -26.574,-32.012 0,-23.855 12.484,-32.136 28.18,-32.136 11,0 17.054,3.34 23.484,9.765 l -8.035,7.539 c -4.449,-4.449 -8.156,-6.425 -15.203,-6.425 -10.258,0 -15.942,6.797 -15.942,17.55 l 40.661,0 z m -12.481,8.774 -28.18,0 c 0.121,3.832 0.371,5.687 1.606,8.527 1.976,4.699 6.551,7.91 12.484,7.91 5.93,0 10.379,-3.211 12.36,-7.91 1.234,-2.84 1.605,-4.695 1.73,-8.527 z" /></g></g></svg>