<?xml version="1.0" encoding="UTF-8" standalone="no"?>
<svg
   xmlns:dc="http://purl.org/dc/elements/1.1/"
   xmlns:cc="http://creativecommons.org/ns#"
   xmlns:rdf="http://www.w3.org/1999/02/22-rdf-syntax-ns#"
   xmlns:svg="http://www.w3.org/2000/svg"
   xmlns="http://www.w3.org/2000/svg"
   viewBox="0 0 600 450.005"
   height="450.005"
   width="600"
   xml:space="preserve"
   version="1.1"
   id="svg9218"><metadata
     id="metadata9224"><rdf:RDF><cc:Work
         rdf:about=""><dc:format>image/svg+xml</dc:format><dc:type
           rdf:resource="http://purl.org/dc/dcmitype/StillImage" /><dc:title></dc:title></cc:Work></rdf:RDF></metadata><defs
     id="defs9222"><clipPath
       id="clipPath9244"
       clipPathUnits="userSpaceOnUse"><path
         id="path9246"
         d="m 43,57 394,0 0,248 -394,0 0,-248 z" /></clipPath></defs><g
     transform="matrix(1.25,0,0,-1.25,0,450.005)"
     id="g9226"><g
       id="g9228"><path
         id="path9230"
         style="fill:#ffffff;fill-opacity:1;fill-rule:nonzero;stroke:none"
         d="m 31.996,359.774 c -17.504,0 -31.754,-14.25 -31.754,-31.766 L 0.242,32 c 0,-17.508 14.25,-31.758 31.754,-31.758 l 416.008,0 c 17.516,0 31.766,14.25 31.766,31.758 l 0,296.008 c 0,17.516 -14.25,31.766 -31.766,31.766" /><path
         id="path9232"
         style="fill:#000000;fill-opacity:1;fill-rule:nonzero;stroke:none"
         d="M 31.996,0.469 C 14.613,0.469 0.477,14.613 0.477,32 l 0,296.008 c 0,17.383 14.136,31.523 31.519,31.523 l 416.008,0 c 17.383,0 31.519,-14.14 31.519,-31.523 l 0,-296.008 c 0,-17.387 -14.136,-31.531 -31.519,-31.531 l -416.008,0 z m 416.008,359.535 -416.008,0 C 14.328,360.004 0,345.676 0,328.008 L 0,32 C 0,14.328 14.328,0 31.996,0 L 448.004,0 C 465.672,0 480,14.328 480,32 l 0,296.008 c 0,17.668 -14.328,31.996 -31.996,31.996" /><path
         id="path9234"
         style="fill:#000000;fill-opacity:1;fill-rule:nonzero;stroke:none"
         d="m 31.996,352.012 c -13.25,0 -23.992,-10.746 -23.992,-24.004 L 8.004,32 C 8.004,18.75 18.746,7.996 31.996,7.996 l 416.008,0 c 13.25,0 24.004,10.754 24.004,24.004 l 0,296.008 c 0,13.258 -10.754,24.004 -24.004,24.004 l -416.008,0 z m 0,-12.008 416.008,0 c 6.629,0 12.004,-5.367 12.004,-11.996 l 0,-296.008 c 0,-6.633 -5.375,-11.996 -12.004,-11.996 l -416.008,0 C 25.379,20.004 20,25.367 20,32 l 0,296.008 c 0,6.629 5.379,11.996 11.996,11.996 z" /></g><g
       id="g9236"><g
         transform="translate(0,-0.996002)"
         id="g9238"><g
           id="g9240"><g
             clip-path="url(#clipPath9244)"
             id="g9242"><g
               id="g9248"><path
                 id="path9250"
                 style="fill:#000000;fill-opacity:1;fill-rule:nonzero;stroke:none"
                 d="m 287.289,268.676 8.797,0 0,5.492 c 0,2.434 -1.969,4.402 -4.391,4.402 -2.437,0 -4.406,-1.968 -4.406,-4.402 l 0,-5.492 z m 17.59,-13.196 c 0,-7.289 -5.906,-13.191 -13.184,-13.191 -7.293,0 -13.199,5.902 -13.199,13.191 l 0,18.688 c 0,7.293 5.906,13.195 13.199,13.195 7.278,0 13.184,-5.902 13.184,-13.195 l 0,-12.641 -17.59,0 0,-6.047 c 0,-2.418 1.969,-4.386 4.406,-4.386 2.422,0 4.391,1.968 4.391,4.386 l 8.793,0 z m -43.984,0 0,18.688 c 0,2.434 -1.969,4.402 -4.391,4.402 -2.438,0 -4.402,-1.968 -4.402,-4.402 l 0,-18.688 c 0,-2.418 1.964,-4.386 4.402,-4.386 2.422,0 4.391,1.968 4.391,4.386 m 8.808,-12.64 -8.808,0 0,4.402 c -1.614,-3.043 -4.786,-4.953 -8.243,-4.953 -5.156,0 -9.347,4.191 -9.347,9.344 l 0,26.387 c 0,5.168 4.191,9.343 9.347,9.343 3.457,0 6.629,-1.898 8.243,-4.957 l 0,21.985 8.808,0 0,-61.551 z m -60.484,0 0,43.969 8.793,0 0,-4.403 c 1.629,3.059 4.8,4.957 8.258,4.957 5.156,0 9.332,-4.175 9.332,-9.343 l 0,-35.18 -8.793,0 0,31.328 c 0,2.434 -1.969,4.402 -4.391,4.402 -2.438,0 -4.406,-1.968 -4.406,-4.402 l 0,-31.328 -8.793,0 z m -34.086,0 0,61.551 26.398,0 0,-8.239 -17.605,0 0,-18.132 15.394,0 0,-8.239 -15.394,0 0,-18.148 17.605,0 0,-8.793 -26.398,0 z" /><path
                 id="path9252"
                 style="fill:#000000;fill-opacity:1;fill-rule:nonzero;stroke:none"
                 d="m 409.898,150.504 0,43.969 8.797,0 0,-4.387 c 1.629,3.027 4.801,4.941 8.254,4.941 5.156,0 9.348,-4.191 9.348,-9.343 l 0,-35.18 -8.793,0 0,31.328 c 0,2.422 -1.969,4.402 -4.406,4.402 -2.434,0 -4.403,-1.98 -4.403,-4.402 l 0,-31.328 -8.797,0 z m -25.289,25.836 8.793,0 0,5.492 c 0,2.422 -1.968,4.402 -4.39,4.402 -2.434,0 -4.403,-1.98 -4.403,-4.402 l 0,-5.492 z m 17.586,-13.195 c 0,-7.29 -5.902,-13.192 -13.183,-13.192 -7.293,0 -13.2,5.902 -13.2,13.192 l 0,18.687 c 0,7.289 5.907,13.195 13.2,13.195 7.281,0 13.183,-5.906 13.183,-13.195 l 0,-12.641 -17.586,0 0,-6.046 c 0,-2.434 1.969,-4.387 4.403,-4.387 2.422,0 4.39,1.953 4.39,4.387 l 8.793,0 z m -46.179,-12.641 0,36.82 -4.391,0 0,7.149 4.391,0 0,6.597 c 0,6.075 4.929,11 11.004,11 l 4.39,0 0,-8.254 -3.851,0 c -1.504,0 -2.75,-1.23 -2.75,-2.746 l 0,-6.597 6.601,0 0,-7.149 -6.601,0 0,-36.82 -8.793,0 z m -19.782,61.566 8.793,0 0,-8.793 -8.793,0 0,8.793 z m 0,-17.597 8.793,0 0,-43.969 -8.793,0 0,43.969 z m -25.308,-18.133 8.808,0 0,5.492 c 0,2.422 -1.968,4.402 -4.402,4.402 -2.437,0 -4.406,-1.98 -4.406,-4.402 l 0,-5.492 z m 17.601,-13.195 c 0,-7.29 -5.902,-13.192 -13.195,-13.192 -7.293,0 -13.199,5.902 -13.199,13.192 l 0,18.687 c 0,7.289 5.906,13.195 13.199,13.195 7.293,0 13.195,-5.906 13.195,-13.195 l 0,-12.641 -17.601,0 0,-6.046 c 0,-2.434 1.969,-4.387 4.406,-4.387 2.434,0 4.402,1.953 4.402,4.387 l 8.793,0 z m -50.031,-12.641 0,43.969 8.793,0 0,-4.953 c 2.82,3.48 7.066,5.507 11.543,5.507 l 0,-9.246 c -0.879,0.297 -1.812,0.453 -2.746,0.453 -4.859,0 -8.797,-3.949 -8.797,-8.789 l 0,-26.941 -8.793,0 z m -7.687,0 -4.407,0 c -5.464,0 -9.898,4.43 -9.898,9.894 l 0,26.926 -4.402,0 0,7.149 4.402,0 0,13.195 8.793,0 0,-13.195 5.512,0 0,-7.149 -5.512,0 0,-25.82 c 0,-1.527 1.234,-2.746 2.75,-2.746 l 2.762,0 0,-8.254 z m -48.391,12.641 8.242,0 c 0,-2.731 2.207,-4.938 4.942,-4.938 2.746,0 4.957,2.207 4.957,4.938 0,1.953 -1.161,3.738 -2.946,4.515 l -7.125,2.621 c -4.574,2.024 -7.519,6.555 -7.519,11.551 0,6.98 5.652,12.641 12.633,12.641 6.996,0 12.644,-5.661 12.644,-12.641 l -8.238,0 c 0,2.422 -1.969,4.402 -4.406,4.402 -2.422,0 -4.391,-1.98 -4.391,-4.402 0,-1.742 1.019,-3.312 2.621,-4.02 l 7.121,-2.605 c 4.774,-2.109 7.848,-6.836 7.848,-12.062 0,-7.29 -5.906,-13.192 -13.199,-13.192 -7.278,0 -13.184,5.902 -13.184,13.192 m -32.996,-12.641 0,43.969 8.793,0 0,-4.387 c 1.629,3.027 4.801,4.941 8.258,4.941 5.152,0 9.343,-4.191 9.343,-9.343 l 0,-35.18 -8.793,0 0,31.328 c 0,2.422 -1.968,4.402 -4.402,4.402 -2.437,0 -4.406,-1.98 -4.406,-4.402 l 0,-31.328 -8.793,0 z m -25.293,25.836 8.793,0 0,5.492 c 0,2.422 -1.969,4.402 -4.387,4.402 -2.437,0 -4.406,-1.98 -4.406,-4.402 l 0,-5.492 z m 17.59,-13.195 c 0,-7.29 -5.891,-13.192 -13.184,-13.192 -7.293,0 -13.199,5.902 -13.199,13.192 l 0,18.687 c 0,7.289 5.906,13.195 13.199,13.195 7.293,0 13.184,-5.906 13.184,-13.195 l 0,-12.641 -17.59,0 0,-6.046 c 0,-2.434 1.969,-4.387 4.406,-4.387 2.418,0 4.387,1.953 4.387,4.387 l 8.797,0 z m -31.879,-12.641 -4.402,0 c -5.469,0 -9.899,4.43 -9.899,9.894 l 0,26.926 -4.391,0 0,7.149 4.391,0 0,13.195 8.809,0 0,-13.195 5.492,0 0,-7.149 -5.492,0 0,-25.82 c 0,-1.527 1.214,-2.746 2.746,-2.746 l 2.746,0 0,-8.254 z m -35.192,61.566 8.797,0 0,-8.793 -8.797,0 0,8.793 z m 0,-17.597 8.797,0 0,-43.969 -8.797,0 0,43.969 z m -25.293,-18.133 8.797,0 0,5.492 c 0,2.422 -1.968,4.402 -4.39,4.402 -2.438,0 -4.407,-1.98 -4.407,-4.402 l 0,-5.492 z m 17.59,-13.195 c 0,-7.29 -5.89,-13.192 -13.183,-13.192 -7.293,0 -13.2,5.902 -13.2,13.192 l 0,18.687 c 0,7.289 5.907,13.195 13.2,13.195 7.293,0 13.183,-5.906 13.183,-13.195 l 0,-12.641 -17.59,0 0,-6.046 c 0,-2.434 1.969,-4.387 4.407,-4.387 2.422,0 4.39,1.953 4.39,4.387 l 8.793,0 z m -63.23,4.941 8.808,0 0,-3.285 c 0,-3.34 2.704,-6.043 6.047,-6.043 l 0.551,0 c 3.344,0 6.047,2.703 6.047,6.043 l 0,6.582 c 0,2.48 -1.5,4.687 -3.781,5.609 l -7.844,3.184 c -5.609,2.265 -9.277,7.699 -9.277,13.746 l 0,3.851 c 0,8.196 6.656,14.836 14.855,14.836 8.199,0 14.844,-6.64 14.844,-14.836 l 0,-3.3 -8.797,0 0,3.3 c 0,3.34 -2.703,6.043 -6.047,6.043 -3.34,0 -6.047,-2.703 -6.047,-6.043 l 0,-3.851 c 0,-2.465 1.488,-4.672 3.77,-5.606 l 7.844,-3.171 c 5.609,-2.266 9.277,-7.7 9.277,-13.762 l 0,-6.582 c 0,-8.196 -6.645,-14.848 -14.844,-14.848 l -0.551,0 c -8.199,0 -14.855,6.652 -14.855,14.848 l 0,3.285 z" /><path
                 id="path9254"
                 style="fill:#000000;fill-opacity:1;fill-rule:nonzero;stroke:none"
                 d="m 307.629,58.168 0,43.969 8.809,0 0,-4.387 c 1.617,3.027 4.789,4.938 8.242,4.938 3.246,0 6.246,-1.668 7.945,-4.43 1.969,2.773 5.141,4.43 8.539,4.43 5.777,0 10.453,-4.668 10.453,-10.446 l 0,-34.074 -8.797,0 0,31.328 c 0,2.434 -1.968,4.402 -4.402,4.402 -2.422,0 -4.391,-1.968 -4.391,-4.402 l 0,-31.328 -8.793,0 0,31.328 c 0,2.434 -1.968,4.402 -4.406,4.402 -2.422,0 -4.39,-1.968 -4.39,-4.402 l 0,-31.328 -8.809,0 z m -27.484,12.641 c 0,-2.434 1.968,-4.403 4.402,-4.403 2.422,0 4.391,1.969 4.391,4.403 l 0,36.285 c 0,2.418 -1.969,4.386 -4.391,4.386 -2.434,0 -4.402,-1.968 -4.402,-4.386 l 0,-36.285 z m -8.797,0 0,36.285 c 0,7.273 5.906,13.179 13.199,13.179 7.281,0 13.199,-5.906 13.199,-13.179 l 0,-36.285 c 0,-7.278 -5.918,-13.192 -13.199,-13.192 -7.293,0 -13.199,5.914 -13.199,13.192 m -27.485,0 c 0,-2.434 1.969,-4.403 4.391,-4.403 2.434,0 4.402,1.969 4.402,4.403 l 0,36.285 c 0,2.418 -1.968,4.386 -4.402,4.386 -2.422,0 -4.391,-1.968 -4.391,-4.386 l 0,-36.285 z m -8.797,0 0,36.285 c 0,7.273 5.895,13.179 13.188,13.179 7.293,0 13.195,-5.906 13.195,-13.179 l 0,-36.285 c 0,-7.278 -5.902,-13.192 -13.195,-13.192 -7.293,0 -13.188,5.914 -13.188,13.192 m -35.191,-12.641 0,8.238 16.586,31.653 c 0.664,1.261 1.004,2.664 1.004,4.078 l 0,4.957 c 0,2.418 -1.969,4.386 -4.403,4.386 -2.421,0 -4.39,-1.968 -4.39,-4.386 l 0,-4.957 -8.797,0 0,4.957 c 0,7.273 5.906,13.179 13.187,13.179 7.293,0 13.196,-5.906 13.196,-13.179 l 0,-4.957 c 0,-2.801 -0.664,-5.563 -1.953,-8.055 l -13.993,-27.125 15.946,0 0,-8.789 -26.383,0 z m -61.586,0 0,43.969 8.793,0 0,-4.387 c 1.629,3.027 4.801,4.938 8.258,4.938 5.152,0 9.348,-4.176 9.348,-9.34 l 0,-35.18 -8.809,0 0,31.328 c 0,2.434 -1.969,4.402 -4.391,4.402 -2.437,0 -4.406,-1.968 -4.406,-4.402 l 0,-31.328 -8.793,0 z m -17.59,61.566 8.797,0 0,-8.793 -8.797,0 0,8.793 z m 0,-17.597 8.797,0 0,-43.969 -8.797,0 0,43.969 z" /></g></g></g></g></g></g></svg>