<?xml version="1.0" encoding="UTF-8" standalone="no"?>
<svg
   xmlns:dc="http://purl.org/dc/elements/1.1/"
   xmlns:cc="http://creativecommons.org/ns#"
   xmlns:rdf="http://www.w3.org/1999/02/22-rdf-syntax-ns#"
   xmlns:svg="http://www.w3.org/2000/svg"
   xmlns="http://www.w3.org/2000/svg"
   viewBox="0 0 600 330"
   height="330"
   width="600"
   xml:space="preserve"
   version="1.1"
   id="svg4057"><metadata
     id="metadata4063"><rdf:RDF><cc:Work
         rdf:about=""><dc:format>image/svg+xml</dc:format><dc:type
           rdf:resource="http://purl.org/dc/dcmitype/StillImage" /><dc:title></dc:title></cc:Work></rdf:RDF></metadata><defs
     id="defs4061"><clipPath
       id="clipPath4073"
       clipPathUnits="userSpaceOnUse"><path
         id="path4075"
         d="M 0,0 480,0 480,264 0,264 0,0 Z" /></clipPath></defs><g
     transform="matrix(1.25,0,0,-1.25,0,330)"
     id="g4065"><g
       id="g4067"><g
         id="g4069"><g
           id="g4071" /><g
           id="g4077"><g
             id="g4079"
             clip-path="url(#clipPath4073)"><g
               id="g4081"><path
                 id="path4083"
                 style="fill:#ffffff;fill-opacity:1;fill-rule:nonzero;stroke:none"
                 d="m 31.996,263.758 c -17.512,0 -31.754,-14.254 -31.754,-31.766 l 0,-199.996 C 0.242,14.484 14.484,0.242 31.996,0.242 l 416.008,0 c 17.512,0 31.754,14.242 31.754,31.754 l 0,199.996 c 0,17.512 -14.242,31.766 -31.754,31.766" /><path
                 id="path4085"
                 style="fill:#000000;fill-opacity:1;fill-rule:nonzero;stroke:none"
                 d="M 31.996,0.484 C 14.613,0.484 0.484,14.613 0.484,31.996 l 0,199.996 c 0,17.383 14.129,31.524 31.512,31.524 l 416.008,0 c 17.383,0 31.512,-14.141 31.512,-31.524 l 0,-199.996 c 0,-17.383 -14.129,-31.512 -31.512,-31.512 l -416.008,0 z M 448.004,264 31.996,264 C 14.32,264 0,249.672 0,231.992 L 0,31.996 C 0,14.328 14.32,0 31.996,0 L 448.004,0 C 465.672,0 480,14.328 480,31.996 l 0,199.996 C 480,249.672 465.672,264 448.004,264" /></g></g></g></g></g><g
       id="g4087"><path
         id="path4089"
         style="fill:#000000;fill-opacity:1;fill-rule:nonzero;stroke:none"
         d="m 31.996,19.996 416.008,0 c 6.629,0 12,5.371 12,12 l 0,199.996 c 0,6.629 -5.371,12 -12,12 l -416.008,0 c -6.629,0 -12,-5.371 -12,-12 l 0,-199.996 c 0,-6.629 5.371,-12 12,-12 z m 0,-12 c -13.258,0 -24,10.742 -24,24 l 0,199.996 c 0,13.258 10.742,24 24,24 l 416.008,0 c 13.258,0 24,-10.742 24,-24 l 0,-199.996 c 0,-13.258 -10.742,-24 -24,-24" /><path
         id="path4091"
         style="fill:#000000;fill-opacity:1;fill-rule:nonzero;stroke:none"
         d="m 59.68,148.09 -12.914,63.336 9.496,0 7.312,-43.965 7.5,43.965 9.594,0 -13.203,-63.336 -7.785,0 z m 38.187,8.64 c 1.328,0 2.406,0.415 3.227,1.235 0.824,0.824 1.328,1.902 1.519,3.23 l 9.024,0 0,-1.043 c 0,-1.394 -0.301,-2.785 -0.903,-4.179 -0.601,-1.395 -1.851,-3.149 -3.754,-5.27 -1.898,-2.121 -4.871,-3.183 -8.921,-3.183 -2.598,0 -4.989,0.695 -7.172,2.089 -2.184,1.391 -3.688,2.93 -4.512,4.606 -0.824,1.68 -1.344,3.199 -1.566,4.558 -0.223,1.36 -0.332,2.707 -0.332,4.036 l 0,17.187 c 0,3.734 1.343,6.981 4.035,9.734 2.691,2.754 5.902,4.129 9.64,4.129 3.864,0 7.075,-1.343 9.637,-4.035 2.566,-2.691 3.848,-5.965 3.848,-9.828 l 0,-12.535 -18.043,0 0,-6.742 c 0,-0.949 0.461,-1.852 1.375,-2.703 0.918,-0.856 1.883,-1.286 2.898,-1.286 z m 0.192,28.204 c -1.207,0 -2.25,-0.411 -3.137,-1.235 -0.887,-0.824 -1.328,-2.277 -1.328,-4.367 l 0,-4.461 8.926,0 0,4.461 c 0,1.648 -0.348,2.992 -1.043,4.035 -0.7,1.043 -1.836,1.567 -3.418,1.567 z m 41.636,8.925 0,-9.304 c -0.441,0.125 -0.882,0.218 -1.328,0.285 -0.441,0.062 -0.855,0.094 -1.234,0.094 -2.977,0 -5.254,-1.012 -6.836,-3.039 -1.582,-2.024 -2.375,-4.461 -2.375,-7.313 l 0,-26.492 -9.117,0 0,45.203 9.117,0 0,-4.848 c 1.582,1.965 3.527,3.356 5.84,4.18 2.308,0.824 4.289,1.234 5.933,1.234 z m 17.219,-37.793 c 1.391,0 2.594,0.446 3.606,1.332 1.011,0.883 1.519,2.024 1.519,3.418 0,1.645 -0.426,2.864 -1.281,3.657 -0.852,0.789 -2.199,1.5 -4.035,2.136 l -1.805,0.664 c -1.898,0.696 -3.48,1.375 -4.746,2.043 -1.266,0.664 -2.629,1.868 -4.086,3.606 -1.453,1.742 -2.18,4.258 -2.18,7.551 0,3.734 1.297,6.898 3.891,9.492 2.598,2.598 5.793,3.894 9.59,3.894 3.484,0 6.426,-1.328 8.832,-3.988 2.406,-2.656 3.605,-5.664 3.605,-9.019 l -8.351,0 c 0,1.328 -0.43,2.421 -1.285,3.277 -0.852,0.851 -1.977,1.281 -3.372,1.281 -1.265,0 -2.308,-0.476 -3.132,-1.426 -0.821,-0.949 -1.235,-2.089 -1.235,-3.418 0,-1.39 0.414,-2.468 1.235,-3.23 0.824,-0.758 2.027,-1.426 3.609,-1.992 l 2.945,-0.949 c 1.707,-0.633 3.055,-1.235 4.035,-1.805 0.981,-0.57 1.961,-1.426 2.942,-2.563 0.98,-1.14 1.789,-2.468 2.422,-3.988 0.633,-1.519 0.953,-3.133 0.953,-4.844 0,-3.672 -1.317,-6.886 -3.942,-9.64 -2.628,-2.75 -5.777,-4.129 -9.453,-4.129 -2.215,0 -4.445,0.601 -6.691,1.804 -2.246,1.204 -3.988,2.833 -5.223,4.891 -1.234,2.059 -1.851,4.383 -1.851,6.977 l 8.449,0 c 0,-1.391 0.492,-2.578 1.473,-3.559 0.98,-0.98 2.168,-1.473 3.562,-1.473 z m 46.156,5.032 c 0,-3.735 -1.359,-6.93 -4.082,-9.59 -2.722,-2.66 -5.953,-3.988 -9.687,-3.988 -2.028,0 -4.035,0.523 -6.031,1.566 -1.993,1.047 -3.497,2.297 -4.508,3.754 -1.016,1.453 -1.727,2.941 -2.137,4.461 -0.41,1.519 -0.617,3.07 -0.617,4.652 l 0,17.664 c 0,3.735 1.281,7.043 3.844,9.922 2.566,2.879 5.746,4.32 9.543,4.32 3.925,0 7.187,-1.39 9.781,-4.175 2.597,-2.786 3.894,-6.141 3.894,-10.067 l -9.019,0 c 0,1.391 -0.399,2.625 -1.188,3.703 -0.793,1.075 -1.883,1.614 -3.277,1.614 -0.82,0 -1.535,-0.172 -2.137,-0.52 -0.601,-0.348 -1.14,-0.887 -1.613,-1.617 -0.477,-0.727 -0.711,-1.789 -0.711,-3.18 l 0,-17.664 c 0,-1.644 0.348,-2.941 1.043,-3.89 0.695,-0.954 1.867,-1.426 3.512,-1.426 1.332,0 2.39,0.492 3.183,1.472 0.789,0.981 1.188,2.168 1.188,3.559 l 9.019,0 0,-0.57 z m 24.188,32.761 c 1.648,0 3.199,-0.441 4.656,-1.328 1.457,-0.886 2.5,-1.914 3.133,-3.086 0.633,-1.172 1.027,-2.168 1.187,-2.992 0.161,-0.824 0.239,-1.898 0.239,-3.23 l 0,-35.133 -9.118,0 0,31.719 c 0,1.519 -0.347,2.75 -1.046,3.703 -0.696,0.949 -1.801,1.422 -3.321,1.422 -1.328,0 -2.422,-0.524 -3.277,-1.567 -0.856,-1.043 -1.281,-2.23 -1.281,-3.558 l 0,-31.719 -9.117,0 0,63.336 9.117,0 0,-22.504 c 2.09,3.293 5.031,4.937 8.828,4.937 z m 43.027,-4.652 c 1.203,1.52 2.531,2.676 3.988,3.465 1.457,0.793 3.102,1.187 4.938,1.187 3.102,0 5.652,-1.089 7.644,-3.277 1.997,-2.184 2.993,-4.824 2.993,-7.926 l 0,-34.566 -9.118,0 0,32.004 c 0,1.453 -0.363,2.64 -1.089,3.558 -0.731,0.918 -1.856,1.379 -3.371,1.379 -1.27,0 -2.329,-0.492 -3.184,-1.472 -0.852,-0.981 -1.281,-2.137 -1.281,-3.465 l 0,-32.004 -9.117,0 0,32.004 c 0,1.39 -0.411,2.562 -1.235,3.511 -0.82,0.95 -1.93,1.426 -3.324,1.426 -1.262,0 -2.324,-0.492 -3.18,-1.472 -0.855,-0.981 -1.281,-2.137 -1.281,-3.465 l 0,-32.004 -9.117,0 0,45.203 9.117,0 0,-4.086 c 2.09,3.102 4.937,4.652 8.547,4.652 1.707,0 3.242,-0.394 4.605,-1.187 1.36,-0.789 2.516,-1.945 3.465,-3.465 z m 45.633,-41.117 0,4.558 c -1.078,-1.644 -2.262,-2.91 -3.563,-3.796 -1.296,-0.891 -2.863,-1.332 -4.699,-1.332 -1.836,0 -3.562,0.507 -5.176,1.519 -1.613,1.016 -2.738,2.168 -3.371,3.465 -0.632,1.297 -0.996,2.359 -1.093,3.184 -0.094,0.82 -0.141,2.023 -0.141,3.609 l 0,33.996 9.117,0 0,-30.578 c 0,-0.695 0.016,-1.41 0.047,-2.137 0.031,-0.73 0.383,-1.566 1.047,-2.515 0.664,-0.954 1.82,-1.426 3.465,-1.426 0.824,0 1.582,0.222 2.277,0.664 0.695,0.445 1.188,0.965 1.473,1.566 0.281,0.602 0.457,1.25 0.519,1.946 0.067,0.699 0.098,1.332 0.098,1.902 l 0,30.578 9.117,0 0,-45.203 -9.117,0 z m 30.68,8.64 2.09,0 0,-8.64 -2.848,0 c -1.711,0 -3.231,0.176 -4.559,0.523 -1.332,0.348 -2.629,1.059 -3.894,2.137 -1.266,1.078 -2.153,2.262 -2.66,3.563 -0.504,1.296 -0.758,2.894 -0.758,4.792 l 0,27.063 -4.461,0 0,7.125 4.461,0 0,13.672 9.117,0 0,-13.672 5.602,0 0,-7.125 -5.602,0 0,-25.449 c 0,-1.52 0.207,-2.563 0.617,-3.133 0.41,-0.57 1.375,-0.856 2.895,-0.856 z m 6.965,-8.64 0,7.504 14.527,29.91 -13.485,0 0,7.789 23.645,0 0,-6.555 -14.527,-30.008 14.527,0 0,-8.64 -24.687,0 z m 44.41,8.64 2.09,0 0,-8.64 -2.852,0 c -1.707,0 -3.227,0.176 -4.559,0.523 -1.328,0.348 -2.625,1.059 -3.89,2.137 -1.266,1.078 -2.153,2.262 -2.66,3.563 -0.508,1.296 -0.758,2.894 -0.758,4.792 l 0,27.063 -4.465,0 0,7.125 4.465,0 0,13.672 9.117,0 0,-13.672 5.602,0 0,-7.125 -5.602,0 0,-25.449 c 0,-1.52 0.203,-2.563 0.617,-3.133 0.41,-0.57 1.375,-0.856 2.895,-0.856 z m 21.488,0 c 1.332,0 2.41,0.415 3.23,1.235 0.825,0.824 1.329,1.902 1.52,3.23 l 9.023,0 0,-1.043 c 0,-1.394 -0.3,-2.785 -0.902,-4.179 -0.602,-1.395 -1.855,-3.149 -3.754,-5.27 -1.898,-2.121 -4.875,-3.183 -8.926,-3.183 -2.593,0 -4.984,0.695 -7.168,2.089 -2.187,1.391 -3.687,2.93 -4.511,4.606 -0.825,1.68 -1.344,3.199 -1.567,4.558 -0.222,1.36 -0.332,2.707 -0.332,4.036 l 0,17.187 c 0,3.734 1.344,6.981 4.035,9.734 2.692,2.754 5.903,4.129 9.641,4.129 3.859,0 7.074,-1.343 9.637,-4.035 2.566,-2.691 3.847,-5.965 3.847,-9.828 l 0,-12.535 -18.043,0 0,-6.742 c 0,-0.949 0.457,-1.852 1.375,-2.703 0.918,-0.856 1.883,-1.286 2.895,-1.286 z m 0.191,28.204 c -1.203,0 -2.246,-0.411 -3.132,-1.235 -0.887,-0.824 -1.329,-2.277 -1.329,-4.367 l 0,-4.461 8.926,0 0,4.461 c 0,1.648 -0.347,2.992 -1.047,4.035 -0.695,1.043 -1.836,1.567 -3.418,1.567 z M 111.039,53.133 l 0,63.336 26.969,0 0,-8.547 -18.043,0 0,-18.988 15.855,0 0,-8.454 -15.855,0 0,-27.347 -8.926,0 z m 34.203,4.746 c -0.445,0.762 -0.73,1.601 -0.855,2.519 -0.125,0.918 -0.192,1.946 -0.192,3.086 l 0,5.125 c 0,3.356 0.84,5.856 2.52,7.504 1.676,1.645 3.195,2.77 4.558,3.371 1.36,0.598 2.989,0.899 4.891,0.899 l 6.074,0 0,3.894 c 0,0.887 -0.047,1.618 -0.14,2.184 -0.094,0.57 -0.493,1.297 -1.188,2.184 -0.695,0.886 -1.644,1.332 -2.851,1.332 -1.262,0 -2.34,-0.414 -3.227,-1.235 -0.887,-0.824 -1.426,-1.898 -1.613,-3.23 l -9.024,0 c 0,3.672 1.317,6.82 3.942,9.449 2.629,2.625 5.808,3.941 9.543,3.941 3.672,0 6.871,-1.297 9.593,-3.894 2.723,-2.594 4.082,-5.762 4.082,-9.496 l 0,-32.379 -9.117,0 0,4.558 c -0.949,-1.582 -2.133,-2.832 -3.558,-3.753 -1.426,-0.918 -3.024,-1.375 -4.797,-1.375 -3.988,0 -6.867,1.769 -8.641,5.316 z m 8.071,10.828 0,-2.281 c 0,-1.203 0.429,-2.293 1.285,-3.278 0.851,-0.98 1.976,-1.468 3.367,-1.468 0.762,0 1.473,0.187 2.14,0.566 0.665,0.383 1.168,0.902 1.516,1.567 0.348,0.664 0.539,1.519 0.57,2.566 0.032,1.043 0.047,1.789 0.047,2.23 l 0,4.371 -3.418,0 c -1.648,0 -2.976,-0.316 -3.988,-0.953 -1.012,-0.632 -1.519,-1.738 -1.519,-3.32 z m 43.902,30.195 c 1.644,0 3.195,-0.445 4.652,-1.328 1.457,-0.886 2.504,-1.918 3.137,-3.086 0.633,-1.172 1.027,-2.172 1.184,-2.992 0.16,-0.824 0.238,-1.902 0.238,-3.23 l 0,-35.133 -9.117,0 0,31.715 c 0,1.519 -0.348,2.754 -1.043,3.703 -0.696,0.949 -1.805,1.426 -3.325,1.426 -1.328,0 -2.421,-0.524 -3.273,-1.567 -0.855,-1.043 -1.285,-2.23 -1.285,-3.562 l 0,-31.715 -9.117,0 0,63.336 9.117,0 0,-22.504 c 2.09,3.289 5.031,4.937 8.832,4.937 z m 38.183,0 0,-9.304 c -0.445,0.125 -0.886,0.218 -1.332,0.281 -0.441,0.066 -0.855,0.098 -1.234,0.098 -2.977,0 -5.254,-1.012 -6.836,-3.039 -1.582,-2.028 -2.375,-4.465 -2.375,-7.313 l 0,-26.492 -9.117,0 0,45.199 9.117,0 0,-4.844 c 1.582,1.961 3.531,3.356 5.84,4.18 2.312,0.82 4.289,1.234 5.937,1.234 z m 23.293,0 c 3.735,0 6.172,-0.964 7.309,-2.898 1.141,-1.93 1.805,-3.449 1.996,-4.559 0.192,-1.105 0.285,-2.101 0.285,-2.988 l 0,-24.785 c 0,-1.582 -0.109,-2.91 -0.332,-3.988 -0.222,-1.075 -1.015,-2.532 -2.375,-4.368 -1.363,-1.836 -3.687,-2.753 -6.98,-2.753 -1.77,0 -3.371,0.457 -4.793,1.375 -1.426,0.921 -2.613,2.171 -3.563,3.753 l 0,-4.558 -9.117,0 0,63.336 9.117,0 0,-22.504 c 2.028,3.289 4.844,4.937 8.453,4.937 z m -4.086,-8.925 c -1.265,0 -2.308,-0.508 -3.132,-1.52 -0.821,-1.016 -1.235,-2.187 -1.235,-3.516 l 0,-17.851 c 0,-1.457 0.27,-2.723 0.809,-3.797 0.539,-1.078 1.726,-1.613 3.558,-1.613 1.333,0 2.422,0.394 3.278,1.183 0.855,0.793 1.281,1.696 1.281,2.711 l 0,19.367 c 0,1.457 -0.41,2.661 -1.234,3.61 -0.821,0.949 -1.93,1.426 -3.325,1.426 z m 21.579,-32.098 c -0.446,0.762 -0.731,1.601 -0.86,2.519 -0.125,0.918 -0.187,1.946 -0.187,3.086 l 0,5.125 c 0,3.356 0.836,5.856 2.515,7.504 1.68,1.645 3.2,2.77 4.559,3.371 1.359,0.598 2.992,0.899 4.891,0.899 l 6.078,0 0,3.894 c 0,0.887 -0.051,1.618 -0.145,2.184 -0.094,0.57 -0.488,1.297 -1.187,2.184 -0.696,0.886 -1.645,1.332 -2.848,1.332 -1.266,0 -2.344,-0.414 -3.23,-1.235 -0.887,-0.824 -1.422,-1.898 -1.614,-3.23 l -9.019,0 c 0,3.672 1.312,6.82 3.941,9.449 2.625,2.625 5.809,3.941 9.543,3.941 3.672,0 6.867,-1.297 9.59,-3.894 2.723,-2.594 4.082,-5.762 4.082,-9.496 l 0,-32.379 -9.113,0 0,4.558 c -0.95,-1.582 -2.137,-2.832 -3.563,-3.753 -1.426,-0.918 -3.023,-1.375 -4.797,-1.375 -3.988,0 -6.867,1.769 -8.636,5.316 z m 8.07,10.828 0,-2.281 c 0,-1.203 0.426,-2.293 1.281,-3.278 0.856,-0.98 1.977,-1.468 3.367,-1.468 0.762,0 1.477,0.187 2.141,0.566 0.664,0.383 1.168,0.902 1.52,1.567 0.347,0.664 0.535,1.519 0.566,2.566 0.031,1.043 0.051,1.789 0.051,2.23 l 0,4.371 -3.422,0 c -1.645,0 -2.977,-0.316 -3.988,-0.953 -1.012,-0.632 -1.516,-1.738 -1.516,-3.32 z m 43.898,30.195 c 1.645,0 3.2,-0.445 4.653,-1.328 1.457,-0.886 2.504,-1.918 3.136,-3.086 0.633,-1.172 1.028,-2.172 1.188,-2.992 0.156,-0.824 0.234,-1.902 0.234,-3.23 l 0,-35.133 -9.113,0 0,31.715 c 0,1.519 -0.352,2.754 -1.047,3.703 -0.695,0.949 -1.805,1.426 -3.32,1.426 -1.332,0 -2.422,-0.524 -3.278,-1.567 -0.855,-1.043 -1.281,-2.23 -1.281,-3.562 l 0,-31.715 -9.117,0 0,63.336 9.117,0 0,-22.504 c 2.086,3.289 5.031,4.937 8.828,4.937 z m 43.024,-4.652 c 0.512,-0.762 0.859,-1.68 1.047,-2.754 0.191,-1.078 0.285,-2.152 0.285,-3.23 l 0,-35.133 -9.117,0 0,31.808 c 0,3.356 -1.489,5.036 -4.461,5.036 -1.332,0 -2.407,-0.508 -3.231,-1.52 -0.82,-1.016 -1.234,-2.187 -1.234,-3.516 l 0,-31.808 -9.117,0 0,45.199 9.117,0 0,-4.367 c 2.027,3.289 4.844,4.937 8.453,4.937 3.672,0 6.426,-1.55 8.258,-4.652 z" /></g></g></svg>