<?xml version="1.0" encoding="UTF-8" standalone="no"?>
<svg
   xmlns:dc="http://purl.org/dc/elements/1.1/"
   xmlns:cc="http://creativecommons.org/ns#"
   xmlns:rdf="http://www.w3.org/1999/02/22-rdf-syntax-ns#"
   xmlns:svg="http://www.w3.org/2000/svg"
   xmlns="http://www.w3.org/2000/svg"
   viewBox="0 0 600 330"
   height="330"
   width="600"
   xml:space="preserve"
   version="1.1"
   id="svg4197"><metadata
     id="metadata4203"><rdf:RDF><cc:Work
         rdf:about=""><dc:format>image/svg+xml</dc:format><dc:type
           rdf:resource="http://purl.org/dc/dcmitype/StillImage" /><dc:title></dc:title></cc:Work></rdf:RDF></metadata><defs
     id="defs4201"><clipPath
       id="clipPath4215"
       clipPathUnits="userSpaceOnUse"><path
         id="path4217"
         d="M 0,0 480,0 480,264 0,264 0,0 Z" /></clipPath></defs><g
     transform="matrix(1.25,0,0,-1.25,0,330)"
     id="g4205"><g
       id="g4207"><g
         id="g4209"><g
           id="g4211"><g
             clip-path="url(#clipPath4215)"
             id="g4213"><g
               id="g4219"><path
                 id="path4221"
                 style="fill:#ffffff;fill-opacity:1;fill-rule:nonzero;stroke:none"
                 d="m 31.996,263.758 c -17.512,0 -31.754,-14.254 -31.754,-31.766 l 0,-199.996 C 0.242,14.484 14.484,0.242 31.996,0.242 l 416.008,0 c 17.512,0 31.754,14.242 31.754,31.754 l 0,199.996 c 0,17.512 -14.242,31.766 -31.754,31.766" /><path
                 id="path4223"
                 style="fill:#000000;fill-opacity:1;fill-rule:nonzero;stroke:none"
                 d="M 31.996,0.484 C 14.613,0.484 0.484,14.613 0.484,31.996 l 0,199.996 c 0,17.383 14.129,31.524 31.512,31.524 l 416.008,0 c 17.383,0 31.512,-14.141 31.512,-31.524 l 0,-199.996 c 0,-17.383 -14.129,-31.512 -31.512,-31.512 l -416.008,0 z M 448.004,264 31.996,264 C 14.32,264 0,249.672 0,231.992 L 0,31.996 C 0,14.328 14.32,0 31.996,0 L 448.004,0 C 465.672,0 480,14.328 480,31.996 l 0,199.996 C 480,249.672 465.672,264 448.004,264" /></g></g></g></g><path
         id="path4225"
         style="fill:#000000;fill-opacity:1;fill-rule:nonzero;stroke:none"
         d="m 31.996,19.996 416.008,0 c 6.629,0 12,5.371 12,12 l 0,199.996 c 0,6.629 -5.371,12 -12,12 l -416.008,0 c -6.629,0 -12,-5.371 -12,-12 l 0,-199.996 c 0,-6.629 5.371,-12 12,-12 z m 0,-12 c -13.258,0 -24,10.742 -24,24 l 0,199.996 c 0,13.258 10.742,24 24,24 l 416.008,0 c 13.258,0 24,-10.742 24,-24 l 0,-199.996 c 0,-13.258 -10.742,-24 -24,-24" /><path
         id="path4227"
         style="fill:#000000;fill-opacity:1;fill-rule:nonzero;stroke:none"
         d="m 99.434,88.062 0,11.989 -40.911,0 40.911,65.133 0,10.878 -54.629,0 0,-11.988 38.929,0 -40.66,-64.519 0,-11.493 56.36,0 z" /><path
         id="path4229"
         style="fill:#000000;fill-opacity:1;fill-rule:nonzero;stroke:none"
         d="m 165.648,88.062 0,62.665 -12.609,0 0,-38.192 c 0,-9.64 -5.93,-13.969 -12.977,-13.969 -7.042,0 -12.605,4.204 -12.605,13.969 l 0,38.192 -12.609,0 0,-40.047 c 0,-7.043 1.484,-12.977 6.304,-17.676 3.707,-3.582 9.024,-5.684 15.45,-5.684 6.304,0 12.359,2.348 16.687,7.043 l 0,-6.301 12.359,0 z" /><path
         id="path4231"
         style="fill:#000000;fill-opacity:1;fill-rule:nonzero;stroke:none"
         d="m 212.781,139.973 0,9.64 -12.484,0 0,9.024 c 0,4.57 2.226,7.289 6.922,7.289 l 5.562,0 0,10.754 -7.91,0 c -11.742,0 -17.18,-8.407 -17.18,-17.426 l 0,-9.641 -7.168,0 0,-9.64 7.168,0 0,-51.911 12.606,0 0,51.911 12.484,0 z" /><path
         id="path4233"
         style="fill:#000000;fill-opacity:1;fill-rule:nonzero;stroke:none"
         d="m 272.371,88.062 0,41.899 c 0,14.215 -8.652,21.504 -25.832,21.504 -10.383,0 -16.562,-2.102 -22.496,-9.02 l 8.281,-7.789 c 3.461,4.449 6.797,6.059 13.719,6.059 9.766,0 13.719,-3.832 13.719,-11.742 l 0,-4.45 -16.559,0 c -14.34,0 -21.633,-7.539 -21.633,-18.046 0,-5.313 1.731,-10.133 4.946,-13.473 3.832,-3.828 9.023,-5.684 16.808,-5.684 7.789,0 12.114,1.856 16.688,6.426 l 0,-5.684 12.359,0 z m -12.609,22.618 c 0,-4.45 -0.864,-7.414 -2.719,-9.27 -3.336,-3.215 -6.922,-3.586 -11.742,-3.586 -7.91,0 -11.492,3.215 -11.492,8.903 0,5.683 3.832,9.019 11.246,9.019 l 14.707,0 0,-5.066 z" /><path
         id="path4235"
         style="fill:#000000;fill-opacity:1;fill-rule:nonzero;stroke:none"
         d="m 337.438,88.062 0,40.415 c 0,13.597 -7.786,22.988 -21.754,22.988 -6.18,0 -11.864,-2.348 -16.188,-7.043 l 0,31.64 -12.609,0 0,-88 12.609,0 0,38.438 c 0,9.395 5.684,13.719 12.731,13.719 7.043,0 12.605,-4.203 12.605,-13.719 l 0,-38.438 12.606,0 z" /><path
         id="path4237"
         style="fill:#000000;fill-opacity:1;fill-rule:nonzero;stroke:none"
         d="m 397.453,145.535 c -4.328,4.324 -8.902,5.93 -14.957,5.93 -7.043,0 -13.473,-3.09 -16.684,-7.539 l 0,6.801 -12.359,0 0,-62.665 12.606,0 0,38.067 c 0,8.652 5.683,14.09 12.484,14.09 4.324,0 6.551,-1.36 9.391,-4.203 l 9.519,9.519 z" /><path
         id="path4239"
         style="fill:#000000;fill-opacity:1;fill-rule:nonzero;stroke:none"
         d="m 436.926,88.062 0,10.754 -5.192,0 c -4.695,0 -6.922,2.719 -6.922,7.289 l 0,33.868 12.114,0 0,9.64 -12.114,0 0,19.032 -12.605,0 0,-19.032 -7.168,0 0,-9.64 7.168,0 0,-34.485 c 0,-9.023 5.438,-17.426 17.18,-17.426 l 7.539,0 z" /></g></g></svg>