<?xml version="1.0" encoding="UTF-8" standalone="no"?>
<svg
   xmlns:dc="http://purl.org/dc/elements/1.1/"
   xmlns:cc="http://creativecommons.org/ns#"
   xmlns:rdf="http://www.w3.org/1999/02/22-rdf-syntax-ns#"
   xmlns:svg="http://www.w3.org/2000/svg"
   xmlns="http://www.w3.org/2000/svg"
   viewBox="0 0 600 330"
   height="330"
   width="600"
   xml:space="preserve"
   version="1.1"
   id="svg4004"><metadata
     id="metadata4010"><rdf:RDF><cc:Work
         rdf:about=""><dc:format>image/svg+xml</dc:format><dc:type
           rdf:resource="http://purl.org/dc/dcmitype/StillImage" /><dc:title></dc:title></cc:Work></rdf:RDF></metadata><defs
     id="defs4008"><clipPath
       id="clipPath4022"
       clipPathUnits="userSpaceOnUse"><path
         id="path4024"
         d="M 0,0 480,0 480,264 0,264 0,0 Z" /></clipPath></defs><g
     transform="matrix(1.25,0,0,-1.25,0,330)"
     id="g4012"><g
       id="g4014"><g
         id="g4016"><g
           id="g4018"><g
             clip-path="url(#clipPath4022)"
             id="g4020"><g
               id="g4026"><path
                 id="path4028"
                 style="fill:#ffffff;fill-opacity:1;fill-rule:nonzero;stroke:none"
                 d="m 31.996,263.758 c -17.512,0 -31.754,-14.254 -31.754,-31.766 l 0,-199.996 C 0.242,14.484 14.484,0.242 31.996,0.242 l 416.008,0 c 17.512,0 31.754,14.242 31.754,31.754 l 0,199.996 c 0,17.512 -14.242,31.766 -31.754,31.766" /><path
                 id="path4030"
                 style="fill:#000000;fill-opacity:1;fill-rule:nonzero;stroke:none"
                 d="M 31.996,0.484 C 14.613,0.484 0.484,14.613 0.484,31.996 l 0,199.996 c 0,17.383 14.129,31.524 31.512,31.524 l 416.008,0 c 17.383,0 31.512,-14.141 31.512,-31.524 l 0,-199.996 c 0,-17.383 -14.129,-31.512 -31.512,-31.512 l -416.008,0 z M 448.004,264 31.996,264 C 14.32,264 0,249.672 0,231.992 L 0,31.996 C 0,14.328 14.32,0 31.996,0 L 448.004,0 C 465.672,0 480,14.328 480,31.996 l 0,199.996 C 480,249.672 465.672,264 448.004,264" /></g></g></g></g><path
         id="path4032"
         style="fill:#000000;fill-opacity:1;fill-rule:nonzero;stroke:none"
         d="m 31.996,19.996 416.008,0 c 6.629,0 12,5.371 12,12 l 0,199.996 c 0,6.629 -5.371,12 -12,12 l -416.008,0 c -6.629,0 -12,-5.371 -12,-12 l 0,-199.996 c 0,-6.629 5.371,-12 12,-12 z m 0,-12 c -13.258,0 -24,10.742 -24,24 l 0,199.996 c 0,13.258 10.742,24 24,24 l 416.008,0 c 13.258,0 24,-10.742 24,-24 l 0,-199.996 c 0,-13.258 -10.742,-24 -24,-24" /><path
         id="path4034"
         style="fill:#000000;fill-opacity:1;fill-rule:nonzero;stroke:none"
         d="m 116.609,88 0,88 -13.347,0 0,-61.797 -40.664,61.797 -12.235,0 0,-88 13.348,0 0,61.922 40.664,-61.922 12.234,0 z" /><path
         id="path4036"
         style="fill:#000000;fill-opacity:1;fill-rule:nonzero;stroke:none"
         d="m 195.914,88 0,11.988 -42.887,0 0,26.45 36.586,0 0,11.867 -36.586,0 0,25.707 42.887,0 0,11.988 -56.234,0 0,-88 56.234,0 z" /><path
         id="path4038"
         style="fill:#000000;fill-opacity:1;fill-rule:nonzero;stroke:none"
         d="m 278.039,112.844 c 0,11.121 -6.426,17.672 -13.223,20.39 5.93,2.352 11.864,9.149 11.864,18.664 0,14.832 -10.258,24.102 -26.575,24.102 l -34.234,0 0,-88 35.594,0 c 15.574,0 26.574,8.652 26.574,24.844 z m -14.707,38.562 c 0,-8.16 -5.809,-12.609 -14.336,-12.609 l -19.777,0 0,25.215 19.777,0 c 8.527,0 14.336,-4.45 14.336,-12.606 z m 1.359,-37.945 c 0,-7.785 -5.191,-13.473 -14.461,-13.473 l -21.011,0 0,26.821 21.011,0 c 9.27,0 14.461,-5.563 14.461,-13.348 z" /><path
         id="path4040"
         style="fill:#000000;fill-opacity:1;fill-rule:nonzero;stroke:none"
         d="m 353.941,88 0,11.988 -42.886,0 0,26.45 36.582,0 0,11.867 -36.582,0 0,25.707 42.886,0 0,11.988 -56.238,0 0,-88 56.238,0 z" /><path
         id="path4042"
         style="fill:#000000;fill-opacity:1;fill-rule:nonzero;stroke:none"
         d="m 429.637,88 0,11.988 -42.391,0 0,76.012 -13.351,0 0,-88 55.742,0 z" /></g></g></svg>