<?xml version="1.0" encoding="UTF-8" standalone="no"?>
<svg
   xmlns:dc="http://purl.org/dc/elements/1.1/"
   xmlns:cc="http://creativecommons.org/ns#"
   xmlns:rdf="http://www.w3.org/1999/02/22-rdf-syntax-ns#"
   xmlns:svg="http://www.w3.org/2000/svg"
   xmlns="http://www.w3.org/2000/svg"
   viewBox="0 0 600 330"
   height="330"
   width="600"
   xml:space="preserve"
   version="1.1"
   id="svg4774"><metadata
     id="metadata4780"><rdf:RDF><cc:Work
         rdf:about=""><dc:format>image/svg+xml</dc:format><dc:type
           rdf:resource="http://purl.org/dc/dcmitype/StillImage" /><dc:title></dc:title></cc:Work></rdf:RDF></metadata><defs
     id="defs4778"><clipPath
       id="clipPath4792"
       clipPathUnits="userSpaceOnUse"><path
         id="path4794"
         d="M 0,0 480,0 480,264 0,264 0,0 Z" /></clipPath></defs><g
     transform="matrix(1.25,0,0,-1.25,0,330)"
     id="g4782"><g
       id="g4784"><g
         id="g4786"><g
           id="g4788"><g
             clip-path="url(#clipPath4792)"
             id="g4790"><g
               id="g4796"><path
                 id="path4798"
                 style="fill:#ffffff;fill-opacity:1;fill-rule:nonzero;stroke:none"
                 d="m 31.996,263.758 c -17.512,0 -31.754,-14.254 -31.754,-31.766 l 0,-199.996 C 0.242,14.484 14.484,0.242 31.996,0.242 l 416.008,0 c 17.512,0 31.754,14.242 31.754,31.754 l 0,199.996 c 0,17.512 -14.242,31.766 -31.754,31.766" /><path
                 id="path4800"
                 style="fill:#000000;fill-opacity:1;fill-rule:nonzero;stroke:none"
                 d="M 31.996,0.484 C 14.613,0.484 0.484,14.613 0.484,31.996 l 0,199.996 c 0,17.383 14.129,31.524 31.512,31.524 l 416.008,0 c 17.383,0 31.512,-14.141 31.512,-31.524 l 0,-199.996 c 0,-17.383 -14.129,-31.512 -31.512,-31.512 l -416.008,0 z M 448.004,264 31.996,264 C 14.32,264 0,249.672 0,231.992 L 0,31.996 C 0,14.328 14.32,0 31.996,0 L 448.004,0 C 465.672,0 480,14.328 480,31.996 l 0,199.996 C 480,249.672 465.672,264 448.004,264" /></g></g></g></g><path
         id="path4802"
         style="fill:#000000;fill-opacity:1;fill-rule:nonzero;stroke:none"
         d="m 31.996,19.996 416.008,0 c 6.629,0 12,5.371 12,12 l 0,199.996 c 0,6.629 -5.371,12 -12,12 l -416.008,0 c -6.629,0 -12,-5.371 -12,-12 l 0,-199.996 c 0,-6.629 5.371,-12 12,-12 z m 0,-12 c -13.258,0 -24,10.742 -24,24 l 0,199.996 c 0,13.258 10.742,24 24,24 l 416.008,0 c 13.258,0 24,-10.742 24,-24 l 0,-199.996 c 0,-13.258 -10.742,-24 -24,-24" /><path
         id="path4804"
         style="fill:#000000;fill-opacity:1;fill-rule:nonzero;stroke:none"
         d="m 95.91,119.254 -12.504,0 6.129,31.621 0.246,0 6.129,-31.621 z m -30.887,-30.52 12.5,0 3.676,18.754 17.039,0 3.676,-18.754 12.5,0 L 94.926,176 84.512,176 65.023,88.734 Z" /><path
         id="path4806"
         style="fill:#000000;fill-opacity:1;fill-rule:nonzero;stroke:none"
         d="m 161.598,150.875 -12.504,0 0,-41.793 c 0,-5.516 -1.594,-8.582 -6.25,-8.582 -3.922,0 -6.129,2.82 -6.129,7.355 l 0,43.02 -12.5,0 0,-47.676 c 0,-11.156 6.617,-15.199 12.867,-15.199 5.762,0 9.191,2.82 11.766,6.742 l 0.246,0 0,-6.008 12.504,0 0,62.141 z" /><path
         id="path4808"
         style="fill:#000000;fill-opacity:1;fill-rule:nonzero;stroke:none"
         d="m 209.203,133.473 c -0.125,10.293 -7.476,18.136 -17.648,18.136 -10.051,0 -18.387,-7.597 -18.387,-18.136 0,-8.336 4.781,-14.219 12.625,-17.161 l 6.004,-2.207 c 4.781,-1.839 6.254,-4.167 6.254,-7.597 0,-4.168 -3.434,-6.742 -6.989,-6.742 -4.656,0 -6.25,3.554 -6.742,6.988 l -11.765,0 C 173.047,94.496 181.379,88 191.188,88 c 10.785,0 18.628,8.457 18.628,18.754 0,7.351 -2.941,13.969 -12.257,17.523 l -7.352,2.942 c -4.66,1.84 -5.273,4.047 -5.273,6.375 0,3.187 2.207,6.25 6.128,6.25 3.309,0 6.25,-2.207 6.376,-6.371 l 11.765,0 z" /><path
         id="path4810"
         style="fill:#000000;fill-opacity:1;fill-rule:nonzero;stroke:none"
         d="m 222.367,88.734 12.504,0 0,52.336 9.313,0 0,9.805 -9.313,0 0,9.07 c 0,2.696 1.348,4.289 3.676,4.289 l 5.637,0 0,11.766 -5.758,0 c -8.09,0 -16.059,-4.656 -16.059,-16.668 l 0,-8.457 -6.125,0 0,-9.805 6.125,0 0,-52.336 z" /><path
         id="path4812"
         style="fill:#000000;fill-opacity:1;fill-rule:nonzero;stroke:none"
         d="m 277.805,88.734 12.5,0 0,43.266 c 0,12.992 -8.332,19.609 -18.75,19.609 -5.641,0 -10.297,-1.961 -13.606,-5.269 -3.308,-3.309 -5.269,-7.965 -5.637,-13.481 l 12.133,0 c 0.735,4.043 3.922,6.25 7.11,6.25 4.656,0 6.25,-3.187 6.25,-7.355 l 0,-6.496 c -2.575,0.125 -4.289,0.367 -6.008,0.367 -15.688,0 -19.731,-6.863 -19.731,-21.078 0,-13.727 7.723,-16.547 13.481,-16.547 6.008,0 8.703,2.574 12.012,7.109 l 0.246,0 0,-6.375 z m 0,18.262 c 0,-5.023 -2.575,-7.965 -6.743,-7.965 -4.042,0 -6.496,3.188 -6.496,7.965 0,6.621 4.414,8.824 9.805,8.824 1.106,0 2.086,-0.121 3.434,-0.367 l 0,-8.457 z" /><path
         id="path4814"
         style="fill:#000000;fill-opacity:1;fill-rule:nonzero;stroke:none"
         d="m 302.543,88.734 12.5,0 0,41.793 c 0,5.516 1.594,8.582 6.254,8.582 3.922,0 6.125,-2.82 6.125,-7.355 l 0,-43.02 12.504,0 0,47.68 c 0,11.152 -6.621,15.195 -12.871,15.195 -5.758,0 -9.192,-2.816 -11.766,-6.742 l -0.246,0 0,31.133 -12.5,0 0,-87.266 z" /><path
         id="path4816"
         style="fill:#000000;fill-opacity:1;fill-rule:nonzero;stroke:none"
         d="m 353.09,88.734 12.504,0 0,36.891 c 0,10.176 7.476,13.484 12.746,13.484 1.348,0 2.574,-0.246 3.801,-0.734 l 0,13.234 c -7.235,0 -11.399,-2.816 -16.547,-7.351 l 0,6.617 -12.504,0 0,-62.141 z" /><path
         id="path4818"
         style="fill:#000000;fill-opacity:1;fill-rule:nonzero;stroke:none"
         d="m 394.754,150.875 -6.25,0 0,-9.805 6.25,0 0,-37.75 c 0,-6.617 3.801,-14.586 15.074,-14.586 l 5.149,0 0,11.766 c -5.516,0 -7.719,0.367 -7.719,6.129 l 0,34.441 7.719,0 0,9.805 -7.719,0 0,18.875 -12.504,0 0,-18.875 z" /></g></g></svg>