<?xml version="1.0" encoding="UTF-8" standalone="no"?>
<svg
   xmlns:dc="http://purl.org/dc/elements/1.1/"
   xmlns:cc="http://creativecommons.org/ns#"
   xmlns:rdf="http://www.w3.org/1999/02/22-rdf-syntax-ns#"
   xmlns:svg="http://www.w3.org/2000/svg"
   xmlns="http://www.w3.org/2000/svg"
   viewBox="0 0 600 330"
   height="330"
   width="600"
   xml:space="preserve"
   version="1.1"
   id="svg3580"><metadata
     id="metadata3586"><rdf:RDF><cc:Work
         rdf:about=""><dc:format>image/svg+xml</dc:format><dc:type
           rdf:resource="http://purl.org/dc/dcmitype/StillImage" /><dc:title></dc:title></cc:Work></rdf:RDF></metadata><defs
     id="defs3584"><clipPath
       id="clipPath3598"
       clipPathUnits="userSpaceOnUse"><path
         id="path3600"
         d="M 0,0 480,0 480,264 0,264 0,0 Z" /></clipPath></defs><g
     transform="matrix(1.25,0,0,-1.25,0,330)"
     id="g3588"><g
       id="g3590"><g
         id="g3592"><g
           id="g3594"><g
             clip-path="url(#clipPath3598)"
             id="g3596"><g
               id="g3602"><path
                 id="path3604"
                 style="fill:#ffffff;fill-opacity:1;fill-rule:nonzero;stroke:none"
                 d="m 31.996,263.758 c -17.512,0 -31.754,-14.254 -31.754,-31.766 l 0,-199.996 C 0.242,14.484 14.484,0.242 31.996,0.242 l 416.008,0 c 17.512,0 31.754,14.242 31.754,31.754 l 0,199.996 c 0,17.512 -14.242,31.766 -31.754,31.766" /><path
                 id="path3606"
                 style="fill:#000000;fill-opacity:1;fill-rule:nonzero;stroke:none"
                 d="M 31.996,0.484 C 14.613,0.484 0.484,14.613 0.484,31.996 l 0,199.996 c 0,17.383 14.129,31.524 31.512,31.524 l 416.008,0 c 17.383,0 31.512,-14.141 31.512,-31.524 l 0,-199.996 c 0,-17.383 -14.129,-31.512 -31.512,-31.512 l -416.008,0 z M 448.004,264 31.996,264 C 14.32,264 0,249.672 0,231.992 L 0,31.996 C 0,14.328 14.32,0 31.996,0 L 448.004,0 C 465.672,0 480,14.328 480,31.996 l 0,199.996 C 480,249.672 465.672,264 448.004,264" /></g></g></g></g><path
         id="path3608"
         style="fill:#000000;fill-opacity:1;fill-rule:nonzero;stroke:none"
         d="m 31.996,19.996 416.008,0 c 6.629,0 12,5.371 12,12 l 0,199.996 c 0,6.629 -5.371,12 -12,12 l -416.008,0 c -6.629,0 -12,-5.371 -12,-12 l 0,-199.996 c 0,-6.629 5.371,-12 12,-12 z m 0,-12 c -13.258,0 -24,10.742 -24,24 l 0,199.996 c 0,13.258 10.742,24 24,24 l 416.008,0 c 13.258,0 24,-10.742 24,-24 l 0,-199.996 c 0,-13.258 -10.742,-24 -24,-24" /><path
         id="path3610"
         style="fill:#000000;fill-opacity:1;fill-rule:nonzero;stroke:none"
         d="m 159.391,191.629 c 0,9.633 -6.914,16.777 -17.711,16.777 l -20.969,0 0,-55.301 8.387,0 0,21.75 12.582,0 c 10.797,0 17.711,7.145 17.711,16.774 z m -8.391,0 c 0,-5.824 -3.961,-9.164 -9.785,-9.164 l -12.117,0 0,18.406 12.117,0 c 5.824,0 9.785,-3.414 9.785,-9.242 z" /><path
         id="path3612"
         style="fill:#000000;fill-opacity:1;fill-rule:nonzero;stroke:none"
         d="m 199.617,172.836 c 0,6.602 -0.933,11.57 -4.66,15.453 -2.566,2.641 -6.449,4.66 -11.809,4.66 -5.359,0 -9.164,-2.019 -11.726,-4.66 -3.731,-3.883 -4.66,-8.851 -4.66,-15.453 0,-6.68 0.929,-11.652 4.66,-15.535 2.562,-2.641 6.367,-4.66 11.726,-4.66 5.36,0 9.243,2.019 11.809,4.66 3.727,3.883 4.66,8.855 4.66,15.535 z m -7.926,0 c 0,-4.274 -0.308,-8.391 -2.718,-10.797 -1.473,-1.477 -3.493,-2.332 -5.825,-2.332 -2.328,0 -4.269,0.855 -5.746,2.332 -2.41,2.406 -2.718,6.523 -2.718,10.797 0,4.269 0.308,8.387 2.718,10.793 1.477,1.476 3.418,2.254 5.746,2.254 2.332,0 4.352,-0.778 5.825,-2.254 2.41,-2.406 2.718,-6.524 2.718,-10.793 z" /><path
         id="path3614"
         style="fill:#000000;fill-opacity:1;fill-rule:nonzero;stroke:none"
         d="m 225.648,153.105 0,6.758 -3.496,0 c -3.183,0 -4.273,1.555 -4.273,4.582 l 0,43.961 -7.922,0 0,-44.426 c 0,-5.824 3.262,-10.875 10.797,-10.875 l 4.894,0 z" /><path
         id="path3616"
         style="fill:#000000;fill-opacity:1;fill-rule:nonzero;stroke:none"
         d="m 240.867,200.25 0,8.391 -8.39,0 0,-8.391 8.39,0 z m -0.234,-47.145 0,39.379 -7.922,0 0,-39.379 7.922,0 z" /><path
         id="path3618"
         style="fill:#000000;fill-opacity:1;fill-rule:nonzero;stroke:none"
         d="m 279.598,153.105 0,7.071 -19.727,0 19.727,26.019 0,6.289 -28.274,0 0,-7.066 18.488,0 -19.574,-26.02 0,-6.293 29.36,0 z" /><path
         id="path3620"
         style="fill:#000000;fill-opacity:1;fill-rule:nonzero;stroke:none"
         d="m 321.129,170.504 0,3.496 c 0,11.184 -6.137,18.949 -16.699,18.949 -10.098,0 -16.7,-7.379 -16.7,-20.113 0,-14.992 7.844,-20.195 17.708,-20.195 6.914,0 10.718,2.097 14.757,6.136 l -5.047,4.739 c -2.796,-2.797 -5.128,-4.039 -9.554,-4.039 -6.446,0 -10.02,4.269 -10.02,11.027 l 25.555,0 z m -7.844,5.516 -17.711,0 c 0.078,2.406 0.235,3.57 1.012,5.359 1.242,2.949 4.113,4.969 7.844,4.969 3.726,0 6.523,-2.02 7.765,-4.969 0.778,-1.789 1.012,-2.953 1.09,-5.359 z" /><path
         id="path3622"
         style="fill:#000000;fill-opacity:1;fill-rule:nonzero;stroke:none"
         d="m 339.773,200.25 0,8.391 -8.386,0 0,-8.391 8.386,0 z m -0.234,-47.145 0,39.379 -7.922,0 0,-39.379 7.922,0 z" /><path
         id="path3624"
         style="fill:#000000;fill-opacity:1;fill-rule:nonzero;stroke:none"
         d="m 352.609,178.348 22.68,0 0,-7.379 -22.68,0 0,7.379 z" /><path
         id="path3626"
         style="fill:#000000;fill-opacity:1;fill-rule:nonzero;stroke:none"
         d="m 123.91,55.828 -15.441,24.024 13.726,15.519 -9.672,0 -15.363,-18.25 0,34.238 -7.957,0 0,-55.531 7.957,0 0,11.621 5.848,6.629 11.074,-18.25 9.828,0 z" /><path
         id="path3628"
         style="fill:#000000;fill-opacity:1;fill-rule:nonzero;stroke:none"
         d="m 163.129,75.637 c 0,6.633 -0.938,11.621 -4.68,15.523 -2.574,2.652 -6.472,4.68 -11.855,4.68 -5.383,0 -9.203,-2.028 -11.778,-4.68 -3.742,-3.902 -4.679,-8.89 -4.679,-15.523 0,-6.707 0.937,-11.699 4.679,-15.598 2.575,-2.652 6.395,-4.68 11.778,-4.68 5.383,0 9.281,2.028 11.855,4.68 3.742,3.899 4.68,8.891 4.68,15.598 z m -7.957,0 c 0,-4.289 -0.309,-8.422 -2.727,-10.84 -1.484,-1.481 -3.511,-2.34 -5.851,-2.34 -2.34,0 -4.289,0.859 -5.77,2.34 -2.418,2.418 -2.73,6.551 -2.73,10.84 0,4.293 0.312,8.425 2.73,10.843 1.481,1.481 3.43,2.262 5.77,2.262 2.34,0 4.367,-0.781 5.851,-2.262 2.418,-2.418 2.727,-6.55 2.727,-10.843 z" /><path
         id="path3630"
         style="fill:#000000;fill-opacity:1;fill-rule:nonzero;stroke:none"
         d="m 205.805,55.828 0,25.27 c 0,4.445 -0.938,8.191 -3.977,11.152 -2.34,2.262 -5.695,3.59 -9.75,3.59 -3.98,0 -7.801,-1.485 -10.531,-4.445 l 0,3.976 -7.797,0 0,-39.543 7.953,0 0,24.102 c 0,6.082 3.746,8.812 8.192,8.812 4.445,0 7.953,-2.652 7.953,-8.812 l 0,-24.102 7.957,0 z" /><path
         id="path3632"
         style="fill:#000000;fill-opacity:1;fill-rule:nonzero;stroke:none"
         d="m 232.859,55.828 0,6.785 -3.277,0 c -2.961,0 -4.367,1.715 -4.367,4.602 l 0,21.371 7.644,0 0,6.082 -7.644,0 0,12.012 -7.953,0 0,-12.012 -4.524,0 0,-6.082 4.524,0 0,-21.762 c 0,-5.691 3.429,-10.996 10.84,-10.996 l 4.757,0 z" /><path
         id="path3634"
         style="fill:#000000;fill-opacity:1;fill-rule:nonzero;stroke:none"
         d="m 269.148,92.094 c -2.73,2.73 -5.613,3.746 -9.437,3.746 -4.445,0 -8.5,-1.949 -10.527,-4.758 l 0,4.289 -7.801,0 0,-39.543 7.957,0 0,24.024 c 0,5.457 3.586,8.89 7.875,8.89 2.73,0 4.137,-0.859 5.93,-2.652 l 6.003,6.004 z" /><path
         id="path3636"
         style="fill:#000000;fill-opacity:1;fill-rule:nonzero;stroke:none"
         d="m 305.027,75.637 c 0,6.633 -0.937,11.621 -4.679,15.523 -2.575,2.652 -6.477,4.68 -11.856,4.68 -5.383,0 -9.203,-2.028 -11.777,-4.68 -3.746,-3.902 -4.68,-8.89 -4.68,-15.523 0,-6.707 0.934,-11.699 4.68,-15.598 2.574,-2.652 6.394,-4.68 11.777,-4.68 5.379,0 9.281,2.028 11.856,4.68 3.742,3.899 4.679,8.891 4.679,15.598 z m -7.957,0 c 0,-4.289 -0.312,-8.422 -2.73,-10.84 -1.481,-1.481 -3.508,-2.34 -5.848,-2.34 -2.34,0 -4.293,0.859 -5.773,2.34 -2.418,2.418 -2.731,6.551 -2.731,10.84 0,4.293 0.313,8.425 2.731,10.843 1.48,1.481 3.433,2.262 5.773,2.262 2.34,0 4.367,-0.781 5.848,-2.262 2.418,-2.418 2.73,-6.55 2.73,-10.843 z" /><path
         id="path3638"
         style="fill:#000000;fill-opacity:1;fill-rule:nonzero;stroke:none"
         d="m 331.164,55.828 0,6.785 -3.508,0 c -3.199,0 -4.289,1.559 -4.289,4.602 l 0,44.144 -7.957,0 0,-44.613 c 0,-5.848 3.278,-10.918 10.844,-10.918 l 4.91,0 z" /><path
         id="path3640"
         style="fill:#000000;fill-opacity:1;fill-rule:nonzero;stroke:none"
         d="m 352.188,55.828 0,6.785 -3.512,0 c -3.196,0 -4.289,1.559 -4.289,4.602 l 0,44.144 -7.953,0 0,-44.613 c 0,-5.848 3.273,-10.918 10.839,-10.918 l 4.915,0 z" /><path
         id="path3642"
         style="fill:#000000;fill-opacity:1;fill-rule:nonzero;stroke:none"
         d="m 390.797,73.297 0,3.512 c 0,11.23 -6.16,19.031 -16.77,19.031 -10.14,0 -16.769,-7.41 -16.769,-20.203 0,-15.051 7.879,-20.278 17.785,-20.278 6.941,0 10.762,2.106 14.816,6.164 l -5.07,4.754 c -2.805,-2.804 -5.144,-4.054 -9.59,-4.054 -6.476,0 -10.062,4.289 -10.062,11.074 l 25.66,0 z m -7.879,5.539 -17.781,0 c 0.078,2.418 0.234,3.59 1.011,5.383 1.25,2.965 4.137,4.992 7.879,4.992 3.743,0 6.551,-2.027 7.801,-4.992 0.777,-1.793 1.012,-2.965 1.09,-5.383 z" /></g></g></svg>