<?xml version="1.0" encoding="UTF-8" standalone="no"?>
<svg
   xmlns:dc="http://purl.org/dc/elements/1.1/"
   xmlns:cc="http://creativecommons.org/ns#"
   xmlns:rdf="http://www.w3.org/1999/02/22-rdf-syntax-ns#"
   xmlns:svg="http://www.w3.org/2000/svg"
   xmlns="http://www.w3.org/2000/svg"
   viewBox="0 0 600 330"
   height="330"
   width="600"
   xml:space="preserve"
   version="1.1"
   id="svg9052"><metadata
     id="metadata9058"><rdf:RDF><cc:Work
         rdf:about=""><dc:format>image/svg+xml</dc:format><dc:type
           rdf:resource="http://purl.org/dc/dcmitype/StillImage" /><dc:title></dc:title></cc:Work></rdf:RDF></metadata><defs
     id="defs9056"><clipPath
       id="clipPath9070"
       clipPathUnits="userSpaceOnUse"><path
         id="path9072"
         d="M 0,0 480,0 480,264 0,264 0,0 Z" /></clipPath><clipPath
       id="clipPath9086"
       clipPathUnits="userSpaceOnUse"><path
         id="path9088"
         d="m 0,261.871 480,0 L 480,0 0,0 0,261.871 Z" /></clipPath><clipPath
       id="clipPath9096"
       clipPathUnits="userSpaceOnUse"><path
         id="path9098"
         d="m 59,81 362,0 0,95 -362,0 0,-95 z" /></clipPath></defs><g
     transform="matrix(1.25,0,0,-1.25,0,330)"
     id="g9060"><g
       id="g9062"><g
         id="g9064"><g
           id="g9066"><g
             clip-path="url(#clipPath9070)"
             id="g9068"><g
               id="g9074"><path
                 id="path9076"
                 style="fill:#ffffff;fill-opacity:1;fill-rule:nonzero;stroke:none"
                 d="m 31.996,263.758 c -17.512,0 -31.754,-14.254 -31.754,-31.766 l 0,-199.996 C 0.242,14.484 14.484,0.242 31.996,0.242 l 416.008,0 c 17.512,0 31.754,14.242 31.754,31.754 l 0,199.996 c 0,17.512 -14.242,31.766 -31.754,31.766" /><path
                 id="path9078"
                 style="fill:#000000;fill-opacity:1;fill-rule:nonzero;stroke:none"
                 d="M 31.996,0.484 C 14.613,0.484 0.484,14.613 0.484,31.996 l 0,199.996 c 0,17.383 14.129,31.524 31.512,31.524 l 416.008,0 c 17.383,0 31.512,-14.141 31.512,-31.524 l 0,-199.996 c 0,-17.383 -14.129,-31.512 -31.512,-31.512 l -416.008,0 z M 448.004,264 31.996,264 C 14.32,264 0,249.672 0,231.992 L 0,31.996 C 0,14.328 14.32,0 31.996,0 L 448.004,0 C 465.672,0 480,14.328 480,31.996 l 0,199.996 C 480,249.672 465.672,264 448.004,264" /></g></g></g></g><path
         id="path9080"
         style="fill:#000000;fill-opacity:1;fill-rule:nonzero;stroke:none"
         d="m 31.996,19.996 416.008,0 c 6.629,0 12,5.371 12,12 l 0,199.996 c 0,6.629 -5.371,12 -12,12 l -416.008,0 c -6.629,0 -12,-5.371 -12,-12 l 0,-199.996 c 0,-6.629 5.371,-12 12,-12 z m 0,-12 c -13.258,0 -24,10.742 -24,24 l 0,199.996 c 0,13.258 10.742,24 24,24 l 416.008,0 c 13.258,0 24,-10.742 24,-24 l 0,-199.996 c 0,-13.258 -10.742,-24 -24,-24" /></g><g
       id="g9082"><g
         clip-path="url(#clipPath9086)"
         id="g9084"><g
           id="g9090"><g
             id="g9092"><g
               clip-path="url(#clipPath9096)"
               id="g9094"><g
                 id="g9100"><path
                   id="path9102"
                   style="fill:#000000;fill-opacity:1;fill-rule:nonzero;stroke:none"
                   d="m 389.129,102.508 0,51.984 10.398,0 0,-5.195 c 1.926,3.594 5.664,5.832 9.743,5.832 6.101,0 11.046,-4.941 11.046,-11.047 l 0,-41.574 -10.394,0 0,37.031 c 0,2.875 -2.324,5.195 -5.199,5.195 -2.875,0 -5.196,-2.32 -5.196,-5.195 l 0,-37.031 -10.398,0 z m -29.879,30.531 10.395,0 0,6.5 c 0,2.875 -2.336,5.195 -5.211,5.195 -2.864,0 -5.184,-2.32 -5.184,-5.195 l 0,-6.5 z m 20.789,-15.59 c 0,-8.609 -6.98,-15.59 -15.605,-15.59 -8.614,0 -15.594,6.981 -15.594,15.59 l 0,22.09 c 0,8.621 6.98,15.59 15.594,15.59 8.625,0 15.605,-6.969 15.605,-15.59 l 0,-14.941 -20.789,0 0,-7.149 c 0,-2.863 2.32,-5.199 5.184,-5.199 2.875,0 5.211,2.336 5.211,5.199 l 10.394,0 z m -71.488,-14.941 0,51.984 10.41,0 0,-5.195 c 1.91,3.594 5.664,5.832 9.742,5.832 6.102,0 11.047,-4.941 11.047,-11.047 l 0,-41.574 -10.395,0 0,37.031 c 0,2.875 -2.339,5.195 -5.199,5.195 -2.875,0 -5.195,-2.32 -5.195,-5.195 l 0,-37.031 -10.41,0 z m -41.578,0 0,51.984 10.394,0 0,-5.195 c 1.926,3.594 5.664,5.832 9.742,5.832 6.106,0 11.047,-4.941 11.047,-11.047 l 0,-41.574 -10.394,0 0,37.031 c 0,2.875 -2.324,5.195 -5.2,5.195 -2.859,0 -5.195,-2.32 -5.195,-5.195 l 0,-37.031 -10.394,0 z m -20.789,72.769 10.394,0 0,-10.39 -10.394,0 0,10.39 z m 0,-20.785 10.394,0 0,-51.984 -10.394,0 0,51.984 z m -29.246,-51.984 0,51.984 10.394,0 0,-5.879 c 3.328,4.121 8.34,6.516 13.652,6.516 l 0,-10.902 c -1.046,0.339 -2.152,0.507 -3.257,0.507 -5.735,0 -10.395,-4.644 -10.395,-10.394 l 0,-31.832 -10.394,0 z m -30.547,0 0,51.984 10.394,0 0,-5.879 c 3.344,4.121 8.356,6.516 13.653,6.516 l 0,-10.902 c -1.047,0.339 -2.137,0.507 -3.243,0.507 -5.75,0 -10.41,-4.644 -10.41,-10.394 l 0,-31.832 -10.394,0 z m -10.395,0 -10.394,0 0,5.199 c -1.914,-3.598 -5.664,-5.848 -9.743,-5.848 -6.105,0 -11.047,4.942 -11.047,11.043 l 0,41.59 10.395,0 0,-37.043 c 0,-2.863 2.32,-5.199 5.195,-5.199 2.875,0 5.2,2.336 5.2,5.199 l 0,37.043 10.394,0 0,-51.984 z m -61.078,14.941 c 0,-2.863 2.32,-5.199 5.195,-5.199 2.875,0 5.199,2.336 5.199,5.199 l 0,22.09 c 0,2.875 -2.324,5.195 -5.199,5.195 -2.875,0 -5.195,-2.32 -5.195,-5.195 l 0,-22.09 z m -10.398,-35.726 0,72.769 10.398,0 0,-5.195 c 1.926,3.594 5.676,5.832 9.754,5.832 6.09,0 11.047,-4.941 11.047,-11.047 l 0,-31.18 c 0,-6.101 -4.957,-11.043 -11.047,-11.043 -4.078,0 -7.828,2.25 -9.754,5.848 l 0,-25.984 -10.398,0 z m -44.836,41.574 10.394,0 0,-3.895 c 0,-3.949 3.203,-7.152 7.152,-7.152 l 0.653,0 c 3.953,0 7.152,3.203 7.152,7.152 l 0,7.789 c 0,2.918 -1.769,5.536 -4.476,6.625 l -9.262,3.77 c -6.625,2.676 -10.961,9.102 -10.961,16.254 l 0,4.547 c 0,9.683 7.859,17.543 17.547,17.543 9.687,0 17.547,-7.86 17.547,-17.543 l 0,-3.895 -10.395,0 0,3.895 c 0,3.949 -3.199,7.148 -7.152,7.148 -3.949,0 -7.153,-3.199 -7.153,-7.148 l 0,-4.547 c 0,-2.918 1.77,-5.535 4.461,-6.625 l 9.278,-3.754 c 6.629,-2.691 10.961,-9.121 10.961,-16.27 l 0,-7.789 c 0,-9.687 -7.86,-17.543 -17.547,-17.543 l -0.653,0 c -9.683,0 -17.546,7.856 -17.546,17.543 l 0,3.895 z" /></g></g></g></g></g></g></g></svg>