<?xml version="1.0" encoding="UTF-8" standalone="no"?>
<svg
   xmlns:dc="http://purl.org/dc/elements/1.1/"
   xmlns:cc="http://creativecommons.org/ns#"
   xmlns:rdf="http://www.w3.org/1999/02/22-rdf-syntax-ns#"
   xmlns:svg="http://www.w3.org/2000/svg"
   xmlns="http://www.w3.org/2000/svg"
   viewBox="0 0 600 450.005"
   height="450.005"
   width="600"
   xml:space="preserve"
   version="1.1"
   id="svg9370"><metadata
     id="metadata9376"><rdf:RDF><cc:Work
         rdf:about=""><dc:format>image/svg+xml</dc:format><dc:type
           rdf:resource="http://purl.org/dc/dcmitype/StillImage" /><dc:title></dc:title></cc:Work></rdf:RDF></metadata><defs
     id="defs9374"><clipPath
       id="clipPath9396"
       clipPathUnits="userSpaceOnUse"><path
         id="path9398"
         d="m 43,57 394,0 0,248 -394,0 0,-248 z" /></clipPath></defs><g
     transform="matrix(1.25,0,0,-1.25,0,450.005)"
     id="g9378"><g
       id="g9380"><path
         id="path9382"
         style="fill:#ffffff;fill-opacity:1;fill-rule:nonzero;stroke:none"
         d="m 31.996,359.774 c -17.504,0 -31.754,-14.25 -31.754,-31.766 L 0.242,32 c 0,-17.508 14.25,-31.758 31.754,-31.758 l 416.008,0 c 17.516,0 31.766,14.25 31.766,31.758 l 0,296.008 c 0,17.516 -14.25,31.766 -31.766,31.766" /><path
         id="path9384"
         style="fill:#000000;fill-opacity:1;fill-rule:nonzero;stroke:none"
         d="M 31.996,0.469 C 14.613,0.469 0.477,14.613 0.477,32 l 0,296.008 c 0,17.383 14.136,31.523 31.519,31.523 l 416.008,0 c 17.383,0 31.519,-14.14 31.519,-31.523 l 0,-296.008 c 0,-17.387 -14.136,-31.531 -31.519,-31.531 l -416.008,0 z m 416.008,359.535 -416.008,0 C 14.328,360.004 0,345.676 0,328.008 L 0,32 C 0,14.328 14.328,0 31.996,0 L 448.004,0 C 465.672,0 480,14.328 480,32 l 0,296.008 c 0,17.668 -14.328,31.996 -31.996,31.996" /><path
         id="path9386"
         style="fill:#000000;fill-opacity:1;fill-rule:nonzero;stroke:none"
         d="m 31.996,352.012 c -13.25,0 -23.992,-10.746 -23.992,-24.004 L 8.004,32 C 8.004,18.75 18.746,7.996 31.996,7.996 l 416.008,0 c 13.25,0 24.004,10.754 24.004,24.004 l 0,296.008 c 0,13.258 -10.754,24.004 -24.004,24.004 l -416.008,0 z m 0,-12.008 416.008,0 c 6.629,0 12.004,-5.367 12.004,-11.996 l 0,-296.008 c 0,-6.633 -5.375,-11.996 -12.004,-11.996 l -416.008,0 C 25.379,20.004 20,25.367 20,32 l 0,296.008 c 0,6.629 5.379,11.996 11.996,11.996 z" /></g><g
       id="g9388"><g
         transform="translate(0,-0.996002)"
         id="g9390"><g
           id="g9392"><g
             clip-path="url(#clipPath9396)"
             id="g9394"><g
               id="g9400"><path
                 id="path9402"
                 style="fill:#000000;fill-opacity:1;fill-rule:nonzero;stroke:none"
                 d="m 409.906,242.566 0,43.973 8.801,0 0,-4.406 c 1.613,3.043 4.789,4.957 8.246,4.957 5.16,0 9.34,-4.192 9.34,-9.348 l 0,-35.176 -8.785,0 0,31.321 c 0,2.437 -1.973,4.406 -4.41,4.406 -2.422,0 -4.391,-1.969 -4.391,-4.406 l 0,-31.321 -8.801,0 z m -25.297,25.825 8.801,0 0,5.496 c 0,2.437 -1.972,4.406 -4.394,4.406 -2.438,0 -4.407,-1.969 -4.407,-4.406 l 0,-5.496 z m 17.602,-13.188 c 0,-7.281 -5.91,-13.191 -13.195,-13.191 -7.297,0 -13.207,5.91 -13.207,13.191 l 0,18.684 c 0,7.297 5.91,13.203 13.207,13.203 7.285,0 13.195,-5.906 13.195,-13.203 l 0,-12.637 -17.602,0 0,-6.047 c 0,-2.426 1.969,-4.394 4.407,-4.394 2.422,0 4.394,1.968 4.394,4.394 l 8.801,0 z m -46.188,-12.637 0,36.817 -4.394,0 0,7.156 4.394,0 0,6.586 c 0,6.078 4.918,10.992 10.997,10.992 l 4.394,0 0,-8.242 -3.84,0 c -1.515,0 -2.765,-1.219 -2.765,-2.75 l 0,-6.586 6.605,0 0,-7.156 -6.605,0 0,-36.817 -8.786,0 z m -19.796,61.551 8.8,0 0,-8.797 -8.8,0 0,8.797 z m 0,-17.578 8.8,0 0,-43.973 -8.8,0 0,43.973 z m -25.297,-18.148 8.8,0 0,5.496 c 0,2.437 -1.972,4.406 -4.394,4.406 -2.438,0 -4.406,-1.969 -4.406,-4.406 l 0,-5.496 z m 17.601,-13.188 c 0,-7.281 -5.91,-13.191 -13.195,-13.191 -7.285,0 -13.195,5.91 -13.195,13.191 l 0,18.684 c 0,7.297 5.91,13.203 13.195,13.203 7.285,0 13.195,-5.906 13.195,-13.203 l 0,-12.637 -17.601,0 0,-6.047 c 0,-2.426 1.968,-4.394 4.406,-4.394 2.422,0 4.394,1.968 4.394,4.394 l 8.801,0 z m -50.043,-12.637 0,43.973 8.801,0 0,-4.973 c 2.82,3.496 7.059,5.524 11.551,5.524 l 0,-9.235 c -0.891,0.282 -1.813,0.438 -2.75,0.438 -4.86,0 -8.801,-3.938 -8.801,-8.797 l 0,-26.93 -8.801,0 z m -7.695,0 -4.391,0 c -5.472,0 -9.906,4.434 -9.906,9.887 l 0,26.93 -4.394,0 0,7.156 4.394,0 0,13.188 8.801,0 0,-13.188 5.496,0 0,-7.156 -5.496,0 0,-25.824 c 0,-1.516 1.23,-2.75 2.75,-2.75 l 2.746,0 0,-8.243 z m -48.383,12.637 8.25,0 c 0,-2.734 2.211,-4.945 4.945,-4.945 2.735,0 4.946,2.211 4.946,4.945 0,1.953 -1.149,3.738 -2.934,4.531 l -7.129,2.594 c -4.578,2.039 -7.523,6.559 -7.523,11.559 0,6.984 5.652,12.652 12.64,12.652 6.989,0 12.641,-5.668 12.641,-12.652 l -8.246,0 c 0,2.437 -1.957,4.406 -4.395,4.406 -2.421,0 -4.394,-1.969 -4.394,-4.406 0,-1.727 1.023,-3.317 2.609,-4.008 l 7.129,-2.609 c 4.774,-2.125 7.852,-6.84 7.852,-12.067 0,-7.281 -5.91,-13.191 -13.196,-13.191 -7.285,0 -13.195,5.91 -13.195,13.191 m -32.992,-12.637 0,43.973 8.801,0 0,-4.406 c 1.617,3.043 4.793,4.957 8.25,4.957 5.156,0 9.34,-4.192 9.34,-9.348 l 0,-35.176 -8.801,0 0,31.321 c 0,2.437 -1.957,4.406 -4.395,4.406 -2.422,0 -4.394,-1.969 -4.394,-4.406 l 0,-31.321 -8.801,0 z m -25.281,25.825 8.785,0 0,5.496 c 0,2.437 -1.969,4.406 -4.391,4.406 -2.437,0 -4.394,-1.969 -4.394,-4.406 l 0,-5.496 z m 17.586,-13.188 c 0,-7.281 -5.907,-13.191 -13.192,-13.191 -7.285,0 -13.195,5.91 -13.195,13.191 l 0,18.684 c 0,7.297 5.91,13.203 13.195,13.203 7.285,0 13.192,-5.906 13.192,-13.203 l 0,-12.637 -17.586,0 0,-6.047 c 0,-2.426 1.957,-4.394 4.394,-4.394 2.422,0 4.391,1.968 4.391,4.394 l 8.801,0 z m -31.887,-12.637 -4.406,0 c -5.457,0 -9.891,4.434 -9.891,9.887 l 0,26.93 -4.406,0 0,7.156 4.406,0 0,13.188 8.801,0 0,-13.188 5.496,0 0,-7.156 -5.496,0 0,-25.824 c 0,-1.516 1.219,-2.75 2.75,-2.75 l 2.746,0 0,-8.243 z m -35.188,61.551 8.801,0 0,-8.797 -8.801,0 0,8.797 z m 0,-17.578 8.801,0 0,-43.973 -8.801,0 0,43.973 z m -25.296,-18.148 8.8,0 0,5.496 c 0,2.437 -1.968,4.406 -4.406,4.406 -2.426,0 -4.394,-1.969 -4.394,-4.406 l 0,-5.496 z m 17.601,-13.188 c 0,-7.281 -5.922,-13.191 -13.207,-13.191 -7.285,0 -13.195,5.91 -13.195,13.191 l 0,18.684 c 0,7.297 5.91,13.203 13.195,13.203 7.285,0 13.207,-5.906 13.207,-13.203 l 0,-12.637 -17.601,0 0,-6.047 c 0,-2.426 1.968,-4.394 4.394,-4.394 2.438,0 4.406,1.968 4.406,4.394 l 8.801,0 z m -63.234,4.957 8.785,0 0,-3.301 c 0,-3.343 2.707,-6.05 6.055,-6.05 l 0.55,0 c 3.344,0 6.051,2.707 6.051,6.05 l 0,6.586 c 0,2.465 -1.5,4.692 -3.781,5.61 l -7.84,3.175 c -5.609,2.266 -9.281,7.708 -9.281,13.754 l 0,3.856 c 0,8.187 6.644,14.832 14.851,14.832 8.192,0 14.852,-6.645 14.852,-14.832 l 0,-3.301 -8.801,0 0,3.301 c 0,3.328 -2.707,6.035 -6.051,6.035 -3.343,0 -6.05,-2.707 -6.05,-6.035 l 0,-3.856 c 0,-2.464 1.5,-4.675 3.785,-5.609 l 7.836,-3.172 c 5.613,-2.269 9.281,-7.707 9.281,-13.758 l 0,-6.586 c 0,-8.203 -6.66,-14.847 -14.852,-14.847 l -0.55,0 c -8.192,0 -14.84,6.644 -14.84,14.847 l 0,3.301 z" /><path
                 id="path9404"
                 style="fill:#000000;fill-opacity:1;fill-rule:nonzero;stroke:none"
                 d="m 307.637,150.227 -4.395,0 c -5.469,0 -9.906,4.421 -9.906,9.89 l 0,26.93 -4.391,0 0,7.152 4.391,0 0,13.192 8.801,0 0,-13.192 5.5,0 0,-7.152 -5.5,0 0,-25.824 c 0,-1.516 1.234,-2.75 2.75,-2.75 l 2.75,0 0,-8.246 z m -50.578,0 0,61.554 8.785,0 0,-21.984 c 1.629,3.043 4.804,4.941 8.25,4.941 5.156,0 9.351,-4.179 9.351,-9.336 l 0,-35.175 -8.8,0 0,31.324 c 0,2.437 -1.969,4.406 -4.395,4.406 -2.438,0 -4.406,-1.969 -4.406,-4.406 l 0,-31.324 -8.785,0 z m -5.516,13.191 0,-0.555 c 0,-7.281 -5.895,-13.187 -13.18,-13.187 -7.297,0 -13.207,5.906 -13.207,13.187 l 0,18.688 c 0,7.297 5.91,13.187 13.207,13.187 7.285,0 13.18,-5.89 13.18,-13.187 l 0,-0.539 -8.785,0 0,0.539 c 0,2.437 -1.969,4.406 -4.395,4.406 -2.437,0 -4.406,-1.969 -4.406,-4.406 l 0,-18.688 c 0,-2.422 1.969,-4.39 4.406,-4.39 2.426,0 4.395,1.968 4.395,4.39 l 0,0.555 8.785,0 z m -43.973,48.363 8.801,0 0,-8.797 -8.801,0 0,8.797 z m 0,-17.582 8.801,0 0,-43.972 -8.801,0 0,43.972 z m -35.191,-43.972 0,43.972 8.801,0 0,-4.402 c 1.617,3.043 4.793,4.941 8.234,4.941 5.176,0 9.356,-4.179 9.356,-9.336 l 0,-35.175 -8.801,0 0,31.324 c 0,2.437 -1.969,4.406 -4.395,4.406 -2.437,0 -4.394,-1.969 -4.394,-4.406 l 0,-31.324 -8.801,0 z" /><path
                 id="path9406"
                 style="fill:#000000;fill-opacity:1;fill-rule:nonzero;stroke:none"
                 d="m 357.672,57.891 0,43.972 8.801,0 0,-4.972 c 2.82,3.5 7.054,5.523 11.535,5.523 l 0,-9.234 c -0.879,0.281 -1.817,0.437 -2.735,0.437 -4.863,0 -8.8,-3.937 -8.8,-8.797 l 0,-26.929 -8.801,0 z m -17.602,19.238 -4.394,0 c -2.422,0 -4.395,-1.969 -4.395,-4.395 l 0,-2.207 c 0,-2.422 1.973,-4.394 4.395,-4.394 2.422,0 4.394,1.972 4.394,4.394 l 0,6.602 z m 8.801,-19.238 -8.801,0 0,4.39 c -1.617,-3.047 -4.793,-4.945 -8.25,-4.945 -5.156,0 -9.34,4.18 -9.34,9.352 l 0,6.585 c 0,6.079 4.918,10.997 11,10.997 l 6.59,0 0,4.941 c 0,2.437 -1.972,4.406 -4.394,4.406 -2.422,0 -4.395,-1.969 -4.395,-4.406 l -8.801,0 c 0,7.297 5.911,13.203 13.196,13.203 7.285,0 13.195,-5.906 13.195,-13.203 l 0,-31.32 z m -51.687,12.636 c 0,-2.422 1.972,-4.394 4.41,-4.394 2.422,0 4.39,1.972 4.39,4.394 l 0,18.684 c 0,2.437 -1.968,4.406 -4.39,4.406 -2.438,0 -4.41,-1.969 -4.41,-4.406 l 0,-18.684 z m -8.786,-12.636 0,61.55 8.786,0 0,-21.984 c 1.632,3.047 4.804,4.957 8.25,4.957 5.156,0 9.351,-4.191 9.351,-9.348 l 0,-26.378 c 0,-5.172 -4.195,-9.352 -9.351,-9.352 -3.446,0 -6.618,1.898 -8.25,4.945 l 0,-4.39 -8.786,0 z m -25.847,0 0,43.972 8.801,0 0,-4.972 c 2.82,3.5 7.054,5.523 11.535,5.523 l 0,-9.234 c -0.879,0.281 -1.817,0.437 -2.735,0.437 -4.863,0 -8.8,-3.937 -8.8,-8.797 l 0,-26.929 -8.801,0 z m -35.192,0 0,61.55 8.801,0 0,-21.984 c 1.617,3.047 4.793,4.957 8.25,4.957 5.156,0 9.34,-4.191 9.34,-9.348 l 0,-35.175 -8.801,0 0,31.32 c 0,2.437 -1.957,4.406 -4.394,4.406 -2.422,0 -4.395,-1.969 -4.395,-4.406 l 0,-31.32 -8.801,0 z m -17.601,19.238 -4.391,0 c -2.426,0 -4.41,-1.969 -4.41,-4.395 l 0,-2.207 c 0,-2.422 1.984,-4.394 4.41,-4.394 2.422,0 4.391,1.972 4.391,4.394 l 0,6.602 z m 8.801,-19.238 -8.801,0 0,4.39 c -1.613,-3.047 -4.789,-4.945 -8.246,-4.945 -5.16,0 -9.34,4.18 -9.34,9.352 l 0,6.585 c 0,6.079 4.918,10.997 10.996,10.997 l 6.59,0 0,4.941 c 0,2.437 -1.969,4.406 -4.391,4.406 -2.426,0 -4.41,-1.969 -4.41,-4.406 l -8.785,0 c 0,7.297 5.91,13.203 13.195,13.203 7.281,0 13.192,-5.906 13.192,-13.203 l 0,-31.32 z m -46.184,0 0,36.816 -4.395,0 0,7.156 4.395,0 0,6.586 c 0,6.078 4.93,10.992 10.996,10.992 l 4.406,0 0,-8.242 -3.855,0 c -1.516,0 -2.746,-1.219 -2.746,-2.75 l 0,-6.586 6.601,0 0,-7.156 -6.601,0 0,-36.816 -8.801,0 z m -27.496,25.824 8.801,0 0,5.496 c 0,2.437 -1.969,4.406 -4.391,4.406 -2.437,0 -4.41,-1.969 -4.41,-4.406 l 0,-5.496 z M 162.48,70.527 c 0,-7.281 -5.91,-13.191 -13.191,-13.191 -7.301,0 -13.211,5.91 -13.211,13.191 l 0,18.684 c 0,7.297 5.91,13.203 13.211,13.203 7.281,0 13.191,-5.906 13.191,-13.203 l 0,-12.637 -17.601,0 0,-6.047 c 0,-2.422 1.973,-4.394 4.41,-4.394 2.422,0 4.391,1.972 4.391,4.394 l 8.8,0 z m -51.683,0 c 0,-2.422 1.969,-4.394 4.394,-4.394 2.438,0 4.407,1.972 4.407,4.394 l 0,18.684 c 0,2.437 -1.969,4.406 -4.407,4.406 -2.425,0 -4.394,-1.969 -4.394,-4.406 l 0,-18.684 z m -8.801,-12.636 0,61.55 8.801,0 0,-21.984 c 1.617,3.047 4.789,4.957 8.25,4.957 5.156,0 9.336,-4.191 9.336,-9.348 l 0,-26.378 c 0,-5.172 -4.18,-9.352 -9.336,-9.352 -3.461,0 -6.633,1.898 -8.25,4.945 l 0,-4.39 -8.801,0 z" /></g></g></g></g></g></g></svg>