<?xml version="1.0" encoding="UTF-8" standalone="no"?>
<svg
   xmlns:dc="http://purl.org/dc/elements/1.1/"
   xmlns:cc="http://creativecommons.org/ns#"
   xmlns:rdf="http://www.w3.org/1999/02/22-rdf-syntax-ns#"
   xmlns:svg="http://www.w3.org/2000/svg"
   xmlns="http://www.w3.org/2000/svg"
   viewBox="0 0 600 330"
   height="330"
   width="600"
   xml:space="preserve"
   version="1.1"
   id="svg3564"><metadata
     id="metadata3570"><rdf:RDF><cc:Work
         rdf:about=""><dc:format>image/svg+xml</dc:format><dc:type
           rdf:resource="http://purl.org/dc/dcmitype/StillImage" /><dc:title></dc:title></cc:Work></rdf:RDF></metadata><defs
     id="defs3568"><clipPath
       id="clipPath3582"
       clipPathUnits="userSpaceOnUse"><path
         id="path3584"
         d="M 0,0 480,0 480,264 0,264 0,0 Z" /></clipPath></defs><g
     transform="matrix(1.25,0,0,-1.25,0,330)"
     id="g3572"><g
       id="g3574"><g
         id="g3576"><g
           id="g3578"><g
             clip-path="url(#clipPath3582)"
             id="g3580"><g
               id="g3586"><path
                 id="path3588"
                 style="fill:#ffffff;fill-opacity:1;fill-rule:nonzero;stroke:none"
                 d="m 31.996,263.758 c -17.512,0 -31.754,-14.254 -31.754,-31.766 l 0,-199.996 C 0.242,14.484 14.484,0.242 31.996,0.242 l 416.008,0 c 17.512,0 31.754,14.242 31.754,31.754 l 0,199.996 c 0,17.512 -14.242,31.766 -31.754,31.766" /><path
                 id="path3590"
                 style="fill:#000000;fill-opacity:1;fill-rule:nonzero;stroke:none"
                 d="M 31.996,0.484 C 14.613,0.484 0.484,14.613 0.484,31.996 l 0,199.996 c 0,17.383 14.129,31.524 31.512,31.524 l 416.008,0 c 17.383,0 31.512,-14.141 31.512,-31.524 l 0,-199.996 c 0,-17.383 -14.129,-31.512 -31.512,-31.512 l -416.008,0 z M 448.004,264 31.996,264 C 14.32,264 0,249.672 0,231.992 L 0,31.996 C 0,14.328 14.32,0 31.996,0 L 448.004,0 C 465.672,0 480,14.328 480,31.996 l 0,199.996 C 480,249.672 465.672,264 448.004,264" /></g></g></g></g><path
         id="path3592"
         style="fill:#000000;fill-opacity:1;fill-rule:nonzero;stroke:none"
         d="m 31.996,19.996 416.008,0 c 6.629,0 12,5.371 12,12 l 0,199.996 c 0,6.629 -5.371,12 -12,12 l -416.008,0 c -6.629,0 -12,-5.371 -12,-12 l 0,-199.996 c 0,-6.629 5.371,-12 12,-12 z m 0,-12 c -13.258,0 -24,10.742 -24,24 l 0,199.996 c 0,13.258 10.742,24 24,24 l 416.008,0 c 13.258,0 24,-10.742 24,-24 l 0,-199.996 c 0,-13.258 -10.742,-24 -24,-24" /><path
         id="path3594"
         style="fill:#000000;fill-opacity:1;fill-rule:nonzero;stroke:none"
         d="m 75.547,146.445 12.391,0 c 11.765,0 17.023,6.239 17.023,17.293 l 0,3.567 c 0,6.593 -1.961,10.425 -6.238,12.476 4.011,2.496 6.238,4.992 6.238,11.766 l 0,2.32 c 0,8.289 -4.367,16.043 -16.133,16.043 l -13.281,0 0,-63.465 z m 9.094,29.414 4.007,0 c 6.598,0 7.758,-3.297 7.758,-9.625 0,-6.242 -0.535,-10.699 -7.844,-10.699 l -3.921,0 0,20.324 z m 0,25.493 3.742,0 c 5.972,0 8.023,-2.942 8.023,-8.555 0,-5.797 -1.605,-8.914 -7.668,-8.914 l -4.097,0 0,17.469 z" /><path
         id="path3596"
         style="fill:#000000;fill-opacity:1;fill-rule:nonzero;stroke:none"
         d="m 130.344,146.445 9.09,0 0,31.465 c 0,9.449 -6.063,14.262 -13.637,14.262 -4.102,0 -7.488,-1.426 -9.895,-3.832 -2.406,-2.406 -3.832,-5.793 -4.101,-9.805 l 8.824,0 c 0.535,2.942 2.855,4.543 5.172,4.543 3.387,0 4.547,-2.316 4.547,-5.348 l 0,-4.722 c -1.875,0.09 -3.121,0.265 -4.371,0.265 -11.407,0 -14.348,-4.988 -14.348,-15.328 0,-9.984 5.613,-12.035 9.805,-12.035 4.367,0 6.328,1.871 8.734,5.168 l 0.18,0 0,-4.633 z m 0,13.282 c 0,-3.657 -1.875,-5.793 -4.903,-5.793 -2.941,0 -4.726,2.316 -4.726,5.793 0,4.812 3.211,6.418 7.133,6.418 0.8,0 1.515,-0.09 2.496,-0.27 l 0,-6.148 z" /><path
         id="path3598"
         style="fill:#000000;fill-opacity:1;fill-rule:nonzero;stroke:none"
         d="m 174.203,191.637 -9.09,0 0,-30.395 c 0,-4.012 -1.16,-6.242 -4.547,-6.242 -2.851,0 -4.457,2.051 -4.457,5.352 l 0,31.285 -9.093,0 0,-34.672 c 0,-8.113 4.816,-11.055 9.359,-11.055 4.191,0 6.687,2.051 8.559,4.902 l 0.179,0 0,-4.367 9.09,0 0,45.192 z" /><path
         id="path3600"
         style="fill:#000000;fill-opacity:1;fill-rule:nonzero;stroke:none"
         d="m 207.031,178.98 c -0.09,7.489 -5.437,13.192 -12.836,13.192 -7.312,0 -13.371,-5.527 -13.371,-13.192 0,-6.062 3.477,-10.339 9.18,-12.48 l 4.367,-1.605 c 3.477,-1.336 4.547,-3.028 4.547,-5.524 0,-3.031 -2.496,-4.902 -5.082,-4.902 -3.387,0 -4.543,2.582 -4.902,5.078 l -8.555,0 c 0.355,-8.914 6.418,-13.637 13.547,-13.637 7.844,0 13.551,6.149 13.551,13.637 0,5.348 -2.141,10.164 -8.915,12.746 l -5.347,2.141 c -3.391,1.336 -3.836,2.941 -3.836,4.636 0,2.317 1.605,4.543 4.457,4.543 2.406,0 4.547,-1.601 4.637,-4.633 l 8.558,0 z" /><path
         id="path3602"
         style="fill:#000000;fill-opacity:1;fill-rule:nonzero;stroke:none"
         d="m 214.758,191.637 -4.547,0 0,-7.129 4.547,0 0,-27.457 c 0,-4.813 2.765,-10.606 10.965,-10.606 l 3.742,0 0,8.555 c -4.008,0 -5.613,0.27 -5.613,4.457 l 0,25.051 5.613,0 0,7.129 -5.613,0 0,13.726 -9.094,0 0,-13.726 z" /><path
         id="path3604"
         style="fill:#000000;fill-opacity:1;fill-rule:nonzero;stroke:none"
         d="m 262.547,165.609 0,12.481 c 0,7.93 -5.168,14.082 -13.547,14.082 -5.527,0 -9.715,-2.586 -11.855,-6.508 -1.25,-2.316 -1.696,-5.527 -1.696,-9.18 l 0,-14.886 c 0,-3.653 0.446,-6.864 1.696,-9.18 2.14,-3.922 6.328,-6.508 11.855,-6.508 4.188,0 7.488,1.516 9.895,4.012 2.316,2.406 3.652,5.883 3.652,9.625 l -9.09,0 C 253.277,157.586 252.477,155 249,155 c -2.766,0 -4.457,1.605 -4.457,4.457 l 0,6.152 18.004,0 z m -18.004,12.301 c 0,3.387 1.691,5.168 4.457,5.168 2.762,0 4.457,-1.781 4.457,-5.168 l 0,-5.172 -8.914,0 0,5.172 z" /><path
         id="path3606"
         style="fill:#000000;fill-opacity:1;fill-rule:nonzero;stroke:none"
         d="m 269.598,158.566 c 0,-10.515 5.168,-12.656 13.547,-12.656 l 0,8.559 c -3.477,0.355 -4.457,1.336 -4.457,4.722 l 0,50.719 -9.09,0 0,-51.344 z" /><path
         id="path3608"
         style="fill:#000000;fill-opacity:1;fill-rule:nonzero;stroke:none"
         d="m 289.336,158.566 c 0,-10.515 5.168,-12.656 13.547,-12.656 l 0,8.559 c -3.477,0.355 -4.457,1.336 -4.457,4.722 l 0,50.719 -9.09,0 0,-51.344 z" /><path
         id="path3610"
         style="fill:#000000;fill-opacity:1;fill-rule:nonzero;stroke:none"
         d="m 334.305,165.609 0,12.481 c 0,7.93 -5.172,14.082 -13.551,14.082 -5.524,0 -9.715,-2.586 -11.856,-6.508 -1.246,-2.316 -1.691,-5.527 -1.691,-9.18 l 0,-14.886 c 0,-3.653 0.445,-6.864 1.691,-9.18 2.141,-3.922 6.332,-6.508 11.856,-6.508 4.191,0 7.488,1.516 9.894,4.012 2.321,2.406 3.657,5.883 3.657,9.625 l -9.094,0 C 325.035,157.586 324.23,155 320.754,155 c -2.762,0 -4.457,1.605 -4.457,4.457 l 0,6.152 18.008,0 z m -18.008,12.301 c 0,3.387 1.695,5.168 4.457,5.168 2.766,0 4.457,-1.781 4.457,-5.168 l 0,-5.172 -8.914,0 0,5.172 z" /><path
         id="path3612"
         style="fill:#000000;fill-opacity:1;fill-rule:nonzero;stroke:none"
         d="m 341.086,146.445 9.094,0 0,30.395 c 0,4.012 1.156,6.238 4.547,6.238 2.851,0 4.453,-2.047 4.453,-5.348 l 0,-31.285 9.093,0 0,34.672 c 0,8.113 -4.812,11.055 -9.359,11.055 -4.187,0 -6.684,-2.051 -8.559,-4.902 l -0.175,0 0,4.367 -9.094,0 0,-45.192 z" /><path
         id="path3614"
         style="fill:#000000;fill-opacity:1;fill-rule:nonzero;stroke:none"
         d="m 377.621,175.68 26.832,0 0,-9.09 -26.832,0 0,9.09 z" /><path
         id="path3616"
         style="fill:#000000;fill-opacity:1;fill-rule:nonzero;stroke:none"
         d="m 140.934,54.625 9.089,0 0,31.465 c 0,9.449 -6.062,14.262 -13.636,14.262 -4.102,0 -7.489,-1.426 -9.895,-3.832 -2.406,-2.407 -3.832,-5.793 -4.101,-9.805 l 8.824,0 c 0.535,2.941 2.851,4.547 5.172,4.547 3.386,0 4.547,-2.321 4.547,-5.352 l 0,-4.722 c -1.875,0.089 -3.122,0.265 -4.372,0.265 -11.406,0 -14.347,-4.988 -14.347,-15.328 0,-9.984 5.613,-12.035 9.805,-12.035 4.367,0 6.328,1.871 8.734,5.172 l 0.18,0 0,-4.637 z m 0,13.281 c 0,-3.656 -1.875,-5.793 -4.907,-5.793 -2.941,0 -4.722,2.317 -4.722,5.793 0,4.813 3.211,6.418 7.133,6.418 0.8,0 1.515,-0.09 2.496,-0.269 l 0,-6.149 z" /><path
         id="path3618"
         style="fill:#000000;fill-opacity:1;fill-rule:nonzero;stroke:none"
         d="m 183.992,99.816 -9.09,0 0,-30.394 c 0,-4.012 -1.16,-6.238 -4.547,-6.238 -2.851,0 -4.457,2.046 -4.457,5.347 l 0,31.285 -9.093,0 0,-34.671 c 0,-8.114 4.816,-11.055 9.359,-11.055 4.191,0 6.688,2.051 8.559,4.902 l 0.179,0 0,-4.367 9.09,0 0,45.191 z" /><path
         id="path3620"
         style="fill:#000000;fill-opacity:1;fill-rule:nonzero;stroke:none"
         d="m 216.5,87.16 c -0.09,7.488 -5.438,13.192 -12.836,13.192 -7.309,0 -13.371,-5.528 -13.371,-13.192 0,-6.062 3.477,-10.34 9.18,-12.48 l 4.367,-1.606 c 3.476,-1.336 4.547,-3.027 4.547,-5.523 0,-3.031 -2.496,-4.903 -5.082,-4.903 -3.387,0 -4.543,2.582 -4.903,5.079 l -8.554,0 c 0.355,-8.915 6.418,-13.637 13.547,-13.637 7.843,0 13.55,6.152 13.55,13.637 0,5.347 -2.14,10.164 -8.914,12.746 l -5.347,2.14 c -3.387,1.336 -3.836,2.942 -3.836,4.637 0,2.316 1.605,4.543 4.457,4.543 2.41,0 4.547,-1.602 4.636,-4.633 l 8.559,0 z" /><path
         id="path3622"
         style="fill:#000000;fill-opacity:1;fill-rule:nonzero;stroke:none"
         d="m 225.547,54.625 9.094,0 0,38.063 6.773,0 0,7.128 -6.773,0 0,6.598 c 0,1.961 0.98,3.117 2.671,3.117 l 4.102,0 0,8.559 -4.191,0 c -5.883,0 -11.676,-3.387 -11.676,-12.121 l 0,-6.153 -4.457,0 0,-7.128 4.457,0 0,-38.063 z" /><path
         id="path3624"
         style="fill:#000000;fill-opacity:1;fill-rule:nonzero;stroke:none"
         d="m 263.039,54.625 9.09,0 0,31.465 c 0,9.449 -6.059,14.262 -13.637,14.262 -4.101,0 -7.488,-1.426 -9.894,-3.832 -2.407,-2.407 -3.832,-5.793 -4.098,-9.805 l 8.824,0 c 0.531,2.941 2.852,4.547 5.168,4.547 3.387,0 4.547,-2.321 4.547,-5.352 l 0,-4.722 c -1.871,0.089 -3.121,0.265 -4.367,0.265 -11.41,0 -14.352,-4.988 -14.352,-15.328 0,-9.984 5.614,-12.035 9.805,-12.035 4.367,0 6.328,1.871 8.734,5.172 l 0.18,0 0,-4.637 z m 0,13.281 c 0,-3.656 -1.871,-5.793 -4.902,-5.793 -2.942,0 -4.727,2.317 -4.727,5.793 0,4.813 3.211,6.418 7.133,6.418 0.801,0 1.516,-0.09 2.496,-0.269 l 0,-6.149 z" /><path
         id="path3626"
         style="fill:#000000;fill-opacity:1;fill-rule:nonzero;stroke:none"
         d="m 280.512,54.625 9.093,0 0,30.395 c 0,4.011 1.161,6.242 4.547,6.242 2.852,0 4.457,-2.051 4.457,-5.352 l 0,-31.285 9.09,0 0,34.676 c 0,8.109 -4.812,11.051 -9.359,11.051 -4.188,0 -6.684,-2.051 -8.555,-4.903 l -0.18,0 0,22.641 -9.093,0 0,-63.465 z" /><path
         id="path3628"
         style="fill:#000000;fill-opacity:1;fill-rule:nonzero;stroke:none"
         d="m 315.156,54.625 9.094,0 0,26.828 c 0,7.399 5.438,9.809 9.27,9.809 0.98,0 1.871,-0.18 2.765,-0.535 l 0,9.625 c -5.262,0 -8.293,-2.051 -12.035,-5.348 l 0,4.812 -9.094,0 0,-45.191 z" /><path
         id="path3630"
         style="fill:#000000;fill-opacity:1;fill-rule:nonzero;stroke:none"
         d="m 343.078,99.816 -4.543,0 0,-7.128 4.543,0 0,-27.458 c 0,-4.812 2.766,-10.605 10.965,-10.605 l 3.742,0 0,8.559 c -4.008,0 -5.613,0.265 -5.613,4.457 l 0,25.047 5.613,0 0,7.128 -5.613,0 0,13.727 -9.094,0 0,-13.727 z" /></g></g></svg>