<?xml version="1.0" encoding="UTF-8" standalone="no"?>
<svg
   xmlns:dc="http://purl.org/dc/elements/1.1/"
   xmlns:cc="http://creativecommons.org/ns#"
   xmlns:rdf="http://www.w3.org/1999/02/22-rdf-syntax-ns#"
   xmlns:svg="http://www.w3.org/2000/svg"
   xmlns="http://www.w3.org/2000/svg"
   viewBox="0 0 600 330"
   height="330"
   width="600"
   xml:space="preserve"
   version="1.1"
   id="svg3946"><metadata
     id="metadata3952"><rdf:RDF><cc:Work
         rdf:about=""><dc:format>image/svg+xml</dc:format><dc:type
           rdf:resource="http://purl.org/dc/dcmitype/StillImage" /><dc:title></dc:title></cc:Work></rdf:RDF></metadata><defs
     id="defs3950" /><g
     transform="matrix(1.25,0,0,-1.25,0,330)"
     id="g3954"><g
       id="g3956"><path
         id="path3958"
         style="fill:#ffffff;fill-opacity:1;fill-rule:nonzero;stroke:none"
         d="m 31.996,263.758 c -17.512,0 -31.754,-14.254 -31.754,-31.766 l 0,-199.996 C 0.242,14.484 14.484,0.242 31.996,0.242 l 416.008,0 c 17.512,0 31.754,14.242 31.754,31.754 l 0,199.996 c 0,17.512 -14.242,31.766 -31.754,31.766" /><path
         id="path3960"
         style="fill:#000000;fill-opacity:1;fill-rule:nonzero;stroke:none"
         d="M 31.996,0.484 C 14.613,0.484 0.484,14.613 0.484,31.996 l 0,199.996 c 0,17.383 14.129,31.524 31.512,31.524 l 416.008,0 c 17.383,0 31.512,-14.141 31.512,-31.524 l 0,-199.996 c 0,-17.383 -14.129,-31.512 -31.512,-31.512 l -416.008,0 z M 448.004,264 31.996,264 C 14.32,264 0,249.672 0,231.992 L 0,31.996 C 0,14.328 14.32,0 31.996,0 L 448.004,0 C 465.672,0 480,14.328 480,31.996 l 0,199.996 C 480,249.672 465.672,264 448.004,264" /><path
         id="path3962"
         style="fill:#000000;fill-opacity:1;fill-rule:nonzero;stroke:none"
         d="m 31.996,19.996 416.008,0 c 6.629,0 12,5.371 12,12 l 0,199.996 c 0,6.629 -5.371,12 -12,12 l -416.008,0 c -6.629,0 -12,-5.371 -12,-12 l 0,-199.996 c 0,-6.629 5.371,-12 12,-12 z m 0,-12 c -13.258,0 -24,10.742 -24,24 l 0,199.996 c 0,13.258 10.742,24 24,24 l 416.008,0 c 13.258,0 24,-10.742 24,-24 l 0,-199.996 c 0,-13.258 -10.742,-24 -24,-24" /><path
         id="path3964"
         style="fill:#000000;fill-opacity:1;fill-rule:nonzero;stroke:none"
         d="m 101.055,169.523 c 0,4.719 -1.469,8.665 -4.485,11.293 -2.32,2.09 -5.183,3.325 -10.289,4.098 l -6.265,0.93 c -2.551,0.386 -4.793,1.316 -6.188,2.554 -1.469,1.313 -2.086,3.094 -2.086,5.102 0,4.875 3.555,8.586 10.055,8.586 4.641,0 8.586,-1.004 11.988,-4.254 l 5.336,5.262 c -4.719,4.406 -9.824,6.265 -17.094,6.265 -11.445,0 -18.406,-6.574 -18.406,-16.168 0,-4.484 1.313,-7.964 4.02,-10.519 2.398,-2.242 5.957,-3.789 10.441,-4.406 l 6.5,-0.93 c 3.246,-0.465 4.641,-1.004 6.031,-2.32 1.469,-1.317 2.168,-3.325 2.168,-5.723 0,-5.34 -4.179,-8.434 -11.371,-8.434 -5.648,0 -10.055,1.239 -14.078,5.262 l -5.57,-5.492 c 5.261,-5.336 11.215,-7.27 19.492,-7.27 11.527,0 19.801,6.032 19.801,16.164 z" /><path
         id="path3966"
         style="fill:#000000;fill-opacity:1;fill-rule:nonzero;stroke:none"
         d="m 145.102,153.82 -15.317,23.825 13.613,15.394 -9.589,0 -15.239,-18.101 0,33.957 -7.89,0 0,-55.075 7.89,0 0,11.528 5.801,6.574 10.984,-18.102 9.747,0 z" /><path
         id="path3968"
         style="fill:#000000;fill-opacity:1;fill-rule:nonzero;stroke:none"
         d="m 160.453,200.773 0,8.352 -8.351,0 0,-8.352 8.351,0 z m -0.23,-46.953 0,39.219 -7.891,0 0,-39.219 7.891,0 z" /><path
         id="path3970"
         style="fill:#000000;fill-opacity:1;fill-rule:nonzero;stroke:none"
         d="m 201.578,153.82 0,26.223 c 0,8.895 -5.414,13.457 -16.164,13.457 -6.5,0 -10.367,-1.312 -14.078,-5.645 l 5.18,-4.875 c 2.168,2.786 4.254,3.793 8.586,3.793 6.113,0 8.586,-2.398 8.586,-7.347 l 0,-2.785 -10.364,0 c -8.972,0 -13.535,-4.719 -13.535,-11.293 0,-3.328 1.082,-6.344 3.094,-8.434 2.398,-2.394 5.644,-3.555 10.519,-3.555 4.871,0 7.578,1.161 10.442,4.02 l 0,-3.559 7.734,0 z m -7.89,14.157 c 0,-2.786 -0.54,-4.641 -1.7,-5.801 -2.09,-2.012 -4.332,-2.242 -7.347,-2.242 -4.953,0 -7.196,2.011 -7.196,5.566 0,3.559 2.399,5.648 7.039,5.648 l 9.204,0 0,-3.171 z" /><path
         id="path3972"
         style="fill:#000000;fill-opacity:1;fill-rule:nonzero;stroke:none"
         d="m 244.965,173.469 c 0,5.957 -0.461,12.609 -4.406,16.551 -2.168,2.168 -5.571,3.48 -9.516,3.48 -4.176,0 -7.426,-1.004 -10.285,-4.406 l 0,19.801 -7.891,0 0,-55.075 7.735,0 0,4.18 c 2.941,-3.559 6.109,-4.641 10.363,-4.641 3.945,0 7.426,1.313 9.594,3.481 3.945,3.945 4.406,10.672 4.406,16.629 z m -7.887,0 c 0,-6.961 -1.008,-13.071 -8.121,-13.071 -7.117,0 -8.199,6.11 -8.199,13.071 0,6.961 1.082,12.996 8.199,12.996 7.113,0 8.121,-6.035 8.121,-12.996 z" /><path
         id="path3974"
         style="fill:#000000;fill-opacity:1;fill-rule:nonzero;stroke:none"
         d="m 272.559,186.309 0,6.031 -7.813,0 0,5.648 c 0,2.864 1.395,4.563 4.332,4.563 l 3.481,0 0,6.73 -4.95,0 c -7.347,0 -10.75,-5.261 -10.75,-10.906 l 0,-6.035 -4.488,0 0,-6.031 4.488,0 0,-32.489 7.887,0 0,32.489 7.813,0 z" /><path
         id="path3976"
         style="fill:#000000;fill-opacity:1;fill-rule:nonzero;stroke:none"
         d="m 310.652,153.82 0,26.223 c 0,8.895 -5.414,13.457 -16.168,13.457 -6.496,0 -10.363,-1.312 -14.078,-5.645 l 5.184,-4.875 c 2.168,2.786 4.254,3.793 8.586,3.793 6.109,0 8.586,-2.398 8.586,-7.347 l 0,-2.785 -10.364,0 c -8.972,0 -13.539,-4.719 -13.539,-11.293 0,-3.328 1.086,-6.344 3.094,-8.434 2.399,-2.394 5.649,-3.555 10.52,-3.555 4.875,0 7.582,1.161 10.445,4.02 l 0,-3.559 7.734,0 z m -7.89,14.157 c 0,-2.786 -0.543,-4.641 -1.703,-5.801 -2.086,-2.012 -4.332,-2.242 -7.348,-2.242 -4.949,0 -7.191,2.011 -7.191,5.566 0,3.559 2.398,5.648 7.039,5.648 l 9.203,0 0,-3.171 z" /><path
         id="path3978"
         style="fill:#000000;fill-opacity:1;fill-rule:nonzero;stroke:none"
         d="m 353.574,153.82 0,25.293 c 0,8.512 -4.871,14.387 -13.613,14.387 -3.867,0 -7.426,-1.469 -10.133,-4.406 l 0,19.801 -7.887,0 0,-55.075 7.887,0 0,24.059 c 0,5.875 3.559,8.586 7.969,8.586 4.41,0 7.891,-2.633 7.891,-8.586 l 0,-24.059 7.886,0 z" /><path
         id="path3980"
         style="fill:#000000;fill-opacity:1;fill-rule:nonzero;stroke:none"
         d="m 393.137,189.789 c -2.707,2.707 -5.571,3.711 -9.36,3.711 -4.41,0 -8.433,-1.934 -10.441,-4.715 l 0,4.254 -7.738,0 0,-39.219 7.89,0 0,23.825 c 0,5.414 3.559,8.82 7.813,8.82 2.707,0 4.097,-0.852 5.879,-2.633 l 5.957,5.957 z" /><path
         id="path3982"
         style="fill:#000000;fill-opacity:1;fill-rule:nonzero;stroke:none"
         d="m 418.238,153.82 0,6.731 -3.25,0 c -2.937,0 -4.332,1.703 -4.332,4.562 l 0,21.196 7.582,0 0,6.031 -7.582,0 0,11.914 -7.89,0 0,-11.914 -4.485,0 0,-6.031 4.485,0 0,-21.582 c 0,-5.645 3.406,-10.907 10.754,-10.907 l 4.718,0 z" /><path
         id="path3984"
         style="fill:#000000;fill-opacity:1;fill-rule:nonzero;stroke:none"
         d="m 167.844,56.145 -15.317,23.824 13.614,15.39 -9.59,0 -15.239,-18.097 0,33.953 -7.89,0 0,-55.07 7.89,0 0,11.523 5.801,6.574 10.985,-18.097 9.746,0 z" /><path
         id="path3986"
         style="fill:#000000;fill-opacity:1;fill-rule:nonzero;stroke:none"
         d="m 201.809,92.109 c -2.707,2.711 -5.567,3.715 -9.36,3.715 -4.406,0 -8.429,-1.933 -10.441,-4.719 l 0,4.254 -7.735,0 0,-39.214 7.891,0 0,23.824 c 0,5.414 3.559,8.816 7.813,8.816 2.707,0 4.097,-0.851 5.878,-2.629 l 5.954,5.953 z" /><path
         id="path3988"
         style="fill:#000000;fill-opacity:1;fill-rule:nonzero;stroke:none"
         d="m 239.363,73.469 0,3.48 c 0,11.141 -6.109,18.875 -16.629,18.875 -10.058,0 -16.632,-7.347 -16.632,-20.035 0,-14.926 7.812,-20.109 17.636,-20.109 6.883,0 10.676,2.09 14.696,6.109 l -5.028,4.719 c -2.785,-2.785 -5.105,-4.02 -9.511,-4.02 -6.422,0 -9.981,4.254 -9.981,10.981 l 25.449,0 z m -7.812,5.492 -17.637,0 c 0.078,2.398 0.234,3.559 1.008,5.34 1.234,2.937 4.098,4.949 7.812,4.949 3.711,0 6.496,-2.012 7.735,-4.949 0.773,-1.781 1.004,-2.942 1.082,-5.34 z" /><path
         id="path3990"
         style="fill:#000000;fill-opacity:1;fill-rule:nonzero;stroke:none"
         d="m 280.414,56.145 0,39.214 -7.891,0 0,-23.898 c 0,-6.035 -3.714,-8.742 -8.121,-8.742 -4.41,0 -7.89,2.629 -7.89,8.742 l 0,23.898 -7.891,0 0,-25.058 c 0,-4.41 0.93,-8.125 3.945,-11.063 2.321,-2.242 5.649,-3.558 9.668,-3.558 3.946,0 7.735,1.468 10.442,4.41 l 0,-3.945 7.738,0 z" /><path
         id="path3992"
         style="fill:#000000;fill-opacity:1;fill-rule:nonzero;stroke:none"
         d="m 320.07,56.145 0,7.039 -19.648,0 19.648,25.91 0,6.265 -28.156,0 0,-7.039 18.41,0 -19.492,-25.91 0,-6.265 29.238,0 z" /><path
         id="path3994"
         style="fill:#000000;fill-opacity:1;fill-rule:nonzero;stroke:none"
         d="m 346.578,56.145 0,6.73 -3.25,0 c -2.937,0 -4.332,1.699 -4.332,4.563 l 0,21.191 7.582,0 0,6.035 -7.582,0 0,11.91 -7.891,0 0,-11.91 -4.484,0 0,-6.035 4.484,0 0,-21.578 c 0,-5.649 3.407,-10.906 10.754,-10.906 l 4.719,0 z" /></g></g></svg>