<?xml version="1.0" encoding="UTF-8" standalone="no"?>
<svg
   xmlns:dc="http://purl.org/dc/elements/1.1/"
   xmlns:cc="http://creativecommons.org/ns#"
   xmlns:rdf="http://www.w3.org/1999/02/22-rdf-syntax-ns#"
   xmlns:svg="http://www.w3.org/2000/svg"
   xmlns="http://www.w3.org/2000/svg"
   viewBox="0 0 600 450.005"
   height="450.005"
   width="600"
   xml:space="preserve"
   version="1.1"
   id="svg8763"><metadata
     id="metadata8769"><rdf:RDF><cc:Work
         rdf:about=""><dc:format>image/svg+xml</dc:format><dc:type
           rdf:resource="http://purl.org/dc/dcmitype/StillImage" /><dc:title></dc:title></cc:Work></rdf:RDF></metadata><defs
     id="defs8767"><clipPath
       id="clipPath8785"
       clipPathUnits="userSpaceOnUse"><path
         id="path8787"
         d="m 0,360.004 480,0 0,-350.738 -480,0 0,350.738 z" /></clipPath><clipPath
       id="clipPath8795"
       clipPathUnits="userSpaceOnUse"><path
         id="path8797"
         d="m 43,49 394,0 0,249 -394,0 0,-249 z" /></clipPath></defs><g
     transform="matrix(1.25,0,0,-1.25,0,450.005)"
     id="g8771"><g
       id="g8773"><path
         id="path8775"
         style="fill:#ffffff;fill-opacity:1;fill-rule:nonzero;stroke:none"
         d="m 31.996,359.774 c -17.504,0 -31.754,-14.25 -31.754,-31.766 L 0.242,32 c 0,-17.508 14.25,-31.758 31.754,-31.758 l 416.008,0 c 17.516,0 31.766,14.25 31.766,31.758 l 0,296.008 c 0,17.516 -14.25,31.766 -31.766,31.766" /><path
         id="path8777"
         style="fill:#000000;fill-opacity:1;fill-rule:nonzero;stroke:none"
         d="M 31.996,0.469 C 14.613,0.469 0.477,14.613 0.477,32 l 0,296.008 c 0,17.383 14.136,31.523 31.519,31.523 l 416.008,0 c 17.383,0 31.519,-14.14 31.519,-31.523 l 0,-296.008 c 0,-17.387 -14.136,-31.531 -31.519,-31.531 l -416.008,0 z m 416.008,359.535 -416.008,0 C 14.328,360.004 0,345.676 0,328.008 L 0,32 C 0,14.328 14.328,0 31.996,0 L 448.004,0 C 465.672,0 480,14.328 480,32 l 0,296.008 c 0,17.668 -14.328,31.996 -31.996,31.996" /><path
         id="path8779"
         style="fill:#000000;fill-opacity:1;fill-rule:nonzero;stroke:none"
         d="m 31.996,352.012 c -13.25,0 -23.992,-10.746 -23.992,-24.004 L 8.004,32 C 8.004,18.75 18.746,7.996 31.996,7.996 l 416.008,0 c 13.25,0 24.004,10.754 24.004,24.004 l 0,296.008 c 0,13.258 -10.754,24.004 -24.004,24.004 l -416.008,0 z m 0,-12.008 416.008,0 c 6.629,0 12.004,-5.367 12.004,-11.996 l 0,-296.008 c 0,-6.633 -5.375,-11.996 -12.004,-11.996 l -416.008,0 C 25.379,20.004 20,25.367 20,32 l 0,296.008 c 0,6.629 5.379,11.996 11.996,11.996 z" /></g><g
       id="g8781"><g
         clip-path="url(#clipPath8785)"
         id="g8783"><g
           transform="translate(0,-0.996002)"
           id="g8789"><g
             id="g8791"><g
               clip-path="url(#clipPath8795)"
               id="g8793"><g
                 id="g8799"><path
                   id="path8801"
                   style="fill:#000000;fill-opacity:1;fill-rule:nonzero;stroke:none"
                   d="m 320.828,252.484 0,44.036 8.793,0 0,-4.977 c 2.82,3.504 7.067,5.531 11.555,5.531 3.402,0 6.699,-1.176 9.336,-3.316 l -6.246,-7.715 c -1.602,1.434 -3.684,2.227 -5.836,2.227 -4.871,0 -8.809,-3.942 -8.809,-8.821 l 0,-26.965 -8.793,0 z m -39.582,26.426 18.695,0 c 0,5.164 -4.195,9.36 -9.347,9.36 -5.168,0 -9.348,-4.196 -9.348,-9.36 m 27.488,-7.711 -27.488,0 0,-1.094 c 0,-3.828 2.324,-7.273 5.863,-8.691 1.457,-0.578 3.016,-0.879 4.575,-0.879 3.597,0 7.011,1.563 9.347,4.281 l 6.668,-5.726 c -4.008,-4.68 -9.855,-7.371 -16.015,-7.371 -2.676,0 -5.34,0.508 -7.832,1.515 -6.883,2.75 -11.399,9.442 -11.399,16.871 l 0,8.805 c 0,10.028 8.113,18.164 18.141,18.164 10.011,0 18.14,-8.136 18.14,-18.164 l 0,-7.711 z m -48.39,-18.715 -8.793,0 0,4.977 c -2.821,-3.504 -7.067,-5.531 -11.543,-5.531 -8.199,0 -14.84,6.664 -14.84,14.859 l 0,29.731 8.793,0 0,-26.965 c 0,-4.864 3.937,-8.805 8.797,-8.805 4.855,0 8.793,3.941 8.793,8.805 l 0,26.965 8.793,0 0,-44.036 z m -74.77,26.426 18.692,0 c 0,5.164 -4.176,9.36 -9.348,9.36 -5.152,0 -9.344,-4.196 -9.344,-9.36 m 27.5,-7.711 -27.5,0 0,-1.094 c 0,-3.828 2.336,-7.273 5.875,-8.691 1.461,-0.578 3.004,-0.879 4.574,-0.879 3.582,0 6.997,1.563 9.332,4.281 l 6.684,-5.726 c -4.008,-4.68 -9.855,-7.371 -16.016,-7.371 -2.691,0 -5.339,0.508 -7.843,1.515 -6.883,2.75 -11.403,9.442 -11.403,16.871 l 0,8.805 c 0,10.028 8.129,18.164 18.141,18.164 10.027,0 18.156,-8.136 18.156,-18.164 l 0,-7.711 z m -83.582,-18.715 0,44.036 8.797,0 0,-4.977 c 2.816,3.504 7.066,5.531 11.555,5.531 8.183,0 14.84,-6.664 14.84,-14.859 l 0,-29.731 -8.793,0 0,26.965 c 0,4.879 -3.938,8.821 -8.793,8.821 -4.86,0 -8.809,-3.942 -8.809,-8.821 l 0,-26.965 -8.797,0 z" /><path
                   id="path8803"
                   style="fill:#000000;fill-opacity:1;fill-rule:nonzero;stroke:none"
                   d="m 409.895,188.625 26.394,0 0,-8.805 -26.394,0 0,8.805 z M 361.516,160 l 0,44.039 8.796,0 0,-4.965 c 2.817,3.488 7.067,5.516 11.54,5.516 8.199,0 14.855,-6.649 14.855,-14.86 l 0,-29.73 -8.809,0 0,26.98 c 0,4.864 -3.933,8.805 -8.793,8.805 -4.855,0 -8.793,-3.941 -8.793,-8.805 l 0,-26.98 -8.796,0 z m -48.387,0 0,61.66 8.793,0 0,-22.586 c 2.82,3.488 7.066,5.516 11.555,5.516 8.199,0 14.843,-6.649 14.843,-14.86 l 0,-29.73 -8.797,0 0,26.98 c 0,4.864 -3.933,8.805 -8.793,8.805 -4.855,0 -8.808,-3.941 -8.808,-8.805 l 0,-26.98 -8.793,0 z m -21.992,19.27 -12.649,0 c -3.031,0 -5.492,-2.469 -5.492,-5.504 0,-3.032 2.461,-5.5 5.492,-5.5 l 7.153,0 c 3.047,0 5.496,2.468 5.496,5.5 l 0,5.504 z m 8.808,-19.27 -8.808,0 0,4.551 C 289.594,161.742 286.645,160 283.445,160 l -5.507,0 c -7.278,0 -13.184,5.926 -13.184,13.215 0,7.301 5.906,13.215 13.184,13.215 l 13.199,0 0,4.394 c 0,2.41 -1.731,4.465 -4.094,4.891 -1.559,0.269 -3.117,0.41 -4.703,0.41 -1.57,0 -3.141,-0.141 -4.699,-0.41 -1.543,-0.27 -2.875,-1.277 -3.582,-2.68 l -6.954,5.5 c 2.094,3.094 5.352,5.203 9.02,5.844 2.055,0.367 4.133,0.551 6.215,0.551 2.082,0 4.164,-0.184 6.219,-0.551 6.586,-1.149 11.386,-6.863 11.386,-13.555 l 0,-30.824 z m -71.488,17.07 c 0,-4.863 3.953,-8.804 8.809,-8.804 4.859,0 8.793,3.941 8.793,8.804 l 0,9.91 c 0,4.864 -3.934,8.805 -8.793,8.805 -4.856,0 -8.809,-3.941 -8.809,-8.805 l 0,-9.91 z m -8.793,-17.07 0,61.66 8.793,0 0,-22.586 c 2.82,3.488 7.066,5.516 11.555,5.516 8.199,0 14.843,-6.649 14.843,-14.86 l 0,-15.41 c 0,-8.211 -6.644,-14.875 -14.843,-14.875 -4.489,0 -8.735,2.043 -11.555,5.532 l 0,-4.977 -8.793,0 z m -36.281,0 0,44.039 8.793,0 0,-4.965 c 2.82,3.488 7.066,5.516 11.543,5.516 3.41,0 6.695,-1.16 9.343,-3.317 l -6.242,-7.714 c -1.617,1.433 -3.699,2.226 -5.851,2.226 -4.856,0 -8.793,-3.941 -8.793,-8.805 l 0,-26.98 -8.793,0 z m -48.391,0 0,61.66 8.793,0 0,-22.586 c 2.82,3.488 7.067,5.516 11.543,5.516 8.215,0 14.856,-6.649 14.856,-14.86 l 0,-29.73 -8.793,0 0,26.98 c 0,4.864 -3.938,8.805 -8.809,8.805 -4.859,0 -8.797,-3.941 -8.797,-8.805 l 0,-26.98 -8.793,0 z M 113,179.27 l -12.645,0 c -3.031,0 -5.496,-2.469 -5.496,-5.504 0,-3.032 2.465,-5.5 5.496,-5.5 l 7.149,0 c 3.031,0 5.496,2.468 5.496,5.5 l 0,5.504 z m 8.793,-19.27 -8.793,0 0,4.551 C 111.457,161.742 108.512,160 105.297,160 l -5.496,0 c -7.278,0 -13.184,5.926 -13.184,13.215 0,7.301 5.906,13.215 13.184,13.215 l 13.199,0 0,4.394 c 0,2.41 -1.727,4.465 -4.094,4.891 -1.558,0.269 -3.129,0.41 -4.699,0.41 -1.586,0 -3.145,-0.141 -4.703,-0.41 -1.559,-0.27 -2.875,-1.277 -3.582,-2.68 l -6.953,5.5 c 2.093,3.094 5.351,5.203 9.019,5.844 2.055,0.367 4.137,0.551 6.219,0.551 2.082,0 4.164,-0.184 6.215,-0.551 6.57,-1.149 11.371,-6.863 11.371,-13.555 l 0,-30.824 z m -78.07,0 0,61.66 39.593,0 0,-8.816 -30.246,0 0,-18.164 25.844,0 0,-8.25 -25.844,0 0,-26.43 -9.347,0 z" /><path
                   id="path8805"
                   style="fill:#000000;fill-opacity:1;fill-rule:nonzero;stroke:none"
                   d="m 330.727,84.59 0,9.91 c 0,4.863 -3.938,8.805 -8.793,8.805 -4.856,0 -8.809,-3.942 -8.809,-8.805 l 0,-9.91 c 0,-4.863 3.953,-8.805 8.809,-8.805 4.855,0 8.793,3.942 8.793,8.805 m 8.796,26.969 0,-44.579 c 0,-6.679 -3.769,-12.773 -9.73,-15.765 -2.773,-1.391 -5.848,-2.113 -8.965,-2.113 -6.031,0 -11.754,2.722 -15.562,7.414 l 6.824,5.558 c 2.14,-2.636 5.355,-4.168 8.738,-4.168 1.758,0 3.469,0.41 5.027,1.192 2.989,1.488 4.872,4.535 4.872,7.882 l 0,5.516 c -2.817,-3.488 -7.067,-5.516 -11.539,-5.516 -8.215,0 -14.856,6.649 -14.856,14.86 l 0,15.41 c 0,8.211 6.641,14.859 14.856,14.859 4.472,0 8.722,-2.027 11.539,-5.515 l 0,4.965 8.796,0 z m -56.082,-24.77 -12.644,0 c -3.043,0 -5.496,-2.469 -5.496,-5.504 0,-3.031 2.453,-5.5 5.496,-5.5 l 7.152,0 c 3.031,0 5.492,2.469 5.492,5.5 l 0,5.504 z m 8.797,-19.269 -8.797,0 0,4.55 c -1.554,-2.808 -4.488,-4.55 -7.703,-4.55 l -5.492,0 c -7.293,0 -13.187,5.925 -13.187,13.214 0,7.301 5.894,13.215 13.187,13.215 l 13.195,0 0,4.406 c 0,2.399 -1.726,4.454 -4.089,4.879 -1.559,0.27 -3.129,0.411 -4.704,0.411 -1.57,0 -3.156,-0.141 -4.699,-0.411 -1.558,-0.269 -2.875,-1.261 -3.586,-2.679 l -6.953,5.5 c 2.082,3.093 5.34,5.203 9.024,5.855 2.05,0.356 4.121,0.539 6.214,0.539 2.082,0 4.164,-0.183 6.219,-0.539 6.571,-1.16 11.371,-6.875 11.371,-13.555 l 0,-30.835 z m -41.793,0 -5.492,0 c -5.469,0 -9.898,4.437 -9.898,9.91 l 0,51.75 8.808,0 0,-50.645 c 0,-1.515 1.231,-2.75 2.746,-2.75 l 3.836,0 0,-8.265 z m -54.972,26.429 18.691,0 c 0,5.16 -4.176,9.356 -9.344,9.356 -5.168,0 -9.347,-4.196 -9.347,-9.356 m 27.488,-7.715 -27.488,0 0,-1.089 c 0,-3.829 2.324,-7.274 5.879,-8.692 1.457,-0.582 3,-0.879 4.574,-0.879 3.582,0 6.992,1.571 9.332,4.293 l 6.683,-5.742 c -4.023,-4.68 -9.871,-7.359 -16.015,-7.359 -2.692,0 -5.356,0.511 -7.848,1.504 -6.883,2.765 -11.398,9.445 -11.398,16.875 l 0,8.804 c 0,10.024 8.113,18.16 18.14,18.16 10.024,0 18.141,-8.136 18.141,-18.16 l 0,-7.715 z M 149.293,84.59 c 0,-4.863 3.937,-8.805 8.793,-8.805 4.859,0 8.797,3.942 8.797,8.805 l 0,9.91 c 0,4.863 -3.938,8.805 -8.797,8.805 -4.856,0 -8.793,-3.942 -8.793,-8.805 l 0,-9.91 z m -8.793,-17.07 0,61.66 8.793,0 0,-22.586 c 2.816,3.488 7.051,5.515 11.543,5.515 8.199,0 14.84,-6.648 14.84,-14.859 l 0,-15.41 c 0,-8.211 -6.641,-14.86 -14.84,-14.86 -4.492,0 -8.727,2.028 -11.543,5.516 l 0,-4.976 -8.793,0 z" /></g></g></g></g></g></g></g></svg>