<?xml version="1.0" encoding="UTF-8" standalone="no"?>
<svg
   xmlns:dc="http://purl.org/dc/elements/1.1/"
   xmlns:cc="http://creativecommons.org/ns#"
   xmlns:rdf="http://www.w3.org/1999/02/22-rdf-syntax-ns#"
   xmlns:svg="http://www.w3.org/2000/svg"
   xmlns="http://www.w3.org/2000/svg"
   viewBox="0 0 600 330"
   height="330"
   width="600"
   xml:space="preserve"
   version="1.1"
   id="svg3862"><metadata
     id="metadata3868"><rdf:RDF><cc:Work
         rdf:about=""><dc:format>image/svg+xml</dc:format><dc:type
           rdf:resource="http://purl.org/dc/dcmitype/StillImage" /><dc:title></dc:title></cc:Work></rdf:RDF></metadata><defs
     id="defs3866"><clipPath
       id="clipPath3880"
       clipPathUnits="userSpaceOnUse"><path
         id="path3882"
         d="M 0,0 480,0 480,264 0,264 0,0 Z" /></clipPath></defs><g
     transform="matrix(1.25,0,0,-1.25,0,330)"
     id="g3870"><g
       id="g3872" /><g
       id="g3874"><g
         id="g3876"><g
           id="g3878" /><g
           id="g3884"><g
             id="g3886"
             clip-path="url(#clipPath3880)"><g
               id="g3888"><path
                 id="path3890"
                 style="fill:#ffffff;fill-opacity:1;fill-rule:nonzero;stroke:none"
                 d="m 31.996,263.758 c -17.512,0 -31.754,-14.254 -31.754,-31.766 l 0,-199.996 C 0.242,14.484 14.484,0.242 31.996,0.242 l 416.008,0 c 17.512,0 31.754,14.242 31.754,31.754 l 0,199.996 c 0,17.512 -14.242,31.766 -31.754,31.766" /><path
                 id="path3892"
                 style="fill:#000000;fill-opacity:1;fill-rule:nonzero;stroke:none"
                 d="M 31.996,0.484 C 14.613,0.484 0.484,14.613 0.484,31.996 l 0,199.996 c 0,17.383 14.129,31.524 31.512,31.524 l 416.008,0 c 17.383,0 31.512,-14.141 31.512,-31.524 l 0,-199.996 c 0,-17.383 -14.129,-31.512 -31.512,-31.512 l -416.008,0 z M 448.004,264 31.996,264 C 14.32,264 0,249.672 0,231.992 L 0,31.996 C 0,14.328 14.32,0 31.996,0 L 448.004,0 C 465.672,0 480,14.328 480,31.996 l 0,199.996 C 480,249.672 465.672,264 448.004,264" /></g></g></g></g></g><g
       id="g3894"><path
         id="path3896"
         style="fill:#000000;fill-opacity:1;fill-rule:nonzero;stroke:none"
         d="m 31.996,19.996 416.008,0 c 6.629,0 12,5.371 12,12 l 0,199.996 c 0,6.629 -5.371,12 -12,12 l -416.008,0 c -6.629,0 -12,-5.371 -12,-12 l 0,-199.996 c 0,-6.629 5.371,-12 12,-12 z m 0,-12 c -13.258,0 -24,10.742 -24,24 l 0,199.996 c 0,13.258 10.742,24 24,24 l 416.008,0 c 13.258,0 24,-10.742 24,-24 l 0,-199.996 c 0,-13.258 -10.742,-24 -24,-24" /><path
         id="path3898"
         style="fill:#000000;fill-opacity:1;fill-rule:nonzero;stroke:none"
         d="m 77.289,170.145 0,-31.204 23.566,0 c 5.833,0 10.219,1.637 13.133,4.891 2.914,3.227 4.387,7.059 4.387,11.422 0,5.226 -1.762,9.133 -5.23,11.734 -2.915,2.098 -6.7,3.157 -11.375,3.157 l -24.481,0 z m -15.613,-89.012 0,102.867 40.242,0 c 8.793,0 15.758,-2.266 20.891,-6.797 2.867,-2.48 5.3,-5.613 7.3,-9.371 2,-3.785 3.012,-7.953 3.012,-12.578 0,-6.629 -1.785,-12.508 -5.324,-17.617 -3.567,-5.106 -8.434,-8.723 -14.652,-10.817 L 137,81.133 l -18.48,0 -21.254,43.902 -19.977,0 0,-43.902 -15.613,0 z" /><path
         id="path3900"
         style="fill:#000000;fill-opacity:1;fill-rule:nonzero;stroke:none"
         d="m 187.41,80.844 0,6.508 -0.289,0 c -1.375,-2.555 -3.422,-4.387 -6.144,-5.52 C 178.059,80.625 174.254,80 169.531,80 c -8.074,0.191 -14.195,2.363 -18.34,6.508 -4.527,4.144 -6.769,9.422 -6.769,15.879 0,6.121 1.953,11.254 5.855,15.394 3.903,4.121 9.664,6.242 17.278,6.34 l 19.855,0 0,7.781 c 0.047,6.485 -4.82,9.641 -14.625,9.446 -3.375,0 -6.219,-0.383 -8.461,-1.129 -2.215,-0.989 -3.879,-2.508 -5.011,-4.582 l -11.301,8.894 c 5.468,7.301 13.496,10.844 24.074,10.649 8.891,0.097 16.047,-1.637 21.469,-5.203 5.3,-3.735 8.023,-10.024 8.121,-18.942 l 0,-50.191 -14.266,0 z m 0,25.781 0,5.352 -17.156,0 c -8.387,-0.219 -12.531,-3.18 -12.434,-8.891 0,-2.434 1.082,-4.555 3.254,-6.34 2.071,-1.949 5.469,-2.914 10.239,-2.914 6.023,-0.074 10.265,0.648 12.699,2.191 2.265,1.567 3.398,5.086 3.398,10.602 z" /><path
         id="path3902"
         style="fill:#000000;fill-opacity:1;fill-rule:nonzero;stroke:none"
         d="m 218.035,105.711 0,48.699 14.774,0 0,-43.687 c 0,-4.989 1.371,-8.868 4.121,-11.614 2.746,-2.773 6.238,-4.144 10.48,-4.144 4.098,0 7.52,1.371 10.266,4.144 2.769,2.746 4.144,6.625 4.144,11.614 l 0,43.687 14.746,0 0,-73.277 -14.746,0 0,7.758 -0.289,0 c -4.554,-5.735 -10.867,-8.602 -18.918,-8.602 -5.781,0 -11.324,2.145 -16.625,6.457 -5.3,4.313 -7.953,10.629 -7.953,18.965 z" /><path
         id="path3904"
         style="fill:#000000;fill-opacity:1;fill-rule:nonzero;stroke:none"
         d="m 338.688,102.676 10.89,-9.762 c -3.203,-3.66 -7.012,-6.695 -11.398,-9.059 -4.41,-2.386 -9.399,-3.566 -14.938,-3.566 -8.484,0 -16.144,2.891 -22.988,8.652 -6.844,5.758 -10.266,15.348 -10.266,28.77 0,13.398 3.422,23.012 10.266,28.82 6.844,5.832 14.504,8.723 22.988,8.723 5.539,0 10.528,-1.207 14.938,-3.59 4.386,-2.41 8.195,-5.445 11.398,-9.109 l -10.89,-9.664 c -4.122,5.062 -9.086,7.617 -14.891,7.617 -12.699,0 -19.063,-7.594 -19.063,-22.797 0,-15.156 6.364,-22.746 19.063,-22.746 5.855,0 10.816,2.578 14.891,7.711 z" /><path
         id="path3906"
         style="fill:#000000;fill-opacity:1;fill-rule:nonzero;stroke:none"
         d="m 359.797,81.133 0,102.867 14.769,0 0,-37.422 0.266,0 c 4.578,5.785 10.938,8.676 19.059,8.676 5.711,0 11.207,-2.168 16.484,-6.484 5.301,-4.336 7.949,-10.649 7.949,-18.915 l 0,-48.722 -14.746,0 0,43.637 c 0,4.941 -1.375,8.796 -4.144,11.566 -2.746,2.773 -6.168,4.172 -10.266,4.172 -4.242,0 -7.734,-1.399 -10.48,-4.172 -2.747,-2.77 -4.122,-6.625 -4.122,-11.566 l 0,-43.637 -14.769,0 z" /></g></g></svg>