<?xml version="1.0" encoding="UTF-8" standalone="no"?>
<svg
   xmlns:dc="http://purl.org/dc/elements/1.1/"
   xmlns:cc="http://creativecommons.org/ns#"
   xmlns:rdf="http://www.w3.org/1999/02/22-rdf-syntax-ns#"
   xmlns:svg="http://www.w3.org/2000/svg"
   xmlns="http://www.w3.org/2000/svg"
   viewBox="0 0 600 330"
   height="330"
   width="600"
   xml:space="preserve"
   version="1.1"
   id="svg4843"><metadata
     id="metadata4849"><rdf:RDF><cc:Work
         rdf:about=""><dc:format>image/svg+xml</dc:format><dc:type
           rdf:resource="http://purl.org/dc/dcmitype/StillImage" /><dc:title></dc:title></cc:Work></rdf:RDF></metadata><defs
     id="defs4847"><clipPath
       id="clipPath4861"
       clipPathUnits="userSpaceOnUse"><path
         id="path4863"
         d="M 0,0 480,0 480,264 0,264 0,0 Z" /></clipPath></defs><g
     transform="matrix(1.25,0,0,-1.25,0,330)"
     id="g4851"><g
       id="g4853"><g
         id="g4855"><g
           id="g4857"><g
             clip-path="url(#clipPath4861)"
             id="g4859"><g
               id="g4865"><path
                 id="path4867"
                 style="fill:#ffffff;fill-opacity:1;fill-rule:nonzero;stroke:none"
                 d="m 31.996,263.758 c -17.512,0 -31.754,-14.254 -31.754,-31.766 l 0,-199.996 C 0.242,14.484 14.484,0.242 31.996,0.242 l 416.008,0 c 17.512,0 31.754,14.242 31.754,31.754 l 0,199.996 c 0,17.512 -14.242,31.766 -31.754,31.766" /><path
                 id="path4869"
                 style="fill:#000000;fill-opacity:1;fill-rule:nonzero;stroke:none"
                 d="M 31.996,0.484 C 14.613,0.484 0.484,14.613 0.484,31.996 l 0,199.996 c 0,17.383 14.129,31.524 31.512,31.524 l 416.008,0 c 17.383,0 31.512,-14.141 31.512,-31.524 l 0,-199.996 c 0,-17.383 -14.129,-31.512 -31.512,-31.512 l -416.008,0 z M 448.004,264 31.996,264 C 14.32,264 0,249.672 0,231.992 L 0,31.996 C 0,14.328 14.32,0 31.996,0 L 448.004,0 C 465.672,0 480,14.328 480,31.996 l 0,199.996 C 480,249.672 465.672,264 448.004,264" /></g></g></g></g><path
         id="path4871"
         style="fill:#000000;fill-opacity:1;fill-rule:nonzero;stroke:none"
         d="m 31.996,19.996 416.008,0 c 6.629,0 12,5.371 12,12 l 0,199.996 c 0,6.629 -5.371,12 -12,12 l -416.008,0 c -6.629,0 -12,-5.371 -12,-12 l 0,-199.996 c 0,-6.629 5.371,-12 12,-12 z m 0,-12 c -13.258,0 -24,10.742 -24,24 l 0,199.996 c 0,13.258 10.742,24 24,24 l 416.008,0 c 13.258,0 24,-10.742 24,-24 l 0,-199.996 c 0,-13.258 -10.742,-24 -24,-24" /><path
         id="path4873"
         style="fill:#1a1a1a;fill-opacity:1;fill-rule:nonzero;stroke:none"
         d="m 184.016,150.812 0,59.497 -9.028,0 0,-25.403 -24.148,0 0,25.403 -9.028,0 0,-59.497 9.028,0 0,25.989 24.148,0 0,-25.989 9.028,0 z" /><path
         id="path4875"
         style="fill:#1a1a1a;fill-opacity:1;fill-rule:nonzero;stroke:none"
         d="m 228.73,172.035 c 0,7.106 -1.003,12.453 -5.011,16.633 -2.758,2.84 -6.938,5.012 -12.703,5.012 -5.766,0 -9.86,-2.172 -12.618,-5.012 -4.011,-4.18 -5.015,-9.527 -5.015,-16.633 0,-7.183 1.004,-12.531 5.015,-16.711 2.758,-2.84 6.852,-5.015 12.618,-5.015 5.765,0 9.945,2.175 12.703,5.015 4.008,4.18 5.011,9.528 5.011,16.711 z m -8.523,0 c 0,-4.594 -0.332,-9.023 -2.926,-11.613 -1.586,-1.59 -3.758,-2.508 -6.265,-2.508 -2.508,0 -4.598,0.918 -6.184,2.508 -2.59,2.59 -2.926,7.019 -2.926,11.613 0,4.598 0.336,9.027 2.926,11.617 1.586,1.59 3.676,2.422 6.184,2.422 2.507,0 4.679,-0.832 6.265,-2.422 2.594,-2.59 2.926,-7.019 2.926,-11.617 z" /><path
         id="path4877"
         style="fill:#1a1a1a;fill-opacity:1;fill-rule:nonzero;stroke:none"
         d="m 267.578,156.328 -5.851,5.598 c -2.672,-2.926 -4.762,-4.012 -8.106,-4.012 -3.258,0 -6.016,1.336 -7.855,3.762 -1.836,2.34 -2.504,5.429 -2.504,10.359 0,4.934 0.668,7.942 2.504,10.281 1.839,2.422 4.597,3.758 7.855,3.758 3.344,0 5.434,-1.086 8.106,-4.008 l 5.851,5.68 c -4.012,4.262 -8.105,5.934 -13.957,5.934 -9.523,0 -18.883,-5.766 -18.883,-21.645 0,-15.875 9.36,-21.726 18.883,-21.726 5.852,0 9.945,1.757 13.957,6.019 z" /><path
         id="path4879"
         style="fill:#1a1a1a;fill-opacity:1;fill-rule:nonzero;stroke:none"
         d="m 308.363,150.812 0,27.325 c 0,9.191 -5.261,15.543 -14.707,15.543 -4.176,0 -8.023,-1.586 -10.945,-4.762 l 0,21.391 -8.523,0 0,-59.497 8.523,0 0,25.989 c 0,6.351 3.844,9.273 8.605,9.273 4.766,0 8.524,-2.84 8.524,-9.273 l 0,-25.989 8.523,0 z" /><path
         id="path4881"
         style="fill:#1a1a1a;fill-opacity:1;fill-rule:nonzero;stroke:none"
         d="m 320.184,177.969 24.402,0 0,-7.938 -24.402,0 0,7.938 z" /><path
         id="path4883"
         style="fill:#1a1a1a;fill-opacity:1;fill-rule:nonzero;stroke:none"
         d="m 171.156,96.559 -9.105,0 -8.192,-29.832 -9.777,29.832 -6.602,0 -9.859,-29.832 -8.191,29.832 -9.024,0 13.121,-42.368 7.352,0 9.863,29.582 9.942,-29.582 7.269,0 13.203,42.368 z" /><path
         id="path4885"
         style="fill:#1a1a1a;fill-opacity:1;fill-rule:nonzero;stroke:none"
         d="m 208.098,54.191 0,28.329 c 0,9.609 -5.852,14.539 -17.465,14.539 -7.02,0 -11.199,-1.418 -15.211,-6.098 l 5.601,-5.266 c 2.34,3.008 4.594,4.094 9.274,4.094 6.601,0 9.277,-2.59 9.277,-7.937 l 0,-3.008 -11.199,0 c -9.691,0 -14.621,-5.098 -14.621,-12.199 0,-3.594 1.168,-6.856 3.34,-9.11 2.59,-2.59 6.101,-3.844 11.367,-3.844 5.262,0 8.187,1.254 11.281,4.344 l 0,-3.844 8.356,0 z m -8.524,15.293 c 0,-3.007 -0.586,-5.015 -1.84,-6.269 -2.254,-2.172 -4.679,-2.422 -7.937,-2.422 -5.348,0 -7.774,2.172 -7.774,6.016 0,3.843 2.594,6.101 7.606,6.101 l 9.945,0 0,-3.426 z" /><path
         id="path4887"
         style="fill:#1a1a1a;fill-opacity:1;fill-rule:nonzero;stroke:none"
         d="m 250.895,67.145 c 0,7.519 -4.68,11.281 -12.618,11.949 l -6.683,0.586 c -4.516,0.418 -5.852,2.34 -5.852,4.847 0,3.172 2.59,5.43 7.688,5.43 4.011,0 7.773,-0.836 10.445,-3.09 l 5.348,5.43 c -3.926,3.426 -9.36,4.762 -15.707,4.762 -8.86,0 -15.961,-4.68 -15.961,-12.95 0,-7.437 4.593,-11.031 12.531,-11.699 l 6.769,-0.586 c 4.098,-0.336 5.684,-2.172 5.684,-5.015 0,-4.012 -4.094,-5.848 -9.277,-5.848 -4.176,0 -8.774,0.918 -12.2,4.43 l -5.597,-5.602 c 5.012,-4.93 10.863,-6.098 17.797,-6.098 10.113,0 17.633,4.594 17.633,13.454 z" /><path
         id="path4889"
         style="fill:#1a1a1a;fill-opacity:1;fill-rule:nonzero;stroke:none"
         d="m 290.914,67.145 c 0,7.519 -4.68,11.281 -12.617,11.949 l -6.684,0.586 c -4.515,0.418 -5.851,2.34 -5.851,4.847 0,3.172 2.59,5.43 7.687,5.43 4.012,0 7.774,-0.836 10.446,-3.09 l 5.347,5.43 c -3.926,3.426 -9.359,4.762 -15.707,4.762 -8.859,0 -15.961,-4.68 -15.961,-12.95 0,-7.437 4.594,-11.031 12.531,-11.699 l 6.77,-0.586 c 4.098,-0.336 5.684,-2.172 5.684,-5.015 0,-4.012 -4.094,-5.848 -9.278,-5.848 -4.176,0 -8.773,0.918 -12.199,4.43 l -5.598,-5.602 c 5.012,-4.93 10.864,-6.098 17.797,-6.098 10.114,0 17.633,4.594 17.633,13.454 z" /><path
         id="path4891"
         style="fill:#1a1a1a;fill-opacity:1;fill-rule:nonzero;stroke:none"
         d="m 333.359,72.91 0,3.762 c 0,12.031 -6.601,20.387 -17.968,20.387 -10.864,0 -17.965,-7.938 -17.965,-21.641 0,-16.129 8.437,-21.727 19.051,-21.727 7.437,0 11.535,2.254 15.878,6.602 l -5.433,5.098 c -3.008,-3.012 -5.516,-4.348 -10.277,-4.348 -6.934,0 -10.782,4.598 -10.782,11.867 l 27.496,0 z m -8.441,5.934 -19.055,0 c 0.086,2.59 0.254,3.844 1.09,5.765 1.336,3.176 4.426,5.348 8.438,5.348 4.011,0 7.019,-2.172 8.355,-5.348 0.836,-1.921 1.09,-3.175 1.172,-5.765 z" /><path
         id="path4893"
         style="fill:#1a1a1a;fill-opacity:1;fill-rule:nonzero;stroke:none"
         d="m 369.594,93.051 c -2.926,2.922 -6.016,4.008 -10.11,4.008 -4.765,0 -9.109,-2.086 -11.285,-5.094 l 0,4.594 -8.355,0 0,-42.368 8.523,0 0,25.739 c 0,5.847 3.844,9.527 8.442,9.527 2.925,0 4.429,-0.922 6.351,-2.844 l 6.434,6.438 z" /></g></g></svg>