<?xml version="1.0" encoding="UTF-8" standalone="no"?>
<svg
   xmlns:dc="http://purl.org/dc/elements/1.1/"
   xmlns:cc="http://creativecommons.org/ns#"
   xmlns:rdf="http://www.w3.org/1999/02/22-rdf-syntax-ns#"
   xmlns:svg="http://www.w3.org/2000/svg"
   xmlns="http://www.w3.org/2000/svg"
   viewBox="0 0 600 330"
   height="330"
   width="600"
   xml:space="preserve"
   version="1.1"
   id="svg4200"><metadata
     id="metadata4206"><rdf:RDF><cc:Work
         rdf:about=""><dc:format>image/svg+xml</dc:format><dc:type
           rdf:resource="http://purl.org/dc/dcmitype/StillImage" /><dc:title></dc:title></cc:Work></rdf:RDF></metadata><defs
     id="defs4204" /><g
     transform="matrix(1.25,0,0,-1.25,0,330)"
     id="g4208"><g
       id="g4210"><path
         id="path4212"
         style="fill:#ffffff;fill-opacity:1;fill-rule:nonzero;stroke:none"
         d="m 31.996,263.758 c -17.512,0 -31.754,-14.254 -31.754,-31.766 l 0,-199.996 C 0.242,14.484 14.484,0.242 31.996,0.242 l 416.008,0 c 17.512,0 31.754,14.242 31.754,31.754 l 0,199.996 c 0,17.512 -14.242,31.766 -31.754,31.766" /><path
         id="path4214"
         style="fill:#000000;fill-opacity:1;fill-rule:nonzero;stroke:none"
         d="M 31.996,0.484 C 14.613,0.484 0.484,14.613 0.484,31.996 l 0,199.996 c 0,17.383 14.129,31.524 31.512,31.524 l 416.008,0 c 17.383,0 31.512,-14.141 31.512,-31.524 l 0,-199.996 c 0,-17.383 -14.129,-31.512 -31.512,-31.512 l -416.008,0 z M 448.004,264 31.996,264 C 14.32,264 0,249.672 0,231.992 L 0,31.996 C 0,14.328 14.32,0 31.996,0 L 448.004,0 C 465.672,0 480,14.328 480,31.996 l 0,199.996 C 480,249.672 465.672,264 448.004,264" /><path
         id="path4216"
         style="fill:#000000;fill-opacity:1;fill-rule:nonzero;stroke:none"
         d="m 31.996,19.996 416.008,0 c 6.629,0 12,5.371 12,12 l 0,199.996 c 0,6.629 -5.371,12 -12,12 l -416.008,0 c -6.629,0 -12,-5.371 -12,-12 l 0,-199.996 c 0,-6.629 5.371,-12 12,-12 z m 0,-12 c -13.258,0 -24,10.742 -24,24 l 0,199.996 c 0,13.258 10.742,24 24,24 l 416.008,0 c 13.258,0 24,-10.742 24,-24 l 0,-199.996 c 0,-13.258 -10.742,-24 -24,-24" /><path
         id="path4218"
         style="fill:#000000;fill-opacity:1;fill-rule:nonzero;stroke:none"
         d="m 114.5,196.965 0,-3.871 -7.902,0 0,1.781 c 0,1.805 -0.438,3.355 -1.317,4.645 -0.828,1.343 -2.246,2.015 -4.261,2.015 -2.168,0 -3.614,-0.75 -4.336,-2.246 -0.672,-1.445 -1.008,-3.074 -1.008,-4.879 0,-2.015 0.207,-3.512 0.621,-4.492 0.414,-0.98 1.496,-1.859 3.254,-2.637 0.101,-0.051 0.207,-0.101 0.308,-0.152 0.102,0 0.207,-0.027 0.309,-0.078 l 6.043,-2.403 c 3.512,-1.289 5.758,-3.121 6.738,-5.496 1.031,-2.379 1.551,-5.578 1.551,-9.605 0,-4.649 -1.008,-8.496 -3.023,-11.543 -1.961,-3.047 -5.5,-4.57 -10.61,-4.57 -3.82,0 -7.023,1.242 -9.605,3.718 -2.582,2.481 -3.871,5.578 -3.871,9.297 l 0,2.942 7.898,0 0,-2.477 c 0,-1.449 0.414,-2.766 1.238,-3.953 0.879,-1.133 2.325,-1.703 4.34,-1.703 2.684,0 4.313,0.722 4.879,2.168 0.566,1.5 0.852,3.512 0.852,6.043 0,2.633 -0.207,4.441 -0.621,5.422 -0.411,0.98 -1.34,1.808 -2.786,2.476 -0.156,0.055 -0.336,0.106 -0.543,0.156 l -0.621,0.309 -5.652,2.324 c -3.41,1.395 -5.707,3.227 -6.895,5.5 -1.136,2.324 -1.703,5.215 -1.703,8.676 0,4.184 1.11,7.746 3.328,10.688 2.274,2.945 5.68,4.414 10.227,4.414 3.82,0 6.918,-1.239 9.293,-3.715 2.375,-2.43 3.668,-5.141 3.875,-8.133 l 0,-0.621 z" /><path
         id="path4220"
         style="fill:#000000;fill-opacity:1;fill-rule:nonzero;stroke:none"
         d="m 123.141,153.824 0,55.145 7.898,0 0,-32.992 0.156,0 9.528,17.117 7.898,0 -9.371,-15.957 11.309,-23.313 -8.598,0 -7.125,16.961 -3.797,-5.965 0,-10.996 -7.898,0 z" /><path
         id="path4222"
         style="fill:#000000;fill-opacity:1;fill-rule:nonzero;stroke:none"
         d="m 154.844,153.824 0,39.27 7.902,0 0,-39.27 -7.902,0 z m 0,47.246 0,7.899 7.902,0 0,-7.899 -7.902,0 z" /><path
         id="path4224"
         style="fill:#000000;fill-opacity:1;fill-rule:nonzero;stroke:none"
         d="m 212.199,193.094 -9.293,-39.27 -6.972,0 -4.336,23.313 -0.157,0 -4.336,-23.313 -6.972,0 -9.293,39.27 8.367,0 4.801,-24.399 0.156,0 4.414,24.399 6.195,0 4.184,-24.399 0.152,0 4.727,24.399 8.363,0 z" /><path
         id="path4226"
         style="fill:#000000;fill-opacity:1;fill-rule:nonzero;stroke:none"
         d="m 233.238,153.824 0,4.028 -0.156,0 -0.93,-1.243 c -0.879,-1.031 -1.808,-1.832 -2.789,-2.398 -0.98,-0.516 -2.269,-0.777 -3.871,-0.777 -0.363,0 -0.75,0.027 -1.164,0.078 -0.359,0.05 -0.746,0.105 -1.16,0.156 -1.551,0.359 -2.969,1.266 -4.262,2.711 -1.289,1.496 -1.933,3.976 -1.933,7.433 0,4.497 0.824,7.825 2.476,9.993 1.703,2.222 5.035,3.332 9.992,3.332 0.364,0 0.723,-0.028 1.086,-0.078 0.411,0 0.825,-0.024 1.239,-0.079 0.207,0 0.437,-0.023 0.695,-0.078 l 0.777,0 0,4.106 c 0,1.344 -0.285,2.453 -0.851,3.332 -0.571,0.879 -1.602,1.316 -3.102,1.316 -0.98,0 -1.91,-0.336 -2.785,-1.008 -0.879,-0.671 -1.449,-1.652 -1.707,-2.941 l -7.668,0 c 0.105,1.754 0.465,3.355 1.086,4.801 0.621,1.445 1.445,2.687 2.477,3.719 1.035,1.031 2.273,1.832 3.718,2.402 1.5,0.617 3.125,0.93 4.879,0.93 3.305,0 6.094,-1.036 8.367,-3.102 2.325,-2.062 3.485,-5.16 3.485,-9.293 l 0,-27.34 -7.899,0 z m 0,11.539 0,5.344 c -0.312,0.051 -0.593,0.105 -0.851,0.156 -0.262,0.051 -0.52,0.078 -0.778,0.078 l -0.543,0 c -1.703,0 -3.175,-0.414 -4.414,-1.242 -1.187,-0.773 -1.781,-2.219 -1.781,-4.336 0,-1.496 0.363,-2.711 1.086,-3.64 0.723,-0.93 1.731,-1.395 3.02,-1.395 1.343,0 2.375,0.442 3.097,1.317 0.774,0.878 1.164,2.117 1.164,3.718 z" /><path
         id="path4228"
         style="fill:#000000;fill-opacity:1;fill-rule:nonzero;stroke:none"
         d="m 249.969,153.824 0,39.27 7.902,0 0,-3.797 0.152,0 c 0.829,1.238 1.809,2.246 2.946,3.019 1.187,0.829 2.683,1.243 4.492,1.243 l 0.617,0 c 1.86,-0.157 3.567,-0.957 5.113,-2.403 1.602,-1.445 2.403,-3.847 2.403,-7.203 l 0,-30.129 -7.903,0 0,27.184 c 0,1.449 -0.336,2.582 -1.003,3.41 -0.672,0.824 -1.629,1.238 -2.868,1.238 -1.445,0 -2.48,-0.465 -3.097,-1.394 -0.571,-0.93 -0.852,-2.27 -0.852,-4.028 l 0,-26.41 -7.902,0 z" /><path
         id="path4230"
         style="fill:#000000;fill-opacity:1;fill-rule:nonzero;stroke:none"
         d="m 298.148,153.824 0,3.563 c -0.156,-0.207 -0.308,-0.387 -0.464,-0.543 -0.157,-0.156 -0.309,-0.336 -0.465,-0.543 -0.824,-0.824 -1.731,-1.524 -2.711,-2.09 -0.93,-0.516 -2.219,-0.777 -3.871,-0.777 -1.602,0 -2.969,0.285 -4.106,0.855 -1.136,0.566 -2.066,1.496 -2.789,2.785 -0.465,0.879 -0.801,1.965 -1.008,3.254 -0.207,1.293 -0.308,3.02 -0.308,5.192 l 0,14.949 c 0,2.84 0.078,4.929 0.23,6.273 0.156,1.34 0.492,2.426 1.008,3.25 0.672,1.035 1.524,1.887 2.555,2.559 1.086,0.672 2.582,1.008 4.492,1.008 1.551,0 2.945,-0.364 4.184,-1.086 1.238,-0.672 2.273,-1.653 3.097,-2.942 l 0.156,0 0,19.438 7.899,0 0,-55.145 -7.899,0 z m -7.824,27.184 0,-14.406 c 0,-1.598 0.313,-2.891 0.93,-3.872 0.621,-0.98 1.601,-1.472 2.945,-1.472 1.188,0 2.141,0.437 2.863,1.316 0.723,0.93 1.086,2.117 1.086,3.563 l 0,15.261 c 0,1.239 -0.386,2.247 -1.16,3.02 -0.726,0.824 -1.652,1.238 -2.789,1.238 -1.5,0 -2.531,-0.465 -3.097,-1.394 -0.52,-0.93 -0.778,-2.012 -0.778,-3.254 z" /><path
         id="path4232"
         style="fill:#000000;fill-opacity:1;fill-rule:nonzero;stroke:none"
         d="m 338.426,170.477 -15.645,0 0,-5.344 c 0,-1.242 0.336,-2.195 1.008,-2.867 0.723,-0.672 1.676,-1.008 2.863,-1.008 1.243,0 2.118,0.308 2.637,0.93 0.516,0.621 0.875,1.292 1.082,2.015 0.051,0.152 0.078,0.309 0.078,0.465 0.051,0.203 0.078,0.387 0.078,0.539 l 7.899,0 c 0,-1.598 -0.281,-3.148 -0.852,-4.645 -0.515,-1.445 -1.289,-2.687 -2.324,-3.718 -1.031,-1.086 -2.27,-1.938 -3.715,-2.555 -1.449,-0.57 -3.074,-0.855 -4.883,-0.855 -2.375,0 -4.464,0.492 -6.273,1.472 -1.754,1.035 -3.098,2.403 -4.027,4.106 -0.516,1.031 -0.903,2.222 -1.161,3.562 -0.207,1.344 -0.312,2.817 -0.312,4.414 l 0,12.938 c 0,1.601 0.105,3.07 0.312,4.414 0.258,1.394 0.645,2.582 1.161,3.562 0.929,1.703 2.273,3.075 4.027,4.106 1.809,1.031 3.898,1.551 6.273,1.551 3.668,0 6.536,-1.188 8.598,-3.567 2.117,-2.32 3.176,-5.215 3.176,-8.672 l 0,-10.843 z m -15.645,10.687 0,-4.492 7.746,0 0,4.492 c 0,1.496 -0.363,2.609 -1.086,3.332 -0.671,0.774 -1.601,1.16 -2.789,1.16 -1.187,0 -2.14,-0.386 -2.863,-1.16 -0.672,-0.723 -1.008,-1.836 -1.008,-3.332 z" /><path
         id="path4234"
         style="fill:#000000;fill-opacity:1;fill-rule:nonzero;stroke:none"
         d="m 347.258,153.824 0,39.27 7.902,0 0,-4.184 c 0.414,0.36 0.801,0.695 1.16,1.008 0.364,0.309 0.75,0.594 1.164,0.852 1.133,0.878 2.325,1.546 3.563,2.011 1.289,0.52 2.812,0.778 4.57,0.778 l 0,-8.368 c -0.363,0.157 -0.75,0.258 -1.164,0.309 -0.414,0.105 -0.824,0.156 -1.238,0.156 -0.363,0 -0.75,-0.027 -1.16,-0.078 -0.414,-0.051 -0.828,-0.152 -1.243,-0.308 -1.445,-0.415 -2.761,-1.266 -3.949,-2.555 -1.136,-1.242 -1.703,-3.102 -1.703,-5.578 l 0,-23.313 -7.902,0 z" /><path
         id="path4236"
         style="fill:#000000;fill-opacity:1;fill-rule:nonzero;stroke:none"
         d="m 369.297,180.027 23.312,0 0,-7.898 -23.312,0 0,7.898 z" /><path
         id="path4238"
         style="fill:#000000;fill-opacity:1;fill-rule:nonzero;stroke:none"
         d="m 135.164,95.746 -9.371,-39.598 -7.031,0 -4.371,23.508 -0.157,0 -4.375,-23.508 -7.027,0 -9.375,39.598 8.438,0 4.839,-24.601 0.157,0 4.453,24.601 6.25,0 4.215,-24.601 0.156,0 4.765,24.601 8.434,0 z" /><path
         id="path4240"
         style="fill:#000000;fill-opacity:1;fill-rule:nonzero;stroke:none"
         d="m 162.715,72.941 -15.774,0 0,-5.39 c 0,-1.25 0.336,-2.211 1.016,-2.891 0.727,-0.676 1.691,-1.015 2.887,-1.015 1.25,0 2.136,0.312 2.656,0.937 0.52,0.625 0.887,1.305 1.094,2.031 0.051,0.157 0.078,0.313 0.078,0.469 0.051,0.207 0.078,0.391 0.078,0.547 l 7.965,0 c 0,-1.613 -0.285,-3.176 -0.856,-4.688 -0.523,-1.457 -1.304,-2.707 -2.343,-3.746 -1.043,-1.093 -2.293,-1.953 -3.75,-2.578 -1.457,-0.574 -3.098,-0.859 -4.922,-0.859 -2.395,0 -4.504,0.496 -6.324,1.484 -1.77,1.039 -3.125,2.422 -4.063,4.141 -0.519,1.039 -0.91,2.238 -1.172,3.59 -0.207,1.355 -0.312,2.839 -0.312,4.453 l 0,13.043 c 0,1.613 0.105,3.097 0.312,4.453 0.262,1.406 0.653,2.601 1.172,3.59 0.938,1.718 2.293,3.101 4.063,4.14 1.82,1.043 3.929,1.563 6.324,1.563 3.699,0 6.59,-1.199 8.672,-3.594 2.132,-2.344 3.199,-5.258 3.199,-8.746 l 0,-10.934 z m -15.774,10.778 0,-4.531 7.809,0 0,4.531 c 0,1.511 -0.363,2.629 -1.094,3.359 -0.676,0.781 -1.613,1.172 -2.812,1.172 -1.196,0 -2.16,-0.391 -2.887,-1.172 -0.68,-0.73 -1.016,-1.848 -1.016,-3.359 z" /><path
         id="path4242"
         style="fill:#000000;fill-opacity:1;fill-rule:nonzero;stroke:none"
         d="m 171.938,51.539 7.964,0 0,-0.312 c 0.157,-0.883 0.575,-1.692 1.25,-2.422 0.731,-0.727 1.719,-1.09 2.969,-1.09 1.301,0 2.238,0.414 2.813,1.246 0.57,0.781 0.859,1.797 0.859,3.047 l 0,7.734 -0.156,0 c -0.836,-1.304 -1.875,-2.293 -3.125,-2.969 -1.25,-0.675 -2.684,-1.015 -4.297,-1.015 -1.613,0 -2.992,0.285 -4.141,0.859 -1.144,0.574 -2.082,1.508 -2.808,2.813 -0.469,0.882 -0.809,1.976 -1.016,3.277 -0.211,1.305 -0.312,3.047 -0.312,5.234 l 0,15.075 c 0,2.863 0.078,4.972 0.234,6.328 0.156,1.351 0.492,2.445 1.016,3.277 0.675,1.043 1.535,1.902 2.574,2.578 1.093,0.676 2.605,1.016 4.531,1.016 1.613,0 2.891,-0.285 3.828,-0.86 0.988,-0.519 1.875,-1.222 2.656,-2.109 0.157,-0.156 0.313,-0.336 0.469,-0.547 0.207,-0.156 0.391,-0.336 0.547,-0.547 l 0,3.594 7.965,0 0,-44.441 c 0,-0.258 -0.028,-0.547 -0.078,-0.86 0,-0.363 -0.028,-0.703 -0.078,-1.015 -0.364,-2.446 -1.512,-4.66 -3.438,-6.637 -1.875,-2.031 -4.66,-3.047 -8.355,-3.047 -0.469,0 -0.938,0.027 -1.407,0.078 -0.468,0.051 -0.937,0.129 -1.406,0.235 -2.082,0.468 -4.008,1.613 -5.781,3.437 -1.77,1.77 -2.863,4.477 -3.277,8.121 l 0,-0.078 z m 7.964,31.32 0,-14.527 c 0,-1.25 0.262,-2.344 0.782,-3.281 0.574,-0.938 1.613,-1.406 3.125,-1.406 1.144,0 2.082,0.39 2.812,1.171 0.781,0.836 1.172,1.875 1.172,3.125 l 0,15.387 c 0,1.457 -0.367,2.629 -1.094,3.516 -0.73,0.937 -1.695,1.406 -2.89,1.406 -1.356,0 -2.344,-0.496 -2.969,-1.484 -0.625,-0.993 -0.938,-2.293 -0.938,-3.907 z" /><path
         id="path4244"
         style="fill:#000000;fill-opacity:1;fill-rule:nonzero;stroke:none"
         d="m 221.586,56.148 0,55.61 7.965,0 0,-33.274 0.156,0 9.605,17.262 7.969,0 -9.453,-16.09 11.406,-23.508 -8.672,0 -7.183,17.106 -3.828,-6.016 0,-11.09 -7.965,0 z" /><path
         id="path4246"
         style="fill:#000000;fill-opacity:1;fill-rule:nonzero;stroke:none"
         d="m 255.141,56.148 0,39.598 7.968,0 0,-4.219 c 0.414,0.368 0.805,0.703 1.168,1.016 0.368,0.312 0.758,0.602 1.172,0.859 1.149,0.887 2.344,1.563 3.594,2.032 1.301,0.519 2.84,0.781 4.609,0.781 l 0,-8.434 c -0.367,0.157 -0.754,0.258 -1.172,0.313 -0.418,0.101 -0.832,0.156 -1.25,0.156 -0.363,0 -0.753,-0.027 -1.171,-0.078 -0.418,-0.055 -0.832,-0.156 -1.25,-0.313 -1.457,-0.418 -2.786,-1.277 -3.985,-2.578 -1.144,-1.25 -1.715,-3.125 -1.715,-5.625 l 0,-23.508 -7.968,0 z" /><path
         id="path4248"
         style="fill:#000000;fill-opacity:1;fill-rule:nonzero;stroke:none"
         d="m 304.645,72.941 -15.778,0 0,-5.39 c 0,-1.25 0.336,-2.211 1.016,-2.891 0.726,-0.676 1.691,-1.015 2.887,-1.015 1.25,0 2.136,0.312 2.656,0.937 0.523,0.625 0.886,1.305 1.094,2.031 0.05,0.157 0.078,0.313 0.078,0.469 0.05,0.207 0.078,0.391 0.078,0.547 l 7.969,0 c 0,-1.613 -0.29,-3.176 -0.86,-4.688 -0.523,-1.457 -1.305,-2.707 -2.344,-3.746 -1.043,-1.093 -2.293,-1.953 -3.75,-2.578 -1.457,-0.574 -3.097,-0.859 -4.921,-0.859 -2.395,0 -4.504,0.496 -6.325,1.484 -1.769,1.039 -3.125,2.422 -4.062,4.141 -0.52,1.039 -0.91,2.238 -1.172,3.59 -0.207,1.355 -0.313,2.839 -0.313,4.453 l 0,13.043 c 0,1.613 0.106,3.097 0.313,4.453 0.262,1.406 0.652,2.601 1.172,3.59 0.937,1.718 2.293,3.101 4.062,4.14 1.821,1.043 3.93,1.563 6.325,1.563 3.699,0 6.589,-1.199 8.671,-3.594 2.133,-2.344 3.204,-5.258 3.204,-8.746 l 0,-10.934 z m -15.778,10.778 0,-4.531 7.809,0 0,4.531 c 0,1.511 -0.364,2.629 -1.094,3.359 -0.676,0.781 -1.613,1.172 -2.812,1.172 -1.196,0 -2.161,-0.391 -2.887,-1.172 -0.68,-0.73 -1.016,-1.848 -1.016,-3.359 z" /><path
         id="path4250"
         style="fill:#000000;fill-opacity:1;fill-rule:nonzero;stroke:none"
         d="m 336.008,95.746 0,-39.598 -7.965,0 0,3.829 -0.156,0 c -0.836,-1.25 -1.852,-2.266 -3.047,-3.047 -1.149,-0.782 -2.629,-1.172 -4.453,-1.172 l -0.625,0 c -1.875,0.156 -3.617,0.937 -5.235,2.344 -1.558,1.457 -2.339,3.878 -2.339,7.261 l 0,30.383 7.964,0 0,-27.414 c 0,-1.457 0.34,-2.602 1.016,-3.437 0.676,-0.833 1.641,-1.25 2.891,-1.25 1.507,0 2.55,0.468 3.125,1.406 0.57,0.937 0.859,2.293 0.859,4.062 l 0,26.633 7.965,0 z" /><path
         id="path4252"
         style="fill:#000000;fill-opacity:1;fill-rule:nonzero;stroke:none"
         d="m 343.789,56.148 0,6.325 12.887,26.246 -11.871,0 0,7.027 20.933,0 0,-6.324 -12.886,-25.777 12.886,0 0,-7.497 -21.949,0 z" /><path
         id="path4254"
         style="fill:#000000;fill-opacity:1;fill-rule:nonzero;stroke:none"
         d="m 373.656,95.746 0,12.027 7.965,0 0,-12.027 4.922,0 0,-6.246 -4.922,0 0,-21.949 c 0,-1.821 0.363,-2.942 1.094,-3.36 0.781,-0.363 2.058,-0.546 3.828,-0.546 l 0,-7.497 -3.281,0 c -3.071,0 -5.336,0.754 -6.797,2.266 -1.457,1.563 -2.34,3.281 -2.653,5.152 -0.054,0.313 -0.105,0.625 -0.156,0.938 l 0,24.996 -3.984,0 0,6.246 3.984,0 z" /></g></g></svg>