<?xml version="1.0" encoding="UTF-8" standalone="no"?>
<svg
   xmlns:dc="http://purl.org/dc/elements/1.1/"
   xmlns:cc="http://creativecommons.org/ns#"
   xmlns:rdf="http://www.w3.org/1999/02/22-rdf-syntax-ns#"
   xmlns:svg="http://www.w3.org/2000/svg"
   xmlns="http://www.w3.org/2000/svg"
   viewBox="0 0 600 330"
   height="330"
   width="600"
   xml:space="preserve"
   version="1.1"
   id="svg3674"><metadata
     id="metadata3680"><rdf:RDF><cc:Work
         rdf:about=""><dc:format>image/svg+xml</dc:format><dc:type
           rdf:resource="http://purl.org/dc/dcmitype/StillImage" /><dc:title></dc:title></cc:Work></rdf:RDF></metadata><defs
     id="defs3678"><clipPath
       id="clipPath3692"
       clipPathUnits="userSpaceOnUse"><path
         id="path3694"
         d="M 0,0 480,0 480,264 0,264 0,0 Z" /></clipPath></defs><g
     transform="matrix(1.25,0,0,-1.25,0,330)"
     id="g3682"><g
       id="g3684"><g
         id="g3686"><g
           id="g3688"><g
             clip-path="url(#clipPath3692)"
             id="g3690"><g
               id="g3696"><path
                 id="path3698"
                 style="fill:#ffffff;fill-opacity:1;fill-rule:nonzero;stroke:none"
                 d="m 31.996,263.758 c -17.512,0 -31.754,-14.254 -31.754,-31.766 l 0,-199.996 C 0.242,14.484 14.484,0.242 31.996,0.242 l 416.008,0 c 17.512,0 31.754,14.242 31.754,31.754 l 0,199.996 c 0,17.512 -14.242,31.766 -31.754,31.766" /><path
                 id="path3700"
                 style="fill:#000000;fill-opacity:1;fill-rule:nonzero;stroke:none"
                 d="M 31.996,0.484 C 14.613,0.484 0.484,14.613 0.484,31.996 l 0,199.996 c 0,17.383 14.129,31.524 31.512,31.524 l 416.008,0 c 17.383,0 31.512,-14.141 31.512,-31.524 l 0,-199.996 c 0,-17.383 -14.129,-31.512 -31.512,-31.512 l -416.008,0 z M 448.004,264 31.996,264 C 14.32,264 0,249.672 0,231.992 L 0,31.996 C 0,14.328 14.32,0 31.996,0 L 448.004,0 C 465.672,0 480,14.328 480,31.996 l 0,199.996 C 480,249.672 465.672,264 448.004,264" /></g></g></g></g><path
         id="path3702"
         style="fill:#000000;fill-opacity:1;fill-rule:nonzero;stroke:none"
         d="m 31.996,19.996 416.008,0 c 6.629,0 12,5.371 12,12 l 0,199.996 c 0,6.629 -5.371,12 -12,12 l -416.008,0 c -6.629,0 -12,-5.371 -12,-12 l 0,-199.996 c 0,-6.629 5.371,-12 12,-12 z m 0,-12 c -13.258,0 -24,10.742 -24,24 l 0,199.996 c 0,13.258 10.742,24 24,24 l 416.008,0 c 13.258,0 24,-10.742 24,-24 l 0,-199.996 c 0,-13.258 -10.742,-24 -24,-24" /><path
         id="path3704"
         style="fill:#000000;fill-opacity:1;fill-rule:nonzero;stroke:none"
         d="m 168.707,153.824 0,7.535 -26.641,0 0,47.766 -8.386,0 0,-55.301 35.027,0 z" /><path
         id="path3706"
         style="fill:#000000;fill-opacity:1;fill-rule:nonzero;stroke:none"
         d="m 185.5,200.969 0,8.39 -8.387,0 0,-8.39 8.387,0 z m -0.23,-47.145 0,39.379 -7.922,0 0,-39.379 7.922,0 z" /><path
         id="path3708"
         style="fill:#000000;fill-opacity:1;fill-rule:nonzero;stroke:none"
         d="m 228.82,153.824 0,25.164 c 0,4.43 -0.929,8.157 -3.961,11.11 -2.328,2.25 -5.668,3.57 -9.707,3.57 -3.961,0 -7.769,-1.477 -10.488,-4.426 l 0,3.961 -7.766,0 0,-39.379 7.922,0 0,24 c 0,6.059 3.731,8.778 8.157,8.778 4.425,0 7.921,-2.641 7.921,-8.778 l 0,-24 7.922,0 z" /><path
         id="path3710"
         style="fill:#000000;fill-opacity:1;fill-rule:nonzero;stroke:none"
         d="m 274.781,153.824 -15.379,23.922 13.672,15.457 -9.633,0 -15.3,-18.176 0,34.098 -7.922,0 0,-55.301 7.922,0 0,11.574 5.824,6.602 11.031,-18.176 9.785,0 z" /><path
         id="path3712"
         style="fill:#000000;fill-opacity:1;fill-rule:nonzero;stroke:none"
         d="m 313.57,165.863 c 0,6.989 -4.347,10.485 -11.726,11.106 l -6.215,0.543 c -4.191,0.39 -5.438,2.176 -5.438,4.508 0,2.949 2.411,5.046 7.149,5.046 3.726,0 7.222,-0.777 9.707,-2.875 l 4.973,5.051 c -3.653,3.184 -8.7,4.426 -14.602,4.426 -8.234,0 -14.836,-4.348 -14.836,-12.039 0,-6.91 4.273,-10.25 11.648,-10.871 l 6.293,-0.547 c 3.805,-0.309 5.282,-2.02 5.282,-4.66 0,-3.727 -3.805,-5.434 -8.621,-5.434 -3.883,0 -8.157,0.852 -11.34,4.113 l -5.203,-5.203 c 4.66,-4.582 10.097,-5.668 16.543,-5.668 9.398,0 16.386,4.27 16.386,12.504 z" /><path
         id="path3714"
         style="fill:#000000;fill-opacity:1;fill-rule:nonzero;stroke:none"
         d="m 323.641,179.066 22.68,0 0,-7.379 -22.68,0 0,7.379 z" /><path
         id="path3716"
         style="fill:#000000;fill-opacity:1;fill-rule:nonzero;stroke:none"
         d="m 121.312,56.145 0,26.332 c 0,8.933 -5.437,13.515 -16.234,13.515 -6.523,0 -10.406,-1.32 -14.133,-5.672 l 5.203,-4.89 c 2.176,2.793 4.27,3.804 8.622,3.804 6.136,0 8.621,-2.41 8.621,-7.379 l 0,-2.796 -10.407,0 c -9.011,0 -13.593,-4.739 -13.593,-11.34 0,-3.34 1.086,-6.367 3.105,-8.465 2.41,-2.41 5.672,-3.574 10.563,-3.574 4.894,0 7.613,1.164 10.488,4.039 l 0,-3.574 7.765,0 z m -7.921,14.214 c 0,-2.797 -0.543,-4.66 -1.707,-5.824 -2.098,-2.019 -4.352,-2.254 -7.379,-2.254 -4.973,0 -7.227,2.02 -7.227,5.594 0,3.574 2.41,5.668 7.07,5.668 l 9.243,0 0,-3.184 z" /><path
         id="path3718"
         style="fill:#000000;fill-opacity:1;fill-rule:nonzero;stroke:none"
         d="m 165.684,75.875 c 0,5.98 -0.465,12.66 -4.426,16.621 -2.176,2.176 -5.59,3.496 -9.555,3.496 -4.191,0 -7.453,-1.012 -10.328,-4.43 l 0,19.887 -7.922,0 0,-55.304 7.766,0 0,4.195 c 2.953,-3.57 6.136,-4.66 10.41,-4.66 3.961,0 7.453,1.32 9.629,3.496 3.961,3.961 4.426,10.719 4.426,16.699 z m -7.922,0 c 0,-6.992 -1.008,-13.125 -8.153,-13.125 -7.148,0 -8.234,6.133 -8.234,13.125 0,6.988 1.086,13.047 8.234,13.047 7.145,0 8.153,-6.059 8.153,-13.047 z" /><path
         id="path3720"
         style="fill:#000000;fill-opacity:1;fill-rule:nonzero;stroke:none"
         d="m 207.574,75.875 c 0,5.98 -0.465,12.66 -4.426,16.621 -2.175,2.176 -5.593,3.496 -9.554,3.496 -4.196,0 -7.457,-1.012 -10.332,-4.43 l 0,19.887 -7.922,0 0,-55.304 7.769,0 0,4.195 c 2.95,-3.57 6.133,-4.66 10.407,-4.66 3.961,0 7.457,1.32 9.632,3.496 3.961,3.961 4.426,10.719 4.426,16.699 z m -7.922,0 c 0,-6.992 -1.011,-13.125 -8.156,-13.125 -7.144,0 -8.234,6.133 -8.234,13.125 0,6.988 1.09,13.047 8.234,13.047 7.145,0 8.156,-6.059 8.156,-13.047 z" /><path
         id="path3722"
         style="fill:#000000;fill-opacity:1;fill-rule:nonzero;stroke:none"
         d="m 225.617,103.293 0,8.387 -8.387,0 0,-8.387 8.387,0 z m -0.23,-47.148 0,39.378 -7.926,0 0,-39.378 7.926,0 z" /><path
         id="path3724"
         style="fill:#000000;fill-opacity:1;fill-rule:nonzero;stroke:none"
         d="m 268.672,73.543 0,3.496 c 0,11.184 -6.137,18.953 -16.699,18.953 -10.098,0 -16.7,-7.379 -16.7,-20.117 0,-14.992 7.844,-20.195 17.707,-20.195 6.915,0 10.719,2.097 14.758,6.136 l -5.047,4.739 c -2.796,-2.797 -5.125,-4.039 -9.554,-4.039 -6.446,0 -10.02,4.273 -10.02,11.027 l 25.555,0 z m -7.844,5.516 -17.711,0 c 0.078,2.406 0.235,3.574 1.012,5.359 1.242,2.953 4.117,4.973 7.844,4.973 3.726,0 6.523,-2.02 7.765,-4.973 0.778,-1.785 1.012,-2.953 1.09,-5.359 z" /><path
         id="path3726"
         style="fill:#000000;fill-opacity:1;fill-rule:nonzero;stroke:none"
         d="m 310.25,56.379 0,39.144 -7.691,0 0,-4.191 c -2.95,3.57 -6.133,4.66 -10.329,4.66 -3.96,0 -7.3,-1.242 -9.476,-3.418 -3.805,-3.804 -4.426,-9.32 -4.426,-16 0,-6.679 0.621,-12.195 4.426,-16 2.176,-2.176 5.437,-3.496 9.398,-3.496 4.039,0 7.301,1.086 10.176,4.504 l 0,-5.047 c 0,-5.281 -2.562,-10.019 -9.242,-10.019 -3.887,0 -6.059,1.164 -8.547,3.496 l -5.047,-5.051 c 4.117,-3.805 7.922,-5.203 13.903,-5.203 10.484,0 16.855,6.992 16.855,16.621 z m -7.922,20.195 c 0,-6.215 -0.855,-12.351 -8,-12.351 -7.144,0 -8.078,6.136 -8.078,12.351 0,6.215 0.934,12.348 8.078,12.348 7.145,0 8,-6.133 8,-12.348 z" /><path
         id="path3728"
         style="fill:#000000;fill-opacity:1;fill-rule:nonzero;stroke:none"
         d="m 353.305,73.543 0,3.496 c 0,11.184 -6.137,18.953 -16.7,18.953 -10.097,0 -16.699,-7.379 -16.699,-20.117 0,-14.992 7.844,-20.195 17.707,-20.195 6.914,0 10.719,2.097 14.758,6.136 l -5.047,4.739 c -2.797,-2.797 -5.129,-4.039 -9.554,-4.039 -6.446,0 -10.02,4.273 -10.02,11.027 l 25.555,0 z m -7.848,5.516 -17.707,0 c 0.078,2.406 0.234,3.574 1.008,5.359 1.246,2.953 4.117,4.973 7.847,4.973 3.727,0 6.524,-2.02 7.766,-4.973 0.777,-1.785 1.012,-2.953 1.086,-5.359 z" /><path
         id="path3730"
         style="fill:#000000;fill-opacity:1;fill-rule:nonzero;stroke:none"
         d="m 390.609,92.262 c -2.718,2.718 -5.593,3.73 -9.398,3.73 -4.426,0 -8.465,-1.941 -10.484,-4.738 l 0,4.269 -7.77,0 0,-39.378 7.926,0 0,23.925 c 0,5.434 3.57,8.852 7.844,8.852 2.718,0 4.117,-0.852 5.902,-2.641 l 5.98,5.981 z" /></g></g></svg>