<?xml version="1.0" encoding="UTF-8" standalone="no"?>
<svg
   xmlns:dc="http://purl.org/dc/elements/1.1/"
   xmlns:cc="http://creativecommons.org/ns#"
   xmlns:rdf="http://www.w3.org/1999/02/22-rdf-syntax-ns#"
   xmlns:svg="http://www.w3.org/2000/svg"
   xmlns="http://www.w3.org/2000/svg"
   viewBox="0 0 600 330"
   height="330"
   width="600"
   xml:space="preserve"
   id="svg6028"
   version="1.1"><metadata
     id="metadata6034"><rdf:RDF><cc:Work
         rdf:about=""><dc:format>image/svg+xml</dc:format><dc:type
           rdf:resource="http://purl.org/dc/dcmitype/StillImage" /><dc:title></dc:title></cc:Work></rdf:RDF></metadata><defs
     id="defs6032"><clipPath
       id="clipPath6048"
       clipPathUnits="userSpaceOnUse"><path
         id="path6046"
         d="M 0,0 H 450 V 248 H 0 Z" /></clipPath></defs><g
     transform="matrix(1.3333333,0,0,-1.3333333,0,330)"
     id="g6036"><g
       id="g6038"><g
         transform="translate(0,-0.5)"
         id="g6040"><g
           id="g6042"><g
             clip-path="url(#clipPath6048)"
             id="g6044"><g
               id="g6050"><path
                 id="path6052"
                 style="fill:#ffffff;fill-opacity:1;fill-rule:nonzero;stroke:none"
                 d="m 29.996,247.785 c -16.418,0 -29.769,-13.363 -29.769,-29.781 V 30.508 C 0.227,14.086 13.578,0.734 29.996,0.734 h 390.008 c 16.418,0 29.769,13.352 29.769,29.774 v 187.496 c 0,16.418 -13.351,29.781 -29.769,29.781" /><path
                 id="path6054"
                 style="fill:#000000;fill-opacity:1;fill-rule:nonzero;stroke:none"
                 d="M 29.996,0.949 C 13.699,0.949 0.449,14.211 0.449,30.508 v 187.496 c 0,16.297 13.25,29.555 29.547,29.555 h 390.008 c 16.297,0 29.547,-13.258 29.547,-29.555 V 30.508 c 0,-16.297 -13.25,-29.559 -29.547,-29.559 z M 420.004,248.012 H 29.996 C 13.426,248.012 0,234.574 0,218.004 V 30.508 C 0,13.945 13.426,0.5 29.996,0.5 H 420.004 C 436.566,0.5 450,13.945 450,30.508 v 187.496 c 0,16.57 -13.434,30.008 -29.996,30.008" /></g></g></g></g><path
         id="path6056"
         style="fill:#000000;fill-opacity:1;fill-rule:nonzero;stroke:none"
         d="m 29.996,18.758 h 390.008 c 6.215,0 11.25,5.035 11.25,11.25 v 187.496 c 0,6.215 -5.035,11.25 -11.25,11.25 H 29.996 c -6.215,0 -11.25,-5.035 -11.25,-11.25 V 30.008 c 0,-6.215 5.035,-11.25 11.25,-11.25 z m 0,-11.25 c -12.43,0 -22.5,10.07 -22.5,22.5 v 187.496 c 0,12.43 10.07,22.5 22.5,22.5 h 390.008 c 12.43,0 22.5,-10.07 22.5,-22.5 V 30.008 c 0,-12.43 -10.07,-22.5 -22.5,-22.5" /><path
         id="path6058"
         style="fill:#000000;fill-opacity:1;fill-rule:nonzero;stroke:none"
         d="m 55.422,93.07 v 85.801 h 21.48 c 5.664,0 10.422,-1.973 14.282,-5.914 3.859,-3.945 5.789,-8.746 5.789,-14.41 v -7.977 c 0,-7.886 -3.344,-13.933 -10.035,-18.136 L 99.934,93.07 H 86.938 L 75.359,129.863 H 67.645 V 93.07 Z m 27.273,50.297 c 0.77,0.946 1.309,2.016 1.606,3.219 0.301,1.199 0.449,2.527 0.449,3.984 v 7.977 c 0,2.66 -0.727,4.805 -2.184,6.433 -1.461,1.629 -3.519,2.446 -6.175,2.446 h -8.746 v -26.758 h 8.621 c 2.57,0 4.714,0.898 6.429,2.699 z M 110.367,148 c 1.801,2.23 3.922,3.965 6.367,5.211 2.446,1.242 5.082,1.863 7.911,1.863 3.171,0 5.98,-0.578 8.425,-1.738 2.446,-1.156 4.739,-3.152 6.883,-5.981 2.145,-2.828 3.219,-6.515 3.219,-11.062 v -24.441 c 0,-4.629 -1.031,-8.34 -3.09,-11.125 -2.059,-2.789 -4.371,-4.891 -6.945,-6.305 -2.574,-1.418 -5.188,-2.125 -7.848,-2.125 -3.687,0 -7.055,0.922 -10.098,2.766 -3.046,1.843 -5.148,3.902 -6.304,6.175 -1.16,2.274 -1.867,4.16 -2.125,5.66 -0.254,1.5 -0.383,3.153 -0.383,4.954 v 24.441 c 0,4.633 1.328,8.535 3.988,11.707 z m 14.531,-4.887 c -1.882,0 -3.382,-0.644 -4.496,-1.929 -1.117,-1.289 -1.672,-2.918 -1.672,-4.891 v -24.441 c 0,-1.973 0.536,-3.668 1.606,-5.082 1.074,-1.415 2.594,-2.122 4.562,-2.122 2.661,0 4.313,0.77 4.957,2.317 0.645,1.543 0.965,3.258 0.965,5.144 v 24.184 c 0,1.887 -0.535,3.496 -1.609,4.824 -1.07,1.328 -2.508,1.996 -4.313,1.996 z m 40.457,35.758 v -68.18 c 0,-2.054 0.344,-3.554 1.028,-4.5 0.687,-0.941 2.058,-1.414 4.121,-1.414 h 0.898 V 93.07 h -2.703 c -1.972,0 -3.816,0.215 -5.531,0.645 -1.715,0.43 -3.43,1.308 -5.145,2.637 -1.714,1.328 -2.98,3.043 -3.796,5.144 -0.813,2.102 -1.223,4.352 -1.223,6.754 v 70.621 z m 25.879,0 v -68.18 c 0,-2.054 0.344,-3.554 1.028,-4.5 0.687,-0.941 2.058,-1.414 4.121,-1.414 h 0.898 V 93.07 h -2.703 c -1.973,0 -3.816,0.215 -5.531,0.645 -1.715,0.43 -3.43,1.308 -5.145,2.637 -1.714,1.328 -2.98,3.043 -3.797,5.144 -0.812,2.102 -1.222,4.352 -1.222,6.754 v 70.621 z m 29.223,-74.992 c 1.887,0 3.516,0.598 4.887,1.797 1.375,1.203 2.058,2.746 2.058,4.633 0,2.23 -0.578,3.879 -1.734,4.953 -1.156,1.07 -2.98,2.035 -5.469,2.894 l -2.441,0.899 c -2.574,0.945 -4.719,1.867 -6.434,2.769 -1.715,0.899 -3.558,2.528 -5.531,4.887 -1.973,2.355 -2.957,5.766 -2.957,10.227 0,5.058 1.758,9.347 5.273,12.863 3.516,3.515 7.848,5.273 12.993,5.273 4.714,0 8.703,-1.801 11.961,-5.402 3.257,-3.602 4.886,-7.676 4.89,-12.223 h -11.32 c 0,1.801 -0.578,3.281 -1.738,4.442 -1.157,1.156 -2.68,1.734 -4.567,1.734 -1.715,0 -3.129,-0.641 -4.242,-1.93 -1.117,-1.285 -1.672,-2.828 -1.672,-4.629 0,-1.886 0.555,-3.343 1.672,-4.375 1.113,-1.031 2.742,-1.929 4.887,-2.703 l 3.988,-1.285 c 2.316,-0.855 4.137,-1.672 5.465,-2.445 1.328,-0.77 2.66,-1.93 3.988,-3.473 1.328,-1.543 2.422,-3.344 3.281,-5.402 0.86,-2.059 1.289,-4.246 1.289,-6.559 0,-4.976 -1.781,-9.328 -5.339,-13.058 -3.559,-3.731 -7.829,-5.594 -12.801,-5.594 -3.004,0 -6.028,0.812 -9.071,2.441 -3.043,1.629 -5.402,3.84 -7.074,6.625 -1.672,2.789 -2.508,5.942 -2.508,9.453 h 11.45 c 0,-1.886 0.664,-3.492 1.992,-4.82 1.328,-1.328 2.937,-1.992 4.824,-1.992 z m 26.895,-35.25 v 85.676 h 12.351 v -5.922 c 1.285,2.062 2.957,3.711 5.016,4.957 2.058,1.242 4.289,1.863 6.691,1.863 3.602,0 6.625,-1.351 9.07,-4.051 2.442,-2.703 3.665,-5.894 3.665,-9.582 v -35.25 c 0,-1.8 -0.172,-3.367 -0.512,-4.695 -0.344,-1.332 -1.418,-3.195 -3.219,-5.598 -1.801,-2.402 -4.719,-3.601 -8.75,-3.601 -5.398,0 -9.387,2.273 -11.961,6.82 V 68.629 Z m 18.398,74.351 c -1.887,0 -3.367,-0.664 -4.437,-1.992 -1.075,-1.328 -1.61,-2.937 -1.61,-4.824 v -23.93 c 0,-2.23 0.516,-4.05 1.543,-5.464 1.027,-1.415 2.703,-2.122 5.02,-2.122 2.398,0 3.922,0.813 4.562,2.442 0.645,1.629 0.969,3.344 0.969,5.144 v 23.93 c 0,1.887 -0.539,3.496 -1.609,4.824 -1.071,1.328 -2.551,1.992 -4.438,1.992 z m 40.559,35.891 v -68.18 c 0,-2.054 0.339,-3.554 1.027,-4.5 0.684,-0.941 2.059,-1.414 4.117,-1.414 h 0.899 V 93.07 h -2.7 c -1.972,0 -3.816,0.215 -5.531,0.645 -1.715,0.43 -3.43,1.308 -5.144,2.637 -1.715,1.328 -2.981,3.043 -3.797,5.144 -0.817,2.102 -1.223,4.352 -1.223,6.754 v 70.621 z M 319.836,93.07 v 61.235 h 12.352 V 93.07 Z m 0,73.711 v 12.09 h 12.352 v -12.09 z m 41.512,-62.004 h 2.828 V 93.07 h -3.86 c -2.316,0 -4.375,0.235 -6.171,0.707 -1.801,0.469 -3.563,1.434 -5.278,2.895 -1.715,1.461 -2.914,3.066 -3.601,4.824 -0.684,1.758 -1.028,3.922 -1.028,6.496 v 36.664 h -6.047 v 9.649 h 6.047 v 18.523 h 12.352 v -18.523 h 7.586 v -9.649 H 356.59 V 110.18 c 0,-2.059 0.277,-3.473 0.836,-4.246 0.554,-0.77 1.863,-1.157 3.922,-1.157 z m 30.398,0 h 2.832 V 93.07 h -3.859 c -2.317,0 -4.375,0.235 -6.176,0.707 -1.801,0.469 -3.559,1.434 -5.273,2.895 -1.715,1.461 -2.918,3.066 -3.602,4.824 -0.688,1.758 -1.027,3.922 -1.027,6.496 v 36.664 h -6.047 v 9.649 h 6.047 v 18.523 h 12.347 v -18.523 h 7.59 v -9.649 h -7.59 V 110.18 c 0,-2.059 0.282,-3.473 0.836,-4.246 0.559,-0.77 1.867,-1.157 3.922,-1.157 z" /></g></g></svg>