<?xml version="1.0" encoding="UTF-8" standalone="no"?>
<svg
   xmlns:dc="http://purl.org/dc/elements/1.1/"
   xmlns:cc="http://creativecommons.org/ns#"
   xmlns:rdf="http://www.w3.org/1999/02/22-rdf-syntax-ns#"
   xmlns:svg="http://www.w3.org/2000/svg"
   xmlns="http://www.w3.org/2000/svg"
   viewBox="0 0 600 330"
   height="330"
   width="600"
   xml:space="preserve"
   version="1.1"
   id="svg4575"><metadata
     id="metadata4581"><rdf:RDF><cc:Work
         rdf:about=""><dc:format>image/svg+xml</dc:format><dc:type
           rdf:resource="http://purl.org/dc/dcmitype/StillImage" /><dc:title></dc:title></cc:Work></rdf:RDF></metadata><defs
     id="defs4579"><clipPath
       id="clipPath4593"
       clipPathUnits="userSpaceOnUse"><path
         id="path4595"
         d="M 0,0 480,0 480,264 0,264 0,0 Z" /></clipPath></defs><g
     transform="matrix(1.25,0,0,-1.25,0,330)"
     id="g4583"><g
       id="g4585"><g
         id="g4587"><g
           id="g4589"><g
             clip-path="url(#clipPath4593)"
             id="g4591"><g
               id="g4597"><path
                 id="path4599"
                 style="fill:#ffffff;fill-opacity:1;fill-rule:nonzero;stroke:none"
                 d="m 31.996,263.758 c -17.512,0 -31.754,-14.254 -31.754,-31.766 l 0,-199.996 C 0.242,14.484 14.484,0.242 31.996,0.242 l 416.008,0 c 17.512,0 31.754,14.242 31.754,31.754 l 0,199.996 c 0,17.512 -14.242,31.766 -31.754,31.766" /><path
                 id="path4601"
                 style="fill:#000000;fill-opacity:1;fill-rule:nonzero;stroke:none"
                 d="M 31.996,0.484 C 14.613,0.484 0.484,14.613 0.484,31.996 l 0,199.996 c 0,17.383 14.129,31.524 31.512,31.524 l 416.008,0 c 17.383,0 31.512,-14.141 31.512,-31.524 l 0,-199.996 c 0,-17.383 -14.129,-31.512 -31.512,-31.512 l -416.008,0 z M 448.004,264 31.996,264 C 14.32,264 0,249.672 0,231.992 L 0,31.996 C 0,14.328 14.32,0 31.996,0 L 448.004,0 C 465.672,0 480,14.328 480,31.996 l 0,199.996 C 480,249.672 465.672,264 448.004,264" /></g></g></g></g><path
         id="path4603"
         style="fill:#000000;fill-opacity:1;fill-rule:nonzero;stroke:none"
         d="m 31.996,19.996 416.008,0 c 6.629,0 12,5.371 12,12 l 0,199.996 c 0,6.629 -5.371,12 -12,12 l -416.008,0 c -6.629,0 -12,-5.371 -12,-12 l 0,-199.996 c 0,-6.629 5.371,-12 12,-12 z m 0,-12 c -13.258,0 -24,10.742 -24,24 l 0,199.996 c 0,13.258 10.742,24 24,24 l 416.008,0 c 13.258,0 24,-10.742 24,-24 l 0,-199.996 c 0,-13.258 -10.742,-24 -24,-24" /><path
         id="path4605"
         style="fill:#000000;fill-opacity:1;fill-rule:nonzero;stroke:none"
         d="m 148.5,117.727 0,58.335 -13.348,0 0,-57.718 c 0,-11.742 -7.293,-19.035 -18.293,-19.035 -11,0 -18.168,7.293 -18.168,19.035 l 0,57.718 -13.347,0 0,-58.335 c 0,-18.172 13.594,-30.407 31.515,-30.407 17.922,0 31.641,12.235 31.641,30.407 z" /><path
         id="path4607"
         style="fill:#000000;fill-opacity:1;fill-rule:nonzero;stroke:none"
         d="m 217.699,88.062 0,40.043 c 0,7.047 -1.484,12.981 -6.304,17.676 -3.707,3.582 -9.024,5.684 -15.45,5.684 -6.3,0 -12.359,-2.348 -16.683,-7.043 l 0,6.305 -12.36,0 0,-62.665 12.606,0 0,38.192 c 0,9.641 5.933,13.965 12.976,13.965 7.047,0 12.61,-4.203 12.61,-13.965 l 0,-38.192 12.605,0 z" /><path
         id="path4609"
         style="fill:#000000;fill-opacity:1;fill-rule:nonzero;stroke:none"
         d="m 260.773,139.973 0,9.64 -12.484,0 0,9.024 c 0,4.57 2.227,7.289 6.922,7.289 l 5.562,0 0,10.754 -7.91,0 c -11.742,0 -17.179,-8.407 -17.179,-17.426 l 0,-9.641 -7.168,0 0,-9.64 7.168,0 0,-51.911 12.605,0 0,51.911 12.484,0 z" /><path
         id="path4611"
         style="fill:#000000;fill-opacity:1;fill-rule:nonzero;stroke:none"
         d="m 318.762,88.062 0,41.899 c 0,14.215 -8.653,21.504 -25.832,21.504 -10.383,0 -16.563,-2.102 -22.492,-9.02 l 8.281,-7.789 c 3.461,4.449 6.797,6.059 13.719,6.059 9.761,0 13.718,-3.832 13.718,-11.742 l 0,-4.45 -16.562,0 c -14.336,0 -21.629,-7.539 -21.629,-18.046 0,-5.313 1.73,-10.133 4.945,-13.473 3.828,-3.828 9.02,-5.684 16.809,-5.684 7.785,0 12.109,1.856 16.683,6.426 l 0,-5.684 12.36,0 z m -12.606,22.618 c 0,-4.45 -0.867,-7.414 -2.718,-9.27 -3.34,-3.215 -6.922,-3.586 -11.743,-3.586 -7.91,0 -11.496,3.215 -11.496,8.903 0,5.683 3.832,9.019 11.25,9.019 l 14.707,0 0,-5.066 z" /><path
         id="path4613"
         style="fill:#000000;fill-opacity:1;fill-rule:nonzero;stroke:none"
         d="m 359.477,88.062 0,10.754 -5.563,0 c -5.066,0 -6.797,2.469 -6.797,7.289 l 0,69.957 -12.609,0 0,-70.699 c 0,-9.269 5.191,-17.301 17.18,-17.301 l 7.789,0 z" /><path
         id="path4615"
         style="fill:#000000;fill-opacity:1;fill-rule:nonzero;stroke:none"
         d="m 394.656,88.062 0,10.754 -5.558,0 c -5.071,0 -6.801,2.469 -6.801,7.289 l 0,69.957 -12.606,0 0,-70.699 c 0,-9.269 5.192,-17.301 17.18,-17.301 l 7.785,0 z" /></g></g></svg>