<?xml version="1.0" encoding="UTF-8" standalone="no"?>
<svg
   xmlns:dc="http://purl.org/dc/elements/1.1/"
   xmlns:cc="http://creativecommons.org/ns#"
   xmlns:rdf="http://www.w3.org/1999/02/22-rdf-syntax-ns#"
   xmlns:svg="http://www.w3.org/2000/svg"
   xmlns="http://www.w3.org/2000/svg"
   viewBox="0 0 600 450.005"
   height="450.005"
   width="600"
   xml:space="preserve"
   version="1.1"
   id="svg8086"><metadata
     id="metadata8092"><rdf:RDF><cc:Work
         rdf:about=""><dc:format>image/svg+xml</dc:format><dc:type
           rdf:resource="http://purl.org/dc/dcmitype/StillImage" /><dc:title></dc:title></cc:Work></rdf:RDF></metadata><defs
     id="defs8090" /><g
     transform="matrix(1.25,0,0,-1.25,0,450.005)"
     id="g8094"><g
       id="g8096"><path
         id="path8098"
         style="fill:#ffffff;fill-opacity:1;fill-rule:nonzero;stroke:none"
         d="m 31.996,359.774 c -17.504,0 -31.754,-14.25 -31.754,-31.766 L 0.242,32 c 0,-17.508 14.25,-31.758 31.754,-31.758 l 416.008,0 c 17.516,0 31.766,14.25 31.766,31.758 l 0,296.008 c 0,17.516 -14.25,31.766 -31.766,31.766" /><path
         id="path8100"
         style="fill:#000000;fill-opacity:1;fill-rule:nonzero;stroke:none"
         d="M 31.996,0.469 C 14.613,0.469 0.477,14.613 0.477,32 l 0,296.008 c 0,17.383 14.136,31.523 31.519,31.523 l 416.008,0 c 17.383,0 31.519,-14.14 31.519,-31.523 l 0,-296.008 c 0,-17.387 -14.136,-31.531 -31.519,-31.531 l -416.008,0 z m 416.008,359.535 -416.008,0 C 14.328,360.004 0,345.676 0,328.008 L 0,32 C 0,14.328 14.328,0 31.996,0 L 448.004,0 C 465.672,0 480,14.328 480,32 l 0,296.008 c 0,17.668 -14.328,31.996 -31.996,31.996" /><path
         id="path8102"
         style="fill:#000000;fill-opacity:1;fill-rule:nonzero;stroke:none"
         d="m 31.996,352.012 c -13.25,0 -23.992,-10.746 -23.992,-24.004 L 8.004,32 C 8.004,18.75 18.746,7.996 31.996,7.996 l 416.008,0 c 13.25,0 24.004,10.754 24.004,24.004 l 0,296.008 c 0,13.258 -10.754,24.004 -24.004,24.004 l -416.008,0 z m 0,-12.008 416.008,0 c 6.629,0 12.004,-5.367 12.004,-11.996 l 0,-296.008 c 0,-6.633 -5.375,-11.996 -12.004,-11.996 l -416.008,0 C 25.379,20.004 20,25.367 20,32 l 0,296.008 c 0,6.629 5.379,11.996 11.996,11.996 z" /><path
         id="path8104"
         style="fill:#000000;fill-opacity:1;fill-rule:nonzero;stroke:none"
         d="m 343.371,267.82 8.793,0 0,5.504 c 0,2.438 -1.965,4.41 -4.387,4.41 -2.437,0 -4.406,-1.972 -4.406,-4.41 l 0,-5.504 z m 17.602,-13.218 c 0,-7.289 -5.918,-13.203 -13.196,-13.203 -7.297,0 -13.199,5.914 -13.199,13.203 l 0,18.722 c 0,7.301 5.902,13.215 13.199,13.215 7.278,0 13.196,-5.914 13.196,-13.215 l 0,-12.664 -17.602,0 0,-6.058 c 0,-2.426 1.969,-4.395 4.406,-4.395 2.422,0 4.387,1.969 4.387,4.395 l 8.809,0 z m -43.985,0 0,18.722 c 0,2.438 -1.968,4.41 -4.406,4.41 -2.434,0 -4.402,-1.972 -4.402,-4.41 l 0,-18.722 c 0,-2.426 1.968,-4.395 4.402,-4.395 2.438,0 4.406,1.969 4.406,4.395 m 8.793,-12.664 -8.793,0 0,4.41 c -1.629,-3.047 -4.8,-4.949 -8.258,-4.949 -5.168,0 -9.343,4.183 -9.343,9.359 l 0,26.422 c 0,5.176 4.175,9.359 9.343,9.359 3.458,0 6.629,-1.898 8.258,-4.949 l 0,22.027 8.793,0 0,-61.679 z m -60.484,0 0,44.05 8.797,0 0,-4.398 c 1.625,3.051 4.801,4.949 8.254,4.949 5.156,0 9.347,-4.183 9.347,-9.359 l 0,-35.242 -8.808,0 0,31.386 c 0,2.438 -1.969,4.41 -4.391,4.41 -2.437,0 -4.402,-1.972 -4.402,-4.41 l 0,-31.386 -8.797,0 z m -25.293,25.882 8.797,0 0,5.504 c 0,2.438 -1.957,4.41 -4.391,4.41 -2.437,0 -4.406,-1.972 -4.406,-4.41 l 0,-5.504 z m 17.605,-13.218 c 0,-7.289 -5.921,-13.203 -13.199,-13.203 -7.293,0 -13.199,5.914 -13.199,13.203 l 0,18.722 c 0,7.301 5.906,13.215 13.199,13.215 7.278,0 13.199,-5.914 13.199,-13.215 l 0,-12.664 -17.605,0 0,-6.058 c 0,-2.426 1.969,-4.395 4.406,-4.395 2.434,0 4.391,1.969 4.391,4.395 l 8.808,0 z m -31.894,-12.664 -3.301,0 c -5.465,0 -9.898,4.441 -9.898,9.914 l 0,51.765 8.796,0 0,-50.66 c 0,-1.516 1.231,-2.75 2.747,-2.75 l 1.656,0 0,-8.269 z m -48.391,0 0,61.679 8.793,0 0,-22.027 c 1.629,3.051 4.805,4.949 8.258,4.949 5.156,0 9.348,-4.183 9.348,-9.359 l 0,-35.242 -8.793,0 0,31.386 c 0,2.438 -1.969,4.41 -4.407,4.41 -2.437,0 -4.406,-1.972 -4.406,-4.41 l 0,-31.386 -8.793,0 z m -25.293,25.882 8.797,0 0,5.504 c 0,2.438 -1.957,4.41 -4.39,4.41 -2.438,0 -4.407,-1.972 -4.407,-4.41 l 0,-5.504 z m 17.606,-13.218 c 0,-7.289 -5.922,-13.203 -13.199,-13.203 -7.293,0 -13.2,5.914 -13.2,13.203 l 0,18.722 c 0,7.301 5.907,13.215 13.2,13.215 7.277,0 13.199,-5.914 13.199,-13.215 l 0,-12.664 -17.606,0 0,-6.058 c 0,-2.426 1.969,-4.395 4.407,-4.395 2.433,0 4.39,1.969 4.39,4.395 l 8.809,0 z m -46.199,-12.664 0,36.886 -4.387,0 0,7.164 4.387,0 0,6.61 c 0,6.082 4.929,11.019 11.003,11.019 l 4.407,0 0,-8.269 -3.852,0 c -1.516,0 -2.75,-1.235 -2.75,-2.75 l 0,-6.61 6.602,0 0,-7.164 -6.602,0 0,-36.886 -8.808,0 z" /><path
         id="path8106"
         style="fill:#000000;fill-opacity:1;fill-rule:nonzero;stroke:none"
         d="m 360.699,178.07 26.383,0 0,-8.808 -26.383,0 0,8.808 z m -36.297,-28.621 0,44.051 8.793,0 0,-4.41 c 1.629,3.047 4.801,4.949 8.258,4.949 5.152,0 9.348,-4.183 9.348,-9.359 l 0,-35.231 -8.797,0 0,31.371 c 0,2.442 -1.969,4.411 -4.402,4.411 -2.438,0 -4.407,-1.969 -4.407,-4.411 l 0,-31.371 -8.793,0 z m -35.191,0 0,61.664 8.809,0 0,-22.023 c 1.613,3.047 4.785,4.949 8.242,4.949 5.168,0 9.343,-4.183 9.343,-9.359 l 0,-35.231 -8.793,0 0,31.371 c 0,2.442 -1.968,4.411 -4.402,4.411 -2.437,0 -4.39,-1.969 -4.39,-4.411 l 0,-31.371 -8.809,0 z m -17.59,19.262 -4.406,0 c -2.422,0 -4.387,-1.973 -4.387,-4.398 l 0,-2.211 c 0,-2.426 1.965,-4.399 4.387,-4.399 2.437,0 4.406,1.973 4.406,4.399 l 0,6.609 z m 8.793,-19.262 -8.793,0 0,4.399 c -1.629,-3.051 -4.785,-4.949 -8.258,-4.949 -5.152,0 -9.332,4.183 -9.332,9.359 l 0,6.609 c 0,6.071 4.93,11.004 10.989,11.004 l 6.601,0 0,4.949 c 0,2.442 -1.969,4.411 -4.406,4.411 -2.422,0 -4.387,-1.969 -4.387,-4.411 l -8.797,0 c 0,7.305 5.907,13.219 13.184,13.219 7.293,0 13.199,-5.914 13.199,-13.219 l 0,-31.371 z m -51.676,12.653 c 0,-2.426 1.969,-4.399 4.391,-4.399 2.437,0 4.406,1.973 4.406,4.399 l 0,18.718 c 0,2.442 -1.969,4.411 -4.406,4.411 -2.422,0 -4.391,-1.969 -4.391,-4.411 l 0,-18.718 z m -8.808,-12.653 0,61.664 8.808,0 0,-22.023 c 1.614,3.047 4.789,4.949 8.242,4.949 5.168,0 9.348,-4.183 9.348,-9.359 l 0,-26.422 c 0,-5.176 -4.18,-9.359 -9.348,-9.359 -3.453,0 -6.628,1.898 -8.242,4.949 l 0,-4.399 -8.808,0 z m -25.832,0 0,44.051 8.797,0 0,-4.976 c 2.816,3.488 7.066,5.515 11.539,5.515 l 0,-9.246 c -0.875,0.297 -1.813,0.438 -2.746,0.438 -4.856,0 -8.793,-3.942 -8.793,-8.805 l 0,-26.977 -8.797,0 z m -35.192,0 0,61.664 8.797,0 0,-22.023 c 1.629,3.047 4.801,4.949 8.242,4.949 5.168,0 9.36,-4.183 9.36,-9.359 l 0,-35.231 -8.809,0 0,31.371 c 0,2.442 -1.969,4.411 -4.391,4.411 -2.433,0 -4.402,-1.969 -4.402,-4.411 l 0,-31.371 -8.797,0 z m -17.59,19.262 -4.402,0 c -2.422,0 -4.391,-1.973 -4.391,-4.398 l 0,-2.211 c 0,-2.426 1.969,-4.399 4.391,-4.399 2.438,0 4.402,1.973 4.402,4.399 l 0,6.609 z m 8.797,-19.262 -8.797,0 0,4.399 c -1.625,-3.051 -4.8,-4.949 -8.254,-4.949 -5.156,0 -9.347,4.183 -9.347,9.359 l 0,6.609 c 0,6.071 4.93,11.004 11.004,11.004 l 6.597,0 0,4.949 c 0,2.442 -1.964,4.411 -4.402,4.411 -2.422,0 -4.391,-1.969 -4.391,-4.411 l -8.808,0 c 0,7.305 5.922,13.219 13.199,13.219 7.293,0 13.199,-5.914 13.199,-13.219 l 0,-31.371 z m -57.187,0 0,61.664 26.398,0 0,-8.269 -17.601,0 0,-18.719 15.394,0 0,-8.254 -15.394,0 0,-26.422 -8.797,0 z" /><path
         id="path8108"
         style="fill:#000000;fill-opacity:1;fill-rule:nonzero;stroke:none"
         d="m 391.203,69.606 0,18.718 c 0,2.442 -1.969,4.414 -4.391,4.414 -2.433,0 -4.402,-1.972 -4.402,-4.414 l 0,-18.718 c 0,-2.438 1.969,-4.411 4.402,-4.411 2.422,0 4.391,1.973 4.391,4.411 M 382.41,51.977 c 0,-2.426 1.969,-4.395 4.402,-4.395 2.422,0 4.391,1.969 4.391,4.395 l 0,9.375 c -1.613,-3.063 -4.801,-4.965 -8.242,-4.965 -5.168,0 -9.348,4.199 -9.348,9.363 l 0,26.434 c 0,5.16 4.18,9.359 9.348,9.359 3.441,0 6.629,-1.914 8.242,-4.965 l 0,4.414 8.797,0 0,-49.015 c 0,-7.289 -5.906,-13.203 -13.188,-13.203 -7.292,0 -13.199,5.914 -13.199,13.203 l 8.797,0 z m -42.898,4.964 0,44.051 8.808,0 0,-4.414 c 1.629,3.051 4.789,4.965 8.242,4.965 5.172,0 9.348,-4.199 9.348,-9.359 l 0,-35.243 -8.793,0 0,31.383 c 0,2.442 -1.969,4.414 -4.39,4.414 -2.438,0 -4.407,-1.972 -4.407,-4.414 l 0,-31.383 -8.808,0 z m -8.793,0 -8.793,0 0,4.411 c -1.617,-3.063 -4.789,-4.965 -8.242,-4.965 -5.172,0 -9.348,4.199 -9.348,9.363 l 0,35.242 8.793,0 0,-31.386 c 0,-2.438 1.969,-4.411 4.406,-4.411 2.422,0 4.391,1.973 4.391,4.411 l 0,31.386 8.793,0 0,-44.051 z m -51.125,0 0,44.051 8.797,0 0,-4.98 c 2.816,3.488 7.066,5.531 11.554,5.531 l 0,-9.246 c -0.89,0.285 -1.828,0.441 -2.761,0.441 -4.856,0 -8.793,-3.957 -8.793,-8.824 l 0,-26.973 -8.797,0 z m -25.293,25.883 8.797,0 0,5.5 c 0,2.442 -1.969,4.414 -4.391,4.414 -2.437,0 -4.406,-1.972 -4.406,-4.414 l 0,-5.5 z m 17.59,-13.218 c 0,-7.305 -5.907,-13.219 -13.184,-13.219 -7.293,0 -13.199,5.914 -13.199,13.219 l 0,18.718 c 0,7.305 5.906,13.219 13.199,13.219 7.277,0 13.184,-5.914 13.184,-13.219 l 0,-12.664 -17.59,0 0,-6.054 c 0,-2.438 1.969,-4.411 4.406,-4.411 2.422,0 4.391,1.973 4.391,4.411 l 8.793,0 z m -43.985,49 8.793,0 0,-8.809 -8.793,0 0,8.809 z m 0,-17.614 8.793,0 0,-44.051 -8.793,0 0,44.051 z m -35.179,-44.051 0,61.665 8.793,0 0,-36.887 10.992,19.273 8.793,0 -10.438,-17.617 12.649,-26.434 -9.899,0 -7.707,18.719 -4.39,-6.609 0,-12.11 -8.793,0 z m -25.844,0 0,44.051 8.793,0 0,-4.98 c 2.82,3.488 7.066,5.531 11.554,5.531 l 0,-9.246 c -0.89,0.285 -1.824,0.441 -2.761,0.441 -4.856,0 -8.793,-3.957 -8.793,-8.824 l 0,-26.973 -8.793,0 z m -17.606,19.274 -4.39,0 c -2.434,0 -4.387,-1.973 -4.387,-4.41 l 0,-2.199 c 0,-2.438 1.953,-4.411 4.387,-4.411 2.422,0 4.39,1.973 4.39,4.411 l 0,6.609 z m 8.809,-19.274 -8.809,0 0,4.411 c -1.613,-3.063 -4.785,-4.965 -8.242,-4.965 -5.152,0 -9.344,4.199 -9.344,9.363 l 0,6.606 c 0,6.085 4.926,11.019 11.004,11.019 l 6.582,0 0,4.949 c 0,2.442 -1.968,4.414 -4.39,4.414 -2.434,0 -4.387,-1.972 -4.387,-4.414 l -8.809,0 c 0,7.305 5.903,13.219 13.196,13.219 7.281,0 13.199,-5.914 13.199,-13.219 l 0,-31.383 z m -78.074,0 0,44.051 8.797,0 0,-4.414 c 1.613,3.051 4.785,4.965 8.242,4.965 3.242,0 6.246,-1.687 7.957,-4.437 1.957,2.777 5.14,4.437 8.539,4.437 5.765,0 10.453,-4.68 10.453,-10.465 l 0,-34.137 -8.793,0 0,31.383 c 0,2.442 -1.969,4.414 -4.406,4.414 -2.434,0 -4.403,-1.972 -4.403,-4.414 l 0,-31.383 -8.796,0 0,31.383 c 0,2.442 -1.969,4.414 -4.403,4.414 -2.422,0 -4.39,-1.972 -4.39,-4.414 l 0,-31.383 -8.797,0 z" /></g></g></svg>