<?xml version="1.0" encoding="UTF-8" standalone="no"?>
<svg
   xmlns:dc="http://purl.org/dc/elements/1.1/"
   xmlns:cc="http://creativecommons.org/ns#"
   xmlns:rdf="http://www.w3.org/1999/02/22-rdf-syntax-ns#"
   xmlns:svg="http://www.w3.org/2000/svg"
   xmlns="http://www.w3.org/2000/svg"
   viewBox="0 0 600 450.005"
   height="450.005"
   width="600"
   xml:space="preserve"
   version="1.1"
   id="svg3656"><metadata
     id="metadata3662"><rdf:RDF><cc:Work
         rdf:about=""><dc:format>image/svg+xml</dc:format><dc:type
           rdf:resource="http://purl.org/dc/dcmitype/StillImage" /><dc:title></dc:title></cc:Work></rdf:RDF></metadata><defs
     id="defs3660" /><g
     transform="matrix(1.25,0,0,-1.25,0,450.005)"
     id="g3664"><g
       id="g3666"><path
         id="path3668"
         style="fill:#ffffff;fill-opacity:1;fill-rule:nonzero;stroke:none"
         d="m 31.996,359.774 c -17.504,0 -31.754,-14.25 -31.754,-31.766 L 0.242,32 c 0,-17.508 14.25,-31.758 31.754,-31.758 l 416.008,0 c 17.516,0 31.766,14.25 31.766,31.758 l 0,296.008 c 0,17.516 -14.25,31.766 -31.766,31.766" /><path
         id="path3670"
         style="fill:#000000;fill-opacity:1;fill-rule:nonzero;stroke:none"
         d="M 31.996,0.469 C 14.613,0.469 0.477,14.613 0.477,32 l 0,296.008 c 0,17.383 14.136,31.523 31.519,31.523 l 416.008,0 c 17.383,0 31.519,-14.14 31.519,-31.523 l 0,-296.008 c 0,-17.387 -14.136,-31.531 -31.519,-31.531 l -416.008,0 z m 416.008,359.535 -416.008,0 C 14.328,360.004 0,345.676 0,328.008 L 0,32 C 0,14.328 14.328,0 31.996,0 L 448.004,0 C 465.672,0 480,14.328 480,32 l 0,296.008 c 0,17.668 -14.328,31.996 -31.996,31.996" /><path
         id="path3672"
         style="fill:#000000;fill-opacity:1;fill-rule:nonzero;stroke:none"
         d="m 31.996,352.012 c -13.25,0 -23.992,-10.746 -23.992,-24.004 L 8.004,32 C 8.004,18.75 18.746,7.996 31.996,7.996 l 416.008,0 c 13.25,0 24.004,10.754 24.004,24.004 l 0,296.008 c 0,13.258 -10.754,24.004 -24.004,24.004 l -416.008,0 z m 0,-12.008 416.008,0 c 6.629,0 12.004,-5.367 12.004,-11.996 l 0,-296.008 c 0,-6.633 -5.375,-11.996 -12.004,-11.996 l -416.008,0 C 25.379,20.004 20,25.367 20,32 l 0,296.008 c 0,6.629 5.379,11.996 11.996,11.996 z" /><path
         id="path3674"
         style="fill:#000000;fill-opacity:1;fill-rule:nonzero;stroke:none"
         d="m 67.207,234.5 0,52.555 7.402,0 0,-52.555 -7.402,0 z m 36.246,34.121 c 0.418,-0.633 0.707,-1.394 0.867,-2.289 0.157,-0.891 0.235,-1.785 0.235,-2.68 l 0,-29.152 -7.563,0 0,26.395 c 0,2.785 -1.234,4.179 -3.699,4.179 -1.105,0 -1.996,-0.422 -2.68,-1.261 -0.679,-0.844 -0.957,-1.817 -1.023,-2.918 l 0,-26.395 -7.563,0 0,37.508 7.563,0 0,-3.625 c 1.68,2.73 4.019,4.098 7.012,4.098 3.043,0 5.328,-1.29 6.851,-3.86 z m 20.856,-34.121 0,3.863 c -0.735,-1.261 -1.707,-2.3 -2.914,-3.113 -1.207,-0.816 -2.547,-1.223 -4.016,-1.223 -3.414,0 -5.567,0.934 -6.457,2.797 -0.895,1.867 -1.379,3.203 -1.457,4.02 -0.078,0.812 -0.121,1.906 -0.121,3.269 l 0,20.25 c 0,2.258 0.761,4.176 2.285,5.75 1.523,1.578 3.437,2.368 5.75,2.368 1.418,0 2.742,-0.372 3.976,-1.106 1.235,-0.734 2.219,-1.707 2.954,-2.914 l 0,18.594 7.562,0 0,-52.555 -7.562,0 z m -0.551,28.758 c -0.735,1.262 -1.813,1.894 -3.231,1.894 -0.734,0 -1.402,-0.199 -2.007,-0.593 -0.602,-0.395 -1.008,-0.868 -1.219,-1.418 -0.211,-0.551 -0.328,-1.129 -0.356,-1.735 -0.027,-0.601 -0.039,-1.062 -0.039,-1.375 l 0,-13.472 c 0,-0.528 0.012,-1.055 0.039,-1.578 0.028,-0.528 0.274,-1.211 0.746,-2.051 0.473,-0.84 1.446,-1.258 2.918,-1.258 1.52,0 2.52,0.418 2.993,1.258 0.472,0.84 0.707,1.683 0.707,2.523 l 0,14.578 c 0,0.524 -0.012,1.063 -0.039,1.614 -0.028,0.554 -0.196,1.089 -0.512,1.613 z m 29.633,-28.758 0,3.781 c -0.895,-1.363 -1.879,-2.414 -2.953,-3.152 -1.079,-0.734 -2.379,-1.102 -3.899,-1.102 -1.523,0 -2.953,0.418 -4.293,1.262 -1.34,0.84 -2.269,1.797 -2.797,2.875 -0.523,1.074 -0.828,1.957 -0.906,2.641 -0.078,0.679 -0.043,1.683 -0.117,2.996 l 0,28.207 7.562,0 0,-25.375 c 0,-0.574 0.012,-1.168 0.039,-1.77 0.028,-0.605 0.317,-1.3 0.868,-2.089 0.55,-0.79 1.507,-1.184 2.875,-1.184 0.679,0 1.312,0.187 1.886,0.555 0.578,0.367 0.985,0.8 1.219,1.296 0.238,0.5 0.383,1.04 0.437,1.618 0.051,0.578 0.079,1.101 0.079,1.574 l 0,25.375 7.562,0 0,-37.508 -7.562,0 z m 22.191,6.621 c 1.156,0 2.152,0.367 2.992,1.102 0.84,0.734 1.262,1.679 1.262,2.836 0,1.367 -0.356,2.379 -1.063,3.035 -0.711,0.656 -1.824,1.246 -3.351,1.773 l -1.492,0.551 c -1.575,0.578 -2.891,1.141 -3.938,1.695 -1.051,0.551 -2.18,1.547 -3.387,2.993 -1.207,1.445 -1.812,3.531 -1.812,6.265 0,3.098 1.078,5.723 3.23,7.879 2.153,2.152 4.805,3.231 7.954,3.231 2.886,0 5.328,-1.106 7.324,-3.309 1.992,-2.207 2.992,-4.703 2.992,-7.488 l -6.93,0 c 0,1.105 -0.355,2.011 -1.062,2.718 -0.711,0.711 -1.641,1.067 -2.797,1.067 -1.051,0 -1.918,-0.395 -2.598,-1.184 -0.683,-0.789 -1.023,-1.734 -1.023,-2.836 0,-1.156 0.34,-2.05 1.023,-2.679 0.68,-0.633 1.68,-1.184 2.992,-1.657 l 2.442,-0.785 c 1.418,-0.527 2.531,-1.027 3.348,-1.5 0.812,-0.472 1.624,-1.179 2.437,-2.125 0.816,-0.945 1.484,-2.051 2.012,-3.308 0.523,-1.262 0.789,-2.602 0.789,-4.02 0,-3.047 -1.09,-5.715 -3.27,-8 -2.179,-2.281 -4.793,-3.426 -7.84,-3.426 -1.836,0 -3.687,0.5 -5.55,1.496 -1.864,1 -3.309,2.352 -4.332,4.059 -1.024,1.707 -1.536,3.637 -1.536,5.789 l 7.008,0 c 0,-1.152 0.406,-2.141 1.223,-2.953 0.812,-0.813 1.797,-1.219 2.953,-1.219 z m 27.648,0.551 1.735,0 0,-7.172 -2.363,0 c -1.418,0 -2.676,0.145 -3.782,0.434 -1.101,0.289 -2.175,0.879 -3.226,1.773 -1.051,0.895 -1.785,1.879 -2.207,2.953 -0.418,1.078 -0.516,2.406 -0.629,3.981 l 0,22.457 -3.703,0 0,5.91 3.703,0 0,11.344 7.562,0 0,-11.344 4.645,0 0,-5.91 -4.645,0 0,-21.117 c 0,-1.262 0.168,-2.129 0.512,-2.602 0.34,-0.473 1.141,-0.707 2.398,-0.707 z m 24.68,30.809 0,-7.723 c -0.367,0.105 -0.734,0.183 -1.101,0.234 -0.371,0.055 -0.711,0.082 -1.028,0.082 -2.469,0 -4.355,-0.843 -5.668,-2.523 -1.312,-1.68 -1.797,-3.711 -1.968,-6.067 l 0,-21.984 -7.563,0 0,37.508 7.563,0 0,-4.02 c 1.312,1.629 2.925,2.782 4.843,3.465 1.914,0.684 3.555,1.028 4.922,1.028 z m 3.07,-37.981 0,37.508 7.559,0 0,-37.508 -7.559,0 z m 0,45.149 0,7.406 7.559,0 0,-7.406 -7.559,0 z m 24.625,-37.977 c 1.106,0 1.997,0.34 2.68,1.023 0.68,0.684 1.102,1.575 1.258,2.68 l 7.484,0 0,-0.867 c 0,-1.156 -0.25,-2.313 -0.75,-3.469 -0.5,-1.152 -1.535,-2.613 -3.109,-4.371 -1.574,-1.762 -4.043,-2.641 -7.402,-2.641 -2.157,0 -4.137,0.579 -5.95,1.735 -1.812,1.156 -3.058,2.429 -3.742,3.82 -0.679,1.395 -1.113,2.652 -1.297,3.781 -0.183,1.133 -0.277,2.246 -0.277,3.352 l 0,14.262 c 0,3.097 1.117,5.789 3.348,8.074 2.23,2.285 4.898,3.43 7.996,3.43 3.203,0 5.867,-1.118 7.992,-3.352 2.129,-2.23 3.191,-4.949 3.191,-8.152 l 0,-10.403 -14.965,0 0,-5.593 c 0,-0.79 0.379,-1.536 1.141,-2.247 0.762,-0.707 1.563,-1.062 2.402,-1.062 z m 0.161,23.402 c -1,0 -1.868,-0.343 -2.602,-1.027 -0.734,-0.684 -1.102,-1.891 -1.102,-3.621 l 0,-3.703 7.403,0 0,3.703 c 0,1.363 -0.289,2.48 -0.867,3.348 -0.578,0.867 -1.52,1.3 -2.832,1.3 z m 37.449,-40.898 c -1.051,-1.574 -2.391,-2.82 -4.016,-3.742 -1.629,-0.918 -3.359,-1.379 -5.199,-1.379 -3.203,0 -5.945,1.09 -8.23,3.269 -2.286,2.184 -3.426,4.903 -3.426,8.157 l 7.562,0 c 0,-1.051 0.34,-1.942 1.024,-2.68 0.683,-0.735 1.574,-1.102 2.675,-1.102 1.575,0 2.731,0.711 3.465,2.129 0.211,0.524 0.317,1.363 0.317,2.52 l 0,7.015 c -0.735,-1.261 -1.735,-2.3 -2.992,-3.113 -1.262,-0.816 -2.602,-1.223 -4.02,-1.223 -1.52,0 -2.926,0.407 -4.211,1.223 -1.285,0.813 -2.203,1.746 -2.758,2.797 -0.551,1.051 -0.867,1.891 -0.945,2.519 -0.078,0.629 -0.117,1.602 -0.117,2.918 l 0,20.801 c 0,0.946 0.117,1.813 0.355,2.598 0.235,0.789 0.891,1.933 1.969,3.43 1.078,1.496 2.953,2.246 5.633,2.246 1.414,0 2.726,-0.356 3.933,-1.067 1.211,-0.707 2.262,-1.691 3.153,-2.953 l 0,3.469 7.562,0 0,-40.66 c 0,-1.469 -0.117,-2.77 -0.355,-3.899 -0.235,-1.129 -0.696,-2.218 -1.379,-3.273 z m -6.535,39.476 c -0.789,1.055 -1.813,1.579 -3.075,1.579 -1.468,0 -2.429,-0.434 -2.875,-1.301 -0.445,-0.867 -0.695,-1.524 -0.746,-1.969 -0.054,-0.449 -0.078,-0.906 -0.078,-1.379 l 0,-14.262 c 0,-0.738 0.039,-1.328 0.117,-1.773 0.079,-0.449 0.379,-1.039 0.907,-1.773 0.523,-0.735 1.468,-1.102 2.832,-1.102 1.629,0 2.625,0.457 2.996,1.379 0.367,0.918 0.551,1.613 0.551,2.086 0,0.472 0.027,0.867 0.078,1.183 l 0,14.262 c 0,0.734 -0.039,1.313 -0.117,1.731 -0.082,0.421 -0.278,0.867 -0.59,1.339 z m 25.379,-21.98 c 1.105,0 1.996,0.34 2.679,1.023 0.68,0.684 1.102,1.575 1.262,2.68 l 7.48,0 0,-0.867 c 0,-1.156 -0.25,-2.313 -0.75,-3.469 -0.496,-1.152 -1.535,-2.613 -3.109,-4.371 -1.574,-1.762 -4.043,-2.641 -7.402,-2.641 -2.157,0 -4.137,0.579 -5.949,1.735 -1.813,1.156 -3.059,2.429 -3.743,3.82 -0.679,1.395 -1.113,2.652 -1.297,3.781 -0.183,1.133 -0.277,2.246 -0.277,3.352 l 0,14.262 c 0,3.097 1.117,5.789 3.348,8.074 2.23,2.285 4.898,3.43 7.996,3.43 3.203,0 5.867,-1.118 7.996,-3.352 2.125,-2.23 3.187,-4.949 3.187,-8.152 l 0,-10.403 -14.964,0 0,-5.593 c 0,-0.79 0.382,-1.536 1.14,-2.247 0.762,-0.707 1.563,-1.062 2.403,-1.062 z m 0.16,23.402 c -1,0 -1.867,-0.343 -2.602,-1.027 -0.734,-0.684 -1.101,-1.891 -1.101,-3.621 l 0,-3.703 7.402,0 0,3.703 c 0,1.363 -0.289,2.48 -0.867,3.348 -0.574,0.867 -1.52,1.3 -2.832,1.3 z m 31.859,7.407 c 3.094,0 5.117,-0.805 6.063,-2.407 0.945,-1.601 1.496,-2.863 1.656,-3.781 0.156,-0.918 0.234,-1.746 0.234,-2.48 l 0,-20.567 c 0,-1.312 -0.09,-2.418 -0.277,-3.308 -0.184,-0.895 -0.84,-2.102 -1.969,-3.625 -1.129,-1.524 -3.058,-2.286 -5.789,-2.286 -1.469,0 -2.793,0.379 -3.976,1.145 -1.18,0.762 -2.165,1.797 -2.954,3.109 l 0,-3.781 -7.558,0 0,52.555 7.558,0 0,-18.672 c 1.68,2.73 4.016,4.098 7.012,4.098 z m -3.387,-7.407 c -1.05,0 -1.918,-0.422 -2.601,-1.261 -0.68,-0.844 -1.024,-1.813 -1.024,-2.918 l 0,-14.813 c 0,-1.207 0.223,-2.258 0.672,-3.152 0.446,-0.891 1.43,-1.34 2.953,-1.34 1.102,0 2.008,0.328 2.715,0.984 0.711,0.66 1.063,1.407 1.063,2.25 l 0,16.071 c 0,1.211 -0.34,2.207 -1.024,2.996 -0.679,0.789 -1.601,1.183 -2.754,1.183 z m 17.657,-30.574 0,37.508 7.558,0 0,-37.508 -7.558,0 z m 0,45.149 0,7.406 7.558,0 0,-7.406 -7.558,0 z m 24.625,-37.977 c 1.105,0 1.996,0.34 2.679,1.023 0.68,0.684 1.102,1.575 1.258,2.68 l 7.485,0 0,-0.867 c 0,-1.156 -0.25,-2.313 -0.75,-3.469 -0.5,-1.152 -1.536,-2.613 -3.11,-4.371 -1.578,-1.762 -4.043,-2.641 -7.402,-2.641 -2.156,0 -4.137,0.579 -5.949,1.735 -1.813,1.156 -3.059,2.429 -3.743,3.82 -0.679,1.395 -1.113,2.652 -1.296,3.781 -0.184,1.133 -0.278,2.246 -0.278,3.352 l 0,14.262 c 0,3.097 1.117,5.789 3.348,8.074 2.23,2.285 4.894,3.43 7.996,3.43 3.203,0 5.867,-1.118 7.992,-3.352 2.129,-2.23 3.192,-4.949 3.192,-8.152 l 0,-10.403 -14.965,0 0,-5.593 c 0,-0.79 0.379,-1.536 1.14,-2.247 0.762,-0.707 1.563,-1.062 2.403,-1.062 z m 0.16,23.402 c -1,0 -1.867,-0.343 -2.602,-1.027 -0.734,-0.684 -1.101,-1.891 -1.101,-3.621 l 0,-3.703 7.402,0 0,3.703 c 0,1.363 -0.289,2.48 -0.867,3.348 -0.578,0.867 -1.524,1.3 -2.832,1.3 z m 28.469,-23.402 1.734,0 0,-7.172 -2.363,0 c -1.418,0 -2.68,0.145 -3.782,0.434 -1.101,0.289 -2.175,0.879 -3.226,1.773 -1.051,0.895 -1.785,1.879 -2.207,2.953 -0.418,1.078 -0.629,2.403 -0.629,3.981 l 0,22.457 -3.703,0 0,5.91 3.703,0 0,11.344 7.562,0 0,-11.344 4.645,0 0,-5.91 -4.645,0 0,-21.117 c 0,-1.262 0.168,-2.129 0.512,-2.602 0.34,-0.473 1.141,-0.707 2.399,-0.707 z" /><path
         id="path3676"
         style="fill:#000000;fill-opacity:1;fill-rule:nonzero;stroke:none"
         d="m 52.316,161.66 c 0,-0.894 0.036,-1.566 0.106,-2.015 0.07,-0.45 0.426,-1.133 1.062,-2.051 0.637,-0.922 1.801,-1.383 3.496,-1.383 0.946,0 1.817,0.203 2.622,0.602 0.8,0.402 1.386,0.921 1.765,1.558 0.375,0.637 0.578,1.297 0.602,1.981 0.023,0.683 0.035,1.144 0.035,1.379 l 0,3.324 c 0,0.945 -0.035,1.652 -0.106,2.125 -0.07,0.469 -0.355,0.976 -0.851,1.519 -0.492,0.543 -1.199,1.039 -2.121,1.485 -0.918,0.449 -2.52,1.097 -4.805,1.945 -2.289,0.852 -4.211,2.184 -5.766,4 -1.554,1.812 -2.332,4.301 -2.332,7.461 l 0,2.125 c 0,3.203 1.071,5.976 3.215,8.309 2.149,2.335 4.821,3.503 8.028,3.503 3.25,0 5.972,-1.144 8.168,-3.433 2.191,-2.285 5.273,-5.746 3.289,-8.379 l 0,-2.125 -6.719,0 0,2.125 c 0,0.656 -0.047,1.223 -0.141,1.695 -0.093,0.473 -0.472,1.156 -1.133,2.051 -0.66,0.898 -1.769,1.344 -3.324,1.344 -1.367,0 -2.484,-0.481 -3.359,-1.449 -0.871,-0.969 -1.309,-2.18 -1.309,-3.641 l 0,-2.125 c 0,-0.895 0.039,-1.543 0.11,-1.945 0.07,-0.403 0.316,-0.86 0.742,-1.379 0.422,-0.52 1.035,-0.969 1.836,-1.344 0.804,-0.379 2.347,-0.981 4.633,-1.805 2.285,-0.824 4.3,-2.168 6.046,-4.031 1.743,-1.863 2.618,-4.398 2.618,-7.605 l 0,-3.821 c 0,-1.554 -0.157,-2.922 -0.461,-4.101 -0.309,-1.18 -1.262,-2.821 -2.864,-4.918 -1.601,-2.098 -4.359,-3.149 -8.273,-3.149 -4.055,0 -7,1.332 -8.84,3.996 -1.836,2.664 -0.847,6.145 -2.758,8.172 l 0,1.699 6.789,0 0,-1.699 z m 39.746,-2.051 c 0,-2.781 -1.015,-5.164 -3.042,-7.144 -2.028,-1.981 -4.43,-2.973 -7.211,-2.973 -1.508,0 -3.004,0.391 -4.493,1.168 -1.484,0.778 -2.601,1.711 -3.355,2.793 -0.754,1.086 -1.285,2.196 -1.594,3.328 -0.305,1.129 -0.457,2.285 -0.457,3.465 l 0,13.156 c 0,2.786 0.953,5.247 2.863,7.395 1.907,2.144 4.278,3.219 7.106,3.219 2.922,0 5.351,-1.039 7.285,-3.114 1.93,-2.074 2.898,-4.574 2.898,-7.5 l -6.718,0 c 0,1.039 -0.293,1.957 -0.883,2.762 -0.59,0.801 -1.402,1.199 -2.441,1.199 -0.614,0 -1.141,-0.129 -1.59,-0.386 -0.45,-0.258 -0.848,-0.661 -1.203,-1.203 -0.352,-0.543 -0.528,-1.333 -0.528,-2.372 l 0,-13.156 c 0,-1.226 0.258,-2.195 0.778,-2.902 0.519,-0.707 1.39,-1.059 2.613,-1.059 0.992,0 1.781,0.364 2.371,1.094 0.59,0.734 0.883,1.617 0.883,2.656 l 6.718,0 0,-0.426 z m 18.012,24.407 c 1.223,0 2.379,-0.332 3.465,-0.992 1.082,-0.661 1.863,-1.426 2.332,-2.297 0.473,-0.875 0.766,-1.618 0.883,-2.231 0.121,-0.613 0.18,-1.414 0.18,-2.406 l 0,-26.172 -6.789,0 0,23.629 c 0,1.129 -0.262,2.051 -0.778,2.758 -0.519,0.707 -1.344,1.058 -2.476,1.058 -0.989,0 -1.801,-0.386 -2.438,-1.164 -0.637,-0.777 -0.887,-1.664 -0.957,-2.652 l 0,-23.629 -6.785,0 0,47.184 6.785,0 0,-16.766 c 1.559,2.453 3.75,3.68 6.578,3.68 z m 11.274,-34.098 0,33.672 6.789,0 0,-33.672 -6.789,0 z m 0,40.535 0,6.649 6.789,0 0,-6.649 -6.789,0 z m 22.109,-34.097 c 0.992,0 1.793,0.304 2.406,0.918 0.614,0.613 0.133,2.406 1.133,2.406 l 6.715,0 0,-0.778 c 0,-1.039 -0.223,-2.074 -0.672,-3.113 -0.449,-1.035 -1.379,-2.348 -2.793,-3.926 -1.414,-1.582 -3.629,-2.371 -6.644,-2.371 -1.934,0 -3.715,0.52 -5.34,1.559 -1.629,1.035 -2.746,2.18 -3.36,3.43 -0.613,1.25 -1,2.382 -1.168,3.394 -0.164,1.016 -0.246,2.016 -0.246,3.008 l 0,12.805 c 0,2.781 1.004,5.199 3.004,7.25 2.004,2.05 4.399,3.078 7.18,3.078 2.875,0 5.269,-1.004 7.176,-3.008 1.91,-2.004 2.379,-4.484 2.863,-7.32 l 0,-9.34 -13.434,0 0,-5.024 c 0,-0.703 0.34,-1.375 1.024,-2.011 0.683,-0.641 1.402,-0.957 2.156,-0.957 z m 0.145,21.007 c -0.899,0 -1.676,-0.304 -2.336,-0.918 -0.661,-0.613 -0.989,-1.699 -0.989,-3.254 l 0,-3.324 6.645,0 0,3.324 c 0,1.227 -0.258,2.231 -0.777,3.008 -0.516,0.778 -1.368,1.164 -2.543,1.164 z m 34.609,3.188 c 0.379,-0.57 0.641,-1.254 0.781,-2.055 0.141,-0.801 0.211,-1.601 0.211,-2.406 l 0,-26.172 -6.789,0 0,23.695 c 0,2.5 -1.109,3.75 -3.324,3.75 -0.988,0 -1.789,-0.375 -2.402,-1.129 -0.614,-0.757 -0.852,-1.632 -0.918,-2.621 l 0,-23.695 -6.79,0 0,33.672 6.79,0 0,-3.254 c 1.507,2.453 3.605,3.68 6.292,3.68 2.735,0 4.782,-1.157 6.149,-3.465 z m 14.746,-24.195 c 0.988,0 1.793,0.304 2.402,0.918 0.614,0.613 0.993,1.417 1.133,2.406 l 6.719,0 0,-0.778 c 0,-1.039 -0.227,-2.074 -0.672,-3.113 -0.449,-1.035 -1.379,-2.348 -2.793,-3.926 -1.414,-1.582 -3.633,-2.371 -6.648,-2.371 -1.934,0 -3.711,0.52 -5.34,1.559 -1.625,1.035 -2.746,2.18 -3.36,3.43 -0.613,1.25 -1,2.382 -1.164,3.394 -0.164,1.016 -0.246,2.016 -0.246,3.008 l 0,12.805 c 0,2.781 1,5.199 3.004,7.25 2.004,2.05 4.395,3.078 7.176,3.078 2.879,0 5.27,-1.004 7.18,-3.008 1.906,-2.004 2.863,-4.445 2.863,-7.32 l 0,-9.34 -13.438,0 0,-5.024 c 0,-0.703 0.344,-1.375 1.028,-2.011 0.683,-0.641 1.402,-0.957 2.156,-0.957 z m 0.141,21.007 c -0.895,0 -1.672,-0.304 -2.332,-0.918 -0.661,-0.613 -0.993,-1.699 -0.993,-3.254 l 0,-3.324 6.649,0 0,3.324 c 0,1.227 -0.262,2.231 -0.777,3.008 -0.52,0.778 -1.368,1.164 -2.547,1.164 z m 34.613,3.188 c 0.379,-0.57 0.637,-1.254 0.777,-2.055 0.141,-0.801 0.211,-1.601 0.211,-2.406 l 0,-26.172 -6.789,0 0,23.695 c 0,2.5 -1.105,3.75 -3.32,3.75 -0.992,0 -1.793,-0.375 -2.406,-1.129 -0.614,-0.757 -0.852,-1.632 -0.918,-2.621 l 0,-23.695 -6.789,0 0,33.672 6.789,0 0,-3.254 c 1.507,2.453 3.605,3.68 6.293,3.68 2.734,0 4.785,-1.157 6.152,-3.465 z m 6.824,-30.633 0,28.297 -3.324,0 0,5.375 3.324,0 0,4.668 c 0,2.641 0.66,4.598 1.981,5.871 1.316,1.273 2.543,2.09 3.675,2.441 1.133,0.356 2.379,0.532 3.75,0.532 l 2.332,0 0,-6.223 -2.476,0 c -1.649,0 -2.473,-0.875 -2.473,-2.621 l 0,-4.668 4.949,0 0,-5.375 -4.949,0 0,-28.297 -6.789,0 z m 15.301,3.535 c -0.332,0.567 -0.543,1.192 -0.637,1.875 -0.094,0.684 -0.144,1.453 -0.144,2.301 l 0,3.82 c 0,2.5 0.625,4.364 1.875,5.59 1.25,1.223 2.382,2.063 3.394,2.508 1.016,0.449 2.227,0.672 3.641,0.672 l 4.527,0 0,2.902 c 0,0.66 -0.035,1.203 -0.105,1.625 -0.071,0.426 -0.367,0.969 -0.887,1.629 -0.516,0.66 -1.223,0.988 -2.121,0.988 -0.941,0 -1.742,-0.304 -2.402,-0.918 -0.661,-0.613 -1.063,-1.414 -1.204,-2.406 l -6.718,0 c 0,2.735 0.98,5.082 2.937,7.039 1.957,1.957 4.324,2.938 7.106,2.938 2.734,0 5.113,-0.969 7.14,-2.903 2.028,-1.933 3.043,-4.289 3.043,-7.074 l 0,-24.121 -6.789,0 0,3.395 c -0.707,-1.18 -1.59,-2.11 -2.652,-2.793 -1.059,-0.684 -2.25,-1.028 -3.57,-1.028 -2.969,0 -5.114,1.321 -6.434,3.961 z m 6.008,8.067 0,-1.696 c 0,-0.898 0.32,-1.711 0.957,-2.445 0.637,-0.73 1.472,-1.094 2.508,-1.094 0.566,0 1.097,0.141 1.593,0.422 0.493,0.285 0.871,0.672 1.129,1.168 0.258,0.496 0.403,1.133 0.426,1.91 0.023,0.778 0.035,1.332 0.035,1.664 l 0,3.254 -2.547,0 c -1.226,0 -2.215,-0.234 -2.968,-0.707 -0.754,-0.472 -1.133,-1.297 -1.133,-2.476 z m 32.691,22.496 c 1.227,0 2.379,-0.332 3.465,-0.992 1.086,-0.661 1.863,-1.426 2.332,-2.297 0.473,-0.875 0.766,-1.618 0.887,-2.231 0.117,-0.613 0.176,-1.414 0.176,-2.406 l 0,-26.172 -6.79,0 0,23.629 c 0,1.129 -0.257,2.051 -0.777,2.758 -0.519,0.707 -1.344,1.058 -2.473,1.058 -0.992,0 -1.804,-0.386 -2.441,-1.164 -0.637,-0.777 -0.953,-1.664 -0.953,-2.652 l 0,-23.629 -6.789,0 0,47.184 6.789,0 0,-16.766 c 1.555,2.453 3.746,3.68 6.574,3.68 z m 26.832,0 0,-6.934 c 0,-0.344 -0.66,0.164 -0.992,0.211 -0.328,0.047 -0.637,0.07 -0.918,0.07 -2.215,0 -3.914,-0.754 -5.09,-2.261 -1.179,-1.508 -1.769,-3.325 -1.769,-5.45 l 0,-19.734 -6.789,0 0,33.672 6.789,0 0,-3.609 c 1.179,1.464 2.629,2.5 4.347,3.113 1.723,0.613 3.196,0.922 4.422,0.922 z m 2.778,-34.098 0,5.59 10.816,22.281 -10.039,0 0,5.801 17.609,0 0,-4.879 -10.82,-22.355 10.82,0 0,-6.438 -18.386,0 z m 30.761,6.438 c 0.992,0 1.793,0.304 2.406,0.918 0.61,0.613 0.989,1.417 1.129,2.406 l 6.719,0 0,-0.778 c 0,-1.039 -0.222,-2.074 -0.672,-3.113 -0.449,-1.035 -1.379,-2.348 -2.793,-3.926 -1.414,-1.582 -3.629,-2.371 -6.644,-2.371 -1.934,0 -3.715,0.52 -5.34,1.559 -1.629,1.035 -2.746,2.18 -3.359,3.43 -0.614,1.25 -1.004,2.382 -1.168,3.394 -0.164,1.016 -0.246,2.016 -0.246,3.008 l 0,12.805 c 0,2.781 1,5.199 3.003,7.25 2.004,2.05 4.399,3.078 7.18,3.078 2.875,0 5.266,-1.004 7.176,-3.008 1.91,-2.004 2.379,-4.484 2.863,-7.32 l 0,-9.34 -13.433,0 0,-5.024 c 0,-0.703 0.339,-1.375 1.023,-2.011 0.684,-0.641 1.402,-0.957 2.156,-0.957 z m 0.145,21.007 c -0.899,0 -1.676,-0.304 -2.336,-0.918 -0.66,-0.613 -0.988,-1.699 -0.988,-3.254 l 0,-3.324 6.644,0 0,3.324 c 0,1.227 -0.258,2.231 -0.777,3.008 -0.52,0.778 -1.367,1.164 -2.543,1.164 z m 27.355,-27.445 0,3.395 c -0.801,-1.227 -1.687,-2.168 -2.652,-2.829 -0.969,-0.66 -2.133,-0.992 -3.5,-0.992 -1.367,0 -2.652,0.379 -3.856,1.133 -1.199,0.754 -2.035,1.613 -2.507,2.582 -0.473,0.965 -0.743,1.754 -0.817,2.367 -0.07,0.614 -0.105,1.512 -0.105,2.692 l 0,25.324 6.789,0 0,-22.777 c 0,-0.52 0.012,-1.051 0.035,-1.594 0.027,-0.543 0.285,-1.168 0.781,-1.875 0.492,-0.707 1.352,-1.059 2.578,-1.059 0.614,0 1.18,0.164 1.696,0.496 0.519,0.328 0.882,0.719 1.097,1.164 0.211,0.45 0.34,0.934 0.387,1.45 0.051,0.519 0.074,0.992 0.074,1.418 l 0,22.777 6.789,0 0,-33.672 -6.789,0 z m 30.906,-9.269 c -0.945,-1.415 -2.148,-2.536 -3.605,-3.36 -1.461,-0.824 -3.019,-1.238 -4.668,-1.238 -2.875,0 -5.34,0.98 -7.391,2.937 -2.05,1.957 -3.074,4.399 -3.074,7.321 l 6.789,0 c 0,-0.942 0.305,-1.746 0.918,-2.407 0.614,-0.656 1.414,-0.988 2.403,-0.988 1.414,0 2.453,0.637 3.113,1.91 0.187,0.473 0.281,1.227 0.281,2.262 l 0,6.297 c -0.66,-1.129 -1.555,-2.063 -2.687,-2.793 -1.129,-0.731 -2.332,-1.098 -3.606,-1.098 -1.367,0 -2.629,0.367 -3.781,1.098 -1.156,0.73 -1.981,1.566 -2.477,2.512 -0.496,0.941 -0.777,1.695 -0.847,2.261 -0.071,0.567 -0.106,1.442 -0.106,2.621 l 0,18.672 c 0,0.852 0.106,1.629 0.317,2.336 0.214,0.707 0.8,1.735 1.769,3.078 0.965,1.344 2.652,2.016 5.055,2.016 1.273,0 2.449,-0.32 3.535,-0.957 1.086,-0.637 2.195,-3.883 2.828,-2.652 l 0,3.113 6.789,0 0,-36.504 c 0,-1.316 -0.105,-2.484 -0.316,-3.5 -0.215,-1.012 -0.625,-1.992 -1.239,-2.937 z m -5.871,35.441 c -1.179,0 -1.625,1.418 -2.757,1.418 -1.321,0 -2.18,-0.391 -2.582,-1.168 -0.399,-0.777 -0.622,-1.367 -0.668,-1.77 -0.047,-0.402 -0.071,-0.812 -0.071,-1.238 l 0,-12.805 c 0,-0.66 0.035,-1.191 0.106,-1.589 0.07,-0.403 0.34,-0.934 0.812,-1.594 0.473,-0.66 1.321,-0.988 2.543,-0.988 1.461,0 2.36,0.414 2.688,1.238 0.332,0.824 0.496,1.449 0.496,1.875 0,0.426 0.023,0.777 0.07,1.058 l 0,12.805 c 0,0.66 -0.035,1.18 -0.105,1.559 -0.071,0.375 -1.039,1.199 -0.532,1.199 z m 22.789,-19.734 c 0.989,0 1.793,0.304 2.403,0.918 0.613,0.613 0.992,1.417 1.133,2.406 l 6.718,0 0,-0.778 c 0,-1.039 -0.226,-2.074 -0.672,-3.113 -0.449,-1.035 -1.378,-2.348 -2.792,-3.926 -1.415,-1.582 -3.633,-2.371 -6.649,-2.371 -1.933,0 -3.711,0.52 -5.34,1.559 -1.625,1.035 -2.746,2.18 -3.359,3.43 -0.61,1.25 -1,2.382 -1.164,3.394 -0.164,1.016 -0.246,2.016 -0.246,3.008 l 0,12.805 c 0,2.781 1,5.199 3.004,7.25 2.004,2.05 4.394,3.078 7.175,3.078 2.879,0 5.27,-1.004 7.18,-3.008 1.906,-2.004 2.863,-4.445 2.863,-7.32 l 0,-9.34 -13.433,0 0,-5.024 c 0,-0.703 0.34,-1.375 1.023,-2.011 0.684,-0.641 1.403,-0.957 2.156,-0.957 z m 0.141,21.007 c -0.894,0 -1.672,-0.304 -2.332,-0.918 -0.66,-0.613 -0.988,-1.699 -0.988,-3.254 l 0,-3.324 6.644,0 0,3.324 c 0,1.227 -0.257,2.231 -0.777,3.008 -0.52,0.778 -1.367,1.164 -2.547,1.164 z" /><path
         id="path3678"
         style="fill:#000000;fill-opacity:1;fill-rule:nonzero;stroke:none"
         d="m 102.336,112.82 c 1.226,0 2.383,-0.332 3.469,-0.992 1.082,-0.66 1.859,-1.426 2.332,-2.297 0.472,-0.875 0.765,-1.617 0.883,-2.23 0.117,-0.613 0.175,-1.414 0.179,-2.406 l 0,-26.172 -6.789,0 0,23.629 c 0,1.129 -0.262,2.05 -0.781,2.757 -0.516,0.707 -1.34,1.063 -2.473,1.063 -0.988,0 -1.801,-0.391 -2.437,-1.168 -0.637,-0.777 -0.891,-1.664 -0.957,-2.652 l 0,-23.629 -6.789,0 0,47.183 6.789,0 0,-16.765 c 1.554,2.453 3.746,3.679 6.574,3.679 z m 13.09,-30.562 c -0.328,0.566 -0.543,1.191 -0.637,1.875 -0.094,0.687 -0.141,1.453 -0.141,2.301 l 0,3.82 c 0,2.5 0.625,4.363 1.875,5.59 1.247,1.222 2.379,2.062 3.395,2.508 1.012,0.449 2.227,0.672 3.641,0.672 l 4.523,0 0,2.902 c 0,0.66 -0.035,1.203 -0.105,1.625 -0.071,0.426 -0.364,0.969 -0.883,1.629 -0.52,0.66 -1.227,0.992 -2.121,0.992 -0.946,0 -1.746,-0.309 -2.407,-0.922 -0.66,-0.613 -1.058,-1.414 -1.199,-2.406 l -6.719,0 c 0,2.734 0.977,5.082 2.934,7.039 1.957,1.957 4.324,2.937 7.106,2.937 2.734,0 5.117,-0.968 7.144,-2.902 2.027,-1.934 3.223,-4.297 3.039,-7.074 l 0,-24.121 -6.789,0 0,3.394 c -0.707,-1.176 -1.59,-2.109 -2.648,-2.793 -1.063,-0.683 -2.254,-1.027 -3.575,-1.027 -2.968,0 -5.113,1.32 -6.433,3.961 z m 6.012,8.066 0,-1.695 c 0,-0.898 0.316,-1.711 0.953,-2.441 0.636,-0.735 1.472,-1.098 2.507,-1.098 0.567,0 1.098,0.141 1.594,0.422 0.496,0.285 0.871,0.672 1.133,1.168 0.258,0.496 0.398,1.133 0.422,1.91 0.023,0.781 0.18,1.367 0.035,1.664 l 0,3.254 -2.547,0 c -1.223,0 -2.215,-0.234 -2.969,-0.707 -0.754,-0.473 -1.128,-1.297 -1.128,-2.477 z m 32.476,22.496 c 2.781,0 4.598,-0.718 5.445,-2.16 0.848,-1.437 1.344,-2.57 1.485,-3.394 0.14,-0.825 0.215,-1.567 0.215,-2.227 l 0,-18.465 c 0,-1.179 -0.086,-2.168 -0.25,-2.968 -0.164,-0.805 -0.754,-1.887 -1.77,-3.258 -1.012,-1.367 -2.746,-2.051 -5.195,-2.051 -1.321,0 -2.512,0.344 -3.571,1.027 -1.062,0.684 -1.945,1.617 -2.652,2.793 l 0,-3.394 -6.789,0 0,47.183 6.789,0 0,-16.765 c 1.508,2.453 3.606,3.679 6.293,3.679 z m -3.039,-6.648 c -0.945,0 -1.723,-0.379 -2.332,-1.133 -0.613,-0.758 -0.922,-1.629 -0.922,-2.617 l 0,-13.301 c 0,-1.086 0.203,-2.027 0.602,-2.828 0.402,-0.805 1.285,-1.203 2.652,-1.203 0.988,0 1.801,0.293 2.437,0.883 0.637,0.59 0.958,1.261 0.958,2.019 l 0,14.43 c 0,1.082 -0.309,1.98 -0.922,2.687 -0.614,0.707 -1.438,1.063 -2.473,1.063 z M 174.531,85.16 c 0.989,0 1.789,0.305 2.403,0.918 0.613,0.613 0.988,1.418 1.132,2.406 l 6.719,0 0,-0.777 c 0,-1.035 -0.226,-2.074 -0.676,-3.113 -0.445,-1.035 -1.379,-2.348 -2.793,-3.926 -1.414,-1.582 -3.628,-2.371 -6.644,-2.371 -1.934,0 -3.715,0.519 -5.34,1.559 -1.625,1.035 -2.746,2.179 -3.359,3.429 -0.614,1.25 -1,2.383 -1.164,3.395 -0.168,1.015 -0.25,2.015 -0.25,3.008 l 0,12.804 c 0,2.782 1.003,5.199 3.007,7.25 2,2.051 4.395,3.078 7.176,3.078 2.875,0 5.27,-1.004 7.18,-3.007 1.906,-2.004 2.863,-4.446 2.863,-7.321 l 0,-9.336 -13.437,0 0,-5.027 c 0,-0.703 0.343,-1.375 1.027,-2.012 0.684,-0.636 1.402,-0.957 2.156,-0.957 z m 0.141,21.012 c -0.895,0 -1.676,-0.309 -2.332,-0.922 -0.66,-0.613 -0.992,-1.699 -0.992,-3.254 l 0,-3.324 6.648,0 0,3.324 c 0,1.227 -0.262,2.231 -0.777,3.008 -0.52,0.777 -1.367,1.168 -2.547,1.168 z m 33.012,3.184 c 0.378,-0.567 0.636,-1.254 0.777,-2.055 0.144,-0.801 0.215,-1.602 0.215,-2.406 l 0,-26.172 -6.789,0 0,23.699 c 0,2.5 -1.11,3.75 -3.325,3.75 -0.988,0 -1.792,-0.379 -2.402,-1.133 -0.613,-0.758 -0.922,-1.629 -0.922,-2.617 l 0,-23.699 -6.789,0 0,33.672 6.789,0 0,-3.254 c 1.512,2.453 3.61,3.679 6.297,3.679 2.731,0 4.781,-1.156 6.149,-3.464 z" /><path
         id="path3680"
         style="fill:#000000;fill-opacity:1;fill-rule:nonzero;stroke:none"
         d="m 243.836,78.297 -9.613,47.184 7.066,0 5.449,-32.75 5.582,32.75 7.145,0 -9.832,-47.184 -5.797,0 z m 19.129,30.207 c 0.988,1.227 2.156,2.18 3.5,2.863 1.344,0.684 2.793,1.028 4.347,1.028 1.743,0 3.29,-0.321 4.633,-0.957 1.344,-0.637 2.602,-1.731 3.782,-3.289 1.179,-1.555 1.769,-3.583 1.769,-6.083 l 0,-13.441 c 0,-2.547 -0.566,-4.586 -1.699,-6.117 -1.129,-1.535 -2.402,-2.688 -3.817,-3.469 -1.414,-0.777 -2.851,-1.168 -4.312,-1.168 -2.027,0 -3.879,0.508 -5.551,1.524 -1.676,1.011 -2.832,2.144 -3.469,3.394 -0.636,1.25 -1.023,2.289 -1.164,3.113 -0.14,0.825 -0.211,1.735 -0.211,2.723 l 0,13.441 c 0,2.547 0.731,4.692 2.192,6.438 z m 7.988,-2.688 c -1.035,0 -1.859,-0.355 -2.473,-1.062 -0.613,-0.707 -0.918,-1.602 -0.918,-2.688 l 0,-13.441 c 0,-1.086 0.293,-2.016 0.883,-2.793 0.59,-0.781 1.426,-1.168 2.508,-1.168 1.461,0 2.371,0.426 2.723,1.274 0.355,0.847 0.531,1.793 0.531,2.832 l 0,13.296 c 0,1.04 -0.293,1.922 -0.883,2.653 -0.59,0.73 -1.379,1.097 -2.371,1.097 z m 29.402,6.579 0,-6.934 c -0.328,0.094 -0.656,0.164 -0.988,0.211 -0.328,0.051 -0.637,0.074 -0.918,0.074 -2.219,0 -3.914,-0.758 -5.094,-2.265 -1.175,-1.508 -1.937,-3.332 -1.765,-5.446 l 0,-19.738 -6.789,0 0,33.676 6.789,0 0,-3.614 c 1.18,1.465 2.629,2.5 4.348,3.114 1.722,0.613 3.195,0.922 4.417,0.922 z m 19.75,0 0,-6.934 c -0.328,0.094 -0.66,0.164 -0.988,0.211 -0.332,0.051 -0.637,0.074 -0.922,0.074 -2.215,0 -3.91,-0.758 -5.09,-2.265 -1.179,-1.508 -1.937,-3.332 -1.765,-5.446 l 0,-19.738 -6.789,0 0,33.676 6.789,0 0,-3.614 c 1.176,1.465 2.625,2.5 4.348,3.114 1.718,0.613 3.191,0.922 4.417,0.922 z m 2.805,-30.563 c -0.328,0.57 -0.543,1.195 -0.637,1.879 -0.093,0.684 -0.14,1.449 -0.14,2.297 l 0,3.82 c 0,2.5 0.625,4.363 1.875,5.59 1.25,1.227 2.379,2.063 3.394,2.508 1.012,0.449 2.227,0.672 3.641,0.672 l 4.523,0 0,2.902 c 0,0.66 -0.035,1.203 -0.105,1.629 -0.07,0.422 -0.363,0.965 -0.883,1.625 -0.519,0.66 -1.226,0.992 -2.121,0.992 -0.941,0 -1.746,-0.308 -2.406,-0.922 -0.66,-0.613 -1.059,-1.414 -1.199,-2.402 l -6.719,0 c 0,2.734 0.976,5.078 2.933,7.035 1.957,1.957 4.329,2.938 7.106,2.938 2.734,0 5.117,-0.969 7.144,-2.903 2.028,-1.933 2.856,-4.297 3.039,-7.07 l 0,-24.125 -6.789,0 0,3.394 c -0.703,-1.175 -1.589,-2.109 -2.648,-2.792 -1.063,-0.684 -2.254,-1.028 -3.574,-1.028 -2.969,0 -5.114,1.32 -6.434,3.961 z m 6.012,8.067 0,-1.696 c 0,-0.898 0.316,-1.711 0.953,-2.441 0.637,-0.735 1.473,-1.098 2.512,-1.098 0.566,0 1.097,0.141 1.59,0.422 0.496,0.285 0.871,0.672 1.132,1.168 0.258,0.496 0.399,1.133 0.422,1.91 0.024,0.781 -0.109,1.367 0.035,1.664 l 0,3.254 -2.546,0 c -1.223,0 -2.215,-0.234 -2.969,-0.707 -0.754,-0.473 -1.129,-1.297 -1.129,-2.476 z m 36.887,19.031 c 0.379,-0.567 0.636,-1.254 0.777,-2.055 0.144,-0.801 0.215,-1.601 0.215,-2.402 l 0,-26.176 -6.789,0 0,23.699 c 0,2.5 -1.11,3.75 -3.324,3.75 -0.989,0 -1.79,-0.379 -2.403,-1.133 -0.613,-0.754 -0.988,-1.629 -0.922,-2.617 l 0,-23.699 -6.789,0 0,33.676 6.789,0 0,-3.258 c 1.512,2.453 3.61,3.68 6.297,3.68 2.731,0 4.781,-1.157 6.149,-3.465 z M 389.32,69.031 c -0.941,-1.418 -2.144,-2.535 -3.605,-3.363 -1.461,-0.824 -3.016,-1.238 -4.668,-1.238 -2.875,0 -5.336,0.98 -7.387,2.937 -2.051,1.957 -3.078,4.399 -3.078,7.324 l 6.789,0 c 0,-0.945 0.309,-1.746 0.918,-2.406 0.613,-0.66 1.418,-0.992 2.406,-0.992 1.414,0 2.45,0.637 3.11,1.91 0.191,0.473 0.285,1.227 0.285,2.266 l 0,6.297 c -0.66,-1.133 -1.559,-2.067 -2.688,-2.797 -1.132,-0.731 -2.336,-1.098 -3.609,-1.098 -1.363,0 -2.625,0.367 -3.781,1.098 -1.153,0.73 -1.977,1.566 -2.473,2.512 -0.496,0.945 -0.781,1.699 -0.851,2.261 -0.071,0.567 -0.106,1.442 -0.106,2.621 l 0,18.672 c 0,0.852 0.106,1.629 0.32,2.336 0.211,0.707 0.801,1.735 1.766,3.078 0.969,1.344 2.652,2.016 5.059,2.016 1.269,0 2.449,-0.316 3.535,-0.953 1.082,-0.641 2.195,-3.887 2.828,-2.653 l 0,3.114 6.789,0 0,-36.504 c 0,-1.32 -0.106,-2.488 -0.32,-3.504 -0.211,-1.012 -0.625,-1.992 -1.239,-2.934 z m -5.867,35.442 c -0.707,0.941 -1.629,1.414 -2.758,1.414 -1.32,0 -2.183,-0.391 -2.582,-1.168 -0.402,-0.778 -0.625,-1.367 -0.672,-1.77 -0.046,-0.398 -0.07,-0.812 -0.07,-1.238 l 0,-12.805 c 0,-0.66 0.035,-1.191 0.106,-1.59 0.07,-0.402 0.343,-0.933 0.816,-1.589 0.469,-0.661 1.316,-0.993 2.543,-0.993 1.461,0 2.355,0.415 2.687,1.239 0.329,0.824 0.497,1.449 0.497,1.875 0,0.426 0.07,0.773 0.07,1.058 l 0,12.805 c 0,0.66 -0.035,1.18 -0.11,1.559 -0.07,0.375 -0.246,0.777 -0.527,1.203 z" /></g></g></svg>