<?xml version="1.0" encoding="UTF-8" standalone="no"?>
<svg
   xmlns:dc="http://purl.org/dc/elements/1.1/"
   xmlns:cc="http://creativecommons.org/ns#"
   xmlns:rdf="http://www.w3.org/1999/02/22-rdf-syntax-ns#"
   xmlns:svg="http://www.w3.org/2000/svg"
   xmlns="http://www.w3.org/2000/svg"
   viewBox="0 0 600 330"
   height="330"
   width="600"
   xml:space="preserve"
   version="1.1"
   id="svg3690"><metadata
     id="metadata3696"><rdf:RDF><cc:Work
         rdf:about=""><dc:format>image/svg+xml</dc:format><dc:type
           rdf:resource="http://purl.org/dc/dcmitype/StillImage" /><dc:title></dc:title></cc:Work></rdf:RDF></metadata><defs
     id="defs3694"><clipPath
       id="clipPath3708"
       clipPathUnits="userSpaceOnUse"><path
         id="path3710"
         d="M 0,0 480,0 480,264 0,264 0,0 Z" /></clipPath></defs><g
     transform="matrix(1.25,0,0,-1.25,0,330)"
     id="g3698"><g
       id="g3700"><g
         id="g3702"><g
           id="g3704"><g
             clip-path="url(#clipPath3708)"
             id="g3706"><g
               id="g3712"><path
                 id="path3714"
                 style="fill:#ffffff;fill-opacity:1;fill-rule:nonzero;stroke:none"
                 d="m 31.996,263.758 c -17.512,0 -31.754,-14.254 -31.754,-31.766 l 0,-199.996 C 0.242,14.484 14.484,0.242 31.996,0.242 l 416.008,0 c 17.512,0 31.754,14.242 31.754,31.754 l 0,199.996 c 0,17.512 -14.242,31.766 -31.754,31.766" /><path
                 id="path3716"
                 style="fill:#000000;fill-opacity:1;fill-rule:nonzero;stroke:none"
                 d="M 31.996,0.484 C 14.613,0.484 0.484,14.613 0.484,31.996 l 0,199.996 c 0,17.383 14.129,31.524 31.512,31.524 l 416.008,0 c 17.383,0 31.512,-14.141 31.512,-31.524 l 0,-199.996 c 0,-17.383 -14.129,-31.512 -31.512,-31.512 l -416.008,0 z M 448.004,264 31.996,264 C 14.32,264 0,249.672 0,231.992 L 0,31.996 C 0,14.328 14.32,0 31.996,0 L 448.004,0 C 465.672,0 480,14.328 480,31.996 l 0,199.996 C 480,249.672 465.672,264 448.004,264" /></g></g></g></g><path
         id="path3718"
         style="fill:#000000;fill-opacity:1;fill-rule:nonzero;stroke:none"
         d="m 31.996,19.996 416.008,0 c 6.629,0 12,5.371 12,12 l 0,199.996 c 0,6.629 -5.371,12 -12,12 l -416.008,0 c -6.629,0 -12,-5.371 -12,-12 l 0,-199.996 c 0,-6.629 5.371,-12 12,-12 z m 0,-12 c -13.258,0 -24,10.742 -24,24 l 0,199.996 c 0,13.258 10.742,24 24,24 l 416.008,0 c 13.258,0 24,-10.742 24,-24 l 0,-199.996 c 0,-13.258 -10.742,-24 -24,-24" /><path
         id="path3720"
         style="fill:#000000;fill-opacity:1;fill-rule:nonzero;stroke:none"
         d="m 57.469,147.797 0,63.555 9.105,0 0,-38.024 0.18,0 10.98,19.727 9.102,0 -10.801,-18.391 13.035,-26.867 -9.91,0 -8.211,19.551 -4.375,-6.875 0,-12.676 -9.105,0 z" /><path
         id="path3722"
         style="fill:#000000;fill-opacity:1;fill-rule:nonzero;stroke:none"
         d="m 117.449,166.988 -18.031,0 0,-6.156 c 0,-1.43 0.387,-2.531 1.16,-3.305 0.836,-0.773 1.934,-1.16 3.305,-1.16 1.426,0 2.437,0.356 3.035,1.071 0.594,0.714 1.012,1.488 1.25,2.32 0.059,0.18 0.086,0.359 0.086,0.539 0.062,0.234 0.09,0.445 0.09,0.621 l 9.105,0 c 0,-1.844 -0.328,-3.629 -0.98,-5.356 -0.598,-1.664 -1.489,-3.093 -2.68,-4.281 -1.191,-1.25 -2.617,-2.234 -4.285,-2.945 -1.664,-0.656 -3.539,-0.984 -5.621,-0.984 -2.738,0 -5.149,0.566 -7.231,1.695 -2.023,1.191 -3.57,2.769 -4.64,4.73 -0.598,1.192 -1.043,2.559 -1.34,4.11 -0.238,1.547 -0.36,3.242 -0.36,5.086 l 0,14.906 c 0,1.844 0.122,3.543 0.36,5.09 0.297,1.605 0.742,2.972 1.34,4.105 1.07,1.961 2.617,3.539 4.64,4.731 2.082,1.191 4.493,1.785 7.231,1.785 4.222,0 7.527,-1.371 9.906,-4.106 2.441,-2.679 3.66,-6.011 3.66,-10 l 0,-12.496 z m -18.031,12.321 0,-5.18 8.926,0 0,5.18 c 0,1.726 -0.414,3.003 -1.25,3.836 -0.774,0.894 -1.844,1.339 -3.211,1.339 -1.371,0 -2.469,-0.445 -3.305,-1.339 -0.773,-0.833 -1.16,-2.11 -1.16,-3.836 z" /><path
         id="path3724"
         style="fill:#000000;fill-opacity:1;fill-rule:nonzero;stroke:none"
         d="m 122.641,147.797 0,45.258 9.105,0 0,-45.258 -9.105,0 z m 0,54.449 0,9.106 9.105,0 0,-9.106 -9.105,0 z" /><path
         id="path3726"
         style="fill:#000000;fill-opacity:1;fill-rule:nonzero;stroke:none"
         d="m 139.203,147.797 0,45.258 9.106,0 0,-4.375 0.179,0 c 0.95,1.429 2.082,2.59 3.391,3.48 1.367,0.953 3.094,1.43 5.176,1.43 l 0.715,0 c 2.144,-0.18 4.105,-1.102 5.89,-2.77 1.844,-1.664 2.77,-4.429 2.77,-8.3 l 0,-34.723 -9.106,0 0,31.332 c 0,1.668 -0.386,2.976 -1.16,3.926 -0.773,0.953 -1.875,1.429 -3.305,1.429 -1.664,0 -2.855,-0.535 -3.57,-1.605 -0.652,-1.07 -0.98,-2.621 -0.98,-4.641 l 0,-30.441 -9.106,0 z" /><path
         id="path3728"
         style="fill:#000000;fill-opacity:1;fill-rule:nonzero;stroke:none"
         d="m 200.23,166.988 -18.031,0 0,-6.156 c 0,-1.43 0.387,-2.531 1.16,-3.305 0.832,-0.773 1.934,-1.16 3.301,-1.16 1.43,0 2.442,0.356 3.035,1.071 0.598,0.714 1.012,1.488 1.25,2.32 0.059,0.18 0.09,0.359 0.09,0.539 0.059,0.234 0.09,0.445 0.09,0.621 l 9.105,0 c 0,-1.844 -0.328,-3.629 -0.984,-5.356 -0.594,-1.664 -1.488,-3.093 -2.676,-4.281 -1.191,-1.25 -2.621,-2.234 -4.285,-2.945 -1.668,-0.656 -3.543,-0.984 -5.625,-0.984 -2.738,0 -5.144,0.566 -7.23,1.695 -2.024,1.191 -3.571,2.769 -4.641,4.73 -0.594,1.192 -1.043,2.559 -1.34,4.11 -0.238,1.547 -0.355,3.242 -0.355,5.086 l 0,14.906 c 0,1.844 0.117,3.543 0.355,5.09 0.297,1.605 0.746,2.972 1.34,4.105 1.07,1.961 2.617,3.539 4.641,4.731 2.086,1.191 4.492,1.785 7.23,1.785 4.227,0 7.528,-1.371 9.91,-4.106 2.438,-2.679 3.66,-6.011 3.66,-10 l 0,-12.496 z m -18.031,12.321 0,-5.18 8.926,0 0,5.18 c 0,1.726 -0.418,3.003 -1.25,3.836 -0.773,0.894 -1.844,1.339 -3.215,1.339 -1.367,0 -2.469,-0.445 -3.301,-1.339 -0.773,-0.833 -1.16,-2.11 -1.16,-3.836 z" /><path
         id="path3730"
         style="fill:#000000;fill-opacity:1;fill-rule:nonzero;stroke:none"
         d="m 269.738,211.352 -9.461,-63.555 -8.57,0 -6.961,41.238 -0.18,0 -6.875,-41.238 -8.566,0 -9.461,63.555 9.637,0 4.554,-40.344 0.176,0 7.145,40.344 6.961,0 7.41,-41.329 0.176,0 4.375,41.329 9.64,0 z" /><path
         id="path3732"
         style="fill:#000000;fill-opacity:1;fill-rule:nonzero;stroke:none"
         d="m 299.832,166.988 -18.031,0 0,-6.156 c 0,-1.43 0.387,-2.531 1.16,-3.305 0.832,-0.773 1.934,-1.16 3.305,-1.16 1.425,0 2.437,0.356 3.035,1.071 0.594,0.714 1.008,1.488 1.246,2.32 0.062,0.18 0.09,0.359 0.09,0.539 0.062,0.234 0.09,0.445 0.09,0.621 l 9.105,0 c 0,-1.844 -0.328,-3.629 -0.98,-5.356 -0.598,-1.664 -1.489,-3.093 -2.68,-4.281 -1.192,-1.25 -2.617,-2.234 -4.285,-2.945 -1.664,-0.656 -3.539,-0.984 -5.621,-0.984 -2.739,0 -5.149,0.566 -7.231,1.695 -2.023,1.191 -3.57,2.769 -4.644,4.73 -0.594,1.192 -1.039,2.559 -1.336,4.11 -0.239,1.547 -0.36,3.242 -0.36,5.086 l 0,14.906 c 0,1.844 0.121,3.543 0.36,5.09 0.297,1.605 0.742,2.972 1.336,4.105 1.074,1.961 2.621,3.539 4.644,4.731 2.082,1.191 4.492,1.785 7.231,1.785 4.222,0 7.527,-1.371 9.906,-4.106 2.441,-2.679 3.66,-6.011 3.66,-10 l 0,-12.496 z m -18.031,12.321 0,-5.18 8.926,0 0,5.18 c 0,1.726 -0.418,3.003 -1.25,3.836 -0.774,0.894 -1.844,1.339 -3.211,1.339 -1.371,0 -2.473,-0.445 -3.305,-1.339 -0.773,-0.833 -1.16,-2.11 -1.16,-3.836 z" /><path
         id="path3734"
         style="fill:#000000;fill-opacity:1;fill-rule:nonzero;stroke:none"
         d="m 303.512,147.797 0,45.258 9.105,0 0,-4.375 0.176,0 c 0.953,1.429 2.082,2.59 3.395,3.48 1.367,0.953 3.093,1.43 5.175,1.43 l 0.715,0 c 2.141,-0.18 4.106,-1.102 5.891,-2.77 1.843,-1.664 2.765,-4.429 2.765,-8.3 l 0,-34.723 -9.101,0 0,31.332 c 0,1.668 -0.387,2.976 -1.164,3.926 -0.774,0.953 -1.871,1.429 -3.301,1.429 -1.668,0 -2.856,-0.535 -3.57,-1.605 -0.657,-1.07 -0.981,-2.621 -0.981,-4.641 l 0,-30.441 -9.105,0 z" /><path
         id="path3736"
         style="fill:#000000;fill-opacity:1;fill-rule:nonzero;stroke:none"
         d="m 354.723,147.797 0,4.109 c -0.176,-0.238 -0.356,-0.449 -0.535,-0.625 -0.176,-0.179 -0.356,-0.386 -0.536,-0.625 -0.953,-0.953 -1.992,-1.758 -3.125,-2.41 -1.07,-0.598 -2.558,-0.894 -4.461,-0.894 -1.843,0 -3.421,0.328 -4.73,0.984 -1.309,0.652 -2.383,1.723 -3.215,3.211 -0.535,1.012 -0.922,2.262 -1.16,3.75 -0.238,1.488 -0.356,3.48 -0.356,5.98 l 0,17.227 c 0,3.273 0.09,5.684 0.266,7.23 0.18,1.547 0.567,2.797 1.16,3.75 0.774,1.188 1.758,2.172 2.946,2.946 1.25,0.773 2.976,1.16 5.179,1.16 1.785,0 3.391,-0.418 4.821,-1.25 1.425,-0.774 2.617,-1.906 3.57,-3.391 l 0.176,0 0,22.403 9.105,0 0,-63.555 -9.105,0 z m -9.016,31.332 0,-16.602 c 0,-1.843 0.359,-3.332 1.074,-4.465 0.711,-1.128 1.844,-1.695 3.391,-1.695 1.367,0 2.469,0.508 3.301,1.52 0.836,1.07 1.25,2.437 1.25,4.105 l 0,17.582 c 0,1.43 -0.446,2.59 -1.336,3.481 -0.836,0.953 -1.907,1.429 -3.215,1.429 -1.727,0 -2.914,-0.535 -3.57,-1.605 -0.594,-1.07 -0.895,-2.32 -0.895,-3.75 z" /><path
         id="path3738"
         style="fill:#000000;fill-opacity:1;fill-rule:nonzero;stroke:none"
         d="m 397.629,166.988 -18.031,0 0,-6.156 c 0,-1.43 0.386,-2.531 1.16,-3.305 0.836,-0.773 1.933,-1.16 3.304,-1.16 1.426,0 2.438,0.356 3.036,1.071 0.593,0.714 1.011,1.488 1.25,2.32 0.058,0.18 0.086,0.359 0.086,0.539 0.062,0.234 0.089,0.445 0.089,0.621 l 9.106,0 c 0,-1.844 -0.328,-3.629 -0.981,-5.356 -0.597,-1.664 -1.488,-3.093 -2.679,-4.281 -1.188,-1.25 -2.617,-2.234 -4.285,-2.945 -1.664,-0.656 -3.539,-0.984 -5.622,-0.984 -2.738,0 -5.148,0.566 -7.23,1.695 -2.023,1.191 -3.57,2.769 -4.641,4.73 -0.597,1.192 -1.043,2.559 -1.339,4.11 -0.239,1.547 -0.36,3.242 -0.36,5.086 l 0,14.906 c 0,1.844 0.121,3.543 0.36,5.09 0.296,1.605 0.742,2.972 1.339,4.105 1.071,1.961 2.618,3.539 4.641,4.731 2.082,1.191 4.492,1.785 7.23,1.785 4.223,0 7.528,-1.371 9.907,-4.106 2.441,-2.679 3.66,-6.011 3.66,-10 l 0,-12.496 z m -18.031,12.321 0,-5.18 8.925,0 0,5.18 c 0,1.726 -0.414,3.003 -1.25,3.836 -0.773,0.894 -1.843,1.339 -3.211,1.339 -1.371,0 -2.468,-0.445 -3.304,-1.339 -0.774,-0.833 -1.16,-2.11 -1.16,-3.836 z" /><path
         id="path3740"
         style="fill:#000000;fill-opacity:1;fill-rule:nonzero;stroke:none"
         d="m 403,177.074 26.867,0 0,-9.102 -26.867,0 0,9.102 z" /><path
         id="path3742"
         style="fill:#000000;fill-opacity:1;fill-rule:nonzero;stroke:none"
         d="m 83.102,52.418 0,45.254 9.105,0 0,-4.375 0.176,0 c 0.953,1.43 2.082,2.59 3.394,3.484 1.368,0.949 3.094,1.426 5.176,1.426 1.902,0 3.481,-0.445 4.731,-1.34 1.308,-0.89 2.378,-1.871 3.214,-2.945 0,-0.059 0.028,-0.117 0.09,-0.176 0.059,0 0.086,-0.031 0.086,-0.09 1.133,1.25 2.383,2.321 3.75,3.211 1.43,0.895 3.332,1.34 5.715,1.34 0.297,0 0.594,-0.027 0.891,-0.09 0.297,0 0.593,-0.027 0.894,-0.09 2.024,-0.355 3.867,-1.398 5.531,-3.121 1.727,-1.668 2.59,-4.258 2.59,-7.765 l 0,-34.723 -9.105,0 0,31.328 c 0,1.668 -0.387,2.977 -1.16,3.93 -0.774,0.953 -1.875,1.426 -3.301,1.426 -1.668,0 -2.859,-0.536 -3.57,-1.606 -0.657,-1.07 -0.985,-2.617 -0.985,-4.641 l 0,-30.437 -9.101,0 0,31.328 c 0,1.668 -0.387,2.977 -1.164,3.93 -0.774,0.953 -1.871,1.426 -3.301,1.426 -1.668,0 -2.856,-0.536 -3.57,-1.606 -0.657,-1.07 -0.981,-2.617 -0.981,-4.641 l 0,-30.437 -9.105,0 z" /><path
         id="path3744"
         style="fill:#000000;fill-opacity:1;fill-rule:nonzero;stroke:none"
         d="m 133.578,67.59 0,14.906 c 0,1.848 0.121,3.543 0.36,5.09 0.296,1.605 0.742,2.976 1.339,4.105 1.071,1.965 2.618,3.539 4.641,4.731 2.082,1.191 4.492,1.785 7.23,1.785 2.797,0 5.207,-0.594 7.231,-1.785 2.023,-1.192 3.57,-2.766 4.641,-4.731 0.652,-1.129 1.101,-2.5 1.339,-4.105 0.239,-1.547 0.356,-3.242 0.356,-5.09 l 0,-14.906 c 0,-1.844 -0.117,-3.539 -0.356,-5.086 -0.238,-1.547 -0.687,-2.918 -1.339,-4.106 -1.071,-1.964 -2.618,-3.543 -4.641,-4.73 -2.024,-1.133 -4.434,-1.699 -7.231,-1.699 -2.738,0 -5.148,0.566 -7.23,1.699 -2.023,1.187 -3.57,2.766 -4.641,4.73 -0.597,1.188 -1.043,2.559 -1.339,4.106 -0.239,1.547 -0.36,3.242 -0.36,5.086 z m 9.106,16.336 0,-17.762 c 0,-1.668 0.386,-2.945 1.16,-3.84 0.832,-0.89 1.933,-1.34 3.304,-1.34 1.368,0 2.438,0.45 3.211,1.34 0.836,0.895 1.25,2.172 1.25,3.84 l 0,17.762 c 0,1.726 -0.414,3.004 -1.25,3.84 -0.773,0.89 -1.843,1.336 -3.211,1.336 -1.371,0 -2.472,-0.446 -3.304,-1.336 -0.774,-0.836 -1.16,-2.114 -1.16,-3.84 z m -6.782,20.797 0,9.105 8.032,0 0,-9.105 -8.032,0 z m 14.457,0 0,9.105 8.036,0 0,-9.105 -8.036,0 z" /><path
         id="path3746"
         style="fill:#000000;fill-opacity:1;fill-rule:nonzero;stroke:none"
         d="m 165.848,47.152 9.105,0 0,-0.359 c 0.18,-1.012 0.656,-1.934 1.43,-2.766 0.832,-0.836 1.965,-1.25 3.39,-1.25 1.489,0 2.559,0.477 3.215,1.426 0.653,0.895 0.981,2.055 0.981,3.485 l 0,8.835 -0.18,0 c -0.949,-1.488 -2.141,-2.617 -3.57,-3.39 -1.426,-0.778 -3.063,-1.164 -4.907,-1.164 -1.847,0 -3.421,0.328 -4.734,0.984 -1.308,0.652 -2.379,1.727 -3.211,3.211 -0.535,1.012 -0.922,2.262 -1.16,3.75 -0.238,1.488 -0.359,3.481 -0.359,5.981 l 0,17.226 c 0,3.274 0.09,5.684 0.269,7.231 0.18,1.546 0.567,2.796 1.16,3.75 0.774,1.191 1.754,2.171 2.946,2.945 1.25,0.773 2.976,1.16 5.175,1.16 1.848,0 3.305,-0.328 4.375,-0.98 1.133,-0.598 2.145,-1.399 3.036,-2.411 0.179,-0.179 0.355,-0.386 0.535,-0.625 0.238,-0.179 0.445,-0.386 0.625,-0.625 l 0,4.106 9.105,0 0,-50.789 c 0,-0.297 -0.031,-0.625 -0.09,-0.981 0,-0.418 -0.031,-0.804 -0.089,-1.16 -0.415,-2.797 -1.727,-5.328 -3.926,-7.59 -2.145,-2.32 -5.328,-3.48 -9.551,-3.48 -0.535,0 -1.07,0.031 -1.609,0.09 -0.536,0.058 -1.071,0.148 -1.606,0.265 -2.379,0.539 -4.582,1.848 -6.605,3.93 -2.024,2.023 -3.274,5.117 -3.75,9.281 l 0,-0.086 z m 9.105,35.793 0,-16.605 c 0,-1.426 0.297,-2.676 0.895,-3.746 0.652,-1.074 1.843,-1.61 3.57,-1.61 1.309,0 2.379,0.45 3.211,1.34 0.894,0.953 1.34,2.145 1.34,3.571 l 0,17.585 c 0,1.665 -0.418,3.004 -1.25,4.016 -0.832,1.07 -1.934,1.606 -3.301,1.606 -1.547,0 -2.68,-0.563 -3.395,-1.696 -0.711,-1.129 -1.07,-2.617 -1.07,-4.461 z" /><path
         id="path3748"
         style="fill:#000000;fill-opacity:1;fill-rule:nonzero;stroke:none"
         d="m 200.008,64.555 0,51.414 9.105,0 0,-50.789 c 0,-1.664 0.297,-2.825 0.891,-3.481 0.656,-0.652 1.844,-1.07 3.57,-1.25 l 0,-8.566 c -4.164,0.058 -7.469,0.859 -9.906,2.41 -2.441,1.605 -3.66,5.027 -3.66,10.262 z" /><path
         id="path3750"
         style="fill:#000000;fill-opacity:1;fill-rule:nonzero;stroke:none"
         d="m 218.703,52.418 0,45.254 9.106,0 0,-45.254 -9.106,0 z m 0,54.449 0,9.102 9.106,0 0,-9.102 -9.106,0 z" /><path
         id="path3752"
         style="fill:#000000;fill-opacity:1;fill-rule:nonzero;stroke:none"
         d="m 243.309,83.926 0,-18.477 c 0,-1.429 0.386,-2.531 1.16,-3.304 0.832,-0.774 1.933,-1.161 3.301,-1.161 1.429,0 2.441,0.36 3.035,1.075 0.593,0.711 1.011,1.484 1.25,2.32 0.058,0.176 0.09,0.355 0.09,0.535 0.058,0.238 0.089,0.445 0.089,0.625 l 9.102,0 c 0,-1.844 -0.324,-3.629 -0.981,-5.355 -0.593,-1.668 -1.488,-3.094 -2.679,-4.286 -1.188,-1.25 -2.617,-2.23 -4.281,-2.945 -1.668,-0.656 -3.543,-0.984 -5.625,-0.984 -2.739,0 -5.149,0.566 -7.231,1.699 -2.023,1.187 -3.57,2.766 -4.641,4.73 -0.593,1.188 -1.043,2.559 -1.339,4.106 -0.239,1.547 -0.356,3.242 -0.356,5.086 l 0,14.906 c 0,1.848 0.117,3.543 0.356,5.09 0.296,1.605 0.746,2.976 1.339,4.105 1.071,1.965 2.618,3.539 4.641,4.731 2.082,1.191 4.492,1.785 7.231,1.785 4.226,0 7.527,-1.367 9.906,-4.105 2.441,-2.68 3.66,-6.129 3.66,-10.356 l -9.102,0 c 0,1.848 -0.418,3.184 -1.25,4.02 -0.773,0.89 -1.847,1.336 -3.214,1.336 -1.368,0 -2.469,-0.446 -3.301,-1.336 -0.774,-0.836 -1.16,-2.114 -1.16,-3.84 z" /><path
         id="path3754"
         style="fill:#000000;fill-opacity:1;fill-rule:nonzero;stroke:none"
         d="m 265.746,52.418 0,63.551 9.102,0 0,-22.672 0.179,0 c 0.953,1.43 2.082,2.59 3.391,3.484 1.371,0.949 3.098,1.426 5.18,1.426 l 0.714,0 c 2.141,-0.18 4.106,-1.102 5.891,-2.766 1.844,-1.668 2.766,-4.433 2.766,-8.3 l 0,-34.723 -9.106,0 0,31.328 c 0,1.668 -0.386,2.977 -1.16,3.93 -0.773,0.953 -1.875,1.426 -3.301,1.426 -1.668,0 -2.855,-0.536 -3.57,-1.606 -0.656,-1.07 -0.984,-2.617 -0.984,-4.641 l 0,-30.437 -9.102,0 z" /><path
         id="path3756"
         style="fill:#000000;fill-opacity:1;fill-rule:nonzero;stroke:none"
         d="m 298.836,52.418 0,63.551 9.105,0 0,-38.024 0.18,0 10.981,19.727 9.101,0 -10.801,-18.387 13.036,-26.867 -9.911,0 -8.211,19.547 -4.375,-6.871 0,-12.676 -9.105,0 z" /><path
         id="path3758"
         style="fill:#000000;fill-opacity:1;fill-rule:nonzero;stroke:none"
         d="m 358.816,71.609 -18.031,0 0,-6.16 c 0,-1.429 0.387,-2.531 1.16,-3.304 0.836,-0.774 1.934,-1.161 3.305,-1.161 1.426,0 2.438,0.36 3.035,1.075 0.594,0.711 1.012,1.484 1.25,2.32 0.059,0.176 0.086,0.355 0.086,0.535 0.063,0.238 0.09,0.445 0.09,0.625 l 9.105,0 c 0,-1.844 -0.328,-3.629 -0.98,-5.355 -0.598,-1.668 -1.488,-3.094 -2.68,-4.286 -1.187,-1.25 -2.617,-2.23 -4.285,-2.945 -1.664,-0.656 -3.539,-0.984 -5.621,-0.984 -2.738,0 -5.148,0.566 -7.23,1.699 -2.024,1.187 -3.571,2.766 -4.641,4.73 -0.598,1.188 -1.043,2.559 -1.34,4.106 -0.238,1.547 -0.359,3.242 -0.359,5.086 l 0,14.906 c 0,1.848 0.121,3.543 0.359,5.09 0.297,1.605 0.742,2.976 1.34,4.105 1.07,1.965 2.617,3.539 4.641,4.731 2.082,1.191 4.492,1.785 7.23,1.785 4.223,0 7.527,-1.367 9.906,-4.105 2.442,-2.68 3.66,-6.012 3.66,-9.997 l 0,-12.496 z m -18.031,12.317 0,-5.176 8.926,0 0,5.176 c 0,1.726 -0.414,3.004 -1.25,3.84 -0.773,0.89 -1.844,1.336 -3.211,1.336 -1.371,0 -2.469,-0.446 -3.305,-1.336 -0.773,-0.836 -1.16,-2.114 -1.16,-3.84 z" /><path
         id="path3760"
         style="fill:#000000;fill-opacity:1;fill-rule:nonzero;stroke:none"
         d="m 365.609,52.418 0,45.254 9.106,0 0,-45.254 -9.106,0 z m 0,54.449 0,9.102 9.106,0 0,-9.102 -9.106,0 z" /><path
         id="path3762"
         style="fill:#000000;fill-opacity:1;fill-rule:nonzero;stroke:none"
         d="m 382.172,97.672 0,13.746 9.105,0 0,-13.746 5.621,0 0,-7.141 -5.621,0 0,-25.082 c 0,-2.082 0.414,-3.363 1.246,-3.84 0.895,-0.414 2.352,-0.625 4.375,-0.625 l 0,-8.566 -3.75,0 c -3.507,0 -6.097,0.863 -7.765,2.586 -1.664,1.785 -2.676,3.75 -3.031,5.894 l -0.18,1.071 0,28.562 -4.555,0 0,7.141 4.555,0 z" /></g></g></svg>