<?xml version="1.0" encoding="UTF-8" standalone="no"?>
<svg
   xmlns:dc="http://purl.org/dc/elements/1.1/"
   xmlns:cc="http://creativecommons.org/ns#"
   xmlns:rdf="http://www.w3.org/1999/02/22-rdf-syntax-ns#"
   xmlns:svg="http://www.w3.org/2000/svg"
   xmlns="http://www.w3.org/2000/svg"
   viewBox="0 0 600 450.005"
   height="450.005"
   width="600"
   xml:space="preserve"
   version="1.1"
   id="svg14938"><metadata
     id="metadata14944"><rdf:RDF><cc:Work
         rdf:about=""><dc:format>image/svg+xml</dc:format><dc:type
           rdf:resource="http://purl.org/dc/dcmitype/StillImage" /><dc:title></dc:title></cc:Work></rdf:RDF></metadata><defs
     id="defs14942"><clipPath
       id="clipPath14960"
       clipPathUnits="userSpaceOnUse"><path
         id="path14962"
         d="m 0,360.004 480,0 0,-355.465 -480,0 0,355.465 z" /></clipPath><clipPath
       id="clipPath14970"
       clipPathUnits="userSpaceOnUse"><path
         id="path14972"
         d="m 45,71 390,0 0,220 -390,0 0,-220 z" /></clipPath></defs><g
     transform="matrix(1.25,0,0,-1.25,0,450.005)"
     id="g14946"><g
       id="g14948"><path
         id="path14950"
         style="fill:#ffffff;fill-opacity:1;fill-rule:nonzero;stroke:none"
         d="m 31.996,359.774 c -17.504,0 -31.754,-14.25 -31.754,-31.766 L 0.242,32 c 0,-17.508 14.25,-31.758 31.754,-31.758 l 416.008,0 c 17.516,0 31.766,14.25 31.766,31.758 l 0,296.008 c 0,17.516 -14.25,31.766 -31.766,31.766" /><path
         id="path14952"
         style="fill:#000000;fill-opacity:1;fill-rule:nonzero;stroke:none"
         d="M 31.996,0.469 C 14.613,0.469 0.477,14.613 0.477,32 l 0,296.008 c 0,17.383 14.136,31.523 31.519,31.523 l 416.008,0 c 17.383,0 31.519,-14.14 31.519,-31.523 l 0,-296.008 c 0,-17.387 -14.136,-31.531 -31.519,-31.531 l -416.008,0 z m 416.008,359.535 -416.008,0 C 14.328,360.004 0,345.676 0,328.008 L 0,32 C 0,14.328 14.328,0 31.996,0 L 448.004,0 C 465.672,0 480,14.328 480,32 l 0,296.008 c 0,17.668 -14.328,31.996 -31.996,31.996" /><path
         id="path14954"
         style="fill:#000000;fill-opacity:1;fill-rule:nonzero;stroke:none"
         d="m 31.996,352.012 c -13.25,0 -23.992,-10.746 -23.992,-24.004 L 8.004,32 C 8.004,18.75 18.746,7.996 31.996,7.996 l 416.008,0 c 13.25,0 24.004,10.754 24.004,24.004 l 0,296.008 c 0,13.258 -10.754,24.004 -24.004,24.004 l -416.008,0 z m 0,-12.008 416.008,0 c 6.629,0 12.004,-5.367 12.004,-11.996 l 0,-296.008 c 0,-6.633 -5.375,-11.996 -12.004,-11.996 l -416.008,0 C 25.379,20.004 20,25.367 20,32 l 0,296.008 c 0,6.629 5.379,11.996 11.996,11.996 z" /></g><g
       id="g14956"><g
         clip-path="url(#clipPath14960)"
         id="g14958"><g
           transform="translate(0,-0.996002)"
           id="g14964"><g
             id="g14966"><g
               clip-path="url(#clipPath14970)"
               id="g14968"><g
                 id="g14974"><path
                   id="path14976"
                   style="fill:#000000;fill-opacity:1;fill-rule:nonzero;stroke:none"
                   d="m 53.777,240.484 0,50.473 7.649,0 0,-21.633 20.683,0 0,21.633 7.649,0 0,-50.473 -7.649,0 0,22.082 -20.683,0 0,-22.082 -7.649,0 z" /><path
                   id="path14978"
                   style="fill:#000000;fill-opacity:1;fill-rule:nonzero;stroke:none"
                   d="m 127.547,240.484 -7.195,0 0,3.715 c -1.27,-2.297 -3.68,-3.715 -6.305,-3.715 l -4.496,0 c -5.957,0 -10.789,4.84 -10.789,10.821 0,5.968 4.832,10.808 10.789,10.808 l 10.801,0 0,3.614 c 0,1.961 -1.414,3.656 -3.356,3.992 -2.543,0.437 -5.141,0.437 -7.695,0 -1.27,-0.219 -2.348,-1.039 -2.918,-2.192 l -5.692,4.504 c 1.707,2.528 4.364,4.27 7.371,4.781 3.372,0.602 6.817,0.602 10.172,0 5.387,-0.937 9.313,-5.617 9.313,-11.085 l 0,-25.243 z m -7.195,15.782 -10.348,0 c -2.484,0 -4.496,-2.02 -4.496,-4.52 0,-2.488 2.012,-4.504 4.496,-4.504 l 5.851,0 c 2.481,0 4.497,2.016 4.497,4.504 l 0,4.52 z" /><path
                   id="path14980"
                   style="fill:#000000;fill-opacity:1;fill-rule:nonzero;stroke:none"
                   d="m 139.242,240.484 0,30.2 -3.605,0 0,5.851 3.605,0 0,5.41 c 0,4.973 4.028,9.012 8.992,9.012 l 5.399,0 0,-6.758 -4.949,0 c -1.239,0 -2.246,-1.011 -2.246,-2.254 l 0,-5.41 7.195,0 0,-5.851 -7.195,0 0,-30.2 -7.196,0 z" /><path
                   id="path14982"
                   style="fill:#000000;fill-opacity:1;fill-rule:nonzero;stroke:none"
                   d="m 189.621,255.809 -22.496,0 0,-0.907 c 0,-3.132 1.914,-5.953 4.816,-7.109 4,-1.609 8.571,-0.484 11.371,2.793 l 5.461,-4.695 c -4.8,-5.614 -12.656,-7.547 -19.515,-4.797 -5.637,2.269 -9.328,7.738 -9.328,13.808 l 0,7.211 c 0,8.219 6.656,14.871 14.843,14.871 8.204,0 14.848,-6.652 14.848,-14.871 l 0,-6.304 z m -22.496,6.304 15.297,0 c 0,4.239 -3.43,7.66 -7.649,7.66 -4.218,0 -7.648,-3.421 -7.648,-7.66" /><path
                   id="path14984"
                   style="fill:#000000;fill-opacity:1;fill-rule:nonzero;stroke:none"
                   d="m 199.516,240.484 0,36.051 7.195,0 0,-4.066 c 4.219,5.222 11.867,6.039 17.078,1.812 2.863,-2.308 4.512,-5.789 4.512,-9.461 l 0,-24.336 -7.196,0 0,22.082 c 0,3.981 -3.226,7.211 -7.195,7.211 -3.972,0 -7.199,-3.23 -7.199,-7.211 l 0,-22.082 -7.195,0 z" /><path
                   id="path14986"
                   style="fill:#000000;fill-opacity:1;fill-rule:nonzero;stroke:none"
                   d="m 266.988,276.539 0,-36.504 c 0,-5.469 -3.082,-10.457 -7.957,-12.898 -6.875,-3.453 -15.222,-1.637 -20.07,4.328 l 5.59,4.551 c 2.715,-3.352 7.402,-4.36 11.254,-2.43 2.441,1.215 3.988,3.715 3.988,6.449 l 0,4.52 c -4.219,-5.223 -11.867,-6.039 -17.078,-1.813 -2.863,2.309 -4.512,5.793 -4.512,9.461 l 0,12.621 c 0,6.715 5.43,12.168 12.145,12.168 3.664,0 7.136,-1.664 9.445,-4.515 l 0,4.062 7.195,0 z m -7.195,-22.082 0,8.102 c 0,3.992 -3.227,7.226 -7.199,7.226 -3.969,0 -7.196,-3.234 -7.196,-7.226 l 0,-8.102 c 0,-3.98 3.227,-7.211 7.196,-7.211 3.972,0 7.199,3.231 7.199,7.211" /><path
                   id="path14988"
                   style="fill:#000000;fill-opacity:1;fill-rule:nonzero;stroke:none"
                   d="m 306.57,255.809 -22.492,0 0,-0.907 c 0,-3.132 1.91,-5.953 4.801,-7.109 4.016,-1.609 8.582,-0.484 11.387,2.793 l 5.461,-4.695 c -4.805,-5.614 -12.657,-7.547 -19.52,-4.797 -5.633,2.269 -9.328,7.738 -9.328,13.808 l 0,7.211 c 0,8.219 6.644,14.871 14.848,14.871 8.203,0 14.843,-6.652 14.843,-14.871 l 0,-6.304 z m -22.492,6.304 15.297,0 c 0,4.239 -3.43,7.66 -7.648,7.66 -4.219,0 -7.649,-3.421 -7.649,-7.66" /><path
                   id="path14990"
                   style="fill:#000000;fill-opacity:1;fill-rule:nonzero;stroke:none"
                   d="m 316.465,240.484 0,50.473 7.199,0 0,-18.488 c 4.219,5.222 11.867,6.039 17.078,1.812 2.86,-2.308 4.512,-5.789 4.512,-9.461 l 0,-12.621 c 0,-6.715 -5.434,-12.168 -12.145,-12.168 -3.664,0 -7.14,1.668 -9.445,4.52 l 0,-4.067 -7.199,0 z m 7.199,13.981 c 0,-3.992 3.227,-7.223 7.195,-7.223 3.969,0 7.196,3.231 7.196,7.223 l 0,8.101 c 0,3.981 -3.227,7.211 -7.196,7.211 -3.968,0 -7.195,-3.23 -7.195,-7.211 l 0,-8.101 z" /><path
                   id="path14992"
                   style="fill:#000000;fill-opacity:1;fill-rule:nonzero;stroke:none"
                   d="m 355.152,276.539 7.196,0 0,-36.051 -7.196,0 0,36.051 z m 0,14.422 7.196,0 0,-7.211 -7.196,0 0,7.211 z" /><path
                   id="path14994"
                   style="fill:#000000;fill-opacity:1;fill-rule:nonzero;stroke:none"
                   d="m 401.93,255.809 -22.496,0 0,-0.907 c 0,-3.132 1.914,-5.953 4.816,-7.109 4,-1.609 8.57,-0.484 11.371,2.793 l 5.461,-4.695 c -4.801,-5.614 -12.656,-7.547 -19.516,-4.797 -5.621,2.269 -9.328,7.738 -9.328,13.808 l 0,7.211 c 0,8.219 6.657,14.871 14.844,14.871 8.207,0 14.848,-6.652 14.848,-14.871 l 0,-6.304 z m -22.496,6.304 15.3,0 c 0,4.239 -3.433,7.66 -7.652,7.66 -4.219,0 -7.648,-3.421 -7.648,-7.66" /><path
                   id="path14996"
                   style="fill:#000000;fill-opacity:1;fill-rule:nonzero;stroke:none"
                   d="m 426.219,240.484 -4.496,0 c -4.465,0 -8.102,3.625 -8.102,8.118 l 0,22.082 -3.59,0 0,5.851 3.59,0 0,10.824 7.195,0 0,-10.824 5.403,0 0,-5.851 -5.403,0 0,-21.192 c 0,-1.242 1.008,-2.25 2.25,-2.25 l 3.153,0 0,-6.758 z" /><path
                   id="path14998"
                   style="fill:#000000;fill-opacity:1;fill-rule:nonzero;stroke:none"
                   d="m 45.68,167.578 6.394,0 0,-2.398 c 0,-2.442 1.973,-4.418 4.395,-4.418 l 0.41,0 c 2.422,0 4.391,1.976 4.391,4.418 l 0,4.797 c 0,1.796 -1.079,3.421 -2.743,4.082 l -5.707,2.324 c -4.074,1.652 -6.746,5.617 -6.746,10.019 l 0,2.805 c 0,5.969 4.848,10.824 10.805,10.824 5.953,0 10.801,-4.855 10.801,-10.824 l 0,-2.398 -6.41,0 0,2.398 c 0,2.43 -1.969,4.402 -4.391,4.402 -2.426,0 -4.395,-1.972 -4.395,-4.402 l 0,-2.805 c 0,-1.8 1.078,-3.41 2.743,-4.082 l 5.707,-2.312 c 4.074,-1.653 6.746,-5.613 6.746,-10.031 l 0,-4.797 c 0,-5.981 -4.848,-10.825 -10.801,-10.825 l -0.41,0 c -5.957,0 -10.789,4.844 -10.789,10.825 l 0,2.398 z" /><path
                   id="path15000"
                   style="fill:#000000;fill-opacity:1;fill-rule:nonzero;stroke:none"
                   d="m 91.66,164.367 0,-0.394 c 0,-5.309 -4.289,-9.621 -9.59,-9.621 -5.297,0 -9.605,4.312 -9.605,9.621 l 0,13.617 c 0,5.308 4.308,9.609 9.605,9.609 5.301,0 9.59,-4.301 9.59,-9.609 l 0,-0.395 -6.394,0 0,0.395 c 0,1.769 -1.43,3.203 -3.196,3.203 -1.765,0 -3.195,-1.434 -3.195,-3.203 l 0,-13.617 c 0,-1.77 1.43,-3.203 3.195,-3.203 1.766,0 3.196,1.433 3.196,3.203 l 0,0.394 6.394,0 z" /><path
                   id="path15002"
                   style="fill:#000000;fill-opacity:1;fill-rule:nonzero;stroke:none"
                   d="m 95.66,154.754 0,44.871 6.395,0 0,-16.027 c 1.765,3.32 5.883,4.578 9.195,2.808 2.219,-1.187 3.605,-3.496 3.605,-6.011 l 0,-25.641 -6.394,0 0,22.832 c 0,1.769 -1.445,3.203 -3.211,3.203 -1.766,0 -3.195,-1.434 -3.195,-3.203 l 0,-22.832 -6.395,0 z" /><path
                   id="path15004"
                   style="fill:#000000;fill-opacity:1;fill-rule:nonzero;stroke:none"
                   d="m 121.246,186.801 6.395,0 0,-32.047 -6.395,0 0,32.047 z m 0,12.824 6.395,0 0,-6.406 -6.395,0 0,6.406 z" /><path
                   id="path15006"
                   style="fill:#000000;fill-opacity:1;fill-rule:nonzero;stroke:none"
                   d="m 153.234,163.973 c 0,-5.309 -4.289,-9.625 -9.589,-9.625 -5.297,0 -9.606,4.316 -9.606,9.625 l 0,13.617 c 0,5.308 4.309,9.621 9.606,9.621 5.3,0 9.589,-4.313 9.589,-9.621 l 0,-9.215 -12.8,0 0,-4.402 c 0,-1.77 1.445,-3.203 3.211,-3.203 1.765,0 3.195,1.433 3.195,3.203 l 6.394,0 z m -12.8,9.609 6.406,0 0,4.008 c 0,1.769 -1.43,3.203 -3.195,3.203 -1.766,0 -3.211,-1.434 -3.211,-3.203 l 0,-4.008 z" /><path
                   id="path15008"
                   style="fill:#000000;fill-opacity:1;fill-rule:nonzero;stroke:none"
                   d="m 158.836,154.754 0,32.047 6.391,0 0,-3.203 c 1.769,3.32 5.882,4.578 9.199,2.808 2.219,-1.187 3.605,-3.496 3.605,-6.011 l 0,-25.641 -6.41,0 0,22.832 c 0,1.769 -1.43,3.203 -3.195,3.203 -1.766,0 -3.199,-1.434 -3.199,-3.203 l 0,-22.832 -6.391,0 z" /><path
                   id="path15010"
                   style="fill:#000000;fill-opacity:1;fill-rule:nonzero;stroke:none"
                   d="m 202.816,163.973 c 0,-5.309 -4.293,-9.625 -9.589,-9.625 -5.301,0 -9.606,4.316 -9.606,9.625 l 0,13.617 c 0,5.308 4.305,9.621 9.606,9.621 5.296,0 9.589,-4.313 9.589,-9.621 l 0,-9.215 -12.8,0 0,-4.402 c 0,-1.77 1.429,-3.203 3.211,-3.203 1.765,0 3.195,1.433 3.195,3.203 l 6.394,0 z m -12.8,9.609 6.406,0 0,4.008 c 0,1.769 -1.43,3.203 -3.195,3.203 -1.782,0 -3.211,-1.434 -3.211,-3.203 l 0,-4.008 z" /><path
                   id="path15012"
                   style="fill:#000000;fill-opacity:1;fill-rule:nonzero;stroke:none"
                   d="m 208.414,154.754 0,32.047 6.391,0 0,-3.203 c 1.765,3.32 5.883,4.578 9.199,2.808 2.219,-1.187 3.605,-3.496 3.605,-6.011 l 0,-25.641 -6.394,0 0,22.832 c 0,1.769 -1.445,3.203 -3.211,3.203 -1.766,0 -3.199,-1.434 -3.199,-3.203 l 0,-22.832 -6.391,0 z" /><path
                   id="path15014"
                   style="fill:#000000;fill-opacity:1;fill-rule:nonzero;stroke:none"
                   d="m 234.801,154.754 0,26.84 -3.196,0 0,5.207 3.196,0 0,4.812 c 0,4.43 3.578,8.012 8,8.012 l 3.195,0 0,-6.012 -2.801,0 c -1.093,0 -2,-0.89 -2,-2 l 0,-4.812 4.801,0 0,-5.207 -4.801,0 0,-26.84 -6.394,0 z" /><path
                   id="path15016"
                   style="fill:#000000;fill-opacity:1;fill-rule:nonzero;stroke:none"
                   d="m 268.387,154.754 -6.395,0 0,3.203 c -1.765,-3.316 -5.883,-4.574 -9.195,-2.805 -2.219,1.184 -3.606,3.493 -3.606,6.008 l 0,4.813 c 0,4.433 3.575,8.015 8,8.015 l 4.801,0 0,3.598 c 0,1.769 -1.43,3.203 -3.195,3.203 -1.766,0 -3.199,-1.434 -3.199,-3.203 l -6.407,0 c 0,5.309 4.305,9.625 9.606,9.625 5.297,0 9.59,-4.316 9.59,-9.625 l 0,-22.832 z m -6.395,14.027 -3.195,0 c -1.766,0 -3.199,-1.433 -3.199,-3.203 l 0,-1.609 c 0,-1.77 1.433,-3.203 3.199,-3.203 1.765,0 3.195,1.433 3.195,3.203 l 0,4.812 z" /><path
                   id="path15018"
                   style="fill:#000000;fill-opacity:1;fill-rule:nonzero;stroke:none"
                   d="m 274.785,154.754 0,44.871 6.395,0 0,-16.027 c 1.765,3.32 5.882,4.578 9.195,2.808 2.219,-1.187 3.605,-3.496 3.605,-6.011 l 0,-25.641 -6.41,0 0,22.832 c 0,1.769 -1.429,3.203 -3.195,3.203 -1.766,0 -3.195,-1.434 -3.195,-3.203 l 0,-22.832 -6.395,0 z" /><path
                   id="path15020"
                   style="fill:#000000;fill-opacity:1;fill-rule:nonzero;stroke:none"
                   d="m 300.375,154.754 0,32.047 6.395,0 0,-3.613 c 2.058,2.542 5.136,4.023 8.39,4.023 l 0,-6.742 c -3.355,1.109 -6.961,-0.719 -8.07,-4.082 -0.203,-0.645 -0.32,-1.317 -0.32,-2.004 l 0,-19.629 -6.395,0 z" /><path
                   id="path15022"
                   style="fill:#000000;fill-opacity:1;fill-rule:nonzero;stroke:none"
                   d="m 317.566,154.754 0,5.207 10.395,21.238 -9.594,0 0,5.602 16.789,0 0,-4.797 -10.394,-21.238 10.394,0 0,-6.012 -17.59,0 z" /><path
                   id="path15024"
                   style="fill:#000000;fill-opacity:1;fill-rule:nonzero;stroke:none"
                   d="m 358.352,163.973 c 0,-5.309 -4.293,-9.625 -9.59,-9.625 -5.301,0 -9.606,4.316 -9.606,9.625 l 0,13.617 c 0,5.308 4.305,9.621 9.606,9.621 5.297,0 9.59,-4.313 9.59,-9.621 l 0,-9.215 -12.805,0 0,-4.402 c 0,-1.77 1.445,-3.203 3.215,-3.203 1.765,0 3.195,1.433 3.195,3.203 l 6.395,0 z m -12.805,9.609 6.41,0 0,4.008 c 0,1.769 -1.43,3.203 -3.195,3.203 -1.77,0 -3.215,-1.434 -3.215,-3.203 l 0,-4.008 z" /><path
                   id="path15026"
                   style="fill:#000000;fill-opacity:1;fill-rule:nonzero;stroke:none"
                   d="m 383.137,154.754 -6.391,0 0,3.203 c -1.769,-3.316 -5.883,-4.574 -9.199,-2.805 -2.219,1.184 -3.606,3.493 -3.606,6.008 l 0,25.641 6.411,0 0,-22.832 c 0,-1.77 1.429,-3.203 3.195,-3.203 1.765,0 3.199,1.433 3.199,3.203 l 0,22.832 6.391,0 0,-32.047 z" /><path
                   id="path15028"
                   style="fill:#000000;fill-opacity:1;fill-rule:nonzero;stroke:none"
                   d="m 395.934,151.152 c 0,-1.769 1.429,-3.203 3.195,-3.203 1.769,0 3.199,1.434 3.199,3.203 l 0,6.813 c -1.766,-3.32 -5.883,-4.578 -9.195,-2.809 -2.207,1.188 -3.594,3.496 -3.594,6.012 l 0,19.219 c 0,3.773 3.039,6.816 6.789,6.816 2.512,0 4.817,-1.391 6,-3.598 l 0,3.204 6.395,0 0,-35.657 c 0,-5.312 -4.293,-9.609 -9.594,-9.609 -5.297,0 -9.59,4.297 -9.59,9.609 l 6.395,0 z m 6.394,12.825 0,13.617 c 0,1.769 -1.43,3.203 -3.199,3.203 -1.766,0 -3.195,-1.434 -3.195,-3.203 l 0,-13.617 c 0,-1.786 1.429,-3.219 3.195,-3.219 1.769,0 3.199,1.433 3.199,3.219" /><path
                   id="path15030"
                   style="fill:#000000;fill-opacity:1;fill-rule:nonzero;stroke:none"
                   d="m 434.32,163.973 c 0,-5.309 -4.293,-9.625 -9.593,-9.625 -5.313,0 -9.602,4.316 -9.602,9.625 l 0,13.617 c 0,5.308 4.289,9.621 9.602,9.621 5.3,0 9.593,-4.313 9.593,-9.621 l 0,-9.215 -12.804,0 0,-4.402 c 0,-1.77 1.433,-3.203 3.211,-3.203 1.769,0 3.199,1.433 3.199,3.203 l 6.394,0 z m -12.804,9.609 6.41,0 0,4.008 c 0,1.769 -1.43,3.203 -3.199,3.203 -1.778,0 -3.211,-1.434 -3.211,-3.203 l 0,-4.008 z" /><path
                   id="path15032"
                   style="fill:#000000;fill-opacity:1;fill-rule:nonzero;stroke:none"
                   d="m 89.266,84.25 0,44.871 6.39,0 0,-16.031 c 1.77,3.32 5.883,4.578 9.199,2.808 2.219,-1.183 3.606,-3.496 3.606,-6.011 l 0,-25.637 -6.41,0 0,22.832 c 0,1.77 -1.43,3.203 -3.196,3.203 -1.765,0 -3.199,-1.433 -3.199,-3.203 l 0,-22.832 -6.39,0 z" /><path
                   id="path15034"
                   style="fill:#000000;fill-opacity:1;fill-rule:nonzero;stroke:none"
                   d="m 133.246,84.25 -6.394,0 0,3.203 c -1.766,-3.32 -5.883,-4.578 -9.196,-2.808 -2.218,1.183 -3.605,3.496 -3.605,6.011 l 0,4.813 c 0,4.429 3.574,8.015 8,8.015 l 4.801,0 0,3.598 c 0,1.77 -1.43,3.203 -3.196,3.203 -1.781,0 -3.211,-1.433 -3.211,-3.203 l -6.394,0 c 0,5.309 4.304,9.621 9.605,9.621 5.297,0 9.59,-4.312 9.59,-9.621 l 0,-22.832 z m -6.394,14.027 -3.196,0 c -1.781,0 -3.211,-1.433 -3.211,-3.203 l 0,-1.609 c 0,-1.77 1.43,-3.203 3.211,-3.203 1.766,0 3.196,1.433 3.196,3.203 l 0,4.812 z" /><path
                   id="path15036"
                   style="fill:#000000;fill-opacity:1;fill-rule:nonzero;stroke:none"
                   d="m 139.641,84.25 0,44.871 6.394,0 0,-16.031 c 1.766,3.32 5.883,4.578 9.195,2.808 2.219,-1.183 3.606,-3.496 3.606,-6.011 l 0,-19.231 c 0,-3.758 -3.051,-6.801 -6.801,-6.801 -2.512,0 -4.82,1.375 -6,3.598 l 0,-3.203 -6.394,0 z m 6.394,9.215 c 0,-1.77 1.43,-3.203 3.195,-3.203 1.766,0 3.211,1.433 3.211,3.203 l 0,13.617 c 0,1.77 -1.445,3.203 -3.211,3.203 -1.765,0 -3.195,-1.433 -3.195,-3.203 l 0,-13.617 z" /><path
                   id="path15038"
                   style="fill:#000000;fill-opacity:1;fill-rule:nonzero;stroke:none"
                   d="m 183.621,93.465 c 0,-5.309 -4.289,-9.61 -9.59,-9.61 -5.297,0 -9.605,4.301 -9.605,9.61 l 0,13.617 c 0,5.309 4.308,9.621 9.605,9.621 5.301,0 9.59,-4.312 9.59,-9.621 l 0,-9.215 -12.785,0 0,-4.402 c 0,-1.77 1.43,-3.203 3.195,-3.203 1.766,0 3.196,1.433 3.196,3.203 l 6.394,0 z m -12.785,9.609 6.391,0 0,4.008 c 0,1.77 -1.43,3.203 -3.196,3.203 -1.765,0 -3.195,-1.433 -3.195,-3.203 l 0,-4.008 z" /><path
                   id="path15040"
                   style="fill:#000000;fill-opacity:1;fill-rule:nonzero;stroke:none"
                   d="m 189.219,84.25 0,32.043 6.394,0 0,-3.203 c 1.766,3.32 5.883,4.578 9.196,2.808 2.218,-1.183 3.605,-3.496 3.605,-6.011 l 0,-25.637 -6.394,0 0,22.832 c 0,1.77 -1.43,3.203 -3.211,3.203 -1.766,0 -3.196,-1.433 -3.196,-3.203 l 0,-22.832 -6.394,0 z" /><path
                   id="path15042"
                   style="fill:#000000;fill-opacity:1;fill-rule:nonzero;stroke:none"
                   d="m 243.199,84.25 -9.199,44.871 6.805,0 5.195,-31.254 5.195,31.254 6.789,0 -9.179,-44.871 -5.606,0 z" /><path
                   id="path15044"
                   style="fill:#000000;fill-opacity:1;fill-rule:nonzero;stroke:none"
                   d="m 259.59,93.465 0,13.617 c 0,5.309 4.293,9.621 9.59,9.621 5.3,0 9.605,-4.312 9.605,-9.621 l 0,-13.617 c 0,-5.309 -4.305,-9.61 -9.605,-9.61 -5.297,0 -9.59,4.301 -9.59,9.61 m 6.394,0 c 0,-1.77 1.43,-3.203 3.196,-3.203 1.765,0 3.199,1.433 3.199,3.203 l 0,13.617 c 0,1.77 -1.434,3.203 -3.199,3.203 -1.766,0 -3.196,-1.433 -3.196,-3.203 l 0,-13.617 z" /><path
                   id="path15046"
                   style="fill:#000000;fill-opacity:1;fill-rule:nonzero;stroke:none"
                   d="m 285.18,84.25 0,32.043 6.394,0 0,-3.609 c 2.059,2.543 5.137,4.019 8.395,4.019 l 0,-6.726 c -3.36,1.097 -6.965,-0.731 -8.074,-4.094 -0.204,-0.645 -0.321,-1.317 -0.321,-2.004 l 0,-19.629 -6.394,0 z" /><path
                   id="path15048"
                   style="fill:#000000;fill-opacity:1;fill-rule:nonzero;stroke:none"
                   d="m 303.973,84.25 0,32.043 6.394,0 0,-3.609 c 2.059,2.543 5.137,4.019 8.395,4.019 l 0,-6.726 c -3.36,1.097 -6.965,-0.731 -8.074,-4.094 -0.204,-0.645 -0.321,-1.317 -0.321,-2.004 l 0,-19.629 -6.394,0 z" /><path
                   id="path15050"
                   style="fill:#000000;fill-opacity:1;fill-rule:nonzero;stroke:none"
                   d="m 340.355,84.25 -6.39,0 0,3.203 c -1.77,-3.32 -5.883,-4.578 -9.199,-2.808 -2.219,1.183 -3.606,3.496 -3.606,6.011 l 0,4.813 c 0,4.429 3.594,8.015 8,8.015 l 4.805,0 0,3.598 c 0,1.77 -1.434,3.203 -3.199,3.203 -1.766,0 -3.196,-1.433 -3.196,-3.203 l -6.41,0 c 0,5.309 4.309,9.621 9.606,9.621 5.3,0 9.589,-4.312 9.589,-9.621 l 0,-22.832 z m -6.39,14.027 -3.199,0 c -1.766,0 -3.196,-1.433 -3.196,-3.203 l 0,-1.609 c 0,-1.77 1.43,-3.203 3.196,-3.203 1.765,0 3.199,1.433 3.199,3.203 l 0,4.812 z" /><path
                   id="path15052"
                   style="fill:#000000;fill-opacity:1;fill-rule:nonzero;stroke:none"
                   d="m 346.754,84.25 0,32.043 6.394,0 0,-3.203 c 1.766,3.32 5.883,4.578 9.196,2.808 2.218,-1.183 3.605,-3.496 3.605,-6.011 l 0,-25.637 -6.406,0 0,22.832 c 0,1.77 -1.434,3.203 -3.199,3.203 -1.766,0 -3.196,-1.433 -3.196,-3.203 l 0,-22.832 -6.394,0 z" /><path
                   id="path15054"
                   style="fill:#000000;fill-opacity:1;fill-rule:nonzero;stroke:none"
                   d="m 377.941,80.645 c 0,-1.77 1.43,-3.204 3.196,-3.204 1.765,0 3.195,1.434 3.195,3.204 l 0,6.812 c -1.766,-3.316 -5.883,-4.574 -9.195,-2.805 -2.219,1.184 -3.59,3.493 -3.59,6.008 l 0,19.235 c 0,3.757 3.035,6.8 6.789,6.8 2.508,0 4.816,-1.375 5.996,-3.597 l 0,3.203 6.395,0 0,-35.656 c 0,-5.309 -4.293,-9.61 -9.59,-9.61 -5.301,0 -9.59,4.301 -9.59,9.61 l 6.394,0 z m 6.391,12.824 0,13.617 c 0,1.769 -1.43,3.203 -3.195,3.203 -1.766,0 -3.196,-1.434 -3.196,-3.203 l 0,-13.617 c 0,-1.77 1.43,-3.215 3.196,-3.215 1.765,0 3.195,1.445 3.195,3.215" /></g></g></g></g></g></g></g></svg>