<?xml version="1.0" encoding="UTF-8" standalone="no"?>
<svg
   xmlns:dc="http://purl.org/dc/elements/1.1/"
   xmlns:cc="http://creativecommons.org/ns#"
   xmlns:rdf="http://www.w3.org/1999/02/22-rdf-syntax-ns#"
   xmlns:svg="http://www.w3.org/2000/svg"
   xmlns="http://www.w3.org/2000/svg"
   viewBox="0 0 600 330"
   height="330"
   width="600"
   xml:space="preserve"
   version="1.1"
   id="svg6360"><metadata
     id="metadata6366"><rdf:RDF><cc:Work
         rdf:about=""><dc:format>image/svg+xml</dc:format><dc:type
           rdf:resource="http://purl.org/dc/dcmitype/StillImage" /><dc:title></dc:title></cc:Work></rdf:RDF></metadata><defs
     id="defs6364"><clipPath
       id="clipPath6378"
       clipPathUnits="userSpaceOnUse"><path
         id="path6380"
         d="M 0,0 480,0 480,264 0,264 0,0 Z" /></clipPath></defs><g
     transform="matrix(1.25,0,0,-1.25,0,330)"
     id="g6368"><g
       id="g6370"><g
         id="g6372"><g
           id="g6374"><g
             clip-path="url(#clipPath6378)"
             id="g6376"><g
               id="g6382"><path
                 id="path6384"
                 style="fill:#ffffff;fill-opacity:1;fill-rule:nonzero;stroke:none"
                 d="m 31.996,263.758 c -17.512,0 -31.754,-14.254 -31.754,-31.766 l 0,-199.996 C 0.242,14.484 14.484,0.242 31.996,0.242 l 416.008,0 c 17.512,0 31.754,14.242 31.754,31.754 l 0,199.996 c 0,17.512 -14.242,31.766 -31.754,31.766" /><path
                 id="path6386"
                 style="fill:#000000;fill-opacity:1;fill-rule:nonzero;stroke:none"
                 d="M 31.996,0.484 C 14.613,0.484 0.484,14.613 0.484,31.996 l 0,199.996 c 0,17.383 14.129,31.524 31.512,31.524 l 416.008,0 c 17.383,0 31.512,-14.141 31.512,-31.524 l 0,-199.996 c 0,-17.383 -14.129,-31.512 -31.512,-31.512 l -416.008,0 z M 448.004,264 31.996,264 C 14.32,264 0,249.672 0,231.992 L 0,31.996 C 0,14.328 14.32,0 31.996,0 L 448.004,0 C 465.672,0 480,14.328 480,31.996 l 0,199.996 C 480,249.672 465.672,264 448.004,264" /></g></g></g></g><path
         id="path6388"
         style="fill:#000000;fill-opacity:1;fill-rule:nonzero;stroke:none"
         d="m 31.996,19.996 416.008,0 c 6.629,0 12,5.371 12,12 l 0,199.996 c 0,6.629 -5.371,12 -12,12 l -416.008,0 c -6.629,0 -12,-5.371 -12,-12 l 0,-199.996 c 0,-6.629 5.371,-12 12,-12 z m 0,-12 c -13.258,0 -24,10.742 -24,24 l 0,199.996 c 0,13.258 10.742,24 24,24 l 416.008,0 c 13.258,0 24,-10.742 24,-24 l 0,-199.996 c 0,-13.258 -10.742,-24 -24,-24" /><path
         id="path6390"
         style="fill:#000000;fill-opacity:1;fill-rule:nonzero;stroke:none"
         d="m 103.602,148.801 -20.356,61.597 9.91,0 14.297,-47.3 14.297,47.3 9.898,0 -20.343,-61.597" /><path
         id="path6392"
         style="fill:#000000;fill-opacity:1;fill-rule:nonzero;stroke:none"
         d="m 143.75,166.391 c 0,-5.161 4.188,-9.34 9.352,-9.34 5.164,0 9.351,4.179 9.351,9.34 l 0,8.808 c 0,5.16 -4.187,9.352 -9.351,9.352 -5.164,0 -9.352,-4.192 -9.352,-9.352 l 0,-8.808 z m -8.797,0 0,8.808 c 0,10.02 8.129,18.145 18.149,18.145 10.019,0 18.148,-8.125 18.148,-18.145 l 0,-8.808 c 0,-10.02 -8.129,-18.145 -18.148,-18.145 -10.02,0 -18.149,8.125 -18.149,18.145" /><path
         id="path6394"
         style="fill:#000000;fill-opacity:1;fill-rule:nonzero;stroke:none"
         d="m 183.348,148.801 0,43.996 8.804,0 0,-4.965 c 5.153,6.379 14.504,7.375 20.883,2.211 0,0 0.012,0 0.012,-0.012 l -6.246,-7.711 c -3.633,3.239 -9.192,2.91 -12.426,-0.722 -1.434,-1.61 -2.223,-3.7 -2.223,-5.852 l 0,-26.945" /><path
         id="path6396"
         style="fill:#000000;fill-opacity:1;fill-rule:nonzero;stroke:none"
         d="m 221.852,148.801 0,36.844 -4.399,0 0,7.152 4.399,0 0,6.598 c 0,6.082 4.921,11.003 10.996,11.003 l 6.605,0 0,-8.246 -6.051,0 c -1.519,0 -2.754,-1.238 -2.754,-2.757 l 0,-6.598 8.805,0 0,-7.152 -8.805,0 0,-36.844" /><path
         id="path6398"
         style="fill:#000000;fill-opacity:1;fill-rule:nonzero;stroke:none"
         d="m 272.445,168.043 -12.644,0 c -3.031,0 -5.504,-2.461 -5.504,-5.492 0,-3.039 2.473,-5.5 5.504,-5.5 l 7.152,0 c 3.043,0 5.492,2.461 5.492,5.5 l 0,5.492 z m 8.805,-19.242 -8.805,0 0,4.543 c -1.543,-2.813 -4.496,-4.543 -7.691,-4.543 l -5.5,0 c -7.297,0 -13.203,5.91 -13.203,13.195 0,7.293 5.906,13.203 13.203,13.203 l 13.191,0 0,4.395 c 0,2.406 -1.73,4.465 -4.09,4.879 -3.109,0.547 -6.293,0.547 -9.41,0 -1.543,-0.274 -2.875,-1.266 -3.574,-2.68 l -6.961,5.504 c 2.09,3.094 5.34,5.195 9.028,5.84 4.113,0.722 8.324,0.722 12.437,0 6.574,-1.149 11.375,-6.86 11.375,-13.543" /><path
         id="path6400"
         style="fill:#000000;fill-opacity:1;fill-rule:nonzero;stroke:none"
         d="m 294.453,148.801 0,61.597 8.809,0 0,-22.566 c 5.148,6.379 14.492,7.375 20.871,2.211 3.488,-2.813 5.512,-7.055 5.512,-11.543 l 0,-29.699 -8.797,0 0,26.945 c 0,4.867 -3.938,8.805 -8.793,8.805 -4.856,0 -8.793,-3.938 -8.793,-8.805 l 0,-26.945" /><path
         id="path6402"
         style="fill:#000000;fill-opacity:1;fill-rule:nonzero;stroke:none"
         d="m 342.848,148.801 0,43.996 8.804,0 0,-4.965 c 5.153,6.379 14.508,7.375 20.883,2.211 0.012,0 0.012,0 0.012,-0.012 l -6.246,-7.711 c -3.633,3.239 -9.188,2.91 -12.426,-0.722 -1.434,-1.61 -2.223,-3.7 -2.223,-5.852 l 0,-26.945" /><path
         id="path6404"
         style="fill:#000000;fill-opacity:1;fill-rule:nonzero;stroke:none"
         d="m 396.754,148.801 -5.5,0 c -5.473,0 -9.902,4.433 -9.902,9.902 l 0,26.942 -4.395,0 0,7.152 4.395,0 0,13.203 8.808,0 0,-13.203 6.594,0 0,-7.152 -6.594,0 0,-25.848 c 0,-1.524 1.223,-2.746 2.742,-2.746 l 3.852,0" /><path
         id="path6406"
         style="fill:#000000;fill-opacity:1;fill-rule:nonzero;stroke:none"
         d="m 97.008,70.645 0,9.898 c 0,4.867 -3.949,8.805 -8.809,8.805 -4.855,0 -8.804,-3.938 -8.804,-8.805 l 0,-9.898 c 0,-4.86 3.949,-8.797 8.804,-8.797 4.86,0 8.809,3.937 8.809,8.797 z m 8.793,26.953 0,-44.555 c 0,-6.66 -3.762,-12.754 -9.735,-15.742 -8.402,-4.199 -18.609,-2 -24.535,5.297 l 6.836,5.543 c 3.324,-4.09 9.047,-5.325 13.77,-2.961 2.976,1.484 4.871,4.539 4.871,7.863 l 0,5.523 c -5.164,-6.375 -14.516,-7.371 -20.895,-2.218 -3.488,2.82 -5.511,7.066 -5.511,11.55 l 0,15.403 c 0,8.191 6.648,14.844 14.851,14.844 4.488,0 8.731,-2.024 11.555,-5.516 l 0,4.969" /><path
         id="path6408"
         style="fill:#000000;fill-opacity:1;fill-rule:nonzero;stroke:none"
         d="m 126.707,79.996 18.691,0 c 0,5.164 -4.187,9.352 -9.351,9.352 -5.164,0 -9.34,-4.188 -9.34,-9.352 z m 27.5,-7.699 -27.5,0 0,-1.094 c 0,-3.832 2.316,-7.265 5.871,-8.687 4.891,-1.957 10.481,-0.59 13.914,3.414 l 6.688,-5.735 c -5.887,-6.855 -15.481,-9.207 -23.871,-5.851 -6.891,2.758 -11.411,9.429 -11.411,16.859 l 0,8.793 c 0,10.02 8.129,18.149 18.149,18.149 10.031,0 18.16,-8.129 18.16,-18.149" /><path
         id="path6410"
         style="fill:#000000;fill-opacity:1;fill-rule:nonzero;stroke:none"
         d="m 194.898,106.391 -8.793,0 0,8.808 8.793,0 0,-8.808 z m -17.601,0 -8.793,0 0,8.808 8.793,0 0,-8.808 z m 13.203,-33.547 -12.656,0 c -3.028,0 -5.489,-2.461 -5.489,-5.504 0,-3.031 2.461,-5.492 5.489,-5.492 l 7.156,0 c 3.039,0 5.5,2.461 5.5,5.492 l 0,5.504 z m 8.797,-19.254 -8.797,0 0,4.551 c -1.551,-2.813 -4.496,-4.551 -7.699,-4.551 l -5.504,0 c -7.285,0 -13.192,5.918 -13.192,13.203 0,7.297 5.907,13.203 13.192,13.203 l 13.203,0 0,4.399 c 0,2.406 -1.727,4.46 -4.102,4.878 -3.105,0.547 -6.289,0.547 -9.406,0 -1.543,-0.273 -2.879,-1.269 -3.578,-2.679 l -6.957,5.5 c 2.09,3.097 5.352,5.195 9.023,5.851 4.114,0.711 8.329,0.711 12.438,0 6.586,-1.156 11.379,-6.867 11.379,-13.55" /><path
         id="path6412"
         style="fill:#000000;fill-opacity:1;fill-rule:nonzero;stroke:none"
         d="m 212.5,53.59 0,44.008 8.805,0 0,-4.969 c 5.152,6.379 14.504,7.375 20.883,2.211 3.488,-2.813 5.511,-7.055 5.511,-11.539 l 0,-29.711 -8.793,0 0,26.953 c 0,4.867 -3.949,8.805 -8.804,8.805 -4.86,0 -8.797,-3.938 -8.797,-8.805 l 0,-26.953" /><path
         id="path6414"
         style="fill:#000000;fill-opacity:1;fill-rule:nonzero;stroke:none"
         d="m 286.195,70.645 0,9.898 c 0,4.867 -3.937,8.805 -8.797,8.805 -4.855,0 -8.793,-3.938 -8.793,-8.805 l 0,-9.898 c 0,-4.86 3.938,-8.797 8.793,-8.797 4.86,0 8.797,3.937 8.797,8.797 z M 295,53.59 l -8.805,0 0,4.976 c -5.152,-6.375 -14.496,-7.371 -20.871,-2.218 -3.488,2.82 -5.523,7.066 -5.523,11.55 l 0,15.403 c 0,8.191 6.648,14.844 14.844,14.844 4.496,0 8.738,-2.024 11.55,-5.516 l 0,22.57 8.805,0" /><path
         id="path6416"
         style="fill:#000000;fill-opacity:1;fill-rule:nonzero;stroke:none"
         d="m 315.895,79.996 18.707,0 c 0,5.164 -4.18,9.352 -9.356,9.352 -5.152,0 -9.351,-4.188 -9.351,-9.352 z m 27.5,-7.699 -27.5,0 0,-1.094 c 0,-3.832 2.339,-7.265 5.886,-8.687 4.887,-1.957 10.477,-0.59 13.914,3.414 l 6.684,-5.735 c -5.899,-6.855 -15.481,-9.207 -23.871,-5.851 -6.879,2.758 -11.41,9.429 -11.41,16.859 l 0,8.793 c 0,10.02 8.129,18.149 18.148,18.149 10.031,0 18.149,-8.129 18.149,-18.149" /><path
         id="path6418"
         style="fill:#000000;fill-opacity:1;fill-rule:nonzero;stroke:none"
         d="m 355.504,53.59 0,44.008 8.797,0 0,-4.969 c 5.16,6.379 14.504,7.375 20.89,2.211 l 0.012,-0.012 -6.246,-7.711 c -3.633,3.238 -9.199,2.91 -12.437,-0.722 -1.422,-1.606 -2.223,-3.696 -2.223,-5.852 l 0,-26.953" /><path
         id="path6420"
         style="fill:#000000;fill-opacity:1;fill-rule:nonzero;stroke:none"
         d="m 409.398,53.59 -5.488,0 c -5.48,0 -9.91,4.441 -9.91,9.898 l 0,26.953 -4.398,0 0,7.157 4.398,0 0,13.203 8.805,0 0,-13.203 6.593,0 0,-7.157 -6.593,0 0,-25.847 c 0,-1.52 1.222,-2.746 2.746,-2.746 l 3.847,0" /></g></g></svg>