<?xml version="1.0" encoding="UTF-8" standalone="no"?>
<svg
   xmlns:dc="http://purl.org/dc/elements/1.1/"
   xmlns:cc="http://creativecommons.org/ns#"
   xmlns:rdf="http://www.w3.org/1999/02/22-rdf-syntax-ns#"
   xmlns:svg="http://www.w3.org/2000/svg"
   xmlns="http://www.w3.org/2000/svg"
   viewBox="0 0 601.63623 330.57626"
   height="330.57626"
   width="601.63623"
   xml:space="preserve"
   version="1.1"
   id="svg6044"><metadata
     id="metadata6050"><rdf:RDF><cc:Work
         rdf:about=""><dc:format>image/svg+xml</dc:format><dc:type
           rdf:resource="http://purl.org/dc/dcmitype/StillImage" /><dc:title></dc:title></cc:Work></rdf:RDF></metadata><defs
     id="defs6048" /><g
     transform="matrix(1.25,0,0,-1.25,0,330.57625)"
     id="g6052"><g
       id="g6054"><path
         id="path6056"
         style="fill:#ffffff;fill-opacity:1;fill-rule:nonzero;stroke:none"
         d="m 32.055,264.063 c -17.457,0 -31.657,-14.161 -31.657,-31.555 l 0,-200.809 c 0,-17.39 14.2,-31.535 31.657,-31.535 l 417.207,0 c 17.457,0 31.648,14.145 31.648,31.535 l 0,200.809 c 0,17.394 -14.191,31.555 -31.648,31.555 l -417.207,0 z" /><path
         id="path6058"
         style="fill:#000000;fill-opacity:1;fill-rule:nonzero;stroke:none"
         d="m 32.043,19.668 417.207,0 c 6.605,0 11.961,5.336 11.961,11.918 l 0,201.039 c 0,6.582 -5.356,11.918 -11.961,11.918 l -417.207,0 c -6.613,0 -11.965,-5.336 -11.965,-11.918 l 0,-201.039 c 0,-6.582 5.352,-11.918 11.965,-11.918 z M 32.609,8.316 c -13.214,0 -23.918,10.668 -23.918,23.84 l 0,199.895 c 0,13.168 10.704,23.836 23.918,23.836 l 416.184,0 c 13.215,0 23.922,-10.668 23.922,-23.836 l 0,-199.895 c 0,-13.172 -10.707,-23.84 -23.922,-23.84" /><path
         id="path6060"
         style="fill:#000000;fill-opacity:1;fill-rule:nonzero;stroke:none"
         d="M 32.055,264.461 C 14.379,264.461 0,250.121 0,232.508 L 0,31.938 C 0,14.328 14.379,0 32.055,0 l 417.207,0 c 17.672,0 32.047,14.328 32.047,31.938 l 0,200.57 c 0,17.613 -14.371,31.953 -32.047,31.953 l -417.207,0 z m 0,-0.398 417.207,0 c 17.457,0 31.648,-14.161 31.648,-31.555 l 0,-200.57 c 0,-17.391 -14.191,-31.536 -31.648,-31.536 l -417.207,0 C 14.598,0.402 0.398,14.547 0.398,31.938 l 0,200.57 c 0,17.394 14.2,31.555 31.657,31.555 z" /><path
         id="path6062"
         style="fill:#000000;fill-opacity:1;fill-rule:nonzero;stroke:none"
         d="m 345.184,186.926 42.519,15.484 -3.765,10.336 3.097,1.141 3.766,-10.348 7.25,2.637 1.5,-4.137 -7.239,-2.641 3.77,-10.347 -3.113,-1.129 -3.766,10.348 -41.273,-15.024 c -0.754,1.336 -1.676,2.586 -2.746,3.68 z m -27.762,-25.262 -31.207,5.496 13.062,-22.625 c 2.125,-3.687 0.864,-8.398 -2.824,-10.523 -1.555,-0.906 -3.394,-1.235 -5.191,-0.918 l -41.207,7.269 c -3.594,0.625 -5.993,4.055 -5.356,7.657 0.637,3.589 4.051,5.988 7.656,5.355 l 26.739,-4.723 -4.543,7.887 -8.957,-3.266 -8.672,1.536 15.394,5.593 -9.515,16.485 c -4.25,7.367 -1.731,16.797 5.64,21.054 3.141,1.809 6.821,2.465 10.391,1.832 l 54.996,-9.691 -16.406,-28.418 z M 441.273,116.176 241.613,43.508 c -6.801,-2.477 -14.347,-1.785 -20.578,1.883 l 9.539,3.472 c 2.957,-0.461 5.969,-0.175 8.77,0.852 L 352.836,91.02 310.59,126.469 c -3.274,2.75 -4.106,7.445 -1.973,11.148 l 29.656,51.348 c 7.907,-3.168 11.75,-12.133 8.594,-20.043 -0.273,-0.676 -0.601,-1.344 -0.972,-1.981 L 326.457,133.27 362.527,103 c 2.192,-1.828 3.188,-4.719 2.586,-7.512 l 73.895,26.895 2.265,-6.207 z m -180.597,84.437 c 0,-9.132 -7.391,-16.523 -16.512,-16.523 -9.121,0 -16.527,7.391 -16.527,16.523 0,9.125 7.406,16.516 16.527,16.516 9.121,0 16.512,-7.391 16.512,-16.516" /></g></g></svg>