<?xml version="1.0" encoding="UTF-8" standalone="no"?>
<svg
   xmlns:dc="http://purl.org/dc/elements/1.1/"
   xmlns:cc="http://creativecommons.org/ns#"
   xmlns:rdf="http://www.w3.org/1999/02/22-rdf-syntax-ns#"
   xmlns:svg="http://www.w3.org/2000/svg"
   xmlns="http://www.w3.org/2000/svg"
   viewBox="0 0 421.00125 232.0025"
   height="232.0025"
   width="421.00125"
   xml:space="preserve"
   version="1.1"
   id="svg4065"><metadata
     id="metadata4071"><rdf:RDF><cc:Work
         rdf:about=""><dc:format>image/svg+xml</dc:format><dc:type
           rdf:resource="http://purl.org/dc/dcmitype/StillImage" /><dc:title></dc:title></cc:Work></rdf:RDF></metadata><defs
     id="defs4069" /><g
     transform="matrix(1.25,0,0,-1.25,0,232.00251)"
     id="g4073"><g
       id="g4075"><path
         id="path4077"
         style="fill:#ffffff;fill-opacity:1;fill-rule:nonzero;stroke:none"
         d="m 22.652,185.204 c -12.273,0 -22.254,-9.954 -22.254,-22.184 l 0,-140.445 c 0,-12.227 9.981,-22.172 22.254,-22.172 l 291.496,0 c 12.274,0 22.25,9.945 22.25,22.172 l 0,140.445 c 0,12.23 -9.976,22.184 -22.25,22.184 l -291.496,0 z" /><path
         id="path4079"
         style="fill:#000000;fill-opacity:1;fill-rule:nonzero;stroke:none"
         d="M 22.652,185.602 C 10.164,185.602 0,175.465 0,163.02 L 0,22.575 C 0,10.129 10.164,0 22.652,0 l 291.496,0 c 12.489,0 22.653,10.129 22.653,22.575 l 0,140.445 c 0,12.445 -10.164,22.582 -22.653,22.582 l -291.496,0 z m 0,-0.398 291.496,0 c 12.274,0 22.25,-9.954 22.25,-22.184 l 0,-140.445 c 0,-12.227 -9.976,-22.172 -22.25,-22.172 l -291.496,0 c -12.273,0 -22.254,9.945 -22.254,22.172 l 0,140.445 c 0,12.23 9.981,22.184 22.254,22.184 z" /><path
         id="path4081"
         style="fill:#000000;fill-opacity:1;fill-rule:nonzero;stroke:none"
         d="m 22.645,14.118 291.496,0 c 4.644,0 8.41,3.75 8.41,8.379 l 0,140.605 c 0,4.629 -3.766,8.379 -8.41,8.379 l -291.496,0 c -4.649,0 -8.411,-3.75 -8.411,-8.379 l 0,-140.605 c 0,-4.629 3.762,-8.379 8.411,-8.379 z m 0.398,-7.981 c -9.289,0 -16.816,7.5 -16.816,16.758 l 0,139.805 c 0,9.257 7.527,16.757 16.816,16.757 l 290.777,0 c 9.289,0 16.817,-7.5 16.817,-16.757 l 0,-139.805 c 0,-9.258 -7.528,-16.758 -16.817,-16.758" /><path
         id="path4083"
         style="fill:#000000;fill-opacity:1;fill-rule:nonzero;stroke:none"
         d="m 77.637,138.516 c 0.004,-10.547 -8.551,-19.098 -19.102,-19.098 -10.551,0 -19.101,8.551 -19.101,19.098 0,10.547 8.55,19.098 19.101,19.098 10.551,0 19.106,-8.551 19.102,-19.098 z" /><path
         id="path4085"
         style="fill:#000000;fill-opacity:1;fill-rule:nonzero;stroke:none"
         d="m 78.289,107.973 0.094,-70.277 c 0,-1.989 1.25,-3.828 4.211,-3.926 l 11.418,-0.094 -0.203,-5.695 -70.102,0 0,5.789 11.328,-0.098 c 1.883,0 3.754,1.016 3.754,2.524 l 0,61.019 c 0.094,2.094 -0.148,4.403 -5.16,4.305 l -5.43,0 0,6.465 50.09,-0.012 z" /><path
         id="path4087"
         style="fill:#000000;fill-opacity:1;fill-rule:evenodd;stroke:none"
         d="m 187.324,139.707 108.406,0 0,-51.699 -108.406,0 0,51.699 z" /><path
         id="path4089"
         style="fill:#000000;fill-opacity:1;fill-rule:nonzero;stroke:none"
         d="m 271.445,71.442 c 0,-7.176 -5.816,-12.992 -12.996,-12.992 -7.179,0 -12.996,5.816 -12.996,12.992 0,7.176 5.817,12.992 12.996,12.992 7.18,0 12.996,-5.816 12.996,-12.992 z" /><path
         id="path4091"
         style="fill:#000000;fill-opacity:1;fill-rule:nonzero;stroke:none"
         d="m 170.789,71.403 c 0,-7.176 -5.82,-12.992 -13,-12.992 -7.176,0 -12.996,5.816 -12.996,12.992 0,7.176 5.82,12.992 12.996,12.992 7.18,0 13,-5.816 13,-12.992 z" /><path
         id="path4093"
         style="fill:#000000;fill-opacity:1;fill-rule:evenodd;stroke:none"
         d="m 295.73,84.559 0.051,-9.894 -10.758,-3.325 -10.058,-0.023 c 0.457,3.973 -2.512,10.512 -6.496,13.191 l 27.261,0.051 z" /><path
         id="path4095"
         style="fill:#000000;fill-opacity:1;fill-rule:evenodd;stroke:none"
         d="m 180.086,126.723 -32.594,-1.707 c -1.363,-0.422 -2.512,-1.035 -3.031,-2.207 l -8.859,-23.234 -0.344,-2.438 0.004,-22.683 c 0.277,-2.079 1.644,-2.754 3.226,-3.157 l 2.668,0 c 0,21.606 33.508,21.551 33.508,0 l 67.289,0 c -0.457,3.973 2.512,10.516 6.496,13.196 l -68.289,0.007 -0.074,42.223 z m -13.125,-6.492 0,-18.566 -25.141,-2.61 c -0.5,0.141 -0.914,0.399 -1.132,0.914 -0.34,0.567 -0.098,1.133 0,1.696 l 6.003,15.957 c 0.309,0.773 0.801,1.226 1.485,1.339 l 18.785,1.27 z" /><path
         id="path4097"
         style="fill:#000000;fill-opacity:1;fill-rule:nonzero;stroke:none"
         d="m 310.105,65 c -1.484,0.008 -2.964,-0.242 -2.964,-0.773 l 0.171,-6.941 -3.226,0.058 0,2.934 -188.789,0 -0.055,-3.735 -3.43,0 0,7.743 c 0,0.738 -6.164,0.972 -6.164,0 l 0,-18.957 c 0,-0.864 5.875,-0.895 5.875,0 l 0,7.211 4.008,0 -0.043,-2.809 c 0.024,-1.113 0.867,-2.352 2.364,-2.383 0,0 8.531,-0.012 12.675,-0.019 -0.054,-0.485 -0.086,-0.973 -0.086,-1.469 -0.003,-5.172 2.946,-9.645 7.25,-11.852 l -31.855,-0.105 -0.227,-5.922 207.321,0 0.226,6.605 -32.445,-0.105 c 4.223,2.234 7.101,6.668 7.101,11.777 0,0.34 -0.027,0.676 -0.05,1.012 l 13.379,0.008 c 1.175,0 2.41,1.211 2.41,2.566 l 0,2.426 3.605,-0.055 0.059,-6.465 c 0,-1.058 5.91,-1.07 5.91,0.059 l -0.055,18.418 c 0,0.504 -1.484,0.77 -2.965,0.777 l 0,-0.004 z m -112.71,-14.472 24.699,0 1.906,-3.305 11.125,0.008 c -0.031,-0.359 -0.055,-0.719 -0.055,-1.086 0,-5.121 2.891,-9.563 7.125,-11.793 l -66.234,-0.219 c 4.289,2.215 7.223,6.68 7.223,11.84 0,0.438 -0.024,0.871 -0.067,1.301 3.656,0 8.41,-0.008 11.469,-0.008 l 2.809,3.262 z m 64.058,-7.067 c 0.84,-3.933 3.426,-7.214 6.899,-9.023 l -13.684,-0.043 c 3.441,1.836 5.984,5.133 6.785,9.066 z M 156.828,43.172 c 0.848,-3.976 3.477,-7.285 7.008,-9.078 l -13.914,-0.047 c 3.5,1.825 6.09,5.149 6.906,9.125 z" /></g></g></svg>