<?xml version="1.0" encoding="UTF-8" standalone="no"?>
<svg
   xmlns:dc="http://purl.org/dc/elements/1.1/"
   xmlns:cc="http://creativecommons.org/ns#"
   xmlns:rdf="http://www.w3.org/1999/02/22-rdf-syntax-ns#"
   xmlns:svg="http://www.w3.org/2000/svg"
   xmlns="http://www.w3.org/2000/svg"
   viewBox="0 0 600 330"
   height="330"
   width="600"
   xml:space="preserve"
   version="1.1"
   id="svg4864"><metadata
     id="metadata4870"><rdf:RDF><cc:Work
         rdf:about=""><dc:format>image/svg+xml</dc:format><dc:type
           rdf:resource="http://purl.org/dc/dcmitype/StillImage" /><dc:title></dc:title></cc:Work></rdf:RDF></metadata><defs
     id="defs4868"><clipPath
       id="clipPath4880"
       clipPathUnits="userSpaceOnUse"><path
         id="path4882"
         d="M 0,0 480,0 480,264 0,264 0,0 Z" /></clipPath></defs><g
     transform="matrix(1.25,0,0,-1.25,0,330)"
     id="g4872"><g
       id="g4874"><g
         id="g4876"><g
           id="g4878" /><g
           id="g4884"><g
             id="g4886"
             clip-path="url(#clipPath4880)"><g
               id="g4888"><path
                 id="path4890"
                 style="fill:#ffffff;fill-opacity:1;fill-rule:nonzero;stroke:none"
                 d="m 31.996,263.758 c -17.512,0 -31.754,-14.25 -31.754,-31.766 l 0,-199.996 C 0.242,14.484 14.484,0.242 31.996,0.242 l 416.008,0 c 17.512,0 31.754,14.242 31.754,31.754 l 0,199.996 c 0,17.516 -14.242,31.766 -31.754,31.766" /><path
                 id="path4892"
                 style="fill:#000000;fill-opacity:1;fill-rule:nonzero;stroke:none"
                 d="M 31.996,0.469 C 14.613,0.469 0.48,14.613 0.48,31.996 l 0,199.996 c 0,17.383 14.133,31.528 31.516,31.528 l 416.008,0 c 17.383,0 31.516,-14.145 31.516,-31.528 l 0,-199.996 c 0,-17.383 -14.133,-31.527 -31.516,-31.527 l -416.008,0 z M 448.004,264 31.996,264 C 14.32,264 0,249.672 0,231.992 L 0,31.996 C 0,14.328 14.32,0 31.996,0 L 448.004,0 C 465.672,0 480,14.328 480,31.996 l 0,199.996 C 480,249.672 465.672,264 448.004,264" /></g></g></g></g></g><g
       id="g4894"><path
         id="path4896"
         style="fill:#000000;fill-opacity:1;fill-rule:nonzero;stroke:none"
         d="m 31.996,19.996 416.008,0 c 6.629,0 12,5.371 12,12 l 0,199.996 c 0,6.629 -5.371,12 -12,12 l -416.008,0 c -6.629,0 -12,-5.371 -12,-12 l 0,-199.996 c 0,-6.629 5.371,-12 12,-12 z m 0,-12 c -13.258,0 -24,10.742 -24,24 l 0,199.996 c 0,13.258 10.742,24 24,24 l 416.008,0 c 13.258,0 24,-10.742 24,-24 l 0,-199.996 c 0,-13.258 -10.742,-24 -24,-24" /><g
         transform="matrix(1,0,0,-1,0,264)"
         id="g4898"><path
           id="path4900"
           style="fill:none;stroke:#000000;stroke-width:12.67880154;stroke-linecap:round;stroke-linejoin:round;stroke-miterlimit:4;stroke-dasharray:none;stroke-opacity:1"
           d="m 190.402,160.176 c 0,24.152 -19.582,43.73 -43.734,43.73 -24.156,0 -43.734,-19.578 -43.734,-43.73 0,-24.156 19.578,-43.735 43.734,-43.735 24.152,0 43.734,19.579 43.734,43.735 z" /></g><path
         id="path4902"
         style="fill:#000000;fill-opacity:1;fill-rule:evenodd;stroke:none"
         d="m 373.121,173.973 -91.816,0 c -3.461,-1.344 -5.938,-3.543 -3.973,-9.594 l 23.707,-15.348 c 10.125,7.594 20.625,8.852 31.106,10.414 l 41.25,0.137 -0.274,14.391 z" /><path
         id="path4904"
         style="fill:#000000;fill-opacity:1;fill-rule:evenodd;stroke:none"
         d="m 344.695,92.492 -95.57,0.113 c -19.961,0.606 -31.363,17.145 -43.762,35.043 -21.679,31.317 -24.804,31.653 -29.254,46.196 l 31.825,-0.031 c 2.121,-0.649 4.242,-0.965 6.363,-3.59 l 19.156,-27.27 c 1.598,-6.754 0.274,-12.211 -1.402,-17.996 -1.934,-6.684 5.75,-18.586 17.738,-18.102 l 95.133,5.563 -0.227,-19.926 z" /><path
         id="path4906"
         style="fill:#000000;fill-opacity:1;fill-rule:evenodd;stroke:none"
         d="m 140.352,107.176 c 0.777,2.328 36.933,90.449 36.933,90.449 4.395,7.879 10.559,12.219 18.606,12.789 l 24.808,0 -0.136,-14.566 -23.918,0 c -2.926,0.273 -5.122,-1.567 -6.954,-6.75 l -36.046,-87.985 c -3.504,-8.187 -16.825,-5.308 -13.293,6.063 z" /><g
         transform="matrix(1,0,0,-1,0,264)"
         id="g4908"><path
           id="path4910"
           style="fill:none;stroke:#000000;stroke-width:12.67880154;stroke-linecap:round;stroke-linejoin:round;stroke-miterlimit:4;stroke-dasharray:none;stroke-opacity:1"
           d="m 377.066,160.34 c 0,24.156 -19.578,43.734 -43.734,43.734 -24.152,0 -43.734,-19.578 -43.734,-43.734 0,-24.152 19.582,-43.731 43.734,-43.731 24.156,0 43.734,19.579 43.734,43.731 z" /></g></g></g></svg>