<?xml version="1.0" encoding="UTF-8" standalone="no"?>
<svg
   xmlns:dc="http://purl.org/dc/elements/1.1/"
   xmlns:cc="http://creativecommons.org/ns#"
   xmlns:rdf="http://www.w3.org/1999/02/22-rdf-syntax-ns#"
   xmlns:svg="http://www.w3.org/2000/svg"
   xmlns="http://www.w3.org/2000/svg"
   viewBox="0 0 600 330"
   height="330"
   width="600"
   xml:space="preserve"
   version="1.1"
   id="svg8638"><metadata
     id="metadata8644"><rdf:RDF><cc:Work
         rdf:about=""><dc:format>image/svg+xml</dc:format><dc:type
           rdf:resource="http://purl.org/dc/dcmitype/StillImage" /><dc:title></dc:title></cc:Work></rdf:RDF></metadata><defs
     id="defs8642" /><g
     transform="matrix(1.25,0,0,-1.25,0,330)"
     id="g8646"><g
       id="g8648"><path
         id="path8650"
         style="fill:#000000;fill-opacity:1;fill-rule:nonzero;stroke:none"
         d="M 31.996,0.469 C 14.613,0.469 0.48,14.613 0.48,31.996 l 0,199.996 c 0,17.383 14.133,31.528 31.516,31.528 l 416.008,0 c 17.383,0 31.516,-14.145 31.516,-31.528 l 0,-199.996 c 0,-17.383 -14.133,-31.527 -31.516,-31.527 l -416.008,0 z M 448.004,264 31.996,264 C 14.32,264 0,249.672 0,231.992 L 0,31.996 C 0,14.328 14.32,0 31.996,0 L 448.004,0 C 465.672,0 480,14.328 480,31.996 l 0,199.996 C 480,249.672 465.672,264 448.004,264" /><path
         id="path8652"
         style="fill:#000000;fill-opacity:1;fill-rule:nonzero;stroke:none"
         d="m 31.996,19.996 416.008,0 c 6.629,0 12,5.371 12,12 l 0,199.996 c 0,6.629 -5.371,12 -12,12 l -416.008,0 c -6.629,0 -12,-5.371 -12,-12 l 0,-199.996 c 0,-6.629 5.371,-12 12,-12 z m 0,-12 c -13.258,0 -24,10.742 -24,24 l 0,199.996 c 0,13.258 10.742,24 24,24 l 416.008,0 c 13.258,0 24,-10.742 24,-24 l 0,-199.996 c 0,-13.258 -10.742,-24 -24,-24" /><path
         id="path8654"
         style="fill:#000000;fill-opacity:1;fill-rule:nonzero;stroke:none"
         d="m 147.004,208 c -2.813,0 -5.215,-2.02 -5.707,-4.785 l -11.711,-66.539 c -0.129,-0.723 -0.117,-1.465 0.035,-2.188 l 12.512,-59.738 -47.481,0 0,-11.57 139.028,0 c 0,15.992 12.968,28.953 28.968,28.953 15.997,0 28.957,-12.961 28.957,-28.953 l 76.247,0 c 2.8,0 5.199,2 5.691,4.769 l 11.742,66.641 c 0.11,0.656 0.11,1.344 0,2 l -11.742,66.625 c -0.492,2.765 -2.891,4.785 -5.691,4.785 l -220.848,0 z m 22.937,-23.176 46.356,0 c 1.598,0 2.906,-1.297 2.906,-2.906 l 0,-104.277 c 0,-1.598 -1.308,-2.891 -2.906,-2.891 l -46.356,0 c -1.597,0 -2.886,1.293 -2.886,2.891 l 0,104.277 c 0,1.609 1.289,2.906 2.886,2.906 z m 115.868,0 66.625,0 c 1.586,0 2.89,-1.297 2.89,-2.906 l 0,-31.844 c 0,-1.605 -1.304,-2.906 -2.89,-2.906 l -66.625,0 c -1.598,0 -2.887,1.301 -2.887,2.906 l 0,31.844 c 0,1.609 1.289,2.906 2.887,2.906 z M 262.648,86.34 c -12.796,0 -23.191,-10.363 -23.191,-23.16 0,-12.801 10.395,-23.196 23.191,-23.196 12.79,0 23.161,10.395 23.161,23.196 0,12.797 -10.371,23.16 -23.161,23.16 z" /></g></g></svg>