<?xml version="1.0" encoding="UTF-8" standalone="no"?>
<svg
   xmlns:dc="http://purl.org/dc/elements/1.1/"
   xmlns:cc="http://creativecommons.org/ns#"
   xmlns:rdf="http://www.w3.org/1999/02/22-rdf-syntax-ns#"
   xmlns:svg="http://www.w3.org/2000/svg"
   xmlns="http://www.w3.org/2000/svg"
   viewBox="0 0 600 330"
   height="330"
   width="600"
   xml:space="preserve"
   version="1.1"
   id="svg4560"><metadata
     id="metadata4566"><rdf:RDF><cc:Work
         rdf:about=""><dc:format>image/svg+xml</dc:format><dc:type
           rdf:resource="http://purl.org/dc/dcmitype/StillImage" /><dc:title></dc:title></cc:Work></rdf:RDF></metadata><defs
     id="defs4564"><clipPath
       id="clipPath4576"
       clipPathUnits="userSpaceOnUse"><path
         id="path4578"
         d="M 0,0 480,0 480,264 0,264 0,0 Z" /></clipPath></defs><g
     transform="matrix(1.25,0,0,-1.25,0,330)"
     id="g4568"><g
       id="g4570"><g
         id="g4572"><g
           id="g4574" /><g
           id="g4580"><g
             id="g4582"
             clip-path="url(#clipPath4576)"><g
               id="g4584"><path
                 id="path4586"
                 style="fill:#ffffff;fill-opacity:1;fill-rule:nonzero;stroke:none"
                 d="m 31.996,263.758 c -17.512,0 -31.754,-14.25 -31.754,-31.766 l 0,-199.996 C 0.242,14.484 14.484,0.242 31.996,0.242 l 416.008,0 c 17.512,0 31.754,14.242 31.754,31.754 l 0,199.996 c 0,17.516 -14.242,31.766 -31.754,31.766" /><path
                 id="path4588"
                 style="fill:#000000;fill-opacity:1;fill-rule:nonzero;stroke:none"
                 d="M 31.996,0.469 C 14.613,0.469 0.48,14.613 0.48,31.996 l 0,199.996 c 0,17.383 14.133,31.528 31.516,31.528 l 416.008,0 c 17.383,0 31.516,-14.145 31.516,-31.528 l 0,-199.996 c 0,-17.383 -14.133,-31.527 -31.516,-31.527 l -416.008,0 z M 448.004,264 31.996,264 C 14.32,264 0,249.672 0,231.992 L 0,31.996 C 0,14.328 14.32,0 31.996,0 L 448.004,0 C 465.672,0 480,14.328 480,31.996 l 0,199.996 C 480,249.672 465.672,264 448.004,264" /></g></g></g></g></g><g
       id="g4590"><path
         id="path4592"
         style="fill:#000000;fill-opacity:1;fill-rule:nonzero;stroke:none"
         d="m 31.996,19.996 416.008,0 c 6.629,0 12,5.371 12,12 l 0,199.996 c 0,6.629 -5.371,12 -12,12 l -416.008,0 c -6.629,0 -12,-5.371 -12,-12 l 0,-199.996 c 0,-6.629 5.371,-12 12,-12 z m 0,-12 c -13.258,0 -24,10.742 -24,24 l 0,199.996 c 0,13.258 10.742,24 24,24 l 416.008,0 c 13.258,0 24,-10.742 24,-24 l 0,-199.996 c 0,-13.258 -10.742,-24 -24,-24" /><path
         id="path4594"
         style="fill:#000000;fill-opacity:1;fill-rule:nonzero;stroke:none"
         d="m 84.23,82.457 -17.304,0 C 63.098,82.457 60,85.563 60,89.383 l 0,32.215 c 0,3.379 2.449,6.265 5.785,6.824 l 98.059,16.344 46.433,46.437 c 1.305,1.289 3.067,2.024 4.903,2.024 l 133.16,0 c 1.574,0 3.105,-0.536 4.332,-1.512 l 64.734,-51.797 c 1.641,-1.313 2.594,-3.301 2.594,-5.402 l 0,-45.133 c 0,-3.82 -3.094,-6.926 -6.926,-6.926 l -13.836,0 c 0,19.121 -15.511,34.621 -34.621,34.621 -19.121,0 -34.613,-15.5 -34.613,-34.621 l -176.543,0 c 0,19.121 -15.5,34.621 -34.609,34.621 -19.122,0 -34.622,-15.5 -34.622,-34.621 z m 308.083,0 c 0,-15.293 -12.403,-27.695 -27.696,-27.695 -15.293,0 -27.687,12.402 -27.687,27.695 0,15.293 12.394,27.688 27.687,27.688 15.293,0 27.696,-12.395 27.696,-27.688 z m -245.774,0 c 0,-15.293 -12.394,-27.695 -27.687,-27.695 -15.305,0 -27.7,12.402 -27.7,27.695 0,15.293 12.395,27.688 27.7,27.688 15.293,0 27.687,-12.395 27.687,-27.688" /><path
         id="path4596"
         style="fill:#ffffff;fill-opacity:1;fill-rule:nonzero;stroke:none"
         d="m 285.004,137.84 0,41.547 49.051,0 c 1.836,0 3.597,-0.735 4.898,-2.035 l 27.699,-27.684 c 2.7,-2.715 2.7,-7.09 0,-9.805 -1.304,-1.289 -3.062,-2.023 -4.902,-2.023 l -76.746,0 z m -10.395,0 -95.484,0 c -1.914,0 -3.457,1.555 -3.457,3.469 0,0.918 0.359,1.793 1.008,2.441 l 33.601,33.602 c 1.305,1.304 3.067,2.035 4.903,2.035 l 59.429,0" /></g></g></svg>