<?xml version="1.0" encoding="UTF-8" standalone="no"?>
<svg
   xmlns:dc="http://purl.org/dc/elements/1.1/"
   xmlns:cc="http://creativecommons.org/ns#"
   xmlns:rdf="http://www.w3.org/1999/02/22-rdf-syntax-ns#"
   xmlns:svg="http://www.w3.org/2000/svg"
   xmlns="http://www.w3.org/2000/svg"
   viewBox="0 0 600 330"
   height="330"
   width="600"
   xml:space="preserve"
   version="1.1"
   id="svg14139"><metadata
     id="metadata14145"><rdf:RDF><cc:Work
         rdf:about=""><dc:format>image/svg+xml</dc:format><dc:type
           rdf:resource="http://purl.org/dc/dcmitype/StillImage" /><dc:title></dc:title></cc:Work></rdf:RDF></metadata><defs
     id="defs14143"><clipPath
       id="clipPath14157"
       clipPathUnits="userSpaceOnUse"><path
         id="path14159"
         d="M 0,0 480,0 480,264 0,264 0,0 Z" /></clipPath></defs><g
     transform="matrix(1.25,0,0,-1.25,0,330)"
     id="g14147"><g
       id="g14149"><g
         id="g14151"><g
           id="g14153"><g
             clip-path="url(#clipPath14157)"
             id="g14155"><g
               id="g14161"><path
                 id="path14163"
                 style="fill:#ffffff;fill-opacity:1;fill-rule:nonzero;stroke:none"
                 d="m 31.996,263.758 c -17.512,0 -31.754,-14.254 -31.754,-31.766 l 0,-199.996 C 0.242,14.484 14.484,0.242 31.996,0.242 l 416.008,0 c 17.512,0 31.754,14.242 31.754,31.754 l 0,199.996 c 0,17.512 -14.242,31.766 -31.754,31.766" /><path
                 id="path14165"
                 style="fill:#000000;fill-opacity:1;fill-rule:nonzero;stroke:none"
                 d="M 31.996,0.484 C 14.613,0.484 0.484,14.613 0.484,31.996 l 0,199.996 c 0,17.383 14.129,31.524 31.512,31.524 l 416.008,0 c 17.383,0 31.512,-14.141 31.512,-31.524 l 0,-199.996 c 0,-17.383 -14.129,-31.512 -31.512,-31.512 l -416.008,0 z M 448.004,264 31.996,264 C 14.32,264 0,249.672 0,231.992 L 0,31.996 C 0,14.328 14.32,0 31.996,0 L 448.004,0 C 465.672,0 480,14.328 480,31.996 l 0,199.996 C 480,249.672 465.672,264 448.004,264" /></g></g></g></g><path
         id="path14167"
         style="fill:#000000;fill-opacity:1;fill-rule:nonzero;stroke:none"
         d="m 31.996,19.996 416.008,0 c 6.629,0 12,5.371 12,12 l 0,199.996 c 0,6.629 -5.371,12 -12,12 l -416.008,0 c -6.629,0 -12,-5.371 -12,-12 l 0,-199.996 c 0,-6.629 5.371,-12 12,-12 z m 0,-12 c -13.258,0 -24,10.742 -24,24 l 0,199.996 c 0,13.258 10.742,24 24,24 l 416.008,0 c 13.258,0 24,-10.742 24,-24 l 0,-199.996 c 0,-13.258 -10.742,-24 -24,-24" /><path
         id="path14169"
         style="fill:#000000;fill-opacity:1;fill-rule:nonzero;stroke:none"
         d="m 98.332,64.738 0,33.442 24.336,15.922 -1.273,2.945 c -1.559,3.598 -2.364,7.473 -2.364,11.387 0,2.925 0.449,5.832 1.328,8.621 l -9.289,16.859 -22.289,-4.777 -4.777,4.777 19.105,22.293 0,9.555 6.371,-6.371 c 10.832,0 20.918,-5.508 26.782,-14.614 l 15.843,-24.894 c 5.422,-0.762 10.887,-1.141 16.368,-1.141 8.558,0 17.089,0.93 25.449,2.785 l 0.109,0.02 c 1.528,0.281 3.074,0.426 4.621,0.426 5.016,0 9.922,-1.485 14.102,-4.262 l 4.234,4.238 c 3.582,3.582 8.442,5.594 13.512,5.594 8.641,0 16.211,-5.801 18.457,-14.152 l 3.039,-11.329 -11.941,-6.367 -2.547,14.524 c -0.867,4.953 -5.168,8.566 -10.196,8.566 -2.746,0 -5.374,-1.09 -7.316,-3.031 l -2.316,-2.32 c 4.156,-4.664 6.449,-10.692 6.449,-16.942 0,-2.945 -0.508,-5.871 -1.508,-8.637 l 12.656,-20.906 -4.777,-30.258 -9.039,-3.097 4.781,30.254 -22.543,17.59 2.914,-22.368 -14.328,-27.07 -9.555,0 14.332,27.07 -14.121,24.981 c -7.371,-1.785 -14.921,-2.688 -22.503,-2.688 -7.204,0 -14.379,0.817 -21.399,2.426 L 154.066,59.965 152.473,52 l -7.961,0 1.593,7.965 -19.109,44.137 -20.699,-12.29 0,-22.296 -7.965,-4.778" /><path
         id="path14171"
         style="fill:#000000;fill-opacity:1;fill-rule:nonzero;stroke:none"
         d="m 317.855,80 c 0,-15.461 -12.535,-28 -27.996,-28 -15.464,0 -28.004,12.539 -28.004,28 0,15.465 12.54,28 28.004,28 15.461,0 27.996,-12.535 27.996,-28 z m -7.195,0 c 0,11.484 -9.316,20.801 -20.801,20.801 -11.488,0 -20.8,-9.317 -20.8,-20.801 0,-11.488 9.312,-20.797 20.8,-20.797 11.485,0 20.801,9.309 20.801,20.797" /><path
         id="path14173"
         style="fill:#000000;fill-opacity:1;fill-rule:nonzero;stroke:none"
         d="m 395.996,80 c 0,-15.461 -12.535,-28 -28,-28 C 352.531,52 340,64.539 340,80 c 0,15.465 12.531,28 27.996,28 15.465,0 28,-12.535 28,-28 z m -7.199,0 c 0,11.484 -9.313,20.801 -20.801,20.801 -11.488,0 -20.801,-9.317 -20.801,-20.801 0,-11.488 9.313,-20.797 20.801,-20.797 11.488,0 20.801,9.309 20.801,20.797" /><path
         id="path14175"
         style="fill:#000000;fill-opacity:1;fill-rule:nonzero;stroke:none"
         d="m 268.801,100.801 0,11.199 -12.801,9.598 4.801,6.402 8,-6 16.797,25.199 c 1.511,2.016 3.882,3.199 6.398,3.199 l 12,0 0,8 -15.996,0 c -2.434,0 -4.402,1.969 -4.402,4.403 0,2.429 1.968,4.398 4.402,4.398 l 15.996,0 0,11.602 c 0,5.082 4.121,9.199 9.199,9.199 5.082,0 9.203,-4.117 9.203,-9.199 l 0,-34.801 73.598,0 0,-43.199 -6.941,0 c -5.559,5.633 -13.145,8.801 -21.059,8.801 -7.914,0 -15.5,-3.168 -21.058,-8.801 l -36.02,0 c -5.563,5.633 -13.145,8.801 -21.059,8.801 -7.914,0 -15.5,-3.168 -21.062,-8.801 l 0.004,0 z m 13.597,20.797 10.403,0 9.597,14.402 -10.402,0 -9.598,-14.402" /><path
         id="path14177"
         style="fill:#000000;fill-opacity:1;fill-rule:nonzero;stroke:none"
         d="m 323.598,201.602 c 0,-5.747 -4.657,-10.403 -10.403,-10.403 -5.738,0 -10.394,4.656 -10.394,10.403 0,5.742 4.656,10.398 10.394,10.398 5.746,0 10.403,-4.656 10.403,-10.398" /><path
         id="path14179"
         style="fill:#000000;fill-opacity:1;fill-rule:nonzero;stroke:none"
         d="m 264.797,100.801 -36.797,9.597 0,4.004 36.797,-9.601 0,-4" /></g></g></svg>