<?xml version="1.0" encoding="UTF-8" standalone="no"?>
<svg
   xmlns:dc="http://purl.org/dc/elements/1.1/"
   xmlns:cc="http://creativecommons.org/ns#"
   xmlns:rdf="http://www.w3.org/1999/02/22-rdf-syntax-ns#"
   xmlns:svg="http://www.w3.org/2000/svg"
   xmlns="http://www.w3.org/2000/svg"
   viewBox="0 0 600 330"
   height="330"
   width="600"
   xml:space="preserve"
   version="1.1"
   id="svg4698"><metadata
     id="metadata4704"><rdf:RDF><cc:Work
         rdf:about=""><dc:format>image/svg+xml</dc:format><dc:type
           rdf:resource="http://purl.org/dc/dcmitype/StillImage" /><dc:title></dc:title></cc:Work></rdf:RDF></metadata><defs
     id="defs4702"><clipPath
       id="clipPath4716"
       clipPathUnits="userSpaceOnUse"><path
         id="path4718"
         d="M 0,0 480,0 480,264 0,264 0,0 Z" /></clipPath></defs><g
     transform="matrix(1.25,0,0,-1.25,0,330)"
     id="g4706"><g
       id="g4708"><g
         id="g4710"><g
           id="g4712"><g
             clip-path="url(#clipPath4716)"
             id="g4714"><g
               id="g4720"><path
                 id="path4722"
                 style="fill:#ffffff;fill-opacity:1;fill-rule:nonzero;stroke:none"
                 d="m 31.996,263.758 c -17.512,0 -31.754,-14.25 -31.754,-31.766 l 0,-199.996 C 0.242,14.484 14.484,0.242 31.996,0.242 l 416.008,0 c 17.512,0 31.754,14.242 31.754,31.754 l 0,199.996 c 0,17.516 -14.242,31.766 -31.754,31.766" /><path
                 id="path4724"
                 style="fill:#000000;fill-opacity:1;fill-rule:nonzero;stroke:none"
                 d="M 31.996,0.469 C 14.613,0.469 0.48,14.613 0.48,31.996 l 0,199.996 c 0,17.383 14.133,31.528 31.516,31.528 l 416.008,0 c 17.383,0 31.516,-14.145 31.516,-31.528 l 0,-199.996 c 0,-17.383 -14.133,-31.527 -31.516,-31.527 l -416.008,0 z M 448.004,264 31.996,264 C 14.32,264 0,249.672 0,231.992 L 0,31.996 C 0,14.328 14.32,0 31.996,0 L 448.004,0 C 465.672,0 480,14.328 480,31.996 l 0,199.996 C 480,249.672 465.672,264 448.004,264" /></g></g></g></g><path
         id="path4726"
         style="fill:#000000;fill-opacity:1;fill-rule:nonzero;stroke:none"
         d="m 31.996,19.996 416.008,0 c 6.629,0 12,5.371 12,12 l 0,199.996 c 0,6.629 -5.371,12 -12,12 l -416.008,0 c -6.629,0 -12,-5.371 -12,-12 l 0,-199.996 c 0,-6.629 5.371,-12 12,-12 z m 0,-12 c -13.258,0 -24,10.742 -24,24 l 0,199.996 c 0,13.258 10.742,24 24,24 l 416.008,0 c 13.258,0 24,-10.742 24,-24 l 0,-199.996 c 0,-13.258 -10.742,-24 -24,-24" /><path
         id="path4728"
         style="fill:#000000;fill-opacity:1;fill-rule:nonzero;stroke:none"
         d="m 135.762,211.992 c -1.59,0 -3.125,-0.469 -4.442,-1.344 L 102.891,192.23 c -0.996,-1.007 -1.555,-2.363 -1.555,-3.777 l 0,-6.246 c 0,-1.418 0.559,-2.777 1.555,-3.773 l 6.773,-6.758 c 1.5,-1.5 3.535,-2.352 5.656,-2.352 l 71.34,0 0,-5.328 -26.574,-4.746 c -2.094,-0.375 -3.965,-1.578 -5.18,-3.34 l -19.648,-28.582 c -1.258,-1.828 -3.039,-3.203 -5.117,-3.973 l -25.313,-9.273 c -2.101,-0.773 -3.492,-2.766 -3.492,-5.008 l 0,-30.41 c 0,-2.945 2.387,-5.328 5.328,-5.328 l 21.344,0 c 0,14.723 11.933,26.66 26.656,26.66 14.734,0 26.668,-11.937 26.668,-26.66 l 101.336,0 c 0,14.723 11.934,26.66 26.656,26.66 14.723,0 26.668,-11.937 26.668,-26.66 l 10.676,0 31.996,10.664 0,111.992 c 0,2.953 -2.398,5.336 -5.34,5.336 l -69.328,0 -21.328,10.664 -146.906,0 z m 10.906,-10.664 37.332,0 c 1.48,0 2.66,-1.191 2.66,-2.672 l 0,-15.988 C 186.66,181.191 185.48,180 184,180 l -37.332,0 c -1.477,0 -2.668,1.191 -2.668,2.668 l 0,15.988 c 0,1.481 1.191,2.672 2.668,2.672 z m 79.992,-32.004 42.66,0 c 1.489,0 2.68,-1.183 2.68,-2.66 l 0,-79.992 C 272,85.195 270.809,84 269.32,84 l -42.66,0 c -1.465,0 -2.66,1.195 -2.66,2.672 l 0,79.992 c 0,1.477 1.195,2.66 2.66,2.66 z m 69.34,0 37.332,0 c 1.465,0 2.66,-1.183 2.66,-2.66 l 0,-26.668 c 0,-1.476 -1.195,-2.668 -2.66,-2.668 l -37.332,0 c -1.477,0 -2.668,1.192 -2.668,2.668 l 0,26.668 c 0,1.477 1.191,2.66 2.668,2.66 z m -133.141,-14.922 21.141,0 c 1.48,0 2.66,-1.203 2.66,-2.672 l 0,-24.652 c 0,-1.422 -1.117,-2.605 -2.539,-2.66 l -41.246,-1.836 c -1.184,-0.055 -2.18,0.863 -2.234,2.035 -0.024,0.461 0.105,0.906 0.359,1.278 l 17.418,26.125 c 0.984,1.484 2.656,2.382 4.441,2.382 z m -8.195,-59.734 c -11.781,0 -21.332,-9.551 -21.332,-21.332 0,-11.781 9.551,-21.344 21.332,-21.344 11.777,0 21.328,9.563 21.328,21.344 0,11.781 -9.551,21.332 -21.328,21.332 z m 154.66,0 c -11.781,0 -21.328,-9.551 -21.328,-21.332 0,-11.781 9.547,-21.344 21.328,-21.344 11.781,0 21.328,9.563 21.328,21.344 0,11.781 -9.547,21.332 -21.328,21.332 z" /></g></g></svg>