<?xml version="1.0" encoding="UTF-8" standalone="no"?>
<svg
   xmlns:dc="http://purl.org/dc/elements/1.1/"
   xmlns:cc="http://creativecommons.org/ns#"
   xmlns:rdf="http://www.w3.org/1999/02/22-rdf-syntax-ns#"
   xmlns:svg="http://www.w3.org/2000/svg"
   xmlns="http://www.w3.org/2000/svg"
   viewBox="0 0 600 330"
   height="330"
   width="600"
   xml:space="preserve"
   version="1.1"
   id="svg8545"><metadata
     id="metadata8551"><rdf:RDF><cc:Work
         rdf:about=""><dc:format>image/svg+xml</dc:format><dc:type
           rdf:resource="http://purl.org/dc/dcmitype/StillImage" /><dc:title></dc:title></cc:Work></rdf:RDF></metadata><defs
     id="defs8549" /><g
     transform="matrix(1.25,0,0,-1.25,0,330)"
     id="g8553"><g
       id="g8555"><path
         id="path8557"
         style="fill:#ffffff;fill-opacity:1;fill-rule:nonzero;stroke:none"
         d="m 31.996,263.758 c -17.512,0 -31.754,-14.25 -31.754,-31.766 l 0,-199.996 C 0.242,14.484 14.484,0.242 31.996,0.242 l 416.008,0 c 17.512,0 31.754,14.242 31.754,31.754 l 0,199.996 c 0,17.516 -14.242,31.766 -31.754,31.766" /><path
         id="path8559"
         style="fill:#000000;fill-opacity:1;fill-rule:nonzero;stroke:none"
         d="M 31.996,0.469 C 14.613,0.469 0.48,14.613 0.48,31.996 l 0,199.996 c 0,17.383 14.133,31.528 31.516,31.528 l 416.008,0 c 17.383,0 31.516,-14.145 31.516,-31.528 l 0,-199.996 c 0,-17.383 -14.133,-31.527 -31.516,-31.527 l -416.008,0 z M 448.004,264 31.996,264 C 14.32,264 0,249.672 0,231.992 L 0,31.996 C 0,14.328 14.32,0 31.996,0 L 448.004,0 C 465.672,0 480,14.328 480,31.996 l 0,199.996 C 480,249.672 465.672,264 448.004,264" /><path
         id="path8561"
         style="fill:#000000;fill-opacity:1;fill-rule:nonzero;stroke:none"
         d="m 31.996,19.996 416.008,0 c 6.629,0 12,5.371 12,12 l 0,199.996 c 0,6.629 -5.371,12 -12,12 l -416.008,0 c -6.629,0 -12,-5.371 -12,-12 l 0,-199.996 c 0,-6.629 5.371,-12 12,-12 z m 0,-12 c -13.258,0 -24,10.742 -24,24 l 0,199.996 c 0,13.258 10.742,24 24,24 l 416.008,0 c 13.258,0 24,-10.742 24,-24 l 0,-199.996 c 0,-13.258 -10.742,-24 -24,-24" /><path
         id="path8563"
         style="fill:#000000;fill-opacity:1;fill-rule:nonzero;stroke:none"
         d="m 217.094,102.902 117.617,0 C 327.02,96.688 322.547,87.336 322.547,77.445 l -116,0 c 0,9.891 -4.473,19.243 -12.152,25.457" /><path
         id="path8565"
         style="fill:#000000;fill-opacity:1;fill-rule:nonzero;stroke:none"
         d="m 199.273,77.445 c 0,-14.054 -11.398,-25.453 -25.453,-25.453 -14.058,0 -25.457,11.399 -25.457,25.453 0,14.059 11.399,25.457 25.457,25.457 14.055,0 25.453,-11.398 25.453,-25.457 z m 181.457,0 c 0,-14.054 -11.386,-25.453 -25.457,-25.453 -14.054,0 -25.453,11.399 -25.453,25.453 0,14.059 11.399,25.457 25.453,25.457 14.071,0 25.457,-11.398 25.457,-25.457" /><path
         id="path8567"
         style="fill:#000000;fill-opacity:1;fill-rule:nonzero;stroke:none"
         d="m 406.184,77.445 -18.18,0 c 0,9.891 -4.473,19.243 -12.164,25.457 l 52.156,0 0,-18.179" /><path
         id="path8569"
         style="fill:#000000;fill-opacity:1;fill-rule:nonzero;stroke:none"
         d="m 132,77.445 -79.996,0 0,8.493 79.996,16.964 21.254,0 C 145.562,96.688 141.09,87.336 141.09,77.445" /><path
         id="path8571"
         style="fill:#ffffff;fill-opacity:1;fill-rule:nonzero;stroke:none"
         d="m 132,85.938 -39.992,0 39.992,8.488" /><path
         id="path8573"
         style="fill:#000000;fill-opacity:1;fill-rule:nonzero;stroke:none"
         d="m 132,211.996 295.996,0 0,-101.82 -295.996,0 0,101.82 z" /></g></g></svg>