<?xml version="1.0" encoding="UTF-8" standalone="no"?>
<svg
   xmlns:dc="http://purl.org/dc/elements/1.1/"
   xmlns:cc="http://creativecommons.org/ns#"
   xmlns:rdf="http://www.w3.org/1999/02/22-rdf-syntax-ns#"
   xmlns:svg="http://www.w3.org/2000/svg"
   xmlns="http://www.w3.org/2000/svg"
   viewBox="0 0 600 330"
   height="330"
   width="600"
   xml:space="preserve"
   version="1.1"
   id="svg5065"><metadata
     id="metadata5071"><rdf:RDF><cc:Work
         rdf:about=""><dc:format>image/svg+xml</dc:format><dc:type
           rdf:resource="http://purl.org/dc/dcmitype/StillImage" /><dc:title></dc:title></cc:Work></rdf:RDF></metadata><defs
     id="defs5069"><clipPath
       id="clipPath5083"
       clipPathUnits="userSpaceOnUse"><path
         id="path5085"
         d="M 0,0 480,0 480,264 0,264 0,0 Z" /></clipPath></defs><g
     transform="matrix(1.25,0,0,-1.25,0,330)"
     id="g5073"><g
       id="g5075"><g
         id="g5077"><g
           id="g5079"><g
             clip-path="url(#clipPath5083)"
             id="g5081"><g
               id="g5087"><path
                 id="path5089"
                 style="fill:#ffffff;fill-opacity:1;fill-rule:nonzero;stroke:none"
                 d="m 31.996,263.758 c -17.512,0 -31.754,-14.254 -31.754,-31.766 l 0,-199.996 C 0.242,14.484 14.484,0.242 31.996,0.242 l 416.008,0 c 17.512,0 31.754,14.242 31.754,31.754 l 0,199.996 c 0,17.512 -14.242,31.766 -31.754,31.766" /><path
                 id="path5091"
                 style="fill:#000000;fill-opacity:1;fill-rule:nonzero;stroke:none"
                 d="M 31.996,0.484 C 14.613,0.484 0.484,14.613 0.484,31.996 l 0,199.996 c 0,17.383 14.129,31.524 31.512,31.524 l 416.008,0 c 17.383,0 31.512,-14.141 31.512,-31.524 l 0,-199.996 c 0,-17.383 -14.129,-31.512 -31.512,-31.512 l -416.008,0 z M 448.004,264 31.996,264 C 14.32,264 0,249.672 0,231.992 L 0,31.996 C 0,14.328 14.32,0 31.996,0 L 448.004,0 C 465.672,0 480,14.328 480,31.996 l 0,199.996 C 480,249.672 465.672,264 448.004,264" /></g></g></g></g><path
         id="path5093"
         style="fill:#000000;fill-opacity:1;fill-rule:nonzero;stroke:none"
         d="m 31.996,19.996 416.008,0 c 6.629,0 12,5.371 12,12 l 0,199.996 c 0,6.629 -5.371,12 -12,12 l -416.008,0 c -6.629,0 -12,-5.371 -12,-12 l 0,-199.996 c 0,-6.629 5.371,-12 12,-12 z m 0,-12 c -13.258,0 -24,10.742 -24,24 l 0,199.996 c 0,13.258 10.742,24 24,24 l 416.008,0 c 13.258,0 24,-10.742 24,-24 l 0,-199.996 c 0,-13.258 -10.742,-24 -24,-24" /><path
         id="path5095"
         style="fill:#000000;fill-opacity:1;fill-rule:nonzero;stroke:none"
         d="m 349.266,225.387 0,-0.008 c -0.641,-0.012 -1.239,-0.309 -1.641,-0.809 -0.035,-0.043 -0.066,-0.09 -0.098,-0.136 -2.324,-2.887 -6.879,-8.594 -7.125,-8.899 l -3.277,2.633 -9.242,-11.516 0.023,-0.019 c -0.011,-0.012 -0.027,-0.024 -0.039,-0.035 -3.398,-4.243 -3.617,-10.207 -0.543,-14.692 -1.469,-1.965 -2.168,-2.914 -4.543,-6.062 -3.636,-4.832 -7.523,-9.93 -9.215,-12.035 -2.574,-3.477 -6.64,-5.524 -10.961,-5.536 -1.554,0 -3.046,0.282 -4.445,0.758 -2.805,1.367 -5.094,3.672 -6.426,6.578 -0.375,0.735 -1.082,2.223 -1.691,3.5 l -0.082,0.184 3.762,9.988 11.23,0 0,9.989 -42.473,0 c -1.144,0 -2.164,-0.778 -2.425,-1.907 -0.328,-1.336 0.5,-2.695 1.843,-3.008 l 21.145,-5.074 -3.754,-9.988 -89.258,0 4.016,12.945 c 1.301,4.188 5.168,7.032 9.547,7.032 l 16.433,0 0,9.996 -16.433,0 c -8.758,0 -16.5,-5.7 -19.09,-14.075 l -14.52,-46.859 c -23.285,4.719 -46.66,-7.613 -55.929,-29.496 -10.75,-25.41 1.136,-54.723 26.539,-65.477 25.406,-10.769 54.718,1.11 65.476,26.516 10.754,25.418 -1.129,54.73 -26.539,65.484 l 3.981,12.821 59.054,-65.508 c 1.903,-2.102 4.59,-3.313 7.426,-3.313 l 20.992,0 c 0.383,-1.859 0.871,-3.691 1.45,-5.488 8.562,-26.23 36.754,-40.57 62.988,-32 26.23,8.547 40.562,36.734 32.008,62.969 -8.547,26.234 -36.739,40.566 -62.965,32.019 l -7.199,16.106 c 1.179,-0.453 2.398,-0.762 3.707,-0.844 0.543,-0.043 1.086,-0.07 1.632,-0.07 3.922,0 7.625,1.152 10.75,3.168 1.454,0.859 2.911,2.062 4.329,3.742 1.671,1.973 5.992,7.687 10.086,13.121 2.246,2.984 2.82,3.762 4.292,5.727 5.18,-2.536 11.43,-1.149 15.043,3.343 0.2,0.25 0.383,0.504 0.559,0.766 l 8.688,10.82 -3.176,2.547 c 0.211,0.266 5.101,6.379 7.254,9.067 l -0.004,0.003 0.004,0.008 c 0.754,0.934 0.601,2.293 -0.332,3.047 -0.399,0.324 -0.899,0.488 -1.41,0.477 -0.641,-0.016 -1.239,-0.313 -1.637,-0.813 -0.035,-0.043 -0.071,-0.082 -0.102,-0.133 -2.336,-2.902 -6.953,-8.683 -7.156,-8.937 l -6.008,4.82 c 0.254,0.321 5.078,6.344 7.223,9.02 l -0.004,0.004 0.008,0.007 c 0.754,0.93 0.601,2.301 -0.336,3.051 -0.399,0.317 -0.899,0.492 -1.41,0.481 z m -162.325,-56.082 88.602,0 -26.043,-69.41 -62.559,69.41 z m 133.036,-29.961 c 17.222,-0.02 33.125,-11.25 38.281,-28.602 6.285,-21.168 -5.774,-43.426 -26.934,-49.703 -21.164,-6.281 -43.414,5.773 -49.699,26.938 -0.129,0.457 -0.273,0.914 -0.391,1.382 l 27.657,0 c 2.605,-2.48 6.062,-3.867 9.66,-3.875 7.758,0 14.047,6.289 14.047,14.047 -0.008,7.438 -5.825,13.582 -13.254,14.008 l -10.785,24.133 c 2.644,0.781 5.312,1.289 7.957,1.523 1.16,0.094 2.316,0.149 3.461,0.149 z m -159.672,-0.02 c 2.215,-0.008 4.461,-0.211 6.707,-0.609 l -11.711,-37.879 c -0.809,-2.633 0.644,-5.434 3.297,-6.25 2.632,-0.809 5.418,0.66 6.23,3.289 l 11.731,37.883 c 20.113,-9.117 29.031,-32.789 19.914,-52.891 -9.102,-20.109 -32.797,-29.027 -52.907,-19.91 -20.105,9.102 -29.035,32.793 -19.918,52.906 6.598,14.543 21.09,23.571 36.657,23.461 z m 139.121,-5.668 10.332,-23.176 c -3.32,-2.664 -5.254,-6.695 -5.254,-10.949 0,-0.062 0.008,-0.121 0.008,-0.179 l -24.539,0 c 0,14.054 7.379,27.082 19.453,34.304 z" /></g></g></svg>