<?xml version="1.0" encoding="UTF-8" standalone="no"?>
<svg
   xmlns:dc="http://purl.org/dc/elements/1.1/"
   xmlns:cc="http://creativecommons.org/ns#"
   xmlns:rdf="http://www.w3.org/1999/02/22-rdf-syntax-ns#"
   xmlns:svg="http://www.w3.org/2000/svg"
   xmlns="http://www.w3.org/2000/svg"
   id="svg6034"
   version="1.1"
   xml:space="preserve"
   width="600"
   height="330"
   viewBox="0 0 600 330"><metadata
     id="metadata6040"><rdf:RDF><cc:Work
         rdf:about=""><dc:format>image/svg+xml</dc:format><dc:type
           rdf:resource="http://purl.org/dc/dcmitype/StillImage" /><dc:title></dc:title></cc:Work></rdf:RDF></metadata><defs
     id="defs6038"><clipPath
       clipPathUnits="userSpaceOnUse"
       id="clipPath6052"><path
         d="M 0,0 480,0 480,264 0,264 0,0 Z"
         id="path6054" /></clipPath></defs><g
     transform="matrix(1.25,0,0,-1.25,0,330)"
     id="g6046"><g
       id="g6048"><g
         id="g6050"
         clip-path="url(#clipPath6052)"><g
           id="g6056"><path
             d="m 31.996,263.758 c -17.512,0 -31.754,-14.25 -31.754,-31.766 l 0,-199.996 C 0.242,14.484 14.484,0.242 31.996,0.242 l 416.008,0 c 17.512,0 31.754,14.242 31.754,31.754 l 0,199.996 c 0,17.516 -14.242,31.766 -31.754,31.766"
             style="fill:#ffffff;fill-opacity:1;fill-rule:nonzero;stroke:none"
             id="path6058" /><path
             d="M 31.996,0.469 C 14.613,0.469 0.48,14.613 0.48,31.996 l 0,199.996 c 0,17.383 14.133,31.528 31.516,31.528 l 416.008,0 c 17.383,0 31.516,-14.145 31.516,-31.528 l 0,-199.996 c 0,-17.383 -14.133,-31.527 -31.516,-31.527 l -416.008,0 z M 448.004,264 31.996,264 C 14.32,264 0,249.672 0,231.992 L 0,31.996 C 0,14.328 14.32,0 31.996,0 L 448.004,0 C 465.672,0 480,14.328 480,31.996 l 0,199.996 C 480,249.672 465.672,264 448.004,264"
             style="fill:#000000;fill-opacity:1;fill-rule:nonzero;stroke:none"
             id="path6060" /></g></g></g></g><path
     d="m 39.995,305.005 520.01,0 c 8.28625,0 15,-6.71375 15,-15 l 0,-249.995 c 0,-8.28625 -6.71375,-15 -15,-15 l -520.01,0 c -8.28625,0 -15,6.71375 -15,15 l 0,249.995 c 0,8.28625 6.71375,15 15,15 z m 0,15 c -16.5725,0 -30,-13.4275 -30,-30 l 0,-249.995 c 0,-16.5725 13.4275,-30 30,-30 l 520.01,0 c 16.5725,0 30,13.4275 30,30 l 0,249.995 c 0,16.5725 -13.4275,30 -30,30"
     style="fill:#000000;fill-opacity:1;fill-rule:nonzero;stroke:none"
     id="path6062" /><g
     id="g3475"
     transform="matrix(0.59979119,0,0,0.59979119,150.0522,45.041762)"><g
       id="g4548"
       transform="translate(10.1636,8.029761)"><path
         id="path1882"
         style="fill:#000000;fill-opacity:1;fill-rule:evenodd;stroke:none;stroke-width:1px;stroke-linecap:butt;stroke-linejoin:miter;stroke-opacity:1"
         d="m 295.23238,14.905561 c -15.27689,2.60844 -22.93441,10.06106 -29,18.53125 l -17.78125,107.687499 -211.062497,0 c -22.633974,3.4177 -18.15625,13.70231 -18.15625,21.96875 l 17.15625,105.0625 15.125,0 c 11.923756,-39.65325 92.739157,-38.21796 105.312497,0 l 90.6875,0 c -4.37792,-69.28605 95.27097,-166.91193 195.96875,-71.75 l 0,-56.90625 0.25,0 0,-124.593749 -148.5,0 z m -6,27.59375 110.375,0 0.3125,97.374999 -129.84375,1.0625 15.9375,-92.937499 c 0.55544,-1.89677 0.83604,-3.80624 3.21875,-5.5 z" /><path
         id="path1887"
         style="opacity:1;fill:none;fill-opacity:1;fill-rule:nonzero;stroke:#000000;stroke-width:50;stroke-linecap:round;stroke-linejoin:round;stroke-miterlimit:4;stroke-dasharray:none;stroke-dashoffset:0;stroke-opacity:1"
         transform="translate(-230.0275,-650.8975)"
         d="m 665.82779,917.76086 c 0,42.6206 -34.55082,77.17142 -77.17142,77.17142 -42.6206,0 -77.17142,-34.55082 -77.17142,-77.17142 0,-42.6206 34.55082,-77.17142 77.17142,-77.17142 42.6206,0 77.17142,34.55082 77.17142,77.17142 z" /><path
         id="path2776"
         style="opacity:1;fill:none;fill-opacity:1;fill-rule:nonzero;stroke:#000000;stroke-width:50;stroke-linecap:round;stroke-linejoin:round;stroke-miterlimit:4;stroke-dasharray:none;stroke-dashoffset:0;stroke-opacity:1"
         transform="matrix(0.591604,0,0,0.591604,-244.0191,-234.3611)"
         d="m 665.82779,917.76086 c 0,42.6206 -34.55082,77.17142 -77.17142,77.17142 -42.6206,0 -77.17142,-34.55082 -77.17142,-77.17142 0,-42.6206 34.55082,-77.17142 77.17142,-77.17142 42.6206,0 77.17142,34.55082 77.17142,77.17142 z" /></g></g></svg>