<?xml version="1.0" encoding="UTF-8" standalone="no"?>
<svg
   xmlns:dc="http://purl.org/dc/elements/1.1/"
   xmlns:cc="http://creativecommons.org/ns#"
   xmlns:rdf="http://www.w3.org/1999/02/22-rdf-syntax-ns#"
   xmlns:svg="http://www.w3.org/2000/svg"
   xmlns="http://www.w3.org/2000/svg"
   viewBox="0 0 600 330"
   height="330"
   width="600"
   xml:space="preserve"
   version="1.1"
   id="svg5021"><metadata
     id="metadata5027"><rdf:RDF><cc:Work
         rdf:about=""><dc:format>image/svg+xml</dc:format><dc:type
           rdf:resource="http://purl.org/dc/dcmitype/StillImage" /><dc:title></dc:title></cc:Work></rdf:RDF></metadata><defs
     id="defs5025" /><g
     transform="matrix(1.25,0,0,-1.25,0,330)"
     id="g5029"><g
       id="g5031"><path
         id="path5033"
         style="fill:#ffffff;fill-opacity:1;fill-rule:nonzero;stroke:none"
         d="m 31.996,263.758 c -17.512,0 -31.754,-14.25 -31.754,-31.766 l 0,-199.996 C 0.242,14.484 14.484,0.242 31.996,0.242 l 416.008,0 c 17.512,0 31.754,14.242 31.754,31.754 l 0,199.996 c 0,17.516 -14.242,31.766 -31.754,31.766" /><path
         id="path5035"
         style="fill:#000000;fill-opacity:1;fill-rule:nonzero;stroke:none"
         d="M 31.996,0.469 C 14.613,0.469 0.48,14.613 0.48,31.996 l 0,199.996 c 0,17.383 14.133,31.528 31.516,31.528 l 416.008,0 c 17.383,0 31.516,-14.145 31.516,-31.528 l 0,-199.996 c 0,-17.383 -14.133,-31.527 -31.516,-31.527 l -416.008,0 z M 448.004,264 31.996,264 C 14.32,264 0,249.672 0,231.992 L 0,31.996 C 0,14.328 14.32,0 31.996,0 L 448.004,0 C 465.672,0 480,14.328 480,31.996 l 0,199.996 C 480,249.672 465.672,264 448.004,264" /><path
         id="path5037"
         style="fill:#000000;fill-opacity:1;fill-rule:nonzero;stroke:none"
         d="m 31.996,19.996 416.008,0 c 6.629,0 12,5.371 12,12 l 0,199.996 c 0,6.629 -5.371,12 -12,12 l -416.008,0 c -6.629,0 -12,-5.371 -12,-12 l 0,-199.996 c 0,-6.629 5.371,-12 12,-12 z m 0,-12 c -13.258,0 -24,10.742 -24,24 l 0,199.996 c 0,13.258 10.742,24 24,24 l 416.008,0 c 13.258,0 24,-10.742 24,-24 l 0,-199.996 c 0,-13.258 -10.742,-24 -24,-24" /><path
         id="path5039"
         style="fill:#000000;fill-opacity:1;fill-rule:nonzero;stroke:none"
         d="m 251.648,210.953 c 0,-8.305 -6.722,-15.039 -15.039,-15.039 -8.3,0 -15.035,6.734 -15.035,15.039 0,8.313 6.735,15.047 15.035,15.047 8.317,0 15.039,-6.734 15.039,-15.047 z m 7.524,-44.734 0,-43.617 -30.086,0 0,36.074 -19.527,-30.082 c -3.957,-6.09 -12.114,-7.824 -18.204,-3.871 l 37.012,56.992 c 5.649,8.711 17.289,11.187 26,5.527 0.653,-0.41 1.254,-0.867 1.844,-1.363 l 25.25,-21.176 c 2.551,-2.148 4.023,-5.312 4.023,-8.637 l 0,-18.418 c 0,-7.281 -5.886,-13.164 -13.156,-13.164 l 0,30.696 -13.156,11.039 z M 244.137,111.266 208.621,45.863 c -3.957,-7.297 -13.09,-10.004 -20.387,-6.031 l 39.946,73.57 c 0.593,1.102 0.906,2.336 0.906,3.586 l 0,1.852 30.086,0 0,-1.852 c 0,-1.25 0.312,-2.484 0.918,-3.586 l 29.848,-55.004 c 3.964,-7.308 1.269,-16.433 -6.032,-20.386" /></g></g></svg>