<?xml version="1.0" encoding="UTF-8" standalone="no"?>
<svg
   xmlns:dc="http://purl.org/dc/elements/1.1/"
   xmlns:cc="http://creativecommons.org/ns#"
   xmlns:rdf="http://www.w3.org/1999/02/22-rdf-syntax-ns#"
   xmlns:svg="http://www.w3.org/2000/svg"
   xmlns="http://www.w3.org/2000/svg"
   viewBox="0 0 600 330"
   height="330"
   width="600"
   xml:space="preserve"
   version="1.1"
   id="svg10118"><metadata
     id="metadata10124"><rdf:RDF><cc:Work
         rdf:about=""><dc:format>image/svg+xml</dc:format><dc:type
           rdf:resource="http://purl.org/dc/dcmitype/StillImage" /><dc:title></dc:title></cc:Work></rdf:RDF></metadata><defs
     id="defs10122"><clipPath
       id="clipPath10136"
       clipPathUnits="userSpaceOnUse"><path
         id="path10138"
         d="M 0,0 480,0 480,264 0,264 0,0 Z" /></clipPath></defs><g
     transform="matrix(1.25,0,0,-1.25,0,330)"
     id="g10126"><g
       id="g10128"><g
         id="g10130"><g
           id="g10132"><g
             clip-path="url(#clipPath10136)"
             id="g10134"><g
               id="g10140"><path
                 id="path10142"
                 style="fill:#ffffff;fill-opacity:1;fill-rule:nonzero;stroke:none"
                 d="m 31.996,263.758 c -17.512,0 -31.754,-14.254 -31.754,-31.766 l 0,-199.996 C 0.242,14.484 14.484,0.242 31.996,0.242 l 416.008,0 c 17.512,0 31.754,14.242 31.754,31.754 l 0,199.996 c 0,17.512 -14.242,31.766 -31.754,31.766" /><path
                 id="path10144"
                 style="fill:#000000;fill-opacity:1;fill-rule:nonzero;stroke:none"
                 d="M 31.996,0.484 C 14.613,0.484 0.484,14.613 0.484,31.996 l 0,199.996 c 0,17.383 14.129,31.524 31.512,31.524 l 416.008,0 c 17.383,0 31.512,-14.141 31.512,-31.524 l 0,-199.996 c 0,-17.383 -14.129,-31.512 -31.512,-31.512 l -416.008,0 z M 448.004,264 31.996,264 C 14.32,264 0,249.672 0,231.992 L 0,31.996 C 0,14.328 14.32,0 31.996,0 L 448.004,0 C 465.672,0 480,14.328 480,31.996 l 0,199.996 C 480,249.672 465.672,264 448.004,264" /></g></g></g></g><path
         id="path10146"
         style="fill:#000000;fill-opacity:1;fill-rule:nonzero;stroke:none"
         d="m 31.996,19.996 416.008,0 c 6.629,0 12,5.371 12,12 l 0,199.996 c 0,6.629 -5.371,12 -12,12 l -416.008,0 c -6.629,0 -12,-5.371 -12,-12 l 0,-199.996 c 0,-6.629 5.371,-12 12,-12 z m 0,-12 c -13.258,0 -24,10.742 -24,24 l 0,199.996 c 0,13.258 10.742,24 24,24 l 416.008,0 c 13.258,0 24,-10.742 24,-24 l 0,-199.996 c 0,-13.258 -10.742,-24 -24,-24" /><path
         id="path10148"
         style="fill:#2b2a29;fill-opacity:1;fill-rule:evenodd;stroke:none"
         d="m 407.41,228.176 c -1.48,0.07 -2.976,-0.539 -3.398,-1.922 l 0,-20.164 -12.864,0 c -0.101,6.906 0.204,13.863 -0.148,20.734 -0.73,1.106 -2.18,1.36 -3.418,1.317 -1.894,0.074 -3.441,-1.477 -2.879,-3.391 l 0,-18.66 -6.445,0 c 0.113,-8.535 -0.231,-17.09 0.183,-25.613 0.903,-7.625 6.891,-14.25 14.329,-16.059 0.214,-7.828 -6.926,-14.781 -14.739,-14.418 -11.625,0.102 -22.308,-9.43 -23.519,-20.996 -0.637,-6.223 0.293,-12.551 -0.504,-18.754 -1.203,-6.547 -7.465,-11.578 -14.094,-11.504 l 0.024,22.227 c 0,3.121 -1.012,6.175 -2.895,8.675 l -2.895,3.864 c -2.027,2.707 -3.726,5.625 -5.078,8.73 l -19.086,43.856 c -1.91,4.398 -6.261,7.242 -11.066,7.242 l -120.625,0 c -4.801,0 -9.141,-2.844 -11.063,-7.242 l -19.085,-43.856 c -1.352,-3.105 -3.059,-6.023 -5.098,-8.73 l -2.887,-3.864 c -1.875,-2.5 -2.883,-5.554 -2.883,-8.675 l 0,-31.368 c 0,-6.667 5.391,-12.066 12.067,-12.066 l 178.527,0 c 6.465,0 11.731,5.098 12.031,11.492 l 0,0.125 c 11.618,-0.238 22.407,9.125 23.797,20.66 0.711,6.43 -0.344,12.977 0.598,19.379 1.41,6.875 8.344,11.793 15.281,11.223 11.617,0.355 21.926,10.262 22.715,21.859 -0.609,2.352 1.363,2.512 3.094,3.157 7.527,3.265 12.203,11.535 11.515,19.656 l 0,21 -6.445,0 c -0.105,6.902 0.203,13.871 -0.152,20.734 -0.61,0.832 -1.746,1.297 -2.895,1.352 z m -226.203,-46.899 114.793,0 c 1.922,0 3.676,-1.121 4.441,-2.89 l 16.563,-38.125 -156.813,0 16.579,38.125 c 0.781,1.769 2.519,2.89 4.437,2.89 z m -17.395,-53.078 c 8,0 14.481,-6.48 14.481,-14.476 0,-7.996 -6.481,-14.453 -14.481,-14.453 -7.996,0 -14.468,6.457 -14.468,14.453 0,7.996 6.472,14.476 14.468,14.476 z m 149.583,0 c 8.007,0 14.476,-6.48 14.476,-14.476 0,-7.996 -6.469,-14.453 -14.476,-14.453 -7.981,0 -14.477,6.457 -14.477,14.453 0,7.996 6.496,14.476 14.477,14.476 z m -164.051,-55.488 0,-26.543 c 0,-4.008 3.234,-7.227 7.226,-7.227 l 14.469,0 c 4.008,0 7.254,3.219 7.254,7.227 l 0,26.543 -28.949,0 z m 149.574,0 0,-26.543 c 0,-4.008 3.25,-7.227 7.25,-7.227 l 14.477,0 c 4.003,0 7.226,3.219 7.226,7.227 l 0,26.543 -28.953,0 z" /></g></g></svg>