<?xml version="1.0" encoding="UTF-8" standalone="no"?>
<svg
   xmlns:dc="http://purl.org/dc/elements/1.1/"
   xmlns:cc="http://creativecommons.org/ns#"
   xmlns:rdf="http://www.w3.org/1999/02/22-rdf-syntax-ns#"
   xmlns:svg="http://www.w3.org/2000/svg"
   xmlns="http://www.w3.org/2000/svg"
   viewBox="0 0 600 330"
   height="330"
   width="600"
   xml:space="preserve"
   version="1.1"
   id="svg4784"><metadata
     id="metadata4790"><rdf:RDF><cc:Work
         rdf:about=""><dc:format>image/svg+xml</dc:format><dc:type
           rdf:resource="http://purl.org/dc/dcmitype/StillImage" /><dc:title></dc:title></cc:Work></rdf:RDF></metadata><defs
     id="defs4788"><clipPath
       id="clipPath4800"
       clipPathUnits="userSpaceOnUse"><path
         id="path4802"
         d="M 0,0 480,0 480,264 0,264 0,0 Z" /></clipPath></defs><g
     transform="matrix(1.25,0,0,-1.25,0,330)"
     id="g4792"><g
       id="g4794"><g
         id="g4796"><g
           id="g4798" /><g
           id="g4804"><g
             id="g4806"
             clip-path="url(#clipPath4800)"><g
               id="g4808"><path
                 id="path4810"
                 style="fill:#ffffff;fill-opacity:1;fill-rule:nonzero;stroke:none"
                 d="m 31.996,263.758 c -17.512,0 -31.754,-14.25 -31.754,-31.766 l 0,-199.996 C 0.242,14.484 14.484,0.242 31.996,0.242 l 416.008,0 c 17.512,0 31.754,14.242 31.754,31.754 l 0,199.996 c 0,17.516 -14.242,31.766 -31.754,31.766" /><path
                 id="path4812"
                 style="fill:#000000;fill-opacity:1;fill-rule:nonzero;stroke:none"
                 d="M 31.996,0.469 C 14.613,0.469 0.48,14.613 0.48,31.996 l 0,199.996 c 0,17.383 14.133,31.528 31.516,31.528 l 416.008,0 c 17.383,0 31.516,-14.145 31.516,-31.528 l 0,-199.996 c 0,-17.383 -14.133,-31.527 -31.516,-31.527 l -416.008,0 z M 448.004,264 31.996,264 C 14.32,264 0,249.672 0,231.992 L 0,31.996 C 0,14.328 14.32,0 31.996,0 L 448.004,0 C 465.672,0 480,14.328 480,31.996 l 0,199.996 C 480,249.672 465.672,264 448.004,264" /></g></g></g></g></g><g
       id="g4814"><path
         id="path4816"
         style="fill:#000000;fill-opacity:1;fill-rule:nonzero;stroke:none"
         d="m 31.996,19.996 416.008,0 c 6.629,0 12,5.371 12,12 l 0,199.996 c 0,6.629 -5.371,12 -12,12 l -416.008,0 c -6.629,0 -12,-5.371 -12,-12 l 0,-199.996 c 0,-6.629 5.371,-12 12,-12 z m 0,-12 c -13.258,0 -24,10.742 -24,24 l 0,199.996 c 0,13.258 10.742,24 24,24 l 416.008,0 c 13.258,0 24,-10.742 24,-24 l 0,-199.996 c 0,-13.258 -10.742,-24 -24,-24" /><path
         id="path4818"
         style="fill:#000000;fill-opacity:1;fill-rule:evenodd;stroke:none"
         d="m 276.496,64.621 c -23.516,1.188 -58.125,-2.957 -69.734,11.762 -5.321,28 -20.524,42.097 -46.629,42.387 -16.028,30.953 13.066,35.804 32.953,43.757 1.266,-14.386 0.492,-29.343 23.246,-37.742 0.914,4.453 2.781,8.09 8.754,8.207 l 33.637,-0.137 23.793,18.594 c 3.843,-6.113 11.472,-13.949 11.484,-18.32 l 36.098,-0.137 c 2.629,-2.242 4.859,-8.183 -0.41,-14.086 -21.625,0.657 -60.926,-1.707 -53.192,-54.285 z" /><path
         id="path4820"
         style="fill:#000000;fill-opacity:1;fill-rule:evenodd;stroke:none"
         d="m 217.82,182.98 0.098,12.75 14.277,1.938 0,10.117 -14.566,-2.422 c 1.07,9.117 6.93,15.707 19.84,17.617 8.109,-0.57 16.609,-1.011 21.445,-16.175 1.418,-6.016 0.535,-12.102 -3.199,-17.34 -12.094,6.625 -21.145,2.101 -29.399,-5.336 l -8.496,-1.149 z" /><path
         id="path4822"
         style="fill:#000000;fill-opacity:1;fill-rule:evenodd;stroke:none"
         d="m 192.949,155.414 42.528,32.133 c 5.714,3.051 12.019,3.629 19.554,-0.957 6.438,-5.848 17.317,-22.055 25.977,-33.09 l -24.199,-18.117 -23.246,32.34 -36.782,-28.168 c -2.832,4.941 -3.496,10.742 -3.832,15.859 z" /><g
         transform="matrix(1,0,0,-1,0,264)"
         id="g4824"><path
           id="path4826"
           style="fill:none;stroke:#000000;stroke-width:12.77312279;stroke-linecap:round;stroke-linejoin:round;stroke-miterlimit:4;stroke-dasharray:none;stroke-opacity:1"
           d="m 194.863,186.035 c 0.004,16.852 -13.66,30.516 -30.515,30.516 -16.852,0 -30.516,-13.664 -30.512,-30.516 -0.004,-16.855 13.66,-30.519 30.512,-30.519 16.855,0 30.519,13.664 30.515,30.519 z" /></g><g
         transform="matrix(1,0,0,-1,0,264)"
         id="g4828"><path
           id="path4830"
           style="fill:none;stroke:#000000;stroke-width:12.77312279;stroke-linecap:round;stroke-linejoin:round;stroke-miterlimit:4;stroke-dasharray:none;stroke-opacity:1"
           d="m 346.164,186.074 c 0.004,16.856 -13.66,30.52 -30.512,30.52 -16.855,0 -30.519,-13.664 -30.515,-30.52 -0.004,-16.851 13.66,-30.515 30.515,-30.515 16.852,0 30.516,13.664 30.512,30.515 z" /></g></g></g></svg>