<?xml version="1.0" encoding="UTF-8" standalone="no"?>
<svg
   xmlns:dc="http://purl.org/dc/elements/1.1/"
   xmlns:cc="http://creativecommons.org/ns#"
   xmlns:rdf="http://www.w3.org/1999/02/22-rdf-syntax-ns#"
   xmlns:svg="http://www.w3.org/2000/svg"
   xmlns="http://www.w3.org/2000/svg"
   viewBox="0 0 600 330"
   height="330"
   width="600"
   xml:space="preserve"
   version="1.1"
   id="svg5955"><metadata
     id="metadata5961"><rdf:RDF><cc:Work
         rdf:about=""><dc:format>image/svg+xml</dc:format><dc:type
           rdf:resource="http://purl.org/dc/dcmitype/StillImage" /><dc:title></dc:title></cc:Work></rdf:RDF></metadata><defs
     id="defs5959" /><g
     transform="matrix(1.25,0,0,-1.25,0,330)"
     id="g5963"><g
       id="g5965"><path
         id="path5967"
         style="fill:#ffffff;fill-opacity:1;fill-rule:nonzero;stroke:none"
         d="m 31.996,263.758 c -17.512,0 -31.754,-14.25 -31.754,-31.766 l 0,-199.996 C 0.242,14.484 14.484,0.242 31.996,0.242 l 416.008,0 c 17.512,0 31.754,14.242 31.754,31.754 l 0,199.996 c 0,17.516 -14.242,31.766 -31.754,31.766" /><path
         id="path5969"
         style="fill:#000000;fill-opacity:1;fill-rule:nonzero;stroke:none"
         d="M 31.996,0.469 C 14.613,0.469 0.48,14.613 0.48,31.996 l 0,199.996 c 0,17.383 14.133,31.528 31.516,31.528 l 416.008,0 c 17.383,0 31.516,-14.145 31.516,-31.528 l 0,-199.996 c 0,-17.383 -14.133,-31.527 -31.516,-31.527 l -416.008,0 z M 448.004,264 31.996,264 C 14.32,264 0,249.672 0,231.992 L 0,31.996 C 0,14.328 14.32,0 31.996,0 L 448.004,0 C 465.672,0 480,14.328 480,31.996 l 0,199.996 C 480,249.672 465.672,264 448.004,264" /><path
         id="path5971"
         style="fill:#000000;fill-opacity:1;fill-rule:nonzero;stroke:none"
         d="m 31.996,19.996 416.008,0 c 6.629,0 12,5.371 12,12 l 0,199.996 c 0,6.629 -5.371,12 -12,12 l -416.008,0 c -6.629,0 -12,-5.371 -12,-12 l 0,-199.996 c 0,-6.629 5.371,-12 12,-12 z m 0,-12 c -13.258,0 -24,10.742 -24,24 l 0,199.996 c 0,13.258 10.742,24 24,24 l 416.008,0 c 13.258,0 24,-10.742 24,-24 l 0,-199.996 c 0,-13.258 -10.742,-24 -24,-24" /><path
         id="path5973"
         style="fill:#000000;fill-opacity:1;fill-rule:nonzero;stroke:none"
         d="m 168.121,224 c -5.719,0 -10.891,-3.387 -13.18,-8.633 l -22.746,-52.262 c -1.605,-3.703 -3.64,-7.179 -6.066,-10.402 l -3.441,-4.605 c -2.239,-2.985 -3.446,-6.621 -3.446,-10.344 l 0,-37.371 c 0,-7.949 6.43,-14.383 14.383,-14.383 l 212.75,0 c 7.941,0 14.383,6.434 14.383,14.383 l 0,37.371 c 0,3.723 -1.203,7.359 -3.446,10.344 l -3.46,4.605 c -2.411,3.223 -4.43,6.699 -6.047,10.402 l -22.746,52.262 c -2.274,5.246 -7.461,8.633 -13.176,8.633 l -143.762,0 z m 3.477,-14.379 136.8,0 c 2.29,0 4.375,-1.336 5.29,-3.441 l 19.738,-45.434 -186.871,0 19.757,45.434 c 0.926,2.105 3,3.441 5.286,3.441 z m -20.727,-63.254 c 9.531,0 17.25,-7.719 17.25,-17.246 0,-9.535 -7.719,-17.234 -17.25,-17.234 -9.527,0 -17.246,7.699 -17.246,17.234 0,9.527 7.719,17.246 17.246,17.246 z m 178.258,0 c 9.543,0 17.246,-7.719 17.246,-17.246 0,-9.535 -7.703,-17.234 -17.246,-17.234 -9.516,0 -17.246,7.699 -17.246,17.234 0,9.527 7.73,17.246 17.246,17.246 z m -195.504,-66.125 0,-31.629 c 0,-4.773 3.852,-8.613 8.613,-8.613 l 17.246,0 c 4.774,0 8.637,3.84 8.637,8.613 l 0,31.629 -34.496,0 z m 178.258,0 0,-31.629 c 0,-4.773 3.859,-8.613 8.633,-8.613 l 17.246,0 c 4.773,0 8.613,3.84 8.613,8.613 l 0,31.629 -34.492,0 z" /></g></g></svg>