<?xml version="1.0" encoding="UTF-8" standalone="no"?>
<svg
   xmlns:dc="http://purl.org/dc/elements/1.1/"
   xmlns:cc="http://creativecommons.org/ns#"
   xmlns:rdf="http://www.w3.org/1999/02/22-rdf-syntax-ns#"
   xmlns:svg="http://www.w3.org/2000/svg"
   xmlns="http://www.w3.org/2000/svg"
   viewBox="0 0 600 330"
   height="330"
   width="600"
   xml:space="preserve"
   version="1.1"
   id="svg4490"><metadata
     id="metadata4496"><rdf:RDF><cc:Work
         rdf:about=""><dc:format>image/svg+xml</dc:format><dc:type
           rdf:resource="http://purl.org/dc/dcmitype/StillImage" /><dc:title></dc:title></cc:Work></rdf:RDF></metadata><defs
     id="defs4494"><clipPath
       id="clipPath4506"
       clipPathUnits="userSpaceOnUse"><path
         id="path4508"
         d="M 0,0 480,0 480,264 0,264 0,0 Z" /></clipPath></defs><g
     transform="matrix(1.25,0,0,-1.25,0,330)"
     id="g4498"><g
       id="g4500"><g
         id="g4502"><g
           id="g4504" /><g
           id="g4510"><g
             id="g4512"
             clip-path="url(#clipPath4506)"><g
               id="g4514"><path
                 id="path4516"
                 style="fill:#ffffff;fill-opacity:1;fill-rule:nonzero;stroke:none"
                 d="m 31.996,263.758 c -17.512,0 -31.754,-14.254 -31.754,-31.766 l 0,-199.996 C 0.242,14.484 14.484,0.242 31.996,0.242 l 416.008,0 c 17.512,0 31.754,14.242 31.754,31.754 l 0,199.996 c 0,17.512 -14.242,31.766 -31.754,31.766" /><path
                 id="path4518"
                 style="fill:#000000;fill-opacity:1;fill-rule:nonzero;stroke:none"
                 d="M 31.996,0.484 C 14.613,0.484 0.484,14.613 0.484,31.996 l 0,199.996 c 0,17.383 14.129,31.524 31.512,31.524 l 416.008,0 c 17.383,0 31.512,-14.141 31.512,-31.524 l 0,-199.996 c 0,-17.383 -14.129,-31.512 -31.512,-31.512 l -416.008,0 z M 448.004,264 31.996,264 C 14.32,264 0,249.672 0,231.992 L 0,31.996 C 0,14.328 14.32,0 31.996,0 L 448.004,0 C 465.672,0 480,14.328 480,31.996 l 0,199.996 C 480,249.672 465.672,264 448.004,264" /></g></g></g></g></g><g
       id="g4520"><path
         id="path4522"
         style="fill:#000000;fill-opacity:1;fill-rule:nonzero;stroke:none"
         d="m 31.996,19.996 416.008,0 c 6.629,0 12,5.371 12,12 l 0,199.996 c 0,6.629 -5.371,12 -12,12 l -416.008,0 c -6.629,0 -12,-5.371 -12,-12 l 0,-199.996 c 0,-6.629 5.371,-12 12,-12 z m 0,-12 c -13.258,0 -24,10.742 -24,24 l 0,199.996 c 0,13.258 10.742,24 24,24 l 416.008,0 c 13.258,0 24,-10.742 24,-24 l 0,-199.996 c 0,-13.258 -10.742,-24 -24,-24" /><path
         id="path4524"
         style="fill:#000000;fill-opacity:1;fill-rule:nonzero;stroke:none"
         d="m 100.031,100.926 c 0,-11.727 -9.504,-21.235 -21.23,-21.235 -11.727,0 -21.235,9.508 -21.235,21.235 0,11.726 9.508,21.234 21.235,21.234 11.726,0 21.23,-9.508 21.23,-21.234 z" /><path
         id="path4526"
         style="fill:#000000;fill-opacity:1;fill-rule:evenodd;stroke:none"
         d="m 146.539,182.012 c 1.129,1.308 2.418,2.433 4.797,2.289 l 102.719,0 51.05,-40.535 c 0.563,-1.192 0.848,-2.102 0.989,-2.871 l 0.195,-35.922 c -0.949,-2.059 -2.066,-3.817 -4.055,-4 l -11.847,0 c 0,35.121 -51.918,35.191 -51.918,0 l -133.387,0 c 0,34.984 -52.312,35.117 -52.312,0 l -14.454,0 c -1.234,0.578 -2.343,0.043 -3.972,4.183 l -0.156,25.828 c 0.839,2.352 1.886,3.246 2.933,4.157 l 75.082,12.472 34.336,34.399 z" /><path
         id="path4528"
         style="fill:#000000;fill-opacity:1;fill-rule:nonzero;stroke:none"
         d="m 285.441,100.934 c 0,-11.727 -9.507,-21.231 -21.234,-21.231 -11.727,0 -21.23,9.504 -21.23,21.231 0,11.726 9.503,21.234 21.23,21.234 11.727,0 21.234,-9.508 21.234,-21.234 z" /><path
         id="path4530"
         style="fill:#ffffff;fill-opacity:1;fill-rule:evenodd;stroke:none"
         d="m 266.527,150.375 -21.925,22.082 c -0.579,0.492 -1.032,1.168 -2.036,1.02 l -38.273,0 0,-30.926 65.23,0 c 3.086,0.617 -0.972,4.781 -2.996,7.824 z" /><path
         id="path4532"
         style="fill:#000000;fill-opacity:1;fill-rule:evenodd;stroke:none"
         d="m 365.027,111.723 -33.511,0 0,-5.465 -20.743,0 0,-5.535 52.481,0 c 0.402,3.699 0.289,7.48 1.773,11 z" /><path
         id="path4534"
         style="fill:#ffffff;fill-opacity:1;fill-rule:evenodd;stroke:none"
         d="m 122.723,147.215 25.586,25.25 c 0.578,0.488 1.031,1.164 2.035,1.015 l 45.496,0 0,-30.925 -71.168,0 c -2.707,1.07 -3.074,2.691 -1.949,4.66 z" /><path
         id="path4536"
         style="fill:#000000;fill-opacity:1;fill-rule:nonzero;stroke:none"
         d="m 410.191,100.918 c 0,-11.727 -9.507,-21.23 -21.234,-21.23 -11.727,0 -21.234,9.503 -21.234,21.23 0,11.727 9.507,21.234 21.234,21.234 11.727,0 21.234,-9.507 21.234,-21.234 z" /><path
         id="path4538"
         style="fill:#000000;fill-opacity:1;fill-rule:evenodd;stroke:none"
         d="m 331.59,116.445 0,48.125 c 1.043,7.5 4.89,8.223 8.414,9.301 l 98.168,0 c 2.676,-0.691 5.949,-1.262 7.605,-8.711 l 0,-48.715 -36.316,0 c -7.457,15.305 -33.215,15.371 -41.113,0 l -36.758,0 z" /><path
         id="path4540"
         style="fill:#000000;fill-opacity:1;fill-rule:evenodd;stroke:none"
         d="m 445.813,111.723 -5.278,-11 -25.98,0 c -0.774,3.687 -0.727,7.488 -2.731,11 l 33.989,0 z" /></g></g></svg>