<?xml version="1.0" encoding="UTF-8" standalone="no"?>
<svg
   xmlns:dc="http://purl.org/dc/elements/1.1/"
   xmlns:cc="http://creativecommons.org/ns#"
   xmlns:rdf="http://www.w3.org/1999/02/22-rdf-syntax-ns#"
   xmlns:svg="http://www.w3.org/2000/svg"
   xmlns="http://www.w3.org/2000/svg"
   viewBox="0 0 600 330"
   height="330"
   width="600"
   xml:space="preserve"
   version="1.1"
   id="svg4616"><metadata
     id="metadata4622"><rdf:RDF><cc:Work
         rdf:about=""><dc:format>image/svg+xml</dc:format><dc:type
           rdf:resource="http://purl.org/dc/dcmitype/StillImage" /><dc:title></dc:title></cc:Work></rdf:RDF></metadata><defs
     id="defs4620"><clipPath
       id="clipPath4632"
       clipPathUnits="userSpaceOnUse"><path
         id="path4634"
         d="M 0,0 480,0 480,264 0,264 0,0 Z" /></clipPath></defs><g
     transform="matrix(1.25,0,0,-1.25,0,330)"
     id="g4624"><g
       id="g4626"><g
         id="g4628"><g
           id="g4630" /><g
           id="g4636"><g
             id="g4638"
             clip-path="url(#clipPath4632)"><g
               id="g4640"><path
                 id="path4642"
                 style="fill:#ffffff;fill-opacity:1;fill-rule:nonzero;stroke:none"
                 d="m 31.996,263.77 c -17.512,0 -31.754,-14.254 -31.754,-31.766 l 0,-199.996 C 0.242,14.492 14.484,0.25 31.996,0.25 l 416.008,0 c 17.512,0 31.754,14.242 31.754,31.758 l 0,199.996 c 0,17.512 -14.242,31.766 -31.754,31.766" /><path
                 id="path4644"
                 style="fill:#000000;fill-opacity:1;fill-rule:nonzero;stroke:none"
                 d="M 31.996,0.48 C 14.613,0.48 0.48,14.625 0.48,32.008 l 0,199.996 c 0,17.383 14.133,31.527 31.516,31.527 l 416.008,0 c 17.383,0 31.516,-14.144 31.516,-31.527 l 0,-199.996 C 479.52,14.625 465.387,0.48 448.004,0.48 l -416.008,0 z m 416.008,263.532 -416.008,0 C 14.32,264.012 0,249.68 0,232.004 L 0,32.008 C 0,14.34 14.32,0 31.996,0 L 448.004,0 C 465.672,0 480,14.34 480,32.008 l 0,199.996 c 0,17.676 -14.328,32.008 -31.996,32.008" /></g></g></g></g></g><g
       id="g4646"><path
         id="path4648"
         style="fill:#000000;fill-opacity:1;fill-rule:nonzero;stroke:none"
         d="m 31.996,20.008 416.008,0 c 6.629,0 12,5.371 12,12 l 0,199.996 c 0,6.629 -5.371,12 -12,12 l -416.008,0 c -6.629,0 -12,-5.371 -12,-12 l 0,-199.996 c 0,-6.629 5.371,-12 12,-12 z m 0,-12 c -13.258,0 -24,10.742 -24,24 l 0,199.996 c 0,13.258 10.742,24 24,24 l 416.008,0 c 13.258,0 24,-10.742 24,-24 l 0,-199.996 c 0,-13.258 -10.742,-24 -24,-24" /><path
         id="path4650"
         style="fill:#000000;fill-opacity:1;fill-rule:nonzero;stroke:none"
         d="m 430,109.391 -151.023,0 0,68.203 151.023,0 0,-68.203 z M 408.078,87.469 c 0,-9.418 -7.637,-17.055 -17.043,-17.055 -9.418,0 -17.066,7.637 -17.066,17.055 0,9.418 7.648,17.051 17.066,17.051 9.406,0 17.043,-7.633 17.043,-17.051 z m -82.82,0 c 0,-9.418 -7.637,-17.055 -17.055,-17.055 -9.418,0 -17.043,7.637 -17.043,17.055 0,9.418 7.625,17.051 17.043,17.051 9.418,0 17.055,-7.633 17.055,-17.051 z M 430,92.348 l -17.59,0 c -1.105,4.789 -3.777,9.078 -7.605,12.172 l 25.195,0 0,-12.172 z m -100.422,0 c -1.082,4.789 -3.762,9.078 -7.59,12.172 l 55.262,0 c -3.828,-3.094 -6.496,-7.383 -7.602,-12.172 l -40.07,0 z m -60.348,0 0,12.172 25.192,0 c -3.828,-3.094 -6.5,-7.383 -7.594,-12.172 l -17.598,0 z m -9.738,17.043 -141.285,0 0,68.203 141.285,0 0,-68.203 z m -14.625,-21.922 -12.176,0 c 0,6.617 -2.984,12.886 -8.136,17.051 l 34.937,0 0,-12.172 -14.625,-4.879 z m -17.043,0 c 0,-9.418 -7.633,-17.055 -17.054,-17.055 -9.418,0 -17.051,7.637 -17.051,17.055 0,9.418 7.633,17.051 17.051,17.051 9.421,0 17.054,-7.633 17.054,-17.051 z m -131.539,0 c 0,-9.418 -7.637,-17.055 -17.055,-17.055 -9.417,0 -17.054,7.637 -17.054,17.055 0,9.418 7.637,17.051 17.054,17.051 9.418,0 17.055,-7.633 17.055,-17.051 z m 12.176,73.082 0,-56.031 88.527,0 c -5.14,-4.165 -8.14,-10.434 -8.14,-17.051 l -87.696,0 c 0,12.109 -9.812,21.922 -21.922,21.922 -12.109,0 -21.921,-9.813 -21.921,-21.922 l -2.438,0 C 52.18,87.469 50,89.656 50,92.348 l 0,26.91 c 0,2.328 0.418,4.648 1.238,6.836 l 10.754,28.66 c 0.668,1.805 2.34,3.027 4.254,3.148" /><path
         id="path4652"
         style="fill:#ffffff;fill-opacity:1;fill-rule:nonzero;stroke:none"
         d="M 91.406,127.656 59.07,123.863 c -1.343,-0.168 -2.55,0.797 -2.715,2.133 -0.042,0.383 0,0.777 0.145,1.137 l 8.172,21.769 c 0.328,0.907 1.168,1.52 2.121,1.586 l 24.613,1.532" /></g></g></svg>