<?xml version="1.0" encoding="UTF-8" standalone="no"?>
<svg
   xmlns:dc="http://purl.org/dc/elements/1.1/"
   xmlns:cc="http://creativecommons.org/ns#"
   xmlns:rdf="http://www.w3.org/1999/02/22-rdf-syntax-ns#"
   xmlns:svg="http://www.w3.org/2000/svg"
   xmlns="http://www.w3.org/2000/svg"
   viewBox="0 0 600 330"
   height="330"
   width="600"
   xml:space="preserve"
   version="1.1"
   id="svg5466"><metadata
     id="metadata5472"><rdf:RDF><cc:Work
         rdf:about=""><dc:format>image/svg+xml</dc:format><dc:type
           rdf:resource="http://purl.org/dc/dcmitype/StillImage" /><dc:title></dc:title></cc:Work></rdf:RDF></metadata><defs
     id="defs5470" /><g
     transform="matrix(1.25,0,0,-1.25,0,330)"
     id="g5474"><g
       id="g5476"><path
         id="path5478"
         style="fill:#ffffff;fill-opacity:1;fill-rule:nonzero;stroke:none"
         d="m 31.996,263.758 c -17.512,0 -31.754,-14.25 -31.754,-31.766 l 0,-199.996 C 0.242,14.484 14.484,0.242 31.996,0.242 l 416.008,0 c 17.512,0 31.754,14.242 31.754,31.754 l 0,199.996 c 0,17.516 -14.242,31.766 -31.754,31.766" /><path
         id="path5480"
         style="fill:#000000;fill-opacity:1;fill-rule:nonzero;stroke:none"
         d="M 31.996,0.469 C 14.613,0.469 0.48,14.613 0.48,31.996 l 0,199.996 c 0,17.383 14.133,31.528 31.516,31.528 l 416.008,0 c 17.383,0 31.516,-14.145 31.516,-31.528 l 0,-199.996 c 0,-17.383 -14.133,-31.527 -31.516,-31.527 l -416.008,0 z M 448.004,264 31.996,264 C 14.32,264 0,249.672 0,231.992 L 0,31.996 C 0,14.328 14.32,0 31.996,0 L 448.004,0 C 465.672,0 480,14.328 480,31.996 l 0,199.996 C 480,249.672 465.672,264 448.004,264" /><path
         id="path5482"
         style="fill:#000000;fill-opacity:1;fill-rule:nonzero;stroke:none"
         d="m 31.996,19.996 416.008,0 c 6.629,0 12,5.371 12,12 l 0,199.996 c 0,6.629 -5.371,12 -12,12 l -416.008,0 c -6.629,0 -12,-5.371 -12,-12 l 0,-199.996 c 0,-6.629 5.371,-12 12,-12 z m 0,-12 c -13.258,0 -24,10.742 -24,24 l 0,199.996 c 0,13.258 10.742,24 24,24 l 416.008,0 c 13.258,0 24,-10.742 24,-24 l 0,-199.996 c 0,-13.258 -10.742,-24 -24,-24" /><path
         id="path5484"
         style="fill:#000000;fill-opacity:1;fill-rule:evenodd;stroke:none"
         d="m 113.316,164.953 c 1.286,3.258 24.789,26.567 38.332,38.934 l -23.562,12.051 31.023,0.054 9.254,-9.863 8.141,8.09 c 3.199,-3.078 3.176,-10.36 0.121,-18.188 l 40.477,-5.554 132.226,0.082 c 2.781,-1.524 9.984,-0.172 13.274,-14.258 l 0.066,-53.906 4.016,-5.024 c -2.18,-6.449 -4.211,-13.086 -7,-18.773 -2.844,5.054 -4.922,11.851 -5.348,21.097 l -0.086,57.629 c -2.609,3.965 -5.688,6.426 -10.223,4.305 1.887,-3.203 3.563,-6.516 3.379,-10.832 l 0.063,-122.707 -15.11,-0.059 c 7.352,18.492 2.735,36.922 -11.808,53.969 l -23.141,-54.008 -14.355,0 c 4.914,8.012 10.633,14.735 11.703,28.891 C 294.523,91 292.656,104 283.797,112.207 l -42.875,-7.488 4.508,-56.668 -14.575,-0.039 c 5.36,16.715 -0.453,37.601 -10.691,49.562 l -6.504,-49.582 -15.105,0.039 c 20.496,52.766 -10.723,79.028 -33.676,106.387 l -40.817,0.047 c -5.238,1.289 -8.218,5.586 -10.746,10.488 z" /></g></g></svg>