<?xml version="1.0" encoding="UTF-8" standalone="no"?>
<svg
   xmlns:dc="http://purl.org/dc/elements/1.1/"
   xmlns:cc="http://creativecommons.org/ns#"
   xmlns:rdf="http://www.w3.org/1999/02/22-rdf-syntax-ns#"
   xmlns:svg="http://www.w3.org/2000/svg"
   xmlns="http://www.w3.org/2000/svg"
   viewBox="0 0 600 330"
   height="330"
   width="600"
   xml:space="preserve"
   version="1.1"
   id="svg5238"><metadata
     id="metadata5244"><rdf:RDF><cc:Work
         rdf:about=""><dc:format>image/svg+xml</dc:format><dc:type
           rdf:resource="http://purl.org/dc/dcmitype/StillImage" /><dc:title></dc:title></cc:Work></rdf:RDF></metadata><defs
     id="defs5242" /><g
     transform="matrix(1.25,0,0,-1.25,0,330)"
     id="g5246"><g
       id="g5248"><path
         id="path5250"
         style="fill:#ffffff;fill-opacity:1;fill-rule:nonzero;stroke:none"
         d="m 31.996,263.758 c -17.512,0 -31.754,-14.25 -31.754,-31.766 l 0,-199.996 C 0.242,14.484 14.484,0.242 31.996,0.242 l 416.008,0 c 17.512,0 31.754,14.242 31.754,31.754 l 0,199.996 c 0,17.516 -14.242,31.766 -31.754,31.766" /><path
         id="path5252"
         style="fill:#000000;fill-opacity:1;fill-rule:nonzero;stroke:none"
         d="M 31.996,0.469 C 14.613,0.469 0.48,14.613 0.48,31.996 l 0,199.996 c 0,17.383 14.133,31.528 31.516,31.528 l 416.008,0 c 17.383,0 31.516,-14.145 31.516,-31.528 l 0,-199.996 c 0,-17.383 -14.133,-31.527 -31.516,-31.527 l -416.008,0 z M 448.004,264 31.996,264 C 14.32,264 0,249.672 0,231.992 L 0,31.996 C 0,14.328 14.32,0 31.996,0 L 448.004,0 C 465.672,0 480,14.328 480,31.996 l 0,199.996 C 480,249.672 465.672,264 448.004,264" /><path
         id="path5254"
         style="fill:#000000;fill-opacity:1;fill-rule:nonzero;stroke:none"
         d="m 31.996,19.996 416.008,0 c 6.629,0 12,5.371 12,12 l 0,199.996 c 0,6.629 -5.371,12 -12,12 l -416.008,0 c -6.629,0 -12,-5.371 -12,-12 l 0,-199.996 c 0,-6.629 5.371,-12 12,-12 z m 0,-12 c -13.258,0 -24,10.742 -24,24 l 0,199.996 c 0,13.258 10.742,24 24,24 l 416.008,0 c 13.258,0 24,-10.742 24,-24 l 0,-199.996 c 0,-13.258 -10.742,-24 -24,-24" /><path
         id="path5256"
         style="fill:#1a1a1a;fill-opacity:1;fill-rule:nonzero;stroke:none"
         d="m 143.789,48.43 0,46.179 33.606,21.993 -1.758,4.062 c -2.149,4.965 -3.258,10.316 -3.258,15.727 0,4.035 0.617,8.05 1.832,11.902 l -12.824,23.285 -30.789,-6.598 -6.598,6.598 26.391,30.781 0,13.2 8.797,-8.801 c 14.953,0 28.89,-7.602 36.984,-20.18 l 8.625,-13.406 18.914,9.484 -1.262,2.25 c -1.109,1.973 -1.691,4.199 -1.691,6.461 0,7.289 5.91,13.192 13.195,13.192 4.77,0 9.168,-2.575 11.504,-6.735 l 17.895,-31.863 c 0.921,-1.641 1.402,-3.496 1.402,-5.379 0,-3.488 -1.649,-6.77 -4.453,-8.84 l 15.922,2.805 c 2.015,0.355 4.058,0.535 6.109,0.535 6.93,0 13.703,-2.043 19.473,-5.883 l 5.847,5.852 c 4.946,4.949 11.66,7.73 18.66,7.73 11.934,0 22.387,-8.015 25.485,-19.547 l 4.203,-15.64 -16.496,-8.793 -3.512,20.054 c -1.199,6.84 -7.137,11.829 -14.078,11.829 -3.793,0 -7.426,-1.504 -10.109,-4.184 l -3.2,-3.203 c 5.743,-6.442 8.911,-14.77 8.911,-23.399 0,-4.066 -0.707,-8.105 -2.082,-11.929 l 17.472,-28.871 -6.594,-41.782 -12.484,-4.281 6.602,41.785 -31.133,24.285 4.027,-30.882 -19.789,-37.383 -13.191,0 19.789,37.383 -19.504,34.496 c -10.172,-2.465 -20.606,-3.715 -31.074,-3.715 -9.946,0 -19.856,1.129 -29.547,3.351 l 20.75,-60.523 -2.199,-10.992 -10.993,0 2.2,10.992 -26.391,60.961 -28.59,-16.981 0,-30.785 -10.996,-6.597 z m 74.77,103.351 17.55,8.801 -7.007,12.473 -18.321,-9.184 7.778,-12.09 z m 17.593,68.172 c 0,-7.289 -5.91,-13.195 -13.195,-13.195 -7.285,0 -13.191,5.906 -13.191,13.195 0,7.285 5.906,13.195 13.191,13.195 7.285,0 13.195,-5.91 13.195,-13.195" /></g></g></svg>