<?xml version="1.0" encoding="UTF-8" standalone="no"?>
<svg
   xmlns:dc="http://purl.org/dc/elements/1.1/"
   xmlns:cc="http://creativecommons.org/ns#"
   xmlns:rdf="http://www.w3.org/1999/02/22-rdf-syntax-ns#"
   xmlns:svg="http://www.w3.org/2000/svg"
   xmlns="http://www.w3.org/2000/svg"
   viewBox="0 0 1133.8003 330"
   height="330"
   width="1133.8003"
   xml:space="preserve"
   version="1.1"
   id="svg14462"><metadata
     id="metadata14468"><rdf:RDF><cc:Work
         rdf:about=""><dc:format>image/svg+xml</dc:format><dc:type
           rdf:resource="http://purl.org/dc/dcmitype/StillImage" /><dc:title></dc:title></cc:Work></rdf:RDF></metadata><defs
     id="defs14466"><clipPath
       id="clipPath14484"
       clipPathUnits="userSpaceOnUse"><path
         id="path14486"
         d="m 0,262.391 905.023,0 L 905.023,0 0,0 0,262.391 Z" /></clipPath><clipPath
       id="clipPath14494"
       clipPathUnits="userSpaceOnUse"><path
         id="path14496"
         d="m 52,48 795,0 0,160 -795,0 0,-160 z" /></clipPath></defs><g
     transform="matrix(1.25,0,0,-1.25,0,330)"
     id="g14470"><g
       id="g14472"><path
         id="path14474"
         style="fill:#ffffff;fill-opacity:1;fill-rule:nonzero;stroke:none"
         d="m 31.996,263.758 c -17.512,0 -31.754,-14.254 -31.754,-31.766 l 0,-199.996 C 0.242,14.484 14.484,0.242 31.996,0.242 l 843.047,0 c 17.512,0 31.754,14.242 31.754,31.754 l 0,199.996 c 0,17.512 -14.242,31.766 -31.754,31.766" /><path
         id="path14476"
         style="fill:#000000;fill-opacity:1;fill-rule:nonzero;stroke:none"
         d="M 31.996,0.484 C 14.613,0.484 0.484,14.613 0.484,31.996 l 0,199.996 c 0,17.383 14.129,31.524 31.512,31.524 l 843.047,0 c 17.383,0 31.512,-14.141 31.512,-31.524 l 0,-199.996 c 0,-17.383 -14.129,-31.512 -31.512,-31.512 l -843.047,0 z M 875.043,264 31.996,264 C 14.32,264 0,249.672 0,231.992 L 0,31.996 C 0,14.328 14.32,0 31.996,0 l 843.047,0 c 17.668,0 31.996,14.328 31.996,31.996 l 0,199.996 c 0,17.68 -14.328,32.008 -31.996,32.008" /><path
         id="path14478"
         style="fill:#000000;fill-opacity:1;fill-rule:nonzero;stroke:none"
         d="m 31.996,19.996 843.047,0 c 6.629,0 12,5.371 12,12 l 0,199.996 c 0,6.629 -5.371,12 -12,12 l -843.047,0 c -6.629,0 -12,-5.371 -12,-12 l 0,-199.996 c 0,-6.629 5.371,-12 12,-12 z m 0,-12 c -13.258,0 -24,10.742 -24,24 l 0,199.996 c 0,13.258 10.742,24 24,24 l 843.047,0 c 13.258,0 24,-10.742 24,-24 l 0,-199.996 c 0,-13.258 -10.742,-24 -24,-24" /></g><g
       id="g14480"><g
         clip-path="url(#clipPath14484)"
         id="g14482"><g
           id="g14488"><g
             id="g14490"><g
               clip-path="url(#clipPath14494)"
               id="g14492"><g
                 id="g14498"><path
                   id="path14500"
                   style="fill:#000000;fill-opacity:1;fill-rule:nonzero;stroke:none"
                   d="m 52.941,207.371 0,-158.75 158.637,0 0,158.75 -158.637,0 z m 1.649,-1.652 155.336,0 0,-155.426 -155.336,0 0,155.426 z" /><path
                   id="path14502"
                   style="fill:#000000;fill-opacity:1;fill-rule:nonzero;stroke:none"
                   d="m 116.387,186.203 c -2.914,0 -5.289,-2.359 -5.289,-5.273 l 0,-5.297 -2.637,0 c -2.141,0 -4.07,-1.285 -4.887,-3.258 l -3.039,-7.336 c 0,-16.937 -4.285,-33.598 -12.449,-48.434 L 76.707,95.871 c -1.734,-3.133 -2.633,-6.625 -2.633,-10.207 0,-8.769 7.114,-15.867 15.875,-15.867 8.762,0 15.856,7.098 15.856,15.867 l 0,64.84 5.293,0 0,-72.774 5.289,0 0,-7.933 52.883,0 0,7.933 5.269,0 0,103.2 c 0,2.914 -2.355,5.273 -5.269,5.273 l -52.883,0 z m 10.57,-10.578 31.731,0 c 2.914,0 5.292,-2.379 5.292,-5.297 l 0,-23.797 c 0,-2.937 -2.378,-5.297 -5.292,-5.297 l -31.731,0 c -2.914,0 -5.293,2.36 -5.293,5.297 l 0,23.797 c 0,2.918 2.379,5.297 5.293,5.297 z m -26.441,-43.609 0,-46.336 c 0,-5.852 -4.735,-10.594 -10.563,-10.594 -5.848,0 -10.582,4.742 -10.582,10.594 0,2.66 0.66,5.297 1.969,7.632 l 11.398,20.735 c 3.149,5.726 5.766,11.75 7.778,17.969 z" /><path
                   id="path14504"
                   style="fill:#000000;fill-opacity:1;fill-rule:nonzero;stroke:none"
                   d="m 264.434,207.371 0,-158.75 158.64,0 0,158.75 -158.64,0 z m 1.652,-1.652 155.336,0 0,-155.426 -155.336,0 0,155.426 z" /><path
                   id="path14506"
                   style="fill:#000000;fill-opacity:1;fill-rule:nonzero;stroke:none"
                   d="m 322.199,130.492 -31.387,31.391 c -6.429,6.457 -10.05,15.203 -10.05,24.336 0,2.918 2.359,5.297 5.293,5.297 1.394,0 2.742,-0.578 3.73,-1.567 l 52.664,-52.679 64.75,-61.282 c 0.02,-0.297 0.02,-0.578 0.02,-0.898 0,-5.832 -4.735,-10.57 -10.586,-10.57 -0.297,0 -0.598,0 -0.899,0.019 l -64.043,67.777 c -0.984,1.051 -2.375,1.653 -3.832,1.653 -1.351,0 -2.66,-0.516 -3.644,-1.461 l -2.016,-2.016 z m 31.606,-0.34 -8.121,7.676 11.57,10.957 c 3.105,2.938 4.887,6.988 4.973,11.254 l 0.039,2.637 c 0.086,5.039 2.574,9.734 6.664,12.672 l 22.328,15.867 c 0.258,0.195 0.578,0.301 0.922,0.301 0.875,0 1.582,-0.731 1.582,-1.61 0,-0.406 -0.168,-0.812 -0.469,-1.113 l -19.648,-19.66 c -0.301,-0.301 -0.473,-0.688 -0.473,-1.137 0,-0.859 0.707,-1.566 1.586,-1.566 0.406,0 0.816,0.148 1.113,0.449 l 19.649,19.664 c 0.3,0.32 0.707,0.469 1.113,0.469 0.902,0 1.609,-0.707 1.609,-1.586 0,-0.406 -0.172,-0.813 -0.472,-1.114 l -19.649,-19.664 c -0.277,-0.296 -0.449,-0.707 -0.449,-1.113 0,-0.902 0.707,-1.586 1.586,-1.586 0.406,0 0.816,0.149 1.113,0.449 l 19.649,19.661 c 0.3,0.281 0.707,0.472 1.113,0.472 0.879,0 1.586,-0.726 1.586,-1.605 0,-0.41 -0.149,-0.817 -0.449,-1.117 l -19.668,-19.661 c -0.282,-0.3 -0.45,-0.707 -0.45,-1.117 0,-0.879 0.707,-1.586 1.582,-1.586 0.43,0 0.817,0.172 1.118,0.45 l 19.644,19.683 c 0.301,0.301 0.707,0.453 1.137,0.453 0.879,0 1.586,-0.711 1.586,-1.59 0,-0.32 -0.106,-0.64 -0.301,-0.921 l -15.856,-22.321 c -2.933,-4.094 -7.624,-6.582 -12.64,-6.668 l -2.656,-0.043 c -4.262,-0.086 -8.313,-1.863 -11.227,-4.972 l -10.734,-11.364 z m -11.871,-12.543 -50.157,-53.07 c -0.281,-0.019 -0.578,-0.019 -0.879,-0.019 -5.851,0 -10.586,4.714 -10.586,10.57 0,0.301 0.024,0.601 0.043,0.898 l 53.266,50.434 8.313,-8.813 z" /><path
                   id="path14508"
                   style="fill:#000000;fill-opacity:1;fill-rule:nonzero;stroke:none"
                   d="m 475.949,207.371 0,-158.75 158.641,0 0,158.75 -158.641,0 z m 1.653,-1.652 155.316,0 0,-155.426 -155.316,0 0,155.426 z" /><path
                   id="path14510"
                   style="fill:#000000;fill-opacity:1;fill-rule:nonzero;stroke:none"
                   d="m 604.059,147.73 c 3.32,-3.324 0.726,-11.277 -5.766,-17.796 -6.512,-6.516 -14.461,-9.09 -17.781,-5.789 -3.321,3.324 -0.731,11.3 5.785,17.796 6.492,6.52 14.441,9.114 17.762,5.789 m -31.602,-25.023 -63.465,0 c -2.187,0 -3.941,1.781 -3.941,3.969 0,1.265 0.597,2.465 1.629,3.215 3.66,2.679 7.797,4.652 12.187,5.832 l 0,-0.02 c 7.137,1.93 14.485,2.895 21.856,2.895 7.394,0 14.742,-0.965 21.875,-2.895 l -0.02,0.02 c 4.391,-1.18 8.527,-3.153 12.211,-5.832 1.031,-0.75 1.629,-1.95 1.629,-3.215 0,-2.188 -1.777,-3.969 -3.961,-3.969 m 46.258,-29.094 0.019,74.078 c -1.261,1.672 -3.214,2.637 -5.293,2.637 -2.097,0 -4.046,-0.965 -5.312,-2.637 l 0.023,-26.457 c 0,-11.687 -9.472,-21.164 -21.148,-21.164 l -84.613,0 0,21.164 c -1.243,1.672 -3.211,2.637 -5.289,2.637 -2.079,0 -4.051,-0.965 -5.293,-2.637 l 0,-47.621 10.582,0 0,10.571 105.761,0 0,-10.571 10.563,0 z" /><path
                   id="path14512"
                   style="fill:#000000;fill-opacity:1;fill-rule:nonzero;stroke:none"
                   d="m 687.465,207.371 0,-158.75 158.64,0 0,158.75 -158.64,0 z m 1.652,-1.652 155.317,0 0,-155.426 -155.317,0 0,155.426 z" /><path
                   id="path14514"
                   style="fill:#000000;fill-opacity:1;fill-rule:nonzero;stroke:none"
                   d="m 766.844,60.457 -13.024,0 2.141,63.168 2.164,0 0,30.531 -21.77,8.598 0,8.726 21.77,0 0,6.606 -21.77,0 0,8.598 21.77,8.726 17.461,0 21.75,-8.726 0,-8.598 -21.75,0 0,-6.606 21.75,0 0,-8.726 -21.75,-8.598 0,-30.531 2.144,0 2.141,-63.168 -13.027,0 z" /></g></g></g></g></g></g></g></svg>