<?xml version="1.0" encoding="UTF-8" standalone="no"?>
<svg
   xmlns:dc="http://purl.org/dc/elements/1.1/"
   xmlns:cc="http://creativecommons.org/ns#"
   xmlns:rdf="http://www.w3.org/1999/02/22-rdf-syntax-ns#"
   xmlns:svg="http://www.w3.org/2000/svg"
   xmlns="http://www.w3.org/2000/svg"
   viewBox="0 0 600 330"
   height="330"
   width="600"
   xml:space="preserve"
   version="1.1"
   id="svg4394"><metadata
     id="metadata4400"><rdf:RDF><cc:Work
         rdf:about=""><dc:format>image/svg+xml</dc:format><dc:type
           rdf:resource="http://purl.org/dc/dcmitype/StillImage" /><dc:title></dc:title></cc:Work></rdf:RDF></metadata><defs
     id="defs4398"><clipPath
       id="clipPath4410"
       clipPathUnits="userSpaceOnUse"><path
         id="path4412"
         d="M 0,0 480,0 480,264 0,264 0,0 Z" /></clipPath></defs><g
     transform="matrix(1.25,0,0,-1.25,0,330)"
     id="g4402"><g
       id="g4404"><g
         id="g4406"><g
           id="g4408" /><g
           id="g4414"><g
             id="g4416"
             clip-path="url(#clipPath4410)"><g
               id="g4418"><path
                 id="path4420"
                 style="fill:#ffffff;fill-opacity:1;fill-rule:nonzero;stroke:none"
                 d="m 31.996,263.758 c -17.512,0 -31.754,-14.254 -31.754,-31.766 l 0,-199.996 C 0.242,14.484 14.484,0.242 31.996,0.242 l 416.008,0 c 17.512,0 31.754,14.242 31.754,31.754 l 0,199.996 c 0,17.512 -14.242,31.766 -31.754,31.766" /><path
                 id="path4422"
                 style="fill:#000000;fill-opacity:1;fill-rule:nonzero;stroke:none"
                 d="M 31.996,0.484 C 14.613,0.484 0.484,14.613 0.484,31.996 l 0,199.996 c 0,17.383 14.129,31.524 31.512,31.524 l 416.008,0 c 17.383,0 31.512,-14.141 31.512,-31.524 l 0,-199.996 c 0,-17.383 -14.129,-31.512 -31.512,-31.512 l -416.008,0 z M 448.004,264 31.996,264 C 14.32,264 0,249.672 0,231.992 L 0,31.996 C 0,14.328 14.32,0 31.996,0 L 448.004,0 C 465.672,0 480,14.328 480,31.996 l 0,199.996 C 480,249.672 465.672,264 448.004,264" /></g></g></g></g></g><g
       id="g4424"><path
         id="path4426"
         style="fill:#000000;fill-opacity:1;fill-rule:nonzero;stroke:none"
         d="m 31.996,19.996 416.008,0 c 6.629,0 12,5.371 12,12 l 0,199.996 c 0,6.629 -5.371,12 -12,12 l -416.008,0 c -6.629,0 -12,-5.371 -12,-12 l 0,-199.996 c 0,-6.629 5.371,-12 12,-12 z m 0,-12 c -13.258,0 -24,10.742 -24,24 l 0,199.996 c 0,13.258 10.742,24 24,24 l 416.008,0 c 13.258,0 24,-10.742 24,-24 l 0,-199.996 c 0,-13.258 -10.742,-24 -24,-24" /><path
         id="path4428"
         style="fill:#000000;fill-opacity:1;fill-rule:evenodd;stroke:none"
         d="m 78.543,189.078 -0.238,10.957 c 0.234,0.735 0.359,1.582 1.363,1.547 l 311.742,0.203 c 14.141,-2.816 16.945,-39.613 24.262,-60.152 l 0,-44.547 c -3.567,-8.375 -7.414,-9.059 -11.234,-10.484 l -46.418,0.375 c 0,40.476 -61.399,40.25 -61.399,0 l -124.66,0 c 0,40.328 -59.898,40.339 -59.898,0 l -43.055,0 c -2.039,0.597 -3.43,2.496 -4.68,4.679 l 0.504,39.946 18.227,52.609 c 0.632,3.496 -3.008,3.246 -4.516,4.867 z" /><path
         id="path4430"
         style="fill:#000000;fill-opacity:1;fill-rule:nonzero;stroke:none"
         d="m 351.84,86.836 c 0.008,-13.516 -10.949,-24.477 -24.469,-24.477 -13.516,0 -24.473,10.961 -24.469,24.477 -0.004,13.519 10.953,24.48 24.469,24.48 13.52,0 24.477,-10.961 24.469,-24.48 z" /><path
         id="path4432"
         style="fill:#000000;fill-opacity:1;fill-rule:nonzero;stroke:none"
         d="m 166.699,86.695 c 0.008,-13.515 -10.949,-24.48 -24.469,-24.48 -13.515,0 -24.472,10.965 -24.464,24.48 -0.008,13.52 10.949,24.481 24.464,24.481 13.52,0 24.477,-10.961 24.469,-24.481 z" /><path
         id="path4434"
         style="fill:#ffffff;fill-opacity:1;fill-rule:evenodd;stroke:none"
         d="m 340.523,181.688 10.754,-36.672 c 0.637,-1.496 1.258,-3 3.008,-3.625 l 37.297,0.089 c 1.488,1.297 3.02,2.508 3.254,5.184 l -10.566,36.664 c -0.864,2.895 -2.051,3.719 -3.293,4.219 l -38.008,-0.051 c -1.856,-1.105 -2.504,-3.172 -2.446,-5.808 z" /><path
         id="path4436"
         style="fill:#ffffff;fill-opacity:1;fill-rule:evenodd;stroke:none"
         d="m 286.949,181.758 10.754,-36.672 c 0.637,-1.496 1.258,-3.004 3.008,-3.629 l 37.297,0.094 c 1.488,1.297 3.019,2.508 3.254,5.183 l -10.567,36.664 c -0.863,2.895 -2.05,3.719 -3.293,4.215 l -38.007,-0.047 c -1.856,-1.105 -2.504,-3.175 -2.446,-5.808 z" /><path
         id="path4438"
         style="fill:#ffffff;fill-opacity:1;fill-rule:evenodd;stroke:none"
         d="m 233.797,181.758 10.758,-36.672 c 0.633,-1.496 1.258,-3.004 3.008,-3.629 l 37.296,0.094 c 1.489,1.297 3.02,2.508 3.254,5.183 l -10.566,36.664 c -0.863,2.895 -2.051,3.719 -3.293,4.215 l -38.008,-0.047 c -1.855,-1.105 -2.504,-3.175 -2.449,-5.808 z" /><path
         id="path4440"
         style="fill:#ffffff;fill-opacity:1;fill-rule:evenodd;stroke:none"
         d="m 180.961,181.758 10.758,-36.672 c 0.633,-1.496 1.254,-3.004 3.008,-3.629 l 37.293,0.094 c 1.488,1.297 3.023,2.508 3.257,5.183 l -10.566,36.664 c -0.863,2.895 -2.055,3.719 -3.297,4.215 l -38.008,-0.047 c -1.851,-1.105 -2.504,-3.175 -2.445,-5.808 z" /><path
         id="path4442"
         style="fill:#ffffff;fill-opacity:1;fill-rule:evenodd;stroke:none"
         d="m 136.59,184.32 -0.008,-39.445 c 0.633,-1.496 1.734,-2.906 3.488,-3.531 l 38.731,0.14 c 1.488,1.293 3.019,2.508 3.254,5.184 l -10.567,36.664 c -0.863,2.891 -2.05,3.715 -3.293,4.215 l -28.73,0.047 c -1.852,-1.106 -2.262,-1.117 -2.875,-3.274 z" /><path
         id="path4444"
         style="fill:#ffffff;fill-opacity:1;fill-rule:evenodd;stroke:none"
         d="m 127.316,183.113 -0.07,-38.16 c -0.633,-1.496 -1.254,-3 -3.008,-3.625 l -43.855,0.227 c -1.488,1.293 -3.024,2.508 -3.258,5.183 l 13.137,36.528 c 0.867,2.894 2.054,3.718 3.297,4.218 l 31.312,-0.117 c 1.852,-1.105 2.5,-1.617 2.445,-4.254 z" /></g></g></svg>