<?xml version="1.0" encoding="UTF-8" standalone="no"?>
<svg
   xmlns:dc="http://purl.org/dc/elements/1.1/"
   xmlns:cc="http://creativecommons.org/ns#"
   xmlns:rdf="http://www.w3.org/1999/02/22-rdf-syntax-ns#"
   xmlns:svg="http://www.w3.org/2000/svg"
   xmlns="http://www.w3.org/2000/svg"
   viewBox="0 0 600 330"
   height="330"
   width="600"
   xml:space="preserve"
   version="1.1"
   id="svg3833"><metadata
     id="metadata3839"><rdf:RDF><cc:Work
         rdf:about=""><dc:format>image/svg+xml</dc:format><dc:type
           rdf:resource="http://purl.org/dc/dcmitype/StillImage" /><dc:title></dc:title></cc:Work></rdf:RDF></metadata><defs
     id="defs3837"><clipPath
       id="clipPath3851"
       clipPathUnits="userSpaceOnUse"><path
         id="path3853"
         d="M 0,0 480,0 480,264 0,264 0,0 Z" /></clipPath></defs><g
     transform="matrix(1.25,0,0,-1.25,0,330)"
     id="g3841"><g
       id="g3843"><g
         id="g3845"><g
           id="g3847"><g
             clip-path="url(#clipPath3851)"
             id="g3849"><g
               id="g3855"><path
                 id="path3857"
                 style="fill:#ffffff;fill-opacity:1;fill-rule:nonzero;stroke:none"
                 d="m 31.996,263.758 c -17.512,0 -31.754,-14.254 -31.754,-31.766 l 0,-199.996 C 0.242,14.484 14.484,0.242 31.996,0.242 l 416.008,0 c 17.512,0 31.754,14.242 31.754,31.754 l 0,199.996 c 0,17.512 -14.242,31.766 -31.754,31.766" /><path
                 id="path3859"
                 style="fill:#000000;fill-opacity:1;fill-rule:nonzero;stroke:none"
                 d="M 31.996,0.484 C 14.613,0.484 0.484,14.613 0.484,31.996 l 0,199.996 c 0,17.383 14.129,31.524 31.512,31.524 l 416.008,0 c 17.383,0 31.512,-14.141 31.512,-31.524 l 0,-199.996 c 0,-17.383 -14.129,-31.512 -31.512,-31.512 l -416.008,0 z M 448.004,264 31.996,264 C 14.32,264 0,249.672 0,231.992 L 0,31.996 C 0,14.328 14.32,0 31.996,0 L 448.004,0 C 465.672,0 480,14.328 480,31.996 l 0,199.996 C 480,249.672 465.672,264 448.004,264" /></g></g></g></g><path
         id="path3861"
         style="fill:#000000;fill-opacity:1;fill-rule:nonzero;stroke:none"
         d="m 31.996,19.996 416.008,0 c 6.629,0 12,5.371 12,12 l 0,199.996 c 0,6.629 -5.371,12 -12,12 l -416.008,0 c -6.629,0 -12,-5.371 -12,-12 l 0,-199.996 c 0,-6.629 5.371,-12 12,-12 z m 0,-12 c -13.258,0 -24,10.742 -24,24 l 0,199.996 c 0,13.258 10.742,24 24,24 l 416.008,0 c 13.258,0 24,-10.742 24,-24 l 0,-199.996 c 0,-13.258 -10.742,-24 -24,-24" /><path
         id="path3863"
         style="fill:#000000;fill-opacity:1;fill-rule:nonzero;stroke:none"
         d="m 41.965,96.027 0,71.043 10.176,0 0,-32.429 0.199,0 14.871,32.429 10.176,0 -13.871,-28.437 16.464,-42.606 -10.777,0 -11.574,31.532 -5.488,-10.278 0,-21.254 -10.176,0 z" /><path
         id="path3865"
         style="fill:#000000;fill-opacity:1;fill-rule:nonzero;stroke:none"
         d="m 82.445,96.027 0,50.59 10.18,0 0,-50.59 -10.18,0 z m 0,60.868 0,10.175 10.18,0 0,-10.175 -10.18,0 z" /><path
         id="path3867"
         style="fill:#000000;fill-opacity:1;fill-rule:nonzero;stroke:none"
         d="m 100.961,96.027 0,50.59 10.176,0 0,-4.89 0.199,0 c 1.066,1.597 2.332,2.894 3.793,3.89 1.531,1.067 3.461,1.598 5.789,1.598 l 0.797,0 c 2.394,-0.199 4.59,-1.231 6.586,-3.094 2.062,-1.863 3.094,-4.957 3.094,-9.281 l 0,-38.813 -10.18,0 0,35.024 c 0,1.859 -0.43,3.324 -1.297,4.39 -0.863,1.063 -2.094,1.594 -3.691,1.594 -1.864,0 -3.192,-0.597 -3.993,-1.793 -0.73,-1.199 -1.097,-2.93 -1.097,-5.191 l 0,-34.024 -10.176,0 z" /><path
         id="path3869"
         style="fill:#000000;fill-opacity:1;fill-rule:nonzero;stroke:none"
         d="m 158.398,96.027 0,4.59 c -0.199,-0.269 -0.398,-0.5 -0.597,-0.699 -0.199,-0.199 -0.399,-0.434 -0.598,-0.699 -1.066,-1.063 -2.23,-1.961 -3.492,-2.696 -1.199,-0.664 -2.863,-0.996 -4.992,-0.996 -2.063,0 -3.824,0.368 -5.285,1.098 -1.465,0.73 -2.664,1.93 -3.594,3.59 -0.598,1.133 -1.031,2.531 -1.297,4.191 -0.266,1.664 -0.398,3.895 -0.398,6.688 l 0,19.258 c 0,3.656 0.097,6.351 0.296,8.082 0.2,1.73 0.633,3.125 1.297,4.191 0.867,1.328 1.965,2.426 3.293,3.293 1.399,0.863 3.328,1.297 5.789,1.297 1.996,0 3.793,-0.465 5.387,-1.399 1.598,-0.863 2.93,-2.128 3.992,-3.789 l 0.199,0 0,25.043 10.18,0 0,-71.043 -10.18,0 z m -10.078,35.024 0,-18.563 c 0,-2.062 0.399,-3.722 1.2,-4.988 0.796,-1.262 2.062,-1.895 3.789,-1.895 1.531,0 2.761,0.567 3.695,1.696 0.93,1.199 1.394,2.726 1.394,4.59 l 0,19.656 c 0,1.598 -0.5,2.894 -1.496,3.894 -0.929,1.063 -2.129,1.594 -3.593,1.594 -1.926,0 -3.258,-0.597 -3.989,-1.793 -0.668,-1.199 -1,-2.597 -1,-4.191 z" /><path
         id="path3871"
         style="fill:#000000;fill-opacity:1;fill-rule:nonzero;stroke:none"
         d="m 206.363,117.48 -20.156,0 0,-6.886 c 0,-1.598 0.43,-2.828 1.297,-3.692 0.93,-0.863 2.16,-1.297 3.691,-1.297 1.598,0 2.727,0.399 3.391,1.196 0.668,0.801 1.133,1.664 1.398,2.597 0.067,0.2 0.102,0.399 0.102,0.598 0.066,0.266 0.098,0.5 0.098,0.699 l 10.179,0 c 0,-2.062 -0.367,-4.058 -1.097,-5.988 -0.668,-1.863 -1.664,-3.461 -2.996,-4.789 -1.329,-1.398 -2.926,-2.496 -4.79,-3.293 -1.863,-0.73 -3.957,-1.098 -6.285,-1.098 -3.058,0 -5.754,0.633 -8.082,1.895 -2.261,1.332 -3.992,3.094 -5.187,5.289 -0.668,1.332 -1.164,2.859 -1.5,4.59 -0.266,1.73 -0.399,3.625 -0.399,5.687 l 0,16.664 c 0,2.063 0.133,3.957 0.399,5.688 0.336,1.797 0.832,3.328 1.5,4.59 1.195,2.195 2.926,3.957 5.187,5.289 2.328,1.332 5.024,1.996 8.082,1.996 4.723,0 8.414,-1.531 11.075,-4.59 2.73,-2.996 4.093,-6.719 4.093,-11.176 l 0,-13.969 z m -20.156,13.77 0,-5.789 9.977,0 0,5.789 c 0,1.93 -0.465,3.359 -1.395,4.289 -0.867,1 -2.062,1.496 -3.594,1.496 -1.531,0 -2.761,-0.496 -3.691,-1.496 -0.867,-0.93 -1.297,-2.359 -1.297,-4.289 z" /><path
         id="path3873"
         style="fill:#000000;fill-opacity:1;fill-rule:nonzero;stroke:none"
         d="m 213.953,96.027 0,50.59 10.18,0 0,-5.39 c 0.531,0.464 1.031,0.898 1.496,1.296 0.465,0.399 0.965,0.766 1.496,1.098 1.465,1.133 2.996,1.996 4.59,2.594 1.664,0.668 3.625,1 5.89,1 l 0,-10.777 c -0.468,0.199 -0.964,0.332 -1.5,0.398 -0.531,0.133 -1.062,0.199 -1.593,0.199 -0.469,0 -0.965,-0.031 -1.5,-0.097 -0.532,-0.067 -1.063,-0.2 -1.594,-0.399 -1.863,-0.535 -3.559,-1.633 -5.09,-3.293 -1.465,-1.598 -2.195,-3.992 -2.195,-7.187 l 0,-30.032 -10.18,0 z" /><path
         id="path3875"
         style="fill:#000000;fill-opacity:1;fill-rule:nonzero;stroke:none"
         d="m 241.629,90.137 10.18,0 0,-0.399 c 0.199,-1.129 0.73,-2.16 1.593,-3.093 0.934,-0.93 2.196,-1.395 3.793,-1.395 1.664,0 2.86,0.531 3.594,1.594 0.731,1 1.098,2.297 1.098,3.894 l 0,9.879 -0.199,0 c -1.067,-1.664 -2.399,-2.929 -3.993,-3.793 -1.597,-0.863 -3.425,-1.297 -5.488,-1.297 -2.062,0 -3.824,0.368 -5.289,1.098 -1.465,0.73 -2.66,1.93 -3.594,3.59 -0.597,1.133 -1.031,2.531 -1.297,4.191 -0.265,1.664 -0.398,3.895 -0.398,6.688 l 0,19.258 c 0,3.656 0.101,6.351 0.301,8.082 0.199,1.73 0.629,3.125 1.297,4.191 0.863,1.328 1.961,2.426 3.293,3.293 1.394,0.863 3.324,1.297 5.785,1.297 2.062,0 3.691,-0.367 4.89,-1.098 1.266,-0.664 2.395,-1.562 3.395,-2.695 0.199,-0.199 0.398,-0.434 0.598,-0.699 0.265,-0.2 0.5,-0.43 0.699,-0.696 l 0,4.59 10.175,0 0,-56.777 c 0,-0.332 -0.031,-0.699 -0.097,-1.098 0,-0.465 -0.035,-0.898 -0.102,-1.297 -0.465,-3.129 -1.929,-5.953 -4.39,-8.484 -2.395,-2.594 -5.953,-3.891 -10.676,-3.891 -0.598,0 -1.199,0.035 -1.797,0.102 -0.598,0.066 -1.199,0.164 -1.797,0.297 -2.66,0.601 -5.121,2.062 -7.383,4.39 -2.261,2.262 -3.66,5.723 -4.191,10.379 l 0,-0.101 z m 10.18,40.015 0,-18.562 c 0,-1.594 0.332,-2.992 0.996,-4.188 0.73,-1.199 2.062,-1.797 3.992,-1.797 1.461,0 2.66,0.5 3.59,1.497 1,1.062 1.5,2.394 1.5,3.992 l 0,19.656 c 0,1.863 -0.469,3.359 -1.399,4.492 -0.929,1.196 -2.16,1.793 -3.691,1.793 -1.731,0 -2.996,-0.629 -3.793,-1.894 -0.797,-1.266 -1.195,-2.926 -1.195,-4.989 z" /><path
         id="path3877"
         style="fill:#000000;fill-opacity:1;fill-rule:nonzero;stroke:none"
         d="m 299.672,96.027 0,5.188 -0.203,0 -0.598,-0.797 -0.598,-0.801 c -1.132,-1.328 -2.328,-2.359 -3.593,-3.094 -1.262,-0.664 -2.926,-0.996 -4.989,-0.996 -0.464,0 -0.964,0.032 -1.496,0.098 -0.465,0.066 -0.965,0.133 -1.496,0.199 -1.996,0.469 -3.824,1.633 -5.488,3.496 -1.664,1.926 -2.496,5.121 -2.496,9.578 0,5.786 1.066,10.079 3.195,12.872 2.195,2.859 6.485,4.289 12.871,4.289 0.465,0 0.93,-0.032 1.399,-0.098 0.531,0 1.062,-0.035 1.593,-0.102 0.266,0 0.567,-0.031 0.899,-0.097 l 1,0 0,5.289 c 0,1.726 -0.367,3.16 -1.098,4.289 -0.734,1.133 -2.062,1.695 -3.992,1.695 -1.266,0 -2.461,-0.43 -3.594,-1.297 -1.129,-0.863 -1.863,-2.129 -2.195,-3.789 l -9.879,0 c 0.133,2.262 0.602,4.321 1.398,6.184 0.797,1.863 1.864,3.461 3.192,4.789 1.332,1.332 2.93,2.363 4.789,3.094 1.93,0.8 4.027,1.199 6.289,1.199 4.258,0 7.848,-1.332 10.777,-3.992 2.993,-2.661 4.489,-6.653 4.489,-11.973 l 0,-35.223 -10.176,0 z m 0,14.868 0,6.882 c -0.402,0.067 -0.766,0.133 -1.098,0.2 -0.336,0.066 -0.668,0.101 -1,0.101 l -0.699,0 c -2.195,0 -4.09,-0.531 -5.687,-1.598 -1.528,-0.996 -2.293,-2.859 -2.293,-5.585 0,-1.93 0.464,-3.493 1.394,-4.692 0.934,-1.195 2.231,-1.797 3.895,-1.797 1.726,0 3.058,0.567 3.988,1.699 1,1.129 1.5,2.727 1.5,4.79 z" /><path
         id="path3879"
         style="fill:#000000;fill-opacity:1;fill-rule:nonzero;stroke:none"
         d="m 315.84,96.027 0,50.59 10.18,0 0,-5.39 c 0.531,0.464 1.031,0.898 1.496,1.296 0.464,0.399 0.964,0.766 1.496,1.098 1.465,1.133 2.992,1.996 4.59,2.594 1.664,0.668 3.625,1 5.886,1 l 0,-10.777 c -0.465,0.199 -0.965,0.332 -1.496,0.398 -0.531,0.133 -1.062,0.199 -1.597,0.199 -0.465,0 -0.961,-0.031 -1.497,-0.097 -0.531,-0.067 -1.062,-0.2 -1.593,-0.399 -1.864,-0.535 -3.563,-1.633 -5.09,-3.293 -1.465,-1.598 -2.195,-3.992 -2.195,-7.187 l 0,-30.032 -10.18,0 z" /><path
         id="path3881"
         style="fill:#000000;fill-opacity:1;fill-rule:nonzero;stroke:none"
         d="m 348.316,146.617 0,15.363 10.176,0 0,-15.363 6.289,0 0,-7.984 -6.289,0 0,-28.039 c 0,-2.328 0.465,-3.758 1.399,-4.289 0.996,-0.469 2.629,-0.7 4.89,-0.7 l 0,-9.578 -4.191,0 c -3.926,0 -6.82,0.961 -8.684,2.891 -1.863,1.996 -2.992,4.191 -3.39,6.586 l -0.2,1.199 0,31.93 -5.089,0 0,7.984 5.089,0 z" /><path
         id="path3883"
         style="fill:#000000;fill-opacity:1;fill-rule:nonzero;stroke:none"
         d="m 400.008,117.48 -20.156,0 0,-6.886 c 0,-1.598 0.433,-2.828 1.296,-3.692 0.934,-0.863 2.164,-1.297 3.696,-1.297 1.594,0 2.726,0.399 3.39,1.196 0.664,0.801 1.133,1.664 1.399,2.597 0.066,0.2 0.097,0.399 0.097,0.598 0.067,0.266 0.102,0.5 0.102,0.699 l 10.176,0 c 0,-2.062 -0.363,-4.058 -1.098,-5.988 -0.664,-1.863 -1.66,-3.461 -2.992,-4.789 -1.332,-1.398 -2.926,-2.496 -4.789,-3.293 -1.863,-0.73 -3.957,-1.098 -6.285,-1.098 -3.063,0 -5.754,0.633 -8.082,1.895 -2.262,1.332 -3.992,3.094 -5.192,5.289 -0.664,1.332 -1.164,2.859 -1.496,4.59 -0.265,1.73 -0.398,3.625 -0.398,5.687 l 0,16.664 c 0,2.063 0.133,3.957 0.398,5.688 0.332,1.797 0.832,3.328 1.496,4.59 1.2,2.195 2.93,3.957 5.192,5.289 2.328,1.332 5.019,1.996 8.082,1.996 4.722,0 8.414,-1.531 11.074,-4.59 2.727,-2.996 4.09,-6.719 4.09,-11.176 l 0,-13.969 z m -20.156,13.77 0,-5.789 9.98,0 0,5.789 c 0,1.93 -0.465,3.359 -1.398,4.289 -0.864,1 -2.063,1.496 -3.59,1.496 -1.532,0 -2.762,-0.496 -3.696,-1.496 -0.863,-0.93 -1.296,-2.359 -1.296,-4.289 z" /><path
         id="path3885"
         style="fill:#000000;fill-opacity:1;fill-rule:nonzero;stroke:none"
         d="m 407.602,96.027 0,50.59 10.179,0 0,-4.89 0.199,0 c 1.063,1.597 2.329,2.894 3.79,3.89 1.531,1.067 3.46,1.598 5.789,1.598 l 0.796,0 c 2.395,-0.199 4.59,-1.231 6.586,-3.094 2.063,-1.863 3.094,-4.957 3.094,-9.281 l 0,-38.813 -10.176,0 0,35.024 c 0,1.859 -0.433,3.324 -1.297,4.39 -0.867,1.063 -2.097,1.594 -3.695,1.594 -1.859,0 -3.191,-0.597 -3.988,-1.793 -0.734,-1.199 -1.098,-2.93 -1.098,-5.191 l 0,-34.024 -10.179,0 z" /></g></g></svg>