<?xml version="1.0" encoding="UTF-8" standalone="no"?>
<svg
   xmlns:dc="http://purl.org/dc/elements/1.1/"
   xmlns:cc="http://creativecommons.org/ns#"
   xmlns:rdf="http://www.w3.org/1999/02/22-rdf-syntax-ns#"
   xmlns:svg="http://www.w3.org/2000/svg"
   xmlns="http://www.w3.org/2000/svg"
   viewBox="0 0 600 330"
   height="330"
   width="600"
   xml:space="preserve"
   version="1.1"
   id="svg4211"><metadata
     id="metadata4217"><rdf:RDF><cc:Work
         rdf:about=""><dc:format>image/svg+xml</dc:format><dc:type
           rdf:resource="http://purl.org/dc/dcmitype/StillImage" /><dc:title></dc:title></cc:Work></rdf:RDF></metadata><defs
     id="defs4215"><clipPath
       id="clipPath4227"
       clipPathUnits="userSpaceOnUse"><path
         id="path4229"
         d="M 0,0 480,0 480,264 0,264 0,0 Z" /></clipPath></defs><g
     transform="matrix(1.25,0,0,-1.25,0,330)"
     id="g4219"><g
       id="g4221"><g
         id="g4223"><g
           id="g4225" /><g
           id="g4231"><g
             id="g4233"
             clip-path="url(#clipPath4227)"><g
               id="g4235"><path
                 id="path4237"
                 style="fill:#ffffff;fill-opacity:1;fill-rule:nonzero;stroke:none"
                 d="m 31.996,263.758 c -17.512,0 -31.754,-14.254 -31.754,-31.766 l 0,-199.996 C 0.242,14.484 14.484,0.242 31.996,0.242 l 416.008,0 c 17.512,0 31.754,14.242 31.754,31.754 l 0,199.996 c 0,17.512 -14.242,31.766 -31.754,31.766" /><path
                 id="path4239"
                 style="fill:#000000;fill-opacity:1;fill-rule:nonzero;stroke:none"
                 d="M 31.996,0.484 C 14.613,0.484 0.484,14.613 0.484,31.996 l 0,199.996 c 0,17.383 14.129,31.524 31.512,31.524 l 416.008,0 c 17.383,0 31.512,-14.141 31.512,-31.524 l 0,-199.996 c 0,-17.383 -14.129,-31.512 -31.512,-31.512 l -416.008,0 z M 448.004,264 31.996,264 C 14.32,264 0,249.672 0,231.992 L 0,31.996 C 0,14.328 14.32,0 31.996,0 L 448.004,0 C 465.672,0 480,14.328 480,31.996 l 0,199.996 C 480,249.672 465.672,264 448.004,264" /></g></g></g></g></g><g
       id="g4241"><path
         id="path4243"
         style="fill:#000000;fill-opacity:1;fill-rule:nonzero;stroke:none"
         d="m 31.996,19.996 416.008,0 c 6.629,0 12,5.371 12,12 l 0,199.996 c 0,6.629 -5.371,12 -12,12 l -416.008,0 c -6.629,0 -12,-5.371 -12,-12 l 0,-199.996 c 0,-6.629 5.371,-12 12,-12 z m 0,-12 c -13.258,0 -24,10.742 -24,24 l 0,199.996 c 0,13.258 10.742,24 24,24 l 416.008,0 c 13.258,0 24,-10.742 24,-24 l 0,-199.996 c 0,-13.258 -10.742,-24 -24,-24" /><path
         id="path4245"
         style="fill:#000000;fill-opacity:1;fill-rule:nonzero;stroke:none"
         d="m 68.281,98.672 0,67.129 9.617,0 0,-57.512 19.047,0 0,-9.617 -28.664,0 z" /><path
         id="path4247"
         style="fill:#000000;fill-opacity:1;fill-rule:nonzero;stroke:none"
         d="m 122.25,98.672 0,4.902 -0.187,0 -1.133,-1.508 c -1.071,-1.257 -2.2,-2.23 -3.391,-2.921 -1.195,-0.633 -2.766,-0.946 -4.715,-0.946 -0.441,0 -0.914,0.035 -1.418,0.098 -0.437,0.062 -0.91,0.125 -1.41,0.187 -1.891,0.438 -3.613,1.539 -5.187,3.297 -1.571,1.824 -2.356,4.844 -2.356,9.055 0,5.465 1.004,9.519 3.016,12.16 2.074,2.703 6.129,4.055 12.16,4.055 0.445,0 0.883,-0.031 1.32,-0.094 0.508,0 1.008,-0.035 1.508,-0.098 0.254,0 0.535,-0.027 0.852,-0.089 l 0.941,0 0,4.996 c 0,1.632 -0.344,2.984 -1.035,4.054 -0.695,1.067 -1.949,1.598 -3.774,1.598 -1.195,0 -2.324,-0.402 -3.394,-1.223 -1.067,-0.816 -1.758,-2.011 -2.074,-3.582 l -9.332,0 c 0.125,2.137 0.566,4.086 1.32,5.848 0.754,1.758 1.762,3.266 3.016,4.523 1.253,1.254 2.765,2.231 4.527,2.922 1.82,0.758 3.805,1.133 5.937,1.133 4.024,0 7.418,-1.258 10.184,-3.773 2.828,-2.512 4.242,-6.286 4.242,-11.313 l 0,-33.281 -9.617,0 z m 0,14.047 0,6.508 c -0.375,0.062 -0.723,0.125 -1.035,0.187 -0.313,0.063 -0.629,0.094 -0.945,0.094 l -0.661,0 c -2.07,0 -3.863,-0.504 -5.371,-1.508 -1.445,-0.941 -2.168,-2.703 -2.168,-5.281 0,-1.821 0.438,-3.301 1.317,-4.43 0.883,-1.129 2.109,-1.699 3.679,-1.699 1.633,0 2.891,0.535 3.77,1.605 0.945,1.067 1.414,2.575 1.414,4.524 z m -16.59,41.203 0,9.613 8.481,0 0,-9.613 -8.481,0 z m 15.27,0 0,9.613 8.488,0 0,-9.613 -8.488,0 z" /><path
         id="path4249"
         style="fill:#000000;fill-opacity:1;fill-rule:nonzero;stroke:none"
         d="m 139.043,98.672 0,47.797 9.613,0 0,-5.086 c 0.508,0.437 0.981,0.847 1.418,1.222 0.438,0.379 0.91,0.723 1.41,1.04 1.387,1.066 2.832,1.886 4.34,2.449 1.571,0.633 3.426,0.945 5.563,0.945 l 0,-10.184 c -0.442,0.188 -0.914,0.313 -1.414,0.375 -0.504,0.125 -1.008,0.188 -1.508,0.188 -0.442,0 -0.91,-0.027 -1.414,-0.09 -0.504,-0.062 -1.004,-0.187 -1.512,-0.379 -1.758,-0.504 -3.359,-1.539 -4.805,-3.109 -1.382,-1.508 -2.078,-3.774 -2.078,-6.789 l 0,-28.379 -9.613,0 z" /><path
         id="path4251"
         style="fill:#000000;fill-opacity:1;fill-rule:nonzero;stroke:none"
         d="m 166.539,98.672 0,47.797 9.621,0 0,-4.617 0.188,0 c 1.007,1.507 2.199,2.734 3.582,3.679 1.445,1.004 3.269,1.508 5.468,1.508 2.012,0 3.676,-0.473 4.997,-1.418 1.382,-0.937 2.515,-1.976 3.394,-3.109 0,-0.063 0.035,-0.125 0.098,-0.188 0.062,0 0.09,-0.031 0.09,-0.094 1.195,1.321 2.515,2.454 3.961,3.391 1.507,0.945 3.519,1.418 6.035,1.418 0.312,0 0.625,-0.035 0.941,-0.098 0.316,0 0.629,-0.027 0.941,-0.089 2.141,-0.383 4.086,-1.481 5.848,-3.301 1.824,-1.762 2.735,-4.496 2.735,-8.203 l 0,-36.676 -9.618,0 0,33.094 c 0,1.757 -0.41,3.14 -1.222,4.144 -0.821,1.008 -1.985,1.508 -3.493,1.508 -1.757,0 -3.015,-0.563 -3.773,-1.695 -0.687,-1.133 -1.035,-2.766 -1.035,-4.903 l 0,-32.148 -9.613,0 0,33.094 c 0,1.757 -0.411,3.14 -1.231,4.144 -0.812,1.008 -1.976,1.508 -3.484,1.508 -1.762,0 -3.016,-0.563 -3.774,-1.695 -0.691,-1.133 -1.035,-2.766 -1.035,-4.903 l 0,-32.148 -9.621,0 z" /><path
         id="path4253"
         style="fill:#000000;fill-opacity:1;fill-rule:nonzero;stroke:none"
         d="m 250.184,133.082 -9.051,0 c -0.063,1.637 -0.598,2.863 -1.606,3.68 -0.941,0.816 -2.039,1.226 -3.297,1.226 -1.507,0 -2.671,-0.508 -3.488,-1.508 -0.82,-0.945 -1.226,-2.042 -1.226,-3.3 0,-0.883 0.218,-1.762 0.656,-2.641 0.508,-0.816 1.641,-1.574 3.398,-2.262 l 5.657,-2.265 c 3.582,-1.383 6.035,-3.266 7.351,-5.657 1.383,-2.386 2.078,-4.996 2.078,-7.824 0,-3.961 -1.355,-7.351 -4.054,-10.183 -2.704,-2.766 -6.129,-4.149 -10.278,-4.149 -3.769,0 -7.07,1.196 -9.898,3.582 -2.77,2.453 -4.242,6.035 -4.434,10.75 l 9.051,0 0,-0.281 c 0.254,-1.258 0.727,-2.422 1.414,-3.492 0.758,-1.07 2.016,-1.598 3.773,-1.598 1.383,0 2.61,0.465 3.676,1.41 1.129,0.946 1.699,2.2 1.699,3.774 0,1.316 -0.347,2.449 -1.039,3.394 -0.691,0.938 -1.949,1.758 -3.773,2.45 l -4.621,1.699 c -3.016,1.129 -5.402,2.797 -7.16,4.992 -1.699,2.266 -2.551,5 -2.551,8.203 0,4.086 1.387,7.418 4.152,9.996 2.828,2.641 6.157,3.961 9.992,3.961 3.899,0 7.106,-1.355 9.618,-4.055 2.578,-2.64 3.898,-5.941 3.961,-9.902 z" /><path
         id="path4255"
         style="fill:#000000;fill-opacity:1;fill-rule:nonzero;stroke:none"
         d="m 265.668,131.953 0,-19.515 c 0,-1.512 0.406,-2.672 1.223,-3.489 0.882,-0.816 2.043,-1.226 3.488,-1.226 1.508,0 2.578,0.375 3.207,1.132 0.629,0.754 1.07,1.571 1.32,2.45 0.063,0.187 0.094,0.379 0.094,0.566 0.063,0.254 0.094,0.473 0.094,0.66 l 9.617,0 c 0,-1.949 -0.344,-3.836 -1.039,-5.656 -0.625,-1.758 -1.57,-3.27 -2.824,-4.527 -1.258,-1.321 -2.766,-2.356 -4.528,-3.11 -1.761,-0.691 -3.742,-1.039 -5.941,-1.039 -2.891,0 -5.434,0.598 -7.637,1.793 -2.137,1.258 -3.769,2.922 -4.902,4.996 -0.625,1.258 -1.098,2.7 -1.414,4.336 -0.25,1.637 -0.379,3.426 -0.379,5.375 l 0,15.746 c 0,1.95 0.129,3.739 0.379,5.375 0.316,1.696 0.789,3.141 1.414,4.336 1.133,2.074 2.765,3.739 4.902,4.996 2.203,1.254 4.746,1.887 7.637,1.887 4.465,0 7.953,-1.445 10.469,-4.34 2.574,-2.828 3.863,-6.472 3.863,-10.933 l -9.617,0 c 0,1.945 -0.438,3.359 -1.321,4.242 -0.816,0.941 -1.949,1.41 -3.394,1.41 -1.445,0 -2.606,-0.469 -3.488,-1.41 -0.817,-0.883 -1.223,-2.231 -1.223,-4.055 z" /><path
         id="path4257"
         style="fill:#000000;fill-opacity:1;fill-rule:nonzero;stroke:none"
         d="m 290.719,98.672 0,67.129 9.617,0 0,-23.949 0.187,0 c 1.008,1.507 2.2,2.734 3.586,3.679 1.446,1.004 3.266,1.508 5.465,1.508 l 0.754,0 c 2.262,-0.187 4.34,-1.164 6.223,-2.926 1.949,-1.758 2.922,-4.679 2.922,-8.765 l 0,-36.676 -9.614,0 0,33.094 c 0,1.757 -0.41,3.14 -1.226,4.144 -0.817,1.008 -1.981,1.508 -3.488,1.508 -1.758,0 -3.02,-0.563 -3.774,-1.695 -0.691,-1.133 -1.035,-2.766 -1.035,-4.903 l 0,-32.148 -9.617,0 z" /><path
         id="path4259"
         style="fill:#000000;fill-opacity:1;fill-rule:nonzero;stroke:none"
         d="m 356.117,146.469 0,-47.797 -9.613,0 0,4.617 -0.188,0 c -1.007,-1.508 -2.234,-2.73 -3.679,-3.676 -1.383,-0.941 -3.176,-1.414 -5.371,-1.414 l -0.758,0 c -2.262,0.188 -4.367,1.133 -6.317,2.828 -1.886,1.762 -2.828,4.688 -2.828,8.77 l 0,36.672 9.617,0 0,-33.09 c 0,-1.758 0.411,-3.141 1.223,-4.149 0.82,-1.007 1.981,-1.507 3.492,-1.507 1.821,0 3.078,0.566 3.77,1.695 0.691,1.133 1.039,2.77 1.039,4.902 l 0,32.149 9.613,0 z" /><path
         id="path4261"
         style="fill:#000000;fill-opacity:1;fill-rule:nonzero;stroke:none"
         d="m 365.359,146.469 0,14.523 9.618,0 0,-14.523 5.941,0 0,-7.539 -5.941,0 0,-26.492 c 0,-2.2 0.441,-3.551 1.32,-4.055 0.941,-0.438 2.48,-0.66 4.621,-0.66 l 0,-9.051 -3.961,0 c -3.707,0 -6.445,0.91 -8.203,2.734 -1.758,1.883 -2.828,3.961 -3.207,6.219 l -0.188,1.133 0,30.172 -4.808,0 0,7.539 4.808,0 z" /><path
         id="path4263"
         style="fill:#000000;fill-opacity:1;fill-rule:nonzero;stroke:none"
         d="m 385.223,98.672 0,7.637 15.558,31.679 -14.328,0 0,8.481 25.266,0 0,-7.633 -15.555,-31.113 15.555,0 0,-9.051 -26.496,0 z" /></g></g></svg>