<?xml version="1.0" encoding="UTF-8" standalone="no"?>
<svg
   xmlns:dc="http://purl.org/dc/elements/1.1/"
   xmlns:cc="http://creativecommons.org/ns#"
   xmlns:rdf="http://www.w3.org/1999/02/22-rdf-syntax-ns#"
   xmlns:svg="http://www.w3.org/2000/svg"
   xmlns="http://www.w3.org/2000/svg"
   viewBox="0 0 600 330"
   height="330"
   width="600"
   xml:space="preserve"
   version="1.1"
   id="svg4245"><metadata
     id="metadata4251"><rdf:RDF><cc:Work
         rdf:about=""><dc:format>image/svg+xml</dc:format><dc:type
           rdf:resource="http://purl.org/dc/dcmitype/StillImage" /><dc:title></dc:title></cc:Work></rdf:RDF></metadata><defs
     id="defs4249"><clipPath
       id="clipPath4263"
       clipPathUnits="userSpaceOnUse"><path
         id="path4265"
         d="M 0,0 480,0 480,264 0,264 0,0 Z" /></clipPath></defs><g
     transform="matrix(1.25,0,0,-1.25,0,330)"
     id="g4253"><g
       id="g4255"><g
         id="g4257"><g
           id="g4259"><g
             clip-path="url(#clipPath4263)"
             id="g4261"><g
               id="g4267"><path
                 id="path4269"
                 style="fill:#ffffff;fill-opacity:1;fill-rule:nonzero;stroke:none"
                 d="m 31.996,263.758 c -17.512,0 -31.754,-14.254 -31.754,-31.766 l 0,-199.996 C 0.242,14.484 14.484,0.242 31.996,0.242 l 416.008,0 c 17.512,0 31.754,14.242 31.754,31.754 l 0,199.996 c 0,17.512 -14.242,31.766 -31.754,31.766" /><path
                 id="path4271"
                 style="fill:#000000;fill-opacity:1;fill-rule:nonzero;stroke:none"
                 d="M 31.996,0.484 C 14.613,0.484 0.484,14.613 0.484,31.996 l 0,199.996 c 0,17.383 14.129,31.524 31.512,31.524 l 416.008,0 c 17.383,0 31.512,-14.141 31.512,-31.524 l 0,-199.996 c 0,-17.383 -14.129,-31.512 -31.512,-31.512 l -416.008,0 z M 448.004,264 31.996,264 C 14.32,264 0,249.672 0,231.992 L 0,31.996 C 0,14.328 14.32,0 31.996,0 L 448.004,0 C 465.672,0 480,14.328 480,31.996 l 0,199.996 C 480,249.672 465.672,264 448.004,264" /></g></g></g></g><path
         id="path4273"
         style="fill:#000000;fill-opacity:1;fill-rule:nonzero;stroke:none"
         d="m 31.996,19.996 416.008,0 c 6.629,0 12,5.371 12,12 l 0,199.996 c 0,6.629 -5.371,12 -12,12 l -416.008,0 c -6.629,0 -12,-5.371 -12,-12 l 0,-199.996 c 0,-6.629 5.371,-12 12,-12 z m 0,-12 c -13.258,0 -24,10.742 -24,24 l 0,199.996 c 0,13.258 10.742,24 24,24 l 416.008,0 c 13.258,0 24,-10.742 24,-24 l 0,-199.996 c 0,-13.258 -10.742,-24 -24,-24" /><path
         id="path4275"
         style="fill:#000000;fill-opacity:1;fill-rule:nonzero;stroke:none"
         d="M 51.578,92.668 69.293,172 l 9.473,0 17.714,-79.332 -11.367,0 -3.34,17.047 -15.488,0 -3.344,-17.047 -11.363,0 z m 28.078,27.746 -5.57,28.746 -0.223,0 -5.574,-28.746 11.367,0 z" /><path
         id="path4277"
         style="fill:#000000;fill-opacity:1;fill-rule:nonzero;stroke:none"
         d="m 103.832,107.82 0,64.18 11.363,0 0,-63.398 c 0,-2.079 0.371,-3.528 1.114,-4.344 0.816,-0.82 2.304,-1.34 4.457,-1.563 l 0,-10.695 c -5.2,0.074 -9.321,1.078 -12.368,3.008 -3.046,2.008 -4.566,6.277 -4.566,12.812 z" /><path
         id="path4279"
         style="fill:#000000;fill-opacity:1;fill-rule:nonzero;stroke:none"
         d="m 131.574,149.16 0,17.156 11.364,0 0,-17.156 7.019,0 0,-8.914 -7.019,0 0,-31.308 c 0,-2.602 0.519,-4.2 1.558,-4.793 1.117,-0.52 2.934,-0.782 5.461,-0.782 l 0,-10.695 -4.68,0 c -4.382,0 -7.613,1.078 -9.695,3.23 -2.078,2.231 -3.34,4.68 -3.785,7.356 l -0.223,1.336 0,35.656 -5.683,0 0,8.914 5.683,0 z" /><path
         id="path4281"
         style="fill:#000000;fill-opacity:1;fill-rule:nonzero;stroke:none"
         d="m 193.91,116.625 -22.508,0 0,-7.687 c 0,-1.786 0.485,-3.161 1.45,-4.126 1.039,-0.964 2.414,-1.449 4.121,-1.449 1.785,0 3.047,0.449 3.789,1.34 0.742,0.891 1.261,1.856 1.558,2.895 0.075,0.222 0.114,0.445 0.114,0.668 0.074,0.3 0.109,0.558 0.109,0.781 l 11.367,0 c 0,-2.301 -0.41,-4.531 -1.226,-6.684 -0.743,-2.082 -1.856,-3.863 -3.344,-5.347 -1.485,-1.563 -3.266,-2.789 -5.348,-3.68 -2.078,-0.816 -4.418,-1.223 -7.019,-1.223 -3.418,0 -6.426,0.703 -9.024,2.114 -2.527,1.488 -4.457,3.457 -5.793,5.906 -0.746,1.488 -1.301,3.195 -1.672,5.125 -0.296,1.933 -0.445,4.051 -0.445,6.351 l 0,18.61 c 0,2.301 0.149,4.418 0.445,6.347 0.371,2.008 0.926,3.715 1.672,5.129 1.336,2.45 3.266,4.418 5.793,5.903 2.598,1.488 5.606,2.23 9.024,2.23 5.273,0 9.398,-1.711 12.367,-5.125 3.047,-3.344 4.57,-7.504 4.57,-12.48 l 0,-15.598 z M 171.402,132 l 0,-6.461 11.141,0 0,6.461 c 0,2.152 -0.52,3.75 -1.559,4.793 -0.964,1.113 -2.3,1.668 -4.011,1.668 -1.707,0 -3.082,-0.555 -4.121,-1.668 -0.965,-1.043 -1.45,-2.641 -1.45,-4.793 z" /><path
         id="path4283"
         style="fill:#000000;fill-opacity:1;fill-rule:nonzero;stroke:none"
         d="m 206.852,92.668 0,56.492 11.363,0 0,-5.461 0.223,0 c 1.191,1.781 2.601,3.231 4.234,4.344 1.711,1.191 3.863,1.785 6.465,1.785 l 0.89,0 c 2.672,-0.223 5.125,-1.375 7.352,-3.453 2.305,-2.082 3.457,-5.535 3.457,-10.363 l 0,-43.344 -11.367,0 0,39.109 c 0,2.078 -0.481,3.715 -1.449,4.903 -0.965,1.187 -2.34,1.781 -4.122,1.781 -2.082,0 -3.566,-0.668 -4.457,-2.004 -0.816,-1.336 -1.226,-3.269 -1.226,-5.793 l 0,-37.996 -11.363,0 z" /><path
         id="path4285"
         style="fill:#000000;fill-opacity:1;fill-rule:nonzero;stroke:none"
         d="m 253.777,92.668 0,79.332 11.364,0 0,-28.301 0.222,0 c 1.188,1.781 2.602,3.231 4.235,4.344 1.707,1.191 3.863,1.785 6.461,1.785 l 0.894,0 c 2.672,-0.223 5.125,-1.375 7.352,-3.453 2.304,-2.082 3.453,-5.535 3.453,-10.363 l 0,-43.344 -11.363,0 0,39.109 c 0,2.078 -0.485,3.715 -1.45,4.903 -0.965,1.187 -2.34,1.781 -4.121,1.781 -2.082,0 -3.566,-0.668 -4.457,-2.004 -0.816,-1.336 -1.226,-3.269 -1.226,-5.793 l 0,-37.996 -11.364,0 z" /><path
         id="path4287"
         style="fill:#000000;fill-opacity:1;fill-rule:nonzero;stroke:none"
         d="m 334.574,116.625 -22.508,0 0,-7.687 c 0,-1.786 0.481,-3.161 1.45,-4.126 1.039,-0.964 2.414,-1.449 4.121,-1.449 1.781,0 3.047,0.449 3.789,1.34 0.742,0.891 1.262,1.856 1.558,2.895 0.075,0.222 0.114,0.445 0.114,0.668 0.074,0.3 0.109,0.558 0.109,0.781 l 11.367,0 c 0,-2.301 -0.41,-4.531 -1.226,-6.684 -0.743,-2.082 -1.86,-3.863 -3.344,-5.347 -1.484,-1.563 -3.27,-2.789 -5.348,-3.68 -2.078,-0.816 -4.418,-1.223 -7.019,-1.223 -3.418,0 -6.426,0.703 -9.024,2.114 -2.527,1.488 -4.457,3.457 -5.797,5.906 -0.742,1.488 -1.296,3.195 -1.668,5.125 -0.3,1.933 -0.449,4.051 -0.449,6.351 l 0,18.61 c 0,2.301 0.149,4.418 0.449,6.347 0.372,2.008 0.926,3.715 1.668,5.129 1.34,2.45 3.27,4.418 5.797,5.903 2.598,1.488 5.606,2.23 9.024,2.23 5.273,0 9.398,-1.711 12.367,-5.125 3.047,-3.344 4.57,-7.504 4.57,-12.48 l 0,-15.598 z M 312.066,132 l 0,-6.461 11.141,0 0,6.461 c 0,2.152 -0.519,3.75 -1.559,4.793 -0.964,1.113 -2.304,1.668 -4.011,1.668 -1.707,0 -3.082,-0.555 -4.121,-1.668 -0.969,-1.043 -1.45,-2.641 -1.45,-4.793 z" /><path
         id="path4289"
         style="fill:#000000;fill-opacity:1;fill-rule:nonzero;stroke:none"
         d="m 347.516,92.668 0,56.492 11.363,0 0,-56.492 -11.363,0 z m 0,67.969 0,11.363 11.363,0 0,-11.363 -11.363,0 z" /><path
         id="path4291"
         style="fill:#000000;fill-opacity:1;fill-rule:nonzero;stroke:none"
         d="m 371.82,92.668 0,56.492 11.368,0 0,-5.461 0.222,0 c 1.188,1.781 2.598,3.231 4.235,4.344 1.707,1.191 3.859,1.785 6.46,1.785 2.375,0 4.344,-0.558 5.907,-1.672 1.633,-1.113 2.968,-2.34 4.011,-3.676 0,-0.074 0.036,-0.148 0.11,-0.222 0.074,0 0.113,-0.039 0.113,-0.113 1.41,1.558 2.969,2.898 4.68,4.011 1.781,1.114 4.156,1.672 7.129,1.672 0.371,0 0.742,-0.039 1.113,-0.113 0.371,0 0.742,-0.035 1.117,-0.11 2.524,-0.445 4.828,-1.746 6.906,-3.902 2.153,-2.078 3.231,-5.308 3.231,-9.691 l 0,-43.344 -11.363,0 0,39.109 c 0,2.078 -0.485,3.715 -1.45,4.903 -0.964,1.187 -2.339,1.781 -4.121,1.781 -2.082,0 -3.566,-0.668 -4.457,-2.004 -0.82,-1.336 -1.226,-3.269 -1.226,-5.793 l 0,-37.996 -11.367,0 0,39.109 c 0,2.078 -0.481,3.715 -1.446,4.903 -0.969,1.187 -2.34,1.781 -4.125,1.781 -2.078,0 -3.562,-0.668 -4.457,-2.004 -0.816,-1.336 -1.222,-3.269 -1.222,-5.793 l 0,-37.996 -11.368,0 z" /></g></g></svg>