<?xml version="1.0" encoding="UTF-8" standalone="no"?>
<svg
   xmlns:dc="http://purl.org/dc/elements/1.1/"
   xmlns:cc="http://creativecommons.org/ns#"
   xmlns:rdf="http://www.w3.org/1999/02/22-rdf-syntax-ns#"
   xmlns:svg="http://www.w3.org/2000/svg"
   xmlns="http://www.w3.org/2000/svg"
   viewBox="0 0 600 330"
   height="330"
   width="600"
   xml:space="preserve"
   version="1.1"
   id="svg3922"><metadata
     id="metadata3928"><rdf:RDF><cc:Work
         rdf:about=""><dc:format>image/svg+xml</dc:format><dc:type
           rdf:resource="http://purl.org/dc/dcmitype/StillImage" /><dc:title></dc:title></cc:Work></rdf:RDF></metadata><defs
     id="defs3926"><clipPath
       id="clipPath3940"
       clipPathUnits="userSpaceOnUse"><path
         id="path3942"
         d="M 0,0 480,0 480,264 0,264 0,0 Z" /></clipPath></defs><g
     transform="matrix(1.25,0,0,-1.25,0,330)"
     id="g3930"><g
       id="g3932"><g
         id="g3934"><g
           id="g3936"><g
             clip-path="url(#clipPath3940)"
             id="g3938"><g
               id="g3944"><path
                 id="path3946"
                 style="fill:#ffffff;fill-opacity:1;fill-rule:nonzero;stroke:none"
                 d="m 31.996,263.758 c -17.512,0 -31.754,-14.254 -31.754,-31.766 l 0,-199.996 C 0.242,14.484 14.484,0.242 31.996,0.242 l 416.008,0 c 17.512,0 31.754,14.242 31.754,31.754 l 0,199.996 c 0,17.512 -14.242,31.766 -31.754,31.766" /><path
                 id="path3948"
                 style="fill:#000000;fill-opacity:1;fill-rule:nonzero;stroke:none"
                 d="M 31.996,0.484 C 14.613,0.484 0.484,14.613 0.484,31.996 l 0,199.996 c 0,17.383 14.129,31.524 31.512,31.524 l 416.008,0 c 17.383,0 31.512,-14.141 31.512,-31.524 l 0,-199.996 c 0,-17.383 -14.129,-31.512 -31.512,-31.512 l -416.008,0 z M 448.004,264 31.996,264 C 14.32,264 0,249.672 0,231.992 L 0,31.996 C 0,14.328 14.32,0 31.996,0 L 448.004,0 C 465.672,0 480,14.328 480,31.996 l 0,199.996 C 480,249.672 465.672,264 448.004,264" /></g></g></g></g><path
         id="path3950"
         style="fill:#000000;fill-opacity:1;fill-rule:nonzero;stroke:none"
         d="m 31.996,19.996 416.008,0 c 6.629,0 12,5.371 12,12 l 0,199.996 c 0,6.629 -5.371,12 -12,12 l -416.008,0 c -6.629,0 -12,-5.371 -12,-12 l 0,-199.996 c 0,-6.629 5.371,-12 12,-12 z m 0,-12 c -13.258,0 -24,10.742 -24,24 l 0,199.996 c 0,13.258 10.742,24 24,24 l 416.008,0 c 13.258,0 24,-10.742 24,-24 l 0,-199.996 c 0,-13.258 -10.742,-24 -24,-24" /><path
         id="path3952"
         style="fill:#000000;fill-opacity:1;fill-rule:nonzero;stroke:none"
         d="m 69.078,162.582 c 0,-10.254 7.777,-15.383 15.113,-15.383 7.34,0 15.118,5.129 15.118,15.383 l 0,19.801 -16.176,0 0,-7.957 7.16,0 0,-11.844 c 0,-4.332 -2.828,-6.367 -6.102,-6.367 -3.269,0 -6.097,2.035 -6.097,6.367 l 0,33.238 c 0,4.328 2.828,6.364 6.097,6.364 3.274,0 6.102,-2.036 6.102,-6.364 l 0,-3.183 9.016,0 0,3.183 c 0,10.254 -7.778,15.379 -15.118,15.379 -7.336,0 -15.113,-5.125 -15.113,-15.379 l 0,-33.238 z" /><path
         id="path3954"
         style="fill:#000000;fill-opacity:1;fill-rule:nonzero;stroke:none"
         d="m 106.715,147.73 9.015,0 0,26.61 c 0,7.336 5.395,9.722 9.196,9.722 0.972,0 1.855,-0.175 2.738,-0.531 l 0,9.547 c -5.215,0 -8.219,-2.031 -11.934,-5.305 l 0,4.774 -9.015,0 0,-44.817 z" /><path
         id="path3956"
         style="fill:#000000;fill-opacity:1;fill-rule:nonzero;stroke:none"
         d="m 158.191,192.547 -9.015,0 0,-30.141 c 0,-3.98 -1.149,-6.191 -4.508,-6.191 -2.828,0 -4.422,2.035 -4.422,5.305 l 0,31.027 -9.016,0 0,-34.387 c 0,-8.043 4.774,-10.961 9.282,-10.961 4.156,0 6.633,2.035 8.488,4.863 l 0.176,0 0,-4.332 9.015,0 0,44.817 z m -24.574,6.984 7.957,0 0,9.016 -7.957,0 0,-9.016 z m 14.321,0 7.957,0 0,9.016 -7.957,0 0,-9.016 z" /><path
         id="path3958"
         style="fill:#000000;fill-opacity:1;fill-rule:nonzero;stroke:none"
         d="m 165.59,147.73 9.015,0 0,30.145 c 0,3.977 1.149,6.187 4.508,6.187 2.828,0 4.422,-2.035 4.422,-5.304 l 0,-31.028 9.016,0 0,34.387 c 0,8.043 -4.774,10.961 -9.281,10.961 -4.157,0 -6.633,-2.031 -8.489,-4.863 l -0.176,0 0,4.332 -9.015,0 0,-44.817 z" /><path
         id="path3960"
         style="fill:#000000;fill-opacity:1;fill-rule:nonzero;stroke:none"
         d="m 226.023,166.734 0,12.379 c 0,7.867 -5.125,13.965 -13.437,13.965 -5.481,0 -9.633,-2.562 -11.754,-6.453 -1.238,-2.297 -1.68,-5.48 -1.68,-9.105 l 0,-14.762 c 0,-3.625 0.442,-6.805 1.68,-9.106 2.121,-3.89 6.273,-6.453 11.754,-6.453 4.156,0 7.426,1.504 9.812,3.981 2.301,2.386 3.625,5.832 3.625,9.547 l -9.015,0 c -0.176,-1.946 -0.973,-4.512 -4.422,-4.512 -2.738,0 -4.418,1.594 -4.418,4.422 l 0,6.097 17.855,0 z m -17.855,12.2 c 0,3.359 1.68,5.128 4.418,5.128 2.742,0 4.422,-1.769 4.422,-5.128 l 0,-5.125 -8.84,0 0,5.125 z" /><path
         id="path3962"
         style="fill:#000000;fill-opacity:1;fill-rule:nonzero;stroke:none"
         d="m 310.844,210.668 -9.547,0 -4.332,-40.926 -0.176,0 -7.336,40.926 -6.894,0 -7.075,-39.953 -0.175,0 -4.508,39.953 -9.547,0 9.371,-62.938 8.484,0 6.809,40.84 0.176,0 6.894,-40.84 8.489,0 9.367,62.938 z" /><path
         id="path3964"
         style="fill:#000000;fill-opacity:1;fill-rule:nonzero;stroke:none"
         d="m 338.914,166.734 0,12.379 c 0,7.867 -5.125,13.965 -13.434,13.965 -5.48,0 -9.636,-2.562 -11.757,-6.453 -1.239,-2.297 -1.68,-5.48 -1.68,-9.105 l 0,-14.762 c 0,-3.625 0.441,-6.805 1.68,-9.106 2.121,-3.89 6.277,-6.453 11.757,-6.453 4.153,0 7.426,1.504 9.813,3.981 2.297,2.386 3.621,5.832 3.621,9.547 l -9.016,0 c -0.175,-1.946 -0.972,-4.512 -4.418,-4.512 -2.742,0 -4.421,1.594 -4.421,4.422 l 0,6.097 17.855,0 z m -17.855,12.2 c 0,3.359 1.679,5.128 4.421,5.128 2.739,0 4.418,-1.769 4.418,-5.128 l 0,-5.125 -8.839,0 0,5.125 z" /><path
         id="path3966"
         style="fill:#000000;fill-opacity:1;fill-rule:nonzero;stroke:none"
         d="m 346.711,159.754 c 0,-10.434 5.129,-12.555 13.437,-12.555 l 0,8.489 c -3.449,0.351 -4.418,1.324 -4.418,4.683 l 0,50.297 -9.019,0 0,-50.914 z" /><path
         id="path3968"
         style="fill:#000000;fill-opacity:1;fill-rule:nonzero;stroke:none"
         d="m 366.312,159.754 c 0,-10.434 5.129,-12.555 13.438,-12.555 l 0,8.489 c -3.445,0.351 -4.418,1.324 -4.418,4.683 l 0,50.297 -9.02,0 0,-50.914 z" /><path
         id="path3970"
         style="fill:#000000;fill-opacity:1;fill-rule:nonzero;stroke:none"
         d="m 410.922,166.734 0,12.379 c 0,7.867 -5.125,13.965 -13.434,13.965 -5.48,0 -9.636,-2.562 -11.758,-6.453 -1.238,-2.297 -1.679,-5.48 -1.679,-9.105 l 0,-14.762 c 0,-3.625 0.441,-6.805 1.679,-9.106 2.122,-3.89 6.278,-6.453 11.758,-6.453 4.153,0 7.426,1.504 9.813,3.981 2.297,2.386 3.621,5.832 3.621,9.547 l -9.016,0 c -0.176,-1.946 -0.972,-4.512 -4.418,-4.512 -2.742,0 -4.422,1.594 -4.422,4.422 l 0,6.097 17.856,0 z m -17.856,12.2 c 0,3.359 1.68,5.128 4.422,5.128 2.739,0 4.418,-1.769 4.418,-5.128 l 0,-5.125 -8.84,0 0,5.125 z" /><path
         id="path3972"
         style="fill:#000000;fill-opacity:1;fill-rule:nonzero;stroke:none"
         d="m 73.688,53.332 9.015,0 0,4.066 c 2.301,-2.566 4.067,-4.597 8.574,-4.597 3.625,0 6.278,1.324 7.868,4.242 1.062,1.945 1.503,4.684 1.503,9.637 l 0,17.058 c 0,6.453 -0.265,9.016 -1.414,10.875 C 97.73,97 95.523,98.68 91.191,98.68 87.652,98.68 84.824,97 82.879,94.082 l -0.176,0 0,22.188 -9.015,0 0,-62.938 z m 17.945,14.586 c 0,-3.625 -1.328,-6.102 -4.422,-6.102 -2.738,0 -4.508,2.297 -4.508,5.571 l 0,17.414 c 0,2.828 1.945,4.859 4.508,4.859 3.449,0 4.422,-2.472 4.422,-5.301 l 0,-16.441 z" /><path
         id="path3974"
         style="fill:#000000;fill-opacity:1;fill-rule:nonzero;stroke:none"
         d="m 134.121,72.336 0,12.375 c 0,7.867 -5.125,13.969 -13.433,13.969 -5.481,0 -9.637,-2.567 -11.758,-6.453 -1.239,-2.301 -1.68,-5.481 -1.68,-9.106 l 0,-14.762 c 0,-3.625 0.441,-6.808 1.68,-9.105 2.121,-3.891 6.277,-6.453 11.758,-6.453 4.152,0 7.425,1.504 9.812,3.976 2.297,2.387 3.621,5.836 3.621,9.547 l -9.016,0 c -0.175,-1.945 -0.972,-4.508 -4.417,-4.508 -2.743,0 -4.422,1.59 -4.422,4.422 l 0,6.098 17.855,0 z m -17.855,12.199 c 0,3.36 1.679,5.125 4.422,5.125 2.738,0 4.417,-1.765 4.417,-5.125 l 0,-5.129 -8.839,0 0,5.129 z" /><path
         id="path3976"
         style="fill:#000000;fill-opacity:1;fill-rule:nonzero;stroke:none"
         d="m 140.848,53.332 9.019,0 0,44.816 -9.019,0 0,-44.816 z m 0,53.922 9.019,0 0,9.016 -9.019,0 0,-9.016 z" /><path
         id="path3978"
         style="fill:#000000;fill-opacity:1;fill-rule:nonzero;stroke:none"
         d="m 171.363,53.332 9.547,0 7.778,21.215 7.871,-21.215 9.546,0 -12.996,32.973 12.024,29.965 -9.547,0 -6.898,-18.653 -6.805,18.653 -9.547,0 11.758,-29.965 -12.731,-32.973 z" /><path
         id="path3980"
         style="fill:#000000;fill-opacity:1;fill-rule:nonzero;stroke:none"
         d="m 207.32,53.332 9.547,0 7.781,21.215 7.868,-21.215 9.546,0 -12.996,32.973 12.024,29.965 -9.547,0 -6.895,-18.653 -6.808,18.653 -9.547,0 11.758,-29.965 -12.731,-32.973 z" /><path
         id="path3982"
         style="fill:#000000;fill-opacity:1;fill-rule:nonzero;stroke:none"
         d="m 268.371,53.332 9.016,0 0,12.551 4.332,6.808 8.133,-19.359 9.812,0 -12.906,26.606 10.695,18.21 -9.015,0 -10.876,-19.535 -0.175,0 0,37.657 -9.016,0 0,-62.938 z" /><path
         id="path3984"
         style="fill:#000000;fill-opacity:1;fill-rule:nonzero;stroke:none"
         d="m 302.555,53.332 9.015,0 0,30.141 c 0,3.98 1.153,6.187 4.512,6.187 2.828,0 4.418,-2.031 4.418,-5.301 l 0,-31.027 9.016,0 0,30.141 c 0,3.98 1.148,6.187 4.507,6.187 2.832,0 4.422,-2.031 4.422,-5.301 l 0,-31.027 9.016,0 0,34.387 c 0,8.043 -5.305,10.961 -9.813,10.961 -4.773,0 -7.16,-2.035 -9.371,-4.508 -1.589,2.207 -4.152,4.508 -8.043,4.508 -4.152,0 -6.629,-2.035 -8.484,-4.864 l -0.18,0 0,4.332 -9.015,0 0,-44.816 z" /><path
         id="path3986"
         style="fill:#000000;fill-opacity:1;fill-rule:nonzero;stroke:none"
         d="m 354.797,52.801 7.074,0 11.668,64 -7.074,0 -11.668,-64 z" /><path
         id="path3988"
         style="fill:#000000;fill-opacity:1;fill-rule:nonzero;stroke:none"
         d="m 379.352,53.332 9.015,0 0,30.141 c 0,3.98 1.149,6.187 4.508,6.187 2.828,0 4.422,-2.031 4.422,-5.301 l 0,-31.027 9.015,0 0,34.387 c 0,8.043 -4.773,10.961 -9.281,10.961 -4.156,0 -6.629,-2.035 -8.488,-4.864 l -0.176,0 0,22.454 -9.015,0 0,-62.938 z" /></g></g></svg>