<?xml version="1.0" encoding="UTF-8" standalone="no"?>
<svg
   xmlns:dc="http://purl.org/dc/elements/1.1/"
   xmlns:cc="http://creativecommons.org/ns#"
   xmlns:rdf="http://www.w3.org/1999/02/22-rdf-syntax-ns#"
   xmlns:svg="http://www.w3.org/2000/svg"
   xmlns="http://www.w3.org/2000/svg"
   viewBox="0 0 600 330"
   height="330"
   width="600"
   xml:space="preserve"
   version="1.1"
   id="svg3414"><metadata
     id="metadata3420"><rdf:RDF><cc:Work
         rdf:about=""><dc:format>image/svg+xml</dc:format><dc:type
           rdf:resource="http://purl.org/dc/dcmitype/StillImage" /><dc:title></dc:title></cc:Work></rdf:RDF></metadata><defs
     id="defs3418"><clipPath
       id="clipPath3432"
       clipPathUnits="userSpaceOnUse"><path
         id="path3434"
         d="M 0,0 480,0 480,264 0,264 0,0 Z" /></clipPath></defs><g
     transform="matrix(1.25,0,0,-1.25,0,330)"
     id="g3422"><g
       id="g3424" /><g
       id="g3426"><g
         id="g3428"><g
           id="g3430" /><g
           id="g3436"><g
             id="g3438"
             clip-path="url(#clipPath3432)"><g
               id="g3440"><path
                 id="path3442"
                 style="fill:#ffffff;fill-opacity:1;fill-rule:nonzero;stroke:none"
                 d="m 31.996,263.77 c -17.512,0 -31.754,-14.254 -31.754,-31.766 l 0,-199.996 C 0.242,14.492 14.484,0.25 31.996,0.25 l 416.008,0 c 17.512,0 31.754,14.242 31.754,31.758 l 0,199.996 c 0,17.512 -14.242,31.766 -31.754,31.766" /><path
                 id="path3444"
                 style="fill:#000000;fill-opacity:1;fill-rule:nonzero;stroke:none"
                 d="M 31.996,0.48 C 14.613,0.48 0.48,14.625 0.48,32.008 l 0,199.996 c 0,17.383 14.133,31.527 31.516,31.527 l 416.008,0 c 17.383,0 31.516,-14.144 31.516,-31.527 l 0,-199.996 C 479.52,14.625 465.387,0.48 448.004,0.48 l -416.008,0 z m 416.008,263.532 -416.008,0 C 14.32,264.012 0,249.68 0,232.004 L 0,32.008 C 0,14.34 14.32,0 31.996,0 L 448.004,0 C 465.672,0 480,14.34 480,32.008 l 0,199.996 c 0,17.676 -14.328,32.008 -31.996,32.008" /></g></g></g></g></g><g
       id="g3446"><path
         id="path3448"
         style="fill:#000000;fill-opacity:1;fill-rule:nonzero;stroke:none"
         d="m 31.996,20.008 416.008,0 c 6.629,0 12,5.371 12,12 l 0,199.996 c 0,6.629 -5.371,12 -12,12 l -416.008,0 c -6.629,0 -12,-5.371 -12,-12 l 0,-199.996 c 0,-6.629 5.371,-12 12,-12 z m 0,-12 c -13.258,0 -24,10.742 -24,24 l 0,199.996 c 0,13.258 10.742,24 24,24 l 416.008,0 c 13.258,0 24,-10.742 24,-24 l 0,-199.996 c 0,-13.258 -10.742,-24 -24,-24" /><path
         id="path3450"
         style="fill:#000000;fill-opacity:1;fill-rule:nonzero;stroke:none"
         d="m 39.637,97.742 35.562,97.457 12.164,0 35.563,-97.457 -15.508,0 -7.488,21.992 -36.965,0 -7.754,-21.992 -15.574,0 z m 27.676,35.028 28.207,0 c -2.051,6.015 -3.665,10.726 -4.848,14.136 -1.18,3.41 -2.203,6.43 -3.074,9.059 -0.868,2.629 -1.75,5.301 -2.641,8.019 -0.891,2.719 -2.07,6.395 -3.543,11.028 -1.559,-4.813 -2.805,-8.657 -3.742,-11.528 -0.938,-2.875 -1.84,-5.648 -2.707,-8.324 -0.867,-2.672 -1.871,-5.66 -3.008,-8.957 -1.137,-3.297 -2.684,-7.773 -4.644,-13.433 z m 66.64,-35.094 0,69.383 13.973,0 0,-7.418 0.265,0 c 4.325,5.48 10.34,8.218 18.047,8.218 5.391,0 10.594,-2.046 15.61,-6.148 5.011,-4.098 7.519,-10.07 7.519,-17.914 l 0,-46.121 -13.972,0 0,41.308 c 0,4.68 -1.301,8.332 -3.911,10.965 -2.605,2.629 -5.847,3.942 -9.722,3.942 -4.012,0 -7.321,-1.313 -9.926,-3.942 -2.609,-2.633 -3.91,-6.285 -3.91,-10.965 l 0,-41.308 -13.973,0 z m 75.735,0 0,58.687 -7.02,0 0,10.696 7.02,0 0,9.156 c 0,6.465 1.781,11.219 5.347,14.273 3.563,3.051 8.067,4.578 13.5,4.578 l 9.024,0 0,-13.101 -7.887,0 c -4.055,0 -6.082,-1.914 -6.082,-5.75 l 0,-9.156 13.969,0 0,-10.696 -13.969,0 0,-58.687 -13.902,0 z m 72.191,0 0,6.148 -0.336,0 c -2.809,-4.633 -8.512,-6.949 -17.113,-6.949 -7.754,0 -13.77,2.016 -18.047,6.047 -4.278,4.035 -6.418,9.082 -6.418,15.141 0,5.48 1.894,10.273 5.683,14.371 3.79,4.101 9.426,6.152 16.911,6.152 l 19.32,0 0,7.219 c 0,5.925 -4.746,8.886 -14.238,8.886 -6.598,0 -10.985,-1.757 -13.168,-5.277 l -10.965,8.285 c 4.859,6.774 12.656,10.16 23.394,10.16 8.559,0 15.508,-1.668 20.856,-5.011 5.347,-3.344 8.023,-9.289 8.023,-17.848 l 0,-47.324 -13.902,0 z m 0,24.332 0,5.078 -16.711,0 c -8.066,0 -12.102,-2.785 -12.102,-8.356 0,-2.359 1.016,-4.41 3.043,-6.148 2.028,-1.738 5.403,-2.605 10.125,-2.605 5.793,0 9.852,0.644 12.168,1.937 2.317,1.293 3.477,4.656 3.477,10.094 z m 32.016,-24.332 0,69.383 13.968,0 0,-7.418 0.27,0 c 4.32,5.48 10.34,8.218 18.047,8.218 5.39,0 10.593,-2.046 15.609,-6.148 5.012,-4.098 7.52,-10.07 7.52,-17.914 l 0,-46.121 -13.973,0 0,41.308 c 0,4.68 -1.301,8.332 -3.91,10.965 -2.606,2.629 -5.848,3.942 -9.723,3.942 -4.012,0 -7.32,-1.313 -9.93,-3.942 -2.605,-2.633 -3.91,-6.285 -3.91,-10.965 l 0,-41.308 -13.968,0 z m 112.496,0.066 0,7.153 c -4.856,-5.348 -10.828,-8.02 -17.914,-8.02 -4.543,0 -8.344,0.902 -11.395,2.707 -3.055,1.805 -5.359,3.707 -6.918,5.715 -2.008,2.582 -3.379,5.324 -4.113,8.223 -0.735,2.894 -1.102,9.156 -1.102,18.781 0,9.625 0.367,15.887 1.102,18.781 0.734,2.898 2.105,5.66 4.113,8.289 1.559,1.961 3.863,3.867 6.918,5.715 3.051,1.852 6.852,2.773 11.395,2.773 6.773,0 12.746,-2.738 17.914,-8.218 l 0,7.418 13.972,0 0,-67.778 c 0,-10.429 -3.043,-18.117 -9.125,-23.062 -6.082,-4.946 -13.07,-7.418 -20.957,-7.418 -4.457,0 -8.82,1.07 -13.101,3.207 -4.278,2.14 -7.953,4.945 -11.028,8.422 l 10.828,8.625 c 1.696,-1.696 3.711,-3.164 6.051,-4.414 2.34,-1.246 4.844,-1.871 7.52,-1.871 4.633,0 8.433,1.293 11.394,3.878 2.965,2.582 4.446,6.282 4.446,11.094 z m -27.473,34.559 c 0,-5.571 0.145,-9.27 0.437,-11.098 0.29,-1.824 1.055,-3.519 2.305,-5.078 0.934,-1.246 2.317,-2.449 4.145,-3.609 1.828,-1.161 4.144,-1.739 6.949,-1.739 2.719,0 4.98,0.578 6.785,1.739 1.805,1.16 3.199,2.363 4.18,3.609 1.203,1.559 1.949,3.254 2.238,5.078 0.289,1.828 0.434,5.527 0.434,11.098 0,5.57 -0.145,9.269 -0.434,11.097 -0.289,1.825 -1.035,3.54 -2.238,5.145 -0.981,1.203 -2.375,2.395 -4.18,3.578 -1.805,1.18 -4.066,1.77 -6.785,1.77 -2.805,0 -5.121,-0.59 -6.949,-1.77 -1.828,-1.183 -3.211,-2.375 -4.145,-3.578 -1.25,-1.605 -2.015,-3.32 -2.305,-5.145 -0.292,-1.828 -0.437,-5.527 -0.437,-11.097 z" /></g></g></svg>