<?xml version="1.0" encoding="UTF-8" standalone="no"?>
<svg
   xmlns:dc="http://purl.org/dc/elements/1.1/"
   xmlns:cc="http://creativecommons.org/ns#"
   xmlns:rdf="http://www.w3.org/1999/02/22-rdf-syntax-ns#"
   xmlns:svg="http://www.w3.org/2000/svg"
   xmlns="http://www.w3.org/2000/svg"
   viewBox="0 0 600 330"
   height="330"
   width="600"
   xml:space="preserve"
   version="1.1"
   id="svg4210"><metadata
     id="metadata4216"><rdf:RDF><cc:Work
         rdf:about=""><dc:format>image/svg+xml</dc:format><dc:type
           rdf:resource="http://purl.org/dc/dcmitype/StillImage" /><dc:title></dc:title></cc:Work></rdf:RDF></metadata><defs
     id="defs4214"><clipPath
       id="clipPath4228"
       clipPathUnits="userSpaceOnUse"><path
         id="path4230"
         d="M 0,0 480,0 480,264 0,264 0,0 Z" /></clipPath></defs><g
     transform="matrix(1.25,0,0,-1.25,0,330)"
     id="g4218"><g
       id="g4220"><g
         id="g4222"><g
           id="g4224"><g
             clip-path="url(#clipPath4228)"
             id="g4226"><g
               id="g4232"><path
                 id="path4234"
                 style="fill:#ffffff;fill-opacity:1;fill-rule:nonzero;stroke:none"
                 d="m 31.996,263.758 c -17.512,0 -31.754,-14.254 -31.754,-31.766 l 0,-199.996 C 0.242,14.484 14.484,0.242 31.996,0.242 l 416.008,0 c 17.512,0 31.754,14.242 31.754,31.754 l 0,199.996 c 0,17.512 -14.242,31.766 -31.754,31.766" /><path
                 id="path4236"
                 style="fill:#000000;fill-opacity:1;fill-rule:nonzero;stroke:none"
                 d="M 31.996,0.484 C 14.613,0.484 0.484,14.613 0.484,31.996 l 0,199.996 c 0,17.383 14.129,31.524 31.512,31.524 l 416.008,0 c 17.383,0 31.512,-14.141 31.512,-31.524 l 0,-199.996 c 0,-17.383 -14.129,-31.512 -31.512,-31.512 l -416.008,0 z M 448.004,264 31.996,264 C 14.32,264 0,249.672 0,231.992 L 0,31.996 C 0,14.328 14.32,0 31.996,0 L 448.004,0 C 465.672,0 480,14.328 480,31.996 l 0,199.996 C 480,249.672 465.672,264 448.004,264" /></g></g></g></g><path
         id="path4238"
         style="fill:#000000;fill-opacity:1;fill-rule:nonzero;stroke:none"
         d="m 31.996,19.996 416.008,0 c 6.629,0 12,5.371 12,12 l 0,199.996 c 0,6.629 -5.371,12 -12,12 l -416.008,0 c -6.629,0 -12,-5.371 -12,-12 l 0,-199.996 c 0,-6.629 5.371,-12 12,-12 z m 0,-12 c -13.258,0 -24,10.742 -24,24 l 0,199.996 c 0,13.258 10.742,24 24,24 l 416.008,0 c 13.258,0 24,-10.742 24,-24 l 0,-199.996 c 0,-13.258 -10.742,-24 -24,-24" /><path
         id="path4240"
         style="fill:#000000;fill-opacity:1;fill-rule:nonzero;stroke:none"
         d="m 151.84,164.195 c 0,5.981 -0.469,12.66 -4.43,16.621 -2.172,2.176 -5.59,3.496 -9.551,3.496 -4.195,0 -7.457,-1.011 -10.332,-4.429 l 0,19.883 -7.922,0 0,-55.301 7.766,0 0,4.195 c 2.953,-3.574 6.137,-4.66 10.41,-4.66 3.961,0 7.457,1.32 9.629,3.496 3.961,3.961 4.43,10.719 4.43,16.699 z m -7.922,0 c 0,-6.992 -1.012,-13.129 -8.156,-13.129 -7.145,0 -8.235,6.137 -8.235,13.129 0,6.989 1.09,13.047 8.235,13.047 7.144,0 8.156,-6.058 8.156,-13.047 z" /><path
         id="path4242"
         style="fill:#000000;fill-opacity:1;fill-rule:nonzero;stroke:none"
         d="m 195.516,161.863 0,3.496 c 0,11.184 -6.137,18.953 -16.7,18.953 -10.097,0 -16.699,-7.378 -16.699,-20.117 0,-14.992 7.844,-20.195 17.707,-20.195 6.914,0 10.719,2.098 14.758,6.137 l -5.047,4.738 c -2.797,-2.797 -5.125,-4.039 -9.555,-4.039 -6.445,0 -10.019,4.269 -10.019,11.027 l 25.555,0 z m -7.844,5.516 -17.711,0 c 0.078,2.406 0.234,3.574 1.012,5.359 1.242,2.95 4.113,4.969 7.843,4.969 3.727,0 6.524,-2.019 7.766,-4.969 0.777,-1.785 1.012,-2.953 1.09,-5.359 z" /><path
         id="path4244"
         style="fill:#000000;fill-opacity:1;fill-rule:nonzero;stroke:none"
         d="m 214.16,191.613 0,8.387 -8.387,0 0,-8.387 8.387,0 z m -0.234,-47.148 0,39.379 -7.922,0 0,-39.379 7.922,0 z" /><path
         id="path4246"
         style="fill:#000000;fill-opacity:1;fill-rule:nonzero;stroke:none"
         d="m 294.387,144.465 -12.739,24.469 c 6.215,1.707 11.028,6.754 11.028,14.679 0,9.395 -6.676,16.153 -17.164,16.153 l -21.438,0 0,-55.301 8.391,0 0,23.301 10.484,0 11.653,-23.301 9.785,0 z m -10.098,39.07 c 0,-5.437 -3.805,-8.621 -9.398,-8.621 l -12.426,0 0,17.32 12.426,0 c 5.593,0 9.398,-3.261 9.398,-8.699 z" /><path
         id="path4248"
         style="fill:#000000;fill-opacity:1;fill-rule:nonzero;stroke:none"
         d="m 333.352,164.195 c 0,6.602 -0.93,11.571 -4.661,15.457 -2.562,2.641 -6.445,4.66 -11.804,4.66 -5.36,0 -9.164,-2.019 -11.727,-4.66 -3.73,-3.886 -4.66,-8.855 -4.66,-15.457 0,-6.679 0.93,-11.652 4.66,-15.535 2.563,-2.64 6.367,-4.66 11.727,-4.66 5.359,0 9.242,2.02 11.804,4.66 3.731,3.883 4.661,8.856 4.661,15.535 z m -7.922,0 c 0,-4.273 -0.309,-8.39 -2.719,-10.797 -1.473,-1.476 -3.492,-2.332 -5.824,-2.332 -2.328,0 -4.27,0.856 -5.746,2.332 -2.411,2.407 -2.719,6.524 -2.719,10.797 0,4.27 0.308,8.387 2.719,10.797 1.476,1.473 3.418,2.25 5.746,2.25 2.332,0 4.351,-0.777 5.824,-2.25 2.41,-2.41 2.719,-6.527 2.719,-10.797 z" /><path
         id="path4250"
         style="fill:#000000;fill-opacity:1;fill-rule:nonzero;stroke:none"
         d="m 360.395,144.465 0,6.758 -3.262,0 c -2.953,0 -4.352,1.711 -4.352,4.582 l 0,21.281 7.614,0 0,6.059 -7.614,0 0,11.96 -7.922,0 0,-11.96 -4.504,0 0,-6.059 4.504,0 0,-21.668 c 0,-5.672 3.418,-10.953 10.797,-10.953 l 4.739,0 z" /><path
         id="path4252"
         style="fill:#000000;fill-opacity:1;fill-rule:nonzero;stroke:none"
         d="m 85.246,64.465 0,25.398 c 0,8.543 -4.891,14.449 -13.668,14.449 -3.883,0 -7.457,-1.476 -10.176,-4.429 l 0,19.883 -7.922,0 0,-55.301 7.922,0 0,24.156 c 0,5.902 3.575,8.621 8,8.621 4.426,0 7.922,-2.64 7.922,-8.621 l 0,-24.156 7.922,0 z" /><path
         id="path4254"
         style="fill:#000000;fill-opacity:1;fill-rule:nonzero;stroke:none"
         d="m 105.477,111.613 0,8.387 -8.387,0 0,-8.387 8.387,0 z m -0.235,-47.148 0,39.379 -7.922,0 0,-39.379 7.922,0 z" /><path
         id="path4256"
         style="fill:#000000;fill-opacity:1;fill-rule:nonzero;stroke:none"
         d="m 149.18,81.863 0,3.496 c 0,11.184 -6.137,18.953 -16.7,18.953 -10.097,0 -16.699,-7.378 -16.699,-20.117 0,-14.992 7.844,-20.195 17.707,-20.195 6.914,0 10.719,2.098 14.758,6.137 l -5.047,4.738 c -2.797,-2.797 -5.125,-4.039 -9.554,-4.039 -6.446,0 -10.02,4.269 -10.02,11.027 l 25.555,0 z m -7.844,5.516 -17.711,0 c 0.078,2.406 0.234,3.574 1.012,5.359 1.242,2.95 4.117,4.969 7.843,4.969 3.727,0 6.524,-2.019 7.766,-4.969 0.777,-1.785 1.012,-2.953 1.09,-5.359 z" /><path
         id="path4258"
         style="fill:#000000;fill-opacity:1;fill-rule:nonzero;stroke:none"
         d="m 187.32,100.582 c -2.718,2.719 -5.593,3.73 -9.398,3.73 -4.426,0 -8.465,-1.945 -10.484,-4.738 l 0,4.27 -7.77,0 0,-39.379 7.926,0 0,23.922 c 0,5.437 3.57,8.855 7.844,8.855 2.718,0 4.117,-0.855 5.902,-2.64 l 5.98,5.98 z" /><path
         id="path4260"
         style="fill:#000000;fill-opacity:1;fill-rule:nonzero;stroke:none"
         d="m 250.477,64.465 0,25.398 c 0,8.543 -4.895,14.449 -13.672,14.449 -3.883,0 -7.453,-1.476 -10.172,-4.429 l 0,19.883 -7.922,0 0,-55.301 7.922,0 0,24.156 c 0,5.902 3.57,8.621 8,8.621 4.426,0 7.922,-2.64 7.922,-8.621 l 0,-24.156 7.922,0 z" /><path
         id="path4262"
         style="fill:#000000;fill-opacity:1;fill-rule:nonzero;stroke:none"
         d="m 291.52,64.465 0,26.332 c 0,8.93 -5.434,13.515 -16.231,13.515 -6.523,0 -10.41,-1.32 -14.137,-5.671 l 5.203,-4.895 c 2.176,2.797 4.274,3.809 8.622,3.809 6.136,0 8.621,-2.41 8.621,-7.379 l 0,-2.797 -10.407,0 c -9.011,0 -13.593,-4.738 -13.593,-11.34 0,-3.34 1.09,-6.371 3.109,-8.465 2.406,-2.41 5.668,-3.574 10.563,-3.574 4.89,0 7.609,1.164 10.484,4.039 l 0,-3.574 7.766,0 z m -7.922,14.215 c 0,-2.797 -0.543,-4.66 -1.707,-5.825 -2.098,-2.019 -4.352,-2.253 -7.379,-2.253 -4.973,0 -7.223,2.019 -7.223,5.593 0,3.571 2.406,5.668 7.066,5.668 l 9.243,0 0,-3.183 z" /><path
         id="path4264"
         style="fill:#000000;fill-opacity:1;fill-rule:nonzero;stroke:none"
         d="m 317.516,64.465 0,6.758 -3.493,0 c -3.187,0 -4.273,1.554 -4.273,4.582 l 0,43.961 -7.922,0 0,-44.426 c 0,-5.824 3.262,-10.875 10.797,-10.875 l 4.891,0 z" /><path
         id="path4266"
         style="fill:#000000;fill-opacity:1;fill-rule:nonzero;stroke:none"
         d="m 342.648,64.465 0,6.758 -3.261,0 c -2.953,0 -4.352,1.711 -4.352,4.582 l 0,21.281 7.613,0 0,6.059 -7.613,0 0,11.96 -7.922,0 0,-11.96 -4.504,0 0,-6.059 4.504,0 0,-21.668 c 0,-5.672 3.418,-10.953 10.797,-10.953 l 4.738,0 z" /><path
         id="path4268"
         style="fill:#000000;fill-opacity:1;fill-rule:nonzero;stroke:none"
         d="m 382.508,81.863 0,3.496 c 0,11.184 -6.137,18.953 -16.699,18.953 -10.098,0 -16.7,-7.378 -16.7,-20.117 0,-14.992 7.844,-20.195 17.707,-20.195 6.914,0 10.719,2.098 14.758,6.137 l -5.047,4.738 c -2.797,-2.797 -5.129,-4.039 -9.554,-4.039 -6.446,0 -10.02,4.269 -10.02,11.027 l 25.555,0 z m -7.844,5.516 -17.711,0 c 0.078,2.406 0.235,3.574 1.012,5.359 1.242,2.95 4.113,4.969 7.844,4.969 3.726,0 6.523,-2.019 7.765,-4.969 0.778,-1.785 1.012,-2.953 1.09,-5.359 z" /><path
         id="path4270"
         style="fill:#000000;fill-opacity:1;fill-rule:nonzero;stroke:none"
         d="m 426.52,64.465 0,25.168 c 0,4.426 -0.934,8.152 -3.961,11.105 -2.332,2.254 -5.672,3.574 -9.707,3.574 -3.965,0 -7.77,-1.476 -10.489,-4.429 l 0,3.961 -7.765,0 0,-39.379 7.922,0 0,24 c 0,6.058 3.726,8.777 8.156,8.777 4.426,0 7.922,-2.64 7.922,-8.777 l 0,-24 7.922,0 z" /></g></g></svg>