<?xml version="1.0" encoding="UTF-8" standalone="no"?>
<svg
   xmlns:dc="http://purl.org/dc/elements/1.1/"
   xmlns:cc="http://creativecommons.org/ns#"
   xmlns:rdf="http://www.w3.org/1999/02/22-rdf-syntax-ns#"
   xmlns:svg="http://www.w3.org/2000/svg"
   xmlns="http://www.w3.org/2000/svg"
   viewBox="0 0 600 330"
   height="330"
   width="600"
   xml:space="preserve"
   version="1.1"
   id="svg4032"><metadata
     id="metadata4038"><rdf:RDF><cc:Work
         rdf:about=""><dc:format>image/svg+xml</dc:format><dc:type
           rdf:resource="http://purl.org/dc/dcmitype/StillImage" /><dc:title></dc:title></cc:Work></rdf:RDF></metadata><defs
     id="defs4036"><clipPath
       id="clipPath4050"
       clipPathUnits="userSpaceOnUse"><path
         id="path4052"
         d="M 0,0 480,0 480,264 0,264 0,0 Z" /></clipPath></defs><g
     transform="matrix(1.25,0,0,-1.25,0,330)"
     id="g4040"><g
       id="g4042"><g
         id="g4044"><g
           id="g4046"><g
             clip-path="url(#clipPath4050)"
             id="g4048"><g
               id="g4054"><path
                 id="path4056"
                 style="fill:#ffffff;fill-opacity:1;fill-rule:nonzero;stroke:none"
                 d="m 31.996,263.758 c -17.512,0 -31.754,-14.254 -31.754,-31.766 l 0,-199.996 C 0.242,14.484 14.484,0.242 31.996,0.242 l 416.008,0 c 17.512,0 31.754,14.242 31.754,31.754 l 0,199.996 c 0,17.512 -14.242,31.766 -31.754,31.766" /><path
                 id="path4058"
                 style="fill:#000000;fill-opacity:1;fill-rule:nonzero;stroke:none"
                 d="M 31.996,0.484 C 14.613,0.484 0.484,14.613 0.484,31.996 l 0,199.996 c 0,17.383 14.129,31.524 31.512,31.524 l 416.008,0 c 17.383,0 31.512,-14.141 31.512,-31.524 l 0,-199.996 c 0,-17.383 -14.129,-31.512 -31.512,-31.512 l -416.008,0 z M 448.004,264 31.996,264 C 14.32,264 0,249.672 0,231.992 L 0,31.996 C 0,14.328 14.32,0 31.996,0 L 448.004,0 C 465.672,0 480,14.328 480,31.996 l 0,199.996 C 480,249.672 465.672,264 448.004,264" /></g></g></g></g><path
         id="path4060"
         style="fill:#000000;fill-opacity:1;fill-rule:nonzero;stroke:none"
         d="m 31.996,19.996 416.008,0 c 6.629,0 12,5.371 12,12 l 0,199.996 c 0,6.629 -5.371,12 -12,12 l -416.008,0 c -6.629,0 -12,-5.371 -12,-12 l 0,-199.996 c 0,-6.629 5.371,-12 12,-12 z m 0,-12 c -13.258,0 -24,10.742 -24,24 l 0,199.996 c 0,13.258 10.742,24 24,24 l 416.008,0 c 13.258,0 24,-10.742 24,-24 l 0,-199.996 c 0,-13.258 -10.742,-24 -24,-24" /><path
         id="path4062"
         style="fill:#000000;fill-opacity:1;fill-rule:nonzero;stroke:none"
         d="m 39.344,96.762 0,70.972 10.164,0 0,-32.394 0.203,0 14.851,32.394 10.165,0 -13.852,-28.406 16.445,-42.566 -10.765,0 -11.563,31.5 -5.484,-10.266 0,-21.234 -10.164,0 z" /><path
         id="path4064"
         style="fill:#000000;fill-opacity:1;fill-rule:nonzero;stroke:none"
         d="m 81.379,96.762 0,50.539 10.168,0 0,-5.383 c 0.531,0.465 1.031,0.898 1.496,1.297 0.465,0.398 0.965,0.762 1.496,1.094 1.461,1.132 2.988,1.996 4.586,2.593 1.66,0.664 3.621,0.996 5.879,0.996 l 0,-10.765 c -0.465,0.199 -0.965,0.332 -1.496,0.398 -0.531,0.133 -1.063,0.199 -1.594,0.199 -0.465,0 -0.965,-0.031 -1.496,-0.097 -0.531,-0.067 -1.063,-0.199 -1.594,-0.399 -1.859,-0.531 -3.554,-1.629 -5.082,-3.289 -1.465,-1.597 -2.195,-3.988 -2.195,-7.179 l 0,-30.004 -10.168,0 z" /><path
         id="path4066"
         style="fill:#000000;fill-opacity:1;fill-rule:nonzero;stroke:none"
         d="m 127.777,96.762 0,5.183 -0.199,0 -1.195,-1.593 c -1.133,-1.329 -2.328,-2.36 -3.59,-3.09 -1.262,-0.664 -2.926,-0.996 -4.984,-0.996 -0.465,0 -0.965,0.031 -1.497,0.097 -0.464,0.067 -0.96,0.133 -1.492,0.199 -1.996,0.469 -3.824,1.629 -5.484,3.493 -1.66,1.925 -2.492,5.113 -2.492,9.566 0,5.781 1.062,10.07 3.191,12.859 2.192,2.86 6.477,4.286 12.86,4.286 0.464,0 0.929,-0.032 1.394,-0.098 0.531,0 1.063,-0.035 1.594,-0.102 0.265,0 0.566,-0.031 0.898,-0.097 l 0.996,0 0,5.281 c 0,1.73 -0.367,3.156 -1.097,4.285 -0.731,1.133 -2.059,1.695 -3.989,1.695 -1.261,0 -2.457,-0.429 -3.586,-1.292 -1.128,-0.868 -1.859,-2.129 -2.195,-3.79 l -9.867,0 c 0.133,2.258 0.598,4.321 1.395,6.18 0.8,1.86 1.863,3.457 3.191,4.785 1.328,1.328 2.926,2.36 4.785,3.09 1.926,0.797 4.02,1.195 6.277,1.195 4.254,0 7.844,-1.328 10.766,-3.988 2.992,-2.656 4.488,-6.644 4.488,-11.961 l 0,-35.187 -10.168,0 z m 0,14.855 0,6.875 c -0.398,0.067 -0.765,0.133 -1.097,0.199 -0.332,0.067 -0.664,0.102 -0.996,0.102 l -0.7,0 c -2.191,0 -4.086,-0.531 -5.679,-1.594 -1.528,-1 -2.293,-2.859 -2.293,-5.582 0,-1.929 0.465,-3.488 1.394,-4.687 0.93,-1.196 2.227,-1.793 3.887,-1.793 1.73,0 3.059,0.566 3.988,1.695 0.996,1.129 1.496,2.723 1.496,4.785 z" /><path
         id="path4068"
         style="fill:#000000;fill-opacity:1;fill-rule:nonzero;stroke:none"
         d="m 145.625,96.762 0,50.539 10.168,0 0,-4.883 0.199,0 c 1.063,1.594 2.328,2.891 3.789,3.887 1.528,1.062 3.453,1.593 5.781,1.593 l 0.797,0 c 2.391,-0.199 4.586,-1.23 6.579,-3.089 2.062,-1.86 3.089,-4.95 3.089,-9.27 l 0,-38.777 -10.168,0 0,34.988 c 0,1.863 -0.429,3.324 -1.293,4.387 -0.863,1.062 -2.093,1.593 -3.687,1.593 -1.863,0 -3.191,-0.597 -3.988,-1.792 -0.731,-1.196 -1.098,-2.926 -1.098,-5.184 l 0,-33.992 -10.168,0 z" /><path
         id="path4070"
         style="fill:#000000;fill-opacity:1;fill-rule:nonzero;stroke:none"
         d="m 184.367,96.762 0,70.972 10.168,0 0,-42.461 0.199,0 12.262,22.028 10.168,0 -12.062,-20.535 14.554,-30.004 -11.066,0 -9.168,21.832 -4.887,-7.676 0,-14.156 -10.168,0 z" /><path
         id="path4072"
         style="fill:#000000;fill-opacity:1;fill-rule:nonzero;stroke:none"
         d="m 251.348,118.195 -20.137,0 0,-6.879 c 0,-1.593 0.434,-2.824 1.297,-3.687 0.93,-0.863 2.16,-1.297 3.687,-1.297 1.598,0 2.727,0.398 3.391,1.195 0.664,0.801 1.129,1.664 1.394,2.594 0.067,0.199 0.102,0.399 0.102,0.598 0.066,0.265 0.098,0.5 0.098,0.699 l 10.168,0 c 0,-2.063 -0.368,-4.055 -1.098,-5.98 -0.664,-1.864 -1.66,-3.458 -2.988,-4.786 -1.328,-1.398 -2.926,-2.492 -4.785,-3.289 -1.86,-0.734 -3.954,-1.097 -6.282,-1.097 -3.054,0 -5.746,0.632 -8.074,1.894 -2.258,1.328 -3.984,3.09 -5.183,5.281 -0.665,1.329 -1.161,2.86 -1.493,4.586 -0.265,1.727 -0.398,3.621 -0.398,5.684 l 0,16.644 c 0,2.059 0.133,3.954 0.398,5.68 0.332,1.797 0.828,3.324 1.493,4.586 1.199,2.195 2.925,3.953 5.183,5.285 2.328,1.328 5.02,1.992 8.074,1.992 4.719,0 8.407,-1.527 11.067,-4.586 2.722,-2.988 4.086,-6.71 4.086,-11.164 l 0,-13.953 z m -20.137,13.754 0,-5.781 9.969,0 0,5.781 c 0,1.93 -0.465,3.356 -1.395,4.289 -0.863,0.996 -2.058,1.492 -3.59,1.492 -1.527,0 -2.757,-0.496 -3.687,-1.492 -0.863,-0.933 -1.297,-2.359 -1.297,-4.289 z" /><path
         id="path4074"
         style="fill:#000000;fill-opacity:1;fill-rule:nonzero;stroke:none"
         d="m 258.934,96.762 0,50.539 10.168,0 0,-4.883 0.199,0 c 1.062,1.594 2.324,2.891 3.785,3.887 1.531,1.062 3.457,1.593 5.781,1.593 l 0.797,0 c 2.395,-0.199 4.586,-1.23 6.582,-3.089 2.059,-1.86 3.09,-4.95 3.09,-9.27 l 0,-38.777 -10.168,0 0,34.988 c 0,1.863 -0.434,3.324 -1.297,4.387 -0.863,1.062 -2.094,1.593 -3.687,1.593 -1.86,0 -3.192,-0.597 -3.989,-1.792 -0.73,-1.196 -1.093,-2.926 -1.093,-5.184 l 0,-33.992 -10.168,0 z" /><path
         id="path4076"
         style="fill:#000000;fill-opacity:1;fill-rule:nonzero;stroke:none"
         d="m 297.676,96.762 0,70.972 10.168,0 0,-25.316 0.199,0 c 1.062,1.594 2.324,2.891 3.785,3.887 1.531,1.062 3.457,1.593 5.781,1.593 l 0.797,0 c 2.395,-0.199 4.586,-1.23 6.582,-3.089 2.059,-1.86 3.09,-4.95 3.09,-9.27 l 0,-38.777 -10.168,0 0,34.988 c 0,1.863 -0.433,3.324 -1.297,4.387 -0.863,1.062 -2.093,1.593 -3.687,1.593 -1.86,0 -3.192,-0.597 -3.988,-1.792 -0.731,-1.196 -1.094,-2.926 -1.094,-5.184 l 0,-33.992 -10.168,0 z" /><path
         id="path4078"
         style="fill:#000000;fill-opacity:1;fill-rule:nonzero;stroke:none"
         d="m 355.656,96.762 0,5.183 -0.199,0 -0.598,-0.797 -0.601,-0.796 c -1.129,-1.329 -2.324,-2.36 -3.586,-3.09 -1.262,-0.664 -2.926,-0.996 -4.984,-0.996 -0.465,0 -0.965,0.031 -1.497,0.097 -0.464,0.067 -0.964,0.133 -1.496,0.199 -1.992,0.469 -3.82,1.629 -5.48,3.493 -1.66,1.925 -2.492,5.113 -2.492,9.566 0,5.781 1.062,10.07 3.191,12.859 2.191,2.86 6.477,4.286 12.856,4.286 0.464,0 0.929,-0.032 1.398,-0.098 0.531,0 1.062,-0.035 1.594,-0.102 0.265,0 0.562,-0.031 0.898,-0.097 l 0.996,0 0,5.281 c 0,1.73 -0.367,3.156 -1.097,4.285 -0.731,1.133 -2.059,1.695 -3.989,1.695 -1.261,0 -2.457,-0.429 -3.586,-1.292 -1.132,-0.868 -1.863,-2.129 -2.195,-3.79 l -9.867,0 c 0.133,2.258 0.598,4.321 1.394,6.18 0.797,1.86 1.864,3.457 3.192,4.785 1.328,1.328 2.922,2.36 4.785,3.09 1.926,0.797 4.019,1.195 6.277,1.195 4.254,0 7.844,-1.328 10.766,-3.988 2.992,-2.656 4.488,-6.644 4.488,-11.961 l 0,-35.187 -10.168,0 z m 0,14.855 0,6.875 c -0.398,0.067 -0.765,0.133 -1.097,0.199 -0.332,0.067 -0.664,0.102 -0.997,0.102 l -0.699,0 c -2.191,0 -4.086,-0.531 -5.679,-1.594 -1.532,-1 -2.293,-2.859 -2.293,-5.582 0,-1.929 0.464,-3.488 1.394,-4.687 0.93,-1.196 2.227,-1.793 3.887,-1.793 1.73,0 3.058,0.566 3.988,1.695 0.996,1.129 1.496,2.723 1.496,4.785 z" /><path
         id="path4080"
         style="fill:#000000;fill-opacity:1;fill-rule:nonzero;stroke:none"
         d="m 403.809,147.301 0,-50.539 -10.168,0 0,4.886 -0.2,0 c -1.062,-1.593 -2.359,-2.89 -3.886,-3.886 -1.461,-1 -3.356,-1.496 -5.68,-1.496 l -0.801,0 c -2.39,0.199 -4.617,1.195 -6.676,2.988 -1.996,1.863 -2.992,4.953 -2.992,9.273 l 0,38.774 10.168,0 0,-34.989 c 0,-1.859 0.434,-3.32 1.297,-4.386 0.863,-1.063 2.094,-1.594 3.688,-1.594 1.925,0 3.257,0.598 3.988,1.797 0.73,1.195 1.094,2.922 1.094,5.18 l 0,33.992 10.168,0 z" /><path
         id="path4082"
         style="fill:#000000;fill-opacity:1;fill-rule:nonzero;stroke:none"
         d="m 440.16,133.145 -9.57,0 c -0.067,1.73 -0.633,3.023 -1.695,3.89 -0.997,0.863 -2.161,1.293 -3.489,1.293 -1.594,0 -2.824,-0.531 -3.687,-1.594 -0.864,-0.996 -1.297,-2.16 -1.297,-3.488 0,-0.93 0.234,-1.859 0.699,-2.793 0.531,-0.863 1.727,-1.66 3.586,-2.391 l 5.984,-2.39 c 3.786,-1.465 6.379,-3.457 7.774,-5.981 1.461,-2.527 2.191,-5.285 2.191,-8.273 0,-4.188 -1.426,-7.777 -4.285,-10.766 -2.855,-2.925 -6.48,-4.386 -10.863,-4.386 -3.988,0 -7.477,1.261 -10.469,3.789 -2.922,2.59 -4.484,6.379 -4.684,11.363 l 9.571,0 0,-0.301 c 0.265,-1.328 0.762,-2.558 1.492,-3.687 0.801,-1.129 2.129,-1.696 3.988,-1.696 1.461,0 2.758,0.5 3.887,1.496 1.199,0.997 1.797,2.325 1.797,3.989 0,1.394 -0.367,2.59 -1.098,3.586 -0.73,0.996 -2.058,1.863 -3.988,2.593 l -4.883,1.793 c -3.191,1.196 -5.715,2.957 -7.578,5.282 -1.793,2.394 -2.688,5.285 -2.688,8.672 0,4.32 1.461,7.843 4.383,10.566 2.992,2.793 6.512,4.187 10.567,4.187 4.121,0 7.511,-1.429 10.168,-4.285 2.722,-2.793 4.121,-6.281 4.187,-10.468 z" /></g></g></svg>