<?xml version="1.0" encoding="UTF-8" standalone="no"?>
<svg
   xmlns:dc="http://purl.org/dc/elements/1.1/"
   xmlns:cc="http://creativecommons.org/ns#"
   xmlns:rdf="http://www.w3.org/1999/02/22-rdf-syntax-ns#"
   xmlns:svg="http://www.w3.org/2000/svg"
   xmlns="http://www.w3.org/2000/svg"
   viewBox="0 0 1501.2383 500.005"
   height="500.005"
   width="1501.2383"
   xml:space="preserve"
   version="1.1"
   id="svg6664"><metadata
     id="metadata6670"><rdf:RDF><cc:Work
         rdf:about=""><dc:format>image/svg+xml</dc:format><dc:type
           rdf:resource="http://purl.org/dc/dcmitype/StillImage" /><dc:title></dc:title></cc:Work></rdf:RDF></metadata><defs
     id="defs6668" /><g
     transform="matrix(1.25,0,0,-1.25,0,500.005)"
     id="g6672"><g
       id="g6674"><path
         id="path6676"
         style="fill:#ffffff;fill-opacity:1;fill-rule:nonzero;stroke:none"
         d="m 47.996,399.508 c -26.187,0 -47.5,-21.313 -47.5,-47.516 l 0,-303.996 c 0,-26.187 21.313,-47.5 47.5,-47.5 l 1105.004,0 c 26.18,0 47.496,21.313 47.496,47.5 l 0,303.996 c 0,26.203 -21.316,47.516 -47.496,47.516" /><path
         id="path6678"
         style="fill:#000000;fill-opacity:1;fill-rule:nonzero;stroke:none"
         d="M 47.996,400.004 C 21.488,400.004 0,378.504 0,351.992 L 0,47.996 C 0,21.484 21.488,0 47.996,0 L 1153,0 c 26.508,0 47.992,21.484 47.992,47.996 l 0,303.996 c 0,26.512 -21.484,48.012 -47.992,48.012 l -1105.004,0 z m 0,-0.496 1105.004,0 c 26.18,0 47.496,-21.313 47.496,-47.516 l 0,-303.996 c 0,-26.187 -21.316,-47.5 -47.496,-47.5 l -1105.004,0 c -26.184,0 -47.5,21.313 -47.5,47.5 l 0,303.996 c 0,26.203 21.316,47.516 47.5,47.516 z" /><path
         id="path6680"
         style="fill:#000000;fill-opacity:1;fill-rule:nonzero;stroke:none"
         d="M 47.996,388.004 C 28.117,388.004 12,371.887 12,351.992 L 12,47.996 C 12,28.117 28.117,12 47.996,12 L 1153,12 c 19.875,0 35.992,16.117 35.992,35.996 l 0,303.996 c 0,19.895 -16.117,36.012 -35.992,36.012 l -1105.004,0 z m 0,-15.996 1105.004,0 c 11.039,0 19.996,-8.957 19.996,-20.016 l 0,-303.996 c 0,-11.043 -8.957,-20 -19.996,-20 l -1105.004,0 c -11.043,0 -20,8.957 -20,20 l 0,303.996 c 0,11.059 8.957,20.016 20,20.016 z" /><path
         id="path6682"
         style="fill:#000000;fill-opacity:1;fill-rule:nonzero;stroke:none"
         d="m 71.684,264 18.183,0 57.406,-90.203 0.356,0 0,90.203 19.254,0 0,-126.93 -18.184,0 -57.406,90.207 -0.355,0 0,-90.207 -19.254,0 0,126.93 z" /><path
         id="path6684"
         style="fill:#000000;fill-opacity:1;fill-rule:nonzero;stroke:none"
         d="m 210.125,175.399 c 0,-7.485 2.02,-13.071 6.063,-16.754 4.039,-3.688 9.21,-5.528 15.507,-5.528 3.45,0 6.895,0.77 10.34,2.317 3.567,1.547 6.715,3.683 9.449,6.418 l 13.192,-11.231 c -4.516,-5.23 -9.567,-8.972 -15.153,-11.23 -5.585,-2.258 -11.41,-3.391 -17.468,-3.391 -4.637,0 -9.332,0.656 -14.086,1.965 -4.754,1.305 -9.09,3.684 -13.012,7.129 -3.805,3.445 -6.953,8.14 -9.449,14.082 -2.379,5.945 -3.567,13.551 -3.567,22.82 0,8.797 1.129,16.164 3.387,22.106 2.258,5.941 5.172,10.695 8.734,14.261 3.567,3.684 7.547,6.301 11.946,7.844 4.398,1.547 8.797,2.32 13.191,2.32 4.992,0 9.746,-0.894 14.262,-2.675 4.519,-1.782 8.441,-4.34 11.766,-7.664 3.449,-3.329 6.183,-7.372 8.203,-12.125 2.019,-4.633 3.031,-9.864 3.031,-15.688 l 0,-14.976 -56.336,0 z m 38.152,14.976 c -0.238,6.895 -2.14,12.121 -5.707,15.688 -3.566,3.566 -8.023,5.347 -13.371,5.347 -5.347,0 -9.804,-1.781 -13.367,-5.347 -3.566,-3.567 -5.469,-8.793 -5.707,-15.688 l 38.152,0 z" /><path
         id="path6686"
         style="fill:#000000;fill-opacity:1;fill-rule:nonzero;stroke:none"
         d="m 287.137,264 18.183,0 0,-46.172 c 3.446,3.211 7.012,5.766 10.696,7.668 3.8,2.02 8.023,3.031 12.656,3.031 5.586,0 10.34,-1.128 14.262,-3.39 4.043,-2.137 7.371,-4.93 9.984,-8.379 1.187,-1.664 2.199,-3.324 3.031,-4.988 0.832,-1.664 1.485,-3.805 1.961,-6.418 0.594,-2.496 0.949,-5.586 1.07,-9.274 0.235,-3.683 0.356,-8.258 0.356,-13.726 0,-5.586 -0.121,-10.219 -0.356,-13.903 -0.121,-3.687 -0.476,-6.836 -1.07,-9.449 -0.476,-2.496 -1.129,-4.637 -1.961,-6.418 -0.832,-1.664 -1.844,-3.269 -3.031,-4.812 -2.613,-3.45 -5.941,-6.301 -9.984,-8.559 -3.922,-2.141 -8.676,-3.211 -14.262,-3.211 -4.633,0 -8.973,0.953 -13.012,2.856 -4.043,2.019 -7.488,4.574 -10.34,7.664 l 0,-9.45 -18.183,0 0,126.93 z m 36.008,-53.66 c -4.278,0 -7.606,-0.891 -9.981,-2.672 -2.379,-1.664 -4.16,-3.863 -5.348,-6.598 -1.07,-2.613 -1.785,-5.586 -2.14,-8.914 -0.238,-3.324 -0.356,-6.593 -0.356,-9.804 0,-3.328 0.118,-6.653 0.356,-9.981 0.355,-3.328 1.07,-6.359 2.14,-9.094 1.188,-2.613 2.969,-4.812 5.348,-6.597 2.375,-1.66 5.703,-2.492 9.981,-2.492 4.281,0 7.609,0.769 9.984,2.316 2.496,1.664 4.277,3.801 5.348,6.418 1.187,2.734 1.902,5.762 2.14,9.09 0.356,3.328 0.535,6.777 0.535,10.34 0,3.449 -0.179,6.836 -0.535,10.164 -0.238,3.445 -0.953,6.476 -2.14,9.09 -1.071,2.617 -2.852,4.695 -5.348,6.242 -2.375,1.664 -5.703,2.492 -9.984,2.492 z" /><path
         id="path6688"
         style="fill:#000000;fill-opacity:1;fill-rule:nonzero;stroke:none"
         d="m 395.082,175.399 c 0,-7.485 2.02,-13.071 6.059,-16.754 4.043,-3.688 9.211,-5.528 15.511,-5.528 3.446,0 6.891,0.77 10.34,2.317 3.563,1.547 6.715,3.683 9.449,6.418 l 13.192,-11.231 c -4.516,-5.23 -9.567,-8.972 -15.153,-11.23 -5.585,-2.258 -11.41,-3.391 -17.472,-3.391 -4.637,0 -9.328,0.656 -14.082,1.965 -4.754,1.305 -9.094,3.684 -13.016,7.129 -3.805,3.445 -6.953,8.14 -9.449,14.082 -2.375,5.945 -3.566,13.551 -3.566,22.82 0,8.797 1.132,16.164 3.39,22.106 2.258,5.941 5.168,10.695 8.735,14.261 3.566,3.684 7.546,6.301 11.945,7.844 4.394,1.547 8.793,2.32 13.191,2.32 4.992,0 9.746,-0.894 14.262,-2.675 4.516,-1.782 8.437,-4.34 11.766,-7.664 3.445,-3.329 6.179,-7.372 8.199,-12.125 2.023,-4.633 3.031,-9.864 3.031,-15.688 l 0,-14.976 -56.332,0 z m 38.148,14.976 c -0.238,6.895 -2.14,12.121 -5.703,15.688 -3.566,3.566 -8.023,5.347 -13.371,5.347 -5.347,0 -9.804,-1.781 -13.371,-5.347 -3.566,-3.567 -5.469,-8.793 -5.703,-15.688 l 38.148,0 z" /><path
         id="path6690"
         style="fill:#000000;fill-opacity:1;fill-rule:nonzero;stroke:none"
         d="m 473.691,227.457 18.184,0 0,-9.629 0.355,0 c 2.852,3.567 6.239,6.242 10.161,8.024 4.043,1.781 8.5,2.675 13.371,2.675 3.566,0 7.133,-0.714 10.695,-2.14 3.566,-1.309 6.777,-3.27 9.629,-5.883 2.852,-2.617 5.168,-5.883 6.953,-9.805 1.902,-3.922 2.852,-8.437 2.852,-13.55 l 0,-60.079 -18.184,0 0,53.84 c 0,6.18 -1.723,10.934 -5.172,14.262 -3.328,3.445 -7.547,5.168 -12.656,5.168 -5.231,0 -9.567,-1.723 -13.012,-5.168 -3.328,-3.328 -4.992,-8.082 -4.992,-14.262 l 0,-53.84 -18.184,0 0,90.387 z" /><path
         id="path6692"
         style="fill:#000000;fill-opacity:1;fill-rule:nonzero;stroke:none"
         d="m 574.062,164.703 c 3.922,-3.801 8.145,-6.715 12.661,-8.734 4.515,-1.903 9.804,-2.852 15.863,-2.852 5.23,0 9.508,0.949 12.836,2.852 3.328,2.019 4.992,4.933 4.992,8.734 0,3.211 -1.07,5.41 -3.207,6.598 -2.141,1.305 -4.754,2.078 -7.844,2.316 l -16.047,1.426 c -7.484,0.594 -13.726,3.031 -18.718,7.309 -4.871,4.398 -7.309,10.519 -7.309,18.363 0,4.637 0.832,8.676 2.496,12.121 1.781,3.449 4.16,6.301 7.133,8.559 3.09,2.379 6.652,4.16 10.695,5.347 4.16,1.188 8.617,1.785 13.371,1.785 7.961,0 14.735,-1.128 20.321,-3.39 5.586,-2.137 10.64,-5.11 15.156,-8.91 l -11.234,-13.196 c -3.563,2.496 -7.247,4.516 -11.051,6.063 -3.805,1.547 -8.199,2.316 -13.192,2.316 -5.824,0 -9.867,-1.07 -12.125,-3.207 -2.257,-2.019 -3.386,-4.578 -3.386,-7.668 0,-2.019 0.832,-3.859 2.496,-5.523 1.785,-1.664 4.933,-2.676 9.449,-3.031 l 14.977,-1.071 c 4.632,-0.355 8.613,-1.308 11.941,-2.851 3.328,-1.426 6.062,-3.387 8.203,-5.883 2.137,-2.379 3.684,-5.172 4.633,-8.379 0.953,-3.09 1.426,-6.418 1.426,-9.984 0,-4.399 -0.95,-8.321 -2.852,-11.766 -1.902,-3.445 -4.574,-6.359 -8.023,-8.734 -3.325,-2.379 -7.309,-4.219 -11.942,-5.528 -4.515,-1.187 -9.39,-1.785 -14.621,-1.785 -7.367,0 -14.379,1.309 -21.035,3.926 -6.656,2.73 -12.895,6.832 -18.719,12.301 l 12.656,12.476 z" /><path
         id="path6694"
         style="fill:#000000;fill-opacity:1;fill-rule:nonzero;stroke:none"
         d="m 664.516,254.91 18.183,0 0,-27.453 13.192,0 0,-13.906 -13.192,0 0,-52.59 c 0,-2.496 0.473,-4.281 1.426,-5.348 1.07,-0.953 2.734,-1.425 4.992,-1.425 l 6.774,0 0,-17.118 -9.45,0 c -6.418,0 -11.707,1.903 -15.867,5.707 -4.039,3.922 -6.058,9.45 -6.058,16.579 l 0,54.195 -9.094,0 0,13.906 9.094,0 0,27.453 z" /><path
         id="path6696"
         style="fill:#000000;fill-opacity:1;fill-rule:nonzero;stroke:none"
         d="m 717.688,227.457 18.183,0 0,-9.629 0.356,0 c 2.855,3.567 6.242,6.242 10.164,8.024 4.039,1.781 8.496,2.675 13.371,2.675 3.683,0 7.07,-0.656 10.16,-1.961 3.09,-1.191 6,-2.855 8.734,-4.992 l -13.191,-15.687 c -2.141,1.66 -4.102,2.793 -5.883,3.387 -1.664,0.71 -3.684,1.066 -6.062,1.066 -2.258,0 -4.458,-0.356 -6.594,-1.066 -2.024,-0.715 -3.864,-1.844 -5.528,-3.387 -1.664,-1.547 -3.031,-3.508 -4.101,-5.887 -0.949,-2.375 -1.426,-5.226 -1.426,-8.555 l 0,-54.375 -18.183,0 0,90.387 z" /><path
         id="path6698"
         style="fill:#000000;fill-opacity:1;fill-rule:nonzero;stroke:none"
         d="m 802.719,175.399 c 0,-7.485 2.019,-13.071 6.062,-16.754 4.039,-3.688 9.211,-5.528 15.508,-5.528 3.449,0 6.895,0.77 10.34,2.317 3.566,1.547 6.715,3.683 9.449,6.418 l 13.192,-11.231 c -4.516,-5.23 -9.567,-8.972 -15.153,-11.23 -5.586,-2.258 -11.41,-3.391 -17.472,-3.391 -4.633,0 -9.329,0.656 -14.083,1.965 -4.753,1.305 -9.089,3.684 -13.015,7.129 -3.801,3.445 -6.949,8.14 -9.445,14.082 -2.379,5.945 -3.567,13.551 -3.567,22.82 0,8.797 1.129,16.164 3.387,22.106 2.258,5.941 5.172,10.695 8.734,14.261 3.567,3.684 7.547,6.301 11.946,7.844 4.398,1.547 8.796,2.32 13.191,2.32 4.992,0 9.746,-0.894 14.262,-2.675 4.515,-1.782 8.437,-4.34 11.765,-7.664 3.45,-3.329 6.18,-7.372 8.203,-12.125 2.02,-4.633 3.032,-9.864 3.032,-15.688 l 0,-14.976 -56.336,0 z m 38.148,14.976 c -0.234,6.895 -2.137,12.121 -5.703,15.688 -3.566,3.566 -8.023,5.347 -13.371,5.347 -5.348,0 -9.805,-1.781 -13.371,-5.347 -3.563,-3.567 -5.465,-8.793 -5.703,-15.688 l 38.148,0 z" /><path
         id="path6700"
         style="fill:#000000;fill-opacity:1;fill-rule:nonzero;stroke:none"
         d="m 951.023,151.691 c -3.921,-4.519 -8.617,-8.261 -14.082,-11.234 -5.347,-2.969 -11.468,-4.457 -18.363,-4.457 -5.23,0 -10.34,0.832 -15.332,2.496 -4.871,1.785 -9.211,4.52 -13.012,8.203 -3.804,3.684 -6.894,8.438 -9.273,14.262 -2.258,5.941 -3.387,13.012 -3.387,21.215 0,8.316 1.129,15.39 3.387,21.215 2.379,5.82 5.469,10.574 9.273,14.261 3.801,3.801 8.141,6.536 13.012,8.2 4.992,1.781 10.102,2.675 15.332,2.675 6.895,0 13.016,-1.488 18.363,-4.457 5.465,-2.972 10.161,-6.714 14.082,-11.234 l -13.371,-11.941 c -2.257,2.73 -4.929,4.992 -8.019,6.773 -3.09,1.781 -6.539,2.672 -10.34,2.672 -7.488,0 -13.313,-2.195 -17.473,-6.594 -4.039,-4.398 -6.062,-11.59 -6.062,-21.57 0,-9.867 2.023,-16.996 6.062,-21.395 4.16,-4.398 9.985,-6.593 17.473,-6.593 3.801,0 7.25,0.89 10.34,2.671 3.09,1.782 5.762,4.043 8.019,6.774 l 13.371,-11.942 z" /><path
         id="path6702"
         style="fill:#000000;fill-opacity:1;fill-rule:nonzero;stroke:none"
         d="m 968.715,264 18.183,0 0,-78.973 0.356,0 34.766,42.43 21.75,0 -31.2,-35.301 35.477,-55.086 -22.82,0 -24.067,42.25 -14.262,-16.222 0,-26.028 -18.183,0 0,126.93 z" /><path
         id="path6704"
         style="fill:#000000;fill-opacity:1;fill-rule:nonzero;stroke:none"
         d="m 1072.973,175.399 c 0,-7.485 2.019,-13.071 6.058,-16.754 4.043,-3.688 9.211,-5.528 15.512,-5.528 3.445,0 6.895,0.77 10.34,2.317 3.566,1.547 6.715,3.683 9.449,6.418 l 13.191,-11.231 c -4.515,-5.23 -9.566,-8.972 -15.152,-11.23 -5.586,-2.258 -11.41,-3.391 -17.473,-3.391 -4.632,0 -9.328,0.656 -14.082,1.965 -4.754,1.305 -9.093,3.684 -13.015,7.129 -3.801,3.445 -6.953,8.14 -9.449,14.082 -2.375,5.945 -3.563,13.551 -3.563,22.82 0,8.797 1.129,16.164 3.387,22.106 2.258,5.941 5.168,10.695 8.734,14.261 3.567,3.684 7.547,6.301 11.945,7.844 4.399,1.547 8.793,2.32 13.192,2.32 4.992,0 9.746,-0.894 14.262,-2.675 4.515,-1.782 8.437,-4.34 11.765,-7.664 3.446,-3.329 6.18,-7.372 8.199,-12.125 2.024,-4.633 3.032,-9.864 3.032,-15.688 l 0,-14.976 -56.332,0 z m 38.148,14.976 c -0.238,6.895 -2.137,12.121 -5.703,15.688 -3.566,3.566 -8.023,5.347 -13.371,5.347 -5.348,0 -9.805,-1.781 -13.371,-5.347 -3.567,-3.567 -5.465,-8.793 -5.703,-15.688 l 38.148,0 z" /></g></g></svg>