<?xml version="1.0" encoding="UTF-8" standalone="no"?>
<svg
   xmlns:dc="http://purl.org/dc/elements/1.1/"
   xmlns:cc="http://creativecommons.org/ns#"
   xmlns:rdf="http://www.w3.org/1999/02/22-rdf-syntax-ns#"
   xmlns:svg="http://www.w3.org/2000/svg"
   xmlns="http://www.w3.org/2000/svg"
   viewBox="0 0 600 330"
   height="330"
   width="600"
   xml:space="preserve"
   version="1.1"
   id="svg6139"><metadata
     id="metadata6145"><rdf:RDF><cc:Work
         rdf:about=""><dc:format>image/svg+xml</dc:format><dc:type
           rdf:resource="http://purl.org/dc/dcmitype/StillImage" /><dc:title></dc:title></cc:Work></rdf:RDF></metadata><defs
     id="defs6143"><clipPath
       id="clipPath6157"
       clipPathUnits="userSpaceOnUse"><path
         id="path6159"
         d="M 0,0 480,0 480,264 0,264 0,0 Z" /></clipPath></defs><g
     transform="matrix(1.25,0,0,-1.25,0,330)"
     id="g6147"><g
       id="g6149"><g
         id="g6151"><g
           id="g6153"><g
             clip-path="url(#clipPath6157)"
             id="g6155"><g
               id="g6161"><path
                 id="path6163"
                 style="fill:#ffffff;fill-opacity:1;fill-rule:nonzero;stroke:none"
                 d="m 31.996,263.758 c -17.512,0 -31.754,-14.254 -31.754,-31.766 l 0,-199.996 C 0.242,14.484 14.484,0.242 31.996,0.242 l 416.008,0 c 17.512,0 31.754,14.242 31.754,31.754 l 0,199.996 c 0,17.512 -14.242,31.766 -31.754,31.766" /><path
                 id="path6165"
                 style="fill:#000000;fill-opacity:1;fill-rule:nonzero;stroke:none"
                 d="M 31.996,0.484 C 14.613,0.484 0.484,14.613 0.484,31.996 l 0,199.996 c 0,17.383 14.129,31.524 31.512,31.524 l 416.008,0 c 17.383,0 31.512,-14.141 31.512,-31.524 l 0,-199.996 c 0,-17.383 -14.129,-31.512 -31.512,-31.512 l -416.008,0 z M 448.004,264 31.996,264 C 14.32,264 0,249.672 0,231.992 L 0,31.996 C 0,14.328 14.32,0 31.996,0 L 448.004,0 C 465.672,0 480,14.328 480,31.996 l 0,199.996 C 480,249.672 465.672,264 448.004,264" /></g></g></g></g><path
         id="path6167"
         style="fill:#000000;fill-opacity:1;fill-rule:nonzero;stroke:none"
         d="m 31.996,19.996 416.008,0 c 6.629,0 12,5.371 12,12 l 0,199.996 c 0,6.629 -5.371,12 -12,12 l -416.008,0 c -6.629,0 -12,-5.371 -12,-12 l 0,-199.996 c 0,-6.629 5.371,-12 12,-12 z m 0,-12 c -13.258,0 -24,10.742 -24,24 l 0,199.996 c 0,13.258 10.742,24 24,24 l 416.008,0 c 13.258,0 24,-10.742 24,-24 l 0,-199.996 c 0,-13.258 -10.742,-24 -24,-24" /><path
         id="path6169"
         style="fill:#000000;fill-opacity:1;fill-rule:nonzero;stroke:none"
         d="m 81.367,158.996 28.789,46.887 -27.633,0 0,8.555 39.399,0 0,-7.219 -28.879,-47.153 28.879,0 0,-9.093 -40.555,0 0,8.023 z" /><path
         id="path6171"
         style="fill:#000000;fill-opacity:1;fill-rule:nonzero;stroke:none"
         d="m 130.531,196.164 9.094,0 0,-26.918 c 0,-3.09 0.832,-5.496 2.496,-7.219 1.723,-1.664 3.891,-2.496 6.504,-2.496 2.559,0 4.668,0.832 6.332,2.496 1.723,1.723 2.582,4.129 2.582,7.219 l 0,26.918 9.094,0 0,-45.191 -9.094,0 0,4.812 -0.176,0 c -1.425,-1.781 -3.152,-3.117 -5.172,-4.008 -1.961,-0.894 -4.129,-1.339 -6.507,-1.339 -1.782,0 -3.594,0.328 -5.438,0.98 -1.781,0.715 -3.387,1.723 -4.812,3.031 -1.426,1.309 -2.614,2.942 -3.567,4.903 -0.89,1.96 -1.336,4.218 -1.336,6.773 l 0,30.039 z" /><path
         id="path6173"
         style="fill:#000000;fill-opacity:1;fill-rule:nonzero;stroke:none"
         d="m 183.207,189.215 -4.543,0 0,6.949 4.543,0 0,5.973 c 0,2.14 0.297,3.984 0.891,5.527 0.656,1.547 1.515,2.824 2.586,3.832 1.128,1.012 2.437,1.754 3.921,2.231 1.489,0.472 3.122,0.711 4.903,0.711 l 5.883,0 0,-8.555 -5.168,0 c -1.485,0 -2.528,-0.297 -3.121,-0.895 -0.536,-0.531 -0.801,-1.484 -0.801,-2.851 l 0,-5.973 9.09,0 0,-6.949 -9.09,0 0,-38.242 -9.094,0 0,38.242 z m 25.313,25.223 9.089,0 0,-51.79 c 0,-2.078 1.129,-3.117 3.387,-3.117 l 3.121,0 0,-8.558 -4.012,0 c -1.664,0 -3.207,0.179 -4.632,0.535 -1.368,0.418 -2.586,1.039 -3.657,1.871 -1.011,0.894 -1.812,2.023 -2.406,3.387 -0.594,1.429 -0.89,3.152 -0.89,5.172 l 0,52.5 z" /><path
         id="path6175"
         style="fill:#000000;fill-opacity:1;fill-rule:nonzero;stroke:none"
         d="m 232.859,196.164 9.09,0 0,-26.918 c 0,-3.09 0.832,-5.496 2.496,-7.219 1.723,-1.664 3.895,-2.496 6.508,-2.496 2.555,0 4.664,0.832 6.328,2.496 1.723,1.723 2.586,4.129 2.586,7.219 l 0,26.918 9.09,0 0,-45.191 -9.09,0 0,4.812 -0.179,0 c -1.426,-1.781 -3.149,-3.117 -5.168,-4.008 -1.961,-0.894 -4.133,-1.339 -6.508,-1.339 -1.785,0 -3.598,0.328 -5.438,0.98 -1.781,0.715 -3.386,1.723 -4.812,3.031 -1.426,1.309 -2.617,2.942 -3.567,4.903 -0.89,1.96 -1.336,4.218 -1.336,6.773 l 0,30.039 z" /><path
         id="path6177"
         style="fill:#000000;fill-opacity:1;fill-rule:nonzero;stroke:none"
         d="m 283.844,164.789 c 1.961,-1.902 4.07,-3.355 6.328,-4.367 2.262,-0.949 4.906,-1.426 7.933,-1.426 2.618,0 4.754,0.477 6.418,1.426 1.665,1.012 2.497,2.465 2.497,4.367 0,1.606 -0.536,2.703 -1.602,3.297 -1.07,0.656 -2.379,1.043 -3.922,1.16 l -8.023,0.715 c -3.746,0.297 -6.864,1.516 -9.36,3.652 -2.437,2.199 -3.656,5.262 -3.656,9.184 0,2.316 0.418,4.336 1.25,6.058 0.891,1.723 2.078,3.153 3.563,4.282 1.546,1.187 3.328,2.078 5.351,2.672 2.078,0.593 4.309,0.89 6.684,0.89 3.98,0 7.367,-0.562 10.16,-1.691 2.793,-1.07 5.32,-2.555 7.578,-4.457 l -5.617,-6.598 c -1.781,1.25 -3.625,2.258 -5.524,3.031 -1.902,0.774 -4.101,1.161 -6.597,1.161 -2.91,0 -4.934,-0.536 -6.063,-1.606 -1.129,-1.012 -1.691,-2.289 -1.691,-3.832 0,-1.012 0.414,-1.934 1.246,-2.766 0.891,-0.832 2.469,-1.336 4.726,-1.515 l 7.485,-0.531 c 2.32,-0.18 4.308,-0.657 5.972,-1.43 1.665,-0.711 3.032,-1.692 4.102,-2.942 1.07,-1.187 1.844,-2.582 2.316,-4.187 0.477,-1.547 0.715,-3.211 0.715,-4.992 0,-2.199 -0.476,-4.16 -1.425,-5.883 -0.954,-1.723 -2.29,-3.18 -4.012,-4.367 -1.664,-1.188 -3.656,-2.11 -5.973,-2.766 -2.258,-0.594 -4.695,-0.89 -7.308,-0.89 -3.684,0 -7.192,0.656 -10.52,1.96 -3.328,1.368 -6.445,3.418 -9.359,6.153 l 6.328,6.238 z" /><path
         id="path6179"
         style="fill:#000000;fill-opacity:1;fill-rule:nonzero;stroke:none"
         d="m 328.273,164.789 c 1.961,-1.902 4.071,-3.355 6.329,-4.367 2.257,-0.949 4.902,-1.426 7.933,-1.426 2.613,0 4.754,0.477 6.418,1.426 1.664,1.012 2.496,2.465 2.496,4.367 0,1.606 -0.535,2.703 -1.605,3.297 -1.071,0.656 -2.379,1.043 -3.922,1.16 l -8.024,0.715 c -3.742,0.297 -6.863,1.516 -9.359,3.652 -2.437,2.199 -3.652,5.262 -3.652,9.184 0,2.316 0.414,4.336 1.246,6.058 0.89,1.723 2.082,3.153 3.566,4.282 1.543,1.187 3.328,2.078 5.348,2.672 2.078,0.593 4.308,0.89 6.683,0.89 3.985,0 7.372,-0.562 10.165,-1.691 2.793,-1.07 5.316,-2.555 7.574,-4.457 l -5.614,-6.598 c -1.785,1.25 -3.625,2.258 -5.527,3.031 -1.902,0.774 -4.101,1.161 -6.598,1.161 -2.91,0 -4.929,-0.536 -6.058,-1.606 -1.129,-1.012 -1.695,-2.289 -1.695,-3.832 0,-1.012 0.418,-1.934 1.25,-2.766 0.89,-0.832 2.464,-1.336 4.722,-1.515 l 7.489,-0.531 c 2.316,-0.18 4.308,-0.657 5.972,-1.43 1.664,-0.711 3.031,-1.692 4.098,-2.942 1.07,-1.187 1.844,-2.582 2.32,-4.187 0.473,-1.547 0.711,-3.211 0.711,-4.992 0,-2.199 -0.477,-4.16 -1.426,-5.883 -0.949,-1.723 -2.289,-3.18 -4.011,-4.367 -1.664,-1.188 -3.653,-2.11 -5.973,-2.766 -2.258,-0.594 -4.691,-0.89 -7.309,-0.89 -3.683,0 -7.191,0.656 -10.515,1.96 -3.328,1.368 -6.45,3.418 -9.36,6.153 l 6.328,6.238 z" /><path
         id="path6181"
         style="fill:#000000;fill-opacity:1;fill-rule:nonzero;stroke:none"
         d="m 371.805,180.211 26.828,0 0,-9.094 -26.828,0 0,9.094 z" /><path
         id="path6183"
         style="fill:#000000;fill-opacity:1;fill-rule:nonzero;stroke:none"
         d="m 75.664,95.367 9.09,0 0,-4.816 0.18,0 c 1.425,1.785 3.121,3.121 5.082,4.011 2.019,0.891 4.246,1.34 6.683,1.34 1.844,0 3.535,-0.328 5.082,-0.98 1.543,-0.598 3,-1.43 4.367,-2.496 l -6.597,-7.844 c -1.071,0.832 -2.051,1.395 -2.942,1.691 -0.832,0.356 -1.839,0.536 -3.031,0.536 -1.129,0 -2.226,-0.18 -3.297,-0.536 -1.011,-0.355 -1.929,-0.921 -2.761,-1.691 -0.832,-0.773 -1.516,-1.754 -2.051,-2.941 -0.477,-1.192 -0.715,-2.618 -0.715,-4.282 l 0,-27.187 -9.09,0 0,45.195 z" /><path
         id="path6185"
         style="fill:#000000;fill-opacity:1;fill-rule:nonzero;stroke:none"
         d="m 117.379,69.336 c 0,-3.742 1.008,-6.535 3.031,-8.375 2.02,-1.844 4.606,-2.766 7.754,-2.766 1.723,0 3.445,0.387 5.168,1.16 1.785,0.774 3.359,1.84 4.727,3.207 l 6.593,-5.613 c -2.257,-2.617 -4.781,-4.488 -7.574,-5.617 -2.793,-1.129 -5.707,-1.695 -8.734,-1.695 -2.321,0 -4.668,0.328 -7.043,0.984 -2.379,0.652 -4.547,1.84 -6.508,3.563 -1.902,1.722 -3.477,4.07 -4.723,7.043 -1.191,2.972 -1.785,6.773 -1.785,11.41 0,4.398 0.567,8.082 1.695,11.051 1.129,2.972 2.586,5.347 4.368,7.132 1.781,1.84 3.773,3.149 5.972,3.922 2.2,0.774 4.399,1.16 6.598,1.16 2.492,0 4.871,-0.449 7.129,-1.34 2.258,-0.89 4.219,-2.167 5.883,-3.832 1.722,-1.664 3.09,-3.683 4.101,-6.062 1.008,-2.316 1.516,-4.93 1.516,-7.844 l 0,-7.488 -28.168,0 z m 19.074,7.488 c -0.117,3.449 -1.07,6.063 -2.851,7.844 -1.782,1.785 -4.012,2.676 -6.684,2.676 -2.676,0 -4.906,-0.891 -6.688,-2.676 -1.781,-1.781 -2.734,-4.395 -2.851,-7.844 l 19.074,0 z" /><path
         id="path6187"
         style="fill:#000000;fill-opacity:1;fill-rule:nonzero;stroke:none"
         d="m 180.488,54.898 c -1.426,-1.546 -3.152,-2.824 -5.172,-3.832 -2.019,-0.953 -4.187,-1.429 -6.507,-1.429 -2.969,0 -5.465,0.597 -7.485,1.785 -1.961,1.187 -3.449,2.437 -4.457,3.742 -0.656,0.832 -1.191,1.637 -1.605,2.406 -0.418,0.774 -0.774,1.754 -1.071,2.942 -0.238,1.191 -0.414,2.734 -0.535,4.636 -0.117,1.903 -0.176,4.426 -0.176,7.579 0,3.148 0.059,5.671 0.176,7.574 0.121,1.902 0.297,3.449 0.535,4.637 0.297,1.246 0.653,2.257 1.071,3.031 0.414,0.769 0.949,1.574 1.605,2.406 1.008,1.305 2.496,2.555 4.457,3.742 2.02,1.188 4.516,1.785 7.485,1.785 2.32,0 4.398,-0.449 6.242,-1.34 1.902,-0.89 3.715,-2.226 5.437,-4.011 l 0,4.816 9.09,0 0,-44.125 c 0,-3.387 -0.535,-6.328 -1.605,-8.824 -1.067,-2.496 -2.524,-4.547 -4.368,-6.148 -1.781,-1.665 -3.859,-2.883 -6.238,-3.657 -2.375,-0.832 -4.844,-1.246 -7.398,-1.246 -2.91,0 -5.766,0.711 -8.559,2.137 -2.73,1.367 -5.109,3.18 -7.129,5.437 l 7.043,5.618 c 1.129,-1.129 2.434,-2.082 3.922,-2.852 1.543,-0.832 3.18,-1.25 4.902,-1.25 3.032,0 5.497,0.832 7.399,2.496 1.961,1.664 2.941,4.102 2.941,7.309 l 0,4.636 z m -17.918,17.829 0,-4.372 c 0.059,-1.128 0.149,-2.078 0.27,-2.851 0.117,-0.711 0.297,-1.305 0.531,-1.781 0.238,-0.477 0.567,-0.981 0.981,-1.516 0.656,-0.832 1.546,-1.633 2.675,-2.406 1.188,-0.715 2.703,-1.071 4.547,-1.071 1.781,0 3.238,0.356 4.367,1.071 1.188,0.773 2.11,1.574 2.762,2.406 0.418,0.535 0.742,1.039 0.981,1.516 0.238,0.476 0.418,1.07 0.535,1.781 0.121,0.773 0.179,1.723 0.179,2.851 0.059,1.133 0.09,2.586 0.09,4.372 0,1.839 -0.031,3.328 -0.09,4.457 0,1.128 -0.058,2.046 -0.179,2.761 -0.117,0.774 -0.297,1.395 -0.535,1.871 -0.239,0.477 -0.563,0.981 -0.981,1.516 -0.652,0.832 -1.574,1.606 -2.762,2.316 -1.129,0.774 -2.586,1.161 -4.367,1.161 -1.844,0 -3.359,-0.387 -4.547,-1.161 -1.129,-0.71 -2.019,-1.484 -2.675,-2.316 -0.414,-0.535 -0.743,-1.039 -0.981,-1.516 -0.234,-0.476 -0.414,-1.097 -0.531,-1.871 -0.121,-0.715 -0.211,-1.633 -0.27,-2.761 l 0,-4.457 z" /><path
         id="path6189"
         style="fill:#000000;fill-opacity:1;fill-rule:nonzero;stroke:none"
         d="m 208.254,69.336 c 0,-3.742 1.012,-6.535 3.031,-8.375 2.024,-1.844 4.606,-2.766 7.758,-2.766 1.723,0 3.445,0.387 5.168,1.16 1.781,0.774 3.359,1.84 4.723,3.207 l 6.597,-5.613 c -2.258,-2.617 -4.785,-4.488 -7.578,-5.617 -2.793,-1.129 -5.703,-1.695 -8.734,-1.695 -2.317,0 -4.664,0.328 -7.039,0.984 -2.379,0.652 -4.547,1.84 -6.508,3.563 -1.902,1.722 -3.477,4.07 -4.727,7.043 -1.187,2.972 -1.781,6.773 -1.781,11.41 0,4.398 0.563,8.082 1.695,11.051 1.129,2.972 2.582,5.347 4.368,7.132 1.781,1.84 3.773,3.149 5.972,3.922 2.196,0.774 4.395,1.16 6.594,1.16 2.496,0 4.875,-0.449 7.133,-1.34 2.258,-0.89 4.219,-2.167 5.883,-3.832 1.722,-1.664 3.089,-3.683 4.097,-6.062 1.012,-2.316 1.516,-4.93 1.516,-7.844 l 0,-7.488 -28.168,0 z m 19.078,7.488 c -0.121,3.449 -1.07,6.063 -2.852,7.844 -1.785,1.785 -4.011,2.676 -6.687,2.676 -2.672,0 -4.902,-0.891 -6.684,-2.676 -1.785,-1.781 -2.734,-4.395 -2.855,-7.844 l 19.078,0 z" /><path
         id="path6191"
         style="fill:#000000;fill-opacity:1;fill-rule:nonzero;stroke:none"
         d="m 247.562,113.641 9.09,0 0,-51.789 c 0,-2.082 1.129,-3.122 3.387,-3.122 l 3.121,0 0,-8.558 -4.012,0 c -1.664,0 -3.21,0.18 -4.636,0.535 -1.367,0.418 -2.582,1.043 -3.653,1.875 -1.011,0.891 -1.812,2.02 -2.406,3.387 -0.594,1.426 -0.891,3.148 -0.891,5.168 l 0,52.504 z" /><path
         id="path6193"
         style="fill:#000000;fill-opacity:1;fill-rule:nonzero;stroke:none"
         d="m 273.742,95.367 9.09,0 0,-26.922 c 0,-3.09 0.832,-5.496 2.496,-7.218 1.723,-1.665 3.895,-2.497 6.508,-2.497 2.555,0 4.664,0.832 6.328,2.497 1.723,1.722 2.586,4.128 2.586,7.218 l 0,26.922 9.09,0 0,-45.195 -9.09,0 0,4.816 -0.18,0 c -1.425,-1.785 -3.148,-3.121 -5.168,-4.011 -1.961,-0.891 -4.132,-1.34 -6.507,-1.34 -1.782,0 -3.594,0.328 -5.438,0.984 -1.781,0.711 -3.387,1.723 -4.812,3.027 -1.426,1.309 -2.618,2.942 -3.567,4.903 -0.89,1.961 -1.336,4.219 -1.336,6.777 l 0,30.039 z" /><path
         id="path6195"
         style="fill:#000000;fill-opacity:1;fill-rule:nonzero;stroke:none"
         d="m 321.793,95.367 9.09,0 0,-4.816 0.179,0 c 1.426,1.785 3.118,3.121 5.079,4.011 2.023,0.891 4.25,1.34 6.687,1.34 1.781,0 3.567,-0.359 5.348,-1.07 1.781,-0.656 3.386,-1.637 4.812,-2.941 1.426,-1.309 2.586,-2.942 3.477,-4.903 0.953,-1.961 1.426,-4.218 1.426,-6.777 l 0,-30.039 -9.09,0 0,26.922 c 0,3.09 -0.863,5.465 -2.586,7.129 -1.664,1.722 -3.774,2.586 -6.328,2.586 -2.617,0 -4.785,-0.864 -6.508,-2.586 -1.664,-1.664 -2.496,-4.039 -2.496,-7.129 l 0,-26.922 -9.09,0 0,45.195 z" /><path
         id="path6197"
         style="fill:#000000;fill-opacity:1;fill-rule:nonzero;stroke:none"
         d="m 395.246,54.898 c -1.426,-1.546 -3.148,-2.824 -5.172,-3.832 -2.019,-0.953 -4.187,-1.429 -6.504,-1.429 -2.972,0 -5.468,0.597 -7.488,1.785 -1.961,1.187 -3.449,2.437 -4.457,3.742 -0.656,0.832 -1.187,1.637 -1.605,2.406 -0.415,0.774 -0.774,1.754 -1.071,2.942 -0.238,1.191 -0.414,2.734 -0.535,4.636 -0.117,1.903 -0.176,4.426 -0.176,7.579 0,3.148 0.059,5.671 0.176,7.574 0.121,1.902 0.297,3.449 0.535,4.637 0.297,1.246 0.656,2.257 1.071,3.031 0.418,0.769 0.949,1.574 1.605,2.406 1.008,1.305 2.496,2.555 4.457,3.742 2.02,1.188 4.516,1.785 7.488,1.785 2.317,0 4.395,-0.449 6.239,-1.34 1.902,-0.89 3.714,-2.226 5.437,-4.011 l 0,4.816 9.09,0 0,-44.125 c 0,-3.387 -0.535,-6.328 -1.602,-8.824 -1.07,-2.496 -2.527,-4.547 -4.371,-6.148 -1.781,-1.665 -3.859,-2.883 -6.238,-3.657 -2.375,-0.832 -4.844,-1.246 -7.398,-1.246 -2.911,0 -5.762,0.711 -8.555,2.137 -2.734,1.367 -5.113,3.18 -7.133,5.437 l 7.043,5.618 c 1.129,-1.129 2.434,-2.082 3.922,-2.852 1.543,-0.832 3.18,-1.25 4.902,-1.25 3.032,0 5.496,0.832 7.399,2.496 1.961,1.664 2.941,4.102 2.941,7.309 l 0,4.636 z m -17.918,17.829 0,-4.372 c 0.059,-1.128 0.149,-2.078 0.27,-2.851 0.117,-0.711 0.297,-1.305 0.535,-1.781 0.234,-0.477 0.562,-0.981 0.98,-1.516 0.653,-0.832 1.543,-1.633 2.672,-2.406 1.188,-0.715 2.703,-1.071 4.547,-1.071 1.781,0 3.238,0.356 4.367,1.071 1.188,0.773 2.11,1.574 2.762,2.406 0.418,0.535 0.746,1.039 0.98,1.516 0.239,0.476 0.418,1.07 0.536,1.781 0.121,0.773 0.179,1.723 0.179,2.851 0.059,1.133 0.09,2.586 0.09,4.372 0,1.839 -0.031,3.328 -0.09,4.457 0,1.128 -0.058,2.046 -0.179,2.761 -0.118,0.774 -0.297,1.395 -0.536,1.871 -0.234,0.477 -0.562,0.981 -0.98,1.516 -0.652,0.832 -1.574,1.606 -2.762,2.316 -1.129,0.774 -2.586,1.161 -4.367,1.161 -1.844,0 -3.359,-0.387 -4.547,-1.161 -1.129,-0.71 -2.019,-1.484 -2.672,-2.316 -0.418,-0.535 -0.746,-1.039 -0.98,-1.516 -0.238,-0.476 -0.418,-1.097 -0.535,-1.871 -0.121,-0.715 -0.211,-1.633 -0.27,-2.761 l 0,-4.457 z" /></g></g></svg>