<?xml version="1.0" encoding="UTF-8" standalone="no"?>
<svg
   xmlns:dc="http://purl.org/dc/elements/1.1/"
   xmlns:cc="http://creativecommons.org/ns#"
   xmlns:rdf="http://www.w3.org/1999/02/22-rdf-syntax-ns#"
   xmlns:svg="http://www.w3.org/2000/svg"
   xmlns="http://www.w3.org/2000/svg"
   viewBox="0 0 600 330"
   height="330"
   width="600"
   xml:space="preserve"
   version="1.1"
   id="svg3609"><metadata
     id="metadata3615"><rdf:RDF><cc:Work
         rdf:about=""><dc:format>image/svg+xml</dc:format><dc:type
           rdf:resource="http://purl.org/dc/dcmitype/StillImage" /><dc:title></dc:title></cc:Work></rdf:RDF></metadata><defs
     id="defs3613"><clipPath
       id="clipPath3627"
       clipPathUnits="userSpaceOnUse"><path
         id="path3629"
         d="M 0,0 480,0 480,264 0,264 0,0 Z" /></clipPath></defs><g
     transform="matrix(1.25,0,0,-1.25,0,330)"
     id="g3617"><g
       id="g3619"><g
         id="g3621"><g
           id="g3623"><g
             clip-path="url(#clipPath3627)"
             id="g3625"><g
               id="g3631"><path
                 id="path3633"
                 style="fill:#ffffff;fill-opacity:1;fill-rule:nonzero;stroke:none"
                 d="m 31.996,263.758 c -17.512,0 -31.754,-14.254 -31.754,-31.766 l 0,-199.996 C 0.242,14.484 14.484,0.242 31.996,0.242 l 416.008,0 c 17.512,0 31.754,14.242 31.754,31.754 l 0,199.996 c 0,17.512 -14.242,31.766 -31.754,31.766" /><path
                 id="path3635"
                 style="fill:#000000;fill-opacity:1;fill-rule:nonzero;stroke:none"
                 d="M 31.996,0.484 C 14.613,0.484 0.484,14.613 0.484,31.996 l 0,199.996 c 0,17.383 14.129,31.524 31.512,31.524 l 416.008,0 c 17.383,0 31.512,-14.141 31.512,-31.524 l 0,-199.996 c 0,-17.383 -14.129,-31.512 -31.512,-31.512 l -416.008,0 z M 448.004,264 31.996,264 C 14.32,264 0,249.672 0,231.992 L 0,31.996 C 0,14.328 14.32,0 31.996,0 L 448.004,0 C 465.672,0 480,14.328 480,31.996 l 0,199.996 C 480,249.672 465.672,264 448.004,264" /></g></g></g></g><path
         id="path3637"
         style="fill:#000000;fill-opacity:1;fill-rule:nonzero;stroke:none"
         d="m 31.996,19.996 416.008,0 c 6.629,0 12,5.371 12,12 l 0,199.996 c 0,6.629 -5.371,12 -12,12 l -416.008,0 c -6.629,0 -12,-5.371 -12,-12 l 0,-199.996 c 0,-6.629 5.371,-12 12,-12 z m 0,-12 c -13.258,0 -24,10.742 -24,24 l 0,199.996 c 0,13.258 10.742,24 24,24 l 416.008,0 c 13.258,0 24,-10.742 24,-24 l 0,-199.996 c 0,-13.258 -10.742,-24 -24,-24" /><path
         id="path3639"
         style="fill:#000000;fill-opacity:1;fill-rule:nonzero;stroke:none"
         d="m 126.383,114.25 c 0,7.074 -2.203,12.992 -6.731,16.938 -3.48,3.132 -7.773,4.988 -15.429,6.148 l -9.399,1.394 c -3.828,0.579 -7.191,1.973 -9.281,3.829 -2.203,1.972 -3.133,4.64 -3.133,7.656 0,7.308 5.34,12.879 15.082,12.879 6.965,0 12.879,-1.508 17.985,-6.383 l 8.007,7.891 C 116.406,171.215 108.75,174 97.844,174 80.672,174 70.23,164.137 70.23,149.75 c 0,-6.727 1.973,-11.949 6.032,-15.777 3.597,-3.364 8.933,-5.684 15.664,-6.614 l 9.746,-1.39 c 4.871,-0.699 6.961,-1.512 9.047,-3.485 2.207,-1.968 3.25,-4.988 3.25,-8.582 0,-8.007 -6.266,-12.648 -17.055,-12.648 -8.469,0 -15.082,1.855 -21.117,7.891 l -8.352,-8.239 C 75.332,92.902 84.266,90 96.684,90 c 17.285,0 29.699,9.051 29.699,24.25 z" /><path
         id="path3641"
         style="fill:#000000;fill-opacity:1;fill-rule:nonzero;stroke:none"
         d="m 184.602,98.355 -8.122,7.774 c -3.71,-4.063 -6.613,-5.57 -11.253,-5.57 -4.524,0 -8.352,1.855 -10.907,5.218 -2.55,3.25 -3.48,7.543 -3.48,14.387 0,6.848 0.93,11.024 3.48,14.274 2.555,3.363 6.383,5.218 10.907,5.218 4.64,0 7.543,-1.508 11.253,-5.566 l 8.122,7.887 c -5.567,5.918 -11.254,8.238 -19.375,8.238 -13.227,0 -26.219,-8.004 -26.219,-30.051 C 139.008,98.121 152,90 165.227,90 c 8.121,0 13.808,2.438 19.375,8.355 z" /><path
         id="path3643"
         style="fill:#000000;fill-opacity:1;fill-rule:nonzero;stroke:none"
         d="m 245.676,90.695 0,37.942 c 0,12.761 -7.313,21.578 -20.422,21.578 -5.801,0 -11.137,-2.203 -15.199,-6.613 l 0,29.703 -11.832,0 0,-82.61 11.832,0 0,36.082 c 0,8.821 5.336,12.879 11.949,12.879 6.613,0 11.836,-3.945 11.836,-12.879 l 0,-36.082 11.836,0 z" /><path
         id="path3645"
         style="fill:#000000;fill-opacity:1;fill-rule:nonzero;stroke:none"
         d="m 310.816,90.695 0,58.825 -11.836,0 0,-35.852 c 0,-9.051 -5.57,-13.109 -12.183,-13.109 -6.613,0 -11.832,3.945 -11.832,13.109 l 0,35.852 -11.836,0 0,-37.59 c 0,-6.614 1.394,-12.184 5.918,-16.594 3.48,-3.363 8.469,-5.336 14.504,-5.336 5.918,0 11.601,2.203 15.664,6.613 l 0,-5.918 11.601,0 z" /><path
         id="path3647"
         style="fill:#000000;fill-opacity:1;fill-rule:nonzero;stroke:none"
         d="m 352.742,90.695 0,10.094 -5.222,0 c -4.758,0 -6.383,2.32 -6.383,6.848 l 0,65.668 -11.832,0 0,-66.367 c 0,-8.7 4.871,-16.243 16.125,-16.243 l 7.312,0 z" /><path
         id="path3649"
         style="fill:#000000;fill-opacity:1;fill-rule:nonzero;stroke:none"
         d="m 412.555,116.684 0,5.222 c 0,16.707 -9.164,28.309 -24.946,28.309 -15.082,0 -24.941,-11.02 -24.941,-30.051 0,-22.391 11.715,-30.164 26.453,-30.164 10.324,0 16.008,3.133 22.043,9.164 l -7.543,7.078 c -4.176,-4.176 -7.656,-6.031 -14.269,-6.031 -9.629,0 -14.969,6.379 -14.969,16.473 l 38.172,0 z m -11.719,8.238 -26.453,0 c 0.117,3.598 0.351,5.336 1.512,8.008 1.855,4.406 6.148,7.425 11.714,7.425 5.571,0 9.746,-3.019 11.606,-7.425 1.16,-2.672 1.508,-4.41 1.621,-8.008 z" /></g></g></svg>