<?xml version="1.0" encoding="UTF-8" standalone="no"?>
<svg
   xmlns:dc="http://purl.org/dc/elements/1.1/"
   xmlns:cc="http://creativecommons.org/ns#"
   xmlns:rdf="http://www.w3.org/1999/02/22-rdf-syntax-ns#"
   xmlns:svg="http://www.w3.org/2000/svg"
   xmlns="http://www.w3.org/2000/svg"
   viewBox="0 0 2252 802.0235"
   height="802.0235"
   width="2252"
   xml:space="preserve"
   version="1.1"
   id="svg16718"><metadata
     id="metadata16724"><rdf:RDF><cc:Work
         rdf:about=""><dc:format>image/svg+xml</dc:format><dc:type
           rdf:resource="http://purl.org/dc/dcmitype/StillImage" /><dc:title></dc:title></cc:Work></rdf:RDF></metadata><defs
     id="defs16722" /><g
     transform="matrix(1.25,0,0,-1.25,0,802.02347)"
     id="g16726"><g
       id="g16728"><path
         id="path16730"
         style="fill:#ffffff;fill-opacity:1;fill-rule:nonzero;stroke:none"
         d="m 47.238,640.818 c 0,0 -46.437,-0.258 -46.437,-47.469 l 0,-544.48 C 0.801,1.685 47.238,0.798 47.238,0.798 l 1705.528,0 c 0,0 48.113,0.028 48.035,48.071 l -0.91,544.48 c -0.079,47.211 -47.125,47.469 -47.125,47.469 l -1705.528,0 z" /><path
         id="path16732"
         style="fill:#000000;fill-opacity:1;fill-rule:nonzero;stroke:none"
         d="m 50.438,624.736 c -35.211,0 -33.633,-34.59 -33.633,-34.59 l 0,-538.078 c 0,0 -0.469,-35.184 33.633,-35.184 l 1699.124,0 c 0,0 35.157,-0.632 35.157,35.184 l 0,538.078 c 0,0 0.656,34.59 -35.157,34.59 l -1699.124,0 z m 0,-24.016 1699.124,0 c 0,0 11.137,0.477 11.137,-10.574 l 0,-538.078 c 0,0 0.164,-11.09 -11.137,-11.09 l -1699.124,0 c -10.45,0 -9.54,11.09 -9.54,11.09 l 0,538.078 c 0,0 -0.05,10.574 9.54,10.574 z" /><path
         id="path16734"
         style="fill:#000000;fill-opacity:1;fill-rule:nonzero;stroke:none"
         d="m 1543.371,356.947 0,120.121 24.02,0 0,-13.547 c 7.699,9.512 19.277,15.055 31.531,15.055 22.387,0 40.523,-18.168 40.523,-40.551 l 0,-81.078 -24.019,0 0,73.562 c 0,13.274 -10.746,24.051 -24.016,24.051 -13.273,0 -24.019,-10.777 -24.019,-24.051 l 0,-73.562 -24.02,0 z m -108.082,72.086 51.023,0 c 0,14.07 -11.425,25.527 -25.527,25.527 -14.074,0 -25.496,-11.457 -25.496,-25.527 z m 75.07,-21.031 -75.07,0 0,-2.989 c 0,-10.468 6.344,-19.832 16.043,-23.711 3.973,-1.601 8.191,-2.402 12.469,-2.402 9.793,0 19.125,4.281 25.5,11.734 l 18.226,-15.675 c -10.929,-12.746 -26.91,-20.079 -43.726,-20.079 -7.328,0 -14.594,1.391 -21.399,4.098 -18.816,7.543 -31.132,25.742 -31.132,46.035 l 0,24.02 c 0,27.344 22.171,49.543 49.515,49.543 27.375,0 49.574,-22.199 49.574,-49.543 l 0,-21.031 z m -168.156,-51.055 0,100.598 -12.012,0 0,19.523 12.012,0 0,18.016 c 0,16.566 13.426,30.023 30.02,30.023 l 18.015,0 0,-22.512 -16.504,0 c -4.156,0 -7.515,-3.355 -7.515,-7.511 l 0,-18.016 24.019,0 0,-19.523 -24.019,0 0,-100.598 -24.016,0 z m -45.051,144.141 -24.019,0 0,24.019 24.019,0 0,-24.019 z m 0,-144.141 -24.019,0 0,120.121 24.019,0 0,-120.121 z m -132.101,72.086 51.023,0 c 0,14.07 -11.426,25.527 -25.527,25.527 -14.074,0 -25.496,-11.457 -25.496,-25.527 z m 75.07,-21.031 -75.07,0 0,-2.989 c 0,-10.468 6.344,-19.832 16.043,-23.711 3.972,-1.601 8.191,-2.402 12.468,-2.402 9.793,0 19.126,4.281 25.497,11.734 l 18.23,-15.675 c -10.93,-12.746 -26.914,-20.079 -43.727,-20.079 -7.328,0 -14.593,1.391 -21.398,4.098 -18.816,7.543 -31.133,25.742 -31.133,46.035 l 0,24.02 c 0,27.344 22.172,49.543 49.516,49.543 27.375,0 49.574,-22.199 49.574,-49.543 l 0,-21.031 z m -192.207,-51.055 0,120.121 24.047,0 0,-13.547 c 7.699,9.512 19.277,15.055 31.504,15.055 9.297,0 18.32,-3.199 25.558,-9.051 l -17.089,-21.062 c -4.375,3.91 -10.071,6.097 -15.954,6.097 -13.269,0 -24.019,-10.777 -24.019,-24.051 l 0,-73.562 -24.047,0 z m -33.012,0 -15.027,0 c -14.902,0 -27.004,12.101 -27.004,27.035 l 0,73.563 -12.008,0 0,19.523 12.008,0 0,36.027 24.02,0 0,-36.027 18.011,0 0,-19.523 -18.011,0 0,-70.575 c 0,-4.129 3.355,-7.484 7.511,-7.484 l 10.5,0 0,-22.539 z m -177.148,19.246 16.934,17.027 c 9.453,-9.422 22.265,-14.687 35.597,-14.687 6.067,0 12.07,1.078 17.735,3.199 4.683,1.754 7.792,6.254 7.792,11.273 0,6.313 -4.925,11.579 -11.269,11.977 l -25.496,1.57 c -19,1.203 -33.781,16.938 -33.781,35.969 0,16.656 11.425,31.16 27.621,35.043 5.695,1.383 11.547,2.063 17.398,2.063 16.906,0 33.348,-5.727 46.559,-16.289 l -14.996,-18.786 c -8.961,7.176 -20.11,11.055 -31.563,11.055 -3.973,0 -7.945,-0.461 -11.793,-1.383 -5.422,-1.293 -9.207,-6.129 -9.207,-11.703 0,-6.344 4.926,-11.578 11.238,-11.976 l 25.528,-1.602 c 19,-1.172 33.781,-16.938 33.781,-35.934 0,-15.027 -9.301,-28.484 -23.375,-33.75 -8.375,-3.14 -17.242,-4.742 -26.172,-4.742 -19.676,0 -38.582,7.789 -52.531,21.676 z m -123.113,-19.246 0,120.121 24.019,0 0,-13.547 c 7.699,9.512 19.278,15.055 31.531,15.055 22.387,0 40.524,-18.168 40.524,-40.551 l 0,-81.078 -24.016,0 0,73.562 c 0,13.274 -10.75,24.051 -24.019,24.051 -13.274,0 -24.02,-10.777 -24.02,-24.051 l 0,-73.562 -24.019,0 z m -108.114,72.086 51.055,0 c 0,14.07 -11.422,25.527 -25.527,25.527 -14.071,0 -25.528,-11.457 -25.528,-25.527 z m 75.075,-21.031 -75.075,0 0,-2.989 c 0,-10.468 6.375,-19.832 16.043,-23.711 3.973,-1.601 8.223,-2.402 12.504,-2.402 9.793,0 19.121,4.281 25.496,11.734 l 18.231,-15.675 c -10.965,-12.746 -26.914,-20.079 -43.727,-20.079 -7.359,0 -14.597,1.391 -21.402,4.098 -18.813,7.543 -31.164,25.742 -31.164,46.035 l 0,24.02 c 0,27.344 22.203,49.543 49.547,49.543 27.375,0 49.547,-22.199 49.547,-49.543 l 0,-21.031 z m -126.098,-51.055 -15.027,0 c -14.934,0 -27.036,12.101 -27.036,27.035 l 0,73.563 -12.007,0 0,19.523 12.007,0 0,36.027 24.051,0 0,-36.027 18.012,0 0,-19.523 -18.012,0 0,-70.575 c 0,-4.129 3.356,-7.484 7.481,-7.484 l 10.531,0 0,-22.539 z m -87.082,144.141 -24.02,0 0,24.019 24.02,0 0,-24.019 z m 0,-144.141 -24.02,0 0,120.121 24.02,0 0,-120.121 z m -132.133,72.086 51.055,0 c 0,14.07 -11.422,25.527 -25.528,25.527 -14.07,0 -25.527,-11.457 -25.527,-25.527 z m 75.074,-21.031 -75.074,0 0,-2.989 c 0,-10.468 6.375,-19.832 16.043,-23.711 3.973,-1.601 8.223,-2.402 12.504,-2.402 9.789,0 19.121,4.281 25.496,11.734 l 18.23,-15.675 c -10.964,-12.746 -26.914,-20.079 -43.726,-20.079 -7.359,0 -14.598,1.391 -21.434,4.098 -18.781,7.543 -31.132,25.742 -31.132,46.035 l 0,24.02 c 0,27.344 22.203,49.543 49.546,49.543 27.375,0 49.547,-22.199 49.547,-49.543 l 0,-21.031 z m -249.207,-29.411 16.473,19.461 c 13.027,-10.992 29.531,-17.058 46.559,-17.058 5.914,0 11.765,0.738 17.492,2.156 10.008,2.496 17.058,11.516 17.058,21.863 0,11.27 -8.375,20.817 -19.582,22.325 l -27.254,3.601 c -23.894,3.172 -41.754,23.527 -41.754,47.637 0,24.297 18.137,44.742 42.278,47.668 3.91,0.492 7.82,0.707 11.762,0.707 19.863,0 39.23,-6.004 55.55,-17.274 l -14.472,-21 c -12.071,8.313 -26.387,12.778 -41.078,12.778 -2.895,0 -5.821,-0.196 -8.684,-0.524 -11.332,-1.386 -19.828,-10.965 -19.828,-22.355 0,-11.301 8.375,-20.848 19.582,-22.324 l 27.254,-3.637 c 23.894,-3.172 41.754,-23.524 41.754,-47.606 0,-22.078 -14.996,-41.293 -36.399,-46.617 -7.726,-1.941 -15.703,-2.926 -23.679,-2.926 -23.094,0 -45.418,8.192 -63.032,23.125" /><path
         id="path16736"
         style="fill:#000000;fill-opacity:1;fill-rule:nonzero;stroke:none"
         d="m 1261.125,116.759 0,120.094 24.016,0 0,-13.547 c 7.699,9.512 19.277,15.055 31.535,15.055 22.383,0 40.523,-18.168 40.523,-40.555 l 0,-81.047 -24.019,0 0,73.536 c 0,13.273 -10.746,24.05 -24.02,24.05 -13.269,0 -24.019,-10.777 -24.019,-24.05 l 0,-73.536 -24.016,0 z m -108.086,72.059 51.023,0 c 0,14.07 -11.421,25.527 -25.527,25.527 -14.07,0 -25.496,-11.457 -25.496,-25.527 z m 75.043,-21.035 -75.043,0 0,-2.985 c 0,-10.437 6.344,-19.832 16.043,-23.71 3.941,-1.571 8.191,-2.403 12.473,-2.403 9.793,0 19.121,4.281 25.496,11.703 l 18.23,-15.613 c -10.961,-12.781 -26.914,-20.109 -43.726,-20.109 -7.328,0 -14.598,1.386 -21.403,4.129 -18.812,7.511 -31.129,25.71 -31.129,46.003 l 0,24.02 c 0,27.344 22.168,49.543 49.512,49.543 27.375,0 49.547,-22.199 49.547,-49.543 l 0,-21.035 z m -192.176,-51.024 0,120.094 24.047,0 0,-13.547 c 7.699,9.512 19.277,15.055 31.5,15.055 9.301,0 18.324,-3.203 25.527,-9.051 l -17.058,-21.062 c -4.402,3.91 -10.07,6.097 -15.949,6.097 -13.274,0 -24.02,-10.777 -24.02,-24.05 l 0,-73.536 -24.047,0 z m -132.101,0 0,168.129 24.015,0 0,-61.582 c 7.7,9.512 19.278,15.055 31.532,15.055 22.386,0 40.523,-18.168 40.523,-40.555 l 0,-81.047 -24.016,0 0,73.536 c 0,13.273 -10.746,24.05 -24.019,24.05 -13.274,0 -24.02,-10.777 -24.02,-24.05 l 0,-73.536 -24.015,0 z m -60.047,52.536 -34.551,0 c -8.285,0 -14.996,-6.715 -14.996,-15.028 0,-8.285 6.711,-14.996 14.996,-14.996 l 19.523,0 c 8.282,0 15.028,6.711 15.028,14.996 l 0,15.028 z m 24.015,-52.536 -24.015,0 0,12.379 c -4.25,-7.668 -12.289,-12.379 -21.031,-12.379 l -14.997,0 c -19.925,0 -36.058,16.106 -36.058,36.028 0,19.894 16.133,36.031 36.058,36.031 l 36.028,0 0,12.008 c 0,6.558 -4.711,12.164 -11.18,13.301 -4.25,0.742 -8.558,1.109 -12.84,1.109 -4.312,0 -8.621,-0.367 -12.84,-1.109 -4.25,-0.739 -7.882,-3.45 -9.793,-7.297 l -18.968,14.996 c 5.695,8.437 14.566,14.195 24.605,15.98 5.602,0.953 11.301,1.449 16.996,1.449 5.664,0 11.364,-0.492 16.969,-1.449 17.949,-3.172 31.066,-18.75 31.066,-36.98 l 0,-84.067 z m -162.152,0 0,100.571 -12.012,0 0,19.523 12.012,0 0,18.016 c 0,16.566 13.457,30.019 30.024,30.019 l 18.011,0 0,-22.508 -16.504,0 c -4.125,0 -7.515,-3.355 -7.515,-7.511 l 0,-18.016 24.019,0 0,-19.523 -24.019,0 0,-100.571 -24.016,0 z m -111.101,72.059 51.054,0 c 0,14.07 -11.426,25.527 -25.527,25.527 -14.106,0 -25.527,-11.457 -25.527,-25.527 z m 75.074,-21.035 -75.074,0 0,-2.985 c 0,-10.437 6.375,-19.832 16.042,-23.71 3.973,-1.571 8.223,-2.403 12.5,-2.403 9.793,0 19.126,4.281 25.497,11.703 l 18.23,-15.613 c -10.961,-12.781 -26.914,-20.109 -43.727,-20.109 -7.359,0 -14.593,1.386 -21.429,4.129 -18.785,7.511 -31.133,25.71 -31.133,46.003 l 0,24.02 c 0,27.344 22.203,49.543 49.547,49.543 27.375,0 49.547,-22.199 49.547,-49.543 l 0,-21.035 z m -201.172,-4.492 c 0,-13.274 10.746,-24.02 24.019,-24.02 13.27,0 24.016,10.746 24.016,24.02 l 0,27.004 c 0,13.273 -10.746,24.05 -24.016,24.05 -13.273,0 -24.019,-10.777 -24.019,-24.05 l 0,-27.004 z m -24.02,-46.532 0,168.129 24.02,0 0,-61.582 c 7.699,9.512 19.277,15.055 31.531,15.055 22.387,0 40.524,-18.168 40.524,-40.555 l 0,-42.031 c 0,-22.387 -18.137,-40.523 -40.524,-40.523 -12.254,0 -23.832,5.511 -31.531,15.058 l 0,-13.551" /><path
         id="path16738"
         style="fill:#000000;fill-opacity:1;fill-rule:nonzero;stroke:none"
         d="m 47.234,641.619 c 0,0 -11.781,-0.055 -23.582,-6.117 C 11.852,629.435 0,617.216 0,593.345 L 0,48.869 C 0,25.013 11.848,12.65 23.645,6.431 35.441,0.216 47.223,0.002 47.223,0.002 l 1705.543,0 c 0,0 12.195,-0.008 24.406,6.101 12.207,6.106 24.469,18.477 24.43,42.766 l -0.911,544.48 c -0.039,23.871 -12.07,36.09 -24.031,42.153 -11.961,6.062 -23.89,6.117 -23.89,6.117 l -1705.536,0 z m 0.004,-0.801 1705.528,0 c 0,0 47.046,-0.258 47.125,-47.473 l 0.91,-544.476 C 1800.879,0.826 1752.766,0.798 1752.766,0.798 l -1705.528,0 c 0,0 -46.437,0.887 -46.437,48.071 l 0,544.476 c 0,47.215 46.437,47.473 46.437,47.473 z" /></g></g></svg>