<?xml version="1.0" encoding="UTF-8" standalone="no"?>
<svg
   xmlns:dc="http://purl.org/dc/elements/1.1/"
   xmlns:cc="http://creativecommons.org/ns#"
   xmlns:rdf="http://www.w3.org/1999/02/22-rdf-syntax-ns#"
   xmlns:svg="http://www.w3.org/2000/svg"
   xmlns="http://www.w3.org/2000/svg"
   viewBox="0 0 2252 802.0235"
   height="802.0235"
   width="2252"
   xml:space="preserve"
   version="1.1"
   id="svg16841"><metadata
     id="metadata16847"><rdf:RDF><cc:Work
         rdf:about=""><dc:format>image/svg+xml</dc:format><dc:type
           rdf:resource="http://purl.org/dc/dcmitype/StillImage" /><dc:title></dc:title></cc:Work></rdf:RDF></metadata><defs
     id="defs16845" /><g
     transform="matrix(1.25,0,0,-1.25,0,802.02347)"
     id="g16849"><g
       id="g16851"><path
         id="path16853"
         style="fill:#ffffff;fill-opacity:1;fill-rule:nonzero;stroke:none"
         d="m 47.238,640.818 c 0,0 -46.437,-0.258 -46.437,-47.469 l 0,-544.48 C 0.801,1.685 47.238,0.798 47.238,0.798 l 1705.528,0 c 0,0 48.113,0.028 48.035,48.071 l -0.91,544.48 c -0.079,47.211 -47.125,47.469 -47.125,47.469 l -1705.528,0 z" /><path
         id="path16855"
         style="fill:#000000;fill-opacity:1;fill-rule:nonzero;stroke:none"
         d="m 50.438,624.736 c -35.211,0 -33.633,-34.59 -33.633,-34.59 l 0,-538.078 c 0,0 -0.469,-35.184 33.633,-35.184 l 1699.124,0 c 0,0 35.157,-0.632 35.157,35.184 l 0,538.078 c 0,0 0.656,34.59 -35.157,34.59 l -1699.124,0 z m 0,-24.016 1699.124,0 c 0,0 11.137,0.477 11.137,-10.574 l 0,-538.078 c 0,0 0.164,-11.09 -11.137,-11.09 l -1699.124,0 c -10.45,0 -9.54,11.09 -9.54,11.09 l 0,538.078 c 0,0 -0.05,10.574 9.54,10.574 z" /><path
         id="path16857"
         style="fill:#000000;fill-opacity:1;fill-rule:nonzero;stroke:none"
         d="m 47.234,641.619 c 0,0 -11.781,-0.055 -23.582,-6.117 C 11.852,629.435 0,617.216 0,593.345 L 0,48.869 C 0,25.013 11.848,12.65 23.645,6.431 35.441,0.216 47.223,0.002 47.223,0.002 l 1705.543,0 c 0,0 12.195,-0.008 24.406,6.101 12.207,6.106 24.469,18.477 24.43,42.766 l -0.911,544.48 c -0.039,23.871 -12.07,36.09 -24.031,42.153 -11.961,6.062 -23.89,6.117 -23.89,6.117 l -1705.536,0 z m 0.004,-0.801 1705.528,0 c 0,0 47.046,-0.258 47.125,-47.473 l 0.91,-544.476 C 1800.879,0.826 1752.766,0.798 1752.766,0.798 l -1705.528,0 c 0,0 -46.437,0.887 -46.437,48.071 l 0,544.476 c 0,47.215 46.437,47.473 46.437,47.473 z" /><path
         id="path16859"
         style="fill:#000000;fill-opacity:1;fill-rule:nonzero;stroke:none"
         d="m 1543.371,356.927 0,120.125 24.02,0 0,-13.55 c 7.695,9.515 19.273,15.058 31.531,15.058 22.387,0 40.523,-18.168 40.523,-40.555 l 0,-81.078 -24.019,0 0,73.567 c 0,13.269 -10.746,24.051 -24.02,24.051 -13.269,0 -24.015,-10.782 -24.015,-24.051 l 0,-73.567 -24.02,0 z m -108.082,72.09 51.023,0 c 0,14.071 -11.425,25.528 -25.527,25.528 -14.074,0 -25.496,-11.457 -25.496,-25.528 z m 75.07,-21.035 -75.07,0 0,-2.984 c 0,-10.469 6.344,-19.832 16.039,-23.711 3.977,-1.602 8.192,-2.403 12.473,-2.403 9.793,0 19.121,4.282 25.496,11.704 l 18.23,-15.645 c -10.933,-12.75 -26.914,-20.078 -43.726,-20.078 -7.328,0 -14.594,1.387 -21.403,4.098 -18.812,7.542 -31.128,25.742 -31.128,46.035 l 0,24.019 c 0,27.344 22.171,49.543 49.515,49.543 27.375,0 49.574,-22.199 49.574,-49.543 l 0,-21.035 z m -168.16,-51.055 0,100.602 -12.008,0 0,19.523 12.008,0 0,18.016 c 0,16.566 13.426,30.02 30.024,30.02 l 18.015,0 0,-22.508 -16.508,0 c -4.156,0 -7.511,-3.356 -7.511,-7.512 l 0,-18.016 24.019,0 0,-19.523 -24.019,0 0,-100.602 -24.02,0 z m -45.047,144.145 -24.019,0 0,24.016 24.019,0 0,-24.016 z m 0,-144.145 -24.019,0 0,120.125 24.019,0 0,-120.125 z m -132.101,72.09 51.019,0 c 0,14.071 -11.422,25.528 -25.523,25.528 -14.074,0 -25.496,-11.457 -25.496,-25.528 z m 75.07,-21.035 -75.07,0 0,-2.984 c 0,-10.469 6.344,-19.832 16.039,-23.711 3.976,-1.602 8.191,-2.403 12.472,-2.403 9.793,0 19.122,4.282 25.497,11.704 l 18.23,-15.645 c -10.934,-12.75 -26.914,-20.078 -43.727,-20.078 -7.328,0 -14.593,1.387 -21.402,4.098 -18.812,7.542 -31.129,25.742 -31.129,46.035 l 0,24.019 c 0,27.344 22.172,49.543 49.516,49.543 27.371,0 49.574,-22.199 49.574,-49.543 l 0,-21.035 z m -192.207,-51.055 0,120.125 24.047,0 0,-13.55 c 7.699,9.515 19.277,15.058 31.504,15.058 9.297,0 18.32,-3.203 25.558,-9.051 l -17.093,-21.062 c -4.371,3.91 -10.067,6.098 -15.95,6.098 -13.269,0 -24.019,-10.782 -24.019,-24.051 l 0,-73.567 -24.047,0 z m -33.012,0 -15.027,0 c -14.902,0 -27.004,12.102 -27.004,27.039 l 0,73.563 -12.012,0 0,19.523 12.012,0 0,36.028 24.016,0 0,-36.028 18.015,0 0,-19.523 -18.015,0 0,-70.547 c 0,-4.156 3.359,-7.512 7.515,-7.512 l 10.5,0 0,-22.543 z m -177.152,19.246 16.938,17.032 c 9.453,-9.426 22.265,-14.692 35.597,-14.692 6.067,0 12.07,1.078 17.735,3.203 4.679,1.786 7.792,6.25 7.792,11.27 0,6.312 -4.925,11.578 -11.269,11.98 l -25.496,1.571 c -19.004,1.199 -33.781,16.965 -33.781,35.965 0,16.66 11.425,31.164 27.621,35.043 5.695,1.386 11.547,2.062 17.398,2.062 16.906,0 33.348,-5.727 46.559,-16.289 l -14.996,-18.781 c -8.961,7.172 -20.11,11.054 -31.563,11.054 -3.973,0 -7.945,-0.464 -11.793,-1.39 -5.422,-1.293 -9.211,-6.125 -9.211,-11.699 0,-6.313 4.93,-11.579 11.242,-11.981 l 25.528,-1.598 c 19,-1.171 33.781,-16.937 33.781,-35.937 0,-15.027 -9.301,-28.484 -23.375,-33.75 -8.375,-3.141 -17.242,-4.742 -26.172,-4.742 -19.676,0 -38.586,7.793 -52.535,21.679 z m -123.109,-19.246 0,120.125 24.019,0 0,-13.55 c 7.695,9.515 19.274,15.058 31.531,15.058 22.387,0 40.524,-18.168 40.524,-40.555 l 0,-81.078 -24.02,0 0,73.567 c 0,13.269 -10.746,24.051 -24.019,24.051 -13.27,0 -24.016,-10.782 -24.016,-24.051 l 0,-73.567 -24.019,0 z m -108.114,72.09 51.055,0 c 0,14.071 -11.426,25.528 -25.527,25.528 -14.071,0 -25.528,-11.457 -25.528,-25.528 z m 75.075,-21.035 -75.075,0 0,-2.984 c 0,-10.469 6.375,-19.832 16.043,-23.711 3.973,-1.602 8.223,-2.403 12.5,-2.403 9.793,0 19.125,4.282 25.496,11.704 l 18.231,-15.645 c -10.961,-12.75 -26.914,-20.078 -43.727,-20.078 -7.355,0 -14.593,1.387 -21.398,4.098 -18.817,7.542 -31.164,25.742 -31.164,46.035 l 0,24.019 c 0,27.344 22.203,49.543 49.547,49.543 27.375,0 49.547,-22.199 49.547,-49.543 l 0,-21.035 z m -126.098,-51.055 -15.027,0 c -14.934,0 -27.036,12.102 -27.036,27.039 l 0,73.563 -12.011,0 0,19.523 12.011,0 0,36.028 24.051,0 0,-36.028 18.012,0 0,-19.523 -18.012,0 0,-70.547 c 0,-4.156 3.352,-7.512 7.481,-7.512 l 10.531,0 0,-22.543 z m -87.082,144.145 -24.02,0 0,24.016 24.02,0 0,-24.016 z m 0,-144.145 -24.02,0 0,120.125 24.02,0 0,-120.125 z m -132.133,72.09 51.055,0 c 0,14.071 -11.426,25.528 -25.528,25.528 -14.07,0 -25.527,-11.457 -25.527,-25.528 z m 75.074,-21.035 -75.074,0 0,-2.984 c 0,-10.469 6.375,-19.832 16.043,-23.711 3.973,-1.602 8.223,-2.403 12.5,-2.403 9.793,0 19.125,4.282 25.496,11.704 l 18.231,-15.645 c -10.961,-12.75 -26.914,-20.078 -43.727,-20.078 -7.355,0 -14.594,1.387 -21.43,4.098 -18.785,7.542 -31.132,25.742 -31.132,46.035 l 0,24.019 c 0,27.344 22.203,49.543 49.546,49.543 27.375,0 49.547,-22.199 49.547,-49.543 l 0,-21.035 z m -249.207,-29.406 16.473,19.461 c 13.023,-10.992 29.531,-17.059 46.559,-17.059 5.914,0 11.765,0.738 17.492,2.156 10.008,2.493 17.058,11.516 17.058,21.864 0,11.269 -8.375,20.816 -19.586,22.293 l -27.25,3.632 c -23.894,3.172 -41.757,23.528 -41.757,47.637 0,24.297 18.14,44.742 42.281,47.668 3.91,0.492 7.82,0.738 11.762,0.738 19.863,0 39.23,-6.035 55.55,-17.304 l -14.472,-21 c -12.071,8.312 -26.391,12.777 -41.078,12.777 -2.895,0 -5.821,-0.172 -8.684,-0.555 -11.332,-1.351 -19.828,-10.929 -19.828,-22.324 0,-11.301 8.375,-20.847 19.582,-22.324 l 27.25,-3.633 c 23.898,-3.172 41.758,-23.527 41.758,-47.605 0,-22.078 -14.996,-41.262 -36.399,-46.621 -7.726,-1.942 -15.703,-2.926 -23.679,-2.926 -23.094,0 -45.418,8.191 -63.032,23.125" /><path
         id="path16861"
         style="fill:#000000;fill-opacity:1;fill-rule:nonzero;stroke:none"
         d="m 1196.672,116.744 0,120.094 24.019,0 0,-13.551 c 7.7,9.515 19.309,15.058 31.532,15.058 22.386,0 40.554,-18.168 40.554,-40.554 l 0,-81.047 -24.015,0 0,73.566 c 0,13.238 -10.778,24.016 -24.02,24.016 -13.273,0 -24.051,-10.778 -24.051,-24.016 l 0,-73.566 -24.019,0 z m -108.082,72.054 51.055,0 c 0,14.075 -11.422,25.528 -25.528,25.528 -14.101,0 -25.527,-11.453 -25.527,-25.528 z m 75.074,-21.031 -75.074,0 0,-2.984 c 0,-10.442 6.344,-19.832 16.043,-23.711 3.972,-1.602 8.191,-2.402 12.472,-2.402 9.825,0 19.122,4.281 25.528,11.699 l 18.23,-15.61 c -10.965,-12.781 -26.945,-20.109 -43.758,-20.109 -7.332,0 -14.597,1.387 -21.402,4.125 -18.816,7.516 -31.133,25.746 -31.133,46.008 l 0,24.015 c 0,27.344 22.172,49.547 49.547,49.547 27.344,0 49.547,-22.203 49.547,-49.547 l 0,-21.031 z m -300.262,-51.023 0,120.094 24.02,0 0,-13.551 c 7.695,9.515 19.273,15.058 31.5,15.058 12.933,0 25.062,-6.16 32.699,-16.566 8.563,10.469 21.371,16.566 34.859,16.566 24.879,0 45.051,-20.168 45.051,-45.05 l 0,-76.551 -24.019,0 0,73.566 c 0,13.238 -10.746,24.016 -24.016,24.016 -13.273,0 -24.019,-10.778 -24.019,-24.016 l 0,-73.566 -24.02,0 0,73.566 c 0,13.238 -10.777,24.016 -24.019,24.016 -13.27,0 -24.016,-10.778 -24.016,-24.016 l 0,-73.566 -24.02,0 z m -36.058,0 -24.02,0 0,13.551 c -7.699,-9.547 -19.277,-15.059 -31.531,-15.059 -22.387,0 -40.523,18.137 -40.523,40.523 l 0,81.079 24.019,0 0,-73.567 c 0,-13.269 10.746,-24.016 24.016,-24.016 13.273,0 24.019,10.747 24.019,24.016 l 0,73.567 24.02,0 0,-120.094 z m -141.125,144.113 -24.016,0 0,24.016 24.016,0 0,-24.016 z m -48.035,0 -24.02,0 0,24.016 24.02,0 0,-24.016 z m 36.027,-91.578 -34.52,0 c -8.281,0 -15.027,-6.715 -15.027,-15.027 0,-8.286 6.746,-14.997 15.027,-14.997 l 19.524,0 c 8.281,0 14.996,6.711 14.996,14.997 l 0,15.027 z m 24.019,-52.535 -24.019,0 0,12.379 c -4.219,-7.637 -12.254,-12.379 -21,-12.379 l -15.027,0 c -19.895,0 -36.028,16.105 -36.028,36.027 0,19.895 16.133,36.027 36.028,36.027 l 36.027,0 0,12.012 c 0,6.559 -4.711,12.164 -11.18,13.301 -4.25,0.738 -8.527,1.109 -12.84,1.109 -4.281,0 -8.589,-0.371 -12.808,-1.109 -4.25,-0.738 -7.883,-3.449 -9.793,-7.297 l -19,14.996 c 5.699,8.438 14.598,14.195 24.633,15.949 5.605,0.989 11.273,1.481 16.968,1.481 5.696,0 11.364,-0.492 17,-1.481 17.95,-3.14 31.039,-18.722 31.039,-36.949 l 0,-84.066 z m -189.164,0 0,120.094 24.02,0 0,-13.551 c 7.699,9.515 19.309,15.058 31.531,15.058 9.301,0 18.293,-3.203 25.528,-9.054 l -17.059,-21.059 c -4.402,3.91 -10.07,6.094 -15.981,6.094 -13.273,0 -24.019,-10.778 -24.019,-24.016 l 0,-73.566" /></g></g></svg>