<?xml version="1.0" encoding="UTF-8" standalone="no"?>
<svg
   xmlns:dc="http://purl.org/dc/elements/1.1/"
   xmlns:cc="http://creativecommons.org/ns#"
   xmlns:rdf="http://www.w3.org/1999/02/22-rdf-syntax-ns#"
   xmlns:svg="http://www.w3.org/2000/svg"
   xmlns="http://www.w3.org/2000/svg"
   viewBox="0 0 601.63623 330.57626"
   height="330.57626"
   width="601.63623"
   xml:space="preserve"
   version="1.1"
   id="svg6285"><metadata
     id="metadata6291"><rdf:RDF><cc:Work
         rdf:about=""><dc:format>image/svg+xml</dc:format><dc:type
           rdf:resource="http://purl.org/dc/dcmitype/StillImage" /><dc:title></dc:title></cc:Work></rdf:RDF></metadata><defs
     id="defs6289" /><g
     transform="matrix(1.25,0,0,-1.25,0,330.57625)"
     id="g6293"><g
       id="g6295"><path
         id="path6297"
         style="fill:#ffffff;fill-opacity:1;fill-rule:nonzero;stroke:none"
         d="m 32.055,264.063 c -17.457,0 -31.657,-14.161 -31.657,-31.555 l 0,-200.809 c 0,-17.39 14.2,-31.535 31.657,-31.535 l 417.207,0 c 17.457,0 31.648,14.145 31.648,31.535 l 0,200.809 c 0,17.394 -14.191,31.555 -31.648,31.555 l -417.207,0 z" /><path
         id="path6299"
         style="fill:#000000;fill-opacity:1;fill-rule:nonzero;stroke:none"
         d="m 32.043,19.668 417.207,0 c 6.605,0 11.961,5.336 11.961,11.918 l 0,201.039 c 0,6.582 -5.356,11.918 -11.961,11.918 l -417.207,0 c -6.613,0 -11.965,-5.336 -11.965,-11.918 l 0,-201.039 c 0,-6.582 5.352,-11.918 11.965,-11.918 z M 32.609,8.316 c -13.214,0 -23.918,10.668 -23.918,23.84 l 0,199.895 c 0,13.168 10.704,23.836 23.918,23.836 l 416.184,0 c 13.215,0 23.922,-10.668 23.922,-23.836 l 0,-199.895 c 0,-13.172 -10.707,-23.84 -23.922,-23.84" /><path
         id="path6301"
         style="fill:#000000;fill-opacity:1;fill-rule:nonzero;stroke:none"
         d="M 32.055,264.461 C 14.379,264.461 0,250.121 0,232.508 L 0,31.938 C 0,14.328 14.379,0 32.055,0 l 417.207,0 c 17.672,0 32.047,14.328 32.047,31.938 l 0,200.57 c 0,17.613 -14.371,31.953 -32.047,31.953 l -417.207,0 z m 0,-0.398 417.207,0 c 17.457,0 31.648,-14.161 31.648,-31.555 l 0,-200.57 c 0,-17.391 -14.191,-31.536 -31.648,-31.536 l -417.207,0 C 14.598,0.402 0.398,14.547 0.398,31.938 l 0,200.57 c 0,17.394 14.2,31.555 31.657,31.555 z" /><path
         id="path6303"
         style="fill:#000000;fill-opacity:1;fill-rule:nonzero;stroke:none"
         d="m 144.609,177.82 36.297,13.219 -3.215,8.824 2.645,0.973 3.215,-8.832 6.187,2.25 1.282,-3.531 -6.176,-2.254 3.215,-8.832 -2.657,-0.965 -3.214,8.836 -35.231,-12.828 c -0.645,1.14 -1.43,2.207 -2.348,3.14 z m -23.695,-21.562 -26.641,4.691 11.153,-19.312 c 1.812,-3.149 0.738,-7.168 -2.414,-8.985 -1.328,-0.773 -2.899,-1.054 -4.43,-0.785 l -35.176,6.207 c -3.066,0.535 -5.113,3.461 -4.57,6.535 0.543,3.067 3.457,5.114 6.535,4.571 l 22.824,-4.028 -3.879,6.731 -7.644,-2.785 -7.402,1.308 13.14,4.778 -8.121,14.066 c -3.629,6.293 -1.48,14.34 4.813,17.977 2.683,1.543 5.824,2.101 8.871,1.558 l 46.945,-8.269 -14.004,-24.258 z M 226.637,117.426 56.199,55.395 C 50.395,53.281 43.953,53.871 38.637,57.004 l 8.14,2.961 c 2.524,-0.391 5.094,-0.149 7.489,0.73 l 96.879,35.262 -36.063,30.258 c -2.797,2.344 -3.508,6.355 -1.684,9.516 l 25.313,43.832 c 6.75,-2.704 10.031,-10.36 7.34,-17.11 -0.235,-0.578 -0.516,-1.148 -0.832,-1.691 l -16.594,-28.742 30.793,-25.84 c 1.867,-1.559 2.719,-4.028 2.203,-6.41 l 63.078,22.957 1.938,-5.301 z M 72.473,189.508 c 0,-7.797 -6.309,-14.106 -14.094,-14.106 -7.789,0 -14.106,6.309 -14.106,14.106 0,7.785 6.317,14.094 14.106,14.094 7.785,0 14.094,-6.309 14.094,-14.094" /><path
         id="path6305"
         style="fill:#000000;fill-opacity:1;fill-rule:nonzero;stroke:none"
         d="m 240.637,93.559 0,47.199 -5.645,0 0,8.598 5.645,0 0,7.363 c 0,5.191 1.433,9.023 4.304,11.48 2.868,2.449 6.493,3.676 10.868,3.676 l 7.253,0 0,-10.535 -6.347,0 c -3.262,0 -4.891,-1.539 -4.891,-4.621 l 0,-7.363 11.238,0 0,-8.598 -11.238,0 0,-47.199 -11.187,0 z m 34.847,0 0,55.797 11.243,0 0,-5.969 0.218,0 c 3.477,4.41 8.313,6.613 14.516,6.613 4.09,0 7.98,-1.434 11.668,-4.301 l -8.113,-9.672 c -2.442,1.825 -4.914,2.739 -7.422,2.739 -2.766,0 -5.266,-0.922 -7.508,-2.77 -2.234,-1.844 -3.359,-4.808 -3.359,-8.894 l 0,-33.543 -11.243,0 z m 89.09,23.652 -34.738,0 c 0,-4.586 1.242,-8.027 3.738,-10.316 2.485,-2.297 5.672,-3.442 9.539,-3.442 4.625,0 8.715,1.785 12.27,5.375 l 8.113,-6.937 c -2.758,-3.227 -5.871,-5.524 -9.332,-6.907 -3.461,-1.382 -7.07,-2.07 -10.832,-2.07 -5.734,0 -11.297,1.856 -16.668,5.567 -5.379,3.71 -8.066,11.296 -8.066,22.765 0,10.852 2.476,18.363 7.445,22.52 4.969,4.156 10.148,6.234 15.566,6.234 6.129,0 11.493,-2.121 16.079,-6.371 4.585,-4.242 6.886,-9.969 6.886,-17.172 l 0,-9.246 z m -34.738,9.246 23.555,0 c -0.18,4.191 -1.368,7.399 -3.551,9.625 -2.188,2.215 -4.93,3.328 -8.231,3.328 -3.332,0 -6.101,-1.113 -8.308,-3.328 -2.203,-2.226 -3.36,-5.434 -3.465,-9.625 z m 49.934,-32.898 0,55.797 11.238,0 0,-55.797 -11.238,0 z m 0,67.082 0,11.234 11.238,0 0,-11.234 -11.238,0 z" /></g></g></svg>