<?xml version="1.0" encoding="UTF-8" standalone="no"?>
<!-- Created with Inkscape (http://www.inkscape.org/) -->

<svg
   xmlns:dc="http://purl.org/dc/elements/1.1/"
   xmlns:cc="http://creativecommons.org/ns#"
   xmlns:rdf="http://www.w3.org/1999/02/22-rdf-syntax-ns#"
   xmlns:svg="http://www.w3.org/2000/svg"
   xmlns="http://www.w3.org/2000/svg"
   xmlns:sodipodi="http://sodipodi.sourceforge.net/DTD/sodipodi-0.dtd"
   xmlns:inkscape="http://www.inkscape.org/namespaces/inkscape"
   width="159.18292mm"
   height="87.464966mm"
   viewBox="0 0 159.18292 87.464966"
   version="1.1"
   id="svg3772"
   inkscape:version="0.92.4 (33fec40, 2019-01-16)"
   sodipodi:docname="1020-32.svg">
  <defs
     id="defs3766" />
  <sodipodi:namedview
     id="base"
     pagecolor="#ffffff"
     bordercolor="#666666"
     borderopacity="1.0"
     inkscape:pageopacity="0.0"
     inkscape:pageshadow="2"
     inkscape:zoom="0.7"
     inkscape:cx="488.91158"
     inkscape:cy="169.68009"
     inkscape:document-units="mm"
     inkscape:current-layer="layer1"
     showgrid="false"
     fit-margin-top="0"
     fit-margin-left="0"
     fit-margin-right="0"
     fit-margin-bottom="0"
     inkscape:window-width="1366"
     inkscape:window-height="740"
     inkscape:window-x="1920"
     inkscape:window-y="0"
     inkscape:window-maximized="1" />
  <metadata
     id="metadata3769">
    <rdf:RDF>
      <cc:Work
         rdf:about="">
        <dc:format>image/svg+xml</dc:format>
        <dc:type
           rdf:resource="http://purl.org/dc/dcmitype/StillImage" />
        <dc:title></dc:title>
      </cc:Work>
    </rdf:RDF>
  </metadata>
  <g
     inkscape:label="Layer 1"
     inkscape:groupmode="layer"
     id="layer1"
     transform="translate(40.281939,-62.767513)">
    <path
       d="m -29.680415,62.899143 c -5.77354,0 -10.469894,4.683456 -10.469894,10.436159 V 139.7487 c 0,5.75138 4.696354,10.42954 10.469894,10.42954 H 108.30211 c 5.77354,0 10.46692,-4.67816 10.46692,-10.42954 V 73.335302 c 0,-5.752703 -4.69338,-10.436159 -10.46692,-10.436159 z"
       style="fill:#ffffff;fill-opacity:1;fill-rule:nonzero;stroke:none;stroke-width:0.33072916"
       id="path4224"
       inkscape:connector-curvature="0" />
    <path
       d="M -29.684384,143.7277 H 108.29814 c 2.18447,0 3.95585,-1.76477 3.95585,-3.94163 V 73.296607 c 0,-2.17686 -1.77138,-3.94163 -3.95585,-3.94163 H -29.684384 c -2.187112,0 -3.957175,1.76477 -3.957175,3.94163 v 66.489463 c 0,2.17686 1.770063,3.94163 3.957175,3.94163 z m 0.187193,3.75444 c -4.370256,0 -7.910381,-3.52822 -7.910381,-7.88459 V 73.486445 c 0,-4.355041 3.540125,-7.88326 7.910381,-7.88326 H 108.147 c 4.37058,0 7.9117,3.528219 7.9117,7.88326 v 66.111105 c 0,4.35637 -3.54112,7.88459 -7.9117,7.88459"
       style="fill:#000000;fill-opacity:1;fill-rule:nonzero;stroke:none;stroke-width:0.33072916"
       id="path4226"
       inkscape:connector-curvature="0" />
    <path
       d="m -29.680415,62.767513 c -5.845969,0 -10.601524,4.742656 -10.601524,10.567789 v 66.334348 c 0,5.82414 4.755555,10.56283 10.601524,10.56283 H 108.30211 c 5.84465,0 10.59888,-4.73869 10.59888,-10.56283 V 73.335302 c 0,-5.825133 -4.75291,-10.567789 -10.59888,-10.567789 z m 0,0.13163 H 108.30211 c 5.77354,0 10.46692,4.683456 10.46692,10.436159 v 66.334348 c 0,5.75171 -4.69338,10.42988 -10.46692,10.42988 H -29.680415 c -5.77354,0 -10.469894,-4.67817 -10.469894,-10.42988 V 73.335302 c 0,-5.752703 4.696354,-10.436159 10.469894,-10.436159 z"
       style="fill:#000000;fill-opacity:1;fill-rule:nonzero;stroke:none;stroke-width:0.33072916"
       id="path4228"
       inkscape:connector-curvature="0" />
    <path
       d="m 57.882447,119.05993 h -2.654763 v -2.65211 h 2.654763 z m 0,15.91767 h -2.654763 v -13.26522 h 2.654763 z m -14.593093,-7.95834 h 5.636286 c 0,-1.55674 -1.262062,-2.8188 -2.817482,-2.8188 -1.556742,0 -2.818804,1.26206 -2.818804,2.8188 z m 8.292703,2.32172 h -8.292703 v 0.33337 c 0,1.14962 0.703791,2.18712 1.769731,2.61607 1.476706,0.59035 3.163756,0.17297 4.197284,-1.03088 l 2.012818,1.73104 c -1.773701,2.06308 -4.664935,2.77514 -7.19336,1.76212 -2.078632,-0.83046 -3.438921,-2.84328 -3.438921,-5.07835 v -2.65509 c 0,-3.02154 2.44938,-5.47125 5.471252,-5.47125 3.021873,0 5.473899,2.44971 5.473899,5.47125 z m -21.226198,5.63662 v -13.26522 h 2.652448 v 1.49721 c 1.556742,-1.92253 4.374224,-2.21952 6.298075,-0.66675 l 0.0023,0.003 -1.882179,2.32535 c -1.096698,-0.97267 -2.772503,-0.87444 -3.747823,0.21729 -0.431602,0.48551 -0.671711,1.11357 -0.671711,1.76709 v 8.12238 z m -8.288735,0 v -11.10787 h -1.328208 v -2.15735 h 1.328208 v -1.98834 c 0,-1.83191 1.48299,-3.31622 3.316222,-3.31622 h 1.98702 v 2.48543 h -1.824302 c -0.457398,0 -0.826823,0.37339 -0.826823,0.83079 v 1.98834 h 2.651125 v 2.15735 h -2.651125 v 11.10787"
       style="fill:#000000;fill-opacity:1;fill-rule:nonzero;stroke:none;stroke-width:0.33072916"
       id="path4232"
       inkscape:connector-curvature="0" />
    <path
       d="M -19.031267,96.404985 V 77.831234 h 7.625953 c 2.7493519,0 4.9764821,2.227131 4.9764821,4.977805 0,1.621235 -0.7904427,3.140604 -2.1226198,4.073261 1.5246615,0.935302 2.453349,2.594239 2.453349,4.382161 0,2.836995 -2.3008829,5.140524 -5.1405233,5.140524 z m 2.818805,-2.652118 h 4.643107 c 1.556742,0 2.8191351,-1.262393 2.8191351,-2.821781 0,-1.556742 -1.2623931,-2.818805 -2.8191351,-2.818805 h -4.643107 z m 0,-8.126346 h 4.476419 c 1.46513,0 2.6524481,-1.189633 2.6524481,-2.654763 0,-1.466453 -1.1873181,-2.652448 -2.6524481,-2.652448 h -4.476419 z m 24.3747396,5.140524 h -8.28906515 v 0.330729 c 0,1.153583 0.70015365,2.187112 1.77006255,2.618713 0.4392083,0.174295 0.9068593,0.264914 1.3784791,0.264914 1.0851225,0 2.1107136,-0.475588 2.8188048,-1.294474 l 2.0128177,1.726076 c -1.2117917,1.407914 -2.9739167,2.220516 -4.8316225,2.220516 -0.8089635,0 -1.6113125,-0.156105 -2.36173696,-0.45343 C -1.4186157,95.349628 -2.7828735,93.335487 -2.7828735,91.097774 v -2.652118 c 0,-3.021872 2.45202605,-5.473898 5.4738985,-5.473898 3.0228646,0 5.4712526,2.452026 5.4712526,5.473898 z M -0.12678755,88.445656 H 5.5098297 c 0,-1.555419 -1.2620625,-2.819135 -2.8188047,-2.819135 -1.55575,0 -2.81781255,1.263716 -2.81781255,2.819135 z M 14.295981,96.404985 10.154259,83.138445 h 2.817813 l 2.48543,9.287537 2.985492,-9.287537 h 1.990989 l 2.983178,9.287537 2.488075,-9.287537 h 2.818805 l -4.147013,13.26654 H 22.25564 L 19.436504,87.117448 16.6177,96.404985 Z m 16.415081,-5.307211 v -2.652118 c 0,-3.021872 2.453349,-5.473898 5.475221,-5.473898 3.021873,0 5.46993,2.452026 5.46993,5.473898 v 2.652118 c 0,3.021872 -2.448057,5.469929 -5.46993,5.469929 -3.021872,0 -5.475221,-2.448057 -5.475221,-5.469929 z m 2.656416,0 c 0,1.555419 1.262063,2.819135 2.818805,2.819135 1.555419,0 2.818805,-1.263716 2.818805,-2.819135 v -2.652118 c 0,-1.555419 -1.263386,-2.819135 -2.818805,-2.819135 -1.556742,0 -2.818805,1.263716 -2.818805,2.819135 z m 11.938331,5.307211 V 77.831234 h 2.652448 v 6.805745 c 0.85262,-1.053041 2.128904,-1.665221 3.481586,-1.665221 2.473854,0 4.480388,2.006203 4.480388,4.476419 v 8.956808 h -2.654763 v -8.126016 c 0,-1.46513 -1.185995,-2.652448 -2.652448,-2.652448 -1.46513,0 -2.654763,1.187318 -2.654763,2.652448 v 8.126016 z m 14.590779,0 v -13.26654 h 2.655094 v 1.498534 c 0.848651,-1.053041 2.130226,-1.665221 3.482909,-1.665221 2.470216,0 4.47245,2.006203 4.47245,4.476419 v 8.956808 h -2.648148 v -8.126016 c 0,-1.46513 -1.189964,-2.652448 -2.655094,-2.652448 -1.466122,0 -2.652117,1.187318 -2.652117,2.652448 v 8.126016 z m 25.205201,-5.63794 h -8.292703 v 0.330729 c 0,1.153583 0.702799,2.187112 1.7737,2.618713 0.439208,0.174295 0.90719,0.264914 1.378479,0.264914 1.084131,0 2.111045,-0.475588 2.815167,-1.294474 l 2.012818,1.726076 c -1.207823,1.407914 -2.969948,2.220516 -4.827985,2.220516 -0.808632,0 -1.610981,-0.156105 -2.365375,-0.45343 -2.074664,-0.830461 -3.438922,-2.844602 -3.438922,-5.082315 v -2.652118 c 0,-3.021872 2.452026,-5.473898 5.473568,-5.473898 3.021873,0 5.471253,2.452026 5.471253,5.473898 z m -8.292703,-2.321389 h 5.636617 c 0,-1.555419 -1.258425,-2.819135 -2.815167,-2.819135 -1.555419,0 -2.82145,1.263716 -2.82145,2.819135 z m 11.938661,7.959329 v -13.26654 h 2.654763 v 1.498534 c 0.848651,-1.053041 2.130227,-1.665221 3.482909,-1.665221 1.027245,0 2.020755,0.355203 2.819136,1.001117 l -1.883834,2.325357 c -0.489479,-0.431271 -1.116211,-0.671711 -1.765763,-0.671711 -1.46513,0 -2.652448,1.187318 -2.652448,2.652448 v 8.126016 h -2.654763"
       style="fill:#000000;fill-opacity:1;fill-rule:evenodd;stroke:none;stroke-width:0.33072916"
       id="path4234"
       inkscape:connector-curvature="0" />
  </g>
</svg>
