<?xml version="1.0" encoding="UTF-8" standalone="no"?>
<!-- Created with Inkscape (http://www.inkscape.org/) -->

<svg
   xmlns:dc="http://purl.org/dc/elements/1.1/"
   xmlns:cc="http://creativecommons.org/ns#"
   xmlns:rdf="http://www.w3.org/1999/02/22-rdf-syntax-ns#"
   xmlns:svg="http://www.w3.org/2000/svg"
   xmlns="http://www.w3.org/2000/svg"
   xmlns:sodipodi="http://sodipodi.sourceforge.net/DTD/sodipodi-0.dtd"
   xmlns:inkscape="http://www.inkscape.org/namespaces/inkscape"
   width="159.18292mm"
   height="87.464966mm"
   viewBox="0 0 159.18292 87.464966"
   version="1.1"
   id="svg3688"
   inkscape:version="0.92.4 (33fec40, 2019-01-16)"
   sodipodi:docname="1020-11.svg">
  <defs
     id="defs3682" />
  <sodipodi:namedview
     id="base"
     pagecolor="#ffffff"
     bordercolor="#666666"
     borderopacity="1.0"
     inkscape:pageopacity="0.0"
     inkscape:pageshadow="2"
     inkscape:zoom="0.7"
     inkscape:cx="415.20101"
     inkscape:cy="70.860571"
     inkscape:document-units="mm"
     inkscape:current-layer="layer1"
     showgrid="false"
     fit-margin-top="0"
     fit-margin-left="0"
     fit-margin-right="0"
     fit-margin-bottom="0"
     inkscape:window-width="1366"
     inkscape:window-height="740"
     inkscape:window-x="1920"
     inkscape:window-y="0"
     inkscape:window-maximized="1" />
  <metadata
     id="metadata3685">
    <rdf:RDF>
      <cc:Work
         rdf:about="">
        <dc:format>image/svg+xml</dc:format>
        <dc:type
           rdf:resource="http://purl.org/dc/dcmitype/StillImage" />
        <dc:title></dc:title>
      </cc:Work>
    </rdf:RDF>
  </metadata>
  <g
     inkscape:label="Layer 1"
     inkscape:groupmode="layer"
     id="layer1"
     transform="translate(32.722415,-62.767513)">
    <path
       d="m -22.120891,62.899143 c -5.77354,0 -10.469894,4.683456 -10.469894,10.436159 V 139.7487 c 0,5.75138 4.696354,10.42954 10.469894,10.42954 H 115.86163 c 5.77354,0 10.46692,-4.67816 10.46692,-10.42954 V 73.335302 c 0,-5.752703 -4.69338,-10.436159 -10.46692,-10.436159 z"
       style="fill:#ffffff;fill-opacity:1;fill-rule:nonzero;stroke:none;stroke-width:0.33072916"
       id="path4351"
       inkscape:connector-curvature="0" />
    <path
       d="m -22.12486,143.7277 h 137.98252 c 2.18447,0 3.95586,-1.76477 3.95586,-3.94163 V 73.296607 c 0,-2.17686 -1.77139,-3.94163 -3.95586,-3.94163 H -22.12486 c -2.187112,0 -3.957175,1.76477 -3.957175,3.94163 v 66.489463 c 0,2.17686 1.770063,3.94163 3.957175,3.94163 z m 0.187193,3.75444 c -4.370256,0 -7.910381,-3.52822 -7.910381,-7.88459 V 73.486445 c 0,-4.355041 3.540125,-7.88326 7.910381,-7.88326 H 115.70652 c 4.37059,0 7.9117,3.528219 7.9117,7.88326 v 66.111105 c 0,4.35637 -3.54111,7.88459 -7.9117,7.88459"
       style="fill:#000000;fill-opacity:1;fill-rule:nonzero;stroke:none;stroke-width:0.33072916"
       id="path4353"
       inkscape:connector-curvature="0" />
    <path
       d="m -22.120891,62.767513 c -5.845969,0 -10.601524,4.742656 -10.601524,10.567789 v 66.334348 c 0,5.82414 4.755555,10.56283 10.601524,10.56283 H 115.86163 c 5.84465,0 10.59888,-4.73869 10.59888,-10.56283 V 73.335302 c 0,-5.825133 -4.75291,-10.567789 -10.59888,-10.567789 z m 0,0.13163 H 115.86163 c 5.77354,0 10.46692,4.683456 10.46692,10.436159 v 66.334348 c 0,5.75171 -4.69338,10.42988 -10.46692,10.42988 H -22.120891 c -5.77354,0 -10.469894,-4.67817 -10.469894,-10.42988 V 73.335302 c 0,-5.752703 4.696354,-10.436159 10.469894,-10.436159 z"
       style="fill:#000000;fill-opacity:1;fill-rule:nonzero;stroke:none;stroke-width:0.33072916"
       id="path4355"
       inkscape:connector-curvature="0" />
    <path
       d="m 107.22629,92.159745 0.75076,-0.750424 c 0.61747,0.613502 1.53458,0.812601 2.35512,0.507669 0.27517,-0.104841 0.41341,-0.409774 0.30758,-0.68494 -0.0724,-0.196123 -0.25334,-0.330729 -0.46004,-0.340982 l -1.12911,-0.07243 c -0.8771,-0.05556 -1.54517,-0.809955 -1.48696,-1.687049 0.044,-0.696516 0.53743,-1.284222 1.21576,-1.448263 0.98689,-0.239117 2.02803,-0.0066 2.82542,0.627724 l -0.66014,0.830791 c -0.54008,-0.431601 -1.25214,-0.587705 -1.91856,-0.427632 -0.2831,0.06846 -0.46136,0.355203 -0.39158,0.638307 0.0542,0.228534 0.24937,0.391252 0.48187,0.406797 l 1.12779,0.07243 c 0.87875,0.05424 1.54252,0.808633 1.48828,1.686058 -0.04,0.627724 -0.43921,1.171773 -1.02691,1.394023 -1.20783,0.449461 -2.56448,0.15875 -3.47928,-0.752078 z m -1.32423,-5.516563 h -1.06297 v -1.059325 h 1.06297 z m 0,6.366537 h -1.06297 v -5.304565 h 1.06297 z m -5.84068,-3.181945 h 2.25689 c 0,-0.623756 -0.50502,-1.127787 -1.12514,-1.127787 -0.6264,0 -1.13175,0.504031 -1.13175,1.127787 z m 3.32019,0.929018 h -3.32019 v 0.130307 c 0,0.464013 0.2831,0.877425 0.71206,1.04775 0.59035,0.236472 1.26603,0.06978 1.67944,-0.409443 l 0.80103,0.689902 c -0.70677,0.826822 -1.86432,1.109927 -2.87602,0.706768 -0.831788,-0.333375 -1.375838,-1.139693 -1.375838,-2.034977 v -1.059325 c 0,-1.207823 0.97929,-2.191081 2.191078,-2.191081 1.20551,0 2.18844,0.983258 2.18844,2.191081 z m -10.944822,2.252927 -1.657615,-5.304565 h 1.127787 l 0.99351,3.715742 1.193602,-3.715742 h 0.79838 l 1.189963,3.715742 0.99748,-3.715742 h 1.127786 l -1.661583,5.304565 h -0.92505 l -1.131424,-3.711443 -1.124149,3.711443 z m -6.966149,-0.849974 0.752078,-0.750424 c 0.616149,0.613502 1.53723,0.812601 2.3538,0.507669 0.276489,-0.104841 0.413411,-0.409774 0.30857,-0.68494 -0.0721,-0.196123 -0.254331,-0.330729 -0.461036,-0.340982 l -1.127787,-0.07243 c -0.878747,-0.05556 -1.545166,-0.809955 -1.486958,-1.687049 0.04233,-0.696516 0.536112,-1.284222 1.214107,-1.448263 0.987226,-0.239117 2.028362,-0.0066 2.826742,0.627724 l -0.664104,0.830791 c -0.537435,-0.431601 -1.243873,-0.587705 -1.915914,-0.427632 -0.282774,0.06846 -0.459714,0.355203 -0.391253,0.638307 0.05424,0.228534 0.250693,0.391252 0.481872,0.406797 l 1.12911,0.07243 c 0.877094,0.05424 1.541198,0.808633 1.486958,1.686058 -0.03605,0.627724 -0.439208,1.171773 -1.026914,1.394023 -1.208154,0.449461 -2.564474,0.15875 -3.479271,-0.752078 z m -1.326885,0.849974 h -1.059326 v -0.599281 c -0.623755,0.769937 -1.749226,0.888669 -2.52181,0.268552 -0.417049,-0.340982 -0.664104,-0.85262 -0.664104,-1.392701 v -3.581135 h 1.063294 v 3.250406 c 0,0.584068 0.475589,1.059656 1.059326,1.059656 0.588036,0 1.063294,-0.475588 1.063294,-1.059656 v -3.250406 h 1.059326 z m -6.761758,-2.322711 h -1.5283 c -0.365455,0 -0.662781,0.298318 -0.662781,0.664104 0,0.366779 0.297326,0.664104 0.662781,0.664104 h 0.864196 c 0.36314,0 0.664104,-0.297325 0.664104,-0.664104 z m 1.059325,2.322711 h -1.059325 v -0.545042 c -0.188516,0.337344 -0.545042,0.545042 -0.929018,0.545042 h -0.663774 c -0.878747,0 -1.593122,-0.711729 -1.593122,-1.588823 0,-0.882385 0.714375,-1.593122 1.593122,-1.593122 h 1.592792 v -0.529498 c 0,-0.290711 -0.210675,-0.54008 -0.497417,-0.591674 -0.373393,-0.06482 -0.758362,-0.06482 -1.131755,0 -0.188516,0.03605 -0.348589,0.156104 -0.43524,0.322791 l -0.838398,-0.660135 c 0.254331,-0.373393 0.645914,-0.627724 1.089091,-0.706768 0.496094,-0.08367 1.003763,-0.08367 1.50118,0 0.794411,0.14089 1.371864,0.830791 1.371864,1.635786 z m -9.55245,0 v -7.425862 h 1.063294 v 4.643107 l 2.052836,-2.52181 h 1.262393 l -1.79189,2.056805 2.056474,3.24776 h -1.326555 l -1.394024,-2.453349 -0.859234,0.929018 v 1.524331 z m -4.374224,0 v -5.304565 h 1.059325 v 0.599612 c 0.624086,-0.769938 1.747904,-0.889 2.520487,-0.268883 v 0.004 l -0.754393,0.929018 c -0.43557,-0.388937 -1.109927,-0.352888 -1.498534,0.08632 -0.173302,0.196453 -0.26756,0.445823 -0.26756,0.708091 v 3.246438 z m -2.656086,-2.322711 h -1.523339 c -0.366778,0 -0.664104,0.298318 -0.664104,0.664104 0,0.366779 0.297326,0.664104 0.664104,0.664104 h 0.862873 c 0.36314,0 0.660466,-0.297325 0.660466,-0.664104 z m 1.059325,2.322711 h -1.059325 v -0.545042 c -0.184878,0.337344 -0.540081,0.545042 -0.929018,0.545042 h -0.664105 c -0.877093,0 -1.591468,-0.711729 -1.591468,-1.588823 0,-0.882385 0.714375,-1.593122 1.591468,-1.593122 h 1.593123 v -0.529498 c 0,-0.290711 -0.210675,-0.54008 -0.493779,-0.591674 -0.377031,-0.06482 -0.760677,-0.06482 -1.131755,0 -0.188516,0.03605 -0.347266,0.156104 -0.43524,0.322791 l -0.837075,-0.660135 c 0.24937,-0.373393 0.644591,-0.627724 1.087768,-0.706768 0.497417,-0.08367 1.005086,-0.08367 1.498534,0 0.794742,0.14089 1.370872,0.830791 1.370872,1.635786 z m -8.953169,-3.980326 h 1.727398 c 0.656167,0 1.19261,-0.533466 1.19261,-1.193601 0,-0.656167 -0.536443,-1.19261 -1.19261,-1.19261 h -1.727398 z m -1.125141,3.980326 v -7.425862 h 2.917032 c 1.244203,0 2.257226,1.007732 2.257226,2.251935 0,1.247841 -1.013023,2.256896 -2.257226,2.256896 h -1.791891 v 2.917031 z m -5.307211,0 h -0.662781 c -0.661458,0 -1.193601,-0.533466 -1.193601,-1.193602 V 88.56968 h -0.529829 v -0.864526 h 0.529829 v -1.591469 h 1.061971 v 1.591469 h 0.794411 v 0.864526 h -0.794411 v 3.11613 c 0,0.180578 0.148497,0.329406 0.330729,0.329406 h 0.463682 z m -3.844726,-6.366537 h -1.063294 v -1.059325 h 1.063294 z m 0,6.366537 h -1.063294 v -5.304565 h 1.063294 z m -10.081948,0 v -5.304565 h 1.059325 v 0.599612 c 0.62144,-0.769938 1.749227,-0.889 2.517841,-0.268883 0.120055,0.09823 0.228865,0.210675 0.319154,0.333375 0.69387,-0.85262 1.948326,-0.97532 2.800945,-0.282773 0.461037,0.377031 0.728597,0.942908 0.728597,1.541198 v 3.382036 H 39.97351 v -3.24776 c 0,-0.587706 -0.475588,-1.061972 -1.063294,-1.061972 -0.584068,0 -1.059326,0.474266 -1.059326,1.061972 v 3.24776 h -1.063294 v -3.24776 c 0,-0.587706 -0.475588,-1.061972 -1.063294,-1.061972 -0.584068,0 -1.059326,0.474266 -1.059326,1.061972 v 3.24776"
       style="fill:#000000;fill-opacity:1;fill-rule:nonzero;stroke:none;stroke-width:0.33072916"
       id="path4357"
       inkscape:connector-curvature="0" />
    <path
       d="m 91.242815,111.5838 h -2.652117 v -2.65642 h 2.652117 z m 0,15.91733 h -2.652117 v -13.26654 h 2.652117 z m -14.590778,-7.95932 h 5.63794 c 0,-1.55542 -1.266031,-2.81881 -2.819136,-2.81881 -1.559057,0 -2.818804,1.26339 -2.818804,2.81881 z m 8.289065,2.32171 h -8.289065 v 0.33073 c 0,1.15359 0.700153,2.19108 1.771054,2.61872 1.475383,0.5877 3.162763,0.17429 4.193646,-1.02989 l 2.012818,1.72607 c -1.773701,2.06838 -4.661297,2.77647 -7.19336,1.76742 -2.074664,-0.83079 -3.438921,-2.84493 -3.438921,-5.08232 v -2.65244 c 0,-3.02188 2.448057,-5.4739 5.473567,-5.4739 3.021873,0 5.470261,2.45202 5.470261,5.4739 z m -21.224875,5.63761 v -13.26654 h 2.652117 v 1.49854 c 1.555419,-1.9222 4.374555,-2.22316 6.296752,-0.66774 0,0 0.0026,0 0.0026,0.004 l -1.882179,2.32536 c -1.095706,-0.97664 -2.77118,-0.87842 -3.747823,0.21696 -0.431602,0.48716 -0.670719,1.11356 -0.670719,1.76345 v 8.12601 h -2.652117 z m -8.289066,0 v -11.1115 h -1.327877 v -2.15504 h 1.327877 v -1.98834 c 0,-1.83191 1.483321,-3.31887 3.31523,-3.31887 h 1.988013 v 2.48841 h -1.821326 c -0.460044,0 -0.830792,0.37472 -0.830792,0.83046 v 1.98834 h 2.652118 v 2.15504 h -2.652118 v 11.1115"
       style="fill:#000000;fill-opacity:1;fill-rule:nonzero;stroke:none;stroke-width:0.33072916"
       id="path4361"
       inkscape:connector-curvature="0" />
    <path
       d="m 21.119302,81.882667 c 0,2.760927 -2.237714,4.995664 -4.994672,4.995664 -2.756959,0 -4.991696,-2.234737 -4.991696,-4.995664 0,-2.756959 2.234737,-4.994672 4.991696,-4.994672 2.756958,0 4.994672,2.237713 4.994672,4.994672 z m -8.738526,26.845943 v -3.74782 H -0.10557353 c 0,-2.41201 1.95857813,-4.36794 4.37058603,-4.36794 h 8.1157635 v -7.490683 c 0,-2.416969 1.954609,-4.371578 4.36794,-4.371578 2.415976,0 4.370586,1.954609 4.370586,4.371578 v 16.854293 c 0,2.412 -1.95461,4.36661 -4.370586,4.36661 H 2.5673796 c -0.5721614,0 -1.0695781,0.39291 -1.2117917,0.94324 l -4.305763,17.13078 c -0.6564974,2.6121 -3.2649584,4.23367 -5.8952475,3.66382 l 5.042297,-23.41331 c 0.4937786,-2.29956 2.5297474,-3.93899 4.8835469,-3.93899 z m -8.0899667,8.11445 H 6.927713 c -2.4159766,6.45682 0.8641953,13.6515 7.32499,16.06351 6.457156,2.41201 13.650515,-0.86684 16.063515,-7.32367 2.321719,-6.21539 -0.621109,-13.15806 -6.700903,-15.81315 v -2.68188 c 7.799255,2.75696 11.88806,11.3159 9.131101,19.11879 -2.756958,7.79925 -11.318544,11.88707 -19.117799,9.13011 -7.5601384,-2.67295 -11.6773858,-10.8251 -9.3378077,-18.49371"
       style="fill:#000000;fill-opacity:1;fill-rule:nonzero;stroke:none;stroke-width:0.33072916"
       id="path4363"
       inkscape:connector-curvature="0" />
  </g>
</svg>
