<?xml version="1.0" encoding="UTF-8" standalone="no"?>
<svg
   xmlns:dc="http://purl.org/dc/elements/1.1/"
   xmlns:cc="http://creativecommons.org/ns#"
   xmlns:rdf="http://www.w3.org/1999/02/22-rdf-syntax-ns#"
   xmlns:svg="http://www.w3.org/2000/svg"
   xmlns="http://www.w3.org/2000/svg"
   viewBox="0 0 600.99628 600.99628"
   height="600.99628"
   width="600.99628"
   xml:space="preserve"
   version="1.1"
   id="svg14322"><metadata
     id="metadata14328"><rdf:RDF><cc:Work
         rdf:about=""><dc:format>image/svg+xml</dc:format><dc:type
           rdf:resource="http://purl.org/dc/dcmitype/StillImage" /><dc:title></dc:title></cc:Work></rdf:RDF></metadata><defs
     id="defs14326"><clipPath
       id="clipPath14346"
       clipPathUnits="userSpaceOnUse"><path
         id="path14348"
         d="m 120,53 241,0 0,395 -241,0 0,-395 z" /></clipPath></defs><g
     transform="matrix(1.25,0,0,-1.25,0,600.99628)"
     id="g14330"><g
       id="g14332"><path
         id="path14334"
         style="fill:#ffffff;fill-opacity:1;fill-rule:nonzero;stroke:none"
         d="M 32.195,480.402 C 14.66,480.402 0.402,466.133 0.402,448.61 l 0,-416.415 C 0.402,14.66 14.66,0.402 32.195,0.402 l 416.414,0 c 17.524,0 31.793,14.258 31.793,31.793 l 0,416.415 c 0,17.523 -14.269,31.792 -31.793,31.792 l -416.414,0 z" /><path
         id="path14336"
         style="fill:#000000;fill-opacity:1;fill-rule:nonzero;stroke:none"
         d="M 32.203,480.797 C 14.449,480.797 0,466.356 0,448.617 L 0,32.203 C 0,14.453 14.449,0 32.203,0 l 416.414,0 c 17.738,0 32.18,14.453 32.18,32.203 l 0,416.414 c 0,17.739 -14.442,32.18 -32.18,32.18 l -416.414,0 z m -0.008,-0.395 416.414,0 c 17.52,0 31.793,-14.273 31.793,-31.792 l 0,-416.415 c 0,-17.535 -14.273,-31.793 -31.793,-31.793 l -416.414,0 C 14.66,0.402 0.402,14.66 0.402,32.195 l 0,416.415 c 0,17.519 14.258,31.792 31.793,31.792 z" /><path
         id="path14338"
         style="fill:#000000;fill-opacity:1;fill-rule:nonzero;stroke:none"
         d="m 32.195,472.625 c -13.273,0 -24.027,-10.754 -24.027,-24.015 l 0,-416.415 C 8.168,18.922 18.922,8.168 32.195,8.168 l 416.414,0 c 13.274,0 24.016,10.754 24.016,24.027 l 0,416.415 c 0,13.261 -10.742,24.015 -24.016,24.015 l -416.414,0 z m 0,-12.015 416.414,0 c 6.629,0 12.012,-5.368 12.012,-12 l 0,-416.415 c 0,-6.644 -5.383,-12.015 -12.012,-12.015 l -416.414,0 c -6.633,0 -12.015,5.371 -12.015,12.015 l 0,416.415 c 0,6.632 5.382,12 12.015,12 z" /><g
         transform="translate(0,-0.202972)"
         id="g14340"><g
           id="g14342"><g
             clip-path="url(#clipPath14346)"
             id="g14344"><g
               id="g14350"><path
                 id="path14352"
                 style="fill:#ffffff;fill-opacity:1;fill-rule:nonzero;stroke:none"
                 d="m 187.234,266.641 88.786,0 -26.086,-69.567 -62.7,69.567 z" /><path
                 id="path14354"
                 style="fill:#ffffff;fill-opacity:1;fill-rule:nonzero;stroke:none"
                 d="m 167.266,235.988 -11.754,-37.957 c -0.141,-0.48 -0.227,-0.976 -0.227,-1.488 0,-2.754 2.242,-4.996 5.012,-4.996 2.199,0 4.129,1.418 4.781,3.519 l 11.754,37.957 c 14.32,-6.488 23.52,-20.753 23.52,-36.48 0,-22.117 -17.926,-40.059 -40.055,-40.059 -22.117,0 -40.059,17.942 -40.059,40.059 0,22.129 17.942,40.055 40.059,40.055 2.34,0 4.668,-0.2 6.969,-0.61 z" /><path
                 id="path14356"
                 style="fill:#ffffff;fill-opacity:1;fill-rule:nonzero;stroke:none"
                 d="m 260.434,196.543 25.039,66.758 10.359,-23.196 c -15.699,-8.886 -25.391,-25.519 -25.391,-43.562 l -10.007,0 z" /><path
                 id="path14358"
                 style="fill:#ffffff;fill-opacity:1;fill-rule:nonzero;stroke:none"
                 d="m 280.457,196.543 c 0,14.082 7.395,27.141 19.488,34.363 l 15.344,-34.363 -34.832,0 z" /><path
                 id="path14360"
                 style="fill:#ffffff;fill-opacity:1;fill-rule:nonzero;stroke:none"
                 d="m 281.73,186.535 41.262,0 c 2.77,0 5.012,2.242 5.012,5.008 0,0.695 -0.156,1.391 -0.442,2.047 l -18.453,41.348 c 3.707,1.105 7.539,1.66 11.399,1.66 22.129,0 40.054,-17.93 40.054,-40.059 0,-22.113 -17.925,-40.055 -40.054,-40.055 -18.266,0 -34.207,12.364 -38.778,30.051" /><path
                 id="path14362"
                 style="fill:#000000;fill-opacity:1;fill-rule:nonzero;stroke:none"
                 d="m 309.418,354.043 0,-0.012 c 6.672,0 12.094,-5.41 12.094,-12.093 0,-6.672 -5.422,-12.094 -12.094,-12.094 l 0,0.043 c -3.148,0 -6.188,1.234 -8.445,3.449 l 10.605,-0.043 c 2.399,0 4.328,1.93 4.328,4.328 0,0.598 -0.129,1.207 -0.383,1.762 l -6.543,14.648 c 0.141,0.012 0.297,0.012 0.438,0.012" /><path
                 id="path14364"
                 style="fill:#000000;fill-opacity:1;fill-rule:nonzero;stroke:none"
                 d="m 297.363,341.984 c 0,3.278 1.336,6.403 3.692,8.688 l 3.875,-8.703 c 0,0 -7.582,0 -7.567,0.015" /><path
                 id="path14366"
                 style="fill:#000000;fill-opacity:1;fill-rule:nonzero;stroke:none"
                 d="m 276.008,333.34 -0.028,-0.028 c 3.946,-15.246 17.7,-25.89 33.442,-25.89 19.062,0 34.519,15.457 34.519,34.519 0,19.063 -15.457,34.536 -34.519,34.536 -3.336,0 -6.641,-0.485 -9.836,-1.434 l 15.941,-35.656 c 0.254,-0.555 0.383,-1.164 0.383,-1.774 0,-2.386 -1.945,-4.316 -4.328,-4.316 l -35.574,0.043 z m -1.09,8.601 0,0.028 30.004,0 -13.242,29.597 c -10.418,-6.234 -16.793,-17.488 -16.762,-29.625 m -80.328,60.411 54.023,-59.926 22.473,59.926 -76.496,0 z m -17.188,-26.403 c -1.988,0.344 -4.004,0.528 -6.004,0.528 -19.078,0 -34.535,-15.473 -34.535,-34.536 0,-19.062 15.457,-34.519 34.535,-34.519 19.063,0 34.52,15.457 34.52,34.519 0,13.555 -7.934,25.864 -20.27,31.454 l -10.121,-32.731 c -0.566,-1.816 -2.242,-3.051 -4.129,-3.051 -2.398,0 -4.328,1.942 -4.328,4.328 0,0.442 0.055,0.868 0.2,1.278 l 10.132,32.73 z m 113.371,18.852 5.278,-11.852 c 4.316,1.418 8.828,2.129 13.371,2.129 23.82,0 43.137,-19.305 43.137,-43.137 0,-23.82 -19.317,-43.136 -43.137,-43.136 -20.512,0 -38.168,14.422 -42.27,34.507 l -18.14,0.012 c -2.442,0 -4.754,1.039 -6.387,2.856 l -51,56.59 -3.422,-11.098 c 15.957,-6.758 26.332,-22.399 26.332,-39.731 0,-23.82 -19.32,-43.136 -43.137,-43.136 -23.832,0 -43.152,19.316 -43.152,43.136 0,23.832 19.32,43.137 43.152,43.137 2.868,0 5.75,-0.285 8.575,-0.851 l 12.547,40.48 c 2.226,7.242 8.914,12.168 16.48,12.168 l 14.148,-0.016 0,-8.617 L 209,428.215 c -3.777,0 -7.098,-2.457 -8.219,-6.063 l -3.508,-11.168 77.047,0 3.239,8.629 -18.227,4.344 c -0.98,0.227 -1.66,1.105 -1.66,2.102 0,1.191 0.965,2.156 2.156,2.156 l 36.649,0.027 0,-8.629 -9.696,0 -3.25,-8.629 2.512,-5.593 c 0.684,-1.348 1.676,-2.571 2.941,-3.563 l 0,0.012 c 1.914,-1.516 4.286,-2.34 6.727,-2.34 3.32,0 6.457,1.52 8.516,4.117 l 12.152,15.414 c -1.277,1.731 -1.961,3.832 -1.961,5.989 0,2.285 0.781,4.515 2.199,6.304 l 7.598,9.594 2.723,-2.141 6.246,7.934 c 0.328,0.41 0.824,0.652 1.347,0.652 0.953,0 1.719,-0.765 1.719,-1.718 0,-0.395 -0.129,-0.766 -0.371,-1.079 l -6.274,-7.906 5.227,-4.129 6.285,7.977 c 0.313,0.41 0.824,0.652 1.348,0.652 0.953,0 1.719,-0.781 1.719,-1.719 0,-0.394 -0.129,-0.781 -0.368,-1.078 l -6.332,-7.933 2.727,-2.157 -7.637,-9.57 c -1.929,-2.441 -4.871,-3.859 -7.976,-3.859 -1.352,0 -2.684,0.269 -3.934,0.797 L 308.5,400.238 c -3.094,-3.902 -7.793,-6.187 -12.789,-6.187 -1.676,0 -3.336,0.254 -4.926,0.765 l -0.012,-0.015 z" /><path
                 id="path14368"
                 style="fill:#000000;fill-opacity:1;fill-rule:nonzero;stroke:none"
                 d="m 298.082,121.25 9.609,0 0,-9.609 -9.609,0 0,9.609 z m 0,-19.234 9.609,0 0,-48.063 -9.609,0 0,48.063 z m -43.262,-19.219 20.438,0 c 0,5.637 -4.582,10.207 -10.219,10.207 -5.637,0 -10.219,-4.57 -10.219,-10.207 m 30.047,-8.418 -30.047,0 0,-1.191 c 0,-4.188 2.539,-7.934 6.43,-9.497 1.59,-0.625 3.277,-0.953 4.996,-0.953 3.918,0 7.649,1.703 10.203,4.688 l 7.285,-6.262 c -4.375,-5.109 -10.773,-8.047 -17.488,-8.047 -2.937,0 -5.848,0.567 -8.574,1.66 -7.524,3.008 -12.461,10.289 -12.461,18.411 l 0,9.609 c 0,10.945 8.871,19.816 19.828,19.816 10.945,0 19.828,-8.871 19.828,-19.816 l 0,-8.418 z m -76.902,-20.426 0,48.063 9.609,0 0,-5.422 c 3.078,3.816 7.723,6.019 12.617,6.019 3.719,0 7.325,-1.265 10.219,-3.605 l -6.824,-8.434 c -1.777,1.563 -4.047,2.43 -6.402,2.43 -5.309,0 -9.61,-4.301 -9.61,-9.609 l 0,-29.442 -9.609,0 z m -30.035,0 0,40.254 -4.813,0 0,7.809 4.813,0 0,7.211 c 0,6.644 5.363,12.023 12.008,12.023 l 7.21,0 0,-9.016 -6.613,0 c -1.664,0 -2.996,-1.347 -2.996,-3.007 l 0,-7.211 9.609,0 0,-7.809 -9.609,0 0,-40.254 -9.609,0 z" /><path
                 id="path14370"
                 style="fill:#000000;fill-opacity:1;fill-rule:nonzero;stroke:none"
                 d="m 207.41,276.25 c -7.168,0 -13.64,-4.367 -16.324,-11.023 l -13.731,-34.11 c -3.121,0.766 -6.312,1.153 -9.535,1.153 -21.859,0 -39.566,-17.723 -39.566,-39.567 0,-21.859 17.707,-39.59 39.566,-39.59 21.86,0 39.59,17.731 39.59,39.59 0,14.152 -7.574,27.235 -19.851,34.289 l 5.679,14.082 L 222.555,199 c 6.574,-9.453 17.359,-15.059 28.855,-15.059 l 22.977,-0.043 c 4.101,-18 20.125,-30.785 38.59,-30.785 21.859,0 39.589,17.731 39.589,39.59 0,21.844 -17.73,39.567 -39.589,39.567 -20.395,0 -37.457,-15.493 -39.387,-35.821 l -25.793,-1.531 c -0.258,-0.012 -0.524,-0.02 -0.777,-0.02 -7.282,0 -13.196,5.891 -13.196,13.172 0,1.153 0.168,2.309 0.465,3.418 l 1.461,5.41 c 0.199,0.754 0.289,1.504 0.289,2.286 0,1.8 -0.559,3.535 -1.598,5.011 l -13.683,19.715 c -1.633,2.371 -4.348,3.793 -7.231,3.793 l -17.652,-0.043 5.391,13.485 c 1.007,2.496 3.445,4.148 6.14,4.148 l 17.61,-0.023 0,10.976 -17.61,0 0.004,0.004 z m -39.566,-54.957 c 1.801,0 3.582,-0.172 5.344,-0.512 l 0.023,0 -10.469,-26.015 c -0.258,-0.653 -0.402,-1.352 -0.402,-2.063 0,-3.023 2.465,-5.476 5.504,-5.476 2.242,0 4.238,1.363 5.078,3.437 l 10.488,26.016 c 8.121,-5.282 13.02,-14.282 13.02,-23.977 0,-15.785 -12.789,-28.59 -28.586,-28.59 -15.801,0 -28.614,12.805 -28.614,28.59 0,15.797 12.813,28.59 28.614,28.59 z" /><path
                 id="path14372"
                 style="fill:#ffffff;fill-opacity:1;fill-rule:nonzero;stroke:none"
                 d="m 321.766,183.895 0,15.402 -37.047,-2.188 c 2.172,13.926 14.168,24.188 28.261,24.188 15.797,0 28.602,-12.805 28.602,-28.602 0,-15.785 -12.805,-28.586 -28.602,-28.586 -12.406,0 -23.39,7.989 -27.21,19.801 l 35.996,-0.015 z" /><path
                 id="path14374"
                 style="fill:#000000;fill-opacity:1;fill-rule:nonzero;stroke:none"
                 d="m 343.762,247.668 0,-11 -30.774,0.016 c -9.027,0 -17.843,-2.786 -25.238,-7.95 l -16.863,10.942 c -1.18,0.824 -1.887,2.172 -1.887,3.605 0,2.442 1.973,4.418 4.414,4.418 l 70.348,-0.031 z" /></g></g></g></g></g></g></svg>