<?xml version="1.0" encoding="UTF-8" standalone="no"?>
<svg
   xmlns:dc="http://purl.org/dc/elements/1.1/"
   xmlns:cc="http://creativecommons.org/ns#"
   xmlns:rdf="http://www.w3.org/1999/02/22-rdf-syntax-ns#"
   xmlns:svg="http://www.w3.org/2000/svg"
   xmlns="http://www.w3.org/2000/svg"
   viewBox="0 0 600 450.005"
   height="450.005"
   width="600"
   xml:space="preserve"
   version="1.1"
   id="svg6852"><metadata
     id="metadata6858"><rdf:RDF><cc:Work
         rdf:about=""><dc:format>image/svg+xml</dc:format><dc:type
           rdf:resource="http://purl.org/dc/dcmitype/StillImage" /><dc:title></dc:title></cc:Work></rdf:RDF></metadata><defs
     id="defs6856" /><g
     transform="matrix(1.25,0,0,-1.25,0,450.005)"
     id="g6860"><g
       id="g6862"><path
         id="path6864"
         style="fill:#ffffff;fill-opacity:1;fill-rule:nonzero;stroke:none"
         d="m 31.996,359.774 c -17.504,0 -31.754,-14.25 -31.754,-31.766 L 0.242,32 c 0,-17.508 14.25,-31.758 31.754,-31.758 l 416.008,0 c 17.516,0 31.766,14.25 31.766,31.758 l 0,296.008 c 0,17.516 -14.25,31.766 -31.766,31.766" /><path
         id="path6866"
         style="fill:#000000;fill-opacity:1;fill-rule:nonzero;stroke:none"
         d="M 31.996,0.469 C 14.613,0.469 0.477,14.613 0.477,32 l 0,296.008 c 0,17.383 14.136,31.523 31.519,31.523 l 416.008,0 c 17.383,0 31.519,-14.14 31.519,-31.523 l 0,-296.008 c 0,-17.387 -14.136,-31.531 -31.519,-31.531 l -416.008,0 z m 416.008,359.535 -416.008,0 C 14.328,360.004 0,345.676 0,328.008 L 0,32 C 0,14.328 14.328,0 31.996,0 L 448.004,0 C 465.672,0 480,14.328 480,32 l 0,296.008 c 0,17.668 -14.328,31.996 -31.996,31.996" /><path
         id="path6868"
         style="fill:#000000;fill-opacity:1;fill-rule:nonzero;stroke:none"
         d="m 31.996,352.012 c -13.25,0 -23.992,-10.746 -23.992,-24.004 L 8.004,32 C 8.004,18.75 18.746,7.996 31.996,7.996 l 416.008,0 c 13.25,0 24.004,10.754 24.004,24.004 l 0,296.008 c 0,13.258 -10.754,24.004 -24.004,24.004 l -416.008,0 z m 0,-12.008 416.008,0 c 6.629,0 12.004,-5.367 12.004,-11.996 l 0,-296.008 c 0,-6.633 -5.375,-11.996 -12.004,-11.996 l -416.008,0 C 25.379,20.004 20,25.367 20,32 l 0,296.008 c 0,6.629 5.379,11.996 11.996,11.996 z" /><path
         id="path6870"
         style="fill:#000000;fill-opacity:1;fill-rule:nonzero;stroke:none"
         d="m 349.273,320.254 0,-0.004 c -0.64,-0.012 -1.238,-0.309 -1.64,-0.809 -0.035,-0.042 -0.067,-0.089 -0.098,-0.136 -2.324,-2.887 -6.879,-8.594 -7.125,-8.899 l -3.277,2.633 -9.242,-11.515 0.023,-0.02 c -0.012,-0.012 -0.027,-0.023 -0.039,-0.039 -3.398,-4.242 -3.617,-10.207 -0.543,-14.688 -1.469,-1.968 -2.168,-2.914 -4.543,-6.066 -3.637,-4.828 -7.523,-9.926 -9.215,-12.035 -2.574,-3.473 -6.64,-5.524 -10.961,-5.531 -1.558,0 -3.047,0.277 -4.445,0.757 -2.805,1.368 -5.094,3.672 -6.426,6.575 -0.375,0.738 -1.082,2.226 -1.691,3.504 l -0.082,0.179 3.758,9.992 11.234,0 0,9.989 -42.473,0 c -1.148,0 -2.164,-0.782 -2.426,-1.907 -0.328,-1.335 0.5,-2.695 1.844,-3.007 l 21.145,-5.075 -3.758,-9.992 -89.254,0 4.012,12.946 c 1.301,4.187 5.168,7.035 9.551,7.035 l 16.429,0 0,9.992 -16.429,0 c -8.758,0 -16.504,-5.699 -19.094,-14.07 l -14.52,-46.864 c -23.281,4.719 -46.66,-7.613 -55.929,-29.496 -10.747,-25.41 1.136,-54.722 26.539,-65.476 25.41,-10.77 54.722,1.109 65.48,26.519 10.754,25.414 -1.129,54.727 -26.543,65.481 l 3.981,12.824 59.058,-65.512 c 1.903,-2.101 4.586,-3.312 7.426,-3.312 l 20.992,0 c 0.383,-1.86 0.871,-3.692 1.449,-5.485 8.563,-26.234 36.754,-40.574 62.989,-32.004 26.23,8.547 40.562,36.735 32.008,62.969 -8.547,26.234 -36.739,40.57 -62.969,32.02 l -7.199,16.105 c 1.183,-0.449 2.402,-0.758 3.71,-0.84 0.543,-0.043 1.086,-0.074 1.633,-0.074 3.922,0.004 7.625,1.156 10.75,3.168 1.453,0.859 2.907,2.063 4.328,3.742 1.672,1.977 5.993,7.688 10.086,13.121 2.246,2.985 2.821,3.762 4.293,5.731 5.18,-2.539 11.43,-1.153 15.043,3.344 0.199,0.246 0.383,0.5 0.559,0.761 l 8.687,10.821 -3.175,2.55 c 0.211,0.262 5.101,6.379 7.254,9.063 l -0.004,0.004 0.004,0.008 c 0.753,0.933 0.601,2.296 -0.333,3.05 -0.398,0.321 -0.898,0.489 -1.41,0.477 -0.64,-0.016 -1.238,-0.313 -1.64,-0.813 -0.035,-0.043 -0.067,-0.086 -0.098,-0.132 -2.336,-2.903 -6.953,-8.688 -7.156,-8.942 l -6.008,4.824 c 0.254,0.317 5.078,6.344 7.223,9.016 l -0.004,0.008 0.008,0.004 c 0.75,0.933 0.601,2.301 -0.336,3.051 -0.399,0.32 -0.899,0.492 -1.411,0.48 z m -162.324,-56.082 88.602,0 -26.043,-69.41 -62.559,69.41 z m 133.035,-29.961 c 17.223,-0.016 33.125,-11.246 38.282,-28.602 6.285,-21.164 -5.774,-43.425 -26.934,-49.699 -21.164,-6.285 -43.414,5.77 -49.699,26.934 -0.129,0.457 -0.274,0.914 -0.391,1.383 l 27.656,0 c 2.606,-2.481 6.063,-3.868 9.661,-3.875 7.757,0 14.046,6.289 14.046,14.047 -0.007,7.441 -5.824,13.585 -13.253,14.007 l -10.786,24.137 c 2.645,0.781 5.313,1.289 7.957,1.52 1.161,0.097 2.313,0.148 3.461,0.148 z m -159.675,-0.016 c 2.218,-0.011 4.464,-0.214 6.711,-0.613 l -11.715,-37.879 c -0.809,-2.633 0.648,-5.433 3.297,-6.25 2.632,-0.808 5.418,0.66 6.23,3.293 l 11.734,37.883 c 20.11,-9.117 29.032,-32.793 19.914,-52.895 -9.105,-20.109 -32.8,-29.027 -52.91,-19.91 -20.101,9.102 -29.031,32.793 -19.914,52.907 6.598,14.546 21.086,23.57 36.653,23.464 z m 139.121,-5.668 10.336,-23.179 c -3.321,-2.664 -5.254,-6.692 -5.254,-10.949 0,-0.063 0.004,-0.122 0.008,-0.18 l -24.543,0 c 0,14.055 7.382,27.082 19.453,34.308 z" /><path
         id="path6872"
         style="fill:#000000;fill-opacity:1;fill-rule:nonzero;stroke:none"
         d="m 196.285,92.188 0,7.336 -9.5,0 0,6.867 c 0,3.48 1.695,5.547 5.27,5.547 l 4.23,0 0,8.183 -6.019,0 c -8.934,0 -13.071,-6.394 -13.071,-13.262 l 0,-7.335 -5.457,0 0,-7.336 5.457,0 0,-39.5 9.59,0 0,39.5 9.5,0 z" /><path
         id="path6874"
         style="fill:#000000;fill-opacity:1;fill-rule:nonzero;stroke:none"
         d="m 240.031,96.422 c -3.289,3.289 -6.769,4.512 -11.379,4.512 -5.359,0 -10.254,-2.352 -12.699,-5.735 l 0,5.172 -9.402,0 0,-47.683 9.594,0 0,28.964 c 0,6.586 4.324,10.723 9.496,10.723 3.293,0 4.988,-1.035 7.148,-3.195 l 7.242,7.242 z" /><path
         id="path6876"
         style="fill:#000000;fill-opacity:1;fill-rule:nonzero;stroke:none"
         d="m 285.695,73.754 0,4.23 c 0,13.547 -7.429,22.95 -20.222,22.95 -12.227,0 -20.219,-8.934 -20.219,-24.36 0,-18.152 9.496,-24.453 21.441,-24.453 8.371,0 12.981,2.539 17.871,7.43 l -6.113,5.738 c -3.387,-3.387 -6.207,-4.89 -11.57,-4.89 -7.805,0 -12.133,5.171 -12.133,13.355 l 30.945,0 z m -9.5,6.676 -21.445,0 c 0.098,2.918 0.285,4.328 1.223,6.492 1.507,3.574 4.988,6.019 9.5,6.019 4.515,0 7.902,-2.445 9.406,-6.019 0.941,-2.164 1.223,-3.574 1.316,-6.492 z" /><path
         id="path6878"
         style="fill:#000000;fill-opacity:1;fill-rule:nonzero;stroke:none"
         d="m 308.273,109.777 0,10.157 -10.156,0 0,-10.157 10.156,0 z m -0.281,-57.089 0,47.683 -9.594,0 0,-47.683 9.594,0 z" /></g></g></svg>