<?xml version="1.0" encoding="UTF-8" standalone="no"?>
<svg
   xmlns:dc="http://purl.org/dc/elements/1.1/"
   xmlns:cc="http://creativecommons.org/ns#"
   xmlns:rdf="http://www.w3.org/1999/02/22-rdf-syntax-ns#"
   xmlns:svg="http://www.w3.org/2000/svg"
   xmlns="http://www.w3.org/2000/svg"
   viewBox="0 0 600.99628 600.99628"
   height="600.99628"
   width="600.99628"
   xml:space="preserve"
   id="svg1315"
   version="1.1"><metadata
     id="metadata1321"><rdf:RDF><cc:Work
         rdf:about=""><dc:format>image/svg+xml</dc:format><dc:type
           rdf:resource="http://purl.org/dc/dcmitype/StillImage" /><dc:title></dc:title></cc:Work></rdf:RDF></metadata><defs
     id="defs1319" /><g
     transform="matrix(1.3333333,0,0,1.3333333,0,1.7691574e-5)"
     id="g1323"><g
       id="g1325"><path
         id="path1327"
         style="fill:#ffffff;fill-opacity:1;fill-rule:nonzero;stroke:none"
         d="M 30.184,0.371 H 420.57 c 16.426,0 29.805,13.379 29.805,29.805 v 390.387 c 0,16.441 -13.379,29.808 -29.805,29.808 H 30.184 c -16.442,0 -29.809,-13.367 -29.809,-29.808 V 30.176 C 0.375,13.75 13.742,0.371 30.184,0.371 Z" /><path
         id="path1329"
         style="fill:#000000;fill-opacity:1;fill-rule:nonzero;stroke:none"
         d="M 30.191,0 C 13.547,0 0,13.539 0,30.168 v 390.391 c 0,16.64 13.547,30.187 30.191,30.187 h 390.387 c 16.629,0 30.168,-13.547 30.168,-30.187 V 30.168 C 450.746,13.539 437.207,0 420.578,0 Z M 30.184,0.371 H 420.57 c 16.426,0 29.805,13.379 29.805,29.805 v 390.387 c 0,16.441 -13.379,29.808 -29.805,29.808 H 30.184 c -16.442,0 -29.809,-13.367 -29.809,-29.808 V 30.176 C 0.375,13.75 13.742,0.371 30.184,0.371 Z" /><path
         id="path1331"
         style="fill:#000000;fill-opacity:1;fill-rule:nonzero;stroke:none"
         d="M 30.184,7.66 C 17.738,7.66 7.656,17.742 7.656,30.176 v 390.387 c 0,12.445 10.082,22.527 22.528,22.527 H 420.57 c 12.446,0 22.516,-10.082 22.516,-22.527 V 30.176 C 443.086,17.742 433.016,7.66 420.57,7.66 Z m 0,11.266 H 420.57 c 6.215,0 11.262,5.031 11.262,11.25 v 390.387 c 0,6.23 -5.047,11.265 -11.262,11.265 H 30.184 c -6.219,0 -11.266,-5.035 -11.266,-11.265 V 30.176 c 0,-6.219 5.047,-11.25 11.266,-11.25 z" /><path
         id="path1333"
         style="fill:#000000;fill-opacity:1;fill-rule:nonzero;stroke:none"
         d="m 120.629,278.309 c 0,-12.438 -10.086,-22.516 -22.52,-22.516 -12.437,0 -22.515,10.078 -22.515,22.516 0,12.437 10.078,22.519 22.515,22.519 12.434,0 22.52,-10.082 22.52,-22.519 z m 15.012,0 c 0,20.726 -16.805,37.531 -37.532,37.531 -20.726,0 -37.531,-16.805 -37.531,-37.531 0,-20.727 16.805,-37.532 37.531,-37.532 20.727,0 37.532,16.805 37.532,37.532" /><path
         id="path1335"
         style="fill:#000000;fill-opacity:1;fill-rule:nonzero;stroke:none"
         d="m 375.152,278.309 c 0,-12.438 -10.082,-22.516 -22.515,-22.516 -12.442,0 -22.52,10.078 -22.52,22.516 0,12.437 10.078,22.519 22.52,22.519 12.433,0 22.515,-10.082 22.515,-22.519 z m 15.012,0 c 0,20.726 -16.805,37.531 -37.527,37.531 -20.731,0 -37.532,-16.805 -37.532,-37.531 0,-20.727 16.801,-37.532 37.532,-37.532 20.722,0 37.527,16.805 37.527,37.532" /><path
         id="path1337"
         style="fill:#000000;fill-opacity:1;fill-rule:nonzero;stroke:none"
         d="m 133.652,75.398 -18.093,128.586 48.578,62.196 62.664,-0.098 c 10.39,-18.18 29.726,-29.394 50.66,-29.394 0.023,0 0.039,0 0.055,0 h -0.078 c 0.011,0 0.019,0 0.031,0 h -0.008 c 4.996,0 9.656,-2.477 12.449,-6.618 l 16.766,-23.629 c -2.172,-2.671 -3.356,-6.015 -3.356,-9.457 0,-3.113 0.969,-6.148 2.77,-8.683 l 10.461,-14.774 4.172,2.957 8.586,-12.203 c 0.48,-0.672 1.257,-1.074 2.082,-1.074 1.41,0 2.554,1.141 2.554,2.551 0,0.531 -0.164,1.047 -0.472,1.476 l -8.653,12.153 8.028,5.691 8.621,-12.277 c 0.48,-0.676 1.258,-1.078 2.082,-1.078 1.41,0 2.551,1.144 2.551,2.554 0,0.528 -0.164,1.047 -0.469,1.477 l -8.688,12.23 4.168,2.957 -10.472,14.77 c -2.828,3.988 -7.418,6.359 -12.305,6.359 -1.742,0 -3.461,-0.3 -5.098,-0.886 l -16.64,23.398 c -4.293,6.363 -11.461,10.176 -19.137,10.176 -16.375,0 -31.719,7.972 -41.137,21.363 l 63.52,0.059 -3.785,5.195 56.578,-0.008 c 3.832,0 6.941,3.11 6.941,6.942 0,3.836 -3.109,6.945 -6.941,6.945 l -66.278,-0.024 -4.851,6.93 H 162.957 l -10.988,-11.137 v -7.925 l -39.09,-50.039 -7.895,56.214 c -0.48,3.43 -3.414,5.981 -6.875,5.981 -3.836,0 -6.941,-3.109 -6.941,-6.945 0,-0.325 0.02,-0.649 0.066,-0.969 L 119.66,75.398 89.813,75.426 c -3.833,0 -6.942,-3.11 -6.942,-6.946 0,-3.832 3.109,-6.941 6.942,-6.941 h 78.515 c 3.832,0 6.942,3.109 6.942,6.941 0,3.836 -3.11,6.946 -6.942,6.946 l -34.676,-0.028" /><path
         id="path1339"
         style="fill:#000000;fill-opacity:1;fill-rule:nonzero;stroke:none"
         d="m 288.422,346.313 h -9.008 v -9.008 h 9.008 z m 0,54.042 h -9.008 V 355.32 h 9.008 z m -49.539,-27.019 h 19.14 c 0,-5.289 -4.285,-9.57 -9.57,-9.57 -5.285,0 -9.57,4.281 -9.57,9.57 z m 28.148,7.879 h -28.148 v 1.125 c 0,3.914 2.383,7.433 6.015,8.887 1.489,0.593 3.075,0.902 4.68,0.902 3.676,0 7.168,-1.606 9.563,-4.395 l 6.836,5.868 c -4.106,4.781 -10.094,7.535 -16.399,7.535 -2.746,0 -5.473,-0.528 -8.027,-1.547 -7.051,-2.824 -11.676,-9.652 -11.676,-17.25 v -9.004 c 0,-10.262 8.316,-18.582 18.578,-18.582 10.258,0 18.578,8.32 18.578,18.582 z m -72.058,19.14 V 355.32 h 9.007 v 5.082 c 2.887,-3.57 7.231,-5.648 11.821,-5.648 3.484,0 6.863,1.203 9.57,3.394 l -6.398,7.895 c -1.649,-1.469 -3.782,-2.277 -5.985,-2.277 -4.976,0 -9.008,4.031 -9.008,9.007 v 27.582 z m -28.145,0 v -37.718 h -4.508 v -7.317 h 4.508 v -6.754 c 0,-6.222 5.039,-11.261 11.258,-11.261 h 6.754 v 8.445 h -6.192 c -1.554,0 -2.816,1.262 -2.816,2.816 v 6.754 h 9.008 v 7.317 h -9.008 v 37.718 h -9.004" /></g></g></svg>