<?xml version="1.0" encoding="UTF-8" standalone="no"?>
<svg
   xmlns:dc="http://purl.org/dc/elements/1.1/"
   xmlns:cc="http://creativecommons.org/ns#"
   xmlns:rdf="http://www.w3.org/1999/02/22-rdf-syntax-ns#"
   xmlns:svg="http://www.w3.org/2000/svg"
   xmlns="http://www.w3.org/2000/svg"
   viewBox="0 0 600.99628 600.99628"
   height="600.99628"
   width="600.99628"
   xml:space="preserve"
   version="1.1"
   id="svg14166"><metadata
     id="metadata14172"><rdf:RDF><cc:Work
         rdf:about=""><dc:format>image/svg+xml</dc:format><dc:type
           rdf:resource="http://purl.org/dc/dcmitype/StillImage" /><dc:title></dc:title></cc:Work></rdf:RDF></metadata><defs
     id="defs14170"><clipPath
       id="clipPath14190"
       clipPathUnits="userSpaceOnUse"><path
         id="path14192"
         d="m 120,53 241,0 0,384 -241,0 0,-384 z" /></clipPath></defs><g
     transform="matrix(1.25,0,0,-1.25,0,600.99628)"
     id="g14174"><g
       id="g14176"><path
         id="path14178"
         style="fill:#ffffff;fill-opacity:1;fill-rule:nonzero;stroke:none"
         d="M 32.195,480.402 C 14.66,480.402 0.402,466.133 0.402,448.61 l 0,-416.415 C 0.402,14.66 14.66,0.402 32.195,0.402 l 416.414,0 c 17.524,0 31.793,14.258 31.793,31.793 l 0,416.415 c 0,17.523 -14.269,31.792 -31.793,31.792 l -416.414,0 z" /><path
         id="path14180"
         style="fill:#000000;fill-opacity:1;fill-rule:nonzero;stroke:none"
         d="M 32.203,480.797 C 14.449,480.797 0,466.356 0,448.617 L 0,32.203 C 0,14.453 14.449,0 32.203,0 l 416.414,0 c 17.738,0 32.18,14.453 32.18,32.203 l 0,416.414 c 0,17.739 -14.442,32.18 -32.18,32.18 l -416.414,0 z m -0.008,-0.395 416.414,0 c 17.52,0 31.793,-14.273 31.793,-31.792 l 0,-416.415 c 0,-17.535 -14.273,-31.793 -31.793,-31.793 l -416.414,0 C 14.66,0.402 0.402,14.66 0.402,32.195 l 0,416.415 c 0,17.519 14.258,31.792 31.793,31.792 z" /><path
         id="path14182"
         style="fill:#000000;fill-opacity:1;fill-rule:nonzero;stroke:none"
         d="m 32.195,472.625 c -13.273,0 -24.027,-10.754 -24.027,-24.015 l 0,-416.415 C 8.168,18.922 18.922,8.168 32.195,8.168 l 416.414,0 c 13.274,0 24.016,10.754 24.016,24.027 l 0,416.415 c 0,13.261 -10.742,24.015 -24.016,24.015 l -416.414,0 z m 0,-12.015 416.414,0 c 6.629,0 12.012,-5.368 12.012,-12 l 0,-416.415 c 0,-6.644 -5.383,-12.015 -12.012,-12.015 l -416.414,0 c -6.633,0 -12.015,5.371 -12.015,12.015 l 0,416.415 c 0,6.632 5.382,12 12.015,12 z" /><g
         transform="translate(0,-0.202972)"
         id="g14184"><g
           id="g14186"><g
             clip-path="url(#clipPath14190)"
             id="g14188"><g
               id="g14194"><path
                 id="path14196"
                 style="fill:#ffffff;fill-opacity:1;fill-rule:nonzero;stroke:none"
                 d="m 187.23,266.641 88.786,0 -26.09,-69.567 -62.696,69.567 z" /><path
                 id="path14198"
                 style="fill:#ffffff;fill-opacity:1;fill-rule:nonzero;stroke:none"
                 d="m 167.258,235.988 -11.75,-37.957 c -0.145,-0.48 -0.227,-0.98 -0.227,-1.488 0,-2.754 2.242,-4.996 5.008,-4.996 2.203,0 4.133,1.418 4.785,3.519 l 11.754,37.954 c 14.32,-6.485 23.52,-20.75 23.52,-36.477 0,-22.117 -17.93,-40.059 -40.059,-40.059 -22.113,0 -40.055,17.942 -40.055,40.059 0,22.129 17.942,40.055 40.055,40.055 2.344,0 4.672,-0.2 6.969,-0.61 z" /><path
                 id="path14200"
                 style="fill:#ffffff;fill-opacity:1;fill-rule:nonzero;stroke:none"
                 d="m 260.426,196.543 25.039,66.758 10.363,-23.196 c -15.699,-8.882 -25.394,-25.519 -25.394,-43.562 l -10.008,0 z" /><path
                 id="path14202"
                 style="fill:#ffffff;fill-opacity:1;fill-rule:nonzero;stroke:none"
                 d="m 280.453,196.543 c 0,14.082 7.395,27.141 19.488,34.367 l 15.344,-34.367 -34.832,0 z" /><path
                 id="path14204"
                 style="fill:#ffffff;fill-opacity:1;fill-rule:nonzero;stroke:none"
                 d="m 281.723,186.535 41.265,0 c 2.766,0 5.008,2.242 5.008,5.008 0,0.695 -0.156,1.391 -0.437,2.043 l -18.454,41.352 c 3.704,1.105 7.536,1.66 11.399,1.66 22.129,0 40.055,-17.93 40.055,-40.059 0,-22.113 -17.926,-40.055 -40.055,-40.055 -18.27,0 -34.211,12.364 -38.781,30.051" /><path
                 id="path14206"
                 style="fill:#000000;fill-opacity:1;fill-rule:nonzero;stroke:none"
                 d="m 298.078,121.242 9.61,0 0,-9.613 -9.61,0 0,9.613 z m 0,-19.222 9.61,0 0,-48.063 -9.61,0 0,48.063 z m -43.266,-19.231 20.442,0 c 0,5.649 -4.586,10.219 -10.219,10.219 -5.637,0 -10.223,-4.57 -10.223,-10.219 m 30.051,-8.406 -30.051,0 0,-1.203 c 0,-4.176 2.543,-7.938 6.43,-9.485 1.59,-0.636 3.281,-0.965 4.996,-0.965 3.918,0 7.653,1.719 10.207,4.7 l 7.282,-6.262 c -4.372,-5.109 -10.774,-8.047 -17.489,-8.047 -2.937,0 -5.847,0.567 -8.57,1.649 -7.523,3.007 -12.465,10.304 -12.465,18.41 l 0,9.609 c 0,10.957 8.871,19.828 19.832,19.828 10.942,0 19.828,-8.871 19.828,-19.828 l 0,-8.406 z m -76.906,-20.426 0,48.063 9.609,0 0,-5.422 c 3.082,3.804 7.723,6.019 12.622,6.019 3.718,0 7.324,-1.277 10.218,-3.621 l -6.828,-8.414 c -1.773,1.559 -4.043,2.426 -6.402,2.426 -5.309,0 -9.61,-4.301 -9.61,-9.61 l 0,-29.441 -9.609,0 z m -30.035,0 0,40.242 -4.809,0 0,7.821 4.809,0 0,7.21 c 0,6.629 5.367,12.012 12.012,12.012 l 7.211,0 0,-9.015 -6.618,0 c -1.66,0 -2.996,-1.332 -2.996,-2.997 l 0,-7.21 9.614,0 0,-7.821 -9.614,0 0,-40.242 -9.609,0 z" /><path
                 id="path14208"
                 style="fill:#000000;fill-opacity:1;fill-rule:nonzero;stroke:none"
                 d="m 207.402,276.254 c -7.168,0 -13.64,-4.367 -16.324,-11.024 l -13.726,-34.109 c -3.125,0.766 -6.317,1.152 -9.54,1.152 -21.859,0 -39.566,-17.722 -39.566,-39.566 0,-21.859 17.707,-39.59 39.566,-39.59 21.86,0 39.59,17.731 39.59,39.59 0,14.152 -7.57,27.234 -19.847,34.285 l 5.675,14.086 29.321,-42.074 c 6.57,-9.453 17.355,-15.059 28.855,-15.059 l 22.977,-0.047 c 4.101,-17.996 20.121,-30.781 38.59,-30.781 21.859,0 39.586,17.727 39.586,39.586 0,21.848 -17.727,39.567 -39.586,39.567 -20.399,0 -37.461,-15.512 -39.391,-35.84 l -25.793,-1.508 c -0.254,-0.012 -0.519,-0.024 -0.777,-0.024 -7.282,0 -13.196,5.895 -13.196,13.176 0,1.149 0.168,2.309 0.465,3.414 l 1.465,5.414 c 0.199,0.75 0.289,1.504 0.289,2.282 0,1.804 -0.562,3.539 -1.597,5.015 l -13.684,19.715 c -1.633,2.371 -4.348,3.77 -7.231,3.77 l -17.632,-0.02 5.367,13.484 c 1.008,2.497 3.445,4.125 6.144,4.125 l 17.61,0 0,10.977 -17.61,0 0,0.004 z m -39.566,-54.961 c 1.805,0 3.586,-0.168 5.344,-0.508 l 0.023,-0.023 -10.469,-26.016 c -0.254,-0.652 -0.398,-1.332 -0.398,-2.039 0,-3.023 2.461,-5.48 5.5,-5.48 2.242,0 4.242,1.343 5.078,3.418 l 10.492,26.035 c 8.117,-5.278 13.02,-14.282 13.02,-23.973 0,-15.785 -12.793,-28.59 -28.59,-28.59 -15.797,0 -28.609,12.805 -28.609,28.59 0,15.797 12.812,28.586 28.609,28.586 z m 145.137,0 c 15.797,0 28.609,-12.789 28.609,-28.586 0,-15.785 -12.812,-28.59 -28.609,-28.59 -12.407,0 -23.395,7.973 -27.215,19.785 l 35.996,0 0,15.391 -37.039,-2.172 c 2.172,13.922 14.16,24.172 28.258,24.172 z" /><path
                 id="path14210"
                 style="fill:#000000;fill-opacity:1;fill-rule:nonzero;stroke:none"
                 d="m 343.754,247.668 0,-11 -30.774,0.016 c -9.027,0 -17.839,-2.782 -25.238,-7.95 l -16.859,10.946 c -1.18,0.82 -1.891,2.172 -1.891,3.605 0,2.442 1.973,4.414 4.414,4.414 l 70.348,-0.031 z" /><path
                 id="path14212"
                 style="fill:#000000;fill-opacity:1;fill-rule:nonzero;stroke:none"
                 d="m 208.953,436.871 c -7.562,0 -14.25,-4.914 -16.476,-12.152 l -12.508,-40.5 c -2.824,0.566 -5.715,0.867 -8.586,0.867 -23.828,0 -43.137,-19.309 -43.137,-43.141 0,-23.816 19.309,-43.136 43.137,-43.136 23.82,0 43.14,19.32 43.14,43.136 0,17.332 -10.375,32.969 -26.328,39.723 l 3.438,11.066 50.988,-56.554 c 1.633,-1.817 3.945,-2.84 6.387,-2.84 l 18.144,-0.02 c 4.102,-20.101 21.762,-34.511 42.27,-34.511 23.82,0 43.137,19.32 43.137,43.136 0,23.832 -19.317,43.141 -43.137,43.141 -4.539,0 -9.059,-0.727 -13.371,-2.133 l -12.512,28.012 3.219,8.629 9.715,0 0,8.629 -36.641,0 c -1.191,0 -2.172,-0.981 -2.172,-2.176 0,-0.992 0.684,-1.856 1.66,-2.082 l 18.231,-4.371 -3.235,-8.629 -77.05,0 3.461,11.18 c 1.121,3.605 4.468,6.078 8.226,6.078 l 14.195,0 0,8.625 -14.195,0.023 z m -14.371,-34.531 76.496,0 -22.469,-59.926 -54.027,59.926 z m -23.199,-25.86 c 2.015,0 4.023,-0.179 6.012,-0.535 l 0,-0.023 -10.137,-32.692 c -0.125,-0.41 -0.199,-0.859 -0.199,-1.285 0,-2.398 1.941,-4.324 4.324,-4.324 1.902,0 3.574,1.234 4.125,3.039 l 10.113,32.735 c 12.352,-5.594 20.297,-17.907 20.297,-31.45 0,-19.078 -15.457,-34.531 -34.535,-34.531 -19.063,0 -34.531,15.453 -34.531,34.531 0,19.063 15.468,34.532 34.531,34.532 l 0,0.003 z m 138.039,0 c 19.062,0 34.512,-15.457 34.512,-34.535 0,-19.062 -15.45,-34.531 -34.512,-34.531 -15.738,0 -29.496,10.645 -33.445,25.906 l 0.023,0 35.574,-0.023 c 2.387,0 4.324,1.926 4.324,4.324 0,0.609 -0.121,1.199 -0.375,1.754 l -15.945,35.66 c 3.192,0.953 6.508,1.442 9.844,1.442 l 0,0.003 z" /><path
                 id="path14214"
                 style="fill:#ffffff;fill-opacity:1;fill-rule:nonzero;stroke:none"
                 d="m 257.652,341.945 21.578,57.516 8.915,-19.984 c -13.516,-7.665 -21.875,-22 -21.875,-37.532 l -8.618,0 z" /><path
                 id="path14216"
                 style="fill:#ffffff;fill-opacity:1;fill-rule:nonzero;stroke:none"
                 d="m 274.887,341.941 c 0,12.137 6.375,23.395 16.793,29.625 l 13.242,-29.625 -30.035,0" /></g></g></g></g></g></g></svg>