<?xml version="1.0" encoding="UTF-8" standalone="no"?>
<svg
   xmlns:dc="http://purl.org/dc/elements/1.1/"
   xmlns:cc="http://creativecommons.org/ns#"
   xmlns:rdf="http://www.w3.org/1999/02/22-rdf-syntax-ns#"
   xmlns:svg="http://www.w3.org/2000/svg"
   xmlns="http://www.w3.org/2000/svg"
   viewBox="0 0 600 450.00339"
   height="450.00339"
   width="600"
   xml:space="preserve"
   version="1.1"
   id="svg5522"><metadata
     id="metadata5528"><rdf:RDF><cc:Work
         rdf:about=""><dc:format>image/svg+xml</dc:format><dc:type
           rdf:resource="http://purl.org/dc/dcmitype/StillImage" /><dc:title></dc:title></cc:Work></rdf:RDF></metadata><defs
     id="defs5526" /><g
     transform="matrix(1.25,0,0,-1.25,0,450.00339)"
     id="g5530"><g
       id="g5532"><path
         id="path5534"
         style="fill:#ffffff;fill-opacity:1;fill-rule:nonzero;stroke:none"
         d="m 31.996,359.772 c -17.504,0 -31.754,-14.25 -31.754,-31.765 l 0,-296.008 c 0,-17.508 14.25,-31.758 31.754,-31.758 l 416.008,0 c 17.516,0 31.766,14.25 31.766,31.758 l 0,296.008 c 0,17.515 -14.25,31.765 -31.766,31.765" /><path
         id="path5536"
         style="fill:#000000;fill-opacity:1;fill-rule:nonzero;stroke:none"
         d="M 31.996,0.471 C 14.613,0.471 0.473,14.612 0.473,31.999 l 0,296.008 c 0,17.382 14.14,31.523 31.523,31.523 l 416.008,0 c 17.383,0 31.523,-14.141 31.523,-31.523 l 0,-296.008 c 0,-17.387 -14.14,-31.528 -31.523,-31.528 l -416.008,0 z m 416.008,359.532 -416.008,0 C 14.328,360.003 0,345.675 0,328.007 L 0,31.999 c 0,-17.672 14.328,-32 31.996,-32 l 416.008,0 c 17.668,0 31.996,14.328 31.996,32 l 0,296.008 c 0,17.668 -14.328,31.996 -31.996,31.996" /><path
         id="path5538"
         style="fill:#000000;fill-opacity:1;fill-rule:nonzero;stroke:none"
         d="m 31.996,7.995 c -13.25,0 -23.992,10.754 -23.992,24.004 l 0,296.008 c 0,13.257 10.742,24.004 23.992,24.004 l 416.008,0 c 13.25,0 24.004,-10.747 24.004,-24.004 l 0,-296.008 c 0,-13.25 -10.754,-24.004 -24.004,-24.004" /><path
         id="path5540"
         style="fill:#ffffff;fill-opacity:1;fill-rule:nonzero;stroke:none"
         d="M 31.996,20.003 C 25.379,20.003 20,25.366 20,31.999 l 0,296.008 c 0,6.629 5.379,11.996 11.996,11.996 l 416.008,0 c 6.629,0 12.004,-5.367 12.004,-11.996 l 0,-296.008 c 0,-6.633 -5.375,-11.996 -12.004,-11.996" /><path
         id="path5542"
         style="fill:#000000;fill-opacity:1;fill-rule:nonzero;stroke:none"
         d="m 307.199,120.8 -9.597,0 0,9.601 9.597,0 0,-9.601 z m 0,-57.598 -9.597,0 0,48 9.597,0 0,-48 z m -52.801,28.801 20.411,0 c 0,5.629 -4.575,10.203 -10.207,10.203 -5.629,0 -10.204,-4.574 -10.204,-10.203 z m 30.008,-8.403 -30.008,0 0,-1.199 c 0,-4.164 2.54,-7.914 6.422,-9.465 5.332,-2.144 11.438,-0.633 15.176,3.727 l 7.289,-6.27 c -6.422,-7.465 -16.89,-10.027 -26.027,-6.375 -7.531,3.012 -12.457,10.293 -12.457,18.383 l 0,9.602 c 0,10.929 8.863,19.8 19.801,19.8 10.941,0 19.804,-8.871 19.804,-19.8 l 0,-8.403 z m -76.804,-20.398 0,48 9.597,0 0,-5.41 c 5.629,6.949 15.824,8.035 22.785,2.406 l 0.016,0 -6.828,-8.41 c -3.957,3.527 -10.027,3.164 -13.547,-0.793 -1.559,-1.75 -2.43,-4.024 -2.43,-6.387 l 0,-29.394 -9.597,0 0.004,-0.012 z m -29.997,0 0,40.203 -4.804,0 0,7.797 4.804,0 0,7.199 c 0,6.633 5.364,12 11.997,12 l 7.203,0 0,-8.996 -6.598,0 c -1.66,0 -3.004,-1.34 -3.004,-3.004 l 0,-7.199 9.602,0 0,-7.797 -9.602,0 0,-40.203" /><path
         id="path5544"
         style="fill:#000000;fill-opacity:1;fill-rule:nonzero;stroke:none"
         d="m 108.465,258.139 -42.215,-2.64 c -1.926,-0.121 -3.586,-1.352 -4.266,-3.156 L 51.238,223.686 c -0.824,-2.187 -1.242,-4.508 -1.242,-6.847 l 0,-26.907 c 0,-2.695 2.192,-4.871 4.875,-4.871 l 2.438,0 c 0,12.106 9.82,21.922 21.925,21.922 12.106,0 21.918,-9.816 21.918,-21.922 l 87.7,0 c 0,6.617 2.992,12.887 8.136,17.043 l -88.523,0 0,56.035 z m -17.055,-8.535 0,-24.355 -32.34,-3.805 c -1.343,-0.148 -2.55,0.801 -2.707,2.133 -0.043,0.387 0,0.785 0.133,1.144 l 8.172,21.774 c 0.34,0.902 1.164,1.516 2.133,1.57 l 24.609,1.539 z" /><path
         id="path5546"
         style="fill:#000000;fill-opacity:1;fill-rule:nonzero;stroke:none"
         d="m 227.82,185.061 c 0,-9.425 -7.629,-17.054 -17.05,-17.054 -9.415,0 -17.047,7.629 -17.047,17.054 0,9.41 7.632,17.043 17.047,17.043 9.421,0 17.05,-7.633 17.05,-17.043 z m -131.543,0 c 0,-9.425 -7.629,-17.054 -17.043,-17.054 -9.422,0 -17.054,7.629 -17.054,17.054 0,9.41 7.632,17.043 17.054,17.043 9.414,0 17.043,-7.633 17.043,-17.043" /><path
         id="path5548"
         style="fill:#000000;fill-opacity:1;fill-rule:nonzero;stroke:none"
         d="m 244.875,185.061 -12.184,0 c 0,6.617 -2.988,12.887 -8.136,17.043 l 34.933,0 0,-12.172" /><path
         id="path5550"
         style="fill:#000000;fill-opacity:1;fill-rule:nonzero;stroke:none"
         d="m 118.203,275.194 141.285,0 0,-68.211 -141.285,0 0,68.211 z" /><path
         id="path5552"
         style="fill:#000000;fill-opacity:1;fill-rule:nonzero;stroke:none"
         d="m 430.004,189.932 -17.594,0 c -1.101,4.793 -3.773,9.082 -7.598,12.172 l 25.192,0 0,-12.172 z m -100.414,0 c -1.102,4.793 -3.774,9.082 -7.61,12.172 l 55.274,0 c -3.836,-3.09 -6.508,-7.379 -7.598,-12.172 l -40.066,0 z m -60.36,0 0,12.172 25.192,0 c -3.824,-3.09 -6.496,-7.379 -7.586,-12.172" /><path
         id="path5554"
         style="fill:#000000;fill-opacity:1;fill-rule:nonzero;stroke:none"
         d="m 408.086,185.061 c 0,-9.425 -7.641,-17.054 -17.055,-17.054 -9.41,0 -17.054,7.629 -17.054,17.054 0,9.41 7.644,17.043 17.054,17.043 9.414,0 17.055,-7.633 17.055,-17.043 z m -82.828,0 c 0,-9.425 -7.633,-17.054 -17.047,-17.054 -9.422,0 -17.055,7.629 -17.055,17.054 0,9.41 7.633,17.043 17.055,17.043 9.414,0 17.047,-7.633 17.047,-17.043" /><path
         id="path5556"
         style="fill:#000000;fill-opacity:1;fill-rule:nonzero;stroke:none"
         d="m 278.977,275.194 151.027,0 0,-68.211 -151.027,0 0,68.211 z" /></g></g></svg>