<?xml version="1.0" encoding="UTF-8" standalone="no"?>
<!-- Created with Inkscape (http://www.inkscape.org/) -->

<svg
   xmlns:dc="http://purl.org/dc/elements/1.1/"
   xmlns:cc="http://creativecommons.org/ns#"
   xmlns:rdf="http://www.w3.org/1999/02/22-rdf-syntax-ns#"
   xmlns:svg="http://www.w3.org/2000/svg"
   xmlns="http://www.w3.org/2000/svg"
   xmlns:sodipodi="http://sodipodi.sourceforge.net/DTD/sodipodi-0.dtd"
   xmlns:inkscape="http://www.inkscape.org/namespaces/inkscape"
   width="159.01491mm"
   height="159.01491mm"
   viewBox="0 0 159.01491 159.01491"
   version="1.1"
   id="svg3846"
   inkscape:version="0.92.4 (33fec40, 2019-01-16)"
   sodipodi:docname="1024-19.svg">
  <defs
     id="defs3840" />
  <sodipodi:namedview
     id="base"
     pagecolor="#ffffff"
     bordercolor="#666666"
     borderopacity="1.0"
     inkscape:pageopacity="0.0"
     inkscape:pageshadow="2"
     inkscape:zoom="0.35"
     inkscape:cx="271.9292"
     inkscape:cy="360.50062"
     inkscape:document-units="mm"
     inkscape:current-layer="layer1"
     showgrid="false"
     fit-margin-top="0"
     fit-margin-left="0"
     fit-margin-right="0"
     fit-margin-bottom="0"
     inkscape:window-width="1366"
     inkscape:window-height="740"
     inkscape:window-x="1920"
     inkscape:window-y="0"
     inkscape:window-maximized="1" />
  <metadata
     id="metadata3843">
    <rdf:RDF>
      <cc:Work
         rdf:about="">
        <dc:format>image/svg+xml</dc:format>
        <dc:type
           rdf:resource="http://purl.org/dc/dcmitype/StillImage" />
        <dc:title></dc:title>
      </cc:Work>
    </rdf:RDF>
  </metadata>
  <g
     inkscape:label="Layer 1"
     inkscape:groupmode="layer"
     id="layer1"
     transform="translate(-33.885399,-85.200875)">
    <path
       d="M 44.600363,85.332505 H 182.18502 c 5.84597,0 10.58201,4.736373 10.58201,10.583334 V 233.49917 c 0,5.8473 -4.73604,10.58334 -10.58201,10.58334 H 44.600363 c -5.846961,0 -10.583334,-4.73604 -10.583334,-10.58334 V 95.915839 c 0,-5.846961 4.736373,-10.583334 10.583334,-10.583334"
       style="fill:#ffffff;fill-opacity:1;fill-rule:nonzero;stroke:none;stroke-width:0.33072916"
       id="path23223"
       inkscape:connector-curvature="0" />
    <path
       d="M 44.600363,87.979662 H 182.18502 c 4.38481,0 7.93519,3.555338 7.93519,7.936177 V 233.49917 c 0,4.38481 -3.55038,7.93651 -7.93519,7.93651 H 44.600363 c -4.384477,0 -7.936178,-3.5517 -7.936178,-7.93651 V 95.915839 c 0,-4.380839 3.551701,-7.936177 7.936178,-7.936177"
       style="fill:#000000;fill-opacity:1;fill-rule:nonzero;stroke:none;stroke-width:0.33072916"
       id="path23225"
       inkscape:connector-curvature="0" />
    <path
       d="M 44.600363,91.948412 H 182.18502 c 2.1924,0 3.96743,1.775354 3.96743,3.967427 V 233.49917 c 0,2.19373 -1.77503,3.96875 -3.96743,3.96875 H 44.600363 c -2.192073,0 -3.967427,-1.77502 -3.967427,-3.96875 V 95.915839 c 0,-2.192073 1.775354,-3.967427 3.967427,-3.967427"
       style="fill:#ffffff;fill-opacity:1;fill-rule:nonzero;stroke:none;stroke-width:0.33072916"
       id="path23227"
       inkscape:connector-curvature="0" />
    <g
       id="g23229"
       transform="matrix(0.33072917,0,0,0.33072917,33.885399,85.200878)">
      <path
         d="m 32.398,20.402 h 416.004 c 6.629,0 11.996,5.368 11.996,11.996 v 416 c 0,6.633 -5.367,12 -11.996,12 H 32.398 c -6.628,0 -11.996,-5.367 -11.996,-12 v -416 c 0,-6.628 5.368,-11.996 11.996,-11.996 z"
         style="fill:none;stroke:#000000;stroke-width:0.80000001;stroke-linecap:butt;stroke-linejoin:miter;stroke-miterlimit:4;stroke-dasharray:none;stroke-opacity:1"
         id="path23231"
         inkscape:connector-curvature="0" />
    </g>
    <path
       d="m 171.41846,220.88119 v -14.55076 h 2.90943 v 1.4572 c 0.53842,-1.01137 1.58882,-1.63943 2.72719,-1.63943 1.70921,0 3.09662,1.38245 3.09662,3.09166 v 11.64133 h -2.91472 V 210.5135 c 0,-0.80467 -0.65087,-1.45587 -1.4519,-1.45587 -0.80632,0 -1.45719,0.6512 -1.45719,1.45587 v 10.36769 z m -8.36645,-8.54968 h 2.90942 v -1.81801 c 0,-0.80467 -0.6512,-1.45587 -1.45223,-1.45587 -0.80599,0 -1.45719,0.6512 -1.45719,1.45587 z m 5.81885,4.36662 c 0,2.41333 -1.95494,4.36662 -4.36166,4.36662 -2.41333,0 -4.37191,-1.95329 -4.37191,-4.36662 v -6.18463 c 0,-2.41201 1.95858,-4.3653 4.37191,-4.3653 2.40672,0 4.36166,1.95329 4.36166,4.3653 v 4.18471 h -5.81885 v 1.99992 c 0,0.80599 0.6512,1.45719 1.45719,1.45719 0.80103,0 1.45223,-0.6512 1.45223,-1.45719 z m -25.82797,4.18306 v -14.55076 h 2.90943 v 1.4572 c 0.53875,-1.01137 1.5875,-1.63943 2.72587,-1.63943 1.07354,0 2.07102,0.55695 2.63293,1.46645 0.64724,-0.91876 1.70127,-1.46645 2.82542,-1.46645 1.91195,0 3.45711,1.54517 3.45711,3.45711 v 11.27588 h -2.90942 V 210.5135 c 0,-0.80467 -0.65121,-1.45587 -1.45587,-1.45587 -0.80235,0 -1.45752,0.6512 -1.45752,1.45587 v 10.36769 h -2.9091 V 210.5135 c 0,-0.80467 -0.6512,-1.45587 -1.45223,-1.45587 -0.80632,0 -1.45719,0.6512 -1.45719,1.45587 v 10.36769 z m -17.46547,0 v -14.55076 h 2.90942 v 1.4572 c 0.53876,-1.01137 1.58783,-1.63943 2.73116,-1.63943 1.07355,0 2.06574,0.55695 2.62897,1.46645 0.6512,-0.91876 1.70524,-1.46645 2.82939,-1.46645 1.90665,0 3.45182,1.54517 3.45182,3.45711 v 11.27588 h -2.90811 V 210.5135 c 0,-0.80467 -0.65219,-1.45587 -1.45322,-1.45587 -0.80499,0 -1.4562,0.6512 -1.4562,1.45587 v 10.36769 h -2.90909 V 210.5135 c 0,-0.80467 -0.65121,-1.45587 -1.45753,-1.45587 -0.80102,0 -1.45719,0.6512 -1.45719,1.45587 v 10.36769 z m -8.73192,-4.18306 c 0,0.80599 0.65617,1.45719 1.4572,1.45719 0.80499,0 1.45587,-0.6512 1.45587,-1.45719 v -6.18463 c 0,-0.80467 -0.65088,-1.45587 -1.45587,-1.45587 -0.80103,0 -1.4572,0.6512 -1.4572,1.45587 z m -2.90942,0 v -6.18463 c 0,-2.41201 1.95858,-4.3653 4.36662,-4.3653 2.412,0 4.36529,1.95329 4.36529,4.3653 v 6.18463 c 0,2.41333 -1.95329,4.36662 -4.36529,4.36662 -2.40804,0 -4.36662,-1.95329 -4.36662,-4.36662 m -11.2772,4.18306 v -14.55076 h 2.90942 v 1.4572 c 0.53876,-1.01137 1.58915,-1.63943 2.73249,-1.63943 1.70391,0 3.09165,1.38245 3.09165,3.09166 v 11.64133 h -2.90942 V 210.5135 c 0,-0.80467 -0.65121,-1.45587 -1.45753,-1.45587 -0.80598,0 -1.45719,0.6512 -1.45719,1.45587 v 10.36769 z m -8.36646,-8.54968 h 2.909425 v -1.81801 c 0,-0.80467 -0.650875,-1.45587 -1.451901,-1.45587 -0.806318,0 -1.457524,0.6512 -1.457524,1.45587 z m 5.81885,4.36662 c 0,2.41333 -1.953287,4.36662 -4.361326,4.36662 -2.413331,0 -4.366617,-1.95329 -4.366617,-4.36662 v -6.18463 c 0,-2.41201 1.953286,-4.3653 4.366617,-4.3653 2.408039,0 4.361326,1.95329 4.361326,4.3653 v 4.18471 h -5.81885 v 1.99992 c 0,0.80599 0.651206,1.45719 1.457524,1.45719 0.801026,0 1.451901,-0.6512 1.451901,-1.45719 z m -14.550761,0 v -6.18463 c 0,-0.80467 -0.651206,-1.45587 -1.453224,-1.45587 -0.804995,0 -1.456201,0.6512 -1.456201,1.45587 v 6.18463 c 0,0.80599 0.651206,1.45719 1.456201,1.45719 0.802018,0 1.453224,-0.6512 1.453224,-1.45719 m -2.909425,5.81852 c 0,0.80632 0.651206,1.45752 1.456201,1.45752 0.802018,0 1.453224,-0.6512 1.453224,-1.45752 v -3.08769 c -0.538758,1.00773 -1.589154,1.63579 -2.727193,1.63579 -1.710531,0 -3.091656,-1.38774 -3.091656,-3.09166 v -8.73323 c 0,-1.70921 1.381125,-3.09166 3.091656,-3.09166 1.138039,0 2.188435,0.62806 2.727193,1.63943 v -1.4572 h 2.908101 v 16.18622 c 0,2.41333 -1.953286,4.36695 -4.361325,4.36695 -2.412008,0 -4.365625,-1.95362 -4.365625,-4.36695 z m -13.460346,-5.81852 h 2.727193 c 0,0.90422 0.731242,1.63943 1.639424,1.63943 0.899253,0 1.635456,-0.73521 1.635456,-1.63943 0,-0.64591 -0.379677,-1.23263 -0.97532,-1.49489 l -2.356446,-0.86552 c -1.512755,-0.67039 -2.486752,-2.16926 -2.486752,-3.82422 0,-2.30849 1.869281,-4.18307 4.183062,-4.18307 2.310143,0 4.183393,1.87458 4.183393,4.18307 h -2.731161 c 0,-0.80467 -0.651206,-1.45587 -1.452232,-1.45587 -0.805987,0 -1.457193,0.6512 -1.457193,1.45587 0,0.57778 0.337013,1.09702 0.866842,1.33085 l 2.356445,0.86287 c 1.57857,0.69784 2.595562,2.26219 2.595562,3.99091 0,2.41333 -1.953617,4.36662 -4.361656,4.36662 -2.412008,0 -4.366617,-1.95329 -4.366617,-4.36662 m -2.182151,4.18306 h -2.914386 v -1.45223 c -0.533466,1.00773 -1.583862,1.63579 -2.727192,1.63579 -1.704248,0 -3.091657,-1.38774 -3.091657,-3.09166 v -11.64266 h 2.909425 v 10.3677 c 0,0.80599 0.651206,1.45719 1.457193,1.45719 0.801026,0 1.452231,-0.6512 1.452231,-1.45719 v -10.3677 h 2.914386 z m -14.552084,-6.36653 h -1.455869 c -0.806318,0 -1.457193,0.6512 -1.457193,1.45719 v 0.72628 c 0,0.80599 0.650875,1.45719 1.457193,1.45719 0.801026,0 1.455869,-0.6512 1.455869,-1.45719 z m 2.909425,6.36653 h -2.909425 v -1.45223 c -0.538757,1.00773 -1.5875,1.63579 -2.73083,1.63579 -1.705571,0 -3.091657,-1.38774 -3.091657,-3.09166 v -2.18314 c 0,-2.0105 1.630495,-3.64067 3.639344,-3.64067 h 2.183143 v -1.63578 c 0,-0.80467 -0.654843,-1.45587 -1.455869,-1.45587 -0.806318,0 -1.457193,0.6512 -1.457193,1.45587 h -2.909425 c 0,-2.41201 1.953287,-4.3653 4.366618,-4.3653 2.412007,0 4.365294,1.95329 4.365294,4.3653 z"
       style="fill:#000000;fill-opacity:1;fill-rule:nonzero;stroke:none;stroke-width:0.33072916"
       id="path23235"
       inkscape:connector-curvature="0" />
    <path
       d="m 159.66468,144.86376 -10.58333,3.52821 -3.52822,0.004 c 0,-4.87164 -3.95321,-8.82121 -8.8265,-8.82121 -4.87164,0 -8.82121,3.94957 -8.82121,8.82121 H 94.408837 c 0,-4.87164 -3.949237,-8.82121 -8.8265,-8.82121 -4.871641,0 -8.820878,3.94957 -8.820878,8.82121 l -7.050153,-0.0142 c -0.975321,0 -1.762125,-0.7868 -1.762125,-1.75551 v -10.05383 c 0,-0.74018 0.463682,-1.40163 1.15226,-1.65497 l 8.371748,-3.06289 c 0.688578,-0.24804 1.278929,-0.71206 1.696309,-1.31266 l 6.498167,-9.4529 c 0.397867,-0.58671 1.016992,-0.98458 1.7145,-1.10596 l 8.783505,-1.57857 v -1.76246 l -23.596534,0.005 c -0.702799,0 -1.378479,-0.28179 -1.874573,-0.77788 l -2.229776,-2.2387 c -0.328414,-0.32809 -0.515606,-0.77788 -0.515606,-1.24685 v -2.06177 c 0,-0.46368 0.187192,-0.91347 0.515606,-1.24553 l 9.39337,-6.10029 c 0.43524,-0.28939 0.945555,-0.4445 1.470091,-0.4445 h 48.586432 l 7.05644,3.52821 22.92217,0.004 c 0.974,0 1.76081,0.78681 1.76081,1.75717 z m -15.88691,3.53218 c 0,3.89401 -3.1535,7.05115 -7.05114,7.05115 -3.89236,0 -7.04983,-3.15714 -7.04983,-7.05115 0,-3.89235 3.15747,-7.04982 7.04983,-7.04982 3.89764,0 7.05114,3.15747 7.05114,7.04982 m -51.143956,0 c 0,3.89401 -3.157472,7.05115 -7.051477,7.05115 -3.892352,0 -7.049823,-3.15714 -7.049823,-7.05115 0,-3.89235 3.157471,-7.04982 7.049823,-7.04982 3.894005,0 7.051477,3.15747 7.051477,7.04982"
       style="fill:#000000;fill-opacity:1;fill-rule:nonzero;stroke:none;stroke-width:0.33072916"
       id="path23237"
       inkscape:connector-curvature="0" />
    <path
       d="m 95.28097,121.58108 c 0.488156,0 0.886023,0.39787 0.886023,0.88504 v 8.15181 c 0,0.47294 -0.374385,0.86188 -0.848651,0.88503 l -13.646547,0.59564 h -0.03208 c -0.384969,0 -0.699162,-0.31386 -0.699162,-0.7028 0,-0.1356 0.0377,-0.27153 0.11774,-0.38893 l 5.761963,-8.64427 c 0.324115,-0.48684 0.871802,-0.78152 1.462485,-0.78152 z m -12.344466,-8.466 c -0.486834,0 -0.884701,-0.39787 -0.884701,-0.8847 v -5.29431 c 0,-0.48717 0.397867,-0.88504 0.884701,-0.88504 H 95.28097 c 0.488156,0 0.886023,0.39787 0.886023,0.88504 v 5.29431 c 0,0.48683 -0.397867,0.8847 -0.886023,0.8847 z m 49.387456,14.11552 c -0.49113,0 -0.89032,-0.39787 -0.89032,-0.88503 v -8.82617 c 0,-0.48717 0.39919,-0.88636 0.89032,-0.88636 h 12.34017 c 0.49212,0 0.89032,0.39919 0.89032,0.88636 v 8.82617 c 0,0.48716 -0.3982,0.88503 -0.89032,0.88503 0,0 -12.34017,-0.005 -12.34017,0 m -22.93144,17.63316 h 0.004 c -0.4908,0 -0.8847,-0.39787 -0.8847,-0.8847 V 117.5194 c 0,-0.48717 0.3939,-0.88636 0.8847,-0.88636 h 14.10262 c 0.4908,0 0.88503,0.39919 0.88503,0.88636 v 26.45966 c 0,0.48683 -0.39423,0.8847 -0.88503,0.8847 z"
       style="fill:#ffffff;fill-opacity:1;fill-rule:nonzero;stroke:none;stroke-width:0.33072916"
       id="path23239"
       inkscape:connector-curvature="0" />
    <path
       d="m 44.600363,85.200875 c -5.918068,0 -10.714964,4.796896 -10.714964,10.714964 V 233.49917 c 0,5.9184 4.796896,10.71662 10.714964,10.71662 H 182.1837 c 5.9184,0 10.71661,-4.79822 10.71661,-10.71662 V 95.915839 c 0,-5.918068 -4.79821,-10.714964 -10.71661,-10.714964 z m 0,0.13163 H 182.1837 c 5.84729,0 10.58333,4.736373 10.58333,10.583334 V 233.49917 c 0,5.8473 -4.73604,10.58334 -10.58333,10.58334 H 44.600363 c -5.846961,0 -10.583334,-4.73604 -10.583334,-10.58334 V 95.915839 c 0,-5.846961 4.736373,-10.583334 10.583334,-10.583334 z"
       style="fill:#000000;fill-opacity:1;fill-rule:nonzero;stroke:none;stroke-width:0.33072916"
       id="path23241"
       inkscape:connector-curvature="0" />
  </g>
</svg>
