<?xml version="1.0" encoding="UTF-8" standalone="no"?>
<svg
   xmlns:dc="http://purl.org/dc/elements/1.1/"
   xmlns:cc="http://creativecommons.org/ns#"
   xmlns:rdf="http://www.w3.org/1999/02/22-rdf-syntax-ns#"
   xmlns:svg="http://www.w3.org/2000/svg"
   xmlns="http://www.w3.org/2000/svg"
   viewBox="0 0 600 450.00342"
   height="450.00342"
   width="600"
   xml:space="preserve"
   version="1.1"
   id="svg4987"><metadata
     id="metadata4993"><rdf:RDF><cc:Work
         rdf:about=""><dc:format>image/svg+xml</dc:format><dc:type
           rdf:resource="http://purl.org/dc/dcmitype/StillImage" /><dc:title></dc:title></cc:Work></rdf:RDF></metadata><defs
     id="defs4991" /><g
     transform="matrix(1.25,0,0,-1.25,0,450.00343)"
     id="g4995"><g
       id="g4997"><path
         id="path4999"
         style="fill:#ffffff;fill-opacity:1;fill-rule:nonzero;stroke:none"
         d="m 31.996,359.772 c -17.504,0 -31.754,-14.25 -31.754,-31.765 l 0,-296.008 c 0,-17.508 14.25,-31.758 31.754,-31.758 l 416.008,0 c 17.516,0 31.766,14.25 31.766,31.758 l 0,296.008 c 0,17.515 -14.25,31.765 -31.766,31.765" /><path
         id="path5001"
         style="fill:#000000;fill-opacity:1;fill-rule:nonzero;stroke:none"
         d="M 31.996,0.471 C 14.613,0.471 0.473,14.612 0.473,31.999 l 0,296.008 c 0,17.382 14.14,31.523 31.523,31.523 l 416.008,0 c 17.383,0 31.523,-14.141 31.523,-31.523 l 0,-296.008 c 0,-17.387 -14.14,-31.528 -31.523,-31.528 l -416.008,0 z m 416.008,359.532 -416.008,0 C 14.328,360.003 0,345.675 0,328.007 L 0,31.999 c 0,-17.672 14.328,-32 31.996,-32 l 416.008,0 c 17.668,0 31.996,14.328 31.996,32 l 0,296.008 c 0,17.668 -14.328,31.996 -31.996,31.996" /><path
         id="path5003"
         style="fill:#000000;fill-opacity:1;fill-rule:nonzero;stroke:none"
         d="m 31.996,8.007 c -13.25,0 -23.992,10.742 -23.992,23.992 l 0,296.008 c 0,13.257 10.742,24.004 23.992,24.004 l 416.008,0 c 13.25,0 24.004,-10.747 24.004,-24.004 l 0,-296.008 c 0,-13.25 -10.754,-23.992 -24.004,-23.992" /><path
         id="path5005"
         style="fill:#ffffff;fill-opacity:1;fill-rule:nonzero;stroke:none"
         d="M 31.996,20.003 C 25.379,20.003 20,25.366 20,31.999 l 0,296.008 c 0,6.629 5.379,11.996 11.996,11.996 l 416.008,0 c 6.629,0 12.004,-5.367 12.004,-11.996 l 0,-296.008 c 0,-6.633 -5.375,-11.996 -12.004,-11.996" /><path
         id="path5007"
         style="fill:#000000;fill-opacity:1;fill-rule:nonzero;stroke:none"
         d="m 307.199,103.315 -9.597,0 0,9.614 9.597,0 0,-9.614 z m 0,-57.594 -9.597,0 0,47.997 9.597,0 0,-47.997 z m -52.801,28.797 20.411,0 c 0,5.641 -4.575,10.203 -10.207,10.203 -5.629,0 -10.204,-4.562 -10.204,-10.203 z m 30.008,-8.402 -30.008,0 0,-1.195 c 0,-4.168 2.54,-7.918 6.422,-9.469 5.332,-2.133 11.438,-0.637 15.176,3.727 l 7.289,-6.254 c -6.422,-7.481 -16.89,-10.039 -26.027,-6.379 -7.531,3 -12.457,10.281 -12.457,18.375 l 0,9.597 c 0,10.942 8.863,19.805 19.801,19.805 10.941,0 19.804,-8.863 19.804,-19.805 l 0,-8.402 z m -76.804,-20.395 0,47.997 9.597,0 0,-5.411 c 5.629,6.961 15.824,8.047 22.785,2.418 0.008,-0.007 0.008,-0.007 0.016,-0.007 l -6.828,-8.422 c -3.957,3.519 -10.027,3.175 -13.547,-0.782 -1.559,-1.769 -2.43,-4.035 -2.43,-6.39 l 0,-29.403 -9.597,0 0.004,0 z m -29.997,0 0,40.2 -4.804,0 0,7.797 4.804,0 0,7.203 c 0,6.629 5.364,12.008 11.997,12.008 l 7.203,0 0,-9.008 -6.598,0 c -1.66,0 -3.004,-1.328 -3.004,-3 l 0,-7.203 9.602,0 0,-7.797 -9.602,0 0,-40.2" /><path
         id="path5009"
         style="fill:#000000;fill-opacity:1;fill-rule:nonzero;stroke:none"
         d="m 119.996,128.124 0,13.855 18.465,0 0,9.223 27.695,0 0,-9.223 41.543,0 0,9.223 152.305,0 0,-9.223 c -49.547,0 -94.391,-5.445 -114.215,-13.855" /><path
         id="path5011"
         style="fill:#000000;fill-opacity:1;fill-rule:nonzero;stroke:none"
         d="m 148.027,155.823 c -15.297,0 -27.687,12.402 -27.687,27.688 l 0,0.328 0.547,45.238 c 0.019,2.23 0.254,4.465 0.683,6.652 l 2.836,14.504 c 0.453,2.285 1.11,4.52 1.981,6.684 l 13.437,33.426 c 1.406,3.488 4.805,5.785 8.563,5.785 l 40.476,0 c -2.484,9.433 -10.16,16.613 -19.738,18.461 l -12.203,0 c -1.527,0 -2.774,1.242 -2.774,2.773 0,1.527 1.247,2.77 2.774,2.77 l 73.848,0 c 1.527,0 2.769,-1.243 2.769,-2.77 0,-1.531 -1.242,-2.773 -2.769,-2.773 l -12.208,0 c -9.578,-1.848 -17.242,-9.028 -19.726,-18.461 l 22.707,0 c 9.008,0 17.176,-5.235 20.949,-13.414 l 4.375,-9.481 c 20.199,-43.773 61.719,-73.89 109.594,-79.508 l 0.695,-0.089 c 1.625,-0.188 2.848,-1.563 2.848,-3.2 l 0,-30.007 c 0,-2.551 -2.07,-4.606 -4.621,-4.606" /><path
         id="path5013"
         style="fill:#ffffff;fill-opacity:1;fill-rule:nonzero;stroke:none"
         d="m 152.305,201.971 c 0,-5.101 -4.125,-9.226 -9.227,-9.226 -5.101,0 -9.226,4.125 -9.226,9.226 0,5.102 4.125,9.227 9.226,9.227 5.102,0 9.227,-4.125 9.227,-9.227" /><path
         id="path5015"
         style="fill:#ffffff;fill-opacity:1;fill-rule:nonzero;stroke:none"
         d="m 226.152,201.971 c 0,-5.101 -4.125,-9.226 -9.226,-9.226 -5.102,0 -9.227,4.125 -9.227,9.226 0,5.102 4.125,9.227 9.227,9.227 5.101,0 9.226,-4.125 9.226,-9.227" /><path
         id="path5017"
         style="fill:#ffffff;fill-opacity:1;fill-rule:nonzero;stroke:none"
         d="m 142.867,281.659 c 0.86,2.055 2.871,3.395 5.102,3.395 l 71.453,0 c 2.219,0 4.234,-1.34 5.101,-3.395 l 10.7,-25.84 c 1.187,-2.828 -0.133,-6.07 -2.946,-7.258 -0.683,-0.285 -1.422,-0.441 -2.156,-0.441 l -92.848,0 c -3.07,0 -5.543,2.484 -5.543,5.543 0,0.734 0.141,1.473 0.426,2.156" /><path
         id="path5019"
         style="fill:#ffffff;fill-opacity:1;fill-rule:nonzero;stroke:none"
         d="m 251.078,244.987 c 5.024,-6.246 10.578,-12.086 16.613,-17.484 l 0,-32.032 c -4.98,2.422 -9.816,5.016 -14.511,7.766" /><path
         id="path5021"
         style="fill:#ffffff;fill-opacity:1;fill-rule:nonzero;stroke:none"
         d="m 276.004,220.62 0,-28.973 c 4.816,-2.09 9.746,-4.035 14.769,-5.808 l 0,24.73 c -5.136,3.07 -10.062,6.422 -14.769,10.051" /><path
         id="path5023"
         style="fill:#ffffff;fill-opacity:1;fill-rule:nonzero;stroke:none"
         d="m 298.152,206.413 c 4.211,-2.211 8.52,-4.234 12.93,-6.059 l 0,-20.683 c -4.363,1.113 -8.664,2.343 -12.93,3.683" /><path
         id="path5025"
         style="fill:#ffffff;fill-opacity:1;fill-rule:nonzero;stroke:none"
         d="m 317.547,197.835 c 3.641,-1.328 7.336,-2.516 11.074,-3.571 l 0,-18.386 c -3.719,0.66 -7.41,1.406 -11.074,2.23" /><path
         id="path5027"
         style="fill:#ffffff;fill-opacity:1;fill-rule:nonzero;stroke:none"
         d="m 334.152,192.8 c 3.067,-0.758 6.137,-1.407 9.235,-1.977 l 0,-17.121 c -3.09,0.363 -6.168,0.781 -9.235,1.254" /><path
         id="path5029"
         style="fill:#ffffff;fill-opacity:1;fill-rule:nonzero;stroke:none"
         d="m 348.008,190.042 c 2.449,-0.375 4.914,-0.696 7.375,-0.957 l 0,-16.496 c -2.461,0.175 -4.926,0.375 -7.375,0.629" /><path
         id="path5031"
         style="fill:#ffffff;fill-opacity:1;fill-rule:nonzero;stroke:none"
         d="m 182.617,314.589 22.465,0 c -5.344,-3.926 -9.27,-9.446 -11.238,-15.778 -1.957,6.332 -5.891,11.852 -11.227,15.778" /></g></g></svg>