<?xml version="1.0" encoding="UTF-8" standalone="no"?>
<svg
   xmlns:dc="http://purl.org/dc/elements/1.1/"
   xmlns:cc="http://creativecommons.org/ns#"
   xmlns:rdf="http://www.w3.org/1999/02/22-rdf-syntax-ns#"
   xmlns:svg="http://www.w3.org/2000/svg"
   xmlns="http://www.w3.org/2000/svg"
   viewBox="0 0 600 450.005"
   height="450.005"
   width="600"
   xml:space="preserve"
   version="1.1"
   id="svg9066"><metadata
     id="metadata9072"><rdf:RDF><cc:Work
         rdf:about=""><dc:format>image/svg+xml</dc:format><dc:type
           rdf:resource="http://purl.org/dc/dcmitype/StillImage" /><dc:title></dc:title></cc:Work></rdf:RDF></metadata><defs
     id="defs9070" /><g
     transform="matrix(1.25,0,0,-1.25,0,450.005)"
     id="g9074"><g
       id="g9076"><path
         id="path9078"
         style="fill:#ffffff;fill-opacity:1;fill-rule:nonzero;stroke:none"
         d="m 31.996,359.774 c -17.504,0 -31.754,-14.25 -31.754,-31.766 L 0.242,32 c 0,-17.508 14.25,-31.758 31.754,-31.758 l 416.008,0 c 17.516,0 31.766,14.25 31.766,31.758 l 0,296.008 c 0,17.516 -14.25,31.766 -31.766,31.766" /><path
         id="path9080"
         style="fill:#000000;fill-opacity:1;fill-rule:nonzero;stroke:none"
         d="M 31.996,0.469 C 14.613,0.469 0.477,14.613 0.477,32 l 0,296.008 c 0,17.383 14.136,31.523 31.519,31.523 l 416.008,0 c 17.383,0 31.519,-14.14 31.519,-31.523 l 0,-296.008 c 0,-17.387 -14.136,-31.531 -31.519,-31.531 l -416.008,0 z m 416.008,359.535 -416.008,0 C 14.328,360.004 0,345.676 0,328.008 L 0,32 C 0,14.328 14.328,0 31.996,0 L 448.004,0 C 465.672,0 480,14.328 480,32 l 0,296.008 c 0,17.668 -14.328,31.996 -31.996,31.996" /><path
         id="path9082"
         style="fill:#000000;fill-opacity:1;fill-rule:nonzero;stroke:none"
         d="m 31.996,352.012 c -13.25,0 -23.992,-10.746 -23.992,-24.004 L 8.004,32 C 8.004,18.75 18.746,7.996 31.996,7.996 l 416.008,0 c 13.25,0 24.004,10.754 24.004,24.004 l 0,296.008 c 0,13.258 -10.754,24.004 -24.004,24.004 l -416.008,0 z m 0,-12.008 416.008,0 c 6.629,0 12.004,-5.367 12.004,-11.996 l 0,-296.008 c 0,-6.633 -5.375,-11.996 -12.004,-11.996 l -416.008,0 C 25.379,20.004 20,25.367 20,32 l 0,296.008 c 0,6.629 5.379,11.996 11.996,11.996 z" /><path
         id="path9084"
         style="fill:#000000;fill-opacity:1;fill-rule:nonzero;stroke:none"
         d="m 196.285,96.066 0,7.336 -9.5,0 0,6.868 c 0,3.48 1.695,5.546 5.27,5.546 l 4.23,0 0,8.184 -6.019,0 c -8.934,0 -13.071,-6.394 -13.071,-13.262 l 0,-7.336 -5.457,0 0,-7.336 5.457,0 0,-39.503 9.59,0 0,39.503 9.5,0 z" /><path
         id="path9086"
         style="fill:#000000;fill-opacity:1;fill-rule:nonzero;stroke:none"
         d="m 240.031,100.297 c -3.289,3.293 -6.769,4.516 -11.379,4.516 -5.359,0 -10.254,-2.352 -12.699,-5.739 l 0,5.176 -9.402,0 0,-47.687 9.594,0 0,28.968 c 0,6.586 4.324,10.723 9.496,10.723 3.293,0 4.988,-1.035 7.148,-3.199 l 7.242,7.242 z" /><path
         id="path9088"
         style="fill:#000000;fill-opacity:1;fill-rule:nonzero;stroke:none"
         d="m 285.695,77.633 0,4.23 c 0,13.543 -7.429,22.95 -20.222,22.95 -12.227,0 -20.219,-8.934 -20.219,-24.36 0,-18.152 9.496,-24.453 21.441,-24.453 8.371,0 12.981,2.539 17.871,7.43 l -6.113,5.738 c -3.387,-3.387 -6.207,-4.891 -11.57,-4.891 -7.805,0 -12.133,5.172 -12.133,13.356 l 30.945,0 z m -9.5,6.676 -21.445,0 c 0.098,2.918 0.285,4.328 1.223,6.492 1.507,3.574 4.988,6.019 9.5,6.019 4.515,0 7.902,-2.445 9.406,-6.019 0.941,-2.164 1.223,-3.574 1.316,-6.492 z" /><path
         id="path9090"
         style="fill:#000000;fill-opacity:1;fill-rule:nonzero;stroke:none"
         d="m 308.273,113.652 0,10.161 -10.156,0 0,-10.161 10.156,0 z m -0.281,-57.089 0,47.687 -9.594,0 0,-47.687 9.594,0 z" /><path
         id="path9092"
         style="fill:#000000;fill-opacity:1;fill-rule:nonzero;stroke:none"
         d="m 264.793,212.789 -36.793,9.594 0,4.004 36.793,-9.582 0,-4.016 z m 58.816,100.801 c -0.023,-0.18 -0.023,-0.344 -0.023,-0.524 -0.066,-1.16 -0.309,-2.296 -0.754,-3.367 -0.394,-1.019 -0.945,-1.953 -1.644,-2.742 -0.665,-0.844 -1.469,-1.558 -2.387,-2.133 -0.715,-0.457 -1.508,-0.84 -2.324,-1.109 -0.891,-0.293 -1.836,-0.496 -2.766,-0.512 -0.168,0 -0.359,-0.012 -0.523,-0.012 -0.168,0 -0.333,0.012 -0.512,0.012 -0.344,0.016 -0.676,0.051 -0.996,0.09 -0.817,0.129 -1.621,0.332 -2.399,0.664 -0.969,0.371 -1.914,0.93 -2.742,1.633 -0.828,0.676 -1.543,1.48 -2.105,2.371 -0.457,0.73 -0.84,1.52 -1.11,2.336 -0.355,1.059 -0.535,2.168 -0.535,3.293 -0.027,1.34 0.254,2.68 0.754,3.891 0.395,0.996 0.953,1.925 1.656,2.742 0.676,0.843 1.481,1.558 2.375,2.133 0.738,0.457 1.516,0.828 2.332,1.097 1.059,0.367 2.172,0.547 3.282,0.547 1.351,0 2.664,-0.254 3.902,-0.777 0.996,-0.383 1.914,-0.946 2.742,-1.633 0.816,-0.676 1.559,-1.492 2.106,-2.399 0.484,-0.714 0.867,-1.492 1.124,-2.324 0.305,-0.89 0.485,-1.836 0.524,-2.769 0,-0.176 0,-0.328 0.023,-0.508 z m -41.222,-79.992 10.398,0 9.61,14.402 -10.399,0 -9.609,-14.402 z m -13.598,-20.809 0,11.215 -12.797,9.594 4.797,6.39 8,-5.996 16.813,25.196 c 0.039,0.05 0.089,0.128 0.128,0.179 0.321,0.41 0.688,0.793 1.086,1.125 0.383,0.328 0.789,0.61 1.211,0.84 0.434,0.254 0.879,0.473 1.34,0.613 0.383,0.141 0.754,0.231 1.137,0.321 0.418,0.074 0.851,0.125 1.262,0.125 l 12.211,0 0,8 -16.192,0 c -0.512,0.027 -0.984,0.129 -1.43,0.332 -0.433,0.152 -0.816,0.394 -1.171,0.676 -0.348,0.304 -0.653,0.636 -0.895,1.019 -0.203,0.309 -0.371,0.641 -0.473,0.984 -0.14,0.446 -0.23,0.918 -0.23,1.391 0,0.574 0.102,1.121 0.32,1.656 0.18,0.41 0.41,0.805 0.703,1.164 0.278,0.332 0.637,0.637 1.008,0.891 0.305,0.191 0.649,0.359 0.981,0.461 0.382,0.125 0.777,0.215 1.187,0.215 0.063,0.011 0.141,0.011 0.203,0.011 l 15.989,0 0,11.598 c 0.023,0.156 0.023,0.309 0.023,0.461 0.039,1.008 0.281,2.043 0.664,2.996 0.332,0.871 0.828,1.688 1.441,2.426 0.614,0.727 1.329,1.352 2.129,1.863 0.614,0.422 1.317,0.739 2.055,0.996 0.918,0.293 1.902,0.457 2.899,0.457 1.183,0.012 2.359,-0.214 3.457,-0.664 0.89,-0.355 1.707,-0.851 2.421,-1.465 0.743,-0.601 1.368,-1.316 1.875,-2.093 0.411,-0.649 0.743,-1.352 0.985,-2.078 0.269,-0.778 0.422,-1.61 0.472,-2.438 l 0,-35.25 73.59,0 0,-43.215 -6.941,0 c -0.168,0.18 -0.332,0.348 -0.5,0.5 -1.184,1.16 -2.461,2.219 -3.84,3.125 -1.262,0.895 -2.625,1.66 -4.043,2.321 -1.402,0.679 -2.844,1.226 -4.352,1.66 -1.199,0.359 -2.41,0.636 -3.636,0.843 -1.313,0.204 -2.641,0.332 -3.981,0.344 l -1.425,0 c -0.461,-0.015 -0.946,-0.027 -1.407,-0.062 -1.183,-0.078 -2.347,-0.231 -3.508,-0.461 -1.515,-0.293 -3.035,-0.703 -4.476,-1.239 -1.457,-0.523 -2.883,-1.171 -4.25,-1.925 -1.082,-0.614 -2.129,-1.278 -3.137,-2.016 -1.086,-0.789 -2.105,-1.644 -3.051,-2.59 -0.179,-0.152 -0.332,-0.32 -0.523,-0.496 l -36.004,0 c -0.164,0.176 -0.344,0.344 -0.508,0.496 -1.176,1.16 -2.465,2.219 -3.84,3.125 -1.265,0.895 -2.617,1.66 -4.019,2.321 -1.406,0.679 -2.871,1.226 -4.352,1.66 -1.199,0.359 -2.425,0.636 -3.648,0.843 -1.328,0.204 -2.641,0.332 -3.981,0.344 l -1.429,0 c -0.457,-0.015 -0.946,-0.027 -1.403,-0.062 -1.187,-0.078 -2.347,-0.231 -3.507,-0.461 -1.52,-0.293 -3.024,-0.703 -4.481,-1.239 -1.453,-0.523 -2.894,-1.171 -4.234,-1.925 -1.098,-0.614 -2.157,-1.278 -3.153,-2.016 -1.082,-0.789 -2.105,-1.644 -3.047,-2.59 -0.179,-0.152 -0.332,-0.32 -0.523,-0.496 z m 119.988,-20.785 c 0,0.332 0,0.664 -0.011,1.02 -0.102,2.312 -0.598,4.632 -1.493,6.777 -0.777,1.988 -1.902,3.851 -3.304,5.496 -1.328,1.648 -2.961,3.09 -4.758,4.211 -1.441,0.945 -3.023,1.683 -4.656,2.234 -1.789,0.598 -3.664,0.981 -5.528,1.02 -0.355,0.027 -0.715,0.027 -1.043,0.027 -0.332,0 -0.679,0 -1.023,-0.027 -0.676,-0.024 -1.352,-0.09 -2.016,-0.192 -1.633,-0.23 -3.226,-0.664 -4.769,-1.277 -1.992,-0.789 -3.84,-1.91 -5.488,-3.301 -1.645,-1.34 -3.075,-2.972 -4.211,-4.761 -0.942,-1.454 -1.696,-3.024 -2.231,-4.668 -0.715,-2.106 -1.07,-4.325 -1.047,-6.559 -0.039,-2.664 0.473,-5.344 1.481,-7.793 0.804,-2.016 1.925,-3.867 3.316,-5.512 1.352,-1.633 2.961,-3.062 4.774,-4.211 1.425,-0.945 2.996,-1.699 4.64,-2.234 2.106,-0.699 4.34,-1.07 6.574,-1.059 2.664,-0.023 5.332,0.5 7.793,1.508 2.004,0.778 3.868,1.91 5.5,3.301 1.645,1.367 3.086,2.961 4.211,4.773 0.942,1.442 1.696,3.012 2.231,4.657 0.613,1.773 0.996,3.648 1.047,5.55 0.011,0.332 0.011,0.676 0.011,1.02 z m 7.211,0 c -0.027,-0.473 -0.027,-0.93 -0.039,-1.379 -0.129,-3.125 -0.793,-6.223 -2.004,-9.121 -1.047,-2.703 -2.539,-5.191 -4.414,-7.387 -1.824,-2.23 -4.008,-4.16 -6.429,-5.691 -1.942,-1.274 -4.047,-2.27 -6.266,-2.996 -2.41,-0.817 -4.938,-1.328 -7.465,-1.403 -0.457,-0.015 -0.918,-0.015 -1.391,-0.027 -0.468,0.012 -0.929,0.012 -1.375,0.027 -0.906,0.039 -1.812,0.153 -2.707,0.278 -2.191,0.308 -4.347,0.883 -6.414,1.722 -2.679,1.059 -5.195,2.579 -7.39,4.43 -2.231,1.813 -4.145,3.992 -5.688,6.43 -1.265,1.937 -2.258,4.07 -3,6.25 -0.968,2.847 -1.441,5.844 -1.429,8.867 -0.036,3.586 0.664,7.184 2.043,10.488 1.046,2.692 2.566,5.192 4.425,7.399 1.825,2.222 3.996,4.148 6.43,5.679 1.93,1.274 4.059,2.27 6.254,2.996 2.844,0.969 5.844,1.442 8.855,1.43 3.582,0.039 7.196,-0.664 10.5,-2.027 2.692,-1.059 5.18,-2.567 7.399,-4.43 2.219,-1.824 4.144,-4.004 5.676,-6.43 1.265,-1.937 2.273,-4.054 3,-6.25 0.816,-2.425 1.312,-4.949 1.39,-7.476 0.012,-0.461 0.012,-0.918 0.039,-1.379 z m -85.34,0 c 0,0.332 0,0.664 -0.027,1.02 -0.074,2.312 -0.574,4.632 -1.48,6.777 -0.789,1.988 -1.914,3.851 -3.289,5.496 -1.356,1.648 -2.973,3.09 -4.774,4.211 -1.441,0.945 -3.023,1.683 -4.656,2.234 -1.785,0.598 -3.66,0.981 -5.535,1.02 -0.332,0.027 -0.692,0.027 -1.035,0.027 -0.344,0 -0.676,0 -1.02,-0.027 -0.676,-0.024 -1.352,-0.09 -2.016,-0.192 -1.632,-0.23 -3.23,-0.664 -4.761,-1.277 -1.989,-0.789 -3.852,-1.91 -5.496,-3.301 -1.649,-1.34 -3.075,-2.972 -4.211,-4.761 -0.957,-1.454 -1.696,-3.024 -2.235,-4.668 -0.715,-2.106 -1.07,-4.325 -1.058,-6.559 -0.024,-2.664 0.484,-5.344 1.507,-7.793 0.778,-2.016 1.915,-3.867 3.29,-5.512 1.367,-1.633 2.972,-3.062 4.773,-4.211 1.441,-0.945 3.023,-1.699 4.656,-2.234 2.106,-0.699 4.336,-1.07 6.571,-1.059 2.652,-0.023 5.332,0.5 7.796,1.508 2,0.778 3.852,1.91 5.497,3.301 1.648,1.367 3.089,2.961 4.222,4.773 0.945,1.442 1.684,3.012 2.223,4.657 0.609,1.773 0.98,3.648 1.031,5.55 0.027,0.332 0.027,0.676 0.027,1.02 z m 7.207,0 c -0.011,-0.473 -0.011,-0.93 -0.039,-1.379 -0.128,-3.125 -0.777,-6.223 -2.004,-9.121 -1.042,-2.703 -2.55,-5.191 -4.414,-7.387 -1.824,-2.23 -4.003,-4.16 -6.429,-5.691 -1.953,-1.274 -4.055,-2.27 -6.262,-2.996 -2.414,-0.817 -4.953,-1.328 -7.465,-1.403 -0.461,-0.015 -0.933,-0.015 -1.39,-0.027 -0.461,0.012 -0.918,0.012 -1.379,0.027 -0.907,0.039 -1.813,0.153 -2.719,0.278 -2.18,0.308 -4.348,0.883 -6.391,1.722 -2.679,1.059 -5.203,2.579 -7.386,4.43 -2.235,1.813 -4.161,3.992 -5.704,6.43 -1.261,1.937 -2.269,4.07 -2.996,6.25 -0.957,2.847 -1.441,5.844 -1.429,8.867 -0.039,3.586 0.664,7.184 2.027,10.488 1.059,2.692 2.578,5.192 4.441,7.399 1.836,2.222 3.993,4.148 6.418,5.679 1.95,1.274 4.067,2.27 6.262,2.996 2.832,0.969 5.844,1.442 8.856,1.43 3.586,0.039 7.183,-0.664 10.488,-2.027 2.703,-1.059 5.203,-2.567 7.41,-4.43 2.207,-1.824 4.133,-4.004 5.68,-6.43 1.261,-1.937 2.258,-4.054 2.996,-6.25 0.816,-2.425 1.316,-4.949 1.39,-7.476 0.028,-0.461 0.039,-0.918 0.039,-1.379 z m -219.515,-15.27 0,33.45 24.34,15.91 -1.285,2.961 c -0.04,0.101 -0.09,0.215 -0.129,0.32 -0.321,0.75 -0.602,1.504 -0.856,2.293 -0.23,0.742 -0.445,1.496 -0.625,2.262 -0.18,0.761 -0.32,1.527 -0.422,2.293 -0.113,0.625 -0.175,1.254 -0.215,1.851 -0.05,0.676 -0.089,1.34 -0.117,2.004 l 0,0.613 c 0,0.176 0.028,0.356 0.028,0.536 0.011,0.422 0.039,0.867 0.074,1.3 0.027,0.586 0.09,1.172 0.168,1.747 0.078,0.574 0.164,1.164 0.293,1.722 0.09,0.449 0.191,0.918 0.304,1.367 0.118,0.473 0.243,0.957 0.383,1.442 0.039,0.074 0.067,0.164 0.09,0.254 l -9.285,16.84 -22.301,-4.758 -4.762,4.758 19.102,22.289 0,9.57 6.363,-6.367 c 0.321,-0.028 0.641,-0.028 0.973,-0.028 2.242,-0.05 4.477,-0.355 6.644,-0.902 2.055,-0.488 4.059,-1.199 5.946,-2.105 1.914,-0.895 3.738,-1.993 5.41,-3.231 1.351,-1.019 2.629,-2.129 3.828,-3.34 1.262,-1.304 2.438,-2.695 3.445,-4.211 0.192,-0.269 0.371,-0.535 0.547,-0.804 l 15.832,-24.891 c 0.157,-0.027 0.321,-0.039 0.5,-0.078 1.121,-0.141 2.258,-0.281 3.407,-0.406 1.082,-0.118 2.168,-0.219 3.277,-0.309 1.098,-0.086 2.183,-0.164 3.265,-0.215 0.883,-0.027 1.75,-0.066 2.629,-0.09 1.086,-0.039 2.196,-0.05 3.282,-0.05 2.05,0 4.105,0.05 6.16,0.168 1.711,0.085 3.406,0.214 5.117,0.367 1.695,0.179 3.395,0.371 5.09,0.613 1.363,0.191 2.719,0.41 4.058,0.637 1.414,0.258 2.844,0.539 4.274,0.843 0.254,0.051 0.496,0.102 0.75,0.165 l 0.105,0.015 c 0.063,0.012 0.102,0.012 0.153,0.024 0.316,0.062 0.636,0.113 0.957,0.152 0.304,0.051 0.609,0.09 0.929,0.129 0.293,0.012 0.614,0.051 0.907,0.062 0.254,0.028 0.496,0.039 0.754,0.039 0.304,0.012 0.625,0.012 0.929,0.012 1.188,0 2.387,-0.062 3.586,-0.242 0.981,-0.152 1.965,-0.344 2.922,-0.586 0.957,-0.254 1.898,-0.574 2.82,-0.934 0.75,-0.293 1.465,-0.625 2.18,-0.98 0.766,-0.371 1.508,-0.805 2.219,-1.262 0.117,-0.078 0.242,-0.168 0.371,-0.242 l 4.223,4.234 c 0.117,0.102 0.242,0.215 0.343,0.321 0.754,0.726 1.571,1.39 2.465,1.976 0.817,0.563 1.684,1.059 2.59,1.492 0.891,0.407 1.836,0.766 2.781,1.047 0.766,0.215 1.555,0.395 2.332,0.524 1.012,0.152 2.004,0.226 3.012,0.226 2.031,0.016 4.059,-0.304 5.973,-0.941 1.582,-0.5 3.074,-1.238 4.437,-2.145 1.391,-0.894 2.656,-1.964 3.754,-3.175 0.891,-0.985 1.672,-2.055 2.332,-3.204 0.731,-1.25 1.34,-2.562 1.738,-3.941 0.086,-0.242 0.137,-0.5 0.204,-0.726 l 3.046,-11.333 -11.925,-6.378 -2.555,14.531 c -0.012,0.14 -0.051,0.281 -0.086,0.449 -0.219,0.992 -0.574,1.965 -1.086,2.856 -0.461,0.832 -1.047,1.582 -1.734,2.257 -0.664,0.664 -1.43,1.25 -2.274,1.7 -0.648,0.382 -1.363,0.664 -2.101,0.878 -0.805,0.254 -1.621,0.383 -2.465,0.411 -0.141,0 -0.305,0.011 -0.446,0.011 -0.078,0 -0.152,0 -0.242,-0.011 -0.168,0 -0.332,0 -0.484,-0.028 -0.41,-0.011 -0.816,-0.062 -1.215,-0.152 -0.535,-0.09 -1.059,-0.231 -1.566,-0.434 -0.5,-0.179 -0.996,-0.394 -1.469,-0.652 -0.383,-0.203 -0.754,-0.445 -1.082,-0.699 -0.383,-0.27 -0.754,-0.551 -1.074,-0.895 -0.051,-0.051 -0.125,-0.101 -0.18,-0.152 l -2.32,-2.324 c 0.129,-0.153 0.242,-0.293 0.371,-0.434 0.84,-0.98 1.621,-2.027 2.281,-3.164 0.664,-1.031 1.238,-2.129 1.723,-3.266 0.472,-1.121 0.894,-2.281 1.215,-3.468 0.242,-0.957 0.445,-1.942 0.585,-2.899 0.192,-1.222 0.282,-2.472 0.282,-3.711 0,-0.715 -0.039,-1.402 -0.09,-2.117 -0.051,-0.586 -0.113,-1.16 -0.219,-1.762 -0.074,-0.547 -0.191,-1.148 -0.316,-1.722 -0.102,-0.457 -0.231,-0.907 -0.344,-1.364 -0.129,-0.472 -0.297,-0.957 -0.461,-1.418 -0.027,-0.101 -0.051,-0.175 -0.09,-0.253 l 12.656,-20.922 -4.773,-30.25 -9.031,-3.09 4.773,30.25 -22.531,17.582 2.906,-22.352 -14.34,-27.074 -9.543,0 14.328,27.074 -14.109,24.981 c -0.23,-0.051 -0.449,-0.106 -0.664,-0.168 -1.559,-0.371 -3.113,-0.688 -4.684,-0.969 -1.492,-0.281 -2.972,-0.496 -4.476,-0.727 -1.492,-0.191 -3.012,-0.359 -4.516,-0.472 -1.215,-0.102 -2.425,-0.192 -3.613,-0.254 -1.312,-0.051 -2.59,-0.106 -3.879,-0.106 l -1.312,0 c -0.461,0 -0.879,0.016 -1.313,0.016 -1.074,0.024 -2.156,0.074 -3.23,0.125 -1.442,0.078 -2.871,0.18 -4.297,0.32 -1.43,0.153 -2.86,0.321 -4.274,0.536 -1.148,0.168 -2.297,0.359 -3.422,0.562 -1.199,0.215 -2.41,0.461 -3.585,0.727 -0.215,0.05 -0.434,0.089 -0.637,0.14 l 15.015,-43.824 -1.582,-7.961 -7.961,0 1.598,7.961 -19.125,44.145 -20.684,-12.301 0,-22.274" /></g></g></svg>