<?xml version="1.0" encoding="UTF-8" standalone="no"?>
<svg
   xmlns:dc="http://purl.org/dc/elements/1.1/"
   xmlns:cc="http://creativecommons.org/ns#"
   xmlns:rdf="http://www.w3.org/1999/02/22-rdf-syntax-ns#"
   xmlns:svg="http://www.w3.org/2000/svg"
   xmlns="http://www.w3.org/2000/svg"
   viewBox="0 0 539.08752 405.44751"
   height="405.44751"
   width="539.08752"
   xml:space="preserve"
   version="1.1"
   id="svg12916"><metadata
     id="metadata12922"><rdf:RDF><cc:Work
         rdf:about=""><dc:format>image/svg+xml</dc:format><dc:type
           rdf:resource="http://purl.org/dc/dcmitype/StillImage" /><dc:title></dc:title></cc:Work></rdf:RDF></metadata><defs
     id="defs12920" /><g
     transform="matrix(1.25,0,0,-1.25,0,405.4475)"
     id="g12924"><g
       id="g12926"><path
         id="path12928"
         style="fill:#ffffff;fill-opacity:1;fill-rule:evenodd;stroke:none"
         d="m 29.012,0.604 -0.864,0 -1.8,0.141 -1.801,0.218 -1.801,0.36 L 21.02,1.756 19.289,2.331 17.637,2.979 15.98,3.772 14.395,4.635 12.883,5.569 11.441,6.651 10.074,7.803 8.707,9.026 7.484,10.323 6.332,11.764 5.25,13.202 4.316,14.713 3.449,16.299 2.66,17.956 l -0.648,1.656 -0.578,1.726 -0.43,1.727 -0.359,1.801 -0.219,1.801 -0.071,1.8 -0.074,0.864 0,265.535 0.074,0.863 0.071,1.801 0.219,1.801 0.359,1.8 0.43,1.727 0.578,1.73 0.648,1.653 0.789,1.656 0.867,1.586 0.934,1.512 1.082,1.441 1.152,1.438 1.223,1.297 1.367,1.222 1.367,1.153 1.442,1.082 1.512,0.933 1.585,0.867 1.657,0.789 1.652,0.649 1.731,0.578 1.726,0.43 1.801,0.359 1.801,0.219 1.8,0.144 374.973,0 1.801,-0.144 1.801,-0.219 1.8,-0.359 1.727,-0.43 1.73,-0.578 1.657,-0.649 1.652,-0.789 1.586,-0.867 1.512,-0.933 1.441,-1.082 1.367,-1.153 1.367,-1.222 1.223,-1.297 1.153,-1.438 1.082,-1.441 0.933,-1.512 0.867,-1.586 0.789,-1.656 0.649,-1.653 0.578,-1.73 0.43,-1.727 0.359,-1.8 0.219,-1.801 0.07,-1.801 0.074,-0.863 0,-265.535 -0.074,-0.864 -0.07,-1.8 -0.219,-1.801 -0.359,-1.801 -0.43,-1.727 -0.578,-1.726 -0.649,-1.656 -0.789,-1.657 -0.867,-1.586 -0.933,-1.511 -1.082,-1.438 -1.153,-1.441 -1.223,-1.297 -1.367,-1.223 -1.367,-1.152 -1.441,-1.082 -1.512,-0.934 -1.586,-0.863 -1.652,-0.793 -1.657,-0.648 -1.73,-0.575 -1.727,-0.433 -1.8,-0.36 -1.801,-0.218 -1.801,-0.141 -374.109,0 z" /><path
         id="path12930"
         style="fill:#000000;fill-opacity:1;fill-rule:evenodd;stroke:none"
         d="m 29.012,7.803 -0.649,0 -1.367,0.071 -1.297,0.218 -1.367,0.215 -1.297,0.36 -1.297,0.433 -1.222,0.504 -1.227,0.574 -1.223,0.649 -1.152,0.719 -1.078,0.792 -1.008,0.864 -1.008,0.937 -0.937,0.934 -0.863,1.082 -0.793,1.078 -0.719,1.152 -0.649,1.153 -0.578,1.226 -0.504,1.293 -0.429,1.297 -0.36,1.297 -0.218,1.297 -0.145,1.367 -0.141,1.367 0,266.832 0.141,1.367 0.145,1.372 0.218,1.293 0.36,1.296 0.429,1.297 0.504,1.297 0.578,1.223 0.649,1.152 0.719,1.152 0.793,1.079 0.863,1.082 0.937,0.933 1.008,0.938 1.008,0.863 1.078,0.793 1.152,0.719 1.223,0.648 1.227,0.578 1.222,0.504 1.297,0.43 1.297,0.359 1.367,0.219 1.297,0.215 1.367,0.07 374.543,0 1.367,-0.07 1.297,-0.215 1.368,-0.219 1.296,-0.359 1.297,-0.43 1.223,-0.504 1.226,-0.578 1.223,-0.648 1.152,-0.719 1.079,-0.793 1.007,-0.863 1.008,-0.938 0.938,-0.933 0.863,-1.082 0.793,-1.079 0.719,-1.152 0.648,-1.152 0.578,-1.223 0.504,-1.297 0.43,-1.297 0.359,-1.296 0.219,-1.293 0.145,-1.372 0.14,-1.367 0,-266.832 -0.14,-1.367 -0.145,-1.367 -0.219,-1.297 -0.359,-1.297 -0.43,-1.297 -0.504,-1.293 -0.578,-1.226 -0.648,-1.153 -0.719,-1.152 -0.793,-1.078 -0.863,-1.082 -0.938,-0.934 -1.008,-0.937 -1.007,-0.864 -1.079,-0.792 -1.152,-0.719 -1.223,-0.649 -1.226,-0.574 -1.223,-0.504 -1.297,-0.433 -1.296,-0.36 -1.368,-0.215 -1.297,-0.218 -1.367,-0.071 -373.894,0 z" /><path
         id="path12932"
         style="fill:#ffffff;fill-opacity:1;fill-rule:evenodd;stroke:none"
         d="m 29.012,18.53 -0.289,0.074 -0.719,0 -0.649,0.07 -1.296,0.289 -0.649,0.215 -1.297,0.578 -0.574,0.286 -0.578,0.359 -0.504,0.434 -0.574,0.433 -0.434,0.43 -0.504,0.504 -0.429,0.504 -0.36,0.578 -0.363,0.574 -0.359,0.578 -0.286,0.645 -0.218,0.578 -0.43,1.297 -0.074,0.718 -0.145,0.649 0,267.551 0.145,0.648 0.074,0.719 0.43,1.297 0.218,0.578 0.286,0.648 0.359,0.574 0.363,0.575 0.36,0.578 0.429,0.504 0.938,0.937 0.574,0.43 0.504,0.434 0.578,0.359 0.574,0.289 0.649,0.285 0.648,0.289 0.649,0.215 1.296,0.289 0.649,0.074 0.719,0 0.289,0.071 373.246,0 0.289,-0.071 0.719,0 0.648,-0.074 1.297,-0.289 0.648,-0.215 0.649,-0.289 0.648,-0.285 0.574,-0.289 0.579,-0.359 0.503,-0.434 0.575,-0.43 0.937,-0.937 0.43,-0.504 0.359,-0.578 0.364,-0.575 0.359,-0.574 0.285,-0.648 0.219,-0.578 0.43,-1.297 0.074,-0.719 0.144,-0.648 0,-267.551 -0.144,-0.649 -0.074,-0.718 -0.43,-1.297 -0.219,-0.578 -0.285,-0.645 -0.359,-0.578 -0.364,-0.574 -0.359,-0.578 -0.43,-0.504 -0.504,-0.504 -0.433,-0.43 -0.575,-0.433 -0.503,-0.434 -0.579,-0.359 -0.574,-0.286 -1.297,-0.578 -0.648,-0.215 -1.297,-0.289 -0.648,-0.07 -0.719,0 -0.289,-0.074 -373.246,0 z" /><path
         id="path12934"
         style="fill:#000000;fill-opacity:1;fill-rule:evenodd;stroke:none"
         d="m 76.531,216.026 0,55.297 35.496,0 0,-7.922 -27.144,0 0,-15.766 23.183,0 0,-7.418 -23.183,0 0,-16.269 27.144,0 0,-7.922 -35.496,0 z m 60.192,0 -5.254,0 -0.508,0.074 -1.149,0.141 -0.503,0.144 -0.579,0.219 -0.503,0.141 -0.504,0.289 -0.504,0.219 -0.434,0.359 -0.43,0.285 -0.433,0.363 -0.43,0.36 -0.363,0.429 -0.359,0.434 -0.36,0.43 -0.289,0.508 -0.285,0.503 -0.219,0.504 -0.215,0.504 -0.144,0.504 -0.145,0.574 -0.14,0.504 -0.075,0.578 0,47.231 7.922,0 0,-45.938 0.071,-0.144 0.07,-0.141 0,-0.144 0.074,-0.145 0.07,-0.144 0.075,-0.145 0.574,-0.574 0.144,-0.074 0.075,-0.071 0.14,-0.074 0.289,-0.141 0.145,-0.074 0.144,0 0.145,-0.07 3.887,0 0,-7.418 z m 40.465,16.777 -24.696,0 0,-1.226 0.07,-0.504 0,-0.504 0.145,-0.504 0.07,-0.43 0.145,-0.504 0.219,-0.433 0.214,-0.504 0.215,-0.43 0.215,-0.433 0.289,-0.434 0.289,-0.359 1.078,-1.078 0.364,-0.289 0.429,-0.29 0.434,-0.285 0.43,-0.218 0.433,-0.215 0.215,-0.145 0.359,-0.07 0.579,-0.219 0.648,-0.141 0.648,-0.144 0.645,-0.145 0.648,0 0.649,-0.074 0.648,0.074 0.649,0.071 0.648,0.074 0.649,0.144 0.648,0.141 0.574,0.219 0.649,0.285 0.574,0.289 0.578,0.289 0.504,0.36 0.574,0.359 0.504,0.433 0.434,0.43 0.504,0.504 0.214,0.219 5.977,-5.184 -0.359,-0.363 -0.793,-0.863 -0.789,-0.719 -0.868,-0.719 -0.933,-0.648 -0.938,-0.578 -1.008,-0.575 -1.007,-0.504 -1.008,-0.359 -1.078,-0.433 -1.082,-0.29 -1.078,-0.214 -1.153,-0.145 -1.082,-0.144 -2.23,0 -1.153,0.074 -1.082,0.215 -1.078,0.214 -1.082,0.29 -1.078,0.359 -0.504,0.215 -0.504,0.144 -1.726,0.867 -0.793,0.504 -0.793,0.575 -0.719,0.648 -0.723,0.648 -0.718,0.649 -0.649,0.789 -0.574,0.723 -0.504,0.789 -0.504,0.867 -0.867,1.726 -0.359,0.938 -0.215,0.934 -0.289,0.937 -0.145,0.938 -0.14,0.933 0,1.008 -0.075,0.504 0,7.847 0.075,0.504 0,1.082 0.14,1.008 0.219,1.008 0.215,0.938 0.359,1.007 0.36,0.934 0.433,0.937 0.504,0.864 0.574,0.863 0.578,0.863 0.649,0.793 0.719,0.719 0.718,0.723 0.793,0.648 0.864,0.574 0.867,0.578 0.863,0.504 0.934,0.43 0.937,0.359 1.008,0.289 0.937,0.29 1.008,0.214 1.008,0.071 1.078,0.074 1.008,0 1.008,-0.074 1.008,-0.071 1.007,-0.214 1.008,-0.29 0.938,-0.289 0.937,-0.359 0.934,-0.43 0.937,-0.504 0.864,-0.578 0.793,-0.574 0.793,-0.648 0.789,-0.723 0.648,-0.719 0.648,-0.793 0.649,-0.863 1.008,-1.727 0.433,-0.937 0.36,-0.934 0.359,-1.007 0.215,-0.938 0.219,-1.008 0.14,-1.008 0.075,-1.082 0,-7.414 z m -24.696,6.91 0,0.29 0.07,0.503 0.075,0.504 0.07,0.578 0.289,1.008 0.215,0.504 0.215,0.43 0.219,0.504 0.285,0.433 0.359,0.43 0.289,0.363 0.36,0.43 0.433,0.359 0.359,0.289 0.434,0.36 0.43,0.289 0.504,0.215 0.433,0.219 0.504,0.214 1.008,0.289 0.504,0.071 0.574,0.07 0.504,0.074 0.504,0 0.578,-0.074 1.008,-0.141 1.008,-0.289 0.504,-0.214 0.503,-0.219 0.434,-0.215 0.43,-0.289 0.433,-0.36 0.43,-0.289 0.363,-0.359 0.36,-0.43 0.359,-0.363 0.289,-0.43 0.285,-0.433 0.219,-0.504 0.285,-0.43 0.145,-0.504 0.218,-0.504 0.071,-0.504 0.144,-0.578 0.071,-0.504 0,-0.793 -16.774,0 z m 35.567,-23.687 0,55.297 7.847,0 0,-34.559 15.336,18.789 9.289,0 -13.25,-15.336 15.196,-24.191 -9.793,0 -10.368,18.289 -6.41,-6.914 0,-11.375 -7.847,0 z m 57.168,0 -5.254,0 -0.504,0.074 -0.578,0.071 -0.575,0.07 -0.504,0.144 -0.578,0.219 -0.504,0.141 -0.503,0.289 -0.504,0.219 -0.434,0.359 -0.43,0.285 -0.433,0.363 -0.43,0.36 -0.359,0.429 -0.364,0.434 -0.359,0.43 -0.289,0.508 -0.285,0.503 -0.219,0.504 -0.215,0.504 -0.144,0.504 -0.145,0.574 -0.14,0.504 -0.075,0.578 0,24.981 -3.961,0 0,6.48 3.961,0 0,11.809 7.922,0 0,-11.809 5.903,0 0,-6.48 -5.903,0 0,-23.688 0.071,-0.144 0.074,-0.141 0,-0.144 0.14,-0.289 0.075,-0.145 0.574,-0.574 0.144,-0.074 0.075,-0.071 0.14,-0.074 0.289,-0.141 0.145,-0.074 0.144,0 0.145,-0.07 3.887,0 0,-7.418 z m 10.871,0 0,39.527 7.847,0 0,-4.461 0.289,0.286 0.504,0.578 0.578,0.574 0.645,0.504 0.648,0.504 0.649,0.433 0.722,0.43 0.719,0.363 0.719,0.285 0.793,0.289 0.719,0.215 0.793,0.219 0.793,0.141 0.793,0.074 1.652,0 0.793,-0.074 0.793,-0.071 0.793,-0.144 0.789,-0.215 0.723,-0.289 0.793,-0.289 1.437,-0.719 0.648,-0.43 0.649,-0.433 0.359,-0.289 -5.617,-6.91 -0.215,0.144 -0.359,0.285 -0.359,0.289 -0.434,0.289 -0.43,0.215 -0.433,0.145 -0.434,0.215 -0.43,0.144 -0.504,0.074 -0.433,0.141 -0.504,0 -0.504,0.074 -0.43,0 -0.504,-0.074 -0.433,0 -0.504,-0.141 -0.434,-0.074 -0.504,-0.144 -0.429,-0.215 -0.434,-0.145 -0.43,-0.215 -0.433,-0.289 -0.359,-0.289 -0.36,-0.285 -0.359,-0.289 -0.364,-0.359 -0.285,-0.36 -0.289,-0.363 -0.289,-0.359 -0.289,-0.43 -0.215,-0.434 -0.144,-0.433 -0.215,-0.43 -0.145,-0.433 -0.07,-0.504 -0.144,-0.43 0,-0.504 -0.075,-0.504 0,-24.41 -7.847,0 z m 30.601,15.84 0,8.351 0.071,1.082 0.074,1.008 0.215,1.008 0.289,0.938 0.289,1.007 0.359,0.934 0.43,0.937 0.504,0.864 0.578,0.863 0.574,0.863 0.648,0.793 1.442,1.442 0.789,0.648 0.867,0.574 0.863,0.578 0.864,0.504 0.937,0.43 0.934,0.359 1.008,0.289 0.937,0.29 1.008,0.214 1.008,0.071 1.082,0.074 1.008,0 1.007,-0.074 1.008,-0.071 1.008,-0.214 1.008,-0.29 0.933,-0.289 1.008,-0.359 0.867,-0.43 0.934,-0.504 0.863,-0.578 0.793,-0.574 0.793,-0.648 0.793,-0.723 0.649,-0.719 0.644,-0.793 0.649,-0.863 1.007,-1.727 0.434,-0.937 0.434,-0.934 0.285,-1.007 0.218,-0.938 0.215,-1.008 0.145,-1.008 0.07,-1.082 0,-8.925 -0.07,-1.008 -0.145,-1.008 -0.215,-1.008 -0.218,-1.008 -0.285,-0.937 -0.434,-0.938 -0.434,-0.933 -0.503,-0.938 -0.504,-0.863 -0.649,-0.793 -0.644,-0.793 -0.649,-0.719 -0.793,-0.718 -0.793,-0.649 -0.793,-0.578 -0.863,-0.574 -0.934,-0.504 -0.867,-0.434 -1.008,-0.359 -0.933,-0.359 -1.008,-0.215 -1.008,-0.219 -1.008,-0.141 -3.097,0 -1.008,0.141 -1.008,0.219 -0.937,0.215 -1.008,0.359 -0.934,0.359 -0.937,0.434 -0.864,0.504 -0.863,0.574 -0.867,0.578 -0.789,0.649 -0.723,0.718 -0.719,0.719 -0.648,0.793 -0.574,0.793 -0.578,0.863 -0.504,0.938 -0.43,0.933 -0.359,0.938 -0.289,0.937 -0.289,1.008 -0.215,1.008 -0.074,1.008 -0.071,1.008 0,0.574 z m 7.848,0 0,8.137 0.07,0.503 0.074,0.504 0.071,0.578 0.289,1.008 0.215,0.504 0.218,0.43 0.215,0.504 0.289,0.433 0.36,0.43 0.289,0.363 0.359,0.43 0.43,0.359 0.359,0.289 0.434,0.36 0.433,0.289 0.504,0.215 0.43,0.219 0.504,0.214 1.008,0.289 0.504,0.071 0.578,0.07 0.504,0.074 0.504,0 0.574,-0.074 1.008,-0.141 1.007,-0.289 0.504,-0.214 0.504,-0.219 0.434,-0.215 0.433,-0.289 0.43,-0.36 0.434,-0.289 0.359,-0.359 0.359,-0.43 0.36,-0.363 0.289,-0.43 0.289,-0.433 0.285,-0.504 0.219,-0.43 0.144,-0.504 0.215,-0.504 0.07,-0.504 0.145,-0.578 0.074,-0.504 0,-9.433 -0.074,-0.574 -0.145,-0.504 -0.07,-0.504 -0.215,-0.504 -0.144,-0.504 -0.219,-0.434 -0.285,-0.503 -0.289,-0.43 -0.289,-0.434 -0.36,-0.359 -0.359,-0.434 -0.359,-0.359 -0.434,-0.289 -0.43,-0.36 -0.433,-0.285 -0.434,-0.218 -1.008,-0.43 -1.511,-0.434 -0.504,0 -0.574,-0.07 -0.504,0 -0.504,0.07 -0.578,0 -1.512,0.434 -0.504,0.215 -0.43,0.215 -0.504,0.218 -0.433,0.285 -0.434,0.36 -0.359,0.289 -0.43,0.359 -0.359,0.434 -0.289,0.359 -0.36,0.434 -0.289,0.43 -0.215,0.503 -0.218,0.434 -0.215,0.504 -0.289,1.008 -0.071,0.504 -0.074,0.574 -0.07,0.504 0,0.289 z m 36.504,1.945 0,7.918 23.687,0 0,-7.918 -23.687,0 z" /><path
         id="path12936"
         style="fill:#000000;fill-opacity:1;fill-rule:evenodd;stroke:none"
         d="m 48.883,134.522 0,32.977 -3.961,0 0,6.406 3.961,0 0,6.84 0.07,0.648 0.145,0.578 0.144,0.649 0.215,0.574 0.219,0.578 0.285,0.504 0.289,0.574 0.289,0.504 0.359,0.504 0.434,0.504 0.43,0.434 0.433,0.429 0.504,0.434 0.504,0.359 0.504,0.289 0.574,0.289 0.504,0.285 0.578,0.219 0.649,0.215 0.574,0.145 0.578,0.144 0.648,0.07 6.84,0 0,-7.343 -5.472,0 -0.219,-0.071 -0.285,0 -0.145,-0.074 -0.144,0 -0.145,-0.07 -0.144,-0.074 -0.145,-0.071 -0.141,-0.074 -0.074,-0.141 -0.144,-0.074 -0.215,-0.215 -0.07,-0.144 -0.145,-0.07 -0.074,-0.145 -0.07,-0.145 -0.075,-0.144 -0.07,-0.145 0,-0.144 -0.07,-0.145 0,-0.359 -0.075,-0.145 0,-5.976 7.922,0 0,-6.406 -7.922,0 0,-32.977 -7.847,0 z m 53.281,0 -7.922,0 0,4.031 -0.07,-0.215 -0.578,-0.718 -0.285,-0.36 -0.289,-0.363 -0.36,-0.359 -0.363,-0.285 -0.359,-0.29 -0.36,-0.218 -0.43,-0.285 -0.433,-0.219 -0.36,-0.141 -0.503,-0.219 -0.434,-0.07 -0.43,-0.144 -0.433,-0.071 -0.504,-0.074 -6.77,0 -1.437,0.289 -0.723,0.145 -0.719,0.215 -0.718,0.289 -1.946,1.078 -0.574,0.433 -0.578,0.504 -0.574,0.504 -0.504,0.504 -0.434,0.574 -0.429,0.649 -0.434,0.578 -0.359,0.648 -0.29,0.719 -0.289,0.648 -0.429,1.438 -0.145,0.723 -0.074,0.793 -0.07,0.718 0,0.719 0.07,0.793 0.074,0.719 0.145,0.722 0.429,1.438 0.289,0.648 0.29,0.719 0.359,0.649 0.434,0.648 0.429,0.578 0.434,0.574 0.504,0.504 0.574,0.578 0.578,0.43 0.574,0.434 0.649,0.429 0.648,0.36 0.649,0.289 0.718,0.289 0.719,0.215 0.723,0.218 0.718,0.141 0.719,0.074 0.793,0.071 12.168,0 0,4.535 -0.07,0.289 -0.074,0.219 -0.071,0.285 -0.074,0.218 -0.141,0.286 -0.144,0.218 -0.434,0.645 -0.214,0.219 -0.145,0.214 -0.215,0.145 -0.219,0.145 -0.214,0.144 -0.215,0.141 -0.289,0.144 -0.215,0.145 -0.289,0.074 -0.215,0.07 -0.289,0.075 -0.145,0 -0.574,0.14 -1.226,0.145 -1.223,0.074 -2.375,0 -1.227,-0.074 -1.222,-0.145 -0.575,-0.14 -0.144,0 -0.219,-0.075 -0.285,-0.07 -0.219,-0.074 -0.215,-0.145 -0.289,-0.07 -0.429,-0.289 -0.219,-0.145 -0.141,-0.215 -0.218,-0.144 -0.36,-0.359 -0.144,-0.215 -0.145,-0.219 -0.141,-0.215 -0.074,-0.144 -6.191,4.898 0.215,0.285 0.359,0.578 0.504,0.575 0.504,0.503 0.508,0.504 0.504,0.434 0.574,0.434 0.648,0.359 0.574,0.359 0.649,0.289 0.648,0.286 0.649,0.218 0.719,0.215 0.648,0.145 0.359,0.07 0.793,0.144 1.586,0.215 1.582,0.075 1.657,0.07 1.585,-0.07 1.582,-0.075 1.586,-0.215 0.79,-0.144 0.359,-0.07 0.723,-0.145 0.718,-0.215 0.719,-0.289 0.723,-0.289 1.297,-0.719 0.574,-0.433 0.648,-0.43 0.574,-0.504 0.504,-0.578 0.504,-0.504 0.434,-0.574 0.433,-0.648 0.43,-0.649 0.36,-0.648 0.289,-0.719 0.289,-0.649 0.214,-0.722 0.145,-0.719 0.145,-0.793 0.07,-0.719 0.074,-0.718 0,-27.938 z m -7.922,17.281 0,-5.402 -0.07,-0.359 0,-0.286 -0.074,-0.289 -0.145,-0.289 -0.07,-0.289 -0.145,-0.285 -0.144,-0.289 -0.215,-0.289 -0.145,-0.215 -0.214,-0.215 -0.215,-0.218 -0.219,-0.215 -0.215,-0.215 -0.289,-0.219 -0.215,-0.141 -0.578,-0.289 -0.285,-0.074 -0.289,-0.144 -0.289,-0.071 -0.285,-0.07 -0.649,0 -0.144,-0.074 -6.41,0 -0.145,0.074 -0.645,0 -0.578,0.141 -0.359,0.144 -0.289,0.074 -0.215,0.145 -0.289,0.144 -0.289,0.141 -0.215,0.219 -0.289,0.215 -0.215,0.215 -0.215,0.218 -0.144,0.215 -0.215,0.215 -0.289,0.578 -0.145,0.285 -0.144,0.289 -0.07,0.289 -0.075,0.289 -0.07,0.286 -0.07,0.359 0,0.867 0.07,0.36 0.07,0.285 0.075,0.289 0.07,0.289 0.144,0.289 0.145,0.285 0.289,0.578 0.215,0.215 0.144,0.215 0.215,0.219 0.215,0.214 0.289,0.215 0.215,0.219 0.289,0.141 0.289,0.144 0.215,0.145 0.289,0.144 0.359,0.074 0.578,0.141 0.286,0 0.359,0.074 11.449,0 z m 19.731,-17.281 0,55.152 7.918,0 0,-20.23 0.289,0.285 0.574,0.649 0.578,0.578 0.574,0.504 0.649,0.503 0.718,0.43 0.723,0.434 0.719,0.359 0.793,0.289 0.719,0.289 1.585,0.43 0.864,0.074 0.793,0.141 0.789,0 0.863,-0.071 0.793,-0.07 0.793,-0.074 0.793,-0.215 0.789,-0.215 1.586,-0.578 0.719,-0.359 0.722,-0.434 0.645,-0.43 0.648,-0.503 0.649,-0.579 0.578,-0.503 0.574,-0.649 0.504,-0.648 0.434,-0.645 0.429,-0.723 0.434,-0.718 0.359,-0.719 0.289,-0.793 0.43,-1.586 0.145,-0.789 0.074,-0.793 0.07,-0.793 0,-27 -7.848,0 0,24.191 -0.07,0.219 0,0.504 -0.074,0.504 -0.07,0.43 -0.289,1.008 -0.215,0.433 -0.145,0.36 -0.289,0.433 -0.215,0.43 -0.359,0.433 -0.289,0.36 -0.719,0.719 -0.359,0.289 -0.434,0.289 -0.359,0.285 -0.434,0.219 -0.504,0.214 -0.429,0.215 -0.504,0.145 -0.434,0.144 -0.504,0.075 -0.504,0.07 -1.441,0 -0.504,-0.07 -0.504,-0.075 -0.504,-0.144 -0.43,-0.145 -0.503,-0.215 -0.434,-0.214 -0.434,-0.219 -0.429,-0.285 -0.36,-0.289 -0.433,-0.289 -0.36,-0.36 -0.289,-0.359 -0.359,-0.36 -0.289,-0.433 -0.285,-0.43 -0.219,-0.433 -0.215,-0.36 -0.144,-0.433 -0.29,-1.008 -0.07,-0.43 -0.074,-0.504 -0.07,-0.504 0,-24.41 -7.918,0 z m 43.484,0 0,39.383 7.852,0 0,-4.461 0.285,0.285 0.504,0.649 0.648,0.503 0.578,0.579 0.649,0.503 0.644,0.43 0.723,0.363 1.437,0.719 0.793,0.289 0.719,0.215 1.586,0.289 0.793,0.07 0.863,0.071 0.793,0 0.789,-0.071 1.586,-0.289 0.793,-0.214 0.719,-0.215 0.793,-0.289 0.719,-0.36 0.718,-0.433 0.649,-0.36 0.648,-0.504 0.36,-0.214 -5.614,-6.985 -0.218,0.215 -0.36,0.289 -0.359,0.215 -0.434,0.289 -0.429,0.215 -0.434,0.215 -0.43,0.144 -0.433,0.145 -0.504,0.144 -0.434,0.075 -0.504,0.07 -1.437,0 -0.434,-0.07 -0.504,-0.075 -0.429,-0.144 -0.504,-0.145 -0.434,-0.144 -0.433,-0.215 -0.43,-0.215 -0.36,-0.215 -0.433,-0.289 -0.359,-0.289 -0.36,-0.359 -0.359,-0.289 -0.578,-0.719 -0.289,-0.434 -0.215,-0.429 -0.289,-0.36 -0.145,-0.363 -0.215,-0.504 -0.144,-0.43 -0.071,-0.433 -0.074,-0.504 -0.07,-0.504 -0.07,-0.43 0,-24.41 -7.852,0 z m 30.602,0 0,6.41 19.726,26.063 -18.789,0 0,6.91 28.582,0 0,-5.902 -19.656,-26.137 19.656,0 0,-7.344 -29.519,0 z m 69.984,16.777 -24.695,0 0,-1.226 0.07,-0.504 0.074,-0.504 0.07,-0.504 0.075,-0.504 0.14,-0.429 0.219,-0.504 0.215,-0.434 0.215,-0.43 0.219,-0.433 0.285,-0.434 0.359,-0.43 0.289,-0.359 0.36,-0.363 0.359,-0.36 0.363,-0.285 0.43,-0.289 0.433,-0.289 0.43,-0.215 0.434,-0.215 0.289,-0.074 0.285,-0.144 0.578,-0.215 1.297,-0.289 0.648,-0.07 0.645,-0.075 1.297,0 0.648,0.075 0.649,0.07 0.648,0.144 0.649,0.215 0.574,0.219 0.648,0.215 0.578,0.289 0.575,0.285 0.578,0.363 0.504,0.43 0.503,0.359 0.504,0.434 0.43,0.504 0.215,0.215 5.976,-5.11 -0.359,-0.433 -0.793,-0.793 -0.789,-0.793 -0.863,-0.645 -0.938,-0.722 -0.937,-0.575 -2.016,-1.007 -1.008,-0.434 -1.078,-0.359 -1.082,-0.289 -1.078,-0.286 -1.082,-0.144 -1.152,-0.074 -1.078,-0.071 -1.153,0.071 -1.152,0.074 -1.078,0.144 -1.082,0.215 -1.078,0.289 -1.082,0.36 -0.504,0.215 -0.434,0.214 -0.934,0.36 -0.793,0.508 -0.863,0.503 -0.793,0.575 -0.718,0.574 -0.719,0.648 -0.723,0.723 -0.574,0.719 -0.649,0.793 -0.503,0.789 -0.504,0.793 -0.434,0.863 -0.43,0.938 -0.289,0.863 -0.289,0.937 -0.289,0.934 -0.14,0.937 -0.145,1.008 0,9.863 0.07,1.008 0.075,1.008 0.214,1.008 0.289,0.937 0.286,0.938 0.359,0.934 0.434,0.937 0.503,0.938 0.579,0.863 0.574,0.789 0.648,0.793 0.719,0.793 0.723,0.648 0.789,0.649 0.863,0.648 0.867,0.504 0.863,0.504 0.934,0.43 0.938,0.359 1.007,0.363 0.938,0.215 1.008,0.215 1.008,0.144 1.078,0.071 1.007,0 1.008,-0.071 1.008,-0.144 1.008,-0.215 1.012,-0.215 0.933,-0.363 1.008,-0.359 0.863,-0.43 0.938,-0.504 0.863,-0.504 1.586,-1.297 0.789,-0.648 0.649,-0.793 0.722,-0.793 0.574,-0.789 0.504,-0.863 0.504,-0.938 0.434,-0.937 0.429,-0.934 0.579,-1.875 0.289,-2.016 0.07,-1.008 0,-7.414 z m -24.695,6.911 0,0.218 0.07,0.575 0.074,0.503 0.07,0.504 0.29,1.008 0.429,1.008 0.219,0.359 0.285,0.434 0.363,0.434 0.286,0.429 0.359,0.36 0.434,0.359 0.359,0.363 0.434,0.285 0.429,0.289 0.504,0.215 0.504,0.289 0.434,0.145 0.504,0.215 0.503,0.074 0.579,0.145 0.503,0.07 1.582,0 0.504,-0.07 0.504,-0.145 0.504,-0.074 0.504,-0.215 0.504,-0.145 0.504,-0.289 0.434,-0.215 0.429,-0.289 0.434,-0.285 0.433,-0.363 0.719,-0.719 0.36,-0.429 0.578,-0.868 0.285,-0.359 0.219,-0.504 0.14,-0.504 0.219,-0.504 0.07,-0.504 0.145,-0.504 0.07,-0.503 0,-0.793 -16.773,0 z m 67.101,-23.688 -7.847,0 0,4.465 -0.286,-0.359 -1.73,-1.731 -0.719,-0.43 -0.648,-0.504 -0.719,-0.359 -0.723,-0.363 -0.789,-0.36 -0.722,-0.285 -0.789,-0.218 -0.793,-0.145 -0.864,-0.141 -0.793,-0.074 -1.656,0 -0.793,0.074 -0.793,0.141 -0.863,0.145 -0.719,0.289 -0.793,0.214 -0.793,0.36 -0.719,0.363 -0.718,0.43 -0.649,0.433 -1.297,1.008 -0.574,0.574 -0.578,0.649 -0.504,0.578 -0.43,0.719 -0.433,0.648 -0.434,0.719 -0.359,0.793 -0.285,0.719 -0.219,0.793 -0.215,0.793 -0.144,0.863 -0.071,0.793 -0.074,0.789 0,27 7.848,0 0,-24.336 0.074,-0.504 0.07,-0.504 0.074,-0.504 0.141,-0.429 0.145,-0.504 0.144,-0.434 0.215,-0.504 0.289,-0.43 0.215,-0.433 0.289,-0.36 1.441,-1.441 0.36,-0.289 0.433,-0.215 0.43,-0.289 0.504,-0.215 0.434,-0.144 0.503,-0.145 0.43,-0.144 1.008,-0.141 1.441,0 1.008,0.141 0.504,0.144 0.434,0.145 0.504,0.144 0.429,0.215 0.434,0.289 0.433,0.215 0.36,0.289 0.43,0.359 0.363,0.36 0.285,0.363 0.359,0.359 0.289,0.36 0.289,0.433 0.215,0.43 0.215,0.504 0.145,0.434 0.144,0.504 0.145,0.429 0.07,0.504 0.074,0.504 0.071,0.504 0,24.336 7.847,0 0,-39.383 z m 42.481,39.383 0,-40.391 -0.071,-0.863 -0.074,-0.938 -0.215,-0.933 -0.215,-0.867 -0.214,-0.864 -0.364,-0.863 -0.359,-0.863 -0.359,-0.793 -0.504,-0.863 -0.504,-0.719 -0.574,-0.723 -0.579,-0.719 -1.296,-1.296 -0.719,-0.575 -0.719,-0.578 -0.793,-0.504 -0.793,-0.429 -0.359,-0.219 -0.504,-0.285 -0.938,-0.36 -1.007,-0.363 -1.008,-0.359 -1.078,-0.215 -1.008,-0.145 -1.082,-0.144 -1.008,-0.071 -1.078,0 -1.082,0.071 -1.008,0.144 -1.078,0.215 -1.008,0.219 -2.016,0.719 -0.937,0.433 -0.938,0.504 -0.933,0.504 -0.863,0.574 -0.868,0.649 -0.789,0.718 -0.793,0.723 -0.648,0.789 -0.359,0.434 6.121,4.969 0.214,-0.219 0.36,-0.504 0.433,-0.359 0.43,-0.43 0.504,-0.36 1.512,-0.867 0.578,-0.285 0.504,-0.219 0.574,-0.144 0.578,-0.141 0.574,-0.074 0.649,-0.07 0.574,-0.075 1.152,0 0.649,0.075 0.578,0.144 0.574,0.141 0.578,0.144 0.504,0.219 0.574,0.215 0.289,0.144 0.145,0.071 0.43,0.219 0.359,0.285 0.363,0.289 0.36,0.289 0.359,0.285 0.289,0.363 0.359,0.36 0.215,0.359 0.289,0.359 0.215,0.434 0.215,0.359 0.145,0.43 0.218,0.434 0.141,0.433 0.074,0.504 0.071,0.43 0.074,0.433 0,5.688 -0.219,-0.359 -0.574,-0.579 -0.574,-0.574 -0.649,-0.578 -0.648,-0.43 -0.723,-0.504 -0.645,-0.359 -0.792,-0.363 -0.719,-0.36 -0.793,-0.285 -0.793,-0.218 -0.793,-0.145 -0.789,-0.141 -0.867,-0.074 -1.582,0 -0.864,0.074 -0.793,0.141 -0.793,0.145 -0.793,0.289 -0.789,0.214 -0.722,0.36 -0.719,0.363 -0.719,0.43 -0.722,0.433 -0.649,0.504 -0.574,0.504 -0.649,0.574 -0.504,0.649 -0.503,0.578 -0.504,0.719 -0.434,0.648 -0.359,0.719 -0.36,0.793 -0.289,0.719 -0.285,0.793 -0.144,0.793 -0.215,0.863 -0.074,0.793 -0.071,0.789 0,14.617 0.071,0.793 0.074,0.793 0.215,0.789 0.144,0.793 0.285,0.793 0.289,0.793 0.719,1.437 0.434,0.723 0.504,0.645 1.007,1.297 0.649,0.503 0.574,0.579 0.649,0.503 0.722,0.43 0.719,0.434 0.719,0.359 0.722,0.289 0.789,0.289 1.586,0.43 0.793,0.074 0.864,0.07 0.793,0.071 0.789,0 0.867,-0.141 0.789,-0.074 1.586,-0.43 0.793,-0.289 0.719,-0.289 0.792,-0.359 0.645,-0.434 0.723,-0.43 1.297,-1.007 0.574,-0.578 0.574,-0.649 0.219,-0.285 0,4.461 7.918,0 z m -7.918,-24.117 0,-0.723 -0.074,-0.504 -0.071,-0.504 -0.144,-0.429 -0.145,-0.504 -0.215,-0.434 -0.215,-0.504 -0.218,-0.43 -0.285,-0.433 -0.579,-0.719 -0.359,-0.363 -0.719,-0.719 -0.433,-0.289 -0.434,-0.215 -0.43,-0.289 -0.433,-0.215 -0.43,-0.144 -0.504,-0.145 -0.433,-0.144 -1.008,-0.141 -1.512,0 -0.504,0.07 -0.433,0.071 -1.008,0.289 -0.43,0.144 -0.434,0.215 -0.433,0.289 -0.43,0.215 -0.433,0.289 -0.719,0.719 -0.359,0.363 -0.579,0.719 -0.285,0.433 -0.219,0.43 -0.214,0.504 -0.215,0.434 -0.145,0.504 -0.074,0.429 -0.141,0.504 -0.074,0.504 0,10.371 0.074,0.504 0.141,0.43 0.074,0.504 0.145,0.504 0.215,0.433 0.214,0.36 0.219,0.433 0.285,0.43 0.289,0.433 0.29,0.36 0.718,0.719 0.36,0.289 0.433,0.289 0.43,0.285 0.433,0.219 0.434,0.214 0.43,0.215 1.008,0.289 0.433,0.075 0.504,0.07 1.512,0 0.504,-0.07 0.504,-0.075 0.433,-0.144 0.504,-0.145 0.43,-0.215 0.433,-0.214 0.43,-0.219 0.434,-0.285 0.433,-0.289 0.36,-0.289 0.718,-0.719 0.289,-0.36 0.29,-0.433 0.285,-0.43 0.218,-0.433 0.215,-0.36 0.215,-0.433 0.289,-1.008 0.071,-0.43 0.074,-0.504 0,-9.648 z m 51.336,1.511 -24.696,0 0,-1.226 0.141,-1.008 0.074,-0.504 0.145,-0.504 0.144,-0.429 0.145,-0.504 0.215,-0.434 0.214,-0.43 0.29,-0.433 0.214,-0.434 0.36,-0.43 0.289,-0.359 0.359,-0.363 0.36,-0.36 0.433,-0.285 0.36,-0.289 0.433,-0.289 0.43,-0.215 0.433,-0.215 0.289,-0.074 0.286,-0.144 0.578,-0.215 1.297,-0.289 0.644,-0.07 0.649,-0.075 1.296,0 0.649,0.075 0.648,0.07 0.649,0.144 0.648,0.215 0.649,0.219 0.574,0.215 0.574,0.289 0.578,0.285 0.574,0.363 0.504,0.43 0.504,0.359 0.504,0.434 0.434,0.504 0.215,0.215 5.976,-5.11 -0.359,-0.433 -0.793,-0.793 -0.789,-0.793 -0.867,-0.645 -0.934,-0.722 -0.938,-0.575 -2.015,-1.007 -1.008,-0.434 -1.082,-0.359 -1.078,-0.289 -1.078,-0.286 -1.082,-0.144 -1.153,-0.074 -1.078,-0.071 -1.152,0.071 -1.082,0.074 -1.152,0.144 -1.079,0.215 -1.082,0.289 -1.078,0.36 -0.504,0.215 -0.433,0.214 -0.864,0.36 -0.863,0.508 -0.863,0.503 -0.793,0.575 -0.719,0.574 -0.722,0.648 -0.719,0.723 -0.574,0.719 -0.649,0.793 -0.504,0.789 -0.504,0.793 -0.433,0.863 -0.434,0.938 -0.285,0.863 -0.289,0.937 -0.215,0.934 -0.219,0.937 -0.07,1.008 -0.07,0.938 0,8.925 0.07,1.008 0.289,2.016 0.285,0.937 0.289,0.938 0.36,0.934 0.433,0.937 0.504,0.938 0.574,0.863 0.579,0.789 0.648,0.793 0.719,0.793 0.718,0.648 0.793,0.649 0.864,0.648 0.863,0.504 0.867,0.504 0.934,0.43 0.937,0.359 1.008,0.363 2.016,0.43 1.007,0.144 1.008,0.071 1.008,0 1.008,-0.071 1.008,-0.144 2.015,-0.43 1.008,-0.363 0.938,-0.359 0.937,-0.43 1.727,-1.008 0.863,-0.648 0.793,-0.649 0.719,-0.648 0.722,-0.793 0.645,-0.793 0.578,-0.789 0.574,-0.863 0.434,-0.938 0.504,-0.937 0.359,-0.934 0.578,-1.875 0.141,-1.008 0.144,-1.008 0.075,-1.008 0,-7.414 z m -24.696,6.911 0,0.218 0.071,0.575 0.07,0.503 0.074,0.504 0.289,1.008 0.43,1.008 0.289,0.359 0.289,0.434 0.285,0.434 0.363,0.429 0.719,0.719 0.43,0.363 0.363,0.285 0.504,0.289 0.43,0.215 0.504,0.289 0.433,0.145 0.504,0.215 0.574,0.074 0.504,0.145 0.504,0.07 1.586,0 0.504,-0.07 0.504,-0.145 0.504,-0.074 0.504,-0.215 0.504,-0.145 0.504,-0.289 0.433,-0.215 0.43,-0.289 0.434,-0.285 0.429,-0.363 0.363,-0.359 0.36,-0.36 0.359,-0.429 0.289,-0.434 0.285,-0.434 0.289,-0.359 0.215,-0.504 0.219,-0.504 0.145,-0.504 0.14,-0.504 0.074,-0.504 0.071,-0.503 0,-0.793 -16.774,0 z" /><path
         id="path12938"
         style="fill:#000000;fill-opacity:1;fill-rule:evenodd;stroke:none"
         d="m 164.371,51.577 0,33.051 -3.961,0 0,6.406 3.961,0 0,6.914 0.07,0.574 0.145,0.649 0.144,0.574 0.215,0.578 0.219,0.574 0.285,0.578 0.289,0.574 0.289,0.504 0.36,0.504 0.433,0.434 0.43,0.504 0.434,0.433 1.511,1.078 0.504,0.29 0.574,0.285 0.579,0.218 0.574,0.145 0.648,0.215 0.578,0.07 0.645,0.074 0.578,0.071 6.266,0 0,-7.414 -5.832,0 -0.145,-0.075 -0.144,0 -0.145,-0.07 -0.145,-0.074 -0.289,-0.141 -0.144,-0.074 -0.215,-0.215 -0.144,-0.074 -0.071,-0.141 -0.074,-0.074 -0.141,-0.144 -0.074,-0.145 -0.07,-0.141 -0.074,-0.144 -0.071,-0.145 0,-0.144 -0.074,-0.145 0,-0.144 -0.07,-0.145 0,-6.191 7.922,0 0,-6.406 -7.922,0 0,-33.051 -7.848,0 z m 24.625,0 0,39.457 7.918,0 0,-4.391 0.289,0.289 0.504,0.574 0.574,0.575 0.649,0.507 0.648,0.504 0.649,0.43 0.718,0.434 0.723,0.359 0.719,0.289 0.718,0.285 0.793,0.219 0.793,0.215 0.793,0.144 0.789,0.071 1.657,0 0.793,-0.071 0.793,-0.074 0.793,-0.14 0.789,-0.219 0.722,-0.289 0.789,-0.285 0.723,-0.36 0.719,-0.363 0.648,-0.43 0.649,-0.504 0.289,-0.215 -5.547,-6.914 -0.215,0.145 -0.359,0.289 -0.434,0.285 -0.359,0.219 -0.434,0.215 -0.43,0.215 -0.433,0.218 -0.504,0.141 -0.43,0.074 -0.504,0.071 -0.433,0.074 -0.504,0.07 -0.434,0 -0.504,-0.07 -0.504,-0.074 -0.429,-0.071 -0.504,-0.074 -0.434,-0.141 -0.43,-0.218 -0.433,-0.145 -0.434,-0.215 -0.429,-0.289 -0.36,-0.285 -0.363,-0.289 -0.359,-0.289 -0.36,-0.359 -0.289,-0.36 -0.359,-0.359 -0.215,-0.36 -0.289,-0.433 -0.215,-0.434 -0.215,-0.429 -0.144,-0.434 -0.145,-0.504 -0.144,-0.43 -0.071,-0.433 -0.074,-0.504 0,-24.914 -7.918,0 z m 63.145,16.777 -24.7,0 0,-1.726 0.075,-0.504 0.144,-0.504 0.07,-0.434 0.145,-0.504 0.215,-0.504 0.144,-0.433 0.289,-0.43 0.215,-0.434 0.289,-0.429 0.289,-0.36 0.36,-0.363 0.719,-0.719 0.359,-0.289 0.434,-0.285 0.429,-0.289 0.434,-0.215 0.433,-0.219 0.215,-0.144 0.289,-0.07 0.649,-0.215 0.644,-0.219 0.649,-0.07 0.648,-0.145 0.649,0 0.648,-0.07 0.648,0.07 0.649,0 1.297,0.289 0.644,0.145 0.578,0.215 0.649,0.289 0.574,0.215 0.578,0.359 0.504,0.359 0.574,0.36 0.504,0.433 0.434,0.434 0.504,0.43 0.215,0.289 5.976,-5.184 -0.359,-0.359 -0.793,-0.864 -0.863,-0.722 -0.864,-0.719 -0.867,-0.648 -0.934,-0.575 -1.007,-0.578 -1.008,-0.504 -1.008,-0.433 -1.082,-0.36 -1.078,-0.285 -1.082,-0.219 -1.153,-0.144 -1.078,-0.141 -2.234,0 -1.148,0.071 -1.083,0.214 -1.078,0.219 -1.082,0.285 -1.078,0.36 -0.504,0.144 -0.504,0.219 -0.867,0.43 -0.863,0.433 -0.793,0.504 -0.789,0.574 -0.793,0.649 -0.719,0.648 -0.648,0.649 -0.649,0.718 -0.578,0.793 -0.504,0.793 -1.008,1.727 -0.359,0.863 -0.359,0.938 -0.289,0.937 -0.215,0.934 -0.145,0.937 -0.144,0.934 -0.071,1.008 0,8.859 0.071,1.008 0.144,1.078 0.215,0.938 0.219,1.007 0.359,1.008 0.36,0.934 0.433,0.937 1.008,1.727 0.648,0.867 0.645,0.789 1.441,1.441 0.793,0.649 0.793,0.574 0.864,0.578 0.933,0.504 0.938,0.43 0.937,0.363 0.934,0.285 1.008,0.289 1.007,0.215 1.008,0.074 1.008,0.071 1.082,0 1.008,-0.071 1.008,-0.074 1.008,-0.215 1.007,-0.289 0.938,-0.285 0.933,-0.363 0.938,-0.43 0.937,-0.504 0.864,-0.578 0.793,-0.574 0.789,-0.649 0.722,-0.718 0.719,-0.723 0.649,-0.789 0.648,-0.867 1.008,-1.727 0.43,-0.937 0.359,-0.934 0.363,-1.008 0.215,-1.007 0.215,-0.938 0.144,-1.078 0.075,-1.008 0,-7.418 z m -24.7,6.914 0,0.285 0.075,0.504 0,0.504 0.144,0.578 0.145,0.504 0.14,0.504 0.219,0.43 0.215,0.504 0.215,0.433 0.289,0.504 0.289,0.434 0.359,0.359 0.36,0.43 0.359,0.363 0.434,0.285 0.429,0.364 0.434,0.214 0.504,0.289 0.433,0.215 0.504,0.215 1.008,0.289 0.504,0.071 0.574,0.074 0.504,0.07 0.504,0 0.504,-0.07 0.578,-0.074 0.504,-0.071 1.008,-0.289 0.504,-0.215 0.429,-0.215 0.504,-0.289 0.434,-0.214 0.433,-0.364 0.43,-0.285 0.36,-0.363 0.359,-0.43 0.363,-0.359 0.285,-0.434 0.289,-0.504 0.215,-0.433 0.219,-0.504 0.215,-0.43 0.289,-1.008 0.144,-0.578 0.071,-0.504 0,-0.789 -16.778,0 z m 35.571,-23.691 0,39.457 7.847,0 0,-39.457 -7.847,0 z m 0,47.379 0,7.918 7.847,0 0,-7.918 -7.847,0 z" /><path
         id="path12940"
         style="fill:#000000;fill-opacity:1;fill-rule:evenodd;stroke:none"
         d="m 28.137,323.878 -1.817,-0.145 -1.816,-0.215 -1.82,-0.367 -1.746,-0.438 -1.743,-0.582 -1.672,-0.652 -1.671,-0.801 -1.602,-0.871 -1.527,-0.945 -1.457,-1.094 -1.375,-1.16 L 8.508,315.374 7.27,314.061 6.109,312.612 5.016,311.155 4.07,309.628 3.199,308.026 2.398,306.354 1.742,304.682 1.164,302.94 0.727,301.194 0.359,299.374 0.145,297.549 0.07,295.745 0,294.878 0,29.319 0.07,28.448 0.145,26.643 0.359,24.823 0.727,23.006 1.164,21.26 1.742,19.51 2.398,17.838 3.199,16.167 4.07,14.573 5.016,13.042 6.109,11.588 7.27,10.135 8.508,8.823 9.891,7.588 l 1.375,-1.156 1.457,-1.097 1.527,-0.95 1.602,-0.867 1.671,-0.797 1.672,-0.66 1.743,-0.582 1.746,-0.43 1.82,-0.367 1.816,-0.215 1.817,-0.148 374.996,0 1.816,0.148 1.817,0.215 1.816,0.367 1.75,0.43 1.746,0.582 1.672,0.66 1.672,0.797 1.598,0.867 1.527,0.95 1.457,1.097 1.379,1.156 1.379,1.235 1.238,1.312 1.164,1.453 1.09,1.454 0.949,1.531 0.867,1.594 0.805,1.671 0.652,1.672 0.582,1.75 0.438,1.746 0.359,1.817 0.219,1.82 0.074,1.805 0.071,0.871 0,265.559 -0.071,0.867 -0.074,1.804 -0.219,1.825 -0.359,1.82 -0.438,1.746 -0.582,1.742 -0.652,1.672 -0.805,1.672 -0.867,1.602 -0.949,1.527 -1.09,1.457 -1.164,1.449 -1.238,1.313 -1.379,1.234 -1.379,1.16 -1.457,1.094 -1.527,0.945 -1.598,0.871 -1.672,0.801 -1.672,0.652 -1.746,0.582 -1.75,0.438 -1.816,0.367 -1.817,0.215 -1.816,0.145 -374.996,0 z m 0.011,-0.282 374.977,0 1.797,-0.144 1.801,-0.215 1.8,-0.363 1.727,-0.43 1.727,-0.578 1.656,-0.649 1.656,-0.793 1.586,-0.863 1.512,-0.933 1.441,-1.082 1.367,-1.153 1.367,-1.222 1.227,-1.297 1.149,-1.438 1.082,-1.441 0.933,-1.512 0.867,-1.586 0.789,-1.652 0.649,-1.657 0.578,-1.73 0.43,-1.727 0.359,-1.8 0.219,-1.801 0.07,-1.801 0.074,-0.863 0,-265.535 -0.074,-0.864 -0.07,-1.8 -0.219,-1.801 -0.359,-1.801 -0.43,-1.727 -0.578,-1.726 -0.649,-1.656 -0.789,-1.657 -0.867,-1.586 -0.933,-1.511 -1.082,-1.442 -1.149,-1.437 -1.227,-1.297 -1.367,-1.223 -1.367,-1.152 -1.441,-1.078 -1.512,-0.938 -1.586,-0.863 -1.656,-0.793 -1.656,-0.648 -1.727,-0.578 -1.727,-0.43 -1.8,-0.36 -1.801,-0.218 -1.797,-0.141 -374.977,0 -1.8,0.141 -1.801,0.218 -1.801,0.36 -1.726,0.43 -1.731,0.578 -1.656,0.648 -1.656,0.793 -1.582,0.863 -1.512,0.938 -1.442,1.078 -1.367,1.152 -1.367,1.223 -1.223,1.297 -1.152,1.437 -1.082,1.442 -0.938,1.511 -0.859,1.586 -0.793,1.657 -0.648,1.656 -0.578,1.726 -0.43,1.727 -0.363,1.801 -0.215,1.801 -0.071,1.8 -0.074,0.864 0,265.535 0.074,0.863 0.071,1.801 0.215,1.801 0.363,1.8 0.43,1.727 0.578,1.73 0.648,1.657 0.793,1.652 0.859,1.586 0.938,1.512 1.082,1.441 1.152,1.438 1.223,1.297 1.367,1.222 1.367,1.153 1.442,1.082 1.512,0.933 1.582,0.863 1.656,0.793 1.656,0.649 1.731,0.578 1.726,0.43 1.801,0.363 1.801,0.215 1.8,0.144 z" /></g></g></svg>