<?xml version="1.0" encoding="UTF-8" standalone="no"?>
<svg
   xmlns:dc="http://purl.org/dc/elements/1.1/"
   xmlns:cc="http://creativecommons.org/ns#"
   xmlns:rdf="http://www.w3.org/1999/02/22-rdf-syntax-ns#"
   xmlns:svg="http://www.w3.org/2000/svg"
   xmlns="http://www.w3.org/2000/svg"
   viewBox="0 0 600 330"
   height="330"
   width="600"
   xml:space="preserve"
   version="1.1"
   id="svg3481"><metadata
     id="metadata3487"><rdf:RDF><cc:Work
         rdf:about=""><dc:format>image/svg+xml</dc:format><dc:type
           rdf:resource="http://purl.org/dc/dcmitype/StillImage" /><dc:title></dc:title></cc:Work></rdf:RDF></metadata><defs
     id="defs3485"><clipPath
       id="clipPath3499"
       clipPathUnits="userSpaceOnUse"><path
         id="path3501"
         d="M 0,0 480,0 480,264 0,264 0,0 Z" /></clipPath></defs><g
     transform="matrix(1.25,0,0,-1.25,0,330)"
     id="g3489"><g
       id="g3491" /><g
       id="g3493"><g
         id="g3495"><g
           id="g3497" /><g
           id="g3503"><g
             id="g3505"
             clip-path="url(#clipPath3499)"><g
               id="g3507"><path
                 id="path3509"
                 style="fill:#ffffff;fill-opacity:1;fill-rule:nonzero;stroke:none"
                 d="m 31.996,263.77 c -17.512,0 -31.754,-14.254 -31.754,-31.766 l 0,-199.996 C 0.242,14.492 14.484,0.25 31.996,0.25 l 416.008,0 c 17.512,0 31.754,14.242 31.754,31.758 l 0,199.996 c 0,17.512 -14.242,31.766 -31.754,31.766" /><path
                 id="path3511"
                 style="fill:#000000;fill-opacity:1;fill-rule:nonzero;stroke:none"
                 d="M 31.996,0.48 C 14.613,0.48 0.48,14.625 0.48,32.008 l 0,199.996 c 0,17.383 14.133,31.527 31.516,31.527 l 416.008,0 c 17.383,0 31.516,-14.144 31.516,-31.527 l 0,-199.996 C 479.52,14.625 465.387,0.48 448.004,0.48 l -416.008,0 z m 416.008,263.532 -416.008,0 C 14.32,264.012 0,249.68 0,232.004 L 0,32.008 C 0,14.34 14.32,0 31.996,0 L 448.004,0 C 465.672,0 480,14.34 480,32.008 l 0,199.996 c 0,17.676 -14.328,32.008 -31.996,32.008" /></g></g></g></g></g><g
       id="g3513"><path
         id="path3515"
         style="fill:#000000;fill-opacity:1;fill-rule:nonzero;stroke:none"
         d="m 31.996,20.008 416.008,0 c 6.629,0 12,5.371 12,12 l 0,199.996 c 0,6.629 -5.371,12 -12,12 l -416.008,0 c -6.629,0 -12,-5.371 -12,-12 l 0,-199.996 c 0,-6.629 5.371,-12 12,-12 z m 0,-12 c -13.258,0 -24,10.742 -24,24 l 0,199.996 c 0,13.258 10.742,24 24,24 l 416.008,0 c 13.258,0 24,-10.742 24,-24 l 0,-199.996 c 0,-13.258 -10.742,-24 -24,-24" /><path
         id="path3517"
         style="fill:#000000;fill-opacity:1;fill-rule:nonzero;stroke:none"
         d="m 178.141,46.07 0,44.067 -5.27,0 0,8.031 5.27,0 0,6.875 c 0,4.852 1.339,8.422 4.015,10.715 2.676,2.293 6.055,3.437 10.137,3.437 l 6.777,0 0,-9.836 -5.922,0 c -3.046,0 -4.566,-1.437 -4.566,-4.316 l 0,-6.875 10.488,0 0,-8.031 -10.488,0 0,-44.067 -10.441,0 z m 26.851,0 0,52.098 10.492,0 0,-5.57 0.2,0 c 3.246,4.113 7.761,6.172 13.55,6.172 3.813,0 7.446,-1.34 10.891,-4.016 l -7.578,-9.035 c -2.274,1.707 -4.586,2.562 -6.926,2.562 -2.578,0 -4.91,-0.863 -7,-2.586 -2.094,-1.722 -3.141,-4.492 -3.137,-8.308 l 0,-31.317 -10.492,0 z m 80.305,22.082 -32.422,0 c 0,-4.281 1.16,-7.492 3.488,-9.636 2.325,-2.141 5.293,-3.211 8.907,-3.211 4.316,0 8.132,1.672 11.445,5.019 l 7.578,-6.476 c -2.578,-3.008 -5.48,-5.16 -8.707,-6.45 -3.231,-1.285 -6.602,-1.929 -10.113,-1.929 -5.356,0 -10.543,1.73 -15.559,5.195 -5.019,3.461 -7.531,10.547 -7.531,21.254 0,10.137 2.316,17.148 6.953,21.027 4.633,3.883 9.477,5.825 14.527,5.825 5.723,0 10.727,-1.985 15.008,-5.95 4.285,-3.965 6.426,-9.308 6.426,-16.035 l 0,-8.633 z m -32.422,8.633 21.98,0 c -0.167,3.914 -1.269,6.91 -3.312,8.985 -2.039,2.074 -4.602,3.113 -7.68,3.113 -3.109,0 -5.695,-1.039 -7.754,-3.113 -2.054,-2.075 -3.136,-5.071 -3.234,-8.985 z m 43.766,-30.715 0,52.098 10.488,0 0,-52.098 -10.488,0 z m 0,62.637 0,10.488 10.488,0 0,-10.488 -10.488,0 z" /><path
         id="path3519"
         style="fill:#000000;fill-opacity:1;fill-rule:nonzero;stroke:none"
         d="m 119.379,147.121 0,71.41 10.242,0 20.488,-46.562 20.047,46.562 10.242,0 0,-71.41 -10.828,0 0,44.551 -0.199,0 -14.949,-34.356 -9.016,0 -14.949,34.356 -0.246,0 0,-44.551 -10.832,0 z m 72.687,25.484 c 0,5.458 0.422,9.528 1.274,12.208 0.848,2.679 2.254,5.097 4.215,7.253 1.406,1.536 3.34,3.004 5.808,4.411 2.465,1.406 5.692,2.105 9.68,2.105 3.922,0 7.125,-0.699 9.605,-2.105 2.485,-1.407 4.43,-2.875 5.832,-4.411 1.961,-2.156 3.368,-4.574 4.215,-7.253 0.852,-2.68 1.278,-6.75 1.278,-12.208 0,-5.554 -0.426,-9.671 -1.278,-12.351 -0.847,-2.676 -2.254,-5.094 -4.215,-7.254 -1.402,-1.566 -3.347,-3.035 -5.832,-4.41 -2.48,-1.371 -5.683,-2.059 -9.605,-2.059 -3.988,0 -7.215,0.688 -9.68,2.059 -2.468,1.375 -4.402,2.844 -5.808,4.41 -1.961,2.16 -3.367,4.578 -4.215,7.254 -0.852,2.68 -1.274,6.797 -1.274,12.351 z m 31.711,-0.097 c 0,3.695 -0.187,6.293 -0.562,7.793 -0.379,1.504 -1.024,2.941 -1.938,4.312 -1.797,2.485 -4.543,3.727 -8.234,3.727 -3.758,0 -6.504,-1.242 -8.234,-3.727 -0.981,-1.371 -1.641,-2.808 -1.985,-4.312 -0.344,-1.5 -0.515,-4.067 -0.515,-7.696 0,-3.722 0.171,-6.347 0.515,-7.863 0.344,-1.519 1.004,-2.949 1.985,-4.289 1.73,-2.484 4.476,-3.726 8.234,-3.726 3.691,0 6.437,1.242 8.234,3.726 0.914,1.34 1.559,2.758 1.938,4.262 0.375,1.504 0.562,4.101 0.562,7.793 z m 22.594,-25.387 0,43.031 -5.144,0 0,7.844 5.144,0 0,6.715 c 0,4.738 1.309,8.227 3.922,10.465 2.613,2.238 5.914,3.355 9.898,3.355 l 6.618,0 0,-9.605 -5.782,0 c -2.972,0 -4.461,-1.406 -4.461,-4.215 l 0,-6.715 10.243,0 0,-7.844 -10.243,0 0,-43.031 -10.195,0 z m 52.934,0 0,4.508 -0.242,0 c -2.059,-3.399 -6.243,-5.098 -12.551,-5.098 -5.684,0 -10.094,1.481 -13.231,4.438 -3.136,2.957 -4.707,6.656 -4.707,11.101 0,4.02 1.391,7.532 4.168,10.535 2.778,3.008 6.91,4.512 12.399,4.512 l 14.164,0 0,5.293 c 0,4.344 -3.481,6.52 -10.438,6.52 -4.836,0 -8.054,-1.293 -9.656,-3.875 l -8.039,6.078 c 3.562,4.969 9.281,7.449 17.156,7.449 6.274,0 11.371,-1.223 15.289,-3.676 3.922,-2.449 5.883,-6.812 5.883,-13.086 l 0,-34.699 -10.195,0 z m 0,17.84 0,3.727 -12.254,0 c -5.914,0 -8.871,-2.043 -8.871,-6.129 0,-1.731 0.746,-3.235 2.23,-4.508 1.488,-1.274 3.961,-1.914 7.426,-1.914 4.25,0 7.223,0.476 8.922,1.422 1.699,0.949 2.547,3.414 2.547,7.402 z m 17.84,-9.363 7.156,7.058 c 4.445,-4.343 9.789,-6.519 16.027,-6.519 2.91,0 5.313,0.551 7.207,1.644 1.895,1.094 2.844,2.719 2.844,4.875 0,2.973 -2.078,4.641 -6.227,5 l -9.019,0.832 c -4.215,0.328 -7.711,1.719 -10.488,4.168 -2.778,2.449 -4.165,5.864 -4.165,10.242 0,5.165 1.813,9.071 5.438,11.715 3.629,2.649 8.137,3.969 13.527,3.969 4.446,0 8.254,-0.629 11.422,-1.887 3.168,-1.257 6.012,-2.929 8.528,-5.023 l -6.321,-7.449 c -2.027,1.371 -4.117,2.5 -6.273,3.382 -2.16,0.883 -4.61,1.325 -7.356,1.325 -3.265,0 -5.535,-0.582 -6.812,-1.742 -1.274,-1.161 -1.91,-2.622 -1.91,-4.387 0,-1.11 0.472,-2.141 1.422,-3.086 0.949,-0.949 2.71,-1.52 5.293,-1.715 l 8.429,-0.59 c 5.262,-0.359 9.035,-1.984 11.324,-4.875 2.286,-2.894 3.43,-6.347 3.43,-10.367 0,-5 -2.043,-8.855 -6.125,-11.566 -4.086,-2.715 -9.07,-4.071 -14.949,-4.071 -8.465,0 -15.93,3.024 -22.402,9.067 z" /></g></g></svg>