<?xml version="1.0" encoding="UTF-8" standalone="no"?>
<svg
   xmlns:dc="http://purl.org/dc/elements/1.1/"
   xmlns:cc="http://creativecommons.org/ns#"
   xmlns:rdf="http://www.w3.org/1999/02/22-rdf-syntax-ns#"
   xmlns:svg="http://www.w3.org/2000/svg"
   xmlns="http://www.w3.org/2000/svg"
   viewBox="0 0 539.08789 539.08789"
   height="539.08789"
   width="539.08789"
   xml:space="preserve"
   version="1.1"
   id="svg2"><metadata
     id="metadata8"><rdf:RDF><cc:Work
         rdf:about=""><dc:format>image/svg+xml</dc:format><dc:type
           rdf:resource="http://purl.org/dc/dcmitype/StillImage" /><dc:title></dc:title></cc:Work></rdf:RDF></metadata><defs
     id="defs6" /><g
     transform="matrix(1.25,0,0,-1.25,0,539.08787)"
     id="g10"><g
       id="g12"><path
         id="path14"
         style="fill:#ffffff;fill-opacity:1;fill-rule:evenodd;stroke:none"
         d="m 29.012,0.282 -0.864,0.074 -1.8,0.071 -1.801,0.218 -1.801,0.36 L 21.02,1.434 19.289,2.012 17.637,2.661 15.98,3.45 14.395,4.317 12.883,5.251 11.441,6.333 10.074,7.485 8.707,8.708 7.484,10.075 6.332,11.442 5.25,12.884 4.316,14.395 3.449,15.981 2.66,17.634 2.012,19.29 l -0.578,1.73 -0.43,1.727 -0.359,1.801 -0.219,1.8 -0.071,1.801 -0.074,0.863 0,373.247 0.074,0.863 0.071,1.801 0.219,1.8 0.359,1.801 0.43,1.727 0.578,1.73 0.648,1.653 0.789,1.656 0.867,1.586 0.934,1.511 1.082,1.442 1.152,1.367 1.223,1.367 1.367,1.223 1.367,1.152 1.442,1.082 1.512,0.934 1.585,0.867 1.657,0.789 1.652,0.649 1.731,0.578 1.726,0.429 1.801,0.36 1.801,0.219 1.8,0.07 0.864,0.074 373.246,0 0.863,-0.074 1.801,-0.07 1.801,-0.219 1.8,-0.36 1.727,-0.429 1.73,-0.578 1.657,-0.649 1.652,-0.789 1.586,-0.867 1.512,-0.934 1.441,-1.082 1.367,-1.152 1.367,-1.223 1.223,-1.367 1.153,-1.367 1.082,-1.442 0.933,-1.511 0.867,-1.586 0.789,-1.656 0.649,-1.653 0.578,-1.73 0.43,-1.727 0.359,-1.801 0.219,-1.8 0.07,-1.801 0.074,-0.863 0,-373.247 -0.074,-0.863 -0.07,-1.801 -0.219,-1.8 -0.359,-1.801 -0.43,-1.727 -0.578,-1.73 -0.649,-1.656 -0.789,-1.653 -0.867,-1.586 -0.933,-1.511 -1.082,-1.442 -1.153,-1.367 -1.223,-1.367 -1.367,-1.223 -1.367,-1.152 -1.441,-1.082 -1.512,-0.934 -1.586,-0.867 -1.652,-0.789 -1.657,-0.649 -1.73,-0.578 -1.727,-0.429 -1.8,-0.36 -1.801,-0.218 -1.801,-0.071 -0.863,-0.074 -373.246,0 z" /><path
         id="path16"
         style="fill:#000000;fill-opacity:1;fill-rule:evenodd;stroke:none"
         d="m 29.012,7.485 -0.649,0 -1.367,0.141 -1.297,0.144 -1.367,0.219 -1.297,0.359 -1.297,0.43 -1.222,0.504 -1.227,0.578 -1.223,0.649 -1.152,0.718 -1.078,0.793 -1.008,0.864 -1.008,0.937 -0.937,1.008 -0.863,1.008 -0.793,1.078 -0.719,1.152 -0.649,1.223 -0.578,1.226 -0.504,1.223 -0.429,1.297 -0.36,1.297 -0.218,1.367 -0.145,1.297 -0.141,1.367 0,374.543 0.141,1.367 0.145,1.297 0.218,1.367 0.36,1.297 0.429,1.297 0.504,1.223 0.578,1.226 0.649,1.223 0.719,1.152 0.793,1.078 0.863,1.008 0.937,1.008 1.008,0.937 1.008,0.864 1.078,0.793 1.152,0.718 1.223,0.649 1.227,0.578 1.222,0.504 1.297,0.43 1.297,0.359 1.367,0.219 1.297,0.144 1.367,0.141 374.543,0 1.367,-0.141 1.297,-0.144 1.368,-0.219 1.296,-0.359 1.297,-0.43 1.223,-0.504 1.226,-0.578 1.223,-0.649 1.152,-0.718 1.079,-0.793 1.007,-0.864 1.008,-0.937 0.938,-1.008 0.863,-1.008 0.793,-1.078 0.719,-1.152 0.648,-1.223 0.578,-1.226 0.504,-1.223 0.43,-1.297 0.359,-1.297 0.219,-1.367 0.145,-1.297 0.14,-1.367 0,-374.543 -0.14,-1.367 -0.145,-1.297 -0.219,-1.367 -0.359,-1.297 -0.43,-1.297 -0.504,-1.223 -0.578,-1.226 -0.648,-1.223 -0.719,-1.152 -0.793,-1.078 -0.863,-1.008 -0.938,-1.008 -1.008,-0.937 -1.007,-0.864 -1.079,-0.793 -1.152,-0.718 -1.223,-0.649 -1.226,-0.578 -1.223,-0.504 -1.297,-0.43 -1.296,-0.359 -1.368,-0.219 -1.297,-0.144 -1.367,-0.141 -373.894,0 z" /><path
         id="path18"
         style="fill:#ffffff;fill-opacity:1;fill-rule:evenodd;stroke:none"
         d="m 29.012,18.282 -1.008,0 -0.649,0.145 -0.648,0.074 -1.297,0.429 -0.648,0.219 -0.649,0.285 -0.574,0.36 -0.578,0.363 -0.504,0.359 -0.574,0.43 -0.434,0.504 -0.504,0.434 -0.429,0.574 -0.36,0.504 -0.363,0.578 -0.359,0.574 -0.286,0.648 -0.218,0.649 -0.43,1.297 -0.074,0.648 -0.145,0.649 0,375.261 0.145,0.649 0.074,0.648 0.43,1.297 0.218,0.649 0.286,0.648 0.359,0.574 0.363,0.578 0.36,0.504 0.429,0.574 0.504,0.434 0.434,0.504 0.574,0.43 0.504,0.359 0.578,0.363 0.574,0.36 0.649,0.285 0.648,0.219 1.297,0.429 0.648,0.075 0.649,0.144 375.262,0 0.648,-0.144 0.648,-0.075 1.297,-0.429 0.649,-0.219 0.648,-0.285 0.574,-0.36 0.579,-0.363 0.503,-0.359 0.575,-0.43 0.433,-0.504 0.504,-0.434 0.43,-0.574 0.359,-0.504 0.364,-0.578 0.359,-0.574 0.285,-0.648 0.219,-0.649 0.43,-1.297 0.074,-0.648 0.144,-0.649 0,-375.261 -0.144,-0.649 -0.074,-0.648 -0.43,-1.297 -0.219,-0.649 -0.285,-0.648 -0.359,-0.574 -0.364,-0.578 -0.359,-0.504 -0.43,-0.574 -0.504,-0.434 -0.433,-0.504 -0.575,-0.43 -0.503,-0.359 -0.579,-0.363 -0.574,-0.36 -0.648,-0.285 -0.649,-0.219 -1.297,-0.429 -0.648,-0.074 -0.648,-0.145 -374.254,0 z" /><path
         id="path20"
         style="fill:#000000;fill-opacity:1;fill-rule:evenodd;stroke:none"
         d="m 39.234,330.188 0,45.215 19.368,0 0,-6.047 -12.957,0 0,-13.32 11.375,0 0,-6.047 -11.375,0 0,-13.394 12.957,0 0,-6.407 -19.368,0 z m 34.704,0 -3.094,0 -0.434,0.071 -0.504,0.074 -0.429,0.144 -0.434,0.141 -0.434,0.144 -0.359,0.219 -0.43,0.215 -0.363,0.215 -0.719,0.578 -0.359,0.285 -0.289,0.36 -0.285,0.363 -0.289,0.359 -0.219,0.36 -0.285,0.433 -0.145,0.43 -0.215,0.359 -0.144,0.434 -0.074,0.504 -0.071,0.433 -0.074,0.43 0,0.434 -0.07,0.285 0,37.945 6.48,0 0,-37.367 0.071,-0.145 0,-0.144 0.074,-0.145 0.07,-0.144 0,-0.141 0.074,-0.144 0.141,-0.145 0.074,-0.074 0.07,-0.141 0.145,-0.074 0.144,-0.144 0.075,-0.071 0.14,-0.074 0.289,-0.141 0.145,0 0.144,-0.074 1.583,0 0,-6.047 z m 23.402,9.289 0,-0.937 -0.074,-0.578 -0.145,-0.645 -0.141,-0.578 -0.218,-0.574 -0.215,-0.578 -0.215,-0.504 -0.289,-0.574 -0.719,-1.008 -0.363,-0.434 -0.43,-0.433 -0.433,-0.43 -0.504,-0.434 -0.504,-0.359 -0.504,-0.289 -0.504,-0.285 -0.574,-0.289 -0.578,-0.215 -0.575,-0.219 -0.578,-0.141 -0.574,-0.074 -0.648,-0.07 -0.575,-0.074 -0.648,0 -0.578,0.074 -0.574,0.07 -0.649,0.074 -0.578,0.141 -0.574,0.219 -0.574,0.215 -0.508,0.289 -0.574,0.285 -0.504,0.289 -0.504,0.359 -1.297,1.297 -0.43,0.434 -0.363,0.504 -0.285,0.504 -0.289,0.574 -0.289,0.504 -0.215,0.578 -0.215,0.574 -0.144,0.578 -0.075,0.645 -0.07,0.578 -0.07,0.574 0,14.402 0.07,0.575 0.07,0.578 0.075,0.648 0.144,0.574 0.215,0.575 0.215,0.578 0.289,0.504 0.289,0.574 0.285,0.504 0.363,0.504 0.43,0.433 0.434,0.504 0.429,0.36 0.434,0.433 0.504,0.36 0.504,0.289 0.574,0.285 0.508,0.289 0.574,0.215 0.574,0.218 0.578,0.145 0.649,0.07 0.574,0.071 0.578,0.074 0.648,0 0.575,-0.074 0.648,-0.071 0.574,-0.07 0.578,-0.145 0.575,-0.218 0.578,-0.215 0.574,-0.289 0.504,-0.285 0.504,-0.289 0.504,-0.36 0.504,-0.433 0.433,-0.36 0.43,-0.504 0.363,-0.433 0.719,-1.008 0.289,-0.574 0.215,-0.504 0.215,-0.578 0.218,-0.575 0.141,-0.574 0.145,-0.648 0.074,-0.578 0,-10.223 -12.891,0 0,-4.895 0.074,-0.218 0.071,-0.215 0.074,-0.145 0.07,-0.215 0.074,-0.218 0.071,-0.141 0.144,-0.219 0.071,-0.144 0.144,-0.141 0.434,-0.433 0.215,-0.071 0.144,-0.144 0.145,-0.074 0.215,-0.071 0.214,-0.144 0.145,0 0.219,-0.071 0.215,-0.074 1.007,0 0.215,0.074 0.145,0.071 0.215,0 0.218,0.144 0.141,0.071 0.219,0.074 0.144,0.144 0.145,0.071 0.14,0.144 0.289,0.289 0.145,0.141 0.144,0.144 0.071,0.219 0.144,0.141 0.075,0.218 0.07,0.215 0.07,0.145 0.074,0.215 0,0.359 0.071,0.219 0,0.144 6.41,0 z m -12.891,9.645 0,4.539 0.074,0.215 0.071,0.215 0.074,0.218 0.07,0.141 0.074,0.219 0.071,0.144 0.144,0.215 0.071,0.145 0.144,0.144 0.145,0.141 0.289,0.289 0.215,0.074 0.144,0.141 0.145,0.074 0.215,0.144 0.214,0.071 0.145,0 0.219,0.074 0.215,0.07 1.007,0 0.215,-0.07 0.145,-0.074 0.215,0 0.218,-0.071 0.141,-0.144 0.219,-0.074 0.144,-0.141 0.145,-0.074 0.14,-0.145 0.145,-0.144 0.144,-0.141 0.289,-0.289 0.071,-0.215 0.144,-0.144 0.075,-0.219 0.07,-0.141 0.07,-0.218 0.074,-0.215 0,-0.36 0.071,-0.218 0,-4.176 -6.481,0 z m 18.578,-18.934 0,45.215 6.481,0 0,-27.07 8.062,14.109 6.41,0 -7.632,-12.887 9.289,-19.367 -7.274,0 -5.687,13.68 -3.168,-4.824 0,-8.856 -6.481,0 z m 37.946,0 -3.891,0 -0.504,0.071 -0.43,0.074 -0.433,0.144 -0.434,0.141 -0.429,0.144 -0.434,0.219 -0.359,0.215 -0.434,0.215 -0.719,0.578 -0.289,0.285 -0.359,0.36 -0.285,0.363 -0.219,0.359 -0.285,0.36 -0.219,0.433 -0.215,0.43 -0.144,0.359 -0.145,0.434 -0.07,0.504 -0.145,0.433 0,0.43 -0.074,0.434 0,20.015 -3.238,0 0,5.254 3.238,0 0,9.723 6.481,0 0,-9.723 4.035,0 0,-5.254 -4.035,0 0,-19.297 0.074,-0.144 0,-0.145 0.07,-0.144 0.074,-0.141 0.141,-0.289 0.144,-0.074 0.075,-0.141 0.144,-0.074 0.07,-0.144 0.145,-0.071 0.145,-0.074 0.289,-0.141 0.14,0 0.145,-0.074 2.379,0 0,-6.047 z m 5.687,0 0,32.254 6.406,0 0,-3.597 0.215,0.214 0.434,0.504 0.504,0.434 0.433,0.43 0.575,0.359 0.503,0.363 0.579,0.36 0.574,0.285 0.574,0.289 0.578,0.215 0.649,0.218 0.648,0.145 0.648,0.07 0.645,0.071 0.648,0.074 0.289,0 0,-6.77 -0.214,0.074 -0.36,0.071 -0.363,0.074 -0.43,0.07 -1.152,0 -0.359,-0.07 -0.434,-0.074 -0.359,-0.071 -0.36,-0.074 -0.433,-0.144 -0.36,-0.141 -0.289,-0.219 -0.719,-0.429 -0.289,-0.219 -0.863,-0.863 -0.215,-0.289 -0.215,-0.286 -0.218,-0.359 -0.215,-0.363 -0.289,-0.719 -0.071,-0.359 -0.144,-0.434 -0.07,-0.359 0,-0.36 -0.075,-0.433 0,-19.942 -6.406,0 z m 17.352,9.289 0,14.614 0.07,0.578 0.145,0.648 0.144,0.574 0.215,0.575 0.219,0.578 0.215,0.504 0.289,0.574 0.718,1.008 0.36,0.433 0.433,0.504 0.43,0.36 0.504,0.433 0.504,0.36 0.504,0.289 0.504,0.285 0.578,0.289 0.574,0.215 0.578,0.218 0.574,0.145 0.578,0.07 0.645,0.071 0.578,0.074 0.574,0 0.649,-0.074 0.578,-0.071 0.648,-0.07 0.575,-0.145 0.578,-0.218 0.574,-0.215 0.504,-0.289 0.574,-0.285 0.504,-0.289 0.508,-0.36 0.429,-0.433 0.434,-0.36 0.43,-0.504 0.433,-0.433 0.36,-0.504 0.289,-0.504 0.285,-0.574 0.289,-0.504 0.219,-0.578 0.215,-0.575 0.144,-0.574 0.07,-0.648 0.075,-0.578 0.07,-0.575 0,-14.402 -0.07,-0.574 -0.075,-0.578 -0.07,-0.645 -0.144,-0.578 -0.215,-0.574 -0.219,-0.578 -0.289,-0.504 -0.285,-0.574 -0.289,-0.504 -0.36,-0.504 -0.433,-0.434 -0.43,-0.433 -0.434,-0.43 -0.429,-0.434 -0.508,-0.359 -0.504,-0.289 -0.574,-0.285 -0.504,-0.289 -0.574,-0.215 -0.578,-0.219 -0.575,-0.141 -0.648,-0.074 -0.578,-0.07 -0.649,-0.074 -0.574,0 -0.578,0.074 -0.645,0.07 -0.578,0.074 -0.574,0.141 -0.578,0.219 -0.574,0.215 -0.578,0.289 -0.504,0.285 -0.504,0.289 -0.504,0.359 -0.504,0.434 -0.863,0.863 -0.36,0.434 -0.718,1.008 -0.289,0.574 -0.215,0.504 -0.219,0.578 -0.215,0.574 -0.144,0.578 -0.145,0.645 -0.07,0.578 0,0.937 z m 6.406,0 0,13.821 0.074,0.218 0,0.36 0.07,0.215 0.075,0.218 0.07,0.141 0.07,0.219 0.145,0.144 0.074,0.215 0.145,0.145 0.14,0.144 0.145,0.141 0.289,0.289 0.144,0.074 0.145,0.141 0.215,0.074 0.144,0.144 0.215,0.071 0.215,0 0.145,0.074 0.218,0.07 1.008,0 0.215,-0.07 0.215,-0.074 0.144,0 0.215,-0.071 0.219,-0.144 0.144,-0.074 0.141,-0.141 0.219,-0.074 0.144,-0.145 0.141,-0.144 0.144,-0.141 0.145,-0.144 0.074,-0.145 0.145,-0.215 0.07,-0.144 0.07,-0.219 0.075,-0.141 0.07,-0.218 0.074,-0.215 0.07,-0.215 0,-14.688 -0.07,-0.218 -0.074,-0.215 -0.07,-0.145 -0.075,-0.215 -0.07,-0.218 -0.07,-0.141 -0.145,-0.219 -0.074,-0.144 -0.145,-0.141 -0.144,-0.144 -0.141,-0.145 -0.144,-0.144 -0.219,-0.071 -0.141,-0.144 -0.144,-0.074 -0.219,-0.071 -0.215,-0.144 -0.144,0 -0.215,-0.071 -0.215,-0.074 -1.008,0 -0.218,0.074 -0.145,0.071 -0.215,0 -0.215,0.144 -0.144,0.071 -0.215,0.074 -0.145,0.144 -0.144,0.071 -0.719,0.718 -0.074,0.219 -0.145,0.141 -0.07,0.218 -0.07,0.215 -0.075,0.145 -0.07,0.215 0,0.359 -0.074,0.219 0,0.144 z m 20.234,-9.289 0,27 -3.242,0 0,5.254 3.242,0 0,5.617 0.141,1.008 0.289,1.008 0.215,0.434 0.219,0.503 0.214,0.43 0.29,0.434 0.289,0.359 0.359,0.434 0.719,0.718 0.359,0.29 0.434,0.285 0.429,0.289 0.434,0.289 0.434,0.215 1.007,0.289 0.43,0.144 0.504,0.071 0.504,0.074 0.504,0.07 3.527,0 0,-6.047 -3.094,0 -0.144,-0.074 -0.145,0 -0.289,-0.141 -0.14,-0.074 -0.075,-0.07 -0.144,-0.074 -0.145,-0.071 -0.07,-0.144 -0.145,-0.074 -0.07,-0.141 -0.074,-0.074 -0.07,-0.145 -0.075,-0.144 -0.07,-0.141 -0.074,-0.144 0,-5.403 4.824,0 0,-5.254 -4.824,0 0,-27 -6.477,0 z m 33.84,0 -6.48,0 0,3.239 -0.074,-0.215 -0.215,-0.36 -0.289,-0.359 -0.215,-0.289 -0.289,-0.359 -0.36,-0.29 -0.289,-0.289 -0.359,-0.214 -0.285,-0.29 -0.364,-0.144 -0.359,-0.215 -0.359,-0.144 -0.434,-0.145 -0.43,-0.141 -0.359,-0.074 -0.434,-0.07 -0.429,-0.074 -0.867,0 -0.43,0.074 -0.36,0.07 -0.433,0.074 -0.434,0.141 -0.359,0.074 -0.43,0.215 -0.363,0.145 -0.359,0.214 -0.36,0.29 -0.359,0.214 -0.289,0.289 -0.285,0.29 -0.289,0.285 -0.29,0.363 -0.214,0.359 -0.289,0.36 -0.145,0.359 -0.215,0.359 -0.144,0.434 -0.145,0.359 -0.07,0.434 -0.074,0.43 -0.071,0.433 0,6.192 0.071,0.504 0.074,0.504 0.144,0.503 0.141,0.504 0.219,0.434 0.215,0.504 0.214,0.43 0.289,0.433 0.29,0.359 0.359,0.434 0.719,0.719 0.359,0.289 0.434,0.359 0.433,0.215 0.43,0.289 0.434,0.215 1.007,0.289 0.43,0.145 0.504,0.144 0.508,0 0.504,0.07 5.039,0 0,4.106 -0.074,0.215 -0.071,0.215 -0.074,0.218 -0.07,0.141 -0.071,0.219 -0.074,0.144 -0.144,0.215 -0.071,0.145 -0.144,0.144 -0.145,0.141 -0.289,0.289 -0.14,0.074 -0.219,0.141 -0.145,0.074 -0.215,0.144 -0.214,0.071 -0.145,0 -0.145,0.074 -0.214,0.07 -1.008,0 -0.219,-0.07 -0.141,-0.074 -0.218,0 -0.215,-0.071 -0.145,-0.144 -0.214,-0.074 -0.145,-0.141 -0.145,-0.074 -0.718,-0.719 -0.075,-0.215 -0.144,-0.144 -0.07,-0.219 -0.071,-0.141 -0.074,-0.218 -0.07,-0.215 0,-0.36 -0.074,-0.218 0,-0.141 -6.407,0 0,0.934 0.071,0.578 0.144,0.648 0.145,0.574 0.215,0.575 0.218,0.578 0.215,0.504 0.289,0.574 0.719,1.008 0.359,0.433 0.434,0.504 0.43,0.36 0.504,0.433 0.503,0.36 0.504,0.289 0.504,0.285 0.578,0.289 0.575,0.215 0.578,0.218 0.574,0.145 0.578,0.07 0.648,0.071 0.575,0.074 0.648,0 0.504,-0.074 0.574,-0.071 0.649,-0.07 0.578,-0.145 0.574,-0.218 0.578,-0.215 0.504,-0.289 0.574,-0.285 0.504,-0.289 0.504,-0.36 0.434,-0.433 0.429,-0.36 0.434,-0.504 0.434,-0.433 0.359,-0.504 0.285,-0.504 0.289,-0.574 0.289,-0.504 0.215,-0.578 0.215,-0.575 0.144,-0.574 0.075,-0.648 0.07,-0.578 0.074,-0.575 0,-23.328 z m -6.48,14.11 0,-5.325 -0.074,-0.218 -0.071,-0.215 -0.074,-0.145 -0.07,-0.215 -0.071,-0.218 -0.074,-0.141 -0.144,-0.219 -0.071,-0.144 -0.144,-0.141 -0.434,-0.433 -0.14,-0.071 -0.219,-0.144 -0.145,-0.074 -0.215,-0.071 -0.214,-0.144 -0.145,0 -0.145,-0.071 -0.214,-0.074 -1.008,0 -0.219,0.074 -0.141,0.071 -0.218,0 -0.215,0.144 -0.145,0.071 -0.214,0.074 -0.145,0.144 -0.145,0.071 -0.289,0.289 -0.14,0.144 -0.145,0.141 -0.144,0.144 -0.075,0.219 -0.144,0.141 -0.07,0.218 -0.071,0.215 -0.074,0.145 -0.07,0.215 0,0.359 -0.074,0.219 0,1.871 0.074,0.144 0,0.43 0.07,0.219 0.074,0.144 0.071,0.215 0.07,0.145 0.144,0.215 0.075,0.144 0.144,0.215 0.145,0.145 0.14,0.144 0.289,0.289 0.145,0.07 0.145,0.145 0.214,0.07 0.145,0.074 0.215,0.071 0.218,0.074 0.141,0.07 0.219,0 0.215,0.071 3.457,0 z m 12.961,-14.11 0,45.215 6.406,0 0,-16.199 0.144,0.215 0.215,0.359 0.215,0.363 0.289,0.286 0.289,0.359 0.289,0.289 0.36,0.289 0.289,0.215 0.359,0.289 0.36,0.215 0.359,0.144 0.433,0.145 0.36,0.144 0.43,0.145 0.867,0.141 0.359,0.074 0.863,0 0.43,-0.074 0.867,-0.141 0.36,-0.074 0.429,-0.145 0.364,-0.215 0.359,-0.144 0.43,-0.215 0.289,-0.215 0.718,-0.578 0.29,-0.289 0.289,-0.285 0.289,-0.36 0.215,-0.363 0.429,-0.719 0.145,-0.359 0.144,-0.434 0.145,-0.359 0.144,-0.43 0.071,-0.433 0,-0.434 0.074,-0.359 0,-26.063 -6.481,0 0,23.473 -0.074,0.215 -0.07,0.215 -0.07,0.218 -0.075,0.141 -0.07,0.219 -0.074,0.144 -0.145,0.215 -0.07,0.145 -0.145,0.144 -0.144,0.141 -0.145,0.144 -0.14,0.145 -0.219,0.074 -0.145,0.141 -0.144,0.074 -0.215,0.144 -0.215,0.071 -0.144,0 -0.215,0.074 -0.219,0.07 -1.008,0 -0.215,-0.07 -0.144,-0.074 -0.215,0 -0.215,-0.071 -0.144,-0.144 -0.219,-0.074 -0.141,-0.141 -0.144,-0.074 -0.145,-0.145 -0.215,-0.144 -0.074,-0.141 -0.289,-0.289 -0.07,-0.215 -0.145,-0.144 -0.07,-0.219 -0.074,-0.141 -0.071,-0.218 -0.074,-0.215 0,-0.36 -0.07,-0.218 0,-23.11 -6.406,0 z m 25.847,0 0,32.254 6.407,0 0,-3.597 0.214,0.214 0.434,0.504 0.504,0.434 0.433,0.43 0.575,0.359 0.504,0.363 0.578,0.36 0.574,0.285 0.574,0.289 0.578,0.215 0.649,0.218 0.648,0.145 0.649,0.07 0.644,0.071 0.649,0.074 0.289,0 0,-6.77 -0.215,0.074 -0.36,0.071 -0.363,0.074 -0.43,0.07 -1.152,0 -0.359,-0.07 -0.434,-0.074 -0.359,-0.071 -0.36,-0.074 -0.433,-0.144 -0.36,-0.141 -0.289,-0.219 -0.718,-0.429 -0.289,-0.219 -0.864,-0.863 -0.215,-0.289 -0.214,-0.286 -0.219,-0.359 -0.215,-0.363 -0.289,-0.719 -0.07,-0.359 -0.145,-0.434 -0.07,-0.359 0,-0.36 -0.074,-0.433 0,-19.942 -6.407,0 z m 17.352,0 0,5.254 10.437,21.387 -9.648,0 0,5.613 16.922,0 0,-4.824 -10.442,-21.383 10.442,0 0,-6.047 -17.711,0 z m 41.183,9.289 0,-0.363 -0.074,-0.574 -0.07,-0.578 -0.145,-0.645 -0.144,-0.578 -0.145,-0.574 -0.215,-0.578 -0.289,-0.504 -0.285,-0.574 -0.363,-0.504 -0.359,-0.504 -0.36,-0.434 -0.429,-0.433 -0.434,-0.43 -0.434,-0.434 -0.504,-0.359 -0.503,-0.289 -0.575,-0.285 -0.504,-0.289 -0.578,-0.215 -0.574,-0.219 -0.648,-0.141 -0.575,-0.074 -0.578,-0.07 -0.648,-0.074 -0.574,0 -0.649,0.074 -0.578,0.07 -0.574,0.074 -0.574,0.141 -0.578,0.219 -0.575,0.215 -0.578,0.289 -0.504,0.285 -0.574,0.289 -0.434,0.359 -0.503,0.434 -0.434,0.43 -0.43,0.433 -0.359,0.434 -0.359,0.504 -0.364,0.504 -0.285,0.574 -0.219,0.504 -0.285,0.578 -0.144,0.574 -0.145,0.578 -0.144,0.645 -0.071,0.578 0,15.551 0.071,0.578 0.144,0.648 0.289,1.149 0.285,0.578 0.219,0.504 0.285,0.574 0.364,0.504 0.359,0.504 0.359,0.433 0.43,0.504 0.434,0.36 0.503,0.433 0.434,0.36 0.574,0.289 0.504,0.285 0.578,0.289 0.575,0.215 0.578,0.218 0.574,0.145 0.574,0.07 0.578,0.071 0.649,0.074 0.574,0 0.648,-0.074 0.578,-0.071 0.575,-0.07 0.648,-0.145 0.574,-0.218 0.578,-0.215 0.504,-0.289 0.575,-0.285 0.503,-0.289 0.504,-0.36 0.434,-0.433 0.434,-0.36 0.429,-0.504 0.36,-0.433 0.359,-0.504 0.363,-0.504 0.285,-0.574 0.289,-0.504 0.215,-0.578 0.289,-1.149 0.145,-0.648 0.07,-0.578 0.074,-0.575 0,-9.648 -12.96,0 0,-4.754 0.074,-0.141 0,-0.218 0.07,-0.215 0.07,-0.145 0.075,-0.215 0.07,-0.218 0.074,-0.141 0.145,-0.219 0.14,-0.144 0.075,-0.141 0.289,-0.289 0.214,-0.144 0.145,-0.071 0.144,-0.144 0.215,-0.074 0.145,-0.071 0.215,-0.144 0.215,0 0.144,-0.071 0.215,-0.074 1.012,0 0.214,0.074 0.215,0.071 0.145,0 0.215,0.144 0.144,0.071 0.215,0.074 0.145,0.144 0.218,0.071 0.141,0.144 0.289,0.289 0.145,0.141 0.074,0.144 0.14,0.219 0.075,0.141 0.07,0.218 0.074,0.215 0.07,0.145 0.075,0.215 0,0.218 0.07,0.141 0,0.363 6.48,0 z m -12.96,9.645 0,4.394 0.074,0.145 0,0.215 0.07,0.215 0.07,0.218 0.075,0.141 0.07,0.219 0.074,0.144 0.145,0.215 0.14,0.145 0.075,0.144 0.144,0.141 0.145,0.144 0.214,0.145 0.145,0.074 0.144,0.141 0.215,0.074 0.145,0.144 0.215,0.071 0.215,0 0.144,0.074 0.215,0.07 1.012,0 0.214,-0.07 0.215,-0.074 0.145,0 0.215,-0.071 0.144,-0.144 0.215,-0.074 0.145,-0.141 0.218,-0.074 0.141,-0.145 0.145,-0.144 0.144,-0.141 0.145,-0.144 0.074,-0.145 0.14,-0.215 0.075,-0.144 0.07,-0.219 0.074,-0.141 0.07,-0.218 0.075,-0.215 0,-0.215 0.07,-0.145 0,-4.394 -6.48,0 z m 37.945,-18.934 -6.41,0 0,3.239 -0.145,-0.215 -0.43,-0.719 -0.289,-0.289 -0.289,-0.359 -0.285,-0.29 -0.289,-0.289 -0.359,-0.214 -0.36,-0.29 -0.363,-0.144 -0.359,-0.215 -0.43,-0.144 -0.359,-0.145 -0.434,-0.141 -0.434,-0.074 -0.429,-0.07 -0.36,-0.074 -0.867,0 -0.429,0.074 -0.434,0.07 -0.43,0.074 -0.363,0.141 -0.43,0.074 -0.359,0.215 -0.359,0.145 -0.434,0.214 -0.289,0.29 -0.36,0.214 -0.359,0.289 -0.289,0.29 -0.289,0.285 -0.215,0.363 -0.289,0.359 -0.43,0.719 -0.144,0.359 -0.145,0.434 -0.144,0.359 -0.145,0.434 -0.07,0.43 0,0.433 -0.07,0.43 0,25.992 6.476,0 0,-23.328 0.074,-0.141 0,-0.218 0.071,-0.215 0.074,-0.145 0.07,-0.215 0.074,-0.218 0.071,-0.141 0.144,-0.219 0.071,-0.144 0.144,-0.141 0.434,-0.433 0.215,-0.071 0.144,-0.144 0.145,-0.074 0.215,-0.071 0.214,-0.144 0.145,0 0.219,-0.071 0.215,-0.074 1.007,0 0.215,0.074 0.145,0.071 0.215,0 0.218,0.144 0.141,0.071 0.219,0.074 0.144,0.144 0.145,0.071 0.14,0.144 0.219,0.145 0.07,0.144 0.145,0.141 0.144,0.144 0.071,0.219 0.144,0.141 0.075,0.218 0.07,0.215 0.07,0.145 0.074,0.215 0,0.359 0.071,0.219 0,23.109 6.41,0 0,-32.254 z m 12.961,-3.672 0,-0.504 0.07,-0.218 0.07,-0.141 0.075,-0.219 0.07,-0.214 0.074,-0.145 0.07,-0.215 0.145,-0.144 0.07,-0.145 0.289,-0.289 0.145,-0.141 0.144,-0.144 0.215,-0.145 0.145,-0.074 0.144,-0.144 0.43,-0.141 0.145,-0.074 0.218,-0.071 0.43,0 0.145,-0.074 0.214,0 0.219,0.074 0.43,0 0.144,0.071 0.215,0.074 0.219,0.07 0.144,0.071 0.215,0.144 0.145,0.074 0.144,0.145 0.141,0.144 0.145,0.141 0.433,0.434 0.07,0.144 0.145,0.215 0.074,0.145 0.07,0.214 0.075,0.219 0.07,0.141 0,0.433 0.07,0.215 0,6.985 -0.14,-0.215 -0.219,-0.36 -0.215,-0.359 -0.289,-0.289 -0.289,-0.359 -0.285,-0.29 -0.36,-0.289 -0.289,-0.214 -0.359,-0.29 -0.359,-0.144 -0.364,-0.215 -0.429,-0.144 -0.36,-0.145 -0.433,-0.141 -0.434,-0.074 -0.43,-0.07 -0.359,-0.074 -0.863,0 -0.434,0.074 -0.433,0.07 -0.43,0.074 -0.359,0.141 -0.434,0.074 -0.359,0.215 -0.434,0.145 -0.359,0.214 -0.36,0.29 -0.289,0.214 -0.359,0.289 -0.574,0.575 -0.289,0.363 -0.215,0.359 -0.219,0.36 -0.215,0.359 -0.144,0.359 -0.145,0.434 -0.145,0.359 -0.144,0.434 -0.07,0.43 0,0.433 -0.071,0.43 0,19.801 0.071,0.359 0,0.434 0.07,0.433 0.144,0.43 0.145,0.359 0.145,0.434 0.144,0.359 0.215,0.36 0.219,0.359 0.215,0.363 0.289,0.36 0.574,0.574 0.359,0.289 0.289,0.289 0.719,0.43 0.434,0.144 0.359,0.215 0.434,0.145 0.359,0.074 0.43,0.07 0.433,0.071 0.434,0.074 0.863,0 0.359,-0.074 0.43,-0.071 0.434,-0.07 0.433,-0.145 0.36,-0.144 0.429,-0.145 0.364,-0.144 0.359,-0.215 0.359,-0.289 0.289,-0.215 0.36,-0.289 0.285,-0.289 0.289,-0.359 0.289,-0.286 0.215,-0.363 0.219,-0.359 0.14,-0.215 0,3.238 6.411,0 0,-36.789 -0.075,-0.648 -0.14,-0.578 -0.145,-0.575 -0.219,-0.578 -0.214,-0.574 -0.215,-0.578 -0.289,-0.504 -1.079,-1.512 -0.433,-0.429 -0.434,-0.434 -1.511,-1.078 -0.504,-0.289 -0.575,-0.215 -0.578,-0.219 -0.574,-0.215 -0.578,-0.144 -0.574,-0.145 -0.649,-0.07 -1.8,0 -0.575,0.07 -0.648,0.145 -0.574,0.144 -0.578,0.215 -0.575,0.219 -0.504,0.215 -0.578,0.289 -1.008,0.719 -0.433,0.359 -0.43,0.434 -0.433,0.429 -0.43,0.504 -0.359,0.504 -0.579,1.008 -0.289,0.578 -0.214,0.574 -0.215,0.578 -0.145,0.575 -0.074,0.578 -0.07,0.648 -0.071,0.574 0,0.289 6.481,0 z m 6.476,12.961 0,-0.144 -0.07,-0.219 0,-0.359 -0.07,-0.215 -0.075,-0.145 -0.07,-0.215 -0.074,-0.218 -0.145,-0.141 -0.07,-0.219 -0.144,-0.144 -0.145,-0.141 -0.289,-0.289 -0.141,-0.144 -0.144,-0.071 -0.145,-0.144 -0.215,-0.074 -0.144,-0.071 -0.219,-0.144 -0.215,0 -0.144,-0.071 -0.215,-0.074 -1.008,0 -0.215,0.074 -0.218,0.071 -0.145,0 -0.215,0.144 -0.215,0.071 -0.144,0.074 -0.145,0.144 -0.215,0.071 -0.433,0.433 -0.145,0.141 -0.07,0.144 -0.145,0.219 -0.07,0.141 -0.074,0.218 -0.07,0.215 -0.075,0.145 -0.07,0.215 -0.07,0.218 0,14.688 0.14,0.43 0.075,0.218 0.07,0.141 0.074,0.219 0.07,0.144 0.145,0.215 0.07,0.145 0.145,0.144 0.144,0.141 0.289,0.289 0.215,0.074 0.145,0.141 0.144,0.074 0.215,0.144 0.215,0.071 0.145,0 0.218,0.074 0.215,0.07 1.008,0 0.215,-0.07 0.144,-0.074 0.215,0 0.219,-0.071 0.144,-0.144 0.215,-0.074 0.145,-0.141 0.144,-0.074 0.141,-0.145 0.145,-0.144 0.144,-0.141 0.289,-0.289 0.07,-0.215 0.145,-0.144 0.074,-0.219 0.07,-0.141 0.075,-0.218 0.07,-0.215 0,-0.36 0.07,-0.218 0,-13.821 z m 32.258,0 0,-0.937 -0.074,-0.578 -0.141,-0.645 -0.144,-0.578 -0.219,-0.574 -0.215,-0.578 -0.215,-0.504 -0.289,-0.574 -0.718,-1.008 -0.36,-0.434 -0.433,-0.433 -0.434,-0.43 -0.504,-0.434 -0.504,-0.359 -0.504,-0.289 -0.504,-0.285 -0.574,-0.289 -0.578,-0.215 -0.574,-0.219 -0.574,-0.141 -0.579,-0.074 -0.648,-0.07 -0.574,-0.074 -0.649,0 -0.578,0.074 -0.574,0.07 -0.648,0.074 -0.575,0.141 -0.578,0.219 -0.574,0.215 -0.504,0.289 -0.578,0.285 -0.504,0.289 -0.504,0.359 -0.43,0.434 -0.503,0.43 -0.364,0.433 -0.429,0.434 -0.36,0.504 -0.289,0.504 -0.289,0.574 -0.289,0.504 -0.215,0.578 -0.215,0.574 -0.144,0.578 -0.071,0.645 -0.074,0.578 -0.07,0.574 0,14.402 0.07,0.575 0.074,0.578 0.071,0.648 0.144,0.574 0.215,0.575 0.215,0.578 0.289,0.504 0.289,0.574 0.289,0.504 0.36,0.504 0.429,0.433 0.364,0.504 0.503,0.36 0.43,0.433 0.504,0.36 0.504,0.289 0.578,0.285 0.504,0.289 0.574,0.215 0.578,0.218 0.575,0.145 0.648,0.07 0.574,0.071 0.578,0.074 0.649,0 0.574,-0.074 0.648,-0.071 0.579,-0.07 0.574,-0.145 0.574,-0.218 0.578,-0.215 0.574,-0.289 0.504,-0.285 0.504,-0.289 0.504,-0.36 0.504,-0.433 0.434,-0.36 0.433,-0.504 0.36,-0.433 0.718,-1.008 0.289,-0.574 0.215,-0.504 0.215,-0.578 0.219,-0.575 0.144,-0.574 0.141,-0.648 0.074,-0.578 0,-10.223 -12.887,0 0,-4.895 0.071,-0.218 0.07,-0.215 0,-0.145 0.074,-0.215 0.145,-0.218 0.07,-0.141 0.145,-0.219 0.07,-0.144 0.145,-0.141 0.433,-0.433 0.145,-0.071 0.214,-0.144 0.145,-0.074 0.215,-0.071 0.144,-0.144 0.215,0 0.219,-0.071 0.215,-0.074 1.008,0 0.144,0.074 0.215,0.071 0.219,0 0.14,0.144 0.219,0.071 0.145,0.074 0.215,0.144 0.144,0.071 0.145,0.144 0.14,0.145 0.145,0.144 0.144,0.141 0.145,0.144 0.07,0.219 0.145,0.141 0.074,0.218 0.07,0.215 0.074,0.145 0,0.215 0.071,0.218 0,0.36 0.07,0.144 6.41,0 z m -12.887,9.645 0,4.539 0.141,0.43 0,0.218 0.074,0.141 0.145,0.219 0.07,0.144 0.145,0.215 0.07,0.145 0.145,0.144 0.144,0.141 0.289,0.289 0.145,0.074 0.214,0.141 0.145,0.074 0.215,0.144 0.144,0.071 0.215,0 0.219,0.074 0.215,0.07 1.008,0 0.144,-0.07 0.215,-0.074 0.219,0 0.14,-0.071 0.219,-0.144 0.145,-0.074 0.215,-0.141 0.144,-0.074 0.145,-0.145 0.14,-0.144 0.145,-0.141 0.289,-0.289 0.07,-0.215 0.145,-0.144 0.074,-0.219 0.07,-0.141 0.074,-0.218 0,-0.215 0.071,-0.215 0,-0.363 0.07,-0.141 0,-4.035 -6.477,0 z" /><path
         id="path22"
         style="fill:#000000;fill-opacity:1;fill-rule:evenodd;stroke:none"
         d="m 88.699,240.114 -7.703,32.328 6.91,0 4.032,-20.16 3.601,20.16 4.824,0 3.672,-20.16 4.031,20.16 6.84,0 -7.633,-32.328 -5.687,0 -3.598,19.441 -3.672,-19.441 -5.617,0 z m 48.024,0 -6.481,0 0,3.242 -0.07,-0.144 -0.219,-0.36 -0.285,-0.359 -0.219,-0.363 -0.574,-0.575 -0.359,-0.289 -0.289,-0.214 -0.36,-0.29 -0.359,-0.214 -0.434,-0.145 -0.359,-0.215 -0.434,-0.144 -0.359,-0.071 -0.43,-0.074 -0.433,-0.07 -0.434,-0.074 -0.789,0 -0.434,0.074 -0.429,0 -0.434,0.144 -0.434,0.071 -0.359,0.144 -0.359,0.215 -0.434,0.145 -0.359,0.214 -0.36,0.219 -0.289,0.285 -0.359,0.289 -0.574,0.575 -0.289,0.363 -0.215,0.285 -0.219,0.363 -0.215,0.43 -0.215,0.359 -0.144,0.36 -0.07,0.433 -0.145,0.434 -0.074,0.43 -0.071,0.359 0,6.266 0.071,0.504 0.144,0.504 0.075,0.503 0.214,0.434 0.145,0.504 0.215,0.43 0.289,0.504 0.215,0.433 0.289,0.359 0.359,0.434 0.719,0.719 0.359,0.289 0.434,0.285 0.433,0.289 0.43,0.215 0.504,0.219 0.434,0.215 1.007,0.289 0.504,0.07 0.504,0.074 0.504,0.07 5.039,0 0,4.106 -0.07,0.215 0,0.215 -0.074,0.144 -0.071,0.215 -0.144,0.219 -0.071,0.144 -0.074,0.141 -0.144,0.219 -0.574,0.574 -0.145,0.074 -0.215,0.141 -0.144,0.074 -0.219,0.07 -0.141,0.074 -0.218,0.071 -0.215,0.074 -0.145,0 -0.215,0.07 -0.648,0 -0.215,-0.07 -0.145,0 -0.214,-0.074 -0.219,-0.071 -0.145,-0.074 -0.215,-0.07 -0.144,-0.074 -0.215,-0.141 -0.144,-0.074 -0.289,-0.289 -0.145,-0.141 -0.141,-0.144 -0.144,-0.219 -0.074,-0.141 -0.071,-0.144 -0.144,-0.219 -0.071,-0.215 -0.074,-0.144 0,-0.215 -0.07,-0.215 0,-0.504 -6.481,0 0,0.285 0.071,0.649 0.074,0.578 0.07,0.574 0.145,0.648 0.215,0.575 0.218,0.578 0.286,0.504 0.289,0.574 0.289,0.504 0.359,0.504 0.434,0.433 0.359,0.434 0.504,0.43 0.43,0.359 0.504,0.363 0.503,0.36 0.504,0.285 0.579,0.289 0.574,0.215 0.578,0.144 0.574,0.145 0.578,0.144 0.649,0.071 0.574,0.074 0.648,0 0.575,-0.074 0.648,-0.071 0.578,-0.144 0.574,-0.145 0.578,-0.144 0.575,-0.215 0.578,-0.289 0.504,-0.285 0.504,-0.36 0.503,-0.363 0.504,-0.359 0.43,-0.43 0.359,-0.434 0.434,-0.433 0.359,-0.504 0.289,-0.504 0.29,-0.574 0.285,-0.504 0.218,-0.578 0.215,-0.575 0.145,-0.648 0.07,-0.574 0.145,-0.578 0,-23.977 z m -6.481,14.184 0,-5.399 -0.07,-0.144 0,-0.215 -0.074,-0.215 -0.071,-0.145 -0.144,-0.218 -0.071,-0.141 -0.074,-0.219 -0.144,-0.144 -0.145,-0.141 -0.14,-0.144 -0.434,-0.434 -0.215,-0.07 -0.144,-0.145 -0.219,-0.074 -0.141,-0.07 -0.218,-0.071 -0.215,0 -0.145,-0.074 -1.078,0 -0.145,0.074 -0.214,0 -0.219,0.071 -0.145,0.07 -0.215,0.074 -0.144,0.145 -0.215,0.07 -0.863,0.863 -0.074,0.219 -0.071,0.141 -0.144,0.218 -0.071,0.145 -0.074,0.215 0,0.215 -0.07,0.144 0,2.664 0.07,0.215 0,0.145 0.074,0.218 0.071,0.215 0.144,0.145 0.071,0.215 0.074,0.144 0.144,0.145 0.141,0.215 0.289,0.289 0.145,0.07 0.144,0.144 0.215,0.145 0.144,0.07 0.215,0.074 0.145,0.071 0.219,0.074 0.214,0.07 0.145,0 0.215,0.071 3.527,0 z m -11.304,24.625 0,6.48 6.48,0 0,-6.48 -6.48,0 z m 9.722,0 0,6.48 6.481,0 0,-6.48 -6.481,0 z m 14.543,-38.809 0,45.289 6.481,0 0,-16.199 0.07,0.215 0.219,0.359 0.215,0.363 0.289,0.286 0.285,0.359 0.289,0.289 0.359,0.289 0.289,0.215 0.36,0.215 0.359,0.218 0.434,0.215 0.359,0.145 0.434,0.144 0.359,0.145 0.43,0.07 0.433,0.071 0.43,0.074 0.793,0 0.433,-0.074 0.43,-0.071 0.434,-0.07 0.359,-0.145 0.434,-0.144 0.359,-0.145 0.434,-0.215 0.359,-0.144 0.359,-0.289 0.289,-0.215 0.36,-0.289 0.285,-0.289 0.289,-0.359 0.289,-0.286 0.215,-0.363 0.219,-0.359 0.215,-0.36 0.144,-0.359 0.215,-0.434 0.07,-0.359 0.145,-0.43 0.074,-0.433 0.07,-0.434 0,-26.496 -6.48,0 0,23.547 -0.07,0.215 0,0.215 -0.075,0.144 -0.07,0.215 -0.145,0.219 -0.07,0.144 -0.074,0.141 -0.145,0.219 -0.574,0.574 -0.144,0.074 -0.215,0.141 -0.145,0.074 -0.215,0.07 -0.144,0.074 -0.219,0.071 -0.215,0.074 -0.215,0 -0.144,0.07 -0.649,0 -0.214,-0.07 -0.145,0 -0.215,-0.074 -0.218,-0.071 -0.145,-0.074 -0.215,-0.07 -0.144,-0.074 -0.215,-0.141 -0.145,-0.074 -0.574,-0.574 -0.144,-0.219 -0.075,-0.141 -0.14,-0.144 -0.075,-0.219 -0.07,-0.215 -0.074,-0.144 0,-0.215 -0.07,-0.215 0,-23.547 -6.481,0 z m 25.848,0 0,32.328 6.406,0 0,-3.672 0.219,0.289 0.429,0.504 0.504,0.434 0.504,0.43 0.504,0.359 0.504,0.363 0.578,0.36 0.574,0.285 0.579,0.289 0.648,0.215 0.574,0.144 1.297,0.289 0.649,0.071 0.648,0.074 0.285,0 0,-6.77 -0.141,0 -0.433,0.145 -0.359,0.074 -0.36,0.07 -1.226,0 -0.36,-0.07 -0.429,-0.074 -0.364,-0.071 -0.359,-0.144 -0.36,-0.074 -0.359,-0.215 -0.359,-0.145 -0.36,-0.215 -0.289,-0.214 -0.359,-0.219 -0.289,-0.285 -0.289,-0.289 -0.215,-0.289 -0.289,-0.289 -0.215,-0.36 -0.215,-0.285 -0.144,-0.363 -0.219,-0.36 -0.141,-0.359 -0.074,-0.359 -0.07,-0.434 -0.074,-0.359 -0.071,-0.43 0,-0.363 -0.074,-0.215 0,-19.801 -6.406,0 z m 36.719,9.289 0,-0.863 -0.145,-0.649 -0.07,-0.574 -0.145,-0.578 -0.215,-0.574 -0.215,-0.578 -0.289,-0.575 -0.578,-1.007 -0.359,-0.504 -0.43,-0.504 -0.363,-0.434 -0.43,-0.433 -1.008,-0.719 -0.503,-0.289 -0.504,-0.285 -0.578,-0.289 -0.575,-0.215 -0.578,-0.219 -0.574,-0.141 -0.574,-0.074 -0.649,-0.144 -1.8,0 -0.649,0.144 -0.578,0.074 -0.574,0.141 -0.575,0.219 -0.578,0.215 -0.574,0.289 -0.504,0.285 -0.504,0.289 -1.007,0.719 -0.434,0.433 -0.359,0.434 -0.434,0.504 -0.359,0.504 -0.289,0.504 -0.286,0.503 -0.289,0.575 -0.215,0.578 -0.218,0.574 -0.145,0.578 -0.07,0.574 -0.07,0.649 -0.075,0.574 0,14.328 0.075,0.649 0.07,0.578 0.07,0.574 0.145,0.648 0.218,0.575 0.215,0.578 0.289,0.504 0.286,0.574 0.289,0.504 0.359,0.504 0.434,0.433 0.359,0.434 0.434,0.43 0.503,0.359 0.504,0.363 0.504,0.36 0.504,0.285 0.574,0.289 0.578,0.215 1.149,0.289 0.578,0.144 0.649,0.071 0.574,0.074 0.648,0 0.578,-0.074 0.649,-0.071 1.148,-0.289 0.578,-0.144 0.575,-0.215 0.578,-0.289 0.504,-0.285 0.503,-0.36 0.504,-0.363 0.504,-0.359 0.43,-0.43 0.363,-0.434 0.43,-0.433 0.359,-0.504 0.289,-0.504 0.289,-0.574 0.289,-0.504 0.215,-0.578 0.215,-0.575 0.145,-0.648 0.07,-0.574 0.145,-0.578 0,-10.223 -12.887,0 0,-4.969 0.07,-0.144 0,-0.215 0.074,-0.215 0.071,-0.145 0.144,-0.218 0.074,-0.141 0.071,-0.219 0.144,-0.144 0.145,-0.141 0.144,-0.144 0.141,-0.145 0.289,-0.289 0.219,-0.07 0.14,-0.145 0.219,-0.074 0.145,-0.07 0.215,-0.071 0.214,0 0.145,-0.074 1.078,0 0.145,0.074 0.218,0 0.215,0.071 0.145,0.07 0.214,0.074 0.145,0.145 0.215,0.07 0.578,0.578 0.145,0.141 0.14,0.144 0.074,0.219 0.071,0.141 0.144,0.218 0.074,0.145 0.071,0.215 0,0.215 0.07,0.144 0,0.504 6.481,0 z m -12.887,9.719 0,4.539 0.07,0.215 0,0.215 0.074,0.144 0.071,0.215 0.144,0.219 0.074,0.144 0.071,0.141 0.144,0.219 0.145,0.144 0.144,0.141 0.141,0.144 0.144,0.145 0.145,0.074 0.219,0.141 0.14,0.074 0.219,0.07 0.145,0.074 0.215,0.071 0.214,0.074 0.145,0 0.215,0.07 0.648,0 0.215,-0.07 0.145,0 0.218,-0.074 0.215,-0.071 0.145,-0.074 0.214,-0.07 0.145,-0.074 0.215,-0.141 0.144,-0.074 0.289,-0.289 0.145,-0.141 0.145,-0.144 0.14,-0.219 0.074,-0.141 0.071,-0.144 0.144,-0.219 0.074,-0.215 0.071,-0.144 0,-0.215 0.07,-0.215 0,-4.539 -6.406,0 z m 18.574,-19.008 0,32.328 6.336,0 0,-3.238 0.145,0.215 0.218,0.359 0.215,0.363 0.289,0.286 0.285,0.359 0.289,0.289 0.36,0.289 0.289,0.215 0.359,0.215 0.36,0.218 0.359,0.215 0.434,0.145 0.359,0.144 0.434,0.145 0.429,0.07 0.434,0.071 0.359,0.074 0.863,0 0.434,-0.074 0.434,-0.071 0.429,-0.07 0.36,-0.145 0.433,-0.144 0.36,-0.145 0.359,-0.215 0.434,-0.144 0.289,-0.289 0.359,-0.215 0.359,-0.289 0.289,-0.289 0.286,-0.359 0.289,-0.286 0.215,-0.363 0.218,-0.359 0.215,-0.36 0.145,-0.359 0.144,-0.434 0.145,-0.359 0.14,-0.43 0.075,-0.433 0,-0.434 0.07,-0.43 0,-26.066 -6.481,0 0,23.547 -0.07,0.215 -0.074,0.215 -0.07,0.144 -0.071,0.215 -0.074,0.219 -0.07,0.144 -0.145,0.141 -0.074,0.219 -0.141,0.144 -0.144,0.141 -0.289,0.289 -0.215,0.074 -0.145,0.141 -0.144,0.074 -0.215,0.07 -0.219,0.074 -0.14,0.071 -0.219,0.074 -0.215,0 -0.215,0.07 -0.578,0 -0.215,-0.07 -0.215,0 -0.144,-0.074 -0.219,-0.071 -0.215,-0.074 -0.144,-0.07 -0.215,-0.074 -0.145,-0.141 -0.144,-0.074 -0.145,-0.145 -0.215,-0.144 -0.07,-0.141 -0.144,-0.144 -0.145,-0.219 -0.074,-0.141 -0.141,-0.144 -0.074,-0.219 -0.07,-0.215 -0.074,-0.144 -0.071,-0.215 0,-0.434 -0.074,-0.144 0,-23.184 -6.336,0 z m 44.355,0 -6.48,0 0,3.242 -0.144,-0.144 -0.215,-0.36 -0.219,-0.359 -0.285,-0.363 -0.289,-0.285 -0.578,-0.579 -0.36,-0.214 -0.359,-0.29 -0.36,-0.214 -0.359,-0.145 -0.434,-0.215 -0.359,-0.144 -0.433,-0.071 -0.43,-0.074 -0.36,-0.07 -0.433,-0.074 -0.863,0 -0.434,0.074 -0.43,0 -0.363,0.144 -0.43,0.071 -0.433,0.144 -0.36,0.215 -0.359,0.145 -0.359,0.214 -0.36,0.219 -0.363,0.285 -0.359,0.289 -0.286,0.29 -0.289,0.285 -0.215,0.363 -0.289,0.285 -0.214,0.363 -0.219,0.43 -0.145,0.359 -0.14,0.36 -0.145,0.433 -0.074,0.434 -0.145,0.43 0,0.359 -0.07,0.434 0,19.8 0.07,0.43 0,0.434 0.145,0.433 0.074,0.43 0.145,0.359 0.14,0.434 0.145,0.359 0.219,0.36 0.214,0.359 0.289,0.363 0.215,0.286 0.289,0.359 0.286,0.289 0.359,0.289 0.363,0.215 0.36,0.289 0.359,0.144 0.359,0.215 0.36,0.145 0.433,0.144 0.43,0.145 0.363,0.07 0.43,0.071 0.434,0.074 0.863,0 0.433,-0.074 0.36,-0.071 0.43,-0.07 0.433,-0.145 0.359,-0.144 0.434,-0.145 0.359,-0.215 0.36,-0.218 0.719,-0.43 0.578,-0.578 0.289,-0.359 0.285,-0.286 0.219,-0.363 0.215,-0.359 0.144,-0.215 0,16.199 6.48,0 0,-45.289 z m -6.48,9.289 0,-0.289 -0.074,-0.215 0,-0.144 -0.07,-0.215 -0.075,-0.215 -0.07,-0.145 -0.07,-0.218 -0.075,-0.141 -0.144,-0.219 -0.145,-0.144 -0.07,-0.141 -0.289,-0.289 -0.215,-0.144 -0.144,-0.145 -0.145,-0.07 -0.215,-0.145 -0.144,-0.074 -0.215,-0.07 -0.219,-0.071 -0.141,0 -0.218,-0.074 -1.008,0 -0.215,0.074 -0.215,0 -0.144,0.071 -0.219,0.07 -0.141,0.074 -0.218,0.145 -0.145,0.07 -0.215,0.145 -0.289,0.289 -0.14,0.144 -0.145,0.141 -0.074,0.144 -0.145,0.219 -0.07,0.141 -0.07,0.218 -0.075,0.145 -0.07,0.215 -0.074,0.215 0,0.144 -0.07,0.215 0,14.328 0.07,0.219 0,0.215 0.074,0.215 0.07,0.144 0.075,0.215 0.07,0.219 0.07,0.144 0.145,0.141 0.074,0.219 0.574,0.574 0.215,0.074 0.145,0.141 0.218,0.074 0.141,0.07 0.219,0.074 0.144,0.071 0.215,0.074 0.215,0 0.219,0.07 0.574,0 0.215,-0.07 0.218,0 0.141,-0.074 0.219,-0.071 0.215,-0.074 0.144,-0.07 0.215,-0.074 0.145,-0.141 0.144,-0.074 0.215,-0.145 0.145,-0.144 0.144,-0.141 0.07,-0.144 0.145,-0.219 0.144,-0.141 0.075,-0.144 0.07,-0.219 0.07,-0.215 0.075,-0.144 0.07,-0.215 0,-0.215 0.074,-0.219 0,-14.039 z m 51.695,-9.289 -6.48,0 0,3.242 -0.145,-0.144 -0.429,-0.719 -0.289,-0.363 -0.289,-0.285 -0.29,-0.29 -0.285,-0.289 -0.363,-0.214 -0.359,-0.29 -0.36,-0.214 -0.359,-0.145 -0.434,-0.215 -0.359,-0.144 -0.43,-0.071 -0.433,-0.074 -0.36,-0.07 -0.433,-0.074 -0.864,0 -0.429,0.074 -0.434,0 -0.359,0.144 -0.434,0.071 -0.43,0.144 -0.363,0.215 -0.359,0.145 -0.36,0.214 -0.359,0.219 -0.359,0.285 -0.289,0.289 -0.36,0.29 -0.289,0.285 -0.215,0.363 -0.289,0.285 -0.215,0.363 -0.214,0.43 -0.289,0.719 -0.145,0.433 -0.07,0.434 -0.075,0.43 -0.07,0.359 -0.074,0.434 0,19.8 0.074,0.43 0.07,0.434 0.075,0.433 0.07,0.43 0.145,0.359 0.144,0.434 0.145,0.359 0.429,0.719 0.289,0.363 0.215,0.286 0.289,0.359 0.36,0.289 0.289,0.289 0.359,0.215 0.359,0.289 0.36,0.144 0.359,0.215 0.363,0.145 0.43,0.144 0.434,0.145 0.359,0.07 0.434,0.071 0.429,0.074 0.864,0 0.433,-0.074 0.36,-0.071 0.433,-0.07 0.43,-0.145 0.359,-0.144 0.434,-0.145 0.359,-0.215 0.36,-0.218 0.359,-0.215 0.363,-0.215 0.285,-0.289 0.29,-0.289 0.289,-0.359 0.289,-0.286 0.215,-0.363 0.214,-0.359 0.145,-0.215 0,16.199 6.48,0 0,-45.289 z m -6.48,9.289 0,-0.289 -0.07,-0.215 0,-0.144 -0.075,-0.215 -0.07,-0.215 -0.074,-0.145 -0.07,-0.218 -0.075,-0.141 -0.14,-0.219 -0.145,-0.144 -0.074,-0.141 -0.145,-0.144 -0.14,-0.145 -0.145,-0.144 -0.219,-0.145 -0.144,-0.07 -0.215,-0.145 -0.144,-0.074 -0.215,-0.07 -0.145,-0.071 -0.215,0 -0.215,-0.074 -1.007,0 -0.219,0.074 -0.145,0 -0.429,0.141 -0.145,0.074 -0.215,0.145 -0.144,0.07 -0.145,0.145 -0.215,0.144 -0.289,0.289 -0.074,0.141 -0.14,0.144 -0.145,0.219 -0.074,0.141 -0.071,0.218 -0.074,0.145 -0.14,0.43 0,0.144 -0.075,0.215 0,14.328 0.075,0.219 0,0.215 0.07,0.215 0.07,0.144 0.074,0.215 0.071,0.219 0.074,0.144 0.145,0.141 0.14,0.219 0.074,0.144 0.145,0.141 0.144,0.144 0.215,0.145 0.145,0.074 0.144,0.141 0.215,0.074 0.145,0.07 0.215,0.074 0.214,0.071 0.145,0.074 0.219,0 0.215,0.07 0.574,0 0.218,-0.07 0.215,0 0.215,-0.074 0.145,-0.071 0.215,-0.074 0.144,-0.07 0.215,-0.074 0.144,-0.141 0.219,-0.074 0.145,-0.145 0.14,-0.144 0.145,-0.141 0.074,-0.144 0.145,-0.219 0.14,-0.141 0.075,-0.144 0.07,-0.219 0.074,-0.215 0.07,-0.144 0.075,-0.215 0,-0.215 0.07,-0.219 0,-14.039 z m 32.328,0 -0.07,-0.289 0,-0.574 -0.075,-0.649 -0.144,-0.574 -0.145,-0.578 -0.14,-0.574 -0.289,-0.578 -0.219,-0.575 -0.285,-0.503 -0.36,-0.504 -0.363,-0.504 -0.359,-0.504 -0.43,-0.434 -0.434,-0.433 -0.503,-0.36 -0.434,-0.359 -0.574,-0.289 -0.504,-0.285 -0.574,-0.289 -0.504,-0.215 -0.649,-0.219 -0.578,-0.141 -0.574,-0.074 -0.578,-0.144 -1.871,0 -0.574,0.144 -0.579,0.074 -0.648,0.141 -0.574,0.219 -0.578,0.215 -0.504,0.289 -0.574,0.285 -0.504,0.289 -0.504,0.359 -0.434,0.36 -0.43,0.433 -0.433,0.434 -1.078,1.512 -0.289,0.503 -0.289,0.575 -0.215,0.578 -0.145,0.574 -0.144,0.578 -0.145,0.574 -0.07,0.649 -0.074,0.574 0,14.328 0.074,0.649 0.07,0.578 0.145,0.574 0.144,0.648 0.145,0.575 0.215,0.578 0.289,0.504 0.289,0.574 0.718,1.008 0.36,0.433 0.863,0.864 0.434,0.359 0.504,0.363 0.504,0.36 0.574,0.285 0.504,0.289 0.578,0.215 0.574,0.144 0.648,0.145 0.579,0.144 0.574,0.071 0.648,0.074 0.574,0 0.649,-0.074 0.578,-0.071 0.574,-0.144 0.578,-0.145 0.649,-0.144 0.504,-0.215 0.574,-0.289 0.504,-0.285 0.574,-0.36 0.434,-0.363 0.503,-0.359 0.434,-0.43 0.43,-0.434 0.359,-0.433 0.363,-0.504 0.36,-0.504 0.285,-0.574 0.219,-0.504 0.289,-0.578 0.14,-0.575 0.145,-0.648 0.144,-0.574 0.075,-0.578 0,-0.649 0.07,-0.285 0,-9.289 -12.961,0 0,-4.754 0.074,-0.215 0,-0.144 0.141,-0.43 0.074,-0.145 0.07,-0.218 0.075,-0.141 0.144,-0.219 0.07,-0.144 0.145,-0.141 0.434,-0.433 0.214,-0.145 0.145,-0.07 0.215,-0.145 0.144,-0.074 0.215,-0.07 0.145,-0.071 0.215,0 0.218,-0.074 1.008,0 0.215,0.074 0.145,0 0.429,0.141 0.145,0.074 0.218,0.145 0.141,0.07 0.145,0.145 0.218,0.144 0.141,0.145 0.145,0.144 0.074,0.141 0.144,0.144 0.141,0.219 0.074,0.141 0.07,0.218 0.075,0.145 0.07,0.215 0.074,0.215 0,0.144 0.071,0.215 0,0.289 6.48,0 z m -12.961,9.719 0,4.32 0.074,0.219 0,0.215 0.071,0.215 0.07,0.144 0.074,0.215 0.07,0.219 0.075,0.144 0.144,0.141 0.07,0.219 0.145,0.144 0.145,0.141 0.289,0.289 0.214,0.074 0.145,0.141 0.215,0.074 0.144,0.07 0.215,0.074 0.145,0.071 0.215,0.074 0.218,0 0.215,0.07 0.574,0 0.219,-0.07 0.215,0 0.145,-0.074 0.214,-0.071 0.215,-0.074 0.145,-0.07 0.218,-0.074 0.141,-0.141 0.145,-0.074 0.218,-0.145 0.141,-0.144 0.145,-0.141 0.074,-0.144 0.144,-0.219 0.141,-0.141 0.074,-0.144 0.07,-0.219 0.075,-0.215 0.07,-0.144 0.074,-0.215 0,-0.215 0.071,-0.219 0,-4.32 -6.481,0 z m 16.992,-9.719 6.047,0 0,-0.504 0.074,-0.215 0.071,-0.218 0.074,-0.215 0.07,-0.215 0.074,-0.215 0.141,-0.219 0.074,-0.215 0.145,-0.144 0.144,-0.215 0.141,-0.144 0.219,-0.145 0.289,-0.289 0.215,-0.141 0.214,-0.074 0.215,-0.144 0.219,-0.071 0.215,-0.074 0.215,-0.07 0.218,0 0.215,-0.074 0.864,0 0.214,0.074 0.219,0.07 0.215,0.074 0.215,0.071 0.219,0.074 0.214,0.144 0.215,0.071 0.145,0.144 0.215,0.145 0.144,0.144 0.145,0.141 0.144,0.219 0.145,0.144 0.144,0.215 0.141,0.145 0.074,0.214 0.071,0.215 0.074,0.219 0.07,0.215 0.074,0.215 0,0.218 0.071,0.215 0,0.504 -0.071,0.215 0,0.215 -0.074,0.219 -0.07,0.214 -0.074,0.215 -0.071,0.219 -0.074,0.215 -0.141,0.144 -0.144,0.215 -0.145,0.145 -0.144,0.215 -0.289,0.289 -0.215,0.144 -0.145,0.145 -0.215,0.144 -0.214,0.071 -0.075,0.07 -5.254,1.875 -0.289,0.141 -1.007,0.578 -0.434,0.289 -0.504,0.359 -1.223,1.223 -0.289,0.504 -0.359,0.433 -0.578,1.008 -0.215,0.574 -0.144,0.504 -0.215,0.578 -0.071,0.575 -0.144,0.578 -0.074,0.574 0,1.152 0.074,0.578 0.07,0.575 0.145,0.574 0.144,0.504 0.215,0.578 0.215,0.504 0.289,0.574 0.289,0.434 0.289,0.503 0.359,0.504 0.36,0.434 0.433,0.359 0.43,0.43 0.434,0.363 0.504,0.285 1.007,0.579 0.504,0.214 0.575,0.215 0.503,0.219 0.579,0.07 0.574,0.145 0.578,0.07 1.152,0 0.574,-0.07 0.579,-0.074 0.574,-0.071 0.574,-0.144 0.504,-0.215 0.578,-0.215 0.504,-0.289 0.504,-0.215 0.504,-0.363 0.433,-0.359 0.43,-0.36 0.434,-0.359 0.429,-0.434 0.364,-0.429 0.285,-0.504 0.359,-0.504 0.219,-0.504 0.285,-0.504 0.219,-0.578 0.144,-0.504 0.141,-0.574 0.145,-0.578 0.074,-0.575 0,-0.863 -6.051,0 0,0.504 -0.141,0.43 -0.074,0.144 -0.07,0.215 -0.074,0.145 -0.071,0.218 -0.144,0.141 -0.071,0.144 -0.144,0.219 -0.145,0.141 -0.144,0.144 -0.145,0.075 -0.144,0.144 -0.215,0.141 -0.145,0.074 -0.214,0.07 -0.145,0.074 -0.215,0.071 -0.144,0.074 -0.219,0 -0.215,0.07 -0.793,0 -0.215,-0.07 -0.215,-0.074 -0.144,0 -0.215,-0.071 -0.144,-0.144 -0.215,-0.074 -0.145,-0.071 -0.219,-0.144 -0.14,-0.145 -0.145,-0.07 -0.144,-0.145 -0.145,-0.214 -0.074,-0.145 -0.141,-0.144 -0.074,-0.215 -0.07,-0.145 -0.145,-0.215 -0.074,-0.144 0,-0.219 -0.07,-0.215 0,-0.144 -0.071,-0.215 0,-0.434 0.071,-0.215 0,-0.144 0.07,-0.215 0.074,-0.215 0,-0.144 0.145,-0.219 0.07,-0.141 0.074,-0.218 0.141,-0.145 0.144,-0.141 0.075,-0.144 0.289,-0.289 0.215,-0.145 0.144,-0.144 0.145,-0.071 0.215,-0.074 0.07,-0.07 5.258,-1.871 0.289,-0.145 1.007,-0.578 1.008,-0.719 0.43,-0.433 0.434,-0.43 0.359,-0.433 0.719,-1.008 0.578,-1.008 0.215,-0.574 0.215,-0.578 0.218,-0.575 0.071,-0.578 0.144,-0.648 0.07,-0.574 0,-1.223 -0.07,-0.578 -0.074,-0.574 -0.141,-0.579 -0.218,-0.574 -0.145,-0.578 -0.285,-0.574 -0.219,-0.578 -0.359,-0.504 -0.285,-0.504 -0.364,-0.43 -0.429,-0.504 -0.434,-0.433 -0.43,-0.36 -0.504,-0.433 -0.433,-0.285 -0.574,-0.36 -0.504,-0.289 -0.578,-0.215 -0.504,-0.218 -0.575,-0.145 -0.648,-0.141 -0.578,-0.144 -0.574,-0.074 -1.227,0 -0.574,0.074 -0.649,0.07 -0.574,0.074 -0.578,0.215 -0.574,0.145 -0.578,0.285 -0.504,0.219 -0.504,0.285 -0.504,0.363 -1.008,0.719 -0.429,0.43 -0.364,0.433 -0.429,0.504 -0.36,0.434 -0.289,0.574 -0.578,1.008 -0.215,0.578 -0.144,0.574 -0.145,0.578 -0.141,0.645 -0.074,0.578 0,0.863 z" /><path
         id="path24"
         style="fill:#000000;fill-opacity:1;fill-rule:evenodd;stroke:none"
         d="m 72.93,150.188 0,45.215 6.48,0 0,-38.734 12.887,0 0,-6.481 -19.367,0 z m 41.976,0 -6.406,0 0,3.239 -0.145,-0.145 -0.214,-0.359 -0.219,-0.36 -0.285,-0.359 -0.578,-0.578 -0.36,-0.285 -0.289,-0.289 -0.359,-0.215 -0.36,-0.219 -0.433,-0.215 -0.719,-0.289 -0.434,-0.07 -0.429,-0.145 -0.434,-0.07 -1.656,0 -0.43,0.07 -0.433,0.071 -0.36,0.144 -0.433,0.145 -0.36,0.144 -0.429,0.215 -0.364,0.219 -0.359,0.215 -0.289,0.289 -0.359,0.214 -0.286,0.36 -0.578,0.578 -0.429,0.719 -0.219,0.359 -0.145,0.434 -0.14,0.359 -0.145,0.43 -0.144,0.433 -0.075,0.36 -0.07,0.433 0,5.758 0.07,0.504 0,0.504 0.289,1.008 0.145,0.433 0.145,0.504 0.214,0.434 0.289,0.43 0.215,0.433 0.36,0.43 0.289,0.363 0.359,0.43 0.359,0.289 0.364,0.359 0.429,0.289 0.434,0.289 0.43,0.215 0.504,0.215 0.433,0.215 1.008,0.289 0.504,0.074 0.504,0.07 5.617,0 0,3.743 -0.074,0.218 0,0.215 -0.071,0.215 0,0.145 -0.074,0.218 -0.07,0.215 -0.07,0.145 -0.145,0.215 -0.074,0.144 -0.145,0.145 -0.14,0.214 -0.289,0.29 -0.145,0.07 -0.289,0.289 -0.215,0.07 -0.215,0.074 -0.144,0.071 -0.219,0.074 -0.215,0.07 -0.144,0 -0.215,0.071 -0.649,0 -0.144,-0.071 -0.215,0 -0.215,-0.07 -0.219,-0.074 -0.144,-0.071 -0.215,-0.074 -0.144,-0.07 -0.215,-0.145 -0.145,-0.144 -0.144,-0.07 -0.145,-0.145 -0.141,-0.145 -0.144,-0.214 -0.074,-0.145 -0.145,-0.144 -0.07,-0.215 -0.07,-0.145 -0.145,-0.215 0,-0.218 -0.074,-0.145 -0.07,-0.215 0,-0.504 -6.481,0 0,0.289 0.07,0.649 0.075,0.574 0.07,0.578 0.144,0.574 0.215,0.575 0.219,0.578 0.285,0.574 0.289,0.504 0.289,0.578 0.36,0.43 0.433,0.504 0.43,0.433 0.434,0.434 0.429,0.359 1.008,0.719 0.578,0.289 0.504,0.215 0.574,0.289 0.578,0.144 0.575,0.145 0.648,0.141 0.578,0.074 1.797,0 0.649,-0.074 0.578,-0.141 0.574,-0.145 0.578,-0.144 0.574,-0.289 0.578,-0.215 0.504,-0.289 1.512,-1.078 0.43,-0.434 0.433,-0.433 0.36,-0.504 0.359,-0.43 0.359,-0.578 0.289,-0.504 0.215,-0.574 0.219,-0.578 0.215,-0.575 0.144,-0.574 0.145,-0.578 0.07,-0.574 0,-23.977 z m -6.406,14.184 0,-4.969 -0.074,-0.215 0,-0.218 -0.071,-0.215 0,-0.145 -0.074,-0.215 -0.07,-0.215 -0.07,-0.144 -0.145,-0.215 -0.074,-0.144 -0.145,-0.145 -0.14,-0.145 -0.145,-0.214 -0.144,-0.075 -0.145,-0.144 -0.144,-0.141 -0.145,-0.074 -0.215,-0.144 -0.215,-0.071 -0.144,-0.074 -0.219,-0.07 -0.215,-0.071 -0.359,0 -0.215,-0.074 -0.219,0 -0.215,0.074 -0.359,0 -0.215,0.071 -0.219,0.07 -0.144,0.074 -0.215,0.071 -0.144,0.144 -0.215,0.074 -0.145,0.141 -0.144,0.144 -0.145,0.075 -0.141,0.214 -0.144,0.145 -0.074,0.145 -0.145,0.144 -0.07,0.215 -0.07,0.144 -0.145,0.215 0,0.215 -0.074,0.145 -0.07,0.215 0,2.664 0.07,0.144 0.074,0.219 0,0.215 0.145,0.144 0.07,0.215 0.07,0.145 0.145,0.214 0.074,0.145 0.144,0.145 0.141,0.144 0.289,0.289 0.145,0.141 0.215,0.074 0.144,0.144 0.215,0.071 0.144,0.074 0.219,0.07 0.215,0 0.215,0.071 0.359,0 0.145,0.074 3.242,0 z m 31.461,-14.184 -6.477,0 0,3.239 -0.074,-0.145 -0.215,-0.359 -0.289,-0.36 -0.215,-0.359 -0.578,-0.578 -0.359,-0.285 -0.359,-0.289 -0.36,-0.215 -0.359,-0.219 -0.36,-0.215 -0.363,-0.144 -0.43,-0.145 -0.359,-0.07 -0.434,-0.145 -0.433,-0.07 -1.652,0 -0.868,0.141 -0.429,0.144 -0.36,0.145 -0.433,0.144 -0.36,0.215 -0.359,0.219 -0.359,0.215 -0.364,0.289 -0.285,0.214 -0.289,0.36 -0.578,0.578 -0.645,1.078 -0.218,0.434 -0.145,0.359 -0.141,0.43 -0.074,0.433 -0.07,0.36 -0.074,0.433 0,20.664 0.074,0.43 0.07,0.434 0.074,0.359 0.141,0.434 0.145,0.359 0.218,0.43 0.215,0.363 0.43,0.719 0.289,0.289 0.289,0.359 0.289,0.289 0.285,0.215 0.364,0.289 1.078,0.645 0.433,0.144 0.36,0.145 0.429,0.144 0.434,0.071 0.434,0.074 1.652,0 0.433,-0.074 0.434,-0.071 0.359,-0.144 0.43,-0.145 0.363,-0.144 1.079,-0.645 0.718,-0.578 0.289,-0.289 0.289,-0.285 0.215,-0.36 0.289,-0.289 0.215,-0.359 0.074,-0.219 0,16.129 6.477,0 0,-45.215 z m -6.477,9.289 0,-0.507 -0.074,-0.215 -0.07,-0.145 0,-0.215 -0.074,-0.215 -0.145,-0.144 -0.07,-0.215 -0.145,-0.144 -0.07,-0.145 -0.145,-0.145 -0.144,-0.214 -0.145,-0.075 -0.144,-0.144 -0.145,-0.141 -0.215,-0.074 -0.144,-0.144 -0.215,-0.071 -0.144,-0.074 -0.215,-0.07 -0.219,-0.071 -0.359,0 -0.215,-0.074 -0.215,0 -0.219,0.074 -0.359,0 -0.43,0.141 -0.144,0.074 -0.215,0.071 -0.145,0.144 -0.219,0.074 -0.144,0.141 -0.141,0.144 -0.144,0.075 -0.145,0.214 -0.289,0.29 -0.07,0.144 -0.145,0.215 -0.074,0.144 -0.141,0.43 0,0.145 -0.074,0.215 0,14.761 0.074,0.215 0,0.145 0.071,0.218 0.07,0.215 0.074,0.145 0.145,0.215 0.07,0.144 0.145,0.145 0.144,0.214 0.289,0.29 0.141,0.07 0.144,0.144 0.219,0.145 0.145,0.07 0.215,0.074 0.144,0.071 0.215,0.074 0.215,0.07 0.144,0 0.215,0.071 0.649,0 0.144,-0.071 0.215,0 0.219,-0.07 0.215,-0.074 0.144,-0.071 0.215,-0.074 0.144,-0.07 0.215,-0.145 0.145,-0.144 0.144,-0.07 0.289,-0.29 0.145,-0.214 0.07,-0.145 0.145,-0.144 0.07,-0.215 0.145,-0.145 0.074,-0.215 0,-0.218 0.07,-0.145 0.074,-0.215 0,-14.254 z m 32.328,0 0,-0.289 -0.074,-0.578 -0.07,-0.648 -0.074,-0.575 -0.145,-0.574 -0.215,-0.578 -0.214,-0.574 -0.29,-0.578 -0.289,-0.504 -0.285,-0.504 -0.363,-0.504 -0.43,-0.504 -0.863,-0.863 -0.434,-0.359 -0.504,-0.36 -0.503,-0.363 -0.575,-0.285 -0.504,-0.219 -0.578,-0.215 -0.574,-0.215 -0.578,-0.144 -0.648,-0.145 -0.575,-0.07 -1.8,0 -0.649,0.07 -0.574,0.145 -0.578,0.144 -0.574,0.215 -0.579,0.215 -0.574,0.219 -0.504,0.285 -0.504,0.363 -1.007,0.719 -0.434,0.43 -0.43,0.433 -0.363,0.504 -0.719,1.008 -0.289,0.504 -0.215,0.578 -0.214,0.574 -0.215,0.578 -0.289,1.149 -0.075,0.648 0,15.555 0.075,0.574 0.144,0.578 0.145,0.574 0.215,0.575 0.214,0.578 0.215,0.574 0.289,0.504 0.36,0.578 0.359,0.43 0.363,0.504 0.43,0.433 0.434,0.434 1.511,1.078 0.504,0.289 0.574,0.215 0.579,0.289 0.574,0.144 0.578,0.145 0.574,0.141 0.649,0.074 1.8,0 0.575,-0.074 0.648,-0.141 0.578,-0.145 0.574,-0.144 0.578,-0.289 0.504,-0.215 0.575,-0.289 1.007,-0.719 0.434,-0.359 0.43,-0.434 0.433,-0.433 0.43,-0.504 0.363,-0.43 0.285,-0.578 0.289,-0.504 0.29,-0.574 0.214,-0.578 0.215,-0.575 0.145,-0.574 0.074,-0.578 0.07,-0.574 0.074,-0.649 0,-9.578 -12.96,0 0,-4.535 0.07,-0.215 0,-0.218 0.074,-0.215 0,-0.145 0.07,-0.215 0.075,-0.215 0.07,-0.144 0.144,-0.215 0.071,-0.144 0.289,-0.29 0.144,-0.214 0.145,-0.075 0.285,-0.285 0.145,-0.074 0.218,-0.144 0.141,-0.071 0.219,-0.074 0.429,-0.141 0.364,0 0.215,-0.074 0.214,0 0.215,0.074 0.363,0 0.215,0.071 0.145,0.07 0.215,0.074 0.215,0.071 0.144,0.144 0.215,0.074 0.144,0.141 0.145,0.144 0.145,0.075 0.144,0.214 0.145,0.145 0.07,0.145 0.144,0.144 0.075,0.215 0.07,0.144 0.145,0.215 0,0.215 0.07,0.145 0.074,0.215 0,0.507 6.48,0 z m -12.96,9.719 0,4.102 0.07,0.218 0,0.215 0.074,0.215 0,0.145 0.07,0.218 0.075,0.215 0.07,0.145 0.144,0.215 0.071,0.144 0.144,0.145 0.145,0.214 0.289,0.29 0.144,0.07 0.141,0.144 0.145,0.145 0.218,0.07 0.141,0.074 0.219,0.071 0.215,0.074 0.214,0.07 0.145,0 0.219,0.071 0.644,0 0.145,-0.071 0.218,0 0.215,-0.07 0.145,-0.074 0.215,-0.071 0.215,-0.074 0.144,-0.07 0.215,-0.145 0.144,-0.144 0.145,-0.07 0.289,-0.29 0.145,-0.214 0.07,-0.145 0.144,-0.144 0.075,-0.215 0.07,-0.145 0.145,-0.215 0,-0.218 0.07,-0.145 0.074,-0.215 0,-4.535 -6.48,0 z m 24.695,-19.008 -8.496,32.328 6.84,0 4.464,-21.023 4.391,21.023 6.914,0 -8.496,-32.328 -5.617,0 z m 17.351,9.289 0,14.688 0.075,0.574 0.14,0.578 0.145,0.574 0.219,0.575 0.214,0.578 0.215,0.574 0.289,0.504 0.36,0.578 0.359,0.43 0.359,0.504 0.868,0.867 1.511,1.078 0.504,0.289 0.574,0.215 0.579,0.289 1.148,0.289 0.578,0.141 0.649,0.074 1.8,0 0.575,-0.074 0.648,-0.141 0.574,-0.145 0.578,-0.144 0.575,-0.289 0.504,-0.215 0.578,-0.289 1.007,-0.719 0.43,-0.359 0.867,-0.867 0.43,-0.504 0.359,-0.43 0.289,-0.578 0.29,-0.504 0.289,-0.574 0.214,-0.578 0.215,-0.575 0.145,-0.574 0.07,-0.578 0.074,-0.574 0.071,-0.649 0,-14.328 -0.071,-0.578 -0.074,-0.648 -0.07,-0.575 -0.145,-0.574 -0.215,-0.578 -0.214,-0.574 -0.289,-0.578 -0.579,-1.008 -0.359,-0.504 -0.43,-0.504 -0.433,-0.433 -0.434,-0.43 -0.43,-0.359 -0.503,-0.36 -0.504,-0.363 -0.578,-0.285 -0.504,-0.219 -0.575,-0.215 -0.578,-0.215 -0.574,-0.144 -0.648,-0.145 -0.575,-0.07 -1.8,0 -0.649,0.07 -0.578,0.145 -0.574,0.144 -0.574,0.215 -0.579,0.215 -0.574,0.219 -0.504,0.285 -0.504,0.363 -1.007,0.719 -0.434,0.43 -0.434,0.433 -1.078,1.512 -0.289,0.504 -0.215,0.578 -0.214,0.574 -0.219,0.578 -0.145,0.574 -0.14,0.575 -0.075,0.648 0,0.867 z m 6.411,0 0,13.821 0.07,0.218 0,0.43 0.07,0.145 0.074,0.218 0.071,0.215 0.074,0.145 0.144,0.215 0.071,0.144 0.144,0.145 0.145,0.214 0.144,0.145 0.141,0.145 0.145,0.07 0.289,0.289 0.214,0.07 0.145,0.074 0.219,0.071 0.215,0.074 0.144,0.07 0.215,0 0.215,0.071 0.578,0 0.215,-0.071 0.215,0 0.218,-0.07 0.141,-0.074 0.219,-0.071 0.215,-0.074 0.144,-0.07 0.145,-0.145 0.214,-0.144 0.145,-0.07 0.289,-0.29 0.145,-0.214 0.07,-0.145 0.144,-0.144 0.071,-0.215 0.074,-0.145 0.07,-0.215 0.075,-0.218 0.07,-0.145 0.07,-0.215 0,-14.761 -0.07,-0.215 -0.07,-0.145 -0.075,-0.215 -0.07,-0.215 -0.074,-0.144 -0.071,-0.215 -0.144,-0.144 -0.07,-0.145 -0.145,-0.145 -0.144,-0.214 -0.145,-0.075 -0.145,-0.144 -0.214,-0.141 -0.145,-0.074 -0.144,-0.144 -0.215,-0.071 -0.219,-0.074 -0.141,-0.07 -0.218,-0.071 -0.43,0 -0.145,-0.074 -0.214,0 -0.219,0.074 -0.43,0 -0.144,0.071 -0.215,0.07 -0.219,0.074 -0.145,0.071 -0.214,0.144 -0.145,0.074 -0.144,0.141 -0.145,0.144 -0.141,0.075 -0.144,0.214 -0.289,0.29 -0.071,0.144 -0.144,0.215 -0.074,0.144 -0.071,0.215 -0.074,0.215 -0.07,0.145 0,0.433 -0.07,0.215 0,0.074 z m 19.367,-9.289 0,32.328 6.406,0 0,-3.671 0.215,0.285 0.937,0.937 0.504,0.434 1.008,0.719 0.578,0.359 0.574,0.289 0.579,0.215 0.574,0.215 0.648,0.218 0.649,0.145 0.648,0.141 0.649,0.074 0.933,0 0,-6.77 -0.215,0.074 -0.359,0.071 -0.359,0.144 -0.434,0 -0.359,0.071 -0.36,0 -0.433,-0.071 -0.36,0 -0.433,-0.07 -0.36,-0.074 -0.718,-0.289 -0.36,-0.141 -0.359,-0.144 -0.364,-0.219 -0.359,-0.215 -0.289,-0.289 -0.285,-0.215 -0.289,-0.289 -0.289,-0.285 -0.215,-0.289 -0.215,-0.36 -0.219,-0.359 -0.14,-0.289 -0.219,-0.359 -0.145,-0.36 -0.07,-0.433 -0.144,-0.36 -0.071,-0.359 0,-0.434 -0.074,-0.359 0,-20.016 -6.406,0 z m 24.621,-3.601 0,-0.504 0.074,-0.215 0,-0.215 0.07,-0.144 0.075,-0.219 0.144,-0.215 0.07,-0.145 0.075,-0.144 0.14,-0.215 0.289,-0.289 0.145,-0.141 0.144,-0.144 0.145,-0.074 0.215,-0.145 0.144,-0.07 0.215,-0.074 0.145,-0.071 0.215,-0.07 0.218,-0.074 0.215,-0.071 1.008,0 0.145,0.071 0.214,0.074 0.215,0.07 0.145,0.071 0.218,0.074 0.141,0.07 0.219,0.145 0.144,0.074 0.141,0.144 0.145,0.141 0.289,0.289 0.144,0.215 0.07,0.144 0.145,0.145 0.074,0.215 0.07,0.219 0.075,0.144 0,0.215 0.07,0.215 0,7.344 -0.07,-0.145 -0.219,-0.359 -0.215,-0.36 -0.289,-0.359 -0.289,-0.289 -0.285,-0.289 -0.36,-0.285 -0.289,-0.289 -0.359,-0.215 -0.359,-0.219 -0.434,-0.215 -0.359,-0.144 -0.434,-0.145 -0.359,-0.07 -0.434,-0.145 -0.43,-0.07 -1.656,0 -0.433,0.07 -0.43,0.071 -0.359,0.144 -0.434,0.145 -0.359,0.144 -0.434,0.215 -0.359,0.219 -0.36,0.215 -0.289,0.289 -0.359,0.214 -0.289,0.36 -0.285,0.289 -0.289,0.289 -0.215,0.359 -0.219,0.36 -0.215,0.359 -0.144,0.434 -0.215,0.359 -0.075,0.43 -0.144,0.433 -0.07,0.36 -0.071,0.433 0,20.664 0.071,0.43 0.07,0.434 0.144,0.359 0.075,0.434 0.215,0.359 0.144,0.43 0.215,0.363 0.219,0.359 0.215,0.36 0.289,0.289 0.285,0.359 0.289,0.289 0.359,0.215 0.289,0.289 0.719,0.43 0.434,0.215 0.359,0.144 0.434,0.145 0.359,0.144 0.43,0.071 0.433,0.074 1.656,0 0.43,-0.074 0.434,-0.071 0.359,-0.144 0.434,-0.145 0.359,-0.144 0.434,-0.215 0.718,-0.43 0.289,-0.289 0.36,-0.289 0.285,-0.289 0.289,-0.285 0.289,-0.36 0.215,-0.289 0.219,-0.359 0.07,-0.219 0,3.242 6.481,0 0,-36.863 -0.145,-0.578 -0.07,-0.648 -0.145,-0.575 -0.219,-0.578 -0.214,-0.574 -0.29,-0.504 -0.285,-0.578 -0.289,-0.504 -0.359,-0.504 -0.36,-0.43 -0.433,-0.433 -0.434,-0.43 -0.504,-0.433 -0.503,-0.36 -1.008,-0.578 -0.575,-0.285 -0.578,-0.219 -0.574,-0.144 -0.578,-0.215 -0.574,-0.071 -0.649,-0.074 -0.574,-0.07 -0.648,0 -0.578,0.07 -0.575,0.074 -0.648,0.071 -0.574,0.215 -0.578,0.144 -0.575,0.219 -0.578,0.285 -1.008,0.578 -0.504,0.36 -0.433,0.433 -0.504,0.43 -0.359,0.433 -0.43,0.43 -0.359,0.504 -0.289,0.504 -0.29,0.578 -0.289,0.504 -0.214,0.574 -0.215,0.578 -0.145,0.575 -0.074,0.648 -0.07,0.578 -0.071,0.645 0,0.289 6.477,0 z m 6.41,12.89 0,-0.507 -0.07,-0.215 0,-0.145 -0.075,-0.215 -0.07,-0.215 -0.074,-0.144 -0.145,-0.215 -0.07,-0.144 -0.289,-0.29 -0.144,-0.214 -0.145,-0.075 -0.141,-0.144 -0.144,-0.141 -0.219,-0.074 -0.141,-0.144 -0.218,-0.071 -0.145,-0.074 -0.429,-0.141 -0.36,0 -0.219,-0.074 -0.214,0 -0.215,0.074 -0.36,0 -0.218,0.071 -0.215,0.07 -0.145,0.074 -0.215,0.071 -0.144,0.144 -0.215,0.074 -0.145,0.141 -0.144,0.144 -0.145,0.075 -0.144,0.214 -0.145,0.145 -0.14,0.145 -0.075,0.144 -0.07,0.215 -0.144,0.144 -0.075,0.215 -0.07,0.215 0,0.145 -0.074,0.215 0,14.761 0.074,0.215 0,0.145 0.07,0.218 0.075,0.215 0.144,0.145 0.07,0.215 0.075,0.144 0.14,0.145 0.145,0.214 0.289,0.29 0.144,0.07 0.145,0.144 0.215,0.145 0.144,0.07 0.215,0.074 0.145,0.071 0.215,0.074 0.218,0.07 0.215,0 0.145,0.071 0.648,0 0.215,-0.071 0.145,0 0.214,-0.07 0.215,-0.074 0.145,-0.071 0.218,-0.074 0.141,-0.07 0.219,-0.145 0.144,-0.144 0.141,-0.07 0.289,-0.29 0.145,-0.214 0.144,-0.145 0.07,-0.144 0.145,-0.215 0.074,-0.145 0.07,-0.215 0.075,-0.218 0,-0.145 0.07,-0.215 0,-14.254 z m 31.535,-9.289 -6.48,0 0,3.239 -0.071,-0.145 -0.214,-0.359 -0.289,-0.36 -0.215,-0.359 -0.289,-0.289 -0.36,-0.289 -0.289,-0.285 -0.359,-0.289 -0.36,-0.215 -0.363,-0.219 -0.359,-0.215 -0.36,-0.144 -0.429,-0.145 -0.434,-0.07 -0.359,-0.145 -0.434,-0.07 -1.726,0 -0.36,0.07 -0.433,0.071 -0.434,0.144 -0.359,0.145 -0.43,0.144 -0.359,0.215 -0.364,0.219 -0.359,0.215 -0.359,0.289 -0.29,0.214 -0.285,0.36 -0.578,0.578 -0.215,0.359 -0.289,0.36 -0.144,0.359 -0.215,0.434 -0.145,0.359 -0.144,0.43 -0.07,0.433 -0.075,0.36 -0.07,0.433 0,6.262 0.07,0.504 0.075,0.504 0.144,0.504 0.145,0.433 0.214,0.504 0.215,0.434 0.215,0.43 0.289,0.433 0.289,0.43 0.36,0.363 0.359,0.43 0.359,0.289 0.364,0.359 0.429,0.289 0.434,0.289 0.43,0.215 0.433,0.215 0.504,0.215 0.504,0.144 0.434,0.145 0.504,0.074 0.503,0.07 5.614,0 0,4.176 -0.071,0.215 -0.074,0.145 -0.07,0.218 -0.07,0.215 -0.075,0.145 -0.07,0.215 -0.144,0.144 -0.075,0.145 -0.14,0.214 -0.289,0.29 -0.145,0.07 -0.215,0.144 -0.144,0.145 -0.145,0.07 -0.215,0.074 -0.218,0.071 -0.145,0.074 -0.215,0.07 -0.215,0 -0.215,0.071 -0.578,0 -0.214,-0.071 -0.215,0 -0.145,-0.07 -0.219,-0.074 -0.214,-0.071 -0.145,-0.074 -0.215,-0.07 -0.289,-0.289 -0.144,-0.07 -0.145,-0.145 -0.141,-0.145 -0.144,-0.214 -0.145,-0.145 -0.074,-0.144 -0.14,-0.215 -0.075,-0.145 -0.07,-0.215 -0.074,-0.218 -0.071,-0.145 0,-0.43 -0.074,-0.218 0,-0.071 -6.406,0 0,0.938 0.07,0.574 0.145,0.578 0.144,0.574 0.215,0.575 0.219,0.578 0.215,0.574 0.289,0.504 0.359,0.578 0.36,0.43 0.359,0.504 0.434,0.433 0.429,0.434 1.512,1.078 0.504,0.289 0.578,0.215 0.574,0.289 0.578,0.144 0.575,0.145 0.578,0.141 0.648,0.074 1.797,0 0.578,-0.074 0.649,-0.141 0.574,-0.145 0.578,-0.144 0.574,-0.289 0.504,-0.215 0.578,-0.289 1.008,-0.719 0.43,-0.359 0.433,-0.434 0.43,-0.433 0.434,-0.504 0.359,-0.43 0.289,-0.578 0.289,-0.504 0.285,-0.574 0.219,-0.578 0.215,-0.575 0.144,-0.574 0.071,-0.578 0.074,-0.574 0.07,-0.649 0,-23.328 z m -6.48,14.184 0,-5.402 -0.071,-0.215 -0.074,-0.145 -0.14,-0.43 -0.075,-0.144 -0.07,-0.215 -0.144,-0.144 -0.075,-0.145 -0.14,-0.145 -0.145,-0.214 -0.144,-0.075 -0.145,-0.144 -0.215,-0.141 -0.144,-0.074 -0.145,-0.144 -0.215,-0.071 -0.218,-0.074 -0.145,-0.07 -0.215,-0.071 -0.43,0 -0.144,-0.074 -0.219,0 -0.215,0.074 -0.429,0 -0.145,0.071 -0.219,0.07 -0.214,0.074 -0.145,0.071 -0.215,0.144 -0.144,0.074 -0.145,0.141 -0.144,0.144 -0.145,0.075 -0.141,0.214 -0.289,0.29 -0.074,0.144 -0.14,0.215 -0.075,0.144 -0.07,0.215 -0.074,0.215 -0.071,0.145 0,0.433 -0.074,0.215 0,1.801 0.074,0.215 0,0.359 0.071,0.219 0.074,0.215 0.07,0.144 0.075,0.215 0.14,0.145 0.074,0.214 0.289,0.29 0.141,0.144 0.289,0.289 0.145,0.141 0.144,0.074 0.215,0.144 0.145,0.071 0.214,0.074 0.219,0.07 0.145,0 0.215,0.071 0.429,0 0.074,0.074 3.239,0 z m 12.961,-14.184 0,32.328 6.406,0 0,-3.242 0.144,0.219 0.219,0.359 0.215,0.289 0.289,0.36 0.863,0.863 0.36,0.289 0.719,0.43 0.363,0.215 0.429,0.144 0.36,0.145 0.433,0.144 0.43,0.071 0.434,0.074 1.656,0 0.434,-0.074 0.429,-0.071 0.36,-0.144 0.433,-0.145 0.36,-0.144 0.359,-0.215 0.434,-0.215 0.289,-0.215 0.359,-0.289 0.359,-0.215 0.289,-0.289 0.286,-0.359 0.218,-0.289 0.286,-0.36 0.218,-0.359 0.215,-0.363 0.145,-0.43 0.144,-0.359 0.145,-0.434 0.14,-0.359 0.075,-0.434 0,-0.43 0.07,-0.433 0,-26.063 -6.481,0 0,23.328 -0.07,0.215 0,0.215 -0.07,0.145 -0.074,0.218 -0.071,0.215 -0.074,0.145 -0.07,0.215 -0.145,0.144 -0.074,0.145 -0.141,0.214 -0.289,0.29 -0.144,0.07 -0.215,0.144 -0.145,0.145 -0.144,0.07 -0.215,0.074 -0.219,0.071 -0.14,0.074 -0.219,0.07 -0.215,0 -0.215,0.071 -0.578,0 -0.215,-0.071 -0.215,0 -0.144,-0.07 -0.219,-0.074 -0.215,-0.071 -0.144,-0.074 -0.215,-0.07 -0.289,-0.289 -0.145,-0.07 -0.215,-0.145 -0.07,-0.145 -0.144,-0.214 -0.145,-0.145 -0.07,-0.144 -0.145,-0.215 -0.074,-0.145 -0.07,-0.215 -0.075,-0.218 -0.07,-0.145 0,-0.43 -0.074,-0.218 0,-23.11 -6.406,0 z m 31.465,-3.601 0,-0.289 0.07,-0.215 0,-0.215 0.074,-0.215 0.07,-0.144 0.075,-0.219 0.07,-0.215 0.07,-0.145 0.145,-0.144 0.074,-0.215 0.144,-0.144 0.141,-0.145 0.145,-0.141 0.144,-0.144 0.215,-0.074 0.145,-0.145 0.218,-0.07 0.141,-0.074 0.219,-0.071 0.144,-0.07 0.215,-0.074 0.215,-0.071 1.008,0 0.218,0.071 0.141,0.074 0.219,0.07 0.215,0.071 0.144,0.074 0.215,0.07 0.145,0.145 0.144,0.074 0.215,0.144 0.144,0.141 0.145,0.145 0.07,0.144 0.145,0.215 0.144,0.144 0.075,0.145 0.07,0.215 0.07,0.219 0.074,0.144 0.071,0.215 0,0.215 0.074,0.215 0,7.129 -0.145,-0.145 -0.214,-0.359 -0.219,-0.36 -0.285,-0.359 -0.578,-0.578 -0.289,-0.285 -0.36,-0.289 -0.359,-0.215 -0.36,-0.219 -0.359,-0.215 -0.434,-0.144 -0.359,-0.145 -0.434,-0.07 -0.429,-0.145 -0.36,-0.07 -1.73,0 -0.43,0.07 -0.363,0.071 -0.43,0.144 -0.433,0.145 -0.36,0.144 -0.359,0.215 -0.359,0.219 -0.36,0.215 -0.359,0.289 -0.363,0.214 -0.286,0.36 -0.289,0.289 -0.215,0.289 -0.289,0.359 -0.214,0.36 -0.219,0.359 -0.145,0.434 -0.14,0.359 -0.145,0.43 -0.074,0.433 -0.145,0.36 0,0.433 -0.07,0.43 0,19.801 0.07,0.433 0,0.43 0.145,0.434 0.074,0.359 0.145,0.434 0.14,0.359 0.145,0.43 0.219,0.363 0.214,0.359 0.289,0.36 0.215,0.289 0.289,0.359 0.286,0.289 0.363,0.215 0.359,0.289 1.078,0.645 0.36,0.144 0.433,0.145 0.43,0.144 0.363,0.071 0.43,0.074 1.73,0 0.36,-0.074 0.429,-0.071 0.434,-0.144 0.359,-0.145 0.434,-0.144 1.078,-0.645 0.36,-0.289 0.578,-0.578 0.289,-0.285 0.285,-0.36 0.219,-0.289 0.214,-0.359 0.145,-0.219 0,3.242 6.406,0 0,-36.863 -0.07,-0.578 -0.145,-0.648 -0.144,-0.575 -0.145,-0.578 -0.289,-0.574 -0.215,-0.504 -0.289,-0.578 -0.718,-1.008 -0.36,-0.43 -0.863,-0.863 -0.504,-0.433 -0.434,-0.36 -0.574,-0.289 -0.504,-0.289 -0.578,-0.285 -0.574,-0.219 -0.578,-0.144 -0.574,-0.215 -0.578,-0.071 -0.575,-0.074 -0.648,-0.07 -0.574,0 -0.649,0.07 -0.578,0.074 -0.574,0.071 -0.649,0.215 -0.578,0.144 -0.574,0.219 -0.504,0.285 -0.578,0.289 -0.504,0.289 -0.504,0.36 -0.429,0.433 -0.434,0.43 -0.43,0.433 -0.363,0.43 -0.719,1.008 -0.289,0.578 -0.285,0.504 -0.219,0.574 -0.14,0.578 -0.145,0.575 -0.144,0.648 -0.075,0.578 -0.07,0.645 0,0.289 6.481,0 z m 6.48,12.89 0,-0.289 -0.074,-0.218 0,-0.215 -0.071,-0.145 -0.074,-0.215 -0.07,-0.215 -0.07,-0.144 -0.075,-0.215 -0.289,-0.289 -0.07,-0.145 -0.145,-0.214 -0.144,-0.075 -0.215,-0.144 -0.144,-0.141 -0.145,-0.074 -0.215,-0.144 -0.144,-0.071 -0.215,-0.074 -0.219,-0.07 -0.141,-0.071 -0.433,0 -0.215,-0.074 -0.219,0 -0.14,0.074 -0.434,0 -0.215,0.071 -0.144,0.07 -0.219,0.074 -0.141,0.071 -0.218,0.144 -0.145,0.074 -0.215,0.141 -0.144,0.144 -0.145,0.075 -0.141,0.214 -0.144,0.145 -0.074,0.145 -0.145,0.144 -0.07,0.215 -0.07,0.144 -0.075,0.215 -0.07,0.215 -0.074,0.145 0,0.215 -0.07,0.218 0,14.328 0.07,0.215 0,0.215 0.074,0.145 0.07,0.218 0.075,0.215 0.07,0.145 0.07,0.215 0.145,0.144 0.074,0.145 0.144,0.214 0.141,0.145 0.145,0.145 0.144,0.07 0.215,0.144 0.145,0.145 0.218,0.07 0.141,0.074 0.219,0.071 0.144,0.074 0.215,0.07 0.215,0 0.219,0.071 0.574,0 0.215,-0.071 0.218,0 0.141,-0.07 0.219,-0.074 0.215,-0.071 0.144,-0.074 0.215,-0.07 0.289,-0.289 0.215,-0.07 0.289,-0.29 0.07,-0.214 0.289,-0.289 0.075,-0.215 0.07,-0.145 0.07,-0.215 0.074,-0.218 0.071,-0.145 0,-0.215 0.074,-0.215 0,-14.039 z m 11.305,0 6.047,0 0,-0.289 0.07,-0.289 0,-0.215 0.074,-0.218 0.07,-0.215 0.075,-0.215 0.07,-0.145 0.144,-0.214 0.071,-0.219 0.144,-0.141 0.145,-0.219 0.144,-0.144 0.215,-0.141 0.145,-0.144 0.215,-0.145 0.144,-0.144 0.215,-0.145 0.219,-0.07 0.215,-0.074 0.214,-0.071 0.219,-0.074 0.215,-0.07 1.078,0 0.289,0.07 0.215,0.074 0.219,0 0.215,0.145 0.144,0.07 0.215,0.074 0.219,0.141 0.14,0.145 0.219,0.144 0.145,0.145 0.14,0.144 0.219,0.145 0.07,0.214 0.145,0.145 0.144,0.215 0.071,0.215 0.074,0.218 0.07,0.215 0.074,0.215 0.071,0.219 0,0.215 0.07,0.215 0,0.433 -0.07,0.289 0,0.215 -0.071,0.215 -0.074,0.215 -0.07,0.219 -0.074,0.214 -0.071,0.145 -0.289,0.43 -0.144,0.144 -0.145,0.219 -0.14,0.144 -0.145,0.141 -0.219,0.145 -0.14,0.144 -0.219,0.074 -0.215,0.141 -0.074,0 -5.254,1.945 -0.289,0.145 -0.504,0.215 -0.504,0.289 -0.43,0.359 -0.867,0.719 -0.429,0.433 -0.36,0.434 -0.363,0.43 -0.359,0.504 -0.286,0.503 -0.218,0.504 -0.286,0.579 -0.144,0.503 -0.219,0.575 -0.07,0.578 -0.145,0.574 0,0.578 -0.07,0.574 0.07,0.575 0,0.578 0.145,0.574 0.07,0.504 0.219,0.578 0.144,0.574 0.215,0.504 0.289,0.504 0.286,0.504 0.289,0.504 0.359,0.433 0.434,0.434 0.359,0.43 0.434,0.359 0.429,0.363 0.504,0.36 0.504,0.285 0.504,0.289 0.504,0.215 0.578,0.218 0.574,0.145 0.504,0.141 0.578,0.144 0.574,0 0.579,0.074 0.574,0 0.574,-0.074 0.578,-0.07 0.574,-0.145 0.578,-0.144 0.504,-0.145 0.575,-0.215 0.504,-0.289 0.503,-0.285 0.504,-0.289 0.867,-0.719 0.43,-0.433 0.434,-0.36 0.359,-0.503 0.289,-0.434 0.36,-0.504 0.289,-0.504 0.215,-0.504 0.214,-0.574 0.145,-0.504 0.144,-0.578 0.145,-0.574 0.07,-0.578 0,-0.864 -6.047,0 0,0.504 -0.074,0.215 -0.07,0.145 0,0.218 -0.07,0.215 -0.145,0.145 -0.074,0.215 -0.071,0.144 -0.289,0.289 -0.144,0.141 -0.145,0.144 -0.14,0.145 -0.145,0.144 -0.144,0.071 -0.219,0.144 -0.141,0.074 -0.218,0.071 -0.215,0.074 -0.145,0.07 -0.215,0 -0.215,0.071 -0.578,0 -0.214,-0.071 -0.215,0 -0.145,-0.07 -0.219,-0.074 -0.214,-0.071 -0.145,-0.074 -0.215,-0.07 -0.144,-0.074 -0.145,-0.141 -0.215,-0.144 -0.289,-0.29 -0.07,-0.144 -0.289,-0.289 -0.071,-0.215 -0.074,-0.144 -0.07,-0.215 -0.074,-0.145 -0.071,-0.215 -0.074,-0.218 0,-1.223 0.074,-0.145 0.071,-0.214 0.074,-0.215 0.07,-0.145 0.074,-0.215 0.071,-0.144 0.144,-0.145 0.145,-0.215 0.144,-0.144 0.071,-0.145 0.215,-0.074 0.144,-0.144 0.145,-0.141 0.144,-0.074 0.215,-0.145 0.074,0 5.254,-1.941 0.289,-0.074 0.504,-0.289 0.504,-0.36 0.504,-0.285 0.504,-0.434 0.433,-0.359 0.43,-0.434 0.359,-0.429 0.434,-0.504 0.289,-0.504 0.285,-0.504 0.289,-0.578 0.289,-0.504 0.145,-0.574 0.215,-0.578 0.144,-0.649 0.071,-0.574 0.074,-0.578 0,-1.223 -0.074,-0.574 -0.071,-0.578 -0.144,-0.649 -0.145,-0.574 -0.215,-0.578 -0.214,-0.504 -0.289,-0.574 -0.29,-0.504 -0.718,-1.008 -1.297,-1.297 -0.434,-0.359 -0.504,-0.359 -0.504,-0.289 -0.574,-0.29 -0.504,-0.214 -0.578,-0.215 -0.574,-0.219 -0.574,-0.144 -0.649,-0.071 -0.578,-0.07 -1.801,0 -0.574,0.141 -0.648,0.074 -0.575,0.144 -0.578,0.215 -0.504,0.215 -0.574,0.289 -0.504,0.289 -1.007,0.719 -0.434,0.359 -0.434,0.434 -0.429,0.433 -0.36,0.43 -0.363,0.504 -0.359,0.504 -0.286,0.578 -0.218,0.504 -0.215,0.574 -0.215,0.578 -0.289,1.149 -0.07,0.648 0,0.867 z" /><path
         id="path26"
         style="fill:#000000;fill-opacity:1;fill-rule:evenodd;stroke:none"
         d="m 164.371,52.989 0,33.117 -3.961,0 0,6.41 3.961,0 0,6.84 0.07,0.574 0.145,0.649 0.144,0.578 0.215,0.574 0.219,0.578 0.285,0.575 0.289,0.574 0.289,0.504 0.36,0.504 0.433,0.504 0.43,0.433 0.434,0.434 1.511,1.078 0.504,0.289 0.574,0.289 0.579,0.215 0.574,0.215 0.648,0.144 0.578,0.074 0.645,0.071 0.578,0.07 6.266,0 0,-7.414 -5.832,0 -0.145,-0.074 -0.144,0 -0.29,-0.141 -0.144,-0.074 -0.145,-0.07 -0.144,-0.075 -0.07,-0.07 -0.145,-0.074 -0.144,-0.141 -0.071,-0.074 -0.074,-0.145 -0.141,-0.144 -0.074,-0.141 -0.07,-0.144 -0.074,-0.074 -0.071,-0.145 0,-0.215 -0.074,-0.144 0,-0.145 -0.07,-0.144 0,-6.118 7.922,0 0,-6.41 -7.922,0 0,-33.117 -7.848,0 z m 24.625,0 0,39.527 7.918,0 0,-4.464 0.289,0.289 0.504,0.574 0.574,0.578 1.297,1.008 0.649,0.429 0.718,0.434 0.723,0.359 0.719,0.289 0.718,0.286 0.793,0.218 0.793,0.215 0.793,0.145 0.789,0.07 1.657,0 0.793,-0.07 0.793,-0.074 0.793,-0.141 0.789,-0.219 0.722,-0.285 0.789,-0.289 0.723,-0.359 0.719,-0.36 1.297,-0.867 0.289,-0.285 -5.547,-6.914 -0.215,0.144 -0.359,0.289 -0.434,0.286 -0.359,0.289 -0.434,0.218 -0.43,0.141 -0.433,0.219 -0.504,0.144 -0.43,0.071 -0.504,0.144 -0.433,0 -0.504,0.07 -0.434,0 -0.504,-0.07 -0.504,0 -0.429,-0.144 -0.504,-0.071 -0.434,-0.144 -0.43,-0.145 -0.433,-0.215 -0.434,-0.218 -0.429,-0.289 -0.36,-0.215 -0.363,-0.36 -0.359,-0.289 -0.36,-0.359 -0.289,-0.359 -0.359,-0.36 -0.215,-0.359 -0.289,-0.434 -0.215,-0.433 -0.215,-0.43 -0.144,-0.434 -0.145,-0.429 -0.144,-0.504 -0.071,-0.434 -0.074,-0.504 0,-24.91 -7.918,0 z m 63.145,16.773 -24.7,0 0,-1.726 0.075,-0.504 0.144,-0.434 0.07,-0.503 0.145,-0.504 0.215,-0.43 0.144,-0.504 0.289,-0.434 0.215,-0.433 0.289,-0.43 0.289,-0.359 0.36,-0.36 0.359,-0.363 0.36,-0.359 0.359,-0.289 0.434,-0.285 0.429,-0.29 0.434,-0.214 0.433,-0.219 0.215,-0.141 0.289,-0.074 0.649,-0.215 0.644,-0.144 1.297,-0.289 0.649,0 0.648,-0.071 0.648,0.071 0.649,0.074 0.648,0.07 0.649,0.145 0.644,0.144 0.578,0.215 0.649,0.289 0.574,0.289 0.578,0.285 0.504,0.36 0.574,0.363 0.504,0.43 1.153,1.152 5.976,-5.113 -0.359,-0.43 -0.793,-0.793 -0.863,-0.793 -0.864,-0.719 -0.867,-0.648 -0.934,-0.574 -1.007,-0.578 -1.008,-0.504 -1.008,-0.36 -1.082,-0.359 -1.078,-0.359 -1.082,-0.219 -1.153,-0.141 -1.078,-0.144 -2.234,0 -1.148,0.144 -1.083,0.141 -1.078,0.219 -1.082,0.285 -1.078,0.363 -0.504,0.215 -0.504,0.144 -0.867,0.43 -0.863,0.434 -0.793,0.574 -0.789,0.504 -0.793,0.648 -0.719,0.649 -0.648,0.648 -0.649,0.793 -0.578,0.719 -0.504,0.793 -1.008,1.726 -0.359,0.864 -0.359,0.937 -0.289,0.938 -0.215,0.933 -0.289,1.875 -0.071,1.008 0,8.855 0.071,1.079 0.144,1.007 0.215,1.008 0.219,0.938 0.359,1.008 0.36,0.937 0.433,0.934 0.504,0.863 0.504,0.867 0.648,0.863 0.645,0.793 0.723,0.719 0.718,0.719 0.793,0.648 0.793,0.578 0.864,0.575 0.933,0.504 0.938,0.433 0.937,0.359 0.934,0.36 2.015,0.43 1.008,0.074 1.008,0.07 1.082,0 1.008,-0.07 1.008,-0.074 2.015,-0.43 0.938,-0.36 0.933,-0.359 0.938,-0.433 0.937,-0.504 0.864,-0.575 0.793,-0.578 0.789,-0.648 0.722,-0.719 0.719,-0.719 0.649,-0.793 0.648,-0.863 0.504,-0.867 0.504,-0.863 0.43,-0.934 0.359,-0.937 0.363,-1.008 0.215,-0.938 0.215,-1.008 0.144,-1.007 0.075,-1.079 0,-7.418 z m -24.7,6.915 0,0.285 0.075,0.504 0,0.578 0.289,1.008 0.14,0.503 0.219,0.504 0.215,0.434 0.215,0.504 0.289,0.43 0.289,0.433 0.359,0.36 0.36,0.433 0.359,0.359 0.434,0.286 0.429,0.363 0.434,0.285 0.504,0.219 0.433,0.215 0.504,0.215 1.008,0.289 0.504,0.07 0.574,0.074 0.504,0.07 0.504,0 0.504,-0.07 0.578,-0.074 0.504,-0.07 1.008,-0.289 0.504,-0.215 0.429,-0.215 0.504,-0.219 0.434,-0.285 0.433,-0.363 0.43,-0.286 0.36,-0.359 0.359,-0.433 0.363,-0.36 0.285,-0.433 0.289,-0.43 0.215,-0.504 0.219,-0.434 0.215,-0.504 0.433,-1.511 0.071,-0.578 0,-0.789 -16.778,0 z m 35.571,-23.688 0,39.527 7.847,0 0,-39.527 -7.847,0 z m 0,47.375 0,7.918 7.847,0 0,-7.918 -7.847,0 z" /><path
         id="path28"
         style="fill:#000000;fill-opacity:1;fill-rule:evenodd;stroke:none"
         d="m 29,431.27 -0.867,-0.07 -1.805,-0.074 -1.824,-0.215 -1.82,-0.367 -1.746,-0.438 -1.743,-0.578 -1.672,-0.656 -1.671,-0.801 -1.602,-0.871 -1.527,-0.945 -1.457,-1.094 -1.375,-1.16 L 8.504,422.766 7.27,421.38 6.109,420.005 5.016,418.548 4.07,417.02 3.199,415.419 2.398,413.747 1.742,412.075 1.164,410.333 0.727,408.587 0.359,406.766 0.145,404.942 0.07,403.137 0,402.27 0,29.001 0.07,28.13 0.145,26.325 0.359,24.505 0.727,22.688 1.164,20.938 1.742,19.192 2.398,17.52 3.199,15.848 4.07,14.251 5.016,12.723 6.109,11.266 7.27,9.887 8.504,8.509 9.891,7.27 11.266,6.114 12.723,5.016 14.25,4.067 15.852,3.2 17.523,2.395 19.195,1.743 20.938,1.161 22.684,0.723 24.504,0.364 26.328,0.145 28.133,0.071 29,0.001 l 373.27,0 0.871,0.07 1.804,0.074 1.821,0.219 1.816,0.359 1.75,0.438 1.746,0.582 1.672,0.652 1.672,0.805 1.598,0.867 1.527,0.949 1.457,1.098 1.379,1.156 1.379,1.239 1.238,1.378 1.156,1.379 1.098,1.457 0.949,1.528 0.867,1.597 0.805,1.672 0.652,1.672 0.582,1.746 0.438,1.75 0.359,1.817 0.219,1.82 0.074,1.805 0.071,0.871 0,373.269 -0.071,0.867 -0.074,1.805 -0.219,1.824 -0.359,1.821 -0.438,1.746 -0.582,1.742 -0.652,1.672 -0.805,1.672 -0.867,1.601 -0.949,1.528 -1.098,1.457 -1.156,1.375 -1.238,1.386 -1.379,1.235 -1.379,1.16 -1.457,1.094 -1.527,0.945 -1.598,0.871 -1.672,0.801 -1.672,0.656 -1.746,0.578 -1.75,0.438 -1.816,0.367 -1.821,0.215 -1.804,0.074 -0.871,0.07 -373.27,0 z m 0.012,-0.281 373.246,0 0.867,-0.074 1.797,-0.07 1.801,-0.215 1.8,-0.364 1.727,-0.429 1.727,-0.578 1.656,-0.649 1.656,-0.793 1.586,-0.859 1.512,-0.938 1.441,-1.082 1.367,-1.152 1.367,-1.223 1.227,-1.367 1.149,-1.367 1.082,-1.442 0.933,-1.511 0.867,-1.582 0.789,-1.657 0.649,-1.656 0.578,-1.73 0.43,-1.727 0.359,-1.801 0.219,-1.8 0.07,-1.801 0.074,-0.863 0,-373.247 -0.074,-0.867 -0.07,-1.797 -0.219,-1.8 -0.359,-1.801 -0.43,-1.727 -0.578,-1.726 -0.649,-1.657 -0.789,-1.656 -0.867,-1.586 -0.933,-1.511 -1.082,-1.442 -1.149,-1.367 -1.227,-1.367 -1.367,-1.227 -1.367,-1.148 -1.441,-1.082 -1.512,-0.934 -1.586,-0.867 -1.656,-0.789 -1.656,-0.649 -1.727,-0.578 -1.727,-0.429 -1.8,-0.36 -1.801,-0.218 -1.797,-0.071 -0.867,-0.074 -373.246,0 -0.864,0.074 -1.8,0.071 -1.801,0.218 -1.801,0.36 L 21.02,1.434 19.289,2.012 17.633,2.661 15.977,3.45 14.395,4.317 12.883,5.251 11.441,6.333 10.074,7.481 8.707,8.708 7.484,10.075 6.332,11.442 5.25,12.884 4.312,14.395 3.453,15.981 2.66,17.637 2.012,19.294 1.434,21.02 l -0.43,1.727 -0.363,1.801 -0.215,1.8 -0.071,1.797 -0.074,0.867 0,373.247 0.074,0.863 0.071,1.801 0.215,1.8 0.363,1.801 0.43,1.727 0.578,1.73 0.648,1.656 0.793,1.657 0.859,1.582 0.938,1.511 1.082,1.442 1.152,1.367 1.223,1.367 1.367,1.223 1.367,1.152 1.442,1.082 1.512,0.938 1.582,0.859 1.656,0.793 1.656,0.649 1.731,0.578 1.726,0.429 1.801,0.364 1.801,0.215 1.8,0.07 0.864,0.074 z" /></g></g></svg>