<?xml version="1.0" encoding="UTF-8" standalone="no"?>
<svg
   xmlns:dc="http://purl.org/dc/elements/1.1/"
   xmlns:cc="http://creativecommons.org/ns#"
   xmlns:rdf="http://www.w3.org/1999/02/22-rdf-syntax-ns#"
   xmlns:svg="http://www.w3.org/2000/svg"
   xmlns="http://www.w3.org/2000/svg"
   viewBox="0 0 600.99805 331.00781"
   height="331.00781"
   width="600.99805"
   xml:space="preserve"
   version="1.1"
   id="svg13082"><metadata
     id="metadata13088"><rdf:RDF><cc:Work
         rdf:about=""><dc:format>image/svg+xml</dc:format><dc:type
           rdf:resource="http://purl.org/dc/dcmitype/StillImage" /><dc:title></dc:title></cc:Work></rdf:RDF></metadata><defs
     id="defs13086" /><g
     transform="matrix(1.25,0,0,-1.25,0,331.0078)"
     id="g13090"><g
       id="g13092"><path
         id="path13094"
         style="fill:#ffffff;fill-opacity:1;fill-rule:nonzero;stroke:none"
         d="m 32.402,0.404 c -17.672,0 -32,14.379 -32,32.109 l 0,199.77 c 0,17.73 14.328,32.121 32,32.121 l 416.004,0 c 17.672,0 31.996,-14.391 31.996,-32.121 l 0,-199.77 c 0,-17.73 -14.324,-32.109 -31.996,-32.109 l -416.004,0 z" /><path
         id="path13096"
         style="fill:#000000;fill-opacity:1;fill-rule:nonzero;stroke:none"
         d="m 32.402,8.435 c -13.261,0 -24,10.774 -24,24.082 l 0,199.766 c 0,13.308 10.739,24.082 24,24.082 l 416.004,0 c 13.246,0 24,-10.774 24,-24.082 l 0,-199.766 c 0,-13.308 -10.754,-24.082 -24,-24.082 l -416.004,0 z" /><path
         id="path13098"
         style="fill:#ffffff;fill-opacity:1;fill-rule:nonzero;stroke:none"
         d="m 32.402,20.474 c -6.632,0 -12.007,5.395 -12.007,12.051 l 0,199.766 c 0,6.64 5.375,12.035 12.007,12.035 l 416.004,0 c 6.633,0 11.992,-5.395 11.992,-12.035 l 0,-199.766 c 0,-6.656 -5.359,-12.051 -11.992,-12.051 l -416.004,0 z" /><path
         id="path13100"
         style="fill:#000000;fill-opacity:1;fill-rule:nonzero;stroke:none"
         d="m 356.41,156.841 6.356,6.383 c 3.554,-3.527 8.355,-5.5 13.359,-5.5 2.262,0 4.527,0.406 6.645,1.207 1.769,0.653 2.929,2.336 2.929,4.219 0,2.379 -1.855,4.34 -4.222,4.496 l -9.575,0.598 c -7.121,0.433 -12.675,6.351 -12.675,13.488 0,6.254 4.277,11.68 10.355,13.145 2.148,0.507 4.34,0.769 6.543,0.769 6.34,0 12.504,-2.148 17.453,-6.109 l -5.613,-7.051 c -3.367,2.684 -7.531,4.148 -11.84,4.148 -1.492,0 -2.988,-0.172 -4.437,-0.519 -2.02,-0.492 -3.454,-2.309 -3.454,-4.383 0,-2.379 1.856,-4.352 4.235,-4.496 l 9.562,-0.594 c 7.137,-0.449 12.676,-6.355 12.676,-13.492 0,-5.641 -3.496,-10.691 -8.762,-12.664 -3.148,-1.172 -6.468,-1.781 -9.82,-1.781 -7.383,0 -14.477,2.929 -19.715,8.136 m -37.18,19.817 19.149,0 c 0,5.293 -4.281,9.586 -9.574,9.586 -5.282,0 -9.575,-4.293 -9.575,-9.586 m 28.172,-7.879 -28.172,0 0,-1.133 c 0,-3.914 2.379,-7.441 6.02,-8.891 1.492,-0.593 3.074,-0.898 4.684,-0.898 3.671,0 7.168,1.609 9.562,4.395 l 6.848,-5.875 c -4.106,-4.774 -10.098,-7.528 -16.41,-7.528 -2.754,0 -5.469,0.52 -8.036,1.535 -7.05,2.832 -11.679,9.664 -11.679,17.262 l 0,9.012 c 0,10.269 8.328,18.594 18.586,18.594 10.269,0 18.597,-8.325 18.597,-18.594 l 0,-7.879 z m -82.242,-19.149 0,63.075 9.012,0 0,-39.43 17.465,21.41 10.691,0 -15.203,-17.465 17.465,-27.59 -11.27,0 -11.824,20.832 -7.324,-7.878 0,-12.954 -9.012,0 z m -22.527,63.075 9.008,0 0,-9.008 -9.008,0 0,9.008 z m 0,-18.02 9.008,0 0,-45.055 -9.008,0 0,45.055 z m -46.758,-8.441 15.203,0 c 4.977,0 9.024,4.035 9.024,9.008 0,4.976 -4.047,9.007 -9.024,9.007 l -15.203,0 0,-18.015 z m 0,-27.606 15.77,0 c 5.296,0 9.574,4.282 9.574,9.574 0,5.297 -4.278,9.575 -9.574,9.575 l -15.77,0 0,-19.149 z m -9.574,-9.008 0,63.075 25.91,0 c 9.328,0 16.902,-7.559 16.902,-16.903 0,-5.511 -2.699,-10.675 -7.211,-13.836 5.18,-3.179 8.34,-8.804 8.34,-14.882 0,-9.633 -7.82,-17.454 -17.465,-17.454 l -26.476,0 z m -42.809,29.29 27.039,0 0,-9.008 -27.039,0 0,9.008 z m -50.687,-29.29 0,63.075 40.547,0 0,-9.008 -30.973,0 0,-18.02 26.461,0 0,-8.457 -26.461,0 0,-18.582 30.973,0 0,-9.008 -40.547,0 z" /><path
         id="path13102"
         style="fill:#000000;fill-opacity:1;fill-rule:nonzero;stroke:none"
         d="m 297.941,117.521 9.028,0 0,-9.027 -9.028,0 0,9.027 z m 0,-18.066 9.028,0 0,-45.149 -9.028,0 0,45.149 z M 257.297,81.4 l 19.203,0 c 0,5.289 -4.301,9.594 -9.609,9.594 -5.289,0 -9.594,-4.305 -9.594,-9.594 m 28.23,-7.906 -28.23,0 0,-1.121 c 0,-3.938 2.398,-7.457 6.031,-8.911 1.5,-0.593 3.098,-0.914 4.695,-0.914 3.696,0 7.2,1.614 9.598,4.418 l 6.844,-5.886 c -4.113,-4.797 -10.117,-7.559 -16.442,-7.559 -2.761,0 -5.476,0.524 -8.035,1.555 -7.082,2.82 -11.718,9.679 -11.718,17.297 l 0,9.027 c 0,10.277 8.343,18.621 18.621,18.621 10.293,0 18.636,-8.344 18.636,-18.621 l 0,-7.906 z m -72.246,-19.188 0,45.149 9.028,0 0,-5.09 c 2.89,3.578 7.253,5.656 11.847,5.656 3.5,0 6.891,-1.207 9.606,-3.402 l -6.422,-7.907 c -1.66,1.465 -3.781,2.282 -6.004,2.282 -4.988,0 -9.027,-4.043 -9.027,-9.043 l 0,-27.645 -9.028,0 z m -28.23,0 0,37.821 -4.508,0 0,7.328 4.508,0 0,6.773 c 0,6.234 5.058,11.293 11.293,11.293 l 6.773,0 0,-8.476 -6.207,0 c -1.566,0 -2.816,-1.262 -2.816,-2.817 l 0,-6.773 9.023,0 0,-7.328 -9.023,0 0,-37.821 -9.043,0 z" /><path
         id="path13104"
         style="fill:#000000;fill-opacity:1;fill-rule:nonzero;stroke:none"
         d="M 32.398,264.806 C 14.516,264.806 0,250.24 0,232.291 L 0,32.513 C 0,14.564 14.516,0.002 32.398,0.002 l 416,0 c 17.887,0 32.399,14.562 32.399,32.511 l 0,199.778 c 0,17.949 -14.512,32.515 -32.399,32.515 l -416,0 z m 0,-0.402 416.008,0 c 17.672,0 32,-14.391 32,-32.121 l 0,-199.77 c 0,-17.73 -14.328,-32.105 -32,-32.105 l -416.008,0 C 14.73,0.408 0.406,14.783 0.406,32.513 l 0,199.77 c 0,17.73 14.324,32.121 31.992,32.121 z" /></g></g></svg>