<?xml version="1.0" encoding="UTF-8" standalone="no"?>
<svg
   xmlns:dc="http://purl.org/dc/elements/1.1/"
   xmlns:cc="http://creativecommons.org/ns#"
   xmlns:rdf="http://www.w3.org/1999/02/22-rdf-syntax-ns#"
   xmlns:svg="http://www.w3.org/2000/svg"
   xmlns="http://www.w3.org/2000/svg"
   viewBox="0 0 600.99805 331.00781"
   height="331.00781"
   width="600.99805"
   xml:space="preserve"
   version="1.1"
   id="svg12578"><metadata
     id="metadata12584"><rdf:RDF><cc:Work
         rdf:about=""><dc:format>image/svg+xml</dc:format><dc:type
           rdf:resource="http://purl.org/dc/dcmitype/StillImage" /><dc:title></dc:title></cc:Work></rdf:RDF></metadata><defs
     id="defs12582"><clipPath
       id="clipPath12600"
       clipPathUnits="userSpaceOnUse"><path
         id="path12602"
         d="m 0,264.806 481,0 0,-264.734 -481,0 0,264.734 z" /></clipPath><clipPath
       id="clipPath12610"
       clipPathUnits="userSpaceOnUse"><path
         id="path12612"
         d="m 36,52 409,0 0,161 -409,0 0,-161 z" /></clipPath><clipPath
       id="clipPath12620"
       clipPathUnits="userSpaceOnUse"><path
         id="path12622"
         d="m 36,213 409,0 0,-161 -409,0 0,161 z" /></clipPath><clipPath
       id="clipPath12630"
       clipPathUnits="userSpaceOnUse"><path
         id="path12632"
         d="m 36,52 409,0 0,161 -409,0 0,-161 z" /></clipPath></defs><g
     transform="matrix(1.25,0,0,-1.25,0,331.0078)"
     id="g12586"><g
       id="g12588"><path
         id="path12590"
         style="fill:#ffffff;fill-opacity:1;fill-rule:nonzero;stroke:none"
         d="m 32.402,0.404 c -17.672,0 -32,14.379 -32,32.109 l 0,199.77 c 0,17.73 14.328,32.121 32,32.121 l 416.004,0 c 17.672,0 31.996,-14.391 31.996,-32.121 l 0,-199.77 c 0,-17.73 -14.324,-32.109 -31.996,-32.109 l -416.004,0 z" /><path
         id="path12592"
         style="fill:#000000;fill-opacity:1;fill-rule:nonzero;stroke:none"
         d="m 32.402,8.435 c -13.261,0 -24,10.774 -24,24.082 l 0,199.766 c 0,13.308 10.739,24.082 24,24.082 l 416.004,0 c 13.246,0 24,-10.774 24,-24.082 l 0,-199.766 c 0,-13.308 -10.754,-24.082 -24,-24.082 l -416.004,0 z" /><path
         id="path12594"
         style="fill:#ffffff;fill-opacity:1;fill-rule:nonzero;stroke:none"
         d="m 32.402,20.474 c -6.632,0 -12.007,5.395 -12.007,12.051 l 0,199.766 c 0,6.64 5.375,12.035 12.007,12.035 l 416.004,0 c 6.633,0 11.992,-5.395 11.992,-12.035 l 0,-199.766 c 0,-6.656 -5.359,-12.051 -11.992,-12.051 l -416.004,0 z" /></g><g
       id="g12596"><g
         clip-path="url(#clipPath12600)"
         id="g12598"><g
           transform="translate(0,-0.193756)"
           id="g12604"><g
             id="g12606"><g
               clip-path="url(#clipPath12610)"
               id="g12608"><g
                 id="g12614" /><g
                 id="g12616"><g
                   clip-path="url(#clipPath12620)"
                   id="g12618"><g
                     id="g12624"><g
                       id="g12626"><g
                         clip-path="url(#clipPath12630)"
                         id="g12628"><g
                           id="g12634"><path
                             id="path12636"
                             style="fill:#000000;fill-opacity:1;fill-rule:nonzero;stroke:none"
                             d="m 444.941,150.418 -4.418,0 c -5.472,0 -9.933,4.449 -9.933,9.934 l 0,27.027 -4.406,0 0,7.176 4.406,0 0,13.242 8.84,0 0,-13.242 5.511,0 0,-7.176 -5.511,0 0,-25.918 c 0,-1.535 1.234,-2.773 2.754,-2.773 l 2.757,0 0,-8.27 z m -43.586,0 0,44.137 8.829,0 0,-4.973 c 2.828,3.492 7.089,5.527 11.582,5.527 l 0,-9.265 c -0.899,0.285 -1.821,0.441 -2.758,0.441 -4.875,0 -8.824,-3.953 -8.824,-8.824 l 0,-27.043 -8.829,0 z m -26.488,12.691 c 0,-2.445 1.977,-4.421 4.406,-4.421 2.446,0 4.418,1.976 4.418,4.421 l 0,18.754 c 0,2.446 -1.972,4.422 -4.418,4.422 -2.429,0 -4.406,-1.976 -4.406,-4.422 l 0,-18.754 z m -8.824,0 0,18.754 c 0,7.321 5.926,13.246 13.23,13.246 7.317,0 13.247,-5.925 13.247,-13.246 l 0,-18.754 c 0,-7.32 -5.93,-13.246 -13.247,-13.246 -7.304,0 -13.23,5.926 -13.23,13.246 m -25.379,0 c 0,-2.445 1.973,-4.421 4.402,-4.421 2.446,0 4.422,1.976 4.422,4.421 l 0,18.754 c 0,2.446 -1.976,4.422 -4.422,4.422 -2.429,0 -4.402,-1.976 -4.402,-4.422 l 0,-18.754 z m -8.84,-30.339 0,61.785 8.84,0 0,-4.422 c 1.617,3.07 4.801,4.976 8.27,4.976 5.171,0 9.378,-4.191 9.378,-9.379 l 0,-26.488 c 0,-5.172 -4.207,-9.379 -9.378,-9.379 -3.469,0 -6.653,1.918 -8.27,4.961 l 0,-22.054 -8.84,0 z m -33.097,30.339 8.269,0 c 0,-2.742 2.231,-4.961 4.961,-4.961 2.758,0 4.973,2.219 4.973,4.961 0,1.961 -1.164,3.735 -2.957,4.547 l -7.149,2.614 c -4.59,2.031 -7.558,6.578 -7.558,11.593 0,7.008 5.683,12.692 12.691,12.692 7.02,0 12.703,-5.684 12.703,-12.692 l -8.285,0 c 0,2.446 -1.973,4.422 -4.418,4.422 -2.43,0 -4.406,-1.976 -4.406,-4.422 0,-1.746 1.023,-3.324 2.629,-4.035 l 7.148,-2.613 c 4.789,-2.117 7.871,-6.863 7.871,-12.106 0,-7.32 -5.926,-13.246 -13.242,-13.246 -7.305,0 -13.23,5.926 -13.23,13.246 m -33.114,-12.691 0,44.137 8.825,0 0,-4.422 c 1.636,3.07 4.82,4.976 8.285,4.976 5.175,0 9.382,-4.191 9.382,-9.379 l 0,-35.312 -8.839,0 0,31.445 c 0,2.446 -1.977,4.422 -4.407,4.422 -2.445,0 -4.421,-1.976 -4.421,-4.422 l 0,-31.445 -8.825,0 z m -17.664,19.312 -4.402,0 c -2.445,0 -4.422,-1.976 -4.422,-4.421 l 0,-2.2 c 0,-2.445 1.977,-4.421 4.422,-4.421 2.43,0 4.402,1.976 4.402,4.421 l 0,6.621 z m 8.84,-19.312 -8.84,0 0,4.406 c -1.617,-3.043 -4.801,-4.961 -8.269,-4.961 -5.188,0 -9.379,4.207 -9.379,9.379 l 0,6.621 c 0,6.098 4.945,11.043 11.027,11.043 l 6.621,0 0,4.957 c 0,2.446 -1.972,4.422 -4.402,4.422 -2.445,0 -4.422,-1.976 -4.422,-4.422 l -8.824,0 c 0,7.321 5.926,13.246 13.246,13.246 7.316,0 13.242,-5.925 13.242,-13.246 l 0,-31.445 z m -50.207,0 0,44.137 8.824,0 0,-4.973 c 2.828,3.492 7.078,5.527 11.582,5.527 l 0,-9.265 c -0.894,0.285 -1.816,0.441 -2.758,0.441 -4.871,0 -8.824,-3.953 -8.824,-8.824 l 0,-27.043 -8.824,0 z m -7.73,0 -4.418,0 c -5.489,0 -9.934,4.449 -9.934,9.934 l 0,27.027 -4.406,0 0,7.176 4.406,0 0,13.242 8.824,0 0,-13.242 5.528,0 0,-7.176 -5.528,0 0,-25.918 c 0,-1.535 1.235,-2.773 2.77,-2.773 l 2.758,0 0,-8.27 z m -40.844,25.934 8.84,0 0,5.511 c 0,2.446 -1.973,4.422 -4.418,4.422 -2.43,0 -4.422,-1.976 -4.422,-4.422 l 0,-5.511 z m 17.664,-13.243 c 0,-7.32 -5.926,-13.246 -13.242,-13.246 -7.305,0 -13.246,5.926 -13.246,13.246 l 0,18.754 c 0,7.321 5.941,13.246 13.246,13.246 7.316,0 13.242,-5.925 13.242,-13.246 l 0,-12.687 -17.664,0 0,-6.067 c 0,-2.445 1.992,-4.421 4.422,-4.421 2.445,0 4.418,1.976 4.418,4.421 l 8.824,0 z m -32,-12.691 -3.313,0 c -5.484,0 -9.933,4.449 -9.933,9.934 l 0,51.863 8.824,0 0,-50.754 c 0,-1.535 1.238,-2.773 2.773,-2.773 l 1.649,0 0,-8.27 z m -19.867,0 -3.313,0 c -5.484,0 -9.933,4.449 -9.933,9.934 l 0,51.863 8.839,0 0,-50.754 c 0,-1.535 1.239,-2.773 2.758,-2.773 l 1.649,0 0,-8.27 z m -33.098,61.797 8.824,0 0,-8.824 -8.824,0 0,8.824 z m -13.246,0 8.828,0 0,-8.824 -8.828,0 0,8.824 z m 24.273,-61.797 -8.824,0 0,4.406 c -1.637,-3.043 -4.816,-4.961 -8.269,-4.961 -5.188,0 -9.395,4.207 -9.395,9.379 l 0,35.313 8.84,0 0,-31.446 c 0,-2.445 1.973,-4.421 4.402,-4.421 2.446,0 4.422,1.976 4.422,4.421 l 0,31.446 8.824,0 0,-44.137 z m -35.312,34.203 0,-19.851 c 0,-8.243 -6.668,-14.907 -14.895,-14.907 -8.226,0 -14.906,6.664 -14.906,14.907 l 0,33.093 c 0,8.231 6.68,14.907 14.906,14.907 8.227,0 14.895,-6.676 14.895,-14.907 l 0,-3.308 -8.828,0 0,3.308 c 0,3.356 -2.711,6.071 -6.067,6.071 -3.355,0 -6.066,-2.715 -6.066,-6.071 l 0,-33.093 c 0,-3.352 2.711,-6.082 6.066,-6.082 3.356,0 6.067,2.73 6.067,6.082 l 0,12.136 -7.176,0 0,7.715 16.004,0 z" /><path
                             id="path12638"
                             style="fill:#000000;fill-opacity:1;fill-rule:nonzero;stroke:none"
                             d="m 296.145,116.418 9.027,0 0,-9.031 -9.027,0 0,9.031 z m 0,-18.059 9.027,0 0,-45.156 -9.027,0 0,45.156 z m -40.653,-18.07 19.207,0 c 0,5.305 -4.304,9.594 -9.613,9.594 -5.293,0 -9.594,-4.289 -9.594,-9.594 m 28.235,-7.894 -28.235,0 0,-1.137 c 0,-3.926 2.399,-7.457 6.031,-8.91 1.5,-0.598 3.098,-0.903 4.7,-0.903 3.691,0 7.195,1.614 9.593,4.407 l 6.848,-5.891 c -4.113,-4.797 -10.117,-7.543 -16.441,-7.543 -2.766,0 -5.485,0.523 -8.043,1.539 -7.078,2.836 -11.719,9.684 -11.719,17.301 l 0,9.027 c 0,10.293 8.348,18.625 18.625,18.625 10.297,0 18.641,-8.332 18.641,-18.625 l 0,-7.894 0,0.004 z m -72.262,-19.192 0,45.156 9.027,0 0,-5.101 c 2.895,3.574 7.258,5.652 11.852,5.652 3.504,0 6.89,-1.191 9.609,-3.387 l -6.426,-7.921 c -1.656,1.468 -3.781,2.281 -6.004,2.281 -4.988,0 -9.031,-4.043 -9.031,-9.028 l 0,-27.652 -9.027,0 z m -28.238,0 0,37.813 -4.508,0 0,7.343 4.508,0 0,6.774 c 0,6.238 5.062,11.285 11.296,11.285 l 6.778,0 0,-8.465 -6.207,0 c -1.571,0 -2.824,-1.262 -2.824,-2.82 l 0,-6.774 9.031,0 0,-7.343 -9.031,0 0,-37.813 -9.043,0 z" /></g></g></g></g></g></g></g></g></g></g></g><g
       id="g12640"><path
         id="path12642"
         style="fill:#000000;fill-opacity:1;fill-rule:nonzero;stroke:none"
         d="M 32.398,264.806 C 14.516,264.806 0,250.24 0,232.291 L 0,32.513 C 0,14.564 14.516,0.002 32.398,0.002 l 416,0 c 17.887,0 32.399,14.562 32.399,32.511 l 0,199.778 c 0,17.949 -14.512,32.515 -32.399,32.515 l -416,0 z m 0,-0.402 416.008,0 c 17.672,0 32,-14.391 32,-32.121 l 0,-199.77 c 0,-17.73 -14.328,-32.105 -32,-32.105 l -416.008,0 C 14.73,0.408 0.406,14.783 0.406,32.513 l 0,199.77 c 0,17.73 14.324,32.121 31.992,32.121 z" /></g></g></svg>