<?xml version="1.0" encoding="UTF-8" standalone="no"?>
<svg
   xmlns:dc="http://purl.org/dc/elements/1.1/"
   xmlns:cc="http://creativecommons.org/ns#"
   xmlns:rdf="http://www.w3.org/1999/02/22-rdf-syntax-ns#"
   xmlns:svg="http://www.w3.org/2000/svg"
   xmlns="http://www.w3.org/2000/svg"
   viewBox="0 0 600.99805 331.00781"
   height="331.00781"
   width="600.99805"
   xml:space="preserve"
   version="1.1"
   id="svg13844"><metadata
     id="metadata13850"><rdf:RDF><cc:Work
         rdf:about=""><dc:format>image/svg+xml</dc:format><dc:type
           rdf:resource="http://purl.org/dc/dcmitype/StillImage" /><dc:title></dc:title></cc:Work></rdf:RDF></metadata><defs
     id="defs13848" /><g
     transform="matrix(1.25,0,0,-1.25,0,331.0078)"
     id="g13852"><g
       id="g13854"><path
         id="path13856"
         style="fill:#ffffff;fill-opacity:1;fill-rule:nonzero;stroke:none"
         d="m 32.402,0.404 c -17.672,0 -32,14.379 -32,32.109 l 0,199.77 c 0,17.73 14.328,32.121 32,32.121 l 416.004,0 c 17.672,0 31.996,-14.391 31.996,-32.121 l 0,-199.77 c 0,-17.73 -14.324,-32.109 -31.996,-32.109 l -416.004,0 z" /><path
         id="path13858"
         style="fill:#000000;fill-opacity:1;fill-rule:nonzero;stroke:none"
         d="m 32.402,8.435 c -13.261,0 -24,10.774 -24,24.082 l 0,199.766 c 0,13.308 10.739,24.082 24,24.082 l 416.004,0 c 13.246,0 24,-10.774 24,-24.082 l 0,-199.766 c 0,-13.308 -10.754,-24.082 -24,-24.082 l -416.004,0 z" /><path
         id="path13860"
         style="fill:#ffffff;fill-opacity:1;fill-rule:nonzero;stroke:none"
         d="m 32.402,20.474 c -6.632,0 -12.007,5.395 -12.007,12.051 l 0,199.766 c 0,6.64 5.375,12.035 12.007,12.035 l 416.004,0 c 6.633,0 11.992,-5.395 11.992,-12.035 l 0,-199.766 c 0,-6.656 -5.359,-12.051 -11.992,-12.051 l -416.004,0 z" /><path
         id="path13862"
         style="fill:#000000;fill-opacity:1;fill-rule:nonzero;stroke:none"
         d="m 61.055,146.322 14.035,63.094 7.848,0 14.039,-63.094 -9.536,0 -2.535,13.515 -11.781,0 -2.523,-13.515 -9.547,0 z m 13.64,21.965 8.641,0 -4.313,23.093 -4.328,-23.093 z" /><path
         id="path13864"
         style="fill:#000000;fill-opacity:1;fill-rule:nonzero;stroke:none"
         d="m 103.711,146.322 0,45.058 8.977,0 0,-4.503 c 2.48,4.668 8.261,6.433 12.91,3.945 3.109,-1.664 5.062,-4.918 5.062,-8.449 l 0,-36.051 -8.98,0 0,32.105 c 0,2.489 -2.008,4.504 -4.5,4.504 -2.481,0 -4.492,-2.015 -4.492,-4.504 l 0,-32.105 -8.977,0 z" /><path
         id="path13866"
         style="fill:#000000;fill-opacity:1;fill-rule:nonzero;stroke:none"
         d="m 153.109,146.322 -3.375,0 c -5.574,0 -10.089,4.535 -10.089,10.144 l 0,52.95 8.976,0 0,-51.832 c 0,-1.547 1.262,-2.813 2.801,-2.813 l 1.687,0 0,-8.449 z" /><path
         id="path13868"
         style="fill:#000000;fill-opacity:1;fill-rule:nonzero;stroke:none"
         d="m 160.969,191.38 8.976,0 0,-45.058 -8.976,0 0,45.058 z m 0,18.036 8.976,0 0,-9.012 -8.976,0 0,9.012 z" /><path
         id="path13870"
         style="fill:#000000;fill-opacity:1;fill-rule:nonzero;stroke:none"
         d="m 205.875,159.275 c 0,-7.461 -6.027,-13.512 -13.465,-13.512 -7.449,0 -13.48,6.051 -13.48,13.512 l 0,19.152 c 0,7.465 6.031,13.528 13.48,13.528 7.438,0 13.465,-6.063 13.465,-13.528 l 0,-12.953 -17.969,0 0,-6.199 c 0,-2.484 2.012,-4.504 4.504,-4.504 2.481,0 4.488,2.02 4.488,4.504 l 8.977,0 z m -17.969,13.516 8.992,0 0,5.636 c 0,2.489 -2.007,4.504 -4.488,4.504 -2.492,0 -4.504,-2.015 -4.504,-4.504 l 0,-5.636 z" /><path
         id="path13872"
         style="fill:#000000;fill-opacity:1;fill-rule:nonzero;stroke:none"
         d="m 222.715,141.252 c 0,-2.489 2.008,-4.508 4.488,-4.508 2.481,0 4.488,2.019 4.488,4.508 l 0,9.582 c -2.48,-4.668 -8.257,-6.434 -12.906,-3.946 -3.109,1.664 -5.047,4.903 -5.047,8.449 l 0,27.043 c 0,5.282 4.27,9.567 9.535,9.567 3.536,0 6.762,-1.942 8.418,-5.063 l 0,4.504 8.993,0 0,-50.136 c 0,-7.465 -6.043,-13.516 -13.481,-13.516 -7.437,0 -13.465,6.051 -13.465,13.516 l 8.977,0 z m 8.976,18.031 0,19.152 c 0,2.485 -2.007,4.504 -4.488,4.504 -2.48,0 -4.488,-2.019 -4.488,-4.504 l 0,-19.152 c 0,-2.488 2.008,-4.52 4.488,-4.52 2.481,0 4.488,2.032 4.488,4.52" /><path
         id="path13874"
         style="fill:#000000;fill-opacity:1;fill-rule:nonzero;stroke:none"
         d="m 276.605,159.275 c 0,-7.461 -6.031,-13.512 -13.468,-13.512 -7.449,0 -13.481,6.051 -13.481,13.512 l 0,19.152 c 0,7.465 6.032,13.528 13.481,13.528 7.437,0 13.468,-6.063 13.468,-13.528 l 0,-12.953 -17.968,0 0,-6.199 c 0,-2.484 2.008,-4.504 4.5,-4.504 2.48,0 4.488,2.02 4.488,4.504 l 8.98,0 z m -17.968,13.516 8.988,0 0,5.636 c 0,2.489 -2.008,4.504 -4.488,4.504 -2.492,0 -4.5,-2.015 -4.5,-4.504 l 0,-5.636 z" /><path
         id="path13876"
         style="fill:#000000;fill-opacity:1;fill-rule:nonzero;stroke:none"
         d="m 284.461,146.322 0,45.058 8.977,0 0,-5.078 c 2.874,3.578 7.218,5.653 11.792,5.653 l 0,-9.465 c -4.707,1.547 -9.781,-1.016 -11.335,-5.754 -0.293,-0.899 -0.457,-1.856 -0.457,-2.813 l 0,-27.601 -8.977,0 z" /><path
         id="path13878"
         style="fill:#000000;fill-opacity:1;fill-rule:nonzero;stroke:none"
         d="m 341.156,146.322 0,63.094 8.977,0 0,-22.539 c 2.48,4.668 8.258,6.433 12.91,3.945 3.109,-1.664 5.059,-4.918 5.059,-8.449 l 0,-27.043 c 0,-5.282 -4.266,-9.567 -9.547,-9.567 -3.524,0 -6.762,1.942 -8.422,5.063 l 0,-4.504 -8.977,0 z m 8.977,12.953 c 0,-2.484 2.012,-4.504 4.488,-4.504 2.496,0 4.504,2.02 4.504,4.504 l 0,19.152 c 0,2.489 -2.008,4.504 -4.504,4.504 -2.476,0 -4.488,-2.015 -4.488,-4.504 l 0,-19.152 z" /><path
         id="path13880"
         style="fill:#000000;fill-opacity:1;fill-rule:nonzero;stroke:none"
         d="m 377.078,191.38 8.977,0 0,-45.058 -8.977,0 0,45.058 z m 0,18.036 8.977,0 0,-9.012 -8.977,0 0,9.012 z" /><path
         id="path13882"
         style="fill:#000000;fill-opacity:1;fill-rule:nonzero;stroke:none"
         d="m 392.797,159.275 8.422,0 c 0,-2.797 2.258,-5.063 5.047,-5.063 2.8,0 5.058,2.266 5.058,5.063 0,2.004 -1.187,3.828 -3.008,4.637 l -7.273,2.668 c -6.527,2.898 -9.461,10.55 -6.57,17.101 2.886,6.539 10.5,9.496 17.027,6.598 4.664,-2.078 7.688,-6.727 7.688,-11.852 l -8.422,0 c 0,2.489 -2.024,4.504 -4.5,4.504 -2.481,0 -4.489,-2.015 -4.489,-4.504 0,-1.781 1.055,-3.398 2.668,-4.121 l 7.278,-2.664 c 6.804,-3.031 9.871,-11.012 6.863,-17.84 -3.008,-6.832 -10.973,-9.91 -17.777,-6.89 -4.871,2.179 -8.012,7.019 -8.012,12.363" /><path
         id="path13884"
         style="fill:#000000;fill-opacity:1;fill-rule:nonzero;stroke:none"
         d="m 45.707,55.955 0,63.429 14.672,0 c 8.098,0 14.672,-6.586 14.672,-14.722 l 0,-5.106 c 0,-4.336 -2.477,-8.289 -6.371,-10.183 3.894,-1.895 6.371,-5.86 6.371,-10.196 l 0,-8.496 c 0,-8.14 -6.574,-14.726 -14.672,-14.726 l -14.672,0 z m 9.023,9.058 5.649,0 c 3.422,0 6.207,2.797 6.207,6.231 l 0,7.933 c 0,3.434 -2.785,6.231 -6.207,6.231 l -5.649,0 0,-20.395 z m 0,28.324 5.649,0 c 3.422,0 6.207,2.786 6.207,6.219 l 0,5.106 c 0,3.433 -2.785,6.23 -6.207,6.23 l -5.649,0 0,-17.555 z" /><path
         id="path13886"
         style="fill:#000000;fill-opacity:1;fill-rule:nonzero;stroke:none"
         d="m 108.91,55.955 -9.023,0 0,4.531 c -2.492,-4.691 -8.305,-6.469 -12.977,-3.969 -3.129,1.676 -5.09,4.945 -5.09,8.496 l 0,6.793 c 0,6.262 5.059,11.336 11.297,11.336 l 6.77,0 0,5.09 c 0,2.504 -2.02,4.531 -4.512,4.531 -2.508,0 -4.527,-2.027 -4.527,-4.531 l -9.028,0 c 0,7.504 6.063,13.602 13.555,13.602 7.477,0 13.535,-6.098 13.535,-13.602 l 0,-32.277 z m -9.023,19.816 -4.512,0 c -2.508,0 -4.527,-2.027 -4.527,-4.527 l 0,-2.266 c 0,-2.5 2.019,-4.527 4.527,-4.527 2.492,0 4.512,2.027 4.512,4.527 l 0,6.793 z" /><path
         id="path13888"
         style="fill:#000000;fill-opacity:1;fill-rule:nonzero;stroke:none"
         d="m 145.027,55.955 -9.023,0 0,4.531 c -2.492,-4.691 -8.301,-6.469 -12.977,-3.969 -3.125,1.676 -5.089,4.945 -5.089,8.496 l 0,36.242 9.027,0 0,-32.277 c 0,-2.5 2.019,-4.527 4.527,-4.527 2.492,0 4.512,2.027 4.512,4.527 l 0,32.277 9.023,0 0,-45.3 z" /><path
         id="path13890"
         style="fill:#000000;fill-opacity:1;fill-rule:nonzero;stroke:none"
         d="m 151.801,68.982 8.465,0 c 0,-2.812 2.269,-5.105 5.07,-5.105 2.816,0 5.09,2.293 5.09,5.105 0,2.012 -1.196,3.848 -3.024,4.664 l -7.316,2.676 c -6.547,2.918 -9.512,10.613 -6.606,17.199 2.907,6.57 10.559,9.543 17.122,6.629 4.691,-2.086 7.726,-6.762 7.726,-11.914 l -8.465,0 c 0,2.5 -2.035,4.527 -4.527,4.527 -2.492,0 -4.512,-2.027 -4.512,-4.527 0,-1.789 1.063,-3.418 2.684,-4.145 l 7.316,-2.675 c 6.84,-3.051 9.938,-11.071 6.899,-17.938 -3.02,-6.867 -11.028,-9.961 -17.871,-6.926 -4.895,2.176 -8.051,7.059 -8.051,12.43" /><path
         id="path13892"
         style="fill:#000000;fill-opacity:1;fill-rule:nonzero;stroke:none"
         d="m 201.461,55.955 -4.512,0 c -5.621,0 -10.16,4.558 -10.16,10.199 l 0,27.746 -4.516,0 0,7.355 4.516,0 0,13.602 9.023,0 0,-13.602 5.649,0 0,-7.355 -5.649,0 0,-26.621 c 0,-1.555 1.27,-2.828 2.833,-2.828 l 2.816,0 0,-8.496 z" /><path
         id="path13894"
         style="fill:#000000;fill-opacity:1;fill-rule:nonzero;stroke:none"
         d="m 234.191,68.982 c 0,-7.504 -6.062,-13.586 -13.539,-13.586 -7.488,0 -13.55,6.082 -13.55,13.586 l 0,19.254 c 0,7.504 6.062,13.586 13.55,13.586 7.477,0 13.539,-6.082 13.539,-13.586 l 0,-13.024 -18.066,0 0,-6.23 c 0,-2.5 2.035,-4.527 4.527,-4.527 2.493,0 4.516,2.027 4.516,4.527 l 9.023,0 z m -18.066,13.586 9.043,0 0,5.668 c 0,2.5 -2.023,4.527 -4.516,4.527 -2.492,0 -4.527,-2.027 -4.527,-4.527 l 0,-5.668 z" /><path
         id="path13896"
         style="fill:#000000;fill-opacity:1;fill-rule:nonzero;stroke:none"
         d="m 255.637,55.955 -3.391,0 c -5.605,0 -10.148,4.558 -10.148,10.199 l 0,53.23 9.027,0 0,-52.105 c 0,-1.555 1.266,-2.828 2.816,-2.828 l 1.696,0 0,-8.496 z m 20.32,0 -3.391,0 c -5.605,0 -10.16,4.558 -10.16,10.199 l 0,53.23 9.039,0 0,-52.105 c 0,-1.555 1.254,-2.828 2.817,-2.828 l 1.695,0 0,-8.496 z" /><path
         id="path13898"
         style="fill:#000000;fill-opacity:1;fill-rule:nonzero;stroke:none"
         d="m 308.684,68.982 c 0,-7.504 -6.063,-13.586 -13.539,-13.586 -7.489,0 -13.551,6.082 -13.551,13.586 l 0,19.254 c 0,7.504 6.062,13.586 13.551,13.586 7.476,0 13.539,-6.082 13.539,-13.586 l 0,-13.024 -18.067,0 0,-6.23 c 0,-2.5 2.035,-4.527 4.528,-4.527 2.492,0 4.515,2.027 4.515,4.527 l 9.024,0 z m -18.067,13.586 9.043,0 0,5.668 c 0,2.5 -2.023,4.527 -4.515,4.527 -2.493,0 -4.528,-2.027 -4.528,-4.527 l 0,-5.668 z" /><path
         id="path13900"
         style="fill:#000000;fill-opacity:1;fill-rule:nonzero;stroke:none"
         d="m 344.234,55.955 0,37.945 -4.511,0 0,7.355 4.511,0 0,6.809 c 0,6.246 5.059,11.32 11.282,11.32 l 4.527,0 0,-8.492 -3.949,0 c -1.567,0 -2.832,-1.273 -2.832,-2.828 l 0,-6.809 6.781,0 0,-7.355 -6.781,0 0,-37.945 -9.028,0 z" /><path
         id="path13902"
         style="fill:#000000;fill-opacity:1;fill-rule:nonzero;stroke:none"
         d="m 366.809,55.955 0,45.3 9.023,0 0,-5.105 c 2.891,3.598 7.258,5.684 11.859,5.684 l 0,-9.516 c -4.734,1.555 -9.836,-1.02 -11.402,-5.785 -0.293,-0.903 -0.457,-1.867 -0.457,-2.828 l 0,-27.75 -9.023,0 z" /><path
         id="path13904"
         style="fill:#000000;fill-opacity:1;fill-rule:nonzero;stroke:none"
         d="m 418.164,68.982 c 0,-7.504 -6.062,-13.586 -13.539,-13.586 -7.492,0 -13.551,6.082 -13.551,13.586 l 0,19.254 c 0,7.504 6.059,13.586 13.551,13.586 7.477,0 13.539,-6.082 13.539,-13.586 l 0,-13.024 -18.066,0 0,-6.23 c 0,-2.5 2.035,-4.527 4.527,-4.527 2.492,0 4.512,2.027 4.512,4.527 l 9.027,0 z m -18.066,13.586 9.039,0 0,5.668 c 0,2.5 -2.02,4.527 -4.512,4.527 -2.492,0 -4.527,-2.027 -4.527,-4.527 l 0,-5.668 z" /><path
         id="path13906"
         style="fill:#000000;fill-opacity:1;fill-rule:nonzero;stroke:none"
         d="m 426.062,101.255 9.028,0 0,-45.3 -9.028,0 0,45.3 z m 0,18.129 9.028,0 0,-9.058 -9.028,0 0,9.058 z" /><path
         id="path13908"
         style="fill:#000000;fill-opacity:1;fill-rule:nonzero;stroke:none"
         d="M 32.398,264.806 C 14.516,264.806 0,250.24 0,232.291 L 0,32.513 C 0,14.564 14.516,0.002 32.398,0.002 l 416,0 c 17.887,0 32.399,14.562 32.399,32.511 l 0,199.778 c 0,17.949 -14.512,32.515 -32.399,32.515 l -416,0 z m 0,-0.402 416.008,0 c 17.672,0 32,-14.391 32,-32.121 l 0,-199.77 c 0,-17.73 -14.328,-32.105 -32,-32.105 l -416.008,0 C 14.73,0.408 0.406,14.783 0.406,32.513 l 0,199.77 c 0,17.73 14.324,32.121 31.992,32.121 z" /></g></g></svg>