<?xml version="1.0" encoding="UTF-8" standalone="no"?>
<svg
   xmlns:dc="http://purl.org/dc/elements/1.1/"
   xmlns:cc="http://creativecommons.org/ns#"
   xmlns:rdf="http://www.w3.org/1999/02/22-rdf-syntax-ns#"
   xmlns:svg="http://www.w3.org/2000/svg"
   xmlns="http://www.w3.org/2000/svg"
   viewBox="0 0 600.99805 331.00781"
   height="331.00781"
   width="600.99805"
   xml:space="preserve"
   version="1.1"
   id="svg13456"><metadata
     id="metadata13462"><rdf:RDF><cc:Work
         rdf:about=""><dc:format>image/svg+xml</dc:format><dc:type
           rdf:resource="http://purl.org/dc/dcmitype/StillImage" /><dc:title></dc:title></cc:Work></rdf:RDF></metadata><defs
     id="defs13460" /><g
     transform="matrix(1.25,0,0,-1.25,0,331.0078)"
     id="g13464"><g
       id="g13466"><path
         id="path13468"
         style="fill:#ffffff;fill-opacity:1;fill-rule:nonzero;stroke:none"
         d="m 32.402,0.404 c -17.672,0 -32,14.379 -32,32.109 l 0,199.77 c 0,17.73 14.328,32.121 32,32.121 l 416.004,0 c 17.672,0 31.996,-14.391 31.996,-32.121 l 0,-199.77 c 0,-17.73 -14.324,-32.109 -31.996,-32.109 l -416.004,0 z" /><path
         id="path13470"
         style="fill:#000000;fill-opacity:1;fill-rule:nonzero;stroke:none"
         d="m 32.402,8.435 c -13.261,0 -24,10.774 -24,24.082 l 0,199.766 c 0,13.308 10.739,24.082 24,24.082 l 416.004,0 c 13.246,0 24,-10.774 24,-24.082 l 0,-199.766 c 0,-13.308 -10.754,-24.082 -24,-24.082 l -416.004,0 z" /><path
         id="path13472"
         style="fill:#ffffff;fill-opacity:1;fill-rule:nonzero;stroke:none"
         d="m 32.402,20.474 c -6.632,0 -12.007,5.395 -12.007,12.051 l 0,199.766 c 0,6.64 5.375,12.035 12.007,12.035 l 416.004,0 c 6.633,0 11.992,-5.395 11.992,-12.035 l 0,-199.766 c 0,-6.656 -5.359,-12.051 -11.992,-12.051 l -416.004,0 z" /><path
         id="path13474"
         style="fill:#000000;fill-opacity:1;fill-rule:nonzero;stroke:none"
         d="m 51.363,146.06 0,63.426 9.024,0 0,-22.652 c 2.492,4.691 8.312,6.468 12.988,3.964 3.125,-1.671 5.07,-4.941 5.07,-8.492 l 0,-27.191 c 0,-5.313 -4.289,-9.617 -9.582,-9.617 -3.554,0 -6.812,1.953 -8.476,5.089 l 0,-4.527 -9.024,0 z m 9.024,13.02 c 0,-2.5 2.019,-4.528 4.523,-4.528 2.492,0 4.512,2.028 4.512,4.528 l 0,19.261 c 0,2.5 -2.02,4.528 -4.512,4.528 -2.504,0 -4.523,-2.028 -4.523,-4.528 l 0,-19.261 z" /><path
         id="path13476"
         style="fill:#000000;fill-opacity:1;fill-rule:nonzero;stroke:none"
         d="m 87.48,191.353 9.024,0 0,-45.301 -9.024,0 0,45.301 z m 0,18.125 9.024,0 0,-9.055 -9.024,0 0,9.055 z" /><path
         id="path13478"
         style="fill:#000000;fill-opacity:1;fill-rule:nonzero;stroke:none"
         d="m 103.277,159.084 8.461,0 c 0,-2.813 2.27,-5.09 5.086,-5.09 2.801,0 5.074,2.277 5.074,5.09 0,2.011 -1.179,3.847 -3.023,4.66 l -7.313,2.679 c -6.562,2.914 -9.507,10.622 -6.605,17.192 2.906,6.566 10.57,9.543 17.117,6.629 4.703,-2.086 7.727,-6.75 7.727,-11.91 l -8.465,0 c 0,2.515 -2.02,4.527 -4.512,4.527 -2.492,0 -4.523,-2.012 -4.523,-4.527 0,-1.793 1.058,-3.418 2.695,-4.145 l 7.313,-2.676 c 6.843,-3.051 9.921,-11.07 6.886,-17.933 -3.023,-6.864 -11.027,-9.957 -17.855,-6.926 -4.91,2.176 -8.063,7.058 -8.063,12.43" /><path
         id="path13480"
         style="fill:#000000;fill-opacity:1;fill-rule:nonzero;stroke:none"
         d="m 166.477,146.06 0,63.426 14.668,0 c 8.109,0 14.671,-6.598 14.671,-14.723 l 0,-5.101 c 0,-4.336 -2.464,-8.301 -6.371,-10.196 3.907,-1.894 6.371,-5.843 6.371,-10.195 l 0,-8.492 c 0,-8.121 -6.562,-14.719 -14.671,-14.719 l -14.668,0 z m 9.023,9.055 5.645,0 c 3.437,0 6.207,2.797 6.207,6.226 l 0,7.93 c 0,3.449 -2.77,6.231 -6.207,6.231 l -5.645,0 0,-20.387 z m 0,28.316 5.645,0 c 3.437,0 6.207,2.797 6.207,6.231 l 0,5.101 c 0,3.434 -2.77,6.231 -6.207,6.231 l -5.645,0 0,-17.563 z" /><path
         id="path13482"
         style="fill:#000000;fill-opacity:1;fill-rule:nonzero;stroke:none"
         d="m 229.676,146.06 -9.024,0 0,4.527 c -2.492,-4.691 -8.316,-6.464 -12.988,-3.964 -3.125,1.672 -5.07,4.941 -5.07,8.492 l 0,6.805 c 0,6.242 5.054,11.32 11.277,11.32 l 6.781,0 0,5.101 c 0,2.5 -2.019,4.528 -4.527,4.528 -2.492,0 -4.512,-2.028 -4.512,-4.528 l -9.019,0 c 0,7.504 6.058,13.582 13.531,13.582 7.492,0 13.551,-6.078 13.551,-13.582 l 0,-32.281 z m -9.024,19.824 -4.527,0 c -2.492,0 -4.512,-2.043 -4.512,-4.543 l 0,-2.261 c 0,-2.5 2.02,-4.528 4.512,-4.528 2.508,0 4.527,2.028 4.527,4.528 l 0,6.804 z" /><path
         id="path13484"
         style="fill:#000000;fill-opacity:1;fill-rule:nonzero;stroke:none"
         d="m 265.789,146.06 -9.023,0 0,4.527 c -2.489,-4.691 -8.313,-6.464 -12.989,-3.964 -3.125,1.672 -5.07,4.941 -5.07,8.492 l 0,36.246 9.023,0 0,-32.281 c 0,-2.5 2.02,-4.528 4.512,-4.528 2.504,0 4.524,2.028 4.524,4.528 l 0,32.281 9.023,0 0,-45.301 z" /><path
         id="path13486"
         style="fill:#000000;fill-opacity:1;fill-rule:nonzero;stroke:none"
         d="m 272.562,159.084 8.461,0 c 0,-2.813 2.27,-5.09 5.086,-5.09 2.801,0 5.075,2.277 5.075,5.09 0,2.011 -1.18,3.847 -3.024,4.66 l -7.312,2.679 c -6.563,2.914 -9.512,10.622 -6.606,17.192 2.906,6.566 10.57,9.543 17.117,6.629 4.703,-2.086 7.727,-6.75 7.727,-11.91 l -8.465,0 c 0,2.515 -2.019,4.527 -4.512,4.527 -2.504,0 -4.523,-2.012 -4.523,-4.527 0,-1.793 1.059,-3.418 2.68,-4.145 l 7.328,-2.676 c 6.828,-3.051 9.922,-11.07 6.886,-17.933 -3.023,-6.864 -11.027,-9.957 -17.871,-6.926 -4.894,2.176 -8.047,7.058 -8.047,12.43" /><path
         id="path13488"
         style="fill:#000000;fill-opacity:1;fill-rule:nonzero;stroke:none"
         d="m 322.215,146.06 -4.512,0 c -5.617,0 -10.156,4.555 -10.156,10.192 l 0,27.742 -4.512,0 0,7.367 4.512,0 0,13.598 9.023,0 0,-13.598 5.645,0 0,-7.367 -5.645,0 0,-26.602 c 0,-1.566 1.266,-2.84 2.828,-2.84 l 2.817,0 0,-8.492 z" /><path
         id="path13490"
         style="fill:#000000;fill-opacity:1;fill-rule:nonzero;stroke:none"
         d="m 354.945,159.084 c 0,-7.5 -6.058,-13.598 -13.547,-13.598 -7.476,0 -13.535,6.098 -13.535,13.598 l 0,19.25 c 0,7.515 6.059,13.593 13.535,13.593 7.489,0 13.547,-6.078 13.547,-13.593 l 0,-13.02 -18.058,0 0,-6.23 c 0,-2.5 2.019,-4.528 4.511,-4.528 2.504,0 4.524,2.028 4.524,4.528 l 9.023,0 z m -18.058,13.597 9.035,0 0,5.653 c 0,2.515 -2.02,4.527 -4.524,4.527 -2.492,0 -4.511,-2.012 -4.511,-4.527 l 0,-5.653 z" /><path
         id="path13492"
         style="fill:#000000;fill-opacity:1;fill-rule:nonzero;stroke:none"
         d="m 376.387,146.06 -3.391,0 c -5.601,0 -10.156,4.555 -10.156,10.192 l 0,53.234 9.039,0 0,-52.094 c 0,-1.566 1.25,-2.84 2.812,-2.84 l 1.696,0 0,-8.492 z m 20.316,0 -3.391,0 c -5.601,0 -10.156,4.555 -10.156,10.192 l 0,53.234 9.035,0 0,-52.094 c 0,-1.566 1.254,-2.84 2.817,-2.84 l 1.695,0 0,-8.492 z" /><path
         id="path13494"
         style="fill:#000000;fill-opacity:1;fill-rule:nonzero;stroke:none"
         d="m 429.43,159.084 c 0,-7.5 -6.059,-13.598 -13.547,-13.598 -7.477,0 -13.535,6.098 -13.535,13.598 l 0,19.25 c 0,7.515 6.058,13.593 13.535,13.593 7.488,0 13.547,-6.078 13.547,-13.593 l 0,-13.02 -18.059,0 0,-6.23 c 0,-2.5 2.02,-4.528 4.512,-4.528 2.504,0 4.527,2.028 4.527,4.528 l 9.02,0 z m -18.059,13.597 9.039,0 0,5.653 c 0,2.515 -2.023,4.527 -4.527,4.527 -2.492,0 -4.512,-2.012 -4.512,-4.527 l 0,-5.653 z" /><path
         id="path13496"
         style="fill:#000000;fill-opacity:1;fill-rule:nonzero;stroke:none"
         d="m 181.91,57.634 0,37.809 -4.496,0 0,7.344 4.496,0 0,6.765 c 0,6.239 5.039,11.297 11.242,11.297 l 6.758,0 0,-8.465 -6.187,0 c -1.555,0 -2.821,-1.265 -2.821,-2.832 l 0,-6.765 9.008,0 0,-7.344 -9.008,0 0,-37.809 -8.992,0 z" /><path
         id="path13498"
         style="fill:#000000;fill-opacity:1;fill-rule:nonzero;stroke:none"
         d="m 210.031,57.634 0,45.153 8.992,0 0,-5.102 c 5.278,6.547 14.844,7.563 21.368,2.285 0,-0.015 0,-0.015 0.015,-0.015 l -6.394,-7.918 c -3.715,3.316 -9.403,2.976 -12.711,-0.754 -1.469,-1.653 -2.278,-3.774 -2.278,-6 l 0,-27.649 -8.992,0 z" /><path
         id="path13500"
         style="fill:#000000;fill-opacity:1;fill-rule:nonzero;stroke:none"
         d="m 282.02,76.822 -28.125,0 0,-1.137 c 0,-3.922 2.382,-7.445 6.011,-8.906 5.008,-2.004 10.727,-0.59 14.239,3.512 l 6.816,-5.883 c -6.008,-7.035 -15.824,-9.453 -24.391,-6.004 -7.054,2.832 -11.668,9.676 -11.668,17.281 l 0,9.039 c 0,10.281 8.301,18.625 18.559,18.625 10.258,0 18.559,-8.344 18.559,-18.625 l 0,-7.902 z m -28.125,7.902 19.132,0 c 0,5.297 -4.293,9.586 -9.566,9.586 -5.273,0 -9.566,-4.289 -9.566,-9.586" /><path
         id="path13502"
         style="fill:#000000;fill-opacity:1;fill-rule:nonzero;stroke:none"
         d="m 294.387,102.791 8.992,0 0,-45.153 -8.992,0 0,45.153 z m 0,18.046 8.992,0 0,-9.023 -8.992,0 0,9.023 z" /><path
         id="path13504"
         style="fill:#000000;fill-opacity:1;fill-rule:nonzero;stroke:none"
         d="M 32.398,264.806 C 14.516,264.806 0,250.24 0,232.291 L 0,32.513 C 0,14.564 14.516,0.002 32.398,0.002 l 416,0 c 17.887,0 32.399,14.562 32.399,32.511 l 0,199.778 c 0,17.949 -14.512,32.515 -32.399,32.515 l -416,0 z m 0,-0.402 416.008,0 c 17.672,0 32,-14.391 32,-32.121 l 0,-199.77 c 0,-17.73 -14.328,-32.105 -32,-32.105 l -416.008,0 C 14.73,0.408 0.406,14.783 0.406,32.513 l 0,199.77 c 0,17.73 14.324,32.121 31.992,32.121 z" /></g></g></svg>