<?xml version="1.0" encoding="UTF-8" standalone="no"?>
<svg
   xmlns:dc="http://purl.org/dc/elements/1.1/"
   xmlns:cc="http://creativecommons.org/ns#"
   xmlns:rdf="http://www.w3.org/1999/02/22-rdf-syntax-ns#"
   xmlns:svg="http://www.w3.org/2000/svg"
   xmlns="http://www.w3.org/2000/svg"
   viewBox="0 0 601 450.99997"
   height="450.99997"
   width="601"
   xml:space="preserve"
   version="1.1"
   id="svg13967"><metadata
     id="metadata13973"><rdf:RDF><cc:Work
         rdf:about=""><dc:format>image/svg+xml</dc:format><dc:type
           rdf:resource="http://purl.org/dc/dcmitype/StillImage" /><dc:title></dc:title></cc:Work></rdf:RDF></metadata><defs
     id="defs13971"><clipPath
       id="clipPath13989"
       clipPathUnits="userSpaceOnUse"><path
         id="path13991"
         d="m 54,50 373,0 0,262 -373,0 0,-262 z" /></clipPath></defs><g
     transform="matrix(1.25,0,0,-1.25,0,450.99998)"
     id="g13975"><g
       id="g13977"><path
         id="path13979"
         style="fill:#ffffff;fill-opacity:1;fill-rule:nonzero;stroke:none"
         d="m 32.184,360.402 c -17.52,0 -31.786,-14.266 -31.786,-31.797 l 0,-296.414 C 0.398,14.663 14.664,0.402 32.184,0.402 l 416.418,0 c 17.535,0 31.796,14.261 31.796,31.789 l 0,296.414 c 0,17.531 -14.261,31.797 -31.796,31.797 l -416.418,0 z" /><path
         id="path13981"
         style="fill:#000000;fill-opacity:1;fill-rule:nonzero;stroke:none"
         d="m 32.184,352.632 c -13.262,0 -24.016,-10.758 -24.016,-24.027 l 0,-296.414 C 8.168,18.925 18.922,8.163 32.184,8.163 l 416.418,0 c 13.265,0 24.027,10.762 24.027,24.028 l 0,296.414 c 0,13.269 -10.762,24.027 -24.027,24.027 l -416.418,0 z m 0,-12.02 416.418,0 c 6.636,0 12.015,-5.375 12.015,-12.007 l 0,-296.414 c 0,-6.641 -5.379,-12.008 -12.015,-12.008 l -416.418,0 c -6.622,0 -12.008,5.367 -12.008,12.008 l 0,296.414 c 0,6.632 5.386,12.007 12.008,12.007 z" /><g
         transform="translate(0,-0.200012)"
         id="g13983"><g
           id="g13985"><g
             clip-path="url(#clipPath13989)"
             id="g13987"><g
               id="g13993"><path
                 id="path13995"
                 style="fill:#000000;fill-opacity:1;fill-rule:nonzero;stroke:none"
                 d="m 67.688,243.617 0,8.422 18.023,49.961 -16.828,0 0,9.023 27.64,0 0,-7.828 -18.027,-49.941 18.027,0 0,-9.637 -28.835,0 z m 64.886,0 -9.617,0 0,4.817 c -2.652,-4.993 -8.848,-6.875 -13.816,-4.219 -3.336,1.781 -5.407,5.258 -5.407,9.039 l 0,38.512 9.606,0 0,-34.309 c 0,-2.656 2.156,-4.816 4.808,-4.816 2.653,0 4.809,2.16 4.809,4.816 l 0,34.309 9.617,0 0,-48.149 z m 12.004,0 0,40.324 -4.808,0 0,7.825 4.808,0 0,7.226 c 0,6.645 5.379,12.031 12.024,12.031 l 4.793,0 0,-9.023 -4.196,0 c -1.66,0 -3.004,-1.344 -3.004,-3.008 l 0,-7.226 7.2,0 0,-7.825 -7.2,0 0,-40.324 -9.617,0 z m 50.461,0 -9.601,0 0,4.817 c -2.668,-4.993 -8.844,-6.875 -13.829,-4.219 -3.32,1.781 -5.406,5.258 -5.406,9.039 l 0,7.211 c 0,6.656 5.379,12.043 12.024,12.043 l 7.211,0 0,5.418 c 0,2.656 -2.157,4.816 -4.809,4.816 -2.652,0 -4.809,-2.16 -4.809,-4.816 l -9.617,0 c 0,7.972 6.457,14.437 14.426,14.437 7.957,0 14.41,-6.465 14.41,-14.437 l 0,-34.309 z m -9.601,21.067 -4.809,0 c -2.652,0 -4.809,-2.161 -4.809,-4.817 l 0,-2.41 c 0,-2.656 2.157,-4.816 4.809,-4.816 2.652,0 4.809,2.16 4.809,4.816 l 0,7.227 z m 19.218,-21.067 0,67.406 9.606,0 0,-24.074 c 2.664,4.992 8.843,6.875 13.828,4.219 3.32,-1.781 5.406,-5.258 5.406,-9.039 l 0,-38.512 -9.617,0 0,34.309 c 0,2.656 -2.16,4.816 -4.809,4.816 -2.652,0 -4.808,-2.16 -4.808,-4.816 l 0,-34.309 -9.606,0 z m 38.442,0 0,48.149 9.617,0 0,-5.43 c 3.074,3.809 7.723,6.027 12.617,6.027 l 0,-10.101 c -5.039,1.648 -10.477,-1.094 -12.137,-6.149 -0.32,-0.961 -0.48,-1.984 -0.48,-3.004 l 0,-29.492 -9.617,0 z m 47.457,0 -4.809,0 c -5.957,0 -10.812,4.848 -10.812,10.832 l 0,29.492 -4.793,0 0,7.825 4.793,0 0,14.437 9.617,0 0,-14.437 6.004,0 0,-7.825 -6.004,0 0,-28.293 c 0,-1.652 1.344,-3.007 3.004,-3.007 l 3,0 0,-9.024 z m 38.457,0 0,67.406 9.601,0 0,-24.074 c 2.664,4.992 8.844,6.875 13.828,4.219 3.321,-1.781 5.407,-5.258 5.407,-9.039 l 0,-28.875 c 0,-5.664 -4.575,-10.234 -10.215,-10.234 -3.774,0 -7.242,2.07 -9.02,5.414 l 0,-4.817 -9.601,0 z m 9.601,13.84 c 0,-2.656 2.157,-4.816 4.809,-4.816 2.652,0 4.808,2.16 4.808,4.816 l 0,20.469 c 0,2.656 -2.156,4.816 -4.808,4.816 -2.652,0 -4.809,-2.16 -4.809,-4.816 l 0,-20.469 z m 28.836,34.309 9.617,0 0,-48.149 -9.617,0 0,48.149 z m 0,19.257 9.617,0 0,-9.636 -9.617,0 0,9.636 z m 16.832,-53.566 9.004,0 c 0,-2.992 2.418,-5.418 5.406,-5.418 2.989,0 5.407,2.426 5.407,5.418 0,2.145 -1.254,4.09 -3.207,4.949 l -7.797,2.864 c -6.977,3.093 -10.125,11.269 -7.035,18.261 3.086,6.992 11.246,10.149 18.226,7.051 5,-2.219 8.219,-7.184 8.219,-12.656 l -9.004,0 c 0,2.656 -2.156,4.816 -4.809,4.816 -2.652,0 -4.808,-2.16 -4.808,-4.816 0,-1.914 1.121,-3.637 2.871,-4.41 l 7.781,-2.848 c 7.285,-3.238 10.563,-11.766 7.344,-19.066 -3.234,-7.286 -11.746,-10.582 -19.031,-7.356 -5.215,2.32 -8.567,7.504 -8.567,13.211" /><path
                 id="path13997"
                 style="fill:#000000;fill-opacity:1;fill-rule:nonzero;stroke:none"
                 d="m 54.469,214.723 10.215,0 0,-67.418 -10.215,0 0,67.418 z m 25.836,0 10.215,0 0,-67.418 -10.215,0 0,67.418 z m 25.832,0 10.215,0 0,-67.418 -10.215,0 0,67.418 z m 25.824,0 10.211,0 0,-67.418 -10.211,0 0,67.418 z m 25.832,0 10.215,0 0,-67.418 -10.215,0 0,67.418 z m 25.836,0 10.215,0 0,-67.418 -10.215,0 0,67.418 z m 25.836,0 10.215,0 0,-67.418 -10.215,0 0,67.418 z m 25.836,0 10.215,0 0,-67.418 -10.215,0 0,67.418 z m 25.82,0 10.215,0 0,-67.418 -10.215,0 0,67.418 z m 25.836,0 10.215,0 0,-67.418 -10.215,0 0,67.418 z m 25.832,0 10.215,0 0,-67.418 -10.215,0 0,67.418 z m 25.836,0 10.215,0 0,-67.418 -10.215,0 0,67.418 z m 25.82,0 10.215,0 0,-67.418 -10.215,0 0,67.418 z m 25.836,0 10.215,0 0,-67.418 -10.215,0 0,67.418 z m 25.836,0 10.215,0 0,-67.418 -10.215,0 0,67.418 z" /><path
                 id="path13999"
                 style="fill:#000000;fill-opacity:1;fill-rule:nonzero;stroke:none"
                 d="m 177.922,51.012 0,40.324 -4.809,0 0,7.824 4.809,0 0,7.227 c 0,6.644 5.375,12.031 12.019,12.031 l 7.2,0 0,-9.023 -6.602,0 c -1.66,0 -3,-1.344 -3,-3.008 l 0,-7.227 9.602,0 0,-7.824 -9.602,0 0,-40.324 -9.617,0 z m 30.031,0 0,48.148 9.617,0 0,-5.43 c 5.625,6.977 15.84,8.059 22.805,2.422 0.016,0 0.016,-0.015 0.027,-0.015 l -6.832,-8.438 c -3.965,3.535 -10.039,3.184 -13.566,-0.789 -1.574,-1.765 -2.434,-4.043 -2.434,-6.406 l 0,-29.492 -9.617,0 z m 76.895,20.468 -30.032,0 0,-1.21 c 0,-4.176 2.551,-7.942 6.426,-9.504 5.332,-2.133 11.438,-0.629 15.196,3.734 l 7.289,-6.277 c -6.426,-7.489 -16.907,-10.059 -26.055,-6.395 -7.535,3.024 -12.473,10.324 -12.473,18.442 l 0,9.632 c 0,10.965 8.887,19.856 19.832,19.856 10.942,0 19.817,-8.891 19.817,-19.856 l 0,-8.422 z m -30.032,8.422 20.43,0 c 0,5.653 -4.578,10.235 -10.215,10.235 -5.64,0 -10.215,-4.582 -10.215,-10.235 m 43.246,19.258 9.618,0 0,-48.148 -9.618,0 0,48.148 z m 0,19.258 9.618,0 0,-9.637 -9.618,0 0,9.637 z" /></g></g></g></g><path
         id="path14001"
         style="fill:#000000;fill-opacity:1;fill-rule:nonzero;stroke:none"
         d="M 32.184,360.8 C 14.445,360.8 0,346.355 0,328.605 L 0,32.191 C 0,14.448 14.445,-0.001 32.184,-0.001 l 416.418,0 c 17.75,0 32.199,14.449 32.199,32.192 l 0,296.414 c 0,17.75 -14.449,32.195 -32.199,32.195 l -416.418,0 z m 0,-0.398 416.418,0 c 17.535,0 31.796,-14.266 31.796,-31.797 l 0,-296.414 c 0,-17.524 -14.261,-31.789 -31.796,-31.789 l -416.418,0 c -17.52,0 -31.786,14.265 -31.786,31.789 l 0,296.414 c 0,17.531 14.266,31.797 31.786,31.797 z" /></g></g></svg>