<?xml version="1.0" encoding="UTF-8" standalone="no"?>
<svg
   xmlns:dc="http://purl.org/dc/elements/1.1/"
   xmlns:cc="http://creativecommons.org/ns#"
   xmlns:rdf="http://www.w3.org/1999/02/22-rdf-syntax-ns#"
   xmlns:svg="http://www.w3.org/2000/svg"
   xmlns="http://www.w3.org/2000/svg"
   viewBox="0 0 601 450.99997"
   height="450.99997"
   width="601"
   xml:space="preserve"
   version="1.1"
   id="svg14060"><metadata
     id="metadata14066"><rdf:RDF><cc:Work
         rdf:about=""><dc:format>image/svg+xml</dc:format><dc:type
           rdf:resource="http://purl.org/dc/dcmitype/StillImage" /><dc:title></dc:title></cc:Work></rdf:RDF></metadata><defs
     id="defs14064"><clipPath
       id="clipPath14082"
       clipPathUnits="userSpaceOnUse"><path
         id="path14084"
         d="m 55,50 370,0 0,262 -370,0 0,-262 z" /></clipPath></defs><g
     transform="matrix(1.25,0,0,-1.25,0,450.99998)"
     id="g14068"><g
       id="g14070"><path
         id="path14072"
         style="fill:#ffffff;fill-opacity:1;fill-rule:nonzero;stroke:none"
         d="m 32.184,360.402 c -17.52,0 -31.786,-14.266 -31.786,-31.797 l 0,-296.414 C 0.398,14.663 14.664,0.402 32.184,0.402 l 416.418,0 c 17.535,0 31.796,14.261 31.796,31.789 l 0,296.414 c 0,17.531 -14.261,31.797 -31.796,31.797 l -416.418,0 z" /><path
         id="path14074"
         style="fill:#000000;fill-opacity:1;fill-rule:nonzero;stroke:none"
         d="m 32.184,352.632 c -13.262,0 -24.016,-10.758 -24.016,-24.027 l 0,-296.414 C 8.168,18.925 18.922,8.163 32.184,8.163 l 416.418,0 c 13.265,0 24.027,10.762 24.027,24.028 l 0,296.414 c 0,13.269 -10.762,24.027 -24.027,24.027 l -416.418,0 z m 0,-12.02 416.418,0 c 6.636,0 12.015,-5.375 12.015,-12.007 l 0,-296.414 c 0,-6.641 -5.379,-12.008 -12.015,-12.008 l -416.418,0 c -6.622,0 -12.008,5.367 -12.008,12.008 l 0,296.414 c 0,6.632 5.386,12.007 12.008,12.007 z" /><g
         transform="translate(0,-0.200012)"
         id="g14076"><g
           id="g14078"><g
             clip-path="url(#clipPath14082)"
             id="g14080"><g
               id="g14086"><path
                 id="path14088"
                 style="fill:#000000;fill-opacity:1;fill-rule:nonzero;stroke:none"
                 d="m 128.059,243.613 0,67.414 43.257,0 0,-9.632 -33.05,0 0,-19.86 28.238,0 0,-9.039 -28.238,0 0,-28.883 -10.207,0 z" /><path
                 id="path14090"
                 style="fill:#000000;fill-opacity:1;fill-rule:nonzero;stroke:none"
                 d="m 216.973,243.613 -9.618,0 0,4.969 c -1.695,-3.066 -4.914,-4.969 -8.41,-4.969 l -6.004,0 c -7.961,0 -14.414,6.465 -14.414,14.442 0,7.976 6.453,14.441 14.414,14.441 l 14.414,0 0,4.824 c 0,2.629 -1.882,4.883 -4.464,5.332 -3.411,0.594 -6.875,0.594 -10.282,0 -1.699,-0.289 -3.148,-1.379 -3.918,-2.922 l -7.597,6.016 c 2.289,3.387 5.844,5.695 9.859,6.395 4.496,0.785 9.094,0.785 13.59,0 7.18,-1.266 12.43,-7.512 12.43,-14.821 l 0,-33.707 z m -9.618,21.067 -13.82,0 c -3.305,0 -6.004,-2.688 -6.004,-6.016 0,-3.328 2.699,-6.031 6.004,-6.031 l 7.817,0 c 3.32,0 6.003,2.703 6.003,6.031 l 0,6.016 z m -24.031,46.347 9.617,0 0,-9.632 -9.617,0 0,9.632 z m 19.231,0 9.617,0 0,-9.632 -9.617,0 0,9.632 z" /><path
                 id="path14092"
                 style="fill:#000000;fill-opacity:1;fill-rule:nonzero;stroke:none"
                 d="m 231.391,243.613 0,67.414 9.613,0 0,-24.699 c 5.625,6.973 15.836,8.063 22.812,2.426 3.813,-3.078 6.016,-7.731 6.016,-12.641 l 0,-32.5 -9.613,0 0,29.492 c 0,5.321 -4.293,9.633 -9.602,9.633 -5.305,0 -9.613,-4.312 -9.613,-9.633 l 0,-29.492 -9.613,0 z" /><path
                 id="path14094"
                 style="fill:#000000;fill-opacity:1;fill-rule:nonzero;stroke:none"
                 d="m 284.254,243.613 0,48.149 9.617,0 0,-5.434 c 5.625,6.973 15.836,8.063 22.809,2.426 l 0.015,-0.016 -6.828,-8.441 c -3.961,3.531 -10.035,3.183 -13.574,-0.797 -1.555,-1.758 -2.422,-4.039 -2.422,-6.395 l 0,-29.492 -9.617,0 z" /><path
                 id="path14096"
                 style="fill:#000000;fill-opacity:1;fill-rule:nonzero;stroke:none"
                 d="m 323.902,274.902 28.828,0 0,-9.633 -28.828,0 0,9.633 z" /><path
                 id="path14098"
                 style="fill:#000000;fill-opacity:1;fill-rule:nonzero;stroke:none"
                 d="m 55.965,147.312 0,67.415 9.617,0 0,-24.7 c 5.625,6.973 15.836,8.063 22.813,2.426 3.812,-3.078 6.015,-7.73 6.015,-12.641 l 0,-16.851 c 0,-8.981 -7.265,-16.246 -16.211,-16.246 -4.902,0 -9.543,2.207 -12.617,6.031 l 0,-5.434 -9.617,0 z m 9.617,18.653 c 0,-5.317 4.305,-9.633 9.613,-9.633 5.309,0 9.602,4.316 9.602,9.633 l 0,10.84 c 0,5.316 -4.293,9.633 -9.602,9.633 -5.308,0 -9.613,-4.317 -9.613,-9.633 l 0,-10.84 z" /><path
                 id="path14100"
                 style="fill:#000000;fill-opacity:1;fill-rule:nonzero;stroke:none"
                 d="m 146.078,167.777 -30.031,0 0,-1.207 c 0,-4.183 2.535,-7.949 6.41,-9.504 5.348,-2.136 11.453,-0.636 15.211,3.735 l 7.281,-6.278 c -6.426,-7.496 -16.894,-10.066 -26.062,-6.39 -7.528,3.008 -12.457,10.316 -12.457,18.437 l 0,9.633 c 0,10.969 8.875,19.859 19.824,19.859 10.949,0 19.824,-8.89 19.824,-19.859 l 0,-8.426 z m -30.031,8.426 20.418,0 c 0,5.652 -4.57,10.227 -10.211,10.227 -5.641,0 -10.207,-4.575 -10.207,-10.227" /><path
                 id="path14102"
                 style="fill:#000000;fill-opacity:1;fill-rule:nonzero;stroke:none"
                 d="m 159.297,147.312 0,48.149 9.613,0 0,-5.434 c 5.629,6.973 15.836,8.063 22.813,2.426 3.812,-3.078 6.019,-7.73 6.019,-12.641 l 0,-32.5 -9.617,0 0,29.493 c 0,5.316 -4.293,9.633 -9.598,9.633 -5.308,0 -9.617,-4.317 -9.617,-9.633 l 0,-29.493 -9.613,0 z" /><path
                 id="path14104"
                 style="fill:#000000;fill-opacity:1;fill-rule:nonzero;stroke:none"
                 d="m 249.41,147.312 -9.613,0 0,5.434 c -5.629,-6.976 -15.836,-8.066 -22.813,-2.426 -3.812,3.094 -6.019,7.727 -6.019,12.641 l 0,32.5 9.617,0 0,-29.496 c 0,-5.317 4.293,-9.633 9.598,-9.633 5.308,0 9.617,4.316 9.617,9.633 l 0,29.496 9.613,0 0,-48.149 z" /><path
                 id="path14106"
                 style="fill:#000000;fill-opacity:1;fill-rule:nonzero;stroke:none"
                 d="m 283.051,147.312 -6.004,0 c -5.973,0 -10.817,4.852 -10.817,10.836 l 0,29.481 -4.8,0 0,7.832 4.8,0 0,14.441 9.614,0 0,-14.441 7.207,0 0,-7.832 -7.207,0 0,-28.289 c 0,-1.656 1.351,-3.008 3.004,-3.008 l 4.203,0 0,-9.02 z" /><path
                 id="path14108"
                 style="fill:#000000;fill-opacity:1;fill-rule:nonzero;stroke:none"
                 d="m 293.867,147.312 0,7.817 24.031,31.906 -22.828,0 0,8.426 34.852,0 0,-7.223 -24.047,-31.906 24.047,0 0,-9.02 -36.055,0 z" /><path
                 id="path14110"
                 style="fill:#000000;fill-opacity:1;fill-rule:nonzero;stroke:none"
                 d="m 379.176,167.777 -30.031,0 0,-1.207 c 0,-4.183 2.535,-7.949 6.41,-9.504 5.347,-2.136 11.453,-0.636 15.195,3.735 l 7.297,-6.278 c -6.426,-7.496 -16.895,-10.066 -26.063,-6.39 -7.527,3.008 -12.457,10.316 -12.457,18.437 l 0,9.633 c 0,10.969 8.875,19.859 19.825,19.859 10.949,0 19.824,-8.89 19.824,-19.859 l 0,-8.426 z m -30.031,8.426 20.417,0 c 0,5.652 -4.57,10.227 -10.21,10.227 -5.641,0 -10.207,-4.575 -10.207,-10.227" /><path
                 id="path14112"
                 style="fill:#000000;fill-opacity:1;fill-rule:nonzero;stroke:none"
                 d="m 392.391,147.312 0,48.149 9.617,0 0,-5.434 c 5.625,6.973 15.836,8.063 22.812,2.426 l 0.012,-0.015 -6.828,-8.442 c -3.961,3.531 -10.035,3.184 -13.574,-0.797 -1.551,-1.758 -2.422,-4.039 -2.422,-6.394 l 0,-29.493 -9.617,0 z" /><path
                 id="path14114"
                 style="fill:#000000;fill-opacity:1;fill-rule:nonzero;stroke:none"
                 d="m 177.918,51.008 0,40.332 -4.801,0 0,7.816 4.801,0 0,7.223 c 0,6.652 5.379,12.043 12.008,12.043 l 7.222,0 0,-9.035 -6.613,0 c -1.668,0 -3.004,-1.34 -3.004,-3.008 l 0,-7.223 9.617,0 0,-7.816 -9.617,0 0,-40.332 -9.613,0 z" /><path
                 id="path14116"
                 style="fill:#000000;fill-opacity:1;fill-rule:nonzero;stroke:none"
                 d="m 207.953,51.008 0,48.148 9.617,0 0,-5.433 c 5.625,6.988 15.836,8.062 22.813,2.425 l 0.012,-0.011 -6.829,-8.446 c -3.961,3.532 -10.035,3.184 -13.574,-0.796 -1.551,-1.758 -2.422,-4.04 -2.422,-6.395 l 0,-29.492 -9.617,0 z" /><path
                 id="path14118"
                 style="fill:#000000;fill-opacity:1;fill-rule:nonzero;stroke:none"
                 d="m 284.852,71.473 -30.032,0 0,-1.203 c 0,-4.184 2.535,-7.95 6.407,-9.504 5.351,-2.137 11.457,-0.637 15.199,3.734 l 7.297,-6.277 C 277.297,50.727 266.828,48.156 257.66,51.832 250.133,54.84 245.203,62.148 245.203,70.27 l 0,9.632 c 0,10.969 8.875,19.86 19.824,19.86 10.95,0 19.825,-8.891 19.825,-19.86 l 0,-8.429 z m -30.032,8.429 20.418,0 c 0,5.653 -4.57,10.227 -10.211,10.227 -5.64,0 -10.207,-4.574 -10.207,-10.227" /><path
                 id="path14120"
                 style="fill:#000000;fill-opacity:1;fill-rule:nonzero;stroke:none"
                 d="m 298.074,99.16 9.614,0 0,-48.152 -9.614,0 0,48.152 z m 0,19.266 9.614,0 0,-9.633 -9.614,0 0,9.633 z" /></g></g></g></g><path
         id="path14122"
         style="fill:#000000;fill-opacity:1;fill-rule:nonzero;stroke:none"
         d="M 32.184,360.8 C 14.445,360.8 0,346.355 0,328.605 L 0,32.191 C 0,14.448 14.445,-0.001 32.184,-0.001 l 416.418,0 c 17.75,0 32.199,14.449 32.199,32.192 l 0,296.414 c 0,17.75 -14.449,32.195 -32.199,32.195 l -416.418,0 z m 0,-0.398 416.418,0 c 17.535,0 31.796,-14.266 31.796,-31.797 l 0,-296.414 c 0,-17.524 -14.261,-31.789 -31.796,-31.789 l -416.418,0 c -17.52,0 -31.786,14.265 -31.786,31.789 l 0,296.414 c 0,17.531 14.266,31.797 31.786,31.797 z" /></g></g></svg>