<?xml version="1.0" encoding="UTF-8" standalone="no"?>
<svg
   xmlns:dc="http://purl.org/dc/elements/1.1/"
   xmlns:cc="http://creativecommons.org/ns#"
   xmlns:rdf="http://www.w3.org/1999/02/22-rdf-syntax-ns#"
   xmlns:svg="http://www.w3.org/2000/svg"
   xmlns="http://www.w3.org/2000/svg"
   viewBox="0 0 421.00125 232.0025"
   height="232.0025"
   width="421.00125"
   xml:space="preserve"
   version="1.1"
   id="svg4564"><metadata
     id="metadata4570"><rdf:RDF><cc:Work
         rdf:about=""><dc:format>image/svg+xml</dc:format><dc:type
           rdf:resource="http://purl.org/dc/dcmitype/StillImage" /><dc:title></dc:title></cc:Work></rdf:RDF></metadata><defs
     id="defs4568" /><g
     transform="matrix(1.25,0,0,-1.25,0,232.00251)"
     id="g4572"><g
       id="g4574"><path
         id="path4576"
         style="fill:#ffffff;fill-opacity:1;fill-rule:nonzero;stroke:none"
         d="m 22.652,185.204 c -12.273,0 -22.254,-9.954 -22.254,-22.184 l 0,-140.445 c 0,-12.227 9.981,-22.172 22.254,-22.172 l 291.496,0 c 12.274,0 22.25,9.945 22.25,22.172 l 0,140.445 c 0,12.23 -9.976,22.184 -22.25,22.184 l -291.496,0 z" /><path
         id="path4578"
         style="fill:#000000;fill-opacity:1;fill-rule:nonzero;stroke:none"
         d="M 22.652,185.602 C 10.164,185.602 0,175.465 0,163.02 L 0,22.575 C 0,10.129 10.164,0 22.652,0 l 291.496,0 c 12.489,0 22.653,10.129 22.653,22.575 l 0,140.445 c 0,12.445 -10.164,22.582 -22.653,22.582 l -291.496,0 z m 0,-0.398 291.496,0 c 12.274,0 22.25,-9.954 22.25,-22.184 l 0,-140.445 c 0,-12.227 -9.976,-22.172 -22.25,-22.172 l -291.496,0 c -12.273,0 -22.254,9.945 -22.254,22.172 l 0,140.445 c 0,12.23 9.981,22.184 22.254,22.184 z" /><path
         id="path4580"
         style="fill:#000000;fill-opacity:1;fill-rule:nonzero;stroke:none"
         d="m 22.645,14.118 291.496,0 c 4.644,0 8.41,3.75 8.41,8.379 l 0,140.605 c 0,4.629 -3.766,8.379 -8.41,8.379 l -291.496,0 c -4.649,0 -8.411,-3.75 -8.411,-8.379 l 0,-140.605 c 0,-4.629 3.762,-8.379 8.411,-8.379 z m 0.398,-7.981 c -9.289,0 -16.816,7.5 -16.816,16.758 l 0,139.805 c 0,9.257 7.527,16.757 16.816,16.757 l 290.777,0 c 9.289,0 16.817,-7.5 16.817,-16.757 l 0,-139.805 c 0,-9.258 -7.528,-16.758 -16.817,-16.758" /><path
         id="path4582"
         style="fill:#000000;fill-opacity:1;fill-rule:evenodd;stroke:none"
         d="m 95.129,150.184 -51.711,-28.66 0.473,-57.926 51.238,-28.187 50.914,28.152 0.156,57.766 -51.07,28.855 z m -44.52,-39.387 88.012,0 0,-35.722 -88.012,0 0,35.722 z" /><path
         id="path4584"
         style="fill:#000000;fill-opacity:1;fill-rule:nonzero;stroke:none"
         d="m 184.18,64.379 0,34.414 -4.118,0 0,6.27 4.118,0 0,5.371 c 0,3.789 1.043,6.578 3.136,8.367 2.09,1.789 4.731,2.684 7.918,2.684 l 5.297,0 0,-7.68 -4.629,0 c -2.379,0 -3.566,-1.125 -3.566,-3.371 l 0,-5.371 8.195,0 0,-6.27 -8.195,0 0,-34.414 -8.156,0 z m 23.808,0 0,40.684 8.196,0 0,-4.352 0.156,0 c 2.535,3.215 6.062,4.821 10.586,4.821 2.98,0 5.816,-1.043 8.508,-3.133 l -5.918,-7.055 c -1.778,1.332 -3.582,1.996 -5.414,1.996 -2.012,0 -3.836,-0.672 -5.469,-2.015 -1.633,-1.348 -2.449,-3.508 -2.449,-6.489 l 0,-24.457 -8.196,0 z m 65.571,17.246 -25.332,0 c 0,-3.347 0.906,-5.855 2.722,-7.527 1.821,-1.672 4.137,-2.508 6.961,-2.508 3.375,0 6.352,1.305 8.942,3.918 l 5.921,-5.054 c -2.015,-2.352 -4.281,-4.032 -6.804,-5.036 -2.524,-1.007 -5.157,-1.511 -7.903,-1.511 -4.179,0 -8.234,1.355 -12.156,4.058 -3.918,2.703 -5.879,8.239 -5.879,16.598 0,7.918 1.809,13.394 5.43,16.426 3.621,3.031 7.406,4.543 11.351,4.543 4.473,0 8.379,-1.547 11.727,-4.645 3.344,-3.094 5.02,-7.269 5.02,-12.519 l 0,-6.743 z m -25.332,6.743 17.175,0 c -0.132,3.054 -0.996,5.394 -2.59,7.015 -1.593,1.617 -3.593,2.43 -6,2.43 -2.429,0 -4.449,-0.813 -6.058,-2.43 -1.606,-1.621 -2.449,-3.961 -2.527,-7.015 z m 37.023,-23.989 0,40.684 8.195,0 0,-40.684 -8.195,0 z m 0,48.914 0,8.192 8.195,0 0,-8.192 -8.195,0 z" /></g></g></svg>