<?xml version="1.0" encoding="UTF-8" standalone="no"?>
<!-- Created with Inkscape (http://www.inkscape.org/) -->

<svg
   xmlns:dc="http://purl.org/dc/elements/1.1/"
   xmlns:cc="http://creativecommons.org/ns#"
   xmlns:rdf="http://www.w3.org/1999/02/22-rdf-syntax-ns#"
   xmlns:svg="http://www.w3.org/2000/svg"
   xmlns="http://www.w3.org/2000/svg"
   xmlns:sodipodi="http://sodipodi.sourceforge.net/DTD/sodipodi-0.dtd"
   xmlns:inkscape="http://www.inkscape.org/namespaces/inkscape"
   width="159.18292mm"
   height="87.464973mm"
   viewBox="0 0 159.18292 87.464973"
   version="1.1"
   id="svg3940"
   inkscape:version="0.92.4 (33fec40, 2019-01-16)"
   sodipodi:docname="1040-10.svg">
  <defs
     id="defs3934" />
  <sodipodi:namedview
     id="base"
     pagecolor="#ffffff"
     bordercolor="#666666"
     borderopacity="1.0"
     inkscape:pageopacity="0.0"
     inkscape:pageshadow="2"
     inkscape:zoom="0.35"
     inkscape:cx="429.38956"
     inkscape:cy="208.14526"
     inkscape:document-units="mm"
     inkscape:current-layer="layer1"
     showgrid="false"
     fit-margin-top="0"
     fit-margin-left="0"
     fit-margin-right="0"
     fit-margin-bottom="0"
     inkscape:window-width="1366"
     inkscape:window-height="740"
     inkscape:window-x="1920"
     inkscape:window-y="0"
     inkscape:window-maximized="1" />
  <metadata
     id="metadata3937">
    <rdf:RDF>
      <cc:Work
         rdf:about="">
        <dc:format>image/svg+xml</dc:format>
        <dc:type
           rdf:resource="http://purl.org/dc/dcmitype/StillImage" />
        <dc:title></dc:title>
      </cc:Work>
    </rdf:RDF>
  </metadata>
  <g
     inkscape:label="Layer 1"
     inkscape:groupmode="layer"
     id="layer1"
     transform="translate(7.7759869,-116.44013)">
    <path
       d="m 2.8255366,116.57176 c -5.7735391,0 -10.4698933,4.68346 -10.4698933,10.43616 v 66.4134 c 0,5.75138 4.6963542,10.42954 10.4698933,10.42954 H 140.80806 c 5.77354,0 10.46692,-4.67816 10.46692,-10.42954 v -66.4134 c 0,-5.7527 -4.69338,-10.43616 -10.46692,-10.43616 z"
       style="fill:#ffffff;fill-opacity:1;fill-rule:nonzero;stroke:none;stroke-width:0.33072916"
       id="path3756"
       inkscape:connector-curvature="0" />
    <path
       d="M 2.8215679,197.40032 H 140.80409 c 2.18447,0 3.95585,-1.76477 3.95585,-3.94163 v -66.48946 c 0,-2.17686 -1.77138,-3.94163 -3.95585,-3.94163 H 2.8215679 c -2.18711201,0 -3.9571745,1.76477 -3.9571745,3.94163 v 66.48946 c 0,2.17686 1.77006249,3.94163 3.9571745,3.94163 z m 0.1871927,3.75444 c -4.3702552,0 -7.9103803,-3.52822 -7.9103803,-7.88459 v -66.1111 c 0,-4.35505 3.5401251,-7.88327 7.9103803,-7.88327 H 140.65295 c 4.37059,0 7.9117,3.52822 7.9117,7.88327 v 66.1111 c 0,4.35637 -3.54111,7.88459 -7.9117,7.88459"
       style="fill:#000000;fill-opacity:1;fill-rule:nonzero;stroke:none;stroke-width:0.33072916"
       id="path3758"
       inkscape:connector-curvature="0" />
    <path
       d="m 2.8255366,116.44013 c -5.8459688,0 -10.6015235,4.74266 -10.6015235,10.56779 v 66.33435 c 0,5.82414 4.7555547,10.56283 10.6015235,10.56283 H 140.80806 c 5.84465,0 10.59888,-4.73869 10.59888,-10.56283 v -66.33435 c 0,-5.82513 -4.75291,-10.56779 -10.59888,-10.56779 z m 0,0.13163 H 140.80806 c 5.77354,0 10.46692,4.68346 10.46692,10.43616 v 66.33435 c 0,5.75171 -4.69338,10.42988 -10.46692,10.42988 H 2.8255366 c -5.7735391,0 -10.4698933,-4.67817 -10.4698933,-10.42988 v -66.33435 c 0,-5.7527 4.6963542,-10.43616 10.4698933,-10.43616 z"
       style="fill:#000000;fill-opacity:1;fill-rule:nonzero;stroke:none;stroke-width:0.33072916"
       id="path3760"
       inkscape:connector-curvature="0" />
    <path
       d="m 106.38643,142.08322 14.06227,-5.12101 -1.24519,-3.41842 1.02427,-0.37736 1.24552,3.42239 2.39779,-0.87214 0.49609,1.36823 -2.39414,0.87345 1.24684,3.42206 -1.02956,0.37339 -1.24552,-3.42238 -13.65019,4.96887 c -0.24937,-0.44185 -0.5543,-0.85526 -0.90818,-1.21708 z m -9.181702,8.35488 -10.321066,-1.81769 4.319985,7.48275 c 0.702799,1.2194 0.28575,2.77746 -0.933979,3.48026 -0.514284,0.29964 -1.122495,0.40845 -1.716815,0.30361 l -13.628357,-2.40407 c -1.188641,-0.2067 -1.98206,-1.34111 -1.771386,-2.53239 0.210675,-1.18699 1.339784,-1.98041 2.532063,-1.77106 l 8.843367,1.56204 -1.502503,-2.60846 -2.962341,1.08016 -2.868083,-0.508 5.091245,-1.84977 -3.146888,-5.45207 c -1.405599,-2.43648 -0.572492,-5.55526 1.865312,-6.96317 1.038821,-0.59829 2.255904,-0.81525 3.436607,-0.6059 l 18.188781,3.2051 z m 40.961142,15.04421 -66.03339,24.03343 c -2.249289,0.81921 -4.744971,0.59035 -6.805745,-0.62277 l 3.154826,-1.14829 c 0.977966,0.15247 1.974122,0.0579 2.900495,-0.28178 L 108.91717,173.80213 94.945186,162.07811 c -1.082807,-0.9095 -1.357974,-2.46228 -0.652529,-3.68697 l 9.808103,-16.98228 c 2.61508,1.04775 3.88607,4.01274 2.84229,6.62881 -0.0903,0.22357 -0.19877,0.4445 -0.32147,0.65517 l -6.42871,11.13598 11.9294,10.01118 c 0.72496,0.60457 1.05436,1.56071 0.85526,2.48443 l 24.43923,-8.89496 z m -59.7287,-27.92578 c 0,3.02022 -2.444419,5.46464 -5.461,5.46464 -3.016581,0 -5.465961,-2.44442 -5.465961,-5.46464 0,-3.0179 2.44938,-5.46232 5.465961,-5.46232 3.016581,0 5.461,2.44442 5.461,5.46232"
       style="fill:#000000;fill-opacity:1;fill-rule:nonzero;stroke:none;stroke-width:0.33072916"
       id="path3762"
       inkscape:connector-curvature="0" />
  </g>
</svg>
