<?xml version="1.0" encoding="UTF-8" standalone="no"?>
<!-- Created with Inkscape (http://www.inkscape.org/) -->

<svg
   xmlns:dc="http://purl.org/dc/elements/1.1/"
   xmlns:cc="http://creativecommons.org/ns#"
   xmlns:rdf="http://www.w3.org/1999/02/22-rdf-syntax-ns#"
   xmlns:svg="http://www.w3.org/2000/svg"
   xmlns="http://www.w3.org/2000/svg"
   xmlns:sodipodi="http://sodipodi.sourceforge.net/DTD/sodipodi-0.dtd"
   xmlns:inkscape="http://www.inkscape.org/namespaces/inkscape"
   width="159.18292mm"
   height="87.464973mm"
   viewBox="0 0 159.18292 87.464973"
   version="1.1"
   id="svg4213"
   inkscape:version="0.92.4 (33fec40, 2019-01-16)"
   sodipodi:docname="1040-35.svg">
  <defs
     id="defs4207" />
  <sodipodi:namedview
     id="base"
     pagecolor="#ffffff"
     bordercolor="#666666"
     borderopacity="1.0"
     inkscape:pageopacity="0.0"
     inkscape:pageshadow="2"
     inkscape:zoom="0.7"
     inkscape:cx="339.48984"
     inkscape:cy="233.8337"
     inkscape:document-units="mm"
     inkscape:current-layer="layer1"
     showgrid="false"
     fit-margin-top="0"
     fit-margin-left="0"
     fit-margin-right="0"
     fit-margin-bottom="0"
     inkscape:window-width="1366"
     inkscape:window-height="740"
     inkscape:window-x="1920"
     inkscape:window-y="0"
     inkscape:window-maximized="1" />
  <metadata
     id="metadata4210">
    <rdf:RDF>
      <cc:Work
         rdf:about="">
        <dc:format>image/svg+xml</dc:format>
        <dc:type
           rdf:resource="http://purl.org/dc/dcmitype/StillImage" />
        <dc:title></dc:title>
      </cc:Work>
    </rdf:RDF>
  </metadata>
  <g
     inkscape:label="Layer 1"
     inkscape:groupmode="layer"
     id="layer1"
     transform="translate(-27.753775,-127.02347)">
    <path
       d="m 38.355299,127.1551 c -5.77354,0 -10.469894,4.68346 -10.469894,10.43616 v 66.4134 c 0,5.75138 4.696354,10.42954 10.469894,10.42954 H 176.33782 c 5.77354,0 10.46692,-4.67816 10.46692,-10.42954 v -66.4134 c 0,-5.7527 -4.69338,-10.43616 -10.46692,-10.43616 z"
       style="fill:#ffffff;fill-opacity:1;fill-rule:nonzero;stroke:none;stroke-width:0.33072916"
       id="path3986"
       inkscape:connector-curvature="0" />
    <path
       d="m 38.35133,207.98366 h 137.98252 c 2.18447,0 3.95586,-1.76477 3.95586,-3.94163 v -66.48946 c 0,-2.17686 -1.77139,-3.94163 -3.95586,-3.94163 H 38.35133 c -2.187112,0 -3.957175,1.76477 -3.957175,3.94163 v 66.48946 c 0,2.17686 1.770063,3.94163 3.957175,3.94163 z m 0.187193,3.75444 c -4.370256,0 -7.910381,-3.52822 -7.910381,-7.88459 v -66.1111 c 0,-4.35505 3.540125,-7.88327 7.910381,-7.88327 H 176.18271 c 4.37059,0 7.9117,3.52822 7.9117,7.88327 v 66.1111 c 0,4.35637 -3.54111,7.88459 -7.9117,7.88459"
       style="fill:#000000;fill-opacity:1;fill-rule:nonzero;stroke:none;stroke-width:0.33072916"
       id="path3988"
       inkscape:connector-curvature="0" />
    <path
       d="m 38.355299,127.02347 c -5.845969,0 -10.601524,4.74266 -10.601524,10.56779 v 66.33435 c 0,5.82414 4.755555,10.56283 10.601524,10.56283 H 176.33782 c 5.84465,0 10.59888,-4.73869 10.59888,-10.56283 v -66.33435 c 0,-5.82513 -4.75291,-10.56779 -10.59888,-10.56779 z m 0,0.13163 H 176.33782 c 5.77354,0 10.46692,4.68346 10.46692,10.43616 v 66.33435 c 0,5.75171 -4.69338,10.42988 -10.46692,10.42988 H 38.355299 c -5.77354,0 -10.469894,-4.67817 -10.469894,-10.42988 v -66.33435 c 0,-5.7527 4.696354,-10.43616 10.469894,-10.43616 z"
       style="fill:#000000;fill-opacity:1;fill-rule:nonzero;stroke:none;stroke-width:0.33072916"
       id="path3990"
       inkscape:connector-curvature="0" />
    <path
       d="m 56.447176,194.55804 h 8.402506 v -2.81881 h -5.583701 v -16.85958 h -2.818805 z"
       style="fill:#000000;fill-opacity:1;fill-rule:nonzero;stroke:none;stroke-width:0.33072916"
       id="path4002"
       inkscape:connector-curvature="0" />
    <path
       d="m 71.871393,194.55804 h 2.818804 v -9.75651 c 0,-2.92993 -1.878541,-4.42218 -4.228372,-4.42218 -1.271323,0 -2.321719,0.44318 -3.067182,1.18864 -0.746456,0.74679 -1.18831,1.79685 -1.270993,3.03973 h 2.7348 c 0.166687,-0.91215 0.885031,-1.40924 1.603375,-1.40924 1.050396,0 1.409568,0.71934 1.409568,1.65861 v 1.46513 c -0.580099,-0.0284 -0.966391,-0.0827 -1.354006,-0.0827 -3.537479,0 -4.449299,1.54781 -4.449299,4.75291 0,3.09529 1.741289,3.73095 3.039732,3.73095 1.354005,0 1.962547,-0.5801 2.70801,-1.60304 h 0.05556 z m 0,-4.11857 c 0,1.13308 -0.580099,1.79718 -1.51937,1.79718 -0.912151,0 -1.46513,-0.71834 -1.46513,-1.79718 0,-1.49225 0.994833,-1.98967 2.210593,-1.98967 0.24937,0 0.470297,0.0274 0.773907,0.0827 z m -4.864034,-12.07691 h 2.486752 v -2.8188 h -2.486752 z m 4.477742,0 h 2.486753 v -2.8188 h -2.486753 z"
       style="fill:#000000;fill-opacity:1;fill-rule:nonzero;stroke:none;stroke-width:0.33072916"
       id="path4004"
       inkscape:connector-curvature="0" />
    <path
       d="m 77.323132,194.55804 h 2.818805 v -8.3185 c 0,-2.2946 1.686057,-3.04106 2.874698,-3.04106 0.303609,0 0.580099,0.0556 0.856588,0.16636 v -2.98549 c -1.630494,0 -2.571088,0.63566 -3.731286,1.65894 v -1.49225 h -2.818805 z"
       style="fill:#000000;fill-opacity:1;fill-rule:nonzero;stroke:none;stroke-width:0.33072916"
       id="path4006"
       inkscape:connector-curvature="0" />
    <path
       d="m 86.046114,194.55804 h 2.818805 v -9.42446 c 0,-1.2442 0.359172,-1.9351 1.409568,-1.9351 0.885031,0 1.382447,0.63533 1.382447,1.65861 v 9.70095 h 2.818805 v -9.42446 c 0,-1.2442 0.359172,-1.9351 1.409568,-1.9351 0.885031,0 1.382448,0.63533 1.382448,1.65861 v 9.70095 h 2.818805 v -10.75135 c 0,-2.51519 -1.658938,-3.42734 -3.068175,-3.42734 -1.49225,0 -2.239036,0.63566 -2.93026,1.40957 -0.497417,-0.6899 -1.298112,-1.40957 -2.513873,-1.40957 -1.299765,0 -2.073672,0.63566 -2.653771,1.52069 h -0.05556 v -1.354 h -2.818805 z"
       style="fill:#000000;fill-opacity:1;fill-rule:nonzero;stroke:none;stroke-width:0.33072916"
       id="path4008"
       inkscape:connector-curvature="0" />
    <path
       d="m 110.16851,184.46948 c -0.0284,-2.32139 -1.68573,-4.09013 -3.98033,-4.09013 -2.26582,0 -4.14569,1.7145 -4.14569,4.09013 0,1.87986 1.07884,3.20675 2.84725,3.86953 l 1.354,0.49708 c 1.07752,0.41474 1.40957,0.9406 1.40957,1.7145 0,0.93927 -0.7739,1.51937 -1.57493,1.51937 -1.0504,0 -1.40957,-0.80102 -1.52036,-1.57493 h -2.65377 c 0.11112,2.76357 1.99099,4.22837 4.20125,4.22837 2.43152,0 4.20125,-1.90665 4.20125,-4.22837 0,-1.65894 -0.66377,-3.15086 -2.76456,-3.95188 l -1.65762,-0.66411 c -1.05039,-0.41341 -1.18831,-0.91215 -1.18831,-1.43668 0,-0.71835 0.49709,-1.40924 1.38212,-1.40924 0.74546,0 1.40957,0.49709 1.43669,1.43636 z"
       style="fill:#000000;fill-opacity:1;fill-rule:nonzero;stroke:none;stroke-width:0.33072916"
       id="path4010"
       inkscape:connector-curvature="0" />
    <path
       d="m 114.57415,184.80153 c 0,-1.0504 0.52454,-1.60305 1.38212,-1.60305 0.85659,0 1.38112,0.52553 1.38112,1.65861 h 2.81914 c 0,-2.59788 -1.60205,-4.47774 -4.20026,-4.47774 -1.71417,0 -3.01261,0.80235 -3.67672,2.01811 -0.38629,0.71834 -0.52453,1.71284 -0.52453,2.84592 v 4.61599 c 0,1.13308 0.13824,2.12791 0.52453,2.84625 0.66411,1.21676 1.96255,2.01778 3.67672,2.01778 1.29844,0 2.32172,-0.47029 3.06718,-1.24387 0.71834,-0.74546 1.13308,-1.82298 1.13308,-2.9845 h -2.81914 c -0.0556,0.60854 -0.30361,1.40957 -1.38112,1.40957 -0.85758,0 -1.38212,-0.49742 -1.38212,-1.38245 z"
       style="fill:#000000;fill-opacity:1;fill-rule:nonzero;stroke:none;stroke-width:0.33072916"
       id="path4012"
       inkscape:connector-curvature="0" />
    <path
       d="m 122.13693,194.55804 h 2.81881 v -9.42446 c 0,-1.2442 0.35917,-1.9351 1.40957,-1.9351 0.88371,0 1.38112,0.63533 1.38112,1.65861 v 9.70095 h 2.81881 v -10.75135 c 0,-2.51519 -1.49192,-3.42734 -2.90149,-3.42734 -1.29844,0 -2.07235,0.63566 -2.65245,1.52069 h -0.0556 v -7.02039 h -2.81881 z"
       style="fill:#000000;fill-opacity:1;fill-rule:nonzero;stroke:none;stroke-width:0.33072916"
       id="path4014"
       inkscape:connector-curvature="0" />
    <path
       d="m 141.41348,180.54604 h -2.8188 v 9.42445 c 0,1.24288 -0.35917,1.93411 -1.40957,1.93411 -0.88503,0 -1.38245,-0.63566 -1.38245,-1.65762 v -9.70094 h -2.8188 v 10.75002 c 0,2.51519 1.49225,3.42734 2.90281,3.42734 1.29844,0 2.07235,-0.63566 2.65245,-1.51937 h 0.0556 v 1.35401 h 2.8188 z"
       style="fill:#000000;fill-opacity:1;fill-rule:nonzero;stroke:none;stroke-width:0.33072916"
       id="path4016"
       inkscape:connector-curvature="0" />
    <path
       d="m 144.5994,180.54604 h -1.40957 v 2.21059 h 1.40957 v 8.51231 c 0,1.49225 0.85659,3.2891 3.3989,3.2891 h 1.16152 v -2.65344 c -1.2442,0 -1.74162,-0.0827 -1.74162,-1.38245 v -7.76552 h 1.74162 v -2.21059 h -1.74162 v -4.25682 h -2.8188 z"
       style="fill:#000000;fill-opacity:1;fill-rule:nonzero;stroke:none;stroke-width:0.33072916"
       id="path4018"
       inkscape:connector-curvature="0" />
    <path
       d="m 150.47613,194.55804 h 7.76717 v -2.65344 h -4.56042 l 4.56042,-9.12085 v -2.23771 h -7.408 v 2.48708 h 4.20125 l -4.56042,9.28621 z"
       style="fill:#000000;fill-opacity:1;fill-rule:nonzero;stroke:none;stroke-width:0.33072916"
       id="path4020"
       inkscape:connector-curvature="0" />
  </g>
</svg>
