<?xml version="1.0" encoding="UTF-8" standalone="no"?>
<svg
   xmlns:dc="http://purl.org/dc/elements/1.1/"
   xmlns:cc="http://creativecommons.org/ns#"
   xmlns:rdf="http://www.w3.org/1999/02/22-rdf-syntax-ns#"
   xmlns:svg="http://www.w3.org/2000/svg"
   xmlns="http://www.w3.org/2000/svg"
   viewBox="0 0 601.63623 330.57626"
   height="330.57626"
   width="601.63623"
   xml:space="preserve"
   version="1.1"
   id="svg3482"><metadata
     id="metadata3488"><rdf:RDF><cc:Work
         rdf:about=""><dc:format>image/svg+xml</dc:format><dc:type
           rdf:resource="http://purl.org/dc/dcmitype/StillImage" /><dc:title></dc:title></cc:Work></rdf:RDF></metadata><defs
     id="defs3486" /><g
     transform="matrix(1.25,0,0,-1.25,0,330.57625)"
     id="g3490"><g
       id="g3492"><path
         id="path3494"
         style="fill:#ffffff;fill-opacity:1;fill-rule:nonzero;stroke:none"
         d="m 32.055,264.063 c -17.457,0 -31.657,-14.161 -31.657,-31.555 l 0,-200.809 c 0,-17.39 14.2,-31.535 31.657,-31.535 l 417.207,0 c 17.457,0 31.648,14.145 31.648,31.535 l 0,200.809 c 0,17.394 -14.191,31.555 -31.648,31.555 l -417.207,0 z" /><path
         id="path3496"
         style="fill:#000000;fill-opacity:1;fill-rule:nonzero;stroke:none"
         d="m 32.043,19.668 417.207,0 c 6.605,0 11.961,5.336 11.961,11.918 l 0,201.039 c 0,6.582 -5.356,11.918 -11.961,11.918 l -417.207,0 c -6.613,0 -11.965,-5.336 -11.965,-11.918 l 0,-201.039 c 0,-6.582 5.352,-11.918 11.965,-11.918 z M 32.609,8.316 c -13.214,0 -23.918,10.668 -23.918,23.84 l 0,199.895 c 0,13.168 10.704,23.836 23.918,23.836 l 416.184,0 c 13.215,0 23.922,-10.668 23.922,-23.836 l 0,-199.895 c 0,-13.172 -10.707,-23.84 -23.922,-23.84" /><path
         id="path3498"
         style="fill:#000000;fill-opacity:1;fill-rule:nonzero;stroke:none"
         d="M 32.055,264.461 C 14.379,264.461 0,250.121 0,232.508 L 0,31.938 C 0,14.328 14.379,0 32.055,0 l 417.207,0 c 17.672,0 32.047,14.328 32.047,31.938 l 0,200.57 c 0,17.613 -14.371,31.953 -32.047,31.953 l -417.207,0 z m 0,-0.398 417.207,0 c 17.457,0 31.648,-14.161 31.648,-31.555 l 0,-200.57 c 0,-17.391 -14.191,-31.536 -31.648,-31.536 l -417.207,0 C 14.598,0.402 0.398,14.547 0.398,31.938 l 0,200.57 c 0,17.394 14.2,31.555 31.657,31.555 z" /><path
         id="path3500"
         style="fill:#000000;fill-opacity:1;fill-rule:nonzero;stroke:none"
         d="m 223.965,151.629 -0.188,0 c -1.011,-1.645 -2.433,-2.875 -4.261,-3.695 -1.77,-0.758 -4.293,-1.137 -7.578,-1.137 -2.653,0 -5.051,0.379 -7.2,1.137 -2.082,0.757 -3.851,1.769 -5.3,3.031 -1.454,1.324 -2.559,2.871 -3.317,4.641 -0.758,1.832 -1.137,3.789 -1.137,5.871 0,1.894 0.317,3.695 0.95,5.398 0.691,1.77 1.671,3.281 2.933,4.547 1.328,1.324 2.969,2.367 4.926,3.125 1.957,0.758 4.23,1.137 6.82,1.137 l 13.352,0 0,5.019 c 0,2.274 -0.789,3.852 -2.367,4.735 -1.516,0.945 -4.008,1.421 -7.481,1.421 -2.527,0 -4.453,-0.285 -5.777,-0.851 -1.328,-0.508 -2.434,-1.453 -3.317,-2.844 l -7.574,5.777 c 1.828,2.59 4.071,4.387 6.723,5.399 2.715,1.074 5.871,1.609 9.469,1.609 2.968,0 5.683,-0.281 8.148,-0.851 2.461,-0.504 4.543,-1.391 6.25,-2.653 1.766,-1.199 3.125,-2.808 4.07,-4.828 1.012,-2.023 1.516,-4.515 1.516,-7.484 l 0,-32.77 -9.66,0 0,4.266 z m 0,16.098 -11.555,0 c -2.84,0 -4.957,-0.536 -6.344,-1.61 -1.328,-1.011 -1.988,-2.398 -1.988,-4.168 0,-1.64 0.692,-3.062 2.082,-4.261 1.391,-1.2 3.727,-1.797 7.008,-1.797 2.02,0 3.695,0.062 5.02,0.187 1.39,0.192 2.496,0.57 3.316,1.137 0.883,0.566 1.516,1.391 1.894,2.461 0.379,1.137 0.567,2.652 0.567,4.547 l 0,3.504 z" /><path
         id="path3502"
         style="fill:#000000;fill-opacity:1;fill-rule:nonzero;stroke:none"
         d="m 247.965,214.797 9.66,0 0,-24.527 c 1.832,1.703 3.727,3.058 5.684,4.07 2.019,1.074 4.261,1.609 6.726,1.609 2.965,0 5.492,-0.597 7.574,-1.797 2.149,-1.136 3.914,-2.621 5.305,-4.453 0.633,-0.883 1.168,-1.769 1.609,-2.652 0.442,-0.883 0.789,-2.02 1.043,-3.41 0.317,-1.324 0.504,-2.965 0.567,-4.922 0.129,-1.957 0.191,-4.391 0.191,-7.293 0,-2.969 -0.062,-5.43 -0.191,-7.387 -0.063,-1.957 -0.25,-3.633 -0.567,-5.019 -0.254,-1.328 -0.601,-2.465 -1.043,-3.41 -0.441,-0.883 -0.976,-1.739 -1.609,-2.559 -1.391,-1.832 -3.156,-3.344 -5.305,-4.547 -2.082,-1.137 -4.609,-1.703 -7.574,-1.703 -2.465,0 -4.769,0.504 -6.914,1.516 -2.148,1.074 -3.98,2.429 -5.496,4.07 l 0,-5.02 -9.66,0 0,67.434 z m 19.133,-28.508 c -2.274,0 -4.043,-0.473 -5.305,-1.418 -1.262,-0.887 -2.211,-2.055 -2.84,-3.508 -0.57,-1.386 -0.949,-2.965 -1.137,-4.734 -0.125,-1.766 -0.191,-3.504 -0.191,-5.207 0,-1.77 0.066,-3.535 0.191,-5.305 0.188,-1.769 0.567,-3.379 1.137,-4.828 0.629,-1.391 1.578,-2.558 2.84,-3.508 1.262,-0.883 3.031,-1.324 5.305,-1.324 2.273,0 4.039,0.41 5.304,1.231 1.325,0.882 2.274,2.019 2.84,3.41 0.633,1.453 1.012,3.062 1.137,4.832 0.187,1.765 0.285,3.597 0.285,5.492 0,1.828 -0.098,3.629 -0.285,5.398 -0.125,1.828 -0.504,3.442 -1.137,4.828 -0.566,1.391 -1.515,2.497 -2.84,3.317 -1.265,0.883 -3.031,1.324 -5.304,1.324 z" /><path
         id="path3504"
         style="fill:#000000;fill-opacity:1;fill-rule:nonzero;stroke:none"
         d="m 79.676,101.754 c 0,-1.563 0.25,-2.941 0.75,-4.133 0.562,-1.187 1.285,-2.191 2.16,-3.004 0.937,-0.812 1.973,-1.441 3.098,-1.879 1.128,-0.375 2.32,-0.562 3.57,-0.562 1.191,0 2.348,0.187 3.476,0.562 1.188,0.438 2.223,1.067 3.098,1.879 0.942,0.813 1.66,1.817 2.16,3.004 0.563,1.192 0.848,2.57 0.848,4.133 0,1.566 -0.285,2.945 -0.848,4.133 -0.5,1.191 -1.218,2.191 -2.16,3.008 -0.875,0.812 -1.91,1.406 -3.098,1.781 -1.128,0.441 -2.285,0.66 -3.476,0.66 -1.25,0 -2.442,-0.219 -3.57,-0.66 -1.125,-0.375 -2.161,-0.969 -3.098,-1.781 -0.875,-0.817 -1.598,-1.817 -2.16,-3.008 -0.5,-1.188 -0.75,-2.567 -0.75,-4.133 z M 68.875,73.016 c 0,3.191 0.656,6.074 1.969,8.64 1.379,2.567 3.351,4.696 5.918,6.387 -2.004,1.816 -3.629,3.789 -4.883,5.918 -1.191,2.129 -1.785,4.664 -1.785,7.605 0,2.692 0.468,5.2 1.41,7.516 1,2.379 2.348,4.445 4.039,6.199 1.75,1.75 3.785,3.129 6.105,4.133 2.379,1 4.914,1.5 7.606,1.5 2.691,0 5.199,-0.5 7.516,-1.5 2.378,-1.004 4.414,-2.383 6.105,-4.133 1.75,-1.754 3.098,-3.82 4.035,-6.199 1.004,-2.316 1.504,-4.824 1.504,-7.516 0,-2.941 -0.625,-5.476 -1.879,-7.605 -1.187,-2.129 -2.785,-4.102 -4.789,-5.918 2.566,-1.691 4.508,-3.82 5.824,-6.387 1.375,-2.566 2.067,-5.449 2.067,-8.64 0,-2.946 -0.567,-5.668 -1.692,-8.172 -1.066,-2.442 -2.535,-4.571 -4.414,-6.387 -1.816,-1.754 -3.976,-3.133 -6.48,-4.133 -2.442,-0.937 -5.043,-1.41 -7.797,-1.41 -2.754,0 -5.383,0.473 -7.891,1.41 -2.441,1 -4.601,2.379 -6.48,4.133 -1.817,1.816 -3.285,3.945 -4.414,6.387 -1.063,2.504 -1.594,5.226 -1.594,8.172 z m 9.578,0.093 c 0,-1.503 0.281,-2.914 0.844,-4.226 0.629,-1.317 1.41,-2.442 2.351,-3.383 1,-0.937 2.161,-1.691 3.473,-2.254 1.317,-0.5 2.691,-0.75 4.133,-0.75 1.441,0 2.816,0.25 4.133,0.75 1.316,0.563 2.441,1.317 3.383,2.254 1,0.941 1.781,2.066 2.347,3.383 0.625,1.312 0.938,2.723 0.938,4.226 0,1.504 -0.313,2.911 -0.938,4.227 -0.566,1.312 -1.347,2.441 -2.347,3.379 -0.942,0.941 -2.067,1.66 -3.383,2.16 -1.317,0.566 -2.692,0.848 -4.133,0.848 -1.442,0 -2.816,-0.282 -4.133,-0.848 -1.312,-0.5 -2.473,-1.219 -3.473,-2.16 -0.941,-0.938 -1.722,-2.067 -2.351,-3.379 -0.563,-1.316 -0.844,-2.723 -0.844,-4.227 z" /><path
         id="path3506"
         style="fill:#000000;fill-opacity:1;fill-rule:nonzero;stroke:none"
         d="m 123.223,63.059 9.582,0 0,-9.578 -9.582,0 0,9.578 z" /><path
         id="path3508"
         style="fill:#000000;fill-opacity:1;fill-rule:nonzero;stroke:none"
         d="m 152.625,110.207 -9.488,-6.949 0,10.144 9.488,6.95 9.578,0 0,-66.871 -9.578,0 0,56.726 z" /><path
         id="path3510"
         style="fill:#000000;fill-opacity:1;fill-rule:nonzero;stroke:none"
         d="m 186.395,110.207 -9.485,-6.949 0,10.144 9.485,6.95 9.582,0 0,-66.871 -9.582,0 0,56.726 z" /><path
         id="path3512"
         style="fill:#000000;fill-opacity:1;fill-rule:nonzero;stroke:none"
         d="m 213.277,63.059 9.582,0 0,-9.578 -9.582,0 0,9.578 z" /><path
         id="path3514"
         style="fill:#000000;fill-opacity:1;fill-rule:nonzero;stroke:none"
         d="m 306.109,110.207 -9.488,-6.949 0,10.144 9.488,6.95 9.579,0 0,-66.871 -9.579,0 0,56.726 z" /><path
         id="path3516"
         style="fill:#000000;fill-opacity:1;fill-rule:nonzero;stroke:none"
         d="m 341.125,101.754 c 0,-1.563 0.25,-2.941 0.75,-4.133 0.563,-1.187 1.281,-2.191 2.16,-3.004 0.938,-0.812 1.973,-1.441 3.098,-1.879 1.129,-0.375 2.316,-0.562 3.57,-0.562 1.192,0 2.348,0.187 3.477,0.562 1.187,0.438 2.222,1.067 3.097,1.879 0.942,0.813 1.661,1.817 2.161,3.004 0.562,1.192 0.847,2.57 0.847,4.133 0,1.566 -0.285,2.945 -0.847,4.133 -0.5,1.191 -1.219,2.191 -2.161,3.008 -0.875,0.812 -1.91,1.406 -3.097,1.781 -1.129,0.441 -2.285,0.66 -3.477,0.66 -1.254,0 -2.441,-0.219 -3.57,-0.66 -1.125,-0.375 -2.16,-0.969 -3.098,-1.781 -0.879,-0.817 -1.597,-1.817 -2.16,-3.008 -0.5,-1.188 -0.75,-2.567 -0.75,-4.133 z M 330.32,73.016 c 0,3.191 0.66,6.074 1.973,8.64 1.379,2.567 3.352,4.696 5.918,6.387 -2.004,1.816 -3.633,3.789 -4.883,5.918 -1.191,2.129 -1.785,4.664 -1.785,7.605 0,2.692 0.469,5.2 1.41,7.516 1,2.379 2.348,4.445 4.039,6.199 1.75,1.75 3.785,3.129 6.102,4.133 2.383,1 4.918,1.5 7.609,1.5 2.692,0 5.195,-0.5 7.516,-1.5 2.379,-1.004 4.414,-2.383 6.101,-4.133 1.754,-1.754 3.102,-3.82 4.039,-6.199 1.004,-2.316 1.504,-4.824 1.504,-7.516 0,-2.941 -0.625,-5.476 -1.879,-7.605 -1.187,-2.129 -2.785,-4.102 -4.789,-5.918 2.567,-1.691 4.508,-3.82 5.825,-6.387 1.375,-2.566 2.066,-5.449 2.066,-8.64 0,-2.946 -0.566,-5.668 -1.691,-8.172 -1.067,-2.442 -2.536,-4.571 -4.415,-6.387 -1.816,-1.754 -3.976,-3.133 -6.48,-4.133 -2.441,-0.937 -5.043,-1.41 -7.797,-1.41 -2.754,0 -5.383,0.473 -7.891,1.41 -2.441,1 -4.601,2.379 -6.48,4.133 -1.816,1.816 -3.285,3.945 -4.414,6.387 -1.063,2.504 -1.598,5.226 -1.598,8.172 z m 9.582,0.093 c 0,-1.503 0.282,-2.914 0.844,-4.226 0.629,-1.317 1.41,-2.442 2.348,-3.383 1.004,-0.937 2.16,-1.691 3.476,-2.254 1.317,-0.5 2.692,-0.75 4.133,-0.75 1.442,0 2.817,0.25 4.133,0.75 1.316,0.563 2.441,1.317 3.383,2.254 1,0.941 1.781,2.066 2.347,3.383 0.625,1.312 0.938,2.723 0.938,4.226 0,1.504 -0.313,2.911 -0.938,4.227 -0.566,1.312 -1.347,2.441 -2.347,3.379 -0.942,0.941 -2.067,1.66 -3.383,2.16 -1.316,0.566 -2.691,0.848 -4.133,0.848 -1.441,0 -2.816,-0.282 -4.133,-0.848 -1.316,-0.5 -2.472,-1.219 -3.476,-2.16 -0.938,-0.938 -1.719,-2.067 -2.348,-3.379 -0.562,-1.316 -0.844,-2.723 -0.844,-4.227 z" /><path
         id="path3518"
         style="fill:#000000;fill-opacity:1;fill-rule:nonzero;stroke:none"
         d="m 383.305,52.914 0,68 9.742,0 0,-24.258 0.191,0 c 1.02,1.528 2.227,2.77 3.629,3.727 1.465,1.015 3.313,1.527 5.539,1.527 l 0.766,0 c 2.293,-0.191 4.39,-1.179 6.301,-2.961 1.976,-1.781 2.961,-4.742 2.961,-8.883 l 0,-37.152 -9.743,0 0,33.524 c 0,1.781 -0.41,3.183 -1.238,4.203 -0.828,1.019 -2.008,1.527 -3.535,1.527 -1.781,0 -3.055,-0.574 -3.82,-1.719 -0.7,-1.144 -1.051,-2.801 -1.051,-4.965 l 0,-32.57 -9.742,0 z" /></g></g></svg>