<?xml version="1.0" encoding="UTF-8" standalone="no"?>
<!-- Created with Inkscape (http://www.inkscape.org/) -->

<svg
   xmlns:dc="http://purl.org/dc/elements/1.1/"
   xmlns:cc="http://creativecommons.org/ns#"
   xmlns:rdf="http://www.w3.org/1999/02/22-rdf-syntax-ns#"
   xmlns:svg="http://www.w3.org/2000/svg"
   xmlns="http://www.w3.org/2000/svg"
   xmlns:sodipodi="http://sodipodi.sourceforge.net/DTD/sodipodi-0.dtd"
   xmlns:inkscape="http://www.inkscape.org/namespaces/inkscape"
   width="159.18292mm"
   height="87.464973mm"
   viewBox="0 0 159.18292 87.464973"
   version="1.1"
   id="svg4139"
   inkscape:version="0.92.4 (33fec40, 2019-01-16)"
   sodipodi:docname="1040-32.svg">
  <defs
     id="defs4133" />
  <sodipodi:namedview
     id="base"
     pagecolor="#ffffff"
     bordercolor="#666666"
     borderopacity="1.0"
     inkscape:pageopacity="0.0"
     inkscape:pageshadow="2"
     inkscape:zoom="0.7"
     inkscape:cx="475.08941"
     inkscape:cy="201.23608"
     inkscape:document-units="mm"
     inkscape:current-layer="layer1"
     showgrid="false"
     fit-margin-top="0"
     fit-margin-left="0"
     fit-margin-right="0"
     fit-margin-bottom="0"
     inkscape:window-width="1366"
     inkscape:window-height="740"
     inkscape:window-x="1920"
     inkscape:window-y="0"
     inkscape:window-maximized="1" />
  <metadata
     id="metadata4136">
    <rdf:RDF>
      <cc:Work
         rdf:about="">
        <dc:format>image/svg+xml</dc:format>
        <dc:type
           rdf:resource="http://purl.org/dc/dcmitype/StillImage" />
        <dc:title></dc:title>
      </cc:Work>
    </rdf:RDF>
  </metadata>
  <g
     inkscape:label="Layer 1"
     inkscape:groupmode="layer"
     id="layer1"
     transform="translate(50.865273,-140.63061)">
    <path
       d="m -40.263749,140.76224 c -5.77354,0 -10.469894,4.68346 -10.469894,10.43616 v 66.4134 c 0,5.75138 4.696354,10.42954 10.469894,10.42954 H 97.718775 c 5.773535,0 10.466915,-4.67816 10.466915,-10.42954 v -66.4134 c 0,-5.7527 -4.69338,-10.43616 -10.466915,-10.43616 z"
       style="fill:#ffffff;fill-opacity:1;fill-rule:nonzero;stroke:none;stroke-width:0.33072916"
       id="path3432"
       inkscape:connector-curvature="0" />
    <path
       d="M -40.267718,221.5908 H 97.714807 c 2.184466,0 3.955853,-1.76477 3.955853,-3.94163 v -66.48946 c 0,-2.17686 -1.771387,-3.94163 -3.955853,-3.94163 H -40.267718 c -2.187112,0 -3.957175,1.76477 -3.957175,3.94163 v 66.48946 c 0,2.17686 1.770063,3.94163 3.957175,3.94163 z m 0.187193,3.75444 c -4.370256,0 -7.910381,-3.52822 -7.910381,-7.88459 v -66.1111 c 0,-4.35505 3.540125,-7.88327 7.910381,-7.88327 H 97.563663 c 4.370587,0 7.911707,3.52822 7.911707,7.88327 v 66.1111 c 0,4.35637 -3.54112,7.88459 -7.911707,7.88459"
       style="fill:#000000;fill-opacity:1;fill-rule:nonzero;stroke:none;stroke-width:0.33072916"
       id="path3434"
       inkscape:connector-curvature="0" />
    <path
       d="m -40.263749,140.63061 c -5.845969,0 -10.601524,4.74266 -10.601524,10.56779 v 66.33435 c 0,5.82414 4.755555,10.56283 10.601524,10.56283 H 97.718775 c 5.844645,0 10.598875,-4.73869 10.598875,-10.56283 V 151.1984 c 0,-5.82513 -4.75291,-10.56779 -10.598875,-10.56779 z m 0,0.13163 H 97.718775 c 5.773535,0 10.466915,4.68346 10.466915,10.43616 v 66.33435 c 0,5.75171 -4.69338,10.42988 -10.466915,10.42988 H -40.263749 c -5.77354,0 -10.469894,-4.67817 -10.469894,-10.42988 V 151.1984 c 0,-5.7527 4.696354,-10.43616 10.469894,-10.43616 z"
       style="fill:#000000;fill-opacity:1;fill-rule:nonzero;stroke:none;stroke-width:0.33072916"
       id="path3436"
       inkscape:connector-curvature="0" />
    <path
       d="m -33.604187,157.94726 v 52.91667 H 5.202251 v -52.91667 z m 22.466433,5.27249 c 0.208028,0 0.410765,0.0632 0.582744,0.1809 l -0.152466,0.22093 c -0.126669,-0.0866 -0.276489,-0.1346 -0.430278,-0.1346 -0.03109,0 -0.06052,0.003 -0.09161,0.005 -0.119063,0.0155 -0.208029,0.11509 -0.208029,0.23515 0,0.11873 0.08764,0.21828 0.205383,0.23382 l 0.286742,0.0387 c 0.24937,0.0337 0.437885,0.24672 0.437885,0.49874 0,0.23118 -0.157427,0.43292 -0.382322,0.48947 -0.08136,0.0208 -0.164042,0.0298 -0.248047,0.0298 -0.242756,0 -0.476581,-0.0853 -0.661459,-0.24143 l 0.173302,-0.20406 c 0.135599,0.11476 0.309894,0.17826 0.488157,0.17826 0.06218,0 0.1227,-0.008 0.183554,-0.0222 0.104511,-0.0271 0.178263,-0.12138 0.178263,-0.22985 0,-0.11741 -0.08797,-0.21829 -0.205382,-0.23383 l -0.28575,-0.0374 c -0.250362,-0.0337 -0.437886,-0.24673 -0.437886,-0.50006 0,-0.25467 0.189839,-0.46898 0.443177,-0.50007 0.04134,-0.005 0.08268,-0.008 0.124024,-0.008 z m -11.056277,0.0192 h 0.220928 l 0.646244,1.76477 h -0.284427 l -0.13163,-0.3939 h -0.679648 l -0.132954,0.3939 h -0.284427 z m 1.118857,0 h 0.252016 l 0.803672,1.25975 v -1.25975 h 0.267229 v 1.76477 h -0.251685 l -0.803672,-1.26074 v 1.26074 h -0.26756 z m 1.73269,0 h 0.26723 v 0.91347 l 0.740171,-0.91347 h 0.315516 l -0.5672,0.69387 0.629046,1.0709 h -0.315184 l -0.487165,-0.86684 -0.315184,0.33073 v 0.53611 h -0.26723 z m 1.542521,0 h 0.268552 v 1.14994 c 0,0.20009 0.161396,0.36314 0.361818,0.36314 0.200091,0 0.361818,-0.16305 0.361818,-0.36314 v -1.14994 h 0.267229 v 1.14994 c 0,0.3476 -0.281451,0.63037 -0.629047,0.63037 -0.347596,0 -0.63037,-0.28277 -0.63037,-0.63037 z m 1.638102,0 h 0.251685 l 0.803672,1.25975 v -1.25975 h 0.267559 v 1.76477 h -0.252015 l -0.803672,-1.26074 v 1.26074 h -0.267229 z m 1.732359,0 h 1.134401 v 0.25201 h -0.866841 v 0.51925 h 0.740172 v 0.23647 h -0.740172 v 0.75704 h -0.26756 z m 1.290505,0 h 1.245526 v 0.23647 h -0.488487 v 1.5283 h -0.267229 v -1.5283 h -0.48981 z m 2.883628,0 h 1.1019896 v 0.20538 l -0.8036718,1.3077 h 0.8036718 v 0.25169 H -10.28778 v -0.22093 l 0.8036715,-1.30737 h -0.7712605 z m 1.4482631,0 h 1.134401 v 0.25201 H -8.539546 v 0.50404 h 0.7401719 v 0.23614 H -8.539546 v 0.52089 h 0.8668411 v 0.25169 h -1.134401 z m 1.4806745,0 h 0.2672292 v 1.76477 h -0.2672292 z m 0.5192448,0 h 1.2442031 v 0.23647 h -0.488487 v 1.5283 h -0.2675599 v -1.5283 h -0.4881562 z m -15.2757194,0.36314 -0.260945,0.77126 h 0.520899 z m 4.809795,5.81091 h 6.144286 l -3.072143,11.46572 z m -2.332964,10.70868 c 1.340776,1.59808 3.318867,2.51916 5.403784,2.51916 2.085248,0 4.064662,-0.92108 5.4054377,-2.51916 l 6.7581199,5.66771 c -3.0165808,3.59535 -7.471172,5.67266 -12.1635576,5.67266 -4.692055,0 -9.142677,-2.07731 -12.157935,-5.67266 z m -0.709414,13.10382 h 12.2293727 c 0.5192448,0 0.940263,0.42135 0.940263,0.94059 v 12.22938 c 0,0.51924 -0.4210182,0.94158 -0.940263,0.94158 H -20.315489 c -0.519245,0 -0.940594,-0.42234 -0.940594,-0.94158 v -12.22938 c 0,-0.51924 0.421349,-0.94059 0.940594,-0.94059 z m 0,0.35289 c -0.324114,0 -0.587706,0.26359 -0.587706,0.5877 v 12.22938 c 0,0.32543 0.263592,0.58903 0.587706,0.58903 h 12.2293727 c 0.3241146,0 0.5877057,-0.2636 0.5877057,-0.58903 v -12.22938 c 0,-0.32411 -0.2635911,-0.5877 -0.5877057,-0.5877 z m 2.704042,1.76345 h 3.880776 c 1.656292,0 2.998721,1.3421 2.998721,2.99839 0,1.65629 -1.342429,3.00004 -2.998721,3.00004 h -2.380919 v 3.87945 h -1.499857 z m 1.499857,1.41188 v 3.17434 h 2.293276 c 0.875771,0 1.5875,-0.71041 1.5875,-1.58783 0,-0.87577 -0.711729,-1.58651 -1.5875,-1.58651 z"
       style="fill:#154889;fill-opacity:1;fill-rule:nonzero;stroke:none;stroke-width:0.33072916"
       id="path3440"
       inkscape:connector-curvature="0" />
    <path
       d="m -18.05727,181.91355 0.304932,0.17694 -0.529497,0.91612 -0.304932,-0.17562 z m -2.925961,3.60693 0.523214,0.30262 -0.09459,0.16404 c -0.0258,0.045 -0.04002,0.0982 -0.04002,0.15115 0,0.16668 0.135929,0.30228 0.302286,0.30228 0.107487,0 0.208029,-0.0582 0.262268,-0.15114 l 0.510316,-0.88371 c 0.0258,-0.0466 0.04002,-0.0982 0.04002,-0.15114 0,-0.16801 -0.135599,-0.30229 -0.302287,-0.30229 -0.08268,0 -0.160073,0.0321 -0.216958,0.0916 l -0.465005,-0.2712 1.133078,-1.96387 1.506141,0.86949 -0.282774,0.49113 -1.04775,-0.6049 -0.569846,0.98723 c 0.05292,-0.0129 0.108479,-0.0195 0.162718,-0.0195 0.396875,0 0.718344,0.3218 0.718344,0.71835 0,0.12534 -0.03208,0.24937 -0.09558,0.35917 l -0.567201,0.98193 c -0.161396,0.28013 -0.461036,0.45343 -0.785482,0.45343 -0.501054,0 -0.906859,-0.4058 -0.906859,-0.90685 0,-0.15909 0.04134,-0.31651 0.121377,-0.45343 z m -0.935633,1.91856 0.107487,-0.18454 0.250362,-0.0311 0.174625,0.10219 -0.705445,1.22072 -0.174294,-0.10087 0.597958,-1.03617 z m 0.175948,1.31002 1.019307,-0.80863 -0.327091,-0.18852 -0.100541,0.1743 -0.174625,-0.10088 0.201744,-0.34858 0.697508,0.40282 -0.09426,0.16272 -1.025922,0.81922 z m 7.365008,-5.75402 h 0.352888 v 1.058 h -0.352888 z m 0.17694,1.41056 h 0.680971 l -0.697507,1.78428 c 0.07739,-0.0298 0.160073,-0.0453 0.244078,-0.0453 0.376039,0 0.679648,0.30493 0.679648,0.68097 v 0.94423 c 0,0.50139 -0.405805,0.90686 -0.90719,0.90686 -0.501055,0 -0.906859,-0.40547 -0.906859,-0.90686 v -0.79309 c 0,-0.1098 0.01951,-0.21828 0.05821,-0.32047 z m -0.302286,3.36417 c 0,0.16669 0.135599,0.30229 0.302286,0.30229 0.166688,0 0.302287,-0.1356 0.302287,-0.30229 v -0.79309 c 0,-0.16801 -0.135599,-0.30228 -0.302287,-0.30228 -0.166687,0 -0.302286,0.13427 -0.302286,0.30228 z m -0.479227,1.94039 v -0.21431 l 0.201414,-0.15115 h 0.201745 v 1.4109 h -0.201745 v -1.19658 z m 0.869487,0.31155 c -0.08797,-0.0685 -0.138245,-0.1743 -0.138245,-0.28674 0,-0.22225 0.179586,-0.40316 0.403159,-0.40316 0.22225,0 0.403159,0.18091 0.403159,0.40316 0,0.11244 -0.05192,0.21828 -0.139568,0.28674 0.103188,0.0737 0.164042,0.19248 0.164042,0.31783 0,0.23779 -0.191162,0.42895 -0.427633,0.42895 -0.236471,0 -0.428956,-0.19116 -0.428956,-0.42895 0,-0.12535 0.06086,-0.24408 0.164042,-0.31783 z m 0.03737,0.31783 c 0,-0.12403 0.102196,-0.22622 0.227542,-0.22622 0.125346,0 0.225888,0.10219 0.225888,0.22622 0,0.12667 -0.100542,0.22721 -0.225888,0.22721 -0.125346,0 -0.227542,-0.10054 -0.227542,-0.22721 z m 0.0258,-0.60457 c 0,-0.11113 0.09062,-0.20175 0.201745,-0.20175 0.111125,0 0.201414,0.0906 0.201414,0.20175 0,0.11244 -0.09029,0.20141 -0.201414,0.20141 -0.111125,0 -0.201745,-0.089 -0.201745,-0.20141 z m 3.400558,-7.64448 0.304932,-0.17694 0.5294973,0.91744 -0.3062553,0.17562 z m 0.601927,2.50395 -0.529828,-0.91744 1.572286,-0.90686 0.2831042,0.4908 0.9495235,3.68598 -0.556948,0.3218 -0.915789,-3.70516 -0.5890287,0.34098 0.2454011,0.42499 z m 2.2529268,3.60164 -0.1071562,-0.18454 0.099549,-0.23251 0.1742943,-0.10087 0.7054453,1.22204 -0.1742942,0.10088 -0.599612,-1.03618 z m 1.4611615,0.36447 -0.1961224,0.11377 -0.041341,-0.67436 c -0.062177,0.08 -0.1577578,0.12766 -0.2596224,0.12766 -0.1177395,0 -0.2248958,-0.0619 -0.284427,-0.16404 l -0.056885,-0.0982 c -0.034726,-0.0618 -0.052917,-0.1303 -0.052917,-0.20141 0,-0.22225 0.1795859,-0.40316 0.4031588,-0.40316 0.1432058,0 0.2764896,0.0764 0.3489193,0.20174 l 0.030758,0.0542 c 0.032411,0.0542 0.050602,0.11344 0.05424,0.17562 z m -0.6624505,-0.79574 0.030758,0.0542 c 0.03638,0.0618 0.1021953,0.10054 0.174625,0.10054 0.111125,0 0.201414,-0.0903 0.201414,-0.20141 0,-0.0347 -0.00893,-0.0698 -0.02712,-0.10087 l -0.031089,-0.0542 c -0.036049,-0.0619 -0.1018646,-0.10055 -0.1742943,-0.10055 -0.111125,0 -0.201414,0.0903 -0.201414,0.20142 0,0.0347 0.00893,0.0698 0.02712,0.10087 z m -5.3733568,-4.99996 0.170656,-0.045 0.273844,1.02195 -0.170326,0.0463 z m 3.3436718,-1.87689 0.1253464,-0.12535 0.7477786,0.74778 -0.1240234,0.12535 z m -10.4761768,-0.12535 0.124023,0.12535 -0.748109,0.74778 -0.125347,-0.12535 z m 3.298362,1.95726 0.170325,0.045 -0.273844,1.02327 -0.170325,-0.0463 0.273844,-1.02195"
       style="fill:#231f20;fill-opacity:1;fill-rule:evenodd;stroke:none;stroke-width:0.33072916"
       id="path3442"
       inkscape:connector-curvature="0" />
  </g>
</svg>
