<?xml version="1.0" encoding="UTF-8" standalone="no"?>
<svg
   xmlns:dc="http://purl.org/dc/elements/1.1/"
   xmlns:cc="http://creativecommons.org/ns#"
   xmlns:rdf="http://www.w3.org/1999/02/22-rdf-syntax-ns#"
   xmlns:svg="http://www.w3.org/2000/svg"
   xmlns="http://www.w3.org/2000/svg"
   viewBox="0 0 601.63623 330.57626"
   height="330.57626"
   width="601.63623"
   xml:space="preserve"
   version="1.1"
   id="svg4986"><metadata
     id="metadata4992"><rdf:RDF><cc:Work
         rdf:about=""><dc:format>image/svg+xml</dc:format><dc:type
           rdf:resource="http://purl.org/dc/dcmitype/StillImage" /><dc:title></dc:title></cc:Work></rdf:RDF></metadata><defs
     id="defs4990"><clipPath
       id="clipPath5018"
       clipPathUnits="userSpaceOnUse"><path
         id="path5020"
         d="m 0,0 481.30899,0 0,264.461 L 0,264.461 0,0 Z" /></clipPath><mask
       id="mask5022"
       height="1"
       width="1"
       y="0"
       x="0"
       maskUnits="userSpaceOnUse"><g
         id="g5024"><g
           id="g5026"
           clip-path="url(#clipPath5018)"><path
             id="path5028"
             style="fill:#000000;fill-opacity:0.85164998;fill-rule:nonzero;stroke:none"
             d="m 0,0 481.30899,0 0,264.461 L 0,264.461 0,0 Z" /></g></g></mask><clipPath
       id="clipPath5034"
       clipPathUnits="userSpaceOnUse"><path
         id="path5036"
         d="m 0,0 481.30899,0 0,264.461 L 0,264.461 0,0 Z" /></clipPath><clipPath
       id="clipPath5038"
       clipPathUnits="userSpaceOnUse"><path
         id="path5040"
         d="M 0,0 482,0 482,265 0,265 0,0 Z" /></clipPath><pattern
       id="pattern5042"
       height="265"
       width="482"
       y="0"
       x="0"
       patternUnits="userSpaceOnUse"
       patternTransform="translate(0,-0.539001)"><g
         id="g5044" /><g
         id="g5046"><g
           id="g5048"
           clip-path="url(#clipPath5038)"><g
             id="g5050"><path
               id="path5052"
               style="fill:#154889;fill-opacity:1;fill-rule:nonzero;stroke:none"
               d="m 316.195,154.34 0,74.144 54.371,0 0,-74.144 -54.371,0 z" /><path
               id="path5054"
               style="fill:#ffffff;fill-opacity:1;fill-rule:nonzero;stroke:none"
               d="m 335.809,197.414 -9.465,-7.941 c 4.226,-5.035 10.461,-7.95 17.039,-7.95 6.574,0 12.812,2.915 17.039,7.95 l -9.469,7.941 c -1.879,-2.238 -4.648,-3.531 -7.57,-3.531 -2.926,0 -5.695,1.293 -7.574,3.531 z" /><path
               id="path5056"
               style="fill:#231f20;fill-opacity:1;fill-rule:evenodd;stroke:none"
               d="m 337.977,194.902 0.429,-0.246 -0.742,-1.285 -0.426,0.246 0.739,1.285 z m -4.098,-5.05 0.734,-0.426 -0.133,-0.231 c -0.039,-0.062 -0.058,-0.136 -0.058,-0.211 0,-0.234 0.191,-0.421 0.426,-0.421 0.152,0 0.289,0.078 0.367,0.21 l 0.715,1.239 c 0.035,0.062 0.054,0.136 0.054,0.211 0,0.234 -0.187,0.425 -0.421,0.425 -0.114,0 -0.227,-0.046 -0.305,-0.128 l -0.653,0.378 1.59,2.75 2.11,-1.218 -0.399,-0.688 -1.465,0.848 -0.8,-1.383 c 0.074,0.02 0.152,0.027 0.23,0.027 0.555,0 1.008,-0.449 1.008,-1.004 0,-0.179 -0.047,-0.351 -0.137,-0.503 l -0.793,-1.379 c -0.226,-0.391 -0.648,-0.633 -1.101,-0.633 -0.703,0 -1.274,0.566 -1.274,1.269 0,0.223 0.063,0.442 0.172,0.637 l 0.133,0.231 z m -1.309,-2.692 0.149,0.262 0.351,0.043 0.243,-0.145 -0.989,-1.711 -0.242,0.141 0.836,1.453 -0.348,-0.043 z m 0.246,-1.832 1.426,1.133 -0.457,0.262 -0.14,-0.243 -0.247,0.141 0.282,0.488 0.98,-0.562 -0.133,-0.231 -1.437,-1.148 -0.274,0.16 z m 10.317,8.063 0.496,0 0,-1.485 -0.496,0 0,1.485 z m 0.25,-1.981 0.953,0 -0.977,-2.496 c 0.11,0.039 0.223,0.063 0.34,0.063 0.528,0 0.953,-0.426 0.953,-0.954 l 0,-1.324 c 0,-0.703 -0.566,-1.273 -1.269,-1.273 -0.703,0 -1.27,0.57 -1.27,1.273 l 0,1.114 c 0,0.152 0.028,0.304 0.078,0.445 l 1.192,3.152 z m -0.426,-4.711 c 0,-0.234 0.191,-0.426 0.426,-0.426 0.234,0 0.422,0.192 0.422,0.426 l 0,1.114 c 0,0.23 -0.188,0.421 -0.422,0.421 -0.235,0 -0.426,-0.191 -0.426,-0.421 l 0,-1.114 z m -0.672,-2.719 0,0.301 0.285,0.211 0.282,0 0,-1.976 -0.282,0 0,1.675 -0.285,-0.211 z m 1.219,-0.437 c -0.121,0.098 -0.191,0.246 -0.191,0.402 0,0.313 0.25,0.563 0.562,0.563 0.313,0 0.566,-0.25 0.566,-0.563 0,-0.156 -0.074,-0.304 -0.195,-0.402 0.145,-0.102 0.231,-0.27 0.231,-0.445 0,-0.332 -0.27,-0.602 -0.602,-0.602 -0.332,0 -0.598,0.27 -0.598,0.602 0,0.175 0.082,0.343 0.227,0.445 z m 0.055,-0.445 c 0,0.175 0.14,0.316 0.316,0.316 0.176,0 0.32,-0.141 0.32,-0.316 0,-0.176 -0.144,-0.321 -0.32,-0.321 -0.176,0 -0.316,0.145 -0.316,0.321 z m 0.035,0.847 c 0,0.157 0.125,0.282 0.281,0.282 0.156,0 0.281,-0.125 0.281,-0.282 0,-0.156 -0.125,-0.285 -0.281,-0.285 -0.156,0 -0.281,0.129 -0.281,0.285 z m 4.765,10.711 0.426,0.246 0.742,-1.285 -0.429,-0.246 -0.739,1.285 z m 0.844,-3.508 -0.742,1.286 2.199,1.269 0.399,-0.687 1.332,-5.164 -0.782,-0.45 -1.285,5.188 -0.824,-0.477 0.344,-0.593 -0.641,-0.372 z m 3.156,-5.046 -0.152,0.257 0.141,0.329 0.242,0.14 0.992,-1.715 -0.246,-0.14 -0.84,1.453 -0.137,-0.324 z m 2.047,-0.512 -0.277,-0.156 -0.055,0.941 c -0.09,-0.109 -0.222,-0.176 -0.363,-0.176 -0.164,0 -0.316,0.086 -0.398,0.227 l -0.083,0.14 c -0.046,0.086 -0.074,0.18 -0.074,0.282 0,0.312 0.254,0.562 0.567,0.562 0.199,0 0.386,-0.105 0.488,-0.281 l 0.043,-0.074 c 0.043,-0.078 0.07,-0.16 0.074,-0.25 l 0.078,-1.215 z m -0.929,1.117 0.043,-0.078 c 0.05,-0.086 0.144,-0.141 0.246,-0.141 0.156,0 0.281,0.125 0.281,0.282 0,0.05 -0.012,0.097 -0.035,0.14 l -0.047,0.078 c -0.051,0.086 -0.145,0.141 -0.242,0.141 -0.157,0 -0.285,-0.125 -0.285,-0.281 0,-0.051 0.015,-0.098 0.039,-0.141 z m -7.528,7.004 0.239,0.062 0.382,-1.429 -0.238,-0.067 -0.383,1.434 z m 4.684,2.633 0.176,0.172 1.05,-1.047 -0.175,-0.176 -1.051,1.051 z m -14.68,0.172 0.176,-0.172 -1.047,-1.051 -0.176,0.176 1.047,1.047 z m 4.621,-2.743 0.242,-0.062 -0.386,-1.434 -0.239,0.067 0.383,1.429" /><path
               id="path5058"
               style="fill:#ffffff;fill-opacity:1;fill-rule:nonzero;stroke:none"
               d="m 331.277,218.598 0.907,2.472 0.308,0 0.906,-2.472 -0.398,0 -0.187,0.55 -0.95,0 -0.187,-0.55 -0.399,0 z m 0.696,0.882 0.73,0 -0.367,1.083 -0.363,-1.083 z m 1.777,-0.882 0,2.472 0.352,0 1.125,-1.765 0,1.765 0.375,0 0,-2.472 -0.352,0 -1.125,1.765 0,-1.765 -0.375,0 z m 2.426,0 0,2.472 0.375,0 0,-1.281 1.039,1.281 0.441,0 -0.793,-0.972 0.879,-1.5 -0.441,0 -0.684,1.215 -0.441,-0.465 0,-0.75 -0.375,0 z m 2.164,2.472 0.375,0 0,-1.613 c 0,-0.277 0.226,-0.508 0.508,-0.508 0.281,0 0.507,0.231 0.507,0.508 l 0,1.613 0.375,0 0,-1.613 c 0,-0.484 -0.394,-0.883 -0.882,-0.883 -0.489,0 -0.883,0.399 -0.883,0.883 l 0,1.613 z m 2.293,-2.472 0,2.472 0.355,0 1.125,-1.765 0,1.765 0.375,0 0,-2.472 -0.351,0 -1.125,1.765 0,-1.765 -0.379,0 z m 2.43,0 0,2.472 1.589,0 0,-0.355 -1.214,0 0,-0.727 1.035,0 0,-0.332 -1.035,0 0,-1.058 -0.375,0 z m 2.492,0 0,2.14 -0.684,0 0,0.332 1.742,0 0,-0.332 -0.683,0 0,-2.14 -0.375,0 z m 1.191,0.316 0.242,0.289 c 0.192,-0.164 0.434,-0.25 0.684,-0.25 0.09,0 0.176,0.008 0.258,0.031 0.148,0.036 0.25,0.168 0.25,0.321 0,0.164 -0.121,0.304 -0.285,0.328 l -0.403,0.051 c -0.351,0.046 -0.613,0.347 -0.613,0.703 0,0.355 0.266,0.656 0.621,0.699 0.059,0.008 0.117,0.012 0.172,0.012 0.293,0 0.578,-0.09 0.82,-0.254 l -0.215,-0.309 c -0.175,0.121 -0.386,0.188 -0.605,0.188 -0.039,0 -0.082,-0.004 -0.125,-0.008 -0.168,-0.02 -0.293,-0.164 -0.293,-0.328 0,-0.168 0.125,-0.309 0.289,-0.328 l 0.398,-0.055 c 0.352,-0.047 0.614,-0.348 0.614,-0.699 0,-0.325 -0.219,-0.606 -0.532,-0.688 -0.117,-0.027 -0.234,-0.043 -0.351,-0.043 -0.336,0 -0.664,0.121 -0.926,0.34 z m 2.121,-0.316 0,0.308 1.125,1.832 -1.082,0 0,0.332 1.543,0 0,-0.289 -1.125,-1.832 1.125,0 0,-0.351 -1.586,0 z m 2.074,0 0,2.472 1.586,0 0,-0.355 -1.211,0 0,-0.703 1.036,0 0,-0.332 -1.036,0 0,-0.731 1.211,0 0,-0.351 -1.586,0 z m 2.075,0 0,2.472 0.375,0 0,-2.472 -0.375,0 z m 1.41,0 0,2.14 -0.684,0 0,0.332 1.742,0 0,-0.332 -0.683,0 0,-2.14 -0.375,0" /><path
               id="path5060"
               style="fill:#ffffff;fill-opacity:1;fill-rule:nonzero;stroke:none"
               d="m 343.383,196.355 -4.305,16.063 8.61,0 -4.305,-16.063" /><path
               id="path5062"
               style="fill:#ffffff;fill-opacity:1;fill-rule:nonzero;stroke:none"
               d="m 334.813,159.281 c -0.727,0 -1.317,0.594 -1.317,1.321 l 0,17.132 c 0,0.731 0.59,1.321 1.317,1.321 l 17.136,0 c 0.727,0 1.321,-0.59 1.321,-1.321 l 0,-17.132 c 0,-0.727 -0.594,-1.321 -1.321,-1.321 l -17.136,0 z m 0,0.496 17.136,0 c 0.457,0 0.824,0.368 0.824,0.825 l 0,17.132 c 0,0.457 -0.367,0.825 -0.824,0.825 l -17.136,0 c -0.454,0 -0.821,-0.368 -0.821,-0.825 l 0,-17.132 c 0,-0.457 0.367,-0.825 0.821,-0.825 z m 3.792,2.473 0,13.84 5.434,0 c 2.324,0 4.203,-1.883 4.203,-4.203 0,-2.321 -1.879,-4.199 -4.203,-4.199 l -3.336,0 0,-5.438 -2.098,0 z m 2.098,7.414 3.215,0 c 1.227,0 2.223,0.996 2.223,2.223 0,1.23 -0.996,2.226 -2.223,2.226 l -3.215,0 0,-4.449" /></g></g></g></pattern></defs><g
     transform="matrix(1.25,0,0,-1.25,0,330.57625)"
     id="g4994"><path
       d="m 32.055,264.063 c -17.457,0 -31.657,-14.161 -31.657,-31.555 l 0,-200.809 c 0,-17.39 14.2,-31.535 31.657,-31.535 l 417.207,0 c 17.457,0 31.648,14.145 31.648,31.535 l 0,200.809 c 0,17.394 -14.191,31.555 -31.648,31.555 l -417.207,0 z"
       style="fill:#ffffff;fill-opacity:1;fill-rule:nonzero;stroke:none"
       id="path4998" /><path
       d="m 32.043,19.668 417.207,0 c 6.605,0 11.961,5.336 11.961,11.918 l 0,201.039 c 0,6.582 -5.356,11.918 -11.961,11.918 l -417.207,0 c -6.613,0 -11.965,-5.336 -11.965,-11.918 l 0,-201.039 c 0,-6.582 5.352,-11.918 11.965,-11.918 z M 32.609,8.316 c -13.214,0 -23.918,10.668 -23.918,23.84 l 0,199.895 c 0,13.168 10.704,23.836 23.918,23.836 l 416.184,0 c 13.215,0 23.922,-10.668 23.922,-23.836 l 0,-199.895 c 0,-13.172 -10.707,-23.84 -23.922,-23.84"
       style="fill:#000000;fill-opacity:1;fill-rule:nonzero;stroke:none"
       id="path5000" /><path
       d="M 32.055,264.461 C 14.379,264.461 0,250.121 0,232.508 L 0,31.938 C 0,14.328 14.379,0 32.055,0 l 417.207,0 c 17.672,0 32.047,14.328 32.047,31.938 l 0,200.57 c 0,17.613 -14.371,31.953 -32.047,31.953 l -417.207,0 z m 0,-0.398 417.207,0 c 17.457,0 31.648,-14.161 31.648,-31.555 l 0,-200.57 c 0,-17.391 -14.191,-31.536 -31.648,-31.536 l -417.207,0 C 14.598,0.402 0.398,14.547 0.398,31.938 l 0,200.57 c 0,17.394 14.2,31.555 31.657,31.555 z"
       style="fill:#000000;fill-opacity:1;fill-rule:nonzero;stroke:none"
       id="path5002" /><path
       d="m 59.105,164.676 0,48.777 11.407,0 c 1.414,0 2.828,-0.293 4.242,-0.875 1.414,-0.586 2.598,-1.355 3.547,-2.305 0.953,-0.949 1.758,-2.085 2.414,-3.402 0.656,-1.316 0.988,-2.582 0.988,-3.801 l 0,-7.093 c 0,-1.805 -0.246,-3.414 -0.73,-4.829 -0.489,-1.414 -1.332,-2.718 -2.524,-3.91 -1.195,-1.195 -2.488,-2.05 -3.879,-2.562 -1.39,-0.512 -3.011,-0.766 -4.863,-0.766 l -3.656,0 0,-19.234 -6.946,0 z m 14.774,27.207 c 0.437,0.437 0.719,0.902 0.84,1.387 0.121,0.488 0.183,1.097 0.183,1.828 l 0,7.242 c 0,1.363 -0.414,2.484 -1.242,3.363 -0.832,0.879 -1.953,1.317 -3.367,1.317 l -4.242,0 0,-16.528 3.656,0 c 0.977,0 1.77,0.082 2.379,0.254 0.609,0.172 1.207,0.551 1.793,1.137 z M 86.16,168.332 c -0.34,0.586 -0.562,1.231 -0.66,1.938 -0.098,0.707 -0.145,1.5 -0.145,2.378 l 0,3.946 c 0,2.586 0.645,4.512 1.938,5.781 1.293,1.266 2.465,2.133 3.512,2.594 1.047,0.465 2.304,0.695 3.765,0.695 l 4.68,0 0,3 c 0,0.684 -0.035,1.242 -0.109,1.68 -0.075,0.437 -0.379,1 -0.914,1.683 -0.536,0.684 -1.266,1.024 -2.196,1.024 -0.972,0 -1.801,-0.317 -2.484,-0.949 -0.684,-0.637 -1.098,-1.465 -1.242,-2.489 l -6.95,0 c 0,2.828 1.012,5.254 3.036,7.278 2.023,2.023 4.472,3.035 7.347,3.035 2.828,0 5.293,-1 7.391,-3 2.094,-2 3.144,-4.438 3.144,-7.313 l 0,-24.937 -7.023,0 0,3.512 c -0.73,-1.219 -1.645,-2.184 -2.742,-2.891 -1.098,-0.707 -2.328,-1.063 -3.695,-1.063 -3.071,0 -5.29,1.368 -6.653,4.098 z m 6.215,8.336 0,-1.754 c 0,-0.926 0.332,-1.766 0.988,-2.523 0.66,-0.754 1.524,-1.133 2.594,-1.133 0.586,0 1.137,0.144 1.648,0.437 0.512,0.293 0.903,0.696 1.168,1.207 0.27,0.512 0.415,1.168 0.442,1.977 0.023,0.805 0.035,1.375 0.035,1.715 l 0,3.367 -2.633,0 c -1.269,0 -2.293,-0.242 -3.07,-0.73 -0.781,-0.489 -1.172,-1.344 -1.172,-2.563 z m 36.078,23.258 0,-7.168 c -0.34,0.098 -0.68,0.172 -1.023,0.219 -0.34,0.05 -0.657,0.074 -0.95,0.074 -2.292,0 -4.046,-0.781 -5.265,-2.34 -1.219,-1.559 -1.828,-3.438 -1.828,-5.633 l 0,-20.402 -7.024,0 0,34.812 7.024,0 0,-3.734 c 1.218,1.512 2.718,2.586 4.496,3.219 1.781,0.636 3.305,0.953 4.57,0.953 z m 4.336,-35.25 0,48.777 7.024,0 0,-29.031 8.773,15.066 6.949,0 -8.265,-13.824 9.949,-20.988 -7.824,0 -6.071,14.844 -3.511,-5.192 0,-9.652 -7.024,0 z m 37.582,6.656 c 1.024,0 1.852,0.316 2.484,0.949 0.633,0.633 1.024,1.461 1.172,2.489 l 6.95,0 0,-0.805 c 0,-1.074 -0.235,-2.145 -0.696,-3.219 -0.465,-1.074 -1.426,-2.426 -2.89,-4.058 -1.461,-1.637 -3.754,-2.454 -6.875,-2.454 -2,0 -3.84,0.539 -5.52,1.61 -1.683,1.074 -2.84,2.258 -3.476,3.547 -0.633,1.293 -1.036,2.465 -1.207,3.511 -0.168,1.047 -0.254,2.086 -0.254,3.11 l 0,13.234 c 0,2.879 1.035,5.375 3.109,7.496 2.07,2.121 4.547,3.184 7.422,3.184 2.976,0 5.449,-1.035 7.426,-3.11 1.972,-2.07 2.961,-4.593 2.961,-7.57 l 0,-9.652 -13.899,0 0,-5.192 c 0,-0.73 0.356,-1.425 1.063,-2.086 0.707,-0.656 1.449,-0.984 2.23,-0.984 z m 0.145,21.719 c -0.926,0 -1.731,-0.317 -2.414,-0.949 -0.68,-0.637 -1.024,-1.758 -1.024,-3.364 l 0,-3.437 6.875,0 0,3.437 c 0,1.266 -0.265,2.301 -0.805,3.106 -0.535,0.804 -1.414,1.207 -2.632,1.207 z m 35.8,3.293 c 0.391,-0.586 0.661,-1.293 0.805,-2.125 0.145,-0.828 0.219,-1.656 0.219,-2.485 l 0,-27.058 -7.02,0 0,24.5 c 0,2.582 -1.148,3.875 -3.437,3.875 -1.024,0 -1.856,-0.391 -2.488,-1.172 -0.633,-0.777 -0.95,-1.68 -0.95,-2.703 l 0,-24.5 -7.023,0 0,34.812 7.023,0 0,-3.367 c 1.559,2.535 3.731,3.805 6.508,3.805 2.828,0 4.949,-1.195 6.363,-3.582 z"
       style="fill:#000000;fill-opacity:1;fill-rule:nonzero;stroke:none"
       id="path5004" /><path
       d="m 252.332,197.004 c 0.926,1.168 1.953,2.059 3.074,2.668 1.121,0.609 2.387,0.914 3.801,0.914 2.391,0 4.352,-0.84 5.887,-2.523 1.539,-1.684 2.304,-3.719 2.304,-6.106 l 0,-26.621 -7.019,0 0,24.645 c 0,1.121 -0.281,2.035 -0.844,2.742 -0.558,0.707 -1.426,1.062 -2.594,1.062 -0.976,0 -1.793,-0.379 -2.449,-1.133 -0.66,-0.757 -0.988,-1.644 -0.988,-2.671 l 0,-24.645 -7.02,0 0,24.645 c 0,1.074 -0.32,1.976 -0.953,2.707 -0.633,0.73 -1.488,1.097 -2.558,1.097 -0.977,0 -1.793,-0.379 -2.45,-1.133 -0.66,-0.757 -0.988,-1.644 -0.988,-2.671 l 0,-24.645 -7.019,0 0,34.812 7.019,0 0,-3.144 c 1.61,2.387 3.801,3.582 6.582,3.582 1.317,0 2.5,-0.305 3.547,-0.914 1.047,-0.609 1.938,-1.5 2.668,-2.668 z m 21.176,-31.668 0,34.812 7.019,0 0,-34.812 -7.019,0 z m 0,41.906 0,6.871 7.019,0 0,-6.871 -7.019,0 z m 23.597,-35.25 1.61,0 0,-6.656 -2.192,0 c -1.316,0 -2.488,0.133 -3.511,0.402 -1.024,0.27 -2.024,0.817 -3,1.645 -0.973,0.832 -1.657,1.746 -2.047,2.746 -0.391,0.996 -0.586,2.227 -0.586,3.691 l 0,20.844 -3.434,0 0,5.484 3.434,0 0,10.532 7.023,0 0,-10.532 4.313,0 0,-5.484 -4.313,0 0,-19.601 c 0,-1.168 0.157,-1.973 0.477,-2.415 0.316,-0.437 1.059,-0.656 2.226,-0.656 z"
       style="fill:#000000;fill-opacity:1;fill-rule:nonzero;stroke:none"
       id="path5006" /><path
       d="m 388.047,165.336 0,34.812 7.023,0 0,-34.812 -7.023,0 z m 0,41.906 0,6.871 7.023,0 0,-6.871 -7.023,0 z m 32.961,-10.238 c 0.39,-0.586 0.66,-1.293 0.805,-2.121 0.144,-0.832 0.218,-1.66 0.218,-2.488 l 0,-27.059 -7.019,0 0,24.5 c 0,2.582 -1.149,3.875 -3.438,3.875 -1.023,0 -1.855,-0.391 -2.488,-1.168 -0.633,-0.781 -0.949,-1.684 -0.949,-2.707 l 0,-24.5 -7.024,0 0,34.812 7.024,0 0,-3.367 c 1.558,2.535 3.73,3.805 6.508,3.805 2.828,0 4.949,-1.195 6.363,-3.582 z"
       style="fill:#000000;fill-opacity:1;fill-rule:nonzero;stroke:none"
       id="path5008" /><path
       d="M 64.539,91.328 C 63.566,89.867 62.32,88.707 60.809,87.856 59.301,87 57.691,86.574 55.984,86.574 c -2.976,0 -5.523,1.012 -7.644,3.035 -2.121,2.024 -3.18,4.547 -3.18,7.571 l 7.02,0 c 0,-0.977 0.316,-1.805 0.953,-2.489 0.633,-0.679 1.461,-1.023 2.484,-1.023 1.465,0 2.535,0.66 3.219,1.977 0.195,0.488 0.293,1.265 0.293,2.339 l 0,6.508 c -0.684,-1.168 -1.609,-2.133 -2.781,-2.89 -1.168,-0.754 -2.414,-1.133 -3.731,-1.133 -1.414,0 -2.715,0.379 -3.91,1.133 -1.195,0.757 -2.047,1.625 -2.559,2.597 -0.515,0.977 -0.804,1.758 -0.878,2.34 -0.075,0.586 -0.11,1.488 -0.11,2.707 l 0,19.305 c 0,0.879 0.11,1.683 0.328,2.414 0.219,0.734 0.828,1.793 1.828,3.183 1,1.391 2.747,2.083 5.231,2.083 1.316,0 2.535,-0.329 3.656,-0.985 1.121,-0.66 2.098,-1.574 2.926,-2.742 l 0,3.219 7.019,0 0,-37.739 c 0,-1.367 -0.109,-2.57 -0.328,-3.621 -0.218,-1.047 -0.644,-2.058 -1.281,-3.035 z m -6.07,36.641 c -0.731,0.976 -1.68,1.465 -2.852,1.465 -1.363,0 -2.254,-0.403 -2.668,-1.211 -0.418,-0.805 -0.648,-1.414 -0.695,-1.828 -0.051,-0.414 -0.074,-0.84 -0.074,-1.278 l 0,-13.238 c 0,-0.684 0.039,-1.231 0.109,-1.645 0.074,-0.418 0.356,-0.964 0.844,-1.648 0.488,-0.68 1.363,-1.02 2.629,-1.02 1.511,0 2.441,0.426 2.781,1.278 0.34,0.855 0.512,1.5 0.512,1.937 0,0.442 0.023,0.805 0.074,1.098 l 0,13.238 c 0,0.68 -0.039,1.219 -0.109,1.61 -0.075,0.386 -0.258,0.8 -0.551,1.242 z m 23.57,-20.403 c 1.024,0 1.852,0.317 2.488,0.95 0.633,0.632 1.02,1.461 1.168,2.484 l 6.95,0 0,-0.801 c 0,-1.074 -0.235,-2.148 -0.696,-3.218 -0.465,-1.075 -1.426,-2.426 -2.89,-4.059 -1.461,-1.637 -3.754,-2.453 -6.875,-2.453 -1.996,0 -3.84,0.539 -5.52,1.609 -1.684,1.074 -2.84,2.254 -3.476,3.547 -0.633,1.293 -1.036,2.465 -1.204,3.512 -0.171,1.047 -0.257,2.086 -0.257,3.109 l 0,13.235 c 0,2.878 1.035,5.375 3.109,7.496 2.07,2.121 4.547,3.183 7.422,3.183 2.976,0 5.449,-1.039 7.426,-3.109 1.972,-2.07 2.961,-4.594 2.961,-7.57 l 0,-9.653 -13.895,0 0,-5.191 c 0,-0.731 0.352,-1.426 1.059,-2.086 0.707,-0.656 1.449,-0.985 2.23,-0.985 z m 0.145,21.719 c -0.926,0 -1.731,-0.316 -2.411,-0.953 -0.683,-0.633 -1.023,-1.754 -1.023,-3.363 l 0,-3.434 6.871,0 0,3.434 c 0,1.269 -0.266,2.304 -0.805,3.109 -0.535,0.805 -1.414,1.207 -2.632,1.207 z m 15.98,-28.375 0,48.778 7.024,0 0,-29.036 8.773,15.071 6.949,0 -8.265,-13.825 9.949,-20.988 -7.828,0 -6.071,14.844 -3.507,-5.191 0,-9.653 -7.024,0 z m 37.582,6.656 c 1.024,0 1.852,0.317 2.484,0.95 0.633,0.632 1.024,1.461 1.172,2.484 l 6.95,0 0,-0.801 c 0,-1.074 -0.235,-2.148 -0.696,-3.218 -0.465,-1.075 -1.429,-2.426 -2.89,-4.059 -1.461,-1.637 -3.754,-2.453 -6.875,-2.453 -2,0 -3.84,0.539 -5.524,1.609 -1.679,1.074 -2.84,2.254 -3.472,3.547 -0.633,1.293 -1.036,2.465 -1.207,3.512 -0.168,1.047 -0.254,2.086 -0.254,3.109 l 0,13.235 c 0,2.878 1.035,5.375 3.109,7.496 2.07,2.121 4.543,3.183 7.422,3.183 2.976,0 5.449,-1.039 7.422,-3.109 1.976,-2.07 2.965,-4.594 2.965,-7.57 l 0,-9.653 -13.899,0 0,-5.191 c 0,-0.731 0.356,-1.426 1.063,-2.086 0.707,-0.656 1.449,-0.985 2.23,-0.985 z m 0.145,21.719 c -0.926,0 -1.731,-0.316 -2.414,-0.953 -0.68,-0.633 -1.024,-1.754 -1.024,-3.363 l 0,-3.434 6.875,0 0,3.434 c 0,1.269 -0.269,2.304 -0.805,3.109 -0.535,0.805 -1.414,1.207 -2.632,1.207 z m 35.8,3.293 c 0.391,-0.59 0.661,-1.297 0.805,-2.125 0.145,-0.828 0.219,-1.656 0.219,-2.484 l 0,-27.059 -7.024,0 0,24.496 c 0,2.586 -1.144,3.879 -3.433,3.879 -1.028,0 -1.856,-0.39 -2.488,-1.172 -0.633,-0.781 -0.95,-1.683 -0.95,-2.707 l 0,-24.496 -7.023,0 0,34.813 7.023,0 0,-3.367 c 1.559,2.535 3.731,3.804 6.508,3.804 2.828,0 4.949,-1.195 6.363,-3.582 z m 26.997,0 c 0.39,-0.59 0.656,-1.297 0.804,-2.125 0.145,-0.828 0.219,-1.656 0.219,-2.484 l 0,-27.059 -7.023,0 0,24.496 c 0,2.586 -1.145,3.879 -3.434,3.879 -1.027,0 -1.856,-0.39 -2.488,-1.172 -0.633,-0.781 -0.95,-1.683 -0.95,-2.707 l 0,-24.496 -7.023,0 0,34.813 7.023,0 0,-3.367 c 1.559,2.535 3.731,3.804 6.508,3.804 2.828,0 4.949,-1.195 6.364,-3.582 z m 5.714,-31.668 0,5.778 11.188,23.035 -10.387,0 0,6 18.215,0 0,-5.047 -11.191,-23.11 11.191,0 0,-6.656 -19.016,0 z m 33.469,6.656 c 1.027,0 1.856,0.317 2.488,0.95 0.633,0.632 1.024,1.461 1.172,2.484 l 6.946,0 0,-0.801 c 0,-1.074 -0.231,-2.148 -0.696,-3.218 -0.461,-1.075 -1.426,-2.426 -2.886,-4.059 -1.465,-1.637 -3.754,-2.453 -6.875,-2.453 -2,0 -3.84,0.539 -5.524,1.609 -1.68,1.074 -2.84,2.254 -3.473,3.547 -0.632,1.293 -1.035,2.465 -1.207,3.512 -0.171,1.047 -0.253,2.086 -0.253,3.109 l 0,13.235 c 0,2.878 1.035,5.375 3.105,7.496 2.074,2.121 4.547,3.183 7.426,3.183 2.972,0 5.449,-1.039 7.422,-3.109 1.976,-2.07 2.961,-4.594 2.961,-7.57 l 0,-9.653 -13.895,0 0,-5.191 c 0,-0.731 0.356,-1.426 1.059,-2.086 0.707,-0.656 1.453,-0.985 2.23,-0.985 z m 0.149,21.719 c -0.926,0 -1.731,-0.316 -2.415,-0.953 -0.683,-0.633 -1.023,-1.754 -1.023,-3.363 l 0,-3.434 6.875,0 0,3.434 c 0,1.269 -0.269,2.304 -0.805,3.109 -0.535,0.805 -1.414,1.207 -2.632,1.207 z M 254,100.91 l 0,34.813 7.02,0 0,-34.813 -7.02,0 z m 0,41.903 0,6.875 7.02,0 0,-6.875 -7.02,0 z m 33.473,-31.883 c 0,-2.879 -1.051,-5.34 -3.145,-7.387 -2.098,-2.051 -4.586,-3.074 -7.461,-3.074 -1.558,0 -3.109,0.402 -4.644,1.207 -1.535,0.805 -2.696,1.769 -3.473,2.89 -0.781,1.122 -1.328,2.266 -1.645,3.438 -0.316,1.168 -0.476,2.363 -0.476,3.582 l 0,13.602 c 0,2.878 0.988,5.425 2.961,7.644 1.976,2.219 4.426,3.328 7.351,3.328 3.024,0 5.532,-1.074 7.532,-3.219 2,-2.144 3,-4.73 3,-7.753 l -6.95,0 c 0,1.074 -0.304,2.023 -0.914,2.855 -0.609,0.828 -1.449,1.242 -2.523,1.242 -0.633,0 -1.18,-0.133 -1.645,-0.402 -0.464,-0.27 -0.878,-0.684 -1.242,-1.242 -0.367,-0.563 -0.551,-1.379 -0.551,-2.453 l 0,-13.602 c 0,-1.266 0.27,-2.266 0.805,-3 0.539,-0.73 1.438,-1.094 2.707,-1.094 1.024,0 1.84,0.375 2.449,1.133 0.61,0.754 0.914,1.668 0.914,2.742 l 6.95,0 0,-0.437 z m 18.629,25.23 c 1.265,0 2.461,-0.344 3.582,-1.023 1.125,-0.684 1.925,-1.477 2.414,-2.379 0.488,-0.902 0.793,-1.672 0.914,-2.305 0.121,-0.633 0.183,-1.461 0.183,-2.484 l 0,-27.059 -7.019,0 0,24.426 c 0,1.172 -0.27,2.121 -0.805,2.852 -0.539,0.73 -1.391,1.097 -2.558,1.097 -1.024,0 -1.868,-0.402 -2.524,-1.207 -0.66,-0.805 -0.988,-1.719 -0.988,-2.742 l 0,-24.426 -7.024,0 0,48.778 7.024,0 0,-17.332 c 1.609,2.535 3.875,3.804 6.801,3.804 z m 33.132,-3.582 c 0.395,-0.59 0.661,-1.297 0.809,-2.125 0.145,-0.828 0.219,-1.656 0.219,-2.484 l 0,-27.059 -7.024,0 0,24.496 c 0,2.586 -1.144,3.879 -3.437,3.879 -1.024,0 -1.852,-0.39 -2.485,-1.172 -0.632,-0.781 -0.949,-1.683 -0.949,-2.707 l 0,-24.496 -7.023,0 0,34.813 7.023,0 0,-3.367 c 1.559,2.535 3.731,3.804 6.508,3.804 2.828,0 4.949,-1.195 6.359,-3.582 z m 16.907,-25.012 c 1.023,0 1.855,0.317 2.488,0.95 0.633,0.632 1.023,1.461 1.168,2.484 l 6.949,0 0,-0.801 c 0,-1.074 -0.23,-2.148 -0.695,-3.218 -0.465,-1.075 -1.426,-2.426 -2.891,-4.059 -1.461,-1.637 -3.754,-2.453 -6.871,-2.453 -2,0 -3.844,0.539 -5.523,1.609 -1.684,1.074 -2.84,2.254 -3.477,3.547 -0.633,1.293 -1.035,2.465 -1.203,3.512 -0.172,1.047 -0.258,2.086 -0.258,3.109 l 0,13.235 c 0,2.878 1.035,5.375 3.11,7.496 2.07,2.121 4.546,3.183 7.421,3.183 2.977,0 5.45,-1.039 7.426,-3.109 1.973,-2.07 2.961,-4.594 2.961,-7.57 l 0,-9.653 -13.894,0 0,-5.191 c 0,-0.731 0.351,-1.426 1.058,-2.086 0.707,-0.656 1.449,-0.985 2.231,-0.985 z m 0.148,21.719 c -0.93,0 -1.734,-0.316 -2.414,-0.953 -0.684,-0.633 -1.023,-1.754 -1.023,-3.363 l 0,-3.434 6.871,0 0,3.434 c 0,1.269 -0.266,2.304 -0.805,3.109 -0.535,0.805 -1.41,1.207 -2.629,1.207 z m 26.438,-21.719 1.609,0 0,-6.656 -2.195,0 c -1.317,0 -2.489,0.133 -3.512,0.403 -1.024,0.265 -2.024,0.816 -2.996,1.644 -0.977,0.828 -1.66,1.742 -2.051,2.742 -0.387,1 -0.582,2.231 -0.582,3.692 l 0,20.843 -3.437,0 0,5.489 3.437,0 0,10.527 7.02,0 0,-10.527 4.316,0 0,-5.489 -4.316,0 0,-19.597 c 0,-1.172 0.16,-1.977 0.476,-2.414 0.317,-0.438 1.059,-0.657 2.231,-0.657 z m 16.55,0 c 1.024,0 1.852,0.317 2.489,0.95 0.632,0.632 1.019,1.461 1.168,2.484 l 6.949,0 0,-0.801 c 0,-1.074 -0.235,-2.148 -0.695,-3.218 -0.465,-1.075 -1.426,-2.426 -2.891,-4.059 -1.461,-1.637 -3.754,-2.453 -6.875,-2.453 -1.996,0 -3.84,0.539 -5.52,1.609 -1.683,1.074 -2.839,2.254 -3.476,3.547 -0.633,1.293 -1.035,2.465 -1.203,3.512 -0.172,1.047 -0.258,2.086 -0.258,3.109 l 0,13.235 c 0,2.878 1.035,5.375 3.109,7.496 2.071,2.121 4.547,3.183 7.422,3.183 2.977,0 5.449,-1.039 7.426,-3.109 1.973,-2.07 2.961,-4.594 2.961,-7.57 l 0,-9.653 -13.895,0 0,-5.191 c 0,-0.731 0.352,-1.426 1.059,-2.086 0.707,-0.656 1.449,-0.985 2.23,-0.985 z m 0.145,21.719 c -0.926,0 -1.731,-0.316 -2.41,-0.953 -0.684,-0.633 -1.024,-1.754 -1.024,-3.363 l 0,-3.434 6.871,0 0,3.434 c 0,1.269 -0.265,2.304 -0.804,3.109 -0.535,0.805 -1.414,1.207 -2.633,1.207 z m 35.801,3.293 c 0.39,-0.59 0.66,-1.297 0.804,-2.125 0.145,-0.828 0.219,-1.656 0.219,-2.484 l 0,-27.059 -7.019,0 0,24.496 c 0,2.586 -1.149,3.879 -3.438,3.879 -1.023,0 -1.851,-0.39 -2.488,-1.172 -0.633,-0.781 -0.949,-1.683 -0.949,-2.707 l 0,-24.496 -7.024,0 0,34.813 7.024,0 0,-3.367 c 1.558,2.535 3.73,3.804 6.507,3.804 2.829,0 4.95,-1.195 6.364,-3.582 z"
       style="fill:#000000;fill-opacity:1;fill-rule:nonzero;stroke:none"
       id="path5010" /><path
       d="m 82.633,36.699 0,48.778 20.769,0 0,-6.582 -13.898,0 0,-14.625 12.215,0 0,-6.512 -12.215,0 0,-21.059 -6.871,0 z m 33.14,48.778 0,-38.762 c 0,-1.168 0.196,-2.02 0.586,-2.559 0.391,-0.535 1.168,-0.804 2.34,-0.804 l 0.512,0 0,-6.653 -1.535,0 c -1.121,0 -2.172,0.121 -3.145,0.364 -0.976,0.246 -1.949,0.746 -2.926,1.5 -0.976,0.753 -1.695,1.73 -2.156,2.925 -0.465,1.196 -0.695,2.473 -0.695,3.84 l 0,40.149 7.019,0 z m 7.911,-45.121 c -0.34,0.585 -0.559,1.23 -0.657,1.937 -0.097,0.707 -0.148,1.5 -0.148,2.379 l 0,3.945 c 0,2.586 0.648,4.512 1.937,5.778 1.293,1.269 2.465,2.132 3.512,2.597 1.051,0.461 2.305,0.696 3.766,0.696 l 4.679,0 0,2.996 c 0,0.683 -0.035,1.246 -0.109,1.683 -0.07,0.438 -0.375,1 -0.914,1.68 -0.535,0.684 -1.266,1.027 -2.191,1.027 -0.977,0 -1.805,-0.316 -2.489,-0.953 -0.683,-0.633 -1.097,-1.461 -1.242,-2.484 l -6.949,0 c 0,2.828 1.012,5.25 3.035,7.273 2.024,2.024 4.473,3.035 7.352,3.035 2.828,0 5.289,-0.996 7.386,-2.996 2.098,-2 3.145,-4.437 3.145,-7.312 l 0,-24.938 -7.024,0 0,3.508 c -0.73,-1.219 -1.644,-2.18 -2.738,-2.887 -1.097,-0.707 -2.332,-1.062 -3.695,-1.062 -3.074,0 -5.289,1.367 -6.656,4.098 z m 6.218,8.335 0,-1.753 c 0,-0.926 0.328,-1.77 0.989,-2.524 0.656,-0.758 1.519,-1.133 2.593,-1.133 0.586,0 1.133,0.145 1.645,0.438 0.512,0.293 0.902,0.695 1.172,1.207 0.265,0.512 0.414,1.168 0.437,1.972 0.024,0.805 0.035,1.379 0.035,1.719 l 0,3.367 -2.632,0 c -1.266,0 -2.289,-0.246 -3.071,-0.734 -0.781,-0.488 -1.168,-1.34 -1.168,-2.559 z m 7.504,29.258 0,8.117 6.067,0 0,-8.117 -6.067,0 z m -13.168,0 0,8.117 6.071,0 0,-8.117 -6.071,0 z m 45.985,-31.234 c 0,-2.875 -1.051,-5.336 -3.145,-7.383 -2.098,-2.051 -4.586,-3.074 -7.461,-3.074 -1.562,0 -3.109,0.402 -4.644,1.207 -1.535,0.805 -2.696,1.769 -3.473,2.891 -0.781,1.121 -1.328,2.265 -1.648,3.437 -0.317,1.168 -0.473,2.363 -0.473,3.582 l 0,13.602 c 0,2.879 0.988,5.425 2.961,7.644 1.973,2.219 4.426,3.324 7.348,3.324 3.023,0 5.535,-1.07 7.535,-3.214 2,-2.145 3,-4.731 3,-7.754 l -6.95,0 c 0,1.074 -0.304,2.023 -0.914,2.855 -0.609,0.828 -1.449,1.242 -2.523,1.242 -0.633,0 -1.184,-0.136 -1.645,-0.402 -0.464,-0.27 -0.878,-0.684 -1.242,-1.242 -0.367,-0.563 -0.551,-1.379 -0.551,-2.453 l 0,-13.602 c 0,-1.269 0.27,-2.266 0.805,-3 0.539,-0.73 1.438,-1.094 2.703,-1.094 1.028,0 1.844,0.375 2.453,1.133 0.61,0.754 0.914,1.668 0.914,2.742 l 6.95,0 0,-0.441 z m 18.629,25.23 c 1.265,0 2.461,-0.339 3.582,-1.019 1.121,-0.684 1.925,-1.477 2.414,-2.379 0.488,-0.902 0.793,-1.672 0.914,-2.305 0.121,-0.633 0.183,-1.461 0.183,-2.484 l 0,-27.059 -7.023,0 0,24.426 c 0,1.168 -0.266,2.121 -0.805,2.852 -0.535,0.73 -1.387,1.097 -2.558,1.097 -1.024,0 -1.864,-0.402 -2.52,-1.207 -0.66,-0.804 -0.988,-1.719 -0.988,-2.742 l 0,-24.426 -7.024,0 0,48.778 7.024,0 0,-17.332 c 1.605,2.535 3.875,3.8 6.801,3.8 z m 23.043,-28.593 c 1.023,0 1.851,0.32 2.484,0.953 0.637,0.633 1.023,1.461 1.172,2.484 l 6.949,0 0,-0.801 c 0,-1.074 -0.234,-2.148 -0.695,-3.218 -0.465,-1.075 -1.426,-2.426 -2.891,-4.063 -1.461,-1.633 -3.754,-2.449 -6.875,-2.449 -2,0 -3.84,0.535 -5.519,1.609 -1.684,1.074 -2.84,2.254 -3.477,3.547 -0.633,1.293 -1.035,2.465 -1.203,3.512 -0.172,1.047 -0.258,2.082 -0.258,3.109 l 0,13.235 c 0,2.875 1.035,5.375 3.109,7.496 2.071,2.121 4.547,3.179 7.422,3.179 2.977,0 5.45,-1.035 7.426,-3.105 1.973,-2.074 2.961,-4.594 2.961,-7.57 l 0,-9.653 -13.895,0 0,-5.191 c 0,-0.731 0.352,-1.426 1.059,-2.086 0.707,-0.656 1.449,-0.988 2.231,-0.988 z m 0.144,21.722 c -0.926,0 -1.73,-0.316 -2.41,-0.953 -0.684,-0.633 -1.024,-1.754 -1.024,-3.363 l 0,-3.438 6.872,0 0,3.438 c 0,1.269 -0.266,2.305 -0.805,3.109 -0.535,0.805 -1.414,1.207 -2.633,1.207 z m 35.801,3.289 c 0.39,-0.586 0.66,-1.293 0.805,-2.121 0.144,-0.828 0.218,-1.656 0.218,-2.484 l 0,-27.059 -7.019,0 0,24.496 c 0,2.586 -1.149,3.879 -3.438,3.879 -1.023,0 -1.855,-0.39 -2.488,-1.172 -0.633,-0.781 -0.949,-1.683 -0.949,-2.707 l 0,-24.496 -7.024,0 0,34.809 7.024,0 0,-3.363 c 1.558,2.535 3.73,3.8 6.508,3.8 2.828,0 4.949,-1.191 6.363,-3.582 z m 53.363,-31.664 -20.769,0 0,6.434 12.945,25.16 c 0.586,1.168 0.879,2.363 0.879,3.582 l 0,3.656 c 0,0.977 -0.344,1.805 -1.024,2.489 -0.683,0.679 -1.511,1.023 -2.488,1.023 -0.879,0 -1.668,-0.305 -2.375,-0.914 -0.707,-0.613 -1.062,-1.379 -1.062,-2.305 l 0,-4.316 -7.02,0 0,3.512 c 0,1.898 0.719,4.191 2.156,6.875 1.438,2.679 4.328,4.023 8.668,4.023 2.727,0 5.094,-1.051 7.094,-3.148 1.996,-2.094 2.996,-4.508 2.996,-7.239 l 0,-4.461 c 0,-1.023 -0.133,-2.023 -0.402,-3 -0.266,-0.972 -0.668,-1.972 -1.207,-2.996 l -10.969,-21.429 12.578,0 0,-6.946 z m 23.942,12.137 c 0,-0.926 0.035,-1.617 0.109,-2.082 0.074,-0.465 0.437,-1.172 1.098,-2.121 0.656,-0.953 1.863,-1.426 3.617,-1.426 0.976,0 1.879,0.207 2.707,0.621 0.828,0.414 1.437,0.949 1.828,1.61 0.391,0.656 0.598,1.339 0.621,2.046 0.027,0.707 0.039,1.184 0.039,1.426 l 0,3.438 c 0,0.976 -0.039,1.707 -0.109,2.195 -0.075,0.488 -0.367,1.012 -0.879,1.57 -0.512,0.563 -1.246,1.075 -2.196,1.535 -0.949,0.465 -2.605,1.137 -4.972,2.012 -2.363,0.879 -4.352,2.258 -5.961,4.133 -1.609,1.879 -2.414,4.449 -2.414,7.715 l 0,2.195 c 0,3.317 1.109,6.18 3.328,8.594 2.219,2.414 4.984,3.621 8.301,3.621 3.363,0 6.179,-1.184 8.449,-3.551 2.266,-2.363 3.398,-5.25 3.398,-8.664 l 0,-2.195 -6.945,0 0,2.195 c 0,0.684 -0.051,1.266 -0.148,1.754 -0.098,0.488 -0.489,1.195 -1.168,2.121 -0.684,0.926 -1.828,1.391 -3.438,1.391 -1.414,0 -2.574,-0.5 -3.476,-1.5 -0.903,-1 -1.352,-2.254 -1.352,-3.766 l 0,-2.195 c 0,-0.926 0.035,-1.594 0.109,-2.012 0.075,-0.414 0.332,-0.887 0.77,-1.426 0.437,-0.535 1.07,-1 1.902,-1.386 0.828,-0.391 2.426,-1.012 4.789,-1.868 2.364,-0.851 4.45,-2.242 6.254,-4.168 1.801,-1.925 2.703,-4.546 2.703,-7.859 l 0,-3.953 c 0,-1.609 -0.156,-3.02 -0.472,-4.238 -0.321,-1.219 -1.305,-2.914 -2.965,-5.086 -1.656,-2.168 -4.508,-3.254 -8.555,-3.254 -4.191,0 -7.242,1.379 -9.14,4.133 -1.903,2.754 -2.852,5.57 -2.852,8.445 l 0,1.758 7.02,0 0,-1.758 z m 32.886,-5.484 1.61,0 0,-6.653 -2.192,0 c -1.32,0 -2.488,0.133 -3.511,0.403 -1.024,0.265 -2.024,0.816 -3,1.644 -0.973,0.828 -1.657,1.742 -2.047,2.742 -0.391,1 -0.586,2.231 -0.586,3.692 l 0,20.843 -3.438,0 0,5.485 3.438,0 0,10.531 7.023,0 0,-10.531 4.313,0 0,-5.485 -4.313,0 0,-19.597 c 0,-1.172 0.156,-1.977 0.473,-2.414 0.32,-0.438 1.062,-0.66 2.23,-0.66 z m 20.504,-6.653 0,3.582 c -0.683,-1.172 -1.586,-2.133 -2.707,-2.89 -1.121,-0.754 -2.363,-1.133 -3.73,-1.133 -3.168,0 -5.168,0.867 -5.996,2.598 -0.829,1.73 -1.282,2.972 -1.356,3.73 -0.07,0.754 -0.109,1.766 -0.109,3.035 l 0,18.793 c 0,2.098 0.707,3.875 2.121,5.34 1.414,1.461 3.195,2.191 5.34,2.191 1.316,0 2.547,-0.339 3.691,-1.019 1.149,-0.684 2.063,-1.586 2.746,-2.707 l 0,17.258 7.02,0 0,-48.778 -7.02,0 z m -0.515,26.692 c -0.68,1.172 -1.68,1.757 -2.997,1.757 -0.683,0 -1.304,-0.183 -1.863,-0.55 -0.562,-0.367 -0.941,-0.805 -1.137,-1.317 -0.195,-0.511 -0.304,-1.047 -0.328,-1.609 -0.023,-0.563 -0.035,-0.988 -0.035,-1.277 l 0,-12.508 c 0,-0.489 0.012,-0.973 0.035,-1.461 0.024,-0.488 0.254,-1.125 0.696,-1.903 0.437,-0.781 1.339,-1.171 2.707,-1.171 1.414,0 2.34,0.39 2.777,1.171 0.438,0.778 0.66,1.559 0.66,2.34 l 0,13.532 c 0,0.488 -0.015,0.988 -0.039,1.5 -0.023,0.511 -0.183,1.007 -0.476,1.496 z m 13.988,-26.692 0,6.946 6.945,0 0,-6.946 -6.945,0 z"
       style="fill:#000000;fill-opacity:1;fill-rule:nonzero;stroke:none"
       id="path5012" /><g
       id="g5014"><g
         id="g5016" /><g
         id="g5030"
         mask="url(#mask5022)"><g
           id="g5032" /><g
           id="g5064"><g
             clip-path="url(#clipPath5034)"
             id="g5066"><g
               id="g5068"><path
                 d="m 0,0 481.30899,0 0,264.461 L 0,264.461 0,0 Z"
                 style="fill:url(#pattern5042);fill-opacity:1;fill-rule:nonzero;stroke:none"
                 id="path5070" /></g></g></g></g></g><g
       style="opacity:0.8516498"
       id="g2826"
       transform="matrix(0.08495609,0,0,0.08495609,316.11089,153.71608)"><g
         id="g3657"
         transform="matrix(2.0525389,0,0,2.0525389,-1.0523742,-1.0523742)"><path
           style="fill:#154889;fill-opacity:1;fill-rule:nonzero;stroke:none"
           id="path2834"
           d="m 0.9998436,0.9998436 0,425.1945564 311.8089564,0 0,-425.1945564 -311.8089564,0 z" /><path
           style="fill:#ffffff;fill-opacity:1;fill-rule:nonzero;stroke:none"
           id="path2830"
           transform="matrix(0.8,0,0,-0.8,0,427)"
           d="M 141.84375,223.71875 74,280.65625 c 30.29595,36.105 74.9926,56.96875 122.125,56.96875 47.1315,0 91.86075,-20.86375 122.15625,-56.96875 l -67.875,-56.9375 c -13.4655,16.047 -33.33525,25.3125 -54.28125,25.3125 -20.9475,0 -40.8177,-9.2655 -54.28125,-25.3125 z" /><path
           style="fill:#231f20;fill-opacity:1;fill-rule:evenodd;stroke:none"
           id="path2832"
           d="m 125.9148,233.6184 2.4528,-1.416 -4.2516,-7.3644 -2.454,1.4172 4.2528,7.3632 z m -23.50788,-28.9788 4.20792,-2.43 -0.75888,-1.314 c -0.21288,-0.3696 -0.32484,-0.7884 -0.32484,-1.2156 0,-1.3416 1.08696,-2.4288 2.42904,-2.4288 0.8676,0 1.66968,0.4632 2.10372,1.2144 l 4.10016,7.1016 c 0.21288,0.3684 0.3258,0.7884 0.3258,1.2144 0,1.3428 -1.08792,2.43 -2.43,2.43 -0.6576,0 -1.28904,-0.2676 -1.74564,-0.7404 l -3.73728,2.178 9.11196,15.7812 12.09912,-6.9852 -2.2776,-3.9468 -8.41764,4.86 -4.5768,-7.9284 c 0.43128,0.1008 0.8718,0.1524 1.31484,0.1524 3.18696,0 5.77032,-2.5836 5.77032,-5.7708 0,-1.0128 -0.26628,-2.0076 -0.77304,-2.8848 l -4.55532,-7.8912 c -1.30164,-2.2548 -3.70872,-3.6432 -6.3126,-3.6432 -4.02516,0 -7.28904,3.2628 -7.28904,7.2876 0,1.2804 0.33696,2.5368 0.9768,3.6456 l 0.759,1.314 z m -7.5108,-15.4188 0.85968,1.4904 2.01,0.2436 1.4034,-0.8124 -5.66904,-9.8184 -1.40292,0.81 4.80888,8.3292 -2.01,-0.2424 z m 1.41,-10.5168 8.19096,6.4944 -2.63112,1.5168 -0.81,-1.4028 -1.40208,0.81 1.61904,2.8068 5.61192,-3.24 -0.75984,-1.3152 -8.24112,-6.5808 -1.57776,0.9108 z m 59.18148,46.2312 2.8344,0 0,-8.5032 -2.8344,0 0,8.5032 z m 1.4208,-11.3376 5.4672,0 -5.6052,-14.3352 c 0.6252,0.24 1.2912,0.3648 1.9608,0.3648 3.0192,0 5.4672,-2.448 5.4672,-5.4672 l -0.001,-7.5924 c 0,-4.026 -3.2628,-7.29 -7.2888,-7.29 -4.026,0 -7.2888,3.264 -7.2888,7.29 l 0,6.378 c 0,0.8784 0.1584,1.7496 0.4692,2.5716 l 6.8196,18.0804 z m -2.43,-27.03 c 0,-1.3428 1.0884,-2.43 2.43,-2.43 1.3416,0 2.43,1.0872 2.43,2.43 l 0,6.378 c 0,1.3416 -1.0884,2.4288 -2.43,2.4288 -1.3416,0 -2.43,-1.0872 -2.43,-2.4288 l 0,-6.378 z m -3.8532,-15.5916 0,1.7208 1.62,1.2156 1.62,0 0,-11.3376 -1.62,0 0,9.6168 -1.62,-1.2156 z m 6.9876,-2.5044 c -0.7044,0.5568 -1.116,1.404 -1.116,2.3028 l 0,0 c 0,1.788 1.4508,3.24 3.24,3.24 1.7892,0 3.24,-1.452 3.24,-3.24 l 0,0 c 0,-0.8988 -0.4116,-1.746 -1.116,-2.3028 l 0,0 c 0.8268,-0.5892 1.3176,-1.542 1.3176,-2.556 l 0,0 c 0,-1.9008 -1.5408,-3.4428 -3.4416,-3.4428 -1.9008,0 -3.4416,1.542 -3.4416,3.4428 0,1.014 0.4908,1.9668 1.3176,2.556 z m 0.3024,-2.556 c 0,1.0056 0.816,1.8216 1.8216,1.8216 1.008,0 1.8228,-0.816 1.8228,-1.8216 0,-1.008 -0.8148,-1.824 -1.8228,-1.824 -1.0056,0 -1.8216,0.816 -1.8216,1.824 z m 0.2016,4.8588 c 0,0.894 0.726,1.62 1.62,1.62 0.8952,0 1.62,-0.726 1.62,-1.62 0,-0.894 -0.7248,-1.62 -1.62,-1.62 -0.894,0 -1.62,0.726 -1.62,1.62 z m 27.324,61.428 2.4552,1.416 4.2516,-7.3632 -2.4552,-1.4172 -4.2516,7.3644 z m 4.8396,-20.118 -4.2528,7.3644 12.6252,7.2888 2.2788,-3.9444 7.6284,-29.6136 -4.4724,-2.5812 -7.3644,29.7648 -4.7352,-2.7336 1.9752,-3.42 -3.6828,-2.1252 z m 18.102,-28.9428 -0.8604,1.4892 0.7956,1.8624 1.4028,0.81 5.6688,-9.8196 -1.404,-0.8088 -4.8084,8.328 -0.7944,-1.8612 z m 11.7408,-2.9244 -1.578,-0.912 -0.3324,5.4144 c -0.498,-0.6456 -1.2672,-1.0248 -2.0844,-1.0248 -0.9408,0 -1.8096,0.5004 -2.28,1.3164 l -0.456,0.7884 c -0.2832,0.4932 -0.4332,1.0512 -0.4332,1.62 0,1.7892 1.4496,3.24 3.24,3.24 1.1568,0 2.226,-0.618 2.8056,-1.62 l 0.252,-0.438 c 0.2508,-0.4332 0.3972,-0.9168 0.4284,-1.416 l 0.438,-6.9684 z m -5.328,6.3924 0.2532,-0.438 c 0.2892,-0.5016 0.8244,-0.81 1.404,-0.81 0.8928,0 1.62,0.726 1.62,1.62 0,0.2844 -0.0756,0.564 -0.2172,0.81 l -0.2544,0.438 c -0.2892,0.5016 -0.8232,0.81 -1.4016,0.81 -0.8952,0 -1.62,-0.7248 -1.62,-1.62 0,-0.2844 0.0756,-0.564 0.216,-0.81 z m -43.1676,40.1712 1.368,0.366 2.202,-8.214 -1.3692,-0.3672 -2.2008,8.2152 z m 26.868,15.0888 1.002,1.002 6.0132,-6.0132 -1.002,-1.0008 -6.0132,6.012 z m -84.1848,1.002 1.00212,-1.002 -6.01308,-6.012 -1.00176,1.0008 6.01272,6.0132 z m 26.502,-15.7248 1.3692,-0.366 -2.2008,-8.2152 -1.3692,0.3672 2.2008,8.214" /><path
           style="fill:#ffffff;fill-opacity:1;fill-rule:nonzero;stroke:none"
           id="path2836"
           d="m 87.49404,369.5016 5.18904,14.1732 1.77096,0 5.18904,-14.1732 -2.27808,0 -1.06692,3.1632 -5.46,0 -1.06584,-3.1632 -2.2782,0 z m 3.98388,5.0616 4.17984,0 -2.08968,6.2016 -2.09016,-6.2016 z m 10.18932,-5.0616 0,14.1732 2.025,0 6.45372,-10.1232 0,10.1232 2.15112,0 0,-14.1732 -2.025,0 -6.45288,10.1232 0,-10.1232 -2.15196,0 z m 13.92,0 0,14.1732 2.15196,0 0,-7.3392 5.946,7.3392 2.532,0 -4.5552,-5.568 5.0604,-8.6052 -2.5308,0 -3.9216,6.96 -2.5308,-2.658 0,-4.302 -2.15196,0 z m 12.40116,14.1732 2.1516,0 0,-9.2376 c 0,-1.608 1.3032,-2.9112 2.9112,-2.9112 1.6068,0 2.91,1.3032 2.91,2.9112 l 0,9.2376 2.1504,0 0,-9.2376 c 0,-2.796 -2.2656,-5.0616 -5.0604,-5.0616 -2.796,0 -5.0628,2.2656 -5.0628,5.0616 l 0,9.2376 z m 13.1616,-14.1732 0,14.1732 2.0244,0 6.4536,-10.1232 0,10.1232 2.1504,0 0,-14.1732 -2.0232,0 -6.4536,10.1232 0,-10.1232 -2.1516,0 z m 13.92,0 0,14.1732 9.1116,0 0,-2.0244 -6.96,0 0,-4.176 5.9472,0 0,-1.8984 -5.9472,0 0,-6.0744 -2.1516,0 z m 14.2992,0 0,12.276 -3.924,0 0,1.8972 9.9996,0 0,-1.8972 -3.924,0 0,-12.276 -2.1516,0 z m 6.834,1.824 1.3896,1.6416 c 1.0968,-0.9288 2.4888,-1.4388 3.9252,-1.4388 0.4968,0 0.9912,0.06 1.4724,0.1812 l 0,0 c 0.8448,0.2112 1.4376,0.9708 1.4376,1.842 0,0.9516 -0.7056,1.7568 -1.6488,1.8816 l -2.2992,0.3036 c -2.0148,0.2676 -3.5184,1.9848 -3.5184,4.0152 0,2.0484 1.53,3.7728 3.5628,4.02 l 0,0 c 0.33,0.0396 0.6612,0.06 0.9936,0.06 1.6716,0 3.3048,-0.5076 4.6824,-1.4568 L 184.98,380.604 c -1.0188,0.7008 -2.226,1.0776 -3.462,1.0776 -0.246,0 -0.4908,-0.0156 -0.7356,-0.0456 l 0,0 c -0.9528,-0.1152 -1.6692,-0.924 -1.6692,-1.884 0,-0.9516 0.7056,-1.7568 1.6488,-1.8816 l 2.3004,-0.3048 c 2.0124,-0.2664 3.5172,-1.9836 3.5172,-4.014 0,-1.8588 -1.2648,-3.4788 -3.0672,-3.9288 l 0,0 c -0.6528,-0.1644 -1.3224,-0.246 -1.9944,-0.246 -1.9464,0 -3.8304,0.69 -5.3148,1.9488 z m 12.1476,-1.824 0,1.7712 6.4548,10.5048 -6.2016,0 0,1.8972 8.8584,0 0,-1.6452 -6.4536,-10.5036 6.4536,0 0,-2.0244 -9.1116,0 z m 11.8968,0 0,14.1732 9.1104,0 0,-2.0244 -6.96,0 0,-4.0488 5.9472,0 0,-1.8996 -5.9472,0 0,-4.176 6.96,0 0,-2.0244 -9.1104,0 z m 11.8944,0 0,14.1732 2.1504,0 0,-14.1732 -2.1504,0 z m 8.0988,0 0,12.276 -3.9228,0 0,1.8972 9.9972,0 0,-1.8972 -3.9228,0 0,-12.276 -2.1516,0" /><path
           style="fill:#ffffff;fill-opacity:1;fill-rule:nonzero;stroke:none"
           id="path2838"
           d="m 156.9048,241.9428 -24.6852,92.1264 49.3692,0 -24.684,-92.1264" /><path
           style="fill:#ffffff;fill-opacity:1;fill-rule:nonzero;stroke:none"
           id="path2840"
           d="m 107.7708,29.34612 c -4.17468,0 -7.55856,3.38484 -7.55856,7.55904 l 0,98.26644 c 0,4.176 3.38388,7.56 7.55856,7.56 l 98.2668,0 c 4.1748,0 7.56,-3.384 7.56,-7.56 l 0,-98.26644 c 0,-4.1742 -3.3852,-7.55904 -7.56,-7.55904 l -98.2668,0 z m 0,2.835 98.2668,0 c 2.61,0 4.7244,2.115 4.7244,4.72404 l 0,98.26644 c 0,2.61 -2.1144,4.7256 -4.7244,4.7256 l -98.2668,0 c -2.60856,0 -4.72356,-2.1156 -4.72356,-4.7256 l 0,-98.26644 c 0,-2.60904 2.115,-4.72404 4.72356,-4.72404 z m 21.732,14.17308 0,79.3698 31.182,0 c 13.3068,0 24.0936,-10.78788 24.0936,-24.0948 0,-13.30728 -10.7868,-24.0942 -24.0936,-24.0942 l -19.1352,0 0,-31.1808 -12.0468,0 z m 12.0468,42.51888 18.426,0 c 7.044,0 12.756,5.7108 12.756,12.75612 0,7.04484 -5.712,12.75564 -12.756,12.75564 l -18.426,0 0,-25.51176" /></g></g></g></svg>