<?xml version="1.0" encoding="UTF-8" standalone="no"?>
<!-- Created with Inkscape (http://www.inkscape.org/) -->

<svg
   xmlns:dc="http://purl.org/dc/elements/1.1/"
   xmlns:cc="http://creativecommons.org/ns#"
   xmlns:rdf="http://www.w3.org/1999/02/22-rdf-syntax-ns#"
   xmlns:svg="http://www.w3.org/2000/svg"
   xmlns="http://www.w3.org/2000/svg"
   xmlns:sodipodi="http://sodipodi.sourceforge.net/DTD/sodipodi-0.dtd"
   xmlns:inkscape="http://www.inkscape.org/namespaces/inkscape"
   width="159.18294mm"
   height="87.464973mm"
   viewBox="0 0 159.18294 87.464973"
   version="1.1"
   id="svg4347"
   inkscape:version="0.92.4 (33fec40, 2019-01-16)"
   sodipodi:docname="1040-36.svg">
  <defs
     id="defs4341" />
  <sodipodi:namedview
     id="base"
     pagecolor="#ffffff"
     bordercolor="#666666"
     borderopacity="1.0"
     inkscape:pageopacity="0.0"
     inkscape:pageshadow="2"
     inkscape:zoom="0.7"
     inkscape:cx="354.77041"
     inkscape:cy="203.67268"
     inkscape:document-units="mm"
     inkscape:current-layer="layer1"
     showgrid="false"
     fit-margin-top="0"
     fit-margin-left="0"
     fit-margin-right="0"
     fit-margin-bottom="0"
     inkscape:window-width="1366"
     inkscape:window-height="740"
     inkscape:window-x="1920"
     inkscape:window-y="0"
     inkscape:window-maximized="1" />
  <metadata
     id="metadata4344">
    <rdf:RDF>
      <cc:Work
         rdf:about="">
        <dc:format>image/svg+xml</dc:format>
        <dc:type
           rdf:resource="http://purl.org/dc/dcmitype/StillImage" />
        <dc:title></dc:title>
      </cc:Work>
    </rdf:RDF>
  </metadata>
  <g
     inkscape:label="Layer 1"
     inkscape:groupmode="layer"
     id="layer1"
     transform="translate(-0.53948934,-122.48775)">
    <path
       d="m 11.141013,122.61938 c -5.7735392,0 -10.46989345,4.68346 -10.46989345,10.43616 v 66.4134 c 0,5.75138 4.69635425,10.42954 10.46989345,10.42954 H 149.12354 c 5.77354,0 10.46691,-4.67816 10.46691,-10.42954 v -66.4134 c 0,-5.7527 -4.69337,-10.43616 -10.46691,-10.43616 z"
       style="fill:#ffffff;fill-opacity:1;fill-rule:nonzero;stroke:none;stroke-width:0.33072916"
       id="path4222"
       inkscape:connector-curvature="0" />
    <path
       d="M 11.137044,203.44794 H 149.11957 c 2.18447,0 3.95585,-1.76477 3.95585,-3.94163 v -66.48946 c 0,-2.17686 -1.77138,-3.94163 -3.95585,-3.94163 H 11.137044 c -2.1871119,0 -3.9571744,1.76477 -3.9571744,3.94163 v 66.48946 c 0,2.17686 1.7700625,3.94163 3.9571744,3.94163 z m 0.187193,3.75444 c -4.3702554,0 -7.9103804,-3.52822 -7.9103804,-7.88459 v -66.1111 c 0,-4.35505 3.540125,-7.88327 7.9103804,-7.88327 H 148.96843 c 4.37058,0 7.9117,3.52822 7.9117,7.88327 v 66.1111 c 0,4.35637 -3.54112,7.88459 -7.9117,7.88459"
       style="fill:#000000;fill-opacity:1;fill-rule:nonzero;stroke:none;stroke-width:0.33072916"
       id="path4224"
       inkscape:connector-curvature="0" />
    <path
       d="m 11.141013,122.48775 c -5.8459689,0 -10.60152366,4.74266 -10.60152366,10.56779 v 66.33435 c 0,5.82414 4.75555476,10.56283 10.60152366,10.56283 H 149.12354 c 5.84464,0 10.59888,-4.73869 10.59888,-10.56283 v -66.33435 c 0,-5.82513 -4.75291,-10.56779 -10.59888,-10.56779 z m 0,0.13163 H 149.12354 c 5.77354,0 10.46691,4.68346 10.46691,10.43616 v 66.33435 c 0,5.75171 -4.69337,10.42988 -10.46691,10.42988 H 11.141013 c -5.7735392,0 -10.46989345,-4.67817 -10.46989345,-10.42988 v -66.33435 c 0,-5.7527 4.69635425,-10.43616 10.46989345,-10.43616 z"
       style="fill:#000000;fill-opacity:1;fill-rule:nonzero;stroke:none;stroke-width:0.33072916"
       id="path4226"
       inkscape:connector-curvature="0" />
    <path
       d="m 27.509461,186.78878 c 0.700154,0.54504 1.493242,0.98954 2.379596,1.33052 0.886355,0.32313 1.816365,0.48584 2.788047,0.48584 1.126464,0 2.003558,-0.22985 2.635581,-0.69122 0.647237,-0.45971 0.971352,-1.07355 0.971352,-1.84084 0,-0.64856 -0.196454,-1.19492 -0.587706,-1.6381 -0.376039,-0.44318 -0.973005,-0.7157 -1.790568,-0.81789 -0.409773,-0.0516 -0.793419,-0.10319 -1.151268,-0.15379 l -1.254456,-0.17959 c -1.585185,-0.22093 -2.787716,-0.79309 -3.606932,-1.71284 -0.817893,-0.93795 -1.227336,-2.07235 -1.227336,-3.40321 0,-0.78416 0.127992,-1.50118 0.383646,-2.14841 0.272521,-0.64856 0.665427,-1.20254 1.177065,-1.66258 0.511638,-0.4779 1.134401,-0.84501 1.866635,-1.10067 0.733888,-0.27252 1.569641,-0.40944 2.507589,-0.40944 1.125471,0 2.183474,0.17959 3.171693,0.53744 0.989541,0.35784 1.901692,0.80995 2.737776,1.35632 l -1.534914,2.2764 c -0.665428,-0.42631 -1.381125,-0.76729 -2.148417,-1.02327 -0.750755,-0.25565 -1.536237,-0.38365 -2.3538,-0.38365 -0.852619,0 -1.577578,0.22093 -2.174544,0.66543 -0.579768,0.42631 -0.869156,1.07355 -0.869156,1.94436 0,0.51163 0.194799,0.99715 0.587706,1.45719 0.409442,0.44318 1.074869,0.73389 1.994627,0.86949 0.239117,0.0347 0.529828,0.0774 0.87081,0.12931 0.340982,0.0503 0.732565,0.10187 1.177065,0.15214 0.85262,0.10352 1.585185,0.3165 2.198688,0.63963 0.631692,0.32444 1.150937,0.72462 1.560711,1.20286 0.409442,0.4779 0.71702,1.01401 0.92108,1.61098 0.205383,0.5801 0.307579,1.17674 0.307579,1.79189 0,1.68705 -0.580099,2.99211 -1.740297,3.91319 -1.142008,0.92108 -2.693789,1.38112 -4.656006,1.38112 -1.346398,0 -2.600854,-0.20439 -3.759398,-0.61383 -1.160198,-0.40944 -2.226138,-1.03981 -3.19749,-1.89243 z"
       style="fill:#000000;fill-opacity:1;fill-rule:nonzero;stroke:none;stroke-width:0.33072916"
       id="path4238"
       inkscape:connector-curvature="0" />
    <path
       d="m 51.810117,189.11678 c -0.563231,0.64724 -1.236265,1.18467 -2.021747,1.61098 -0.767292,0.42631 -1.645708,0.63963 -2.634258,0.63963 -0.750424,0 -1.484312,-0.11906 -2.20001,-0.35784 -0.698831,-0.25599 -1.321594,-0.64724 -1.867959,-1.17707 -0.545372,-0.5285 -0.988549,-1.21047 -1.329531,-2.04622 -0.324114,-0.85295 -0.485841,-1.86697 -0.485841,-3.04403 0,-1.1936 0.161727,-2.20894 0.485841,-3.0437 0.340982,-0.83576 0.784159,-1.51805 1.329531,-2.04755 0.546365,-0.54537 1.169128,-0.93795 1.867959,-1.17574 0.715698,-0.25565 1.449586,-0.38365 2.20001,-0.38365 0.98855,0 1.866966,0.21332 2.634258,0.63963 0.785482,0.42631 1.458516,0.96243 2.021747,1.61099 l -1.918229,1.71417 c -0.324445,-0.39258 -0.708091,-0.71702 -1.152591,-0.97268 -0.443177,-0.25598 -0.937948,-0.38364 -1.482989,-0.38364 -1.07487,0 -1.909631,0.3165 -2.507589,0.94687 -0.578776,0.63037 -0.869487,1.66258 -0.869487,3.0953 0,1.41618 0.290711,2.43913 0.869487,3.06983 0.597958,0.63037 1.432719,0.94687 2.507589,0.94687 0.545041,0 1.039812,-0.12799 1.482989,-0.38364 0.4445,-0.25599 0.828146,-0.5801 1.152591,-0.97301 z"
       style="fill:#000000;fill-opacity:1;fill-rule:nonzero;stroke:none;stroke-width:0.33072916"
       id="path4240"
       inkscape:connector-curvature="0" />
    <path
       d="m 55.00893,173.00002 h 2.609784 v 6.62649 h 0.05027 c 0.409773,-0.51164 0.895284,-0.89529 1.458515,-1.15127 0.580099,-0.25565 1.21973,-0.38365 1.91856,-0.38365 0.511638,0 1.023276,0.1022 1.534914,0.30626 0.511638,0.18719 0.971352,0.46897 1.381125,0.84468 0.409443,0.37472 0.741495,0.84369 0.997149,1.40692 0.273844,0.56224 0.409773,1.2108 0.409773,1.94436 v 8.62112 h -2.60846 v -7.72584 c 0,-0.88734 -0.248047,-1.56964 -0.742817,-2.04622 -0.476912,-0.49477 -1.082808,-0.74281 -1.816365,-0.74281 -0.749432,0 -1.372195,0.24804 -1.866966,0.74281 -0.477904,0.47658 -0.715698,1.15888 -0.715698,2.04622 v 7.72584 H 55.00893 Z"
       style="fill:#000000;fill-opacity:1;fill-rule:nonzero;stroke:none;stroke-width:0.33072916"
       id="path4242"
       inkscape:connector-curvature="0" />
    <path
       d="m 69.447573,178.24406 h 2.608131 v 7.7255 c 0,0.88768 0.239117,1.57758 0.71702,2.07235 0.494771,0.47791 1.116211,0.71702 1.866967,0.71702 0.733888,0 1.339783,-0.23911 1.816364,-0.71702 0.494771,-0.49477 0.741495,-1.18467 0.741495,-2.07235 v -7.7255 h 2.609784 v 12.97087 H 77.19755 v -1.38245 h -0.05027 c -0.409443,0.51164 -0.904544,0.89528 -1.484312,1.15094 -0.56224,0.25598 -1.185003,0.38397 -1.866967,0.38397 -0.511638,0 -1.032205,-0.0933 -1.56071,-0.28045 -0.511638,-0.20539 -0.971352,-0.49477 -1.381125,-0.87081 -0.409443,-0.37472 -0.750425,-0.84369 -1.022946,-1.40693 -0.255984,-0.5619 -0.383646,-1.21046 -0.383646,-1.94435 z"
       style="fill:#000000;fill-opacity:1;fill-rule:nonzero;stroke:none;stroke-width:0.33072916"
       id="path4244"
       inkscape:connector-curvature="0" />
    <path
       d="m 83.885886,173.00002 h 2.608461 v 14.86363 c 0,0.59697 0.324115,0.89528 0.972674,0.89528 h 0.895284 v 2.456 h -1.151268 c -0.477904,0 -0.921081,-0.0519 -1.330523,-0.15379 -0.392576,-0.12006 -0.741495,-0.29832 -1.049073,-0.53744 -0.289388,-0.25598 -0.519245,-0.58009 -0.689901,-0.973 -0.170326,-0.40812 -0.255654,-0.90289 -0.255654,-1.48299 z"
       style="fill:#000000;fill-opacity:1;fill-rule:nonzero;stroke:none;stroke-width:0.33072916"
       id="path4246"
       inkscape:connector-curvature="0" />
    <path
       d="m 99.111003,182.13277 h -0.05159 l -2.711649,9.08216 H 94.045558 L 89.90086,178.24406 h 2.763573 l 2.481792,9.08215 h 0.05027 l 2.941836,-9.08215 h 1.893749 l 2.94184,9.08215 h 0.0503 l 2.48179,-9.08215 h 2.76324 l -4.14436,12.97087 h -2.30221 z"
       style="fill:#000000;fill-opacity:1;fill-rule:nonzero;stroke:none;stroke-width:0.33072916"
       id="path4248"
       inkscape:connector-curvature="0" />
    <path
       d="m 113.05322,185.71391 c 0,1.07487 0.28939,1.8759 0.86949,2.40539 0.5801,0.52851 1.32159,0.7921 2.22614,0.7921 0.49477,0 0.98954,-0.1098 1.48299,-0.33205 0.51163,-0.22225 0.96374,-0.52851 1.35665,-0.92108 l 1.89243,1.6123 c -0.64856,0.75043 -1.37319,1.28654 -2.17421,1.61098 -0.80103,0.32412 -1.63678,0.48584 -2.50627,0.48584 -0.66543,0 -1.33978,-0.0933 -2.02175,-0.28045 -0.68229,-0.18852 -1.30505,-0.52983 -1.86696,-1.02328 -0.54637,-0.49477 -0.99748,-1.16913 -1.35665,-2.02175 -0.34099,-0.85262 -0.51131,-1.94435 -0.51131,-3.27355 0,-1.2624 0.16272,-2.3204 0.48551,-3.17302 0.32444,-0.85262 0.74282,-1.53491 1.25446,-2.04655 0.51163,-0.52818 1.0828,-0.90289 1.71317,-1.12514 0.6317,-0.22225 1.26206,-0.33206 1.89409,-0.33206 0.7157,0 1.39766,0.128 2.04622,0.38365 0.64724,0.25598 1.21047,0.62144 1.6887,1.09934 0.49345,0.47824 0.88603,1.05834 1.17674,1.7403 0.28939,0.66411 0.43424,1.41453 0.43424,2.25061 v 2.14842 z m 5.4739,-2.14842 c -0.0337,-0.98954 -0.30625,-1.73897 -0.81789,-2.25061 -0.51164,-0.51164 -1.15094,-0.76861 -1.91823,-0.76861 -0.76762,0 -1.40692,0.25697 -1.91856,0.76861 -0.51164,0.51164 -0.78548,1.26107 -0.81922,2.25061 z"
       style="fill:#000000;fill-opacity:1;fill-rule:nonzero;stroke:none;stroke-width:0.33072916"
       id="path4250"
       inkscape:connector-curvature="0" />
    <path
       d="m 131.95902,189.85828 c -0.40944,0.44317 -0.90421,0.80995 -1.48431,1.10066 -0.5801,0.27252 -1.20286,0.40845 -1.86696,0.40845 -0.85262,0 -1.56964,-0.17065 -2.14974,-0.51163 -0.56191,-0.34099 -0.98822,-0.69917 -1.27893,-1.07355 -0.1872,-0.23912 -0.34099,-0.46897 -0.45972,-0.69122 -0.12038,-0.22225 -0.22225,-0.50271 -0.30758,-0.84369 -0.0685,-0.34099 -0.11873,-0.78549 -0.15378,-1.33053 -0.0334,-0.54537 -0.0503,-1.27 -0.0503,-2.17454 0,-0.90422 0.0169,-1.62884 0.0503,-2.17422 0.035,-0.54636 0.0853,-0.98954 0.15378,-1.33052 0.0853,-0.35785 0.1872,-0.64856 0.30758,-0.86949 0.11873,-0.22225 0.27252,-0.4521 0.45972,-0.69122 0.29071,-0.37472 0.71702,-0.73257 1.27893,-1.07355 0.5801,-0.34098 1.29712,-0.51164 2.14974,-0.51164 0.6641,0 1.26107,0.128 1.79089,0.38365 0.54505,0.25598 1.06561,0.63963 1.56038,1.15127 v -1.38245 h 2.60847 v 12.66329 c 0,0.97168 -0.15379,1.81636 -0.46005,2.53206 -0.30725,0.71702 -0.72463,1.30506 -1.25313,1.7661 -0.51164,0.47691 -1.10828,0.82682 -1.79057,1.04775 -0.68196,0.23911 -1.39005,0.35917 -2.12394,0.35917 -0.83575,0 -1.65365,-0.20538 -2.45567,-0.61483 -0.78416,-0.39158 -1.46645,-0.91215 -2.04655,-1.56071 l 2.02043,-1.61098 c 0.32444,0.32411 0.70048,0.59664 1.12679,0.81889 0.44318,0.23779 0.91215,0.35784 1.40692,0.35784 0.86949,0 1.57725,-0.23878 2.12262,-0.71702 0.56323,-0.47658 0.84468,-1.17541 0.84468,-2.09649 z m -5.14184,-5.11605 v 1.25313 c 0.0169,0.32445 0.0427,0.59697 0.0764,0.81922 0.0334,0.20406 0.0853,0.37471 0.15379,0.51163 0.0685,0.1356 0.16139,0.28146 0.28145,0.43392 0.18752,0.23912 0.44317,0.46898 0.76762,0.69123 0.34098,0.20406 0.7749,0.30757 1.3034,0.30757 0.51164,0 0.93034,-0.10351 1.25446,-0.30757 0.34098,-0.22225 0.60457,-0.45211 0.79309,-0.69123 0.11906,-0.15246 0.21332,-0.29832 0.28045,-0.43392 0.0685,-0.13692 0.12006,-0.30757 0.15379,-0.51163 0.0347,-0.22225 0.0516,-0.49477 0.0516,-0.81922 0.0169,-0.32411 0.0258,-0.74149 0.0258,-1.25313 0,-0.52818 -0.009,-0.95449 -0.0258,-1.27893 0,-0.32412 -0.0169,-0.58903 -0.0516,-0.79309 -0.0337,-0.22225 -0.0853,-0.40051 -0.15379,-0.53744 -0.0671,-0.13559 -0.16139,-0.28178 -0.28045,-0.43424 -0.18852,-0.23879 -0.45211,-0.46104 -0.79309,-0.6651 -0.32412,-0.22225 -0.74282,-0.33337 -1.25446,-0.33337 -0.5285,0 -0.96242,0.11112 -1.3034,0.33337 -0.32445,0.20406 -0.5801,0.42631 -0.76762,0.6651 -0.12006,0.15246 -0.21299,0.29865 -0.28145,0.43424 -0.0685,0.13693 -0.12039,0.31519 -0.15379,0.53744 -0.0337,0.20406 -0.0595,0.46897 -0.0764,0.79309 z"
       style="fill:#000000;fill-opacity:1;fill-rule:nonzero;stroke:none;stroke-width:0.33072916"
       id="path4252"
       inkscape:connector-curvature="0" />
  </g>
</svg>
