<?xml version="1.0" encoding="UTF-8" standalone="no"?>
<svg
   xmlns:dc="http://purl.org/dc/elements/1.1/"
   xmlns:cc="http://creativecommons.org/ns#"
   xmlns:rdf="http://www.w3.org/1999/02/22-rdf-syntax-ns#"
   xmlns:svg="http://www.w3.org/2000/svg"
   xmlns="http://www.w3.org/2000/svg"
   viewBox="0 0 600 450.00342"
   height="450.00342"
   width="600"
   xml:space="preserve"
   version="1.1"
   id="svg3640"><metadata
     id="metadata3646"><rdf:RDF><cc:Work
         rdf:about=""><dc:format>image/svg+xml</dc:format><dc:type
           rdf:resource="http://purl.org/dc/dcmitype/StillImage" /><dc:title></dc:title></cc:Work></rdf:RDF></metadata><defs
     id="defs3644" /><g
     transform="matrix(1.25,0,0,-1.25,0,450.00343)"
     id="g3648"><g
       id="g3650"><path
         id="path3652"
         style="fill:#ffffff;fill-opacity:1;fill-rule:nonzero;stroke:none"
         d="m 31.996,359.761 c -17.504,0 -31.754,-14.25 -31.754,-31.754 l 0,-296.008 c 0,-17.516 14.25,-31.758 31.754,-31.758 l 416.008,0 c 17.516,0 31.766,14.242 31.766,31.758 l 0,296.008 c 0,17.504 -14.25,31.754 -31.766,31.754" /><path
         id="path3654"
         style="fill:#000000;fill-opacity:1;fill-rule:nonzero;stroke:none"
         d="M 31.996,0.471 C 14.613,0.471 0.473,14.612 0.473,31.999 l 0,295.996 c 0,17.383 14.14,31.535 31.523,31.535 l 416.008,0 c 17.383,0 31.523,-14.152 31.523,-31.535 l 0,-295.996 c 0,-17.387 -14.14,-31.528 -31.523,-31.528 l -416.008,0 z m 416.008,359.532 -416.008,0 C 14.328,360.003 0,345.675 0,327.995 L 0,31.999 c 0,-17.684 14.328,-32 31.996,-32 l 416.008,0 c 17.668,0 31.996,14.316 31.996,32 l 0,295.996 c 0,17.68 -14.328,32.008 -31.996,32.008" /><path
         id="path3656"
         style="fill:#000000;fill-opacity:1;fill-rule:nonzero;stroke:none"
         d="m 31.996,351.999 c -13.25,0 -23.992,-10.746 -23.992,-23.996 l 0,-296.004 c 0,-13.25 10.742,-24.004 23.992,-24.004 l 416.008,0 c 13.25,0 24.004,10.754 24.004,24.004 l 0,296.004 c 0,13.25 -10.754,23.996 -24.004,23.996 l -416.008,0 z m 0,-11.996 416.008,0 c 6.629,0 12.004,-5.367 12.004,-12 l 0,-296.004 c 0,-6.633 -5.375,-11.996 -12.004,-11.996 l -416.008,0 C 25.379,20.003 20,25.366 20,31.999 l 0,296.004 c 0,6.633 5.379,12 11.996,12 z" /><path
         id="path3658"
         style="fill:#000000;fill-opacity:1;fill-rule:nonzero;stroke:none"
         d="m 122.027,264.495 c 0,4.719 -1.472,8.664 -4.488,11.293 -2.32,2.086 -5.18,3.324 -10.285,4.098 l -6.266,0.929 c -2.554,0.387 -4.797,1.317 -6.187,2.551 -1.473,1.316 -2.09,3.094 -2.09,5.105 0,4.875 3.559,8.586 10.055,8.586 4.64,0 8.586,-1.003 11.988,-4.253 l 5.34,5.261 c -4.719,4.406 -9.824,6.262 -17.094,6.262 -11.449,0 -18.41,-6.574 -18.41,-16.164 0,-4.484 1.316,-7.969 4.023,-10.52 2.395,-2.242 5.953,-3.789 10.442,-4.41 l 6.496,-0.926 c 3.25,-0.464 4.64,-1.007 6.035,-2.32 1.469,-1.316 2.164,-3.328 2.164,-5.726 0,-5.336 -4.176,-8.43 -11.371,-8.43 -5.645,0 -10.055,1.238 -14.078,5.262 L 82.734,255.6 c 5.258,-5.339 11.215,-7.273 19.493,-7.273 11.523,0 19.8,6.035 19.8,16.168 z" /><path
         id="path3660"
         style="fill:#000000;fill-opacity:1;fill-rule:nonzero;stroke:none"
         d="m 160.84,253.897 -5.414,5.184 c -2.477,-2.707 -4.41,-3.715 -7.504,-3.715 -3.016,0 -5.57,1.238 -7.27,3.48 -1.703,2.168 -2.32,5.028 -2.32,9.594 0,4.563 0.617,7.348 2.32,9.512 1.7,2.242 4.254,3.48 7.27,3.48 3.094,0 5.027,-1.003 7.504,-3.711 l 5.414,5.258 c -3.715,3.946 -7.504,5.492 -12.918,5.492 -8.817,0 -17.481,-5.335 -17.481,-20.031 0,-14.695 8.664,-20.113 17.481,-20.113 5.414,0 9.203,1.625 12.918,5.57 z" /><path
         id="path3662"
         style="fill:#000000;fill-opacity:1;fill-rule:nonzero;stroke:none"
         d="m 201.555,248.792 0,25.293 c 0,8.508 -4.875,14.386 -13.614,14.386 -3.867,0 -7.425,-1.468 -10.132,-4.406 l 0,19.801 -7.891,0 0,-55.074 7.891,0 0,24.054 c 0,5.879 3.558,8.586 7.964,8.586 4.411,0 7.891,-2.628 7.891,-8.586 l 0,-24.054 7.891,0 z" /><path
         id="path3664"
         style="fill:#000000;fill-opacity:1;fill-rule:nonzero;stroke:none"
         d="m 244.98,248.792 0,39.215 -7.89,0 0,-23.899 c 0,-6.035 -3.711,-8.742 -8.121,-8.742 -4.407,0 -7.891,2.633 -7.891,8.742 l 0,23.899 -7.887,0 0,-25.059 c 0,-4.41 0.926,-8.121 3.946,-11.062 2.32,-2.243 5.644,-3.559 9.668,-3.559 3.945,0 7.734,1.473 10.441,4.41 l 0,-3.945 7.734,0 z" /><path
         id="path3666"
         style="fill:#000000;fill-opacity:1;fill-rule:nonzero;stroke:none"
         d="m 271.332,248.792 0,6.73 -3.48,0 c -3.172,0 -4.254,1.547 -4.254,4.563 l 0,43.781 -7.891,0 0,-44.246 c 0,-5.801 3.25,-10.828 10.75,-10.828 l 4.875,0 z" /><path
         id="path3668"
         style="fill:#000000;fill-opacity:1;fill-rule:nonzero;stroke:none"
         d="m 312.059,268.44 c 0,5.953 -0.465,12.606 -4.411,16.551 -2.164,2.168 -5.566,3.48 -9.511,3.48 -4.18,0 -7.426,-1.003 -10.289,-4.406 l 0,19.801 -7.891,0 0,-55.074 7.738,0 0,4.176 c 2.938,-3.555 6.11,-4.641 10.364,-4.641 3.945,0 7.425,1.316 9.589,3.48 3.946,3.946 4.411,10.676 4.411,16.633 z m -7.891,0 c 0,-6.961 -1.004,-13.074 -8.121,-13.074 -7.117,0 -8.199,6.113 -8.199,13.074 0,6.961 1.082,12.992 8.199,12.992 7.117,0 8.121,-6.031 8.121,-12.992 z" /><path
         id="path3670"
         style="fill:#000000;fill-opacity:1;fill-rule:nonzero;stroke:none"
         d="m 354.164,248.792 0,39.215 -7.887,0 0,-23.899 c 0,-6.035 -3.715,-8.742 -8.121,-8.742 -4.41,0 -7.89,2.633 -7.89,8.742 l 0,23.899 -7.891,0 0,-25.059 c 0,-4.41 0.93,-8.121 3.945,-11.062 2.321,-2.243 5.649,-3.559 9.668,-3.559 3.946,0 7.735,1.473 10.442,4.41 l 0,-3.945 7.734,0 z" /><path
         id="path3672"
         style="fill:#000000;fill-opacity:1;fill-rule:nonzero;stroke:none"
         d="m 397.277,260.78 c 0,6.965 -4.328,10.445 -11.679,11.063 l -6.188,0.543 c -4.176,0.386 -5.414,2.164 -5.414,4.484 0,2.937 2.399,5.027 7.117,5.027 3.711,0 7.192,-0.773 9.668,-2.863 l 4.949,5.031 c -3.632,3.168 -8.66,4.406 -14.539,4.406 -8.199,0 -14.773,-4.332 -14.773,-11.988 0,-6.883 4.254,-10.211 11.602,-10.828 l 6.265,-0.543 c 3.789,-0.308 5.258,-2.012 5.258,-4.641 0,-3.71 -3.789,-5.414 -8.586,-5.414 -3.867,0 -8.121,0.852 -11.293,4.102 l -5.18,-5.184 c 4.641,-4.562 10.055,-5.648 16.473,-5.648 9.359,0 16.32,4.254 16.32,12.453 z" /><path
         id="path3674"
         style="fill:#000000;fill-opacity:1;fill-rule:nonzero;stroke:none"
         d="m 167.672,208.921 -6.141,0 -5.523,-20.11 -6.59,20.11 -4.453,0 -6.645,-20.11 -5.523,20.11 -6.082,0 8.844,-28.563 4.957,0 6.648,19.946 6.703,-19.946 4.903,0 8.902,28.563 z" /><path
         id="path3676"
         style="fill:#000000;fill-opacity:1;fill-rule:nonzero;stroke:none"
         d="m 193.801,192.979 0,2.535 c 0,8.114 -4.453,13.747 -12.113,13.747 -7.325,0 -12.114,-5.352 -12.114,-14.59 0,-10.875 5.692,-14.649 12.844,-14.649 5.016,0 7.777,1.52 10.707,4.449 l -3.664,3.438 c -2.027,-2.027 -3.719,-2.93 -6.93,-2.93 -4.676,0 -7.265,3.098 -7.265,8 l 18.535,0 z m -5.692,4 -12.843,0 c 0.054,1.746 0.168,2.59 0.73,3.887 0.902,2.141 2.988,3.605 5.692,3.605 2.703,0 4.73,-1.464 5.632,-3.605 0.563,-1.297 0.735,-2.141 0.789,-3.887 z" /><path
         id="path3678"
         style="fill:#000000;fill-opacity:1;fill-rule:nonzero;stroke:none"
         d="m 219.863,206.557 c -1.968,1.973 -4.054,2.704 -6.816,2.704 -3.211,0 -6.141,-1.411 -7.606,-3.438 l 0,3.098 -5.632,0 0,-28.563 5.746,0 0,17.352 c 0,3.945 2.593,6.426 5.691,6.426 1.973,0 2.984,-0.622 4.281,-1.918 l 4.336,4.339 z" /><path
         id="path3680"
         style="fill:#000000;fill-opacity:1;fill-rule:nonzero;stroke:none"
         d="m 247.926,180.358 -11.153,17.352 9.915,11.211 -6.985,0 -11.101,-13.18 0,24.73 -5.747,0 0,-40.113 5.747,0 0,8.395 4.226,4.789 8,-13.184 7.098,0 z" /><path
         id="path3682"
         style="fill:#000000;fill-opacity:1;fill-rule:nonzero;stroke:none"
         d="m 265.719,180.358 0,4.903 -2.364,0 c -2.14,0 -3.156,1.238 -3.156,3.324 l 0,15.437 5.52,0 0,4.395 -5.52,0 0,8.676 -5.746,0 0,-8.676 -3.269,0 0,-4.395 3.269,0 0,-15.718 c 0,-4.114 2.477,-7.946 7.832,-7.946 l 3.434,0 z" /><path
         id="path3684"
         style="fill:#000000;fill-opacity:1;fill-rule:nonzero;stroke:none"
         d="m 292.445,180.358 0,19.098 c 0,6.48 -3.941,9.805 -11.773,9.805 -4.731,0 -7.551,-0.957 -10.254,-4.114 l 3.773,-3.547 c 1.579,2.028 3.102,2.758 6.254,2.758 4.453,0 6.254,-1.746 6.254,-5.351 l 0,-2.028 -7.547,0 c -6.535,0 -9.859,-3.437 -9.859,-8.226 0,-2.422 0.789,-4.617 2.254,-6.141 1.746,-1.746 4.109,-2.59 7.66,-2.59 3.551,0 5.523,0.844 7.605,2.93 l 0,-2.594 5.633,0 z m -5.746,10.313 c 0,-2.032 -0.394,-3.383 -1.238,-4.227 -1.52,-1.465 -3.156,-1.633 -5.352,-1.633 -3.605,0 -5.238,1.465 -5.238,4.055 0,2.59 1.746,4.113 5.125,4.113 l 6.703,0 0,-2.308 z" /><path
         id="path3686"
         style="fill:#000000;fill-opacity:1;fill-rule:nonzero;stroke:none"
         d="m 323.055,180.53 0,28.391 -5.578,0 0,-3.039 c -2.141,2.589 -4.45,3.379 -7.493,3.379 -2.871,0 -5.296,-0.903 -6.871,-2.481 -2.761,-2.758 -3.215,-6.758 -3.215,-11.605 0,-4.844 0.454,-8.844 3.215,-11.606 1.575,-1.578 3.942,-2.535 6.817,-2.535 2.929,0 5.293,0.789 7.379,3.27 l 0,-3.665 c 0,-3.828 -1.86,-7.265 -6.704,-7.265 -2.816,0 -4.394,0.844 -6.199,2.535 l -3.66,-3.664 c 2.984,-2.758 5.746,-3.774 10.082,-3.774 7.606,0 12.227,5.071 12.227,12.059 z m -5.746,14.645 c 0,-4.504 -0.621,-8.957 -5.805,-8.957 -5.18,0 -5.856,4.453 -5.856,8.957 0,4.507 0.676,8.961 5.856,8.961 5.184,0 5.805,-4.454 5.805,-8.961 z" /><path
         id="path3688"
         style="fill:#000000;fill-opacity:1;fill-rule:nonzero;stroke:none"
         d="m 353.301,189.093 c 0,5.07 -3.156,7.605 -8.508,8.054 l -4.508,0.395 c -3.043,0.281 -3.945,1.578 -3.945,3.269 0,2.141 1.746,3.66 5.183,3.66 2.707,0 5.243,-0.562 7.043,-2.085 l 3.606,3.664 c -2.649,2.308 -6.309,3.211 -10.59,3.211 -5.973,0 -10.762,-3.157 -10.762,-8.731 0,-5.016 3.098,-7.437 8.45,-7.891 l 4.566,-0.394 c 2.758,-0.223 3.828,-1.465 3.828,-3.379 0,-2.703 -2.758,-3.945 -6.254,-3.945 -2.816,0 -5.914,0.621 -8.222,2.988 l -3.778,-3.773 c 3.383,-3.325 7.324,-4.114 12,-4.114 6.82,0 11.891,3.098 11.891,9.071 z" /><path
         id="path3690"
         style="fill:#000000;fill-opacity:1;fill-rule:nonzero;stroke:none"
         d="m 66.762,47.557 0,19.102 c 0,6.477 -3.946,9.801 -11.774,9.801 -4.734,0 -7.55,-0.957 -10.254,-4.114 L 48.508,68.8 c 1.578,2.027 3.097,2.757 6.254,2.757 4.449,0 6.254,-1.746 6.254,-5.351 l 0,-2.027 -7.551,0 c -6.535,0 -9.86,-3.438 -9.86,-8.227 0,-2.422 0.79,-4.617 2.254,-6.141 1.746,-1.746 4.114,-2.59 7.664,-2.59 3.547,0 5.52,0.844 7.606,2.93 l 0,-2.594 5.633,0 z M 61.016,57.87 c 0,-2.027 -0.395,-3.383 -1.239,-4.227 -1.523,-1.464 -3.156,-1.632 -5.355,-1.632 -3.606,0 -5.238,1.464 -5.238,4.054 0,2.594 1.746,4.114 5.128,4.114 l 6.704,0 0,-2.309 z" /><path
         id="path3692"
         style="fill:#000000;fill-opacity:1;fill-rule:nonzero;stroke:none"
         d="m 96.84,47.557 0,28.567 -5.746,0 0,-17.41 c 0,-4.395 -2.703,-6.368 -5.914,-6.368 -3.211,0 -5.746,1.918 -5.746,6.368 l 0,17.41 -5.75,0 0,-18.254 c 0,-3.211 0.679,-5.918 2.875,-8.059 1.691,-1.632 4.113,-2.59 7.043,-2.59 2.871,0 5.632,1.071 7.605,3.211 l 0,-2.875 5.633,0 z" /><path
         id="path3694"
         style="fill:#000000;fill-opacity:1;fill-rule:nonzero;stroke:none"
         d="m 128.051,56.124 0,9.293 c 0,3.605 -1.129,5.242 -3.551,6.48 2.027,1.297 3.492,3.211 3.492,6.535 0,6.649 -5.012,9.633 -11.547,9.633 -7.101,0 -12.058,-3.66 -12.058,-11.097 l 0,-29.411 5.804,0 0,29.071 c 0,3.89 1.633,6.367 6.082,6.367 2.086,0 3.551,-0.395 4.567,-1.352 0.844,-0.789 1.406,-2.027 1.406,-3.379 0,-2.761 -1.801,-4.226 -4.168,-4.226 l -1.746,0 0,-4.563 1.973,0 c 1.238,0 2.25,-0.394 2.929,-1.07 0.731,-0.676 1.012,-1.578 1.012,-2.988 l 0,-8.789 c 0,-1.465 -0.394,-2.59 -1.184,-3.211 -0.789,-0.676 -1.519,-0.957 -2.929,-0.957 l -1.801,0 0,-4.903 2.984,0 c 2.93,0 4.844,0.735 6.422,2.2 1.524,1.406 2.313,3.66 2.313,6.367 z" /><path
         id="path3696"
         style="fill:#000000;fill-opacity:1;fill-rule:nonzero;stroke:none"
         d="m 157.348,60.179 0,2.535 c 0,8.113 -4.45,13.746 -12.114,13.746 -7.324,0 -12.113,-5.352 -12.113,-14.59 0,-10.875 5.691,-14.649 12.848,-14.649 5.011,0 7.773,1.52 10.703,4.45 l -3.66,3.437 c -2.032,-2.027 -3.719,-2.929 -6.93,-2.929 -4.676,0 -7.27,3.097 -7.27,8 l 18.536,0 z m -5.692,4 -12.844,0 c 0.059,1.746 0.168,2.593 0.735,3.886 0.898,2.141 2.984,3.606 5.687,3.606 2.707,0 4.735,-1.465 5.637,-3.606 0.563,-1.293 0.731,-2.14 0.785,-3.886 z" /><path
         id="path3698"
         style="fill:#000000;fill-opacity:1;fill-rule:nonzero;stroke:none"
         d="m 183.414,73.757 c -1.973,1.972 -4.059,2.703 -6.816,2.703 -3.211,0 -6.141,-1.406 -7.606,-3.438 l 0,3.102 -5.637,0 0,-28.567 5.75,0 0,17.356 c 0,3.941 2.59,6.422 5.688,6.422 1.973,0 2.988,-0.621 4.281,-1.918 l 4.34,4.34 z" /><path
         id="path3700"
         style="fill:#000000;fill-opacity:1;fill-rule:nonzero;stroke:none"
         d="m 225.867,56.292 c 0,5.07 -3.156,7.605 -8.508,8.054 l -4.507,0.395 c -3.043,0.281 -3.942,1.578 -3.942,3.27 0,2.14 1.746,3.66 5.18,3.66 2.707,0 5.242,-0.563 7.043,-2.082 l 3.605,3.66 c -2.648,2.308 -6.308,3.211 -10.59,3.211 -5.972,0 -10.761,-3.153 -10.761,-8.731 0,-5.015 3.097,-7.437 8.453,-7.886 l 4.562,-0.395 c 2.758,-0.227 3.832,-1.465 3.832,-3.383 0,-2.703 -2.761,-3.941 -6.254,-3.941 -2.82,0 -5.918,0.617 -8.226,2.984 l -3.774,-3.773 c 3.379,-3.324 7.325,-4.114 12,-4.114 6.817,0 11.887,3.098 11.887,9.071 z" /><path
         id="path3702"
         style="fill:#000000;fill-opacity:1;fill-rule:nonzero;stroke:none"
         d="m 253.812,47.557 0,19.102 c 0,6.477 -3.945,9.801 -11.773,9.801 -4.734,0 -7.551,-0.957 -10.254,-4.114 l 3.774,-3.546 c 1.578,2.027 3.097,2.757 6.253,2.757 4.45,0 6.254,-1.746 6.254,-5.351 l 0,-2.027 -7.55,0 c -6.536,0 -9.86,-3.438 -9.86,-8.227 0,-2.422 0.789,-4.617 2.254,-6.141 1.746,-1.746 4.113,-2.59 7.664,-2.59 3.547,0 5.52,0.844 7.606,2.93 l 0,-2.594 5.632,0 z m -5.746,10.313 c 0,-2.027 -0.394,-3.383 -1.238,-4.227 -1.523,-1.464 -3.156,-1.632 -5.355,-1.632 -3.606,0 -5.239,1.464 -5.239,4.054 0,2.594 1.746,4.114 5.129,4.114 l 6.703,0 0,-2.309 z" /><path
         id="path3704"
         style="fill:#000000;fill-opacity:1;fill-rule:nonzero;stroke:none"
         d="m 301.582,47.557 0,18.254 c 0,3.211 -0.844,5.918 -3.043,8.059 -1.691,1.633 -4.281,2.59 -7.211,2.59 -3.773,0 -6.648,-1.352 -8.957,-4.168 -1.805,2.762 -4.562,4.168 -8.113,4.168 -2.875,0 -5.692,-1.125 -7.606,-3.211 l 0,2.875 -5.632,0 0,-28.567 5.746,0 0,17.411 c 0,4.394 2.703,6.367 5.914,6.367 3.211,0 5.746,-1.918 5.746,-6.367 l 0,-17.411 5.746,0 0,17.692 c 0,4.113 2.816,6.086 5.918,6.086 3.211,0 5.746,-1.918 5.746,-6.367 l 0,-17.411 5.746,0 z" /><path
         id="path3706"
         style="fill:#000000;fill-opacity:1;fill-rule:nonzero;stroke:none"
         d="m 331.551,56.292 c 0,5.07 -3.156,7.605 -8.508,8.054 l -4.508,0.395 c -3.039,0.281 -3.941,1.578 -3.941,3.27 0,2.14 1.746,3.66 5.183,3.66 2.703,0 5.239,-0.563 7.039,-2.082 l 3.61,3.66 c -2.649,2.308 -6.313,3.211 -10.594,3.211 -5.973,0 -10.762,-3.153 -10.762,-8.731 0,-5.015 3.102,-7.437 8.453,-7.886 l 4.563,-0.395 c 2.762,-0.227 3.832,-1.465 3.832,-3.383 0,-2.703 -2.762,-3.941 -6.254,-3.941 -2.816,0 -5.918,0.617 -8.226,2.984 l -3.774,-3.773 c 3.379,-3.324 7.324,-4.114 12,-4.114 6.816,0 11.887,3.098 11.887,9.071 z" /><path
         id="path3708"
         style="fill:#000000;fill-opacity:1;fill-rule:nonzero;stroke:none"
         d="m 350.426,47.557 0,4.903 -2.367,0 c -2.141,0 -3.153,1.238 -3.153,3.324 l 0,15.437 5.52,0 0,4.395 -5.52,0 0,8.676 -5.746,0 0,-8.676 -3.269,0 0,-4.395 3.269,0 0,-15.718 c 0,-4.114 2.477,-7.946 7.828,-7.946 l 3.438,0 z" /><path
         id="path3710"
         style="fill:#000000;fill-opacity:1;fill-rule:nonzero;stroke:none"
         d="m 377.152,47.557 0,19.102 c 0,6.477 -3.941,9.801 -11.773,9.801 -4.734,0 -7.551,-0.957 -10.254,-4.114 l 3.773,-3.546 c 1.579,2.027 3.102,2.757 6.254,2.757 4.453,0 6.254,-1.746 6.254,-5.351 l 0,-2.027 -7.551,0 c -6.535,0 -9.855,-3.438 -9.855,-8.227 0,-2.422 0.785,-4.617 2.25,-6.141 1.75,-1.746 4.113,-2.59 7.664,-2.59 3.551,0 5.52,0.844 7.606,2.93 l 0,-2.594 5.632,0 z m -5.746,10.313 c 0,-2.027 -0.394,-3.383 -1.238,-4.227 -1.523,-1.464 -3.156,-1.632 -5.352,-1.632 -3.605,0 -5.242,1.464 -5.242,4.054 0,2.594 1.746,4.114 5.129,4.114 l 6.703,0 0,-2.309 z" /><path
         id="path3712"
         style="fill:#000000;fill-opacity:1;fill-rule:nonzero;stroke:none"
         d="m 406.16,47.729 0,28.395 -5.578,0 0,-3.043 c -2.141,2.59 -4.449,3.379 -7.492,3.379 -2.871,0 -5.293,-0.903 -6.871,-2.477 -2.762,-2.762 -3.211,-6.762 -3.211,-11.605 0,-4.848 0.449,-8.848 3.211,-11.606 1.578,-1.578 3.941,-2.535 6.816,-2.535 2.93,0 5.297,0.785 7.379,3.266 l 0,-3.66 c 0,-3.832 -1.859,-7.27 -6.703,-7.27 -2.816,0 -4.395,0.844 -6.199,2.535 l -3.66,-3.66 c 2.984,-2.762 5.746,-3.777 10.086,-3.777 7.605,0 12.222,5.07 12.222,12.058 z m -5.746,14.649 c 0,-4.508 -0.617,-8.961 -5.801,-8.961 -5.183,0 -5.859,4.453 -5.859,8.961 0,4.504 0.676,8.957 5.859,8.957 5.184,0 5.801,-4.453 5.801,-8.957 z" /><path
         id="path3714"
         style="fill:#000000;fill-opacity:1;fill-rule:nonzero;stroke:none"
         d="m 436.406,56.292 c 0,5.07 -3.156,7.605 -8.508,8.054 l -4.507,0.395 c -3.043,0.281 -3.942,1.578 -3.942,3.27 0,2.14 1.746,3.66 5.18,3.66 2.707,0 5.242,-0.563 7.043,-2.082 l 3.605,3.66 c -2.648,2.308 -6.308,3.211 -10.589,3.211 -5.973,0 -10.762,-3.153 -10.762,-8.731 0,-5.015 3.097,-7.437 8.453,-7.886 l 4.562,-0.395 c 2.758,-0.227 3.829,-1.465 3.829,-3.383 0,-2.703 -2.758,-3.941 -6.25,-3.941 -2.821,0 -5.918,0.617 -8.227,2.984 l -3.773,-3.773 c 3.378,-3.324 7.324,-4.114 12,-4.114 6.816,0 11.886,3.098 11.886,9.071 z" /><path
         id="path3716"
         style="fill:#000000;fill-opacity:1;fill-rule:nonzero;stroke:none"
         d="m 111.789,146.546 0,5.125 -23.887,0 0,-11.434 5.52,0 0,6.309 12.226,0 -13.464,-34.989 6.199,0 13.406,34.989 z" /><path
         id="path3718"
         style="fill:#000000;fill-opacity:1;fill-rule:nonzero;stroke:none"
         d="m 116.566,129.87 16.453,0 0,-5.352 -16.453,0 0,5.352 z" /><path
         id="path3720"
         style="fill:#000000;fill-opacity:1;fill-rule:nonzero;stroke:none"
         d="m 162.055,140.011 c 0,7.437 -4.957,12 -11.887,12 -6.93,0 -11.832,-4.848 -11.832,-12.227 0,-7.043 4.676,-11.605 10.476,-11.605 1.243,0 2.536,0.167 3.61,0.621 l -8.621,-17.243 6.14,0 9.125,18.594 c 1.746,3.492 2.989,6.59 2.989,9.86 z m -5.746,-0.114 c 0,-4.34 -2.536,-6.929 -6.141,-6.929 -3.832,0 -6.086,2.984 -6.086,6.929 0,4.282 2.48,6.985 6.086,6.985 3.605,0 6.141,-2.703 6.141,-6.985 z" /><path
         id="path3722"
         style="fill:#000000;fill-opacity:1;fill-rule:nonzero;stroke:none"
         d="m 261.086,111.557 5.746,0 0,40.114 -5.746,0 -5.746,-4.223 0,-6.086 5.746,4.227 0,-34.032 z" /><path
         id="path3724"
         style="fill:#000000;fill-opacity:1;fill-rule:nonzero;stroke:none"
         d="m 281.992,111.557 5.746,0 0,40.114 -5.746,0 -5.746,-4.223 0,-6.086 5.746,4.227 0,-34.032 z" /><path
         id="path3726"
         style="fill:#000000;fill-opacity:1;fill-rule:nonzero;stroke:none"
         d="m 296.645,130.038 16.957,0 0,-5.746 -16.957,0 0,5.746 z" /><path
         id="path3728"
         style="fill:#000000;fill-opacity:1;fill-rule:nonzero;stroke:none"
         d="m 326.508,111.557 5.746,0 0,40.114 -5.746,0 -5.75,-4.223 0,-6.086 5.75,4.227 0,-34.032 z" /><path
         id="path3730"
         style="fill:#000000;fill-opacity:1;fill-rule:nonzero;stroke:none"
         d="m 364.289,123.221 c 0,4.958 -2.195,7.942 -5.633,9.465 3.098,1.52 5.016,4.282 5.016,8.563 0,6.648 -4.848,11.211 -11.664,11.211 -6.422,0 -11.438,-4.114 -11.774,-10.93 l 5.746,0 c 0.282,3.551 2.536,5.746 6.028,5.746 3.269,0 5.914,-2.14 5.914,-6.195 0,-3.664 -1.914,-6.086 -6.082,-6.086 l -0.957,0 0,-5.012 0.957,0 c 4.508,0 6.703,-2.535 6.703,-6.594 0,-4.226 -2.816,-6.648 -6.535,-6.648 -3.324,0 -6.309,1.805 -6.535,6.086 l -5.746,0 c 0.226,-7.832 5.859,-11.27 12.281,-11.27 6.703,0 12.281,3.946 12.281,11.664 z" /><path
         id="path3732"
         style="fill:#000000;fill-opacity:1;fill-rule:nonzero;stroke:none"
         d="m 374.926,111.952 0,40.113 5.746,0 0,-14.308 0.113,0 c 0.602,0.902 1.317,1.632 2.141,2.195 0.863,0.602 1.953,0.902 3.269,0.902 l 0.45,0 c 1.351,-0.113 2.589,-0.695 3.718,-1.746 1.164,-1.051 1.746,-2.797 1.746,-5.238 l 0,-21.918 -5.746,0 0,19.777 c 0,1.051 -0.246,1.875 -0.734,2.477 -0.488,0.601 -1.18,0.902 -2.082,0.902 -1.051,0 -1.805,-0.336 -2.254,-1.015 -0.414,-0.676 -0.621,-1.653 -0.621,-2.93 l 0,-19.211 -5.746,0 z" /><path
         id="path3734"
         style="fill:#000000;fill-opacity:1;fill-rule:nonzero;stroke:none"
         d="m 171.922,111.557 0,40.114 5.746,0 0,-14.309 0.113,0 c 0.598,0.902 1.313,1.633 2.141,2.195 0.863,0.602 1.953,0.903 3.266,0.903 l 0.453,0 c 1.351,-0.114 2.589,-0.696 3.714,-1.746 1.165,-1.051 1.75,-2.797 1.75,-5.239 l 0,-21.918 -5.75,0 0,19.778 c 0,1.051 -0.242,1.875 -0.73,2.476 -0.488,0.602 -1.184,0.903 -2.086,0.903 -1.051,0 -1.801,-0.336 -2.254,-1.016 -0.41,-0.676 -0.617,-1.652 -0.617,-2.926 l 0,-19.215 -5.746,0 z" /></g></g></svg>