<?xml version="1.0" encoding="UTF-8" standalone="no"?>
<!-- Created with Inkscape (http://www.inkscape.org/) -->

<svg
   xmlns:dc="http://purl.org/dc/elements/1.1/"
   xmlns:cc="http://creativecommons.org/ns#"
   xmlns:rdf="http://www.w3.org/1999/02/22-rdf-syntax-ns#"
   xmlns:svg="http://www.w3.org/2000/svg"
   xmlns="http://www.w3.org/2000/svg"
   xmlns:sodipodi="http://sodipodi.sourceforge.net/DTD/sodipodi-0.dtd"
   xmlns:inkscape="http://www.inkscape.org/namespaces/inkscape"
   width="158.75mm"
   height="87.3125mm"
   viewBox="0 0 158.75 87.3125"
   version="1.1"
   id="svg4471"
   inkscape:version="0.92.4 (33fec40, 2019-01-16)"
   sodipodi:docname="1042-31.svg">
  <defs
     id="defs4465">
    <clipPath
       clipPathUnits="userSpaceOnUse"
       id="clipPath5336">
      <path
         d="M 0,0 H 480 V 264 H 0 Z"
         id="path5338"
         inkscape:connector-curvature="0" />
    </clipPath>
  </defs>
  <sodipodi:namedview
     id="base"
     pagecolor="#ffffff"
     bordercolor="#666666"
     borderopacity="1.0"
     inkscape:pageopacity="0.0"
     inkscape:pageshadow="2"
     inkscape:zoom="0.49497475"
     inkscape:cx="415.09792"
     inkscape:cy="74.170379"
     inkscape:document-units="mm"
     inkscape:current-layer="layer1"
     showgrid="false"
     fit-margin-top="0"
     fit-margin-left="0"
     fit-margin-right="0"
     fit-margin-bottom="0"
     inkscape:window-width="1366"
     inkscape:window-height="740"
     inkscape:window-x="1920"
     inkscape:window-y="0"
     inkscape:window-maximized="1" />
  <metadata
     id="metadata4468">
    <rdf:RDF>
      <cc:Work
         rdf:about="">
        <dc:format>image/svg+xml</dc:format>
        <dc:type
           rdf:resource="http://purl.org/dc/dcmitype/StillImage" />
        <dc:title></dc:title>
      </cc:Work>
    </rdf:RDF>
  </metadata>
  <g
     inkscape:label="Layer 1"
     inkscape:groupmode="layer"
     id="layer1"
     transform="translate(12.851191,-65.867559)">
    <g
       id="g5330"
       transform="matrix(0.33072917,0,0,-0.33072917,-12.851191,153.18006)">
      <g
         id="g5332">
        <g
           id="g5334"
           clip-path="url(#clipPath5336)">
          <g
             id="g5340">
            <path
               d="M 31.996,263.77 C 14.484,263.77 0.242,249.516 0.242,232.004 V 32.008 C 0.242,14.492 14.484,0.25 31.996,0.25 h 416.008 c 17.512,0 31.754,14.242 31.754,31.758 v 199.996 c 0,17.512 -14.242,31.766 -31.754,31.766"
               style="fill:#ffffff;fill-opacity:1;fill-rule:nonzero;stroke:none"
               id="path5342"
               inkscape:connector-curvature="0" />
            <path
               d="M 31.996,0.48 C 14.613,0.48 0.48,14.625 0.48,32.008 v 199.996 c 0,17.383 14.133,31.527 31.516,31.527 h 416.008 c 17.383,0 31.516,-14.144 31.516,-31.527 V 32.008 C 479.52,14.625 465.387,0.48 448.004,0.48 Z M 448.004,264.012 H 31.996 C 14.32,264.012 0,249.68 0,232.004 V 32.008 C 0,14.34 14.32,0 31.996,0 H 448.004 C 465.672,0 480,14.34 480,32.008 v 199.996 c 0,17.676 -14.328,32.008 -31.996,32.008"
               style="fill:#000000;fill-opacity:1;fill-rule:nonzero;stroke:none"
               id="path5344"
               inkscape:connector-curvature="0" />
          </g>
        </g>
      </g>
    </g>
    <path
       d="M -2.2691805,146.56283 H 135.3168 c 2.1924,0 3.96875,-1.77635 3.96875,-3.96875 V 76.44957 c 0,-2.192404 -1.77635,-3.96875 -3.96875,-3.96875 H -2.2691805 c -2.1924036,0 -3.96875,1.776346 -3.96875,3.96875 v 66.14451 c 0,2.1924 1.7763464,3.96875 3.96875,3.96875 z m 0,3.96875 c -4.3848073,0 -7.9375005,-3.55269 -7.9375005,-7.9375 V 76.44957 c 0,-4.384808 3.5526932,-7.9375 7.9375005,-7.9375 H 135.3168 c 4.38481,0 7.9375,3.552692 7.9375,7.9375 v 66.14451 c 0,4.38481 -3.55269,7.9375 -7.9375,7.9375"
       style="fill:#000000;fill-opacity:1;fill-rule:nonzero;stroke:none;stroke-width:0.33072916"
       id="path5346"
       inkscape:connector-curvature="0" />
    <path
       d="M 7.1916582,104.75933 2.2317128,88.884325 H 5.6038274 L 8.5803899,99.998479 12.151273,88.884325 h 2.380919 l 3.574521,11.114154 2.974247,-11.114154 h 3.37443 L 19.495775,104.75933 H 16.716658 L 13.342229,93.644841 9.9704446,104.75933"
       style="fill:#000000;fill-opacity:1;fill-rule:nonzero;stroke:none;stroke-width:0.33072916"
       id="path5348"
       inkscape:connector-curvature="0" />
    <path
       d="m 30.012963,95.233994 h 6.746544 c 0,-1.86432 -1.511432,-3.371784 -3.374429,-3.371784 -1.864321,0 -3.372115,1.507464 -3.372115,3.371784 z m 9.91956,2.777464 h -9.91956 v 0.398198 c 0,1.378148 0.838729,2.619704 2.120305,3.130024 1.764771,0.70809 3.783872,0.21332 5.021461,-1.23098 l 2.409362,2.06971 c -2.123943,2.4712 -5.586016,3.32151 -8.610534,2.10939 -2.48543,-0.99451 -4.117248,-3.40023 -4.117248,-6.078144 v -3.175662 c 0,-3.618508 2.933899,-6.548768 6.548769,-6.548768 3.617185,0 6.547445,2.93026 6.547445,6.548768"
       style="fill:#000000;fill-opacity:1;fill-rule:nonzero;stroke:none;stroke-width:0.33072916"
       id="path5350"
       inkscape:connector-curvature="0" />
    <path
       d="M 44.29914,104.75933 V 88.884325 h 3.173016 v 1.790568 c 1.862667,-2.300883 5.234781,-2.658732 7.535664,-0.799703 0.0036,0.0026 0.0036,0.0026 0.0063,0.0026 l -2.256896,2.786394 c -1.310018,-1.169128 -3.314898,-1.048743 -4.483034,0.259953 -0.517922,0.582414 -0.803341,1.331846 -0.803341,2.109721 V 104.758"
       style="fill:#000000;fill-opacity:1;fill-rule:nonzero;stroke:none;stroke-width:0.33072916"
       id="path5352"
       inkscape:connector-curvature="0" />
    <path
       d="M 57.396346,104.75933 V 82.534656 h 3.175662 v 13.889302 l 6.150901,-7.539633 h 3.769651 l -5.357482,6.15057 6.149578,9.724435 h -3.965112 l -4.167518,-7.344508 -2.580018,2.778788 v 4.56572"
       style="fill:#000000;fill-opacity:1;fill-rule:nonzero;stroke:none;stroke-width:0.33072916"
       id="path5354"
       inkscape:connector-curvature="0" />
    <path
       d="M 80.413112,104.75933 H 78.43006 c -1.971477,0 -3.570883,-1.59941 -3.570883,-3.57089 v -9.724097 h -1.587831 v -2.580018 h 1.587831 v -4.764484 h 3.176984 v 4.764484 h 2.376951 v 2.580018 h -2.376951 v 9.326237 c 0,0.54636 0.440532,0.99086 0.986896,0.99086 h 1.390055"
       style="fill:#000000;fill-opacity:1;fill-rule:nonzero;stroke:none;stroke-width:0.33072916"
       id="path5356"
       inkscape:connector-curvature="0" />
    <path
       d="m 93.115097,97.81269 h -4.563071 c -1.095375,0 -1.985367,0.889992 -1.985367,1.987021 0,1.095379 0.889992,1.981729 1.985367,1.981729 h 2.580018 c 1.097029,0 1.983053,-0.88635 1.983053,-1.981729 z m 3.175661,6.94664 h -3.175661 v -1.63943 c -0.560586,1.01005 -1.625204,1.63943 -2.778787,1.63943 h -1.983052 c -2.628966,0 -4.760846,-2.1342 -4.760846,-4.760851 0,-2.634258 2.13188,-4.764485 4.760846,-4.764485 h 4.761839 v -1.589153 c 0,-0.868164 -0.622433,-1.609659 -1.480344,-1.758157 -1.117534,-0.19513 -2.267479,-0.19513 -3.39262,0 -0.560586,0.09823 -1.03882,0.456076 -1.28819,0.966391 l -2.511227,-1.987021 c 0.753071,-1.113565 1.928813,-1.87325 3.253052,-2.10443 1.486959,-0.260945 3.00236,-0.260945 4.489318,0 2.373313,0.412089 4.105672,2.473855 4.105672,4.883217"
       style="fill:#000000;fill-opacity:1;fill-rule:nonzero;stroke:none;stroke-width:0.33072916"
       id="path5358"
       inkscape:connector-curvature="0" />
    <path
       d="m 110.18006,98.608424 v -3.573529 c 0,-1.751541 -1.4185,-3.172685 -3.17665,-3.172685 -1.75055,0 -3.17302,1.421144 -3.17302,3.172685 v 3.573529 c 0,1.751876 1.42247,3.173016 3.17302,3.173016 1.75815,0 3.17665,-1.42114 3.17665,-3.173016 z m 3.17665,-9.724099 v 16.073765 c 0,2.40573 -1.35632,4.60177 -3.51002,5.67928 -3.03478,1.51673 -6.71778,0.72099 -8.85594,-1.90929 l 2.4636,-2.00522 c 1.20154,1.48068 3.26728,1.92518 4.97119,1.07487 1.07487,-0.53875 1.75452,-1.6381 1.75452,-2.83964 v -1.98933 c -1.85903,2.30088 -5.23081,2.65873 -7.53566,0.7997 -1.25578,-1.02063 -1.98967,-2.55158 -1.98967,-4.167848 v -5.557904 c 0,-2.958373 2.39779,-5.357482 5.36145,-5.357482 1.61363,0 3.14722,0.731242 4.16388,1.989667 v -1.790568"
       style="fill:#000000;fill-opacity:1;fill-rule:nonzero;stroke:none;stroke-width:0.33072916"
       id="path5360"
       inkscape:connector-curvature="0" />
    <path
       d="m 117.32546,102.21536 2.23904,-2.250285 c 1.85275,1.842165 4.60573,2.435155 7.05115,1.516725 0.81789,-0.30758 1.23395,-1.2237 0.92637,-2.041261 -0.22093,-0.58936 -0.76332,-0.990865 -1.38609,-1.027245 l -3.37211,-0.21299 c -2.62632,-0.162719 -4.62227,-2.423583 -4.45691,-5.050234 0.13031,-2.087563 1.60701,-3.84605 3.64067,-4.334206 2.95837,-0.709414 6.07715,-0.01422 8.4541,1.880857 l -1.97909,2.481792 c -1.61362,-1.284222 -3.72996,-1.754519 -5.73352,-1.273639 -0.85394,0.202737 -1.37848,1.060649 -1.17309,1.914592 0.16272,0.675679 0.74943,1.167804 1.44429,1.211791 l 3.37179,0.21299 c 2.62665,0.162719 4.62392,2.423583 4.45723,5.046263 -0.12005,1.87458 -1.32424,3.50639 -3.08239,4.16521 -3.60727,1.35268 -7.67027,0.47658 -10.40144,-2.24036"
       style="fill:#000000;fill-opacity:1;fill-rule:nonzero;stroke:none;stroke-width:0.33072916"
       id="path5362"
       inkscape:connector-curvature="0" />
  </g>
</svg>
