<?xml version="1.0" encoding="UTF-8" standalone="no"?>
<svg
   xmlns:dc="http://purl.org/dc/elements/1.1/"
   xmlns:cc="http://creativecommons.org/ns#"
   xmlns:rdf="http://www.w3.org/1999/02/22-rdf-syntax-ns#"
   xmlns:svg="http://www.w3.org/2000/svg"
   xmlns="http://www.w3.org/2000/svg"
   viewBox="0 0 600 450.005"
   height="450.005"
   width="600"
   xml:space="preserve"
   version="1.1"
   id="svg4077"><metadata
     id="metadata4083"><rdf:RDF><cc:Work
         rdf:about=""><dc:format>image/svg+xml</dc:format><dc:type
           rdf:resource="http://purl.org/dc/dcmitype/StillImage" /><dc:title></dc:title></cc:Work></rdf:RDF></metadata><defs
     id="defs4081" /><g
     transform="matrix(1.25,0,0,-1.25,0,450.005)"
     id="g4085"><g
       id="g4087"><path
         id="path4089"
         style="fill:#ffffff;fill-opacity:1;fill-rule:nonzero;stroke:none"
         d="m 31.996,359.762 c -17.504,0 -31.754,-14.25 -31.754,-31.754 L 0.242,32 c 0,-17.516 14.25,-31.758 31.754,-31.758 l 416.008,0 c 17.516,0 31.766,14.242 31.766,31.758 l 0,296.008 c 0,17.504 -14.25,31.754 -31.766,31.754" /><path
         id="path4091"
         style="fill:#000000;fill-opacity:1;fill-rule:nonzero;stroke:none"
         d="M 31.996,0.473 C 14.613,0.473 0.473,14.613 0.473,32 l 0,295.996 c 0,17.383 14.14,31.535 31.523,31.535 l 416.008,0 c 17.383,0 31.523,-14.152 31.523,-31.535 l 0,-295.996 c 0,-17.387 -14.14,-31.527 -31.523,-31.527 l -416.008,0 z m 416.008,359.531 -416.008,0 C 14.328,360.004 0,345.676 0,327.996 L 0,32 C 0,14.316 14.328,0 31.996,0 L 448.004,0 C 465.672,0 480,14.316 480,32 l 0,295.996 c 0,17.68 -14.328,32.008 -31.996,32.008" /><path
         id="path4093"
         style="fill:#000000;fill-opacity:1;fill-rule:nonzero;stroke:none"
         d="M 31.996,352 C 18.746,352 8.004,341.254 8.004,328.004 L 8.004,32 C 8.004,18.75 18.746,7.996 31.996,7.996 l 416.008,0 c 13.25,0 24.004,10.754 24.004,24.004 l 0,296.004 c 0,13.25 -10.754,23.996 -24.004,23.996 l -416.008,0 z m 0,-11.996 416.008,0 c 6.629,0 12.004,-5.367 12.004,-12 l 0,-296.004 c 0,-6.633 -5.375,-11.996 -12.004,-11.996 l -416.008,0 C 25.379,20.004 20,25.367 20,32 l 0,296.004 c 0,6.633 5.379,12 11.996,12 z" /><path
         id="path4095"
         style="fill:#000000;fill-opacity:1;fill-rule:nonzero;stroke:none"
         d="m 109.105,300.176 0,-21.758 15.184,0 c 3.797,0 6.629,1.145 8.496,3.426 1.867,2.285 2.801,4.769 2.801,7.453 0,4.074 -1.469,7.066 -4.398,8.98 -1.883,1.266 -4.305,1.899 -7.27,1.899 l -14.813,0 z m -10.23,-57.77 0,67.446 24.488,0 c 2.625,0 5.145,-0.278 7.571,-0.836 2.421,-0.555 4.945,-1.852 7.566,-3.887 2.039,-1.574 3.766,-3.742 5.184,-6.504 1.421,-2.762 2.132,-5.965 2.132,-9.605 0,-4.813 -1.8,-9.395 -5.394,-13.746 -3.594,-4.352 -8.848,-6.528 -15.762,-6.528 l -15.555,0 0,-26.34 -10.23,0 z m 82.285,0 0,4.258 -0.23,0 c -1.946,-3.207 -5.895,-4.812 -11.852,-4.812 -5.371,0 -9.535,1.394 -12.5,4.187 -2.961,2.793 -4.441,6.289 -4.441,10.485 0,3.796 1.312,7.113 3.933,9.953 2.625,2.839 6.528,4.257 11.711,4.257 l 13.379,0 0,5 c 0,4.106 -3.285,6.157 -9.859,6.157 -4.567,0 -7.61,-1.219 -9.121,-3.657 l -7.59,5.743 c 3.363,4.687 8.765,7.035 16.199,7.035 5.926,0 10.742,-1.16 14.445,-3.473 3.704,-2.316 5.266,-6.441 5.555,-12.359 l 0,-32.774 -9.629,0 z m 0,16.848 0,3.52 -11.574,0 c -5.586,0 -8.379,-1.93 -8.379,-5.786 0,-1.636 0.703,-3.054 2.109,-4.257 1.403,-1.207 3.743,-1.809 7.012,-1.809 4.012,0 6.82,0.449 8.426,1.344 1.605,0.894 2.406,3.226 2.406,6.988 z m 22.172,-16.848 0,48.051 9.676,0 0,-5.141 0.183,0 c 2.997,3.797 7.161,5.696 12.5,5.696 3.516,0 6.868,-1.235 10.043,-3.703 l -6.988,-8.332 c -2.098,1.574 -4.226,2.359 -6.387,2.359 -2.379,0 -4.531,-0.793 -6.457,-2.383 -1.929,-1.59 -3.09,-4.148 -2.894,-7.66 l 0,-28.887 -9.676,0 z m 40.047,0 0,67.446 9.676,0 0,-41.985 0.183,0 18.473,22.59 11.57,0 -16.57,-18.797 18.84,-29.254 -12.129,0 -12.777,22.45 -7.59,-8.657 0,-13.793 -9.676,0 z m 86.469,20.368 -29.903,0 c 0,-3.95 1.075,-6.915 3.219,-8.887 2.145,-1.977 4.883,-2.965 8.215,-2.965 3.98,0 7.5,1.543 10.555,4.629 l 6.988,-5.969 c -2.375,-2.777 -5.051,-4.762 -8.031,-5.949 -2.977,-1.188 -6.086,-1.781 -9.325,-1.781 -4.937,0 -9.722,1.597 -14.351,4.789 -4.629,3.195 -6.945,9.73 -6.945,19.605 0,9.352 2.14,15.817 6.414,19.395 4.273,3.582 8.738,5.371 13.398,5.371 5.277,0 9.891,-1.828 13.844,-5.488 3.949,-3.657 5.922,-8.586 5.922,-14.79 l 0,-7.96 z m -29.903,7.96 20.278,0 c -0.157,3.614 -1.176,6.375 -3.059,8.29 -1.879,1.91 -4.242,2.867 -7.082,2.867 -2.867,0 -5.254,-0.957 -7.148,-2.867 -1.899,-1.915 -2.895,-4.676 -2.989,-8.29 z m 43.289,-28.328 0,48.051 9.672,0 0,-5.141 0.188,0 c 2.992,3.797 7.16,5.696 12.496,5.696 3.734,0 7.34,-1.422 10.808,-4.258 3.473,-2.84 5.211,-6.977 5.211,-12.406 l 0,-31.942 -9.675,0 0,28.606 c 0,3.242 -0.903,5.773 -2.707,7.594 -1.809,1.82 -4.051,2.73 -6.739,2.73 -2.777,0 -5.066,-0.91 -6.871,-2.73 -1.808,-1.821 -2.527,-4.356 -2.711,-7.594 l 0,-28.606 -9.672,0 z" /><path
         id="path4097"
         style="fill:#000000;fill-opacity:1;fill-rule:nonzero;stroke:none"
         d="m 134.441,71.066 -29.906,0 c 0,-3.949 1.074,-6.91 3.219,-8.886 2.144,-1.973 4.883,-2.961 8.215,-2.961 3.98,0 7.5,1.543 10.554,4.629 l 6.993,-5.973 c -2.379,-2.777 -5.055,-4.758 -8.032,-5.949 -2.98,-1.188 -6.089,-1.781 -9.328,-1.781 -4.937,0 -9.722,1.597 -14.351,4.793 -4.629,3.191 -6.942,9.726 -6.942,19.601 0,9.352 2.137,15.817 6.41,19.395 4.274,3.582 8.743,5.371 13.403,5.371 5.273,0 9.89,-1.828 13.84,-5.485 3.949,-3.656 5.925,-8.586 5.925,-14.789 l 0,-7.965 z m -29.906,7.965 20.277,0 c -0.156,3.61 -1.171,6.371 -3.054,8.285 -1.883,1.915 -4.246,2.872 -7.082,2.872 -2.871,0 -5.254,-0.957 -7.153,-2.872 -1.898,-1.914 -2.894,-4.675 -2.988,-8.285 z m 43.289,-28.332 0,48.051 9.676,0 0,-5.137 0.184,0 c 2.992,3.793 7.16,5.692 12.496,5.692 3.519,0 6.867,-1.235 10.047,-3.703 l -6.989,-8.332 c -2.101,1.574 -4.23,2.359 -6.39,2.359 -2.375,0 -4.528,-0.793 -6.457,-2.383 -1.93,-1.59 -3.086,-4.148 -2.891,-7.66 l 0,-28.887 -9.676,0 z m 40.047,11.621 0,55.825 9.676,0 0,-55.039 c 0,-2.223 1.203,-3.332 3.609,-3.332 l 3.285,0 0,-9.075 -4.257,0 c -3.52,0 -6.45,0.86 -8.797,2.571 -2.344,1.711 -3.516,4.73 -3.516,9.05 z m 52.867,-11.621 0,4.262 -0.23,0 c -1.946,-3.211 -5.895,-4.816 -11.852,-4.816 -5.367,0 -9.535,1.398 -12.496,4.191 -2.965,2.793 -4.445,6.285 -4.445,10.484 0,3.793 1.312,7.114 3.937,9.95 2.621,2.839 6.524,4.261 11.711,4.261 l 13.375,0 0,5 c 0,4.102 -3.285,6.157 -9.859,6.157 -4.567,0 -6.828,-5.387 -9.117,-3.661 l -7.594,5.743 c 3.363,4.691 8.766,7.035 16.203,7.035 5.926,0 10.738,-1.156 14.441,-3.473 3.704,-2.312 5.555,-6.433 5.555,-12.359 l 0,-32.774 -9.629,0 z m 0,16.852 0,3.515 -11.57,0 c -5.586,0 -8.379,-1.925 -8.379,-5.785 0,-1.636 0.703,-3.054 2.106,-4.257 1.406,-1.204 3.742,-1.805 7.011,-1.805 4.012,0 6.821,0.445 8.426,1.34 1.606,0.898 3.965,3.562 2.406,6.992 z m 22.176,-0.742 0,31.941 9.672,0 0,-28.652 c 0,-3.274 0.902,-5.813 2.711,-7.617 1.805,-1.805 4.094,-2.707 6.871,-2.707 2.687,0 4.93,0.902 6.738,2.707 1.805,1.804 2.707,4.343 2.707,7.617 l 0,28.652 9.672,0 0,-48.051 -9.672,0 0,5.094 -0.187,0 c -2.992,-3.766 -7.129,-5.648 -12.406,-5.648 -3.793,0 -7.426,1.414 -10.899,4.234 -3.473,2.824 -5.207,6.969 -5.207,12.43 z m 52.516,-16.11 0,67.446 9.675,0 0,-24.532 c 1.79,1.696 3.68,3.071 5.672,4.118 1.989,1.05 4.235,1.574 6.735,1.574 2.933,0 5.461,-0.594 7.59,-1.781 2.132,-1.188 3.89,-2.676 5.277,-4.469 1.328,-1.727 2.23,-3.742 2.711,-6.039 0.476,-2.301 0.715,-6.383 0.715,-12.246 0,-5.922 -0.239,-10.051 -0.715,-12.379 -0.481,-2.332 -1.383,-4.344 -2.711,-6.043 -1.387,-1.821 -3.145,-3.309 -5.277,-4.465 -2.129,-1.16 -4.657,-1.738 -7.59,-1.738 -4.938,0 -9.074,1.851 -12.407,5.554 l 0,-5 -9.675,0 z m 19.164,38.93 c -4.535,0 -7.25,-1.617 -8.145,-4.859 -0.894,-3.239 -1.344,-6.575 -1.344,-10 0,-3.516 0.45,-6.895 1.344,-10.137 0.895,-3.238 3.61,-4.859 8.145,-4.859 4.539,0 7.261,1.558 8.172,4.675 0.91,3.117 1.367,6.559 1.367,10.321 0,3.675 -0.457,7.07 -1.367,10.187 -0.911,3.113 -3.633,4.672 -8.172,4.672 z m 33.847,9.121 0,14.582 9.672,0 0,-14.582 7.035,0 0,-7.406 -7.035,0 0,-27.961 c 0,-2.406 1.145,-3.609 3.426,-3.609 l 3.609,0 0,-9.075 -5.043,0 c -3.363,0 -6.148,1.02 -8.355,3.055 -2.207,2.039 -3.309,4.953 -3.309,8.75 l 0,28.84 -4.816,0 0,7.406 4.816,0 z" /><path
         id="path4099"
         style="fill:#000000;fill-opacity:1;fill-rule:nonzero;stroke:none"
         d="m 63.141,156.227 6.578,7.48 c 2.461,-1.984 5.301,-3.574 8.511,-4.777 3.215,-1.199 6.579,-1.801 10.094,-1.801 4.055,0 7.238,0.84 9.551,2.523 2.313,1.68 3.469,3.887 3.469,6.622 0,5.167 -2.852,8.125 -8.559,8.875 -1.504,0.179 -2.898,0.359 -4.191,0.542 -1.289,0.18 -2.793,0.391 -4.504,0.629 -5.676,0.782 -10.004,2.86 -12.977,6.239 -2.972,3.379 -4.461,7.457 -4.461,12.234 0,5.586 1.871,10.18 5.61,13.785 3.742,3.606 9.004,5.406 15.793,5.406 4.054,0 7.867,-0.644 11.441,-1.937 3.574,-1.293 6.863,-2.93 9.867,-4.91 l -5.543,-8.199 c -2.402,1.5 -4.984,2.718 -7.746,3.648 -2.765,0.93 -5.586,1.398 -8.472,1.398 -3.063,0 -5.661,-0.781 -7.793,-2.343 -2.133,-1.563 -3.2,-3.907 -3.2,-7.028 0,-1.863 0.723,-3.605 2.164,-5.226 1.442,-1.621 3.829,-2.688 7.165,-3.199 0.871,-0.153 1.921,-0.309 3.152,-0.473 1.23,-0.168 2.644,-0.34 4.234,-0.52 6.129,-0.75 10.656,-2.972 13.586,-6.668 2.926,-3.695 4.391,-7.777 4.391,-12.253 0,-6.036 -2.086,-10.723 -6.262,-14.055 -4.176,-3.336 -9.777,-5.004 -16.805,-5.004 -9.882,0 -18.246,3.004 -25.093,9.012 z m 84.047,-8.469 0,4.144 -0.227,0 c -1.891,-3.125 -5.738,-4.687 -11.535,-4.687 -5.227,0 -9.281,1.359 -12.164,4.078 -2.883,2.719 -4.324,6.121 -4.324,10.207 0,3.691 1.277,6.922 3.828,9.684 2.554,2.765 6.355,4.144 11.398,4.144 l 13.024,0 0,4.867 c 0,3.996 -3.2,5.993 -9.598,5.993 -4.445,0 -7.402,-1.188 -8.875,-3.559 l -7.391,5.586 c 3.274,4.566 8.531,6.848 15.77,6.848 5.765,0 10.453,-1.125 14.058,-3.379 3.602,-2.254 5.407,-6.262 5.407,-12.028 l 0,-31.898 -9.371,0 z m 0,16.398 0,3.426 -11.266,0 c -5.434,0 -8.152,-1.879 -8.152,-5.633 0,-1.593 0.683,-2.972 2.046,-4.144 1.368,-1.172 3.645,-1.758 6.829,-1.758 3.902,0 6.636,0.434 8.199,1.305 1.562,0.871 2.344,3.14 2.344,6.804 z" /><path
         id="path4101"
         style="fill:#000000;fill-opacity:1;fill-rule:nonzero;stroke:none"
         d="m 319.559,154.996 6.578,7.477 c 2.461,-1.981 5.301,-3.574 8.511,-4.774 3.215,-1.203 6.579,-1.804 10.094,-1.804 4.055,0 7.238,0.843 9.551,2.523 2.312,1.684 3.469,3.891 3.469,6.625 0,5.164 -2.852,8.125 -8.559,8.875 -1.504,0.18 -2.898,0.359 -4.191,0.539 -1.293,0.18 -2.793,0.391 -4.504,0.633 -5.676,0.781 -10.004,2.859 -12.977,6.238 -2.972,3.379 -4.461,7.457 -4.461,12.231 0,5.586 1.871,10.183 5.61,13.789 3.738,3.601 9.004,5.406 15.793,5.406 4.054,0 7.867,-0.648 11.441,-1.938 3.574,-1.292 6.863,-2.929 9.867,-4.91 l -5.543,-8.203 c -2.402,1.504 -4.984,2.719 -7.746,3.653 -2.765,0.929 -5.59,1.394 -8.472,1.394 -3.063,0 -5.661,-0.781 -7.793,-2.344 -2.133,-1.558 -3.2,-3.902 -3.2,-7.027 0,-1.859 0.723,-3.602 2.164,-5.227 1.442,-1.621 3.829,-2.687 7.164,-3.199 0.872,-0.148 1.922,-0.304 3.153,-0.472 1.23,-0.165 2.644,-0.336 4.234,-0.516 6.129,-0.75 10.656,-2.973 13.582,-6.668 2.93,-3.695 4.395,-7.781 4.395,-12.254 0,-6.039 -2.086,-10.723 -6.262,-14.059 -4.176,-3.332 -9.777,-5 -16.805,-5 -9.882,0 -18.246,3.004 -25.093,9.012 z m 58.793,14.957 c 0,5.016 0.39,8.754 1.171,11.219 0.782,2.461 2.075,4.684 3.875,6.668 1.293,1.41 3.071,2.762 5.34,4.055 2.266,1.289 5.231,1.937 8.899,1.937 3.601,0 6.547,-0.648 8.828,-1.937 2.281,-1.293 4.07,-2.645 5.363,-4.055 1.801,-1.984 3.094,-4.207 3.871,-6.668 0.781,-2.465 1.172,-6.203 1.172,-11.219 0,-5.105 -0.391,-8.89 -1.172,-11.355 -0.777,-2.461 -2.07,-4.684 -3.871,-6.668 -1.293,-1.442 -3.082,-2.793 -5.363,-4.055 -2.281,-1.262 -5.227,-1.891 -8.828,-1.891 -3.668,0 -6.633,0.629 -8.899,1.891 -2.269,1.262 -4.047,2.613 -5.34,4.055 -1.8,1.984 -3.093,4.207 -3.875,6.668 -0.781,2.465 -1.171,6.25 -1.171,11.355 z m 29.148,-0.09 c 0,3.395 -0.172,5.782 -0.516,7.164 -0.347,1.379 -0.941,2.704 -1.781,3.965 -1.652,2.282 -4.176,3.422 -7.566,3.422 -3.457,0 -5.981,-1.14 -7.571,-3.422 -0.902,-1.261 -1.507,-2.586 -1.824,-3.965 -0.316,-1.382 -0.472,-3.742 -0.472,-7.074 0,-3.426 0.156,-5.836 0.472,-7.23 0.317,-1.399 0.922,-2.711 1.824,-3.942 1.59,-2.285 4.114,-3.425 7.571,-3.425 3.39,0 5.914,1.14 7.566,3.425 0.84,1.231 1.434,2.535 1.781,3.918 0.344,1.383 0.516,3.77 0.516,7.164 z" /><path
         id="path4103"
         style="fill:#000000;fill-opacity:1;fill-rule:nonzero;stroke:none"
         d="m 192.25,157.094 0,21.289 6.449,0 0,-19.098 c 0,-2.183 0.602,-3.875 1.809,-5.078 1.203,-1.203 2.73,-1.805 4.582,-1.805 1.789,0 3.285,0.602 4.488,1.805 1.203,1.203 1.805,2.895 1.805,5.078 l 0,19.098 6.449,0 0,-32.027 -6.449,0 0,3.394 -0.125,0 c -1.992,-2.512 -4.75,-3.766 -8.27,-3.766 -2.527,0 -4.949,0.942 -7.265,2.825 -2.313,1.882 -3.473,4.644 -3.473,8.285 z m 33.945,-10.738 0,32.027 6.45,0 0,-3.422 0.121,0 c 1.996,2.527 4.773,3.793 8.332,3.793 2.488,0 4.89,-0.945 7.207,-2.84 2.312,-1.89 3.468,-4.648 3.468,-8.269 l 0,-21.289 -6.449,0 0,19.07 c 0,2.16 -0.601,3.844 -1.804,5.058 -1.204,1.215 -2.7,1.821 -4.489,1.821 -1.851,0 -3.379,-0.606 -4.582,-1.821 -1.203,-1.214 -1.804,-2.898 -1.804,-5.058 l 0,-19.07 -6.45,0 z m 53.075,0 0,3.332 c -2.243,-2.469 -5,-3.704 -8.27,-3.704 -1.977,0 -3.672,0.387 -5.094,1.157 -1.418,0.773 -2.582,1.765 -3.484,2.98 -0.906,1.129 -1.512,2.473 -1.82,4.024 -0.309,1.554 -0.465,4.304 -0.465,8.254 0,3.91 0.156,6.632 0.465,8.164 0.308,1.531 0.914,2.875 1.82,4.027 0.902,1.191 2.066,2.184 3.484,2.976 1.422,0.793 3.117,1.188 5.094,1.188 1.645,0 3.137,-0.348 4.473,-1.047 1.336,-0.699 2.601,-1.617 3.797,-2.746 l 0,16.352 6.449,0 0,-44.957 -6.449,0 z m -6.297,25.949 c -3.043,0 -4.871,-1.039 -5.477,-3.117 -0.605,-2.079 -0.91,-4.34 -0.91,-6.789 0,-2.508 0.305,-4.801 0.91,-6.879 0.606,-2.079 2.434,-3.118 5.477,-3.118 2.984,0 4.777,1.082 5.386,3.243 0.606,2.156 0.911,4.41 0.911,6.754 0,2.285 -0.305,4.507 -0.911,6.667 -0.609,2.161 -2.402,3.239 -5.386,3.239 z" /></g></g></svg>