<?xml version="1.0" encoding="UTF-8" standalone="no"?>
<!-- Created with Inkscape (http://www.inkscape.org/) -->

<svg
   xmlns:dc="http://purl.org/dc/elements/1.1/"
   xmlns:cc="http://creativecommons.org/ns#"
   xmlns:rdf="http://www.w3.org/1999/02/22-rdf-syntax-ns#"
   xmlns:svg="http://www.w3.org/2000/svg"
   xmlns="http://www.w3.org/2000/svg"
   xmlns:sodipodi="http://sodipodi.sourceforge.net/DTD/sodipodi-0.dtd"
   xmlns:inkscape="http://www.inkscape.org/namespaces/inkscape"
   width="159.01492mm"
   height="119.32742mm"
   viewBox="0 0 159.01492 119.32742"
   version="1.1"
   id="svg8"
   inkscape:version="0.92.4 (33fec40, 2019-01-16)"
   sodipodi:docname="1042-35.svg">
  <defs
     id="defs2" />
  <sodipodi:namedview
     id="base"
     pagecolor="#ffffff"
     bordercolor="#666666"
     borderopacity="1.0"
     inkscape:pageopacity="0.0"
     inkscape:pageshadow="2"
     inkscape:zoom="0.7"
     inkscape:cx="338.81551"
     inkscape:cy="222.68728"
     inkscape:document-units="mm"
     inkscape:current-layer="layer1"
     showgrid="false"
     fit-margin-top="0"
     fit-margin-left="0"
     fit-margin-right="0"
     fit-margin-bottom="0"
     inkscape:window-width="1366"
     inkscape:window-height="740"
     inkscape:window-x="1920"
     inkscape:window-y="312"
     inkscape:window-maximized="1" />
  <metadata
     id="metadata5">
    <rdf:RDF>
      <cc:Work
         rdf:about="">
        <dc:format>image/svg+xml</dc:format>
        <dc:type
           rdf:resource="http://purl.org/dc/dcmitype/StillImage" />
        <dc:title></dc:title>
      </cc:Work>
    </rdf:RDF>
  </metadata>
  <g
     inkscape:label="Layer 1"
     inkscape:groupmode="layer"
     id="layer1"
     transform="translate(-11.96278,-74.050575)">
    <path
       d="m 22.606968,74.182206 c -5.794375,0 -10.512558,4.718182 -10.512558,10.516195 v 98.032759 c 0,5.79702 4.718183,10.51355 10.512558,10.51355 H 160.32855 c 5.79933,0 10.51586,-4.71653 10.51586,-10.51355 V 84.698401 c 0,-5.798013 -4.71653,-10.516195 -10.51586,-10.516195 z"
       style="fill:#ffffff;fill-opacity:1;fill-rule:nonzero;stroke:none;stroke-width:0.33072916"
       id="path7222"
       inkscape:connector-curvature="0" />
    <path
       d="m 22.606968,76.751971 c -4.386131,0 -7.942792,3.557985 -7.942792,7.94643 v 98.032759 c 0,4.38745 3.556661,7.94676 7.942792,7.94676 H 160.32855 c 4.38712,0 7.94643,-3.55931 7.94643,-7.94676 V 84.698401 c 0,-4.388445 -3.55931,-7.94643 -7.94643,-7.94643 z m 0,3.975365 H 160.32855 c 2.19472,0 3.97371,1.777669 3.97371,3.971065 v 98.032759 c 0,2.19637 -1.77899,3.97139 -3.97371,3.97139 H 22.606968 c -2.189758,0 -3.971396,-1.77502 -3.971396,-3.97139 V 84.698401 c 0,-2.193396 1.781638,-3.971065 3.971396,-3.971065 z"
       style="fill:#000000;fill-opacity:1;fill-rule:nonzero;stroke:none;stroke-width:0.33072916"
       id="path7224"
       inkscape:connector-curvature="0" />
    <path
       d="m 22.606968,74.050575 c -5.866805,0 -10.644188,4.777383 -10.644188,10.647826 v 98.032759 c 0,5.86812 4.777383,10.64683 10.644188,10.64683 H 160.32855 c 5.87044,0 10.64915,-4.77871 10.64915,-10.64683 V 84.698401 c 0,-5.870443 -4.77871,-10.647826 -10.64915,-10.647826 z m 0,0.131631 H 160.32855 c 5.79933,0 10.51586,4.718182 10.51586,10.516195 v 98.032759 c 0,5.7957 -4.71653,10.51355 -10.51586,10.51355 H 22.606968 c -5.794375,0 -10.512558,-4.71785 -10.512558,-10.51355 V 84.698401 c 0,-5.798013 4.718183,-10.516195 10.512558,-10.516195 z"
       style="fill:#000000;fill-opacity:1;fill-rule:nonzero;stroke:none;stroke-width:0.33072916"
       id="path7226"
       inkscape:connector-curvature="0" />
    <path
       d="m 143.07871,159.23285 c -1.64836,-0.87875 -3.6959,-0.25598 -4.57465,1.39138 v -1.58916 h -3.18195 v 15.90973 h 3.18195 v -11.33508 c 0,-0.87842 0.71074,-1.59279 1.58915,-1.59279 0.87842,0 1.5928,0.71437 1.5928,1.59279 v 11.33508 h 3.18194 v -12.72778 c 0,-1.24917 -0.68858,-2.39382 -1.78924,-2.98417 z m -13.72262,6.36389 h -3.18194 v -1.98702 c 0,-0.87842 0.7104,-1.59279 1.58915,-1.59279 0.87842,0 1.59279,0.71437 1.59279,1.59279 z m -1.59279,-6.76209 c -2.63558,0 -4.7711,2.13949 -4.7711,4.77507 v 6.76043 c 0,2.63559 2.13552,4.77507 4.7711,4.77507 2.63525,0 4.77474,-2.13948 4.77474,-4.77507 h -3.18195 c 0,0.87875 -0.71437,1.58916 -1.59279,1.58916 -0.87875,0 -1.58915,-0.71041 -1.58915,-1.58916 v -2.18578 h 6.36389 v -4.57465 c 0,-2.63558 -2.13949,-4.77507 -4.77474,-4.77507 z m -11.13764,11.5355 c 0,0.87875 -0.71173,1.58916 -1.58915,1.58916 -0.87842,0 -1.59279,-0.71041 -1.59279,-1.58916 v -6.76043 c 0,-0.87842 0.71437,-1.59279 1.59279,-1.59279 0.87742,0 1.58915,0.71437 1.58915,1.59279 z m 0,-9.74592 c -0.5877,-1.10067 -1.73103,-1.78958 -2.98185,-1.78958 -1.86664,0 -3.38204,1.51309 -3.38204,3.38237 v 9.54584 c 0,1.24684 0.68858,2.39414 1.78925,2.98185 1.651,0.88106 3.69987,0.2583 4.57464,-1.3927 v 3.38237 c 0,0.87841 -0.71173,1.59279 -1.58915,1.59279 -0.87842,0 -1.59279,-0.71438 -1.59279,-1.59279 h -3.18195 c 0,2.63921 2.13949,4.77473 4.77474,4.77473 2.63426,0 4.77375,-2.13552 4.77375,-4.77473 v -17.69931 h -3.1846 z m -12.32991,9.74592 c 0,0.87875 -0.71206,1.58916 -1.58915,1.58916 -0.88239,0 -1.5928,-0.71041 -1.5928,-1.58916 v -0.79441 c 0,-0.87841 0.71041,-1.59279 1.5928,-1.59279 h 1.58915 z m -1.58915,-11.5355 c -2.63558,0 -4.774741,2.13949 -4.774741,4.77507 h 3.181941 c 0,-0.87842 0.71041,-1.59279 1.5928,-1.59279 0.87709,0 1.58915,0.71437 1.58915,1.59279 v 1.78924 h -2.38357 c -2.199014,0 -3.980321,1.779 -3.980321,3.97669 v 2.38721 c 0,1.24684 0.688578,2.39414 1.789245,2.98185 1.647036,0.88106 3.695896,0.2583 4.574646,-1.3927 v 1.59279 h 3.18062 v -11.33508 c 0,-2.63558 -2.13552,-4.77507 -4.76977,-4.77507 z m -8.751429,-4.57332 h -3.181945 v 4.77374 h -1.592792 v 2.58498 h 1.592792 v 9.74494 c 0,1.97544 1.600729,3.57981 3.57849,3.57981 h 1.589153 v -2.98549 h -0.990864 c -0.550334,0 -0.994834,-0.4445 -0.994834,-0.99087 v -9.34839 h 1.985698 v -2.58498 h -1.985698 z m -10.540669,4.77374 h -3.181945 v 15.90973 h 3.181945 v -9.74593 c 0,-0.33602 0.05424,-0.67435 0.160073,-0.99483 0.546695,-1.66919 2.347516,-2.57737 4.016706,-2.02704 v -3.34235 c -1.621235,0 -3.160117,0.73654 -4.176779,1.99761 z m -9.147969,6.56167 h -3.181945 v -1.98702 c 0,-0.87842 0.710406,-1.59279 1.588823,-1.59279 0.878747,0 1.593122,0.71437 1.593122,1.59279 z m -1.593122,-6.76209 c -2.63525,0 -4.770768,2.13949 -4.770768,4.77507 v 6.76043 c 0,2.63559 2.135518,4.77507 4.770768,4.77507 2.635581,0 4.775068,-2.13948 4.775068,-4.77507 h -3.181946 c 0,0.87875 -0.714375,1.58916 -1.593122,1.58916 -0.878417,0 -1.588823,-0.71041 -1.588823,-1.58916 v -2.18578 h 6.363891 v -4.57465 c 0,-2.63558 -2.139487,-4.77507 -4.775068,-4.77507 z m -11.137305,-2.98417 h 3.180622 v -3.18194 h -3.180622 z m 0,19.09432 h 3.180622 v -15.90973 h -3.180622 z m -5.963708,-9.34806 h -3.184592 v -1.98702 c 0,-0.87842 0.713383,-1.59279 1.5918,-1.59279 0.878417,0 1.592792,0.71437 1.592792,1.59279 z m -1.592792,-6.76209 c -2.634258,0 -4.773745,2.13949 -4.773745,4.77507 v 6.76043 c 0,2.63559 2.139487,4.77507 4.773745,4.77507 2.635581,0 4.774737,-2.13948 4.774737,-4.77507 h -3.181945 c 0,0.87875 -0.714375,1.58916 -1.592792,1.58916 -0.878417,0 -1.5918,-0.71041 -1.5918,-1.58916 v -2.18578 h 6.366537 v -4.57465 c 0,-2.63558 -2.139156,-4.77507 -4.774737,-4.77507 z M 38.070871,174.9448 h 3.182276 v -9.54584 h 5.569149 v -2.98416 h -5.569149 v -6.76209 h 6.363891 v -2.98417 H 38.070871 Z M 155.60904,140.14085 c 0,0.87841 -0.7104,1.59047 -1.59279,1.59047 -0.87875,0 -1.59312,-0.71206 -1.59312,-1.59047 v -6.76044 c 0,-0.88238 0.71437,-1.59312 1.59312,-1.59312 0.88239,0 1.59279,0.71074 1.59279,1.59312 z m 0,-17.70162 v 7.95668 c -0.59035,-1.10066 -1.735,-1.79057 -2.98549,-1.79057 -1.86564,0 -3.38237,1.51276 -3.38237,3.37973 v 9.54848 c 0,1.24685 0.69255,2.39514 1.79322,2.98185 1.64703,0.87842 3.69226,0.25433 4.57464,-1.3927 v 1.59279 h 3.18195 v -22.27626 z m -10.94118,6.56398 c -1.64835,-0.87842 -3.69623,-0.25433 -4.57465,1.3927 v -1.58882 h -3.18194 v 15.9084 h 3.18194 v -11.33508 c 0,-0.88238 0.71438,-1.59312 1.5928,-1.59312 0.87874,0 1.58915,0.71074 1.58915,1.59312 v 11.33508 h 3.18194 v -12.73042 c 0,-1.24685 -0.68857,-2.39515 -1.78924,-2.98186 z m -14.12048,11.13764 c 0,0.87841 -0.71438,1.59047 -1.58916,1.59047 -0.87709,0 -1.59146,-0.71206 -1.59146,-1.59047 v -11.33376 h -3.18228 v 12.72646 c 0,1.24685 0.68858,2.39514 1.78957,2.98185 1.64704,0.87842 3.6959,0.25433 4.57333,-1.3927 v 1.59279 h 3.18194 v -15.9084 h -3.18194 z m -13.12466,-5.76825 h -9.54451 v 3.18062 h 9.54451 z m -22.673137,-5.56551 v 15.9084 h 3.182276 v -11.33508 c 0,-0.88238 0.710406,-1.59312 1.592792,-1.59312 0.874449,0 1.589149,0.71074 1.589149,1.59312 v 11.33508 h 3.18195 v -12.73042 c 0,-1.24685 -0.6899,-2.39515 -1.79057,-2.98186 -1.64736,-0.87842 -3.694904,-0.25433 -4.573321,1.3927 v -1.58882 z m -3.181945,15.9084 v -12.73042 c 0,-1.24685 -0.688579,-2.39515 -1.789245,-2.98186 -1.647032,-0.87842 -3.696229,-0.25433 -4.574646,1.3927 v -1.58882 h -3.181945 v 15.9084 h 3.181945 v -11.33508 c 0,-0.88238 0.710737,-1.59312 1.589154,-1.59312 0.882385,0 1.592791,0.71074 1.592791,1.59312 v 11.33508 z m -15.908404,-4.57464 c 0,0.87841 -0.714375,1.59047 -1.593123,1.59047 -0.878416,0 -1.588823,-0.71206 -1.588823,-1.59047 v -6.76044 c 0,-0.88238 0.710407,-1.59312 1.588823,-1.59312 0.878748,0 1.593123,0.71074 1.593123,1.59312 z m -1.593123,-11.53551 c -2.63525,0 -4.770768,2.13685 -4.770768,4.77507 v 6.76044 c 0,2.63558 2.135518,4.7711 4.770768,4.7711 2.635581,0 4.775068,-2.13552 4.775068,-4.7711 v -6.76044 c 0,-2.63822 -2.139487,-4.77507 -4.775068,-4.77507 z m -12.530005,-6.36256 c -2.963664,0 -5.369388,2.40539 -5.369388,5.36773 v 1.3927 c 0,2.18744 1.326885,4.15495 3.353924,4.97913 l 2.838318,1.1473 c 0.824177,0.33569 1.366904,1.13804 1.366904,2.02704 v 2.3872 c 0,1.20948 -0.980612,2.18744 -2.189758,2.18744 H 61.33833 c -1.209146,0 -2.185789,-0.97796 -2.185789,-2.18744 v -1.19228 h -3.185914 v 1.19228 c 0,2.96631 2.405393,5.36807 5.371703,5.36807 h 0.197776 c 2.965979,0 5.371703,-2.40176 5.371703,-5.36807 v -2.3872 c 0,-2.18745 -1.326885,-4.15495 -3.35657,-4.97516 l -2.835672,-1.15127 c -0.828146,-0.33205 -1.366904,-1.13804 -1.366904,-2.02704 v -1.3927 c 0,-1.20518 0.980612,-2.18579 2.187443,-2.18579 1.209146,0 2.189758,0.98061 2.189758,2.18579 v 1.19658 h 3.181945 v -1.19658 c 0,-2.96234 -2.405724,-5.36773 -5.371703,-5.36773 z m -21.478214,11.13763 c 0,-0.88238 0.713052,-1.59312 1.5918,-1.59312 0.878416,0 1.588823,0.71074 1.588823,1.59312 v 11.33508 h 3.182276 v -12.73042 c 0,-1.24685 -0.68494,-2.39515 -1.789576,-2.98186 -1.647031,-0.87842 -3.695898,-0.25433 -4.573323,1.3927 v -1.58882 h -3.181945 v 15.9084 h 3.181945 z m -9.545836,6.76044 c 0,0.87841 -0.714375,1.59047 -1.592791,1.59047 -0.878748,0 -1.589154,-0.71206 -1.589154,-1.59047 v -0.79706 c 0,-0.87478 0.710406,-1.58915 1.589154,-1.58915 h 1.592791 z m -1.592791,-11.53551 c -2.635581,0 -4.771099,2.13685 -4.771099,4.77507 h 3.181945 c 0,-0.88238 0.710406,-1.59312 1.589154,-1.59312 0.878416,0 1.592791,0.71074 1.592791,1.59312 v 1.78925 h -2.387534 c -2.197364,0 -3.976356,1.77899 -3.976356,3.97635 v 2.38754 c 0,1.24685 0.688578,2.39514 1.789244,2.98185 1.647032,0.87842 3.69623,0.25433 4.574646,-1.3927 v 1.59279 h 3.181946 v -11.33508 c 0,-2.63822 -2.135519,-4.77507 -4.774737,-4.77507 z"
       style="fill:#000000;fill-opacity:1;fill-rule:nonzero;stroke:none;stroke-width:0.33072916"
       id="path7228"
       inkscape:connector-curvature="0"
       sodipodi:nodetypes="ccccccsssccscccssscssssccssccssssssssscsssccssccsscccssssscssccsscsssccccssccccccssccsscccccccccscccccccssscssssccssccssccccccccccccssscssssccssccsscccccccccccsssssssccsssccccccccccccsssccscsssccsccccccsccccccccsssccscccccsccccccsssccsssssssssssssssssccsssssccsssssccssssccsssssccsccccccsssssscssccsscsssccccss" />
  </g>
</svg>
