<?xml version="1.0" encoding="UTF-8" standalone="no"?>
<!-- Created with Inkscape (http://www.inkscape.org/) -->

<svg
   xmlns:dc="http://purl.org/dc/elements/1.1/"
   xmlns:cc="http://creativecommons.org/ns#"
   xmlns:rdf="http://www.w3.org/1999/02/22-rdf-syntax-ns#"
   xmlns:svg="http://www.w3.org/2000/svg"
   xmlns="http://www.w3.org/2000/svg"
   xmlns:sodipodi="http://sodipodi.sourceforge.net/DTD/sodipodi-0.dtd"
   xmlns:inkscape="http://www.inkscape.org/namespaces/inkscape"
   width="158.75mm"
   height="87.3125mm"
   viewBox="0 0 158.75 87.3125"
   version="1.1"
   id="svg5166"
   inkscape:version="0.92.4 (33fec40, 2019-01-16)"
   sodipodi:docname="1044-30.svg">
  <defs
     id="defs5160">
    <clipPath
       clipPathUnits="userSpaceOnUse"
       id="clipPath6326">
      <path
         d="M 0,0 H 480 V 264 H 0 Z"
         id="path6328"
         inkscape:connector-curvature="0" />
    </clipPath>
  </defs>
  <sodipodi:namedview
     id="base"
     pagecolor="#ffffff"
     bordercolor="#666666"
     borderopacity="1.0"
     inkscape:pageopacity="0.0"
     inkscape:pageshadow="2"
     inkscape:zoom="0.98994949"
     inkscape:cx="342.43486"
     inkscape:cy="148.60388"
     inkscape:document-units="mm"
     inkscape:current-layer="layer1"
     showgrid="false"
     fit-margin-top="0"
     fit-margin-left="0"
     fit-margin-right="0"
     fit-margin-bottom="0"
     inkscape:window-width="1366"
     inkscape:window-height="740"
     inkscape:window-x="1920"
     inkscape:window-y="0"
     inkscape:window-maximized="1" />
  <metadata
     id="metadata5163">
    <rdf:RDF>
      <cc:Work
         rdf:about="">
        <dc:format>image/svg+xml</dc:format>
        <dc:type
           rdf:resource="http://purl.org/dc/dcmitype/StillImage" />
        <dc:title></dc:title>
      </cc:Work>
    </rdf:RDF>
  </metadata>
  <g
     inkscape:label="Layer 1"
     inkscape:groupmode="layer"
     id="layer1"
     transform="translate(-63.499999,-105.17708)">
    <g
       id="g6320"
       transform="matrix(0.33072917,0,0,-0.33072917,63.499999,192.48958)">
      <g
         id="g6322">
        <g
           id="g6324"
           clip-path="url(#clipPath6326)">
          <g
             id="g6330">
            <path
               d="m 31.996,263.758 c -17.512,0 -31.754,-14.25 -31.754,-31.766 V 31.996 C 0.242,14.484 14.484,0.242 31.996,0.242 h 416.008 c 17.512,0 31.754,14.242 31.754,31.754 v 199.996 c 0,17.516 -14.242,31.766 -31.754,31.766"
               style="fill:#ffffff;fill-opacity:1;fill-rule:nonzero;stroke:none"
               id="path6332"
               inkscape:connector-curvature="0" />
            <path
               d="M 31.996,0.469 C 14.613,0.469 0.48,14.613 0.48,31.996 v 199.996 c 0,17.383 14.133,31.528 31.516,31.528 h 416.008 c 17.383,0 31.516,-14.145 31.516,-31.528 V 31.996 C 479.52,14.613 465.387,0.469 448.004,0.469 Z M 448.004,264 H 31.996 C 14.32,264 0,249.672 0,231.992 V 31.996 C 0,14.328 14.32,0 31.996,0 H 448.004 C 465.672,0 480,14.328 480,31.996 V 231.992 C 480,249.672 465.672,264 448.004,264"
               style="fill:#000000;fill-opacity:1;fill-rule:nonzero;stroke:none"
               id="path6334"
               inkscape:connector-curvature="0" />
          </g>
        </g>
      </g>
    </g>
    <path
       d="m 74.08201,185.87632 h 137.58598 c 2.1924,0 3.96875,-1.77635 3.96875,-3.96875 v -66.14451 c 0,-2.19241 -1.77635,-3.96875 -3.96875,-3.96875 H 74.08201 c -2.192404,0 -3.968751,1.77634 -3.968751,3.96875 v 66.14451 c 0,2.1924 1.776347,3.96875 3.968751,3.96875 z m 0,3.96875 c -4.384808,0 -7.937501,-3.55269 -7.937501,-7.9375 v -66.14451 c 0,-4.38481 3.552693,-7.9375 7.937501,-7.9375 h 137.58598 c 4.38481,0 7.9375,3.55269 7.9375,7.9375 v 66.14451 c 0,4.38481 -3.55269,7.9375 -7.9375,7.9375"
       style="fill:#000000;fill-opacity:1;fill-rule:nonzero;stroke:none;stroke-width:0.33072916"
       id="path6336"
       inkscape:connector-curvature="0" />
    <path
       d="m 185.95247,159.45933 0.93266,-0.93795 c 0.77126,0.77126 1.92121,1.01666 2.93787,0.63301 0.34098,-0.12666 0.51825,-0.50899 0.38761,-0.84997 -0.0903,-0.2454 -0.31783,-0.41209 -0.57877,-0.43028 l -1.40693,-0.0867 c -1.09306,-0.0685 -1.92484,-1.00905 -1.85638,-2.10178 0.0542,-0.87214 0.67304,-1.60338 1.51937,-1.80876 1.23362,-0.29336 2.53206,-0.007 3.52028,0.78416 l -0.82153,1.03485 c -0.67303,-0.53479 -1.55178,-0.73389 -2.3915,-0.53082 -0.35388,0.0827 -0.57084,0.44053 -0.48816,0.79573 0.0685,0.28145 0.31519,0.48816 0.60458,0.50635 l 1.40295,0.0866 c 1.09306,0.0685 1.92484,1.01269 1.85638,2.10575 -0.0476,0.78152 -0.55033,1.46117 -1.28422,1.73236 -1.50118,0.56456 -3.19484,0.1991 -4.33421,-0.93265 z m -1.65364,-6.87818 h -1.32424 v -1.32027 h 1.32424 z m 0,7.9375 h -1.32424 v -6.61326 h 1.32424 z m -7.27472,-3.96875 h 2.8112 c 0,-0.7739 -0.63037,-1.40295 -1.40825,-1.40295 -0.7739,0 -1.40295,0.62905 -1.40295,1.40295 z m 4.13411,1.15755 h -4.13411 v 0.16669 c 0,0.57481 0.34627,1.09306 0.88238,1.30605 0.73389,0.29336 1.57725,0.0866 2.09154,-0.51428 l 1.00508,0.86188 c -0.88635,1.03088 -2.32668,1.38476 -3.5851,0.87841 -1.03849,-0.41208 -1.71814,-1.41717 -1.71814,-2.53206 v -1.32424 c 0,-1.50515 1.22204,-2.72719 2.72719,-2.72719 1.50912,0 2.73116,1.22204 2.73116,2.72719 z m -13.64257,2.8112 -2.06971,-6.61326 h 1.40825 l 1.24023,4.63153 1.48696,-4.63153 h 0.99219 l 1.4896,4.63153 1.24156,-4.63153 h 1.40295 l -2.06573,6.61326 h -1.16152 l -1.40296,-4.62756 -1.40692,4.62756 z m -8.68297,-1.05932 0.93398,-0.93795 c 0.76994,0.77126 1.91724,1.01666 2.93787,0.63301 0.34363,-0.12666 0.51296,-0.50899 0.38629,-0.84997 -0.0893,-0.2454 -0.31783,-0.41209 -0.57878,-0.43028 l -1.40295,-0.0867 c -1.09703,-0.0685 -1.92881,-1.00905 -1.86035,-2.10178 0.0582,-0.87214 0.67303,-1.60338 1.52036,-1.80876 1.22998,-0.29336 2.53239,-0.007 3.51929,0.78416 l -0.82418,1.03485 c -0.66939,-0.53479 -1.55178,-0.73389 -2.38753,-0.53082 -0.3552,0.0827 -0.57216,0.44053 -0.48816,0.79573 0.0685,0.28145 0.3099,0.48816 0.59928,0.50635 l 1.40825,0.0866 c 1.09174,0.0685 1.92484,1.01269 1.85506,2.10575 -0.0463,0.78152 -0.55298,1.46117 -1.28025,1.73236 -1.50515,0.56456 -3.19749,0.1991 -4.33818,-0.93265 z m -1.65232,1.05932 h -1.32424 v -0.74546 c -0.77523,0.95878 -2.18215,1.10728 -3.13664,0.33337 -0.52453,-0.42366 -0.82946,-1.06329 -0.82946,-1.73632 v -4.46485 h 1.32159 v 4.05143 c 0,0.73125 0.593,1.32424 1.32424,1.32424 0.72595,0 1.32027,-0.59299 1.32027,-1.32424 v -4.05143 h 1.32424 z m -8.43359,-2.88991 h -1.90302 c -0.45608,0 -0.82418,0.3681 -0.82418,0.82418 0,0.45607 0.3681,0.82814 0.82418,0.82814 h 1.07487 c 0.45608,0 0.82815,-0.37207 0.82815,-0.82814 z m 1.32027,2.88991 h -1.32027 V 159.839 c -0.23515,0.42003 -0.67701,0.67965 -1.15756,0.67965 h -0.82814 c -1.0967,0 -1.98305,-0.88635 -1.98305,-1.98173 0,-1.09703 0.88635,-1.98702 1.98305,-1.98702 h 1.9857 v -0.65881 c 0,-0.36446 -0.26095,-0.67171 -0.6188,-0.73389 -0.46633,-0.084 -0.94456,-0.084 -1.41089,0 -0.23515,0.04 -0.43392,0.19116 -0.53876,0.40184 l -1.04642,-0.8255 c 0.31518,-0.46633 0.80367,-0.78416 1.35797,-0.87842 0.61747,-0.10881 1.24784,-0.10881 1.86928,0 0.98822,0.17297 1.70789,1.03088 1.70789,2.03597 z m -11.90625,0 v -9.25777 h 1.32424 v 5.78512 l 2.56579,-3.14061 h 1.56964 l -2.23242,2.56183 2.56183,4.05143 h -1.65365 l -1.73632,-3.0566 -1.07487,1.15756 v 1.89904 z m -5.45571,0 v -6.61326 h 1.32424 v 0.74547 c 0.7739,-0.95879 2.17818,-1.10729 3.1406,-0.33338 v 0.004 l -0.94059,1.15755 c -0.5424,-0.48584 -1.38212,-0.43425 -1.86664,0.10848 -0.21464,0.24143 -0.33337,0.55662 -0.33337,0.87842 v 4.05275 z m -3.30597,-2.88991 h -1.90302 c -0.45607,0 -0.8255,0.3681 -0.8255,0.82418 0,0.45607 0.36943,0.82814 0.8255,0.82814 h 1.07355 c 0.46004,0 0.82947,-0.37207 0.82947,-0.82814 z m 1.32424,2.88991 h -1.32424 V 159.839 c -0.23515,0.42003 -0.677,0.67965 -1.15755,0.67965 h -0.82947 c -1.09538,0 -1.98173,-0.88635 -1.98173,-1.98173 0,-1.09703 0.88635,-1.98702 1.98173,-1.98702 h 1.98702 v -0.65881 c 0,-0.36446 -0.26095,-0.67171 -0.61483,-0.73389 -0.47029,-0.084 -0.94853,-0.084 -1.41486,0 -0.23647,0.04 -0.43391,0.19116 -0.54008,0.40184 l -1.0451,-0.8255 c 0.31518,-0.46633 0.80367,-0.78416 1.35665,-0.87842 0.61879,-0.10881 1.25181,-0.10881 1.8706,0 0.9869,0.17297 1.71186,1.03088 1.71186,2.03597 z m -11.16476,-4.95961 h 2.14842 c 0.8255,0 1.49093,-0.66543 1.49093,-1.48696 0,-0.8255 -0.66543,-1.49093 -1.49093,-1.49093 h -2.14842 z m -1.40427,4.95961 v -9.25777 h 3.63537 c 1.55278,0 2.8112,1.25942 2.8112,2.8112 0,1.55145 -1.25842,2.8112 -2.8112,2.8112 h -2.2311 v 3.63537 z m -6.61723,0 h -0.82418 c -0.82153,0 -1.49093,-0.66542 -1.49093,-1.48696 v -4.05143 h -0.65881 v -1.07487 h 0.65881 v -1.98305 h 1.32424 v 1.98305 h 0.99087 v 1.07487 h -0.99087 v 3.88475 c 0,0.2325 0.18488,0.41605 0.41209,0.41605 h 0.57878 z m -4.79293,-7.9375 h -1.32424 v -1.32027 h 1.32424 z m 0,7.9375 h -1.32424 v -6.61326 h 1.32424 z m -12.56903,0 v -6.61326 h 1.324239 v 0.74547 c 0.773906,-0.95879 2.178182,-1.10729 3.136636,-0.33338 0.152466,0.12402 0.283104,0.26095 0.397867,0.41606 0.864526,-1.05933 2.427548,-1.21841 3.492168,-0.35024 0.57481,0.47029 0.91083,1.17574 0.91083,1.9212 v 4.21415 h -1.32424 v -4.05143 c 0,-0.72727 -0.593,-1.32027 -1.32424,-1.32027 -0.72992,0 -1.320271,0.593 -1.320271,1.32027 v 4.05143 H 98.14388 v -4.05143 c 0,-0.72727 -0.592998,-1.32027 -1.32424,-1.32027 -0.729919,0 -1.320271,0.593 -1.320271,1.32027 v 4.05143"
       style="fill:#000000;fill-opacity:1;fill-rule:nonzero;stroke:none;stroke-width:0.33072916"
       id="path6338"
       inkscape:connector-curvature="0" />
    <path
       d="m 84.512877,141.05458 v -18.52315 h 7.604125 c 2.742737,0 4.963583,2.22184 4.963583,4.96094 0,1.61991 -0.791765,3.13663 -2.116005,4.06565 1.519039,0.93398 2.445412,2.5863 2.445412,4.37026 0,2.82939 -2.294269,5.1263 -5.126303,5.1263 z m 2.809875,-2.64815 h 4.631531 c 1.551781,0 2.811198,-1.25842 2.811198,-2.8112 0,-1.55178 -1.259417,-2.80987 -2.811198,-2.80987 h -4.631531 z m 0,-8.10055 h 4.464844 c 1.461161,0 2.648479,-1.18566 2.648479,-2.64815 0,-1.46116 -1.187318,-2.64451 -2.648479,-2.64451 h -4.464844 z m 24.308598,5.12399 h -8.26691 v 0.33205 c 0,1.15094 0.69883,2.18182 1.76609,2.60813 0.43789,0.17694 0.90422,0.26491 1.37451,0.26491 1.07752,0 2.10576,-0.47029 2.80756,-1.28785 l 2.0115,1.7221 c -1.20816,1.40659 -2.96631,2.21423 -4.81906,2.21423 -0.80731,0 -1.60569,-0.15643 -2.35909,-0.45607 -2.06937,-0.8255 -3.42999,-2.83303 -3.42999,-5.06545 v -2.64484 c 0,-3.01658 2.44574,-5.45802 5.45968,-5.45802 3.01393,0 5.45571,2.44144 5.45571,5.45802 z m -8.26691,-2.31279 h 5.6224 c 0,-1.55145 -1.25942,-2.8112 -2.8112,-2.8112 -1.55145,0 -2.8112,1.25975 -2.8112,2.8112 z m 14.38407,7.9375 -4.13147,-13.23016 h 2.80856 l 2.48179,9.25777 2.97656,-9.25777 h 1.98305 l 2.97789,9.25777 2.48179,-9.25777 h 2.8112 l -4.13544,13.23016 h -2.31643 l -2.80987,-9.26141 -2.8112,9.26141 z m 16.37507,-5.29266 v -2.64484 c 0,-3.01658 2.44177,-5.45935 5.4557,-5.45935 3.01394,0 5.45571,2.44277 5.45571,5.45935 v 2.64484 c 0,3.01394 -2.44177,5.45571 -5.45571,5.45571 -3.01393,0 -5.4557,-2.44177 -5.4557,-5.45571 z m 2.64451,0 c 0,1.55277 1.25842,2.8112 2.81119,2.8112 1.55178,0 2.8112,-1.25843 2.8112,-2.8112 v -2.64484 c 0,-1.55145 -1.25942,-2.8112 -2.8112,-2.8112 -1.55277,0 -2.81119,1.25975 -2.81119,2.8112 z m 11.90625,5.29266 v -18.52315 h 2.64451 v 6.78756 c 0.84633,-1.04908 2.12394,-1.66126 3.47265,-1.66126 2.46757,0 4.46485,2.00091 4.46485,4.46848 v 8.92837 h -2.64451 v -8.10386 c 0,-1.46116 -1.18732,-2.64484 -2.64848,-2.64484 -1.4572,0 -2.64451,1.18368 -2.64451,2.64484 v 8.10386 z m 14.55076,0 v -13.23016 h 2.64451 v 1.49457 c 0.8503,-1.04908 2.12791,-1.66126 3.47265,-1.66126 2.46757,0 4.46882,2.00091 4.46882,4.46848 v 8.92837 h -2.64848 v -8.10386 c 0,-1.46116 -1.18335,-2.64484 -2.64451,-2.64484 -1.46117,0 -2.64848,1.18368 -2.64848,2.64484 v 8.10386 z m 25.13674,-5.62471 h -8.26691 v 0.33205 c 0,1.15094 0.69883,2.18182 1.76609,2.60813 0.43789,0.17694 0.90422,0.26491 1.37451,0.26491 1.08149,0 2.10576,-0.47029 2.80723,-1.28785 l 2.00786,1.7221 c -1.20418,1.40659 -2.96234,2.21423 -4.81509,2.21423 -0.80731,0 -1.60701,-0.15643 -2.35512,-0.45607 -2.07334,-0.8255 -3.43396,-2.83303 -3.43396,-5.06545 v -2.64484 c 0,-3.01658 2.44574,-5.45802 5.45968,-5.45802 3.01393,0 5.45571,2.44144 5.45571,5.45802 z m -8.26691,-2.31279 h 5.6224 c 0,-1.55145 -1.25975,-2.8112 -2.8112,-2.8112 -1.55145,0 -2.8112,1.25975 -2.8112,2.8112 z m 11.90625,7.9375 v -13.23016 h 2.64451 v 1.49457 c 0.84634,-1.04908 2.12394,-1.66126 3.47398,-1.66126 1.02328,0 2.01414,0.35124 2.80987,0.99847 l -1.87721,2.31643 c -0.48816,-0.4316 -1.11092,-0.66675 -1.76213,-0.66675 -1.45719,0 -2.64451,1.18368 -2.64451,2.64484 v 8.10386 h -2.64451"
       style="fill:#000000;fill-opacity:1;fill-rule:evenodd;stroke:none;stroke-width:0.33072916"
       id="path6342"
       inkscape:connector-curvature="0" />
  </g>
</svg>
