<?xml version="1.0" encoding="UTF-8" standalone="no"?>
<!-- Created with Inkscape (http://www.inkscape.org/) -->

<svg
   xmlns:dc="http://purl.org/dc/elements/1.1/"
   xmlns:cc="http://creativecommons.org/ns#"
   xmlns:rdf="http://www.w3.org/1999/02/22-rdf-syntax-ns#"
   xmlns:svg="http://www.w3.org/2000/svg"
   xmlns="http://www.w3.org/2000/svg"
   xmlns:sodipodi="http://sodipodi.sourceforge.net/DTD/sodipodi-0.dtd"
   xmlns:inkscape="http://www.inkscape.org/namespaces/inkscape"
   width="158.75mm"
   height="119.06382mm"
   viewBox="0 0 158.75 119.06382"
   version="1.1"
   id="svg5042"
   inkscape:version="0.92.4 (33fec40, 2019-01-16)"
   sodipodi:docname="1044-12.svg">
  <defs
     id="defs5036" />
  <sodipodi:namedview
     id="base"
     pagecolor="#ffffff"
     bordercolor="#666666"
     borderopacity="1.0"
     inkscape:pageopacity="0.0"
     inkscape:pageshadow="2"
     inkscape:zoom="0.7"
     inkscape:cx="400.13935"
     inkscape:cy="186.15712"
     inkscape:document-units="mm"
     inkscape:current-layer="layer1"
     showgrid="false"
     fit-margin-top="0"
     fit-margin-left="0"
     fit-margin-right="0"
     fit-margin-bottom="0"
     inkscape:window-width="1366"
     inkscape:window-height="740"
     inkscape:window-x="1920"
     inkscape:window-y="0"
     inkscape:window-maximized="1" />
  <metadata
     id="metadata5039">
    <rdf:RDF>
      <cc:Work
         rdf:about="">
        <dc:format>image/svg+xml</dc:format>
        <dc:type
           rdf:resource="http://purl.org/dc/dcmitype/StillImage" />
        <dc:title></dc:title>
      </cc:Work>
    </rdf:RDF>
  </metadata>
  <g
     inkscape:label="Layer 1"
     inkscape:groupmode="layer"
     id="layer1"
     transform="translate(16.630953,-108.95619)">
    <path
       d="m -6.0489425,109.03622 c -5.7890835,0 -10.5019745,4.71289 -10.5019745,10.50198 v 97.89848 c 0,5.79305 4.712891,10.50329 10.5019745,10.50329 H 131.53704 c 5.79305,0 10.50594,-4.71024 10.50594,-10.50329 V 119.5382 c 0,-5.78909 -4.71289,-10.50198 -10.50594,-10.50198"
       style="fill:#ffffff;fill-opacity:1;fill-rule:nonzero;stroke:none;stroke-width:0.33072916"
       id="path4907"
       inkscape:connector-curvature="0" />
    <path
       d="m -6.0489425,227.86358 c -5.7490655,0 -10.4255755,-4.67652 -10.4255755,-10.4269 v -97.89451 c 0,-5.74907 4.67651,-10.42955 10.4255755,-10.42955 H 131.53704 c 5.74906,0 10.42557,4.68048 10.42557,10.42955 v 97.89451 c 0,5.75038 -4.67651,10.4269 -10.42557,10.4269 z M 131.53704,108.95619 H -6.0489425 c -5.8433225,0 -10.5820105,4.73868 -10.5820105,10.58598 v 97.89451 c 0,5.84861 4.738688,10.58333 10.5820105,10.58333 H 131.53704 c 5.84332,0 10.58201,-4.73472 10.58201,-10.58333 v -97.89451 c 0,-5.8473 -4.73869,-10.58598 -10.58201,-10.58598"
       style="fill:#000000;fill-opacity:1;fill-rule:nonzero;stroke:none;stroke-width:0.33072916"
       id="path4909"
       inkscape:connector-curvature="0" />
    <path
       d="m -6.0489425,111.60334 c -4.3821615,0 -7.9348545,3.55402 -7.9348545,7.93618 v 97.89716 c 0,4.38216 3.552693,7.93882 7.9348545,7.93882 H 131.53704 c 4.38216,0 7.93882,-3.55666 7.93882,-7.93882 v -97.89716 c 0,-4.38216 -3.55666,-7.93618 -7.93882,-7.93618 z m 0,3.96743 H 131.53704 c 2.1924,0 3.97007,1.77502 3.97007,3.96875 v 97.89716 c 0,2.19372 -1.77767,3.96742 -3.97007,3.96742 H -6.0489425 c -2.1884349,0 -3.9674275,-1.7737 -3.9674275,-3.96742 v -97.89716 c 0,-2.19373 1.7789926,-3.96875 3.9674275,-3.96875 z"
       style="fill:#000000;fill-opacity:1;fill-rule:nonzero;stroke:none;stroke-width:0.33072916"
       id="path4911"
       inkscape:connector-curvature="0" />
    <path
       d="m 71.790152,127.25345 c 0,2.83203 -2.297245,5.1263 -5.12531,5.1263 -2.83038,0 -5.12101,-2.29427 -5.12101,-5.1263 0,-2.82807 2.29063,-5.12498 5.12101,-5.12498 2.828065,0 5.12531,2.29691 5.12531,5.12498 z m -8.966068,27.54345 v -3.84472 H 50.012298 c 0,-2.47386 2.008849,-4.48006 4.484026,-4.48006 h 8.32776 v -7.68714 c 0,-2.47915 2.005211,-4.48667 4.480388,-4.48667 2.479146,0 4.48568,2.00752 4.48568,4.48667 v 17.29251 c 0,2.47517 -2.006534,4.4827 -4.48568,4.4827 H 52.755035 c -0.587706,0 -1.098021,0.40183 -1.244203,0.96639 l -4.418211,17.57792 c -0.673034,2.67924 -3.349956,4.34314 -6.047383,3.7594 l 5.172604,-24.02449 c 0.506346,-2.36042 2.595562,-4.04251 5.010216,-4.04251 z m -8.30031,8.32776 h 2.703711 c -2.4765,6.62616 0.886354,14.00704 7.516482,16.48222 6.626159,2.47518 14.006711,-0.88999 16.482219,-7.51615 2.382242,-6.3758 -0.638307,-13.49937 -6.874206,-16.22392 v -2.75067 c 8.00067,2.82806 12.196961,11.60925 9.367573,19.61389 -2.829388,8.00332 -11.614216,12.19961 -19.615216,9.3689 -7.759237,-2.74274 -11.982318,-11.10655 -9.580563,-18.97427"
       style="fill:#000000;fill-opacity:1;fill-rule:nonzero;stroke:none;stroke-width:0.33072916"
       id="path4913"
       inkscape:connector-curvature="0" />
    <path
       d="m 28.764271,209.62585 h 2.818805 v -7.68317 h 1.436688 c 2.073672,0 3.316221,-0.77391 4.090127,-2.0449 0.664104,-1.07884 0.802349,-2.23904 0.802349,-3.95222 0,-2.34983 -0.304932,-3.59271 -1.271323,-4.61598 -0.967713,-1.02163 -2.100461,-1.38212 -3.648273,-1.38212 h -4.228373 z m 2.818805,-17.02495 h 1.463807 c 2.211917,0 2.211917,1.52069 2.211917,3.37178 0,1.96255 -0.02844,3.31656 -2.321719,3.31656 h -1.354005 z"
       style="fill:#000000;fill-opacity:1;fill-rule:nonzero;stroke:none;stroke-width:0.33072916"
       id="path4919"
       inkscape:connector-curvature="0" />
    <path
       d="m 45.214079,209.62585 h 2.819135 v -9.75651 c 0,-2.92894 -1.879864,-4.42086 -4.228703,-4.42086 -1.270992,0 -2.321388,0.44152 -3.068174,1.18699 -0.746787,0.74678 -1.188641,1.79718 -1.271323,3.04138 h 2.736453 c 0.165364,-0.91215 0.883708,-1.40957 1.603044,-1.40957 1.050396,0 1.409568,0.71835 1.409568,1.65762 v 1.4648 c -0.581422,-0.0271 -0.967714,-0.0827 -1.355328,-0.0827 -3.537149,0 -4.4493,1.54782 -4.4493,4.75291 0,3.09563 1.74162,3.73129 3.040063,3.73129 1.354997,0 1.962216,-0.5801 2.709002,-1.60205 h 0.05556 z m 0,-4.11725 c 0,1.13275 -0.581422,1.79553 -1.520693,1.79553 -0.91182,0 -1.464799,-0.71835 -1.464799,-1.79553 0,-1.49357 0.994833,-1.99099 2.211586,-1.99099 0.248046,0 0.468974,0.0284 0.773906,0.0827 z"
       style="fill:#000000;fill-opacity:1;fill-rule:nonzero;stroke:none;stroke-width:0.33072916"
       id="path4921"
       inkscape:connector-curvature="0" />
    <path
       d="m 50.664826,209.62585 h 2.818805 v -8.31884 c 0,-2.29426 1.686057,-3.03973 2.874367,-3.03973 0.30361,0 0.580099,0.0542 0.856589,0.16537 v -2.98417 c -1.630164,0 -2.569435,0.63533 -3.730956,1.65728 v -1.49192 h -2.818805 z"
       style="fill:#000000;fill-opacity:1;fill-rule:nonzero;stroke:none;stroke-width:0.33072916"
       id="path4923"
       inkscape:connector-curvature="0" />
    <path
       d="m 58.859303,209.62585 h 2.818805 v -3.92477 l 1.354005,-2.12791 2.542646,6.05268 h 3.068174 l -4.034565,-8.31884 3.343341,-5.69317 h -2.818804 l -3.399235,6.10791 h -0.05556 v -11.77429 h -2.818805 z"
       style="fill:#000000;fill-opacity:1;fill-rule:nonzero;stroke:none;stroke-width:0.33072916"
       id="path4925"
       inkscape:connector-curvature="0" />
    <path
       d="m 77.842496,199.53861 c -0.02844,-2.32172 -1.685727,-4.09013 -3.980326,-4.09013 -2.265825,0 -4.14569,1.71284 -4.14569,4.09013 0,1.87821 1.078839,3.20509 2.847248,3.8692 l 1.354005,0.49741 c 1.077515,0.41474 1.409568,0.93927 1.409568,1.71318 0,0.93894 -0.773907,1.52036 -1.574933,1.52036 -1.050396,0 -1.409567,-0.80235 -1.520362,-1.57592 h -2.653771 c 0.111125,2.76456 1.99099,4.22837 4.201253,4.22837 2.432844,0 4.201253,-1.90698 4.201253,-4.22837 0,-1.65762 -0.664105,-3.14987 -2.763243,-3.95222 l -1.658937,-0.66278 c -1.050396,-0.4144 -1.188641,-0.91182 -1.188641,-1.43768 0,-0.71834 0.497417,-1.40956 1.382448,-1.40956 0.745464,0 1.409568,0.49741 1.436688,1.43801 z"
       style="fill:#000000;fill-opacity:1;fill-rule:nonzero;stroke:none;stroke-width:0.33072916"
       id="path4927"
       inkscape:connector-curvature="0" />
    <path
       d="m 80.85147,195.61384 h -1.409568 v 2.21027 h 1.409568 v 8.5123 c 0,1.49358 0.856588,3.28944 3.398904,3.28944 h 1.160197 v -2.65378 c -1.24288,0 -1.740296,-0.0827 -1.740296,-1.38079 v -7.76717 h 1.740296 v -2.21027 H 83.670275 V 191.3567 H 80.85147 Z"
       style="fill:#000000;fill-opacity:1;fill-rule:nonzero;stroke:none;stroke-width:0.33072916"
       id="path4929"
       inkscape:connector-curvature="0" />
    <path
       d="m 91.906423,209.62585 h 2.818805 v -9.75651 c 0,-2.92894 -1.878211,-4.42086 -4.228373,-4.42086 -1.271323,0 -2.321388,0.44152 -3.066851,1.18699 -0.746787,0.74678 -1.188641,1.79718 -1.271323,3.04138 h 2.736122 c 0.165365,-0.91215 0.883709,-1.40957 1.602052,-1.40957 1.050396,0 1.409568,0.71835 1.409568,1.65762 v 1.4648 c -0.580099,-0.0271 -0.966391,-0.0827 -1.354005,-0.0827 -3.537149,0 -4.4493,1.54782 -4.4493,4.75291 0,3.09563 1.74162,3.73129 3.039732,3.73129 1.354005,0 1.962547,-0.5801 2.709334,-1.60205 h 0.05424 z m 0,-4.11725 c 0,1.13275 -0.580099,1.79553 -1.51937,1.79553 -0.912151,0 -1.46513,-0.71835 -1.46513,-1.79553 0,-1.49357 0.994833,-1.99099 2.210594,-1.99099 0.24937,0 0.470297,0.0284 0.773906,0.0827 z m -4.864034,-12.07823 h 2.488076 v -2.81881 h -2.488076 z m 4.477742,0 h 2.486753 v -2.81881 h -2.486753 z"
       style="fill:#000000;fill-opacity:1;fill-rule:nonzero;stroke:none;stroke-width:0.33072916"
       id="path4931"
       inkscape:connector-curvature="0" />
    <path
       d="m 96.828665,209.62585 h 2.818805 v -9.42446 c 0,-1.24421 0.35917,-1.93411 1.40957,-1.93411 0.88503,0 1.38211,0.63566 1.38211,1.65762 v 9.70095 h 2.81914 V 198.8745 c 0,-2.5142 -1.49225,-3.42602 -2.90182,-3.42602 -1.29943,0 -2.07334,0.63533 -2.653437,1.51904 h -0.05556 v -1.35368 h -2.818805 z"
       style="fill:#000000;fill-opacity:1;fill-rule:nonzero;stroke:none;stroke-width:0.33072916"
       id="path4933"
       inkscape:connector-curvature="0" />
    <path
       d="m 110.38955,199.9249 c 0,-0.88371 0.30361,-1.65762 1.38245,-1.65762 0.80103,0 1.40957,0.63566 1.40957,1.51937 v 5.44546 c 0,1.02162 -0.55298,1.73996 -1.40957,1.73996 -0.96771,0 -1.38245,-0.7739 -1.38245,-1.90665 z m 2.79202,9.70095 h 2.8188 v -19.67839 h -2.8188 v 6.93738 h -0.0556 c -0.60855,-0.91216 -1.49225,-1.43636 -2.59821,-1.43636 -1.35368,0 -2.0449,0.5242 -2.5152,1.27099 -0.35917,0.5801 -0.44185,1.38113 -0.44185,3.39924 v 5.33433 c 0,1.54748 0.13824,2.40407 0.4703,3.01261 0.49741,0.91215 1.32688,1.32556 2.45963,1.32556 1.40957,0 1.96255,-0.63566 2.68089,-1.43669 z"
       style="fill:#000000;fill-opacity:1;fill-rule:nonzero;stroke:none;stroke-width:0.33072916"
       id="path4935"
       inkscape:connector-curvature="0" />
    <path
       d="m 126.4663,203.6843 v -3.8692 c 0,-2.45997 -1.60338,-4.36662 -4.20125,-4.36662 -1.71318,0 -3.01295,0.80069 -3.67573,2.01645 -0.38728,0.71835 -0.52553,1.7145 -0.52553,2.84758 v 4.61467 c 0,1.13274 0.13825,2.1289 0.52553,2.84724 0.66278,1.21576 1.96255,2.01679 3.67573,2.01679 1.29844,0 2.32138,-0.46897 3.06817,-1.24288 0.71834,-0.74679 1.13308,-1.8243 1.13308,-2.98549 h -2.81914 c -0.0556,0.60821 -0.3046,1.40923 -1.38211,1.40923 -0.85659,0 -1.38245,-0.49741 -1.38245,-1.38079 v -1.90698 z m -5.5837,-3.81496 c 0,-1.0504 0.52586,-1.60206 1.38245,-1.60206 0.85658,0 1.38211,0.55166 1.38211,1.60206 v 1.60304 h -2.76456 z"
       style="fill:#000000;fill-opacity:1;fill-rule:nonzero;stroke:none;stroke-width:0.33072916"
       id="path4937"
       inkscape:connector-curvature="0" />
  </g>
</svg>
