<?xml version="1.0" encoding="UTF-8" standalone="no"?>
<!-- Created with Inkscape (http://www.inkscape.org/) -->

<svg
   xmlns:dc="http://purl.org/dc/elements/1.1/"
   xmlns:cc="http://creativecommons.org/ns#"
   xmlns:rdf="http://www.w3.org/1999/02/22-rdf-syntax-ns#"
   xmlns:svg="http://www.w3.org/2000/svg"
   xmlns="http://www.w3.org/2000/svg"
   xmlns:sodipodi="http://sodipodi.sourceforge.net/DTD/sodipodi-0.dtd"
   xmlns:inkscape="http://www.inkscape.org/namespaces/inkscape"
   width="158.75mm"
   height="87.3125mm"
   viewBox="0 0 158.75 87.3125"
   version="1.1"
   id="svg4877"
   inkscape:version="0.92.4 (33fec40, 2019-01-16)"
   sodipodi:docname="1044-11.svg">
  <defs
     id="defs4871">
    <clipPath
       clipPathUnits="userSpaceOnUse"
       id="clipPath4522">
      <path
         d="M 0,0 H 480 V 264 H 0 Z"
         id="path4524"
         inkscape:connector-curvature="0" />
    </clipPath>
  </defs>
  <sodipodi:namedview
     id="base"
     pagecolor="#ffffff"
     bordercolor="#666666"
     borderopacity="1.0"
     inkscape:pageopacity="0.0"
     inkscape:pageshadow="2"
     inkscape:zoom="0.98994949"
     inkscape:cx="423.91146"
     inkscape:cy="114.5909"
     inkscape:document-units="mm"
     inkscape:current-layer="layer1"
     showgrid="false"
     fit-margin-top="0"
     fit-margin-left="0"
     fit-margin-right="0"
     fit-margin-bottom="0"
     inkscape:window-width="1366"
     inkscape:window-height="740"
     inkscape:window-x="1920"
     inkscape:window-y="0"
     inkscape:window-maximized="1" />
  <metadata
     id="metadata4874">
    <rdf:RDF>
      <cc:Work
         rdf:about="">
        <dc:format>image/svg+xml</dc:format>
        <dc:type
           rdf:resource="http://purl.org/dc/dcmitype/StillImage" />
        <dc:title></dc:title>
      </cc:Work>
    </rdf:RDF>
  </metadata>
  <g
     inkscape:label="Layer 1"
     inkscape:groupmode="layer"
     id="layer1"
     transform="translate(30.238096,-124.07589)">
    <g
       id="g4516"
       transform="matrix(0.33072917,0,0,-0.33072917,-30.238096,211.38839)">
      <g
         id="g4518">
        <g
           id="g4520"
           clip-path="url(#clipPath4522)">
          <g
             id="g4526">
            <path
               d="M 31.996,263.77 C 14.484,263.77 0.242,249.516 0.242,232.004 V 32.008 C 0.242,14.492 14.484,0.25 31.996,0.25 h 416.008 c 17.512,0 31.754,14.242 31.754,31.758 v 199.996 c 0,17.512 -14.242,31.766 -31.754,31.766"
               style="fill:#ffffff;fill-opacity:1;fill-rule:nonzero;stroke:none"
               id="path4528"
               inkscape:connector-curvature="0" />
            <path
               d="M 31.996,0.48 C 14.613,0.48 0.48,14.625 0.48,32.008 v 199.996 c 0,17.383 14.133,31.527 31.516,31.527 h 416.008 c 17.383,0 31.516,-14.144 31.516,-31.527 V 32.008 C 479.52,14.625 465.387,0.48 448.004,0.48 Z M 448.004,264.012 H 31.996 C 14.32,264.012 0,249.68 0,232.004 V 32.008 C 0,14.34 14.32,0 31.996,0 H 448.004 C 465.672,0 480,14.34 480,32.008 v 199.996 c 0,17.676 -14.328,32.008 -31.996,32.008"
               style="fill:#000000;fill-opacity:1;fill-rule:nonzero;stroke:none"
               id="path4530"
               inkscape:connector-curvature="0" />
          </g>
        </g>
      </g>
    </g>
    <path
       d="M -19.656085,204.77116 H 117.9299 c 2.1924,0 3.96875,-1.77635 3.96875,-3.96875 V 134.6579 c 0,-2.1924 -1.77635,-3.96875 -3.96875,-3.96875 H -19.656085 c -2.192404,0 -3.968751,1.77635 -3.968751,3.96875 v 66.14451 c 0,2.1924 1.776347,3.96875 3.968751,3.96875 z m 0,3.96875 c -4.384808,0 -7.937501,-3.55269 -7.937501,-7.9375 V 134.6579 c 0,-4.38481 3.552693,-7.9375 7.937501,-7.9375 H 117.9299 c 4.3848,0 7.9375,3.55269 7.9375,7.9375 v 66.14451 c 0,4.38481 -3.5527,7.9375 -7.9375,7.9375"
       style="fill:#000000;fill-opacity:1;fill-rule:nonzero;stroke:none;stroke-width:0.33072916"
       id="path4532"
       inkscape:connector-curvature="0" />
    <path
       d="m 23.478274,143.20923 c 0,2.74902 -2.228453,4.97516 -4.975159,4.97516 -2.746705,0 -4.969867,-2.22614 -4.969867,-4.97516 0,-2.74538 2.223162,-4.97516 4.969867,-4.97516 2.746706,0 4.975159,2.22978 4.975159,4.97516 z m -8.703469,26.7335 v -3.73128 H 2.3400502 c 0,-2.40143 1.9493177,-4.34843 4.3523958,-4.34843 h 8.082359 v -7.46224 c 0,-2.4054 1.946672,-4.35372 4.349751,-4.35372 2.405393,0 4.353718,1.94832 4.353718,4.35372 v 16.78583 c 0,2.40175 -1.948325,4.35008 -4.353718,4.35008 H 5.0027507 c -0.5711693,0 -1.0659401,0.38993 -1.2081536,0.93927 l -4.28757301,17.06066 c -0.65385159,2.60086 -3.25205989,4.21581 -5.87044279,3.64861 l 5.021461,-23.31906 c 0.4908021,-2.2893 2.5178412,-3.92344 4.8613881,-3.92344 z m -8.0565621,8.08335 h 2.6253282 c -2.4044011,6.43103 0.8602269,13.59463 7.2952239,15.99771 6.43136,2.40307 13.594953,-0.86288 15.997701,-7.29424 2.312789,-6.18827 -0.618794,-13.10382 -6.671138,-15.74833 v -2.66898 c 7.765521,2.74538 11.837458,11.26794 9.092406,19.03743 -2.746706,7.7685 -11.273234,11.84044 -19.039086,9.09373 C 8.4869825,193.78103 4.3875945,185.66394 6.7182429,178.02608"
       style="fill:#000000;fill-opacity:1;fill-rule:nonzero;stroke:none;stroke-width:0.33072916"
       id="path4534"
       inkscape:connector-curvature="0" />
    <path
       d="m 58.347051,159.61902 v -3.59668 c 0,-0.63301 -0.165365,-1.16549 -0.598289,-1.58651 -0.333375,-0.32312 -0.84369,-0.51031 -1.422467,-0.51031 -0.741494,0 -1.308695,0.26491 -1.76477,0.82021 -0.355203,-0.5424 -0.897599,-0.82021 -1.598084,-0.82021 -0.565877,0 -1.121172,0.22093 -1.498534,0.63037 v -0.56456 h -1.109596 v 5.62769 h 1.132747 v -3.43131 c 0,-0.86552 0.532474,-1.25181 1.164167,-1.25181 0.634339,0 1.131755,0.37703 1.131755,1.25181 v 3.43131 h 1.134071 v -3.48555 c 0,-0.81128 0.554302,-1.19757 1.164166,-1.19757 0.633016,0 1.133079,0.37703 1.133079,1.25181 v 3.43131 z"
       style="fill:#000000;fill-opacity:1;fill-rule:nonzero;stroke:none;stroke-width:0.33072916"
       id="path4538"
       inkscape:connector-curvature="0" />
    <path
       d="m 61.256475,152.88174 v -1.20022 h -1.198893 v 1.20022 z m -0.03506,6.73728 v -5.62769 H 60.08966 v 5.62769 z"
       style="fill:#000000;fill-opacity:1;fill-rule:nonzero;stroke:none;stroke-width:0.33072916"
       id="path4540"
       inkscape:connector-curvature="0" />
    <path
       d="m 65.369754,159.61902 v -0.96507 h -0.465005 c -0.421349,0 -0.62144,-0.2444 -0.62144,-0.65649 v -3.03973 h 1.086445 v -0.86685 h -1.086445 v -1.7092 H 63.15023 v 1.7092 h -0.643268 v 0.86685 h 0.643268 v 3.09661 c 0,0.81029 0.488487,1.56468 1.543844,1.56468 z"
       style="fill:#000000;fill-opacity:1;fill-rule:nonzero;stroke:none;stroke-width:0.33072916"
       id="path4542"
       inkscape:connector-curvature="0" />
    <path
       d="m 55.836816,165.7309 c 0,-1.36426 -0.980612,-2.37828 -2.510234,-2.37828 h -2.971271 v 7.83928 h 1.186987 v -3.08372 h 1.784284 c 1.529622,0 2.510234,-1.0117 2.510234,-2.37728 z m -1.189963,0 c 0,0.8255 -0.561909,1.29844 -1.387409,1.29844 h -1.717146 v -2.60846 h 1.717146 c 0.8255,0 1.387409,0.48452 1.387409,1.31002 z"
       style="fill:#000000;fill-opacity:1;fill-rule:nonzero;stroke:none;stroke-width:0.33072916"
       id="path4544"
       inkscape:connector-curvature="0" />
    <path
       d="m 61.251184,171.1919 v -3.73228 c 0,-1.26471 -0.768615,-1.91459 -2.300883,-1.91459 -0.923727,0 -1.47406,0.18587 -2.002565,0.80202 l 0.737856,0.69387 c 0.307248,-0.39523 0.604573,-0.53876 1.220722,-0.53876 0.869487,0 1.222044,0.34098 1.222044,1.04642 v 0.39556 h -1.47406 c -1.277607,0 -1.928812,0.67303 -1.928812,1.60569 0,0.47559 0.155112,0.90421 0.441854,1.20154 0.340982,0.3423 0.802349,0.50634 1.497541,0.50634 0.692217,0 1.078508,-0.16404 1.485636,-0.57216 v 0.50635 z m -1.122826,-2.01547 c 0,0.39655 -0.07739,0.66014 -0.241432,0.8255 -0.298318,0.28675 -0.616149,0.31916 -1.046427,0.31916 -0.704123,0 -1.023276,-0.28674 -1.023276,-0.79177 0,-0.50535 0.340981,-0.80499 1.001117,-0.80499 h 1.310018 z"
       style="fill:#000000;fill-opacity:1;fill-rule:nonzero;stroke:none;stroke-width:0.33072916"
       id="path4546"
       inkscape:connector-curvature="0" />
    <path
       d="m 66.893092,166.07188 c -0.386291,-0.38629 -0.793419,-0.52685 -1.334822,-0.52685 -0.627724,0 -1.198894,0.27516 -1.485636,0.67039 v -0.60458 h -1.100667 v 5.58106 h 1.123818 v -3.3913 c 0,-0.77126 0.505354,-1.25313 1.109927,-1.25313 0.386292,0 0.58506,0.12005 0.838399,0.37339 z"
       style="fill:#000000;fill-opacity:1;fill-rule:nonzero;stroke:none;stroke-width:0.33072916"
       id="path4548"
       inkscape:connector-curvature="0" />
    <path
       d="m 71.894048,171.1919 -2.180828,-3.3913 1.937742,-2.18976 h -1.364258 l -2.167598,2.57473 v -4.83295 h -1.124149 v 7.83928 h 1.124149 v -1.64207 l 0.8255,-0.93266 1.561703,2.57473 z"
       style="fill:#000000;fill-opacity:1;fill-rule:nonzero;stroke:none;stroke-width:0.33072916"
       id="path4550"
       inkscape:connector-curvature="0" />
    <path
       d="m 76.628767,171.1919 v -3.73228 c 0,-1.26471 -0.772583,-1.91459 -2.303529,-1.91459 -0.923726,0 -1.47406,0.18587 -2.003557,0.80202 l 0.738849,0.69387 c 0.307578,-0.39523 0.604573,-0.53876 1.222044,-0.53876 0.868164,0 1.221052,0.34098 1.221052,1.04642 v 0.39556 h -1.474059 c -1.277938,0 -1.926498,0.67303 -1.926498,1.60569 0,0.47559 0.152466,0.90421 0.439539,1.20154 0.342305,0.3423 0.804664,0.50634 1.498534,0.50634 0.693539,0 1.077516,-0.16404 1.485635,-0.57216 v 0.50635 z m -1.125141,-2.01547 c 0,0.39655 -0.0764,0.66014 -0.241763,0.8255 -0.296994,0.28675 -0.616148,0.31916 -1.046427,0.31916 -0.704122,0 -1.023276,-0.28674 -1.023276,-0.79177 0,-0.50535 0.341313,-0.80499 1.001448,-0.80499 h 1.310018 z"
       style="fill:#000000;fill-opacity:1;fill-rule:nonzero;stroke:none;stroke-width:0.33072916"
       id="path4552"
       inkscape:connector-curvature="0" />
    <path
       d="m 82.024944,171.1919 v -5.58106 h -1.123818 v 3.40023 c 0,0.85923 -0.529828,1.2442 -1.154906,1.2442 -0.628054,0 -1.124148,-0.37339 -1.124148,-1.2442 v -3.40023 h -1.122495 v 3.56559 c 0,0.62806 0.13163,1.15623 0.560586,1.57494 0.330729,0.31915 0.803672,0.50634 1.375833,0.50634 0.561909,0 1.10199,-0.20935 1.485636,-0.62772 v 0.56191 z"
       style="fill:#000000;fill-opacity:1;fill-rule:nonzero;stroke:none;stroke-width:0.33072916"
       id="path4554"
       inkscape:connector-curvature="0" />
    <path
       d="m 87.382757,169.48533 c 0,-0.99086 -0.616479,-1.48695 -1.660261,-1.5736 l -0.882385,-0.0787 c -0.59432,-0.0542 -0.769938,-0.30758 -0.769938,-0.63698 0,-0.41871 0.342305,-0.71702 1.013024,-0.71702 0.528174,0 1.022945,0.11112 1.375833,0.40812 l 0.705115,-0.7157 c -0.517922,-0.45211 -1.232297,-0.6264 -2.069373,-0.6264 -1.166812,0 -2.102114,0.61615 -2.102114,1.70524 0,0.98061 0.60325,1.45355 1.649677,1.53987 l 0.892969,0.0777 c 0.538757,0.045 0.746455,0.28675 0.746455,0.66146 0,0.5295 -0.537104,0.77126 -1.219398,0.77126 -0.551656,0 -1.157552,-0.1227 -1.609659,-0.58407 l -0.736534,0.73753 c 0.661458,0.64856 1.430073,0.80367 2.346193,0.80367 1.330523,0 2.320396,-0.60457 2.320396,-1.77238 z"
       style="fill:#000000;fill-opacity:1;fill-rule:nonzero;stroke:none;stroke-width:0.33072916"
       id="path4556"
       inkscape:connector-curvature="0" />
    <path
       d="m 95.939051,165.61084 h -1.200216 l -1.078839,3.93006 -1.289182,-3.93006 h -0.869487 l -1.298443,3.93006 -1.080161,-3.93006 h -1.187318 l 1.728722,5.58106 h 0.969036 l 1.298443,-3.89765 1.309687,3.89765 h 0.957461 z"
       style="fill:#000000;fill-opacity:1;fill-rule:nonzero;stroke:none;stroke-width:0.33072916"
       id="path4558"
       inkscape:connector-curvature="0" />
    <path
       d="m 101.35739,168.72433 v -0.49345 c 0,-1.58519 -0.87081,-2.68585 -2.365709,-2.68585 -1.432718,0 -2.369343,1.0451 -2.369343,2.84989 0,2.12394 1.112242,2.86279 2.510234,2.86279 0.980608,0 1.519368,-0.29699 2.092858,-0.86948 l -0.7157,-0.67172 c -0.39655,0.39523 -0.725952,0.57217 -1.354007,0.57217 -0.914466,0 -1.421143,-0.60458 -1.421143,-1.56435 z m -1.11258,-0.78019 h -2.51023 c 0.01191,-0.34132 0.03373,-0.50536 0.143536,-0.75969 0.17694,-0.4187 0.584068,-0.70544 1.113565,-0.70544 0.52586,0 0.923727,0.28674 1.099349,0.70544 0.10881,0.25433 0.14353,0.41837 0.15378,0.75969 z"
       style="fill:#000000;fill-opacity:1;fill-rule:nonzero;stroke:none;stroke-width:0.33072916"
       id="path4560"
       inkscape:connector-curvature="0" />
    <path
       d="m 103.47968,164.51018 v -1.18997 h -1.18831 v 1.18997 z m -0.0334,6.68172 v -5.58106 h -1.12282 v 5.58106 z"
       style="fill:#000000;fill-opacity:1;fill-rule:nonzero;stroke:none;stroke-width:0.33072916"
       id="path4562"
       inkscape:connector-curvature="0" />
    <path
       d="m 109.08157,169.48533 c 0,-0.99086 -0.61615,-1.48695 -1.66258,-1.5736 l -0.88007,-0.0787 c -0.59531,-0.0542 -0.77126,-0.30758 -0.77126,-0.63698 0,-0.41871 0.34131,-0.71702 1.01302,-0.71702 0.52719,0 1.02328,0.11112 1.37584,0.40812 l 0.70412,-0.7157 c -0.51792,-0.45211 -1.23263,-0.6264 -2.0697,-0.6264 -1.16649,0 -2.10311,0.61615 -2.10311,1.70524 0,0.98061 0.60722,1.45355 1.651,1.53987 l 0.89396,0.0777 c 0.53876,0.045 0.74811,0.28675 0.74811,0.66146 0,0.5295 -0.5414,0.77126 -1.22337,0.77126 -0.54934,0 -1.15523,-0.1227 -1.60602,-0.58407 l -0.73885,0.73753 c 0.66146,0.64856 1.43272,0.80367 2.34487,0.80367 1.33317,0 2.32404,-0.60457 2.32404,-1.77238 z"
       style="fill:#000000;fill-opacity:1;fill-rule:nonzero;stroke:none;stroke-width:0.33072916"
       id="path4564"
       inkscape:connector-curvature="0" />
  </g>
</svg>
