<?xml version="1.0" encoding="UTF-8" standalone="no"?>
<svg
   xmlns:dc="http://purl.org/dc/elements/1.1/"
   xmlns:cc="http://creativecommons.org/ns#"
   xmlns:rdf="http://www.w3.org/1999/02/22-rdf-syntax-ns#"
   xmlns:svg="http://www.w3.org/2000/svg"
   xmlns="http://www.w3.org/2000/svg"
   viewBox="0 0 600 330"
   height="330"
   width="600"
   xml:space="preserve"
   version="1.1"
   id="svg6169"><metadata
     id="metadata6175"><rdf:RDF><cc:Work
         rdf:about=""><dc:format>image/svg+xml</dc:format><dc:type
           rdf:resource="http://purl.org/dc/dcmitype/StillImage" /><dc:title></dc:title></cc:Work></rdf:RDF></metadata><defs
     id="defs6173"><clipPath
       id="clipPath6187"
       clipPathUnits="userSpaceOnUse"><path
         id="path6189"
         d="M 0,0 480,0 480,264 0,264 0,0 Z" /></clipPath></defs><g
     transform="matrix(1.25,0,0,-1.25,0,330)"
     id="g6177"><g
       id="g6179"><g
         id="g6181"><g
           id="g6183"><g
             clip-path="url(#clipPath6187)"
             id="g6185"><g
               id="g6191"><path
                 id="path6193"
                 style="fill:#ffffff;fill-opacity:1;fill-rule:nonzero;stroke:none"
                 d="m 31.996,263.77 c -17.512,0 -31.754,-14.254 -31.754,-31.766 l 0,-199.996 C 0.242,14.492 14.484,0.25 31.996,0.25 l 416.008,0 c 17.512,0 31.754,14.242 31.754,31.758 l 0,199.996 c 0,17.512 -14.242,31.766 -31.754,31.766" /><path
                 id="path6195"
                 style="fill:#000000;fill-opacity:1;fill-rule:nonzero;stroke:none"
                 d="M 31.996,0.48 C 14.613,0.48 0.48,14.625 0.48,32.008 l 0,199.996 c 0,17.383 14.133,31.527 31.516,31.527 l 416.008,0 c 17.383,0 31.516,-14.144 31.516,-31.527 l 0,-199.996 C 479.52,14.625 465.387,0.48 448.004,0.48 l -416.008,0 z m 416.008,263.532 -416.008,0 C 14.32,264.012 0,249.68 0,232.004 L 0,32.008 C 0,14.34 14.32,0 31.996,0 L 448.004,0 C 465.672,0 480,14.34 480,32.008 l 0,199.996 c 0,17.676 -14.328,32.008 -31.996,32.008" /></g></g></g></g><path
         id="path6197"
         style="fill:#000000;fill-opacity:1;fill-rule:nonzero;stroke:none"
         d="m 31.996,20.008 416.008,0 c 6.629,0 12,5.371 12,12 l 0,199.996 c 0,6.629 -5.371,12 -12,12 l -416.008,0 c -6.629,0 -12,-5.371 -12,-12 l 0,-199.996 c 0,-6.629 5.371,-12 12,-12 z m 0,-12 c -13.258,0 -24,10.742 -24,24 l 0,199.996 c 0,13.258 10.742,24 24,24 l 416.008,0 c 13.258,0 24,-10.742 24,-24 l 0,-199.996 c 0,-13.258 -10.742,-24 -24,-24" /><path
         id="path6199"
         style="fill:#000000;fill-opacity:1;fill-rule:nonzero;stroke:none"
         d="m 267.707,210.18 c 0,-8.75 -7.086,-15.84 -15.828,-15.84 -8.75,0 -15.84,7.09 -15.84,15.84 0,8.742 7.09,15.828 15.84,15.828 8.742,0 15.828,-7.086 15.828,-15.828 z M 240,125.074 l 0,11.883 -39.578,0 c 0,7.645 6.203,13.848 13.851,13.848 l 25.727,0 0,23.746 c 0,7.66 6.203,13.863 13.848,13.863 7.66,0 13.859,-6.203 13.859,-13.863 l 0,-53.426 c 0,-7.656 -6.199,-13.859 -13.859,-13.859 l -44.946,0 c -1.816,0 -3.402,-1.223 -3.84,-2.985 L 191.398,49.98 C 189.32,41.699 181.062,36.57 172.715,38.363 l 15.98,74.219 c 1.578,7.297 8.02,12.492 15.481,12.492 l 35.824,0 z m -25.641,-25.715 8.356,0 c -7.645,-20.48 2.746,-43.285 23.226,-50.933 20.477,-7.645 43.274,2.746 50.918,23.222 7.364,19.704 -1.968,41.711 -21.23,50.125 l 0,8.508 c 24.723,-8.738 37.683,-35.879 28.945,-60.609 -8.754,-24.734 -35.89,-37.688 -60.613,-28.945 -23.969,8.464 -37.02,34.316 -29.602,58.632" /></g></g></svg>