<?xml version="1.0" encoding="UTF-8" standalone="no"?>
<svg
   xmlns:dc="http://purl.org/dc/elements/1.1/"
   xmlns:cc="http://creativecommons.org/ns#"
   xmlns:rdf="http://www.w3.org/1999/02/22-rdf-syntax-ns#"
   xmlns:svg="http://www.w3.org/2000/svg"
   xmlns="http://www.w3.org/2000/svg"
   viewBox="0 0 600 450.005"
   height="450.005"
   width="600"
   xml:space="preserve"
   version="1.1"
   id="svg5852"><metadata
     id="metadata5858"><rdf:RDF><cc:Work
         rdf:about=""><dc:format>image/svg+xml</dc:format><dc:type
           rdf:resource="http://purl.org/dc/dcmitype/StillImage" /><dc:title></dc:title></cc:Work></rdf:RDF></metadata><defs
     id="defs5856" /><g
     transform="matrix(1.25,0,0,-1.25,0,450.005)"
     id="g5860"><g
       id="g5862"><path
         id="path5864"
         style="fill:#ffffff;fill-opacity:1;fill-rule:nonzero;stroke:none"
         d="m 31.996,359.774 c -17.504,0 -31.754,-14.25 -31.754,-31.766 L 0.242,32 c 0,-17.508 14.25,-31.758 31.754,-31.758 l 416.008,0 c 17.516,0 31.766,14.25 31.766,31.758 l 0,296.008 c 0,17.516 -14.25,31.766 -31.766,31.766" /><path
         id="path5866"
         style="fill:#000000;fill-opacity:1;fill-rule:nonzero;stroke:none"
         d="M 31.996,0.469 C 14.613,0.469 0.477,14.613 0.477,32 l 0,296.008 c 0,17.383 14.136,31.523 31.519,31.523 l 416.008,0 c 17.383,0 31.519,-14.14 31.519,-31.523 l 0,-296.008 c 0,-17.387 -14.136,-31.531 -31.519,-31.531 l -416.008,0 z m 416.008,359.535 -416.008,0 C 14.328,360.004 0,345.676 0,328.008 L 0,32 C 0,14.328 14.328,0 31.996,0 L 448.004,0 C 465.672,0 480,14.328 480,32 l 0,296.008 c 0,17.668 -14.328,31.996 -31.996,31.996" /><path
         id="path5868"
         style="fill:#000000;fill-opacity:1;fill-rule:nonzero;stroke:none"
         d="m 31.996,352.012 c -13.25,0 -23.992,-10.746 -23.992,-24.004 L 8.004,32 C 8.004,18.75 18.746,7.996 31.996,7.996 l 416.008,0 c 13.25,0 24.004,10.754 24.004,24.004 l 0,296.008 c 0,13.258 -10.754,24.004 -24.004,24.004 l -416.008,0 z m 0,-12.008 416.008,0 c 6.629,0 12.004,-5.367 12.004,-11.996 l 0,-296.008 c 0,-6.633 -5.375,-11.996 -12.004,-11.996 l -416.008,0 C 25.379,20.004 20,25.367 20,32 l 0,296.008 c 0,6.629 5.379,11.996 11.996,11.996 z" /><path
         id="path5870"
         style="fill:#000000;fill-opacity:1;fill-rule:nonzero;stroke:none"
         d="m 131.086,230.211 c 0,-9.125 -7.395,-16.523 -16.52,-16.523 -9.125,0 -16.523,7.398 -16.523,16.523 0,9.125 7.398,16.523 16.523,16.523 9.125,0 16.52,-7.398 16.52,-16.523 z" /><path
         id="path5872"
         style="fill:#000000;fill-opacity:1;fill-rule:evenodd;stroke:none"
         d="m 171.012,295.09 c -1.852,0.113 -2.856,-0.762 -3.735,-1.781 l -26.718,-26.766 -58.43,-9.707 C 81.32,256.125 80.5,255.43 79.848,253.602 L 79.973,233.5 c 1.269,-3.226 2.125,-2.805 3.086,-3.254 l 11.25,0 c 0,27.328 40.703,27.223 40.703,0 l 103.804,0 c 0,27.387 40.399,27.328 40.399,0 l 9.219,0 c 1.546,0.145 2.418,1.512 3.156,3.113 l -0.149,27.954 c -0.113,0.597 -0.332,1.308 -0.773,2.234 l -39.723,31.543 -79.933,0 z m -1.047,-8.406 c 0.082,0.004 0.176,0 0.273,-0.016 l 35.407,0 0,-24.062 -55.383,0 c -2.106,0.832 -2.391,2.093 -1.516,3.625 l 19.91,19.648 c 0.391,0.336 0.711,0.777 1.309,0.805 z m 72.312,-0.004 c 0.598,-0.028 0.918,-0.473 1.313,-0.805 l 17.062,-17.184 c 1.571,-2.371 4.727,-5.609 2.328,-6.089 l -50.757,0 0,24.062 29.781,0 c 0.098,0.012 0.187,0.016 0.273,0.016 z" /><path
         id="path5874"
         style="fill:#000000;fill-opacity:1;fill-rule:nonzero;stroke:none"
         d="m 275.367,230.215 c 0,-9.125 -7.402,-16.52 -16.527,-16.52 -9.125,0 -16.516,7.395 -16.516,16.52 0,9.129 7.391,16.523 16.516,16.523 9.125,0 16.527,-7.394 16.527,-16.523 z" /><path
         id="path5876"
         style="fill:#000000;fill-opacity:1;fill-rule:evenodd;stroke:none"
         d="m 337.297,238.609 -26.074,0 0,-4.25 -16.141,0 0,-4.308 40.836,0 c 0.312,2.879 0.227,5.824 1.379,8.558 z" /><path
         id="path5878"
         style="fill:#000000;fill-opacity:1;fill-rule:nonzero;stroke:none"
         d="m 372.445,230.207 c 0,-9.129 -7.402,-16.523 -16.527,-16.523 -9.125,0 -16.52,7.394 -16.52,16.523 0,9.125 7.395,16.52 16.52,16.52 9.125,0 16.527,-7.395 16.527,-16.52 z" /><path
         id="path5880"
         style="fill:#000000;fill-opacity:1;fill-rule:evenodd;stroke:none"
         d="m 311.281,242.285 0,37.449 c 0.809,5.84 3.801,6.399 6.547,7.239 l 76.387,0 c 2.082,-0.539 4.633,-0.981 5.922,-6.778 l 0,-37.91 -28.262,0 c -5.801,11.91 -25.844,11.965 -31.996,0 l -28.598,0 z" /><path
         id="path5882"
         style="fill:#000000;fill-opacity:1;fill-rule:evenodd;stroke:none"
         d="m 400.164,238.609 -4.105,-8.558 -20.223,0 c -0.598,2.871 -0.559,5.828 -2.125,8.558 l 26.453,0 z" /><path
         id="path5884"
         style="fill:#000000;fill-opacity:1;fill-rule:evenodd;stroke:none"
         d="m 188.703,160.629 0,-62.234 98.246,-0.082 c -5.765,-4.707 -9.363,-11.204 -9.32,-19.723 l -97.524,0.059 c -0.933,33.058 -47.835,32.945 -48.855,0.191 -7.043,0.051 -8.023,1.652 -8.09,8.141 l 0,24.816 c -0.09,11.09 -1.472,3.769 6.735,24.801 8.449,22.418 6.121,20.343 13.761,20.926 l 45.047,3.105 z m -19.512,-36.695 0.391,26.437 -25.082,-1.555 c -4.57,-0.304 -4.609,-0.335 -6.219,-5.636 l -6.418,-17.106 c -2.156,-5.25 -1.812,-6.797 4.082,-6.027 l 33.246,3.887 z m 187.672,-25.668 0.047,-13.981 -16.195,-5.73 -14.219,0.008 c 0.059,8.105 -3.312,14.925 -9.281,19.714 l 39.648,-0.011 z" /><path
         id="path5886"
         style="fill:#000000;fill-opacity:1;fill-rule:nonzero;stroke:none"
         d="m 198.742,179.34 158.25,0 0,-75.625 -158.25,0 0,75.625 z" /><path
         id="path5888"
         style="fill:#000000;fill-opacity:1;fill-rule:nonzero;stroke:none"
         d="m 174.973,79.113 c 0,-10.66 -8.645,-19.3 -19.305,-19.3 -10.656,0 -19.301,8.64 -19.301,19.3 0,10.661 8.645,19.301 19.301,19.301 10.66,0 19.305,-8.64 19.305,-19.301 z" /><path
         id="path5890"
         style="fill:#000000;fill-opacity:1;fill-rule:nonzero;stroke:none"
         d="m 321.359,79.113 c 0,-10.66 -8.64,-19.3 -19.3,-19.3 -10.661,0 -19.301,8.64 -19.301,19.3 0,10.661 8.64,19.301 19.301,19.301 10.66,0 19.3,-8.64 19.3,-19.301 z" /></g></g></svg>