<?xml version="1.0" encoding="UTF-8" standalone="no"?>
<svg
   xmlns:dc="http://purl.org/dc/elements/1.1/"
   xmlns:cc="http://creativecommons.org/ns#"
   xmlns:rdf="http://www.w3.org/1999/02/22-rdf-syntax-ns#"
   xmlns:svg="http://www.w3.org/2000/svg"
   xmlns="http://www.w3.org/2000/svg"
   viewBox="0 0 600 450.005"
   height="450.005"
   width="600"
   xml:space="preserve"
   version="1.1"
   id="svg5351"><metadata
     id="metadata5357"><rdf:RDF><cc:Work
         rdf:about=""><dc:format>image/svg+xml</dc:format><dc:type
           rdf:resource="http://purl.org/dc/dcmitype/StillImage" /><dc:title></dc:title></cc:Work></rdf:RDF></metadata><defs
     id="defs5355" /><g
     transform="matrix(1.25,0,0,-1.25,0,450.005)"
     id="g5359"><g
       id="g5361"><path
         id="path5363"
         style="fill:#ffffff;fill-opacity:1;fill-rule:nonzero;stroke:none"
         d="m 31.996,359.774 c -17.504,0 -31.754,-14.25 -31.754,-31.766 L 0.242,32 c 0,-17.508 14.25,-31.758 31.754,-31.758 l 416.008,0 c 17.516,0 31.766,14.25 31.766,31.758 l 0,296.008 c 0,17.516 -14.25,31.766 -31.766,31.766" /><path
         id="path5365"
         style="fill:#000000;fill-opacity:1;fill-rule:nonzero;stroke:none"
         d="M 31.996,0.469 C 14.613,0.469 0.477,14.613 0.477,32 l 0,296.008 c 0,17.383 14.136,31.523 31.519,31.523 l 416.008,0 c 17.383,0 31.519,-14.14 31.519,-31.523 l 0,-296.008 c 0,-17.387 -14.136,-31.531 -31.519,-31.531 l -416.008,0 z m 416.008,359.535 -416.008,0 C 14.328,360.004 0,345.676 0,328.008 L 0,32 C 0,14.328 14.328,0 31.996,0 L 448.004,0 C 465.672,0 480,14.328 480,32 l 0,296.008 c 0,17.668 -14.328,31.996 -31.996,31.996" /><path
         id="path5367"
         style="fill:#000000;fill-opacity:1;fill-rule:nonzero;stroke:none"
         d="m 31.996,352.012 c -13.25,0 -23.992,-10.746 -23.992,-24.004 L 8.004,32 C 8.004,18.75 18.746,7.996 31.996,7.996 l 416.008,0 c 13.25,0 24.004,10.754 24.004,24.004 l 0,296.008 c 0,13.258 -10.754,24.004 -24.004,24.004 l -416.008,0 z m 0,-12.008 416.008,0 c 6.629,0 12.004,-5.367 12.004,-11.996 l 0,-296.008 c 0,-6.633 -5.375,-11.996 -12.004,-11.996 l -416.008,0 C 25.379,20.004 20,25.367 20,32 l 0,296.008 c 0,6.629 5.379,11.996 11.996,11.996 z" /><path
         id="path5369"
         style="fill:#000000;fill-opacity:1;fill-rule:nonzero;stroke:none"
         d="m 117.238,279.215 c -1.945,0 -3.687,-1.199 -4.383,-3.024 l -11.683,-31.132 c -0.777,-2.102 -1.184,-4.332 -1.184,-6.563 l 0,-36.289 c 0,-2.582 2.09,-4.656 4.672,-4.656 l 9.348,0 c 0,8.898 5.597,16.824 13.984,19.793 10.93,3.871 22.934,-1.86 26.805,-12.801 l 28.074,0 c 2.969,8.391 10.902,14.004 19.809,14.004 11.59,0 20.976,-9.406 20.976,-20.996 l 7.012,0 c 0,15.461 -12.527,27.988 -27.988,27.988 l -46.68,0 0,53.676 -38.762,0 z m -2.078,-9.332 24.5,0 0,-23.332 -33.262,-3.914 c -0.519,-0.071 -0.976,0.301 -1.031,0.804 -0.019,0.157 0.008,0.305 0.051,0.45 l 9.742,25.992 z m 19.824,-56.008 c -9.015,0 -16.32,-7.305 -16.32,-16.324 0,-9.027 7.305,-16.336 16.32,-16.336 9.032,0 16.34,7.309 16.34,16.336 0,9.019 -7.312,16.324 -16.34,16.324 z m 67.696,0 c -9.028,0 -16.356,-7.305 -16.356,-16.324 0,-9.027 7.328,-16.336 16.356,-16.336 9.015,0 16.32,7.309 16.32,16.336 0,9.019 -7.305,16.324 -16.32,16.324 z" /><path
         id="path5371"
         style="fill:#000000;fill-opacity:1;fill-rule:nonzero;stroke:none"
         d="m 368.336,197.551 c 0,-9.027 -7.313,-16.34 -16.332,-16.34 -9.016,0 -16.34,7.313 -16.34,16.34 0,9.015 7.324,16.328 16.34,16.328 9.019,0 16.332,-7.313 16.332,-16.328 z m -37.332,0 c 0,-9.027 -7.324,-16.34 -16.34,-16.34 -9.016,0 -16.328,7.313 -16.328,16.34 0,9.015 7.312,16.328 16.328,16.328 9.016,0 16.34,-7.313 16.34,-16.328 z m 48.996,0 -7.004,0 c 0,11.59 -9.402,20.992 -20.992,20.992 -5.981,0 -11.676,-2.539 -15.656,-6.992 l -6.036,0 c -7.73,8.64 -20.992,9.379 -29.648,1.648 -4.453,-3.98 -7.004,-9.675 -7.004,-15.648 l -6.992,0 c 0,15.461 12.535,27.996 27.996,27.996 l 37.34,0 c 15.461,0 27.996,-12.535 27.996,-27.996 z m 0,32.66 -205.336,0 0,65.336 205.336,0" /><path
         id="path5373"
         style="fill:#000000;fill-opacity:1;fill-rule:nonzero;stroke:none"
         d="m 115.383,138.348 -39.996,-2.512 c -1.817,-0.109 -3.391,-1.266 -4.039,-2.969 L 61.176,105.719 c -0.781,-2.078 -1.168,-4.278 -1.168,-6.477 l 0,-25.511 c 0,-2.543 2.043,-4.606 4.605,-4.606 l 2.301,0 c 0,11.469 9.305,20.754 20.774,20.754 11.468,0 20.769,-9.285 20.769,-20.754 l 83.07,0 c 0,6.266 2.832,12.203 7.715,16.149 l -83.859,0 0,53.074 z m -16.153,-8.078 0,-23.075 -30.648,-3.605 c -1.277,-0.156 -2.418,0.746 -2.562,2.008 -0.043,0.375 0.007,0.75 0.14,1.101 l 7.731,20.617 c 0.316,0.848 1.113,1.442 2.027,1.497 l 23.312,1.457 z" /><path
         id="path5375"
         style="fill:#000000;fill-opacity:1;fill-rule:nonzero;stroke:none"
         d="m 420.004,89.879 -143.09,0 0,64.625 143.09,0 0,-64.625 z m -20.77,-20.758 c 0,-8.918 -7.238,-16.152 -16.156,-16.152 -8.926,0 -16.164,7.234 -16.164,16.152 0,8.918 7.238,16.153 16.164,16.153 8.918,0 16.156,-7.235 16.156,-16.153 z m -78.468,0 c 0,-8.918 -7.223,-16.152 -16.153,-16.152 -8.918,0 -16.152,7.234 -16.152,16.152 0,8.918 7.234,16.153 16.152,16.153 8.93,0 16.153,-7.235 16.153,-16.153 z m 99.238,4.606 -16.68,0 c -1.035,4.543 -3.574,8.609 -7.191,11.547 l 23.871,0 0,-11.547 z m -95.137,0 c -1.043,4.543 -3.574,8.609 -7.203,11.547 l 52.352,0 c -3.618,-2.938 -6.157,-7.004 -7.192,-11.547 l -37.957,0 z m -57.179,0 0,11.547 23.874,0 c -3.628,-2.938 -6.16,-7.004 -7.191,-11.547 l -16.683,0 z m -9.223,16.152 -133.852,0 0,64.625 133.852,0 0,-64.625 z m -13.844,-20.758 -11.547,0 c 0,6.266 -2.836,12.203 -7.719,16.153 l 33.11,0 0,-11.547 -13.844,-4.606 z m -16.164,0 c 0,-8.918 -7.227,-16.152 -16.152,-16.152 -8.918,0 -16.153,7.234 -16.153,16.152 0,8.918 7.235,16.153 16.153,16.153 8.925,0 16.152,-7.235 16.152,-16.153 z m -124.617,0 c 0,-8.918 -7.235,-16.152 -16.152,-16.152 -8.918,0 -16.153,7.234 -16.153,16.152 0,8.918 7.235,16.153 16.153,16.153 8.917,0 16.152,-7.235 16.152,-16.153" /></g></g></svg>