<?xml version="1.0" encoding="UTF-8" standalone="no"?>
<svg
   xmlns:dc="http://purl.org/dc/elements/1.1/"
   xmlns:cc="http://creativecommons.org/ns#"
   xmlns:rdf="http://www.w3.org/1999/02/22-rdf-syntax-ns#"
   xmlns:svg="http://www.w3.org/2000/svg"
   xmlns="http://www.w3.org/2000/svg"
   viewBox="0 0 600 330"
   height="330"
   width="600"
   xml:space="preserve"
   version="1.1"
   id="svg5170"><metadata
     id="metadata5176"><rdf:RDF><cc:Work
         rdf:about=""><dc:format>image/svg+xml</dc:format><dc:type
           rdf:resource="http://purl.org/dc/dcmitype/StillImage" /><dc:title></dc:title></cc:Work></rdf:RDF></metadata><defs
     id="defs5174" /><g
     transform="matrix(1.25,0,0,-1.25,0,330)"
     id="g5178"><g
       id="g5180"><path
         id="path5182"
         style="fill:#ffffff;fill-opacity:1;fill-rule:nonzero;stroke:none"
         d="m 31.996,263.758 c -17.512,0 -31.754,-14.254 -31.754,-31.766 l 0,-199.996 C 0.242,14.484 14.484,0.242 31.996,0.242 l 416.008,0 c 17.512,0 31.754,14.242 31.754,31.754 l 0,199.996 c 0,17.512 -14.242,31.766 -31.754,31.766" /><path
         id="path5184"
         style="fill:#000000;fill-opacity:1;fill-rule:nonzero;stroke:none"
         d="M 31.996,0.484 C 14.613,0.484 0.484,14.613 0.484,31.996 l 0,199.996 c 0,17.383 14.129,31.524 31.512,31.524 l 416.008,0 c 17.383,0 31.512,-14.141 31.512,-31.524 l 0,-199.996 c 0,-17.383 -14.129,-31.512 -31.512,-31.512 l -416.008,0 z M 448.004,264 31.996,264 C 14.32,264 0,249.672 0,231.992 L 0,31.996 C 0,14.328 14.32,0 31.996,0 L 448.004,0 C 465.672,0 480,14.328 480,31.996 l 0,199.996 C 480,249.672 465.672,264 448.004,264" /><path
         id="path5186"
         style="fill:#000000;fill-opacity:1;fill-rule:nonzero;stroke:none"
         d="m 31.996,19.996 416.008,0 c 6.629,0 12,5.371 12,12 l 0,199.996 c 0,6.629 -5.371,12 -12,12 l -416.008,0 c -6.629,0 -12,-5.371 -12,-12 l 0,-199.996 c 0,-6.629 5.371,-12 12,-12 z m 0,-12 c -13.258,0 -24,10.742 -24,24 l 0,199.996 c 0,13.258 10.742,24 24,24 l 416.008,0 c 13.258,0 24,-10.742 24,-24 l 0,-199.996 c 0,-13.258 -10.742,-24 -24,-24" /><path
         id="path5188"
         style="fill:#000000;fill-opacity:1;fill-rule:nonzero;stroke:none"
         d="m 92.281,100.957 10.391,0 c -6.387,-7.145 -5.774,-18.117 1.367,-24.504 1.191,-1.062 2.527,-1.961 3.961,-2.672 l 33.801,-16.472 c 3.554,-1.739 7.461,-2.637 11.41,-2.637 l 185.152,0 c 3.949,0 7.856,0.898 11.399,2.637 l 33.812,16.472 c 8.621,4.203 12.196,14.594 7.996,23.215 -0.699,1.434 -1.597,2.777 -2.656,3.961 l 10.379,0 c 6.387,-12.879 1.125,-28.496 -11.758,-34.887 -0.047,-0.031 -0.109,-0.054 -0.156,-0.086 L 353.566,49.508 c -4.734,-2.309 -9.941,-3.512 -15.203,-3.512 l -185.152,0 c -5.262,0 -10.469,1.203 -15.207,3.512 l -33.801,16.476 c -12.93,6.301 -18.301,21.887 -12,34.817 0.024,0.054 0.055,0.101 0.078,0.156" /><path
         id="path5190"
         style="fill:#000000;fill-opacity:1;fill-rule:nonzero;stroke:none"
         d="m 387.535,89.383 c 0,-6.391 -5.176,-11.563 -11.562,-11.563 -6.403,0 -11.575,5.172 -11.575,11.563 0,6.398 5.172,11.574 11.575,11.574 6.386,0 11.562,-5.176 11.562,-11.574 z m -28.926,-8.676 c 0,-11.18 -9.066,-20.246 -20.246,-20.246 -11.191,0 -20.258,9.066 -20.258,20.246 0,11.191 9.067,20.25 20.258,20.25 11.18,0 20.246,-9.059 20.246,-20.25 z m -46.281,0 c 0,-11.18 -9.066,-20.246 -20.246,-20.246 -11.191,0 -20.262,9.066 -20.262,20.246 0,11.191 9.071,20.25 20.262,20.25 11.18,0 20.246,-9.059 20.246,-20.25 z m -46.281,0 c 0,-11.18 -9.082,-20.246 -20.262,-20.246 -11.18,0 -20.246,9.066 -20.246,20.246 0,11.191 9.066,20.25 20.246,20.25 11.18,0 20.262,-9.059 20.262,-20.25 z m -46.293,0 c 0,-11.18 -9.07,-20.246 -20.25,-20.246 -11.192,0 -20.246,9.066 -20.246,20.246 0,11.191 9.054,20.25 20.246,20.25 11.18,0 20.25,-9.059 20.25,-20.25 z m -46.285,0 c 0,-11.18 -9.067,-20.246 -20.258,-20.246 -11.18,0 -20.25,9.066 -20.25,20.246 0,11.191 9.07,20.25 20.25,20.25 11.191,0 20.258,-9.059 20.258,-20.25 z m -46.293,8.676 c 0,-6.391 -5.176,-11.563 -11.574,-11.563 -6.387,0 -11.563,5.172 -11.563,11.563 0,6.398 5.176,11.574 11.563,11.574 6.398,0 11.574,-5.176 11.574,-11.574" /><path
         id="path5192"
         style="fill:#000000;fill-opacity:1;fill-rule:nonzero;stroke:none"
         d="m 402.008,106.754 -316.774,0 c -4.004,0 -7.23,3.226 -7.23,7.23 0,3.227 2.144,6.071 5.262,6.957 l 93.089,26.309 133.075,0 92.578,17.359" /><path
         id="path5194"
         style="fill:#000000;fill-opacity:1;fill-rule:nonzero;stroke:none"
         d="m 240,153.035 -23.137,11.574 0,33.266 138.86,13.016 0,-43.395 -46.293,-8.676 0,-5.785" /><path
         id="path5196"
         style="fill:#000000;fill-opacity:1;fill-rule:nonzero;stroke:none"
         d="m 212.523,173.285 -134.519,5.785 0,11.575 134.519,0" /></g></g></svg>