<?xml version="1.0" encoding="UTF-8" standalone="no"?>
<svg
   xmlns:dc="http://purl.org/dc/elements/1.1/"
   xmlns:cc="http://creativecommons.org/ns#"
   xmlns:rdf="http://www.w3.org/1999/02/22-rdf-syntax-ns#"
   xmlns:svg="http://www.w3.org/2000/svg"
   xmlns="http://www.w3.org/2000/svg"
   viewBox="0 0 600 450.005"
   height="450.005"
   width="600"
   xml:space="preserve"
   version="1.1"
   id="svg4995"><metadata
     id="metadata5001"><rdf:RDF><cc:Work
         rdf:about=""><dc:format>image/svg+xml</dc:format><dc:type
           rdf:resource="http://purl.org/dc/dcmitype/StillImage" /><dc:title></dc:title></cc:Work></rdf:RDF></metadata><defs
     id="defs4999" /><g
     transform="matrix(1.25,0,0,-1.25,0,450.005)"
     id="g5003"><g
       id="g5005"><path
         id="path5007"
         style="fill:#ffffff;fill-opacity:1;fill-rule:nonzero;stroke:none"
         d="m 31.996,359.774 c -17.504,0 -31.754,-14.25 -31.754,-31.766 L 0.242,32 c 0,-17.508 14.25,-31.758 31.754,-31.758 l 416.008,0 c 17.516,0 31.766,14.25 31.766,31.758 l 0,296.008 c 0,17.516 -14.25,31.766 -31.766,31.766" /><path
         id="path5009"
         style="fill:#000000;fill-opacity:1;fill-rule:nonzero;stroke:none"
         d="M 31.996,0.469 C 14.613,0.469 0.477,14.613 0.477,32 l 0,296.008 c 0,17.383 14.136,31.523 31.519,31.523 l 416.008,0 c 17.383,0 31.519,-14.14 31.519,-31.523 l 0,-296.008 c 0,-17.387 -14.136,-31.531 -31.519,-31.531 l -416.008,0 z m 416.008,359.535 -416.008,0 C 14.328,360.004 0,345.676 0,328.008 L 0,32 C 0,14.328 14.328,0 31.996,0 L 448.004,0 C 465.672,0 480,14.328 480,32 l 0,296.008 c 0,17.668 -14.328,31.996 -31.996,31.996" /><path
         id="path5011"
         style="fill:#000000;fill-opacity:1;fill-rule:nonzero;stroke:none"
         d="m 31.996,352.012 c -13.25,0 -23.992,-10.746 -23.992,-24.004 L 8.004,32 C 8.004,18.75 18.746,7.996 31.996,7.996 l 416.008,0 c 13.25,0 24.004,10.754 24.004,24.004 l 0,296.008 c 0,13.258 -10.754,24.004 -24.004,24.004 l -416.008,0 z m 0,-12.008 416.008,0 c 6.629,0 12.004,-5.367 12.004,-11.996 l 0,-296.008 c 0,-6.633 -5.375,-11.996 -12.004,-11.996 l -416.008,0 C 25.379,20.004 20,25.367 20,32 l 0,296.008 c 0,6.629 5.379,11.996 11.996,11.996 z" /><path
         id="path5013"
         style="fill:#000000;fill-opacity:1;fill-rule:nonzero;stroke:none"
         d="m 315.895,316.836 0,-68.605 c -14.504,17.472 -40.422,19.871 -57.883,5.367 -9.403,-7.817 -14.844,-19.395 -14.844,-31.625 l -34.012,0 c -8.718,10.91 -24.64,12.668 -35.547,3.937 -1.453,-1.164 -2.773,-2.484 -3.937,-3.937 l -5.555,0 -6.246,40.136 c -0.535,3.442 1.828,6.684 5.281,7.211 0.317,0.055 0.649,0.082 0.965,0.082 l 79.051,0 6.144,36.868 c 1.012,6.093 6.293,10.566 12.481,10.566" /><path
         id="path5015"
         style="fill:#ffffff;fill-opacity:1;fill-rule:nonzero;stroke:none"
         d="m 300.094,307.344 0,-37.945 -49.02,0 5.883,35.308 c 0.262,1.516 1.57,2.637 3.121,2.637" /><path
         id="path5017"
         style="fill:#000000;fill-opacity:1;fill-rule:nonzero;stroke:none"
         d="m 322.227,221.973 c 0,-20.957 -17,-37.946 -37.946,-37.946 -20.957,0 -37.945,16.989 -37.945,37.946 0,20.961 16.988,37.949 37.945,37.949 20.946,0 37.946,-16.988 37.946,-37.949" /><path
         id="path5019"
         style="fill:#ffffff;fill-opacity:1;fill-rule:nonzero;stroke:none"
         d="m 303.25,221.973 c 0,-10.477 -8.492,-18.965 -18.969,-18.965 -10.492,0 -18.98,8.488 -18.98,18.965 0,10.48 8.488,18.968 18.98,18.968 10.477,0 18.969,-8.488 18.969,-18.968" /><path
         id="path5021"
         style="fill:#000000;fill-opacity:1;fill-rule:nonzero;stroke:none"
         d="m 211.555,206.16 c 0,-12.226 -9.907,-22.133 -22.137,-22.133 -12.227,0 -22.133,9.907 -22.133,22.133 0,12.231 9.906,22.137 22.133,22.137 12.23,0 22.137,-9.906 22.137,-22.137" /><path
         id="path5023"
         style="fill:#ffffff;fill-opacity:1;fill-rule:nonzero;stroke:none"
         d="m 200.48,206.16 c 0,-6.113 -4.945,-11.058 -11.062,-11.058 -6.113,0 -11.07,4.945 -11.07,11.058 0,6.117 4.957,11.074 11.07,11.074 6.117,0 11.062,-4.957 11.062,-11.074" /><path
         id="path5025"
         style="fill:#000000;fill-opacity:1;fill-rule:nonzero;stroke:none"
         d="m 71.258,122.375 0,15.305 c 0,1.992 -1.617,3.597 -3.606,3.597 -1.98,0 -3.597,-1.605 -3.597,-3.597 l 0,-15.305 c 0,-1.98 1.617,-3.598 3.597,-3.598 1.989,0 3.606,1.618 3.606,3.598 z m 7.203,-10.348 -7.203,0 0,3.606 c -1.988,-3.727 -6.617,-5.145 -10.356,-3.156 -2.488,1.332 -4.047,3.925 -4.047,6.754 l 0,21.593 c 0,4.223 3.43,7.653 7.653,7.653 2.824,0 5.422,-1.559 6.75,-4.047 l 0,18.004 7.203,0" /><path
         id="path5027"
         style="fill:#000000;fill-opacity:1;fill-rule:nonzero;stroke:none"
         d="m 105.457,155.231 -7.203,0 0,7.203 7.203,0 0,-7.203 z m -10.801,0 -7.199,0 0,7.203 7.199,0 0,-7.203 z m 12.602,-43.204 -7.199,0 0,3.606 c -1.993,-3.727 -6.621,-5.145 -10.348,-3.156 -2.496,1.332 -4.059,3.925 -4.059,6.754 l 0,28.796 7.203,0 0,-25.652 c 0,-1.98 1.618,-3.598 3.594,-3.598 1.992,0 3.61,1.618 3.61,3.598 l 0,25.652 7.199,0" /><path
         id="path5029"
         style="fill:#000000;fill-opacity:1;fill-rule:nonzero;stroke:none"
         d="m 114.461,112.027 0,36 7.191,0 0,-4.058 c 2.309,2.847 5.786,4.508 9.457,4.508 l 0,-7.563 c -3.781,1.254 -7.851,-0.805 -9.093,-4.586 -0.231,-0.726 -0.364,-1.484 -0.364,-2.254 l 0,-22.047" /><path
         id="path5031"
         style="fill:#000000;fill-opacity:1;fill-rule:nonzero;stroke:none"
         d="m 138.312,112.027 0,30.149 -3.609,0 0,5.851 3.609,0 0,5.399 c 0,4.98 4.024,9.008 8.993,9.008 l 3.609,0 0,-6.754 -3.156,0 c -1.242,0 -2.254,-1 -2.254,-2.254 l 0,-5.399 5.41,0 0,-5.851 -5.41,0 0,-30.149" /><path
         id="path5033"
         style="fill:#000000;fill-opacity:1;fill-rule:nonzero;stroke:none"
         d="m 161.711,133.172 7.203,0 0,4.508 c 0,1.992 -1.617,3.597 -3.609,3.597 -1.989,0 -3.594,-1.605 -3.594,-3.597 l 0,-4.508 z m 14.394,-10.797 c 0,-5.961 -4.828,-10.801 -10.8,-10.801 -5.957,0 -10.797,4.84 -10.797,10.801 l 0,15.305 c 0,5.972 4.84,10.797 10.797,10.797 5.972,0 10.8,-4.825 10.8,-10.797 l 0,-10.348 -14.394,0 0,-4.957 c 0,-1.98 1.605,-3.598 3.594,-3.598 1.992,0 3.609,1.618 3.609,3.598" /><path
         id="path5035"
         style="fill:#000000;fill-opacity:1;fill-rule:nonzero;stroke:none"
         d="m 182.406,112.027 0,36 7.199,0 0,-3.597 c 1.993,3.73 6.622,5.136 10.348,3.148 2.496,-1.332 4.059,-3.926 4.059,-6.754 l 0,-28.797 -7.203,0 0,25.653 c 0,1.992 -1.618,3.597 -3.606,3.597 -1.98,0 -3.598,-1.605 -3.598,-3.597 l 0,-25.653" /><path
         id="path5037"
         style="fill:#000000;fill-opacity:1;fill-rule:nonzero;stroke:none"
         d="m 252.613,155.231 -7.203,0 0,7.203 7.203,0 0,-7.203 z m -10.797,0 -7.203,0 0,7.203 7.203,0 0,-7.203 z m 12.59,-43.204 -7.191,0 0,3.606 c -1.992,-3.727 -6.633,-5.145 -10.36,-3.156 -2.484,1.332 -4.046,3.925 -4.046,6.754 l 0,28.796 7.203,0 0,-25.652 c 0,-1.98 1.605,-3.598 3.593,-3.598 1.993,0 3.61,1.618 3.61,3.598 l 0,25.652 7.191,0" /><path
         id="path5039"
         style="fill:#000000;fill-opacity:1;fill-rule:nonzero;stroke:none"
         d="m 268.809,122.375 c 0,-1.98 1.617,-3.598 3.597,-3.598 1.989,0 3.606,1.618 3.606,3.598 l 0,15.305 c 0,1.992 -1.617,3.597 -3.606,3.597 -1.98,0 -3.597,-1.605 -3.597,-3.597 l 0,-15.305 z m -7.204,-10.348 0,50.407 7.204,0 0,-18.004 c 1.98,3.73 6.621,5.136 10.347,3.148 2.496,-1.332 4.059,-3.926 4.059,-6.754 l 0,-21.593 c 0,-4.223 -3.43,-7.657 -7.653,-7.657 -2.828,0 -5.421,1.563 -6.753,4.059 l 0,-3.606" /><path
         id="path5041"
         style="fill:#000000;fill-opacity:1;fill-rule:nonzero;stroke:none"
         d="m 296.707,133.172 7.199,0 0,4.508 c 0,1.992 -1.613,3.597 -3.594,3.597 -1.988,0 -3.605,-1.605 -3.605,-3.597 l 0,-4.508 z m 14.402,-10.797 c 0,-5.961 -4.836,-10.801 -10.797,-10.801 -5.968,0 -10.796,4.84 -10.796,10.801 l 0,15.305 c 0,5.972 4.828,10.797 10.796,10.797 5.961,0 10.797,-4.825 10.797,-10.797 l 0,-10.348 -14.402,0 0,-4.957 c 0,-1.98 1.617,-3.598 3.605,-3.598 1.981,0 3.594,1.618 3.594,3.598" /><path
         id="path5043"
         style="fill:#000000;fill-opacity:1;fill-rule:nonzero;stroke:none"
         d="m 317.41,112.027 0,36 7.203,0 0,-4.058 c 2.309,2.847 5.785,4.508 9.446,4.508 l 0,-7.563 c -3.77,1.254 -7.84,-0.805 -9.094,-4.586 -0.242,-0.726 -0.352,-1.484 -0.352,-2.254 l 0,-22.047" /><path
         id="path5045"
         style="fill:#000000;fill-opacity:1;fill-rule:nonzero;stroke:none"
         d="m 338.566,112.027 0,50.407 7.192,0 0,-18.004 c 1.992,3.73 6.633,5.136 10.347,3.148 2.497,-1.332 4.059,-3.926 4.059,-6.754 l 0,-28.797 -7.203,0 0,25.653 c 0,1.992 -1.606,3.597 -3.606,3.597 -1.98,0 -3.597,-1.605 -3.597,-3.597 l 0,-25.653" /><path
         id="path5047"
         style="fill:#000000;fill-opacity:1;fill-rule:nonzero;stroke:none"
         d="m 373.664,122.375 c 0,-1.98 1.606,-3.598 3.598,-3.598 1.988,0 3.593,1.618 3.593,3.598 l 0,15.305 c 0,1.992 -1.605,3.597 -3.593,3.597 -1.992,0 -3.598,-1.605 -3.598,-3.597 l 0,-15.305 z m -7.199,0 0,15.305 c 0,5.972 4.824,10.797 10.797,10.797 5.961,0 10.797,-4.825 10.797,-10.797 l 0,-15.305 c 0,-5.961 -4.836,-10.801 -10.797,-10.801 -5.973,0 -10.797,4.84 -10.797,10.801" /><path
         id="path5049"
         style="fill:#000000;fill-opacity:1;fill-rule:nonzero;stroke:none"
         d="m 405.156,112.027 -2.691,0 c -4.477,0 -8.106,3.629 -8.106,8.102 l 0,42.305 7.203,0 0,-41.403 c 0,-1.254 1,-2.254 2.254,-2.254 l 1.34,0" /><path
         id="path5051"
         style="fill:#000000;fill-opacity:1;fill-rule:nonzero;stroke:none"
         d="m 423.156,112.027 -3.594,0 c -4.476,0 -8.105,3.629 -8.105,8.102 l 0,22.047 -3.594,0 0,5.851 3.594,0 0,10.797 7.203,0 0,-10.797 4.496,0 0,-5.851 -4.496,0 0,-21.145 c 0,-1.254 1,-2.254 2.254,-2.254 l 2.242,0" /><path
         id="path5053"
         style="fill:#000000;fill-opacity:1;fill-rule:nonzero;stroke:none"
         d="m 164.637,43.633 -8.555,36 7.652,0 4.496,-22.508 4.047,22.508 5.411,0 4.046,-22.508 4.496,22.508 7.653,0 -8.555,-36 -6.289,0 -4.059,21.598 -4.042,-21.598" /><path
         id="path5055"
         style="fill:#000000;fill-opacity:1;fill-rule:nonzero;stroke:none"
         d="m 204.684,64.777 7.199,0 0,4.497 c 0,1.992 -1.613,3.609 -3.606,3.609 -1.98,0 -3.593,-1.617 -3.593,-3.609 l 0,-4.497 z m 14.402,-10.796 c 0,-5.973 -4.836,-10.809 -10.809,-10.809 -5.961,0 -10.797,4.836 -10.797,10.809 l 0,15.293 c 0,5.972 4.836,10.8 10.797,10.8 5.973,0 10.809,-4.828 10.809,-10.8 l 0,-10.344 -14.402,0 0,-4.949 c 0,-1.993 1.613,-3.606 3.593,-3.606 1.993,0 3.606,1.613 3.606,3.606" /><path
         id="path5057"
         style="fill:#000000;fill-opacity:1;fill-rule:nonzero;stroke:none"
         d="m 225.387,43.633 0,36 7.203,0 0,-4.067 c 2.297,2.848 5.773,4.508 9.445,4.508 l 0,-7.554 c -3.781,1.242 -7.851,-0.813 -9.094,-4.586 -0.23,-0.727 -0.351,-1.496 -0.351,-2.254 l 0,-22.047" /><path
         id="path5059"
         style="fill:#000000;fill-opacity:1;fill-rule:nonzero;stroke:none"
         d="m 260.035,53.981 0,15.293 c 0,1.992 -1.605,3.609 -3.605,3.609 -1.981,0 -3.598,-1.617 -3.598,-3.609 l 0,-15.293 c 0,-1.993 1.617,-3.606 3.598,-3.606 2,0 3.605,1.613 3.605,3.606 z m 7.192,-10.348 -7.192,0 0,3.598 c -1.992,-3.731 -6.621,-5.137 -10.347,-3.157 -2.497,1.34 -4.059,3.934 -4.059,6.75 l 0,21.606 c 0,4.222 3.433,7.644 7.656,7.644 2.824,0 5.418,-1.55 6.75,-4.047 l 0,18 7.192,0" /><path
         id="path5061"
         style="fill:#000000;fill-opacity:1;fill-rule:nonzero;stroke:none"
         d="m 281.629,64.777 7.203,0 0,4.497 c 0,1.992 -1.605,3.609 -3.605,3.609 -1.981,0 -3.598,-1.617 -3.598,-3.609 l 0,-4.497 z m 14.406,-10.796 c 0,-5.973 -4.84,-10.809 -10.808,-10.809 -5.961,0 -10.797,4.836 -10.797,10.809 l 0,15.293 c 0,5.972 4.836,10.8 10.797,10.8 5.968,0 10.808,-4.828 10.808,-10.8 l 0,-10.344 -14.406,0 0,-4.949 c 0,-1.993 1.617,-3.606 3.598,-3.606 2,0 3.605,1.613 3.605,3.606" /><path
         id="path5063"
         style="fill:#000000;fill-opacity:1;fill-rule:nonzero;stroke:none"
         d="m 302.336,43.633 0,36 7.191,0 0,-3.606 c 2,3.727 6.629,5.145 10.36,3.145 2.496,-1.332 4.043,-3.914 4.043,-6.742 l 0,-28.797 -7.2,0 0,25.641 c 0,1.992 -1.605,3.609 -3.597,3.609 -1.988,0 -3.606,-1.617 -3.606,-3.609 l 0,-25.641" /></g></g></svg>