<?xml version="1.0" encoding="UTF-8" standalone="no"?>
<svg
   xmlns:dc="http://purl.org/dc/elements/1.1/"
   xmlns:cc="http://creativecommons.org/ns#"
   xmlns:rdf="http://www.w3.org/1999/02/22-rdf-syntax-ns#"
   xmlns:svg="http://www.w3.org/2000/svg"
   xmlns="http://www.w3.org/2000/svg"
   viewBox="0 0 600.99414 600.99414"
   height="600.99414"
   width="600.99414"
   xml:space="preserve"
   version="1.1"
   id="svg5628"><metadata
     id="metadata5634"><rdf:RDF><cc:Work
         rdf:about=""><dc:format>image/svg+xml</dc:format><dc:type
           rdf:resource="http://purl.org/dc/dcmitype/StillImage" /><dc:title></dc:title></cc:Work></rdf:RDF></metadata><defs
     id="defs5632" /><g
     transform="matrix(1.25,0,0,-1.25,0,600.99415)"
     id="g5636"><g
       id="g5638"><path
         id="path5640"
         style="fill:#ffffff;fill-opacity:1;fill-rule:nonzero;stroke:none"
         d="m 32.195,480.401 c -17.535,0 -31.793,-14.27 -31.793,-31.793 l 0,-416.414 C 0.402,14.659 14.66,0.401 32.195,0.401 l 416.414,0 c 17.524,0 31.793,14.258 31.793,31.793 l 0,416.414 c 0,17.523 -14.269,31.793 -31.793,31.793 l -416.414,0 z" /><path
         id="path5642"
         style="fill:#000000;fill-opacity:1;fill-rule:nonzero;stroke:none"
         d="M 32.203,480.795 C 14.449,480.795 0,466.354 0,448.616 L 0,32.202 C 0,14.452 14.449,-0.002 32.203,-0.002 l 416.414,0 c 17.738,0 32.18,14.454 32.18,32.204 l 0,416.414 c 0,17.738 -14.442,32.179 -32.18,32.179 l -416.414,0 z m -0.008,-0.394 416.414,0 c 17.52,0 31.793,-14.274 31.793,-31.793 l 0,-416.414 c 0,-17.535 -14.273,-31.793 -31.793,-31.793 l -416.414,0 C 14.66,0.401 0.402,14.659 0.402,32.194 l 0,416.414 c 0,17.519 14.258,31.793 31.793,31.793 z" /><path
         id="path5644"
         style="fill:#000000;fill-opacity:1;fill-rule:nonzero;stroke:none"
         d="m 32.195,472.623 c -13.273,0 -24.027,-10.753 -24.027,-24.015 l 0,-416.414 C 8.168,18.92 18.922,8.166 32.195,8.166 l 416.414,0 c 13.274,0 24.016,10.754 24.016,24.028 l 0,416.414 c 0,13.262 -10.742,24.015 -24.016,24.015 l -416.414,0 z m 0,-12.015 416.414,0 c 6.629,0 12.012,-5.367 12.012,-12 l 0,-416.414 c 0,-6.645 -5.383,-12.016 -12.012,-12.016 l -416.414,0 c -6.633,0 -12.015,5.371 -12.015,12.016 l 0,416.414 c 0,6.633 5.382,12 12.015,12 z" /><path
         id="path5646"
         style="fill:#000000;fill-opacity:1;fill-rule:evenodd;stroke:none"
         d="m 189.137,412.897 0,-64.285 101.484,-0.082 c -5.953,-4.867 -9.672,-11.575 -9.625,-20.375 l -100.742,0.058 c -0.965,34.153 -49.418,34.035 -50.469,0.2 -7.277,0.054 -8.289,1.707 -8.359,8.41 l 0,25.632 c -0.09,11.458 -1.52,3.895 6.961,25.622 8.726,23.156 6.32,21.015 14.211,21.613 l 46.539,3.207 z m -20.16,-37.902 0.402,27.312 -25.906,-1.605 c -4.723,-0.317 -4.762,-0.348 -6.426,-5.825 l -6.629,-17.675 c -2.227,-5.418 -1.871,-7.016 4.219,-6.223 l 34.34,4.016 z m 193.871,-26.516 0.047,-14.441 -16.727,-5.922 -14.691,0.007 c 0.058,8.375 -3.418,15.422 -9.59,20.368 l 40.961,-0.012 z" /><path
         id="path5648"
         style="fill:#000000;fill-opacity:1;fill-rule:nonzero;stroke:none"
         d="m 199.504,432.229 163.477,0 0,-78.121 -163.477,0 0,78.121 z" /><path
         id="path5650"
         style="fill:#000000;fill-opacity:1;fill-rule:nonzero;stroke:none"
         d="m 174.949,328.694 c 0,-11.012 -8.926,-19.938 -19.937,-19.938 -11.012,0 -19.938,8.926 -19.938,19.938 0,11.011 8.926,19.941 19.938,19.941 11.011,0 19.937,-8.93 19.937,-19.941 z" /><path
         id="path5652"
         style="fill:#000000;fill-opacity:1;fill-rule:nonzero;stroke:none"
         d="m 326.172,328.694 c 0,-11.012 -8.926,-19.938 -19.938,-19.938 -11.011,0 -19.941,8.926 -19.941,19.938 0,11.011 8.93,19.941 19.941,19.941 11.012,0 19.938,-8.93 19.938,-19.941 z" /><path
         id="path5654"
         style="fill:#000000;fill-opacity:1;fill-rule:evenodd;stroke:none"
         d="m 99.691,273.362 -0.211,9.672 c 0.208,0.648 0.321,1.394 1.208,1.367 l 275.109,0.176 c 12.48,-2.485 14.953,-34.957 21.41,-53.082 l 0,-39.317 c -3.145,-7.387 -6.539,-7.992 -9.914,-9.25 l -40.965,0.332 c 0,35.719 -54.18,35.52 -54.18,0 l -110.015,0 c 0,35.59 -52.86,35.598 -52.86,0 l -37.992,0 c -1.801,0.528 -3.031,2.203 -4.133,4.129 l 0.442,35.25 16.086,46.43 c 0.562,3.082 -2.653,2.863 -3.985,4.293 z" /><path
         id="path5656"
         style="fill:#000000;fill-opacity:1;fill-rule:nonzero;stroke:none"
         d="m 340.875,183.135 c 0.008,-11.93 -9.664,-21.601 -21.59,-21.601 -11.93,0 -21.601,9.671 -21.594,21.601 -0.007,11.93 9.664,21.602 21.594,21.602 11.926,0 21.598,-9.672 21.59,-21.602 z" /><path
         id="path5658"
         style="fill:#000000;fill-opacity:1;fill-rule:nonzero;stroke:none"
         d="m 177.492,183.01 c 0.004,-11.93 -9.664,-21.601 -21.594,-21.601 -11.929,0 -21.597,9.671 -21.593,21.601 -0.004,11.93 9.664,21.606 21.593,21.606 11.93,0 21.598,-9.676 21.594,-21.606 z" /><path
         id="path5660"
         style="fill:#ffffff;fill-opacity:1;fill-rule:evenodd;stroke:none"
         d="m 330.887,266.842 9.496,-32.363 c 0.558,-1.32 1.105,-2.649 2.652,-3.199 l 32.914,0.078 c 1.313,1.144 2.664,2.215 2.871,4.574 l -9.324,32.359 c -0.762,2.551 -1.812,3.278 -2.906,3.719 l -33.543,-0.043 c -1.637,-0.976 -2.211,-2.801 -2.16,-5.125 z" /><path
         id="path5662"
         style="fill:#ffffff;fill-opacity:1;fill-rule:evenodd;stroke:none"
         d="m 283.609,266.905 9.493,-32.367 c 0.558,-1.321 1.109,-2.649 2.656,-3.2 l 32.91,0.082 c 1.312,1.145 2.668,2.215 2.875,4.575 l -9.324,32.355 c -0.762,2.555 -1.813,3.281 -2.91,3.723 l -33.543,-0.043 c -1.633,-0.977 -2.207,-2.801 -2.157,-5.125 z" /><path
         id="path5664"
         style="fill:#ffffff;fill-opacity:1;fill-rule:evenodd;stroke:none"
         d="m 236.703,266.905 9.496,-32.367 c 0.559,-1.321 1.106,-2.649 2.653,-3.2 l 32.914,0.082 c 1.312,1.145 2.668,2.215 2.871,4.575 l -9.325,32.355 c -0.761,2.555 -1.812,3.281 -2.906,3.723 l -33.543,-0.043 c -1.636,-0.977 -2.211,-2.801 -2.16,-5.125 z" /><path
         id="path5666"
         style="fill:#ffffff;fill-opacity:1;fill-rule:evenodd;stroke:none"
         d="m 190.074,266.905 9.496,-32.367 c 0.559,-1.321 1.106,-2.649 2.653,-3.2 l 32.914,0.082 c 1.312,1.145 2.664,2.215 2.871,4.575 l -9.324,32.355 c -0.762,2.555 -1.813,3.281 -2.907,3.723 l -33.543,-0.043 c -1.636,-0.977 -2.211,-2.801 -2.16,-5.125 z" /><path
         id="path5668"
         style="fill:#ffffff;fill-opacity:1;fill-rule:evenodd;stroke:none"
         d="m 150.918,269.166 -0.004,-34.812 c 0.559,-1.32 1.527,-2.566 3.074,-3.117 l 34.18,0.125 c 1.312,1.144 2.668,2.211 2.875,4.574 l -9.324,32.355 c -0.762,2.555 -1.813,3.282 -2.91,3.723 l -25.352,0.039 c -1.637,-0.976 -2,-0.984 -2.539,-2.887 z" /><path
         id="path5670"
         style="fill:#ffffff;fill-opacity:1;fill-rule:evenodd;stroke:none"
         d="m 142.734,268.1 -0.058,-33.676 c -0.563,-1.32 -1.11,-2.648 -2.656,-3.203 l -38.704,0.203 c -1.312,1.141 -2.668,2.211 -2.875,4.574 l 11.594,32.239 c 0.762,2.551 1.813,3.277 2.91,3.718 l 27.629,-0.101 c 1.637,-0.977 2.211,-1.43 2.16,-3.754 z" /><path
         id="path5672"
         style="fill:#000000;fill-opacity:1;fill-rule:nonzero;stroke:none"
         d="m 131.484,65.1 c 0,-9.125 -7.398,-16.523 -16.523,-16.523 -9.125,0 -16.523,7.398 -16.523,16.523 0,9.125 7.398,16.523 16.523,16.523 9.125,0 16.523,-7.398 16.523,-16.523 z" /><path
         id="path5674"
         style="fill:#000000;fill-opacity:1;fill-rule:evenodd;stroke:none"
         d="m 167.672,128.198 c 0.879,1.019 1.883,1.894 3.734,1.781 l 79.934,0 39.722,-31.543 c 0.442,-0.926 0.661,-1.637 0.774,-2.234 l 0.152,-27.954 c -0.738,-1.601 -1.609,-2.968 -3.156,-3.113 l -9.223,0 c 0,27.328 -40.398,27.387 -40.398,0 l -103.801,0 c 0,27.223 -40.707,27.328 -40.707,0 l -11.246,0 c -0.961,0.449 -1.82,0.031 -3.09,3.254 l -0.121,20.102 c 0.652,1.828 1.469,2.523 2.281,3.234 l 58.43,9.707 26.715,26.766 z" /><path
         id="path5676"
         style="fill:#000000;fill-opacity:1;fill-rule:nonzero;stroke:none"
         d="m 275.762,65.104 c 0,-9.125 -7.399,-16.52 -16.524,-16.52 -9.125,0 -16.519,7.395 -16.519,16.52 0,9.129 7.394,16.523 16.519,16.523 9.125,0 16.524,-7.394 16.524,-16.523 z" /><path
         id="path5678"
         style="fill:#ffffff;fill-opacity:1;fill-rule:evenodd;stroke:none"
         d="m 261.047,103.58 -17.063,17.184 c -0.449,0.383 -0.804,0.906 -1.586,0.789 l -29.781,0 0,-24.062 50.762,0 c 2.398,0.48 -0.762,3.718 -2.332,6.089 z" /><path
         id="path5680"
         style="fill:#000000;fill-opacity:1;fill-rule:evenodd;stroke:none"
         d="m 337.695,73.498 -26.078,0 0,-4.25 -16.14,0 0,-4.308 40.839,0 c 0.309,2.879 0.223,5.824 1.379,8.558 z" /><path
         id="path5682"
         style="fill:#ffffff;fill-opacity:1;fill-rule:evenodd;stroke:none"
         d="m 149.141,101.12 19.91,19.648 c 0.449,0.383 0.801,0.906 1.582,0.789 l 35.406,0 0,-24.062 -55.383,0 c -2.105,0.832 -2.39,2.093 -1.515,3.625 z" /><path
         id="path5684"
         style="fill:#000000;fill-opacity:1;fill-rule:nonzero;stroke:none"
         d="m 372.84,65.096 c 0,-9.129 -7.399,-16.523 -16.524,-16.523 -9.125,0 -16.523,7.394 -16.523,16.523 0,9.125 7.398,16.52 16.523,16.52 9.125,0 16.524,-7.395 16.524,-16.52 z" /><path
         id="path5686"
         style="fill:#000000;fill-opacity:1;fill-rule:evenodd;stroke:none"
         d="m 311.676,77.174 0,37.449 c 0.812,5.84 3.804,6.399 6.547,7.239 l 76.39,0 c 2.082,-0.539 4.629,-0.981 5.918,-6.778 l 0,-37.91 -28.261,0 c -5.801,11.91 -25.844,11.965 -31.993,0 l -28.601,0 z" /><path
         id="path5688"
         style="fill:#000000;fill-opacity:1;fill-rule:evenodd;stroke:none"
         d="m 400.559,73.498 -4.106,-8.558 -20.219,0 c -0.601,2.871 -0.562,5.828 -2.125,8.558 l 26.45,0 z" /></g></g></svg>