<?xml version="1.0" encoding="UTF-8" standalone="no"?>
<svg
   xmlns:dc="http://purl.org/dc/elements/1.1/"
   xmlns:cc="http://creativecommons.org/ns#"
   xmlns:rdf="http://www.w3.org/1999/02/22-rdf-syntax-ns#"
   xmlns:svg="http://www.w3.org/2000/svg"
   xmlns="http://www.w3.org/2000/svg"
   viewBox="0 0 538.7392 404.09695"
   height="404.09695"
   width="538.7392"
   xml:space="preserve"
   version="1.1"
   id="svg2"><metadata
     id="metadata8"><rdf:RDF><cc:Work
         rdf:about=""><dc:format>image/svg+xml</dc:format><dc:type
           rdf:resource="http://purl.org/dc/dcmitype/StillImage" /><dc:title></dc:title></cc:Work></rdf:RDF></metadata><defs
     id="defs6" /><g
     transform="matrix(1.25,0,0,-1.25,0,404.09695)"
     id="g10"><g
       id="g12"><path
         id="path14"
         style="fill:#ffffff;fill-opacity:1;fill-rule:nonzero;stroke:none"
         d="m 28.871,0.141 -0.863,0 L 26.207,0.285 24.406,0.5 22.609,0.86 20.879,1.293 19.152,1.871 17.496,2.516 15.84,3.309 14.258,4.172 12.742,5.11 11.305,6.188 9.938,7.34 8.566,8.567 7.344,9.86 6.191,11.301 5.113,12.742 4.176,14.254 3.312,15.836 2.52,17.492 l -0.649,1.657 -0.574,1.73 -0.434,1.727 -0.359,1.8 -0.215,1.801 -0.074,1.797 -0.07,0.867 0,265.535 0.07,0.864 0.074,1.801 0.215,1.8 0.359,1.797 0.434,1.731 0.574,1.726 0.649,1.656 0.792,1.657 0.864,1.582 0.937,1.515 1.078,1.438 1.153,1.441 1.222,1.297 1.372,1.223 1.367,1.152 1.437,1.078 1.516,0.938 1.582,0.863 1.656,0.793 1.656,0.648 1.727,0.575 1.73,0.433 1.797,0.36 1.801,0.214 1.801,0.145 374.976,0 1.801,-0.145 1.801,-0.214 1.797,-0.36 1.73,-0.433 1.727,-0.575 1.656,-0.648 1.656,-0.793 1.582,-0.863 1.516,-0.938 1.438,-1.078 1.367,-1.152 1.371,-1.223 1.222,-1.297 1.153,-1.441 1.078,-1.438 0.937,-1.515 0.864,-1.582 0.793,-1.657 0.648,-1.656 0.574,-1.726 0.434,-1.731 0.359,-1.797 0.215,-1.8 0.074,-1.801 0.071,-0.864 0,-265.535 -0.071,-0.867 -0.074,-1.797 -0.215,-1.801 -0.359,-1.8 -0.434,-1.727 -0.574,-1.73 -0.648,-1.657 -0.793,-1.656 -0.864,-1.582 -0.937,-1.512 -1.078,-1.441 L 423.648,9.86 422.426,8.567 421.055,7.34 419.688,6.188 418.25,5.11 416.734,4.172 415.152,3.309 413.496,2.516 411.84,1.871 410.113,1.293 408.383,0.86 406.586,0.5 l -1.801,-0.215 -1.801,-0.144 -374.113,0" /><path
         id="path16"
         style="fill:#000000;fill-opacity:1;fill-rule:evenodd;stroke:none"
         d="m 28.871,7.34 -0.648,0 -1.368,0.074 -1.296,0.215 -1.368,0.215 -1.296,0.363 -1.293,0.43 -1.227,0.504 -1.223,0.578 -1.222,0.648 -1.153,0.719 -1.082,0.793 -1.007,0.863 -1.008,0.934 -0.938,0.937 -0.863,1.079 -0.789,1.082 -0.723,1.152 -0.648,1.152 -0.574,1.223 -0.504,1.297 -0.434,1.297 -0.359,1.293 -0.215,1.297 -0.145,1.367 -0.144,1.371 0,266.832 0.289,2.734 0.215,1.297 0.359,1.297 0.434,1.293 0.504,1.297 0.574,1.226 0.648,1.149 0.723,1.152 0.789,1.082 0.863,1.078 0.938,0.938 1.008,0.937 1.007,0.864 1.082,0.789 1.153,0.722 1.222,0.649 1.223,0.574 1.227,0.504 1.293,0.434 1.296,0.359 1.368,0.215 1.296,0.215 1.368,0.074 374.547,0 1.367,-0.074 1.297,-0.215 1.367,-0.215 1.297,-0.359 1.293,-0.434 1.226,-0.504 1.223,-0.574 1.222,-0.649 1.153,-0.722 1.082,-0.789 1.008,-0.864 1.007,-0.937 0.938,-0.938 0.863,-1.078 0.789,-1.082 0.723,-1.152 0.648,-1.149 0.575,-1.226 0.504,-1.297 0.433,-1.293 0.36,-1.297 0.214,-1.297 0.289,-2.734 0,-266.832 -0.144,-1.371 -0.145,-1.367 -0.214,-1.297 -0.36,-1.293 -0.433,-1.297 -0.504,-1.297 -0.575,-1.223 -0.648,-1.152 -0.723,-1.152 -0.789,-1.082 -0.863,-1.079 -0.938,-0.937 -1.007,-0.934 -1.008,-0.863 -1.082,-0.793 -1.153,-0.719 -1.222,-0.648 -1.223,-0.578 -1.226,-0.504 -1.293,-0.43 -1.297,-0.363 -1.367,-0.215 -1.297,-0.215 -1.367,-0.074 -373.899,0 z" /><path
         id="path18"
         style="fill:#ffffff;fill-opacity:1;fill-rule:evenodd;stroke:none"
         d="m 28.871,18.071 -0.285,0.07 -0.723,0 -0.648,0.074 -0.649,0.141 -0.644,0.144 -0.649,0.219 -0.648,0.285 -0.648,0.289 -0.579,0.289 -0.574,0.36 -0.504,0.433 -0.578,0.43 -0.43,0.433 -0.503,0.504 -0.434,0.504 -0.359,0.575 -0.36,0.578 -0.359,0.574 -0.289,0.648 -0.215,0.575 -0.219,0.648 -0.215,0.648 -0.07,0.723 -0.144,0.645 0,267.554 0.144,0.649 0.07,0.718 0.215,0.649 0.219,0.648 0.215,0.575 0.289,0.648 0.359,0.578 0.719,1.149 0.434,0.507 0.933,0.934 0.578,0.434 0.504,0.429 0.574,0.36 0.579,0.289 1.296,0.578 0.649,0.215 0.644,0.144 0.649,0.145 0.648,0.07 0.723,0 0.285,0.074 373.25,0 0.285,-0.074 0.723,0 0.648,-0.07 0.649,-0.145 0.644,-0.144 0.649,-0.215 1.297,-0.578 0.578,-0.289 0.574,-0.36 0.504,-0.429 0.578,-0.434 0.934,-0.934 0.433,-0.507 0.719,-1.149 0.359,-0.578 0.289,-0.648 0.215,-0.575 0.219,-0.648 0.215,-0.649 0.07,-0.718 0.145,-0.649 0,-267.554 -0.145,-0.645 -0.07,-0.723 -0.215,-0.648 -0.219,-0.648 -0.215,-0.575 -0.289,-0.648 -0.359,-0.574 -0.359,-0.578 -0.36,-0.575 -0.433,-0.504 -0.504,-0.504 -0.43,-0.433 -0.578,-0.43 -0.504,-0.433 -0.574,-0.36 -0.578,-0.289 -0.649,-0.289 -0.648,-0.285 -0.649,-0.219 -0.644,-0.144 -0.649,-0.141 -0.648,-0.074 -0.723,0 -0.285,-0.07 -373.25,0 z" /><path
         id="path20"
         style="fill:#000000;fill-opacity:1;fill-rule:evenodd;stroke:none"
         d="m 39.098,222.047 0,45.285 19.367,0 0,-6.117 -12.961,0 0,-13.32 11.375,0 0,-6.051 -11.375,0 0,-13.32 12.961,0 0,-6.477 -19.367,0 z m 34.703,0 -2.449,0 -0.215,0.07 -0.434,0 -0.43,0.071 -0.503,0.074 -0.434,0.07 -0.434,0.145 -0.429,0.215 -0.36,0.144 -0.433,0.289 -0.36,0.215 -0.718,0.578 -0.364,0.289 -0.285,0.36 -0.578,0.718 -0.215,0.36 -0.289,0.433 -0.144,0.36 -0.215,0.433 -0.145,0.43 -0.07,0.434 -0.074,0.503 -0.071,0.43 0,0.434 -0.074,0.215 0,38.015 6.481,0 0,-37.437 0.074,-0.145 0,-0.144 0.07,-0.145 0.074,-0.144 0,-0.071 0.071,-0.144 0.144,-0.145 0.07,-0.144 0.075,-0.071 0.144,-0.144 0.145,-0.074 0.07,-0.071 0.145,-0.07 0.144,-0.074 0.145,-0.071 0.14,0 0.145,-0.074 1.586,0 0,-6.117 z m 23.398,9.285 0,-0.863 -0.07,-0.648 -0.145,-0.575 -0.144,-0.578 -0.215,-0.574 -0.219,-0.578 -0.215,-0.574 -0.289,-0.504 -1.078,-1.512 -0.863,-0.863 -0.504,-0.36 -0.504,-0.363 -0.504,-0.285 -0.504,-0.289 -0.578,-0.289 -0.574,-0.215 -0.578,-0.215 -0.574,-0.144 -0.579,-0.075 -0.644,-0.144 -1.801,0 -0.578,0.144 -0.648,0.075 -0.575,0.144 -0.578,0.215 -0.574,0.215 -0.504,0.289 -0.574,0.289 -0.508,0.285 -0.504,0.363 -0.429,0.36 -0.434,0.429 -0.43,0.434 -0.433,0.504 -0.36,0.504 -0.578,1.008 -0.285,0.574 -0.219,0.578 -0.215,0.574 -0.144,0.578 -0.07,0.575 -0.075,0.648 -0.07,0.578 0,14.328 0.07,0.645 0.075,0.578 0.07,0.574 0.144,0.649 0.215,0.578 0.219,0.574 0.285,0.504 0.289,0.578 0.289,0.504 0.36,0.504 0.433,0.429 0.43,0.434 0.434,0.43 0.429,0.363 0.504,0.359 0.508,0.36 0.574,0.289 0.504,0.285 0.574,0.219 0.578,0.144 0.575,0.141 0.648,0.144 0.578,0.075 0.574,0.07 0.649,0 0.578,-0.07 0.644,-0.075 0.579,-0.144 0.574,-0.141 0.578,-0.144 0.574,-0.219 0.578,-0.285 0.504,-0.289 1.008,-0.719 0.504,-0.363 0.863,-0.864 0.36,-0.429 0.718,-1.008 0.289,-0.578 0.215,-0.504 0.219,-0.574 0.215,-0.578 0.144,-0.649 0.145,-0.574 0.07,-0.578 0,-10.223 -12.887,0 0,-4.969 0.071,-0.144 0.074,-0.215 0.07,-0.215 0.075,-0.144 0.07,-0.215 0.07,-0.145 0.145,-0.215 0.074,-0.144 0.289,-0.289 0.141,-0.145 0.144,-0.144 0.219,-0.145 0.141,-0.07 0.144,-0.145 0.219,-0.07 0.215,-0.074 0.144,-0.071 0.215,0 0.215,-0.074 1.008,0 0.218,0.074 0.145,0 0.215,0.071 0.215,0.074 0.144,0.07 0.215,0.145 0.145,0.07 0.578,0.578 0.14,0.145 0.145,0.144 0.074,0.215 0.145,0.145 0.07,0.215 0.07,0.144 0.074,0.215 0.071,0.215 0,0.363 0.074,0.215 0,0.07 6.406,0 z m -12.887,9.723 0,4.535 0.071,0.215 0.074,0.215 0.07,0.144 0.075,0.219 0.07,0.215 0.07,0.144 0.145,0.145 0.074,0.215 0.289,0.289 0.141,0.144 0.144,0.141 0.219,0.074 0.141,0.145 0.144,0.07 0.219,0.074 0.215,0.071 0.144,0.07 0.215,0.074 0.215,0 0.219,0.07 0.574,0 0.215,-0.07 0.218,0 0.145,-0.074 0.43,-0.141 0.144,-0.074 0.215,-0.07 0.145,-0.145 0.144,-0.074 0.145,-0.141 0.289,-0.289 0.14,-0.144 0.145,-0.215 0.074,-0.145 0.145,-0.144 0.07,-0.215 0.07,-0.219 0.074,-0.144 0.071,-0.215 0,-0.43 0.074,-0.144 0,-4.176 -6.481,0 z m 18.575,-19.008 0,45.285 6.48,0 0,-27.07 8.067,14.113 6.406,0 -7.633,-12.89 9.289,-19.438 -7.273,0 -5.688,13.75 -3.168,-4.824 0,-8.926 -6.48,0 z m 37.945,0 -3.238,0 -0.219,0.07 -0.43,0 -0.504,0.071 -0.433,0.074 -0.434,0.07 -0.429,0.145 -0.434,0.215 -0.43,0.144 -0.359,0.289 -0.434,0.215 -0.718,0.578 -0.649,0.649 -0.289,0.359 -0.215,0.359 -0.289,0.36 -0.215,0.433 -0.218,0.36 -0.141,0.433 -0.145,0.43 -0.074,0.434 -0.144,0.503 0,0.43 -0.071,0.434 0,20.015 -3.242,0 0,5.258 3.242,0 0,9.719 6.481,0 0,-9.719 4.031,0 0,-5.258 -4.031,0 0,-19.367 0.07,-0.144 0,-0.145 0.074,-0.144 0.071,-0.071 0.074,-0.144 0.07,-0.145 0.434,-0.433 0.14,-0.071 0.145,-0.07 0.144,-0.074 0.145,-0.071 0.144,0 0.145,-0.074 2.375,0 0,-6.117 z m 5.688,0 0,32.328 6.41,0 0,-3.672 0.215,0.285 0.429,0.504 0.504,0.434 0.434,0.43 0.578,0.363 0.504,0.359 0.574,0.36 0.574,0.289 0.578,0.285 0.575,0.219 0.648,0.144 0.648,0.141 0.649,0.144 0.648,0.075 0.649,0.07 0.289,0 0,-6.766 -0.219,0 -0.359,0.141 -0.36,0.074 -0.433,0.07 -1.153,0 -0.359,-0.07 -0.43,-0.074 -0.359,-0.07 -0.363,-0.145 -0.43,-0.07 -0.359,-0.219 -0.29,-0.141 -0.359,-0.218 -0.359,-0.215 -0.289,-0.215 -0.578,-0.578 -0.286,-0.289 -0.218,-0.285 -0.215,-0.36 -0.215,-0.289 -0.219,-0.359 -0.14,-0.36 -0.145,-0.363 -0.074,-0.359 -0.145,-0.43 -0.07,-0.363 0,-0.43 -0.07,-0.359 0,-20.016 -6.41,0 z m 17.351,9.285 0,14.688 0.074,0.578 0.145,0.574 0.14,0.649 0.219,0.578 0.215,0.574 0.215,0.504 0.289,0.578 0.719,1.008 0.363,0.429 0.43,0.434 0.433,0.43 0.504,0.363 1.008,0.719 0.504,0.289 0.574,0.285 0.578,0.219 0.574,0.144 0.579,0.141 0.574,0.144 0.648,0.075 0.574,0.07 0.579,0 0.648,-0.07 0.574,-0.075 0.649,-0.144 0.578,-0.141 0.574,-0.144 0.574,-0.219 0.504,-0.285 0.578,-0.289 1.008,-0.719 0.434,-0.363 1.293,-1.293 0.363,-0.504 0.285,-0.504 0.289,-0.578 0.289,-0.504 0.215,-0.574 0.215,-0.578 0.144,-0.649 0.075,-0.574 0.07,-0.578 0.07,-0.645 0,-14.328 -0.07,-0.578 -0.07,-0.648 -0.075,-0.575 -0.144,-0.578 -0.215,-0.574 -0.215,-0.578 -0.289,-0.574 -0.289,-0.504 -0.285,-0.504 -0.363,-0.504 -0.43,-0.504 -0.863,-0.863 -0.434,-0.36 -0.504,-0.363 -0.504,-0.285 -0.578,-0.289 -0.504,-0.289 -1.148,-0.43 -0.578,-0.144 -0.649,-0.075 -0.574,-0.144 -1.801,0 -0.648,0.144 -0.574,0.075 -0.579,0.144 -0.574,0.215 -0.578,0.215 -0.574,0.289 -0.504,0.289 -0.504,0.285 -0.504,0.363 -0.504,0.36 -0.433,0.429 -0.43,0.434 -0.363,0.504 -0.719,1.008 -0.289,0.504 -0.215,0.574 -0.215,0.578 -0.219,0.574 -0.14,0.578 -0.145,0.575 -0.074,0.648 0,0.863 z m 6.41,0 0,13.899 0.071,0.144 0,0.43 0.074,0.215 0.07,0.144 0.07,0.219 0.075,0.215 0.144,0.144 0.07,0.145 0.145,0.215 0.574,0.574 0.145,0.074 0.144,0.145 0.215,0.07 0.145,0.074 0.218,0.071 0.215,0.07 0.145,0.074 0.215,0 0.214,0.07 0.579,0 0.214,-0.07 0.215,0 0.219,-0.074 0.145,-0.07 0.214,-0.071 0.215,-0.074 0.145,-0.07 0.144,-0.145 0.215,-0.074 0.145,-0.141 0.433,-0.433 0.071,-0.215 0.144,-0.145 0.07,-0.144 0.075,-0.215 0.07,-0.219 0.074,-0.144 0.071,-0.215 0.074,-0.215 0,-14.762 -0.074,-0.144 -0.071,-0.215 -0.074,-0.215 -0.07,-0.144 -0.075,-0.215 -0.07,-0.145 -0.144,-0.215 -0.071,-0.144 -0.578,-0.578 -0.215,-0.145 -0.144,-0.07 -0.145,-0.145 -0.215,-0.07 -0.214,-0.074 -0.145,-0.071 -0.219,0 -0.215,-0.074 -1.007,0 -0.215,0.074 -0.145,0 -0.215,0.071 -0.218,0.074 -0.145,0.07 -0.215,0.145 -0.144,0.07 -0.145,0.145 -0.14,0.144 -0.579,0.578 -0.07,0.215 -0.144,0.145 -0.075,0.215 -0.07,0.144 -0.07,0.215 -0.074,0.215 0,0.363 -0.071,0.215 0,0.07 z m 20.231,-9.285 0,27.07 -3.239,0 0,5.258 3.239,0 0,5.613 0.074,0.504 0.07,0.504 0.145,0.504 0.144,0.434 0.215,0.504 0.215,0.433 0.219,0.504 0.285,0.36 0.289,0.429 0.359,0.434 0.36,0.359 0.363,0.36 0.359,0.289 0.43,0.289 0.434,0.285 0.429,0.219 0.434,0.214 0.504,0.215 0.504,0.145 0.433,0.144 0.504,0.071 0.504,0.074 0.504,0.07 3.527,0 0,-6.117 -3.382,0 -0.145,-0.074 -0.144,-0.07 -0.145,-0.075 -0.07,-0.07 -0.145,-0.074 -0.144,-0.071 -0.075,-0.144 -0.14,-0.07 -0.074,-0.145 -0.071,-0.144 -0.074,-0.071 -0.07,-0.144 -0.075,-0.145 -0.07,-0.144 0,-5.399 4.824,0 0,-5.258 -4.824,0 0,-27.07 -6.48,0 z m 33.84,0 -6.481,0 0,3.238 -0.07,-0.144 -0.215,-0.36 -0.289,-0.359 -0.219,-0.359 -0.285,-0.289 -0.359,-0.289 -0.289,-0.286 -0.36,-0.218 -0.289,-0.289 -0.359,-0.215 -0.36,-0.145 -0.359,-0.215 -0.434,-0.144 -0.433,-0.07 -0.36,-0.075 -0.429,-0.07 -0.434,-0.074 -0.863,0 -0.434,0.074 -0.359,0 -0.434,0.145 -0.429,0.07 -0.36,0.144 -0.433,0.215 -0.36,0.145 -0.359,0.215 -0.359,0.218 -0.364,0.289 -0.863,0.864 -0.285,0.359 -0.219,0.289 -0.285,0.36 -0.145,0.429 -0.218,0.36 -0.141,0.363 -0.145,0.43 -0.074,0.433 -0.07,0.43 -0.074,0.363 0,6.262 0.074,0.504 0.07,0.504 0.145,0.504 0.144,0.433 0.215,0.504 0.219,0.43 0.215,0.504 0.289,0.433 0.285,0.36 0.359,0.433 0.364,0.36 0.359,0.359 0.359,0.289 0.434,0.289 0.43,0.285 0.433,0.219 0.43,0.215 0.504,0.215 0.504,0.144 0.433,0.145 0.504,0.07 0.504,0.074 0.504,0.071 5.039,0 0,4.105 -0.07,0.215 -0.074,0.215 -0.071,0.144 -0.07,0.219 -0.074,0.215 -0.071,0.144 -0.144,0.145 -0.074,0.215 -0.145,0.144 -0.14,0.145 -0.145,0.144 -0.145,0.141 -0.144,0.074 -0.215,0.145 -0.144,0.07 -0.215,0.074 -0.219,0.071 -0.145,0.07 -0.14,0.074 -0.219,0 -0.145,0.07 -0.644,0 -0.219,-0.07 -0.215,0 -0.144,-0.074 -0.215,-0.07 -0.219,-0.071 -0.14,-0.074 -0.219,-0.07 -0.145,-0.145 -0.14,-0.074 -0.145,-0.141 -0.433,-0.433 -0.145,-0.215 -0.07,-0.145 -0.145,-0.144 -0.07,-0.215 -0.074,-0.219 -0.071,-0.144 -0.074,-0.215 0,-0.43 -0.07,-0.144 0,-0.145 -6.41,0 0,0.934 0.074,0.578 0.144,0.574 0.145,0.649 0.215,0.578 0.215,0.574 0.214,0.504 0.29,0.578 0.718,1.008 0.364,0.429 0.429,0.434 0.434,0.43 0.504,0.363 1.008,0.719 0.503,0.289 0.575,0.285 0.578,0.219 0.574,0.144 0.578,0.141 0.574,0.144 0.649,0.075 0.578,0.07 0.644,0 0.504,-0.07 0.579,-0.075 0.648,-0.144 0.574,-0.141 0.578,-0.144 0.575,-0.219 0.503,-0.285 0.579,-0.289 1.007,-0.719 0.43,-0.363 0.434,-0.43 0.429,-0.434 0.434,-0.429 0.359,-0.504 0.289,-0.504 0.289,-0.578 0.286,-0.504 0.218,-0.574 0.215,-0.578 0.145,-0.649 0.07,-0.574 0.074,-0.578 0.071,-0.645 0,-23.328 z m -6.481,14.184 0,-5.403 -0.07,-0.144 -0.074,-0.215 -0.071,-0.215 -0.07,-0.144 -0.074,-0.215 -0.071,-0.145 -0.144,-0.215 -0.074,-0.144 -0.145,-0.145 -0.14,-0.144 -0.434,-0.434 -0.215,-0.07 -0.144,-0.145 -0.215,-0.07 -0.219,-0.074 -0.145,-0.071 -0.14,0 -0.219,-0.074 -1.008,0 -0.215,0.074 -0.144,0 -0.215,0.071 -0.219,0.074 -0.14,0.07 -0.219,0.145 -0.145,0.07 -0.14,0.145 -0.723,0.722 -0.07,0.215 -0.145,0.145 -0.07,0.215 -0.074,0.144 -0.071,0.215 -0.074,0.215 0,0.363 -0.07,0.215 0,1.801 0.07,0.215 0,0.433 0.074,0.141 0.071,0.219 0.074,0.214 0.07,0.145 0.145,0.215 0.07,0.144 0.145,0.145 0.144,0.215 0.289,0.289 0.145,0.07 0.14,0.145 0.145,0.144 0.219,0.074 0.14,0.071 0.219,0.07 0.215,0.074 0.144,0.07 0.215,0 0.219,0.075 3.453,0 z m 12.961,-14.184 0,45.285 6.406,0 0,-16.199 0.145,0.215 0.219,0.363 0.214,0.36 0.289,0.285 0.286,0.363 0.289,0.285 0.359,0.289 0.289,0.215 0.36,0.219 0.718,0.429 0.434,0.145 0.359,0.145 0.434,0.144 0.429,0.07 0.434,0.075 0.359,0.07 0.864,0 0.433,-0.07 0.434,-0.075 0.43,-0.07 0.359,-0.144 0.434,-0.145 0.359,-0.145 0.359,-0.214 0.434,-0.145 0.289,-0.289 0.359,-0.215 0.36,-0.289 0.289,-0.285 0.285,-0.363 0.289,-0.285 0.215,-0.36 0.219,-0.363 0.214,-0.36 0.145,-0.359 0.145,-0.43 0.14,-0.363 0.145,-0.43 0.074,-0.433 0,-0.43 0.07,-0.433 0,-26.063 -6.48,0 0,23.543 -0.071,0.215 -0.074,0.215 -0.07,0.144 -0.07,0.219 -0.075,0.215 -0.07,0.144 -0.144,0.145 -0.075,0.215 -0.14,0.144 -0.289,0.289 -0.145,0.141 -0.215,0.074 -0.144,0.145 -0.145,0.07 -0.215,0.074 -0.218,0.071 -0.141,0.07 -0.219,0.074 -0.215,0 -0.214,0.07 -0.579,0 -0.214,-0.07 -0.215,0 -0.145,-0.074 -0.219,-0.07 -0.214,-0.071 -0.145,-0.074 -0.215,-0.07 -0.144,-0.145 -0.145,-0.074 -0.144,-0.141 -0.215,-0.144 -0.071,-0.145 -0.144,-0.144 -0.145,-0.215 -0.074,-0.145 -0.14,-0.144 -0.075,-0.215 -0.07,-0.219 -0.074,-0.144 -0.071,-0.215 0,-0.43 -0.074,-0.144 0,-23.184 -6.406,0 z m 25.848,0 0,32.328 6.41,0 0,-3.672 0.215,0.285 0.429,0.504 0.504,0.434 0.434,0.43 0.578,0.363 0.504,0.359 0.574,0.36 0.574,0.289 0.578,0.285 0.575,0.219 0.648,0.144 0.649,0.141 0.648,0.144 0.648,0.075 0.649,0.07 0.289,0 0,-6.766 -0.219,0 -0.359,0.141 -0.36,0.074 -0.433,0.07 -1.153,0 -0.359,-0.07 -0.43,-0.074 -0.363,-0.07 -0.359,-0.145 -0.43,-0.07 -0.359,-0.219 -0.289,-0.141 -0.36,-0.218 -0.359,-0.215 -0.289,-0.215 -0.578,-0.578 -0.285,-0.289 -0.219,-0.285 -0.215,-0.36 -0.215,-0.289 -0.219,-0.359 -0.14,-0.36 -0.145,-0.363 -0.074,-0.359 -0.145,-0.43 -0.07,-0.363 0,-0.43 -0.07,-0.359 0,-20.016 -6.41,0 z m 17.351,0 0,5.254 10.442,21.457 -9.649,0 0,5.617 16.918,0 0,-4.824 -10.437,-21.387 10.437,0 0,-6.117 -17.711,0 z m 41.184,9.285 0,-0.285 -0.07,-0.578 -0.075,-0.648 -0.14,-0.575 -0.145,-0.578 -0.144,-0.574 -0.215,-0.578 -0.289,-0.574 -0.289,-0.504 -1.078,-1.512 -0.434,-0.434 -0.434,-0.429 -0.429,-0.36 -0.504,-0.363 -0.504,-0.285 -0.578,-0.289 -0.504,-0.289 -0.574,-0.215 -0.579,-0.215 -0.644,-0.144 -0.578,-0.075 -0.574,-0.144 -1.875,0 -0.575,0.144 -0.578,0.075 -0.574,0.144 -0.574,0.215 -0.578,0.215 -0.575,0.289 -0.503,0.289 -0.579,0.285 -0.429,0.363 -0.504,0.36 -0.434,0.429 -0.433,0.434 -1.078,1.512 -0.29,0.504 -0.214,0.574 -0.289,0.578 -0.145,0.574 -0.145,0.578 -0.14,0.575 -0.074,0.648 0,15.551 0.074,0.578 0.14,0.574 0.145,0.649 0.145,0.578 0.289,0.574 0.214,0.504 0.29,0.578 0.718,1.008 0.36,0.429 0.433,0.434 0.434,0.43 0.504,0.363 0.429,0.359 0.579,0.36 0.503,0.289 0.575,0.285 0.578,0.219 0.574,0.144 0.574,0.141 0.578,0.144 0.575,0.075 0.648,0.07 0.578,0 0.649,-0.07 0.574,-0.075 0.578,-0.144 0.644,-0.141 0.579,-0.144 0.574,-0.219 0.504,-0.285 0.578,-0.289 1.008,-0.719 0.429,-0.363 0.434,-0.43 0.434,-0.434 0.359,-0.429 0.719,-1.008 0.289,-0.578 0.289,-0.504 0.215,-0.574 0.144,-0.578 0.145,-0.649 0.14,-0.574 0.075,-0.578 0.07,-0.645 0,-9.578 -12.957,0 0,-4.75 0.07,-0.219 0,-0.144 0.07,-0.215 0.075,-0.215 0.07,-0.144 0.074,-0.215 0.071,-0.145 0.144,-0.215 0.145,-0.144 0.07,-0.145 0.289,-0.289 0.215,-0.144 0.144,-0.145 0.145,-0.07 0.215,-0.145 0.144,-0.07 0.219,-0.074 0.215,-0.071 0.144,0 0.215,-0.074 1.008,0 0.215,0.074 0.219,0 0.14,0.071 0.219,0.074 0.145,0.07 0.214,0.145 0.145,0.07 0.215,0.145 0.578,0.578 0.07,0.144 0.145,0.215 0.07,0.145 0.074,0.215 0.071,0.144 0.074,0.215 0.07,0.215 0,0.144 0.07,0.219 0,0.285 6.481,0 z m -12.957,9.723 0,4.32 0.07,0.215 0,0.215 0.07,0.215 0.075,0.144 0.07,0.219 0.074,0.215 0.071,0.144 0.144,0.145 0.145,0.215 0.07,0.144 0.289,0.289 0.215,0.141 0.144,0.074 0.145,0.145 0.215,0.07 0.144,0.074 0.219,0.071 0.215,0.07 0.144,0.074 0.215,0 0.215,0.07 0.578,0 0.215,-0.07 0.215,0 0.219,-0.074 0.14,-0.07 0.219,-0.071 0.145,-0.074 0.214,-0.07 0.145,-0.145 0.215,-0.074 0.144,-0.141 0.434,-0.433 0.07,-0.215 0.145,-0.145 0.07,-0.144 0.074,-0.215 0.071,-0.219 0.074,-0.144 0.07,-0.215 0,-0.215 0.07,-0.215 0,-4.32 -6.476,0 z m 37.941,-19.008 -6.406,0 0,3.238 -0.145,-0.144 -0.214,-0.36 -0.219,-0.359 -0.285,-0.359 -0.578,-0.578 -0.29,-0.286 -0.359,-0.218 -0.359,-0.289 -0.36,-0.215 -0.359,-0.145 -0.434,-0.215 -0.359,-0.144 -0.434,-0.07 -0.429,-0.075 -0.434,-0.07 -0.359,-0.074 -0.864,0 -0.433,0.074 -0.43,0 -0.433,0.145 -0.36,0.07 -0.433,0.144 -0.36,0.215 -0.359,0.145 -0.434,0.215 -0.285,0.218 -0.359,0.289 -0.364,0.286 -0.285,0.289 -0.289,0.289 -0.215,0.359 -0.289,0.289 -0.214,0.36 -0.219,0.429 -0.145,0.36 -0.14,0.363 -0.145,0.43 -0.144,0.433 -0.075,0.43 0,0.363 -0.07,0.43 0,26.066 6.48,0 0,-23.328 0.071,-0.219 0,-0.144 0.074,-0.215 0.07,-0.215 0.075,-0.144 0.07,-0.215 0.07,-0.145 0.145,-0.215 0.074,-0.144 0.289,-0.289 0.141,-0.145 0.144,-0.144 0.219,-0.145 0.141,-0.07 0.144,-0.145 0.219,-0.07 0.215,-0.074 0.144,-0.071 0.215,0 0.215,-0.074 1.008,0 0.218,0.074 0.145,0 0.215,0.071 0.215,0.074 0.144,0.07 0.215,0.145 0.145,0.07 0.289,0.289 0.214,0.145 0.075,0.144 0.14,0.145 0.145,0.144 0.074,0.215 0.145,0.145 0.07,0.215 0.07,0.144 0.074,0.215 0.071,0.215 0,0.363 0.074,0.215 0,23.113 6.406,0 0,-32.328 z m 12.961,-3.601 0,-0.504 0.07,-0.215 0.075,-0.219 0.07,-0.141 0.074,-0.218 0.071,-0.145 0.074,-0.215 0.14,-0.144 0.075,-0.145 0.144,-0.215 0.145,-0.144 0.14,-0.145 0.145,-0.07 0.219,-0.145 0.14,-0.144 0.145,-0.07 0.218,-0.075 0.215,-0.07 0.145,-0.074 0.215,-0.07 0.215,0 0.218,-0.071 0.575,0 0.214,0.071 0.219,0 0.145,0.07 0.214,0.074 0.215,0.07 0.145,0.075 0.215,0.07 0.289,0.289 0.144,0.07 0.289,0.289 0.145,0.215 0.14,0.145 0.075,0.144 0.144,0.215 0.071,0.145 0.074,0.218 0.07,0.141 0.07,0.219 0,0.429 0.075,0.219 0,6.91 -0.145,-0.144 -0.215,-0.36 -0.219,-0.359 -0.285,-0.359 -0.578,-0.578 -0.359,-0.286 -0.289,-0.218 -0.36,-0.289 -0.359,-0.215 -0.359,-0.145 -0.434,-0.215 -0.359,-0.144 -0.43,-0.07 -0.434,-0.075 -0.433,-0.07 -0.36,-0.074 -0.863,0 -0.433,0.074 -0.43,0 -0.434,0.145 -0.359,0.07 -0.434,0.144 -0.359,0.215 -0.43,0.145 -0.359,0.215 -0.363,0.218 -0.286,0.289 -0.363,0.286 -0.285,0.289 -0.289,0.289 -0.289,0.359 -0.215,0.289 -0.215,0.36 -0.219,0.429 -0.14,0.36 -0.145,0.363 -0.144,0.43 -0.145,0.433 -0.07,0.43 0,0.363 -0.074,0.43 0,19.801 0.074,0.433 0,0.43 0.07,0.433 0.145,0.43 0.144,0.363 0.145,0.43 0.14,0.359 0.219,0.36 0.215,0.363 0.215,0.36 0.289,0.285 0.289,0.363 0.285,0.285 0.363,0.289 0.286,0.215 0.363,0.289 0.359,0.145 0.43,0.214 0.359,0.145 0.434,0.145 0.359,0.144 0.434,0.07 0.43,0.075 0.433,0.07 0.863,0 0.36,-0.07 0.433,-0.075 0.434,-0.07 0.43,-0.144 0.359,-0.145 0.434,-0.145 0.718,-0.429 0.36,-0.219 0.289,-0.215 0.359,-0.289 0.289,-0.285 0.289,-0.363 0.285,-0.285 0.219,-0.36 0.215,-0.363 0.145,-0.215 0,3.242 6.406,0 0,-36.867 -0.07,-0.574 -0.145,-0.578 -0.144,-0.645 -0.215,-0.578 -0.215,-0.504 -0.219,-0.574 -0.285,-0.578 -0.363,-0.504 -0.36,-0.43 -0.359,-0.504 -0.434,-0.433 -0.429,-0.434 -1.512,-1.078 -0.504,-0.289 -0.578,-0.289 -0.574,-0.215 -0.579,-0.145 -0.574,-0.144 -0.578,-0.141 -0.644,-0.074 -0.578,-0.07 -0.575,0 -0.648,0.07 -0.578,0.074 -0.649,0.141 -1.148,0.289 -0.578,0.215 -0.504,0.289 -0.574,0.289 -1.008,0.719 -0.434,0.359 -0.433,0.434 -0.43,0.433 -0.434,0.504 -0.359,0.43 -0.289,0.504 -0.285,0.578 -0.289,0.574 -0.215,0.504 -0.219,0.578 -0.144,0.645 -0.071,0.578 -0.07,0.574 -0.074,0.648 0,0.29 6.48,0 z m 6.481,12.886 0,-0.07 -0.075,-0.215 0,-0.363 -0.14,-0.43 -0.074,-0.144 -0.071,-0.215 -0.144,-0.145 -0.075,-0.215 -0.14,-0.144 -0.723,-0.723 -0.144,-0.07 -0.215,-0.145 -0.145,-0.07 -0.215,-0.074 -0.214,-0.071 -0.145,0 -0.219,-0.074 -1.007,0 -0.215,0.074 -0.215,0 -0.145,0.071 -0.215,0.074 -0.218,0.07 -0.145,0.145 -0.14,0.07 -0.219,0.145 -0.145,0.144 -0.14,0.145 -0.289,0.289 -0.075,0.144 -0.14,0.215 -0.074,0.145 -0.071,0.215 -0.074,0.144 -0.07,0.215 -0.075,0.215 -0.07,0.144 0,14.762 0.07,0.215 0.075,0.215 0.07,0.144 0.074,0.219 0.071,0.215 0.074,0.144 0.14,0.145 0.075,0.215 0.289,0.289 0.14,0.144 0.145,0.141 0.219,0.074 0.14,0.145 0.145,0.07 0.218,0.074 0.215,0.071 0.145,0.07 0.215,0.074 0.215,0 0.218,0.07 0.575,0 0.214,-0.07 0.219,0 0.145,-0.074 0.429,-0.141 0.145,-0.074 0.215,-0.07 0.144,-0.145 0.145,-0.074 0.144,-0.141 0.434,-0.433 0.14,-0.215 0.075,-0.145 0.144,-0.144 0.071,-0.215 0.074,-0.219 0.07,-0.144 0.07,-0.215 0,-0.43 0.075,-0.144 0,-13.899 z m 32.254,0 0,-0.863 -0.071,-0.648 -0.144,-0.575 -0.145,-0.578 -0.215,-0.574 -0.215,-0.578 -0.218,-0.574 -0.285,-0.504 -0.364,-0.504 -0.718,-1.008 -0.43,-0.434 -0.434,-0.429 -0.504,-0.36 -0.504,-0.363 -0.503,-0.285 -0.504,-0.289 -0.579,-0.289 -0.574,-0.215 -0.578,-0.215 -0.574,-0.144 -0.574,-0.075 -0.649,-0.144 -1.801,0 -0.578,0.144 -0.644,0.075 -0.578,0.144 -0.574,0.215 -0.579,0.215 -0.504,0.289 -0.574,0.289 -0.504,0.285 -0.504,0.363 -0.433,0.36 -0.504,0.429 -0.359,0.434 -0.434,0.504 -0.359,0.504 -0.289,0.504 -0.286,0.504 -0.289,0.574 -0.215,0.578 -0.218,0.574 -0.145,0.578 -0.07,0.575 -0.07,0.648 -0.075,0.578 0,14.328 0.075,0.645 0.07,0.578 0.07,0.574 0.145,0.649 0.218,0.578 0.215,0.574 0.289,0.504 0.286,0.578 0.289,0.504 0.359,0.504 0.434,0.429 0.359,0.434 0.504,0.43 0.433,0.363 1.008,0.719 0.574,0.289 0.504,0.285 0.579,0.219 0.574,0.144 0.578,0.141 0.644,0.144 0.578,0.075 0.575,0.07 0.648,0 0.578,-0.07 0.649,-0.075 0.574,-0.144 0.574,-0.141 0.578,-0.144 0.574,-0.219 0.579,-0.285 0.504,-0.289 1.007,-0.719 0.504,-0.363 0.434,-0.43 0.43,-0.434 0.359,-0.429 0.359,-0.504 0.364,-0.504 0.285,-0.578 0.218,-0.504 0.215,-0.574 0.215,-0.578 0.145,-0.649 0.144,-0.574 0.071,-0.578 0,-10.223 -12.887,0 0,-4.969 0.07,-0.144 0.074,-0.215 0,-0.215 0.071,-0.144 0.144,-0.215 0.074,-0.145 0.145,-0.215 0.07,-0.144 0.434,-0.434 0.14,-0.144 0.145,-0.145 0.219,-0.07 0.14,-0.145 0.219,-0.07 0.145,-0.074 0.214,-0.071 0.215,0 0.215,-0.074 1.012,0 0.141,0.074 0.218,0 0.215,0.071 0.145,0.074 0.215,0.07 0.144,0.145 0.215,0.07 0.723,0.723 0.14,0.144 0.074,0.215 0.145,0.145 0.07,0.215 0.074,0.144 0.071,0.215 0,0.215 0.074,0.144 0,0.434 0.07,0.07 6.407,0 z m -12.887,9.723 0,4.535 0.07,0.215 0.074,0.215 0,0.144 0.071,0.219 0.144,0.215 0.074,0.144 0.145,0.145 0.07,0.215 0.574,0.574 0.145,0.074 0.219,0.145 0.14,0.07 0.219,0.074 0.145,0.071 0.214,0.07 0.215,0.074 0.215,0 0.145,0.07 0.648,0 0.219,-0.07 0.141,0 0.218,-0.074 0.215,-0.07 0.145,-0.071 0.215,-0.074 0.144,-0.07 0.215,-0.145 0.144,-0.074 0.145,-0.141 0.434,-0.433 0.14,-0.215 0.074,-0.145 0.145,-0.144 0.07,-0.215 0.074,-0.219 0.071,-0.144 0,-0.215 0.074,-0.215 0,-0.359 0.07,-0.145 0,-4.031 -6.48,0 z" /><path
         id="path22"
         style="fill:#000000;fill-opacity:1;fill-rule:evenodd;stroke:none"
         d="m 88.559,139.028 -7.704,32.257 6.915,0 4.031,-20.086 3.597,20.086 4.825,0 3.672,-20.086 4.035,20.086 6.84,0 -7.633,-32.257 -5.688,0 -3.601,19.441 -3.672,-19.441 -5.617,0 z m 48.027,0 -6.481,0 0,3.242 -0.074,-0.145 -0.215,-0.359 -0.289,-0.36 -0.215,-0.359 -0.578,-0.578 -0.359,-0.289 -0.285,-0.285 -0.363,-0.219 -0.36,-0.215 -0.429,-0.144 -0.364,-0.215 -0.429,-0.145 -0.36,-0.07 -0.433,-0.145 -0.43,0 -0.434,-0.074 -0.793,0 -0.429,0.074 -0.434,0 -0.434,0.145 -0.429,0.07 -0.36,0.145 -0.359,0.215 -0.434,0.144 -0.359,0.215 -0.359,0.219 -0.289,0.285 -0.36,0.289 -0.578,0.578 -0.285,0.359 -0.219,0.286 -0.215,0.363 -0.214,0.43 -0.219,0.359 -0.145,0.363 -0.07,0.43 -0.145,0.434 -0.07,0.429 -0.074,0.36 0,6.265 0.074,0.504 0.145,0.504 0.07,0.504 0.215,0.434 0.144,0.503 0.215,0.43 0.289,0.504 0.219,0.434 0.285,0.359 0.359,0.434 0.364,0.359 0.359,0.359 0.359,0.289 0.43,0.286 0.434,0.289 0.433,0.218 0.504,0.215 0.43,0.215 1.008,0.289 0.504,0.07 0.504,0.075 0.503,0.07 5.043,0 0,4.031 -0.074,0.219 0,0.215 -0.07,0.144 -0.074,0.215 -0.145,0.145 -0.07,0.215 -0.07,0.144 -0.145,0.215 -0.578,0.578 -0.145,0.07 -0.214,0.145 -0.145,0.074 -0.215,0.07 -0.144,0.071 -0.215,0.074 -0.215,0.07 -0.145,0 -0.218,0.074 -0.649,0 -0.215,-0.074 -0.144,0 -0.215,-0.07 -0.215,-0.074 -0.144,-0.071 -0.215,-0.07 -0.145,-0.074 -0.219,-0.145 -0.14,-0.07 -0.578,-0.578 -0.145,-0.215 -0.07,-0.144 -0.074,-0.215 -0.145,-0.145 -0.07,-0.215 -0.07,-0.144 0,-0.215 -0.075,-0.219 0,-0.504 -6.48,0 0,0.289 0.074,0.649 0.07,0.574 0.075,0.578 0.14,0.649 0.219,0.574 0.215,0.578 0.289,0.504 0.289,0.574 0.285,0.504 0.359,0.504 0.434,0.433 0.359,0.43 0.504,0.434 0.434,0.359 1.008,0.719 0.504,0.289 0.574,0.289 0.578,0.215 0.574,0.144 0.578,0.145 0.575,0.144 0.648,0.071 0.574,0.074 0.649,0 0.578,-0.074 0.648,-0.071 0.574,-0.144 0.579,-0.145 0.574,-0.144 0.578,-0.215 0.574,-0.289 0.504,-0.289 1.512,-1.078 0.433,-0.434 0.36,-0.43 0.429,-0.433 0.364,-0.504 0.285,-0.504 0.289,-0.574 0.289,-0.504 0.215,-0.578 0.215,-0.574 0.144,-0.649 0.074,-0.578 0.145,-0.574 0,-23.906 z m -6.481,14.187 0,-5.402 -0.074,-0.145 0,-0.215 -0.07,-0.215 -0.074,-0.144 -0.145,-0.215 -0.07,-0.144 -0.07,-0.219 -0.145,-0.141 -0.723,-0.722 -0.214,-0.071 -0.145,-0.144 -0.215,-0.071 -0.144,-0.074 -0.215,-0.07 -0.215,0 -0.145,-0.074 -1.082,0 -0.144,0.074 -0.215,0 -0.215,0.07 -0.144,0.074 -0.215,0.071 -0.145,0.144 -0.219,0.071 -0.14,0.144 -0.578,0.578 -0.145,0.141 -0.07,0.219 -0.074,0.144 -0.145,0.215 -0.07,0.144 -0.07,0.215 0,0.215 -0.075,0.145 0,2.664 0.075,0.215 0,0.144 0.07,0.219 0.07,0.215 0.145,0.144 0.074,0.215 0.07,0.145 0.145,0.144 0.144,0.215 0.289,0.289 0.145,0.07 0.14,0.145 0.219,0.074 0.145,0.141 0.215,0.074 0.144,0.07 0.215,0.075 0.215,0.07 0.144,0 0.215,0.074 3.531,0 z m -11.304,24.551 0,6.48 6.48,0 0,-6.48 -6.48,0 z m 9.719,0 0,6.48 6.48,0 0,-6.48 -6.48,0 z m 14.542,-38.738 0,45.218 6.481,0 0,-16.199 0.074,0.215 0.43,0.719 0.289,0.289 0.289,0.359 0.285,0.289 0.363,0.215 0.286,0.289 0.363,0.215 0.359,0.215 0.43,0.219 0.359,0.144 0.434,0.141 0.359,0.144 0.434,0.074 0.43,0.071 0.433,0.074 0.793,0 0.43,-0.074 0.433,-0.071 0.434,-0.074 0.359,-0.144 0.43,-0.141 0.359,-0.144 0.434,-0.219 0.719,-0.43 0.289,-0.215 0.359,-0.289 0.289,-0.289 0.289,-0.359 0.285,-0.289 0.219,-0.36 0.43,-0.718 0.144,-0.36 0.215,-0.433 0.075,-0.434 0.144,-0.359 0.07,-0.43 0.075,-0.434 0,-26.425 -6.481,0 0,23.472 -0.074,0.219 0,0.215 -0.07,0.144 -0.075,0.215 -0.14,0.145 -0.074,0.215 -0.071,0.144 -0.144,0.215 -0.578,0.578 -0.141,0.07 -0.219,0.145 -0.144,0.074 -0.215,0.07 -0.145,0.071 -0.215,0.074 -0.214,0.07 -0.219,0 -0.145,0.074 -0.644,0 -0.219,-0.074 -0.145,0 -0.214,-0.07 -0.215,-0.074 -0.145,-0.071 -0.215,-0.07 -0.144,-0.074 -0.219,-0.145 -0.14,-0.07 -0.579,-0.578 -0.144,-0.215 -0.07,-0.144 -0.145,-0.215 -0.07,-0.145 -0.074,-0.215 -0.071,-0.144 0,-0.215 -0.074,-0.219 0,-23.472 -6.481,0 z m 25.848,0 0,32.257 6.41,0 0,-3.672 0.215,0.29 0.434,0.503 0.504,0.43 0.504,0.434 1.007,0.718 0.575,0.36 0.578,0.289 0.574,0.289 0.648,0.215 0.579,0.144 0.648,0.145 0.644,0.144 0.649,0.071 0.648,0.074 0.289,0 0,-6.84 -0.144,0.07 -0.434,0.145 -0.359,0.07 -0.359,0 -0.43,0.074 -0.793,0 -0.359,-0.074 -0.434,-0.07 -0.359,-0.074 -0.36,-0.141 -0.359,-0.144 -0.364,-0.145 -0.359,-0.144 -0.359,-0.215 -0.289,-0.219 -0.36,-0.215 -0.574,-0.574 -0.219,-0.289 -0.285,-0.289 -0.219,-0.36 -0.214,-0.289 -0.145,-0.359 -0.215,-0.289 -0.144,-0.36 -0.071,-0.359 -0.074,-0.43 -0.07,-0.363 -0.074,-0.43 0,-0.359 -0.071,-0.219 0,-19.8 -6.41,0 z m 36.723,9.289 0,-0.864 -0.145,-0.648 -0.07,-0.574 -0.145,-0.578 -0.218,-0.575 -0.215,-0.578 -0.289,-0.574 -0.285,-0.504 -0.289,-0.504 -0.36,-0.504 -0.433,-0.504 -0.36,-0.433 -0.433,-0.43 -0.504,-0.363 -0.504,-0.36 -0.504,-0.285 -0.504,-0.289 -0.574,-0.289 -0.578,-0.215 -0.575,-0.218 -0.578,-0.141 -0.574,-0.145 -0.648,-0.074 -1.801,0 -0.649,0.074 -0.574,0.145 -0.574,0.141 -0.578,0.218 -0.574,0.215 -0.578,0.289 -0.504,0.289 -0.504,0.285 -0.504,0.36 -0.504,0.363 -0.434,0.43 -0.359,0.433 -0.43,0.504 -0.359,0.504 -0.578,1.008 -0.289,0.574 -0.215,0.578 -0.215,0.575 -0.145,0.578 -0.074,0.574 -0.07,0.648 -0.07,0.575 0,14.257 0.07,0.649 0.07,0.574 0.074,0.578 0.145,0.649 0.215,0.574 0.215,0.578 0.289,0.504 0.289,0.574 0.289,0.504 0.359,0.504 0.43,0.433 0.359,0.43 0.434,0.434 1.512,1.078 0.504,0.289 0.578,0.289 0.574,0.215 0.578,0.144 1.148,0.289 0.649,0.071 0.578,0.074 0.648,0 0.575,-0.074 0.648,-0.071 0.574,-0.144 0.578,-0.145 0.575,-0.144 0.578,-0.215 0.574,-0.289 0.504,-0.289 1.512,-1.078 0.433,-0.434 0.36,-0.43 0.433,-0.433 0.36,-0.504 0.289,-0.504 0.285,-0.574 0.289,-0.504 0.215,-0.578 0.218,-0.574 0.145,-0.649 0.07,-0.578 0.145,-0.574 0,-10.153 -12.891,0 0,-4.968 0.074,-0.145 0,-0.215 0.071,-0.215 0.074,-0.144 0.144,-0.215 0.071,-0.144 0.074,-0.219 0.863,-0.863 0.215,-0.071 0.145,-0.144 0.215,-0.071 0.144,-0.074 0.215,-0.07 0.219,0 0.14,-0.074 1.082,0 0.145,0.074 0.215,0 0.214,0.07 0.145,0.074 0.219,0.071 0.14,0.144 0.219,0.071 0.145,0.144 0.14,0.145 0.434,0.433 0.144,0.141 0.071,0.219 0.074,0.144 0.145,0.215 0.07,0.144 0.07,0.215 0,0.215 0.074,0.145 0,0.504 6.481,0 z m -12.891,9.722 0,4.461 0.074,0.219 0,0.215 0.071,0.144 0.074,0.215 0.144,0.145 0.071,0.215 0.074,0.144 0.141,0.215 0.578,0.578 0.144,0.07 0.215,0.145 0.145,0.074 0.215,0.07 0.144,0.071 0.215,0.074 0.219,0.07 0.14,0 0.219,0.074 0.648,0 0.215,-0.074 0.145,0 0.215,-0.07 0.214,-0.074 0.145,-0.071 0.219,-0.07 0.14,-0.074 0.219,-0.145 0.145,-0.07 0.14,-0.144 0.434,-0.434 0.144,-0.215 0.071,-0.144 0.074,-0.215 0.145,-0.145 0.07,-0.215 0.07,-0.144 0,-0.215 0.074,-0.219 0,-4.461 -6.41,0 z m 18.578,-19.011 0,32.257 6.336,0 0,-3.238 0.145,0.215 0.429,0.719 0.29,0.289 0.289,0.359 0.289,0.289 0.359,0.215 0.285,0.289 0.363,0.215 0.36,0.215 0.359,0.219 0.434,0.144 0.359,0.141 0.43,0.144 0.433,0.074 0.43,0.071 0.363,0.074 0.864,0 0.429,-0.074 0.434,-0.071 0.434,-0.074 0.359,-0.144 0.43,-0.141 0.363,-0.144 0.359,-0.219 0.43,-0.215 0.289,-0.215 0.359,-0.215 0.36,-0.289 0.289,-0.289 0.289,-0.359 0.289,-0.289 0.645,-1.078 0.144,-0.36 0.289,-0.867 0.145,-0.359 0.07,-0.43 0,-0.434 0.074,-0.433 0,-25.992 -6.48,0 0,23.472 -0.075,0.219 -0.07,0.215 -0.07,0.144 -0.074,0.215 -0.071,0.145 -0.074,0.215 -0.144,0.144 -0.071,0.215 -0.578,0.578 -0.215,0.07 -0.144,0.145 -0.145,0.074 -0.429,0.141 -0.145,0.074 -0.215,0.07 -0.219,0 -0.214,0.074 -0.575,0 -0.218,-0.074 -0.215,0 -0.145,-0.07 -0.215,-0.074 -0.214,-0.071 -0.145,-0.07 -0.219,-0.074 -0.14,-0.145 -0.145,-0.07 -0.144,-0.144 -0.215,-0.145 -0.074,-0.145 -0.145,-0.144 -0.145,-0.215 -0.07,-0.144 -0.144,-0.215 -0.071,-0.145 -0.074,-0.215 -0.07,-0.144 -0.074,-0.215 0,-0.434 -0.071,-0.144 0,-23.113 -6.336,0 z m 44.352,0 -6.481,0 0,3.242 -0.144,-0.145 -0.43,-0.719 -0.289,-0.359 -0.289,-0.289 -0.285,-0.289 -0.289,-0.289 -0.36,-0.285 -0.363,-0.219 -0.359,-0.215 -0.36,-0.144 -0.429,-0.215 -0.364,-0.145 -0.429,-0.07 -0.434,-0.145 -0.359,0 -0.434,-0.074 -0.863,0 -0.43,0.074 -0.433,0 -0.36,0.145 -0.433,0.07 -0.43,0.145 -0.359,0.215 -0.364,0.144 -0.359,0.215 -0.359,0.219 -0.36,0.285 -0.359,0.289 -0.578,0.578 -0.215,0.359 -0.289,0.286 -0.215,0.363 -0.215,0.43 -0.144,0.359 -0.145,0.363 -0.144,0.43 -0.071,0.434 -0.144,0.429 0,0.36 -0.075,0.433 0,19.727 0.075,0.433 0,0.434 0.144,0.43 0.071,0.359 0.289,0.867 0.144,0.36 0.43,0.718 0.289,0.36 0.215,0.289 0.289,0.359 0.289,0.289 0.359,0.289 1.078,0.645 0.364,0.219 0.359,0.144 0.43,0.141 0.433,0.144 0.36,0.074 0.433,0.071 0.43,0.074 0.863,0 0.434,-0.074 0.359,-0.071 0.434,-0.074 0.429,-0.144 0.364,-0.141 0.429,-0.144 0.36,-0.219 0.359,-0.215 0.363,-0.215 0.36,-0.289 0.289,-0.215 0.285,-0.289 0.289,-0.359 0.289,-0.289 0.43,-0.719 0.144,-0.215 0,16.199 6.481,0 0,-45.218 z m -6.481,9.289 0,-0.289 -0.07,-0.215 0,-0.145 -0.074,-0.215 -0.07,-0.215 -0.075,-0.144 -0.07,-0.215 -0.07,-0.144 -0.145,-0.219 -0.144,-0.141 -0.075,-0.144 -0.14,-0.145 -0.145,-0.144 -0.218,-0.145 -0.141,-0.144 -0.145,-0.071 -0.218,-0.144 -0.141,-0.071 -0.219,-0.074 -0.215,-0.07 -0.144,0 -0.215,-0.074 -1.008,0 -0.219,0.074 -0.214,0 -0.145,0.07 -0.215,0.074 -0.144,0.071 -0.215,0.144 -0.145,0.071 -0.214,0.144 -0.579,0.578 -0.07,0.141 -0.144,0.219 -0.075,0.144 -0.07,0.215 -0.07,0.144 -0.075,0.215 -0.07,0.215 0,0.145 -0.074,0.215 0,14.257 0.074,0.215 0,0.219 0.07,0.215 0.075,0.144 0.07,0.215 0.07,0.145 0.075,0.215 0.144,0.144 0.07,0.215 0.579,0.578 0.214,0.07 0.145,0.145 0.215,0.074 0.144,0.07 0.215,0.071 0.145,0.074 0.214,0.07 0.219,0 0.215,0.074 0.574,0 0.219,-0.074 0.215,0 0.144,-0.07 0.215,-0.074 0.219,-0.071 0.141,-0.07 0.218,-0.074 0.145,-0.145 0.141,-0.07 0.218,-0.144 0.145,-0.145 0.14,-0.145 0.075,-0.144 0.144,-0.215 0.145,-0.144 0.07,-0.215 0.07,-0.145 0.075,-0.215 0.07,-0.144 0.074,-0.215 0,-0.219 0.07,-0.215 0,-13.968 z m 51.696,-9.289 -6.481,0 0,3.242 -0.14,-0.145 -0.219,-0.359 -0.215,-0.36 -0.289,-0.359 -0.285,-0.289 -0.578,-0.578 -0.36,-0.285 -0.359,-0.219 -0.359,-0.215 -0.364,-0.144 -0.429,-0.215 -0.36,-0.145 -0.433,-0.07 -0.43,-0.145 -0.363,0 -0.43,-0.074 -0.863,0 -0.434,0.074 -0.434,0 -0.359,0.145 -0.43,0.07 -0.433,0.145 -0.36,0.215 -0.359,0.144 -0.359,0.215 -0.364,0.219 -0.359,0.285 -0.285,0.289 -0.363,0.289 -0.286,0.289 -0.218,0.359 -0.285,0.286 -0.219,0.363 -0.215,0.43 -0.145,0.359 -0.144,0.363 -0.145,0.43 -0.07,0.434 -0.07,0.429 -0.074,0.36 -0.071,0.433 0,19.727 0.071,0.433 0.074,0.434 0.07,0.43 0.07,0.359 0.289,0.867 0.145,0.36 0.215,0.359 0.219,0.359 0.285,0.36 0.218,0.289 0.286,0.359 0.363,0.289 0.285,0.289 0.359,0.215 0.364,0.215 0.359,0.215 0.359,0.219 0.36,0.144 0.433,0.141 0.43,0.144 0.359,0.074 0.434,0.071 0.434,0.074 0.863,0 0.43,-0.074 0.363,-0.071 0.43,-0.074 0.433,-0.144 0.36,-0.141 0.429,-0.144 0.364,-0.219 0.718,-0.43 0.36,-0.289 0.289,-0.215 0.289,-0.289 0.285,-0.359 0.289,-0.289 0.215,-0.36 0.219,-0.359 0.14,-0.215 0,16.199 6.481,0 0,-45.218 z m -6.481,9.289 0,-0.289 -0.07,-0.215 0,-0.145 -0.07,-0.215 -0.075,-0.215 -0.07,-0.144 -0.074,-0.215 -0.07,-0.144 -0.145,-0.219 -0.144,-0.141 -0.071,-0.144 -0.433,-0.434 -0.215,-0.144 -0.145,-0.071 -0.215,-0.144 -0.144,-0.071 -0.215,-0.074 -0.145,-0.07 -0.218,0 -0.215,-0.074 -1.008,0 -0.215,0.074 -0.144,0 -0.215,0.07 -0.219,0.074 -0.144,0.071 -0.215,0.144 -0.145,0.071 -0.144,0.144 -0.215,0.145 -0.289,0.289 -0.071,0.144 -0.144,0.141 -0.145,0.219 -0.07,0.144 -0.074,0.215 -0.07,0.144 -0.075,0.215 -0.07,0.215 0,0.145 -0.07,0.215 0,14.257 0.07,0.215 0,0.219 0.07,0.215 0.075,0.144 0.07,0.215 0.074,0.145 0.07,0.215 0.145,0.144 0.144,0.215 0.071,0.144 0.289,0.29 0.215,0.144 0.144,0.07 0.145,0.145 0.215,0.074 0.144,0.07 0.219,0.071 0.215,0.074 0.144,0.07 0.215,0 0.215,0.074 0.578,0 0.215,-0.074 0.215,0 0.218,-0.07 0.145,-0.074 0.215,-0.071 0.144,-0.07 0.215,-0.074 0.145,-0.145 0.215,-0.07 0.433,-0.434 0.071,-0.144 0.144,-0.215 0.145,-0.144 0.07,-0.215 0.074,-0.145 0.07,-0.215 0.075,-0.144 0.07,-0.215 0,-0.219 0.07,-0.215 0,-13.968 z m 32.328,0 -0.07,-0.289 0,-0.575 -0.07,-0.648 -0.145,-0.574 -0.144,-0.578 -0.145,-0.575 -0.289,-0.578 -0.215,-0.574 -0.289,-0.504 -1.078,-1.512 -0.863,-0.863 -0.504,-0.363 -0.434,-0.36 -0.578,-0.285 -0.504,-0.289 -0.574,-0.289 -0.504,-0.215 -0.648,-0.218 -0.575,-0.141 -0.578,-0.145 -0.574,-0.074 -1.875,0 -0.574,0.074 -0.574,0.145 -0.649,0.141 -0.578,0.218 -0.574,0.215 -0.504,0.289 -0.578,0.289 -0.504,0.285 -0.504,0.36 -0.43,0.363 -0.433,0.43 -0.434,0.433 -1.078,1.512 -0.289,0.504 -0.285,0.574 -0.219,0.578 -0.144,0.575 -0.141,0.578 -0.145,0.574 -0.074,0.648 -0.07,0.575 0,14.257 0.07,0.649 0.074,0.574 0.145,0.578 0.141,0.649 0.144,0.574 0.219,0.578 0.285,0.504 0.289,0.574 0.719,1.008 0.359,0.433 0.434,0.43 0.433,0.434 0.43,0.359 1.008,0.719 0.578,0.289 0.504,0.289 0.574,0.215 0.578,0.144 0.649,0.145 0.574,0.144 0.574,0.071 0.649,0.074 0.578,0 0.648,-0.074 0.574,-0.071 0.578,-0.144 0.575,-0.145 0.648,-0.144 0.504,-0.215 0.574,-0.289 0.504,-0.289 0.578,-0.36 0.434,-0.359 0.504,-0.359 0.429,-0.434 0.434,-0.43 0.359,-0.433 0.719,-1.008 0.289,-0.574 0.215,-0.504 0.289,-0.578 0.145,-0.574 0.144,-0.649 0.145,-0.578 0.07,-0.574 0,-0.649 0.07,-0.289 0,-9.215 -12.957,0 0,-4.753 0.071,-0.215 0,-0.145 0.074,-0.215 0.07,-0.215 0.07,-0.144 0.075,-0.215 0.07,-0.144 0.145,-0.219 0.074,-0.141 0.14,-0.144 0.434,-0.434 0.215,-0.144 0.144,-0.071 0.215,-0.144 0.145,-0.071 0.219,-0.074 0.14,-0.07 0.219,0 0.215,-0.074 1.008,0 0.214,0.074 0.145,0 0.219,0.07 0.214,0.074 0.145,0.071 0.215,0.144 0.144,0.071 0.145,0.144 0.215,0.145 0.289,0.289 0.07,0.144 0.145,0.141 0.144,0.219 0.071,0.144 0.074,0.215 0.07,0.144 0.074,0.215 0.071,0.215 0,0.145 0.074,0.215 0,0.289 6.476,0 z m -12.957,9.722 0,4.246 0.071,0.215 0,0.219 0.074,0.215 0.07,0.144 0.07,0.215 0.075,0.145 0.07,0.215 0.145,0.144 0.074,0.215 0.14,0.144 0.434,0.434 0.215,0.07 0.144,0.145 0.215,0.074 0.145,0.07 0.219,0.071 0.14,0.074 0.219,0.07 0.215,0 0.215,0.074 0.578,0 0.215,-0.074 0.214,0 0.145,-0.07 0.219,-0.074 0.214,-0.071 0.145,-0.07 0.215,-0.074 0.144,-0.145 0.145,-0.07 0.215,-0.144 0.289,-0.29 0.07,-0.144 0.145,-0.215 0.144,-0.144 0.071,-0.215 0.074,-0.145 0.07,-0.215 0.074,-0.144 0.071,-0.215 0,-0.219 0.074,-0.215 0,-4.246 -6.481,0 z m 16.993,-9.722 6.046,0 0,-0.504 0.071,-0.215 0.074,-0.289 0.07,-0.215 0.074,-0.145 0.071,-0.214 0.144,-0.219 0.071,-0.215 0.144,-0.145 0.145,-0.214 0.144,-0.145 0.215,-0.144 0.145,-0.145 0.144,-0.141 0.215,-0.144 0.219,-0.074 0.215,-0.145 0.214,-0.07 0.215,-0.074 0.219,-0.071 0.215,0 0.215,-0.07 0.867,0 0.43,0.141 0.214,0.074 0.219,0.07 0.215,0.074 0.215,0.071 0.219,0.144 0.14,0.145 0.219,0.144 0.145,0.145 0.14,0.144 0.145,0.215 0.144,0.145 0.145,0.215 0.144,0.144 0.071,0.215 0.074,0.215 0.07,0.218 0.074,0.215 0.071,0.215 0,0.219 0.074,0.215 0,0.504 -0.074,0.215 0,0.218 -0.071,0.215 -0.074,0.215 -0.07,0.215 -0.074,0.219 -0.071,0.214 -0.144,0.145 -0.145,0.215 -0.144,0.144 -0.145,0.215 -0.14,0.145 -0.145,0.144 -0.219,0.145 -0.14,0.144 -0.219,0.071 -0.215,0.144 -0.07,0.074 -5.258,1.871 -0.289,0.145 -0.504,0.285 -0.504,0.289 -0.43,0.289 -0.504,0.36 -0.793,0.793 -0.433,0.429 -0.285,0.504 -0.364,0.434 -0.285,0.504 -0.289,0.504 -0.215,0.574 -0.144,0.504 -0.215,0.578 -0.074,0.574 -0.145,0.578 -0.07,0.574 0,1.082 0.07,0.575 0.074,0.578 0.145,0.574 0.141,0.504 0.218,0.578 0.215,0.504 0.289,0.504 0.285,0.504 0.289,0.504 0.36,0.429 0.359,0.504 0.434,0.36 0.433,0.433 0.43,0.36 1.008,0.578 0.504,0.285 0.504,0.219 0.578,0.214 0.504,0.215 0.574,0.075 0.578,0.144 0.574,0.07 1.153,0 0.578,-0.07 0.574,-0.074 0.574,-0.07 0.578,-0.145 0.504,-0.215 0.574,-0.219 0.504,-0.285 1.008,-0.578 0.867,-0.719 0.43,-0.359 0.434,-0.434 0.359,-0.433 0.289,-0.504 0.359,-0.504 0.215,-0.504 0.289,-0.504 0.215,-0.574 0.145,-0.504 0.144,-0.578 0.145,-0.574 0.07,-0.578 0,-0.864 -6.047,0 0,0.504 -0.07,0.219 -0.074,0.215 -0.071,0.144 -0.074,0.215 -0.07,0.145 -0.074,0.215 -0.145,0.144 -0.07,0.145 -0.145,0.214 -0.289,0.29 -0.14,0.07 -0.145,0.144 -0.219,0.145 -0.14,0.074 -0.219,0.07 -0.145,0.071 -0.214,0.074 -0.145,0.07 -0.215,0 -0.215,0.074 -0.793,0 -0.214,-0.074 -0.219,-0.07 -0.145,0 -0.215,-0.074 -0.144,-0.141 -0.215,-0.074 -0.144,-0.07 -0.215,-0.145 -0.145,-0.144 -0.144,-0.071 -0.145,-0.144 -0.144,-0.219 -0.071,-0.141 -0.144,-0.144 -0.071,-0.219 -0.074,-0.141 -0.144,-0.218 -0.071,-0.145 0,-0.215 -0.07,-0.215 0,-0.144 -0.074,-0.215 0,-0.434 0.074,-0.144 0,-0.145 0.141,-0.429 0,-0.145 0.144,-0.215 0.074,-0.144 0.071,-0.219 0.144,-0.141 0.145,-0.144 0.07,-0.145 0.289,-0.289 0.215,-0.144 0.145,-0.145 0.144,-0.07 0.215,-0.074 0.074,-0.071 5.254,-1.945 0.289,-0.07 1.008,-0.578 1.008,-0.719 0.433,-0.43 0.43,-0.433 0.359,-0.434 0.364,-0.504 0.359,-0.504 0.285,-0.504 0.289,-0.574 0.219,-0.504 0.215,-0.578 0.215,-0.574 0.074,-0.578 0.14,-0.645 0.075,-0.578 0,-1.223 -0.075,-0.578 -0.07,-0.574 -0.144,-0.578 -0.215,-0.645 -0.145,-0.507 -0.289,-0.575 -0.215,-0.574 -0.359,-0.504 -0.289,-0.504 -0.359,-0.433 -0.434,-0.504 -0.43,-0.434 -0.433,-0.359 -0.504,-0.43 -0.434,-0.289 -0.574,-0.359 -0.504,-0.289 -0.574,-0.215 -0.504,-0.219 -0.578,-0.144 -0.649,-0.141 -0.574,-0.145 -0.578,-0.074 -1.223,0 -0.578,0.074 -0.644,0.071 -0.578,0.074 -0.575,0.215 -0.578,0.144 -0.574,0.215 -1.008,0.578 -1.511,1.078 -0.434,0.434 -0.359,0.43 -0.434,0.504 -0.359,0.433 -0.29,0.504 -0.285,0.574 -0.289,0.504 -0.215,0.578 -0.144,0.575 -0.145,0.578 -0.144,0.648 -0.07,0.574 0,0.864 z" /><path
         id="path24"
         style="fill:#000000;fill-opacity:1;fill-rule:evenodd;stroke:none"
         d="m 72.793,55.942 0,45.289 6.48,0 0,-38.809 12.887,0 0,-6.48 -19.367,0 z m 41.977,0 -6.411,0 0,3.238 -0.144,-0.141 -0.215,-0.363 -0.215,-0.359 -0.289,-0.36 -0.574,-0.574 -0.363,-0.289 -0.286,-0.289 -0.363,-0.215 -0.359,-0.215 -0.43,-0.144 -0.359,-0.219 -0.364,-0.141 -0.429,-0.074 -0.434,-0.144 -0.43,0 -0.433,-0.071 -0.793,0 -0.43,0.071 -0.433,0 -0.43,0.144 -0.363,0.074 -0.43,0.141 -0.359,0.144 -0.434,0.219 -0.719,0.43 -0.289,0.289 -0.359,0.289 -0.289,0.285 -0.289,0.289 -0.285,0.36 -0.219,0.289 -0.215,0.359 -0.215,0.434 -0.289,0.718 -0.144,0.434 -0.145,0.43 -0.07,0.433 -0.075,0.36 0,5.761 0.075,0.504 0,0.504 0.289,1.008 0.14,0.43 0.145,0.504 0.219,0.433 0.285,0.504 0.219,0.359 0.359,0.434 0.289,0.43 0.359,0.359 0.36,0.363 0.359,0.286 0.434,0.289 0.429,0.289 0.434,0.215 0.504,0.214 0.43,0.219 0.503,0.141 0.504,0.144 0.504,0.074 0.504,0.071 0.508,0.074 5.109,0 0,3.672 -0.07,0.215 0,0.215 -0.074,0.218 0,0.215 -0.07,0.145 -0.075,0.215 -0.07,0.144 -0.145,0.215 -0.07,0.144 -0.144,0.215 -0.579,0.578 -0.14,0.071 -0.145,0.144 -0.218,0.071 -0.215,0.074 -0.145,0.07 -0.215,0.074 -0.214,0.071 -0.145,0 -0.219,0.074 -0.644,0 -0.145,-0.074 -0.219,0 -0.214,-0.071 -0.215,-0.074 -0.145,-0.07 -0.215,-0.074 -0.144,-0.071 -0.215,-0.144 -0.145,-0.071 -0.578,-0.578 -0.07,-0.215 -0.145,-0.144 -0.074,-0.215 -0.07,-0.144 -0.145,-0.215 0,-0.145 -0.07,-0.215 -0.074,-0.218 0,-0.504 -6.481,0 0,0.289 0.075,0.648 0.07,0.574 0.074,0.579 0.145,0.648 0.215,0.574 0.214,0.578 0.289,0.504 0.29,0.574 0.285,0.504 0.363,0.504 0.43,0.434 0.433,0.43 0.43,0.433 0.434,0.359 1.007,0.719 0.575,0.289 0.503,0.289 0.579,0.215 0.574,0.145 0.578,0.144 0.648,0.145 0.575,0.07 0.578,0.074 0.644,0 0.578,-0.074 0.649,-0.07 0.574,-0.145 0.578,-0.144 0.574,-0.145 0.579,-0.215 0.574,-0.289 0.504,-0.289 1.511,-1.078 0.864,-0.863 0.363,-0.434 0.719,-1.008 0.289,-0.574 0.215,-0.504 0.214,-0.578 0.215,-0.574 0.145,-0.648 0.144,-0.579 0.075,-0.574 0,-23.976 z m -6.411,14.183 0,-4.969 -0.07,-0.214 0,-0.215 -0.074,-0.145 0,-0.215 -0.07,-0.218 -0.075,-0.145 -0.07,-0.215 -0.145,-0.144 -0.07,-0.215 -0.578,-0.578 -0.145,-0.141 -0.14,-0.144 -0.145,-0.075 -0.218,-0.144 -0.215,-0.07 -0.145,-0.071 -0.215,-0.074 -0.214,0 -0.145,-0.07 -1.008,0 -0.219,0.07 -0.214,0 -0.215,0.074 -0.145,0.071 -0.215,0.07 -0.144,0.144 -0.215,0.075 -0.145,0.144 -0.144,0.141 -0.434,0.433 -0.07,0.145 -0.145,0.215 -0.074,0.144 -0.07,0.215 -0.145,0.145 0,0.218 -0.07,0.215 -0.074,0.145 0,2.664 0.074,0.215 0.07,0.144 0,0.215 0.145,0.215 0.07,0.144 0.074,0.219 0.145,0.141 0.07,0.144 0.145,0.219 0.144,0.141 0.145,0.074 0.289,0.289 0.215,0.07 0.144,0.145 0.215,0.07 0.145,0.074 0.215,0.071 0.214,0.074 0.219,0 0.145,0.07 3.597,0 z m 31.465,-14.183 -6.48,0 0,3.238 -0.071,-0.141 -0.218,-0.363 -0.285,-0.359 -0.219,-0.36 -0.285,-0.289 -0.289,-0.285 -0.719,-0.578 -0.363,-0.215 -0.36,-0.215 -0.359,-0.144 -0.36,-0.219 -0.433,-0.141 -0.36,-0.074 -0.429,-0.144 -0.434,0 -0.433,-0.071 -0.864,0 -0.359,0.071 -0.434,0 -0.429,0.144 -0.434,0.074 -0.359,0.141 -0.43,0.144 -0.363,0.219 -0.719,0.43 -0.359,0.289 -0.289,0.289 -0.29,0.285 -0.285,0.289 -0.289,0.36 -0.215,0.289 -0.218,0.359 -0.215,0.434 -0.215,0.359 -0.145,0.359 -0.144,0.434 -0.07,0.43 -0.075,0.433 -0.07,0.36 0,20.664 0.07,0.433 0.075,0.43 0.07,0.359 0.144,0.434 0.145,0.43 0.215,0.363 0.215,0.359 0.218,0.36 0.215,0.359 0.289,0.289 0.285,0.359 0.29,0.29 0.289,0.285 0.359,0.218 0.719,0.43 0.363,0.219 0.43,0.144 0.359,0.141 0.434,0.145 0.429,0.074 0.434,0.07 0.359,0.074 0.434,0 0.43,-0.074 0.433,0 0.434,-0.07 0.429,-0.074 0.36,-0.145 0.433,-0.141 0.36,-0.144 0.359,-0.219 0.36,-0.215 0.363,-0.215 0.359,-0.289 0.36,-0.214 0.289,-0.29 0.285,-0.359 0.219,-0.289 0.285,-0.359 0.218,-0.36 0.071,-0.218 0,16.203 6.48,0 0,-45.289 z m -6.48,9.289 0,-0.504 -0.071,-0.145 -0.074,-0.215 0,-0.218 -0.07,-0.145 -0.145,-0.215 -0.074,-0.144 -0.14,-0.215 -0.075,-0.145 -0.289,-0.289 -0.14,-0.144 -0.145,-0.141 -0.144,-0.144 -0.215,-0.075 -0.145,-0.144 -0.219,-0.07 -0.14,-0.071 -0.219,-0.074 -0.215,0 -0.215,-0.07 -1.007,0 -0.145,0.07 -0.219,0 -0.215,0.074 -0.144,0.071 -0.215,0.07 -0.144,0.144 -0.215,0.075 -0.145,0.144 -0.144,0.141 -0.289,0.289 -0.141,0.144 -0.145,0.145 -0.074,0.215 -0.144,0.144 -0.071,0.215 -0.074,0.145 -0.07,0.218 0,0.215 -0.07,0.145 0,14.758 0.07,0.218 0,0.215 0.07,0.145 0.074,0.215 0.071,0.144 0.144,0.215 0.074,0.144 0.145,0.215 0.141,0.145 0.433,0.433 0.145,0.071 0.215,0.144 0.144,0.071 0.215,0.074 0.144,0.07 0.215,0.074 0.219,0.071 0.145,0 0.214,0.074 0.649,0 0.144,-0.074 0.215,0 0.215,-0.071 0.219,-0.074 0.14,-0.07 0.219,-0.074 0.145,-0.071 0.215,-0.144 0.144,-0.071 0.145,-0.144 0.14,-0.145 0.289,-0.289 0.075,-0.215 0.14,-0.144 0.074,-0.215 0.145,-0.144 0.07,-0.215 0,-0.145 0.074,-0.215 0.071,-0.218 0,-14.254 z m 32.328,0 0,-0.289 -0.07,-0.575 -0.075,-0.648 -0.07,-0.578 -0.145,-0.574 -0.214,-0.579 -0.219,-0.574 -0.285,-0.578 -0.578,-1.008 -0.36,-0.504 -0.433,-0.503 -0.864,-0.864 -0.429,-0.359 -0.504,-0.36 -0.504,-0.289 -0.578,-0.359 -0.504,-0.215 -0.574,-0.219 -0.578,-0.214 -0.575,-0.145 -0.648,-0.144 -0.578,-0.071 -1.797,0 -0.649,0.071 -0.578,0.144 -0.574,0.145 -0.578,0.214 -0.574,0.219 -0.578,0.215 -0.504,0.359 -0.504,0.289 -1.008,0.719 -0.43,0.434 -0.433,0.43 -1.078,1.511 -0.29,0.504 -0.214,0.578 -0.219,0.574 -0.215,0.579 -0.144,0.574 -0.145,0.578 -0.07,0.648 0,15.551 0.07,0.574 0.145,0.579 0.144,0.648 0.215,0.574 0.219,0.578 0.214,0.504 0.29,0.574 0.718,1.008 0.36,0.434 0.433,0.43 0.43,0.433 1.512,1.078 0.504,0.289 0.578,0.289 0.574,0.215 0.578,0.145 0.574,0.144 0.578,0.145 0.649,0.07 0.574,0.074 0.648,0 0.575,-0.074 0.578,-0.07 0.648,-0.145 0.575,-0.144 0.578,-0.145 0.574,-0.215 0.504,-0.289 0.578,-0.289 1.008,-0.719 0.429,-0.359 1.297,-1.297 0.36,-0.504 0.289,-0.504 0.289,-0.574 0.285,-0.504 0.219,-0.578 0.214,-0.574 0.145,-0.648 0.07,-0.579 0.075,-0.574 0.07,-0.648 0,-9.578 -12.961,0 0,-4.536 0.074,-0.214 0,-0.215 0.07,-0.145 0,-0.215 0.075,-0.218 0.07,-0.145 0.07,-0.215 0.145,-0.144 0.074,-0.215 0.145,-0.145 0.14,-0.144 0.289,-0.289 0.145,-0.141 0.144,-0.144 0.145,-0.075 0.215,-0.144 0.144,-0.07 0.215,-0.071 0.219,-0.074 0.215,0 0.144,-0.07 1.008,0 0.215,0.07 0.215,0 0.144,0.074 0.219,0.071 0.215,0.07 0.144,0.144 0.215,0.075 0.145,0.144 0.144,0.141 0.145,0.144 0.14,0.145 0.145,0.144 0.074,0.145 0.145,0.215 0.07,0.144 0.07,0.215 0.145,0.145 0,0.218 0.074,0.215 0.07,0.145 0,0.504 6.481,0 z m -12.961,9.718 0,4.106 0.074,0.215 0,0.215 0.07,0.218 0,0.215 0.075,0.145 0.07,0.215 0.07,0.144 0.145,0.215 0.074,0.144 0.145,0.215 0.14,0.145 0.434,0.433 0.144,0.071 0.145,0.144 0.215,0.071 0.144,0.074 0.215,0.07 0.219,0.074 0.215,0.071 0.144,0 0.215,0.074 0.648,0 0.145,-0.074 0.215,0 0.215,-0.071 0.144,-0.074 0.219,-0.07 0.215,-0.074 0.144,-0.071 0.215,-0.144 0.145,-0.071 0.289,-0.289 0.14,-0.144 0.145,-0.145 0.074,-0.215 0.145,-0.144 0.07,-0.215 0.07,-0.144 0.145,-0.215 0,-0.145 0.074,-0.215 0.07,-0.218 0,-4.536 -6.48,0 z m 24.695,-19.007 -8.496,32.328 6.844,0 4.461,-21.024 4.394,21.024 6.911,0 -8.497,-32.328 -5.617,0 z m 17.356,9.289 0,14.687 0.07,0.574 0.145,0.579 0.144,0.648 0.215,0.574 0.215,0.578 0.219,0.504 0.285,0.574 0.363,0.504 0.359,0.504 0.36,0.434 0.863,0.863 1.512,1.078 0.504,0.289 0.578,0.289 0.574,0.215 0.574,0.145 0.578,0.144 0.575,0.145 0.648,0.07 0.578,0.074 0.649,0 0.574,-0.074 0.578,-0.07 0.644,-0.145 0.579,-0.144 0.574,-0.145 0.578,-0.215 0.504,-0.289 0.574,-0.289 1.008,-0.719 0.433,-0.359 1.297,-1.297 0.36,-0.504 0.289,-0.504 0.285,-0.574 0.289,-0.504 0.215,-0.578 0.219,-0.574 0.14,-0.648 0.074,-0.579 0.071,-0.574 0.074,-0.648 0,-14.328 -0.074,-0.575 -0.071,-0.648 -0.074,-0.578 -0.14,-0.574 -0.219,-0.579 -0.215,-0.574 -0.289,-0.578 -0.285,-0.504 -0.289,-0.504 -0.36,-0.504 -0.433,-0.503 -0.864,-0.864 -0.433,-0.359 -0.504,-0.36 -0.504,-0.289 -0.574,-0.359 -0.504,-0.215 -0.578,-0.219 -0.574,-0.214 -0.579,-0.145 -0.644,-0.144 -0.578,-0.071 -1.801,0 -0.648,0.071 -0.575,0.144 -0.578,0.145 -0.574,0.214 -0.574,0.219 -0.578,0.215 -0.504,0.359 -0.504,0.289 -1.008,0.719 -0.863,0.864 -0.719,1.007 -0.363,0.504 -0.285,0.504 -0.219,0.578 -0.215,0.574 -0.215,0.579 -0.144,0.574 -0.145,0.578 -0.07,0.648 0,0.864 z m 6.406,0 0,13.824 0.07,0.215 0,0.433 0.074,0.215 0.071,0.145 0.074,0.215 0.07,0.144 0.145,0.215 0.07,0.144 0.145,0.215 0.578,0.578 0.144,0.071 0.145,0.144 0.215,0.071 0.144,0.074 0.215,0.07 0.215,0.074 0.145,0.071 0.214,0 0.219,0.074 0.574,0 0.215,-0.074 0.219,0 0.215,-0.071 0.144,-0.074 0.215,-0.07 0.219,-0.074 0.14,-0.071 0.145,-0.144 0.219,-0.071 0.14,-0.144 0.434,-0.434 0.07,-0.215 0.145,-0.144 0.074,-0.215 0.07,-0.144 0.075,-0.215 0.07,-0.145 0.07,-0.215 0.074,-0.218 0,-14.758 -0.074,-0.145 -0.07,-0.215 -0.07,-0.218 -0.075,-0.145 -0.07,-0.215 -0.074,-0.144 -0.145,-0.215 -0.07,-0.145 -0.574,-0.574 -0.219,-0.144 -0.145,-0.075 -0.14,-0.144 -0.219,-0.07 -0.215,-0.071 -0.144,-0.074 -0.215,0 -0.219,-0.07 -1.008,0 -0.214,0.07 -0.145,0 -0.215,0.074 -0.215,0.071 -0.144,0.07 -0.215,0.144 -0.145,0.075 -0.144,0.144 -0.145,0.141 -0.578,0.578 -0.07,0.215 -0.145,0.144 -0.07,0.215 -0.074,0.145 -0.071,0.218 -0.074,0.215 0,0.36 -0.07,0.214 0,0.075 z m 19.367,-9.289 0,32.328 6.41,0 0,-3.672 0.215,0.289 0.434,0.504 0.504,0.43 0.504,0.433 1.007,0.719 0.575,0.359 0.578,0.289 0.574,0.289 0.574,0.215 1.945,0.434 0.649,0.07 0.648,0.074 0.289,0 0,-6.843 -0.218,0.074 -0.36,0.144 -0.359,0.071 -0.434,0 -0.359,0.074 -0.789,0 -0.363,-0.074 -0.43,-0.071 -0.359,-0.074 -0.364,-0.144 -0.359,-0.141 -0.719,-0.289 -0.359,-0.215 -0.36,-0.219 -0.289,-0.215 -0.289,-0.289 -0.289,-0.285 -0.285,-0.289 -0.219,-0.289 -0.215,-0.359 -0.214,-0.289 -0.145,-0.36 -0.215,-0.359 -0.144,-0.359 -0.075,-0.36 -0.14,-0.433 -0.074,-0.36 0,-0.433 -0.071,-0.36 0,-20.015 -6.41,0 z m 24.625,-3.602 0,-0.504 0.07,-0.215 0,-0.215 0.075,-0.144 0.07,-0.215 0.145,-0.144 0.074,-0.219 0.07,-0.141 0.145,-0.219 0.144,-0.144 0.145,-0.141 0.14,-0.144 0.145,-0.145 0.144,-0.074 0.215,-0.141 0.145,-0.074 0.218,-0.07 0.145,-0.074 0.215,-0.071 0.215,-0.074 0.215,0 0.144,-0.07 0.649,0 0.214,0.07 0.145,0 0.219,0.074 0.214,0.071 0.145,0.074 0.215,0.07 0.144,0.074 0.215,0.141 0.145,0.074 0.289,0.289 0.144,0.141 0.145,0.144 0.14,0.219 0.075,0.141 0.144,0.219 0.071,0.144 0.074,0.215 0.07,0.144 0,0.215 0.07,0.215 0,7.344 -0.07,-0.141 -0.215,-0.363 -0.219,-0.359 -0.285,-0.36 -0.289,-0.289 -0.289,-0.285 -0.359,-0.289 -0.289,-0.289 -0.719,-0.43 -0.434,-0.144 -0.359,-0.219 -0.43,-0.141 -0.359,-0.074 -0.434,-0.144 -0.433,0 -0.43,-0.071 -0.793,0 -0.433,0.071 -0.43,0 -0.434,0.144 -0.359,0.074 -0.434,0.141 -0.359,0.144 -0.43,0.219 -0.359,0.215 -0.363,0.215 -0.286,0.289 -0.363,0.289 -0.574,0.574 -0.289,0.36 -0.215,0.289 -0.215,0.359 -0.219,0.434 -0.14,0.359 -0.219,0.359 -0.07,0.434 -0.145,0.43 -0.07,0.433 -0.074,0.36 0,20.664 0.074,0.433 0.07,0.43 0.145,0.359 0.07,0.434 0.219,0.43 0.14,0.363 0.219,0.359 0.43,0.719 0.289,0.289 0.289,0.359 0.285,0.29 0.363,0.285 0.286,0.218 0.363,0.215 0.359,0.215 0.43,0.219 0.359,0.144 0.434,0.141 0.359,0.145 0.434,0.074 0.43,0.07 0.433,0.074 0.36,0 0.433,-0.074 0.43,0 0.433,-0.07 0.434,-0.074 0.359,-0.145 0.43,-0.141 0.359,-0.144 0.434,-0.219 0.719,-0.43 0.289,-0.289 0.359,-0.214 0.289,-0.29 0.289,-0.359 0.285,-0.289 0.219,-0.359 0.215,-0.36 0.07,-0.218 0,3.242 6.481,0 0,-36.864 -0.145,-0.578 -0.07,-0.574 -0.144,-0.648 -0.215,-0.578 -0.215,-0.575 -0.289,-0.504 -0.289,-0.574 -0.289,-0.504 -0.36,-0.504 -0.359,-0.433 -0.863,-0.863 -0.504,-0.36 -0.504,-0.363 -0.504,-0.36 -0.504,-0.285 -0.578,-0.289 -0.574,-0.215 -0.579,-0.144 -0.574,-0.145 -0.578,-0.144 -0.644,-0.074 -0.578,-0.071 -0.649,0 -0.574,0.071 -0.578,0.074 -0.649,0.144 -1.148,0.289 -0.578,0.215 -0.574,0.289 -0.504,0.285 -0.504,0.36 -0.504,0.363 -0.434,0.36 -0.504,0.429 -0.359,0.434 -0.434,0.433 -0.359,0.504 -0.289,0.504 -0.285,0.574 -0.289,0.504 -0.215,0.575 -0.219,0.578 -0.144,0.648 -0.071,0.574 -0.07,0.578 -0.074,0.649 0,0.285 6.48,0 z m 6.406,12.891 0,-0.504 -0.07,-0.145 0,-0.215 -0.07,-0.218 -0.074,-0.145 -0.071,-0.215 -0.144,-0.144 -0.075,-0.215 -0.14,-0.145 -0.434,-0.433 -0.144,-0.141 -0.145,-0.144 -0.215,-0.075 -0.144,-0.144 -0.215,-0.07 -0.145,-0.071 -0.214,-0.074 -0.219,0 -0.145,-0.07 -1.007,0 -0.215,0.07 -0.215,0 -0.215,0.074 -0.145,0.071 -0.218,0.07 -0.145,0.144 -0.215,0.075 -0.144,0.144 -0.145,0.141 -0.14,0.144 -0.434,0.434 -0.07,0.215 -0.074,0.144 -0.145,0.215 -0.07,0.145 -0.075,0.218 0,0.215 -0.07,0.145 0,14.758 0.07,0.218 0,0.215 0.075,0.145 0.07,0.215 0.145,0.144 0.074,0.215 0.07,0.144 0.145,0.215 0.289,0.289 0.14,0.145 0.145,0.144 0.144,0.071 0.215,0.144 0.145,0.071 0.218,0.074 0.145,0.07 0.215,0.074 0.215,0.071 0.215,0 0.144,0.074 0.649,0 0.214,-0.074 0.145,0 0.219,-0.071 0.214,-0.074 0.145,-0.07 0.215,-0.074 0.144,-0.071 0.215,-0.144 0.145,-0.071 0.578,-0.578 0.14,-0.215 0.075,-0.144 0.144,-0.215 0.071,-0.144 0.074,-0.215 0.07,-0.145 0,-0.215 0.07,-0.218 0,-14.254 z m 31.539,-9.289 -6.48,0 0,3.238 -0.074,-0.141 -0.215,-0.363 -0.289,-0.359 -0.215,-0.36 -0.289,-0.289 -0.359,-0.285 -0.289,-0.289 -0.36,-0.289 -0.719,-0.43 -0.359,-0.144 -0.359,-0.219 -0.434,-0.141 -0.434,-0.074 -0.359,-0.144 -0.43,0 -0.433,-0.071 -0.863,0 -0.434,0.071 -0.359,0 -0.43,0.144 -0.434,0.074 -0.359,0.141 -0.434,0.144 -0.359,0.219 -0.719,0.43 -0.359,0.289 -0.289,0.289 -0.289,0.285 -0.289,0.289 -0.286,0.36 -0.218,0.289 -0.285,0.359 -0.145,0.434 -0.219,0.359 -0.14,0.359 -0.145,0.434 -0.074,0.43 -0.07,0.433 -0.075,0.36 0,6.265 0.075,0.504 0.07,0.504 0.144,0.504 0.145,0.43 0.215,0.504 0.219,0.433 0.214,0.504 0.289,0.359 0.286,0.434 0.363,0.43 0.359,0.359 0.36,0.363 0.359,0.286 0.434,0.289 0.429,0.289 0.434,0.215 0.43,0.214 0.503,0.219 0.504,0.141 0.434,0.144 0.504,0.074 0.504,0.071 0.504,0.074 5.113,0 0,4.102 -0.074,0.218 -0.071,0.215 -0.074,0.145 -0.07,0.215 -0.07,0.144 -0.075,0.215 -0.144,0.144 -0.07,0.215 -0.579,0.578 -0.214,0.071 -0.145,0.144 -0.144,0.071 -0.215,0.074 -0.215,0.07 -0.145,0.074 -0.215,0.071 -0.218,0 -0.215,0.074 -0.574,0 -0.219,-0.074 -0.215,0 -0.144,-0.071 -0.215,-0.074 -0.215,-0.07 -0.145,-0.074 -0.218,-0.071 -0.141,-0.144 -0.145,-0.071 -0.578,-0.578 -0.144,-0.215 -0.071,-0.144 -0.144,-0.215 -0.07,-0.144 -0.075,-0.215 -0.07,-0.145 -0.074,-0.215 0,-0.433 -0.07,-0.215 0,-0.074 -6.411,0 0,0.937 0.075,0.574 0.144,0.579 0.145,0.648 0.214,0.574 0.215,0.578 0.215,0.504 0.289,0.574 0.36,0.504 0.363,0.504 0.359,0.434 0.864,0.863 1.511,1.078 0.504,0.289 0.574,0.289 0.579,0.215 0.574,0.145 0.578,0.144 0.574,0.145 0.649,0.07 0.578,0.074 0.574,0 0.648,-0.074 0.575,-0.07 0.648,-0.145 0.578,-0.144 0.574,-0.145 0.578,-0.215 0.504,-0.289 0.575,-0.289 1.007,-0.719 0.434,-0.359 0.43,-0.433 0.433,-0.43 0.434,-0.434 0.359,-0.504 0.285,-0.504 0.289,-0.574 0.289,-0.504 0.215,-0.578 0.215,-0.574 0.145,-0.648 0.074,-0.579 0.07,-0.574 0.074,-0.648 0,-23.328 z m -6.48,14.183 0,-5.398 -0.074,-0.145 -0.071,-0.215 -0.074,-0.218 -0.07,-0.145 -0.07,-0.215 -0.075,-0.144 -0.144,-0.215 -0.07,-0.145 -0.434,-0.433 -0.145,-0.141 -0.214,-0.144 -0.145,-0.075 -0.144,-0.144 -0.43,-0.141 -0.145,-0.074 -0.215,0 -0.218,-0.07 -1.008,0 -0.215,0.07 -0.144,0 -0.215,0.074 -0.215,0.071 -0.145,0.07 -0.218,0.144 -0.141,0.075 -0.145,0.144 -0.144,0.141 -0.578,0.578 -0.071,0.215 -0.144,0.144 -0.07,0.215 -0.075,0.145 -0.07,0.218 -0.074,0.215 0,0.36 -0.07,0.214 0,1.801 0.07,0.215 0,0.434 0.074,0.144 0.07,0.215 0.075,0.215 0.07,0.144 0.144,0.219 0.071,0.141 0.144,0.144 0.145,0.219 0.144,0.141 0.145,0.074 0.289,0.289 0.141,0.07 0.218,0.145 0.145,0.07 0.215,0.074 0.215,0.071 0.144,0.074 0.215,0 0.219,0.07 3.527,0 z m 12.961,-14.183 0,32.328 6.406,0 0,-3.242 0.145,0.218 0.429,0.719 0.289,0.289 0.29,0.359 0.289,0.29 0.285,0.214 0.359,0.289 0.363,0.215 0.36,0.215 0.359,0.219 0.434,0.144 0.359,0.141 0.43,0.145 0.433,0.074 0.434,0.07 0.359,0 0.43,0.074 0.434,0 0.429,-0.074 0.434,-0.07 0.434,-0.074 0.359,-0.145 0.43,-0.141 0.363,-0.144 0.359,-0.219 0.43,-0.215 0.289,-0.215 0.359,-0.218 0.36,-0.285 0.289,-0.29 0.289,-0.359 0.215,-0.289 0.289,-0.359 0.429,-0.719 0.145,-0.363 0.145,-0.43 0.144,-0.434 0.145,-0.359 0.07,-0.43 0,-0.433 0.074,-0.434 0,-26.062 -6.48,0 0,23.328 -0.075,0.215 0,0.218 -0.07,0.215 -0.07,0.145 -0.074,0.215 -0.071,0.144 -0.074,0.215 -0.144,0.144 -0.071,0.215 -0.433,0.434 -0.141,0.144 -0.219,0.071 -0.144,0.144 -0.145,0.071 -0.215,0.074 -0.215,0.07 -0.144,0.074 -0.215,0.071 -0.219,0 -0.214,0.074 -0.575,0 -0.218,-0.074 -0.215,0 -0.145,-0.071 -0.215,-0.074 -0.214,-0.07 -0.145,-0.074 -0.219,-0.071 -0.14,-0.144 -0.145,-0.071 -0.144,-0.144 -0.215,-0.145 -0.075,-0.144 -0.144,-0.145 -0.145,-0.215 -0.07,-0.144 -0.144,-0.215 -0.071,-0.144 -0.074,-0.215 -0.07,-0.145 -0.075,-0.215 0,-0.433 -0.07,-0.215 0,-23.113 -6.406,0 z m 31.461,-3.602 0,-0.285 0.074,-0.219 0,-0.215 0.07,-0.215 0.075,-0.144 0.07,-0.215 0.07,-0.144 0.074,-0.219 0.145,-0.141 0.07,-0.219 0.145,-0.144 0.144,-0.141 0.289,-0.289 0.215,-0.074 0.145,-0.141 0.215,-0.074 0.144,-0.07 0.215,-0.074 0.145,-0.071 0.214,-0.074 0.219,0 0.215,-0.07 0.574,0 0.219,0.07 0.215,0 0.144,0.074 0.215,0.071 0.219,0.074 0.141,0.07 0.218,0.074 0.145,0.141 0.14,0.074 0.219,0.145 0.285,0.285 0.075,0.144 0.144,0.219 0.145,0.141 0.07,0.219 0.07,0.144 0.074,0.215 0.071,0.144 0.074,0.215 0,0.215 0.07,0.219 0,7.125 -0.144,-0.141 -0.215,-0.363 -0.215,-0.359 -0.289,-0.36 -0.863,-0.863 -0.36,-0.289 -0.363,-0.215 -0.359,-0.215 -0.36,-0.144 -0.429,-0.219 -0.364,-0.141 -0.429,-0.074 -0.434,-0.144 -0.359,0 -0.434,-0.071 -0.863,0 -0.43,0.071 -0.433,0 -0.36,0.144 -0.433,0.074 -0.43,0.141 -0.359,0.144 -0.364,0.219 -0.718,0.43 -0.719,0.578 -0.289,0.285 -0.289,0.289 -0.215,0.36 -0.289,0.289 -0.215,0.359 -0.215,0.434 -0.289,0.718 -0.145,0.434 -0.07,0.43 -0.144,0.433 0,0.36 -0.075,0.433 0,19.797 0.075,0.434 0,0.433 0.144,0.43 0.07,0.359 0.145,0.434 0.145,0.43 0.144,0.363 0.43,0.719 0.289,0.359 0.215,0.289 0.289,0.359 0.289,0.29 0.359,0.285 0.36,0.218 0.718,0.43 0.364,0.219 0.359,0.144 0.43,0.141 0.433,0.145 0.36,0.074 0.433,0.07 0.43,0.074 0.433,0 0.43,-0.074 0.434,0 0.359,-0.07 0.434,-0.074 0.429,-0.145 0.364,-0.141 0.429,-0.144 0.36,-0.219 0.359,-0.215 0.363,-0.215 0.36,-0.289 0.289,-0.214 0.285,-0.29 0.289,-0.359 0.289,-0.289 0.43,-0.719 0.144,-0.218 0,3.242 6.411,0 0,-36.864 -0.075,-0.578 -0.144,-0.574 -0.145,-0.648 -0.14,-0.578 -0.289,-0.575 -0.215,-0.504 -0.289,-0.574 -0.719,-1.008 -0.363,-0.433 -0.43,-0.434 -0.434,-0.429 -0.504,-0.36 -0.429,-0.363 -0.578,-0.36 -0.504,-0.285 -0.575,-0.289 -0.578,-0.215 -0.574,-0.144 -0.578,-0.145 -0.574,-0.144 -0.578,-0.074 -0.649,-0.071 -0.574,0 -0.648,0.071 -0.575,0.074 -0.578,0.144 -0.648,0.145 -0.574,0.144 -0.579,0.215 -0.503,0.289 -0.575,0.285 -0.504,0.36 -0.504,0.363 -0.433,0.36 -0.863,0.863 -0.36,0.433 -0.718,1.008 -0.29,0.574 -0.289,0.504 -0.214,0.575 -0.145,0.578 -0.145,0.648 -0.144,0.574 -0.07,0.578 -0.075,0.649 0,0.285 6.481,0 z m 6.48,12.891 0,-0.289 -0.07,-0.215 0,-0.145 -0.074,-0.215 -0.071,-0.218 -0.074,-0.145 -0.07,-0.215 -0.07,-0.144 -0.145,-0.215 -0.144,-0.145 -0.075,-0.144 -0.14,-0.145 -0.145,-0.144 -0.219,-0.141 -0.14,-0.144 -0.145,-0.075 -0.218,-0.144 -0.141,-0.07 -0.219,-0.071 -0.215,-0.074 -0.144,0 -0.215,-0.07 -1.008,0 -0.219,0.07 -0.214,0 -0.145,0.074 -0.215,0.071 -0.144,0.07 -0.215,0.144 -0.145,0.075 -0.215,0.144 -0.144,0.141 -0.434,0.433 -0.07,0.145 -0.145,0.215 -0.074,0.144 -0.07,0.215 -0.07,0.145 -0.075,0.218 -0.07,0.215 0,0.145 -0.074,0.215 0,14.328 0.074,0.215 0,0.218 0.07,0.215 0.075,0.145 0.07,0.215 0.07,0.144 0.074,0.215 0.145,0.144 0.07,0.215 0.578,0.578 0.215,0.071 0.145,0.144 0.215,0.071 0.144,0.074 0.215,0.07 0.145,0.074 0.214,0.071 0.219,0 0.215,0.074 0.574,0 0.219,-0.074 0.215,0 0.144,-0.071 0.215,-0.074 0.219,-0.07 0.141,-0.074 0.218,-0.071 0.145,-0.144 0.14,-0.071 0.219,-0.144 0.145,-0.145 0.14,-0.144 0.075,-0.145 0.144,-0.215 0.145,-0.144 0.07,-0.215 0.07,-0.144 0.074,-0.215 0.071,-0.145 0.074,-0.215 0,-0.218 0.07,-0.215 0,-14.039 z m 11.305,0 6.047,0 0,-0.289 0.074,-0.215 0,-0.289 0.07,-0.215 0.075,-0.219 0.07,-0.144 0.07,-0.215 0.145,-0.215 0.074,-0.215 0.145,-0.144 0.14,-0.219 0.145,-0.141 0.218,-0.144 0.145,-0.145 0.215,-0.144 0.144,-0.145 0.215,-0.07 0.215,-0.145 0.219,-0.074 0.43,-0.141 0.214,0 0.219,-0.074 0.863,0 0.289,0.074 0.43,0.141 0.219,0.074 0.14,0.07 0.219,0.075 0.215,0.144 0.145,0.141 0.214,0.144 0.504,0.504 0.075,0.145 0.14,0.215 0.145,0.144 0.074,0.219 0.07,0.215 0.075,0.215 0.07,0.218 0.07,0.215 0,0.215 0.074,0.215 0,0.504 -0.074,0.219 0,0.214 -0.07,0.215 -0.07,0.219 -0.075,0.215 -0.07,0.215 -0.074,0.215 -0.145,0.144 -0.14,0.219 -0.145,0.144 -0.144,0.215 -0.29,0.289 -0.214,0.141 -0.145,0.144 -0.215,0.075 -0.219,0.144 -0.07,0.07 -5.258,1.872 -0.285,0.144 -1.008,0.578 -0.433,0.285 -0.434,0.36 -0.429,0.433 -0.434,0.36 -0.359,0.433 -0.36,0.504 -0.359,0.43 -0.289,0.504 -0.215,0.504 -0.289,0.578 -0.145,0.504 -0.215,0.574 -0.074,0.578 -0.14,0.574 0,0.578 -0.075,0.575 0.075,0.578 0,0.574 0.14,0.578 0.074,0.574 0.215,0.504 0.145,0.578 0.215,0.504 0.867,1.512 0.359,0.43 0.43,0.504 0.793,0.793 0.434,0.359 1.007,0.578 0.504,0.285 0.504,0.219 0.574,0.215 0.578,0.215 0.504,0.074 0.575,0.144 0.578,0.071 1.148,0 0.578,-0.071 0.574,-0.074 0.579,-0.07 0.574,-0.145 0.504,-0.218 0.578,-0.215 0.504,-0.289 0.504,-0.285 0.504,-0.29 0.429,-0.359 0.867,-0.719 0.43,-0.433 0.36,-0.434 0.289,-0.504 0.359,-0.504 0.289,-0.504 0.215,-0.503 0.219,-0.575 0.14,-0.504 0.145,-0.578 0.144,-0.574 0.075,-0.578 0,-0.863 -6.051,0 0,0.504 -0.071,0.218 -0.074,0.141 0,0.219 -0.07,0.215 -0.145,0.144 -0.07,0.215 -0.074,0.144 -0.145,0.145 -0.14,0.215 -0.289,0.289 -0.145,0.07 -0.144,0.145 -0.145,0.074 -0.215,0.141 -0.144,0.074 -0.215,0.07 -0.215,0.074 -0.145,0.071 -0.218,0 -0.215,0.074 -0.574,0 -0.219,-0.074 -0.215,0 -0.144,-0.071 -0.215,0 -0.215,-0.074 -0.145,-0.144 -0.218,-0.071 -0.141,-0.07 -0.145,-0.145 -0.218,-0.144 -0.141,-0.145 -0.145,-0.144 -0.074,-0.145 -0.144,-0.144 -0.145,-0.141 -0.07,-0.219 -0.07,-0.144 -0.075,-0.215 -0.07,-0.145 -0.074,-0.214 -0.071,-0.215 0,-1.153 0.071,-0.218 0.074,-0.215 0.07,-0.145 0.075,-0.215 0.07,-0.144 0.07,-0.215 0.434,-0.433 0.074,-0.145 0.215,-0.141 0.289,-0.289 0.141,-0.074 0.218,-0.07 0.071,-0.074 5.257,-1.942 0.286,-0.074 0.503,-0.285 0.504,-0.289 1.008,-0.719 0.867,-0.867 0.36,-0.43 0.429,-0.504 0.579,-1.008 0.289,-0.578 0.285,-0.504 0.144,-0.574 0.215,-0.578 0.145,-0.574 0.074,-0.649 0.07,-0.574 0,-1.226 -0.07,-0.575 -0.074,-0.578 -0.145,-0.574 -0.14,-0.648 -0.219,-0.504 -0.215,-0.575 -0.289,-0.578 -0.285,-0.504 -0.364,-0.504 -0.359,-0.503 -0.43,-0.434 -0.433,-0.43 -0.434,-0.359 -0.43,-0.434 -0.503,-0.289 -0.504,-0.359 -0.578,-0.289 -0.504,-0.215 -0.575,-0.215 -0.578,-0.144 -0.574,-0.145 -0.648,-0.144 -0.575,-0.071 -1.226,0 -0.574,0.071 -0.578,0.074 -0.645,0.07 -0.578,0.215 -0.574,0.144 -0.504,0.219 -0.578,0.285 -0.504,0.289 -1.008,0.719 -0.434,0.36 -0.429,0.433 -0.434,0.434 -0.359,0.504 -0.36,0.429 -0.359,0.504 -0.289,0.578 -0.215,0.504 -0.219,0.574 -0.215,0.579 -0.144,0.574 -0.145,0.648 -0.07,0.578 0,0.864 z" /><path
         id="path26"
         style="fill:#000000;fill-opacity:1;fill-rule:nonzero;stroke:none"
         d="m 27.996,323.278 -1.797,-0.145 -0.008,-0.004 -1.796,-0.219 -0.012,0 -1.805,-0.359 -0.008,0 -1.726,-0.43 -0.012,-0.008 -1.727,-0.574 -0.003,0 -1.657,-0.648 -0.011,-0.004 -1.657,-0.793 -0.004,-0.004 -1.582,-0.867 -0.011,-0.004 -1.512,-0.934 -0.012,-0.007 -1.437,-1.079 -0.008,-0.007 L 9.844,316.043 8.473,314.817 8.465,314.805 7.242,313.512 7.23,313.5 6.078,312.059 5,310.621 4.992,310.61 4.059,309.098 4.055,309.086 3.188,307.504 3.184,307.5 l -0.793,-1.656 -0.004,-0.012 -0.649,-1.656 0,-0.004 -0.574,-1.726 -0.008,-0.012 -0.429,-1.727 0,-0.008 -0.36,-1.804 0,-0.012 L 0.148,297.086 0.145,297.074 0.07,295.281 0,294.414 0,28.856 l 0.07,-0.86 0.075,-1.797 0.003,-0.011 0.219,-1.801 0,-0.012 0.36,-1.797 0,-0.007 0.429,-1.727 0.008,-0.012 0.574,-1.726 0,-0.012 0.649,-1.652 0.004,-0.008 0.793,-1.66 L 3.188,15.766 4.055,14.184 4.059,14.18 4.992,12.668 5,12.656 6.078,11.219 6.078,11.211 7.23,9.774 7.242,9.766 8.465,8.465 8.473,8.461 9.844,7.235 l 0,-0.004 1.367,-1.153 0.008,-0.004 1.437,-1.082 0.012,-0.004 1.512,-0.937 0.011,-0.004 1.582,-0.863 0.004,0 1.657,-0.793 0.011,-0.004 1.657,-0.649 0.003,-0.003 1.727,-0.579 0.012,0 1.726,-0.429 0.008,-0.008 1.805,-0.359 0.012,0 1.796,-0.215 0.008,0 1.797,-0.145 375,0 1.801,0.145 0.004,0 1.801,0.215 0.011,0 1.797,0.359 0.008,0.008 1.73,0.429 0.008,0 1.731,0.579 0.008,0.003 1.656,0.649 0.011,0.004 1.653,0.793 0.008,0 1.582,0.863 0.007,0.008 1.512,0.933 0.008,0.008 1.441,1.078 0.004,0.004 1.375,1.153 0,0.007 1.368,1.223 0.011,0.004 1.223,1.301 0.008,0.008 1.148,1.437 0.008,0.008 1.078,1.437 0.008,0.012 0.934,1.512 0.007,0.008 0.864,1.582 0.003,0.004 0.793,1.664 0,0.004 0.649,1.656 0.004,0.012 0.578,1.726 0,0.012 0.434,1.726 0,0.008 0.363,1.797 0,0.012 0.215,1.801 0,0.011 0.07,1.797 0.074,0.86 0,265.558 -0.074,0.863 -0.074,1.793 0,0.012 -0.215,1.797 0,0.012 -0.359,1.804 0,0.008 -0.438,1.727 0,0.012 -0.578,1.726 -0.004,0.004 -0.648,1.656 0,0.012 -0.793,1.656 -0.004,0.004 -0.864,1.582 -0.007,0.012 -0.934,1.512 -0.008,0.011 -1.078,1.438 -0.004,0 -1.152,1.441 -0.008,0.012 -1.223,1.293 -0.011,0.012 -1.368,1.226 -1.371,1.149 -0.007,0.007 -1.438,1.079 -0.012,0.007 -1.511,0.934 -0.004,0.004 -1.586,0.867 -0.004,0.004 -1.656,0.793 -0.012,0.004 -1.656,0.648 -0.004,0 -1.735,0.574 -0.004,0.008 -1.73,0.43 -0.008,0 -1.801,0.359 -0.007,0 -1.801,0.219 -0.008,0.004 -1.797,0.145 -375,0 z m 0.02,-0.29 374.964,0 1.79,-0.136 1.792,-0.215 1.793,-0.363 1.715,-0.43 1.723,-0.57 1.645,-0.649 1.648,-0.785 1.578,-0.859 1.5,-0.93 1.438,-1.074 1.359,-1.153 1.363,-1.218 1.219,-1.282 1.145,-1.433 1.074,-1.438 0.929,-1.504 0.864,-1.578 0.785,-1.644 0.648,-1.649 0.571,-1.722 0.433,-1.715 0.356,-1.797 0.214,-1.785 0.071,-1.797 0,-0.004 0.074,-0.859 0,-265.528 -0.074,-0.855 0,-0.008 -0.071,-1.793 -0.214,-1.789 -0.356,-1.789 -0.433,-1.719 -0.571,-1.722 -0.648,-1.645 -0.785,-1.648 -0.864,-1.579 -0.929,-1.5 -1.074,-1.437 -1.145,-1.434 -1.219,-1.289 -1.363,-1.218 -1.359,-1.145 -1.438,-1.074 -1.5,-0.93 -1.578,-0.863 -1.648,-0.785 -1.645,-0.645 -1.723,-0.574 -1.715,-0.434 -1.793,-0.355 -1.792,-0.215 -1.79,-0.145 -374.964,0 -1.797,0.145 -1.785,0.215 -1.797,0.355 -1.715,0.434 -1.723,0.574 -1.648,0.645 -1.645,0.785 -1.578,0.863 -1.504,0.93 -1.429,1.074 -1.368,1.145 -1.363,1.218 -1.211,1.289 -1.148,1.438 -1.078,1.433 -0.93,1.5 -0.859,1.579 -0.786,1.648 -0.648,1.645 -0.57,1.722 -0.43,1.723 -0.363,1.785 -0.207,1.789 -0.075,1.793 0,0.008 -0.07,0.855 0,265.528 0.07,0.859 0,0.004 0.075,1.797 0.207,1.785 0.363,1.797 0.43,1.715 0.57,1.722 0.648,1.649 0.786,1.644 0.859,1.578 0.93,1.504 1.078,1.438 1.148,1.433 1.211,1.282 1.363,1.218 1.368,1.153 1.429,1.074 1.504,0.93 1.578,0.859 1.645,0.785 1.648,0.649 1.723,0.57 1.715,0.43 1.797,0.363 1.785,0.215 1.797,0.136 z" /></g></g></svg>