<?xml version="1.0" encoding="UTF-8" standalone="no"?>
<svg
   xmlns:dc="http://purl.org/dc/elements/1.1/"
   xmlns:cc="http://creativecommons.org/ns#"
   xmlns:rdf="http://www.w3.org/1999/02/22-rdf-syntax-ns#"
   xmlns:svg="http://www.w3.org/2000/svg"
   xmlns="http://www.w3.org/2000/svg"
   viewBox="0 0 600.18182 330.09998"
   height="330.09998"
   width="600.18182"
   xml:space="preserve"
   version="1.1"
   id="svg17804"><metadata
     id="metadata17810"><rdf:RDF><cc:Work
         rdf:about=""><dc:format>image/svg+xml</dc:format><dc:type
           rdf:resource="http://purl.org/dc/dcmitype/StillImage" /><dc:title></dc:title></cc:Work></rdf:RDF></metadata><defs
     id="defs17808"><clipPath
       id="clipPath17824"
       clipPathUnits="userSpaceOnUse"><path
         id="path17826"
         d="M 0,0 481,0 481,265 0,265 0,0 Z" /></clipPath><clipPath
       id="clipPath17844"
       clipPathUnits="userSpaceOnUse"><path
         id="path17846"
         d="M 0,0 481,0 481,265 0,265 0,0 Z" /></clipPath><clipPath
       id="clipPath17854"
       clipPathUnits="userSpaceOnUse"><path
         id="path17856"
         d="m 0,265 480.453,0 0,-265 L 0,0 0,265 Z" /></clipPath><clipPath
       id="clipPath17864"
       clipPathUnits="userSpaceOnUse"><path
         id="path17866"
         d="M 0,1 481,1 481,265 0,265 0,1 Z" /></clipPath><clipPath
       id="clipPath17874"
       clipPathUnits="userSpaceOnUse"><path
         id="path17876"
         d="m 0,265 480.145,0 0,-263.629 L 0,1.371 0,265 Z" /></clipPath><clipPath
       id="clipPath17884"
       clipPathUnits="userSpaceOnUse"><path
         id="path17886"
         d="m 367,83 45,0 0,73 -45,0 0,-73 z" /></clipPath><clipPath
       id="clipPath17898"
       clipPathUnits="userSpaceOnUse"><path
         id="path17900"
         d="M 0,0 481,0 481,265 0,265 0,0 Z" /></clipPath><clipPath
       id="clipPath17908"
       clipPathUnits="userSpaceOnUse"><path
         id="path17910"
         d="m 0,265 480.453,0 0,-265 L 0,0 0,265 Z" /></clipPath><clipPath
       id="clipPath17918"
       clipPathUnits="userSpaceOnUse"><path
         id="path17920"
         d="M 0,1 481,1 481,265 0,265 0,1 Z" /></clipPath><clipPath
       id="clipPath17928"
       clipPathUnits="userSpaceOnUse"><path
         id="path17930"
         d="m 0,265 480.145,0 0,-263.629 L 0,1.371 0,265 Z" /></clipPath><clipPath
       id="clipPath17938"
       clipPathUnits="userSpaceOnUse"><path
         id="path17940"
         d="m 155,82 201,0 0,102 -201,0 0,-102 z" /></clipPath><clipPath
       id="clipPath17952"
       clipPathUnits="userSpaceOnUse"><path
         id="path17954"
         d="M 0,0 481,0 481,265 0,265 0,0 Z" /></clipPath><clipPath
       id="clipPath17962"
       clipPathUnits="userSpaceOnUse"><path
         id="path17964"
         d="m 0,265 480.453,0 0,-265 L 0,0 0,265 Z" /></clipPath><clipPath
       id="clipPath17972"
       clipPathUnits="userSpaceOnUse"><path
         id="path17974"
         d="M 0,1 481,1 481,265 0,265 0,1 Z" /></clipPath><clipPath
       id="clipPath17982"
       clipPathUnits="userSpaceOnUse"><path
         id="path17984"
         d="m 0,265 480.145,0 0,-263.629 L 0,1.371 0,265 Z" /></clipPath><clipPath
       id="clipPath17992"
       clipPathUnits="userSpaceOnUse"><path
         id="path17994"
         d="m 69,82 44,0 0,102 -44,0 0,-102 z" /></clipPath></defs><g
     transform="matrix(1.25,0,0,-1.25,0,330.09998)"
     id="g17812"><g
       id="g17814" /><g
       id="g17816"><g
         transform="translate(0,-0.920013)"
         id="g17818"><g
           id="g17820"><g
             clip-path="url(#clipPath17824)"
             id="g17822"><g
               id="g17828"><path
                 id="path17830"
                 style="fill:#ffffff;fill-opacity:1;fill-rule:nonzero;stroke:none"
                 d="m 32.004,264.758 c -17.516,0 -31.762,-14.254 -31.762,-31.778 l 0,-200.054 C 0.242,15.41 14.488,1.16 32.004,1.16 l 416.137,0 c 17.515,0 31.761,14.25 31.761,31.766 l 0,200.054 c 0,17.524 -14.246,31.778 -31.761,31.778" /><path
                 id="path17832"
                 style="fill:#000000;fill-opacity:1;fill-rule:nonzero;stroke:none"
                 d="M 32.004,1.391 C 14.617,1.391 0.48,15.539 0.48,32.926 l 0,200.054 c 0,17.391 14.137,31.54 31.524,31.54 l 416.137,0 c 17.386,0 31.523,-14.149 31.523,-31.54 l 0,-200.054 c 0,-17.387 -14.137,-31.535 -31.523,-31.535 l -416.137,0 z M 448.141,265 32.004,265 C 14.324,265 0,250.668 0,232.98 L 0,32.926 C 0,15.254 14.324,0.922 32.004,0.922 l 416.137,0 c 17.671,0 32.004,14.332 32.004,32.004 l 0,200.054 c 0,17.688 -14.333,32.02 -32.004,32.02" /></g></g></g></g><path
         id="path17834"
         style="fill:#000000;fill-opacity:1;fill-rule:nonzero;stroke:none"
         d="m 31.996,19.994 416.008,0 c 6.629,0 12,5.371 12,12 l 0,199.996 c 0,6.629 -5.371,12 -12,12 l -416.008,0 c -6.629,0 -12,-5.371 -12,-12 l 0,-199.996 c 0,-6.629 5.371,-12 12,-12 z m 0,-12 c -13.258,0 -24,10.742 -24,24 l 0,199.996 c 0,13.262 10.742,24 24,24 l 416.008,0 c 13.258,0 24,-10.738 24,-24 l 0,-199.996 c 0,-13.258 -10.742,-24 -24,-24" /></g><g
       id="g17836"><g
         transform="translate(0,-0.920013)"
         id="g17838"><g
           id="g17840"><g
             clip-path="url(#clipPath17844)"
             id="g17842"><g
               id="g17848" /><g
               id="g17850"><g
                 clip-path="url(#clipPath17854)"
                 id="g17852"><g
                   id="g17858"><g
                     id="g17860"><g
                       clip-path="url(#clipPath17864)"
                       id="g17862"><g
                         id="g17868" /><g
                         id="g17870"><g
                           clip-path="url(#clipPath17874)"
                           id="g17872"><g
                             id="g17878"><g
                               id="g17880"><g
                                 clip-path="url(#clipPath17884)"
                                 id="g17882"><g
                                   id="g17888"><path
                                   id="path17890"
                                   style="fill:#231f20;fill-opacity:1;fill-rule:nonzero;stroke:none"
                                   d="m 367.922,83 0,72.02 14.398,0 0,-7.2 c 3.973,7.453 13.254,10.274 20.703,6.301 4.993,-2.668 8.098,-7.855 8.098,-13.512 l 0,-57.609 -14.398,0 0,51.305 c 0,3.984 -3.231,7.211 -7.2,7.211 -3.984,0 -7.203,-3.227 -7.203,-7.211 l 0,-51.305 -14.398,0 z" /></g></g></g></g></g></g></g></g></g></g></g></g></g></g><g
         transform="translate(0,-0.920013)"
         id="g17892"><g
           id="g17894"><g
             clip-path="url(#clipPath17898)"
             id="g17896"><g
               id="g17902" /><g
               id="g17904"><g
                 clip-path="url(#clipPath17908)"
                 id="g17906"><g
                   id="g17912"><g
                     id="g17914"><g
                       clip-path="url(#clipPath17918)"
                       id="g17916"><g
                         id="g17922" /><g
                         id="g17924"><g
                           clip-path="url(#clipPath17928)"
                           id="g17926"><g
                             id="g17932"><g
                               id="g17934"><g
                                 clip-path="url(#clipPath17938)"
                                 id="g17936"><g
                                   id="g17942"><path
                                   id="path17944"
                                   style="fill:#231f20;fill-opacity:1;fill-rule:nonzero;stroke:none"
                                   d="m 326.496,125.312 14.41,0 0,8.993 c 0,3.984 -3.23,7.211 -7.199,7.211 -3.984,0 -7.211,-3.227 -7.211,-7.211 l 0,-8.993 z m 28.82,-21.613 c 0,-11.926 -9.683,-21.597 -21.609,-21.597 -11.941,0 -21.613,9.671 -21.613,21.597 l 0,30.606 c 0,11.941 9.672,21.613 21.613,21.613 11.926,0 21.609,-9.672 21.609,-21.613 l 0,-20.7 -28.82,0 0,-9.906 c 0,-3.969 3.227,-7.199 7.211,-7.199 3.969,0 7.199,3.23 7.199,7.199 l 14.41,0 z M 254.473,83 l 18.011,36.906 -17.101,35.114 15.305,0 8.996,-20.715 9.004,20.715 15.308,0 L 286.883,119.906 304.895,83 289.598,83 279.684,105.508 269.781,83 254.473,83 Z m -21.602,31.5 -7.199,0 c -3.981,0 -7.211,-3.215 -7.211,-7.199 l 0,-3.602 c 0,-3.969 3.23,-7.199 7.211,-7.199 3.973,0 7.199,3.23 7.199,7.199 l 0,10.801 z m 14.414,-31.5 -14.414,0 0,7.199 c -3.98,-7.465 -13.25,-10.285 -20.699,-6.304 -4.992,2.66 -8.11,7.859 -8.11,13.503 l 0,10.801 c 0,9.946 8.063,18.012 18.012,18.012 l 10.797,0 0,8.094 c 0,3.984 -3.226,7.211 -7.199,7.211 -3.981,0 -7.211,-3.227 -7.211,-7.211 l -14.399,0 c 0,11.941 9.672,21.613 21.61,21.613 11.93,0 21.613,-9.672 21.613,-21.613 l 0,-51.305 z m -74.738,0 0,87.316 -17.102,0 0,13.516 48.617,0 0,-13.516 -17.101,0 0,-87.316 -14.414,0 z" /></g></g></g></g></g></g></g></g></g></g></g></g></g></g><g
         transform="translate(0,-0.920013)"
         id="g17946"><g
           id="g17948"><g
             clip-path="url(#clipPath17952)"
             id="g17950"><g
               id="g17956" /><g
               id="g17958"><g
                 clip-path="url(#clipPath17962)"
                 id="g17960"><g
                   id="g17966"><g
                     id="g17968"><g
                       clip-path="url(#clipPath17972)"
                       id="g17970"><g
                         id="g17976" /><g
                         id="g17978"><g
                           clip-path="url(#clipPath17982)"
                           id="g17980"><g
                             id="g17986"><g
                               id="g17988"><g
                                 clip-path="url(#clipPath17992)"
                                 id="g17990"><g
                                   id="g17996"><path
                                   id="path17998"
                                   style="fill:#231f20;fill-opacity:1;fill-rule:nonzero;stroke:none"
                                   d="m 69.023,108.199 14.399,0 0,-4.5 c 0,-3.969 3.23,-7.199 7.203,-7.199 3.98,0 7.199,3.23 7.199,7.199 l 0,24.305 c 0,3.984 -3.219,7.211 -7.199,7.211 -3.305,0 -6.184,-2.254 -6.984,-5.461 l -12.825,0.055 0,54.023 41.418,0 0,-13.516 -28.812,0 0,-27.136 c 6.894,6.468 17.719,6.129 24.183,-0.766 2.977,-3.172 4.629,-7.352 4.629,-11.707 l 0,-27.008 c 0,-11.926 -9.672,-21.597 -21.609,-21.597 -11.93,0 -21.602,9.671 -21.602,21.597" /></g></g></g></g></g></g></g></g></g></g></g></g></g></g></g></g></svg>