<?xml version="1.0" encoding="UTF-8" standalone="no"?>
<svg
   xmlns:dc="http://purl.org/dc/elements/1.1/"
   xmlns:cc="http://creativecommons.org/ns#"
   xmlns:rdf="http://www.w3.org/1999/02/22-rdf-syntax-ns#"
   xmlns:svg="http://www.w3.org/2000/svg"
   xmlns="http://www.w3.org/2000/svg"
   viewBox="0 0 421.00125 232.0025"
   height="232.0025"
   width="421.00125"
   xml:space="preserve"
   version="1.1"
   id="svg5007"><metadata
     id="metadata5013"><rdf:RDF><cc:Work
         rdf:about=""><dc:format>image/svg+xml</dc:format><dc:type
           rdf:resource="http://purl.org/dc/dcmitype/StillImage" /><dc:title></dc:title></cc:Work></rdf:RDF></metadata><defs
     id="defs5011" /><g
     transform="matrix(1.25,0,0,-1.25,0,232.00251)"
     id="g5015"><g
       id="g5017"><path
         id="path5019"
         style="fill:#ffffff;fill-opacity:1;fill-rule:nonzero;stroke:none"
         d="m 22.652,185.204 c -12.273,0 -22.254,-9.954 -22.254,-22.184 l 0,-140.445 c 0,-12.227 9.981,-22.172 22.254,-22.172 l 291.496,0 c 12.274,0 22.25,9.945 22.25,22.172 l 0,140.445 c 0,12.23 -9.976,22.184 -22.25,22.184 l -291.496,0 z" /><path
         id="path5021"
         style="fill:#000000;fill-opacity:1;fill-rule:nonzero;stroke:none"
         d="M 22.652,185.602 C 10.164,185.602 0,175.465 0,163.02 L 0,22.575 C 0,10.129 10.164,0 22.652,0 l 291.496,0 c 12.489,0 22.653,10.129 22.653,22.575 l 0,140.445 c 0,12.445 -10.164,22.582 -22.653,22.582 l -291.496,0 z m 0,-0.398 291.496,0 c 12.274,0 22.25,-9.954 22.25,-22.184 l 0,-140.445 c 0,-12.227 -9.976,-22.172 -22.25,-22.172 l -291.496,0 c -12.273,0 -22.254,9.945 -22.254,22.172 l 0,140.445 c 0,12.23 9.981,22.184 22.254,22.184 z" /><path
         id="path5023"
         style="fill:#000000;fill-opacity:1;fill-rule:nonzero;stroke:none"
         d="m 22.645,14.118 291.496,0 c 4.644,0 8.41,3.75 8.41,8.379 l 0,140.605 c 0,4.629 -3.766,8.379 -8.41,8.379 l -291.496,0 c -4.649,0 -8.411,-3.75 -8.411,-8.379 l 0,-140.605 c 0,-4.629 3.762,-8.379 8.411,-8.379 z m 0.398,-7.981 c -9.289,0 -16.816,7.5 -16.816,16.758 l 0,139.805 c 0,9.257 7.527,16.757 16.816,16.757 l 290.777,0 c 9.289,0 16.817,-7.5 16.817,-16.757 l 0,-139.805 c 0,-9.258 -7.528,-16.758 -16.817,-16.758" /><path
         id="path5025"
         style="fill:#000000;fill-opacity:1;fill-rule:nonzero;stroke:none"
         d="m 65.871,110.004 0,28.317 -5.551,0 0,-3.035 c -2.129,2.586 -4.429,3.371 -7.453,3.371 -2.859,0 -5.269,-0.899 -6.84,-2.473 -2.746,-2.75 -3.195,-6.742 -3.195,-11.574 0,-4.832 0.449,-8.817 3.195,-11.57 1.571,-1.575 3.922,-2.528 6.782,-2.528 2.914,0 5.269,0.785 7.343,3.258 l 0,-3.652 c 0,-3.821 -1.847,-7.246 -6.668,-7.246 -2.804,0 -4.375,0.839 -6.168,2.527 l -3.644,-3.652 c 2.973,-2.754 5.719,-3.766 10.035,-3.766 7.566,0 12.164,5.059 12.164,12.023 m -5.719,14.606 c 0,-4.492 -0.617,-8.93 -5.773,-8.93 -5.156,0 -5.832,4.438 -5.832,8.93 0,4.496 0.676,8.933 5.832,8.933 5.156,0 5.773,-4.437 5.773,-8.933" /><path
         id="path5027"
         style="fill:#000000;fill-opacity:1;fill-rule:nonzero;stroke:none"
         d="m 97.586,122.422 0,2.528 c 0,8.09 -4.43,13.707 -12.051,13.707 -7.285,0 -12.051,-5.336 -12.051,-14.551 0,-10.84 5.661,-14.606 12.778,-14.606 4.988,0 7.734,1.516 10.652,4.438 l -3.644,3.426 c -2.02,-2.024 -3.7,-2.918 -6.895,-2.918 -4.652,0 -7.23,3.09 -7.23,7.976 l 18.441,0 m -5.66,3.989 -12.781,0 c 0.054,1.742 0.168,2.586 0.73,3.875 0.895,2.136 2.969,3.597 5.66,3.597 2.692,0 4.707,-1.461 5.606,-3.597 0.558,-1.289 0.726,-2.133 0.785,-3.875" /><path
         id="path5029"
         style="fill:#000000;fill-opacity:1;fill-rule:nonzero;stroke:none"
         d="m 126.816,124.106 c 0,4.328 -0.336,9.16 -3.195,12.023 -1.566,1.575 -4.035,2.528 -6.891,2.528 -3.027,0 -5.382,-0.731 -7.457,-3.203 l 0,14.382 -5.718,0 0,-40 5.605,0 0,3.036 c 2.129,-2.586 4.43,-3.372 7.512,-3.372 2.859,0 5.383,0.954 6.949,2.528 2.859,2.863 3.195,7.75 3.195,12.078 m -5.714,0 c 0,-5.055 -0.731,-9.492 -5.887,-9.492 -5.156,0 -5.942,4.437 -5.942,9.492 0,5.059 0.786,9.437 5.942,9.437 5.156,0 5.887,-4.378 5.887,-9.437" /><path
         id="path5031"
         style="fill:#000000;fill-opacity:1;fill-rule:nonzero;stroke:none"
         d="m 157.293,109.836 0,28.485 -5.715,0 0,-17.36 c 0,-4.382 -2.691,-6.347 -5.887,-6.347 -3.195,0 -5.718,1.91 -5.718,6.347 l 0,17.36 -5.715,0 0,-18.203 c 0,-3.203 0.672,-5.899 2.859,-8.036 1.68,-1.628 4.09,-2.582 7.004,-2.582 2.859,0 5.606,1.067 7.567,3.204 l 0,-2.868 5.605,0 m -2.914,33.934 0,6.066 -5.156,0 0,-6.066 5.156,0 m -12.106,0 0,6.066 -5.156,0 0,-6.066 5.156,0" /><path
         id="path5033"
         style="fill:#000000;fill-opacity:1;fill-rule:nonzero;stroke:none"
         d="m 187.719,109.836 0,18.371 c 0,6.18 -3.531,10.45 -9.864,10.45 -2.804,0 -5.382,-1.067 -7.343,-3.203 l 0,14.382 -5.715,0 0,-40 5.715,0 0,17.473 c 0,4.27 2.578,6.234 5.773,6.234 3.195,0 5.719,-1.91 5.719,-6.234 l 0,-17.473 5.715,0" /><path
         id="path5035"
         style="fill:#000000;fill-opacity:1;fill-rule:nonzero;stroke:none"
         d="m 214.898,135.961 c -1.96,1.965 -4.035,2.696 -6.781,2.696 -3.195,0 -6.109,-1.407 -7.566,-3.426 l 0,3.09 -5.61,0 0,-28.485 5.719,0 0,17.305 c 0,3.93 2.578,6.402 5.664,6.402 1.957,0 2.969,-0.617 4.258,-1.91 l 4.316,4.328" /><path
         id="path5037"
         style="fill:#000000;fill-opacity:1;fill-rule:nonzero;stroke:none"
         d="m 240.621,122.422 0,2.528 c 0,8.09 -4.43,13.707 -12.051,13.707 -7.289,0 -12.05,-5.336 -12.05,-14.551 0,-10.84 5.66,-14.606 12.777,-14.606 4.988,0 7.738,1.516 10.652,4.438 l -3.644,3.426 c -2.02,-2.024 -3.7,-2.918 -6.895,-2.918 -4.652,0 -7.23,3.09 -7.23,7.976 l 18.441,0 m -5.66,3.989 -12.781,0 c 0.054,1.742 0.168,2.586 0.726,3.875 0.899,2.136 2.973,3.597 5.664,3.597 2.692,0 4.707,-1.461 5.606,-3.597 0.558,-1.289 0.726,-2.133 0.785,-3.875" /><path
         id="path5039"
         style="fill:#000000;fill-opacity:1;fill-rule:nonzero;stroke:none"
         d="m 269.629,109.836 0,18.204 c 0,3.199 -0.672,5.898 -2.859,8.031 -1.684,1.633 -4.09,2.586 -7.008,2.586 -2.856,0 -5.602,-1.067 -7.567,-3.203 l 0,2.867 -5.605,0 0,-28.485 5.719,0 0,17.36 c 0,4.383 2.691,6.347 5.886,6.347 3.192,0 5.715,-1.91 5.715,-6.347 l 0,-17.36 5.719,0" /><path
         id="path5041"
         style="fill:#000000;fill-opacity:1;fill-rule:nonzero;stroke:none"
         d="m 279.266,128.094 16.367,0 0,-5.336 -16.367,0 0,5.336 z" /><path
         id="path5043"
         style="fill:#000000;fill-opacity:1;fill-rule:nonzero;stroke:none"
         d="m 96.848,61.879 c 0,4.328 -0.332,9.161 -3.196,12.024 -1.566,1.574 -4.089,2.527 -6.949,2.527 -3.082,0 -5.379,-0.785 -7.508,-3.371 l 0,3.035 -5.609,0 0,-40 5.719,0 0,14.438 c 2.074,-2.473 4.429,-3.258 7.457,-3.258 2.859,0 5.324,0.957 6.89,2.527 2.864,2.867 3.196,7.754 3.196,12.078 m -5.715,0 c 0,-5.054 -0.731,-9.492 -5.887,-9.492 -5.156,0 -5.941,4.438 -5.941,9.492 0,5.059 0.785,9.442 5.941,9.442 5.156,0 5.887,-4.383 5.887,-9.442" /><path
         id="path5045"
         style="fill:#000000;fill-opacity:1;fill-rule:nonzero;stroke:none"
         d="m 115.246,71.207 0,4.383 -5.66,0 0,4.098 c 0,2.082 1.008,3.316 3.137,3.316 l 2.523,0 0,4.887 -3.586,0 c -5.328,0 -7.793,-3.82 -7.793,-7.918 l 0,-4.383 -3.25,0 0,-4.383 3.25,0 0,-23.593 5.719,0 0,23.593 5.66,0" /><path
         id="path5047"
         style="fill:#000000;fill-opacity:1;fill-rule:nonzero;stroke:none"
         d="m 132.516,47.614 0,4.886 -2.524,0 c -2.297,0 -3.082,1.122 -3.082,3.313 l 0,31.797 -5.715,0 0,-32.133 c 0,-4.215 2.352,-7.863 7.789,-7.863 l 3.532,0" /><path
         id="path5049"
         style="fill:#000000;fill-opacity:1;fill-rule:nonzero;stroke:none"
         d="m 143.055,81.711 0,6.071 -6.055,0 0,-6.071 6.055,0 m -0.168,-34.097 0,28.48 -5.719,0 0,-28.48 5.719,0" /><path
         id="path5051"
         style="fill:#000000;fill-opacity:1;fill-rule:nonzero;stroke:none"
         d="m 172.52,51.321 -3.926,3.761 c -1.793,-1.964 -3.192,-2.695 -5.434,-2.695 -2.187,0 -4.039,0.899 -5.269,2.528 -1.235,1.574 -1.684,3.652 -1.684,6.964 0,3.317 0.449,5.34 1.684,6.911 1.23,1.628 3.082,2.531 5.269,2.531 2.242,0 3.641,-0.735 5.434,-2.699 l 3.926,3.82 c -2.692,2.867 -5.438,3.988 -9.36,3.988 -6.39,0 -12.668,-3.875 -12.668,-14.551 0,-10.672 6.278,-14.605 12.668,-14.605 3.922,0 6.668,1.18 9.36,4.047" /><path
         id="path5053"
         style="fill:#000000;fill-opacity:1;fill-rule:nonzero;stroke:none"
         d="m 202.023,47.614 0,18.367 c 0,6.18 -3.531,10.449 -9.867,10.449 -2.801,0 -5.379,-1.066 -7.34,-3.199 l 0,14.379 -5.718,0 0,-39.996 5.718,0 0,17.468 c 0,4.27 2.579,6.239 5.774,6.239 3.191,0 5.715,-1.914 5.715,-6.239 l 0,-17.468 5.718,0" /><path
         id="path5055"
         style="fill:#000000;fill-opacity:1;fill-rule:nonzero;stroke:none"
         d="m 221.129,47.614 0,4.886 -2.356,0 c -2.128,0 -3.136,1.235 -3.136,3.313 l 0,15.394 5.492,0 0,4.383 -5.492,0 0,8.653 -5.719,0 0,-8.653 -3.25,0 0,-4.383 3.25,0 0,-15.675 c 0,-4.102 2.469,-7.918 7.793,-7.918 l 3.418,0" /><path
         id="path5057"
         style="fill:#000000;fill-opacity:1;fill-rule:nonzero;stroke:none"
         d="m 232.688,81.711 0,6.071 -6.051,0 0,-6.071 6.051,0 m -0.165,-34.097 0,28.48 -5.718,0 0,-28.48 5.718,0" /><path
         id="path5059"
         style="fill:#000000;fill-opacity:1;fill-rule:nonzero;stroke:none"
         d="m 263.277,47.782 0,28.312 -5.55,0 0,-3.035 c -2.129,2.586 -4.43,3.371 -7.454,3.371 -2.859,0 -5.269,-0.898 -6.839,-2.469 -2.746,-2.754 -3.196,-6.742 -3.196,-11.574 0,-4.832 0.45,-8.82 3.196,-11.574 1.57,-1.574 3.921,-2.527 6.781,-2.527 2.914,0 5.269,0.785 7.344,3.257 l 0,-3.652 c 0,-3.82 -1.848,-7.246 -6.668,-7.246 -2.805,0 -4.375,0.84 -6.168,2.527 l -3.645,-3.652 c 2.973,-2.75 5.719,-3.762 10.035,-3.762 7.567,0 12.164,5.055 12.164,12.024 m -5.718,14.605 c 0,-4.496 -0.618,-8.933 -5.774,-8.933 -5.156,0 -5.828,4.437 -5.828,8.933 0,4.492 0.672,8.934 5.828,8.934 5.156,0 5.774,-4.442 5.774,-8.934" /></g></g></svg>