<?xml version="1.0" encoding="UTF-8" standalone="no"?>
<svg
   xmlns:dc="http://purl.org/dc/elements/1.1/"
   xmlns:cc="http://creativecommons.org/ns#"
   xmlns:rdf="http://www.w3.org/1999/02/22-rdf-syntax-ns#"
   xmlns:svg="http://www.w3.org/2000/svg"
   xmlns="http://www.w3.org/2000/svg"
   viewBox="0 0 600 330"
   height="330"
   width="600"
   xml:space="preserve"
   version="1.1"
   id="svg10515"><metadata
     id="metadata10521"><rdf:RDF><cc:Work
         rdf:about=""><dc:format>image/svg+xml</dc:format><dc:type
           rdf:resource="http://purl.org/dc/dcmitype/StillImage" /><dc:title></dc:title></cc:Work></rdf:RDF></metadata><defs
     id="defs10519"><clipPath
       id="clipPath10531"
       clipPathUnits="userSpaceOnUse"><path
         id="path10533"
         d="M 0,0 480,0 480,264 0,264 0,0 Z" /></clipPath></defs><g
     transform="matrix(1.25,0,0,-1.25,0,330)"
     id="g10523"><g
       id="g10525"><g
         id="g10527"><g
           id="g10529" /><g
           id="g10535"><g
             id="g10537"
             clip-path="url(#clipPath10531)"><g
               id="g10539"><path
                 id="path10541"
                 style="fill:#ffffff;fill-opacity:1;fill-rule:nonzero;stroke:none"
                 d="m 31.996,263.758 c -17.512,0 -31.754,-14.25 -31.754,-31.766 l 0,-199.996 C 0.242,14.484 14.484,0.242 31.996,0.242 l 416.008,0 c 17.512,0 31.754,14.242 31.754,31.754 l 0,199.996 c 0,17.516 -14.242,31.766 -31.754,31.766" /><path
                 id="path10543"
                 style="fill:#000000;fill-opacity:1;fill-rule:nonzero;stroke:none"
                 d="M 31.996,0.469 C 14.613,0.469 0.48,14.613 0.48,31.996 l 0,199.996 c 0,17.383 14.133,31.528 31.516,31.528 l 416.008,0 c 17.383,0 31.516,-14.145 31.516,-31.528 l 0,-199.996 c 0,-17.383 -14.133,-31.527 -31.516,-31.527 l -416.008,0 z M 448.004,264 31.996,264 C 14.32,264 0,249.672 0,231.992 L 0,31.996 C 0,14.328 14.32,0 31.996,0 L 448.004,0 C 465.672,0 480,14.328 480,31.996 l 0,199.996 C 480,249.672 465.672,264 448.004,264" /></g></g></g></g></g><g
       id="g10545"><path
         id="path10547"
         style="fill:#000000;fill-opacity:1;fill-rule:nonzero;stroke:none"
         d="m 31.996,19.996 416.008,0 c 6.629,0 12,5.371 12,12 l 0,199.996 c 0,6.629 -5.371,12 -12,12 l -416.008,0 c -6.629,0 -12,-5.371 -12,-12 l 0,-199.996 c 0,-6.629 5.371,-12 12,-12 z m 0,-12 c -13.258,0 -24,10.742 -24,24 l 0,199.996 c 0,13.258 10.742,24 24,24 l 416.008,0 c 13.258,0 24,-10.742 24,-24 l 0,-199.996 c 0,-13.258 -10.742,-24 -24,-24" /><path
         id="path10549"
         style="fill:#000000;fill-opacity:1;fill-rule:nonzero;stroke:none"
         d="m 137.621,219.043 0,-17.098 4.508,0 c 2.734,0 4.945,2.219 4.945,4.953 l 0,7.2 c 0,2.734 -2.211,4.945 -4.945,4.945 l -4.508,0 z m -7.195,-43.648 0,50.406 11.703,0 c 6.453,0 11.695,-5.238 11.695,-11.703 l 0,-7.2 c 0,-6.464 -5.242,-11.703 -11.695,-11.703 l -4.508,0 0,-19.8" /><path
         id="path10551"
         style="fill:#000000;fill-opacity:1;fill-rule:nonzero;stroke:none"
         d="m 171.828,191.148 -3.598,0 c -1.992,0 -3.597,-1.609 -3.597,-3.601 l 0,-1.805 c 0,-1.98 1.605,-3.597 3.597,-3.597 1.981,0 3.598,1.617 3.598,3.597 l 0,5.406 z m 7.199,-15.753 -7.199,0 0,3.597 c -1.992,-3.73 -6.617,-5.129 -10.348,-3.148 -2.492,1.336 -4.058,3.926 -4.058,6.75 l 0,5.402 c 0,4.977 4.035,9.004 9.004,9.004 l 5.402,0 0,4.047 c 0,1.992 -1.617,3.598 -3.598,3.598 -1.992,0 -3.597,-1.606 -3.597,-3.598 l -7.211,0 c 0,5.961 4.836,10.797 10.808,10.797 5.961,0 10.797,-4.836 10.797,-10.797" /><path
         id="path10553"
         style="fill:#000000;fill-opacity:1;fill-rule:nonzero;stroke:none"
         d="m 186.223,175.395 0,36 7.199,0 0,-4.059 c 2.308,2.855 5.785,4.508 9.453,4.508 l 0,-7.559 c -3.777,1.246 -7.844,-0.808 -9.094,-4.582 -0.238,-0.734 -0.359,-1.488 -0.359,-2.254 l 0,-22.054" /><path
         id="path10555"
         style="fill:#000000;fill-opacity:1;fill-rule:nonzero;stroke:none"
         d="m 207.379,175.395 0,50.406 7.199,0 0,-30.149 9.004,15.743 7.195,0 -8.554,-14.395 10.351,-21.605 -8.097,0 -6.301,15.304 -3.598,-5.406 0,-9.898" /><path
         id="path10557"
         style="fill:#000000;fill-opacity:1;fill-rule:nonzero;stroke:none"
         d="m 242.473,196.551 7.207,0 0,4.496 c 0,1.992 -1.617,3.598 -3.61,3.598 -1.98,0 -3.597,-1.606 -3.597,-3.598 l 0,-4.496 z m 14.406,-10.809 c 0,-5.961 -4.836,-10.797 -10.809,-10.797 -5.961,0 -10.797,4.836 -10.797,10.797 l 0,15.305 c 0,5.961 4.836,10.797 10.797,10.797 5.973,0 10.809,-4.836 10.809,-10.797 l 0,-10.348 -14.406,0 0,-4.957 c 0,-1.98 1.617,-3.597 3.597,-3.597 1.993,0 3.61,1.617 3.61,3.597" /><path
         id="path10559"
         style="fill:#000000;fill-opacity:1;fill-rule:nonzero;stroke:none"
         d="m 263.18,175.395 0,36 7.199,0 0,-3.598 c 1.988,3.73 6.617,5.141 10.348,3.148 2.492,-1.332 4.046,-3.925 4.046,-6.75 l 0,-28.8 -7.199,0 0,25.652 c 0,1.992 -1.605,3.598 -3.597,3.598 -1.993,0 -3.598,-1.606 -3.598,-3.598 l 0,-25.652" /><path
         id="path10561"
         style="fill:#000000;fill-opacity:1;fill-rule:nonzero;stroke:none"
         d="m 320.773,218.605 -7.199,0 0,7.196 7.199,0 0,-7.196 z m -7.199,-43.21 0,36 7.199,0 0,-36" /><path
         id="path10563"
         style="fill:#000000;fill-opacity:1;fill-rule:nonzero;stroke:none"
         d="m 327.98,175.395 0,36 7.2,0 0,-3.598 c 1.98,3.73 6.629,5.141 10.347,3.148 2.496,-1.332 4.047,-3.925 4.047,-6.75 l 0,-28.8 -7.195,0 0,25.652 c 0,1.992 -1.609,3.598 -3.602,3.598 -1.988,0 -3.597,-1.606 -3.597,-3.598 l 0,-25.652" /><path
         id="path10565"
         style="fill:#000000;fill-opacity:1;fill-rule:nonzero;stroke:none"
         d="m 48.742,117.145 0,15.304 c 0,1.992 -1.605,3.598 -3.586,3.598 -1.992,0 -3.609,-1.606 -3.609,-3.598 l 0,-15.304 c 0,-1.981 1.617,-3.598 3.609,-3.598 1.981,0 3.586,1.617 3.586,3.598 z M 41.547,102.75 c 0,-1.992 1.617,-3.598 3.609,-3.598 1.981,0 3.586,1.606 3.586,3.598 l 0,7.645 c -1.976,-3.731 -6.617,-5.141 -10.347,-3.149 -2.493,1.324 -4.047,3.926 -4.047,6.75 l 0,21.602 c 0,4.222 3.425,7.648 7.656,7.648 2.824,0 5.418,-1.555 6.738,-4.047 l 0,3.598 7.211,0 0,-40.047 c 0,-5.961 -4.836,-10.809 -10.797,-10.809 -5.972,0 -10.808,4.848 -10.808,10.809" /><path
         id="path10567"
         style="fill:#000000;fill-opacity:1;fill-rule:nonzero;stroke:none"
         d="m 70.348,127.941 7.199,0 0,4.508 c 0,1.992 -1.609,3.598 -3.602,3.598 -1.988,0 -3.597,-1.606 -3.597,-3.598 l 0,-4.508 z m 14.406,-10.796 c 0,-5.961 -4.836,-10.797 -10.809,-10.797 -5.961,0 -10.793,4.836 -10.793,10.797 l 0,15.304 c 0,5.961 4.832,10.797 10.793,10.797 5.973,0 10.809,-4.836 10.809,-10.797 l 0,-10.347 -14.406,0 0,-4.957 c 0,-1.981 1.609,-3.598 3.597,-3.598 1.993,0 3.602,1.617 3.602,3.598" /><path
         id="path10569"
         style="fill:#000000;fill-opacity:1;fill-rule:nonzero;stroke:none"
         d="m 91.055,106.797 0,50.394 7.199,0 0,-30.148 9.004,15.754 7.195,0 -8.555,-14.395 10.352,-21.605 -8.098,0 -6.3,15.305 -3.598,-5.407 0,-9.898" /><path
         id="path10571"
         style="fill:#000000;fill-opacity:1;fill-rule:nonzero;stroke:none"
         d="m 126.148,127.941 7.207,0 0,4.508 c 0,1.992 -1.617,3.598 -3.609,3.598 -1.98,0 -3.598,-1.606 -3.598,-3.598 l 0,-4.508 z m 14.407,-10.796 c 0,-5.961 -4.836,-10.797 -10.809,-10.797 -5.961,0 -10.797,4.836 -10.797,10.797 l 0,15.304 c 0,5.961 4.836,10.797 10.797,10.797 5.973,0 10.809,-4.836 10.809,-10.797 l 0,-10.347 -14.407,0 0,-4.957 c 0,-1.981 1.618,-3.598 3.598,-3.598 1.992,0 3.609,1.617 3.609,3.598" /><path
         id="path10573"
         style="fill:#000000;fill-opacity:1;fill-rule:nonzero;stroke:none"
         d="m 146.855,106.797 0,36 7.2,0 0,-3.598 c 1.988,3.731 6.617,5.141 10.347,3.149 2.493,-1.332 4.047,-3.926 4.047,-6.75 l 0,-28.801 -7.199,0 0,25.652 c 0,1.992 -1.605,3.598 -3.598,3.598 -1.992,0 -3.597,-1.606 -3.597,-3.598 l 0,-25.652" /><path
         id="path10575"
         style="fill:#000000;fill-opacity:1;fill-rule:nonzero;stroke:none"
         d="m 175.645,106.797 0,36 7.21,0 0,-3.598 c 1.981,3.731 6.618,5.141 10.348,3.149 2.496,-1.332 4.047,-3.926 4.047,-6.75 l 0,-28.801 -7.195,0 0,25.652 c 0,1.992 -1.621,3.598 -3.602,3.598 -1.988,0 -3.598,-1.606 -3.598,-3.598 l 0,-25.652" /><path
         id="path10577"
         style="fill:#000000;fill-opacity:1;fill-rule:nonzero;stroke:none"
         d="m 201.746,106.797 0,5.851 11.707,23.848 -10.797,0 0,6.301 18.891,0 0,-5.402 -11.695,-23.848 11.695,0 0,-6.75" /><path
         id="path10579"
         style="fill:#000000;fill-opacity:1;fill-rule:nonzero;stroke:none"
         d="m 233.25,127.941 7.199,0 0,4.508 c 0,1.992 -1.609,3.598 -3.597,3.598 -1.993,0 -3.602,-1.606 -3.602,-3.598 l 0,-4.508 z m 14.395,-10.796 c 0,-5.961 -4.832,-10.797 -10.793,-10.797 -5.965,0 -10.797,4.836 -10.797,10.797 l 0,15.304 c 0,5.961 4.832,10.797 10.797,10.797 5.961,0 10.793,-4.836 10.793,-10.797 l 0,-10.347 -14.395,0 0,-4.957 c 0,-1.981 1.609,-3.598 3.602,-3.598 1.988,0 3.597,1.617 3.597,3.598" /><path
         id="path10581"
         style="fill:#000000;fill-opacity:1;fill-rule:nonzero;stroke:none"
         d="m 261.156,149.996 -7.211,0 0,7.195 7.211,0 0,-7.195 z m -7.211,-43.199 0,36 7.211,0 0,-36" /><path
         id="path10583"
         style="fill:#000000;fill-opacity:1;fill-rule:nonzero;stroke:none"
         d="m 289.945,117.594 0,-0.449 c 0,-5.961 -4.832,-10.797 -10.793,-10.797 -5.964,0 -10.797,4.836 -10.797,10.797 l 0,15.304 c 0,5.961 4.833,10.797 10.797,10.797 5.961,0 10.793,-4.836 10.793,-10.797 l 0,-0.449 -7.195,0 0,0.449 c 0,1.992 -1.609,3.598 -3.598,3.598 -1.992,0 -3.601,-1.606 -3.601,-3.598 l 0,-15.304 c 0,-1.981 1.609,-3.598 3.601,-3.598 1.989,0 3.598,1.617 3.598,3.598 l 0,0.449" /><path
         id="path10585"
         style="fill:#000000;fill-opacity:1;fill-rule:nonzero;stroke:none"
         d="m 294.453,106.797 0,50.394 7.199,0 0,-17.992 c 1.981,3.731 6.629,5.141 10.348,3.149 2.496,-1.332 4.059,-3.926 4.059,-6.75 l 0,-28.801 -7.207,0 0,25.652 c 0,1.992 -1.61,3.598 -3.602,3.598 -1.988,0 -3.598,-1.606 -3.598,-3.598 l 0,-25.652" /><path
         id="path10587"
         style="fill:#000000;fill-opacity:1;fill-rule:nonzero;stroke:none"
         d="m 323.246,106.797 0,36 7.207,0 0,-3.598 c 1.992,3.731 6.617,5.141 10.348,3.149 2.496,-1.332 4.051,-3.926 4.051,-6.75 l 0,-28.801 -7.2,0 0,25.652 c 0,1.992 -1.609,3.598 -3.597,3.598 -1.992,0 -3.602,-1.606 -3.602,-3.598 l 0,-25.652" /><path
         id="path10589"
         style="fill:#000000;fill-opacity:1;fill-rule:nonzero;stroke:none"
         d="m 358.359,127.941 7.188,0 0,4.508 c 0,1.992 -1.609,3.598 -3.602,3.598 -1.976,0 -3.586,-1.606 -3.586,-3.598 l 0,-4.508 z m 14.395,-10.796 c 0,-5.961 -4.844,-10.797 -10.809,-10.797 -5.949,0 -10.793,4.836 -10.793,10.797 l 0,15.304 c 0,5.961 4.844,10.797 10.793,10.797 5.965,0 10.809,-4.836 10.809,-10.797 l 0,-10.347 -14.395,0 0,-4.957 c 0,-1.981 1.61,-3.598 3.586,-3.598 1.993,0 3.602,1.617 3.602,3.598" /><path
         id="path10591"
         style="fill:#000000;fill-opacity:1;fill-rule:nonzero;stroke:none"
         d="m 391.656,106.797 -3.597,0 c -4.473,0 -8.106,3.633 -8.106,8.094 l 0,22.054 -3.598,0 0,5.852 3.598,0 0,10.797 7.199,0 0,-10.797 4.504,0 0,-5.852 -4.504,0 0,-21.144 c 0,-1.25 1.016,-2.254 2.25,-2.254 l 2.254,0" /><path
         id="path10593"
         style="fill:#000000;fill-opacity:1;fill-rule:nonzero;stroke:none"
         d="m 403.352,127.941 7.199,0 0,4.508 c 0,1.992 -1.61,3.598 -3.602,3.598 -1.98,0 -3.597,-1.606 -3.597,-3.598 l 0,-4.508 z m 14.406,-10.796 c 0,-5.961 -4.836,-10.797 -10.809,-10.797 -5.961,0 -10.797,4.836 -10.797,10.797 l 0,15.304 c 0,5.961 4.836,10.797 10.797,10.797 5.973,0 10.809,-4.836 10.809,-10.797 l 0,-10.347 -14.406,0 0,-4.957 c 0,-1.981 1.617,-3.598 3.597,-3.598 1.992,0 3.602,1.617 3.602,3.598" /><path
         id="path10595"
         style="fill:#000000;fill-opacity:1;fill-rule:nonzero;stroke:none"
         d="m 424.059,106.797 0,36 7.187,0 0,-3.598 c 2,3.731 6.629,5.141 10.359,3.149 2.493,-1.332 4.047,-3.926 4.047,-6.75 l 0,-28.801 -7.199,0 0,25.652 c 0,1.992 -1.617,3.598 -3.598,3.598 -1.992,0 -3.609,-1.606 -3.609,-3.598 l 0,-25.652" /><path
         id="path10597"
         style="fill:#000000;fill-opacity:1;fill-rule:nonzero;stroke:none"
         d="m 57.527,38.199 0,50.395 21.594,0 0,-6.75 -14.394,0 0,-15.293 12.601,0 0,-6.758 -12.601,0 0,-21.594" /><path
         id="path10599"
         style="fill:#000000;fill-opacity:1;fill-rule:nonzero;stroke:none"
         d="m 95.32,38.199 -2.699,0 c -4.465,0 -8.098,3.621 -8.098,8.094 l 0,42.301 7.2,0 0,-41.403 c 0,-1.238 1.007,-2.242 2.254,-2.242 l 1.343,0" /><path
         id="path10601"
         style="fill:#000000;fill-opacity:1;fill-rule:nonzero;stroke:none"
         d="m 119.629,81.398 -7.199,0 0,7.196 7.199,0 0,-7.196 z m -10.809,0 -7.199,0 0,7.196 7.199,0 0,-7.196 z m 5.403,-27.457 -3.598,0 c -1.992,0 -3.598,-1.609 -3.598,-3.601 l 0,-1.793 c 0,-1.992 1.606,-3.598 3.598,-3.598 1.992,0 3.598,1.606 3.598,3.598 l 0,5.394 z m 7.199,-15.742 -7.199,0 0,3.598 c -1.989,-3.731 -6.618,-5.141 -10.348,-3.149 -2.492,1.332 -4.047,3.926 -4.047,6.75 l 0,5.403 c 0,4.965 4.027,8.992 8.992,8.992 l 5.403,0 0,4.059 c 0,1.988 -1.606,3.597 -3.598,3.597 -1.992,0 -3.598,-1.609 -3.598,-3.597 l -7.199,0 c 0,5.961 4.836,10.796 10.797,10.796 5.961,0 10.797,-4.835 10.797,-10.796" /><path
         id="path10603"
         style="fill:#000000;fill-opacity:1;fill-rule:nonzero;stroke:none"
         d="m 149.328,48.996 0,-0.449 c 0,-5.961 -4.836,-10.809 -10.808,-10.809 -5.961,0 -10.797,4.848 -10.797,10.809 l 0,15.305 c 0,5.961 4.836,10.796 10.797,10.796 5.972,0 10.808,-4.835 10.808,-10.796 l 0,-0.461 -7.199,0 0,0.461 c 0,1.988 -1.617,3.597 -3.609,3.597 -1.981,0 -3.586,-1.609 -3.586,-3.597 l 0,-15.305 c 0,-1.992 1.605,-3.598 3.586,-3.598 1.992,0 3.609,1.606 3.609,3.598 l 0,0.449" /><path
         id="path10605"
         style="fill:#000000;fill-opacity:1;fill-rule:nonzero;stroke:none"
         d="m 153.824,38.199 0,50.395 7.196,0 0,-17.992 c 1.992,3.718 6.628,5.128 10.359,3.136 2.496,-1.324 4.047,-3.914 4.047,-6.738 l 0,-28.801 -7.196,0 0,25.653 c 0,1.988 -1.621,3.597 -3.597,3.597 -1.992,0 -3.613,-1.609 -3.613,-3.597 l 0,-25.653" /><path
         id="path10607"
         style="fill:#000000;fill-opacity:1;fill-rule:nonzero;stroke:none"
         d="m 188.926,59.344 7.199,0 0,4.508 c 0,1.988 -1.609,3.597 -3.602,3.597 -1.988,0 -3.597,-1.609 -3.597,-3.597 l 0,-4.508 z M 203.32,48.547 c 0,-5.961 -4.832,-10.809 -10.797,-10.809 -5.96,0 -10.796,4.848 -10.796,10.809 l 0,15.305 c 0,5.961 4.836,10.796 10.796,10.796 5.965,0 10.797,-4.835 10.797,-10.796 l 0,-10.36 -14.394,0 0,-4.945 c 0,-1.992 1.609,-3.598 3.597,-3.598 1.993,0 3.602,1.606 3.602,3.598" /><path
         id="path10609"
         style="fill:#000000;fill-opacity:1;fill-rule:nonzero;stroke:none"
         d="m 209.621,38.199 0,36 7.211,0 0,-3.597 c 1.981,3.718 6.617,5.128 10.348,3.136 2.484,-1.324 4.047,-3.914 4.047,-6.738 l 0,-28.801 -7.2,0 0,25.653 c 0,1.988 -1.605,3.597 -3.597,3.597 -1.989,0 -3.598,-1.609 -3.598,-3.597 l 0,-25.653" /><path
         id="path10611"
         style="fill:#000000;fill-opacity:1;fill-rule:nonzero;stroke:none"
         d="m 267.227,59.344 7.199,0 0,4.508 c 0,1.988 -1.61,3.597 -3.602,3.597 -1.988,0 -3.597,-1.609 -3.597,-3.597 l 0,-4.508 z m 14.394,-10.797 c 0,-5.961 -4.832,-10.809 -10.797,-10.809 -5.961,0 -10.797,4.848 -10.797,10.809 l 0,15.305 c 0,5.961 4.836,10.796 10.797,10.796 5.965,0 10.797,-4.835 10.797,-10.796 l 0,-10.36 -14.394,0 0,-4.945 c 0,-1.992 1.609,-3.598 3.597,-3.598 1.992,0 3.602,1.606 3.602,3.598" /><path
         id="path10613"
         style="fill:#000000;fill-opacity:1;fill-rule:nonzero;stroke:none"
         d="m 287.922,38.199 0,36 7.211,0 0,-4.07 c 2.308,2.855 5.773,4.519 9.449,4.519 l 0,-7.558 c -3.785,1.234 -7.852,-0.82 -9.102,-4.594 -0.226,-0.723 -0.347,-1.488 -0.347,-2.246 l 0,-22.051" /><path
         id="path10615"
         style="fill:#000000;fill-opacity:1;fill-rule:nonzero;stroke:none"
         d="m 318.98,38.199 -2.703,0 c -4.472,0 -8.105,3.621 -8.105,8.094 l 0,42.301 7.207,0 0,-41.403 c 0,-1.238 1.008,-2.242 2.242,-2.242 l 1.359,0" /><path
         id="path10617"
         style="fill:#000000;fill-opacity:1;fill-rule:nonzero;stroke:none"
         d="m 337.871,53.941 -3.59,0 c -2,0 -3.609,-1.609 -3.609,-3.601 l 0,-1.793 c 0,-1.992 1.609,-3.598 3.609,-3.598 1.981,0 3.59,1.606 3.59,3.598 l 0,5.394 z m 7.207,-15.742 -7.207,0 0,3.598 c -1.98,-3.731 -6.617,-5.141 -10.348,-3.149 -2.484,1.332 -4.039,3.926 -4.039,6.75 l 0,5.403 c 0,4.965 4.028,8.992 8.993,8.992 l 5.394,0 0,4.059 c 0,1.988 -1.609,3.597 -3.59,3.597 -2,0 -3.609,-1.609 -3.609,-3.597 l -7.188,0 c 0,5.961 4.825,10.796 10.797,10.796 5.965,0 10.797,-4.835 10.797,-10.796" /><path
         id="path10619"
         style="fill:#000000;fill-opacity:1;fill-rule:nonzero;stroke:none"
         d="m 373.871,38.199 -7.199,0 0,3.598 c -1.981,-3.731 -6.617,-5.141 -10.336,-3.149 -2.504,1.332 -4.059,3.926 -4.059,6.75 l 0,28.801 7.207,0 0,-25.652 c 0,-1.992 1.61,-3.598 3.59,-3.598 2,0 3.598,1.606 3.598,3.598 l 0,25.652 7.199,0" /><path
         id="path10621"
         style="fill:#000000;fill-opacity:1;fill-rule:nonzero;stroke:none"
         d="m 388.277,48.547 c 0,-1.992 1.618,-3.598 3.598,-3.598 1.992,0 3.609,1.606 3.609,3.598 l 0,15.305 c 0,1.988 -1.617,3.597 -3.609,3.597 -1.98,0 -3.598,-1.609 -3.598,-3.597 l 0,-15.305 z m -7.199,-10.348 0,50.395 7.199,0 0,-17.992 c 1.993,3.718 6.629,5.128 10.348,3.136 2.496,-1.324 4.047,-3.914 4.047,-6.738 l 0,-21.602 c 0,-4.222 -3.422,-7.66 -7.645,-7.66 -2.824,0 -5.414,1.567 -6.75,4.059 l 0,-3.598" /><path
         id="path10623"
         style="fill:#000000;fill-opacity:1;fill-rule:nonzero;stroke:none"
         d="m 422.473,38.199 -3.59,0 c -4.473,0 -8.106,3.621 -8.106,8.094 l 0,22.055 -3.597,0 0,5.851 3.597,0 0,10.797 7.2,0 0,-10.797 4.496,0 0,-5.851 -4.496,0 0,-21.157 c 0,-1.238 1.007,-2.242 2.253,-2.242 l 2.243,0" /></g></g></svg>