<?xml version="1.0" encoding="UTF-8" standalone="no"?>
<svg
   xmlns:dc="http://purl.org/dc/elements/1.1/"
   xmlns:cc="http://creativecommons.org/ns#"
   xmlns:rdf="http://www.w3.org/1999/02/22-rdf-syntax-ns#"
   xmlns:svg="http://www.w3.org/2000/svg"
   xmlns="http://www.w3.org/2000/svg"
   viewBox="0 0 600 330"
   height="330"
   width="600"
   xml:space="preserve"
   version="1.1"
   id="svg5522"><metadata
     id="metadata5528"><rdf:RDF><cc:Work
         rdf:about=""><dc:format>image/svg+xml</dc:format><dc:type
           rdf:resource="http://purl.org/dc/dcmitype/StillImage" /><dc:title></dc:title></cc:Work></rdf:RDF></metadata><defs
     id="defs5526"><clipPath
       id="clipPath5538"
       clipPathUnits="userSpaceOnUse"><path
         id="path5540"
         d="M 0,0 480,0 480,264 0,264 0,0 Z" /></clipPath></defs><g
     transform="matrix(1.25,0,0,-1.25,0,330)"
     id="g5530"><g
       id="g5532"><g
         id="g5534"><g
           id="g5536" /><g
           id="g5542"><g
             id="g5544"
             clip-path="url(#clipPath5538)"><g
               id="g5546"><path
                 id="path5548"
                 style="fill:#ffffff;fill-opacity:1;fill-rule:nonzero;stroke:none"
                 d="m 31.996,263.758 c -17.512,0 -31.754,-14.25 -31.754,-31.766 l 0,-199.996 C 0.242,14.484 14.484,0.242 31.996,0.242 l 416.008,0 c 17.512,0 31.754,14.242 31.754,31.754 l 0,199.996 c 0,17.516 -14.242,31.766 -31.754,31.766" /><path
                 id="path5550"
                 style="fill:#000000;fill-opacity:1;fill-rule:nonzero;stroke:none"
                 d="M 31.996,0.469 C 14.613,0.469 0.48,14.613 0.48,31.996 l 0,199.996 c 0,17.383 14.133,31.528 31.516,31.528 l 416.008,0 c 17.383,0 31.516,-14.145 31.516,-31.528 l 0,-199.996 c 0,-17.383 -14.133,-31.527 -31.516,-31.527 l -416.008,0 z M 448.004,264 31.996,264 C 14.32,264 0,249.672 0,231.992 L 0,31.996 C 0,14.328 14.32,0 31.996,0 L 448.004,0 C 465.672,0 480,14.328 480,31.996 l 0,199.996 C 480,249.672 465.672,264 448.004,264" /></g></g></g></g></g><g
       id="g5552"><path
         id="path5554"
         style="fill:#000000;fill-opacity:1;fill-rule:nonzero;stroke:none"
         d="m 31.996,19.996 416.008,0 c 6.629,0 12,5.371 12,12 l 0,199.996 c 0,6.629 -5.371,12 -12,12 l -416.008,0 c -6.629,0 -12,-5.371 -12,-12 l 0,-199.996 c 0,-6.629 5.371,-12 12,-12 z m 0,-12 c -13.258,0 -24,10.742 -24,24 l 0,199.996 c 0,13.258 10.742,24 24,24 l 416.008,0 c 13.258,0 24,-10.742 24,-24 l 0,-199.996 c 0,-13.258 -10.742,-24 -24,-24" /><path
         id="path5556"
         style="fill:#0c0b09;fill-opacity:1;fill-rule:evenodd;stroke:none"
         d="m 66.641,149.238 0,59.403 13.414,0 c 1.008,-0.051 2.011,-0.114 3,-0.293 2.379,-0.43 4.644,-1.547 6.488,-3.223 2.117,-1.801 3.684,-4.273 4.168,-6.93 0.25,-1.082 0.316,-2.195 0.379,-3.316 l 0,-30.953 c -0.035,-0.938 -0.074,-1.871 -0.199,-2.801 -0.368,-2.664 -1.504,-5.266 -3.36,-7.316 -1.937,-2.317 -4.726,-3.981 -7.644,-4.36 -1.02,-0.172 -2.051,-0.191 -3.094,-0.211 l -13.152,0 z m 8.433,7.95 0,43.503 4.414,0 c 0.727,-0.05 1.461,-0.105 2.145,-0.316 0.777,-0.238 1.488,-0.703 2.097,-1.27 0.739,-0.687 1.325,-1.542 1.59,-2.476 0.168,-0.559 0.219,-1.156 0.285,-1.75 l 0,-30.953 c -0.007,-0.696 -0.027,-1.379 -0.14,-2.074 -0.164,-1.024 -0.578,-2.032 -1.285,-2.797 -0.684,-0.828 -1.672,-1.403 -2.707,-1.637 -0.731,-0.188 -1.493,-0.211 -2.25,-0.23 l -4.149,0 z m 52.899,34.48 0,-42.43 -8.446,0 0,4.297 c -0.379,-0.594 -0.757,-1.18 -1.211,-1.73 -0.601,-0.727 -1.328,-1.356 -2.136,-1.852 -1.317,-0.82 -2.871,-1.242 -4.442,-1.242 -2.058,-0.063 -4.14,0.621 -5.718,1.957 -1.875,1.434 -3.118,3.719 -3.36,6 -0.16,1.043 -0.125,2.074 -0.082,3.109 l 0,31.891 8.422,0 0,-28.688 c -0.035,-0.718 -0.07,-1.441 0.066,-2.167 0.176,-0.993 0.664,-1.981 1.442,-2.614 0.758,-0.652 1.836,-0.949 2.855,-0.91 0.938,0.035 1.84,0.328 2.535,0.91 0.813,0.633 1.348,1.629 1.528,2.641 0.156,0.703 0.125,1.422 0.105,2.14 l 0,28.688 8.446,0 -0.004,0 z m 16.965,0 0,-4.578 c 0.199,0.23 0.398,0.453 0.597,0.664 1,1.07 2.149,2.008 3.434,2.715 1.777,1.023 3.808,1.59 5.844,1.777 0.378,0.035 0.753,0.067 1.148,0.098 l 0,-8.887 c -0.371,0.094 -0.738,0.188 -1.121,0.254 -0.957,0.168 -1.945,0.18 -2.906,0 -1.524,-0.254 -2.954,-0.981 -4.114,-2.055 -1.441,-1.265 -2.472,-3.035 -2.738,-4.875 -0.168,-0.883 -0.156,-1.789 -0.144,-2.683 l 0,-24.86 -8.481,0 0,42.43 8.481,0 z m 31.152,-29.703 8.445,0 c 0.008,-0.176 0.008,-0.344 0.008,-0.527 0.016,-1.692 -0.305,-3.411 -1,-4.977 -0.887,-2.18 -2.457,-4.074 -4.445,-5.426 -2.192,-1.562 -4.887,-2.449 -7.535,-2.324 -1.793,0.023 -3.575,0.496 -5.18,1.281 -1.981,0.942 -3.731,2.34 -4.985,4.141 -1.175,1.601 -1.925,3.539 -2.136,5.508 -0.117,0.871 -0.117,1.757 -0.137,2.64 l 0,16.586 c 0.051,0.957 0.105,1.918 0.273,2.856 0.485,2.722 1.938,5.343 4.094,7.195 2.203,2.074 5.184,3.301 8.172,3.289 2.477,0.106 4.949,-0.621 7,-1.992 2.055,-1.274 3.711,-3.168 4.695,-5.367 0.727,-1.496 1.137,-3.125 1.172,-4.774 0.016,-0.41 0.008,-0.808 0,-1.207 l -8.445,0 c 0,0.375 0,0.758 -0.047,1.137 -0.129,0.992 -0.601,1.957 -1.359,2.644 -0.75,0.743 -1.801,1.196 -2.844,1.176 -0.883,0.02 -1.75,-0.312 -2.473,-0.859 -0.75,-0.539 -1.34,-1.297 -1.57,-2.141 -0.191,-0.621 -0.191,-1.285 -0.18,-1.957 l 0,-16.586 c 0,-0.66 0,-1.316 0.157,-1.945 0.234,-0.875 0.793,-1.699 1.539,-2.242 0.757,-0.594 1.714,-0.875 2.675,-0.821 1.125,0.016 2.25,0.536 2.989,1.387 0.652,0.688 1.043,1.59 1.093,2.496 0.036,0.278 0.016,0.535 0.016,0.809 l 0.008,0 z m 22.226,46.676 0,-21.086 c 0.274,0.429 0.539,0.847 0.852,1.254 0.719,0.925 1.633,1.714 2.676,2.273 1.429,0.82 3.086,1.199 4.715,1.125 1.781,-0.035 3.527,-0.598 4.984,-1.684 1.773,-1.242 3.105,-3.234 3.473,-5.308 0.23,-1.008 0.23,-2.024 0.23,-3.043 l 0,-32.934 -8.465,0 0,29.735 c 0,0.675 0,1.355 -0.191,2 -0.254,0.808 -0.82,1.547 -1.555,2.05 -0.773,0.563 -1.726,0.844 -2.664,0.774 -0.926,-0.035 -1.844,-0.406 -2.527,-1.024 -0.707,-0.589 -1.18,-1.445 -1.36,-2.328 -0.117,-0.48 -0.148,-0.98 -0.168,-1.472 l 0,-29.735 -8.464,0 0,59.403 8.464,0 z m 49.801,-16.973 0,-46.051 c 0.008,-1.242 0.028,-2.488 -0.176,-3.699 -0.433,-2.566 -1.8,-5.051 -3.804,-6.82 -2.219,-2.129 -5.262,-3.325 -8.305,-3.36 -2.191,-0.117 -4.383,0.391 -6.289,1.442 -2.188,1.117 -4.008,2.949 -5.23,5.117 -0.938,1.582 -1.547,3.34 -1.622,5.129 -0.019,0.402 -0.019,0.801 -0.019,1.211 l 8.531,0 c 0.031,-0.34 0.067,-0.664 0.125,-0.981 0.199,-0.949 0.758,-1.851 1.539,-2.429 0.707,-0.571 1.621,-0.856 2.524,-0.832 1.023,-0.024 2.047,0.347 2.789,1.054 0.738,0.621 1.242,1.547 1.394,2.485 0.094,0.554 0.074,1.113 0.051,1.683 l 0,7.957 c -0.316,-0.547 -0.641,-1.094 -1.031,-1.59 -0.77,-0.988 -1.836,-1.769 -3.004,-2.312 -1.211,-0.606 -2.547,-0.961 -3.871,-0.961 -1.848,-0.055 -3.699,0.547 -5.223,1.687 -2.098,1.43 -3.594,3.852 -3.793,6.293 -0.117,0.875 -0.074,1.747 -0.031,2.633 l 0,23.563 c 0.004,0.758 0.031,1.519 0.156,2.246 0.348,1.945 1.516,3.781 3.129,5.023 1.59,1.344 3.641,2.082 5.684,2.051 1.472,0.031 2.949,-0.336 4.254,-1.043 1.242,-0.621 2.328,-1.559 3.136,-2.656 0.211,-0.27 0.399,-0.555 0.594,-0.832 l 0,3.992 8.492,0 z m -16.918,-29.109 0,16.14 c -0.011,0.633 -0.035,1.266 0.106,1.875 0.168,0.809 0.609,1.574 1.242,2.156 0.766,0.75 1.808,1.2 2.851,1.188 0.981,0.035 1.946,-0.344 2.696,-1 0.683,-0.57 1.191,-1.348 1.379,-2.199 0.179,-0.653 0.156,-1.336 0.148,-2.02 l 0,-16.14 c 0.012,-0.489 0.024,-0.961 -0.035,-1.434 -0.113,-0.93 -0.465,-1.855 -1.113,-2.516 -0.707,-0.8 -1.813,-1.234 -2.907,-1.254 -0.992,-0.066 -1.98,0.243 -2.738,0.864 -0.808,0.601 -1.39,1.551 -1.547,2.515 -0.14,0.602 -0.105,1.215 -0.086,1.825 l 0.004,0 z m 41.285,-9.079 c -0.316,-0.515 -0.644,-1.042 -1.015,-1.515 -0.727,-0.887 -1.66,-1.602 -2.696,-2.137 -1.269,-0.695 -2.695,-1.105 -4.125,-1.117 -2.031,-0.07 -4.105,0.644 -5.707,1.992 -1.734,1.336 -2.937,3.356 -3.242,5.449 -0.168,0.93 -0.156,1.875 -0.156,2.825 l 0,4.769 c 0.066,0.945 0.121,1.895 0.324,2.809 0.418,1.953 1.485,3.781 2.981,5.191 1.504,1.52 3.492,2.574 5.55,2.867 1.082,0.2 2.18,0.2 3.27,0.188 l 4.816,0 0,3.656 c 0.028,0.883 0.039,1.758 -0.222,2.555 -0.223,0.621 -0.633,1.191 -1.137,1.656 -0.707,0.66 -1.625,1.129 -2.57,1.168 -0.957,0.094 -1.95,-0.25 -2.727,-0.863 -0.82,-0.602 -1.453,-1.485 -1.652,-2.434 -0.063,-0.281 -0.098,-0.574 -0.137,-0.875 l -8.496,0 c 0.008,0.41 0.023,0.816 0.047,1.215 0.105,1.41 0.504,2.789 1.125,4.074 0.949,2.008 2.445,3.758 4.297,4.992 2.074,1.461 4.605,2.274 7.14,2.262 2.969,0.094 5.981,-0.937 8.266,-2.883 2.094,-1.656 3.621,-4.035 4.16,-6.57 0.262,-1.012 0.348,-2.055 0.43,-3.09 l 0,-30.426 -8.528,0 0,4.242 0.004,0 z m 0,14.372 0,-4.106 c 0.082,-1 0.164,-1.98 -0.054,-2.969 -0.211,-1.043 -0.739,-2.074 -1.586,-2.695 -0.844,-0.687 -2.024,-0.937 -3.184,-0.727 -1.359,0.192 -2.695,1.012 -3.168,2.192 -0.336,0.66 -0.39,1.43 -0.429,2.219 l 0,2.117 c 0.023,0.293 0.039,0.59 0.093,0.875 0.106,0.578 0.328,1.16 0.696,1.609 0.441,0.582 1.113,0.981 1.812,1.192 0.832,0.285 1.715,0.285 2.59,0.293 l 3.23,0 z m 25.422,19.679 c 0.289,0.453 0.559,0.918 0.899,1.336 0.758,0.985 1.789,1.77 2.925,2.332 1.293,0.66 2.731,1.031 4.184,1.008 1.934,0.031 3.891,-0.609 5.449,-1.84 1.571,-1.14 2.75,-2.836 3.172,-4.66 0.305,-1.137 0.328,-2.305 0.344,-3.48 l 0,-32.989 -8.449,0 0,29.84 c -0.012,0.652 -0.012,1.297 -0.2,1.906 -0.234,0.778 -0.773,1.481 -1.457,1.981 -0.757,0.566 -1.714,0.859 -2.64,0.808 -0.867,-0.011 -1.707,-0.316 -2.422,-0.855 -0.738,-0.516 -1.34,-1.25 -1.582,-2.094 -0.176,-0.554 -0.199,-1.16 -0.223,-1.746 l 0,-29.84 -8.41,0 0,42.43 8.41,0 0,-4.137 z m 49.848,4.137 0,-46.051 c 0,-1.242 0.008,-2.488 -0.191,-3.699 -0.43,-2.566 -1.797,-5.051 -3.801,-6.82 -2.211,-2.129 -5.254,-3.325 -8.293,-3.36 -2.203,-0.117 -4.383,0.391 -6.301,1.442 -2.188,1.117 -4.008,2.949 -5.223,5.117 -0.937,1.582 -1.547,3.34 -1.617,5.129 -0.035,0.402 -0.035,0.801 -0.027,1.211 l 8.527,0 c 0.035,-0.34 0.055,-0.664 0.129,-0.981 0.199,-0.949 0.746,-1.851 1.535,-2.429 0.703,-0.571 1.613,-0.856 2.516,-0.832 1.023,-0.024 2.055,0.347 2.801,1.054 0.738,0.621 1.242,1.547 1.382,2.485 0.106,0.554 0.082,1.113 0.067,1.683 l 0,7.957 c -0.328,-0.547 -0.645,-1.094 -1.035,-1.59 -0.778,-0.988 -1.828,-1.769 -3,-2.312 -1.219,-0.606 -2.547,-0.961 -3.883,-0.961 -1.832,-0.055 -3.684,0.547 -5.215,1.687 -2.09,1.43 -3.586,3.852 -3.789,6.293 -0.125,0.875 -0.082,1.747 -0.035,2.633 l 0,23.563 c 0.012,0.758 0.027,1.519 0.164,2.246 0.344,1.945 1.512,3.781 3.113,5.023 1.598,1.344 3.641,2.082 5.684,2.051 1.476,0.031 2.961,-0.336 4.265,-1.043 1.231,-0.621 2.317,-1.559 3.137,-2.656 0.211,-0.27 0.402,-0.555 0.59,-0.832 l 0,3.992 8.5,0 z m -16.922,-29.109 0,16.14 c -0.016,0.633 -0.035,1.266 0.106,1.875 0.179,0.809 0.609,1.574 1.242,2.156 0.761,0.75 1.812,1.2 2.855,1.188 0.965,0.035 1.945,-0.344 2.684,-1 0.695,-0.57 1.187,-1.348 1.383,-2.199 0.187,-0.653 0.164,-1.336 0.152,-2.02 l 0,-16.14 c 0.012,-0.489 0.027,-0.961 -0.039,-1.434 -0.113,-0.93 -0.465,-1.855 -1.106,-2.516 -0.718,-0.8 -1.82,-1.234 -2.918,-1.254 -0.988,-0.066 -1.968,0.243 -2.734,0.864 -0.805,0.601 -1.371,1.551 -1.551,2.515 -0.125,0.602 -0.093,1.215 -0.074,1.825 z m 23.281,-1.125 7.926,0 c 0,-0.278 0.012,-0.551 0.047,-0.813 0.125,-1.035 0.715,-2 1.535,-2.687 0.852,-0.77 1.969,-1.176 3.125,-1.2 1.16,-0.043 2.348,0.329 3.203,1.106 0.969,0.797 1.524,2.062 1.578,3.336 0.075,0.832 -0.074,1.664 -0.453,2.402 -0.41,0.875 -1.16,1.59 -2.008,2.074 -0.781,0.465 -1.644,0.739 -2.519,1 l -1.621,0.571 c -1.516,0.504 -3.031,1.007 -4.41,1.82 -2,1.156 -3.739,2.914 -4.739,5.02 -0.875,1.699 -1.261,3.617 -1.234,5.531 -0.023,1.851 0.371,3.715 1.148,5.398 0.926,2.129 2.485,3.981 4.465,5.235 2.055,1.41 4.59,2.125 7.086,1.98 2.926,-0.07 5.813,-1.348 7.918,-3.488 2.223,-2.094 3.633,-5.074 3.715,-8.02 0.02,-0.242 0.02,-0.496 0.035,-0.734 l -7.883,0 c -0.027,0.375 -0.047,0.754 -0.14,1.113 -0.18,0.777 -0.61,1.504 -1.231,2.043 -0.789,0.746 -1.898,1.156 -2.972,1.094 -1.043,-0.008 -2.063,-0.442 -2.801,-1.168 -0.891,-0.82 -1.363,-2.063 -1.336,-3.317 -0.016,-1.273 0.496,-2.562 1.371,-3.347 0.832,-0.844 2.031,-1.192 3.242,-1.547 l 2.707,-0.938 c 1.379,-0.507 2.758,-1.011 3.992,-1.793 1.579,-0.996 2.907,-2.449 3.852,-4.097 0.977,-1.606 1.59,-3.41 1.769,-5.262 0.211,-1.851 -0.007,-3.758 -0.64,-5.508 -0.645,-1.925 -1.781,-3.675 -3.301,-5.07 -1.988,-1.953 -4.672,-3.266 -7.43,-3.457 -2.257,-0.266 -4.558,0.234 -6.621,1.223 -2.351,1.062 -4.402,2.769 -5.679,4.968 -1.008,1.602 -1.579,3.485 -1.661,5.348 -0.027,0.402 -0.035,0.789 -0.035,1.184 z m 33.84,15.464 25.406,0 0,-8.496 -25.406,0 0,8.496 z M 164.305,98.32 153.176,55.887 l -7.504,0 -11.027,42.433 8.984,0 5.781,-27.504 5.93,27.504 8.965,0 z m 12.785,-24.281 0,-4.336 c -0.043,-0.664 -0.086,-1.328 0,-1.98 0.117,-0.918 0.484,-1.809 1.117,-2.473 0.691,-0.781 1.734,-1.234 2.801,-1.277 1.113,-0.094 2.262,0.265 3.07,1.019 0.656,0.563 1.098,1.34 1.285,2.176 0.086,0.332 0.129,0.66 0.168,0.996 l 8.446,0 c 0.007,-0.305 0.019,-0.609 0.007,-0.926 -0.015,-1.484 -0.437,-2.968 -1.093,-4.347 -0.883,-1.973 -2.243,-3.707 -3.989,-4.985 -2.136,-1.668 -4.886,-2.605 -7.625,-2.543 -2.925,-0.054 -5.832,1.032 -8.074,2.989 -2.402,1.918 -4.098,4.769 -4.476,7.73 -0.211,1.188 -0.188,2.398 -0.176,3.621 l 0,16.106 c 0.082,1.16 0.164,2.32 0.437,3.457 0.571,2.433 1.981,4.695 3.942,6.359 2.285,2.094 5.367,3.293 8.433,3.23 2.641,0.051 5.262,-0.832 7.43,-2.441 2.285,-1.609 4.09,-4.023 4.699,-6.656 0.348,-1.27 0.422,-2.61 0.481,-3.949 l 0,-11.77 -16.883,0 z m 8.441,6.941 -8.441,0 0,4.231 c -0.008,0.703 -0.035,1.41 0.137,2.086 0.211,0.863 0.734,1.695 1.453,2.25 0.703,0.605 1.633,0.949 2.57,0.949 0.883,0.02 1.777,-0.262 2.496,-0.801 0.742,-0.527 1.293,-1.336 1.535,-2.199 0.242,-0.738 0.242,-1.504 0.25,-2.285 l 0,-4.231 z m 24.356,17.34 0,-4.582 c 0.199,0.223 0.402,0.453 0.613,0.664 1,1.067 2.145,2.012 3.43,2.707 1.769,1.032 3.812,1.598 5.832,1.782 0.383,0.039 0.769,0.07 1.148,0.105 l 0,-8.891 c -0.367,0.098 -0.734,0.192 -1.105,0.254 -0.957,0.168 -1.946,0.18 -2.918,0 -1.512,-0.254 -2.957,-0.98 -4.102,-2.054 -1.453,-1.258 -2.484,-3.028 -2.75,-4.875 -0.16,-0.883 -0.148,-1.789 -0.148,-2.684 l 0,-24.859 -8.477,0 0,42.433 8.477,0 z m 24.816,-30.703 0,-11.73 -8.496,0 0,59.406 8.496,0 0,-35.379 10.613,18.406 8.497,0 -10.032,-16.847 12.129,-25.586 -9.562,0 -7.422,18.066 -4.223,-6.336 z m 32.922,6.422 0,-4.336 c -0.039,-0.664 -0.082,-1.328 0,-1.98 0.117,-0.918 0.488,-1.809 1.121,-2.473 0.684,-0.781 1.723,-1.234 2.801,-1.277 1.113,-0.094 2.262,0.265 3.07,1.019 0.645,0.563 1.098,1.34 1.285,2.176 0.086,0.332 0.129,0.66 0.157,0.996 l 8.445,0 c 0.027,-0.305 0.035,-0.609 0.027,-0.926 -0.027,-1.484 -0.453,-2.968 -1.105,-4.347 -0.883,-1.973 -2.231,-3.707 -3.981,-4.985 -2.136,-1.668 -4.882,-2.605 -7.621,-2.543 -2.929,-0.054 -5.836,1.032 -8.074,2.989 -2.414,1.918 -4.109,4.769 -4.477,7.73 -0.21,1.188 -0.199,2.398 -0.187,3.621 l 0,16.106 c 0.082,1.16 0.176,2.32 0.437,3.457 0.582,2.433 1.981,4.695 3.95,6.359 2.289,2.094 5.371,3.293 8.425,3.23 2.653,0.051 5.274,-0.832 7.434,-2.441 2.293,-1.609 4.094,-4.023 4.695,-6.656 0.36,-1.27 0.422,-2.61 0.481,-3.949 l 0,-11.77 -16.883,0 z m 8.434,6.941 -8.434,0 0,4.231 c -0.008,0.703 -0.031,1.41 0.141,2.086 0.211,0.863 0.738,1.695 1.453,2.25 0.703,0.605 1.633,0.949 2.566,0.949 0.887,0.02 1.781,-0.262 2.496,-0.801 0.75,-0.527 1.297,-1.336 1.539,-2.199 0.231,-0.738 0.243,-1.504 0.243,-2.285 l 0,-4.231 -0.004,0 z m 24.367,34.313 0,-21.09 c 0.273,0.422 0.535,0.852 0.851,1.254 0.707,0.926 1.633,1.715 2.684,2.273 1.426,0.809 3.066,1.2 4.707,1.125 1.781,-0.031 3.527,-0.609 4.98,-1.683 1.782,-1.242 3.106,-3.234 3.477,-5.317 0.223,-1 0.234,-2.019 0.234,-3.042 l 0,-32.926 -8.457,0 0,29.722 c 0,0.688 0,1.371 -0.199,2.004 -0.254,0.821 -0.832,1.555 -1.558,2.063 -0.77,0.558 -1.731,0.832 -2.672,0.769 -0.93,-0.035 -1.836,-0.398 -2.52,-1.019 -0.707,-0.606 -1.18,-1.449 -1.355,-2.34 -0.118,-0.473 -0.153,-0.981 -0.172,-1.477 l 0,-29.722 -8.473,0 0,59.406 8.473,0 z m 33.89,-16.973 0,-4.582 c 0.192,0.223 0.403,0.453 0.594,0.664 1.008,1.067 2.156,2.012 3.442,2.707 1.769,1.032 3.808,1.598 5.832,1.782 0.39,0.039 0.769,0.07 1.148,0.105 l 0,-8.891 c -0.359,0.098 -0.727,0.192 -1.105,0.254 -0.957,0.168 -1.95,0.18 -2.907,0 -1.515,-0.254 -2.968,-0.98 -4.117,-2.054 -1.441,-1.258 -2.484,-3.028 -2.738,-4.875 -0.18,-0.883 -0.156,-1.789 -0.149,-2.684 l 0,-24.859 -8.472,0 0,42.433 8.472,0" /></g></g></svg>