<?xml version="1.0" encoding="UTF-8" standalone="no"?>
<svg
   xmlns:dc="http://purl.org/dc/elements/1.1/"
   xmlns:cc="http://creativecommons.org/ns#"
   xmlns:rdf="http://www.w3.org/1999/02/22-rdf-syntax-ns#"
   xmlns:svg="http://www.w3.org/2000/svg"
   xmlns="http://www.w3.org/2000/svg"
   viewBox="0 0 600 330"
   height="330"
   width="600"
   xml:space="preserve"
   version="1.1"
   id="svg5407"><metadata
     id="metadata5413"><rdf:RDF><cc:Work
         rdf:about=""><dc:format>image/svg+xml</dc:format><dc:type
           rdf:resource="http://purl.org/dc/dcmitype/StillImage" /><dc:title></dc:title></cc:Work></rdf:RDF></metadata><defs
     id="defs5411"><clipPath
       id="clipPath5423"
       clipPathUnits="userSpaceOnUse"><path
         id="path5425"
         d="M 0,0 480,0 480,264 0,264 0,0 Z" /></clipPath></defs><g
     transform="matrix(1.25,0,0,-1.25,0,330)"
     id="g5415"><g
       id="g5417"><g
         id="g5419"><g
           id="g5421" /><g
           id="g5427"><g
             id="g5429"
             clip-path="url(#clipPath5423)"><g
               id="g5431"><path
                 id="path5433"
                 style="fill:#ffffff;fill-opacity:1;fill-rule:nonzero;stroke:none"
                 d="m 31.996,263.758 c -17.512,0 -31.754,-14.25 -31.754,-31.766 l 0,-199.996 C 0.242,14.484 14.484,0.242 31.996,0.242 l 416.008,0 c 17.512,0 31.754,14.242 31.754,31.754 l 0,199.996 c 0,17.516 -14.242,31.766 -31.754,31.766" /><path
                 id="path5435"
                 style="fill:#000000;fill-opacity:1;fill-rule:nonzero;stroke:none"
                 d="M 31.996,0.469 C 14.613,0.469 0.48,14.613 0.48,31.996 l 0,199.996 c 0,17.383 14.133,31.528 31.516,31.528 l 416.008,0 c 17.383,0 31.516,-14.145 31.516,-31.528 l 0,-199.996 c 0,-17.383 -14.133,-31.527 -31.516,-31.527 l -416.008,0 z M 448.004,264 31.996,264 C 14.32,264 0,249.672 0,231.992 L 0,31.996 C 0,14.328 14.32,0 31.996,0 L 448.004,0 C 465.672,0 480,14.328 480,31.996 l 0,199.996 C 480,249.672 465.672,264 448.004,264" /></g></g></g></g></g><g
       id="g5437"><path
         id="path5439"
         style="fill:#000000;fill-opacity:1;fill-rule:nonzero;stroke:none"
         d="m 31.996,19.996 416.008,0 c 6.629,0 12,5.371 12,12 l 0,199.996 c 0,6.629 -5.371,12 -12,12 l -416.008,0 c -6.629,0 -12,-5.371 -12,-12 l 0,-199.996 c 0,-6.629 5.371,-12 12,-12 z m 0,-12 c -13.258,0 -24,10.742 -24,24 l 0,199.996 c 0,13.258 10.742,24 24,24 l 416.008,0 c 13.258,0 24,-10.742 24,-24 l 0,-199.996 c 0,-13.258 -10.742,-24 -24,-24" /><path
         id="path5441"
         style="fill:#000000;fill-opacity:1;fill-rule:nonzero;stroke:none"
         d="m 142.844,165.113 -4.246,0 c -2.348,0 -4.254,-1.898 -4.254,-4.242 l 0,-2.125 c 0,-2.34 1.906,-4.242 4.254,-4.242 2.343,0 4.246,1.902 4.246,4.242 l 0,6.367 z m 8.496,-18.586 -8.496,0 0,4.258 c -2.348,-4.402 -7.813,-6.062 -12.207,-3.715 -2.949,1.563 -4.785,4.625 -4.785,7.961 l 0,6.367 c 0,5.872 4.75,10.622 10.621,10.622 l 6.371,0 0,4.773 c 0,2.348 -1.903,4.246 -4.246,4.246 -2.348,0 -4.254,-1.898 -4.254,-4.246 l -8.492,0 c 0,7.043 5.703,12.746 12.746,12.746 7.031,0 12.742,-5.703 12.742,-12.746" /><path
         id="path5443"
         style="fill:#000000;fill-opacity:1;fill-rule:nonzero;stroke:none"
         d="m 185.313,146.527 -8.493,0 0,4.258 c -2.34,-4.402 -7.812,-6.062 -12.207,-3.715 -2.945,1.563 -4.781,4.625 -4.781,7.961 l 0,33.981 8.488,0 0,-30.266 c 0,-2.34 1.903,-4.242 4.258,-4.242 2.344,0 4.242,1.902 4.242,4.242 l 0,30.266 8.493,0" /><path
         id="path5445"
         style="fill:#000000;fill-opacity:1;fill-rule:nonzero;stroke:none"
         d="m 195.934,146.527 0,35.578 -4.246,0 0,6.907 4.246,0 0,6.367 c 0,5.859 4.754,10.625 10.625,10.625 l 4.246,0 0,-7.965 -3.719,0 c -1.469,0 -2.652,-1.191 -2.652,-2.66 l 0,-6.367 6.371,0 0,-6.907 -6.371,0 0,-35.578" /><path
         id="path5447"
         style="fill:#000000;fill-opacity:1;fill-rule:nonzero;stroke:none"
         d="m 261.773,158.746 0,18.047 c 0,2.348 -1.902,4.246 -4.242,4.246 -2.359,0 -4.258,-1.898 -4.258,-4.246 l 0,-18.047 c 0,-2.34 1.899,-4.242 4.258,-4.242 2.34,0 4.242,1.902 4.242,4.242 z m 8.493,-12.219 -8.493,0 0,4.258 c -2.355,-4.402 -7.812,-6.062 -12.218,-3.715 -2.934,1.563 -4.77,4.625 -4.77,7.961 l 0,25.481 c 0,4.984 4.043,9.027 9.016,9.027 3.336,0 6.398,-1.836 7.972,-4.773 l 0,21.238 8.493,0" /><path
         id="path5449"
         style="fill:#000000;fill-opacity:1;fill-rule:nonzero;stroke:none"
         d="m 287.254,171.484 8.488,0 0,5.309 c 0,2.348 -1.898,4.246 -4.246,4.246 -2.34,0 -4.242,-1.898 -4.242,-4.246 l 0,-5.309 z m 16.988,-12.738 c 0,-7.043 -5.699,-12.742 -12.746,-12.742 -7.039,0 -12.734,5.699 -12.734,12.742 l 0,18.047 c 0,7.043 5.695,12.746 12.734,12.746 7.047,0 12.746,-5.703 12.746,-12.746 l 0,-12.207 -16.988,0 0,-5.84 c 0,-2.34 1.902,-4.242 4.242,-4.242 2.348,0 4.246,1.902 4.246,4.242" /><path
         id="path5451"
         style="fill:#000000;fill-opacity:1;fill-rule:nonzero;stroke:none"
         d="m 311.68,146.527 0,42.485 8.488,0 0,-4.246 c 2.344,4.394 7.816,6.062 12.215,3.707 1.406,-0.746 2.586,-1.86 3.437,-3.211 3.207,4.551 9.489,5.636 14.051,2.441 2.684,-1.89 4.277,-4.976 4.277,-8.246 l 0,-32.93 -8.492,0 0,30.266 c 0,2.348 -1.902,4.246 -4.242,4.246 -2.355,0 -4.258,-1.898 -4.258,-4.246 l 0,-30.266 -8.488,0 0,30.266 c 0,2.348 -1.91,4.246 -4.258,4.246 -2.344,0 -4.242,-1.898 -4.242,-4.246 l 0,-30.266" /><path
         id="path5453"
         style="fill:#000000;fill-opacity:1;fill-rule:nonzero;stroke:none"
         d="m 52.109,75.375 8.43,0 0,-3.164 c 0,-3.191 2.582,-5.785 5.785,-5.785 l 0.524,0 c 3.203,0 5.789,2.594 5.789,5.785 l 0,6.316 c 0,2.364 -1.426,4.477 -3.61,5.368 l -7.507,3.039 c -5.372,2.175 -8.875,7.39 -8.875,13.175 l 0,3.684 c 0,7.84 6.355,14.203 14.203,14.203 7.851,0 14.215,-6.363 14.215,-14.203 l 0,-3.16 -8.426,0 0,3.16 c 0,3.191 -2.586,5.793 -5.789,5.793 -3.192,0 -5.785,-2.602 -5.785,-5.793 l 0,-3.684 c 0,-2.367 1.429,-4.48 3.621,-5.367 l 7.504,-3.047 c 5.367,-2.168 8.875,-7.382 8.875,-13.168 l 0,-6.316 c 0,-7.848 -6.364,-14.215 -14.215,-14.215 l -0.524,0 c -7.847,0 -14.215,6.367 -14.215,14.215" /><path
         id="path5455"
         style="fill:#000000;fill-opacity:1;fill-rule:nonzero;stroke:none"
         d="m 95.789,83.266 8.43,0 0,5.254 c 0,2.335 -1.883,4.222 -4.211,4.222 -2.324,0 -4.219,-1.887 -4.219,-4.222 l 0,-5.254 z m 16.856,-12.633 c 0,-6.973 -5.665,-12.637 -12.637,-12.637 -6.981,0 -12.633,5.664 -12.633,12.637 l 0,17.887 c 0,6.984 5.652,12.636 12.633,12.636 6.972,0 12.637,-5.652 12.637,-12.636 l 0,-12.098 -16.856,0 0,-5.789 c 0,-2.324 1.895,-4.207 4.219,-4.207 2.328,0 4.211,1.883 4.211,4.207" /><path
         id="path5457"
         style="fill:#000000;fill-opacity:1;fill-rule:nonzero;stroke:none"
         d="m 128.43,109.063 -8.426,0 0,8.41 8.426,0 0,-8.41 z m -8.426,-50.532 0,42.102 8.426,0 0,-42.102" /><path
         id="path5459"
         style="fill:#000000;fill-opacity:1;fill-rule:nonzero;stroke:none"
         d="m 153.684,58.531 -4.207,0 c -5.235,0 -9.473,4.239 -9.473,9.473 l 0,25.785 -4.207,0 0,6.844 4.207,0 0,12.633 8.418,0 0,-12.633 5.262,0 0,-6.844 -5.262,0 0,-24.734 c 0,-1.457 1.18,-2.629 2.637,-2.629 l 2.625,0" /><path
         id="path5461"
         style="fill:#000000;fill-opacity:1;fill-rule:nonzero;stroke:none"
         d="m 167.375,83.266 8.418,0 0,5.254 c 0,2.335 -1.887,4.222 -4.207,4.222 -2.324,0 -4.211,-1.887 -4.211,-4.222 l 0,-5.254 z m 16.844,-12.633 c 0,-6.973 -5.66,-12.637 -12.633,-12.637 -6.981,0 -12.633,5.664 -12.633,12.637 l 0,17.887 c 0,6.984 5.652,12.636 12.633,12.636 6.973,0 12.633,-5.652 12.633,-12.636 l 0,-12.098 -16.844,0 0,-5.789 c 0,-2.324 1.887,-4.207 4.211,-4.207 2.32,0 4.207,1.883 4.207,4.207" /><path
         id="path5463"
         style="fill:#000000;fill-opacity:1;fill-rule:nonzero;stroke:none"
         d="m 191.578,58.531 0,42.102 8.426,0 0,-4.211 c 2.324,4.355 7.746,6.012 12.101,3.687 2.918,-1.558 4.743,-4.593 4.743,-7.89 l 0,-33.688 -8.43,0 0,29.989 c 0,2.335 -1.883,4.222 -4.203,4.222 -2.324,0 -4.211,-1.887 -4.211,-4.222 l 0,-29.989" /><path
         id="path5465"
         style="fill:#000000;fill-opacity:1;fill-rule:nonzero;stroke:none"
         d="m 223.156,70.633 7.895,0 c 0,-2.617 2.125,-4.731 4.742,-4.731 2.613,0 4.73,2.114 4.73,4.731 0,1.875 -1.097,3.566 -2.816,4.336 l -6.824,2.488 c -6.102,2.715 -8.867,9.859 -6.156,15.977 2.703,6.109 9.851,8.871 15.964,6.164 4.387,-1.938 7.211,-6.282 7.211,-11.078 l -7.902,0 c 0,2.335 -1.883,4.222 -4.207,4.222 -2.324,0 -4.207,-1.887 -4.207,-4.222 0,-1.661 0.973,-3.168 2.5,-3.84 l 6.824,-2.504 c 6.375,-2.824 9.254,-10.278 6.426,-16.66 -2.824,-6.375 -10.289,-9.258 -16.66,-6.426 -4.567,2.019 -7.52,6.551 -7.52,11.543" /><path
         id="path5467"
         style="fill:#000000;fill-opacity:1;fill-rule:nonzero;stroke:none"
         d="m 269.477,58.531 -4.207,0 c -5.247,0 -9.485,4.239 -9.485,9.473 l 0,25.785 -4.207,0 0,6.844 4.207,0 0,12.633 8.426,0 0,-12.633 5.266,0 0,-6.844 -5.266,0 0,-24.734 c 0,-1.457 1.184,-2.629 2.629,-2.629 l 2.637,0" /><path
         id="path5469"
         style="fill:#000000;fill-opacity:1;fill-rule:nonzero;stroke:none"
         d="m 276.844,58.531 0,42.102 8.418,0 0,-4.754 c 2.699,3.34 6.761,5.277 11.054,5.277 l 0,-8.843 c -4.421,1.453 -9.183,-0.942 -10.625,-5.364 -0.296,-0.847 -0.429,-1.734 -0.429,-2.636 l 0,-25.782" /><path
         id="path5471"
         style="fill:#000000;fill-opacity:1;fill-rule:nonzero;stroke:none"
         d="m 307.891,83.266 8.425,0 0,5.254 c 0,2.335 -1.882,4.222 -4.207,4.222 -2.336,0 -4.218,-1.887 -4.218,-4.222 l 0,-5.254 z m 16.843,-12.633 c 0,-6.973 -5.652,-12.637 -12.625,-12.637 -6.98,0 -12.644,5.664 -12.644,12.637 l 0,17.887 c 0,6.984 5.664,12.636 12.644,12.636 6.973,0 12.625,-5.652 12.625,-12.636 l 0,-12.098 -16.843,0 0,-5.789 c 0,-2.324 1.882,-4.207 4.218,-4.207 2.325,0 4.207,1.883 4.207,4.207" /><path
         id="path5473"
         style="fill:#000000;fill-opacity:1;fill-rule:nonzero;stroke:none"
         d="m 340.531,109.063 -8.429,0 0,8.41 8.429,0 0,-8.41 z m -8.429,-50.532 0,42.102 8.429,0 0,-42.102" /><path
         id="path5475"
         style="fill:#000000;fill-opacity:1;fill-rule:nonzero;stroke:none"
         d="m 351.047,58.531 0,35.258 -4.207,0 0,6.844 4.207,0 0,6.312 c 0,5.821 4.711,10.528 10.531,10.528 l 4.207,0 0,-7.887 -3.683,0 c -1.442,0 -2.629,-1.188 -2.629,-2.641 l 0,-6.312 6.312,0 0,-6.844 -6.312,0 0,-35.258" /><path
         id="path5477"
         style="fill:#000000;fill-opacity:1;fill-rule:nonzero;stroke:none"
         d="m 378.41,83.266 8.43,0 0,5.254 c 0,2.335 -1.891,4.222 -4.211,4.222 -2.324,0 -4.219,-1.887 -4.219,-4.222 l 0,-5.254 z m 16.852,-12.633 c 0,-6.973 -5.66,-12.637 -12.633,-12.637 -6.969,0 -12.633,5.664 -12.633,12.637 l 0,17.887 c 0,6.984 5.664,12.636 12.633,12.636 6.973,0 12.633,-5.652 12.633,-12.636 l 0,-12.098 -16.852,0 0,-5.789 c 0,-2.324 1.895,-4.207 4.219,-4.207 2.32,0 4.211,1.883 4.211,4.207" /><path
         id="path5479"
         style="fill:#000000;fill-opacity:1;fill-rule:nonzero;stroke:none"
         d="m 402.617,58.531 0,42.102 8.43,0 0,-4.211 c 2.324,4.355 7.746,6.012 12.113,3.687 2.906,-1.558 4.731,-4.593 4.731,-7.89 l 0,-33.688 -8.43,0 0,29.989 c 0,2.335 -1.871,4.222 -4.203,4.222 -2.324,0 -4.211,-1.887 -4.211,-4.222 l 0,-29.989" /></g></g></svg>