<?xml version="1.0" encoding="UTF-8" standalone="no"?>
<svg
   xmlns:dc="http://purl.org/dc/elements/1.1/"
   xmlns:cc="http://creativecommons.org/ns#"
   xmlns:rdf="http://www.w3.org/1999/02/22-rdf-syntax-ns#"
   xmlns:svg="http://www.w3.org/2000/svg"
   xmlns="http://www.w3.org/2000/svg"
   viewBox="0 0 600.99628 600.99628"
   height="600.99628"
   width="600.99628"
   xml:space="preserve"
   version="1.1"
   id="svg4177"><metadata
     id="metadata4183"><rdf:RDF><cc:Work
         rdf:about=""><dc:format>image/svg+xml</dc:format><dc:type
           rdf:resource="http://purl.org/dc/dcmitype/StillImage" /><dc:title></dc:title></cc:Work></rdf:RDF></metadata><defs
     id="defs4181" /><g
     transform="matrix(1.25,0,0,-1.25,0,600.99628)"
     id="g4185"><g
       id="g4187"><path
         id="path4189"
         style="fill:#ffffff;fill-opacity:1;fill-rule:nonzero;stroke:none"
         d="M 32.195,480.402 C 14.66,480.402 0.402,466.133 0.402,448.61 l 0,-416.415 C 0.402,14.66 14.66,0.402 32.195,0.402 l 416.414,0 c 17.524,0 31.793,14.258 31.793,31.793 l 0,416.415 c 0,17.523 -14.269,31.792 -31.793,31.792 l -416.414,0 z" /><path
         id="path4191"
         style="fill:#000000;fill-opacity:1;fill-rule:nonzero;stroke:none"
         d="M 32.203,480.797 C 14.449,480.797 0,466.356 0,448.617 L 0,32.203 C 0,14.453 14.449,0 32.203,0 l 416.414,0 c 17.738,0 32.18,14.453 32.18,32.203 l 0,416.414 c 0,17.739 -14.442,32.18 -32.18,32.18 l -416.414,0 z m -0.008,-0.395 416.414,0 c 17.52,0 31.793,-14.273 31.793,-31.792 l 0,-416.415 c 0,-17.535 -14.273,-31.793 -31.793,-31.793 l -416.414,0 C 14.66,0.402 0.402,14.66 0.402,32.195 l 0,416.415 c 0,17.519 14.258,31.792 31.793,31.792 z" /><path
         id="path4193"
         style="fill:#000000;fill-opacity:1;fill-rule:nonzero;stroke:none"
         d="m 32.195,472.625 c -13.273,0 -24.027,-10.754 -24.027,-24.015 l 0,-416.415 C 8.168,18.922 18.922,8.168 32.195,8.168 l 416.414,0 c 13.274,0 24.016,10.754 24.016,24.027 l 0,416.415 c 0,13.261 -10.742,24.015 -24.016,24.015 l -416.414,0 z m 0,-12.015 416.414,0 c 6.629,0 12.012,-5.368 12.012,-12 l 0,-416.415 c 0,-6.644 -5.383,-12.015 -12.012,-12.015 l -416.414,0 c -6.632,0 -12.015,5.371 -12.015,12.015 l 0,416.415 c 0,6.632 5.383,12 12.015,12 z" /><path
         id="path4195"
         style="fill:#000000;fill-opacity:1;fill-rule:evenodd;stroke:none"
         d="m 59.602,416.402 0,-352 361.601,0 0,16 -345.601,0 0,96 345.601,0 0,16 -345.601,0 0,96 345.601,0 0,16 -345.601,0 0,96 345.601,0 0,16 -361.601,0 z" /></g></g></svg>