<?xml version="1.0" encoding="UTF-8" standalone="no"?>
<svg
   xmlns:dc="http://purl.org/dc/elements/1.1/"
   xmlns:cc="http://creativecommons.org/ns#"
   xmlns:rdf="http://www.w3.org/1999/02/22-rdf-syntax-ns#"
   xmlns:svg="http://www.w3.org/2000/svg"
   xmlns="http://www.w3.org/2000/svg"
   viewBox="0 0 600.99628 600.99628"
   height="600.99628"
   width="600.99628"
   xml:space="preserve"
   version="1.1"
   id="svg3989"><metadata
     id="metadata3995"><rdf:RDF><cc:Work
         rdf:about=""><dc:format>image/svg+xml</dc:format><dc:type
           rdf:resource="http://purl.org/dc/dcmitype/StillImage" /><dc:title></dc:title></cc:Work></rdf:RDF></metadata><defs
     id="defs3993" /><g
     transform="matrix(1.25,0,0,-1.25,0,600.99628)"
     id="g3997"><g
       id="g3999"><path
         id="path4001"
         style="fill:#ffffff;fill-opacity:1;fill-rule:nonzero;stroke:none"
         d="M 32.195,480.402 C 14.66,480.402 0.402,466.133 0.402,448.61 l 0,-416.415 C 0.402,14.66 14.66,0.402 32.195,0.402 l 416.414,0 c 17.524,0 31.793,14.258 31.793,31.793 l 0,416.415 c 0,17.523 -14.269,31.792 -31.793,31.792 l -416.414,0 z" /><path
         id="path4003"
         style="fill:#000000;fill-opacity:1;fill-rule:nonzero;stroke:none"
         d="M 32.203,480.797 C 14.449,480.797 0,466.356 0,448.617 L 0,32.203 C 0,14.453 14.449,0 32.203,0 l 416.414,0 c 17.738,0 32.18,14.453 32.18,32.203 l 0,416.414 c 0,17.739 -14.442,32.18 -32.18,32.18 l -416.414,0 z m -0.008,-0.395 416.414,0 c 17.52,0 31.793,-14.273 31.793,-31.792 l 0,-416.415 c 0,-17.535 -14.273,-31.793 -31.793,-31.793 l -416.414,0 C 14.66,0.402 0.402,14.66 0.402,32.195 l 0,416.415 c 0,17.519 14.258,31.792 31.793,31.792 z" /><path
         id="path4005"
         style="fill:#000000;fill-opacity:1;fill-rule:nonzero;stroke:none"
         d="m 32.195,472.625 c -13.273,0 -24.027,-10.754 -24.027,-24.015 l 0,-416.415 C 8.168,18.922 18.922,8.168 32.195,8.168 l 416.414,0 c 13.274,0 24.016,10.754 24.016,24.027 l 0,416.415 c 0,13.261 -10.742,24.015 -24.016,24.015 l -416.414,0 z m 0,-12.015 416.414,0 c 6.629,0 12.012,-5.368 12.012,-12 l 0,-416.415 c 0,-6.644 -5.383,-12.015 -12.012,-12.015 l -416.414,0 c -6.633,0 -12.015,5.371 -12.015,12.015 l 0,416.415 c 0,6.632 5.382,12 12.015,12 z" /><path
         id="path4007"
         style="fill:#000000;fill-opacity:1;fill-rule:nonzero;stroke:none"
         d="m 63.984,359.813 9.094,0 0,30.398 c 0,4.008 1.156,6.238 4.543,6.238 2.856,0 4.457,-2.05 4.457,-5.347 l 0,-31.289 9.094,0 0,34.675 c 0,8.11 -4.813,11.051 -9.36,11.051 -4.191,0 -6.683,-2.047 -8.558,-4.902 l -0.176,0 0,4.371 -9.094,0 0,-45.195 z" /><path
         id="path4009"
         style="fill:#000000;fill-opacity:1;fill-rule:nonzero;stroke:none"
         d="m 124.215,405.008 -9.09,0 0,-30.398 c 0,-4.012 -1.16,-6.239 -4.547,-6.239 -2.851,0 -4.457,2.051 -4.457,5.348 l 0,31.289 -9.09,0 0,-34.676 c 0,-8.113 4.813,-11.055 9.36,-11.055 4.187,0 6.683,2.051 8.554,4.903 l 0.18,0 0,-4.367 9.09,0 0,45.195 z" /><path
         id="path4011"
         style="fill:#000000;fill-opacity:1;fill-rule:nonzero;stroke:none"
         d="m 130.074,359.813 9.094,0 0,26.832 c 0,7.398 5.437,9.804 9.27,9.804 0.98,0 1.871,-0.179 2.761,-0.535 l 0,9.625 c -5.258,0 -8.289,-2.047 -12.031,-5.347 l 0,4.816 -9.094,0 0,-45.195 z" /><path
         id="path4013"
         style="fill:#000000;fill-opacity:1;fill-rule:nonzero;stroke:none"
         d="m 169.734,359.813 9.094,0 0,45.195 -9.094,0 0,-45.195 z m 0,54.375 9.094,0 0,9.089 -9.094,0 0,-9.089 z" /><path
         id="path4015"
         style="fill:#000000;fill-opacity:1;fill-rule:nonzero;stroke:none"
         d="m 186.273,359.813 9.094,0 0,30.398 c 0,4.008 1.156,6.238 4.543,6.238 2.856,0 4.457,-2.05 4.457,-5.347 l 0,-31.289 9.094,0 0,34.675 c 0,8.11 -4.813,11.051 -9.359,11.051 -4.192,0 -6.684,-2.047 -8.559,-4.902 l -0.176,0 0,4.371 -9.094,0 0,-45.195 z" /><path
         id="path4017"
         style="fill:#000000;fill-opacity:1;fill-rule:nonzero;stroke:none"
         d="m 220.918,359.813 9.094,0 0,30.398 c 0,4.008 1.156,6.238 4.547,6.238 2.851,0 4.457,-2.05 4.457,-5.347 l 0,-31.289 9.089,0 0,34.675 c 0,8.11 -4.812,11.051 -9.359,11.051 -4.187,0 -6.684,-2.047 -8.558,-4.902 l -0.176,0 0,4.371 -9.094,0 0,-45.195 z" /><path
         id="path4019"
         style="fill:#000000;fill-opacity:1;fill-rule:nonzero;stroke:none"
         d="m 281.859,378.977 0,12.48 c 0,7.934 -5.171,14.082 -13.55,14.082 -5.524,0 -9.715,-2.582 -11.852,-6.504 -1.25,-2.32 -1.695,-5.527 -1.695,-9.183 l 0,-14.883 c 0,-3.656 0.445,-6.863 1.695,-9.184 2.137,-3.922 6.328,-6.508 11.852,-6.508 4.191,0 7.488,1.516 9.894,4.012 2.32,2.406 3.656,5.883 3.656,9.629 l -9.093,0 c -0.176,-1.961 -0.981,-4.547 -4.457,-4.547 -2.762,0 -4.454,1.606 -4.454,4.457 l 0,6.149 18.004,0 z m -18.004,12.3 c 0,3.391 1.692,5.172 4.454,5.172 2.765,0 4.457,-1.781 4.457,-5.172 l 0,-5.167 -8.911,0 0,5.167 z" /><path
         id="path4021"
         style="fill:#000000;fill-opacity:1;fill-rule:nonzero;stroke:none"
         d="m 285.441,359.813 9.094,0 0,26.832 c 0,7.398 5.438,9.804 9.27,9.804 0.98,0 1.871,-0.179 2.761,-0.535 l 0,9.625 c -5.257,0 -8.289,-2.047 -12.031,-5.347 l 0,4.816 -9.094,0 0,-45.195 z" /><path
         id="path4023"
         style="fill:#000000;fill-opacity:1;fill-rule:nonzero;stroke:none"
         d="m 308.562,359.813 9.094,0 0,30.398 c 0,4.008 1.156,6.238 4.547,6.238 2.852,0 4.453,-2.05 4.453,-5.347 l 0,-31.289 9.094,0 0,34.675 c 0,8.11 -4.812,11.051 -9.359,11.051 -4.188,0 -6.684,-2.047 -8.559,-4.902 l -0.176,0 0,22.64 -9.094,0 0,-63.464 z" /><path
         id="path4025"
         style="fill:#000000;fill-opacity:1;fill-rule:nonzero;stroke:none"
         d="m 358.812,359.813 9.09,0 0,31.464 c 0,9.45 -6.058,14.262 -13.636,14.262 -4.102,0 -7.489,-1.426 -9.895,-3.832 -2.406,-2.406 -3.832,-5.793 -4.101,-9.805 l 8.824,0 c 0.535,2.942 2.855,4.547 5.172,4.547 3.386,0 4.546,-2.316 4.546,-5.347 l 0,-4.727 c -1.871,0.09 -3.121,0.27 -4.367,0.27 -11.41,0 -14.351,-4.993 -14.351,-15.332 0,-9.985 5.613,-12.036 9.804,-12.036 4.368,0 6.329,1.875 8.735,5.172 l 0.179,0 0,-4.636 z m 0,13.281 c 0,-3.652 -1.871,-5.793 -4.902,-5.793 -2.941,0 -4.726,2.316 -4.726,5.793 0,4.816 3.211,6.418 7.132,6.418 0.801,0 1.516,-0.086 2.496,-0.266 l 0,-6.152 z" /><path
         id="path4027"
         style="fill:#000000;fill-opacity:1;fill-rule:nonzero;stroke:none"
         d="m 374.152,371.938 c 0,-10.52 5.168,-12.661 13.547,-12.661 l 0,8.559 c -3.476,0.356 -4.457,1.336 -4.457,4.723 l 0,50.718 -9.09,0 0,-51.339 z" /><path
         id="path4029"
         style="fill:#000000;fill-opacity:1;fill-rule:nonzero;stroke:none"
         d="m 389.625,359.813 9.094,0 0,4.101 c 2.316,-2.586 4.097,-4.637 8.644,-4.637 3.657,0 6.328,1.34 7.934,4.282 1.07,1.961 1.515,4.722 1.515,9.715 l 0,17.203 c 0,6.508 -0.269,9.093 -1.425,10.965 -1.516,2.406 -3.746,4.097 -8.114,4.097 -3.566,0 -6.418,-1.691 -8.378,-4.633 l -0.176,0 0,22.371 -9.094,0 0,-63.464 z m 18.094,14.707 c 0,-3.653 -1.336,-6.149 -4.457,-6.149 -2.762,0 -4.543,2.317 -4.543,5.617 l 0,17.559 c 0,2.852 1.961,4.902 4.543,4.902 3.476,0 4.457,-2.496 4.457,-5.347 l 0,-16.582 z" /><path
         id="path4031"
         style="fill:#000000;fill-opacity:1;fill-rule:nonzero;stroke:none"
         d="m 128.613,268.156 c 1.16,-10.339 8.024,-13.55 13.551,-13.55 9.625,0 13.637,7.132 13.637,13.281 l 0,50.719 -9.094,0 0,-4.102 c -2.316,2.586 -4.098,4.637 -8.555,4.637 -4.367,0 -6.597,-1.692 -8.113,-4.102 -1.156,-1.871 -1.426,-4.457 -1.426,-10.961 l 0,-17.203 c 0,-4.992 0.446,-7.758 1.516,-9.719 1.605,-2.941 4.277,-4.277 7.933,-4.277 3.653,0 6.508,1.695 8.469,4.637 l 0.176,0 0,-8.914 c 0,-2.852 -1.246,-4.903 -4.187,-4.903 -3.122,0 -4.727,2.317 -4.813,4.457 l -9.094,0 z m 9.094,35.743 c 0,3.656 1.336,6.152 4.457,6.152 2.762,0 4.543,-2.32 4.543,-5.617 l 0,-17.559 c 0,-2.855 -1.961,-4.902 -4.543,-4.902 -3.476,0 -4.457,2.492 -4.457,5.347 l 0,16.579 z" /><path
         id="path4033"
         style="fill:#000000;fill-opacity:1;fill-rule:nonzero;stroke:none"
         d="m 187.953,292.578 0,12.481 c 0,7.933 -5.168,14.082 -13.547,14.082 -5.527,0 -9.718,-2.586 -11.855,-6.508 -1.25,-2.316 -1.696,-5.523 -1.696,-9.18 l 0,-14.886 c 0,-3.653 0.446,-6.864 1.696,-9.18 2.137,-3.922 6.328,-6.508 11.855,-6.508 4.188,0 7.485,1.516 9.895,4.012 2.316,2.406 3.652,5.883 3.652,9.625 l -9.09,0 c -0.179,-1.961 -0.98,-4.543 -4.457,-4.543 -2.765,0 -4.457,1.601 -4.457,4.457 l 0,6.148 18.004,0 z m -18.004,12.301 c 0,3.387 1.692,5.172 4.457,5.172 2.762,0 4.457,-1.785 4.457,-5.172 l 0,-5.168 -8.914,0 0,5.168 z" /><path
         id="path4035"
         style="fill:#000000;fill-opacity:1;fill-rule:nonzero;stroke:none"
         d="m 194.738,273.414 9.09,0 0,12.656 4.367,6.864 8.203,-19.52 9.891,0 -13.012,26.828 10.785,18.364 -9.093,0 -10.961,-19.7 -0.18,0 0,37.973 -9.09,0 0,-63.465 z" /><path
         id="path4037"
         style="fill:#000000;fill-opacity:1;fill-rule:nonzero;stroke:none"
         d="m 255.504,292.578 0,12.481 c 0,7.933 -5.172,14.082 -13.551,14.082 -5.527,0 -9.715,-2.586 -11.855,-6.508 -1.246,-2.316 -1.692,-5.523 -1.692,-9.18 l 0,-14.886 c 0,-3.653 0.446,-6.864 1.692,-9.18 2.14,-3.922 6.328,-6.508 11.855,-6.508 4.192,0 7.488,1.516 9.895,4.012 2.316,2.406 3.656,5.883 3.656,9.625 l -9.094,0 c -0.18,-1.961 -0.98,-4.543 -4.457,-4.543 -2.762,0 -4.457,1.601 -4.457,4.457 l 0,6.148 18.008,0 z m -18.008,12.301 c 0,3.387 1.695,5.172 4.457,5.172 2.766,0 4.457,-1.785 4.457,-5.172 l 0,-5.168 -8.914,0 0,5.168 z" /><path
         id="path4039"
         style="fill:#000000;fill-opacity:1;fill-rule:nonzero;stroke:none"
         d="m 260.684,273.414 9.093,0 0,30.395 c 0,4.011 1.161,6.242 4.547,6.242 2.852,0 4.457,-2.051 4.457,-5.352 l 0,-31.285 9.09,0 0,34.676 c 0,8.109 -4.812,11.051 -9.359,11.051 -4.188,0 -6.684,-2.051 -8.555,-4.903 l -0.18,0 0,4.368 -9.093,0 0,-45.192 z" /><path
         id="path4041"
         style="fill:#000000;fill-opacity:1;fill-rule:nonzero;stroke:none"
         d="m 292.129,273.414 9.094,0 0,30.395 c 0,4.011 1.156,6.242 4.547,6.242 2.851,0 4.457,-2.051 4.457,-5.352 l 0,-31.285 9.089,0 0,34.676 c 0,8.109 -4.812,11.051 -9.359,11.051 -4.187,0 -6.684,-2.051 -8.559,-4.903 l -0.175,0 0,4.368 -9.094,0 0,-45.192 z" /><path
         id="path4043"
         style="fill:#000000;fill-opacity:1;fill-rule:nonzero;stroke:none"
         d="m 328.555,302.652 23.629,0 0,-9.094 -23.629,0 0,9.094 z" /><path
         id="path4045"
         style="fill:#000000;fill-opacity:1;fill-rule:nonzero;stroke:none"
         d="m 102.723,172.613 25.047,0 0,8.559 -14.708,0 14.708,29.414 0,7.219 -23.887,0 0,-8.02 13.547,0 -14.707,-29.953 0,-7.219 z" /><path
         id="path4047"
         style="fill:#000000;fill-opacity:1;fill-rule:nonzero;stroke:none"
         d="m 157.848,191.777 0,12.481 c 0,7.934 -5.168,14.082 -13.547,14.082 -5.528,0 -9.715,-2.582 -11.856,-6.508 -1.246,-2.316 -1.691,-5.523 -1.691,-9.18 l 0,-14.886 c 0,-3.653 0.445,-6.864 1.691,-9.18 2.141,-3.922 6.328,-6.508 11.856,-6.508 4.187,0 7.488,1.516 9.894,4.012 2.317,2.406 3.653,5.883 3.653,9.629 l -9.09,0 c -0.18,-1.961 -0.981,-4.547 -4.457,-4.547 -2.762,0 -4.457,1.605 -4.457,4.457 l 0,6.148 18.004,0 z m -18.004,12.301 c 0,3.387 1.695,5.172 4.457,5.172 2.761,0 4.457,-1.785 4.457,-5.172 l 0,-5.168 -8.914,0 0,5.168 z" /><path
         id="path4049"
         style="fill:#000000;fill-opacity:1;fill-rule:nonzero;stroke:none"
         d="m 163.031,172.613 9.094,0 0,45.192 -9.094,0 0,-45.192 z m 0,54.375 9.094,0 0,9.09 -9.094,0 0,-9.09 z" /><path
         id="path4051"
         style="fill:#000000;fill-opacity:1;fill-rule:nonzero;stroke:none"
         d="m 187.598,204.078 c 0,3.387 1.695,5.172 4.457,5.172 2.761,0 4.457,-1.695 4.457,-5.348 l 9.093,0 c 0,8.379 -5.171,14.438 -13.55,14.438 -5.528,0 -9.715,-2.582 -11.856,-6.508 -1.246,-2.316 -1.691,-5.523 -1.691,-9.18 l 0,-14.886 c 0,-3.653 0.445,-6.864 1.691,-9.18 2.141,-3.922 6.328,-6.508 11.856,-6.508 4.191,0 7.488,1.516 9.894,4.012 2.317,2.406 3.656,5.883 3.656,9.629 l -9.093,0 c -0.18,-1.961 -0.981,-4.547 -4.457,-4.547 -2.762,0 -4.457,1.605 -4.457,4.457 l 0,18.449 z" /><path
         id="path4053"
         style="fill:#000000;fill-opacity:1;fill-rule:nonzero;stroke:none"
         d="m 211.051,172.613 9.09,0 0,30.395 c 0,4.012 1.16,6.242 4.547,6.242 2.851,0 4.457,-2.051 4.457,-5.348 l 0,-31.289 9.089,0 0,34.676 c 0,8.11 -4.812,11.051 -9.359,11.051 -4.187,0 -6.684,-2.051 -8.555,-4.902 l -0.179,0 0,22.64 -9.09,0 0,-63.465 z" /><path
         id="path4055"
         style="fill:#000000;fill-opacity:1;fill-rule:nonzero;stroke:none"
         d="m 244.094,172.613 9.094,0 0,30.395 c 0,4.012 1.156,6.242 4.542,6.242 2.856,0 4.458,-2.051 4.458,-5.348 l 0,-31.289 9.093,0 0,34.676 c 0,8.11 -4.812,11.051 -9.359,11.051 -4.192,0 -6.688,-2.051 -8.559,-4.902 l -0.175,0 0,4.367 -9.094,0 0,-45.192 z" /><path
         id="path4057"
         style="fill:#000000;fill-opacity:1;fill-rule:nonzero;stroke:none"
         d="m 301.836,191.777 0,12.481 c 0,7.934 -5.172,14.082 -13.551,14.082 -5.527,0 -9.715,-2.582 -11.855,-6.508 -1.246,-2.316 -1.692,-5.523 -1.692,-9.18 l 0,-14.886 c 0,-3.653 0.446,-6.864 1.692,-9.18 2.14,-3.922 6.328,-6.508 11.855,-6.508 4.192,0 7.488,1.516 9.895,4.012 2.316,2.406 3.656,5.883 3.656,9.629 l -9.094,0 c -0.18,-1.961 -0.98,-4.547 -4.457,-4.547 -2.762,0 -4.457,1.605 -4.457,4.457 l 0,6.148 18.008,0 z m -18.008,12.301 c 0,3.387 1.695,5.172 4.457,5.172 2.762,0 4.457,-1.785 4.457,-5.172 l 0,-5.168 -8.914,0 0,5.168 z" /><path
         id="path4059"
         style="fill:#000000;fill-opacity:1;fill-rule:nonzero;stroke:none"
         d="m 308.617,217.805 -4.547,0 0,-7.129 4.547,0 0,-27.453 c 0,-4.817 2.762,-10.61 10.965,-10.61 l 3.742,0 0,8.559 c -4.012,0 -5.617,0.266 -5.617,4.457 l 0,25.047 5.617,0 0,7.129 -5.617,0 0,13.726 -9.09,0 0,-13.726 z" /><path
         id="path4061"
         style="fill:#000000;fill-opacity:1;fill-rule:nonzero;stroke:none"
         d="m 351.766,191.777 0,12.481 c 0,7.934 -5.168,14.082 -13.547,14.082 -5.528,0 -9.719,-2.582 -11.856,-6.508 -1.25,-2.316 -1.695,-5.523 -1.695,-9.18 l 0,-14.886 c 0,-3.653 0.445,-6.864 1.695,-9.18 2.137,-3.922 6.328,-6.508 11.856,-6.508 4.187,0 7.484,1.516 9.894,4.012 2.317,2.406 3.653,5.883 3.653,9.629 l -9.09,0 c -0.18,-1.961 -0.981,-4.547 -4.457,-4.547 -2.766,0 -4.457,1.605 -4.457,4.457 l 0,6.148 18.004,0 z m -18.004,12.301 c 0,3.387 1.691,5.172 4.457,5.172 2.761,0 4.457,-1.785 4.457,-5.172 l 0,-5.168 -8.914,0 0,5.168 z" /><path
         id="path4063"
         style="fill:#000000;fill-opacity:1;fill-rule:nonzero;stroke:none"
         d="m 356.949,172.613 9.09,0 0,26.832 c 0,7.399 5.438,9.805 9.273,9.805 0.981,0 1.872,-0.18 2.762,-0.535 l 0,9.625 c -5.258,0 -8.289,-2.051 -12.035,-5.348 l 0,4.813 -9.09,0 0,-45.192 z" /><path
         id="path4065"
         style="fill:#000000;fill-opacity:1;fill-rule:nonzero;stroke:none"
         d="m 84.812,76.613 9.09,0 0,24.782 4.637,0 c 6.684,0 10.695,2.496 13.191,6.593 2.141,3.477 2.586,7.223 2.586,12.75 0,7.575 -0.98,11.586 -4.101,14.883 -3.117,3.301 -6.774,4.457 -11.766,4.457 l -13.637,0 0,-63.465 z m 9.09,54.911 4.727,0 c 7.129,0 7.129,-4.903 7.129,-10.875 0,-6.329 -0.086,-10.7 -7.485,-10.7 l -4.371,0 0,21.575 z" /><path
         id="path4067"
         style="fill:#000000;fill-opacity:1;fill-rule:nonzero;stroke:none"
         d="m 136.266,76.613 9.093,0 0,31.465 c 0,9.449 -6.062,14.262 -13.64,14.262 -4.098,0 -7.485,-1.426 -9.891,-3.832 -2.41,-2.406 -3.836,-5.793 -4.101,-9.805 l 8.824,0 c 0.535,2.942 2.851,4.547 5.168,4.547 3.39,0 4.547,-2.32 4.547,-5.348 l 0,-4.726 c -1.871,0.09 -3.118,0.269 -4.368,0.269 -11.41,0 -14.351,-4.992 -14.351,-15.332 0,-9.984 5.617,-12.035 9.805,-12.035 4.367,0 6.328,1.871 8.738,5.172 l 0.176,0 0,-4.637 z m 0,13.282 c 0,-3.653 -1.871,-5.793 -4.903,-5.793 -2.941,0 -4.722,2.316 -4.722,5.793 0,4.812 3.207,6.418 7.129,6.418 0.804,0 1.515,-0.09 2.496,-0.266 l 0,-6.152 z" /><path
         id="path4069"
         style="fill:#000000;fill-opacity:1;fill-rule:nonzero;stroke:none"
         d="m 150.543,76.613 9.09,0 0,26.832 c 0,7.399 5.437,9.805 9.269,9.805 0.981,0 1.871,-0.18 2.766,-0.535 l 0,9.625 c -5.262,0 -8.293,-2.051 -12.035,-5.348 l 0,4.813 -9.09,0 0,-45.192 z" /><path
         id="path4071"
         style="fill:#000000;fill-opacity:1;fill-rule:nonzero;stroke:none"
         d="m 173.664,76.613 9.09,0 0,12.657 4.367,6.863 8.203,-19.52 9.895,0 -13.016,26.832 10.785,18.36 -9.09,0 -10.964,-19.699 -0.18,0 0,37.972 -9.09,0 0,-63.465 z" /><path
         id="path4073"
         style="fill:#000000;fill-opacity:1;fill-rule:nonzero;stroke:none"
         d="m 209.293,76.613 9.09,0 0,38.063 6.777,0 0,7.129 -6.777,0 0,6.597 c 0,1.961 0.98,3.122 2.676,3.122 l 4.101,0 0,8.554 -4.191,0 c -5.883,0 -11.676,-3.386 -11.676,-12.121 l 0,-6.152 -4.457,0 0,-7.129 4.457,0 0,-38.063 z" /><path
         id="path4075"
         style="fill:#000000;fill-opacity:1;fill-rule:nonzero;stroke:none"
         d="m 227.445,88.738 c 0,-10.519 5.168,-12.66 13.547,-12.66 l 0,8.559 c -3.472,0.355 -4.453,1.336 -4.453,4.723 l 0,50.718 -9.094,0 0,-51.34 z" /><path
         id="path4077"
         style="fill:#000000;fill-opacity:1;fill-rule:nonzero;stroke:none"
         d="m 261.723,76.613 9.089,0 0,31.465 c 0,9.449 -6.058,14.262 -13.636,14.262 -4.098,0 -7.488,-1.426 -9.895,-3.832 -2.406,-2.406 -3.832,-5.793 -4.097,-9.805 l 8.824,0 c 0.535,2.942 2.851,4.547 5.168,4.547 3.386,0 4.547,-2.32 4.547,-5.348 l 0,-4.726 c -1.871,0.09 -3.121,0.269 -4.368,0.269 -11.41,0 -14.351,-4.992 -14.351,-15.332 0,-9.984 5.617,-12.035 9.805,-12.035 4.367,0 6.328,1.871 8.734,5.172 l 0.18,0 0,-4.637 z m 0,13.282 c 0,-3.653 -1.871,-5.793 -4.903,-5.793 -2.941,0 -4.722,2.316 -4.722,5.793 0,4.812 3.207,6.418 7.129,6.418 0.8,0 1.515,-0.09 2.496,-0.266 l 0,-6.152 z m -15.688,38.953 8.024,0 0,9.094 -8.024,0 0,-9.094 z m 14.438,0 8.023,0 0,9.094 -8.023,0 0,-9.094 z" /><path
         id="path4079"
         style="fill:#000000;fill-opacity:1;fill-rule:nonzero;stroke:none"
         d="m 284.023,108.078 c 0,3.387 1.696,5.172 4.457,5.172 2.762,0 4.458,-1.695 4.458,-5.348 l 9.093,0 c 0,8.379 -5.172,14.438 -13.551,14.438 -5.527,0 -9.714,-2.582 -11.855,-6.508 -1.246,-2.316 -1.691,-5.523 -1.691,-9.18 l 0,-14.886 c 0,-3.653 0.445,-6.864 1.691,-9.18 2.141,-3.922 6.328,-6.508 11.855,-6.508 4.192,0 7.489,1.516 9.895,4.012 2.316,2.406 3.656,5.883 3.656,9.629 l -9.093,0 c -0.18,-1.961 -0.981,-4.547 -4.458,-4.547 -2.761,0 -4.457,1.605 -4.457,4.457 l 0,18.449 z" /><path
         id="path4081"
         style="fill:#000000;fill-opacity:1;fill-rule:nonzero;stroke:none"
         d="m 304.273,76.613 9.094,0 0,30.395 c 0,4.012 1.16,6.242 4.547,6.242 2.852,0 4.457,-2.051 4.457,-5.348 l 0,-31.289 9.09,0 0,34.676 c 0,8.11 -4.813,11.051 -9.359,11.051 -4.188,0 -6.684,-2.051 -8.555,-4.902 l -0.18,0 0,22.64 -9.094,0 0,-63.465 z" /><path
         id="path4083"
         style="fill:#000000;fill-opacity:1;fill-rule:nonzero;stroke:none"
         d="m 363.617,95.777 0,12.481 c 0,7.934 -5.172,14.082 -13.551,14.082 -5.527,0 -9.714,-2.582 -11.855,-6.508 -1.246,-2.316 -1.691,-5.523 -1.691,-9.18 l 0,-14.886 c 0,-3.653 0.445,-6.864 1.691,-9.18 2.141,-3.922 6.328,-6.508 11.855,-6.508 4.192,0 7.489,1.516 9.895,4.012 2.316,2.406 3.656,5.883 3.656,9.629 l -9.094,0 c -0.179,-1.961 -0.98,-4.547 -4.457,-4.547 -2.761,0 -4.457,1.605 -4.457,4.457 l 0,6.148 18.008,0 z m -18.008,12.301 c 0,3.387 1.696,5.172 4.457,5.172 2.762,0 4.457,-1.785 4.457,-5.172 l 0,-5.168 -8.914,0 0,5.168 z" /><path
         id="path4085"
         style="fill:#000000;fill-opacity:1;fill-rule:nonzero;stroke:none"
         d="m 368.797,76.613 9.094,0 0,30.395 c 0,4.012 1.156,6.242 4.547,6.242 2.851,0 4.457,-2.051 4.457,-5.348 l 0,-31.289 9.089,0 0,34.676 c 0,8.11 -4.812,11.051 -9.359,11.051 -4.187,0 -6.684,-2.051 -8.559,-4.902 l -0.175,0 0,4.367 -9.094,0 0,-45.192 z" /></g></g></svg>