<?xml version="1.0" encoding="UTF-8" standalone="no"?>
<svg
   xmlns:dc="http://purl.org/dc/elements/1.1/"
   xmlns:cc="http://creativecommons.org/ns#"
   xmlns:rdf="http://www.w3.org/1999/02/22-rdf-syntax-ns#"
   xmlns:svg="http://www.w3.org/2000/svg"
   xmlns="http://www.w3.org/2000/svg"
   viewBox="0 0 600 330"
   height="330"
   width="600"
   xml:space="preserve"
   version="1.1"
   id="svg13911"><metadata
     id="metadata13917"><rdf:RDF><cc:Work
         rdf:about=""><dc:format>image/svg+xml</dc:format><dc:type
           rdf:resource="http://purl.org/dc/dcmitype/StillImage" /><dc:title></dc:title></cc:Work></rdf:RDF></metadata><defs
     id="defs13915"><clipPath
       id="clipPath13927"
       clipPathUnits="userSpaceOnUse"><path
         id="path13929"
         d="M 0,0 480,0 480,264 0,264 0,0 Z" /></clipPath></defs><g
     transform="matrix(1.25,0,0,-1.25,0,330)"
     id="g13919"><g
       id="g13921"><g
         id="g13923"><g
           id="g13925" /><g
           id="g13931"><g
             id="g13933"
             clip-path="url(#clipPath13927)"><g
               id="g13935"><path
                 id="path13937"
                 style="fill:#ffffff;fill-opacity:1;fill-rule:nonzero;stroke:none"
                 d="m 31.996,263.758 c -17.512,0 -31.754,-14.25 -31.754,-31.766 l 0,-199.996 C 0.242,14.484 14.484,0.242 31.996,0.242 l 416.008,0 c 17.512,0 31.754,14.242 31.754,31.754 l 0,199.996 c 0,17.516 -14.242,31.766 -31.754,31.766" /><path
                 id="path13939"
                 style="fill:#000000;fill-opacity:1;fill-rule:nonzero;stroke:none"
                 d="M 31.996,0.469 C 14.613,0.469 0.48,14.613 0.48,31.996 l 0,199.996 c 0,17.383 14.133,31.528 31.516,31.528 l 416.008,0 c 17.383,0 31.516,-14.145 31.516,-31.528 l 0,-199.996 c 0,-17.383 -14.133,-31.527 -31.516,-31.527 l -416.008,0 z M 448.004,264 31.996,264 C 14.32,264 0,249.672 0,231.992 L 0,31.996 C 0,14.328 14.32,0 31.996,0 L 448.004,0 C 465.672,0 480,14.328 480,31.996 l 0,199.996 C 480,249.672 465.672,264 448.004,264" /></g></g></g></g></g><g
       id="g13941"><path
         id="path13943"
         style="fill:#000000;fill-opacity:1;fill-rule:nonzero;stroke:none"
         d="m 31.996,19.996 416.008,0 c 6.629,0 12,5.371 12,12 l 0,199.996 c 0,6.629 -5.371,12 -12,12 l -416.008,0 c -6.629,0 -12,-5.371 -12,-12 l 0,-199.996 c 0,-6.629 5.371,-12 12,-12 z m 0,-12 c -13.258,0 -24,10.742 -24,24 l 0,199.996 c 0,13.258 10.742,24 24,24 l 416.008,0 c 13.258,0 24,-10.742 24,-24 l 0,-199.996 c 0,-13.258 -10.742,-24 -24,-24" /><path
         id="path13945"
         style="fill:#000000;fill-opacity:1;fill-rule:nonzero;stroke:none"
         d="m 64.801,122.391 12.801,0 0,-4.805 c 0,-4.856 3.937,-8.793 8.793,-8.793 l 0.8,0 c 4.868,0 8.805,3.937 8.805,8.793 l 0,9.605 c 0,3.59 -2.176,6.817 -5.492,8.161 L 79.09,139.98 c -8.152,3.305 -13.488,11.211 -13.488,20.016 l 0,5.602 c 0,11.925 9.668,21.593 21.593,21.593 11.934,0 21.606,-9.668 21.606,-21.593 l 0,-4.801 -12.801,0 0,4.801 c 0,4.859 -3.937,8.797 -8.805,8.797 -4.859,0 -8.797,-3.938 -8.797,-8.797 l 0,-5.602 c 0,-3.586 2.18,-6.812 5.493,-8.16 l 11.422,-4.625 c 8.148,-3.305 13.488,-11.223 13.488,-20.02 l 0,-9.605 c 0,-11.922 -9.672,-21.59 -21.606,-21.59 l -0.8,0 c -11.922,0 -21.594,9.668 -21.594,21.59" /><path
         id="path13947"
         style="fill:#000000;fill-opacity:1;fill-rule:nonzero;stroke:none"
         d="m 142.402,96.793 -6.398,0 c -7.953,0 -14.406,6.453 -14.406,14.395 l 0,39.207 -6.399,0 0,10.402 6.399,0 0,19.199 12.797,0 0,-19.199 8.007,0 0,-10.402 -8.007,0 0,-37.598 c 0,-2.211 1.796,-4.004 4.003,-4.004 l 4.004,0" /><path
         id="path13949"
         style="fill:#000000;fill-opacity:1;fill-rule:nonzero;stroke:none"
         d="m 153.605,96.793 0,64.004 12.797,0 0,-7.231 c 4.102,5.075 10.274,8.028 16.805,8.028 l 0,-13.442 c -6.719,2.207 -13.949,-1.445 -16.16,-8.16 -0.426,-1.293 -0.645,-2.637 -0.645,-3.996 l 0,-39.203" /><path
         id="path13951"
         style="fill:#000000;fill-opacity:1;fill-rule:nonzero;stroke:none"
         d="m 200.805,134.391 12.8,0 0,8.007 c 0,3.532 -2.867,6.399 -6.398,6.399 -3.547,0 -6.402,-2.867 -6.402,-6.399 l 0,-8.007 z m 25.597,-19.2 c 0,-10.597 -8.597,-19.195 -19.195,-19.195 -10.613,0 -19.199,8.598 -19.199,19.195 l 0,27.207 c 0,10.598 8.586,19.196 19.199,19.196 10.598,0 19.195,-8.598 19.195,-19.196 l 0,-18.41 -25.597,0 0,-8.797 c 0,-3.531 2.855,-6.398 6.402,-6.398 3.531,0 6.398,2.867 6.398,6.398" /><path
         id="path13953"
         style="fill:#000000;fill-opacity:1;fill-rule:nonzero;stroke:none"
         d="m 276,96.793 -12.797,0 0,6.398 c -3.535,-6.628 -11.773,-9.132 -18.402,-5.601 -4.43,2.363 -7.196,6.98 -7.196,12 l 0,51.207 12.797,0 0,-45.606 c 0,-3.531 2.868,-6.398 6.399,-6.398 3.535,0 6.402,2.867 6.402,6.398 l 0,45.606 12.797,0" /><path
         id="path13955"
         style="fill:#000000;fill-opacity:1;fill-rule:nonzero;stroke:none"
         d="m 314.406,115.191 0,27.207 c 0,3.532 -2.875,6.399 -6.41,6.399 -3.523,0 -6.387,-2.867 -6.387,-6.399 l 0,-27.207 c 0,-3.531 2.864,-6.398 6.387,-6.398 3.535,0 6.41,2.867 6.41,6.398 z M 301.609,89.594 c 0,-3.531 2.864,-6.399 6.387,-6.399 3.535,0 6.41,2.868 6.41,6.399 l 0,13.597 c -3.531,-6.628 -11.781,-9.132 -18.398,-5.601 -4.43,2.363 -7.211,6.98 -7.211,12 l 0,38.406 c 0,7.508 6.094,13.598 13.609,13.598 5.02,0 9.625,-2.766 12,-7.196 l 0,6.399 12.801,0 0,-71.203 c 0,-10.61 -8.602,-19.196 -19.211,-19.196 -10.598,0 -19.199,8.586 -19.199,19.196" /><path
         id="path13957"
         style="fill:#000000;fill-opacity:1;fill-rule:nonzero;stroke:none"
         d="m 378.41,96.793 -12.808,0 0,6.398 c -3.536,-6.628 -11.77,-9.132 -18.399,-5.601 -4.433,2.363 -7.199,6.98 -7.199,12 l 0,51.207 12.797,0 0,-45.606 c 0,-3.531 2.867,-6.398 6.402,-6.398 3.531,0 6.399,2.867 6.399,6.398 l 0,45.606 12.808,0" /><path
         id="path13959"
         style="fill:#000000;fill-opacity:1;fill-rule:nonzero;stroke:none"
         d="m 415.199,96.793 -6.402,0 c -7.949,0 -14.395,6.453 -14.395,14.395 l 0,39.207 -6.398,0 0,10.402 6.398,0 0,19.199 12.801,0 0,-19.199 7.996,0 0,-10.402 -7.996,0 0,-37.598 c 0,-2.211 1.793,-4.004 4.004,-4.004 l 3.992,0" /></g></g></svg>