<?xml version="1.0" encoding="UTF-8" standalone="no"?>
<svg
   xmlns:dc="http://purl.org/dc/elements/1.1/"
   xmlns:cc="http://creativecommons.org/ns#"
   xmlns:rdf="http://www.w3.org/1999/02/22-rdf-syntax-ns#"
   xmlns:svg="http://www.w3.org/2000/svg"
   xmlns="http://www.w3.org/2000/svg"
   viewBox="0 0 330.00571 600"
   height="600"
   width="330.00571"
   xml:space="preserve"
   version="1.1"
   id="svg13272"><metadata
     id="metadata13278"><rdf:RDF><cc:Work
         rdf:about=""><dc:format>image/svg+xml</dc:format><dc:type
           rdf:resource="http://purl.org/dc/dcmitype/StillImage" /><dc:title></dc:title></cc:Work></rdf:RDF></metadata><defs
     id="defs13276" /><g
     transform="matrix(1.25,0,0,-1.25,0,600)"
     id="g13280"><g
       id="g13282"><path
         id="path13284"
         style="fill:#ffffff;fill-opacity:1;fill-rule:nonzero;stroke:none"
         d="m 32.004,479.77 c -17.52,0 -31.762,-14.254 -31.762,-31.762 l 0,-416.004 c 0,-17.52 14.242,-31.762 31.762,-31.762 l 200,0 c 17.516,0 31.762,14.242 31.762,31.762 l 0,416.004 c 0,17.508 -14.246,31.762 -31.762,31.762" /><path
         id="path13286"
         style="fill:#000000;fill-opacity:1;fill-rule:nonzero;stroke:none"
         d="M 32.004,0.469 C 14.621,0.469 0.48,14.609 0.48,31.992 l 0,416.016 c 0,17.383 14.141,31.523 31.524,31.523 l 200,0 c 17.379,0 31.519,-14.14 31.519,-31.523 l 0,-416.016 c 0,-17.383 -14.14,-31.523 -31.519,-31.523 l -200,0 z m 200,479.531 -200,0 C 14.324,480 0,465.676 0,448.008 L 0,31.992 C 0,14.324 14.324,0 32.004,0 l 200,0 c 17.676,0 32,14.324 32,31.992 l 0,416.016 c 0,17.668 -14.324,31.992 -32,31.992" /><path
         id="path13288"
         style="fill:#000000;fill-opacity:1;fill-rule:nonzero;stroke:none"
         d="M 32.004,7.996 C 18.742,7.996 7.996,18.742 7.996,32.004 l 0,416.004 c 0,13.25 10.746,23.996 24.008,23.996 l 200,0 c 13.258,0 24.004,-10.746 24.004,-23.996 l 0,-416.004 c 0,-13.262 -10.746,-24.008 -24.004,-24.008" /><path
         id="path13290"
         style="fill:#ffffff;fill-opacity:1;fill-rule:nonzero;stroke:none"
         d="M 32.004,20 C 25.379,20 20,25.367 20,32.004 l 0,416.004 C 20,454.633 25.379,460 32.004,460 l 200,0 c 6.633,0 12,-5.367 12,-11.992 l 0,-416.004 c 0,-6.637 -5.367,-12.004 -12,-12.004" /><path
         id="path13292"
         style="fill:#000000;fill-opacity:1;fill-rule:nonzero;stroke:none"
         d="m 178.422,356.797 0,56.008 8.008,0 0,-20.516 c 4.679,5.801 13.179,6.691 18.98,2.012 3.172,-2.563 5.012,-6.418 5.012,-10.504 l 0,-27 -7.996,0 0,24.508 c 0,4.418 -3.582,7.996 -7.996,7.996 -4.418,0 -8,-3.578 -8,-7.996 l 0,-24.508 -8.008,0 z m -8,6.008 c -6.348,-7.657 -17.699,-8.696 -25.344,-2.36 -4.117,3.434 -6.496,8.504 -6.496,13.856 l 0,5 c 0,9.945 8.055,18 17.996,18 5.356,0 10.426,-2.383 13.844,-6.5 l -6.152,-5.113 c -3.528,4.253 -9.832,4.839 -14.075,1.304 -2.289,-1.902 -3.617,-4.715 -3.617,-7.691 l 0,-5 c 0,-5.524 4.473,-10 10,-10 2.977,0 5.789,1.328 7.692,3.617 l 6.152,-5.113 z m -41.84,-6.008 -8,0 0,4.519 c -4.691,-5.8 -13.191,-6.707 -18.992,-2.015 -3.168,2.562 -5.012,6.422 -5.012,10.492 l 0,27.004 8,0 0,-24.496 c 0,-4.418 3.578,-8 8.008,-8 4.418,0 7.996,3.582 7.996,8 l 0,24.496 8,0 0,-40 z m -51.008,17.504 -11.5,0 c -2.758,0 -5,-2.242 -5,-5 0,-2.758 2.242,-5 5,-5 l 6.5,0 c 2.77,0 5,2.242 5,5 l 0,5 z m 8.008,-17.504 -8.008,0 0,4.129 c -1.406,-2.551 -4.086,-4.129 -6.992,-4.129 l -5,0 c -6.633,0 -12,5.379 -12,12 0,6.625 5.367,12.004 12,12.004 l 11.992,0 0,4.004 c 0,2.187 -1.566,4.05 -3.719,4.429 -2.824,0.493 -5.718,0.493 -8.546,0 -1.418,-0.254 -2.621,-1.156 -3.262,-2.437 l -6.324,5 c 1.898,2.812 4.859,4.734 8.203,5.32 3.738,0.653 7.562,0.653 11.304,0 5.981,-1.054 10.352,-6.246 10.352,-12.312" /><path
         id="path13294"
         style="fill:#000000;fill-opacity:1;fill-rule:nonzero;stroke:none"
         d="m 118.156,316.797 0,-6.922 -11.383,0 c -3.031,0 -5.71,-1.98 -6.613,-4.875 l -2.769,-8.969 61.832,0 2.597,6.922 -14.644,3.512 c -0.93,0.219 -1.5,1.156 -1.285,2.082 0.195,0.777 0.894,1.328 1.683,1.328 l 29.43,0 0,-6.922 -7.781,0 -2.598,-6.922 10.035,-22.472 c 18.18,5.914 37.711,-4.004 43.637,-22.188 5.926,-18.168 -4.004,-37.711 -22.172,-43.637 -18.184,-5.925 -37.723,4.004 -43.652,22.188 -0.399,1.246 -0.731,2.516 -1.004,3.797 l -14.543,0 c -1.957,0 -3.836,0.836 -5.137,2.289 l -40.93,45.398 -2.746,-8.89 c 17.598,-7.446 25.836,-27.758 18.375,-45.364 -7.445,-17.609 -27.758,-25.836 -45.363,-18.386 -17.609,7.457 -25.836,27.765 -18.387,45.375 6.418,15.148 22.617,23.695 38.75,20.425 l 10.059,32.481 c 1.797,5.801 7.164,9.75 13.226,9.75" /><path
         id="path13296"
         style="fill:#ffffff;fill-opacity:1;fill-rule:nonzero;stroke:none"
         d="m 160.57,233.719 28.547,0 c 1.914,0 3.457,1.554 3.457,3.465 0,0.48 -0.09,0.961 -0.297,1.41 l -12.769,28.59 c 14.656,4.359 30.07,-3.993 34.43,-18.661 4.359,-14.656 -4.008,-30.066 -18.665,-34.425 -14.656,-4.348 -30.078,4.004 -34.425,18.66 -0.106,0.32 -0.184,0.64 -0.278,0.961 z m -0.879,6.922 c 0,9.738 5.114,18.765 13.477,23.765 l 10.605,-23.765 -24.082,0 z m -13.843,0 17.308,46.156 7.176,-16.031 C 159.473,264.621 152.77,253.113 152.77,240.641 l -6.922,0 z m -64.407,27.277 -8.136,-26.246 c -0.559,-1.832 0.461,-3.766 2.289,-4.336 1.832,-0.563 3.765,0.457 4.324,2.285 l 8.125,26.25 c 13.937,-6.316 20.113,-22.726 13.797,-36.66 -6.313,-13.926 -22.723,-20.102 -36.656,-13.789 -13.926,6.316 -20.106,22.723 -13.789,36.648 5.218,11.524 17.585,18.043 30.046,15.848 z m 13.797,21.191 61.387,0 -18.031,-48.089" /><path
         id="path13298"
         style="fill:#000000;fill-opacity:1;fill-rule:nonzero;stroke:none"
         d="m 119.645,166.031 0,-8.824 -14.106,0 c -2.164,0 -4.109,-1.316 -4.922,-3.316 l -4.347,-10.801 14.152,0 c 2.312,0 4.476,-1.133 5.789,-3.031 l 10.996,-15.789 c 1.191,-1.707 1.57,-3.86 1.031,-5.86 l -1.168,-4.347 c -1.507,-5.653 1.844,-11.454 7.485,-12.965 1.097,-0.297 2.23,-0.41 3.363,-0.344 l 20.699,1.226 c 1.656,17.458 17.16,30.274 34.633,28.614 17.461,-1.668 30.273,-17.172 28.613,-34.633 C 220.207,78.5 204.703,65.688 187.23,67.344 173.594,68.637 162.313,78.547 159.27,91.91 l -18.446,0 c -9.234,0 -17.894,4.52 -23.168,12.106 L 94.141,137.793 89.598,126.512 C 104.816,117.758 110.047,98.34 101.305,83.137 92.563,67.93 73.137,62.688 57.93,71.43 42.723,80.172 37.484,99.598 46.223,114.805 c 7.074,12.289 21.433,18.41 35.195,14.988 l 11.02,27.391 c 2.152,5.343 7.332,8.847 13.101,8.847" /><path
         id="path13300"
         style="fill:#ffffff;fill-opacity:1;fill-rule:nonzero;stroke:none"
         d="m 197.301,91.91 0,12.348 -29.727,-1.754 c 1.957,12.519 13.684,21.09 26.203,19.133 12.516,-1.957 21.086,-13.684 19.129,-26.203 -1.957,-12.528 -13.683,-21.086 -26.203,-19.129 -8.558,1.328 -15.629,7.367 -18.293,15.605 l 28.891,0 z M 78.078,121.5 69.668,100.617 c -0.902,-2.265 0.195,-4.828 2.449,-5.742 2.266,-0.902 4.828,0.184 5.742,2.449 l 8.411,20.879 C 96.887,111.305 99.91,97.094 93.008,86.465 86.098,75.848 71.898,72.824 61.27,79.727 c -10.629,6.91 -13.637,21.109 -6.739,31.738 5.078,7.824 14.383,11.785 23.547,10.035" /><path
         id="path13302"
         style="fill:#000000;fill-opacity:1;fill-rule:nonzero;stroke:none"
         d="m 214.941,143.09 0,-8.832 -24.699,0 c -7.246,0 -14.316,-2.223 -20.242,-6.375 l -13.547,8.777 c -1.601,1.121 -1.992,3.328 -0.871,4.918 0.664,0.949 1.742,1.512 2.895,1.512" /></g></g></svg>