<?xml version="1.0" encoding="UTF-8" standalone="no"?>
<svg
   xmlns:dc="http://purl.org/dc/elements/1.1/"
   xmlns:cc="http://creativecommons.org/ns#"
   xmlns:rdf="http://www.w3.org/1999/02/22-rdf-syntax-ns#"
   xmlns:svg="http://www.w3.org/2000/svg"
   xmlns="http://www.w3.org/2000/svg"
   viewBox="0 0 601.63672 330.57593"
   height="330.57593"
   width="601.63672"
   xml:space="preserve"
   version="1.1"
   id="svg4489"><metadata
     id="metadata4495"><rdf:RDF><cc:Work
         rdf:about=""><dc:format>image/svg+xml</dc:format><dc:type
           rdf:resource="http://purl.org/dc/dcmitype/StillImage" /><dc:title></dc:title></cc:Work></rdf:RDF></metadata><defs
     id="defs4493" /><g
     transform="matrix(1.25,0,0,-1.25,0,330.57594)"
     id="g4497"><g
       id="g4499"><path
         id="path4501"
         style="fill:#ffffff;fill-opacity:1;fill-rule:nonzero;stroke:none"
         d="m 32.055,264.062 c -17.457,0 -31.657,-14.16 -31.657,-31.554 l 0,-200.809 c 0,-17.391 14.2,-31.535 31.657,-31.535 l 417.207,0 c 17.457,0 31.648,14.144 31.648,31.535 l 0,200.809 c 0,17.394 -14.191,31.554 -31.648,31.554 l -417.207,0 z" /><path
         id="path4503"
         style="fill:#000000;fill-opacity:1;fill-rule:nonzero;stroke:none"
         d="m 32.043,19.668 417.207,0 c 6.605,0 11.965,5.336 11.965,11.918 l 0,201.039 c 0,6.582 -5.36,11.918 -11.965,11.918 l -417.207,0 c -6.613,0 -11.965,-5.336 -11.965,-11.918 l 0,-201.039 c 0,-6.582 5.352,-11.918 11.965,-11.918 z M 32.609,8.316 c -13.211,0 -23.918,10.668 -23.918,23.84 l 0,199.895 c 0,13.168 10.707,23.836 23.918,23.836 l 416.184,0 c 13.215,0 23.922,-10.668 23.922,-23.836 l 0,-199.895 c 0,-13.172 -10.707,-23.84 -23.922,-23.84" /><path
         id="path4505"
         style="fill:#000000;fill-opacity:1;fill-rule:nonzero;stroke:none"
         d="M 32.055,264.461 C 14.379,264.461 0,250.121 0,232.508 L 0,31.937 C 0,14.328 14.379,0 32.055,0 l 417.207,0 c 17.672,0 32.047,14.328 32.047,31.937 l 0,200.571 c 0,17.613 -14.371,31.953 -32.047,31.953 l -417.207,0 z m 0,-0.399 417.207,0 c 17.457,0 31.648,-14.16 31.648,-31.554 l 0,-200.571 c 0,-17.39 -14.191,-31.535 -31.648,-31.535 l -417.207,0 C 14.598,0.402 0.398,14.547 0.398,31.937 l 0,200.571 c 0,17.394 14.2,31.554 31.657,31.554 z" /><path
         id="path4507"
         style="fill:#000000;fill-opacity:1;fill-rule:nonzero;stroke:none"
         d="m 284.523,90.383 c -1.019,-0.559 -1.91,-1.313 -2.718,-2.168 -0.164,-0.168 -0.297,-0.328 -0.461,-0.504 l 0,3.605 -6.766,0 0,-33.644 6.766,0 0,19.691 c 0,0.711 -0.043,1.434 0.121,2.16 0.176,1.446 1.019,2.836 2.172,3.856 0.886,0.855 2.035,1.449 3.265,1.609 0.766,0.176 1.536,0.176 2.289,0 0.309,-0.043 0.602,-0.117 0.903,-0.16 l 0,7.035 c -0.301,-0.043 -0.594,-0.043 -0.903,-0.086 -1.609,-0.121 -3.222,-0.594 -4.668,-1.394 z m -22.55,-12.813 -6.719,0 0,3.356 c 0,0.546 -0.043,1.093 0.086,1.652 0.18,0.68 0.594,1.348 1.187,1.777 0.559,0.516 1.282,0.766 2.051,0.766 0.68,0 1.391,-0.219 1.949,-0.633 0.59,-0.43 1.063,-1.066 1.227,-1.746 0.219,-0.59 0.219,-1.184 0.219,-1.816 l 0,-3.356 z m 2.59,12.211 c -1.743,1.316 -3.829,1.996 -5.911,1.953 -2.422,0.043 -4.879,-0.89 -6.707,-2.547 -1.57,-1.3 -2.675,-3.132 -3.148,-5.043 -0.207,-0.886 -0.25,-1.828 -0.34,-2.761 l 0,-12.77 c 0,-0.973 0,-1.906 0.133,-2.883 0.34,-2.324 1.656,-4.582 3.562,-6.105 1.786,-1.567 4.121,-2.422 6.426,-2.379 2.16,-0.043 4.371,0.68 6.07,1.996 1.403,1.02 2.457,2.422 3.18,3.988 0.516,1.067 0.852,2.25 0.852,3.442 l 0,0.715 -6.707,0 c -0.043,-0.254 -0.086,-0.504 -0.129,-0.801 -0.176,-0.637 -0.504,-1.281 -1.02,-1.699 -0.636,-0.59 -1.566,-0.887 -2.465,-0.813 -0.847,0.043 -1.656,0.387 -2.203,1.02 -0.519,0.515 -0.812,1.226 -0.902,1.949 -0.078,0.519 -0.043,1.066 0,1.57 l 0,3.442 13.426,0 0,9.328 c -0.043,1.066 -0.129,2.125 -0.379,3.148 -0.473,2.07 -1.906,3.977 -3.738,5.25 z m -24.512,11.762 -6.711,0 0,-10.227 -3.352,0 0,-5.347 3.352,0 0,-20.153 c -0.043,-0.547 -0.043,-1.148 0.047,-1.742 0.164,-1.73 1.183,-3.43 2.586,-4.578 0.976,-0.805 2.082,-1.363 3.265,-1.613 0.942,-0.207 1.918,-0.207 2.895,-0.207 l 2.129,0 0,6.402 -1.582,0 c -0.25,0 -0.547,0 -0.801,0.043 -0.383,0.043 -0.766,0.133 -1.106,0.383 -0.339,0.25 -0.593,0.722 -0.722,1.14 -0.09,0.469 -0.047,0.942 0,1.446 l 0,18.879 4.211,0 0,5.347 -4.211,0 0,10.227 z M 213.16,80.926 c 0,0.546 0,1.093 0.133,1.652 0.164,0.68 0.547,1.348 1.152,1.777 0.547,0.516 1.313,0.766 2.028,0.766 0.722,0 1.402,-0.219 1.992,-0.633 0.605,-0.43 1.031,-1.066 1.242,-1.746 0.164,-0.59 0.164,-1.184 0.164,-1.816 l 0,-3.356 -6.711,0 0,3.356 z m 6.711,-13.539 c -0.035,-0.25 -0.035,-0.504 -0.121,-0.801 -0.133,-0.637 -0.516,-1.281 -1.02,-1.699 -0.636,-0.59 -1.578,-0.887 -2.468,-0.809 -0.84,0.043 -1.657,0.383 -2.211,1.016 -0.504,0.515 -0.801,1.23 -0.891,1.953 -0.043,0.515 -0.043,1.062 0,1.566 l 0,3.442 13.43,0 0,9.328 c -0.043,1.066 -0.09,2.129 -0.387,3.148 -0.469,2.07 -1.918,3.977 -3.734,5.25 -1.703,1.316 -3.785,1.996 -5.91,1.953 -2.426,0.043 -4.879,-0.89 -6.711,-2.547 -1.532,-1.3 -2.672,-3.132 -3.102,-5.039 -0.207,-0.89 -0.293,-1.832 -0.383,-2.765 l 0,-12.77 c 0,-0.973 0,-1.906 0.176,-2.883 0.297,-2.324 1.656,-4.582 3.52,-6.105 1.789,-1.567 4.121,-2.422 6.457,-2.379 2.168,-0.043 4.328,0.68 6.031,1.996 1.402,1.02 2.465,2.422 3.187,3.988 0.516,1.067 0.856,2.25 0.899,3.446 0,0.25 -0.043,0.461 -0.043,0.711 l -6.723,0 0.004,0 z m -26.965,1.105 c 0.043,-0.633 0.043,-1.312 -0.09,-1.906 -0.175,-0.602 -0.472,-1.196 -0.976,-1.61 -0.637,-0.648 -1.531,-0.945 -2.465,-0.902 -0.891,0.043 -1.789,0.43 -2.336,1.109 -0.473,0.457 -0.723,1.063 -0.812,1.7 -0.079,0.547 -0.079,1.062 -0.032,1.609 l 0,12.047 c -0.047,0.547 -0.047,1.109 0.032,1.613 0.089,0.801 0.472,1.656 1.066,2.16 0.555,0.559 1.359,0.852 2.168,0.852 0.848,0 1.742,-0.293 2.336,-0.93 0.594,-0.515 0.933,-1.316 1.062,-2.082 0.09,-0.551 0.047,-1.066 0.047,-1.613 l 0,-12.047 z m 0,19.645 c -0.222,0.339 -0.429,0.714 -0.679,1.007 -0.563,0.766 -1.364,1.36 -2.262,1.786 -1.02,0.55 -2.16,0.847 -3.309,0.804 -1.449,0.043 -2.84,-0.375 -4.078,-1.23 -1.316,-0.844 -2.379,-2.117 -2.808,-3.606 -0.25,-0.758 -0.293,-1.57 -0.336,-2.41 l 0,-18.199 c -0.039,-0.988 -0.082,-1.918 0.043,-2.883 0.261,-1.742 1.191,-3.484 2.628,-4.625 1.329,-1.109 3.071,-1.656 4.77,-1.535 1.141,0.043 2.246,0.383 3.223,0.976 0.812,0.426 1.488,0.973 1.992,1.7 0.301,0.379 0.551,0.808 0.812,1.226 l 0,-3.476 6.754,0 0,47.125 -6.754,0 0,-16.66 0.004,0 z m -22.386,2.246 c -1.063,-0.559 -1.961,-1.313 -2.762,-2.168 -0.176,-0.168 -0.297,-0.328 -0.473,-0.504 l 0,3.605 -6.754,0 0,-33.644 6.754,0 0,19.691 c 0,0.711 0,1.434 0.133,2.16 0.207,1.446 1.02,2.836 2.156,3.856 0.946,0.855 2.086,1.449 3.281,1.609 0.766,0.176 1.567,0.176 2.29,0 0.296,-0.043 0.593,-0.117 0.886,-0.16 l 0,7.035 c -0.293,-0.043 -0.59,-0.043 -0.886,-0.086 -1.61,-0.121 -3.235,-0.594 -4.625,-1.394 z m -19.676,0.043 c -1.141,0.843 -2.543,1.308 -3.946,1.308 -1.316,0.086 -2.632,-0.254 -3.738,-0.89 -0.844,-0.418 -1.57,-1.063 -2.125,-1.774 -0.254,-0.344 -0.461,-0.68 -0.68,-1.023 l 0,16.75 -6.753,0 0,-47.125 6.753,0 0,23.59 c 0,0.386 0.043,0.757 0.129,1.144 0.133,0.723 0.516,1.402 1.063,1.859 0.547,0.516 1.269,0.77 1.996,0.813 0.77,0.043 1.535,-0.176 2.125,-0.637 0.594,-0.383 1.066,-0.976 1.273,-1.609 0.129,-0.516 0.129,-1.063 0.129,-1.57 l 0,-23.59 6.754,0 0,26.09 c -0.043,0.843 -0.043,1.656 -0.219,2.425 -0.296,1.653 -1.359,3.219 -2.761,4.239 z m -25.266,14.371 -6.68,0 0,-6.532 6.68,0 0,6.532 z m -10.152,0 -6.676,0 0,-6.532 6.676,0 0,6.532 z m 4.625,-38.004 c -0.164,-0.809 -0.59,-1.61 -1.27,-2.125 -0.679,-0.551 -1.613,-0.758 -2.554,-0.594 -1.051,0.176 -2.118,0.813 -2.5,1.742 -0.25,0.551 -0.297,1.141 -0.34,1.778 l 0,1.656 c 0,0.262 0.047,0.472 0.09,0.722 0.078,0.473 0.25,0.887 0.546,1.274 0.34,0.469 0.887,0.766 1.446,0.93 0.64,0.218 1.363,0.261 2.043,0.261 l 2.582,0 0,-3.265 c 0.047,-0.809 0.133,-1.578 -0.043,-2.379 z m 3.148,22.656 c -1.789,1.57 -4.211,2.371 -6.547,2.285 -2.039,0 -4.031,-0.637 -5.687,-1.781 -1.492,-0.973 -2.672,-2.375 -3.399,-3.984 -0.515,-0.981 -0.812,-2.075 -0.929,-3.227 l 0,-0.93 6.75,0 c 0,0.207 0.047,0.461 0.09,0.68 0.16,0.766 0.632,1.434 1.312,1.906 0.637,0.504 1.395,0.766 2.16,0.723 0.77,-0.043 1.492,-0.426 2.039,-0.934 0.43,-0.379 0.723,-0.851 0.899,-1.312 0.254,-0.637 0.207,-1.317 0.207,-2.039 l 0,-2.883 -3.824,0 c -0.887,0 -1.743,0 -2.629,-0.176 -1.614,-0.207 -3.192,-1.051 -4.418,-2.246 -1.184,-1.141 -1.996,-2.586 -2.336,-4.156 -0.176,-0.723 -0.207,-1.445 -0.25,-2.203 l 0,-3.782 c -0.047,-0.757 -0.047,-1.523 0.117,-2.246 0.219,-1.656 1.195,-3.269 2.555,-4.32 1.269,-1.062 2.925,-1.664 4.539,-1.578 1.148,0 2.257,0.34 3.277,0.887 0.844,0.429 1.566,0.976 2.16,1.699 0.309,0.34 0.559,0.765 0.809,1.195 l 0,-3.355 6.754,0 0,24.14 c -0.043,0.801 -0.121,1.61 -0.34,2.422 -0.426,2.028 -1.61,3.903 -3.309,5.215 z m -24.765,15.184 c -1.61,-0.207 -3.145,-1.02 -4.329,-2.2 -1.328,-1.199 -2.257,-2.855 -2.511,-4.586 -0.086,-0.632 -0.129,-1.269 -0.129,-1.906 l 0,-4.625 -3.309,0 0,-5.394 3.309,0 0,-28.25 6.793,0 0,28.25 4.976,0 0,5.394 -4.976,0 0,4.625 c 0,0.297 0,0.547 0.047,0.844 0.043,0.383 0.218,0.766 0.472,1.062 0.25,0.254 0.504,0.461 0.84,0.594 0.34,0.129 0.77,0.129 1.153,0.129 l 2.464,0 0,6.227 -2.332,0 c -0.812,0 -1.668,0 -2.468,-0.16 l 0,-0.004 z M 70.48,80.926 c 0,0.546 0,1.093 0.133,1.652 0.164,0.68 0.594,1.348 1.141,1.777 0.559,0.516 1.316,0.766 2.039,0.766 0.723,0 1.445,-0.219 1.996,-0.633 0.602,-0.43 1.02,-1.066 1.238,-1.746 0.164,-0.59 0.164,-1.184 0.164,-1.816 l 0,-3.356 -6.711,0 0,3.356 z m 6.711,-13.539 c 0,-0.25 -0.043,-0.504 -0.121,-0.801 -0.132,-0.637 -0.511,-1.281 -1.015,-1.699 -0.641,-0.59 -1.539,-0.887 -2.426,-0.809 -0.852,0.043 -1.699,0.383 -2.258,1.016 -0.504,0.515 -0.758,1.23 -0.887,1.953 -0.043,0.515 0,1.062 0,1.566 l 0,3.442 13.426,0 0,9.328 c -0.043,1.066 -0.086,2.129 -0.383,3.148 -0.472,2.07 -1.918,3.977 -3.738,5.25 -1.699,1.316 -3.781,1.996 -5.906,1.953 -2.426,0.043 -4.887,-0.89 -6.668,-2.547 -1.574,-1.3 -2.715,-3.132 -3.145,-5.039 -0.211,-0.89 -0.293,-1.832 -0.34,-2.765 l 0,-12.77 c -0.042,-0.973 -0.042,-1.906 0.129,-2.883 0.301,-2.324 1.657,-4.582 3.567,-6.105 1.785,-1.567 4.078,-2.422 6.41,-2.379 2.172,-0.043 4.375,0.68 6.074,1.996 1.36,1.02 2.465,2.422 3.145,3.988 0.515,1.067 0.855,2.25 0.89,3.446 0,0.25 0,0.461 -0.035,0.711 l -6.719,0 z M 55.957,100.14 c -0.887,1.36 -2.082,2.543 -3.484,3.387 -1.7,1.106 -3.782,1.699 -5.864,1.699 -1.863,0.043 -3.738,-0.382 -5.351,-1.23 -1.863,-0.887 -3.399,-2.379 -4.504,-4.109 -0.801,-1.317 -1.359,-2.762 -1.57,-4.243 -0.129,-0.765 -0.129,-1.566 -0.129,-2.336 l 0,-23.675 c 0,-1.02 0,-1.993 0.129,-3.016 0.254,-1.687 0.933,-3.34 1.996,-4.699 1.152,-1.613 2.761,-2.84 4.593,-3.653 1.438,-0.636 3.016,-1.019 4.582,-1.019 1.954,-0.086 3.989,0.387 5.735,1.402 1.656,0.934 3.058,2.293 4.031,3.949 0.813,1.27 1.359,2.708 1.578,4.153 0.125,0.976 0.125,1.949 0.125,2.883 l 0,14.175 -12.191,0 0,-5.855 5.437,0 0,-8.32 c 0,-0.637 0,-1.317 -0.132,-1.95 -0.165,-0.976 -0.754,-1.91 -1.524,-2.589 -0.855,-0.68 -1.906,-1.094 -2.969,-1.063 -1.152,-0.035 -2.336,0.43 -3.148,1.195 -0.809,0.68 -1.313,1.657 -1.488,2.676 -0.082,0.547 -0.036,1.141 0,1.731 l 0,23.675 c 0,0.551 0,1.141 0.132,1.688 0.219,1.109 0.973,2.129 1.95,2.766 0.765,0.546 1.699,0.808 2.683,0.808 1.055,0 2.16,-0.426 3.016,-1.195 0.711,-0.633 1.273,-1.524 1.402,-2.496 0.121,-0.516 0.082,-1.067 0.082,-1.571 l 0,-1.992 6.75,0 0,1.992 c 0,0.801 0,1.614 -0.078,2.414 -0.219,1.567 -0.855,3.102 -1.785,4.418 l -0.004,0 z" /><path
         id="path4509"
         style="fill:#000000;fill-opacity:1;fill-rule:nonzero;stroke:none"
         d="m 431.859,77.953 7.981,13.363 -6.75,0 -8.453,-14.59 0,28.071 -6.75,0 0,-47.125 6.75,0 0,9.285 3.355,5.055 5.906,-14.34 7.61,0 -9.649,20.281 z m -23.742,12.43 c -1.019,-0.559 -1.906,-1.313 -2.719,-2.168 -0.175,-0.168 -0.339,-0.328 -0.468,-0.504 l 0,3.605 -6.754,0 0,-33.644 6.754,0 0,19.691 c -0.043,0.711 -0.043,1.434 0.086,2.16 0.207,1.446 1.062,2.836 2.214,3.856 0.887,0.855 2.04,1.449 3.266,1.609 0.77,0.176 1.524,0.176 2.289,0 0.297,-0.043 0.594,-0.117 0.903,-0.16 l 0,7.035 c -0.309,-0.043 -0.606,-0.043 -0.903,-0.086 -1.609,-0.121 -3.265,-0.594 -4.668,-1.394 z m -23.402,7.804 6.707,0 0,6.61 -6.707,0 0,-6.61 z m 0,-40.515 6.707,0 0,33.644 -6.707,0 0,-33.644 z m -22.723,27.867 10.106,0 -10.875,-22.309 0,-5.558 18.437,0 0,6.445 -10.828,0 10.828,22.273 0,4.926 -17.668,0 0,-5.777 z m -11.687,-7.969 -6.707,0 0,3.356 c 0,0.546 -0.043,1.093 0.121,1.652 0.172,0.68 0.558,1.348 1.152,1.777 0.547,0.516 1.27,0.766 2.035,0.766 0.68,0 1.403,-0.219 1.949,-0.633 0.606,-0.43 1.067,-1.066 1.243,-1.746 0.207,-0.59 0.207,-1.184 0.207,-1.816 l 0,-3.356 z m 2.586,12.211 c -1.743,1.316 -3.813,1.996 -5.895,1.953 -2.426,0.043 -4.891,-0.89 -6.719,-2.547 -1.57,-1.3 -2.675,-3.132 -3.136,-5.043 -0.219,-0.886 -0.25,-1.828 -0.34,-2.761 l 0,-12.77 c 0,-0.973 0,-1.906 0.164,-2.883 0.297,-2.324 1.621,-4.582 3.531,-6.105 1.785,-1.567 4.121,-2.422 6.41,-2.379 2.215,-0.043 4.375,0.68 6.074,1.996 1.403,1.02 2.465,2.422 3.188,3.988 0.504,1.067 0.848,2.25 0.848,3.442 l 0,0.715 -6.711,0 c -0.043,-0.254 -0.086,-0.504 -0.129,-0.801 -0.168,-0.637 -0.504,-1.281 -1.02,-1.699 -0.636,-0.59 -1.57,-0.887 -2.457,-0.813 -0.855,0.043 -1.656,0.387 -2.215,1.02 -0.504,0.515 -0.8,1.226 -0.89,1.949 -0.086,0.519 -0.043,1.066 0,1.57 l 0,3.442 13.422,0 0,9.328 c -0.047,1.066 -0.121,2.125 -0.387,3.148 -0.461,2.07 -1.906,3.977 -3.738,5.25 z m -28.282,1.031 c -0.043,-0.769 -0.086,-1.535 -0.293,-2.261 -0.218,-0.711 -0.648,-1.391 -1.195,-1.907 -0.547,-0.504 -1.226,-0.886 -1.953,-1.019 -0.469,-0.117 -0.93,-0.164 -1.402,-0.164 l -4.032,0 0,13.023 3.825,0 c 0.636,-0.043 1.226,-0.086 1.773,-0.254 0.684,-0.218 1.285,-0.558 1.832,-1.015 0.594,-0.563 1.066,-1.243 1.274,-2 0.132,-0.469 0.175,-0.973 0.175,-1.489 l 0,-2.914 -0.004,0 z m 0,-21.683 c -0.043,-0.637 -0.086,-1.227 -0.293,-1.785 -0.218,-0.594 -0.648,-1.141 -1.152,-1.614 -0.469,-0.461 -1.016,-0.886 -1.652,-1.097 -0.606,-0.219 -1.239,-0.219 -1.918,-0.262 l -3.86,0 0,15.152 3.782,0 c 0.632,-0.047 1.269,-0.047 1.859,-0.211 0.641,-0.218 1.273,-0.593 1.789,-1.109 0.547,-0.473 1.02,-1.094 1.188,-1.816 0.218,-0.559 0.218,-1.153 0.261,-1.79 l 0,-5.468 -0.004,0 z m 3.227,32.371 c -1.402,1.433 -3.184,2.453 -5.098,2.926 -0.843,0.164 -1.742,0.296 -2.59,0.371 l -11.093,0 0,-47.125 10.414,0 c 0.976,0.043 1.953,0.09 2.886,0.297 1.622,0.296 3.102,1.066 4.372,2.082 1.109,0.847 2.039,1.91 2.73,3.136 0.633,1.141 1.051,2.379 1.27,3.649 0.121,0.758 0.121,1.527 0.168,2.293 l 0,5.468 c -0.168,1.571 -0.344,3.18 -1.11,4.497 -0.637,1.226 -1.73,2.246 -2.926,3.011 -0.207,0.133 -0.472,0.254 -0.679,0.387 0.34,0.164 0.679,0.34 0.976,0.547 0.93,0.547 1.696,1.359 2.301,2.25 0.59,0.851 1.008,1.828 1.184,2.848 0.164,0.636 0.207,1.273 0.254,1.953 l 0,3.636 c -0.047,0.903 -0.047,1.832 -0.254,2.676 -0.34,1.906 -1.36,3.695 -2.805,5.098 z" /><path
         id="path4511"
         style="fill:#000000;fill-opacity:1;fill-rule:nonzero;stroke:none"
         d="m 54.609,135.582 0,61.805 -19.554,0 0,9.605 49.941,0 0,-9.605 -19.555,0 0,-61.805 -10.832,0 z" /><path
         id="path4513"
         style="fill:#000000;fill-opacity:1;fill-rule:nonzero;stroke:none"
         d="m 92.539,161.066 c 0,5.457 0.426,9.528 1.277,12.207 0.848,2.68 2.254,5.098 4.215,7.254 1.403,1.535 3.332,3.004 5.782,4.41 2.484,1.407 5.718,2.11 9.707,2.11 3.918,0 7.121,-0.703 9.605,-2.11 2.484,-1.406 4.426,-2.875 5.832,-4.41 1.961,-2.156 3.367,-4.574 4.215,-7.254 0.851,-2.679 1.273,-6.75 1.273,-12.207 0,-5.554 -0.422,-9.672 -1.273,-12.347 -0.848,-2.68 -2.254,-5.098 -4.215,-7.254 -1.406,-1.571 -3.348,-3.039 -5.832,-4.414 -2.484,-1.371 -5.687,-2.059 -9.605,-2.059 -3.989,0 -7.223,0.688 -9.707,2.059 -2.45,1.375 -4.379,2.843 -5.782,4.414 -1.961,2.156 -3.367,4.574 -4.215,7.254 -0.851,2.675 -1.277,6.793 -1.277,12.347 z m 31.711,-0.097 c 0,3.695 -0.195,6.293 -0.586,7.793 -0.359,1.503 -0.996,2.941 -1.91,4.316 -1.801,2.48 -4.543,3.723 -8.234,3.723 -3.758,0 -6.504,-1.243 -8.235,-3.723 -0.98,-1.375 -1.652,-2.813 -2.012,-4.316 -0.324,-1.5 -0.488,-4.067 -0.488,-7.696 0,-3.722 0.164,-6.355 0.488,-7.89 0.36,-1.5 1.032,-2.922 2.012,-4.262 1.731,-2.484 4.477,-3.727 8.235,-3.727 3.691,0 6.433,1.243 8.234,3.727 0.914,1.34 1.551,2.762 1.91,4.262 0.391,1.504 0.586,4.101 0.586,7.793 z" /><path
         id="path4515"
         style="fill:#000000;fill-opacity:1;fill-rule:nonzero;stroke:none"
         d="m 154.789,147.883 0,59.109 10.242,0 0,-58.273 c 0,-2.356 1.278,-3.532 3.824,-3.532 l 3.481,0 0,-9.605 -4.508,0 c -3.726,0 -6.832,0.898 -9.312,2.695 -2.485,1.828 -3.727,5.031 -3.727,9.606 z" /><path
         id="path4517"
         style="fill:#000000;fill-opacity:1;fill-rule:nonzero;stroke:none"
         d="m 189.477,147.883 0,59.109 10.246,0 0,-58.273 c 0,-2.356 1.273,-3.532 3.824,-3.532 l 3.476,0 0,-9.605 -4.507,0 c -3.727,0 -6.828,0.898 -9.313,2.695 -2.484,1.828 -3.726,5.031 -3.726,9.606 z" /><path
         id="path4519"
         style="fill:#000000;fill-opacity:1;fill-rule:nonzero;stroke:none"
         d="m 272.527,135.582 -10.636,35.582 -0.196,0 -10.636,-35.582 -9.02,0 -16.273,50.875 10.832,0 9.754,-35.633 0.199,0 11.515,35.633 7.45,0 11.519,-35.633 0.195,0 9.754,35.633 10.832,0 -16.273,-50.875 -9.016,0 z" /><path
         id="path4521"
         style="fill:#000000;fill-opacity:1;fill-rule:nonzero;stroke:none"
         d="m 316.559,152.637 0,33.82 10.246,0 0,-30.34 c 0,-3.465 0.945,-6.16 2.84,-8.086 1.929,-1.894 4.363,-2.844 7.304,-2.844 2.844,0 5.211,0.95 7.106,2.844 1.929,1.926 2.89,4.621 2.89,8.086 l 0,30.34 10.246,0 0,-50.875 -10.246,0 0,5.39 -0.195,0 c -3.168,-3.984 -7.547,-5.98 -13.133,-5.98 -4.019,0 -7.875,1.488 -11.57,4.461 -3.656,3.008 -5.488,7.402 -5.488,13.184 z" /><path
         id="path4523"
         style="fill:#000000;fill-opacity:1;fill-rule:nonzero;stroke:none"
         d="m 381.031,186.457 0,15.437 10.242,0 0,-15.437 7.45,0 0,-7.844 -7.45,0 0,-29.601 c 0,-2.551 1.211,-3.825 3.629,-3.825 l 3.821,0 0,-9.605 -5.34,0 c -3.563,0 -6.52,1.078 -8.871,3.234 -2.321,2.156 -3.481,5.246 -3.481,9.262 l 0,30.535 -5.097,0 0,7.844 5.097,0 z" /><path
         id="path4525"
         style="fill:#000000;fill-opacity:1;fill-rule:nonzero;stroke:none"
         d="m 432.488,153.226 -3.82,53.766 12.84,0 -3.922,-53.766 -5.098,0 z m -2.547,-17.644 0,10.195 10.243,0 0,-10.195 -10.243,0 z" /></g></g></svg>