<?xml version="1.0" encoding="UTF-8" standalone="no"?>
<svg
   xmlns:dc="http://purl.org/dc/elements/1.1/"
   xmlns:cc="http://creativecommons.org/ns#"
   xmlns:rdf="http://www.w3.org/1999/02/22-rdf-syntax-ns#"
   xmlns:svg="http://www.w3.org/2000/svg"
   xmlns="http://www.w3.org/2000/svg"
   viewBox="0 0 601.63672 330.57593"
   height="330.57593"
   width="601.63672"
   xml:space="preserve"
   version="1.1"
   id="svg4568"><metadata
     id="metadata4574"><rdf:RDF><cc:Work
         rdf:about=""><dc:format>image/svg+xml</dc:format><dc:type
           rdf:resource="http://purl.org/dc/dcmitype/StillImage" /><dc:title></dc:title></cc:Work></rdf:RDF></metadata><defs
     id="defs4572" /><g
     transform="matrix(1.25,0,0,-1.25,0,330.57594)"
     id="g4576"><g
       id="g4578"><path
         id="path4580"
         style="fill:#ffffff;fill-opacity:1;fill-rule:nonzero;stroke:none"
         d="m 32.055,264.062 c -17.457,0 -31.657,-14.16 -31.657,-31.554 l 0,-200.809 c 0,-17.391 14.2,-31.535 31.657,-31.535 l 417.207,0 c 17.457,0 31.648,14.144 31.648,31.535 l 0,200.809 c 0,17.394 -14.191,31.554 -31.648,31.554 l -417.207,0 z" /><path
         id="path4582"
         style="fill:#000000;fill-opacity:1;fill-rule:nonzero;stroke:none"
         d="m 32.043,19.668 417.207,0 c 6.605,0 11.965,5.336 11.965,11.918 l 0,201.039 c 0,6.582 -5.36,11.918 -11.965,11.918 l -417.207,0 c -6.613,0 -11.965,-5.336 -11.965,-11.918 l 0,-201.039 c 0,-6.582 5.352,-11.918 11.965,-11.918 z M 32.609,8.316 c -13.211,0 -23.918,10.668 -23.918,23.84 l 0,199.895 c 0,13.168 10.707,23.836 23.918,23.836 l 416.184,0 c 13.215,0 23.922,-10.668 23.922,-23.836 l 0,-199.895 c 0,-13.172 -10.707,-23.84 -23.922,-23.84" /><path
         id="path4584"
         style="fill:#000000;fill-opacity:1;fill-rule:nonzero;stroke:none"
         d="M 32.055,264.461 C 14.379,264.461 0,250.121 0,232.508 L 0,31.937 C 0,14.328 14.379,0 32.055,0 l 417.207,0 c 17.672,0 32.047,14.328 32.047,31.937 l 0,200.571 c 0,17.613 -14.371,31.953 -32.047,31.953 l -417.207,0 z m 0,-0.399 417.207,0 c 17.457,0 31.648,-14.16 31.648,-31.554 l 0,-200.571 c 0,-17.39 -14.191,-31.535 -31.648,-31.535 l -417.207,0 C 14.598,0.402 0.398,14.547 0.398,31.937 l 0,200.571 c 0,17.394 14.2,31.554 31.657,31.554 z" /><path
         id="path4586"
         style="fill:#000000;fill-opacity:1;fill-rule:nonzero;stroke:none"
         d="m 286.895,96.558 c -1.02,-0.562 -1.907,-1.316 -2.719,-2.171 -0.164,-0.165 -0.293,-0.329 -0.461,-0.504 l 0,3.605 -6.762,0 0,-33.641 6.762,0 0,19.688 c 0,0.711 -0.043,1.437 0.121,2.16 0.176,1.445 1.019,2.84 2.172,3.856 0.887,0.855 2.039,1.449 3.265,1.613 0.77,0.176 1.536,0.176 2.293,0 0.309,-0.043 0.602,-0.121 0.899,-0.164 l 0,7.039 c -0.297,-0.047 -0.59,-0.047 -0.899,-0.09 -1.613,-0.117 -3.222,-0.59 -4.671,-1.391 z m -22.547,-12.816 -6.723,0 0,3.355 c 0,0.547 -0.043,1.098 0.09,1.657 0.176,0.679 0.594,1.343 1.183,1.773 0.559,0.516 1.282,0.77 2.051,0.77 0.68,0 1.391,-0.219 1.949,-0.637 0.594,-0.43 1.067,-1.063 1.231,-1.742 0.219,-0.594 0.219,-1.184 0.219,-1.821 l 0,-3.355 z m 2.586,12.211 c -1.743,1.316 -3.829,1.996 -5.911,1.953 -2.421,0.043 -4.875,-0.891 -6.707,-2.543 -1.566,-1.305 -2.675,-3.137 -3.144,-5.043 -0.211,-0.887 -0.254,-1.832 -0.34,-2.762 l 0,-12.773 c 0,-0.973 0,-1.906 0.129,-2.883 0.34,-2.32 1.656,-4.582 3.566,-6.101 1.786,-1.571 4.118,-2.426 6.422,-2.379 2.16,-0.047 4.375,0.675 6.074,1.992 1.403,1.019 2.454,2.422 3.176,3.992 0.516,1.063 0.856,2.246 0.856,3.438 l 0,0.714 -6.707,0 c -0.047,-0.253 -0.09,-0.503 -0.133,-0.8 -0.176,-0.637 -0.504,-1.282 -1.02,-1.696 -0.632,-0.593 -1.566,-0.89 -2.465,-0.816 -0.843,0.047 -1.656,0.387 -2.203,1.023 -0.515,0.516 -0.812,1.227 -0.898,1.95 -0.082,0.515 -0.043,1.062 0,1.566 l 0,3.445 13.426,0 0,9.328 c -0.043,1.063 -0.133,2.125 -0.383,3.145 -0.473,2.074 -1.906,3.98 -3.738,5.25 z m -24.512,11.762 -6.707,0 0,-10.227 -3.356,0 0,-5.348 3.356,0 0,-20.148 c -0.043,-0.551 -0.043,-1.148 0.043,-1.746 0.164,-1.731 1.183,-3.43 2.59,-4.578 0.972,-0.801 2.082,-1.363 3.265,-1.613 0.942,-0.208 1.918,-0.208 2.895,-0.208 l 2.125,0 0,6.403 -1.578,0 c -0.254,0 -0.547,0 -0.801,0.043 -0.387,0.043 -0.766,0.133 -1.109,0.383 -0.336,0.254 -0.59,0.726 -0.723,1.14 -0.086,0.473 -0.043,0.946 0,1.449 l 0,18.875 4.211,0 0,5.348 -4.211,0 0,10.227 z M 215.535,87.097 c 0,0.547 0,1.098 0.129,1.657 0.168,0.679 0.551,1.343 1.152,1.773 0.547,0.516 1.317,0.77 2.028,0.77 0.726,0 1.402,-0.219 1.996,-0.637 0.601,-0.43 1.031,-1.063 1.238,-1.742 0.164,-0.594 0.164,-1.184 0.164,-1.821 l 0,-3.355 -6.707,0 0,3.355 z m 6.707,-13.539 c -0.035,-0.25 -0.035,-0.503 -0.121,-0.796 -0.129,-0.641 -0.516,-1.286 -1.019,-1.7 -0.637,-0.593 -1.579,-0.89 -2.465,-0.812 -0.844,0.043 -1.657,0.383 -2.215,1.019 -0.504,0.516 -0.801,1.227 -0.887,1.953 -0.047,0.512 -0.047,1.059 0,1.563 l 0,3.445 13.426,0 0,9.328 c -0.043,1.063 -0.086,2.129 -0.383,3.145 -0.469,2.074 -1.918,3.98 -3.738,5.254 -1.699,1.312 -3.781,1.992 -5.91,1.949 -2.422,0.043 -4.875,-0.891 -6.707,-2.543 -1.535,-1.305 -2.676,-3.137 -3.102,-5.043 -0.207,-0.887 -0.297,-1.832 -0.383,-2.762 l 0,-12.773 c 0,-0.973 0,-1.906 0.176,-2.883 0.293,-2.32 1.656,-4.578 3.516,-6.101 1.789,-1.571 4.125,-2.426 6.461,-2.379 2.168,-0.047 4.328,0.675 6.027,1.992 1.402,1.019 2.465,2.422 3.191,3.992 0.512,1.063 0.852,2.246 0.895,3.441 0,0.25 -0.043,0.461 -0.043,0.711 l -6.719,0 z m -26.965,1.11 c 0.043,-0.637 0.043,-1.317 -0.086,-1.91 -0.175,-0.602 -0.472,-1.192 -0.976,-1.61 -0.637,-0.648 -1.535,-0.945 -2.469,-0.902 -0.887,0.047 -1.785,0.43 -2.336,1.109 -0.469,0.461 -0.722,1.063 -0.808,1.7 -0.079,0.546 -0.079,1.062 -0.036,1.613 l 0,12.047 c -0.043,0.547 -0.043,1.105 0.036,1.609 0.086,0.801 0.468,1.656 1.062,2.16 0.559,0.559 1.359,0.856 2.172,0.856 0.844,0 1.742,-0.297 2.332,-0.934 0.594,-0.512 0.934,-1.316 1.066,-2.082 0.086,-0.547 0.043,-1.062 0.043,-1.609 l 0,-12.047 z m 0,19.64 c -0.218,0.344 -0.429,0.715 -0.679,1.008 -0.559,0.77 -1.36,1.364 -2.258,1.789 -1.024,0.547 -2.16,0.844 -3.313,0.801 -1.445,0.043 -2.836,-0.371 -4.078,-1.23 -1.312,-0.844 -2.379,-2.118 -2.804,-3.606 -0.25,-0.754 -0.297,-1.566 -0.34,-2.41 l 0,-18.195 c -0.035,-0.989 -0.078,-1.922 0.043,-2.883 0.265,-1.746 1.195,-3.488 2.632,-4.629 1.325,-1.106 3.071,-1.656 4.766,-1.531 1.141,0.043 2.246,0.383 3.223,0.972 0.812,0.43 1.492,0.977 1.996,1.7 0.297,0.382 0.547,0.812 0.808,1.226 l 0,-3.473 6.758,0 0,47.125 -6.758,0 0,-16.664 0.004,0 z m -22.382,2.25 c -1.067,-0.562 -1.965,-1.316 -2.766,-2.171 -0.176,-0.165 -0.293,-0.329 -0.469,-0.504 l 0,3.605 -6.754,0 0,-33.641 6.754,0 0,19.688 c 0,0.711 0,1.437 0.133,2.16 0.207,1.445 1.016,2.84 2.156,3.856 0.946,0.855 2.082,1.449 3.281,1.613 0.766,0.176 1.563,0.176 2.286,0 0.297,-0.043 0.597,-0.121 0.89,-0.164 l 0,7.039 c -0.293,-0.047 -0.593,-0.047 -0.89,-0.09 -1.61,-0.117 -3.231,-0.59 -4.621,-1.391 z m -19.68,0.043 c -1.137,0.84 -2.543,1.305 -3.945,1.305 -1.317,0.086 -2.629,-0.254 -3.739,-0.891 -0.84,-0.414 -1.566,-1.062 -2.125,-1.773 -0.254,-0.34 -0.461,-0.68 -0.679,-1.02 l 0,16.75 -6.754,0 0,-47.125 6.754,0 0,23.59 c 0,0.383 0.043,0.758 0.132,1.141 0.129,0.723 0.512,1.402 1.063,1.863 0.547,0.516 1.269,0.766 1.996,0.809 0.766,0.047 1.531,-0.172 2.125,-0.633 0.59,-0.387 1.062,-0.977 1.27,-1.613 0.132,-0.516 0.132,-1.063 0.132,-1.567 l 0,-23.59 6.754,0 0,26.09 c -0.047,0.84 -0.047,1.657 -0.222,2.422 -0.293,1.656 -1.36,3.223 -2.762,4.242 z m -25.266,14.371 -6.676,0 0,-6.535 6.676,0 0,6.535 z m -10.152,0 -6.672,0 0,-6.535 6.672,0 0,6.535 z m 4.629,-38.003 c -0.168,-0.813 -0.594,-1.614 -1.274,-2.125 -0.679,-0.551 -1.609,-0.758 -2.554,-0.598 -1.051,0.176 -2.114,0.816 -2.5,1.746 -0.25,0.547 -0.293,1.137 -0.336,1.777 l 0,1.653 c 0,0.261 0.043,0.472 0.086,0.722 0.082,0.473 0.254,0.891 0.547,1.274 0.343,0.469 0.89,0.769 1.449,0.929 0.636,0.219 1.359,0.266 2.039,0.266 l 2.586,0 0,-3.266 c 0.043,-0.812 0.133,-1.578 -0.043,-2.378 z m 3.144,22.656 c -1.785,1.566 -4.211,2.367 -6.543,2.281 -2.039,0 -4.035,-0.637 -5.691,-1.777 -1.488,-0.973 -2.672,-2.375 -3.398,-3.989 -0.512,-0.976 -0.809,-2.074 -0.93,-3.222 l 0,-0.93 6.754,0 c 0,0.207 0.043,0.457 0.086,0.676 0.164,0.769 0.636,1.437 1.316,1.906 0.633,0.508 1.391,0.77 2.16,0.727 0.766,-0.047 1.489,-0.43 2.035,-0.934 0.43,-0.383 0.723,-0.855 0.903,-1.316 0.25,-0.633 0.207,-1.313 0.207,-2.039 l 0,-2.883 -3.824,0 c -0.891,0 -1.747,0 -2.629,-0.172 -1.614,-0.211 -3.192,-1.055 -4.422,-2.25 -1.184,-1.141 -1.992,-2.586 -2.336,-4.152 -0.176,-0.723 -0.207,-1.45 -0.25,-2.204 l 0,-3.781 c -0.043,-0.758 -0.043,-1.527 0.121,-2.25 0.219,-1.656 1.195,-3.265 2.551,-4.316 1.273,-1.067 2.929,-1.668 4.543,-1.578 1.148,0 2.254,0.34 3.273,0.883 0.844,0.429 1.57,0.98 2.16,1.703 0.309,0.339 0.559,0.765 0.813,1.195 l 0,-3.356 6.75,0 0,24.141 c -0.043,0.797 -0.121,1.609 -0.34,2.418 -0.426,2.027 -1.609,3.902 -3.309,5.219 z m -24.761,15.18 c -1.61,-0.208 -3.149,-1.016 -4.332,-2.2 -1.325,-1.195 -2.254,-2.851 -2.508,-4.582 -0.09,-0.636 -0.133,-1.273 -0.133,-1.91 l 0,-4.625 -3.309,0 0,-5.391 3.309,0 0,-28.25 6.797,0 0,28.25 4.976,0 0,5.391 -4.976,0 0,4.625 c 0,0.297 0,0.551 0.043,0.844 0.043,0.387 0.219,0.769 0.472,1.066 0.25,0.254 0.504,0.461 0.844,0.59 0.34,0.133 0.766,0.133 1.149,0.133 l 2.468,0 0,6.226 -2.336,0 c -0.808,0 -1.664,0 -2.464,-0.164 l 0,-0.003 z M 72.855,87.097 c 0,0.547 0,1.098 0.129,1.657 0.168,0.679 0.594,1.347 1.145,1.773 0.559,0.516 1.312,0.77 2.039,0.77 0.723,0 1.445,-0.219 1.992,-0.637 0.606,-0.43 1.02,-1.063 1.238,-1.742 0.165,-0.594 0.165,-1.184 0.165,-1.821 l 0,-3.355 -6.708,0 0,3.355 z m 6.711,-13.539 c 0,-0.25 -0.043,-0.503 -0.121,-0.796 -0.132,-0.641 -0.515,-1.286 -1.019,-1.7 -0.637,-0.593 -1.535,-0.89 -2.422,-0.812 -0.856,0.043 -1.699,0.383 -2.262,1.019 -0.504,0.516 -0.758,1.227 -0.887,1.953 -0.042,0.512 0,1.059 0,1.563 l 0,3.445 13.426,0 0,9.328 c -0.043,1.063 -0.086,2.129 -0.379,3.145 -0.472,2.074 -1.922,3.98 -3.738,5.254 -1.699,1.312 -3.781,1.992 -5.91,1.949 -2.422,0.043 -4.887,-0.891 -6.664,-2.543 -1.578,-1.305 -2.719,-3.137 -3.145,-5.043 -0.211,-0.887 -0.297,-1.832 -0.343,-2.762 l 0,-12.773 c -0.043,-0.973 -0.043,-1.906 0.132,-2.883 0.297,-2.32 1.657,-4.578 3.567,-6.101 1.781,-1.571 4.074,-2.426 6.41,-2.379 2.172,-0.047 4.371,0.675 6.07,1.992 1.364,1.019 2.469,2.422 3.149,3.992 0.515,1.063 0.851,2.246 0.886,3.441 0,0.25 0,0.461 -0.035,0.711 l -6.718,0 0.003,0 z m -21.234,32.754 c -0.887,1.36 -2.082,2.543 -3.484,3.387 -1.703,1.106 -3.785,1.699 -5.868,1.699 -1.863,0.047 -3.738,-0.383 -5.347,-1.226 -1.863,-0.887 -3.399,-2.379 -4.508,-4.11 -0.801,-1.316 -1.359,-2.761 -1.566,-4.242 -0.133,-0.769 -0.133,-1.57 -0.133,-2.336 l 0,-23.679 c 0,-1.02 0,-1.993 0.133,-3.012 0.254,-1.688 0.933,-3.344 1.996,-4.703 1.148,-1.61 2.761,-2.84 4.593,-3.653 1.434,-0.632 3.012,-1.015 4.582,-1.015 1.95,-0.09 3.989,0.383 5.731,1.402 1.656,0.93 3.059,2.289 4.035,3.945 0.813,1.27 1.359,2.707 1.578,4.153 0.121,0.976 0.121,1.953 0.121,2.883 l 0,14.175 -12.187,0 0,-5.855 5.437,0 0,-8.32 c 0,-0.633 0,-1.313 -0.132,-1.95 -0.168,-0.976 -0.758,-1.906 -1.524,-2.586 -0.855,-0.679 -1.906,-1.097 -2.973,-1.066 -1.152,-0.035 -2.336,0.43 -3.144,1.195 -0.813,0.68 -1.317,1.657 -1.492,2.676 -0.078,0.551 -0.035,1.141 0,1.731 l 0,23.679 c 0,0.547 0,1.141 0.133,1.688 0.218,1.105 0.972,2.129 1.949,2.761 0.769,0.551 1.699,0.813 2.687,0.813 1.051,0 2.16,-0.43 3.016,-1.195 0.707,-0.637 1.269,-1.524 1.402,-2.5 0.121,-0.516 0.078,-1.063 0.078,-1.567 l 0,-1.996 6.754,0 0,1.996 c 0,0.797 0,1.613 -0.082,2.41 -0.219,1.567 -0.855,3.102 -1.785,4.418 z" /><path
         id="path4588"
         style="fill:#000000;fill-opacity:1;fill-rule:nonzero;stroke:none"
         d="m 434.234,84.125 7.981,13.363 -6.754,0 -8.449,-14.59 0,28.074 -6.754,0 0,-47.125 6.754,0 0,9.282 3.351,5.058 5.91,-14.34 7.61,0 -9.649,20.278 z m -23.742,12.433 c -1.019,-0.562 -1.906,-1.316 -2.722,-2.171 -0.172,-0.165 -0.336,-0.329 -0.469,-0.504 l 0,3.605 -6.754,0 0,-33.641 6.754,0 0,19.688 c -0.043,0.711 -0.043,1.437 0.09,2.16 0.207,1.445 1.058,2.84 2.211,3.856 0.89,0.855 2.039,1.449 3.269,1.613 0.766,0.176 1.52,0.176 2.289,0 0.297,-0.043 0.594,-0.121 0.899,-0.164 l 0,7.039 c -0.305,-0.047 -0.602,-0.047 -0.899,-0.09 -1.609,-0.117 -3.265,-0.59 -4.668,-1.391 z m -23.406,7.801 6.707,0 0,6.613 -6.707,0 0,-6.613 z m 0,-40.512 6.707,0 0,33.641 -6.707,0 0,-33.641 z m -22.723,27.864 10.11,0 -10.875,-22.305 0,-5.559 18.437,0 0,6.446 -10.832,0 10.832,22.273 0,4.922 -17.672,0 0,-5.777 z m -11.683,-7.969 -6.707,0 0,3.355 c 0,0.547 -0.047,1.098 0.117,1.657 0.176,0.679 0.562,1.343 1.152,1.773 0.547,0.516 1.27,0.77 2.039,0.77 0.68,0 1.403,-0.219 1.949,-0.637 0.606,-0.43 1.063,-1.063 1.239,-1.742 0.211,-0.594 0.211,-1.184 0.211,-1.821 l 0,-3.355 z m 2.586,12.211 c -1.743,1.316 -3.813,1.996 -5.899,1.953 -2.422,0.043 -4.89,-0.891 -6.719,-2.543 -1.566,-1.305 -2.675,-3.137 -3.136,-5.043 -0.219,-0.887 -0.25,-1.832 -0.336,-2.762 l 0,-12.773 c 0,-0.973 0,-1.906 0.164,-2.883 0.293,-2.32 1.621,-4.582 3.527,-6.101 1.785,-1.571 4.121,-2.426 6.414,-2.379 2.215,-0.047 4.371,0.675 6.071,1.992 1.406,1.019 2.468,2.422 3.191,3.992 0.504,1.063 0.844,2.246 0.844,3.438 l 0,0.714 -6.707,0 c -0.043,-0.253 -0.09,-0.503 -0.133,-0.8 -0.164,-0.637 -0.504,-1.282 -1.02,-1.696 -0.636,-0.593 -1.566,-0.89 -2.453,-0.816 -0.859,0.047 -1.656,0.387 -2.219,1.023 -0.503,0.516 -0.8,1.227 -0.886,1.95 -0.09,0.515 -0.043,1.062 0,1.566 l 0,3.445 13.418,0 0,9.328 c -0.043,1.063 -0.121,2.125 -0.383,3.145 -0.461,2.074 -1.906,3.98 -3.738,5.25 z m -28.282,1.031 c -0.043,-0.769 -0.089,-1.535 -0.296,-2.258 -0.219,-0.711 -0.649,-1.394 -1.196,-1.906 -0.547,-0.504 -1.226,-0.89 -1.949,-1.019 -0.473,-0.121 -0.934,-0.164 -1.402,-0.164 l -4.036,0 0,13.023 3.825,0 c 0.636,-0.047 1.226,-0.09 1.777,-0.254 0.68,-0.219 1.281,-0.559 1.832,-1.019 0.59,-0.559 1.063,-1.239 1.27,-1.997 0.132,-0.468 0.175,-0.972 0.175,-1.492 l 0,-2.914 z m 0,-21.679 c -0.043,-0.637 -0.089,-1.231 -0.296,-1.79 -0.219,-0.593 -0.649,-1.14 -1.149,-1.613 -0.473,-0.461 -1.019,-0.887 -1.656,-1.094 -0.602,-0.218 -1.238,-0.218 -1.918,-0.265 l -3.86,0 0,15.152 3.782,0 c 0.636,-0.043 1.269,-0.043 1.863,-0.211 0.637,-0.219 1.273,-0.59 1.789,-1.105 0.547,-0.473 1.02,-1.098 1.184,-1.821 0.218,-0.558 0.218,-1.152 0.261,-1.789 l 0,-5.464 z m 3.223,32.367 c -1.402,1.437 -3.18,2.453 -5.098,2.925 -0.843,0.168 -1.742,0.297 -2.586,0.375 l -11.093,0 0,-47.125 10.414,0 c 0.976,0.043 1.949,0.086 2.883,0.297 1.621,0.293 3.101,1.063 4.371,2.082 1.109,0.844 2.043,1.907 2.73,3.137 0.637,1.137 1.055,2.379 1.274,3.649 0.121,0.757 0.121,1.523 0.164,2.293 l 0,5.464 c -0.164,1.571 -0.34,3.184 -1.11,4.496 -0.633,1.227 -1.73,2.25 -2.926,3.016 -0.207,0.133 -0.468,0.254 -0.679,0.383 0.34,0.164 0.679,0.34 0.976,0.551 0.93,0.547 1.7,1.355 2.301,2.246 0.594,0.855 1.008,1.832 1.184,2.847 0.164,0.641 0.211,1.274 0.254,1.954 l 0,3.636 c -0.043,0.903 -0.043,1.832 -0.254,2.68 -0.336,1.906 -1.36,3.691 -2.805,5.094 z" /><path
         id="path4590"
         style="fill:#000000;fill-opacity:1;fill-rule:nonzero;stroke:none"
         d="m 435.242,146.586 7.735,0 0,7.734 -7.735,0 0,-7.734 z m 5.813,13.629 2.828,40.605 -9.594,0 2.961,-40.605 3.805,0 z M 409.023,148.34 c 1.161,-0.86 2.485,-1.457 3.895,-1.664 0.895,-0.133 1.801,-0.133 2.695,-0.09 l 3.504,0 0,7.304 -2.48,0 c -0.473,-0.043 -0.938,-0.043 -1.414,0.043 -0.461,0.082 -0.938,0.254 -1.278,0.598 -0.34,0.297 -0.562,0.727 -0.64,1.145 -0.043,0.343 -0.043,0.652 -0.043,0.953 l 0,22.41 5.855,0 0,6.277 -5.855,0 0,11.664 -7.703,0 0,-11.664 -3.84,0 0,-6.277 3.84,0 0,-22.41 c 0,-0.774 -0.036,-1.504 0.043,-2.274 0.089,-1.105 0.386,-2.218 0.953,-3.199 0.55,-1.152 1.398,-2.086 2.468,-2.816 z m -24.793,15.074 c 0.043,-1.027 0.086,-2.055 -0.089,-3.035 -0.207,-1.711 -1.067,-3.375 -2.395,-4.524 -1.281,-1.191 -3.035,-1.922 -4.789,-1.965 -1.84,-0.132 -3.676,0.387 -5.129,1.536 -1.547,1.07 -2.605,2.824 -2.945,4.656 -0.18,0.937 -0.18,1.875 -0.133,2.859 l 0,22.375 -7.734,0 0,-24.984 c 0,-0.934 -0.047,-1.875 0.078,-2.77 0.176,-2.093 0.992,-4.136 2.273,-5.855 1.235,-1.879 2.988,-3.32 5.043,-4.27 1.797,-0.937 3.852,-1.402 5.86,-1.359 1.875,0 3.714,0.465 5.382,1.281 1.282,0.551 2.438,1.324 3.422,2.262 0.43,0.43 0.774,0.894 1.156,1.367 l 0,-4.402 7.782,0 0,38.73 -7.782,0 0,-21.902 z m -39.171,21.902 -7.305,-26.902 -8.727,26.902 -5.769,0 -8.766,-26.902 -7.269,26.902 -8.164,0 12.093,-38.73 6.762,0 8.242,27.199 8.254,-27.199 6.723,0 12.137,38.73 -8.211,0 z m -54.301,-31.383 c -0.551,0.043 -1.113,0.168 -1.5,0.508 -0.508,0.387 -0.758,1.117 -0.848,1.801 -0.09,0.637 -0.043,1.234 0,1.875 l 0,42.703 -7.746,0 0,-44.117 c -0.035,-0.684 -0.078,-1.402 0,-2.129 0.086,-1.711 0.774,-3.418 1.887,-4.746 1.113,-1.398 2.648,-2.426 4.355,-2.902 0.864,-0.207 1.758,-0.297 2.617,-0.34 l 4.7,0 0,7.304 -1.887,0 c -0.508,0 -1.066,0 -1.574,0.043 l -0.004,0 z m -23.262,0 c -0.551,0.043 -1.109,0.168 -1.484,0.508 -0.52,0.387 -0.774,1.117 -0.864,1.801 -0.089,0.637 -0.043,1.234 0,1.875 l 0,42.703 -7.746,0 0,-44.117 c -0.035,-0.684 -0.078,-1.402 0,-2.129 0.133,-1.711 0.774,-3.418 1.887,-4.746 1.117,-1.398 2.691,-2.426 4.359,-2.902 0.86,-0.207 1.754,-0.297 2.649,-0.34 l 4.668,0 0,7.304 -1.887,0 c -0.508,0 -1.027,0 -1.582,0.043 z M 238.977,162 c -0.036,-0.684 -0.122,-1.324 -0.254,-1.961 -0.344,-1.449 -1.149,-2.77 -2.219,-3.797 -0.816,-0.816 -1.797,-1.457 -2.824,-1.844 -0.891,-0.34 -1.844,-0.551 -2.782,-0.551 -1.621,-0.046 -3.289,0.43 -4.656,1.368 -1.113,0.683 -2.008,1.664 -2.66,2.812 -0.418,0.731 -0.727,1.547 -0.894,2.352 -0.086,0.562 -0.133,1.07 -0.165,1.621 l 0,8.164 c 0.082,0.719 0.125,1.402 0.297,2.086 0.391,1.328 1.153,2.562 2.219,3.5 1.5,1.457 3.598,2.347 5.695,2.347 1.922,0.047 3.797,-0.64 5.297,-1.875 1.453,-1.156 2.528,-2.777 2.782,-4.523 0.085,-0.519 0.132,-1.023 0.164,-1.535 l 0,-8.164 z m 4.445,17.558 c -1.535,2.004 -3.453,3.629 -5.68,4.688 -2.097,1.027 -4.449,1.543 -6.797,1.543 -2.441,0.047 -4.922,-0.473 -7.097,-1.543 -2.395,-1.102 -4.532,-2.859 -6.078,-5.031 -1.415,-1.844 -2.399,-4.02 -2.77,-6.282 -0.133,-0.933 -0.18,-1.839 -0.266,-2.769 l 0,-8.164 c 0.043,-0.852 0.086,-1.668 0.219,-2.516 0.258,-1.922 0.938,-3.808 1.965,-5.472 1.535,-2.723 3.973,-4.942 6.797,-6.266 2.183,-1.117 4.625,-1.668 7.051,-1.668 2.738,0 5.429,0.684 7.793,2.043 2.437,1.324 4.445,3.332 5.855,5.726 1.149,1.797 1.922,3.84 2.176,5.891 0.086,0.774 0.133,1.488 0.176,2.262 l 0,8.164 c -0.09,0.93 -0.176,1.91 -0.34,2.859 -0.387,2.34 -1.504,4.614 -3.004,6.535 z m -37.406,-25.668 -2.438,0 c -0.519,-0.043 -0.98,-0.043 -1.457,0.043 -0.465,0.082 -0.937,0.254 -1.281,0.598 -0.297,0.297 -0.516,0.727 -0.594,1.145 -0.043,0.343 -0.043,0.652 -0.043,0.953 l 0,22.41 5.813,0 0,6.277 -5.813,0 0,11.664 -7.703,0 0,-11.664 -3.883,0 0,-6.277 3.883,0 0,-22.41 c -0.043,-0.774 -0.043,-1.504 0.043,-2.274 0.09,-1.105 0.391,-2.218 0.895,-3.199 0.605,-1.152 1.457,-2.086 2.48,-2.816 1.16,-0.86 2.527,-1.457 3.941,-1.664 0.895,-0.133 1.797,-0.133 2.692,-0.09 l 3.465,0 0,7.304 z m -51.145,6.024 c -0.117,0.719 -0.117,1.445 -0.164,2.176 l 0,7.808 c 0.047,0.778 0.082,1.582 0.254,2.309 0.344,1.535 1.238,2.988 2.527,4.015 1.41,1.235 3.289,1.875 5.133,1.79 1.574,0.043 3.078,-0.465 4.356,-1.403 1.625,-1.113 2.859,-2.898 3.125,-4.832 0.121,-0.594 0.121,-1.234 0.121,-1.879 l 0,-7.808 c 0,-0.774 0,-1.535 -0.164,-2.262 -0.297,-1.625 -1.239,-3.168 -2.618,-4.227 -1.355,-1.16 -3.156,-1.8 -4.953,-1.8 -1.8,0 -3.586,0.64 -4.996,1.843 -1.328,1.059 -2.32,2.606 -2.617,4.27 l -0.004,0 z m 10.785,-12.602 c 1.278,0.598 2.438,1.371 3.418,2.309 0.418,0.387 0.762,0.805 1.145,1.191 l 0,-4.226 7.75,0 0,54.234 -7.75,0 0,-19.894 c -0.293,0.343 -0.594,0.718 -0.891,1.015 -1.148,1.246 -2.605,2.227 -4.191,2.867 -1.668,0.684 -3.422,1.059 -5.176,1.028 -3.496,0.035 -7.141,-1.59 -9.488,-4.227 -2.008,-2.051 -3.246,-4.789 -3.512,-7.527 -0.035,-0.891 -0.035,-1.789 0,-2.68 l 0,-11.113 c -0.035,-1.059 -0.078,-2.172 0.09,-3.242 0.297,-3.289 2.394,-6.399 5.219,-8.364 2.183,-1.668 4.832,-2.574 7.523,-2.605 2.008,-0.043 4.062,0.375 5.863,1.234 z m -31.129,-0.726 4.657,0 0,7.304 -1.844,0 c -0.551,0 -1.059,0 -1.621,0.043 -0.508,0.043 -1.071,0.168 -1.492,0.508 -0.52,0.387 -0.77,1.117 -0.86,1.801 -0.078,0.637 -0.043,1.234 0.043,1.875 l 0,42.703 -7.777,0 0,-44.117 c -0.043,-0.684 -0.043,-1.402 0,-2.129 0.121,-1.711 0.773,-3.418 1.922,-4.746 1.066,-1.398 2.644,-2.426 4.324,-2.902 0.848,-0.207 1.742,-0.297 2.648,-0.34 z m -20.523,54.234 -7.703,0 0,-7.648 7.703,0 0,7.648 z m 0,-15.504 -7.703,0 0,-38.73 7.703,0 0,38.73 z m -35.32,-38.73 7.269,0 13.551,54.234 -8.684,0 -8.761,-38.476 -10.649,38.476 -5.847,0 -10.649,-38.476 -8.726,38.476 -8.762,0 13.594,-54.234 7.273,0 10.219,39.281" /></g></g></svg>