<?xml version="1.0" encoding="UTF-8" standalone="no"?>
<svg
   xmlns:dc="http://purl.org/dc/elements/1.1/"
   xmlns:cc="http://creativecommons.org/ns#"
   xmlns:rdf="http://www.w3.org/1999/02/22-rdf-syntax-ns#"
   xmlns:svg="http://www.w3.org/2000/svg"
   xmlns="http://www.w3.org/2000/svg"
   viewBox="0 0 590.20709 884.45972"
   height="884.45972"
   width="590.20709"
   xml:space="preserve"
   version="1.1"
   id="svg3506"><metadata
     id="metadata3512"><rdf:RDF><cc:Work
         rdf:about=""><dc:format>image/svg+xml</dc:format><dc:type
           rdf:resource="http://purl.org/dc/dcmitype/StillImage" /><dc:title></dc:title></cc:Work></rdf:RDF></metadata><defs
     id="defs3510" /><g
     transform="matrix(1.25,0,0,-1.25,0,884.45969)"
     id="g3514"><g
       id="g3516"><path
         id="path3518"
         style="fill:#ffffff;fill-opacity:1;fill-rule:nonzero;stroke:none"
         d="m 470.477,672.388 c -1.059,3.988 -2.676,7.844 -4.731,11.395 -2.055,3.601 -4.613,6.918 -7.539,9.781 -2.93,2.93 -6.23,5.469 -9.848,7.523 -3.55,2.121 -7.339,3.739 -11.394,4.797 -3.926,1.129 -8.098,1.633 -12.207,1.684 l -377.352,0 c -4.109,0 -8.285,-0.555 -12.273,-1.684 -3.988,-1.109 -7.793,-2.676 -11.395,-4.797 -3.55,-2.054 -6.851,-4.593 -9.781,-7.523 -2.93,-2.863 -5.488,-6.18 -7.539,-9.781 C 4.363,680.232 2.68,676.376 1.688,672.388 0.559,668.4 0.004,664.29 0.004,660.185 l 0,-612.793 c -0.066,-4.109 0.555,-8.281 1.684,-12.273 1.058,-3.973 2.675,-7.774 4.796,-11.395 1.985,-3.551 4.543,-6.852 7.473,-9.781 2.93,-2.926 6.231,-5.469 9.848,-7.524 3.535,-2.05 7.34,-3.734 11.394,-4.73 3.922,-1.125 8.098,-1.684 12.207,-1.684 l 377.352,0 c 4.109,-0.066 8.281,0.559 12.273,1.684 3.989,1.047 7.778,2.68 11.395,4.73 3.551,2.055 6.851,4.598 9.781,7.524 2.926,2.929 5.484,6.23 7.539,9.847 2.055,3.555 3.738,7.356 4.731,11.399 1.128,3.922 1.683,8.094 1.683,12.203 l 0,612.793 c 0.067,4.105 -0.555,8.215 -1.683,12.203" /><path
         id="path3520"
         style="fill:#154889;fill-opacity:1;fill-rule:nonzero;stroke:none"
         d="m 374.379,320.802 -276.594,0 0,276.598 276.594,0 0,-276.598 z M 47.773,12.462 l 376.926,0 c 2.996,0 6.11,0.438 9.039,1.246 2.93,0.743 5.789,1.989 8.399,3.551 2.625,1.485 5.117,3.352 7.238,5.539 2.172,2.121 4.039,4.613 5.539,7.223 1.563,2.609 2.742,5.484 3.551,8.398 0.808,2.996 1.238,6.043 1.238,9.039 l 0,612.59 c 0,3.047 -0.445,6.11 -1.238,9.039 -0.754,2.981 -1.988,5.793 -3.551,8.399 -1.5,2.679 -3.367,5.117 -5.539,7.289 -2.121,2.121 -4.613,4.058 -7.238,5.539 -2.61,1.566 -5.469,2.742 -8.399,3.5 -2.929,0.859 -6.043,1.297 -9.039,1.297 l -377.25,0 c -2.976,-0.055 -6.09,-0.438 -9.019,-1.297 -2.93,-0.754 -5.793,-1.934 -8.403,-3.5 -2.625,-1.481 -5.117,-3.418 -7.238,-5.539 -2.168,-2.172 -4.039,-4.61 -5.535,-7.289 -1.551,-2.606 -2.746,-5.418 -3.555,-8.399 -0.804,-2.929 -1.25,-5.992 -1.25,-9.039 l 0,-612.59 c 0,-2.996 0.446,-6.109 1.25,-9.039 0.742,-2.914 2.004,-5.789 3.555,-8.398 1.496,-2.61 3.367,-5.102 5.535,-7.223 2.121,-2.187 4.613,-4.054 7.238,-5.539 2.61,-1.562 5.473,-2.742 8.403,-3.551 2.996,-0.808 6.043,-1.312 9.019,-1.246 l 0.324,0" /><path
         id="path3522"
         style="fill:#ffffff;fill-opacity:1;fill-rule:nonzero;stroke:none"
         d="m 433.75,141.365 0,5.671 -5.355,0 0,10.657 -6.985,0 0,-10.657 -3.551,0 0,-5.671 3.551,0 0,-20.485 c 0,-0.676 -0.055,-1.312 0,-1.988 0.133,-1.059 0.371,-2.051 0.875,-2.996 0.504,-0.992 1.313,-1.867 2.238,-2.539 1.063,-0.762 2.309,-1.317 3.551,-1.5 0.809,-0.133 1.684,-0.133 2.492,-0.133 l 3.184,0 0,6.664 -2.238,0 c -0.438,0 -0.879,0 -1.317,0.066 -0.437,0.067 -0.875,0.254 -1.175,0.555 -0.321,0.254 -0.504,0.692 -0.575,1.063 -0.054,0.254 -0.054,0.554 -0.054,0.808 l 0,20.485 5.359,0 z m -45.906,-8.282 c 0.07,0.387 0.07,0.758 0.121,1.129 0.137,0.942 0.508,1.934 0.996,2.742 0.687,1.247 1.816,2.239 3.129,2.797 1.047,0.621 2.359,0.875 3.555,0.805 1.293,0 2.539,-0.418 3.667,-1.109 1.313,-0.743 2.356,-1.938 2.93,-3.301 0.301,-0.621 0.488,-1.313 0.555,-2 0.066,-0.371 0.066,-0.742 0.066,-1.063 l -15.019,0 z m 19.679,7.911 c -1.179,1.937 -2.929,3.484 -4.847,4.613 -2.188,1.312 -4.746,1.937 -7.238,1.937 -2.426,0 -4.848,-0.625 -6.903,-1.754 -2.004,-1.058 -3.738,-2.605 -5.051,-4.425 -1.246,-1.618 -2.121,-3.536 -2.488,-5.539 -0.125,-0.856 -0.187,-1.801 -0.187,-2.743 l 0,-6.226 c 0,-0.996 0,-1.922 0.121,-2.863 0.25,-2.172 1.058,-4.293 2.304,-6.043 1.383,-2.055 3.301,-3.739 5.489,-4.848 2.121,-1.129 4.547,-1.75 7.035,-1.82 2.996,-0.122 6.043,0.625 8.652,2.074 1.5,0.738 2.813,1.73 3.922,2.91 0.254,0.254 0.508,0.574 0.809,0.875 l -5.418,4.613 c -0.239,-0.254 -0.489,-0.554 -0.743,-0.808 -0.808,-0.809 -1.734,-1.43 -2.792,-1.801 -1.247,-0.574 -2.629,-0.875 -3.993,-0.809 -1.8,0 -3.668,0.422 -5.097,1.481 -1.078,0.758 -1.938,1.75 -2.508,2.929 -0.438,0.942 -0.676,2.004 -0.676,3.047 l 0,1.059 22.035,0 0,5.305 c -0.054,1.125 -0.054,2.171 -0.234,3.23 -0.32,2.004 -1.063,3.922 -2.188,5.606 l -0.004,0 z m -43.464,13.281 7.039,0 0,6.902 -7.039,0 0,-6.902 z m 0,-42.551 7.039,0 0,35.312 -7.039,0 0,-35.312 z m -16.817,14.02 c 0,-0.622 0,-1.313 -0.133,-1.934 -0.254,-1.316 -0.925,-2.492 -1.918,-3.418 -1.261,-1.246 -3.066,-2.055 -4.796,-2.055 -1.5,-0.066 -2.997,0.422 -4.243,1.297 -1.683,1.195 -2.863,3.113 -2.996,5.117 -0.054,0.489 -0.054,0.993 0,1.481 l 0,6.918 c 0,0.691 0.067,1.379 0.199,2.004 0.305,1.363 1.114,2.675 2.29,3.601 1.316,1.129 3.066,1.75 4.75,1.684 1.363,0 2.675,-0.438 3.785,-1.246 1.429,-0.942 2.558,-2.422 2.863,-4.039 0.199,-0.625 0.199,-1.313 0.199,-2.004 l 0,-7.406 z m 2.492,19.171 c -2.07,1.684 -4.609,2.629 -7.172,2.629 -1.613,0 -3.179,-0.32 -4.66,-0.992 -1.429,-0.574 -2.746,-1.449 -3.804,-2.492 -0.371,-0.32 -0.621,-0.625 -0.942,-1.012 l 0,18.129 -7.039,0 0,-49.453 7.039,0 0,4.055 c 0.199,-0.321 0.438,-0.555 0.688,-0.875 0.996,-1.11 2.304,-1.934 3.738,-2.559 1.613,-0.672 3.367,-1.109 5.117,-1.062 3.164,0 6.465,1.5 8.586,3.941 1.496,1.547 2.488,3.602 2.86,5.723 0.183,1.129 0.183,2.172 0.183,3.3 l 0,10.907 c 0,0.808 -0.051,1.668 -0.183,2.492 -0.372,2.793 -2.055,5.539 -4.411,7.269 z m -55.429,-11.832 c 0.054,0.387 0.054,0.758 0.121,1.129 0.133,0.942 0.504,1.934 0.992,2.742 0.691,1.247 1.82,2.239 3.117,2.797 1.059,0.621 2.371,0.875 3.551,0.805 1.312,0 2.559,-0.418 3.668,-1.109 1.312,-0.743 2.375,-1.938 2.93,-3.301 0.32,-0.621 0.504,-1.313 0.574,-2 0.051,-0.371 0.051,-0.742 0.051,-1.063 l -15.004,0 z m 19.675,7.911 c -1.175,1.937 -2.925,3.484 -4.863,4.613 -2.172,1.312 -4.73,1.937 -7.222,1.937 -2.422,0 -4.864,-0.625 -6.918,-1.754 -1.985,-1.058 -3.735,-2.605 -5.032,-4.425 -1.246,-1.618 -2.121,-3.536 -2.492,-5.539 -0.133,-0.856 -0.203,-1.801 -0.203,-2.743 l 0,-6.226 c 0,-0.996 0,-1.922 0.137,-2.863 0.254,-2.172 1.058,-4.293 2.304,-6.043 1.364,-2.055 3.301,-3.739 5.473,-4.848 2.121,-1.129 4.543,-1.75 7.051,-1.82 2.98,-0.122 6.027,0.625 8.652,2.074 1.5,0.738 2.797,1.73 3.922,2.91 0.254,0.254 0.488,0.574 0.809,0.875 l -5.418,4.613 c -0.254,-0.254 -0.508,-0.554 -0.742,-0.808 -0.809,-0.809 -1.75,-1.43 -2.813,-1.801 -1.246,-0.574 -2.609,-0.875 -3.988,-0.809 -1.801,0 -3.668,0.422 -5.102,1.481 -1.058,0.758 -1.933,1.75 -2.492,2.929 -0.438,0.942 -0.688,2.004 -0.688,3.047 l 0,1.059 22.051,0 0,5.305 c -0.054,1.125 -0.054,2.171 -0.254,3.23 -0.3,2.004 -1.058,3.922 -2.172,5.606 z m -43.546,-14.946 c 0,-0.676 0,-1.433 -0.122,-2.105 -0.25,-1.379 -0.992,-2.742 -2.121,-3.688 -1.175,-1.176 -2.859,-1.867 -4.476,-1.867 -1.567,-0.121 -3.047,0.371 -4.36,1.246 -1.429,0.992 -2.492,2.492 -2.812,4.176 -0.121,0.504 -0.121,0.992 -0.184,1.496 l 0,7.98 c 0.067,0.672 0.067,1.43 0.254,2.051 0.367,1.364 1.242,2.68 2.422,3.555 1.262,0.992 2.813,1.613 4.379,1.613 1.547,0 3.094,-0.504 4.289,-1.496 1.297,-0.945 2.242,-2.308 2.543,-3.805 0.137,-0.625 0.184,-1.246 0.184,-1.918 l 0,-7.238 0.004,0 z m 0,17.137 c -0.235,0.25 -0.485,0.555 -0.739,0.805 -0.925,0.925 -1.988,1.683 -3.183,2.308 -1.364,0.692 -2.977,1.129 -4.543,1.246 -1.989,0.121 -4.039,-0.254 -5.86,-1.129 -1.867,-0.875 -3.484,-2.171 -4.66,-3.855 -0.996,-1.496 -1.754,-3.18 -1.988,-4.914 -0.184,-0.942 -0.184,-1.938 -0.184,-2.879 l 0,-10.824 c 0,-0.758 0,-1.567 0.121,-2.305 0.184,-1.867 0.926,-3.687 1.985,-5.168 1.195,-1.684 2.746,-3.062 4.547,-3.937 1.632,-0.809 3.367,-1.247 5.183,-1.247 1.852,0 3.668,0.438 5.352,1.247 1.297,0.636 2.426,1.445 3.418,2.488 0.183,0.203 0.371,0.437 0.555,0.691 l 0,-2.609 c 0,-0.758 0.066,-1.567 0,-2.305 -0.122,-0.992 -0.372,-2.054 -0.86,-2.929 -0.57,-1.063 -1.43,-1.938 -2.441,-2.559 -1.297,-0.809 -2.793,-1.18 -4.289,-1.246 -1.364,-0.067 -2.68,0.137 -3.856,0.691 -1.062,0.504 -2.004,1.313 -2.812,2.121 -0.184,0.235 -0.438,0.438 -0.621,0.672 l -5.469,-4.66 c 0.301,-0.32 0.555,-0.625 0.855,-0.875 1.5,-1.617 3.367,-2.797 5.422,-3.605 1.938,-0.754 3.988,-1.192 6.043,-1.192 2.625,-0.121 5.301,0.504 7.61,1.817 2.238,1.179 4.175,3.046 5.468,5.218 1.063,1.684 1.754,3.618 1.938,5.606 0.121,1.058 0.121,2.121 0.121,3.179 l 0,34.004 -7.106,0 0,-3.855 -0.007,0 z m -53.731,-2.242 16.684,0 -17.692,-23.364 0,-5.855 26.477,0 0,6.73 -17.504,0 17.504,23.348 0,5.234 -25.469,0 0,-6.093 z m -14.207,16.75 -7.035,0 0,-10.657 -3.5,0 0,-5.671 3.5,0 0,-20.485 c 0,-0.676 0,-1.312 0.055,-1.988 0.066,-1.059 0.32,-2.051 0.824,-2.996 0.488,-0.992 1.297,-1.867 2.238,-2.539 1.063,-0.762 2.309,-1.317 3.602,-1.5 0.808,-0.133 1.617,-0.133 2.441,-0.133 l 3.164,0 0,6.664 -2.238,0 c -0.438,0 -0.875,0 -1.293,0.066 -0.457,0.067 -0.875,0.254 -1.199,0.555 -0.301,0.254 -0.489,0.692 -0.555,1.063 -0.066,0.254 -0.066,0.554 0,0.808 l 0,20.485 5.285,0 0,5.671 -5.285,0 0,10.657 -0.004,0 z M 176.02,127.107 c 0.066,-0.926 0.132,-1.867 -0.055,-2.793 -0.203,-1.5 -1.012,-3.063 -2.188,-4.11 -1.179,-1.125 -2.746,-1.75 -4.359,-1.75 -1.684,-0.121 -3.367,0.305 -4.664,1.364 -1.43,1.011 -2.375,2.558 -2.676,4.242 -0.203,0.875 -0.203,1.734 -0.137,2.609 l 0,20.367 -7.035,0 0,-22.722 c 0,-0.875 -0.066,-1.684 0.067,-2.559 0.187,-1.867 0.929,-3.738 2.054,-5.355 1.18,-1.68 2.746,-2.996 4.614,-3.871 1.617,-0.856 3.484,-1.246 5.351,-1.246 1.684,0 3.367,0.441 4.914,1.199 1.129,0.484 2.192,1.176 3.047,2.051 0.391,0.371 0.758,0.808 1.063,1.246 l 0,-4.055 7.105,0 0,35.316 -7.105,0 0,-19.933 0.004,0 z m -33.129,15.453 c -1.059,1.5 -2.422,2.793 -4.039,3.601 -1.633,0.875 -3.5,1.313 -5.372,1.383 -1.613,0 -3.23,-0.254 -4.73,-0.875 -1.496,-0.625 -2.859,-1.566 -3.988,-2.679 -0.301,-0.25 -0.555,-0.504 -0.809,-0.739 l 0,17.926 -7.035,0 0,-49.453 7.035,0 0,20.937 c 0,0.809 0,1.668 0.188,2.493 0.25,1.547 1.312,3.047 2.675,3.972 1.246,0.942 2.743,1.5 4.243,1.43 1.683,0.07 3.363,-0.555 4.609,-1.664 1.113,-0.945 1.922,-2.258 2.238,-3.621 0.125,-0.692 0.188,-1.363 0.188,-2.121 l 0,-21.426 7.101,0 0,23.246 c 0,0.926 0,1.801 -0.183,2.676 -0.188,1.734 -1.012,3.418 -2.121,4.914 z m -50.145,-3.617 c 1.379,0.941 2.93,1.429 4.543,1.429 1.383,0.067 2.746,-0.183 3.992,-0.742 0.875,-0.371 1.75,-0.926 2.442,-1.613 0.234,-0.188 0.437,-0.508 0.672,-0.762 l 5.421,4.614 c -0.187,0.183 -0.371,0.437 -0.558,0.621 -1.313,1.433 -2.926,2.609 -4.66,3.437 -2.121,1.059 -4.426,1.613 -6.735,1.613 -3.113,0.071 -6.297,-0.875 -8.902,-2.625 -2.746,-1.734 -4.934,-4.359 -6.043,-7.273 -1.129,-2.559 -1.434,-5.418 -1.434,-8.281 0,-2.625 0.239,-5.301 1.18,-7.727 1.18,-3.433 3.805,-6.41 7.035,-8.23 2.375,-1.43 5.102,-2.121 7.844,-2.121 2.309,0 4.613,0.503 6.734,1.5 1.868,0.875 3.618,2.05 4.914,3.55 0.254,0.321 0.438,0.571 0.625,0.809 l -5.421,4.426 c -0.235,-0.254 -0.438,-0.504 -0.672,-0.742 -0.692,-0.688 -1.5,-1.313 -2.442,-1.75 -1.179,-0.555 -2.492,-0.809 -3.855,-0.739 -1.684,0 -3.434,0.555 -4.797,1.547 -1.684,1.129 -2.863,2.863 -3.484,4.797 -0.575,1.617 -0.692,3.301 -0.692,5.051 0.07,1.734 0.254,3.484 0.945,5.101 0.622,1.684 1.868,3.18 3.348,4.106 l 0,0.004 z m -25.031,-0.879 c -1.75,1.062 -3.738,1.633 -5.723,1.937 -1.566,0.321 -3.133,0.504 -4.746,0.555 -1.434,0.07 -2.98,0.07 -4.359,0.508 -1.617,0.437 -3.117,1.43 -3.973,2.859 -0.875,1.18 -1.246,2.676 -1.129,4.11 0.067,1.246 0.555,2.441 1.313,3.367 0.875,1.195 2.238,2 3.601,2.437 1.317,0.371 2.629,0.371 3.922,0.305 2.004,-0.066 3.992,-0.371 5.926,-0.926 1.617,-0.437 3.117,-1.058 4.547,-1.867 0.371,-0.254 0.738,-0.438 1.129,-0.691 l 4.039,6.23 -1.11,0.738 c -2.004,1.196 -4.175,2.121 -6.363,2.746 -2.68,0.809 -5.355,1.247 -8.164,1.247 -2.863,0.066 -5.793,-0.305 -8.402,-1.567 -2.559,-1.18 -4.731,-3.23 -6.11,-5.723 -1.058,-1.8 -1.683,-3.789 -1.801,-5.91 -0.183,-2.371 0.25,-4.73 1.313,-6.918 1.063,-2.422 2.93,-4.476 5.168,-5.906 1.363,-0.879 2.98,-1.566 4.613,-1.937 1.684,-0.372 3.418,-0.504 5.168,-0.575 1.547,-0.121 3.047,-0.183 4.594,-0.484 1.062,-0.254 2.121,-0.559 2.996,-1.18 0.809,-0.57 1.5,-1.379 1.938,-2.187 0.488,-0.926 0.808,-1.988 0.808,-3.047 0.067,-1.313 -0.254,-2.625 -0.945,-3.688 -0.856,-1.429 -2.422,-2.421 -4.106,-2.929 -1.683,-0.606 -3.418,-0.739 -5.234,-0.739 -2.105,0.067 -4.227,0.254 -6.281,0.942 -2.254,0.625 -4.36,1.683 -6.227,3.047 -0.32,0.187 -0.621,0.437 -0.941,0.691 l -4.731,-5.859 c 0.367,-0.25 0.688,-0.555 0.993,-0.809 2.121,-1.75 4.73,-2.996 7.421,-3.871 3.168,-1.109 6.465,-1.684 9.899,-1.684 4.293,-0.05 8.789,0.829 12.086,3.434 2.054,1.5 3.672,3.672 4.597,6.043 0.825,1.988 1.196,4.176 1.008,6.231 -0.133,1.984 -0.687,3.988 -1.683,5.722 -1.196,2.254 -2.926,4.176 -5.047,5.352 l -0.004,-0.004 z m 297.707,69.707 -21.106,0 0,-7.102 21.106,0 0,7.102 z m -32.266,4.547 c 0.317,-0.188 0.571,-0.438 0.875,-0.692 l 4.981,6.231 c -0.25,0.133 -0.489,0.32 -0.672,0.504 -0.942,0.672 -2.004,1.175 -3.063,1.48 -1.246,0.438 -2.558,0.641 -3.855,0.641 -1.617,0 -3.184,-0.321 -4.68,-0.946 -1.363,-0.554 -2.609,-1.363 -3.601,-2.371 -0.371,-0.304 -0.625,-0.675 -0.946,-0.996 l 0,3.875 -7.101,0 0,-35.316 7.101,0 0,21.359 c 0,0.559 0,1.129 0.137,1.617 0.184,0.993 0.555,2.004 1.109,2.809 0.575,0.742 1.247,1.367 2.055,1.871 1.246,0.809 2.813,1.246 4.309,1.059 1.179,-0.067 2.355,-0.438 3.351,-1.125 z m -49.761,-5.102 c 0.187,0.926 0.507,1.852 0.996,2.727 0.757,1.195 1.816,2.187 3.113,2.812 1.129,0.555 2.375,0.875 3.621,0.805 1.242,-0.066 2.559,-0.438 3.602,-1.125 1.312,-0.809 2.371,-1.922 2.996,-3.301 0.25,-0.691 0.504,-1.363 0.554,-2.055 0,-0.3 0.067,-0.691 0.067,-1.058 l -15.016,0 c 0,0.367 0.07,0.758 0.07,1.195 l -0.003,0 z m 16.515,-20.875 c 1.43,0.742 2.793,1.684 3.856,2.863 0.316,0.321 0.554,0.625 0.808,0.942 l -5.422,4.613 c -0.254,-0.32 -0.488,-0.57 -0.742,-0.824 -0.738,-0.809 -1.75,-1.434 -2.742,-1.871 -1.313,-0.555 -2.676,-0.805 -4.059,-0.738 -1.8,-0.067 -3.601,0.437 -5.097,1.496 -1.063,0.675 -1.938,1.734 -2.492,2.863 -0.438,0.992 -0.692,2.055 -0.692,3.113 0,0.305 0,0.692 0.07,0.992 l 21.985,0 0,5.356 c -0.055,1.058 -0.055,2.187 -0.254,3.246 -0.238,1.988 -0.992,3.922 -2.106,5.605 -1.246,1.918 -2.929,3.485 -4.933,4.614 -2.168,1.23 -4.727,1.918 -7.219,1.867 -2.426,0.055 -4.848,-0.57 -6.918,-1.75 -1.988,-0.992 -3.738,-2.559 -5.035,-4.359 -1.195,-1.684 -2.121,-3.551 -2.441,-5.54 -0.184,-0.941 -0.184,-1.867 -0.235,-2.808 l 0,-6.231 c 0,-0.925 0,-1.867 0.188,-2.793 0.183,-2.187 0.992,-4.308 2.238,-6.109 1.363,-2.055 3.297,-3.672 5.469,-4.801 2.187,-1.176 4.613,-1.801 7.054,-1.801 2.981,-0.121 6.043,0.625 8.719,2.055 z m -40.871,-1.43 c 1.633,0.372 3.25,0.926 4.68,1.938 1.617,1.059 2.98,2.676 3.738,4.543 0.621,1.363 0.922,2.93 0.805,4.477 0,1.617 -0.438,3.234 -1.242,4.664 -0.692,1.261 -1.618,2.324 -2.747,3.183 -1.109,0.875 -2.492,1.563 -3.921,1.867 -1.547,0.438 -3.164,0.504 -4.731,0.571 -0.992,0.054 -1.933,0.121 -2.93,0.121 -0.875,0.07 -1.8,0.07 -2.675,0.371 -0.739,0.187 -1.43,0.691 -1.868,1.383 -0.437,0.554 -0.621,1.293 -0.503,2.05 0.066,0.625 0.316,1.247 0.753,1.735 0.372,0.508 0.93,0.875 1.485,1.129 1.058,0.508 2.254,0.554 3.433,0.508 1.75,0 3.434,-0.204 4.981,-0.692 1.433,-0.437 2.863,-1.129 4.039,-2.004 0.254,-0.183 0.508,-0.422 0.762,-0.621 l 4.359,5.856 c -0.371,0.254 -0.691,0.504 -1.062,0.757 -1.684,1.18 -3.551,2.055 -5.489,2.61 -2.422,0.808 -4.98,1.129 -7.59,1.129 -2.308,0 -4.664,-0.254 -6.734,-1.313 -1.734,-0.808 -3.23,-2.121 -4.293,-3.738 -1.062,-1.563 -1.684,-3.363 -1.75,-5.168 -0.121,-1.496 0.133,-3.047 0.758,-4.426 0.555,-1.566 1.547,-2.93 2.793,-3.988 1.062,-0.926 2.441,-1.617 3.805,-2.055 1.062,-0.304 2.187,-0.437 3.23,-0.554 1.383,-0.133 2.695,-0.133 3.992,-0.184 1.195,0 2.371,0 3.5,-0.32 0.672,-0.188 1.363,-0.555 1.867,-1.063 0.489,-0.555 0.743,-1.297 0.743,-2.105 0,-0.942 -0.321,-1.868 -0.926,-2.489 -0.641,-0.625 -1.449,-0.945 -2.254,-1.195 -1.551,-0.437 -3.117,-0.625 -4.664,-0.555 -1.633,0 -3.25,0.321 -4.797,0.875 -1.617,0.489 -3.113,1.364 -4.359,2.489 -0.321,0.254 -0.575,0.488 -0.875,0.742 l -5.051,-4.985 c 0.203,-0.183 0.32,-0.367 0.504,-0.554 1.683,-1.75 3.855,-2.926 6.16,-3.871 2.629,-1.059 5.355,-1.664 8.097,-1.735 2.004,-0.066 3.989,0.121 5.977,0.625 l 0,-0.008 z m -36.176,0 c 1.684,0.372 3.301,0.926 4.664,1.938 1.684,1.059 2.996,2.676 3.739,4.543 0.687,1.363 0.941,2.93 0.875,4.477 -0.067,1.617 -0.504,3.234 -1.313,4.664 -0.676,1.261 -1.551,2.324 -2.746,3.183 -1.109,0.875 -2.488,1.563 -3.922,1.867 -1.48,0.438 -3.113,0.504 -4.73,0.571 -0.926,0.054 -1.934,0.121 -2.926,0.121 -0.879,0.07 -1.805,0.07 -2.68,0.371 -0.738,0.183 -1.429,0.691 -1.867,1.383 -0.371,0.554 -0.555,1.293 -0.488,2.05 0.054,0.625 0.371,1.247 0.742,1.735 0.437,0.504 0.926,0.875 1.496,1.129 1.063,0.504 2.309,0.554 3.484,0.504 1.684,0 3.368,-0.2 4.985,-0.692 1.429,-0.437 2.793,-1.125 3.988,-2 0.254,-0.187 0.488,-0.422 0.742,-0.625 l 4.426,5.86 c -0.371,0.254 -0.738,0.504 -1.129,0.757 -1.683,1.18 -3.551,2.055 -5.469,2.61 -2.441,0.808 -4.984,1.129 -7.543,1.129 -2.304,0 -4.73,-0.254 -6.781,-1.313 -1.683,-0.808 -3.25,-2.121 -4.312,-3.738 -0.993,-1.566 -1.614,-3.367 -1.731,-5.168 -0.07,-1.496 0.184,-3.047 0.738,-4.426 0.575,-1.566 1.567,-2.93 2.813,-3.988 1.109,-0.926 2.422,-1.617 3.855,-2.055 1.059,-0.304 2.122,-0.437 3.247,-0.554 1.296,-0.137 2.609,-0.137 3.972,-0.184 1.129,0 2.309,0 3.434,-0.32 0.742,-0.188 1.433,-0.555 1.871,-1.063 0.488,-0.555 0.738,-1.297 0.738,-2.105 0,-0.942 -0.301,-1.868 -0.926,-2.493 -0.57,-0.621 -1.429,-0.941 -2.254,-1.191 -1.546,-0.437 -3.046,-0.625 -4.593,-0.559 -1.633,0 -3.301,0.321 -4.867,0.875 -1.547,0.493 -3.114,1.364 -4.36,2.493 -0.301,0.254 -0.555,0.488 -0.808,0.742 l -5.098,-4.985 0.555,-0.554 c 1.683,-1.75 3.851,-2.93 6.109,-3.871 2.609,-1.063 5.352,-1.668 8.148,-1.735 2,-0.066 3.989,0.121 5.922,0.625 l 0,-0.008 z m -35.871,9.715 c -0.133,-0.742 -0.437,-1.5 -1.008,-2.054 -0.672,-0.743 -1.734,-1.129 -2.793,-1.313 -1.246,-0.238 -2.492,-0.305 -3.671,-0.305 -1.262,0 -2.508,0.067 -3.688,0.438 -0.992,0.305 -1.934,0.859 -2.488,1.734 -0.555,0.809 -0.809,1.817 -0.742,2.813 0.054,0.875 0.304,1.734 0.875,2.422 0.625,0.875 1.617,1.5 2.675,1.617 0.555,0.133 1.114,0.066 1.735,0.066 l 9.226,0 0,-3.047 c 0,-0.808 0.067,-1.566 -0.121,-2.371 z m 7.223,-9.898 0,24.594 c -0.067,0.757 -0.133,1.562 -0.254,2.304 -0.371,2.239 -1.684,4.36 -3.484,5.86 -1.313,1.175 -2.809,1.933 -4.426,2.355 -1.867,0.57 -3.805,0.641 -5.723,0.641 -1.937,0 -3.871,-0.071 -5.672,-0.508 -1.062,-0.25 -2.121,-0.621 -3.117,-1.125 -1.246,-0.676 -2.422,-1.617 -3.23,-2.797 -0.133,-0.133 -0.25,-0.32 -0.387,-0.504 l 5.605,-4.41 c 0.184,0.305 0.371,0.625 0.575,0.859 0.554,0.622 1.363,1.059 2.238,1.247 0.992,0.25 1.918,0.25 2.859,0.25 1.18,0.07 2.375,0.07 3.551,-0.051 1.062,-0.137 2.055,-0.391 2.863,-1.012 0.625,-0.488 1.129,-1.18 1.379,-1.918 0.188,-0.691 0.121,-1.383 0.121,-2.07 l 0,-2.676 -9.406,0 c -0.996,0.066 -2.055,0.066 -3.047,-0.121 -2.242,-0.32 -4.359,-1.5 -5.926,-3.235 -1.668,-1.75 -2.675,-4.054 -2.796,-6.48 -0.184,-2.004 0.304,-4.055 1.316,-5.855 1.176,-2.122 3.164,-3.805 5.402,-4.731 1.934,-0.875 4.125,-1.129 6.246,-1.062 1.43,0 2.86,0.187 4.223,0.675 1.129,0.387 2.238,1.008 3.047,1.883 0.32,0.438 0.621,0.86 0.941,1.363 l 0,-3.484 7.106,0 -0.004,0.008 z m -38.817,49.453 -8.031,-35.078 -9.711,35.078 -5.285,0 -9.664,-35.078 -7.977,35.078 -7.96,0 12.32,-49.453 6.664,0 9.293,35.805 9.273,-35.805 6.602,0 12.336,49.453" /><path
         id="path3524"
         style="fill:#0c0b09;fill-opacity:1;fill-rule:nonzero;stroke:none"
         d="m 471.469,47.392 c -0.067,-4.039 -0.555,-8.148 -1.684,-12.07 -0.992,-3.938 -2.609,-7.727 -4.66,-11.211 -2.055,-3.5 -4.547,-6.801 -7.426,-9.66 C 454.84,11.587 451.605,9.095 448.055,7.044 444.57,4.99 440.766,3.423 436.844,2.365 432.922,1.251 428.816,0.63 424.758,0.681 l -377.352,0 c -4.058,0 -8.164,0.57 -12.086,1.684 -3.922,0.992 -7.726,2.625 -11.211,4.679 -3.484,2.051 -6.785,4.543 -9.664,7.407 -2.859,2.859 -5.351,6.16 -7.406,9.66 -2.055,3.535 -3.601,7.273 -4.66,11.211 -1.129,3.922 -1.684,8.031 -1.684,12.07 l 0,612.793 c 0.051,4.039 0.555,8.078 1.684,12.016 0.992,3.921 2.605,7.726 4.66,11.21 2.055,3.536 4.547,6.786 7.406,9.645 2.879,2.93 6.18,5.422 9.664,7.41 3.551,2.07 7.289,3.684 11.211,4.746 3.922,1.11 8.028,1.684 12.086,1.684 l 377.352,0 c 4.058,-0.07 8.164,-0.574 12.086,-1.684 3.922,-1.062 7.726,-2.629 11.211,-4.746 3.55,-1.988 6.785,-4.48 9.644,-7.41 2.879,-2.859 5.371,-6.109 7.426,-9.645 2.051,-3.484 3.602,-7.289 4.66,-11.21 1.129,-3.938 1.684,-7.977 1.684,-12.016 l 0,-612.793 z m -0.992,624.996 c -1.059,3.988 -2.676,7.844 -4.731,11.395 -2.055,3.601 -4.613,6.918 -7.539,9.781 -2.93,2.93 -6.23,5.469 -9.848,7.523 -3.55,2.121 -7.339,3.739 -11.394,4.797 -3.926,1.129 -8.098,1.633 -12.207,1.684 l -377.352,0 c -4.109,0 -8.285,-0.555 -12.273,-1.684 -3.988,-1.109 -7.793,-2.676 -11.395,-4.797 -3.55,-2.054 -6.851,-4.593 -9.781,-7.523 -2.93,-2.863 -5.488,-6.18 -7.539,-9.781 C 4.363,680.232 2.68,676.376 1.688,672.388 0.559,668.4 0.004,664.29 0.004,660.185 l 0,-612.793 c -0.066,-4.109 0.555,-8.281 1.684,-12.273 1.058,-3.973 2.675,-7.774 4.796,-11.395 1.985,-3.551 4.543,-6.852 7.473,-9.781 2.93,-2.926 6.231,-5.469 9.848,-7.524 3.535,-2.05 7.34,-3.734 11.394,-4.73 3.922,-1.125 8.098,-1.684 12.207,-1.684 l 377.352,0 c 4.109,-0.066 8.281,0.559 12.273,1.684 3.989,1.047 7.778,2.68 11.395,4.73 3.551,2.055 6.851,4.598 9.781,7.524 2.926,2.929 5.484,6.23 7.539,9.847 2.055,3.555 3.738,7.356 4.731,11.399 1.128,3.922 1.683,8.094 1.683,12.203 l 0,612.793 c 0.067,4.105 -0.555,8.215 -1.683,12.203" /><path
         id="path3526"
         style="fill:#154889;fill-opacity:1;fill-rule:nonzero;stroke:none"
         d="m 136.027,462.365 c 1.551,0.691 3.114,1.316 4.664,1.937 3.25,1.246 6.664,2.305 10.098,2.742 3.484,0.555 7.035,0.555 10.523,0 3.481,-0.437 6.918,-1.429 10.149,-2.742 3.113,-1.18 6.109,-2.609 9.223,-3.805 3.234,-1.296 6.668,-2.289 10.152,-2.793 3.484,-0.503 7.035,-0.503 10.469,0 3.484,0.504 6.902,1.497 10.148,2.793 3.098,1.196 6.094,2.625 9.211,3.805 3.297,1.313 6.664,2.305 10.148,2.742 3.485,0.555 7.036,0.555 10.54,0 3.484,-0.437 6.851,-1.429 10.148,-2.742 3.113,-1.18 6.094,-2.609 9.207,-3.805 3.25,-1.296 6.664,-2.289 10.152,-2.793 3.434,-0.503 6.985,-0.503 10.469,0 3.484,0.504 6.918,1.497 10.149,2.793 3.117,1.196 6.113,2.625 9.226,3.805 3.231,1.313 6.664,2.305 10.149,2.742 3.484,0.555 7.035,0.555 10.519,0 3.484,-0.437 6.852,-1.429 10.086,-2.742 1.563,-0.621 3.129,-1.246 4.68,-1.937 l 0,10.035 c -1.551,0.687 -3.117,1.312 -4.68,1.933 -3.234,1.246 -6.652,2.239 -10.086,2.746 -3.484,0.485 -7.035,0.485 -10.519,0 -3.485,-0.507 -6.918,-1.449 -10.149,-2.746 -3.113,-1.195 -6.109,-2.675 -9.226,-3.871 -3.231,-1.293 -6.665,-2.238 -10.149,-2.726 -3.484,-0.504 -7.035,-0.504 -10.469,0 -3.488,0.488 -6.902,1.429 -10.152,2.726 -3.113,1.196 -6.094,2.676 -9.207,3.871 -3.297,1.246 -6.664,2.239 -10.148,2.746 -3.504,0.485 -7.055,0.485 -10.54,0 -3.484,-0.507 -6.851,-1.5 -10.148,-2.746 -3.117,-1.195 -6.113,-2.675 -9.211,-3.871 -3.246,-1.293 -6.664,-2.238 -10.148,-2.726 -3.434,-0.504 -6.985,-0.504 -10.469,0 -3.484,0.488 -6.918,1.429 -10.152,2.726 -3.114,1.196 -6.11,2.676 -9.223,3.871 -3.231,1.297 -6.668,2.239 -10.149,2.746 -3.488,0.485 -7.039,0.485 -10.523,0 -3.434,-0.507 -6.848,-1.5 -10.098,-2.746 -1.55,-0.621 -3.113,-1.246 -4.664,-1.933 l 0,-10.035 z m 0,-20.114 c 1.551,0.688 3.114,1.379 4.664,1.938 3.25,1.312 6.664,2.305 10.098,2.808 3.484,0.489 7.035,0.489 10.523,0 3.481,-0.503 6.918,-1.496 10.149,-2.808 3.113,-1.18 6.109,-2.61 9.223,-3.805 3.234,-1.297 6.668,-2.308 10.152,-2.746 3.484,-0.555 7.035,-0.555 10.469,0 3.484,0.438 6.902,1.5 10.148,2.746 3.098,1.195 6.094,2.625 9.211,3.805 3.297,1.312 6.664,2.305 10.148,2.808 3.485,0.489 7.036,0.489 10.54,0 3.484,-0.503 6.851,-1.496 10.148,-2.808 3.113,-1.18 6.094,-2.61 9.207,-3.805 3.25,-1.246 6.664,-2.308 10.152,-2.746 3.434,-0.555 6.985,-0.555 10.469,0 3.484,0.438 6.918,1.449 10.149,2.746 3.117,1.195 6.113,2.625 9.226,3.805 3.231,1.312 6.664,2.305 10.149,2.808 3.484,0.489 7.035,0.489 10.519,0 3.484,-0.503 6.852,-1.496 10.086,-2.808 1.563,-0.555 3.129,-1.246 4.68,-1.938 l 0,10.032 c -1.551,0.691 -3.117,1.312 -4.68,1.937 -3.234,1.246 -6.652,2.238 -10.086,2.727 -3.484,0.504 -7.035,0.504 -10.519,0 -3.485,-0.489 -6.918,-1.43 -10.149,-2.727 -3.113,-1.195 -6.109,-2.676 -9.226,-3.871 -3.231,-1.297 -6.665,-2.238 -10.149,-2.676 -3.484,-0.554 -7.035,-0.554 -10.469,0 -3.488,0.438 -6.902,1.43 -10.152,2.676 -3.113,1.195 -6.094,2.676 -9.207,3.871 -3.297,1.293 -6.664,2.238 -10.148,2.727 -3.504,0.504 -7.055,0.504 -10.54,0 -3.484,-0.489 -6.851,-1.43 -10.148,-2.727 -3.117,-1.195 -6.113,-2.676 -9.211,-3.871 -3.246,-1.246 -6.664,-2.238 -10.148,-2.676 -3.434,-0.554 -6.985,-0.554 -10.469,0 -3.484,0.438 -6.918,1.379 -10.152,2.676 -3.114,1.195 -6.11,2.676 -9.223,3.871 -3.231,1.293 -6.668,2.238 -10.149,2.727 -3.488,0.504 -7.039,0.504 -10.523,0 -3.434,-0.489 -6.848,-1.43 -10.098,-2.727 -1.55,-0.574 -3.113,-1.246 -4.664,-1.937 l 0,-10.032 z m 0,-19.996 c 1.551,0.688 3.114,1.379 4.664,1.934 3.25,1.312 6.664,2.308 10.098,2.746 3.484,0.504 7.035,0.504 10.523,0 3.481,-0.438 6.918,-1.434 10.149,-2.746 3.113,-1.176 6.109,-2.676 9.223,-3.856 3.234,-1.242 6.668,-2.238 10.152,-2.675 3.484,-0.504 7.035,-0.504 10.469,0 3.484,0.437 6.902,1.433 10.148,2.675 3.098,1.246 6.094,2.68 9.211,3.856 3.297,1.312 6.664,2.308 10.148,2.746 3.485,0.504 7.036,0.504 10.54,0 3.484,-0.438 6.851,-1.434 10.148,-2.746 3.113,-1.176 6.094,-2.61 9.207,-3.856 3.25,-1.242 6.664,-2.238 10.152,-2.675 3.434,-0.504 6.985,-0.504 10.469,0 3.484,0.437 6.918,1.433 10.149,2.675 3.117,1.18 6.113,2.68 9.226,3.856 3.231,1.312 6.664,2.308 10.149,2.746 3.484,0.504 7.035,0.504 10.519,0 3.434,-0.438 6.852,-1.434 10.086,-2.746 1.563,-0.555 3.129,-1.246 4.68,-1.934 l 0,10.031 c -1.551,0.688 -3.117,1.379 -4.68,1.938 -3.234,1.242 -6.652,2.238 -10.086,2.742 -3.484,0.488 -7.035,0.488 -10.519,0 -3.485,-0.504 -6.918,-1.43 -10.149,-2.742 -3.113,-1.18 -6.109,-2.68 -9.226,-3.855 -3.231,-1.247 -6.665,-2.258 -10.149,-2.696 -3.484,-0.488 -7.035,-0.554 -10.469,0 -3.488,0.438 -6.902,1.449 -10.152,2.696 -3.113,1.175 -6.094,2.675 -9.207,3.855 -3.297,1.312 -6.664,2.238 -10.148,2.742 -3.504,0.488 -7.055,0.488 -10.54,0 -3.484,-0.504 -6.851,-1.43 -10.148,-2.742 -3.117,-1.18 -6.113,-2.68 -9.211,-3.855 -3.246,-1.247 -6.664,-2.258 -10.148,-2.696 -3.434,-0.554 -6.985,-0.488 -10.469,0 -3.484,0.438 -6.918,1.449 -10.152,2.696 -3.114,1.175 -6.11,2.675 -9.223,3.855 -3.231,1.312 -6.668,2.238 -10.149,2.742 -3.488,0.488 -7.039,0.488 -10.523,0 -3.434,-0.504 -6.848,-1.43 -10.098,-2.742 -1.55,-0.559 -3.113,-1.246 -4.664,-1.938" /></g></g></svg>