<?xml version="1.0" encoding="UTF-8" standalone="no"?>
<!-- Created with Inkscape (http://www.inkscape.org/) -->

<svg
   xmlns:dc="http://purl.org/dc/elements/1.1/"
   xmlns:cc="http://creativecommons.org/ns#"
   xmlns:rdf="http://www.w3.org/1999/02/22-rdf-syntax-ns#"
   xmlns:svg="http://www.w3.org/2000/svg"
   xmlns="http://www.w3.org/2000/svg"
   xmlns:xlink="http://www.w3.org/1999/xlink"
   xmlns:sodipodi="http://sodipodi.sourceforge.net/DTD/sodipodi-0.dtd"
   xmlns:inkscape="http://www.inkscape.org/namespaces/inkscape"
   width="164.04167mm"
   height="79.375mm"
   viewBox="0 0 164.04167 79.375"
   version="1.1"
   id="svg901"
   inkscape:version="0.92.4 (33fec40, 2019-01-16)"
   sodipodi:docname="E-15e.svg">
  <defs
     id="defs895" />
  <sodipodi:namedview
     id="base"
     pagecolor="#ffffff"
     bordercolor="#666666"
     borderopacity="1.0"
     inkscape:pageopacity="0.0"
     inkscape:pageshadow="2"
     inkscape:zoom="0.35"
     inkscape:cx="412.85714"
     inkscape:cy="221.42857"
     inkscape:document-units="mm"
     inkscape:current-layer="layer1"
     showgrid="false"
     fit-margin-top="0"
     fit-margin-left="0"
     fit-margin-right="0"
     fit-margin-bottom="0"
     inkscape:window-width="1366"
     inkscape:window-height="740"
     inkscape:window-x="1920"
     inkscape:window-y="0"
     inkscape:window-maximized="1" />
  <metadata
     id="metadata898">
    <rdf:RDF>
      <cc:Work
         rdf:about="">
        <dc:format>image/svg+xml</dc:format>
        <dc:type
           rdf:resource="http://purl.org/dc/dcmitype/StillImage" />
        <dc:title></dc:title>
      </cc:Work>
    </rdf:RDF>
  </metadata>
  <g
     inkscape:label="Layer 1"
     inkscape:groupmode="layer"
     id="layer1"
     transform="translate(3.4017847,-128.04464)">
    <g
       id="g3396"
       transform="matrix(0.26458333,0,0,0.26458333,49.514882,227.02539)">
      <rect
         width="599.95251"
         height="280"
         rx="32.159977"
         ry="30"
         x="-190"
         y="-364.10046"
         id="rect2396"
         style="fill:#ffcc33;fill-opacity:1;stroke:#ffffff;stroke-width:20;stroke-miterlimit:4;stroke-dasharray:none;stroke-opacity:1" />
      <rect
         width="20"
         height="20"
         x="-160"
         y="-374.10046"
         id="rect3194"
         style="fill:#000000;fill-opacity:1;stroke:none;stroke-width:20;stroke-miterlimit:4;stroke-dasharray:none;stroke-opacity:1" />
      <use
         transform="translate(40)"
         id="use3210"
         x="0"
         y="0"
         width="744.09448"
         height="1052.3622"
         xlink:href="#rect3194" />
      <use
         transform="translate(40)"
         id="use3212"
         x="0"
         y="0"
         width="744.09448"
         height="1052.3622"
         xlink:href="#use3210" />
      <use
         transform="translate(40)"
         id="use3214"
         x="0"
         y="0"
         width="744.09448"
         height="1052.3622"
         xlink:href="#use3212" />
      <use
         transform="translate(40)"
         id="use3216"
         x="0"
         y="0"
         width="744.09448"
         height="1052.3622"
         xlink:href="#use3214" />
      <use
         transform="translate(40)"
         id="use3218"
         x="0"
         y="0"
         width="744.09448"
         height="1052.3622"
         xlink:href="#use3216" />
      <use
         transform="translate(40)"
         id="use3220"
         x="0"
         y="0"
         width="744.09448"
         height="1052.3622"
         xlink:href="#use3218" />
      <use
         transform="translate(40)"
         id="use3222"
         x="0"
         y="0"
         width="744.09448"
         height="1052.3622"
         xlink:href="#use3220" />
      <use
         transform="translate(40)"
         id="use3224"
         x="0"
         y="0"
         width="744.09448"
         height="1052.3622"
         xlink:href="#use3222" />
      <use
         transform="translate(120)"
         id="use3226"
         x="0"
         y="0"
         width="744.09448"
         height="1052.3622"
         xlink:href="#use3220" />
      <use
         transform="translate(120)"
         id="use3228"
         x="0"
         y="0"
         width="744.09448"
         height="1052.3622"
         xlink:href="#use3222" />
      <use
         transform="translate(120)"
         id="use3230"
         x="0"
         y="0"
         width="744.09448"
         height="1052.3622"
         xlink:href="#use3224" />
      <use
         transform="translate(120)"
         id="use3232"
         x="0"
         y="0"
         width="744.09448"
         height="1052.3622"
         xlink:href="#use3226" />
      <rect
         width="20"
         height="20"
         x="274.10052"
         y="-200"
         transform="rotate(-90)"
         id="use3240"
         style="fill:#000000;fill-opacity:1;stroke:none;stroke-width:20;stroke-miterlimit:4;stroke-dasharray:none;stroke-opacity:1" />
      <rect
         width="20"
         height="20"
         x="314.10046"
         y="-200"
         transform="rotate(-90)"
         id="use3242"
         style="fill:#000000;fill-opacity:1;stroke:none;stroke-width:20;stroke-miterlimit:4;stroke-dasharray:none;stroke-opacity:1" />
      <rect
         width="20"
         height="20"
         x="234.10052"
         y="-200"
         transform="rotate(-90)"
         id="use3244"
         style="fill:#000000;fill-opacity:1;stroke:none;stroke-width:20;stroke-miterlimit:4;stroke-dasharray:none;stroke-opacity:1" />
      <use
         transform="translate(-2.6367188e-6,120)"
         id="use3246"
         x="0"
         y="0"
         width="744.09448"
         height="1052.3622"
         xlink:href="#use3240" />
      <use
         transform="translate(-2.6367188e-6,120)"
         id="use3248"
         x="0"
         y="0"
         width="744.09448"
         height="1052.3622"
         xlink:href="#use3242" />
      <use
         transform="translate(-2.6367188e-6,120)"
         id="use3250"
         x="0"
         y="0"
         width="744.09448"
         height="1052.3622"
         xlink:href="#use3244" />
      <use
         transform="translate(600,6.1035156e-5)"
         id="use3252"
         x="0"
         y="0"
         width="744.09448"
         height="1052.3622"
         xlink:href="#use3240" />
      <use
         transform="translate(600,6.1035156e-5)"
         id="use3254"
         x="0"
         y="0"
         width="744.09448"
         height="1052.3622"
         xlink:href="#use3242" />
      <use
         transform="translate(600,6.1035156e-5)"
         id="use3256"
         x="0"
         y="0"
         width="744.09448"
         height="1052.3622"
         xlink:href="#use3244" />
      <use
         transform="translate(600,6.1035156e-5)"
         id="use3258"
         x="0"
         y="0"
         width="744.09448"
         height="1052.3622"
         xlink:href="#use3246" />
      <use
         transform="translate(600,6.1035156e-5)"
         id="use3260"
         x="0"
         y="0"
         width="744.09448"
         height="1052.3622"
         xlink:href="#use3248" />
      <use
         transform="translate(600,6.1035156e-5)"
         id="use3262"
         x="0"
         y="0"
         width="744.09448"
         height="1052.3622"
         xlink:href="#use3250" />
      <use
         transform="translate(-3.6718745e-8,280)"
         id="use3264"
         x="0"
         y="0"
         width="744.09448"
         height="1052.3622"
         xlink:href="#rect3194" />
      <use
         transform="translate(-3.6718745e-8,280)"
         id="use3266"
         x="0"
         y="0"
         width="744.09448"
         height="1052.3622"
         xlink:href="#use3210" />
      <use
         transform="translate(-3.6718745e-8,280)"
         id="use3268"
         x="0"
         y="0"
         width="744.09448"
         height="1052.3622"
         xlink:href="#use3212" />
      <use
         transform="translate(-3.6718745e-8,280)"
         id="use3270"
         x="0"
         y="0"
         width="744.09448"
         height="1052.3622"
         xlink:href="#use3214" />
      <use
         transform="translate(-3.6718745e-8,280)"
         id="use3272"
         x="0"
         y="0"
         width="744.09448"
         height="1052.3622"
         xlink:href="#use3216" />
      <use
         transform="translate(-3.6718745e-8,280)"
         id="use3274"
         x="0"
         y="0"
         width="744.09448"
         height="1052.3622"
         xlink:href="#use3218" />
      <use
         transform="translate(-3.6718745e-8,280)"
         id="use3276"
         x="0"
         y="0"
         width="744.09448"
         height="1052.3622"
         xlink:href="#use3220" />
      <use
         transform="translate(-3.6718745e-8,280)"
         id="use3278"
         x="0"
         y="0"
         width="744.09448"
         height="1052.3622"
         xlink:href="#use3222" />
      <use
         transform="translate(-3.6718745e-8,280)"
         id="use3280"
         x="0"
         y="0"
         width="744.09448"
         height="1052.3622"
         xlink:href="#use3224" />
      <use
         transform="translate(-3.6718745e-8,280)"
         id="use3282"
         x="0"
         y="0"
         width="744.09448"
         height="1052.3622"
         xlink:href="#use3226" />
      <use
         transform="translate(-3.6718745e-8,280)"
         id="use3284"
         x="0"
         y="0"
         width="744.09448"
         height="1052.3622"
         xlink:href="#use3228" />
      <use
         transform="translate(-3.6718745e-8,280)"
         id="use3286"
         x="0"
         y="0"
         width="744.09448"
         height="1052.3622"
         xlink:href="#use3230" />
      <use
         transform="translate(-3.6718745e-8,280)"
         id="use3288"
         x="0"
         y="0"
         width="744.09448"
         height="1052.3622"
         xlink:href="#use3232" />
      <use
         transform="translate(40)"
         id="use2617"
         x="0"
         y="0"
         width="585.83362"
         height="305.89954"
         xlink:href="#use3232" />
      <use
         transform="translate(0,280)"
         id="use2619"
         x="0"
         y="0"
         width="585.83362"
         height="305.89954"
         xlink:href="#use2617" />
    </g>
  </g>
</svg>
