<?xml version="1.0" encoding="UTF-8" standalone="no"?>
<!-- Created with Inkscape (http://www.inkscape.org/) -->

<svg
   xmlns:dc="http://purl.org/dc/elements/1.1/"
   xmlns:cc="http://creativecommons.org/ns#"
   xmlns:rdf="http://www.w3.org/1999/02/22-rdf-syntax-ns#"
   xmlns:svg="http://www.w3.org/2000/svg"
   xmlns="http://www.w3.org/2000/svg"
   xmlns:xlink="http://www.w3.org/1999/xlink"
   xmlns:sodipodi="http://sodipodi.sourceforge.net/DTD/sodipodi-0.dtd"
   xmlns:inkscape="http://www.inkscape.org/namespaces/inkscape"
   width="164.04167mm"
   height="79.375mm"
   viewBox="0 0 164.04167 79.375"
   version="1.1"
   id="svg1146"
   inkscape:version="0.92.4 (33fec40, 2019-01-16)"
   sodipodi:docname="E-15f.svg">
  <defs
     id="defs1140" />
  <sodipodi:namedview
     id="base"
     pagecolor="#ffffff"
     bordercolor="#666666"
     borderopacity="1.0"
     inkscape:pageopacity="0.0"
     inkscape:pageshadow="2"
     inkscape:zoom="0.35"
     inkscape:cx="587.14285"
     inkscape:cy="124.28571"
     inkscape:document-units="mm"
     inkscape:current-layer="layer1"
     showgrid="false"
     fit-margin-top="0"
     fit-margin-left="0"
     fit-margin-right="0"
     fit-margin-bottom="0"
     inkscape:window-width="1366"
     inkscape:window-height="740"
     inkscape:window-x="1920"
     inkscape:window-y="0"
     inkscape:window-maximized="1" />
  <metadata
     id="metadata1143">
    <rdf:RDF>
      <cc:Work
         rdf:about="">
        <dc:format>image/svg+xml</dc:format>
        <dc:type
           rdf:resource="http://purl.org/dc/dcmitype/StillImage" />
        <dc:title></dc:title>
      </cc:Work>
    </rdf:RDF>
  </metadata>
  <g
     inkscape:label="Layer 1"
     inkscape:groupmode="layer"
     id="layer1"
     transform="translate(49.51488,-102.34226)">
    <g
       id="g4034"
       transform="matrix(0.26458333,0,0,0.26458333,-65.011903,32.925602)">
      <rect
         style="fill:#ed2224;fill-opacity:1;stroke:#ffffff;stroke-width:20;stroke-miterlimit:4;stroke-dasharray:none;stroke-opacity:1"
         id="rect2396"
         y="272.36218"
         x="68.571426"
         ry="30"
         rx="32.159977"
         height="280"
         width="599.95251" />
      <rect
         style="fill:#000000;fill-opacity:1;stroke:none"
         id="rect3194"
         y="262.36218"
         x="98.571426"
         height="20"
         width="20" />
      <use
         xlink:href="#rect3194"
         height="1052.3622"
         width="744.09448"
         y="0"
         x="0"
         id="use3210"
         transform="translate(40)" />
      <use
         xlink:href="#use3210"
         height="1052.3622"
         width="744.09448"
         y="0"
         x="0"
         id="use3212"
         transform="translate(40)" />
      <use
         xlink:href="#use3212"
         height="1052.3622"
         width="744.09448"
         y="0"
         x="0"
         id="use3214"
         transform="translate(40)" />
      <use
         xlink:href="#use3214"
         height="1052.3622"
         width="744.09448"
         y="0"
         x="0"
         id="use3216"
         transform="translate(40)" />
      <use
         xlink:href="#use3216"
         height="1052.3622"
         width="744.09448"
         y="0"
         x="0"
         id="use3218"
         transform="translate(40)" />
      <use
         xlink:href="#use3218"
         height="1052.3622"
         width="744.09448"
         y="0"
         x="0"
         id="use3220"
         transform="translate(40)" />
      <use
         xlink:href="#use3220"
         height="1052.3622"
         width="744.09448"
         y="0"
         x="0"
         id="use3222"
         transform="translate(40)" />
      <use
         xlink:href="#use3222"
         height="1052.3622"
         width="744.09448"
         y="0"
         x="0"
         id="use3224"
         transform="translate(40)" />
      <use
         xlink:href="#use3220"
         height="1052.3622"
         width="744.09448"
         y="0"
         x="0"
         id="use3226"
         transform="translate(120)" />
      <use
         xlink:href="#use3222"
         height="1052.3622"
         width="744.09448"
         y="0"
         x="0"
         id="use3228"
         transform="translate(120)" />
      <use
         xlink:href="#use3224"
         height="1052.3622"
         width="744.09448"
         y="0"
         x="0"
         id="use3230"
         transform="translate(120)" />
      <use
         xlink:href="#use3226"
         height="1052.3622"
         width="744.09448"
         y="0"
         x="0"
         id="use3232"
         transform="translate(120)" />
      <rect
         style="fill:#000000;fill-opacity:1;stroke:none"
         id="use3240"
         transform="rotate(-90)"
         y="58.57143"
         x="-362.36212"
         height="20"
         width="20" />
      <rect
         style="fill:#000000;fill-opacity:1;stroke:none"
         id="use3242"
         transform="rotate(-90)"
         y="58.57143"
         x="-322.36218"
         height="20"
         width="20" />
      <rect
         style="fill:#000000;fill-opacity:1;stroke:none"
         id="use3244"
         transform="rotate(-90)"
         y="58.57143"
         x="-402.36212"
         height="20"
         width="20" />
      <use
         xlink:href="#use3240"
         height="1052.3622"
         width="744.09448"
         y="0"
         x="0"
         id="use3246"
         transform="translate(-2.6367188e-6,120)" />
      <use
         xlink:href="#use3242"
         height="1052.3622"
         width="744.09448"
         y="0"
         x="0"
         id="use3248"
         transform="translate(-2.6367188e-6,120)" />
      <use
         xlink:href="#use3244"
         height="1052.3622"
         width="744.09448"
         y="0"
         x="0"
         id="use3250"
         transform="translate(-2.6367188e-6,120)" />
      <use
         xlink:href="#use3240"
         height="1052.3622"
         width="744.09448"
         y="0"
         x="0"
         id="use3252"
         transform="translate(600,6.1035156e-5)" />
      <use
         xlink:href="#use3242"
         height="1052.3622"
         width="744.09448"
         y="0"
         x="0"
         id="use3254"
         transform="translate(600,6.1035156e-5)" />
      <use
         xlink:href="#use3244"
         height="1052.3622"
         width="744.09448"
         y="0"
         x="0"
         id="use3256"
         transform="translate(600,6.1035156e-5)" />
      <use
         xlink:href="#use3246"
         height="1052.3622"
         width="744.09448"
         y="0"
         x="0"
         id="use3258"
         transform="translate(600,6.1035156e-5)" />
      <use
         xlink:href="#use3248"
         height="1052.3622"
         width="744.09448"
         y="0"
         x="0"
         id="use3260"
         transform="translate(600,6.1035156e-5)" />
      <use
         xlink:href="#use3250"
         height="1052.3622"
         width="744.09448"
         y="0"
         x="0"
         id="use3262"
         transform="translate(600,6.1035156e-5)" />
      <use
         xlink:href="#rect3194"
         height="1052.3622"
         width="744.09448"
         y="0"
         x="0"
         id="use3264"
         transform="translate(-3.6718745e-8,280)" />
      <use
         xlink:href="#use3210"
         height="1052.3622"
         width="744.09448"
         y="0"
         x="0"
         id="use3266"
         transform="translate(-3.6718745e-8,280)" />
      <use
         xlink:href="#use3212"
         height="1052.3622"
         width="744.09448"
         y="0"
         x="0"
         id="use3268"
         transform="translate(-3.6718745e-8,280)" />
      <use
         xlink:href="#use3214"
         height="1052.3622"
         width="744.09448"
         y="0"
         x="0"
         id="use3270"
         transform="translate(-3.6718745e-8,280)" />
      <use
         xlink:href="#use3216"
         height="1052.3622"
         width="744.09448"
         y="0"
         x="0"
         id="use3272"
         transform="translate(-3.6718745e-8,280)" />
      <use
         xlink:href="#use3218"
         height="1052.3622"
         width="744.09448"
         y="0"
         x="0"
         id="use3274"
         transform="translate(-3.6718745e-8,280)" />
      <use
         xlink:href="#use3220"
         height="1052.3622"
         width="744.09448"
         y="0"
         x="0"
         id="use3276"
         transform="translate(-3.6718745e-8,280)" />
      <use
         xlink:href="#use3222"
         height="1052.3622"
         width="744.09448"
         y="0"
         x="0"
         id="use3278"
         transform="translate(-3.6718745e-8,280)" />
      <use
         xlink:href="#use3224"
         height="1052.3622"
         width="744.09448"
         y="0"
         x="0"
         id="use3280"
         transform="translate(-3.6718745e-8,280)" />
      <use
         xlink:href="#use3226"
         height="1052.3622"
         width="744.09448"
         y="0"
         x="0"
         id="use3282"
         transform="translate(-3.6718745e-8,280)" />
      <use
         xlink:href="#use3228"
         height="1052.3622"
         width="744.09448"
         y="0"
         x="0"
         id="use3284"
         transform="translate(-3.6718745e-8,280)" />
      <use
         xlink:href="#use3230"
         height="1052.3622"
         width="744.09448"
         y="0"
         x="0"
         id="use3286"
         transform="translate(-3.6718745e-8,280)" />
      <use
         xlink:href="#use3232"
         height="1052.3622"
         width="744.09448"
         y="0"
         x="0"
         id="use3288"
         transform="translate(-3.6718745e-8,280)" />
      <use
         xlink:href="#use3232"
         height="305.89954"
         width="585.83362"
         y="0"
         x="0"
         id="use2617"
         transform="translate(40)" />
      <use
         xlink:href="#use2617"
         height="305.89954"
         width="585.83362"
         y="0"
         x="0"
         id="use2619"
         transform="translate(0,280)" />
    </g>
  </g>
</svg>
