<?xml version="1.0" encoding="UTF-8" standalone="no"?>
<!-- Created with Inkscape (http://www.inkscape.org/) -->

<svg
   xmlns:dc="http://purl.org/dc/elements/1.1/"
   xmlns:cc="http://creativecommons.org/ns#"
   xmlns:rdf="http://www.w3.org/1999/02/22-rdf-syntax-ns#"
   xmlns:svg="http://www.w3.org/2000/svg"
   xmlns="http://www.w3.org/2000/svg"
   xmlns:sodipodi="http://sodipodi.sourceforge.net/DTD/sodipodi-0.dtd"
   xmlns:inkscape="http://www.inkscape.org/namespaces/inkscape"
   height="498.97775"
   width="498.97797"
   id="svg2"
   sodipodi:version="0.32"
   inkscape:version="0.48.2 r9819"
   version="1.0"
   sodipodi:docname="AJAX.svg">
  <defs
     id="defs4">
    <pattern
       patternUnits="userSpaceOnUse"
       width="370"
       height="476"
       patternTransform="translate(18.50938,18)"
       id="pattern5932">
      <rect
         ry="20"
         rx="20"
         y="0"
         x="0"
         height="476"
         width="370"
         id="rect5934"
         style="fill:#00e5ff;fill-opacity:1" />
    </pattern>
    <pattern
       id="pattern4002"
       patternTransform="translate(18.50938,18)"
       height="476"
       width="370"
       patternUnits="userSpaceOnUse">
      <rect
         style="fill:#00e5ff;fill-opacity:1"
         id="rect2240"
         width="370"
         height="476"
         x="0"
         y="0"
         rx="20"
         ry="20" />
    </pattern>
    <marker
       style="overflow:visible"
       id="Arrow2Lstart"
       refX="0"
       refY="0"
       orient="auto"
       inkscape:stockid="Arrow2Lstart">
      <path
         transform="matrix(1.1,0,0,1.1,1.1,0)"
         d="M 8.7185878,4.0337352 -2.2072895,0.01601326 8.7185884,-4.0017078 c -1.7454984,2.3720609 -1.7354408,5.6174519 -6e-7,8.035443 z"
         style="font-size:12px;fill-rule:evenodd;stroke-width:0.625;stroke-linejoin:round"
         id="path5785"
         inkscape:connector-curvature="0" />
    </marker>
  </defs>
  <sodipodi:namedview
     id="base"
     pagecolor="#ffffff"
     bordercolor="#666666"
     borderopacity="1.0"
     inkscape:pageopacity="0.0"
     inkscape:pageshadow="2"
     inkscape:cx="126.8475"
     inkscape:cy="249.48887"
     inkscape:zoom="1.2720002"
     inkscape:document-units="px"
     inkscape:current-layer="layer1"
     inkscape:window-width="1280"
     inkscape:window-height="1004"
     inkscape:window-x="-8"
     inkscape:window-y="-8"
     showgrid="false"
     fit-margin-top="0"
     fit-margin-left="0"
     fit-margin-right="0"
     fit-margin-bottom="0"
     inkscape:window-maximized="1" />
  <metadata
     id="metadata7">
    <rdf:RDF>
      <cc:Work
         rdf:about="">
        <dc:format>image/svg+xml</dc:format>
        <dc:type
           rdf:resource="http://purl.org/dc/dcmitype/StillImage" />
      </cc:Work>
    </rdf:RDF>
  </metadata>
  <g
     inkscape:groupmode="layer"
     inkscape:label="Warstwa 1"
     id="layer1"
     transform="translate(-3.0110038,-3.0111274)">
    <path
       sodipodi:type="arc"
       style="fill:#003399;fill-opacity:1;stroke:none"
       id="path1307"
       sodipodi:cx="394.28571"
       sodipodi:cy="549.50507"
       sodipodi:rx="234.28572"
       sodipodi:ry="254.28572"
       d="m 628.57143,549.50507 c 0,140.43812 -104.89329,254.28572 -234.28572,254.28572 -129.39244,0 -234.28573,-113.8476 -234.28573,-254.28572 0,-140.43813 104.89329,-254.28572 234.28573,-254.28572 129.39243,0 234.28572,113.84759 234.28572,254.28572 z"
       transform="matrix(1.064892,0,0,0.981136,-167.3717,-286.6392)" />
    <path
       inkscape:connector-curvature="0"
       d="m 370.41984,66.05986 c -34.01768,1.776969 -68.99193,6.343895 -110.44325,29.802296 l 54.66399,87.178694 14.19374,-29.89452 c 34.8922,33.55708 57.79906,70.10921 41.97815,139.38088 l 61.13808,20.24326 C 463.54033,212.62343 412.1268,128.8736 356.78021,95.497137 L 370.41984,66.05986 z"
       style="fill:#ffffff;fill-opacity:1;stroke:none"
       id="arrow3" />
    <path
       inkscape:connector-curvature="0"
       d="m 33.764957,244.18719 c 18.597995,28.539 40.089446,56.50635 81.173153,80.60278 l 48.00684,-91.01438 -32.98154,2.71317 c 11.53245,-47.01644 31.66699,-85.16592 99.53152,-106.2199 L 216.34609,67.223122 C 113.86146,90.119491 67.190881,176.60211 66.07304,241.22395 l -32.308083,2.96324 z"
       style="fill:#ffffff;fill-opacity:1;stroke:none"
       id="path6594" />
    <path
       inkscape:connector-curvature="0"
       d="m 356.74028,447.07988 c 15.77258,-30.19248 29.62958,-62.62762 30.51582,-110.24824 l -102.86332,2.72282 18.51927,27.42591 c -46.63941,12.97335 -89.76138,14.10417 -141.35609,-34.75125 L 113.03,374.5716 c 70.15732,78.13638 168.41515,76.46812 225.30284,45.792 l 18.40744,26.71628 z"
       style="fill:#ffffff;fill-opacity:1;stroke:none"
       id="path6596" />
  </g>
</svg>
