<?xml version="1.0" encoding="UTF-8" standalone="no"?>
<!-- Created with Inkscape (http://www.inkscape.org/) -->
<svg
   xmlns:ns="http://creativecommons.org/ns#"
   xmlns:dc="http://purl.org/dc/elements/1.1/"
   xmlns:cc="http://web.resource.org/cc/"
   xmlns:rdf="http://www.w3.org/1999/02/22-rdf-syntax-ns#"
   xmlns:svg="http://www.w3.org/2000/svg"
   xmlns="http://www.w3.org/2000/svg"
   xmlns:sodipodi="http://sodipodi.sourceforge.net/DTD/sodipodi-0.dtd"
   xmlns:inkscape="http://www.inkscape.org/namespaces/inkscape"
   width="489.99792"
   height="489.99893"
   id="svg2"
   version="1.1"
   inkscape:version="0.45.1"
   sodipodi:docname="Znak_C-13.svg"
   sodipodi:version="0.32"
   inkscape:output_extension="org.inkscape.output.svg.inkscape"
   sodipodi:docbase="C:\Users\Mistrz\Desktop">
  <defs
     id="defs4">
    <inkscape:perspective
       sodipodi:type="inkscape:persp3d"
       inkscape:vp_x="0 : 526.18109 : 1"
       inkscape:vp_y="0 : 1000 : 0"
       inkscape:vp_z="744.09448 : 526.18109 : 1"
       inkscape:persp3d-origin="372.04724 : 350.78739 : 1"
       id="perspective10" />
    <inkscape:perspective
       sodipodi:type="inkscape:persp3d"
       inkscape:vp_x="0 : 250 : 1"
       inkscape:vp_y="0 : 1000 : 0"
       inkscape:vp_z="500 : 250 : 1"
       inkscape:persp3d-origin="250 : 166.66667 : 1"
       id="perspective3859" />
    <inkscape:perspective
       sodipodi:type="inkscape:persp3d"
       inkscape:vp_x="0 : 0.5 : 1"
       inkscape:vp_y="0 : 1000 : 0"
       inkscape:vp_z="1 : 0.5 : 1"
       inkscape:persp3d-origin="0.5 : 0.33333333 : 1"
       id="perspective3869" />
    <inkscape:perspective
       id="perspective2938"
       inkscape:persp3d-origin="250 : 166.66667 : 1"
       inkscape:vp_z="500 : 250 : 1"
       inkscape:vp_y="0 : 1000 : 0"
       inkscape:vp_x="0 : 250 : 1"
       sodipodi:type="inkscape:persp3d" />
    <marker
       orient="auto"
       refY="0"
       refX="0"
       style="overflow:visible"
       id="Arrow2Lstart">
      <path
         d="M 8.71859,4.03374 -2.20729,0.0160133 8.71859,-4.00171 c -1.7455,2.37206 -1.73544,5.61745 0,8.03545 z"
         transform="matrix(1.1,0,0,1.1,1.1,0)"
         style="font-size:12px;fill-rule:evenodd;stroke-width:0.625;stroke-linejoin:round"
         id="path5785"
         inkscape:connector-curvature="0" />
    </marker>
    <pattern
       height="476"
       width="370"
       patternTransform="translate(18.5094 18)"
       patternUnits="userSpaceOnUse"
       id="pattern4002">
      <rect
         ry="20"
         rx="20"
         height="476"
         width="370"
         y="0"
         x="0"
         style="fill: #00e5ff; fill-opacity: 1;"
         id="rect2240" />
    </pattern>
    <pattern
       height="476"
       width="370"
       patternTransform="translate(18.5094 18)"
       patternUnits="userSpaceOnUse"
       id="pattern5932">
      <rect
         ry="20"
         rx="20"
         height="476"
         width="370"
         y="0"
         x="0"
         style="fill: #00e5ff; fill-opacity: 1;"
         id="rect5934" />
    </pattern>
    <inkscape:perspective
       id="perspective2992"
       inkscape:persp3d-origin="0.5 : 0.33333333 : 1"
       inkscape:vp_z="1 : 0.5 : 1"
       inkscape:vp_y="0 : 1000 : 0"
       inkscape:vp_x="0 : 0.5 : 1"
       sodipodi:type="inkscape:persp3d" />
  </defs>
  <sodipodi:namedview
     id="base"
     pagecolor="#ffffff"
     bordercolor="#666666"
     borderopacity="1.0"
     inkscape:pageopacity="0.0"
     inkscape:pageshadow="2"
     inkscape:zoom="0.83535156"
     inkscape:cx="330.94166"
     inkscape:cy="259.07173"
     inkscape:document-units="px"
     inkscape:current-layer="layer1"
     showgrid="false"
     inkscape:window-width="1280"
     inkscape:window-height="1004"
     inkscape:window-x="-8"
     inkscape:window-y="-8"
     inkscape:window-maximized="1"
     fit-margin-top="0"
     fit-margin-left="0"
     fit-margin-right="0"
     fit-margin-bottom="0" />
  <metadata
     id="metadata7">
    <rdf:RDF>
      <ns:Work
         rdf:about="">
        <dc:format>image/svg+xml</dc:format>
        <dc:type
           rdf:resource="http://purl.org/dc/dcmitype/StillImage" />
        <dc:title />
      </ns:Work>
      <cc:Work
         rdf:about="">
        <dc:format>image/svg+xml</dc:format>
        <dc:type
           rdf:resource="http://purl.org/dc/dcmitype/StillImage" />
      </cc:Work>
    </rdf:RDF>
  </metadata>
  <g
     inkscape:label="Livello 1"
     inkscape:groupmode="layer"
     id="layer1"
     transform="translate(9.1711677,-348.88042)">
    <path
       id="path1343"
       style="fill:#003399;fill-opacity:1;fill-rule:nonzero;stroke:none"
       d="m 480.82675,593.87889 c 0,135.31004 -109.68897,245.00046 -244.99896,245.00046 -135.30999,0 -244.9989577,-109.69042 -244.9989577,-245.00046 0,-135.30805 109.6889677,-244.99847 244.9989577,-244.99847 135.30999,0 244.99896,109.69042 244.99896,244.99847 l 0,0 z"
       inkscape:connector-curvature="0" />
    <g
       id="g2870"
       transform="translate(-13.769999,343.47907)" />
    <g
       id="g2209"
       inkscape:label="Layer 1"
       transform="translate(-13.363797,345.47285)">
      <g
         transform="translate(-518.7633,0.790102)"
         id="g3985" />
      <g
         id="g15488">
        <g
           id="kolo-przod"
           style="fill:#ffffff;fill-opacity:1;stroke:none;stroke-opacity:1"
           transform="matrix(0.5,0,0,0.5,0,-1.17923)">
          <path
             id="opona"
             d="M 235.40625,400 C 146.67242,401.12523 75,473.50078 75,562.5 C 75,652.2 147.8,725 237.5,725 C 327.2,725 400,652.2 400,562.5 C 400,472.8 327.2,400 237.5,400 C 236.79922,400 236.10494,399.99114 235.40625,400 z M 235.71875,425 C 236.30995,424.9925 236.90703,425 237.5,425 C 313.4,425 375,486.6 375,562.5 C 375,638.4 313.4,700 237.5,700 C 161.6,700 100,638.4 100,562.5 C 100,487.19297 160.63628,425.95212 235.71875,425 z "
             style="opacity:1;fill:#ffffff;fill-opacity:1;fill-rule:nonzero;stroke:none;stroke-width:2;stroke-linecap:butt;stroke-linejoin:round;stroke-miterlimit:4;stroke-dasharray:none;stroke-dashoffset:0;stroke-opacity:1" />
          <path
             d="M 262.5 562.5 A 25 25 0 1 1  212.5,562.5 A 25 25 0 1 1  262.5 562.5 z"
             sodipodi:ry="25"
             sodipodi:rx="25"
             sodipodi:cy="562.5"
             sodipodi:cx="237.5"
             id="piasta"
             style="opacity:1;fill:#ffffff;fill-opacity:1;fill-rule:nonzero;stroke:none;stroke-width:2;stroke-linecap:butt;stroke-linejoin:round;stroke-miterlimit:4;stroke-dasharray:none;stroke-dashoffset:0;stroke-opacity:1"
             sodipodi:type="arc" />
        </g>
        <g
           id="kolo-tyl"
           transform="matrix(0.5,0,0,0.5,262.5,-1.17923)"
           style="fill:#ffffff;fill-opacity:1;stroke:none">
          <path
             id="path1324"
             d="M 235.40625,400 C 146.67242,401.12523 75,473.50078 75,562.5 C 75,652.2 147.8,725 237.5,725 C 327.2,725 400,652.2 400,562.5 C 400,472.8 327.2,400 237.5,400 C 236.79922,400 236.10494,399.99114 235.40625,400 z M 235.71875,425 C 236.30995,424.9925 236.90703,425 237.5,425 C 313.4,425 375,486.6 375,562.5 C 375,638.4 313.4,700 237.5,700 C 161.6,700 100,638.4 100,562.5 C 100,487.19297 160.63628,425.95212 235.71875,425 z "
             style="opacity:1;fill:#ffffff;fill-opacity:1;fill-rule:nonzero;stroke:none;stroke-width:2;stroke-linecap:butt;stroke-linejoin:round;stroke-miterlimit:4;stroke-dasharray:none;stroke-dashoffset:0;stroke-opacity:1" />
          <path
             d="M 262.5 562.5 A 25 25 0 1 1  212.5,562.5 A 25 25 0 1 1  262.5 562.5 z"
             sodipodi:ry="25"
             sodipodi:rx="25"
             sodipodi:cy="562.5"
             sodipodi:cx="237.5"
             id="path1326"
             style="opacity:1;fill:#ffffff;fill-opacity:1;fill-rule:nonzero;stroke:none;stroke-width:2;stroke-linecap:butt;stroke-linejoin:round;stroke-miterlimit:4;stroke-dasharray:none;stroke-dashoffset:0;stroke-opacity:1"
             sodipodi:type="arc" />
        </g>
        <path
           style="fill:none;fill-opacity:1;fill-rule:evenodd;stroke:#ffffff;stroke-width:12.5;stroke-linecap:butt;stroke-linejoin:miter;stroke-miterlimit:4;stroke-dasharray:none;stroke-opacity:1"
           d="M 268.75,280.07077 L 381.25,280.07077"
           id="wzdlozlancucha" />
        <path
           style="fill:none;fill-opacity:0.75;fill-rule:evenodd;stroke:#ffffff;stroke-width:12.5;stroke-linecap:butt;stroke-linejoin:miter;stroke-miterlimit:4;stroke-dasharray:none;stroke-opacity:1"
           d="M 268.75,280.07077 L 318.75,123.82077"
           id="slupek-siodelko" />
        <path
           style="fill:none;fill-opacity:0.75;fill-rule:evenodd;stroke:#ffffff;stroke-width:12.5;stroke-linecap:butt;stroke-linejoin:miter;stroke-miterlimit:4;stroke-dasharray:none;stroke-opacity:1"
           d="M 150,155.07077 L 305,155.07077 L 381.25,280.07077"
           id="poprzeczka" />
        <path
           style="fill:none;fill-opacity:0.75;fill-rule:evenodd;stroke:#ffffff;stroke-width:12.5;stroke-linecap:butt;stroke-linejoin:miter;stroke-miterlimit:4;stroke-dasharray:none;stroke-opacity:1"
           d="M 118.75,280.07077 C 118.75,280.07077 164.18762,120.8601 165,118.82077 C 168.44421,110.17467 169.58543,107.25077 180,105.07077 C 181.52135,104.75231 200,105.07077 200,105.07077"
           id="kierownica"
           sodipodi:nodetypes="cssc" />
        <path
           sodipodi:type="arc"
           style="fill:#ffffff;fill-opacity:1;fill-rule:nonzero;stroke:none;stroke-width:25;stroke-linecap:butt;stroke-linejoin:round;stroke-miterlimit:4;stroke-dasharray:none;stroke-dashoffset:0;stroke-opacity:1"
           id="kolo=pedalowe"
           sodipodi:cx="537.5"
           sodipodi:cy="562.5"
           sodipodi:rx="50"
           sodipodi:ry="50"
           d="M 587.5 562.5 A 50 50 0 1 1  487.5,562.5 A 50 50 0 1 1  587.5 562.5 z"
           transform="matrix(0.5,0,0,0.5,0,-1.17923)" />
        <path
           style="fill:#ffffff;fill-opacity:1;fill-rule:evenodd;stroke:none;stroke-width:1px;stroke-linecap:butt;stroke-linejoin:miter;stroke-opacity:1"
           d="M 312.5,136.32077 L 350,136.32077 L 350,111.32077 C 350,111.32077 275.13901,110.62419 268.75,111.32077 C 262.82046,111.96725 265.08435,122.74117 268.75,123.82077 C 331.16528,142.20323 312.5,136.32077 312.5,136.32077 z "
           id="siodelko"
           sodipodi:nodetypes="ccczsc" />
        <path
           style="fill:none;fill-opacity:0.75;fill-rule:evenodd;stroke:#ffffff;stroke-width:12.5;stroke-linecap:butt;stroke-linejoin:miter;stroke-miterlimit:4;stroke-dasharray:none;stroke-opacity:1"
           d="M 268.75,280.07077 L 148,178.82077"
           id="ukos-damka" />
      </g>
    </g>
  </g>
</svg>
