<?xml version="1.0" encoding="UTF-8" standalone="no"?>
<!-- Created with Inkscape (http://www.inkscape.org/) -->

<svg
   xmlns:dc="http://purl.org/dc/elements/1.1/"
   xmlns:cc="http://creativecommons.org/ns#"
   xmlns:rdf="http://www.w3.org/1999/02/22-rdf-syntax-ns#"
   xmlns:svg="http://www.w3.org/2000/svg"
   xmlns="http://www.w3.org/2000/svg"
   xmlns:sodipodi="http://sodipodi.sourceforge.net/DTD/sodipodi-0.dtd"
   xmlns:inkscape="http://www.inkscape.org/namespaces/inkscape"
   version="1.0"
   width="489.99994"
   height="489.99991"
   id="svg2"
   inkscape:version="0.48.2 r9819"
   sodipodi:docname="Aa.svg">
  <metadata
     id="metadata23">
    <rdf:RDF>
      <cc:Work
         rdf:about="">
        <dc:format>image/svg+xml</dc:format>
        <dc:type
           rdf:resource="http://purl.org/dc/dcmitype/StillImage" />
      </cc:Work>
    </rdf:RDF>
  </metadata>
  <sodipodi:namedview
     pagecolor="#ffffff"
     bordercolor="#666666"
     borderopacity="1"
     objecttolerance="10"
     gridtolerance="10"
     guidetolerance="10"
     inkscape:pageopacity="0"
     inkscape:pageshadow="2"
     inkscape:window-width="1280"
     inkscape:window-height="1004"
     id="namedview21"
     showgrid="false"
     fit-margin-top="0"
     fit-margin-left="0"
     fit-margin-right="0"
     fit-margin-bottom="0"
     inkscape:zoom="1.3350176"
     inkscape:cx="238.73256"
     inkscape:cy="290.11831"
     inkscape:window-x="-8"
     inkscape:window-y="-8"
     inkscape:window-maximized="1"
     inkscape:current-layer="svg2" />
  <defs
     id="defs4">
    <marker
       refX="0"
       refY="0"
       orient="auto"
       style="overflow:visible"
       id="Arrow2Lstart">
      <path
         d="M 8.7185878,4.0337352 -2.2072895,0.01601326 8.7185884,-4.0017078 c -1.7454984,2.3720609 -1.7354408,5.6174519 -6e-7,8.035443 z"
         transform="matrix(1.1,0,0,1.1,1.1,0)"
         style="font-size:12px;fill-rule:evenodd;stroke-width:0.625;stroke-linejoin:round"
         id="path5785"
         inkscape:connector-curvature="0" />
    </marker>
    <pattern
       id="pattern4002"
       patternTransform="translate(18.50938,18)"
       height="476"
       width="370"
       patternUnits="userSpaceOnUse">
      <rect
         style="fill:#00e5ff;fill-opacity:1"
         id="rect2240"
         width="370"
         height="476"
         x="0"
         y="0"
         rx="20"
         ry="20" />
    </pattern>
    <pattern
       patternUnits="userSpaceOnUse"
       width="370"
       height="476"
       patternTransform="translate(18.50938,18)"
       id="pattern5932">
      <rect
         ry="20"
         rx="20"
         y="0"
         x="0"
         height="476"
         width="370"
         id="rect5934"
         style="fill:#00e5ff;fill-opacity:1" />
    </pattern>
  </defs>
  <g
     id="layer1"
     transform="translate(-4.5983718,-5.4016712)">
    <g
       id="g2882">
      <path
         d="m 390.42439,244.34138 a 140.71134,122.87468 0 1 1 -281.42267,0 140.71134,122.87468 0 1 1 281.42267,0 z"
         transform="matrix(1.741153,0,0,1.993901,-185.1903,-236.7909)"
         style="fill:#003399;fill-opacity:1;fill-rule:nonzero;stroke:none"
         id="path1343"
         inkscape:connector-curvature="0" />
      <g
         id="g2877">
        <path
           d="m 200,134.46875 -39.1875,17.3125 -11.34375,47.59375 -9.15625,74.625 10.28125,2.78125 15.5,-57.84375 -6.28125,49.6875 4.65625,1 -11,131.71875 21.3125,0 21.3125,-125.0625 30.9375,106.53125 22,0 9.3125,-23.3125 -11.3125,-4.96875 -20,-112.21875 9.5625,-52.21875 50.375,74.1875 2.90625,-3.90625 26.75,16.46875 14.8125,-5.4375 -13.40625,56.96875 5.40625,1.46875 -17.15625,66.21875 16.90625,2.28125 21.4375,-62.65625 26.4375,48.75 10.3125,-0.3125 6.8125,-18.3125 -7.78125,0 -16.25,-41.90625 8.28125,-33.09375 15.03125,28.875 14.84375,-5.4375 -30.59375,-60.96875 -28.03125,-4.21875 -26.84375,12.25 L 296.61676,248.67308 245.03125,156.09375 220.375,136.125 200,134.46875 z"
           style="fill:#ffffff;fill-rule:evenodd;stroke:none"
           id="path1959"
           inkscape:connector-curvature="0" />
        <path
           d="m 232.04022,111.82368 a 17.977291,17.977291 0 1 1 -35.95458,0 17.977291,17.977291 0 1 1 35.95458,0 z"
           transform="matrix(1.12037,0,0,1.12037,-27.26494,-12.29506)"
           style="fill:#ffffff;fill-opacity:1;fill-rule:nonzero;stroke:none"
           id="path1961"
           inkscape:connector-curvature="0" />
        <path
           d="m 232.04022,111.82368 a 17.977291,17.977291 0 1 1 -35.95458,0 17.977291,17.977291 0 1 1 35.95458,0 z"
           transform="matrix(0.935185,0,0,0.935185,162.5867,129.4591)"
           style="fill:#ffffff;fill-opacity:1;fill-rule:nonzero;stroke:none"
           id="path1968"
           inkscape:connector-curvature="0" />
      </g>
      <g
         id="g2870" />
    </g>
  </g>
</svg>
