<?xml version="1.0" encoding="UTF-8" standalone="no"?>
<!-- Created with Inkscape (http://www.inkscape.org/) -->

<svg
   xmlns:dc="http://purl.org/dc/elements/1.1/"
   xmlns:cc="http://creativecommons.org/ns#"
   xmlns:rdf="http://www.w3.org/1999/02/22-rdf-syntax-ns#"
   xmlns:svg="http://www.w3.org/2000/svg"
   xmlns="http://www.w3.org/2000/svg"
   xmlns:sodipodi="http://sodipodi.sourceforge.net/DTD/sodipodi-0.dtd"
   xmlns:inkscape="http://www.inkscape.org/namespaces/inkscape"
   version="1.0"
   width="557.625"
   height="743.59375"
   id="svg2"
   inkscape:version="0.48.2 r9819"
   sodipodi:docname="AJAX.svg">
  <metadata
     id="metadata29">
    <rdf:RDF>
      <cc:Work
         rdf:about="">
        <dc:format>image/svg+xml</dc:format>
        <dc:type
           rdf:resource="http://purl.org/dc/dcmitype/StillImage" />
      </cc:Work>
    </rdf:RDF>
  </metadata>
  <sodipodi:namedview
     pagecolor="#ffffff"
     bordercolor="#666666"
     borderopacity="1"
     objecttolerance="10"
     gridtolerance="10"
     guidetolerance="10"
     inkscape:pageopacity="0"
     inkscape:pageshadow="2"
     inkscape:window-width="1280"
     inkscape:window-height="1004"
     id="namedview27"
     showgrid="false"
     fit-margin-top="0"
     fit-margin-left="0"
     fit-margin-right="0"
     fit-margin-bottom="0"
     inkscape:zoom="0.89527592"
     inkscape:cx="409.30351"
     inkscape:cy="300.1382"
     inkscape:window-x="-8"
     inkscape:window-y="-8"
     inkscape:window-maximized="1"
     inkscape:current-layer="svg2" />
  <defs
     id="defs4">
    <marker
       refX="0"
       refY="0"
       orient="auto"
       style="overflow:visible"
       id="Arrow2Lstart">
      <path
         d="M 8.7185878,4.0337352 -2.2072895,0.01601326 8.7185884,-4.0017078 c -1.7454984,2.3720609 -1.7354408,5.6174519 -6e-7,8.035443 z"
         transform="matrix(1.1,0,0,1.1,1.1,0)"
         style="font-size:12px;fill-rule:evenodd;stroke-width:0.625;stroke-linejoin:round"
         id="path5785"
         inkscape:connector-curvature="0" />
    </marker>
    <pattern
       id="pattern4002"
       patternTransform="translate(18.50938,18)"
       height="476"
       width="370"
       patternUnits="userSpaceOnUse">
      <rect
         style="fill:#00e5ff;fill-opacity:1"
         id="rect2240"
         width="370"
         height="476"
         x="0"
         y="0"
         rx="20"
         ry="20" />
    </pattern>
    <pattern
       patternUnits="userSpaceOnUse"
       width="370"
       height="476"
       patternTransform="translate(18.50938,18)"
       id="pattern5932">
      <rect
         ry="20"
         rx="20"
         y="0"
         x="0"
         height="476"
         width="370"
         id="rect5934"
         style="fill:#00e5ff;fill-opacity:1" />
    </pattern>
  </defs>
  <g
     transform="translate(28.375,120.09375)"
     id="layer1">
    <g
       id="g9164">
      <rect
         width="554.6217"
         height="740.59161"
         rx="20"
         ry="20"
         x="-26.874205"
         y="-118.59041"
         style="fill:#ffffff;fill-opacity:1;fill-rule:nonzero;stroke:#000000;stroke-width:3;stroke-linecap:round;stroke-linejoin:miter;stroke-miterlimit:4;stroke-opacity:1;stroke-dasharray:none;stroke-dashoffset:0"
         id="rect1927" />
      <rect
         width="536.7124"
         height="720.68036"
         rx="10"
         ry="10"
         x="-17.919554"
         y="-108.63478"
         style="fill:none;stroke:#000000;stroke-width:9;stroke-linecap:round;stroke-linejoin:miter;stroke-miterlimit:4;stroke-opacity:1;stroke-dasharray:none;stroke-dashoffset:0"
         id="rect2816" />
      <g
         transform="translate(8.800893e-5,0.714251)"
         id="g9150">
        <g
           transform="matrix(1.039427,0,0,1.039427,-173.025,10.40078)"
           id="g1917">
          <path
             d="m 390.42439,244.34138 a 140.71134,122.87468 0 1 1 -281.42267,0 140.71134,122.87468 0 1 1 281.42267,0 z"
             transform="matrix(0.84011,0,0,0.962061,197.6126,163.1401)"
             style="fill:#003399;fill-opacity:1;fill-rule:nonzero;stroke:none"
             id="path1343"
             inkscape:connector-curvature="0" />
          <g
             transform="matrix(0.598314,0,0,0.53566,357.0917,242.5214)"
             style="fill:#ffffff;fill-opacity:1"
             id="g5945">
            <g
               transform="translate(-91.42866,-94.85724)"
               style="fill:#ffffff;fill-opacity:1"
               id="g5936">
              <g
                 transform="translate(218.9449,96.7782)"
                 style="fill:#ffffff;fill-opacity:1"
                 id="g5871">
                <g
                   transform="translate(334.1429,296.3621)"
                   style="fill:#ffffff;fill-opacity:1"
                   id="g4672">
                  <g
                     transform="matrix(0.985222,0,0,0.976563,-278.8021,-85.06397)"
                     style="fill:#ffffff;fill-opacity:1"
                     id="g4679">
                    <g
                       transform="matrix(1,0,0,0.995024,0,2.04826)"
                       style="fill:#ffffff;fill-opacity:1"
                       id="g5881" />
                  </g>
                </g>
              </g>
            </g>
            <path
               d="m 313.71875,103.15625 0,72.3125 -75.5,0.625 c -62.89267,0 -113.9375,51.04484 -113.9375,113.9375 l 0,148.14668 75.34375,0 0,-148.14668 c 0,-21.31072 17.28303,-38.625 38.59375,-38.625 l 75.5,0 0,73.75 150.28125,-112 -150.28125,-110 z"
               transform="matrix(0.806436,0,0,0.900762,-117.2034,65.09877)"
               style="fill:#ffffff;fill-opacity:1;fill-rule:nonzero;stroke:none"
               id="rect5814"
               inkscape:connector-curvature="0" />
          </g>
        </g>
        <g
           transform="translate(0.999148,0.999199)"
           id="g9069">
          <path
             d="m 172.40147,-41.203101 c -23.37075,0 -30.64256,9.188192 -30.64256,30.772649 l 0,166.607342 215.35718,-0.41771 0,-166.607343 c 0,-21.584457 -7.27186,-30.354938 -30.64256,-30.354938 l -154.07206,0 z"
             style="fill:#ff9600;fill-opacity:1;fill-rule:nonzero;stroke:#000000;stroke-width:10;stroke-miterlimit:4;stroke-opacity:1;stroke-dasharray:none;stroke-dashoffset:0"
             id="rect1969"
             inkscape:connector-curvature="0" />
          <path
             d="m 152.25,165.65625 c -5.10784,0.008 -10.25546,0.97657 -15.4375,2.875 l 0,85.5 c 9.38545,6.01744 21.23092,6.08754 30.65625,0 l 0,-20.75 5.625,0 0,-11.8125 51.21875,0 12.96875,0 c 2.80938,3.64056 7.20546,6 12.15625,6 4.95079,0 9.34687,-2.35944 12.15625,-6 l 20.78125,0 43.40625,0 0,11.8125 5.625,0 0,20.75 c 9.42533,6.08754 21.2708,6.01744 30.65625,0 l 0,-85.5 c -10.36408,-3.79686 -20.57053,-3.85791 -30.65625,0 l 0,20.75 -5.625,0 0,13.84375 -43.625,0 -20.28125,0 c -2.79166,-3.85146 -7.32044,-6.375 -12.4375,-6.375 -5.11706,0 -9.64584,2.52354 -12.4375,6.375 l -12.6875,0 -51.21875,0 0,-13.84375 -5.625,0 0,-20.75 c -5.04286,-1.92895 -10.11091,-2.88263 -15.21875,-2.875 z"
             style="fill:#000000;fill-opacity:1;fill-rule:nonzero;stroke:none"
             id="rect3746"
             inkscape:connector-curvature="0" />
        </g>
      </g>
    </g>
  </g>
</svg>
