<?xml version="1.0" encoding="UTF-8" standalone="no"?>
<!-- Created with Inkscape (http://www.inkscape.org/) -->

<svg
   xmlns:svg="http://www.w3.org/2000/svg"
   xmlns="http://www.w3.org/2000/svg"
   version="1.1"
   width="498.98001"
   height="498.98001"
   id="svg3809">
  <defs
     id="defs3811" />
  <g
     transform="translate(0,-553.38218)"
     id="layer1">
    <path
       d="m 628.57143,549.50507 a 234.28572,254.28572 0 1 1 -468.57145,0 234.28572,254.28572 0 1 1 468.57145,0 z"
       transform="matrix(1.060547,0,0,0.97713279,-168.64481,265.90899)"
       id="path3803"
       style="fill:#ffffff;fill-opacity:1;stroke:#000000;stroke-width:1.95664752;stroke-miterlimit:4;stroke-opacity:1;stroke-dasharray:none" />
    <path
       d="m 628.57143,549.50507 a 234.28572,254.28572 0 1 1 -468.57145,0 234.28572,254.28572 0 1 1 468.57145,0 z"
       transform="matrix(1.042342,0,0,0.96035955,-161.75114,274.84162)"
       id="path3805"
       style="fill:#003399;fill-opacity:1;stroke:none" />
    <path
       d="m 130.37069,766.05947 80.48909,0 -0.0251,236.48923 76.54831,0 0.0385,-236.48923 81.53302,0 L 249.07413,578.02698 130.37069,766.05947 z"
       id="path3807"
       style="fill:#ffffff;fill-opacity:1;fill-rule:nonzero;stroke:none" />
  </g>
</svg>
