<?xml version="1.0" encoding="UTF-8" standalone="no"?>
<!-- Created with Inkscape (http://www.inkscape.org/) -->

<svg
   xmlns:svg="http://www.w3.org/2000/svg"
   xmlns="http://www.w3.org/2000/svg"
   version="1.1"
   width="498.98001"
   height="498.98001"
   id="svg3687">
  <defs
     id="defs3689" />
  <g
     transform="translate(0,-553.38218)"
     id="layer1">
    <g
       transform="matrix(1.1258073,0,0,1.1258073,1.1214308,-138.06518)"
       id="g3725">
      <path
         d="m 628.57143,549.50507 a 234.28572,254.28572 0 1 1 -468.57145,0 234.28572,254.28572 0 1 1 468.57145,0 z"
         transform="matrix(0.94190933,0,0,0.86782618,-150.70548,358.85212)"
         id="path3679"
         style="fill:#ffffff;fill-opacity:1;stroke:#000000;stroke-width:1.95664752;stroke-miterlimit:4;stroke-opacity:1;stroke-dasharray:none" />
      <path
         d="m 628.57143,549.50507 a 234.28572,254.28572 0 1 1 -468.57145,0 234.28572,254.28572 0 1 1 468.57145,0 z"
         transform="matrix(0.92574073,0,0,0.85292927,-144.58298,366.7855)"
         id="path3681"
         style="fill:#003399;fill-opacity:1;stroke:none" />
      <path
         d="m 164.66392,647.2299 -89.014598,134.04203 54.989698,0 0,231.94087 68.11148,0 -0.125,-65.13313 c -0.0103,-5.37035 6.69649,-13.98723 11.87119,-18.58598 10.12967,-9.00224 22.91043,-19.89565 37.42354,-23.61199 11.31712,-2.89795 29.26348,-3.57725 38.97224,-3.57725 l -0.0376,54.96668 121.76902,-87.99302 -122.82898,-89.15228 -0.0351,56.55568 c -11.78902,0 -33.35981,2.41146 -48.70574,7.29267 -13.5486,4.30952 -26.89042,10.82883 -38.49112,19.51904 l -0.0624,-82.22129 55.11484,0 -88.95147,-134.04203 z"
         id="path3683"
         style="fill:#ffffff;fill-opacity:1;fill-rule:nonzero;stroke:none" />
    </g>
  </g>
</svg>
