<?xml version="1.0" encoding="UTF-8" standalone="no"?>
<!-- Created with Inkscape (http://www.inkscape.org/) -->

<svg
   xmlns:dc="http://purl.org/dc/elements/1.1/"
   xmlns:cc="http://creativecommons.org/ns#"
   xmlns:rdf="http://www.w3.org/1999/02/22-rdf-syntax-ns#"
   xmlns:svg="http://www.w3.org/2000/svg"
   xmlns="http://www.w3.org/2000/svg"
   xmlns:sodipodi="http://sodipodi.sourceforge.net/DTD/sodipodi-0.dtd"
   xmlns:inkscape="http://www.inkscape.org/namespaces/inkscape"
   height="498.97775"
   width="498.97797"
   id="svg2"
   sodipodi:version="0.32"
   inkscape:version="0.48.2 r9819"
   version="1.0"
   sodipodi:docname="AJAX.svg">
  <defs
     id="defs4">
    <pattern
       patternUnits="userSpaceOnUse"
       width="370"
       height="476"
       patternTransform="translate(18.50938,18)"
       id="pattern5932">
      <rect
         ry="20"
         rx="20"
         y="0"
         x="0"
         height="476"
         width="370"
         id="rect5934"
         style="fill:#00e5ff;fill-opacity:1" />
    </pattern>
    <pattern
       id="pattern4002"
       patternTransform="translate(18.50938,18)"
       height="476"
       width="370"
       patternUnits="userSpaceOnUse">
      <rect
         style="fill:#00e5ff;fill-opacity:1"
         id="rect2240"
         width="370"
         height="476"
         x="0"
         y="0"
         rx="20"
         ry="20" />
    </pattern>
    <marker
       style="overflow:visible"
       id="Arrow2Lstart"
       refX="0"
       refY="0"
       orient="auto"
       inkscape:stockid="Arrow2Lstart">
      <path
         transform="matrix(1.1,0,0,1.1,1.1,0)"
         d="M 8.7185878,4.0337352 -2.2072895,0.01601326 8.7185884,-4.0017078 c -1.7454984,2.3720609 -1.7354408,5.6174519 -6e-7,8.035443 z"
         style="font-size:12px;fill-rule:evenodd;stroke-width:0.625;stroke-linejoin:round"
         id="path5785"
         inkscape:connector-curvature="0" />
    </marker>
  </defs>
  <sodipodi:namedview
     id="base"
     pagecolor="#ffffff"
     bordercolor="#666666"
     borderopacity="1.0"
     inkscape:pageopacity="0.0"
     inkscape:pageshadow="2"
     inkscape:cx="132.50112"
     inkscape:cy="249.48887"
     inkscape:zoom="1.2720002"
     inkscape:document-units="px"
     inkscape:current-layer="layer1"
     inkscape:window-width="1280"
     inkscape:window-height="1004"
     inkscape:window-x="-8"
     inkscape:window-y="-8"
     showgrid="false"
     fit-margin-top="0"
     fit-margin-left="0"
     fit-margin-right="0"
     fit-margin-bottom="0"
     inkscape:window-maximized="1" />
  <metadata
     id="metadata7">
    <rdf:RDF>
      <cc:Work
         rdf:about="">
        <dc:format>image/svg+xml</dc:format>
        <dc:type
           rdf:resource="http://purl.org/dc/dcmitype/StillImage" />
      </cc:Work>
    </rdf:RDF>
  </metadata>
  <g
     inkscape:groupmode="layer"
     inkscape:label="Warstwa 1"
     id="layer1"
     transform="translate(-3.0110066,-3.0111274)">
    <path
       sodipodi:type="arc"
       style="fill:#003399;fill-opacity:1;stroke:none"
       id="path1307"
       sodipodi:cx="394.28571"
       sodipodi:cy="549.50507"
       sodipodi:rx="234.28572"
       sodipodi:ry="254.28572"
       d="m 628.57143,549.50507 c 0,140.43812 -104.89329,254.28572 -234.28572,254.28572 -129.39244,0 -234.28573,-113.8476 -234.28573,-254.28572 0,-140.43813 104.89329,-254.28572 234.28573,-254.28572 129.39243,0 234.28572,113.84759 234.28572,254.28572 z"
       transform="matrix(-1.064892,0,0,0.981136,672.37169,-286.6392)" />
    <path
       inkscape:connector-curvature="0"
       d="M 152.03115,126.21368 25.7499,228.21366 l 126.28125,101.99999 0,-54.65625 c 25.32695,-21.01093 54.04836,-6.60002 61.84375,24.75 l -0.125,164.93747 77.71875,0 c -1.18251,-54.94385 1.67696,-110.00903 -0.0937,-164.93747 4.09953,-29.81098 39.12152,-44.80295 61.8125,-24.75 l 0,54.65625 126.28121,-101.99999 -126.28126,-101.99998 0,68.31248 c -35.24434,-11.25079 -72.52995,3.69671 -100.5625,25 -26.97294,-21.83181 -66.0894,-36.36175 -100.59375,-25 l 0,-68.31248 z"
       style="fill:#ffffff;fill-opacity:1;fill-rule:nonzero;stroke:none"
       id="rect5814" />
  </g>
</svg>
