{
	"asset":{
		"generator":"Khronos glTF Blender I/O v4.2.70",
		"version":"2.0"
	},
	"scene":0,
	"scenes":[
		{
			"name":"Scene",
			"nodes":[
				0
			]
		}
	],
	"nodes":[
		{
			"mesh":0,
			"name":"car-coupe-red",
			"scale":[
				2,
				2,
				2
			],
			"translation":[
				0.0034260153770446777,
				0.667618989944458,
				-0.11655277013778687
			]
		}
	],
	"materials":[
		{
			"name":"body",
			"pbrMetallicRoughness" : {
			    "baseColorFactor" : [1.0, 0, 1.0]
			}
		},
		{
			"name":"windows",
            "pbrMetallicRoughness" : {
                "baseColorFactor" : [0.2794, 0.564, 0.8]
            }
		},
		{
			"name":"lights",
            "pbrMetallicRoughness" : {
                "baseColorFactor" : [1, 0.9, 1]
            }
		},
		{
			"name":"metal",
            "pbrMetallicRoughness" : {
              "baseColorFactor" : [0.448, 0.448, 0.448]
            }
		},
		{
			"name":"tires",
            "pbrMetallicRoughness" : {
              "baseColorFactor" : [0.025, 0.025, 0.025]
            }
		},
		{
			"name":"lights.red",
            "pbrMetallicRoughness" : {
             "baseColorFactor" : [1, 0.007, 0.011]
            }
		},
		{
			"name":"lights.orange",
			"pbrMetallicRoughness" : {
                "baseColorFactor" : [1, 0.263, 0]
            }
		}
	],
	"meshes":[
		{
			"name":"Cube.628",
			"primitives":[
				{
					"attributes":{
						"POSITION":0,
						"NORMAL":1
					},
					"indices":2,
					"material":0
				},
				{
					"attributes":{
						"POSITION":3,
						"NORMAL":4
					},
					"indices":5,
					"material":1
				},
				{
					"attributes":{
						"POSITION":6,
						"NORMAL":7
					},
					"indices":8,
					"material":2
				},
				{
					"attributes":{
						"POSITION":9,
						"NORMAL":10
					},
					"indices":11,
					"material":3
				},
				{
					"attributes":{
						"POSITION":12,
						"NORMAL":13
					},
					"indices":14,
					"material":4
				},
				{
					"attributes":{
						"POSITION":15,
						"NORMAL":16
					},
					"indices":17,
					"material":5
				},
				{
					"attributes":{
						"POSITION":18,
						"NORMAL":19
					},
					"indices":20,
					"material":6
				}
			]
		}
	],
	"accessors":[
		{
			"bufferView":0,
			"componentType":5126,
			"count":262,
			"max":[
				0.41437703371047974,
				0.35367289185523987,
				1.0480098724365234
			],
			"min":[
				-0.41442278027534485,
				-0.2373746931552887,
				-0.9390522837638855
			],
			"type":"VEC3"
		},
		{
			"bufferView":1,
			"componentType":5126,
			"count":262,
			"type":"VEC3"
		},
		{
			"bufferView":2,
			"componentType":5123,
			"count":1380,
			"type":"SCALAR"
		},
		{
			"bufferView":3,
			"componentType":5126,
			"count":24,
			"max":[
				0.3650916516780853,
				0.32676008343696594,
				0.353263795375824
			],
			"min":[
				-0.36390289664268494,
				0.13620823621749878,
				-0.7408337593078613
			],
			"type":"VEC3"
		},
		{
			"bufferView":4,
			"componentType":5126,
			"count":24,
			"type":"VEC3"
		},
		{
			"bufferView":5,
			"componentType":5123,
			"count":36,
			"type":"SCALAR"
		},
		{
			"bufferView":6,
			"componentType":5126,
			"count":72,
			"max":[
				0.3648770749568939,
				0.09564132243394852,
				1.0317853689193726
			],
			"min":[
				-0.3649229109287262,
				-0.040774665772914886,
				-0.9158420562744141
			],
			"type":"VEC3"
		},
		{
			"bufferView":7,
			"componentType":5126,
			"count":72,
			"type":"VEC3"
		},
		{
			"bufferView":8,
			"componentType":5123,
			"count":108,
			"type":"SCALAR"
		},
		{
			"bufferView":9,
			"componentType":5126,
			"count":80,
			"max":[
				0.41797706484794617,
				0.026692219078540802,
				1.0318089723587036
			],
			"min":[
				-0.4180227816104889,
				-0.2526746392250061,
				-0.6674773693084717
			],
			"type":"VEC3"
		},
		{
			"bufferView":10,
			"componentType":5126,
			"count":80,
			"type":"VEC3"
		},
		{
			"bufferView":11,
			"componentType":5123,
			"count":210,
			"type":"SCALAR"
		},
		{
			"bufferView":12,
			"componentType":5126,
			"count":320,
			"max":[
				0.4269770383834839,
				0.03262532502412796,
				0.8428226709365845
			],
			"min":[
				-0.427022784948349,
				-0.3273746967315674,
				-0.7421773672103882
			],
			"type":"VEC3"
		},
		{
			"bufferView":13,
			"componentType":5126,
			"count":320,
			"type":"VEC3"
		},
		{
			"bufferView":14,
			"componentType":5123,
			"count":1536,
			"type":"SCALAR"
		},
		{
			"bufferView":15,
			"componentType":5126,
			"count":28,
			"max":[
				0.3586713373661041,
				0.09564132243394852,
				-0.9057250022888184
			],
			"min":[
				-0.3587171137332916,
				0.05570331960916519,
				-0.9158421754837036
			],
			"type":"VEC3"
		},
		{
			"bufferView":16,
			"componentType":5126,
			"count":28,
			"type":"VEC3"
		},
		{
			"bufferView":17,
			"componentType":5123,
			"count":48,
			"type":"SCALAR"
		},
		{
			"bufferView":18,
			"componentType":5126,
			"count":24,
			"max":[
				0.3586713373661041,
				0.09564132243394852,
				-0.9057250022888184
			],
			"min":[
				-0.3587171137332916,
				0.05570331960916519,
				-0.9158421754837036
			],
			"type":"VEC3"
		},
		{
			"bufferView":19,
			"componentType":5126,
			"count":24,
			"type":"VEC3"
		},
		{
			"bufferView":20,
			"componentType":5123,
			"count":36,
			"type":"SCALAR"
		}
	],
	"bufferViews":[
		{
			"buffer":0,
			"byteLength":3144,
			"byteOffset":0,
			"target":34962
		},
		{
			"buffer":0,
			"byteLength":3144,
			"byteOffset":3144,
			"target":34962
		},
		{
			"buffer":0,
			"byteLength":2760,
			"byteOffset":6288,
			"target":34963
		},
		{
			"buffer":0,
			"byteLength":288,
			"byteOffset":9048,
			"target":34962
		},
		{
			"buffer":0,
			"byteLength":288,
			"byteOffset":9336,
			"target":34962
		},
		{
			"buffer":0,
			"byteLength":72,
			"byteOffset":9624,
			"target":34963
		},
		{
			"buffer":0,
			"byteLength":864,
			"byteOffset":9696,
			"target":34962
		},
		{
			"buffer":0,
			"byteLength":864,
			"byteOffset":10560,
			"target":34962
		},
		{
			"buffer":0,
			"byteLength":216,
			"byteOffset":11424,
			"target":34963
		},
		{
			"buffer":0,
			"byteLength":960,
			"byteOffset":11640,
			"target":34962
		},
		{
			"buffer":0,
			"byteLength":960,
			"byteOffset":12600,
			"target":34962
		},
		{
			"buffer":0,
			"byteLength":420,
			"byteOffset":13560,
			"target":34963
		},
		{
			"buffer":0,
			"byteLength":3840,
			"byteOffset":13980,
			"target":34962
		},
		{
			"buffer":0,
			"byteLength":3840,
			"byteOffset":17820,
			"target":34962
		},
		{
			"buffer":0,
			"byteLength":3072,
			"byteOffset":21660,
			"target":34963
		},
		{
			"buffer":0,
			"byteLength":336,
			"byteOffset":24732,
			"target":34962
		},
		{
			"buffer":0,
			"byteLength":336,
			"byteOffset":25068,
			"target":34962
		},
		{
			"buffer":0,
			"byteLength":96,
			"byteOffset":25404,
			"target":34963
		},
		{
			"buffer":0,
			"byteLength":288,
			"byteOffset":25500,
			"target":34962
		},
		{
			"buffer":0,
			"byteLength":288,
			"byteOffset":25788,
			"target":34962
		},
		{
			"buffer":0,
			"byteLength":72,
			"byteOffset":26076,
			"target":34963
		}
	],
	"buffers":[
		{
			"byteLength":26148,
			"uri":"car.bin"
		}
	]
}
