{
	"asset":{
		"generator":"Khronos glTF Blender I/O v4.2.70",
		"version":"2.0"
	},
	"scene":0,
	"scenes":[
		{
			"name":"Scene",
			"nodes":[
				0
			]
		}
	],
	"nodes":[
		{
			"mesh":0,
			"name":"car-hatchback-violet",
			"scale":[
				2,
				2,
				2
			],
			"translation":[
				-0.0011347262188792229,
				0.018966423347592354,
				-0.19816471636295319
			]
		}
	],
	"materials":[
		{
			"name":"body",
			"pbrMetallicRoughness" : {
			    "baseColorFactor" : [1.0, 0, 1.0]
			}
		},
		{
			"name":"windows",
            "pbrMetallicRoughness" : {
                "baseColorFactor" : [0.2794, 0.564, 0.8]
            }
		},
		{
			"name":"lights",
            "pbrMetallicRoughness" : {
                "baseColorFactor" : [1, 0.9, 1]
            }
		},
		{
			"name":"metal",
            "pbrMetallicRoughness" : {
              "baseColorFactor" : [0.448, 0.448, 0.448]
            }
		},
		{
			"name":"tires",
            "pbrMetallicRoughness" : {
              "baseColorFactor" : [0.025, 0.025, 0.025]
            }
		},
		{
			"name":"lights.red",
            "pbrMetallicRoughness" : {
             "baseColorFactor" : [1, 0.007, 0.011]
            }
		},
		{
			"name":"lights.orange",
			"pbrMetallicRoughness" : {
                "baseColorFactor" : [1, 0.263, 0]
            }
		}
	],
	"meshes":[
		{
			"name":"Cube.641",
			"primitives":[
				{
					"attributes":{
						"POSITION":0,
						"NORMAL":1
					},
					"indices":2,
					"material":0
				},
				{
					"attributes":{
						"POSITION":3,
						"NORMAL":4
					},
					"indices":5,
					"material":1
				},
				{
					"attributes":{
						"POSITION":6,
						"NORMAL":7
					},
					"indices":8,
					"material":2
				},
				{
					"attributes":{
						"POSITION":9,
						"NORMAL":10
					},
					"indices":11,
					"material":3
				},
				{
					"attributes":{
						"POSITION":12,
						"NORMAL":13
					},
					"indices":14,
					"material":4
				},
				{
					"attributes":{
						"POSITION":15,
						"NORMAL":16
					},
					"indices":17,
					"material":5
				},
				{
					"attributes":{
						"POSITION":18,
						"NORMAL":19
					},
					"indices":20,
					"material":6
				}
			]
		}
	],
	"accessors":[
		{
			"bufferView":0,
			"componentType":5126,
			"count":214,
			"max":[
				0.43304774165153503,
				0.8234749436378479,
				0.9953996539115906
			],
			"min":[
				-0.43304815888404846,
				0.18810002505779266,
				-0.8078058958053589
			],
			"type":"VEC3"
		},
		{
			"bufferView":1,
			"componentType":5126,
			"count":214,
			"type":"VEC3"
		},
		{
			"bufferView":2,
			"componentType":5123,
			"count":1122,
			"type":"SCALAR"
		},
		{
			"bufferView":3,
			"componentType":5126,
			"count":24,
			"max":[
				0.38037964701652527,
				0.7858549952507019,
				0.4278866648674011
			],
			"min":[
				-0.3803802728652954,
				0.5465275645256042,
				-0.618209719657898
			],
			"type":"VEC3"
		},
		{
			"bufferView":4,
			"componentType":5126,
			"count":24,
			"type":"VEC3"
		},
		{
			"bufferView":5,
			"componentType":5123,
			"count":36,
			"type":"SCALAR"
		},
		{
			"bufferView":6,
			"componentType":5126,
			"count":32,
			"max":[
				0.3248903453350067,
				0.4113829731941223,
				0.9977573156356812
			],
			"min":[
				-0.3248905837535858,
				0.2984483540058136,
				0.9690068960189819
			],
			"type":"VEC3"
		},
		{
			"bufferView":7,
			"componentType":5126,
			"count":32,
			"type":"VEC3"
		},
		{
			"bufferView":8,
			"componentType":5123,
			"count":132,
			"type":"SCALAR"
		},
		{
			"bufferView":9,
			"componentType":5126,
			"count":76,
			"max":[
				0.4368097484111786,
				0.4113484025001526,
				0.9979162812232971
			],
			"min":[
				-0.436810165643692,
				0.07806158065795898,
				-0.5240101218223572
			],
			"type":"VEC3"
		},
		{
			"bufferView":10,
			"componentType":5126,
			"count":76,
			"type":"VEC3"
		},
		{
			"bufferView":11,
			"componentType":5123,
			"count":222,
			"type":"SCALAR"
		},
		{
			"bufferView":12,
			"componentType":5126,
			"count":320,
			"max":[
				0.4462147355079651,
				0.3762000799179077,
				0.8543246984481812
			],
			"min":[
				-0.4462151527404785,
				4.116046881108559e-08,
				-0.6020715832710266
			],
			"type":"VEC3"
		},
		{
			"bufferView":13,
			"componentType":5126,
			"count":320,
			"type":"VEC3"
		},
		{
			"bufferView":14,
			"componentType":5123,
			"count":1536,
			"type":"SCALAR"
		},
		{
			"bufferView":15,
			"componentType":5126,
			"count":24,
			"max":[
				0.31618359684944153,
				0.5584981441497803,
				-0.7579939365386963
			],
			"min":[
				-0.31618428230285645,
				0.4853373169898987,
				-0.7840793132781982
			],
			"type":"VEC3"
		},
		{
			"bufferView":16,
			"componentType":5126,
			"count":24,
			"type":"VEC3"
		},
		{
			"bufferView":17,
			"componentType":5123,
			"count":96,
			"type":"SCALAR"
		},
		{
			"bufferView":18,
			"componentType":5126,
			"count":56,
			"max":[
				0.3727128505706787,
				0.5584981441497803,
				0.976747453212738
			],
			"min":[
				-0.37271353602409363,
				0.3906961679458618,
				-0.7840793132781982
			],
			"type":"VEC3"
		},
		{
			"bufferView":19,
			"componentType":5126,
			"count":56,
			"type":"VEC3"
		},
		{
			"bufferView":20,
			"componentType":5123,
			"count":228,
			"type":"SCALAR"
		}
	],
	"bufferViews":[
		{
			"buffer":0,
			"byteLength":2568,
			"byteOffset":0,
			"target":34962
		},
		{
			"buffer":0,
			"byteLength":2568,
			"byteOffset":2568,
			"target":34962
		},
		{
			"buffer":0,
			"byteLength":2244,
			"byteOffset":5136,
			"target":34963
		},
		{
			"buffer":0,
			"byteLength":288,
			"byteOffset":7380,
			"target":34962
		},
		{
			"buffer":0,
			"byteLength":288,
			"byteOffset":7668,
			"target":34962
		},
		{
			"buffer":0,
			"byteLength":72,
			"byteOffset":7956,
			"target":34963
		},
		{
			"buffer":0,
			"byteLength":384,
			"byteOffset":8028,
			"target":34962
		},
		{
			"buffer":0,
			"byteLength":384,
			"byteOffset":8412,
			"target":34962
		},
		{
			"buffer":0,
			"byteLength":264,
			"byteOffset":8796,
			"target":34963
		},
		{
			"buffer":0,
			"byteLength":912,
			"byteOffset":9060,
			"target":34962
		},
		{
			"buffer":0,
			"byteLength":912,
			"byteOffset":9972,
			"target":34962
		},
		{
			"buffer":0,
			"byteLength":444,
			"byteOffset":10884,
			"target":34963
		},
		{
			"buffer":0,
			"byteLength":3840,
			"byteOffset":11328,
			"target":34962
		},
		{
			"buffer":0,
			"byteLength":3840,
			"byteOffset":15168,
			"target":34962
		},
		{
			"buffer":0,
			"byteLength":3072,
			"byteOffset":19008,
			"target":34963
		},
		{
			"buffer":0,
			"byteLength":288,
			"byteOffset":22080,
			"target":34962
		},
		{
			"buffer":0,
			"byteLength":288,
			"byteOffset":22368,
			"target":34962
		},
		{
			"buffer":0,
			"byteLength":192,
			"byteOffset":22656,
			"target":34963
		},
		{
			"buffer":0,
			"byteLength":672,
			"byteOffset":22848,
			"target":34962
		},
		{
			"buffer":0,
			"byteLength":672,
			"byteOffset":23520,
			"target":34962
		},
		{
			"buffer":0,
			"byteLength":456,
			"byteOffset":24192,
			"target":34963
		}
	],
	"buffers":[
		{
			"byteLength":24648,
			"uri":"car_hatchback.bin"
		}
	]
}
