<?xml version="1.0" encoding="UTF-8" standalone="no"?>
<!-- Created with Inkscape (http://www.inkscape.org/) -->

<svg
   xmlns:dc="http://purl.org/dc/elements/1.1/"
   xmlns:cc="http://creativecommons.org/ns#"
   xmlns:rdf="http://www.w3.org/1999/02/22-rdf-syntax-ns#"
   xmlns:svg="http://www.w3.org/2000/svg"
   xmlns="http://www.w3.org/2000/svg"
   xmlns:sodipodi="http://sodipodi.sourceforge.net/DTD/sodipodi-0.dtd"
   xmlns:inkscape="http://www.inkscape.org/namespaces/inkscape"
   width="238.125mm"
   height="158.75mm"
   viewBox="0 0 238.125 158.75"
   version="1.1"
   id="svg1446"
   inkscape:version="0.92.4 (33fec40, 2019-01-16)"
   sodipodi:docname="310.svg">
  <defs
     id="defs1440" />
  <sodipodi:namedview
     id="base"
     pagecolor="#ffffff"
     bordercolor="#666666"
     borderopacity="1.0"
     inkscape:pageopacity="0.0"
     inkscape:pageshadow="2"
     inkscape:zoom="0.35"
     inkscape:cx="1007.1705"
     inkscape:cy="266.75944"
     inkscape:document-units="mm"
     inkscape:current-layer="layer1"
     showgrid="false"
     fit-margin-top="0"
     fit-margin-left="0"
     fit-margin-right="0"
     fit-margin-bottom="0"
     inkscape:window-width="1366"
     inkscape:window-height="740"
     inkscape:window-x="1920"
     inkscape:window-y="312"
     inkscape:window-maximized="1" />
  <metadata
     id="metadata1443">
    <rdf:RDF>
      <cc:Work
         rdf:about="">
        <dc:format>image/svg+xml</dc:format>
        <dc:type
           rdf:resource="http://purl.org/dc/dcmitype/StillImage" />
        <dc:title></dc:title>
      </cc:Work>
    </rdf:RDF>
  </metadata>
  <g
     inkscape:label="Layer 1"
     inkscape:groupmode="layer"
     id="layer1"
     transform="translate(56.318455,-36.196428)">
    <path
       d="m -46.396579,36.196428 c 0,0 -9.914268,-0.0026 -9.921875,9.921875 V 185.02455 c 0,0 -0.02712,9.92188 9.921875,9.92188 H 171.88467 c 9.949,0 9.92188,-9.92188 9.92188,-9.92188 V 46.118303 c -0.008,-9.92452 -9.92188,-9.921875 -9.92188,-9.921875 z"
       style="fill:#f0c900;fill-opacity:1;fill-rule:evenodd;stroke:none;stroke-width:0.33072916"
       id="path3662"
       inkscape:connector-curvature="0" />
    <path
       d="m -46.396579,38.842262 c 0,0 -7.272073,0.0129 -7.276042,7.276041 V 185.02455 c 0,0 -0.0026,7.28266 7.276042,7.27605 H 171.90915 c 7.27868,0.007 7.27604,-7.27605 7.27604,-7.27605 V 46.118303 c -0.004,-7.263143 -7.27604,-7.276041 -7.27604,-7.276041 z m 0,3.96875 H 171.90915 c 0,0 3.28811,0.0013 3.29439,3.307291 0.29468,45.525532 0.0582,138.906247 0.0582,138.906247 -0.0116,3.218 -3.3526,3.3073 -3.3526,3.3073 H -46.396579 c 0,0 -3.341026,-0.0893 -3.353924,-3.3073 0,0 -0.235149,-93.380715 0.05953,-138.906247 0.0053,-3.305968 3.294393,-3.307291 3.294394,-3.307291 z"
       style="fill:#000000;fill-opacity:1;fill-rule:evenodd;stroke:none;stroke-width:0.33072916"
       id="path3664"
       inkscape:connector-curvature="0" />
  </g>
</svg>
