<?xml version="1.0" encoding="UTF-8" standalone="no"?>
<svg
   xmlns:dc="http://purl.org/dc/elements/1.1/"
   xmlns:cc="http://creativecommons.org/ns#"
   xmlns:rdf="http://www.w3.org/1999/02/22-rdf-syntax-ns#"
   xmlns:svg="http://www.w3.org/2000/svg"
   xmlns="http://www.w3.org/2000/svg"
   viewBox="0 0 421.02548 630.72314"
   height="630.72314"
   width="421.02548"
   xml:space="preserve"
   version="1.1"
   id="svg4944"><metadata
     id="metadata4950"><rdf:RDF><cc:Work
         rdf:about=""><dc:format>image/svg+xml</dc:format><dc:type
           rdf:resource="http://purl.org/dc/dcmitype/StillImage" /><dc:title></dc:title></cc:Work></rdf:RDF></metadata><defs
     id="defs4948"><clipPath
       id="clipPath4972"
       clipPathUnits="userSpaceOnUse"><path
         id="path4974"
         d="M 0,0 337,0 337,505 0,505 0,0 Z" /></clipPath><clipPath
       id="clipPath4984"
       clipPathUnits="userSpaceOnUse"><path
         id="path4986"
         d="M 0,0 337,0 337,505 0,505 0,0 Z" /></clipPath><clipPath
       id="clipPath4994"
       clipPathUnits="userSpaceOnUse"><path
         id="path4996"
         d="m 0,504.332 336.367,0 L 336.367,0 0,0 0,504.332 Z" /></clipPath><clipPath
       id="clipPath5004"
       clipPathUnits="userSpaceOnUse"><path
         id="path5006"
         d="m 146,279 127,0 0,73 -127,0 0,-73 z" /></clipPath><clipPath
       id="clipPath5014"
       clipPathUnits="userSpaceOnUse"><path
         id="path5016"
         d="m 146,352 127,0 0,-73 -127,0 0,73 z" /></clipPath><clipPath
       id="clipPath5024"
       clipPathUnits="userSpaceOnUse"><path
         id="path5026"
         d="m 146,279 127,0 0,73 -127,0 0,-73 z" /></clipPath><clipPath
       id="clipPath5034"
       clipPathUnits="userSpaceOnUse"><path
         id="path5036"
         d="m 146,352 127,0 0,-73 -127,0 0,73 z" /></clipPath><clipPath
       id="clipPath5044"
       clipPathUnits="userSpaceOnUse"><path
         id="path5046"
         d="m 146,279 127,0 0,73 -127,0 0,-73 z" /></clipPath><clipPath
       id="clipPath5054"
       clipPathUnits="userSpaceOnUse"><path
         id="path5056"
         d="m 146,352 127,0 0,-73 -127,0 0,73 z" /></clipPath><clipPath
       id="clipPath5064"
       clipPathUnits="userSpaceOnUse"><path
         id="path5066"
         d="m 146,279 127,0 0,73 -127,0 0,-73 z" /></clipPath></defs><g
     transform="matrix(1.25,0,0,-1.25,0,630.72315)"
     id="g4952"><g
       id="g4954"><path
         id="path4956"
         style="fill:#ffffff;fill-opacity:1;fill-rule:evenodd;stroke:none"
         d="m 23.035,0.399 291.195,0 c 22.301,0 22.192,18.187 22.192,18.187 l 0,467.641 c 0,0 0.144,17.949 -19.176,17.949 l -297.039,0 c 0,0 -19.766,0.328 -19.809,-19.742 l 0,-464.051 C 0.398,0.352 23.035,0.399 23.035,0.399 Z" /><path
         id="path4958"
         style="fill:#154889;fill-opacity:1;fill-rule:evenodd;stroke:none"
         d="m 19.648,9.305 297.622,0 c 0,0 10.828,0.027 10.828,10.953 l 0,464.926 c 0,0 -0.008,10.73 -11.981,10.73 l -295.312,0 c 0,0 -11.895,0 -11.895,-10.726 l 0,-465.613 C 8.949,9.196 19.648,9.305 19.648,9.305 Z" /><path
         id="path4960"
         style="fill:#000000;fill-opacity:1;fill-rule:evenodd;stroke:none"
         d="m 20.207,504.579 c -0.008,0 -5.023,0.085 -10.062,-2.387 C 5.098,499.715 0.02,494.602 0,484.438 L 0,20.383 C 0,10.219 5.805,5.047 11.555,2.512 17.305,-0.019 23.035,0 23.035,0 L 314.23,0 c 11.258,0 16.977,4.637 19.801,9.286 2.821,4.648 2.789,9.296 2.789,9.296 l 0,467.645 c 0,0.004 0.039,4.578 -2.39,9.164 -2.43,4.586 -7.399,9.188 -17.184,9.188 l -297.039,0 z m 0,-0.403 297.039,0 c 19.32,0 19.176,-17.949 19.176,-17.949 l 0,-467.645 c 0,0 0.109,-18.183 -22.192,-18.183 l -291.195,0 c 0,0 -22.637,-0.047 -22.637,19.98 l 0,464.055 c 0.043,20.07 19.809,19.742 19.809,19.742 z" /><path
         id="path4962"
         style="fill:#ffffff;fill-opacity:1;fill-rule:nonzero;stroke:none"
         d="m 91.652,377.547 42.77,0 c 16.039,0 29.789,12.985 29.789,29.785 0,16.039 -13.75,29.024 -29.789,29.024 l -42.77,0 0,-58.809 z m -27.496,-98.523 0,183.301 71.793,0 c 30.551,0 55.754,-24.442 55.754,-54.993 0,-31.312 -25.203,-55.753 -55.754,-55.753 l -44.297,0 0,-72.555" /><path
         id="path4964"
         style="fill:#ffffff;fill-opacity:1;fill-rule:nonzero;stroke:none"
         d="m 155.82,159.434 c 0.157,0.004 0.313,0 0.473,-0.008 l 91.918,-7.246 c 1.09,-0.078 2.117,-0.531 2.902,-1.277 l 41.879,-39.274 c 1.067,-1 1.621,-2.422 1.492,-3.875 l -2.441,-31.156 c -0.215,-2.644 -2.52,-4.609 -5.156,-4.406 l -9.563,0.762 c 1.039,13.195 -8.812,24.734 -22.023,25.773 -13.196,1.035 -24.731,-8.816 -25.77,-22.016 l -121.855,9.59 c 1.039,13.207 -8.828,24.746 -22.024,25.781 -13.195,1.039 -24.734,-8.812 -25.773,-22.007 l -11.957,0.937 c -2.633,0.203 -4.61,2.52 -4.391,5.164 l 1.746,22.227 c 0.192,2.332 2.028,4.195 4.371,4.398 l 68.579,5.965 34.57,29.52 c 0.855,0.718 1.922,1.121 3.023,1.148 z m -0.761,-9.555 c -1.102,-0.023 -2.168,-0.425 -3.008,-1.156 l -25.028,-21.367 c -0.476,-0.418 -0.781,-0.996 -0.832,-1.633 -0.101,-1.316 0.883,-2.469 2.204,-2.57 l 65.917,-5.207 2.266,28.675 -41.047,3.243 c -0.156,0.011 -0.312,0.019 -0.472,0.015 z m 48.687,-3.816 -2.266,-28.672 52.977,-4.176 c 1.277,-0.094 2.531,0.301 3.492,1.137 2.012,1.711 2.254,4.75 0.531,6.75 l -17.601,20.629 c -0.824,0.965 -2,1.574 -3.281,1.66 l -33.852,2.672 z M 83.309,107.364 c 0.648,0.015 1.304,0 1.961,-0.055 C 95.832,106.477 103.723,97.243 102.887,86.68 102.121,77 94.312,69.582 84.883,69.051 l 93.422,0 0,-13.398 74.593,0 c -0.32,0.011 -0.64,0.023 -0.964,0.051 -10.563,0.835 -18.45,10.066 -17.629,20.632 0.836,10.559 10.07,18.438 20.629,17.614 10.566,-0.836 18.453,-10.071 17.617,-20.618 -0.781,-9.878 -8.91,-17.418 -18.59,-17.679 l 37.816,0 0,-13.399 -249.273,0 0,26.797 40.226,0 c -0.152,0.012 -0.304,0.012 -0.46,0.028 -10.563,0.832 -18.454,10.054 -17.614,20.617 0.782,9.902 8.946,17.445 18.653,17.668 z" /><g
         transform="translate(0,-0.421478)"
         id="g4966"><g
           id="g4968"><g
             clip-path="url(#clipPath4972)"
             id="g4970"><g
               id="g4976"><g
                 id="g4978"><g
                   id="g4980"><g
                     clip-path="url(#clipPath4984)"
                     id="g4982"><g
                       id="g4988" /><g
                       id="g4990"><g
                         clip-path="url(#clipPath4994)"
                         id="g4992"><g
                           id="g4998"><g
                             id="g5000"><g
                               clip-path="url(#clipPath5004)"
                               id="g5002"><g
                                 id="g5008" /><g
                                 id="g5010"><g
                                   clip-path="url(#clipPath5014)"
                                   id="g5012"><g
                                   id="g5018"><g
                                   id="g5020"><g
                                   clip-path="url(#clipPath5024)"
                                   id="g5022"><g
                                   id="g5028" /><g
                                   id="g5030"><g
                                   clip-path="url(#clipPath5034)"
                                   id="g5032"><g
                                   id="g5038"><g
                                   id="g5040"><g
                                   clip-path="url(#clipPath5044)"
                                   id="g5042"><g
                                   id="g5048" /><g
                                   id="g5050"><g
                                   clip-path="url(#clipPath5054)"
                                   id="g5052"><g
                                   id="g5058"><g
                                   id="g5060"><g
                                   clip-path="url(#clipPath5064)"
                                   id="g5062"><g
                                   id="g5068"><path
                                   id="path5070"
                                   style="fill:#ffffff;fill-opacity:1;fill-rule:nonzero;stroke:none"
                                   d="m 146.777,315.57 35.957,35.946 19.965,0 -27.961,-27.957 97.903,0 0,-15.973 -97.903,0 27.961,-27.957 -19.965,0" /></g></g></g></g></g></g></g></g></g></g></g></g></g></g></g></g></g></g></g></g></g></g></g></g></g></g></g></g></g></g></svg>