<?xml version="1.0" encoding="UTF-8" standalone="no"?>
<svg
   xmlns:dc="http://purl.org/dc/elements/1.1/"
   xmlns:cc="http://creativecommons.org/ns#"
   xmlns:rdf="http://www.w3.org/1999/02/22-rdf-syntax-ns#"
   xmlns:svg="http://www.w3.org/2000/svg"
   xmlns="http://www.w3.org/2000/svg"
   viewBox="0 0 421.02548 630.72314"
   height="630.72314"
   width="421.02548"
   xml:space="preserve"
   version="1.1"
   id="svg4944"><metadata
     id="metadata4950"><rdf:RDF><cc:Work
         rdf:about=""><dc:format>image/svg+xml</dc:format><dc:type
           rdf:resource="http://purl.org/dc/dcmitype/StillImage" /><dc:title></dc:title></cc:Work></rdf:RDF></metadata><defs
     id="defs4948"><clipPath
       id="clipPath4972"
       clipPathUnits="userSpaceOnUse"><path
         id="path4974"
         d="M 0,0 337,0 337,505 0,505 0,0 Z" /></clipPath><clipPath
       id="clipPath4984"
       clipPathUnits="userSpaceOnUse"><path
         id="path4986"
         d="M 0,0 337,0 337,505 0,505 0,0 Z" /></clipPath><clipPath
       id="clipPath4994"
       clipPathUnits="userSpaceOnUse"><path
         id="path4996"
         d="m 0,504.332 336.367,0 L 336.367,0 0,0 0,504.332 Z" /></clipPath><clipPath
       id="clipPath5004"
       clipPathUnits="userSpaceOnUse"><path
         id="path5006"
         d="m 146,279 127,0 0,73 -127,0 0,-73 z" /></clipPath><clipPath
       id="clipPath5014"
       clipPathUnits="userSpaceOnUse"><path
         id="path5016"
         d="m 146,352 127,0 0,-73 -127,0 0,73 z" /></clipPath><clipPath
       id="clipPath5024"
       clipPathUnits="userSpaceOnUse"><path
         id="path5026"
         d="m 146,279 127,0 0,73 -127,0 0,-73 z" /></clipPath><clipPath
       id="clipPath5034"
       clipPathUnits="userSpaceOnUse"><path
         id="path5036"
         d="m 146,352 127,0 0,-73 -127,0 0,73 z" /></clipPath><clipPath
       id="clipPath5044"
       clipPathUnits="userSpaceOnUse"><path
         id="path5046"
         d="m 146,279 127,0 0,73 -127,0 0,-73 z" /></clipPath><clipPath
       id="clipPath5054"
       clipPathUnits="userSpaceOnUse"><path
         id="path5056"
         d="m 146,352 127,0 0,-73 -127,0 0,73 z" /></clipPath><clipPath
       id="clipPath5064"
       clipPathUnits="userSpaceOnUse"><path
         id="path5066"
         d="m 146,279 127,0 0,73 -127,0 0,-73 z" /></clipPath></defs><path
     id="path4956"
     style="fill:#ffffff;fill-opacity:1;fill-rule:evenodd;stroke:none"
     d="m 28.79375,630.2244 363.99375,0 c 27.87625,0 27.74,-22.73375 27.74,-22.73375 l 0,-584.55125 c 0,0 0.18,-22.43625 -23.97,-22.43625 l -371.29875,0 c 0,0 -24.7075,-0.41 -24.76125,24.6775 l 0,580.06375 c 0,25.03875 28.29625,24.98 28.29625,24.98 z" /><path
     id="path4958"
     style="fill:#154889;fill-opacity:1;fill-rule:evenodd;stroke:none"
     d="m 24.56,619.0919 372.0275,0 c 0,0 13.535,-0.0338 13.535,-13.69125 l 0,-581.1575 c 0,0 -0.01,-13.4125 -14.97625,-13.4125 l -369.14,0 c 0,0 -14.86875,0 -14.86875,13.4075 l 0,582.01625 c 0.04875,12.97375 13.4225,12.8375 13.4225,12.8375 z" /><path
     id="path4960"
     style="fill:#000000;fill-opacity:1;fill-rule:evenodd;stroke:none"
     d="m 25.25875,-6e-4 c -0.01,0 -6.27875,-0.10625 -12.5775,2.98375 C 6.3725,6.0794 0.025,12.47065 0,25.17565 L 0,605.2444 c 0,12.705 7.25625,19.17 14.44375,22.33875 7.1875,3.16375 14.35,3.14 14.35,3.14 l 363.99375,0 c 14.0725,0 21.22125,-5.79625 24.75125,-11.6075 3.52625,-5.81 3.48625,-11.62 3.48625,-11.62 l 0,-584.55625 c 0,-0.005 0.0488,-5.7225 -2.9875,-11.455 C 415,5.7519 408.78875,-6e-4 396.5575,-6e-4 l -371.29875,0 z m 0,0.50375 371.29875,0 c 24.15,0 23.97,22.43625 23.97,22.43625 l 0,584.55625 c 0,0 0.13625,22.72875 -27.74,22.72875 l -363.99375,0 c 0,0 -28.29625,0.0588 -28.29625,-24.975 l 0,-580.06875 C 0.55125,0.09315 25.25875,0.50315 25.25875,0.50315 Z" /><path
     id="path4962"
     style="fill:#ffffff;fill-opacity:1;fill-rule:nonzero;stroke:none"
     d="m 114.565,158.7894 53.4625,0 c 20.04875,0 37.23625,-16.23125 37.23625,-37.23125 0,-20.04875 -17.1875,-36.28 -37.23625,-36.28 l -53.4625,0 0,73.51125 z m -34.37,123.15375 0,-229.12625 89.74125,0 c 38.18875,0 69.6925,30.5525 69.6925,68.74125 0,39.14 -31.50375,69.69125 -69.6925,69.69125 l -55.37125,0 0,90.69375" /><path
     id="path4964"
     style="fill:#ffffff;fill-opacity:1;fill-rule:nonzero;stroke:none"
     d="m 226.48302,431.43065 c -0.19625,-0.005 -0.39125,0 -0.59125,0.01 l -114.8975,9.0575 c -1.3625,0.0975 -2.64625,0.66375 -3.6275,1.59625 l -52.348746,49.0925 c -1.33375,1.25 -2.02625,3.0275 -1.865,4.84375 l 3.05125,38.945 c 0.26875,3.305 3.15,5.76125 6.445,5.5075 l 11.95375,-0.9525 c -1.29875,-16.49375 11.015,-30.9175 27.528746,-32.21625 16.495,-1.29375 30.91375,11.02 32.2125,27.52 l 152.31875,-11.9875 c -1.29875,-16.50875 11.035,-30.9325 27.53,-32.22625 16.49375,-1.29875 30.9175,11.015 32.21625,27.50875 l 14.94625,-1.17125 c 3.29125,-0.25375 5.7625,-3.15 5.48875,-6.455 l -2.1825,-27.78375 c -0.24,-2.915 -2.535,-5.24375 -5.46375,-5.4975 l -85.72375,-7.45625 -43.2125,-36.9 c -1.06875,-0.8975 -2.4025,-1.40125 -3.77875,-1.435 z m 0.95125,11.94375 c 1.3775,0.0288 2.71,0.53125 3.76,1.445 l 31.285,26.70875 c 0.595,0.5225 0.97625,1.245 1.04,2.04125 0.12625,1.645 -1.10375,3.08625 -2.755,3.2125 l -82.39625,6.50875 -2.8325,-35.84375 51.30875,-4.05375 c 0.195,-0.0138 0.39,-0.0238 0.59,-0.0188 z m -60.85875,4.77 2.8325,35.84 -66.22125,5.22 c -1.59625,0.1175 -3.16375,-0.37625 -4.364996,-1.42125 -2.515,-2.13875 -2.8175,-5.9375 -0.66375,-8.4375 L 120.15927,453.5594 c 1.03,-1.20625 2.5,-1.9675 4.10125,-2.075 l 42.315,-3.34 z m 150.54625,48.37375 c -0.81,-0.0188 -1.63,0 -2.45125,0.0688 -13.2025,1.04 -23.06625,12.5825 -22.02125,25.78625 0.9575,12.1 10.71875,21.3725 22.505,22.03625 l -116.7775,0 0,16.7475 -93.24125,0 c 0.4,-0.0137 0.8,-0.0287 1.205,-0.0637 13.20375,-1.04375 23.0625,-12.5825 22.03625,-25.79 -1.045,-13.19875 -12.5875,-23.0475 -25.78625,-22.0175 -13.207496,1.045 -23.066246,12.58875 -22.021246,25.7725 0.97625,12.3475 11.1375,21.7725 23.237496,22.09875 l -47.269996,0 0,16.74875 311.591246,0 0,-33.49625 -50.2825,0 c 0.19,-0.015 0.38,-0.015 0.575,-0.035 13.20375,-1.04 23.0675,-12.5675 22.0175,-25.77125 -0.9775,-12.3775 -11.1825,-21.80625 -23.31625,-22.085 z" /><g
     transform="matrix(1.25,0,0,-1.25,0,631.25)"
     id="g4966"><g
       id="g4968"><g
         clip-path="url(#clipPath4972)"
         id="g4970"><g
           id="g4976"><g
             id="g4978"><g
               id="g4980"><g
                 clip-path="url(#clipPath4984)"
                 id="g4982"><g
                   id="g4988" /><g
                   id="g4990"><g
                     clip-path="url(#clipPath4994)"
                     id="g4992"><g
                       id="g4998"><g
                         id="g5000"><g
                           clip-path="url(#clipPath5004)"
                           id="g5002"><g
                             id="g5008" /><g
                             id="g5010"><g
                               clip-path="url(#clipPath5014)"
                               id="g5012"><g
                                 id="g5018"><g
                                   id="g5020"><g
                                   clip-path="url(#clipPath5024)"
                                   id="g5022"><g
                                   id="g5028" /><g
                                   id="g5030"><g
                                   clip-path="url(#clipPath5034)"
                                   id="g5032"><g
                                   id="g5038"><g
                                   id="g5040"><g
                                   clip-path="url(#clipPath5044)"
                                   id="g5042"><g
                                   id="g5048" /><g
                                   id="g5050"><g
                                   clip-path="url(#clipPath5054)"
                                   id="g5052"><g
                                   id="g5058"><g
                                   id="g5060"><g
                                   clip-path="url(#clipPath5064)"
                                   id="g5062"><g
                                   id="g5068"><path
                                   id="path5070"
                                   style="fill:#ffffff;fill-opacity:1;fill-rule:nonzero;stroke:none"
                                   d="m 146.777,315.57 35.957,35.946 19.965,0 -27.961,-27.957 97.903,0 0,-15.973 -97.903,0 27.961,-27.957 -19.965,0" /></g></g></g></g></g></g></g></g></g></g></g></g></g></g></g></g></g></g></g></g></g></g></g></g></g></g></g></g></svg>