<?xml version="1.0" encoding="UTF-8" standalone="no"?>
<svg
   xmlns:dc="http://purl.org/dc/elements/1.1/"
   xmlns:cc="http://creativecommons.org/ns#"
   xmlns:rdf="http://www.w3.org/1999/02/22-rdf-syntax-ns#"
   xmlns:svg="http://www.w3.org/2000/svg"
   xmlns="http://www.w3.org/2000/svg"
   viewBox="0 0 421.02548 630.72314"
   height="630.72314"
   width="421.02548"
   xml:space="preserve"
   id="svg4583"
   version="1.1"><metadata
     id="metadata4589"><rdf:RDF><cc:Work
         rdf:about=""><dc:format>image/svg+xml</dc:format><dc:type
           rdf:resource="http://purl.org/dc/dcmitype/StillImage" /><dc:title></dc:title></cc:Work></rdf:RDF></metadata><defs
     id="defs4587"><clipPath
       id="clipPath4621"
       clipPathUnits="userSpaceOnUse"><path
         id="path4619"
         d="M 0,0 H 316 V 474 H 0 Z" /></clipPath><clipPath
       id="clipPath4631"
       clipPathUnits="userSpaceOnUse"><path
         id="path4629"
         d="M 0,474 H 315.938 V 0.562 L 0,0.562 Z" /></clipPath><clipPath
       id="clipPath4641"
       clipPathUnits="userSpaceOnUse"><path
         id="path4639"
         d="M 0,0 H 316 V 474 H 0 Z" /></clipPath><clipPath
       id="clipPath4651"
       clipPathUnits="userSpaceOnUse"><path
         id="path4649"
         d="M 0,473.375 H 315.344 V 0.563 L 0,0.563 Z" /></clipPath><clipPath
       id="clipPath4661"
       clipPathUnits="userSpaceOnUse"><path
         id="path4659"
         d="m 136,262 h 120 v 69 H 136 Z" /></clipPath><clipPath
       id="clipPath4671"
       clipPathUnits="userSpaceOnUse"><path
         id="path4669"
         d="M 136.875,330.562 H 255.937 V 262.124 H 136.875 Z" /></clipPath><clipPath
       id="clipPath4681"
       clipPathUnits="userSpaceOnUse"><path
         id="path4679"
         d="m 136,262 h 120 v 69 H 136 Z" /></clipPath><clipPath
       id="clipPath4691"
       clipPathUnits="userSpaceOnUse"><path
         id="path4689"
         d="M 136.875,330.562 H 255.937 V 262.124 H 136.875 Z" /></clipPath><clipPath
       id="clipPath4701"
       clipPathUnits="userSpaceOnUse"><path
         id="path4699"
         d="m 136,262 h 120 v 69 H 136 Z" /></clipPath><clipPath
       id="clipPath4711"
       clipPathUnits="userSpaceOnUse"><path
         id="path4709"
         d="M 136.875,330.562 H 255.937 V 262.124 H 136.875 Z" /></clipPath><clipPath
       id="clipPath4721"
       clipPathUnits="userSpaceOnUse"><path
         id="path4719"
         d="m 137,262 h 119 v 69 H 137 Z" /></clipPath></defs><g
     transform="matrix(1.3333333,0,0,-1.3333333,0,630.72314)"
     id="g4591"><g
       id="g4593"><path
         id="path4595"
         style="fill:#ffffff;fill-opacity:1;fill-rule:evenodd;stroke:none"
         d="M 21.594,0.374 H 294.59 c 20.906,0 20.805,17.051 20.805,17.051 v 438.414 c 0,0 0.136,16.824 -17.977,16.824 H 18.945 c 0,0 -18.531,0.309 -18.57,-18.507 V 19.109 C 0.375,0.331 21.594,0.374 21.594,0.374 Z" /><path
         id="path4597"
         style="fill:#154889;fill-opacity:1;fill-rule:evenodd;stroke:none"
         d="m 18.422,8.722 h 279.019 c 0,0 10.153,0.027 10.153,10.27 v 435.867 c 0,0 -0.008,10.062 -11.235,10.062 H 19.504 c 0,0 -11.152,0 -11.152,-10.058 V 18.351 C 8.391,8.62 18.422,8.722 18.422,8.722 Z" /><path
         id="path4599"
         style="fill:#000000;fill-opacity:1;fill-rule:evenodd;stroke:none"
         d="m 18.945,473.042 c -0.007,0 -4.711,0.082 -9.433,-2.238 C 4.781,468.484 0.02,463.691 0,454.16 V 19.109 C 0,9.581 5.441,4.73 10.832,2.355 16.223,-0.016 21.594,-0.001 21.594,-0.001 H 294.59 c 10.555,0 15.918,4.348 18.562,8.707 2.645,4.356 2.618,8.715 2.618,8.715 v 438.418 c 0,0.004 0.035,4.289 -2.243,8.59 -2.277,4.301 -6.937,8.613 -16.109,8.613 z m 0,-0.379 h 278.473 c 18.113,0 17.977,-16.824 17.977,-16.824 V 17.421 c 0,0 0.101,-17.047 -20.805,-17.047 H 21.594 c 0,0 -21.219,-0.043 -21.219,18.731 v 435.051 c 0.039,18.816 18.57,18.507 18.57,18.507 z" /><path
         id="path4601"
         style="fill:#ffffff;fill-opacity:1;fill-rule:nonzero;stroke:none"
         d="M 292.141,39.613 V 64.675 H 70.172 V 52.503 H 23.629 v -12.89 z" /><path
         id="path4603"
         style="fill:#ffffff;fill-opacity:1;fill-rule:nonzero;stroke:none"
         d="m 235.57,83.292 c 0,-10.023 7.879,-18.617 17.903,-18.617 10.027,0 17.902,8.594 17.902,18.617 0,9.309 -7.875,17.899 -17.902,17.899 -10.024,0 -17.903,-8.59 -17.903,-17.899 z" /><path
         id="path4605"
         style="fill:#ffffff;fill-opacity:1;fill-rule:nonzero;stroke:none"
         d="m 75.184,83.292 c 0,-10.023 7.878,-18.617 17.898,-18.617 10.027,0 17.902,8.594 17.902,18.617 0,9.309 -7.875,17.899 -17.902,17.899 -10.02,0 -17.898,-8.59 -17.898,-17.899 z" /><path
         id="path4607"
         style="fill:#ffffff;fill-opacity:1;fill-rule:nonzero;stroke:none"
         d="m 190.461,154.898 c 1.434,0 2.152,0 3.582,-0.719 l 30.074,-30.789 63.723,-10.742 c 2.152,0 4.301,-2.149 4.301,-4.297 V 87.585 c 0,-2.863 -2.149,-4.293 -5.012,-4.293 h -11.461 c 0,12.172 -10.023,22.196 -22.195,22.196 -12.887,0 -22.914,-10.024 -22.914,-22.196 H 115.281 c 0,12.172 -10.023,22.196 -22.199,22.196 -12.172,0 -22.91,-10.024 -22.91,-22.196 h -8.594 c -2.863,0 -5.012,1.43 -5.012,4.293 v 29.36 c 0,1.433 0.715,2.863 2.149,3.582 l 42.246,33.652 c 0.715,0.719 1.434,0.719 2.863,0.719 z M 144.637,146.3 h -31.504 c -1.43,0 -2.863,-0.715 -3.582,-1.426 L 91.652,126.968 c -1.433,-2.144 -1.433,-5.008 0,-6.441 0.715,-0.719 2.149,-1.43 3.582,-1.43 l 49.403,-0.004 z m 45.824,-0.004 h -38.664 v -27.203 h 62.297 c 1.433,0 2.144,0.715 2.144,2.149 0,0.718 0,1.433 -0.711,1.433 l -21.488,22.195 c -1.426,0.715 -2.144,1.426 -3.578,1.426 z" /><path
         id="path4609"
         style="fill:#ffffff;fill-opacity:1;fill-rule:nonzero;stroke:none"
         d="m 85.922,353.949 h 40.098 c 15.039,0 27.929,12.175 27.929,27.925 0,15.036 -12.89,27.211 -27.929,27.211 H 85.922 Z M 60.145,261.585 v 171.844 h 67.308 c 28.641,0 52.27,-22.914 52.27,-51.555 0,-29.355 -23.629,-52.269 -52.27,-52.269 H 85.922 v -68.02" /></g><g
       id="g4611"><g
         transform="translate(0,-0.957642)"
         id="g4613"><g
           id="g4615"><g
             clip-path="url(#clipPath4621)"
             id="g4617"><g
               id="g4623" /><g
               id="g4625"><g
                 clip-path="url(#clipPath4631)"
                 id="g4627"><g
                   id="g4633"><g
                     id="g4635"><g
                       clip-path="url(#clipPath4641)"
                       id="g4637"><g
                         id="g4643" /><g
                         id="g4645"><g
                           clip-path="url(#clipPath4651)"
                           id="g4647"><g
                             id="g4653"><g
                               id="g4655"><g
                                 clip-path="url(#clipPath4661)"
                                 id="g4657"><g
                                   id="g4663" /><g
                                   id="g4665"><g
                                   clip-path="url(#clipPath4671)"
                                   id="g4667"><g
                                   id="g4673"><g
                                   id="g4675"><g
                                   clip-path="url(#clipPath4681)"
                                   id="g4677"><g
                                   id="g4683" /><g
                                   id="g4685"><g
                                   clip-path="url(#clipPath4691)"
                                   id="g4687"><g
                                   id="g4693"><g
                                   id="g4695"><g
                                   clip-path="url(#clipPath4701)"
                                   id="g4697"><g
                                   id="g4703" /><g
                                   id="g4705"><g
                                   clip-path="url(#clipPath4711)"
                                   id="g4707"><g
                                   id="g4713"><g
                                   id="g4715"><g
                                   clip-path="url(#clipPath4721)"
                                   id="g4717"><g
                                   id="g4723"><path
                                   id="path4725"
                                   style="fill:#ffffff;fill-opacity:1;fill-rule:nonzero;stroke:none"
                                   d="m 255.602,296.41 -33.711,33.699 h -18.715 l 26.211,-26.211 h -91.785 v -14.972 h 91.785 l -26.211,-26.211 h 18.715" /></g></g></g></g></g></g></g></g></g></g></g></g></g></g></g></g></g></g></g></g></g></g></g></g></g></g></g></g></g></g></g></svg>