<?xml version="1.0" encoding="UTF-8" standalone="no"?>
<svg
   xmlns:dc="http://purl.org/dc/elements/1.1/"
   xmlns:cc="http://creativecommons.org/ns#"
   xmlns:rdf="http://www.w3.org/1999/02/22-rdf-syntax-ns#"
   xmlns:svg="http://www.w3.org/2000/svg"
   xmlns="http://www.w3.org/2000/svg"
   viewBox="0 0 421.02548 630.72314"
   height="630.72314"
   width="421.02548"
   xml:space="preserve"
   version="1.1"
   id="svg3675"><metadata
     id="metadata3681"><rdf:RDF><cc:Work
         rdf:about=""><dc:format>image/svg+xml</dc:format><dc:type
           rdf:resource="http://purl.org/dc/dcmitype/StillImage" /><dc:title></dc:title></cc:Work></rdf:RDF></metadata><defs
     id="defs3679" /><g
     transform="matrix(1.25,0,0,-1.25,0,630.72315)"
     id="g3683"><g
       id="g3685"><path
         id="path3687"
         style="fill:#ffffff;fill-opacity:1;fill-rule:evenodd;stroke:none"
         d="m 23.035,0.399 291.195,0 c 22.301,0 22.192,18.187 22.192,18.187 l 0,467.641 c 0,0 0.144,17.949 -19.176,17.949 l -297.039,0 c 0,0 -19.766,0.328 -19.809,-19.742 l 0,-464.051 C 0.398,0.352 23.035,0.399 23.035,0.399 Z" /><path
         id="path3689"
         style="fill:#154889;fill-opacity:1;fill-rule:evenodd;stroke:none"
         d="m 19.648,9.305 297.622,0 c 0,0 10.828,0.027 10.828,10.953 l 0,464.926 c 0,0 -0.008,10.73 -11.981,10.73 l -295.312,0 c 0,0 -11.895,0 -11.895,-10.726 l 0,-465.613 C 8.949,9.196 19.648,9.305 19.648,9.305 Z" /><path
         id="path3691"
         style="fill:#000000;fill-opacity:1;fill-rule:evenodd;stroke:none"
         d="m 20.207,504.579 c -0.008,0 -5.023,0.085 -10.062,-2.387 C 5.098,499.715 0.02,494.602 0,484.438 L 0,20.383 C 0,10.219 5.805,5.047 11.555,2.512 17.305,-0.019 23.035,0 23.035,0 L 314.23,0 c 11.258,0 16.977,4.637 19.801,9.286 2.821,4.648 2.789,9.296 2.789,9.296 l 0,467.645 c 0,0.004 0.039,4.578 -2.39,9.164 -2.43,4.586 -7.399,9.188 -17.184,9.188 l -297.039,0 z m 0,-0.403 297.039,0 c 19.32,0 19.176,-17.949 19.176,-17.949 l 0,-467.645 c 0,0 0.109,-18.183 -22.192,-18.183 l -291.195,0 c 0,0 -22.637,-0.047 -22.637,19.98 l 0,464.055 c 0.043,20.07 19.809,19.742 19.809,19.742 z" /><path
         id="path3693"
         style="fill:#ffffff;fill-opacity:1;fill-rule:nonzero;stroke:none"
         d="m 91.652,377.547 42.77,0 c 16.039,0 29.789,12.985 29.789,29.785 0,16.039 -13.75,29.024 -29.789,29.024 l -42.77,0 0,-58.809 z m -27.496,-98.523 0,183.301 71.793,0 c 30.551,0 55.754,-24.442 55.754,-54.993 0,-31.312 -25.203,-55.753 -55.754,-55.753 l -44.297,0 0,-72.555" /><path
         id="path3695"
         style="fill:#ffffff;fill-opacity:1;fill-rule:nonzero;stroke:none"
         d="m 216.203,215.547 c 4.246,0.012 8.172,-2.324 10.18,-6.113 l 21.312,-40.281 c 1.5,-2.836 3.332,-5.504 5.45,-7.93 l 3.027,-3.449 c 1.976,-2.246 3.156,-5.07 3.387,-8.055 l 2.269,-29.789 c 0.477,-6.312 -4.254,-11.84 -10.594,-12.312 L 81.652,94.668 c -6.336,-0.484 -11.863,4.262 -12.34,10.586 l -2.269,29.801 c -0.231,2.961 0.527,5.938 2.121,8.453 l 2.473,3.875 c 1.734,2.719 3.144,5.629 4.195,8.656 l 14.957,43.04 c 1.488,4.324 5.414,7.351 9.953,7.687 l 114.61,8.746 c 0.285,0.024 0.57,0.035 0.851,0.035 z m -2.07,-11.707 c -0.223,0.016 -0.449,0.016 -0.676,0 l -109.043,-8.312 c -1.836,-0.129 -3.402,-1.348 -4.004,-3.078 l -12.992,-37.411 148.973,11.368 -18.524,35.007 c -0.754,1.403 -2.172,2.317 -3.734,2.426 z m 37.457,-100.816 1.926,-25.211 c 0.296,-3.797 -2.551,-7.121 -6.352,-7.399 l -13.75,-1.039 c -3.797,-0.296 -7.105,2.551 -7.402,6.336 l -1.922,25.203 27.5,2.11 z M 109.504,92.18 111.43,66.973 c 0.281,-3.797 -2.567,-7.105 -6.364,-7.387 l -13.738,-1.05 c -3.808,-0.309 -7.121,2.55 -7.414,6.347 l -1.91,25.211 27.5,2.086 z m 185,-22.832 0,-27.094 -252,0 0,16.254 138.187,0 0,10.84 113.813,0 z" /></g></g></svg>