<?xml version="1.0" encoding="UTF-8" standalone="no"?>
<svg
   xmlns:dc="http://purl.org/dc/elements/1.1/"
   xmlns:cc="http://creativecommons.org/ns#"
   xmlns:rdf="http://www.w3.org/1999/02/22-rdf-syntax-ns#"
   xmlns:svg="http://www.w3.org/2000/svg"
   xmlns="http://www.w3.org/2000/svg"
   viewBox="0 0 421.02548 630.72314"
   height="630.72314"
   width="421.02548"
   xml:space="preserve"
   version="1.1"
   id="svg3861"><metadata
     id="metadata3867"><rdf:RDF><cc:Work
         rdf:about=""><dc:format>image/svg+xml</dc:format><dc:type
           rdf:resource="http://purl.org/dc/dcmitype/StillImage" /><dc:title></dc:title></cc:Work></rdf:RDF></metadata><defs
     id="defs3865" /><g
     transform="matrix(1.25,0,0,-1.25,0,630.72315)"
     id="g3869"><g
       id="g3871"><path
         id="path3873"
         style="fill:#ffffff;fill-opacity:1;fill-rule:evenodd;stroke:none"
         d="m 23.035,0.399 291.195,0 c 22.301,0 22.192,18.187 22.192,18.187 l 0,467.641 c 0,0 0.144,17.949 -19.176,17.949 l -297.039,0 c 0,0 -19.766,0.328 -19.809,-19.742 l 0,-464.051 C 0.398,0.352 23.035,0.399 23.035,0.399 Z" /><path
         id="path3875"
         style="fill:#154889;fill-opacity:1;fill-rule:evenodd;stroke:none"
         d="m 19.648,9.305 297.622,0 c 0,0 10.828,0.027 10.828,10.953 l 0,464.926 c 0,0 -0.008,10.73 -11.981,10.73 l -295.312,0 c 0,0 -11.895,0 -11.895,-10.726 l 0,-465.613 C 8.949,9.196 19.648,9.305 19.648,9.305 Z" /><path
         id="path3877"
         style="fill:#000000;fill-opacity:1;fill-rule:evenodd;stroke:none"
         d="m 20.207,504.579 c -0.008,0 -5.023,0.085 -10.062,-2.387 C 5.098,499.715 0.02,494.602 0,484.438 L 0,20.383 C 0,10.219 5.805,5.047 11.555,2.512 17.305,-0.019 23.035,0 23.035,0 L 314.23,0 c 11.258,0 16.977,4.637 19.801,9.286 2.821,4.648 2.789,9.296 2.789,9.296 l 0,467.645 c 0,0.004 0.039,4.578 -2.39,9.164 -2.43,4.586 -7.399,9.188 -17.184,9.188 l -297.039,0 z m 0,-0.403 297.039,0 c 19.32,0 19.176,-17.949 19.176,-17.949 l 0,-467.645 c 0,0 0.109,-18.183 -22.192,-18.183 l -291.195,0 c 0,0 -22.637,-0.047 -22.637,19.98 l 0,464.055 c 0.043,20.07 19.809,19.742 19.809,19.742 z" /><path
         id="path3879"
         style="fill:#ffffff;fill-opacity:1;fill-rule:nonzero;stroke:none"
         d="m 91.652,377.547 42.77,0 c 16.039,0 29.789,12.985 29.789,29.785 0,16.039 -13.75,29.024 -29.789,29.024 l -42.77,0 0,-58.809 z m -27.496,-98.523 0,183.301 71.793,0 c 30.551,0 55.754,-24.442 55.754,-54.993 0,-31.312 -25.203,-55.753 -55.754,-55.753 l -44.297,0 0,-72.555" /><path
         id="path3881"
         style="fill:#ffffff;fill-opacity:1;fill-rule:nonzero;stroke:none"
         d="m 81.578,216.454 114.918,0 c 4.57,0 8.719,-2.704 10.539,-6.915 l 18.18,-41.765 c 1.281,-2.957 2.906,-5.746 4.84,-8.32 l 2.765,-3.688 c 1.782,-2.383 2.754,-5.285 2.754,-8.27 l 0,-29.871 c 0,-6.351 -5.148,-11.496 -11.5,-11.496 l -170.086,0 c -6.351,0 -11.484,5.145 -11.484,11.496 l 0,29.871 c 0,2.985 0.961,5.887 2.754,8.27 l 2.765,3.688 c 1.922,2.574 3.543,5.363 4.825,8.32 l 18.183,41.765 c 1.828,4.211 5.965,6.915 10.547,6.915 z m 2.777,-11.5 c -1.832,0 -3.496,-1.086 -4.222,-2.75 l -15.797,-36.325 149.394,0 -15.796,36.325 c -0.731,1.664 -2.383,2.75 -4.215,2.75 l -109.364,0 z M 53.988,101.52 l 27.59,0 0,-25.274 c 0,-3.816 -3.098,-6.886 -6.902,-6.886 l 128.711,0 c -3.805,0 -6.891,3.07 -6.891,6.886 l 0,25.274 27.578,0 0,-25.274 c 0,-3.816 -3.082,-6.886 -6.886,-6.886 l 24.031,0 0,-8.36 53.285,0 0,-18.746 -252,0 0,27.106 18.387,0 c -3.817,0 -6.903,3.07 -6.903,6.886 l 0,25.274 z" /></g></g></svg>