<?xml version="1.0" encoding="UTF-8" standalone="no"?>
<svg
   xmlns:dc="http://purl.org/dc/elements/1.1/"
   xmlns:cc="http://creativecommons.org/ns#"
   xmlns:rdf="http://www.w3.org/1999/02/22-rdf-syntax-ns#"
   xmlns:svg="http://www.w3.org/2000/svg"
   xmlns="http://www.w3.org/2000/svg"
   id="svg3515"
   version="1.1"
   xml:space="preserve"
   width="421.02548"
   height="630.72314"
   viewBox="0 0 421.02548 630.72314"><metadata
     id="metadata3521"><rdf:RDF><cc:Work
         rdf:about=""><dc:format>image/svg+xml</dc:format><dc:type
           rdf:resource="http://purl.org/dc/dcmitype/StillImage" /><dc:title></dc:title></cc:Work></rdf:RDF></metadata><defs
     id="defs3519"><clipPath
       clipPathUnits="userSpaceOnUse"
       id="clipPath7873"><path
         d="m 21.496,21.496 612.284,0 0,858.898 -612.284,0 0,-858.898 z"
         id="path7875" /></clipPath><clipPath
       clipPathUnits="userSpaceOnUse"
       id="clipPath7879"><path
         d="m 116.457,339.224 43.937,0 0,43.312 -43.937,0 0,-43.312 z"
         id="path7881" /></clipPath><clipPath
       clipPathUnits="userSpaceOnUse"
       id="clipPath7885"><path
         d="m 125.184,341.037 26.482,0 0,39.685 -26.482,0 0,-39.685 z"
         id="path7887" /></clipPath><clipPath
       clipPathUnits="userSpaceOnUse"
       id="clipPath7849"><path
         d="m 21.496,21.496 612.284,0 0,858.898 -612.284,0 0,-858.898 z"
         id="path7851" /></clipPath><clipPath
       clipPathUnits="userSpaceOnUse"
       id="clipPath7855"><path
         d="m 116.457,339.224 43.937,0 0,43.312 -43.937,0 0,-43.312 z"
         id="path7857" /></clipPath><clipPath
       clipPathUnits="userSpaceOnUse"
       id="clipPath7861"><path
         d="m 125.184,341.037 26.482,0 0,39.685 -26.482,0 0,-39.685 z"
         id="path7863" /></clipPath><clipPath
       clipPathUnits="userSpaceOnUse"
       id="clipPath7825"><path
         d="m 21.496,21.496 612.284,0 0,858.898 -612.284,0 0,-858.898 z"
         id="path7827" /></clipPath><clipPath
       clipPathUnits="userSpaceOnUse"
       id="clipPath7831"><path
         d="m 116.457,339.224 43.937,0 0,43.312 -43.937,0 0,-43.312 z"
         id="path7833" /></clipPath><clipPath
       clipPathUnits="userSpaceOnUse"
       id="clipPath7837"><path
         d="m 125.184,341.037 26.482,0 0,39.685 -26.482,0 0,-39.685 z"
         id="path7839" /></clipPath><clipPath
       clipPathUnits="userSpaceOnUse"
       id="clipPath7801"><path
         d="m 21.496,21.496 612.284,0 0,858.898 -612.284,0 0,-858.898 z"
         id="path7803" /></clipPath><clipPath
       clipPathUnits="userSpaceOnUse"
       id="clipPath7807"><path
         d="m 116.457,339.224 43.937,0 0,43.312 -43.937,0 0,-43.312 z"
         id="path7809" /></clipPath><clipPath
       clipPathUnits="userSpaceOnUse"
       id="clipPath7813"><path
         d="m 125.184,341.037 26.482,0 0,39.685 -26.482,0 0,-39.685 z"
         id="path7815" /></clipPath><clipPath
       clipPathUnits="userSpaceOnUse"
       id="clipPath7777"><path
         d="m 21.496,21.496 612.284,0 0,858.898 -612.284,0 0,-858.898 z"
         id="path7779" /></clipPath><clipPath
       clipPathUnits="userSpaceOnUse"
       id="clipPath7783"><path
         d="m 116.457,339.224 43.937,0 0,43.312 -43.937,0 0,-43.312 z"
         id="path7785" /></clipPath><clipPath
       clipPathUnits="userSpaceOnUse"
       id="clipPath7789"><path
         d="m 125.184,341.037 26.482,0 0,39.685 -26.482,0 0,-39.685 z"
         id="path7791" /></clipPath><clipPath
       clipPathUnits="userSpaceOnUse"
       id="clipPath7753"><path
         d="m 21.496,21.496 612.284,0 0,858.898 -612.284,0 0,-858.898 z"
         id="path7755" /></clipPath><clipPath
       clipPathUnits="userSpaceOnUse"
       id="clipPath7759"><path
         d="m 116.457,339.224 43.937,0 0,43.312 -43.937,0 0,-43.312 z"
         id="path7761" /></clipPath><clipPath
       clipPathUnits="userSpaceOnUse"
       id="clipPath7765"><path
         d="m 125.184,341.037 26.482,0 0,39.685 -26.482,0 0,-39.685 z"
         id="path7767" /></clipPath></defs><g
     id="g3523"
     transform="matrix(1.25,0,0,-1.25,1.0096159e-5,630.72315)"><g
       id="g3525"><path
         d="m 23.035,0.399 291.195,0 c 22.301,0 22.192,18.187 22.192,18.187 l 0,467.641 c 0,0 0.144,17.949 -19.176,17.949 l -297.039,0 c 0,0 -19.766,0.328 -19.809,-19.742 l 0,-464.051 C 0.398,0.352 23.035,0.399 23.035,0.399 Z"
         style="fill:#ffffff;fill-opacity:1;fill-rule:evenodd;stroke:none"
         id="path3527" /><path
         d="m 19.648,9.305 297.622,0 c 0,0 10.828,0.027 10.828,10.953 l 0,464.926 c 0,0 -0.008,10.73 -11.981,10.73 l -295.312,0 c 0,0 -11.895,0 -11.895,-10.726 l 0,-465.613 C 8.949,9.196 19.648,9.305 19.648,9.305 Z"
         style="fill:#154889;fill-opacity:1;fill-rule:evenodd;stroke:none"
         id="path3529" /><path
         d="m 20.207,504.579 c -0.008,0 -5.023,0.085 -10.062,-2.387 C 5.098,499.715 0.02,494.602 0,484.438 L 0,20.383 C 0,10.219 5.805,5.047 11.555,2.512 17.305,-0.019 23.035,0 23.035,0 L 314.23,0 c 11.258,0 16.977,4.637 19.801,9.286 2.821,4.648 2.789,9.296 2.789,9.296 l 0,467.645 c 0,0.004 0.039,4.578 -2.39,9.164 -2.43,4.586 -7.399,9.188 -17.184,9.188 l -297.039,0 z m 0,-0.403 297.039,0 c 19.32,0 19.176,-17.949 19.176,-17.949 l 0,-467.645 c 0,0 0.109,-18.183 -22.192,-18.183 l -291.195,0 c 0,0 -22.637,-0.047 -22.637,19.98 l 0,464.055 c 0.043,20.07 19.809,19.742 19.809,19.742 z"
         style="fill:#000000;fill-opacity:1;fill-rule:evenodd;stroke:none"
         id="path3531" /><path
         d="m 91.652,377.547 42.77,0 c 16.039,0 29.789,12.985 29.789,29.785 0,16.039 -13.75,29.024 -29.789,29.024 l -42.77,0 0,-58.809 z m -27.496,-98.523 0,183.301 71.793,0 c 30.551,0 55.754,-24.442 55.754,-54.993 0,-31.312 -25.203,-55.753 -55.754,-55.753 l -44.297,0 0,-72.555"
         style="fill:#ffffff;fill-opacity:1;fill-rule:nonzero;stroke:none"
         id="path3533" /><path
         d="m 120.805,215.547 c -4.246,0.012 -8.172,-2.324 -10.18,-6.113 L 89.312,169.153 c -1.5,-2.836 -3.332,-5.504 -5.449,-7.93 l -3.027,-3.449 c -1.977,-2.246 -3.156,-5.07 -3.387,-8.055 L 75.18,119.93 c -0.477,-6.312 4.258,-11.84 10.593,-12.312 l 169.582,-12.95 c 6.336,-0.484 11.864,4.262 12.34,10.586 l 2.27,29.801 c 0.23,2.961 -0.527,5.938 -2.117,8.453 l -2.477,3.875 c -1.734,2.719 -3.144,5.629 -4.195,8.656 l -14.957,43.04 c -1.489,4.324 -5.414,7.351 -9.953,7.687 l -114.61,8.746 c -0.285,0.024 -0.57,0.035 -0.851,0.035 z m 2.07,-11.707 c 0.223,0.016 0.449,0.016 0.676,0 l 109.047,-8.312 c 1.832,-0.129 3.398,-1.348 4,-3.078 l 12.992,-37.411 -148.973,11.368 18.524,35.007 c 0.754,1.403 2.171,2.317 3.734,2.426 z M 85.418,103.024 83.492,77.813 c -0.297,-3.797 2.551,-7.121 6.352,-7.399 l 13.75,-1.039 c 3.797,-0.296 7.109,2.551 7.402,6.336 l 1.922,25.203 -27.5,2.11 z M 227.504,92.18 225.578,66.973 c -0.281,-3.797 2.567,-7.105 6.363,-7.387 l 13.739,-1.05 c 3.808,-0.309 7.121,2.55 7.414,6.347 l 1.91,25.211 -27.5,2.086 z m -185,-22.832 0,-27.094 252,0 0,16.254 -138.188,0 0,10.84 -113.812,0 z"
         style="fill:#ffffff;fill-opacity:1;fill-rule:nonzero;stroke:none"
         id="path3535" /></g></g><g
     id="g9645"
     transform="matrix(12.714608,0,0,12.714608,4530.5281,494.50671)"
     style="fill:#ffffff"><g
       id="g7749"
       transform="matrix(1.25,0,0,-1.25,-512.79914,437.07525)"
       style="fill:#ffffff"><g
         clip-path="url(#clipPath7753)"
         id="g7751"
         style="fill:#ffffff"><g
           clip-path="url(#clipPath7759)"
           id="g7757"
           style="fill:#ffffff"><g
             clip-path="url(#clipPath7765)"
             id="g7763"
             style="fill:#ffffff"><g
               transform="translate(125.263,342.836)"
               id="g7769"
               style="fill:#ffffff" /></g></g></g></g><g
       id="g7773"
       transform="matrix(1.25,0,0,-1.25,-512.79914,437.07525)"
       style="fill:#ffffff"><g
         clip-path="url(#clipPath7777)"
         id="g7775"
         style="fill:#ffffff"><g
           clip-path="url(#clipPath7783)"
           id="g7781"
           style="fill:#ffffff"><g
             clip-path="url(#clipPath7789)"
             id="g7787"
             style="fill:#ffffff"><g
               transform="translate(126.984,341.736)"
               id="g7793"
               style="fill:#ffffff" /></g></g></g></g><g
       id="g7797"
       transform="matrix(1.25,0,0,-1.25,-512.79914,437.07525)"
       style="fill:#ffffff"><g
         clip-path="url(#clipPath7801)"
         id="g7799"
         style="fill:#ffffff"><g
           clip-path="url(#clipPath7807)"
           id="g7805"
           style="fill:#ffffff"><g
             clip-path="url(#clipPath7813)"
             id="g7811"
             style="fill:#ffffff"><g
               transform="translate(143.024,348.349)"
               id="g7817"
               style="fill:#ffffff" /></g></g></g></g><g
       id="g7821"
       transform="matrix(1.25,0,0,-1.25,-512.79914,437.07525)"
       style="fill:#ffffff"><g
         clip-path="url(#clipPath7825)"
         id="g7823"
         style="fill:#ffffff"><g
           clip-path="url(#clipPath7831)"
           id="g7829"
           style="fill:#ffffff"><g
             clip-path="url(#clipPath7837)"
             id="g7835"
             style="fill:#ffffff"><g
               transform="translate(133.133,354.135)"
               id="g7841"
               style="fill:#ffffff" /></g></g></g></g><g
       id="g7845"
       transform="matrix(1.25,0,0,-1.25,-512.79914,437.07525)"
       style="fill:#ffffff"><g
         clip-path="url(#clipPath7849)"
         id="g7847"
         style="fill:#ffffff"><g
           clip-path="url(#clipPath7855)"
           id="g7853"
           style="fill:#ffffff"><g
             clip-path="url(#clipPath7861)"
             id="g7859"
             style="fill:#ffffff"><g
               transform="translate(132.405,370.74)"
               id="g7865"
               style="fill:#ffffff" /></g></g></g></g><g
       id="g7869"
       transform="matrix(1.25,0,0,-1.25,-512.79914,437.07525)"
       style="fill:#ffffff"><g
         clip-path="url(#clipPath7873)"
         id="g7871"
         style="fill:#ffffff"><g
           clip-path="url(#clipPath7879)"
           id="g7877"
           style="fill:#ffffff"><g
             clip-path="url(#clipPath7885)"
             id="g7883"
             style="fill:#ffffff"><g
               transform="translate(136.755,365.876)"
               id="g7889"
               style="fill:#ffffff"><path
                 id="path7891"
                 style="fill:#ffffff;fill-opacity:1;fill-rule:nonzero;stroke:none"
                 d="m 0,0 2.828,2.827 1.57,0 -2.199,-2.199 7.7,0 0,-1.256 -7.7,0 2.199,-2.199 -1.57,0" /></g></g></g></g></g></g></svg>