<?xml version="1.0" encoding="UTF-8" standalone="no"?>
<svg
   xmlns:dc="http://purl.org/dc/elements/1.1/"
   xmlns:cc="http://creativecommons.org/ns#"
   xmlns:rdf="http://www.w3.org/1999/02/22-rdf-syntax-ns#"
   xmlns:svg="http://www.w3.org/2000/svg"
   xmlns="http://www.w3.org/2000/svg"
   id="svg3515"
   version="1.1"
   xml:space="preserve"
   width="421.02548"
   height="630.72314"
   viewBox="0 0 421.02548 630.72314"><metadata
     id="metadata3521"><rdf:RDF><cc:Work
         rdf:about=""><dc:format>image/svg+xml</dc:format><dc:type
           rdf:resource="http://purl.org/dc/dcmitype/StillImage" /><dc:title></dc:title></cc:Work></rdf:RDF></metadata><defs
     id="defs3519"><clipPath
       clipPathUnits="userSpaceOnUse"
       id="clipPath7873"><path
         d="m 21.496,21.496 612.284,0 0,858.898 -612.284,0 0,-858.898 z"
         id="path7875" /></clipPath><clipPath
       clipPathUnits="userSpaceOnUse"
       id="clipPath7879"><path
         d="m 116.457,339.224 43.937,0 0,43.312 -43.937,0 0,-43.312 z"
         id="path7881" /></clipPath><clipPath
       clipPathUnits="userSpaceOnUse"
       id="clipPath7885"><path
         d="m 125.184,341.037 26.482,0 0,39.685 -26.482,0 0,-39.685 z"
         id="path7887" /></clipPath><clipPath
       clipPathUnits="userSpaceOnUse"
       id="clipPath7849"><path
         d="m 21.496,21.496 612.284,0 0,858.898 -612.284,0 0,-858.898 z"
         id="path7851" /></clipPath><clipPath
       clipPathUnits="userSpaceOnUse"
       id="clipPath7855"><path
         d="m 116.457,339.224 43.937,0 0,43.312 -43.937,0 0,-43.312 z"
         id="path7857" /></clipPath><clipPath
       clipPathUnits="userSpaceOnUse"
       id="clipPath7861"><path
         d="m 125.184,341.037 26.482,0 0,39.685 -26.482,0 0,-39.685 z"
         id="path7863" /></clipPath><clipPath
       clipPathUnits="userSpaceOnUse"
       id="clipPath7825"><path
         d="m 21.496,21.496 612.284,0 0,858.898 -612.284,0 0,-858.898 z"
         id="path7827" /></clipPath><clipPath
       clipPathUnits="userSpaceOnUse"
       id="clipPath7831"><path
         d="m 116.457,339.224 43.937,0 0,43.312 -43.937,0 0,-43.312 z"
         id="path7833" /></clipPath><clipPath
       clipPathUnits="userSpaceOnUse"
       id="clipPath7837"><path
         d="m 125.184,341.037 26.482,0 0,39.685 -26.482,0 0,-39.685 z"
         id="path7839" /></clipPath><clipPath
       clipPathUnits="userSpaceOnUse"
       id="clipPath7801"><path
         d="m 21.496,21.496 612.284,0 0,858.898 -612.284,0 0,-858.898 z"
         id="path7803" /></clipPath><clipPath
       clipPathUnits="userSpaceOnUse"
       id="clipPath7807"><path
         d="m 116.457,339.224 43.937,0 0,43.312 -43.937,0 0,-43.312 z"
         id="path7809" /></clipPath><clipPath
       clipPathUnits="userSpaceOnUse"
       id="clipPath7813"><path
         d="m 125.184,341.037 26.482,0 0,39.685 -26.482,0 0,-39.685 z"
         id="path7815" /></clipPath><clipPath
       clipPathUnits="userSpaceOnUse"
       id="clipPath7777"><path
         d="m 21.496,21.496 612.284,0 0,858.898 -612.284,0 0,-858.898 z"
         id="path7779" /></clipPath><clipPath
       clipPathUnits="userSpaceOnUse"
       id="clipPath7783"><path
         d="m 116.457,339.224 43.937,0 0,43.312 -43.937,0 0,-43.312 z"
         id="path7785" /></clipPath><clipPath
       clipPathUnits="userSpaceOnUse"
       id="clipPath7789"><path
         d="m 125.184,341.037 26.482,0 0,39.685 -26.482,0 0,-39.685 z"
         id="path7791" /></clipPath><clipPath
       clipPathUnits="userSpaceOnUse"
       id="clipPath7753"><path
         d="m 21.496,21.496 612.284,0 0,858.898 -612.284,0 0,-858.898 z"
         id="path7755" /></clipPath><clipPath
       clipPathUnits="userSpaceOnUse"
       id="clipPath7759"><path
         d="m 116.457,339.224 43.937,0 0,43.312 -43.937,0 0,-43.312 z"
         id="path7761" /></clipPath><clipPath
       clipPathUnits="userSpaceOnUse"
       id="clipPath7765"><path
         d="m 125.184,341.037 26.482,0 0,39.685 -26.482,0 0,-39.685 z"
         id="path7767" /></clipPath></defs><path
     d="m 28.79376,630.2244 363.99375,0 c 27.87625,0 27.74,-22.73375 27.74,-22.73375 l 0,-584.55125 c 0,0 0.18,-22.43625 -23.97,-22.43625 l -371.29875,0 c 0,0 -24.7074999,-0.41 -24.7612499,24.6775 l 0,580.06375 c 0,25.03875 28.2962499,24.98 28.2962499,24.98 z"
     style="fill:#ffffff;fill-opacity:1;fill-rule:evenodd;stroke:none"
     id="path3527" /><path
     d="m 24.56001,619.0919 372.0275,0 c 0,0 13.535,-0.0338 13.535,-13.69125 l 0,-581.1575 c 0,0 -0.01,-13.4125 -14.97625,-13.4125 l -369.14,0 c 0,0 -14.86875,0 -14.86875,13.4075 l 0,582.01625 c 0.04875,12.97375 13.4225,12.8375 13.4225,12.8375 z"
     style="fill:#154889;fill-opacity:1;fill-rule:evenodd;stroke:none"
     id="path3529" /><path
     d="m 25.25876,-6e-4 c -0.01,0 -6.27875,-0.10625 -12.5775,2.98375 C 6.3725101,6.0794 0.0250101,12.47065 1.0096159e-5,25.17565 l 0,580.06875 c 0,12.705 7.256250003841,19.17 14.443749903841,22.33875 7.1875,3.16375 14.35,3.14 14.35,3.14 l 363.99375,0 c 14.0725,0 21.22125,-5.79625 24.75125,-11.6075 3.52625,-5.81 3.48625,-11.62 3.48625,-11.62 l 0,-584.55625 c 0,-0.005 0.0487,-5.7225 -2.9875,-11.455 -3.0375,-5.7325 -9.24875,-11.485 -21.48,-11.485 l -371.29875,0 z m 0,0.50375 371.29875,0 c 24.15,0 23.97,22.43625 23.97,22.43625 l 0,584.55625 c 0,0 0.13625,22.72875 -27.74,22.72875 l -363.99375,0 c 0,0 -28.2962499,0.0588 -28.2962499,-24.975 l 0,-580.06875 C 0.5512601,0.09315 25.25876,0.50315 25.25876,0.50315 Z"
     style="fill:#000000;fill-opacity:1;fill-rule:evenodd;stroke:none"
     id="path3531" /><path
     d="m 114.56501,158.7894 53.4625,0 c 20.04875,0 37.23625,-16.23125 37.23625,-37.23125 0,-20.04875 -17.1875,-36.28 -37.23625,-36.28 l -53.4625,0 0,73.51125 z m -34.37,123.15375 0,-229.12625 89.74125,0 c 38.18875,0 69.6925,30.5525 69.6925,68.74125 0,39.14 -31.50375,69.69125 -69.6925,69.69125 l -55.37125,0 0,90.69375"
     style="fill:#ffffff;fill-opacity:1;fill-rule:nonzero;stroke:none"
     id="path3533" /><path
     d="m 151.00626,361.2894 c -5.3075,-0.015 -10.215,2.905 -12.725,7.64125 l -26.64125,50.35125 c -1.875,3.545 -4.165,6.88 -6.81125,9.9125 l -3.78375,4.31125 c -2.47125,2.8075 -3.945,6.3375 -4.23375,10.06875 l -2.83625,37.23625 c -0.59625,7.89 5.3225,14.8 13.24125,15.39 l 211.9775,16.1875 c 7.92,0.605 14.83,-5.3275 15.425,-13.2325 l 2.8375,-37.25125 c 0.2875,-3.70125 -0.65875,-7.4225 -2.64625,-10.56625 l -3.09625,-4.84375 c -2.1675,-3.39875 -3.93,-7.03625 -5.24375,-10.82 l -18.69625,-53.8 c -1.86125,-5.405 -6.7675,-9.18875 -12.44125,-9.60875 l -143.2625,-10.9325 c -0.35625,-0.03 -0.7125,-0.0437 -1.06375,-0.0437 z m 2.5875,14.63375 c 0.27875,-0.02 0.56125,-0.02 0.845,0 l 136.30875,10.39 c 2.29,0.16125 4.2475,1.685 5,3.8475 l 16.24,46.76375 -186.21625,-14.21 23.155,-43.75875 c 0.9425,-1.75375 2.71375,-2.89625 4.6675,-3.0325 z m -46.82125,126.02 -2.4075,31.51375 c -0.37125,4.74625 3.18875,8.90125 7.94,9.24875 l 17.1875,1.29875 c 4.74625,0.37 8.88625,-3.18875 9.2525,-7.92 l 2.4025,-31.50375 -34.375,-2.6375 z m 177.6075,13.555 -2.4075,31.50875 c -0.35125,4.74625 3.20875,8.88125 7.95375,9.23375 l 17.17375,1.3125 c 4.76,0.38625 8.90125,-3.1875 9.2675,-7.93375 l 2.3875,-31.51375 -34.375,-2.6075 z m -231.25,28.54 0,33.8675 315,0 0,-20.3175 -172.735,0 0,-13.55 -142.265,0 z"
     style="fill:#ffffff;fill-opacity:1;fill-rule:nonzero;stroke:none"
     id="path3535" /><g
     id="g9645"
     transform="matrix(-12.714608,0,0,12.714608,-4005.2591,494.50671)"
     style="fill:#ffffff"><g
       id="g7749"
       transform="matrix(1.25,0,0,-1.25,-512.79914,437.07525)"
       style="fill:#ffffff"><g
         clip-path="url(#clipPath7753)"
         id="g7751"
         style="fill:#ffffff"><g
           clip-path="url(#clipPath7759)"
           id="g7757"
           style="fill:#ffffff"><g
             clip-path="url(#clipPath7765)"
             id="g7763"
             style="fill:#ffffff"><g
               transform="translate(125.263,342.836)"
               id="g7769"
               style="fill:#ffffff" /></g></g></g></g><g
       id="g7773"
       transform="matrix(1.25,0,0,-1.25,-512.79914,437.07525)"
       style="fill:#ffffff"><g
         clip-path="url(#clipPath7777)"
         id="g7775"
         style="fill:#ffffff"><g
           clip-path="url(#clipPath7783)"
           id="g7781"
           style="fill:#ffffff"><g
             clip-path="url(#clipPath7789)"
             id="g7787"
             style="fill:#ffffff"><g
               transform="translate(126.984,341.736)"
               id="g7793"
               style="fill:#ffffff" /></g></g></g></g><g
       id="g7797"
       transform="matrix(1.25,0,0,-1.25,-512.79914,437.07525)"
       style="fill:#ffffff"><g
         clip-path="url(#clipPath7801)"
         id="g7799"
         style="fill:#ffffff"><g
           clip-path="url(#clipPath7807)"
           id="g7805"
           style="fill:#ffffff"><g
             clip-path="url(#clipPath7813)"
             id="g7811"
             style="fill:#ffffff"><g
               transform="translate(143.024,348.349)"
               id="g7817"
               style="fill:#ffffff" /></g></g></g></g><g
       id="g7821"
       transform="matrix(1.25,0,0,-1.25,-512.79914,437.07525)"
       style="fill:#ffffff"><g
         clip-path="url(#clipPath7825)"
         id="g7823"
         style="fill:#ffffff"><g
           clip-path="url(#clipPath7831)"
           id="g7829"
           style="fill:#ffffff"><g
             clip-path="url(#clipPath7837)"
             id="g7835"
             style="fill:#ffffff"><g
               transform="translate(133.133,354.135)"
               id="g7841"
               style="fill:#ffffff" /></g></g></g></g><g
       id="g7845"
       transform="matrix(1.25,0,0,-1.25,-512.79914,437.07525)"
       style="fill:#ffffff"><g
         clip-path="url(#clipPath7849)"
         id="g7847"
         style="fill:#ffffff"><g
           clip-path="url(#clipPath7855)"
           id="g7853"
           style="fill:#ffffff"><g
             clip-path="url(#clipPath7861)"
             id="g7859"
             style="fill:#ffffff"><g
               transform="translate(132.405,370.74)"
               id="g7865"
               style="fill:#ffffff" /></g></g></g></g><g
       id="g7869"
       transform="matrix(1.25,0,0,-1.25,-512.79914,437.07525)"
       style="fill:#ffffff"><g
         clip-path="url(#clipPath7873)"
         id="g7871"
         style="fill:#ffffff"><g
           clip-path="url(#clipPath7879)"
           id="g7877"
           style="fill:#ffffff"><g
             clip-path="url(#clipPath7885)"
             id="g7883"
             style="fill:#ffffff"><g
               transform="translate(136.755,365.876)"
               id="g7889"
               style="fill:#ffffff"><path
                 id="path7891"
                 style="fill:#ffffff;fill-opacity:1;fill-rule:nonzero;stroke:none"
                 d="m 0,0 2.828,2.827 1.57,0 -2.199,-2.199 7.7,0 0,-1.256 -7.7,0 2.199,-2.199 -1.57,0" /></g></g></g></g></g></g></svg>