<?xml version="1.0" encoding="UTF-8" standalone="no"?>
<svg
   xmlns:dc="http://purl.org/dc/elements/1.1/"
   xmlns:cc="http://creativecommons.org/ns#"
   xmlns:rdf="http://www.w3.org/1999/02/22-rdf-syntax-ns#"
   xmlns:svg="http://www.w3.org/2000/svg"
   xmlns="http://www.w3.org/2000/svg"
   viewBox="0 0 421.02548 630.72314"
   height="630.72314"
   width="421.02548"
   xml:space="preserve"
   version="1.1"
   id="svg3473"><metadata
     id="metadata3479"><rdf:RDF><cc:Work
         rdf:about=""><dc:format>image/svg+xml</dc:format><dc:type
           rdf:resource="http://purl.org/dc/dcmitype/StillImage" /><dc:title></dc:title></cc:Work></rdf:RDF></metadata><defs
     id="defs3477" /><g
     transform="matrix(1.25,0,0,-1.25,0,630.72315)"
     id="g3481"><g
       id="g3483"><path
         id="path3485"
         style="fill:#ffffff;fill-opacity:1;fill-rule:evenodd;stroke:none"
         d="m 23.035,0.399 291.195,0 c 22.301,0 22.192,18.187 22.192,18.187 l 0,467.641 c 0,0 0.144,17.949 -19.176,17.949 l -297.039,0 c 0,0 -19.766,0.328 -19.809,-19.742 l 0,-464.051 C 0.398,0.352 23.035,0.399 23.035,0.399 Z" /><path
         id="path3487"
         style="fill:#154889;fill-opacity:1;fill-rule:evenodd;stroke:none"
         d="m 19.648,9.305 297.622,0 c 0,0 10.828,0.027 10.828,10.953 l 0,464.926 c 0,0 -0.008,10.73 -11.981,10.73 l -295.312,0 c 0,0 -11.895,0 -11.895,-10.726 l 0,-465.613 C 8.949,9.196 19.648,9.305 19.648,9.305 Z" /><path
         id="path3489"
         style="fill:#000000;fill-opacity:1;fill-rule:evenodd;stroke:none"
         d="m 20.207,504.579 c -0.008,0 -5.023,0.085 -10.062,-2.387 C 5.098,499.715 0.02,494.602 0,484.438 L 0,20.383 C 0,10.219 5.805,5.047 11.555,2.512 17.305,-0.019 23.035,0 23.035,0 L 314.23,0 c 11.258,0 16.977,4.637 19.801,9.286 2.821,4.648 2.789,9.296 2.789,9.296 l 0,467.645 c 0,0.004 0.039,4.578 -2.39,9.164 -2.43,4.586 -7.399,9.188 -17.184,9.188 l -297.039,0 z m 0,-0.403 297.039,0 c 19.32,0 19.176,-17.949 19.176,-17.949 l 0,-467.645 c 0,0 0.109,-18.183 -22.192,-18.183 l -291.195,0 c 0,0 -22.637,-0.047 -22.637,19.98 l 0,464.055 c 0.043,20.07 19.809,19.742 19.809,19.742 z" /><path
         id="path3491"
         style="fill:#ffffff;fill-opacity:1;fill-rule:nonzero;stroke:none"
         d="m 311.617,42.254 0,26.731 -236.769,0 0,-12.981 -49.645,0 0,-13.75 286.414,0 z" /><path
         id="path3493"
         style="fill:#ffffff;fill-opacity:1;fill-rule:nonzero;stroke:none"
         d="m 251.277,88.844 c 0,-10.691 8.403,-19.859 19.094,-19.859 10.695,0 19.094,9.168 19.094,19.859 0,9.93 -8.399,19.094 -19.094,19.094 -10.691,0 -19.094,-9.164 -19.094,-19.094 z" /><path
         id="path3495"
         style="fill:#ffffff;fill-opacity:1;fill-rule:nonzero;stroke:none"
         d="m 80.195,88.844 c 0,-10.691 8.403,-19.859 19.094,-19.859 10.695,0 19.094,9.168 19.094,19.859 0,9.93 -8.399,19.094 -19.094,19.094 -10.691,0 -19.094,-9.164 -19.094,-19.094 z" /><path
         id="path3497"
         style="fill:#ffffff;fill-opacity:1;fill-rule:nonzero;stroke:none"
         d="m 203.16,165.223 c 1.528,0 2.293,0 3.82,-0.766 l 32.079,-32.839 67.972,-11.461 c 2.293,0 4.586,-2.289 4.586,-4.582 l 0,-22.149 c 0,-3.055 -2.293,-4.582 -5.347,-4.582 l -12.223,0 c 0,12.985 -10.692,23.676 -23.676,23.676 -13.746,0 -24.441,-10.691 -24.441,-23.676 l -122.965,0 c 0,12.985 -10.692,23.676 -23.676,23.676 -12.984,0 -24.441,-10.691 -24.441,-23.676 l -9.164,0 c -3.055,0 -5.348,1.527 -5.348,4.582 l 0,31.317 c 0,1.527 0.766,3.054 2.293,3.82 l 45.062,35.894 c 0.762,0.766 1.528,0.766 3.055,0.766 l 92.414,0 z m -48.879,-9.168 -33.605,0 c -1.528,0 -3.055,-0.762 -3.821,-1.523 L 97.762,135.434 c -1.528,-2.289 -1.528,-5.344 0,-6.871 0.765,-0.766 2.293,-1.527 3.82,-1.527 l 52.699,-0.004 0,29.023 z m 48.879,-0.004 -41.242,0 0,-29.019 66.449,0 c 1.528,0 2.289,0.765 2.289,2.293 0,0.765 0,1.527 -0.761,1.527 l -22.918,23.676 c -1.524,0.761 -2.289,1.523 -3.817,1.523 z" /><path
         id="path3499"
         style="fill:#ffffff;fill-opacity:1;fill-rule:nonzero;stroke:none"
         d="m 91.652,377.547 42.77,0 c 16.039,0 29.789,12.985 29.789,29.785 0,16.039 -13.75,29.024 -29.789,29.024 l -42.77,0 0,-58.809 z m -27.496,-98.523 0,183.301 71.793,0 c 30.551,0 55.754,-24.442 55.754,-54.993 0,-31.312 -25.203,-55.753 -55.754,-55.753 l -44.297,0 0,-72.555" /></g></g></svg>