<?xml version="1.0" encoding="UTF-8" standalone="no"?>
<svg
   xmlns:dc="http://purl.org/dc/elements/1.1/"
   xmlns:cc="http://creativecommons.org/ns#"
   xmlns:rdf="http://www.w3.org/1999/02/22-rdf-syntax-ns#"
   xmlns:svg="http://www.w3.org/2000/svg"
   xmlns="http://www.w3.org/2000/svg"
   viewBox="0 0 421.02548 630.72314"
   height="630.72314"
   width="421.02548"
   xml:space="preserve"
   id="svg7093"
   version="1.1"><metadata
     id="metadata7099"><rdf:RDF><cc:Work
         rdf:about=""><dc:format>image/svg+xml</dc:format><dc:type
           rdf:resource="http://purl.org/dc/dcmitype/StillImage" /><dc:title></dc:title></cc:Work></rdf:RDF></metadata><defs
     id="defs7097"><clipPath
       id="clipPath7121"
       clipPathUnits="userSpaceOnUse"><path
         id="path7119"
         d="M 77.266,0 H 315.938 V 473.438 H 77.266 Z" /></clipPath><clipPath
       id="clipPath7131"
       clipPathUnits="userSpaceOnUse"><path
         id="path7129"
         d="M 77,0 H 316 V 474 H 77 Z" /></clipPath><clipPath
       id="clipPath7141"
       clipPathUnits="userSpaceOnUse"><path
         id="path7139"
         d="M 76.875,0 H 315.938 V 473.438 H 76.875 Z" /></clipPath><clipPath
       id="clipPath7151"
       clipPathUnits="userSpaceOnUse"><path
         id="path7149"
         d="M 76,0 H 316 V 474 H 76 Z" /></clipPath><clipPath
       id="clipPath7161"
       clipPathUnits="userSpaceOnUse"><path
         id="path7159"
         d="M 77.266,0 H 315.938 V 473.438 H 77.266 Z" /></clipPath><clipPath
       id="clipPath7171"
       clipPathUnits="userSpaceOnUse"><path
         id="path7169"
         d="M 77,0 H 316 V 474 H 77 Z" /></clipPath><clipPath
       id="clipPath7181"
       clipPathUnits="userSpaceOnUse"><path
         id="path7179"
         d="M 77.813,0 H 315.938 V 473.438 H 77.813 Z" /></clipPath><clipPath
       id="clipPath7191"
       clipPathUnits="userSpaceOnUse"><path
         id="path7189"
         d="M 77,0 H 316 V 474 H 77 Z" /></clipPath><clipPath
       id="clipPath7201"
       clipPathUnits="userSpaceOnUse"><path
         id="path7199"
         d="M 77.859,0.625 H 315.937 V 473.438 H 77.859 Z" /></clipPath><clipPath
       id="clipPath7211"
       clipPathUnits="userSpaceOnUse"><path
         id="path7209"
         d="M 77,0 H 316 V 474 H 77 Z" /></clipPath><clipPath
       id="clipPath7221"
       clipPathUnits="userSpaceOnUse"><path
         id="path7219"
         d="m 136.875,143.438 h 120 v 68.438 h -120 z" /></clipPath><clipPath
       id="clipPath7231"
       clipPathUnits="userSpaceOnUse"><path
         id="path7229"
         d="m 136,143 h 121 v 69 H 136 Z" /></clipPath><clipPath
       id="clipPath7241"
       clipPathUnits="userSpaceOnUse"><path
         id="path7239"
         d="m 137.266,143.438 h 119.063 v 68.438 H 137.266 Z" /></clipPath><clipPath
       id="clipPath7251"
       clipPathUnits="userSpaceOnUse"><path
         id="path7249"
         d="m 137,143 h 120 v 69 H 137 Z" /></clipPath><clipPath
       id="clipPath7261"
       clipPathUnits="userSpaceOnUse"><path
         id="path7259"
         d="m 136.875,143.438 h 120 v 68.438 h -120 z" /></clipPath><clipPath
       id="clipPath7271"
       clipPathUnits="userSpaceOnUse"><path
         id="path7269"
         d="m 136,143 h 121 v 69 H 136 Z" /></clipPath><clipPath
       id="clipPath7281"
       clipPathUnits="userSpaceOnUse"><path
         id="path7279"
         d="m 137.266,143.438 h 119.063 v 68.438 H 137.266 Z" /></clipPath><clipPath
       id="clipPath7291"
       clipPathUnits="userSpaceOnUse"><path
         id="path7289"
         d="m 137,143 h 120 v 69 H 137 Z" /></clipPath><clipPath
       id="clipPath7301"
       clipPathUnits="userSpaceOnUse"><path
         id="path7299"
         d="m 136.875,143.438 h 120 v 68.438 h -120 z" /></clipPath><clipPath
       id="clipPath7311"
       clipPathUnits="userSpaceOnUse"><path
         id="path7309"
         d="m 136,143 h 121 v 69 H 136 Z" /></clipPath><clipPath
       id="clipPath7321"
       clipPathUnits="userSpaceOnUse"><path
         id="path7319"
         d="m 137.266,143.438 h 119.063 v 68.438 H 137.266 Z" /></clipPath><clipPath
       id="clipPath7331"
       clipPathUnits="userSpaceOnUse"><path
         id="path7329"
         d="m 137,143 h 120 v 69 H 137 Z" /></clipPath><clipPath
       id="clipPath7341"
       clipPathUnits="userSpaceOnUse"><path
         id="path7339"
         d="m 136.875,143.438 h 120 v 68.438 h -120 z" /></clipPath><clipPath
       id="clipPath7351"
       clipPathUnits="userSpaceOnUse"><path
         id="path7349"
         d="m 136,143 h 121 v 69 H 136 Z" /></clipPath><clipPath
       id="clipPath7361"
       clipPathUnits="userSpaceOnUse"><path
         id="path7359"
         d="m 137.266,143.438 h 119.063 v 68.438 H 137.266 Z" /></clipPath><clipPath
       id="clipPath7371"
       clipPathUnits="userSpaceOnUse"><path
         id="path7369"
         d="m 137,143 h 120 v 69 H 137 Z" /></clipPath><clipPath
       id="clipPath7381"
       clipPathUnits="userSpaceOnUse"><path
         id="path7379"
         d="m 136.875,143.438 h 120 v 68.438 h -120 z" /></clipPath><clipPath
       id="clipPath7391"
       clipPathUnits="userSpaceOnUse"><path
         id="path7389"
         d="m 136,143 h 121 v 69 H 136 Z" /></clipPath><clipPath
       id="clipPath7401"
       clipPathUnits="userSpaceOnUse"><path
         id="path7399"
         d="m 137.266,143.438 h 119.063 v 68.438 H 137.266 Z" /></clipPath><clipPath
       id="clipPath7411"
       clipPathUnits="userSpaceOnUse"><path
         id="path7409"
         d="m 137,143 h 120 v 69 H 137 Z" /></clipPath><clipPath
       id="clipPath7421"
       clipPathUnits="userSpaceOnUse"><path
         id="path7419"
         d="m 136.875,143.438 h 120 v 68.438 h -120 z" /></clipPath><clipPath
       id="clipPath7431"
       clipPathUnits="userSpaceOnUse"><path
         id="path7429"
         d="m 136,143 h 121 v 69 H 136 Z" /></clipPath><clipPath
       id="clipPath7441"
       clipPathUnits="userSpaceOnUse"><path
         id="path7439"
         d="m 137.266,143.438 h 119.063 v 68.438 H 137.266 Z" /></clipPath><clipPath
       id="clipPath7451"
       clipPathUnits="userSpaceOnUse"><path
         id="path7449"
         d="m 137,143 h 120 v 69 H 137 Z" /></clipPath><clipPath
       id="clipPath7461"
       clipPathUnits="userSpaceOnUse"><path
         id="path7459"
         d="m 136.875,143.438 h 120 v 68.438 h -120 z" /></clipPath><clipPath
       id="clipPath7471"
       clipPathUnits="userSpaceOnUse"><path
         id="path7469"
         d="m 136,143 h 121 v 69 H 136 Z" /></clipPath><clipPath
       id="clipPath7481"
       clipPathUnits="userSpaceOnUse"><path
         id="path7479"
         d="m 137.266,143.438 h 119.063 v 68.438 H 137.266 Z" /></clipPath><clipPath
       id="clipPath7491"
       clipPathUnits="userSpaceOnUse"><path
         id="path7489"
         d="m 137,143 h 120 v 69 H 137 Z" /></clipPath><clipPath
       id="clipPath7501"
       clipPathUnits="userSpaceOnUse"><path
         id="path7499"
         d="m 136.875,143.438 h 119.063 v 68.438 H 136.875 Z" /></clipPath><clipPath
       id="clipPath7511"
       clipPathUnits="userSpaceOnUse"><path
         id="path7509"
         d="m 136,143 h 120 v 69 H 136 Z" /></clipPath></defs><g
     transform="matrix(1.3333333,0,0,1.3333333,0,1.1768079e-5)"
     id="g7101"><g
       id="g7103"><path
         id="path7105"
         style="fill:#ffffff;fill-opacity:1;fill-rule:evenodd;stroke:none"
         d="M 21.594,472.668 H 294.59 c 20.906,0 20.805,-17.051 20.805,-17.051 V 17.203 c 0,0 0.136,-16.824 -17.977,-16.824 H 18.945 c 0,0 -18.531,-0.309 -18.57,18.508 v 435.047 c 0,18.777 21.219,18.734 21.219,18.734 z" /><path
         id="path7107"
         style="fill:#154889;fill-opacity:1;fill-rule:evenodd;stroke:none"
         d="m 18.422,464.32 h 279.019 c 0,0 10.153,-0.027 10.153,-10.269 V 18.184 c 0,0 -0.008,-10.063 -11.235,-10.063 H 19.504 c 0,0 -11.152,0 -11.152,10.059 v 436.511 c 0.039,9.731 10.07,9.629 10.07,9.629 z" /><path
         id="path7109"
         style="fill:#000000;fill-opacity:1;fill-rule:evenodd;stroke:none"
         d="M 18.945,0 C 18.938,0 14.234,-0.082 9.512,2.238 4.781,4.559 0.02,9.352 0,18.883 v 435.051 c 0,9.527 5.441,14.379 10.832,16.754 5.391,2.371 10.762,2.355 10.762,2.355 H 294.59 c 10.555,0 15.918,-4.348 18.562,-8.707 2.645,-4.356 2.618,-8.715 2.618,-8.715 V 17.203 c 0,-0.004 0.035,-4.289 -2.243,-8.59 C 311.25,4.313 306.59,0 297.418,0 Z m 0,0.379 h 278.473 c 18.113,0 17.977,16.824 17.977,16.824 v 438.418 c 0,0 0.101,17.047 -20.805,17.047 H 21.594 c 0,0 -21.219,0.043 -21.219,-18.73 V 18.887 C 0.414,0.07 18.945,0.379 18.945,0.379 Z" /><path
         id="path7111"
         style="fill:#ffffff;fill-opacity:1;fill-rule:nonzero;stroke:none"
         d="m 85.922,119.094 h 40.098 c 15.039,0 27.929,-12.176 27.929,-27.926 0,-15.035 -12.89,-27.211 -27.929,-27.211 H 85.922 Z M 60.145,211.457 V 39.613 h 67.308 c 28.641,0 52.27,22.914 52.27,51.555 0,29.355 -23.629,52.27 -52.27,52.27 H 85.922 v 68.019" /><path
         id="path7113"
         style="fill:#ffffff;fill-opacity:1;fill-rule:nonzero;stroke:none"
         d="M 239.465,270.117 H 131.73 c -4.285,0 -8.175,2.535 -9.878,6.481 l -17.047,39.156 c -1.2,2.773 -2.723,5.387 -4.535,7.801 l -2.594,3.457 c -1.672,2.234 -2.578,4.953 -2.578,7.754 v 28.004 c 0,5.953 4.824,10.777 10.777,10.777 h 159.457 c 5.953,0 10.766,-4.824 10.766,-10.777 v -28.004 c 0,-2.801 -0.903,-5.52 -2.582,-7.754 l -2.594,-3.457 c -1.801,-2.414 -3.32,-5.028 -4.524,-7.801 l -17.046,-39.156 c -1.711,-3.946 -5.59,-6.481 -9.887,-6.481 z m -2.606,10.781 c 1.719,0 3.282,1.02 3.961,2.579 l 14.809,34.054 H 115.57 l 14.813,-34.054 c 0.683,-1.559 2.234,-2.579 3.949,-2.579 z m 28.473,96.969 h -25.867 v 23.696 c 0,3.578 2.902,6.453 6.473,6.453 H 125.27 c 3.566,0 6.46,-2.875 6.46,-6.453 v -23.696 h -25.855 v 23.696 c 0,3.578 2.891,6.453 6.457,6.453 H 89.801 v 7.839 H 39.848 v 17.575 h 236.25 v -25.414 h -17.239 c 3.579,0 6.473,-2.875 6.473,-6.453 z" /></g><g
       id="g7115"><g
         clip-path="url(#clipPath7121)"
         id="g7117"><g
           id="g7123"><g
             id="g7125"><g
               clip-path="url(#clipPath7131)"
               id="g7127"><g
                 id="g7133" /><g
                 id="g7135"><g
                   clip-path="url(#clipPath7141)"
                   id="g7137"><g
                     id="g7143"><g
                       id="g7145"><g
                         clip-path="url(#clipPath7151)"
                         id="g7147"><g
                           id="g7153" /><g
                           id="g7155"><g
                             clip-path="url(#clipPath7161)"
                             id="g7157"><g
                               id="g7163"><g
                                 id="g7165"><g
                                   clip-path="url(#clipPath7171)"
                                   id="g7167"><g
                                   id="g7173" /><g
                                   id="g7175"><g
                                   clip-path="url(#clipPath7181)"
                                   id="g7177"><g
                                   id="g7183"><g
                                   id="g7185"><g
                                   clip-path="url(#clipPath7191)"
                                   id="g7187"><g
                                   id="g7193" /><g
                                   id="g7195"><g
                                   clip-path="url(#clipPath7201)"
                                   id="g7197"><g
                                   id="g7203"><g
                                   id="g7205"><g
                                   clip-path="url(#clipPath7211)"
                                   id="g7207"><g
                                   id="g7213" /><g
                                   id="g7215"><g
                                   clip-path="url(#clipPath7221)"
                                   id="g7217"><g
                                   id="g7223"><g
                                   id="g7225"><g
                                   clip-path="url(#clipPath7231)"
                                   id="g7227"><g
                                   id="g7233" /><g
                                   id="g7235"><g
                                   clip-path="url(#clipPath7241)"
                                   id="g7237"><g
                                   id="g7243"><g
                                   id="g7245"><g
                                   clip-path="url(#clipPath7251)"
                                   id="g7247"><g
                                   id="g7253" /><g
                                   id="g7255"><g
                                   clip-path="url(#clipPath7261)"
                                   id="g7257"><g
                                   id="g7263"><g
                                   id="g7265"><g
                                   clip-path="url(#clipPath7271)"
                                   id="g7267"><g
                                   id="g7273" /><g
                                   id="g7275"><g
                                   clip-path="url(#clipPath7281)"
                                   id="g7277"><g
                                   id="g7283"><g
                                   id="g7285"><g
                                   clip-path="url(#clipPath7291)"
                                   id="g7287"><g
                                   id="g7293" /><g
                                   id="g7295"><g
                                   clip-path="url(#clipPath7301)"
                                   id="g7297"><g
                                   id="g7303"><g
                                   id="g7305"><g
                                   clip-path="url(#clipPath7311)"
                                   id="g7307"><g
                                   id="g7313" /><g
                                   id="g7315"><g
                                   clip-path="url(#clipPath7321)"
                                   id="g7317"><g
                                   id="g7323"><g
                                   id="g7325"><g
                                   clip-path="url(#clipPath7331)"
                                   id="g7327"><g
                                   id="g7333" /><g
                                   id="g7335"><g
                                   clip-path="url(#clipPath7341)"
                                   id="g7337"><g
                                   id="g7343"><g
                                   id="g7345"><g
                                   clip-path="url(#clipPath7351)"
                                   id="g7347"><g
                                   id="g7353" /><g
                                   id="g7355"><g
                                   clip-path="url(#clipPath7361)"
                                   id="g7357"><g
                                   id="g7363"><g
                                   id="g7365"><g
                                   clip-path="url(#clipPath7371)"
                                   id="g7367"><g
                                   id="g7373" /><g
                                   id="g7375"><g
                                   clip-path="url(#clipPath7381)"
                                   id="g7377"><g
                                   id="g7383"><g
                                   id="g7385"><g
                                   clip-path="url(#clipPath7391)"
                                   id="g7387"><g
                                   id="g7393" /><g
                                   id="g7395"><g
                                   clip-path="url(#clipPath7401)"
                                   id="g7397"><g
                                   id="g7403"><g
                                   id="g7405"><g
                                   clip-path="url(#clipPath7411)"
                                   id="g7407"><g
                                   id="g7413" /><g
                                   id="g7415"><g
                                   clip-path="url(#clipPath7421)"
                                   id="g7417"><g
                                   id="g7423"><g
                                   id="g7425"><g
                                   clip-path="url(#clipPath7431)"
                                   id="g7427"><g
                                   id="g7433" /><g
                                   id="g7435"><g
                                   clip-path="url(#clipPath7441)"
                                   id="g7437"><g
                                   id="g7443"><g
                                   id="g7445"><g
                                   clip-path="url(#clipPath7451)"
                                   id="g7447"><g
                                   id="g7453" /><g
                                   id="g7455"><g
                                   clip-path="url(#clipPath7461)"
                                   id="g7457"><g
                                   id="g7463"><g
                                   id="g7465"><g
                                   clip-path="url(#clipPath7471)"
                                   id="g7467"><g
                                   id="g7473" /><g
                                   id="g7475"><g
                                   clip-path="url(#clipPath7481)"
                                   id="g7477"><g
                                   id="g7483"><g
                                   id="g7485"><g
                                   clip-path="url(#clipPath7491)"
                                   id="g7487"><g
                                   id="g7493" /><g
                                   id="g7495"><g
                                   clip-path="url(#clipPath7501)"
                                   id="g7497"><g
                                   id="g7503"><g
                                   id="g7505"><g
                                   clip-path="url(#clipPath7511)"
                                   id="g7507"><g
                                   id="g7513"><path
                                   id="path7515"
                                   style="fill:#ffffff;fill-opacity:1;fill-rule:nonzero;stroke:none"
                                   d="m 255.602,177.59 -33.711,-33.699 h -18.715 l 26.211,26.211 h -91.785 v 14.972 h 91.785 l -26.211,26.211 h 18.715" /></g></g></g></g></g></g></g></g></g></g></g></g></g></g></g></g></g></g></g></g></g></g></g></g></g></g></g></g></g></g></g></g></g></g></g></g></g></g></g></g></g></g></g></g></g></g></g></g></g></g></g></g></g></g></g></g></g></g></g></g></g></g></g></g></g></g></g></g></g></g></g></g></g></g></g></g></g></g></g></g></g></g></g></g></g></g></g></g></g></g></g></g></g></g></g></g></g></g></g></g></g></g></svg>