<?xml version="1.0" encoding="UTF-8" standalone="no"?>
<svg
   xmlns:dc="http://purl.org/dc/elements/1.1/"
   xmlns:cc="http://creativecommons.org/ns#"
   xmlns:rdf="http://www.w3.org/1999/02/22-rdf-syntax-ns#"
   xmlns:svg="http://www.w3.org/2000/svg"
   xmlns="http://www.w3.org/2000/svg"
   viewBox="0 0 421.02548 630.72314"
   height="630.72314"
   width="421.02548"
   xml:space="preserve"
   version="1.1"
   id="svg5058"><metadata
     id="metadata5064"><rdf:RDF><cc:Work
         rdf:about=""><dc:format>image/svg+xml</dc:format><dc:type
           rdf:resource="http://purl.org/dc/dcmitype/StillImage" /><dc:title></dc:title></cc:Work></rdf:RDF></metadata><defs
     id="defs5062"><clipPath
       id="clipPath5084"
       clipPathUnits="userSpaceOnUse"><path
         id="path5086"
         d="m 82.418,504.579 254.582,0 0,-505 -254.582,0 0,505 z" /></clipPath><clipPath
       id="clipPath5094"
       clipPathUnits="userSpaceOnUse"><path
         id="path5096"
         d="M 82,0 337,0 337,505 82,505 82,0 Z" /></clipPath><clipPath
       id="clipPath5104"
       clipPathUnits="userSpaceOnUse"><path
         id="path5106"
         d="M 82.418,505 337,505 337,0 82.418,0 l 0,505 z" /></clipPath><clipPath
       id="clipPath5114"
       clipPathUnits="userSpaceOnUse"><path
         id="path5116"
         d="M 83,0 337,0 337,505 83,505 83,0 Z" /></clipPath><clipPath
       id="clipPath5124"
       clipPathUnits="userSpaceOnUse"><path
         id="path5126"
         d="M 83.051,504.332 337,504.332 337,0 83.051,0 l 0,504.332 z" /></clipPath><clipPath
       id="clipPath5134"
       clipPathUnits="userSpaceOnUse"><path
         id="path5136"
         d="m 146,279 128,0 0,73 -128,0 0,-73 z" /></clipPath><clipPath
       id="clipPath5144"
       clipPathUnits="userSpaceOnUse"><path
         id="path5146"
         d="m 146.418,352 127,0 0,-73 -127,0 0,73 z" /></clipPath><clipPath
       id="clipPath5154"
       clipPathUnits="userSpaceOnUse"><path
         id="path5156"
         d="m 146,279 128,0 0,73 -128,0 0,-73 z" /></clipPath><clipPath
       id="clipPath5164"
       clipPathUnits="userSpaceOnUse"><path
         id="path5166"
         d="m 146.418,352 127,0 0,-73 -127,0 0,73 z" /></clipPath><clipPath
       id="clipPath5174"
       clipPathUnits="userSpaceOnUse"><path
         id="path5176"
         d="m 146,279 128,0 0,73 -128,0 0,-73 z" /></clipPath><clipPath
       id="clipPath5184"
       clipPathUnits="userSpaceOnUse"><path
         id="path5186"
         d="m 146.418,352 127,0 0,-73 -127,0 0,73 z" /></clipPath><clipPath
       id="clipPath5194"
       clipPathUnits="userSpaceOnUse"><path
         id="path5196"
         d="m 146,279 128,0 0,73 -128,0 0,-73 z" /></clipPath><clipPath
       id="clipPath5204"
       clipPathUnits="userSpaceOnUse"><path
         id="path5206"
         d="m 146.418,352 127,0 0,-73 -127,0 0,73 z" /></clipPath><clipPath
       id="clipPath5214"
       clipPathUnits="userSpaceOnUse"><path
         id="path5216"
         d="m 146,279 128,0 0,73 -128,0 0,-73 z" /></clipPath><clipPath
       id="clipPath5224"
       clipPathUnits="userSpaceOnUse"><path
         id="path5226"
         d="m 146.418,352 127,0 0,-73 -127,0 0,73 z" /></clipPath><clipPath
       id="clipPath5234"
       clipPathUnits="userSpaceOnUse"><path
         id="path5236"
         d="m 146,279 128,0 0,73 -128,0 0,-73 z" /></clipPath><clipPath
       id="clipPath5244"
       clipPathUnits="userSpaceOnUse"><path
         id="path5246"
         d="m 146.418,352 127,0 0,-73 -127,0 0,73 z" /></clipPath><clipPath
       id="clipPath5254"
       clipPathUnits="userSpaceOnUse"><path
         id="path5256"
         d="m 146,279 128,0 0,73 -128,0 0,-73 z" /></clipPath><clipPath
       id="clipPath5264"
       clipPathUnits="userSpaceOnUse"><path
         id="path5266"
         d="m 146.418,352 127,0 0,-73 -127,0 0,73 z" /></clipPath><clipPath
       id="clipPath5274"
       clipPathUnits="userSpaceOnUse"><path
         id="path5276"
         d="m 146,279 127,0 0,73 -127,0 0,-73 z" /></clipPath></defs><g
     transform="matrix(1.25,0,0,-1.25,0,630.72315)"
     id="g5066"><g
       id="g5068"><path
         id="path5070"
         style="fill:#ffffff;fill-opacity:1;fill-rule:evenodd;stroke:none"
         d="m 23.035,0.399 291.195,0 c 22.301,0 22.192,18.187 22.192,18.187 l 0,467.641 c 0,0 0.144,17.949 -19.176,17.949 l -297.039,0 c 0,0 -19.766,0.328 -19.809,-19.742 l 0,-464.051 C 0.398,0.352 23.035,0.399 23.035,0.399 Z" /><path
         id="path5072"
         style="fill:#154889;fill-opacity:1;fill-rule:evenodd;stroke:none"
         d="m 19.648,9.305 297.622,0 c 0,0 10.828,0.027 10.828,10.953 l 0,464.926 c 0,0 -0.008,10.73 -11.981,10.73 l -295.312,0 c 0,0 -11.895,0 -11.895,-10.726 l 0,-465.613 C 8.949,9.196 19.648,9.305 19.648,9.305 Z" /><path
         id="path5074"
         style="fill:#000000;fill-opacity:1;fill-rule:evenodd;stroke:none"
         d="m 20.207,504.579 c -0.008,0 -5.023,0.085 -10.062,-2.387 C 5.098,499.715 0.02,494.602 0,484.438 L 0,20.383 C 0,10.219 5.805,5.047 11.555,2.512 17.305,-0.019 23.035,0 23.035,0 L 314.23,0 c 11.258,0 16.977,4.637 19.801,9.286 2.821,4.648 2.789,9.296 2.789,9.296 l 0,467.645 c 0,0.004 0.039,4.578 -2.39,9.164 -2.43,4.586 -7.399,9.188 -17.184,9.188 l -297.039,0 z m 0,-0.403 297.039,0 c 19.32,0 19.176,-17.949 19.176,-17.949 l 0,-467.645 c 0,0 0.109,-18.183 -22.192,-18.183 l -291.195,0 c 0,0 -22.637,-0.047 -22.637,19.98 l 0,464.055 c 0.043,20.07 19.809,19.742 19.809,19.742 z" /><path
         id="path5076"
         style="fill:#ffffff;fill-opacity:1;fill-rule:nonzero;stroke:none"
         d="m 91.652,377.547 42.77,0 c 16.039,0 29.789,12.985 29.789,29.785 0,16.039 -13.75,29.024 -29.789,29.024 l -42.77,0 0,-58.809 z m -27.496,-98.523 0,183.301 71.793,0 c 30.551,0 55.754,-24.442 55.754,-54.993 0,-31.312 -25.203,-55.753 -55.754,-55.753 l -44.297,0 0,-72.555" /><path
         id="path5078"
         style="fill:#ffffff;fill-opacity:1;fill-rule:nonzero;stroke:none"
         d="m 181.188,159.434 c -0.157,0.004 -0.313,0 -0.473,-0.008 L 88.797,152.18 c -1.09,-0.078 -2.117,-0.531 -2.902,-1.277 L 44.016,111.629 c -1.067,-1 -1.621,-2.422 -1.493,-3.875 l 2.442,-31.156 c 0.215,-2.644 2.519,-4.609 5.156,-4.406 l 9.563,0.762 c -1.039,13.195 8.812,24.734 22.023,25.773 13.195,1.035 24.731,-8.816 25.77,-22.016 l 121.855,9.59 c -1.039,13.207 8.828,24.746 22.023,25.781 13.196,1.039 24.735,-8.812 25.774,-22.007 l 11.957,0.937 c 2.633,0.203 4.609,2.52 4.391,5.164 l -1.747,22.227 c -0.191,2.332 -2.027,4.195 -4.371,4.398 l -68.578,5.965 -34.57,29.52 c -0.856,0.718 -1.922,1.121 -3.023,1.148 z m 0.761,-9.555 c 1.102,-0.023 2.168,-0.425 3.008,-1.156 l 25.027,-21.367 c 0.477,-0.418 0.782,-0.996 0.832,-1.633 0.102,-1.316 -0.882,-2.469 -2.203,-2.57 l -65.918,-5.207 -2.265,28.675 41.047,3.243 c 0.156,0.011 0.312,0.019 0.472,0.015 z m -48.687,-3.816 2.265,-28.672 -52.976,-4.176 c -1.278,-0.094 -2.531,0.301 -3.492,1.137 -2.012,1.711 -2.254,4.75 -0.532,6.75 l 17.602,20.629 c 0.824,0.965 2,1.574 3.281,1.66 l 33.852,2.672 z m 120.437,-38.699 c -0.648,0.015 -1.304,0 -1.961,-0.055 -10.562,-0.832 -18.453,-10.066 -17.617,-20.629 0.766,-9.68 8.574,-17.098 18.004,-17.629 l -93.422,0 0,-13.398 -74.594,0 c 0.321,0.011 0.641,0.023 0.965,0.051 10.563,0.835 18.449,10.066 17.629,20.632 C 101.867,86.895 92.633,94.774 82.074,93.95 71.508,93.114 63.621,83.879 64.457,73.332 c 0.781,-9.878 8.91,-17.418 18.59,-17.679 l -37.817,0 0,-13.399 249.274,0 0,26.797 -40.227,0 c 0.153,0.012 0.305,0.012 0.461,0.028 10.563,0.832 18.453,10.054 17.614,20.617 -0.782,9.902 -8.946,17.445 -18.653,17.668 z" /></g><g
       id="g5080"><g
         clip-path="url(#clipPath5084)"
         id="g5082"><g
           transform="translate(0,-0.421478)"
           id="g5088"><g
             id="g5090"><g
               clip-path="url(#clipPath5094)"
               id="g5092"><g
                 id="g5098" /><g
                 id="g5100"><g
                   clip-path="url(#clipPath5104)"
                   id="g5102"><g
                     id="g5108"><g
                       id="g5110"><g
                         clip-path="url(#clipPath5114)"
                         id="g5112"><g
                           id="g5118" /><g
                           id="g5120"><g
                             clip-path="url(#clipPath5124)"
                             id="g5122"><g
                               id="g5128"><g
                                 id="g5130"><g
                                   clip-path="url(#clipPath5134)"
                                   id="g5132"><g
                                   id="g5138" /><g
                                   id="g5140"><g
                                   clip-path="url(#clipPath5144)"
                                   id="g5142"><g
                                   id="g5148"><g
                                   id="g5150"><g
                                   clip-path="url(#clipPath5154)"
                                   id="g5152"><g
                                   id="g5158" /><g
                                   id="g5160"><g
                                   clip-path="url(#clipPath5164)"
                                   id="g5162"><g
                                   id="g5168"><g
                                   id="g5170"><g
                                   clip-path="url(#clipPath5174)"
                                   id="g5172"><g
                                   id="g5178" /><g
                                   id="g5180"><g
                                   clip-path="url(#clipPath5184)"
                                   id="g5182"><g
                                   id="g5188"><g
                                   id="g5190"><g
                                   clip-path="url(#clipPath5194)"
                                   id="g5192"><g
                                   id="g5198" /><g
                                   id="g5200"><g
                                   clip-path="url(#clipPath5204)"
                                   id="g5202"><g
                                   id="g5208"><g
                                   id="g5210"><g
                                   clip-path="url(#clipPath5214)"
                                   id="g5212"><g
                                   id="g5218" /><g
                                   id="g5220"><g
                                   clip-path="url(#clipPath5224)"
                                   id="g5222"><g
                                   id="g5228"><g
                                   id="g5230"><g
                                   clip-path="url(#clipPath5234)"
                                   id="g5232"><g
                                   id="g5238" /><g
                                   id="g5240"><g
                                   clip-path="url(#clipPath5244)"
                                   id="g5242"><g
                                   id="g5248"><g
                                   id="g5250"><g
                                   clip-path="url(#clipPath5254)"
                                   id="g5252"><g
                                   id="g5258" /><g
                                   id="g5260"><g
                                   clip-path="url(#clipPath5264)"
                                   id="g5262"><g
                                   id="g5268"><g
                                   id="g5270"><g
                                   clip-path="url(#clipPath5274)"
                                   id="g5272"><g
                                   id="g5278"><path
                                   id="path5280"
                                   style="fill:#ffffff;fill-opacity:1;fill-rule:nonzero;stroke:none"
                                   d="m 272.641,315.57 -35.957,35.946 -19.965,0 27.961,-27.957 -97.903,0 0,-15.973 97.903,0 -27.961,-27.957 19.965,0" /></g></g></g></g></g></g></g></g></g></g></g></g></g></g></g></g></g></g></g></g></g></g></g></g></g></g></g></g></g></g></g></g></g></g></g></g></g></g></g></g></g></g></g></g></g></g></g></g></g></g></g></g></svg>