<?xml version="1.0" encoding="UTF-8" standalone="no"?>
<svg
   xmlns:dc="http://purl.org/dc/elements/1.1/"
   xmlns:cc="http://creativecommons.org/ns#"
   xmlns:rdf="http://www.w3.org/1999/02/22-rdf-syntax-ns#"
   xmlns:svg="http://www.w3.org/2000/svg"
   xmlns="http://www.w3.org/2000/svg"
   viewBox="0 0 601.00012 601.00031"
   height="601.00031"
   width="601.00012"
   xml:space="preserve"
   version="1.1"
   id="svg6331"><metadata
     id="metadata6337"><rdf:RDF><cc:Work
         rdf:about=""><dc:format>image/svg+xml</dc:format><dc:type
           rdf:resource="http://purl.org/dc/dcmitype/StillImage" /><dc:title></dc:title></cc:Work></rdf:RDF></metadata><defs
     id="defs6335" /><g
     transform="matrix(1.25,0,0,-1.25,0,601.00029)"
     id="g6339"><g
       id="g6341"><path
         id="path6343"
         style="fill:#ffffff;fill-opacity:1;fill-rule:nonzero;stroke:none"
         d="M 29.199,480.402 C 0.336,480.417 0.398,451.597 0.398,451.597 l 0,-422.398 c 0,0 -0.062,-28.825 28.801,-28.797 l 422.403,0 c 29.05,-0.031 28.796,28.797 28.796,28.797 l 0,422.398 c 0,0 0.239,28.899 -28.796,28.805 l -422.403,0 z" /><path
         id="path6345"
         style="fill:#154889;fill-opacity:1;fill-rule:nonzero;stroke:none"
         d="M 29.199,470.8 C 18.598,470.8 10,462.203 10,451.601 L 10,29.199 c 0,-10.61 8.598,-19.2 19.199,-19.2 l 422.403,0 c 10.601,0 19.199,8.59 19.199,19.2 l 0,422.402 c 0,10.602 -8.598,19.199 -19.199,19.199 l -422.403,0 z m 48.801,-68 324.801,0 0,-324.801 -324.801,0 0,324.801 z" /><path
         id="path6347"
         style="fill:#000000;fill-opacity:1;fill-rule:nonzero;stroke:none"
         d="M 29.199,480.8 C 14.633,480.808 7.258,473.484 3.617,466.183 -0.023,458.882 0,451.593 0,451.593 L 0,29.199 c 0,0 -0.02,-7.289 3.617,-14.586 C 7.258,7.312 14.633,-0.012 29.199,-0.001 l 422.403,0 c 14.656,-0.015 22.035,7.313 25.652,14.614 3.613,7.297 3.547,14.582 3.547,14.586 l 0,422.398 c 0,0.004 0.062,7.309 -3.555,14.613 -3.617,7.309 -10.996,14.637 -25.644,14.59 l -422.403,0 z m 0,-0.398 422.403,0 c 29.035,0.094 28.796,-28.805 28.796,-28.805 l 0,-422.398 c 0,0 0.254,-28.828 -28.796,-28.797 l -422.403,0 C 0.336,0.374 0.398,29.199 0.398,29.199 l 0,422.398 c 0,0 -0.062,28.82 28.801,28.805 z" /><path
         id="path6349"
         style="fill:#000000;fill-opacity:1;fill-rule:evenodd;stroke:none"
         d="m 106.84,309.988 267.195,0 c 0,13.996 -8.773,26.402 -22.355,29.211 l -222.485,0 C 115.086,336.57 106.84,323.949 106.84,309.988 Z" /><path
         id="path6351"
         style="fill:#000000;fill-opacity:1;fill-rule:evenodd;stroke:none"
         d="m 203.297,249.273 16.941,0 0,16.465 17.012,-0.09 0.031,-16.375 16.918,0 0,-17.738 -16.918,0 -0.051,-16.321 -17.015,0.078 0.023,16.243 -16.941,0 0,17.738 z" /><path
         id="path6353"
         style="fill:#000000;fill-opacity:1;fill-rule:evenodd;stroke:none"
         d="m 106.762,170.808 267.199,0 c 0,-13.996 -8.773,-26.394 -22.356,-29.207 l -222.484,0 c -14.113,2.629 -22.359,15.246 -22.359,29.207 z" /><path
         id="path6355"
         style="fill:#000000;fill-opacity:1;fill-rule:nonzero;stroke:none"
         d="m 125.574,284.66 0,-39.84 27.805,0 c 6.953,0 12.121,2.09 15.516,6.269 3.445,4.184 5.168,8.735 5.168,13.649 0,7.461 -2.684,12.945 -8.051,16.449 -3.449,2.316 -7.887,3.473 -13.313,3.473 l -27.125,0 z m -18.734,-105.797 0,123.515 44.844,0 c 4.804,0 9.41,-0.507 13.816,-1.523 4.465,-1.02 9.102,-3.395 13.906,-7.121 3.727,-2.883 6.895,-6.867 9.492,-11.953 2.602,-5.032 3.899,-10.883 3.899,-17.551 0,-8.816 -3.305,-17.207 -9.918,-25.176 -6.555,-7.969 -16.164,-11.953 -28.82,-11.953 l -28.485,0 0,-48.238 -18.734,0 z" /><path
         id="path6357"
         style="fill:#000000;fill-opacity:1;fill-rule:nonzero;stroke:none"
         d="m 268.492,178.863 0,123.515 17.719,0 35.437,-80.535 34.672,80.535 17.715,0 0,-123.515 -18.734,0 0,77.058 -0.34,0 -25.856,-59.425 -15.597,0 -25.856,59.425 -0.422,0 0,-77.058 -18.738,0 z" /></g></g></svg>