<?xml version="1.0" encoding="UTF-8" standalone="no"?>
<svg
   xmlns:dc="http://purl.org/dc/elements/1.1/"
   xmlns:cc="http://creativecommons.org/ns#"
   xmlns:rdf="http://www.w3.org/1999/02/22-rdf-syntax-ns#"
   xmlns:svg="http://www.w3.org/2000/svg"
   xmlns="http://www.w3.org/2000/svg"
   viewBox="0 0 421.02548 630.72314"
   height="630.72314"
   width="421.02548"
   xml:space="preserve"
   version="1.1"
   id="svg3535"><metadata
     id="metadata3541"><rdf:RDF><cc:Work
         rdf:about=""><dc:format>image/svg+xml</dc:format><dc:type
           rdf:resource="http://purl.org/dc/dcmitype/StillImage" /><dc:title></dc:title></cc:Work></rdf:RDF></metadata><defs
     id="defs3539" /><g
     transform="matrix(1.25,0,0,-1.25,0,630.72315)"
     id="g3543"><g
       id="g3545"><path
         id="path3547"
         style="fill:#ffffff;fill-opacity:1;fill-rule:evenodd;stroke:none"
         d="m 23.035,0.399 291.195,0 c 22.301,0 22.192,18.187 22.192,18.187 l 0,467.641 c 0,0 0.144,17.949 -19.176,17.949 l -297.039,0 c 0,0 -19.766,0.328 -19.809,-19.742 l 0,-464.051 C 0.398,0.352 23.035,0.399 23.035,0.399 Z" /><path
         id="path3549"
         style="fill:#154889;fill-opacity:1;fill-rule:evenodd;stroke:none"
         d="m 19.648,9.305 297.622,0 c 0,0 10.828,0.027 10.828,10.953 l 0,464.926 c 0,0 -0.008,10.73 -11.981,10.73 l -295.312,0 c 0,0 -11.895,0 -11.895,-10.726 l 0,-465.613 C 8.949,9.196 19.648,9.305 19.648,9.305 Z" /><path
         id="path3551"
         style="fill:#000000;fill-opacity:1;fill-rule:evenodd;stroke:none"
         d="m 20.207,504.579 c -0.008,0 -5.023,0.085 -10.062,-2.387 C 5.098,499.715 0.02,494.602 0,484.438 L 0,20.383 C 0,10.219 5.805,5.047 11.555,2.512 17.305,-0.019 23.035,0 23.035,0 L 314.23,0 c 11.258,0 16.977,4.637 19.801,9.286 2.821,4.648 2.789,9.296 2.789,9.296 l 0,467.645 c 0,0.004 0.039,4.578 -2.39,9.164 -2.43,4.586 -7.399,9.188 -17.184,9.188 l -297.039,0 z m 0,-0.403 297.039,0 c 19.32,0 19.176,-17.949 19.176,-17.949 l 0,-467.645 c 0,0 0.109,-18.183 -22.192,-18.183 l -291.195,0 c 0,0 -22.637,-0.047 -22.637,19.98 l 0,464.055 c 0.043,20.07 19.809,19.742 19.809,19.742 z" /><path
         id="path3553"
         style="fill:#ffffff;fill-opacity:1;fill-rule:nonzero;stroke:none"
         d="m 67.469,269.196 201.883,0 0,-201.898 -201.883,0 0,201.898 z" /><path
         id="path3555"
         style="fill:#000000;fill-opacity:1;fill-rule:nonzero;stroke:none"
         d="m 215.652,238.911 c 0,-7.43 -6.027,-13.457 -13.453,-13.457 -7.441,0 -13.457,6.027 -13.457,13.457 0,7.453 6.016,13.468 13.457,13.468 7.426,0 13.453,-6.015 13.453,-13.468 z m -68.984,0 c 0,-7.43 -6.031,-13.457 -13.457,-13.457 -7.441,0 -13.457,6.027 -13.457,13.457 0,7.453 6.016,13.468 13.457,13.468 7.426,0 13.457,-6.015 13.457,-13.468 z m 47.109,-79.059 26.926,0 0,28.742 17.973,-28.742 c 5.508,3.43 7.183,10.707 3.738,16.215 l -23.758,38.015 c -3.945,6.309 -12.25,8.231 -18.543,4.274 -3.945,-2.442 -6.336,-6.766 -6.336,-11.406 l 0,-21.789 -16.828,-16.829 c 4.606,-4.589 12.071,-4.589 16.664,0 l 0.164,0.18 0,-8.66 z M 139.938,149.688 127.652,127.063 149.223,87.34 143.309,84.133 123.824,120 108.168,91.168 C 104.617,84.645 96.441,82.215 89.914,85.762 l 26.254,48.344 -22.766,41.746 c -3.246,-0.289 -6.121,2.062 -6.437,5.301 -0.192,2.039 0.687,4.035 2.316,5.265 l 40.52,30.59 c 6.258,4.719 14.945,4.504 20.949,-0.531 l 19.23,-16.141 c 2.29,-1.91 3.614,-4.746 3.614,-7.722 l 0,-14.27 c 0,-6.5 -5.278,-11.765 -11.778,-11.765 l 0,25.246 -8.406,7.058 0,-39.031 -26.926,0 0,39.898 -27.156,-20.515 20.668,-38.067 5.672,10.442 c 0.535,0.992 0.812,2.086 0.812,3.215 l 0,1.64 26.926,0 0,-1.64 c 0,-1.133 0.27,-2.223 0.817,-3.215 l 19.371,-35.692 19.371,35.692 c 0.531,0.992 0.812,2.086 0.812,3.215 l 0,1.64 26.926,0 0,-1.64 c 0,-1.133 0.266,-2.223 0.813,-3.215 l 26.722,-49.235 c 3.547,-6.527 1.133,-14.703 -5.406,-18.238 l -35.598,65.551 -25.984,-47.887 c 3.102,-6.461 0.598,-14.246 -5.711,-17.664 l -2.226,4.106 c -4.2,-4.348 -10.786,-5.368 -16.102,-2.481 l 8.723,16.051" /><path
         id="path3557"
         style="fill:#ffffff;fill-opacity:1;fill-rule:nonzero;stroke:none"
         d="m 95.246,389.309 42.492,0 c 16.254,0 29.418,13.164 29.418,29.422 0,16.242 -13.164,29.418 -29.418,29.418 l -42.492,0 0,-58.84 z m -27.777,-98.059 0,183.047 71.91,0 c 30.68,0 55.57,-24.879 55.57,-55.566 0,-30.692 -24.89,-55.57 -55.57,-55.57 l -44.133,0 0,-71.911" /></g></g></svg>