<?xml version="1.0" encoding="UTF-8" standalone="no"?>
<svg
   xmlns:dc="http://purl.org/dc/elements/1.1/"
   xmlns:cc="http://creativecommons.org/ns#"
   xmlns:rdf="http://www.w3.org/1999/02/22-rdf-syntax-ns#"
   xmlns:svg="http://www.w3.org/2000/svg"
   xmlns="http://www.w3.org/2000/svg"
   viewBox="0 0 800 1090.91"
   height="1090.91"
   width="800"
   xml:space="preserve"
   version="1.1"
   id="svg3440"><metadata
     id="metadata3446"><rdf:RDF><cc:Work
         rdf:about=""><dc:format>image/svg+xml</dc:format><dc:type
           rdf:resource="http://purl.org/dc/dcmitype/StillImage" /><dc:title></dc:title></cc:Work></rdf:RDF></metadata><defs
     id="defs3444" /><g
     transform="matrix(1.25,0,0,-1.25,0,1090.91)"
     id="g3448"><g
       id="g3450"><path
         id="path3452"
         style="fill:#154889;fill-opacity:1;fill-rule:nonzero;stroke:none"
         d="m 0,872.728 640,0 0,-872.727 -640,0 0,872.727 z" /><path
         id="path3454"
         style="fill:#ffffff;fill-opacity:1;fill-rule:nonzero;stroke:none"
         d="m 219.152,58.185 c -8.57,0 -15.515,6.945 -15.515,15.516 l 0,201.695 c 0,8.57 6.945,15.516 15.515,15.516 l 201.696,0 c 8.57,0 15.515,-6.946 15.515,-15.516 l 0,-201.695 c 0,-8.571 -6.945,-15.516 -15.515,-15.516 l -201.696,0 z m 0,5.816 201.696,0 c 5.355,0 9.695,4.344 9.695,9.7 l 0,201.695 c 0,5.355 -4.34,9.695 -9.695,9.695 l -201.696,0 c -5.355,0 -9.695,-4.343 -9.695,-9.695 l 0,-201.695 c 0,-5.356 4.34,-9.7 9.695,-9.7 z m 44.606,29.09 0,162.91 64,0 c 27.312,0 49.453,-22.14 49.453,-49.453 0,-27.312 -22.141,-49.453 -49.453,-49.453 l -39.274,0 0,-64 -24.726,0 0,-0.004 z m 24.726,87.274 37.825,0 c 14.457,0 26.183,11.718 26.183,26.179 0,14.457 -11.726,26.184 -26.183,26.184 l -37.825,0 0,-52.359 m 31.52,314.183 -50.664,189.094 101.336,0 -50.664,-189.094 m -142.473,261.817 10.652,29.086 3.633,0 10.653,-29.086 -4.676,0 -2.192,6.492 -11.207,0 -2.187,-6.492 -4.676,0 z m 8.18,10.386 8.578,0 -4.289,12.731 -4.289,-12.731 z m 20.91,-10.386 0,29.086 4.156,0 13.246,-20.778 0,20.778 4.414,0 0,-29.086 -4.156,0 -13.242,20.777 0,-20.777 -4.418,0 z m 28.57,0 0,29.086 4.418,0 0,-15.063 12.203,15.063 5.2,0 -9.352,-11.43 10.387,-17.664 -5.196,0 -8.047,14.289 -5.195,-5.457 0,-8.832 -4.418,0 0,0.008 z m 25.453,29.086 4.418,0 0,-18.961 c 0,-3.301 2.676,-5.973 5.973,-5.973 3.301,0 5.977,2.672 5.977,5.973 l 0,18.961 4.41,0 0,-18.961 c 0,-5.739 -4.649,-10.387 -10.387,-10.387 -5.738,0 -10.391,4.648 -10.391,10.387 l 0,18.961 z m 27.016,-29.086 0,29.086 4.156,0 13.246,-20.778 0,20.778 4.414,0 0,-29.086 -4.152,0 -13.246,20.777 0,-20.777 -4.418,0 z m 28.57,0 0,29.086 18.703,0 0,-4.157 -14.285,0 0,-8.57 12.207,0 0,-3.895 -12.207,0 0,-12.468 -4.418,0 0,0.004 z m 29.352,0 0,25.195 -8.059,0 0,3.894 20.528,0 0,-3.894 -8.059,0 0,-25.195 -4.414,0 0.004,0 z m 14.027,3.742 2.852,3.371 c 2.25,-1.906 5.105,-2.953 8.054,-2.953 1.02,0 2.036,0.121 3.024,0.371 1.734,0.433 2.949,1.992 2.949,3.781 0,1.953 -1.449,3.606 -3.383,3.863 l -4.718,0.622 c -4.137,0.55 -7.227,4.074 -7.227,8.242 0,4.207 3.141,7.746 7.312,8.25 0.68,0.082 1.36,0.125 2.043,0.125 3.43,0 6.782,-1.043 9.606,-2.992 l -2.504,-3.633 c -2.09,1.437 -4.57,2.211 -7.105,2.211 -0.504,0 -1.008,-0.032 -1.512,-0.094 -1.953,-0.238 -3.426,-1.895 -3.426,-3.867 0,-1.953 1.449,-3.606 3.387,-3.864 l 4.719,-0.625 c 4.132,-0.546 7.218,-4.07 7.218,-8.238 0,-3.816 -2.597,-7.14 -6.297,-8.062 -1.339,-0.34 -2.714,-0.508 -4.093,-0.508 -3.996,0 -7.864,1.418 -10.911,4 l 0.012,0 z m 24.934,-3.742 0,3.632 13.25,21.563 -12.731,0 0,3.894 18.184,0 0,-3.375 -13.246,-21.562 13.246,0 0,-4.152 -18.703,0 z m 24.418,0 0,29.086 18.699,0 0,-4.157 -14.285,0 0,-8.308 12.207,0 0,-3.899 -12.207,0 0,-8.57 14.285,0 0,-4.156 -18.699,0 0,0.004 z m 24.414,0 0,29.086 4.414,0 0,-29.086 -4.414,0 z m 16.625,0 0,25.195 -8.047,0 0,3.894 20.519,0 0,-3.894 -8.05,0 0,-25.195 -4.414,0 M 230.871,507.033 119.473,413.537 c 49.742,-59.289 123.14,-93.547 200.535,-93.547 77.39,0 150.84,34.261 200.582,93.547 l -111.453,93.496 c -22.114,-26.352 -54.739,-41.567 -89.129,-41.567 -34.399,0 -67.024,15.219 -89.129,41.567 l -0.008,0 z" /><path
         id="path3456"
         style="fill:#231f20;fill-opacity:1;fill-rule:evenodd;stroke:none"
         d="m 256.391,477.455 5.035,-2.907 -8.727,-15.113 -5.035,2.906 8.727,15.114 z m -48.246,-59.481 8.636,-4.984 -1.558,-2.699 c -0.438,-0.758 -0.664,-1.618 -0.664,-2.497 0,-2.753 2.23,-4.984 4.984,-4.984 1.781,0 3.426,0.953 4.316,2.492 l 8.418,14.578 c 0.434,0.754 0.668,1.618 0.668,2.493 0,2.757 -2.234,4.988 -4.988,4.988 -1.352,0 -2.645,-0.551 -3.582,-1.52 l -7.672,4.469 18.703,32.391 24.832,-14.336 -4.676,-8.102 -17.277,9.977 -9.394,-16.274 c 0.882,0.207 1.789,0.313 2.699,0.313 6.539,0 11.844,-5.305 11.844,-11.844 0,-2.082 -0.547,-4.121 -1.59,-5.922 l -9.348,-16.195 c -2.672,-4.629 -7.613,-7.481 -12.957,-7.481 -8.262,0 -14.961,6.7 -14.961,14.961 0,2.625 0.692,5.207 2.004,7.481 l 1.559,2.695 0.004,0 z m -15.418,-31.644 1.765,3.058 4.125,0.5 2.883,-1.668 -11.637,-20.152 -2.879,1.664 9.871,17.094 -4.125,-0.496 -0.003,0 z m 2.894,-21.59 16.817,13.332 -5.399,3.113 -1.664,-2.879 -2.879,1.664 3.324,5.758 11.52,-6.648 -1.563,-2.7 -16.91,-13.507 -3.238,1.871 -0.008,-0.004 z m 121.473,94.89 5.816,0 0,-17.453 -5.816,0 0,17.453 z m 2.918,-23.273 11.222,0 -11.504,-29.422 c 1.282,0.492 2.649,0.75 4.024,0.75 6.195,0 11.223,-5.027 11.223,-11.227 l 0,-15.582 c 0,-8.265 -6.7,-14.964 -14.961,-14.964 -8.266,0 -14.961,6.699 -14.961,14.964 l 0,13.09 c 0,1.805 0.324,3.59 0.961,5.278 l 14,37.113 -0.004,0 z m -4.989,-55.481 c 0,-2.753 2.235,-4.988 4.989,-4.988 2.754,0 4.988,2.235 4.988,4.988 l 0,13.094 c 0,2.754 -2.234,4.985 -4.988,4.985 -2.754,0 -4.989,-2.231 -4.989,-4.985 l 0,-13.094 z m -7.91,-32 0,3.532 3.325,2.496 3.324,0 0,-23.27 -3.324,0 0,19.739 -3.325,-2.497 z m 14.344,-5.14 c -1.445,1.144 -2.293,2.883 -2.293,4.726 0,3.672 2.981,6.653 6.652,6.653 3.672,0 6.649,-2.981 6.649,-6.653 0,-1.843 -0.844,-3.582 -2.289,-4.726 1.695,-1.207 2.703,-3.164 2.703,-5.246 0,-3.899 -3.16,-7.067 -7.063,-7.067 -3.902,0 -7.062,3.168 -7.062,7.067 0,2.082 1.008,4.043 2.703,5.246 z m 0.621,-5.246 c 0,2.066 1.676,3.742 3.738,3.742 2.071,0 3.743,-1.676 3.743,-3.742 0,-2.067 -1.672,-3.742 -3.743,-3.742 -2.062,0 -3.738,1.675 -3.738,3.742 z m 0.414,9.972 c 0,1.836 1.488,3.329 3.324,3.329 1.836,0 3.325,-1.493 3.325,-3.329 0,-1.832 -1.489,-3.324 -3.325,-3.324 -1.836,0 -3.324,1.492 -3.324,3.324 z m 56.078,126.082 5.039,2.907 8.727,-15.114 -5.039,-2.91 -8.727,15.117 z m 9.934,-41.293 -8.731,15.118 25.915,14.961 4.679,-8.098 15.656,-60.781 -9.179,-5.301 -15.117,61.098 -9.719,-5.61 4.054,-7.019 -7.558,-4.364 0,-0.004 z m 37.152,-59.41 -1.765,3.059 1.632,3.824 2.879,1.66 11.633,-20.152 -2.879,-1.66 -9.871,17.094 -1.629,-3.821 0,-0.004 z m 24.098,-6 -3.242,-1.871 -0.68,11.113 c -1.023,-1.324 -2.602,-2.105 -4.281,-2.105 -1.93,0 -3.715,1.027 -4.68,2.703 l -0.933,1.617 c -0.583,1.012 -0.891,2.16 -0.891,3.325 0,3.675 2.976,6.652 6.652,6.652 2.371,0 4.567,-1.27 5.758,-3.324 l 0.516,-0.899 c 0.515,-0.89 0.816,-1.883 0.879,-2.91 l 0.902,-14.301 z m -10.938,13.121 0.52,-0.898 c 0.594,-1.031 1.691,-1.664 2.883,-1.664 1.832,0 3.324,1.492 3.324,3.324 0,0.586 -0.156,1.16 -0.445,1.664 l -0.524,0.899 c -0.594,1.031 -1.687,1.664 -2.875,1.664 -1.84,0 -3.328,-1.489 -3.328,-3.328 0,-0.582 0.156,-1.157 0.445,-1.661 z m -88.601,82.457 2.808,0.75 4.52,-16.855 -2.809,-0.754 -4.519,16.863 0,-0.004 z m 55.148,30.969 2.059,2.059 12.34,-12.344 -2.055,-2.055 -12.344,12.34 z m -172.793,2.059 2.059,-2.059 -12.344,-12.34 -2.055,2.055 12.34,12.344 z m 54.399,-32.274 2.808,-0.75 -4.515,-16.867 -2.813,0.754 4.52,16.856" /></g></g></svg>