<?xml version="1.0" encoding="UTF-8" standalone="no"?>
<!-- Created with Inkscape (http://www.inkscape.org/) -->

<svg
   xmlns:dc="http://purl.org/dc/elements/1.1/"
   xmlns:cc="http://creativecommons.org/ns#"
   xmlns:rdf="http://www.w3.org/1999/02/22-rdf-syntax-ns#"
   xmlns:svg="http://www.w3.org/2000/svg"
   xmlns="http://www.w3.org/2000/svg"
   xmlns:sodipodi="http://sodipodi.sourceforge.net/DTD/sodipodi-0.dtd"
   xmlns:inkscape="http://www.inkscape.org/namespaces/inkscape"
   width="111.39621mm"
   height="166.8791mm"
   viewBox="0 0 111.39621 166.8791"
   version="1.1"
   id="svg2530"
   inkscape:version="0.92.4 (33fec40, 2019-01-16)"
   sodipodi:docname="327-50.svg">
  <defs
     id="defs2524" />
  <sodipodi:namedview
     id="base"
     pagecolor="#ffffff"
     bordercolor="#666666"
     borderopacity="1.0"
     inkscape:pageopacity="0.0"
     inkscape:pageshadow="2"
     inkscape:zoom="0.35"
     inkscape:cx="273.36967"
     inkscape:cy="232.50496"
     inkscape:document-units="mm"
     inkscape:current-layer="layer1"
     showgrid="false"
     fit-margin-top="0"
     fit-margin-left="0"
     fit-margin-right="0"
     fit-margin-bottom="0"
     inkscape:window-width="1366"
     inkscape:window-height="740"
     inkscape:window-x="1920"
     inkscape:window-y="0"
     inkscape:window-maximized="1" />
  <metadata
     id="metadata2527">
    <rdf:RDF>
      <cc:Work
         rdf:about="">
        <dc:format>image/svg+xml</dc:format>
        <dc:type
           rdf:resource="http://purl.org/dc/dcmitype/StillImage" />
        <dc:title></dc:title>
      </cc:Work>
    </rdf:RDF>
  </metadata>
  <g
     inkscape:label="Layer 1"
     inkscape:groupmode="layer"
     id="layer1"
     transform="translate(-33.504275,-43.47116)">
    <path
       d="M 41.122621,210.21831 H 137.4293 c 7.37559,0 7.33954,-6.01497 7.33954,-6.01497 V 49.540818 c 0,0 0.0476,-5.936258 -6.34206,-5.936258 H 40.187319 c 0,0 -6.537192,-0.108479 -6.551414,6.529255 V 203.60902 c 0,6.62483 7.486716,6.60929 7.486716,6.60929 z"
       style="fill:#ffffff;fill-opacity:1;fill-rule:evenodd;stroke:none;stroke-width:0.33072916"
       id="path3955"
       inkscape:connector-curvature="0" />
    <path
       d="m 40.002442,207.27284 h 98.432278 c 0,0 3.58113,-0.009 3.58113,-3.62248 V 49.885768 c 0,0 -0.003,-3.548724 -3.96246,-3.548724 H 40.385095 c 0,0 -3.934023,0 -3.934023,3.547401 V 203.87625 c 0.0129,3.43263 3.55137,3.39659 3.55137,3.39659 z"
       style="fill:#154889;fill-opacity:1;fill-rule:evenodd;stroke:none;stroke-width:0.33072916"
       id="path3957"
       inkscape:connector-curvature="0" />
    <path
       d="m 40.187319,43.471276 c -0.0026,0 -1.661252,-0.02811 -3.327797,0.789451 -1.66919,0.819216 -3.348632,2.510234 -3.355247,5.871765 V 203.60902 c 0,3.36153 1.919883,5.07206 3.821576,5.91046 1.901692,0.83707 3.79677,0.83079 3.79677,0.83079 H 137.4293 c 3.72335,0 5.61479,-1.53359 6.54877,-3.07115 0.93299,-1.53723 0.9224,-3.07446 0.9224,-3.07446 V 49.540818 c 0,-0.0013 0.0129,-1.514078 -0.79044,-3.030802 -0.80367,-1.516724 -2.44706,-3.03874 -5.68325,-3.03874 z m 0,0.133284 h 98.239461 c 6.38969,0 6.34206,5.936258 6.34206,5.936258 V 204.20466 c 0,0 0.036,6.01365 -7.33954,6.01365 H 41.122621 c 0,0 -7.486716,0.0155 -7.486716,-6.60797 V 50.133815 c 0.01422,-6.637734 6.551414,-6.529255 6.551414,-6.529255 z"
       style="fill:#000000;fill-opacity:1;fill-rule:evenodd;stroke:none;stroke-width:0.33072916"
       id="path3959"
       inkscape:connector-curvature="0" />
    <path
       d="M 51.606405,61.328336 V 136.5808 H 126.86019 V 61.328336 Z"
       style="fill:#ffffff;fill-opacity:1;fill-rule:nonzero;stroke:none;stroke-width:0.33072916"
       id="path3961"
       inkscape:connector-curvature="0" />
    <path
       d="m 55.406153,124.56607 v -24.35523 l 5.217914,-12.371254 9.663576,-9.278606 12.566385,-5.22056 h 12.946063 l 12.373899,5.22056 9.66358,9.278606 5.22188,12.371254 v 24.35523 z m 5.604206,-0.96771 h -4.639138 v -9.66623 h 4.639138 z m -4.639138,-10.63129 v -12.06368 l 4.986734,1.84084 c -0.0066,0.0453 -0.01158,0.088 -0.02084,0.13196 -0.0463,0.30725 -0.09029,0.61747 -0.126669,0.92372 -0.0334,0.29568 -0.06582,0.59036 -0.08897,0.88603 -0.02977,0.29203 -0.05027,0.58803 -0.06714,0.88503 -0.01158,0.23515 -0.02447,0.4703 -0.02977,0.70809 -0.0089,0.25169 -0.01422,0.50635 -0.01422,0.75704 v 5.93097 z m 0.194799,-13.010559 4.687094,-11.10787 4.047794,3.357563 c -0.05192,0.08797 -0.108479,0.175617 -0.160404,0.266237 -0.381,0.617471 -0.737526,1.25181 -1.064286,1.900369 -0.315516,0.613503 -0.604904,1.238912 -0.868164,1.877219 -0.268883,0.636654 -0.511638,1.280253 -0.73025,1.937742 -0.179255,0.523214 -0.33569,1.049073 -0.482865,1.583862 -0.155112,0.567197 -0.292034,1.138037 -0.405804,1.713177 -0.02447,0.10187 -0.04134,0.20538 -0.06449,0.30725 z m 5.22982,-11.90625 8.678995,-8.325115 2.574727,4.323953 c -0.084,0.05424 -0.169003,0.116086 -0.254331,0.175618 -0.589029,0.422341 -1.165489,0.866841 -1.718469,1.335815 -0.532143,0.4445 -1.043781,0.905536 -1.53326,1.390054 -0.49874,0.48055 -0.974328,0.97929 -1.430073,1.497542 -0.368432,0.412089 -0.718344,0.835753 -1.060648,1.270992 -0.365787,0.461368 -0.717021,0.932987 -1.04775,1.417506 -0.05689,0.085 -0.116417,0.172971 -0.178594,0.256976 z m 9.488951,-8.857589 11.295393,-4.690731 0.791766,5.062802 c -0.101865,0.02084 -0.201414,0.04002 -0.303609,0.0635 -0.710407,0.15875 -1.411883,0.342304 -2.10443,0.55794 -0.661458,0.200422 -1.313987,0.427633 -1.955932,0.679648 -0.643269,0.245401 -1.277607,0.519245 -1.90037,0.820209 -0.500063,0.233825 -0.990865,0.485841 -1.476706,0.752078 -0.514284,0.282773 -1.019307,0.581422 -1.516724,0.897929 -0.08797,0.05424 -0.175617,0.11344 -0.263591,0.169003 z m 12.242271,-4.884539 h 11.408833 l -0.794411,5.069417 c -0.0506,-0.0089 -0.0969,-0.01554 -0.147505,-0.02315 -0.342305,-0.06218 -0.680641,-0.111125 -1.025591,-0.159081 -0.324446,-0.04266 -0.652529,-0.08136 -0.979289,-0.113771 -0.326761,-0.02844 -0.655175,-0.05788 -0.981935,-0.07871 -0.262269,-0.01422 -0.529498,-0.02844 -0.785482,-0.03737 -0.284097,-0.0093 -0.564555,-0.01554 -0.84369,-0.01819 h -0.294349 c -0.09955,0.004 -0.197776,0.004 -0.29468,0.004 -0.24937,0.005 -0.497417,0.01158 -0.742818,0.0205 -0.32676,0.01422 -0.657489,0.03374 -0.985573,0.06085 -0.327091,0.02315 -0.653851,0.05292 -0.981934,0.09029 -0.260946,0.02977 -0.523214,0.06086 -0.784159,0.09955 -0.277813,0.03737 -0.551657,0.08268 -0.826823,0.131961 -0.04928,0.0076 -0.09955,0.01422 -0.146183,0.02315 z m 38.564678,49.290227 h -4.63914 v -9.66623 h 4.63914 z m 0,-10.63129 h -4.63914 v -5.93097 c 0,-0.31287 -0.009,-0.62276 -0.0205,-0.93299 -0.0119,-0.29699 -0.0258,-0.59266 -0.0493,-0.8847 -0.0205,-0.29865 -0.044,-0.59432 -0.0761,-0.88635 -0.0208,-0.23647 -0.0493,-0.4703 -0.079,-0.70809 -0.0321,-0.25169 -0.0645,-0.49841 -0.10583,-0.74778 -0.005,-0.044 -0.0116,-0.0866 -0.0205,-0.13196 l 4.99038,-1.84084 z m -4.87925,-24.118429 4.68312,11.10787 -4.96093,1.835549 c -0.0195,-0.10187 -0.04,-0.20538 -0.0609,-0.30725 -0.14585,-0.70809 -0.31915,-1.41486 -0.52321,-2.109721 -0.18587,-0.66675 -0.40316,-1.321594 -0.64327,-1.970153 -0.23382,-0.647237 -0.49609,-1.286868 -0.78548,-1.912277 -0.22887,-0.506346 -0.47162,-0.999794 -0.72727,-1.488281 -0.27649,-0.520568 -0.56588,-1.034521 -0.87214,-1.531937 -0.0556,-0.09062 -0.10848,-0.178263 -0.16404,-0.266237 z m -9.22437,-9.123495 8.67503,8.325115 -4.0306,3.343341 c -0.0582,-0.08401 -0.11641,-0.171979 -0.17562,-0.256976 -0.41208,-0.595644 -0.84369,-1.177066 -1.30373,-1.74162 -0.43524,-0.541404 -0.89131,-1.058003 -1.36161,-1.558065 -0.47427,-0.506347 -0.96507,-0.990865 -1.47406,-1.45587 -0.40581,-0.373393 -0.82418,-0.732565 -1.25313,-1.08413 -0.45608,-0.374386 -0.91844,-0.731243 -1.398,-1.072224 -0.0837,-0.05953 -0.17165,-0.121378 -0.25697,-0.175618 z m -12.105347,-5.223205 11.295397,4.690731 -2.56977,4.312378 c -0.0876,-0.05556 -0.17297,-0.112117 -0.26359,-0.169003 -0.61086,-0.39026 -1.23891,-0.756047 -1.87953,-1.094382 -0.61119,-0.324115 -1.23395,-0.625409 -1.86432,-0.902891 -0.631697,-0.277813 -1.271328,-0.53512 -1.919887,-0.762331 -0.523214,-0.187523 -1.046428,-0.35388 -1.578571,-0.508992 -0.564554,-0.164042 -1.13837,-0.312539 -1.707885,-0.439208 -0.102196,-0.02348 -0.205383,-0.04266 -0.30361,-0.0635 l 0.791766,-5.062802"
       style="fill:#0c0b09;fill-opacity:1;fill-rule:evenodd;stroke:none;stroke-width:0.33072916"
       id="path3963"
       inkscape:connector-curvature="0" />
    <path
       d="m 50.339051,163.31298 -7.276042,7.27339 v 5.09786 l 5.396508,-5.39122 v 24.8424 h 3.760722 v -24.8424 l 5.394854,5.39122 v -5.09786 z"
       style="fill:#ffffff;fill-opacity:1;fill-rule:nonzero;stroke:none;stroke-width:0.33072916"
       id="path3965"
       inkscape:connector-curvature="0" />
    <path
       d="m 128.12754,163.31298 -7.27604,7.27339 v 5.09786 l 5.39519,-5.39122 v 24.8424 h 3.76072 v -24.8424 l 5.39618,5.39122 v -5.09786 z"
       style="fill:#ffffff;fill-opacity:1;fill-rule:nonzero;stroke:none;stroke-width:0.33072916"
       id="path3967"
       inkscape:connector-curvature="0" />
  </g>
</svg>
