<?xml version="1.0" encoding="UTF-8" standalone="no"?>
<!-- Created with Inkscape (http://www.inkscape.org/) -->

<svg
   xmlns:dc="http://purl.org/dc/elements/1.1/"
   xmlns:cc="http://creativecommons.org/ns#"
   xmlns:rdf="http://www.w3.org/1999/02/22-rdf-syntax-ns#"
   xmlns:svg="http://www.w3.org/2000/svg"
   xmlns="http://www.w3.org/2000/svg"
   xmlns:sodipodi="http://sodipodi.sourceforge.net/DTD/sodipodi-0.dtd"
   xmlns:inkscape="http://www.inkscape.org/namespaces/inkscape"
   width="111.39665mm"
   height="166.87918mm"
   viewBox="0 0 111.39665 166.87918"
   version="1.1"
   id="svg2629"
   inkscape:version="0.92.4 (33fec40, 2019-01-16)"
   sodipodi:docname="327-51.svg">
  <defs
     id="defs2623" />
  <sodipodi:namedview
     id="base"
     pagecolor="#ffffff"
     bordercolor="#666666"
     borderopacity="1.0"
     inkscape:pageopacity="0.0"
     inkscape:pageshadow="2"
     inkscape:zoom="0.35"
     inkscape:cx="330.51335"
     inkscape:cy="341.0765"
     inkscape:document-units="mm"
     inkscape:current-layer="layer1"
     showgrid="false"
     fit-margin-top="0"
     fit-margin-left="0"
     fit-margin-right="0"
     fit-margin-bottom="0"
     inkscape:window-width="1366"
     inkscape:window-height="740"
     inkscape:window-x="1920"
     inkscape:window-y="0"
     inkscape:window-maximized="1" />
  <metadata
     id="metadata2626">
    <rdf:RDF>
      <cc:Work
         rdf:about="">
        <dc:format>image/svg+xml</dc:format>
        <dc:type
           rdf:resource="http://purl.org/dc/dcmitype/StillImage" />
        <dc:title></dc:title>
      </cc:Work>
    </rdf:RDF>
  </metadata>
  <g
     inkscape:label="Layer 1"
     inkscape:groupmode="layer"
     id="layer1"
     transform="translate(-18.38501,-72.197314)">
    <path
       d="m 26.002893,238.9442 h 96.306917 c 7.37518,0 7.33954,-6.01521 7.33954,-6.01521 V 78.266276 c 0,0 0.048,-5.935133 -6.34188,-5.935133 H 25.068385 c 0,0 -6.537325,-0.109009 -6.551083,6.529211 V 232.33526 c 0,6.62411 7.485591,6.60894 7.485591,6.60894 z"
       style="fill:#ffffff;fill-opacity:1;fill-rule:evenodd;stroke:none;stroke-width:0.35277778"
       id="path2792"
       inkscape:connector-curvature="0" />
    <path
       d="m 24.883882,235.99921 h 98.431698 c 0,0 3.58176,-0.01 3.58176,-3.62267 V 78.612351 c 0,0 -0.003,-3.550003 -3.96346,-3.550003 H 25.265588 c 0,0 -3.934178,0 -3.934178,3.548592 v 153.99138 c 0.01376,3.43288 3.552472,3.39689 3.552472,3.39689 z"
       style="fill:#154889;fill-opacity:1;fill-rule:evenodd;stroke:none;stroke-width:0.35277778"
       id="path2794"
       inkscape:connector-curvature="0" />
    <path
       d="m 25.068385,72.19744 c -0.0025,0 -1.661936,-0.02893 -3.327753,0.789517 -1.668991,0.818797 -3.348566,2.509661 -3.355622,5.871986 V 232.33526 c 0,3.36092 1.919464,5.0726 3.821289,5.91044 1.901825,0.83644 3.796594,0.83079 3.796594,0.83079 h 96.306917 c 3.72357,0 5.61552,-1.53387 6.54826,-3.07163 0.9331,-1.5367 0.92358,-3.07446 0.92358,-3.07446 V 78.266276 c 0,-0.0014 0.0123,-1.513064 -0.79128,-3.030361 -0.80328,-1.516944 -2.44722,-3.038475 -5.6829,-3.038475 z m 0,0.133703 h 98.239085 c 6.38986,0 6.34188,5.935133 6.34188,5.935133 V 232.9304 c 0,0 0.0356,6.0138 -7.33954,6.0138 H 26.002893 c 0,0 -7.485591,0.0152 -7.485591,-6.60752 V 78.860354 c 0.01376,-6.63822 6.551083,-6.529211 6.551083,-6.529211 z"
       style="fill:#000000;fill-opacity:1;fill-rule:evenodd;stroke:none;stroke-width:0.35277778"
       id="path2796"
       inkscape:connector-curvature="0" />
    <path
       d="M 36.487096,90.053992 H 111.74165 V 165.30714 H 36.487096 Z"
       style="fill:#ffffff;fill-opacity:1;fill-rule:nonzero;stroke:none;stroke-width:0.35277778"
       id="path2798"
       inkscape:connector-curvature="0" />
    <path
       d="m 40.287571,153.29223 v -24.35542 l 5.21723,-12.37051 9.664347,-9.27982 12.566297,-5.22005 h 12.94518 l 12.374739,5.22005 9.662936,9.27982 5.22111,12.37051 v 24.35542 z m 5.603169,-0.96732 h -4.638675 v -9.66717 h 4.638675 z m -4.638675,-10.63166 v -12.06324 l 4.987219,1.83974 c -0.0067,0.0455 -0.01235,0.0882 -0.02187,0.13229 -0.04551,0.30727 -0.08961,0.61736 -0.125589,0.92463 -0.03457,0.29492 -0.06597,0.58985 -0.0896,0.88477 -0.03034,0.2921 -0.0508,0.58843 -0.06738,0.88582 -0.01094,0.23425 -0.02505,0.4699 -0.02893,0.70838 -0.0099,0.25083 -0.01517,0.50588 -0.01517,0.75671 v 5.9309 z m 0.194381,-13.0115 4.686652,-11.10686 4.048831,3.35704 c -0.05256,0.0882 -0.109009,0.17638 -0.16122,0.26705 -0.380294,0.61736 -0.737305,1.2513 -1.063977,1.90041 -0.315384,0.61313 -0.605014,1.23896 -0.868187,1.87678 -0.268463,0.63676 -0.511175,1.28023 -0.73025,1.93781 -0.179211,0.52352 -0.334786,1.04845 -0.482247,1.58326 -0.155928,0.56762 -0.2921,1.13807 -0.406753,1.71415 -0.02328,0.10054 -0.04128,0.20532 -0.06315,0.30586 z m 5.229577,-11.90625 8.679039,-8.3245 2.57563,4.324 c -0.08431,0.054 -0.169686,0.11606 -0.255058,0.17533 -0.588433,0.42298 -1.16593,0.86677 -1.71838,1.33667 -0.531989,0.44344 -1.043164,0.90523 -1.532467,1.38889 -0.498828,0.48084 -0.974372,0.97966 -1.430514,1.49789 -0.369005,0.41205 -0.717903,0.83644 -1.060803,1.27212 -0.365125,0.46002 -0.716844,0.93274 -1.047397,1.4164 -0.05644,0.0854 -0.117122,0.17357 -0.179211,0.25788 z m 9.48937,-8.85649 11.295591,-4.69088 0.790928,5.06306 c -0.100542,0.0205 -0.201084,0.0399 -0.303036,0.0631 -0.709789,0.1584 -1.411112,0.34184 -2.10432,0.55809 -0.661458,0.20003 -1.31445,0.42722 -1.955447,0.67945 -0.643467,0.24518 -1.277408,0.51965 -1.900061,0.81986 -0.500239,0.23424 -0.990953,0.48648 -1.477433,0.75247 -0.513998,0.28258 -1.019881,0.58138 -1.517298,0.89853 -0.08678,0.0536 -0.174977,0.11289 -0.263172,0.16792 z m 12.242446,-4.88527 h 11.408834 l -0.79375,5.06977 c -0.05115,-0.01 -0.09807,-0.0152 -0.147462,-0.0233 -0.343252,-0.0621 -0.680861,-0.11042 -1.026583,-0.1584 -0.32385,-0.0427 -0.651933,-0.0815 -0.978605,-0.11465 -0.326673,-0.0275 -0.655814,-0.0579 -0.982486,-0.0783 -0.261762,-0.0138 -0.529167,-0.0289 -0.785637,-0.0374 -0.283633,-0.01 -0.564797,-0.0152 -0.843138,-0.0176 h -0.294923 c -0.09913,0.004 -0.197202,0.004 -0.294922,0.004 -0.249414,0.004 -0.497417,0.0109 -0.74295,0.0194 -0.326319,0.0152 -0.657225,0.0346 -0.984955,0.0621 -0.326673,0.0219 -0.653345,0.0522 -0.981428,0.0896 -0.261761,0.0303 -0.523522,0.0603 -0.783872,0.0991 -0.278342,0.0384 -0.552803,0.0825 -0.826911,0.13229 -0.04974,0.008 -0.100542,0.0138 -0.147462,0.0233 z m 38.564251,49.29117 h -4.63832 v -9.66717 h 4.63832 z m 0,-10.63166 h -4.63832 v -5.9309 c 0,-0.31291 -0.01,-0.62301 -0.0208,-0.9331 -0.0123,-0.29774 -0.0261,-0.59266 -0.0494,-0.88476 -0.0208,-0.29881 -0.0441,-0.59373 -0.0759,-0.88583 -0.0208,-0.23707 -0.0497,-0.47131 -0.0787,-0.70838 -0.0332,-0.25223 -0.0646,-0.49882 -0.10618,-0.74824 -0.005,-0.0441 -0.0123,-0.0868 -0.0205,-0.13229 l 4.98968,-1.83974 z m -4.87962,-24.11836 4.68419,11.10686 -4.96112,1.8355 c -0.0194,-0.10054 -0.0399,-0.20532 -0.0607,-0.30586 -0.14605,-0.70838 -0.31961,-1.41499 -0.52352,-2.10961 -0.18591,-0.6671 -0.40393,-1.32151 -0.64347,-1.97062 -0.23318,-0.6477 -0.49635,-1.28728 -0.785631,-1.91276 -0.2286,-0.50588 -0.471311,-0.99906 -0.727428,-1.48837 -0.275872,-0.5207 -0.56515,-1.03469 -0.871008,-1.53105 -0.05644,-0.0907 -0.109009,-0.17886 -0.164042,-0.26705 z m -9.22302,-9.12389 8.67481,8.3245 -4.030843,3.34468 c -0.05786,-0.0843 -0.117123,-0.1725 -0.174978,-0.25788 -0.413456,-0.59513 -0.844903,-1.17686 -1.305278,-1.74166 -0.433917,-0.54151 -0.890058,-1.05692 -1.361369,-1.55716 -0.474134,-0.5073 -0.964495,-0.99095 -1.4732,-1.45662 -0.4064,-0.37359 -0.824089,-0.73166 -1.253773,-1.08444 -0.456141,-0.37359 -0.917927,-0.7306 -1.397352,-1.07209 -0.08431,-0.0593 -0.172509,-0.12136 -0.257881,-0.17533 z m -12.106275,-5.22287 11.295944,4.69088 -2.569986,4.31165 c -0.08819,-0.055 -0.172508,-0.11148 -0.263172,-0.16792 -0.610658,-0.39123 -1.238955,-0.75671 -1.879953,-1.09573 -0.611716,-0.32385 -1.234722,-0.62406 -1.86443,-0.9024 -0.631119,-0.27693 -1.271764,-0.53482 -1.919464,-0.762 -0.523522,-0.18768 -1.047397,-0.35419 -1.579386,-0.50871 -0.563386,-0.16404 -1.138061,-0.31256 -1.707092,-0.43956 -0.102305,-0.0233 -0.205669,-0.0427 -0.303388,-0.0631 l 0.790927,-5.06306"
       style="fill:#0c0b09;fill-opacity:1;fill-rule:evenodd;stroke:none;stroke-width:0.35277778"
       id="path2800"
       inkscape:connector-curvature="0" />
    <path
       d="m 35.219212,192.03852 -7.276041,7.27322 v 5.09869 l 5.397853,-5.39079 v 24.8419 h 3.760611 v -24.8419 l 5.393619,5.39079 v -5.09869 z"
       style="fill:#ffffff;fill-opacity:1;fill-rule:nonzero;stroke:none;stroke-width:0.35277778"
       id="path2802"
       inkscape:connector-curvature="0" />
    <path
       d="m 113.00812,192.03852 -7.27604,7.27322 v 5.09869 l 5.39503,-5.39079 v 24.8419 h 3.76061 v -24.8419 l 5.39644,5.39079 v -5.09869 z"
       style="fill:#ffffff;fill-opacity:1;fill-rule:nonzero;stroke:none;stroke-width:0.35277778"
       id="path2804"
       inkscape:connector-curvature="0" />
  </g>
</svg>
