<?xml version="1.0" encoding="UTF-8" standalone="no"?>
<svg xmlns:dc="http://purl.org/dc/elements/1.1/" xmlns:cc="http://creativecommons.org/ns#" xmlns:rdf="http://www.w3.org/1999/02/22-rdf-syntax-ns#" xmlns:svg="http://www.w3.org/2000/svg" xmlns="http://www.w3.org/2000/svg" viewBox="0 0 2000.9998 501.75284" height="501.75284" width="2000.9998" xml:space="preserve" id="svg5293" version="1.1"><metadata id="metadata5299"><rdf:RDF><cc:Work rdf:about=""><dc:format>image/svg+xml</dc:format><dc:type rdf:resource="http://purl.org/dc/dcmitype/StillImage"/><dc:title/></cc:Work></rdf:RDF></metadata><defs id="defs5297"><clipPath id="clipPath5315" clipPathUnits="userSpaceOnUse"><path id="path5313" d="M 0,0 H 1501 V 377 H 0 Z"/></clipPath></defs><g transform="matrix(1.3333333,0,0,-1.3333333,0,501.75285)" id="g5301"><g id="g5303"/><g id="g5305"><g transform="translate(0,-0.685364)" id="g5307"><g id="g5309"><g clip-path="url(#clipPath5315)" id="g5311"><g id="g5317"><path id="path5319" style="fill:#ffffff;fill-opacity:1;fill-rule:nonzero;stroke:none" d="m 45.73,1.434 c -24.839,0 -44.98,20.14 -44.98,44.98 V 331.27 c 0,24.839 20.141,44.98 44.98,44.98 h 1138.497 c 23.691,0 46.941,-6.242 67.457,-18.09 l 225.824,-130.371 c 21.512,-12.422 28.898,-39.93 16.48,-61.437 -3.949,-6.836 -9.617,-12.508 -16.48,-16.457 L 1251.684,19.5 C 1231.168,7.676 1207.918,1.434 1184.227,1.434"/><path id="path5321" style="fill:#000000;fill-opacity:1;fill-rule:nonzero;stroke:none" d="M 45.73,377 C 20.516,377 0,356.484 0,331.27 V 46.414 C 0,21.18 20.516,0.684 45.73,0.684 h 1138.497 c 23.781,0 47.23,6.289 67.836,18.179 l 225.824,130.371 c 6.968,4.016 12.75,9.797 16.742,16.743 12.617,21.839 5.094,49.855 -16.742,62.472 L 1252.063,358.824 C 1231.48,370.715 1208.008,377 1184.227,377 Z m 0,-0.75 h 1138.497 c 23.691,0 46.945,-6.242 67.461,-18.09 l 225.824,-130.371 c 21.508,-12.418 28.894,-39.926 16.476,-61.437 -3.949,-6.836 -9.617,-12.508 -16.476,-16.457 L 1251.688,19.5 C 1231.172,7.676 1207.918,1.434 1184.227,1.434 H 45.73 c -24.839,0 -44.98,20.14 -44.98,44.98 V 331.27 c 0,24.839 20.141,44.98 44.98,44.98 z"/></g></g></g></g><path id="path5323" style="fill:#000000;fill-opacity:1;fill-rule:nonzero;stroke:none" d="M 45.73,12.002 C 27.09,12.002 12,27.088 12,45.729 v 284.855 c 0,18.641 15.09,33.731 33.73,33.731 h 1138.497 c 21.73,0 43.039,-5.715 61.855,-16.567 l 225.824,-130.371 c 16.106,-9.312 21.664,-29.957 12.332,-46.105 -2.933,-5.118 -7.215,-9.375 -12.332,-12.332 L 1246.082,28.569 c -18.816,-10.856 -40.125,-16.567 -61.855,-16.567"/><path id="path5325" style="fill:#ffffff;fill-opacity:1;fill-rule:nonzero;stroke:none" d="m 45.73,30.729 c -8.273,0 -15,6.726 -15,15 v 284.855 c 0,8.274 6.727,15 15,15 h 1138.497 c 18.421,0 36.531,-4.851 52.48,-14.07 l 225.824,-130.375 c 7.192,-4.125 9.641,-13.324 5.492,-20.469 -1.324,-2.273 -3.218,-4.191 -5.492,-5.496 L 1236.707,44.779 c -15.949,-9.199 -34.059,-14.05 -52.48,-14.05"/><path id="path5327" style="fill:#000000;fill-opacity:1;fill-rule:nonzero;stroke:none" d="m 1088.887,109.44 h -14.055 c -13.961,0 -25.301,11.336 -25.301,25.3 v 68.872 h -11.25 v 18.285 h 11.25 v 33.73 h 22.477 v -33.73 h 16.879 v -18.285 h -16.879 v -66.047 c 0,-3.907 3.156,-7.039 7.062,-7.039 h 9.817 z m -137.742,0 v 112.457 h 22.5 V 209.19 c 13.171,16.304 37.062,18.839 53.363,5.672 0,0 0.015,-0.016 0.051,-0.016 l -15.973,-19.723 c -9.289,8.274 -23.492,7.434 -31.766,-1.855 -3.664,-4.125 -5.672,-9.442 -5.672,-14.934 v -68.89 z m -123.688,0 v 157.437 h 22.477 V 209.19 c 13.171,16.304 37.082,18.839 53.386,5.672 8.91,-7.192 14.094,-18.047 14.094,-29.516 V 109.44 h -22.5 v 68.89 c 0,12.399 -10.059,22.477 -22.476,22.477 -12.422,0 -22.504,-10.078 -22.504,-22.477 v -68.89 z m -56.23,49.191 H 738.91 c -7.765,0 -14.055,-6.289 -14.055,-14.051 0,-7.765 6.29,-14.054 14.055,-14.054 h 18.266 c 7.762,0 14.051,6.289 14.051,14.054 z m 22.5,-49.191 h -22.5 v 11.601 c -3.95,-7.148 -11.493,-11.601 -19.676,-11.601 h -14.055 c -18.617,0 -33.726,15.109 -33.726,33.726 0,18.641 15.109,33.75 33.726,33.75 h 33.731 v 11.254 c 0,6.133 -4.414,11.383 -10.457,12.461 -7.965,1.371 -16.082,1.371 -24.043,0 -3.973,-0.707 -7.372,-3.242 -9.157,-6.859 l -17.781,14.05 c 5.34,7.922 13.656,13.305 23.055,14.957 10.519,1.833 21.285,1.833 31.808,0 16.809,-2.957 29.075,-17.558 29.075,-34.609 z m -151.813,0 v 94.172 h -11.23 v 18.285 h 11.23 v 16.855 c 0,15.527 12.594,28.125 28.125,28.125 h 16.852 v -21.09 H 671.43 c -3.864,0 -7.016,-3.152 -7.016,-7.035 v -16.855 h 22.477 V 203.612 H 664.414 V 109.44 Z m -126.492,18.019 15.863,15.93 c 13.102,-13.039 32.625,-17.231 49.942,-10.746 5.8,2.183 8.734,8.672 6.574,14.472 -1.567,4.149 -5.406,7.016 -9.817,7.282 l -23.914,1.5 c -18.593,1.144 -32.715,17.16 -31.566,35.757 0.949,14.801 11.406,27.243 25.809,30.708 20.937,5.031 43.039,0.117 59.871,-13.325 l -14.032,-17.558 c -11.402,9.086 -26.382,12.441 -40.589,9.023 -6.043,-1.457 -9.75,-7.523 -8.317,-13.57 1.149,-4.809 5.297,-8.293 10.238,-8.602 l 23.891,-1.476 c 18.594,-1.172 32.715,-17.184 31.566,-35.782 -0.839,-13.257 -9.375,-24.796 -21.816,-29.492 -25.566,-9.574 -54.355,-3.375 -73.703,15.883 z M 487.32,109.44 h -22.504 v 12.703 c -13.168,-16.324 -37.058,-18.836 -53.359,-5.692 -8.914,7.215 -14.098,18.067 -14.098,29.539 v 75.907 h 22.481 v -68.891 c 0,-12.422 10.078,-22.48 22.5,-22.48 12.398,0 22.476,10.058 22.476,22.48 v 68.891 h 22.504 z m -197.5,56.226 h 46.41 l -23.203,68.871 z m -44.254,-56.226 57.622,157.437 h 19.675 L 380.484,109.44 h -25.281 l -11.844,35.14 h -60.664 l -11.824,-35.14"/></g></g></svg>