<?xml version="1.0" encoding="UTF-8" standalone="no"?>
<svg xmlns:dc="http://purl.org/dc/elements/1.1/" xmlns:cc="http://creativecommons.org/ns#" xmlns:rdf="http://www.w3.org/1999/02/22-rdf-syntax-ns#" xmlns:svg="http://www.w3.org/2000/svg" xmlns="http://www.w3.org/2000/svg" viewBox="0 0 919.94849 229.99998" height="229.99998" width="919.94849" xml:space="preserve" version="1.1" id="svg5657"><metadata id="metadata5663"><rdf:RDF><cc:Work rdf:about=""><dc:format>image/svg+xml</dc:format><dc:type rdf:resource="http://purl.org/dc/dcmitype/StillImage"/><dc:title/></cc:Work></rdf:RDF></metadata><defs id="defs5661"><clipPath id="clipPath5675" clipPathUnits="userSpaceOnUse"><path id="path5677" d="M 0,0 736,0 736,184 0,184 0,0 Z"/></clipPath></defs><g transform="matrix(1.25,0,0,-1.25,0,229.99998)" id="g5665"><g id="g5667"/><g id="g5669"><g transform="translate(0,-1.52588e-5)" id="g5671"><g id="g5673"/><g id="g5679"><g id="g5681" clip-path="url(#clipPath5675)"><g id="g5683"><path id="path5685" style="fill:#f0c900;fill-opacity:1;fill-rule:nonzero;stroke:none" d="M 22.078,0 C 9.887,0 0,9.898 0,22.09 L 0,161.922 C 0,174.113 9.887,184 22.078,184 l 558.863,0 c 11.633,0 23.047,-3.062 33.118,-8.879 L 724.91,111.125 c 10.559,-6.098 14.188,-19.602 8.09,-30.16 -1.941,-3.36 -4.723,-6.141 -8.09,-8.078 L 614.059,8.883 C 603.988,3.074 592.574,0 580.941,0"/></g></g></g></g></g><g id="g5687"><path id="path5689" style="fill:#000000;fill-opacity:1;fill-rule:nonzero;stroke:none" d="m 22.082,178.477 c -9.152,0 -16.559,-7.407 -16.559,-16.559 l 0,-139.828 c 0,-9.149 7.407,-16.555 16.559,-16.555 l 558.859,0 c 10.672,0 21.129,2.801 30.368,8.117 L 722.16,77.66 c 2.512,1.453 4.613,3.543 6.051,6.055 4.586,7.93 1.855,18.062 -6.051,22.633 l -110.851,64 c -9.239,5.328 -19.696,8.129 -30.368,8.129 l -558.859,0 z m 0,-9.192 558.859,0 c 9.043,0 17.934,-2.383 25.762,-6.91 l 110.856,-64 c 3.531,-2.02 4.73,-6.539 2.695,-10.043 -0.649,-1.117 -1.582,-2.059 -2.695,-2.699 L 606.703,21.621 c -7.828,-4.512 -16.719,-6.894 -25.762,-6.894 l -558.859,0 c -4.062,0 -7.367,3.304 -7.367,7.363 l 0,139.828 c 0,4.062 3.305,7.367 7.367,7.367 z"/><path id="path5691" style="fill:#000000;fill-opacity:1;fill-rule:nonzero;stroke:none" d="m 534.141,53.363 -6.899,0 c -6.851,0 -12.418,5.567 -12.418,12.418 l 0,33.809 -5.519,0 0,8.976 5.519,0 0,16.559 11.035,0 0,-16.559 8.282,0 0,-8.976 -8.282,0 0,-32.422 c 0,-1.914 1.547,-3.449 3.465,-3.449 l 4.817,0 0,-10.356 z m -67.61,0 0,55.203 11.043,0 0,-6.238 c 6.465,8.004 18.192,9.254 26.192,2.785 0,0 0.011,-0.008 0.023,-0.008 l -7.84,-9.683 c -4.558,4.058 -11.531,3.648 -15.594,-0.91 -1.796,-2.024 -2.781,-4.633 -2.781,-7.328 l 0,-33.821 -11.043,0 z m -60.718,0 0,77.285 11.035,0 0,-28.32 c 6.465,8.004 18.199,9.254 26.207,2.785 4.371,-3.527 6.918,-8.855 6.918,-14.488 l 0,-37.262 -11.047,0 0,33.821 c 0,6.082 -4.938,11.031 -11.035,11.031 -6.098,0 -11.043,-4.949 -11.043,-11.031 l 0,-33.821 -11.035,0 z m -27.602,24.149 -15.863,0 c -3.813,0 -6.899,-3.086 -6.899,-6.899 0,-3.812 3.086,-6.894 6.899,-6.894 l 8.965,0 c 3.812,0 6.898,3.082 6.898,6.894 l 0,6.899 z m 11.043,-24.149 -11.043,0 0,5.696 c -1.938,-3.508 -5.641,-5.696 -9.66,-5.696 l -6.899,0 c -9.14,0 -16.554,7.418 -16.554,16.559 0,9.152 7.414,16.566 16.554,16.566 l 16.559,0 0,5.52 c 0,3.015 -2.168,5.59 -5.133,6.121 -3.91,0.683 -7.894,0.683 -11.805,0 -1.949,-0.348 -3.617,-1.59 -4.492,-3.367 l -8.726,6.898 c 2.621,3.887 6.703,6.531 11.312,7.34 5.168,0.898 10.453,0.898 15.617,0 8.25,-1.453 14.27,-8.617 14.27,-16.992 l 0,-38.645 z m -74.524,0 0,46.227 -5.507,0 0,8.976 5.507,0 0,8.278 c 0,7.621 6.188,13.804 13.809,13.804 l 8.274,0 0,-10.355 -7.59,0 c -1.895,0 -3.442,-1.547 -3.442,-3.449 l 0,-8.278 11.032,0 0,-8.976 -11.032,0 0,-46.227 -11.051,0 z m -62.085,8.848 7.785,7.82 c 6.433,-6.402 16.015,-8.461 24.511,-5.273 2.852,1.066 4.293,4.254 3.231,7.101 -0.77,2.032 -2.652,3.446 -4.82,3.575 l -11.739,0.734 c -9.129,0.566 -16.058,8.426 -15.496,17.555 0.469,7.265 5.602,13.371 12.672,15.07 10.274,2.469 21.125,0.055 29.391,-6.527 l -6.891,-8.629 c -5.598,4.468 -12.953,6.105 -19.926,4.425 -2.965,-0.714 -4.785,-3.691 -4.082,-6.656 0.563,-2.363 2.602,-4.074 5.028,-4.222 l 11.726,-0.727 c 9.129,-0.574 16.059,-8.434 15.496,-17.562 -0.414,-6.508 -4.605,-12.176 -10.711,-14.469 -12.55,-4.711 -26.679,-1.668 -36.175,7.785 z m -13.797,-8.848 -11.047,0 0,6.235 c -6.465,-8.012 -18.192,-9.243 -26.192,-2.782 -4.379,3.532 -6.921,8.86 -6.921,14.489 l 0,37.261 11.035,0 0,-33.816 c 0,-6.094 4.945,-11.031 11.043,-11.031 6.086,0 11.035,4.937 11.035,11.031 l 0,33.816 11.047,0 0,-55.203 z m -96.95,27.602 22.782,0 -11.387,33.808 -11.395,-33.808 z m -21.722,-27.602 28.285,77.285 9.656,0 28.285,-77.285 -12.41,0 -5.812,17.25 -29.782,0 -5.8,-17.25"/></g></g></svg>