<?xml version="1.0" encoding="UTF-8" standalone="no"?>
<svg
   xmlns:dc="http://purl.org/dc/elements/1.1/"
   xmlns:cc="http://creativecommons.org/ns#"
   xmlns:rdf="http://www.w3.org/1999/02/22-rdf-syntax-ns#"
   xmlns:svg="http://www.w3.org/2000/svg"
   xmlns="http://www.w3.org/2000/svg"
   viewBox="0 0 601.00012 601.00031"
   height="601.00031"
   width="601.00012"
   xml:space="preserve"
   version="1.1"
   id="svg12512"><metadata
     id="metadata12518"><rdf:RDF><cc:Work
         rdf:about=""><dc:format>image/svg+xml</dc:format><dc:type
           rdf:resource="http://purl.org/dc/dcmitype/StillImage" /><dc:title></dc:title></cc:Work></rdf:RDF></metadata><defs
     id="defs12516" /><g
     transform="matrix(1.25,0,0,-1.25,0,601.00029)"
     id="g12520"><g
       id="g12522"><path
         id="path12524"
         style="fill:#ffffff;fill-opacity:1;fill-rule:nonzero;stroke:none"
         d="M 29.199,480.402 C 0.336,480.417 0.398,451.597 0.398,451.597 l 0,-422.398 c 0,0 -0.062,-28.825 28.801,-28.797 l 422.403,0 c 29.05,-0.031 28.796,28.797 28.796,28.797 l 0,422.398 c 0,0 0.239,28.899 -28.796,28.805 l -422.403,0 z" /><path
         id="path12526"
         style="fill:#154889;fill-opacity:1;fill-rule:nonzero;stroke:none"
         d="M 29.199,470.8 C 18.598,470.8 10,462.203 10,451.601 L 10,29.199 c 0,-10.61 8.598,-19.2 19.199,-19.2 l 422.403,0 c 10.601,0 19.199,8.59 19.199,19.2 l 0,422.402 c 0,10.602 -8.598,19.199 -19.199,19.199 l -422.403,0 z m 48.801,-68 324.801,0 0,-324.801 -324.801,0 0,324.801 z" /><path
         id="path12528"
         style="fill:#000000;fill-opacity:1;fill-rule:nonzero;stroke:none"
         d="M 29.199,480.8 C 14.633,480.808 7.258,473.484 3.617,466.183 -0.023,458.882 0,451.593 0,451.593 L 0,29.199 c 0,0 -0.02,-7.289 3.617,-14.586 C 7.258,7.312 14.633,-0.012 29.199,-0.001 l 422.403,0 c 14.656,-0.015 22.035,7.313 25.652,14.614 3.613,7.297 3.547,14.582 3.547,14.586 l 0,422.398 c 0,0.004 0.062,7.309 -3.555,14.613 -3.617,7.309 -10.996,14.637 -25.644,14.59 l -422.403,0 z m 0,-0.398 422.403,0 c 29.035,0.094 28.796,-28.805 28.796,-28.805 l 0,-422.398 c 0,0 0.254,-28.828 -28.796,-28.797 l -422.403,0 C 0.336,0.374 0.398,29.199 0.398,29.199 l 0,422.398 c 0,0 -0.062,28.82 28.801,28.805 z" /><path
         id="path12530"
         style="fill:#000000;fill-opacity:1;fill-rule:nonzero;stroke:none"
         d="m 107.922,193.257 0,95.141 22.254,0 c 2.754,0 5.512,-0.57 8.273,-1.711 2.758,-1.141 5.063,-2.637 6.918,-4.492 1.856,-1.852 3.422,-4.063 4.707,-6.633 1.281,-2.566 1.922,-5.039 1.922,-7.418 l 0,-13.836 c 0,-3.519 -0.476,-6.656 -1.426,-9.414 -0.949,-2.758 -2.59,-5.301 -4.922,-7.633 -2.328,-2.328 -4.847,-3.992 -7.558,-4.992 -2.711,-0.996 -5.875,-1.496 -9.488,-1.496 l -7.129,0 0,-37.516 -13.551,0 z m 28.812,53.067 c 0.856,0.855 1.403,1.757 1.641,2.707 0.238,0.953 0.359,2.14 0.359,3.562 l 0,14.129 c 0,2.66 -0.808,4.848 -2.425,6.559 -1.618,1.711 -3.805,2.57 -6.567,2.57 l -8.269,0 0,-32.242 7.129,0 c 1.906,0 3.453,0.168 4.64,0.5 1.188,0.332 2.352,1.07 3.492,2.215 z m 26.954,7.843 c 2,2.473 4.351,4.399 7.062,5.778 2.711,1.375 5.633,2.066 8.773,2.066 3.516,0 6.629,-0.644 9.34,-1.926 2.711,-1.285 5.254,-3.496 7.633,-6.632 2.379,-3.137 3.566,-7.227 3.566,-12.266 l 0,-27.106 c 0,-5.132 -1.14,-9.246 -3.421,-12.335 -2.282,-3.09 -4.852,-5.422 -7.703,-6.993 -2.852,-1.57 -5.754,-2.355 -8.704,-2.355 -4.086,0 -7.82,1.023 -11.195,3.07 -3.379,2.043 -5.707,4.324 -6.992,6.844 -1.285,2.523 -2.07,4.613 -2.356,6.277 -0.281,1.668 -0.425,3.496 -0.425,5.492 l 0,27.106 c 0,5.137 1.476,9.461 4.422,12.98 z m 16.117,-5.421 c -2.09,0 -3.754,-0.711 -4.989,-2.137 -1.238,-1.43 -1.855,-3.235 -1.855,-5.422 l 0,-27.106 c 0,-2.187 0.594,-4.066 1.781,-5.632 1.192,-1.571 2.879,-2.356 5.063,-2.356 2.949,0 4.781,0.856 5.492,2.571 0.715,1.71 1.074,3.613 1.074,5.707 l 0,26.816 c 0,2.09 -0.598,3.875 -1.785,5.348 -1.188,1.476 -2.781,2.211 -4.781,2.211 z m 44.859,39.652 0,-75.598 c 0,-2.281 0.379,-3.945 1.141,-4.992 0.761,-1.047 2.281,-1.57 4.566,-1.57 l 0.996,0 0,-12.981 -2.996,0 c -2.187,0 -4.23,0.239 -6.133,0.715 -1.898,0.477 -3.8,1.449 -5.703,2.922 -1.902,1.473 -3.305,3.375 -4.211,5.703 -0.902,2.332 -1.355,4.828 -1.355,7.492 l 0,78.309 13.695,0 z m 15,-95.141 0,67.899 13.695,0 0,-67.899 -13.695,0 z m 0,81.735 0,13.406 13.695,0 0,-13.406 -13.695,0 z m 22.781,-81.735 0,11.27 21.821,44.933 -20.254,0 0,11.696 35.523,0 0,-9.84 -21.828,-45.078 21.828,0 0,-12.981 -37.09,0 z m 65.285,12.981 c 2,0 3.618,0.617 4.852,1.855 1.234,1.235 1.996,2.852 2.281,4.848 l 13.551,0 0,-1.567 c 0,-2.093 -0.449,-4.183 -1.355,-6.277 -0.903,-2.094 -2.782,-4.73 -5.633,-7.918 -2.856,-3.187 -7.324,-4.781 -13.41,-4.781 -3.899,0 -7.493,1.047 -10.77,3.141 -3.281,2.093 -5.543,4.398 -6.777,6.917 -1.235,2.52 -2.02,4.805 -2.352,6.848 -0.332,2.047 -0.5,4.067 -0.5,6.063 l 0,25.82 c 0,5.609 2.02,10.48 6.063,14.617 4.039,4.137 8.867,6.207 14.48,6.207 5.801,0 10.629,-2.019 14.477,-6.062 3.851,-4.039 5.777,-8.961 5.777,-14.762 l 0,-18.828 -27.102,0 0,-10.129 c 0,-1.426 0.688,-2.781 2.067,-4.066 1.379,-1.286 2.828,-1.926 4.351,-1.926 z m 0.286,42.367 c -1.809,-0.004 -3.375,-0.621 -4.707,-1.856 -1.332,-1.238 -1.997,-3.425 -1.997,-6.562 l 0,-6.703 13.407,0 0,6.703 c 0,2.473 -0.524,4.496 -1.567,6.062 -1.047,1.571 -2.757,2.352 -5.136,2.356 z m 31.168,-55.348 0,67.899 13.695,0 0,-67.899 -13.695,0 z m 0,81.735 0,13.406 13.695,0 0,-13.406 -13.695,0 z" /></g></g></svg>