<?xml version="1.0" encoding="UTF-8" standalone="no"?>
<svg
   xmlns:dc="http://purl.org/dc/elements/1.1/"
   xmlns:cc="http://creativecommons.org/ns#"
   xmlns:rdf="http://www.w3.org/1999/02/22-rdf-syntax-ns#"
   xmlns:svg="http://www.w3.org/2000/svg"
   xmlns="http://www.w3.org/2000/svg"
   viewBox="0 0 601.00134 601.00159"
   height="601.00159"
   width="601.00134"
   xml:space="preserve"
   id="svg1555"
   version="1.1"><metadata
     id="metadata1561"><rdf:RDF><cc:Work
         rdf:about=""><dc:format>image/svg+xml</dc:format><dc:type
           rdf:resource="http://purl.org/dc/dcmitype/StillImage" /><dc:title></dc:title></cc:Work></rdf:RDF></metadata><defs
     id="defs1559" /><g
     transform="matrix(1.3333333,0,0,-1.3333333,0,601.00159)"
     id="g1563"><g
       id="g1565"><path
         id="path1567"
         style="fill:#ffffff;fill-opacity:1;fill-rule:nonzero;stroke:none"
         d="m 27.375,450.376 c -27.059,0.016 -27,-27.004 -27,-27.004 V 27.376 c 0,0 -0.059,-27.023 27,-27 h 396 c 27.234,-0.027 27,27 27,27 v 395.996 c 0,0 0.223,27.094 -27,27.004 z" /><path
         id="path1569"
         style="fill:#154889;fill-opacity:1;fill-rule:nonzero;stroke:none"
         d="m 27.375,441.376 c -9.937,0 -18,-8.058 -18,-18 v -396 c 0,-9.949 8.063,-18 18,-18 h 396 c 9.941,0 18,8.051 18,18 v 396 c 0,9.942 -8.059,18 -18,18 z m 45.75,-63.75 h 304.5 v -304.5 h -304.5 z" /><path
         id="path1571"
         style="fill:#000000;fill-opacity:1;fill-rule:nonzero;stroke:none"
         d="M 27.375,450.751 C 13.719,450.759 6.805,443.892 3.391,437.048 -0.023,430.204 0,423.368 0,423.368 V 27.376 C 0,27.376 -0.02,20.54 3.391,13.7 6.805,6.857 13.719,-0.011 27.375,0.001 h 396 c 13.742,-0.015 20.66,6.856 24.051,13.699 3.387,6.84 3.324,13.672 3.324,13.676 v 395.996 c 0,0.004 0.059,6.852 -3.332,13.7 -3.391,6.855 -10.309,13.722 -24.043,13.679 z m 0,-0.375 h 396 c 27.223,0.09 27,-27.004 27,-27.004 V 27.376 c 0,0 0.234,-27.027 -27,-27 h -396 c -27.059,-0.023 -27,27 -27,27 v 395.996 c 0,0 -0.059,27.02 27,27.004 z" /><path
         id="path1573"
         style="fill:#000000;fill-opacity:1;fill-rule:evenodd;stroke:none"
         d="m 154.707,286.154 -6.805,-3.18 c -0.191,-0.098 -0.422,-0.192 -0.625,-0.32 -1.429,-0.715 -2.773,-1.614 -3.988,-2.672 -1.144,-0.973 -2.156,-2.09 -3.039,-3.293 -0.887,-1.203 -1.648,-2.512 -2.238,-3.895 -0.477,-1.094 -0.864,-2.25 -1.125,-3.418 -0.364,-1.488 -0.543,-3.023 -0.52,-4.554 -0.023,-1.286 0.129,-2.567 0.363,-3.829 0.192,-1.035 0.465,-2.058 0.84,-3.035 0.192,-0.554 0.43,-1.09 0.668,-1.621 l 46.625,-99.793 c 0.098,-0.226 0.196,-0.422 0.325,-0.637 0.726,-1.421 1.621,-2.773 2.679,-3.964 0.969,-1.161 2.082,-2.18 3.297,-3.067 1.203,-0.898 2.512,-1.648 3.883,-2.226 1.101,-0.493 2.246,-0.864 3.418,-1.137 1.5,-0.352 3.035,-0.547 4.566,-0.524 0.707,-0.011 1.407,0.024 2.102,0.098 0.582,0.063 1.16,0.16 1.726,0.258 0.567,0.129 1.137,0.258 1.704,0.41 0.445,0.129 0.886,0.254 1.332,0.43 0.543,0.191 1.078,0.445 1.613,0.683 l 6.801,3.168 49.91,-41.742 c -0.352,-0.258 -0.715,-0.5 -1.071,-0.738 -2.511,-1.723 -5.132,-3.281 -7.847,-4.645 -2.567,-1.316 -5.215,-2.453 -7.93,-3.429 -2.703,-0.977 -5.473,-1.793 -8.277,-2.418 -2.25,-0.512 -4.524,-0.907 -6.805,-1.184 -2.453,-0.32 -4.906,-0.488 -7.371,-0.531 -1.727,-0.035 -3.453,-0.012 -5.18,0.094 -2.136,0.129 -4.269,0.343 -6.394,0.66 -2.805,0.398 -5.602,0.988 -8.336,1.75 -2.738,0.75 -5.442,1.672 -8.067,2.758 -2.113,0.863 -4.168,1.828 -6.179,2.91 -2.145,1.133 -4.235,2.394 -6.258,3.746 -1.984,1.308 -3.918,2.726 -5.828,4.156 -10.813,8.133 -20.977,17.219 -29.938,27.399 -8.597,9.402 -16.129,19.785 -22.582,30.781 -6.562,10.914 -12.062,22.453 -16.308,34.426 -3.524,9.597 -6.227,19.476 -8.18,29.519 -2.555,12.699 -3.895,25.668 -3.758,38.582 0,1.399 0.024,2.781 0.031,4.168 0.032,1.149 0.067,2.309 0.098,3.465 0.031,1.16 0.098,2.305 0.16,3.453 0.031,0.93 0.098,1.852 0.16,2.773 0.129,2.032 0.289,4.079 0.547,6.098 0.711,6.031 2.235,11.996 4.574,17.617 2.09,5.293 4.875,10.282 8.258,14.856 3.293,4.613 7.18,8.804 11.532,12.418 3.472,2.949 7.246,5.543 11.242,7.758 4.304,2.418 8.883,4.394 13.617,5.746 0.855,0.257 1.707,0.488 2.559,0.715 z m 10.016,-3.692 v 72.957 l 20.027,-9.359 v -54.238 z m 57.168,-122.348 20.035,9.356 41.594,-34.789 -5.68,-21.375 -55.949,46.808" /><path
         id="path1575"
         style="fill:#0c0b09;fill-opacity:1;fill-rule:evenodd;stroke:none"
         d="m 195.086,210.079 6.031,7.473 c 0.383,-0.324 0.77,-0.59 1.168,-0.887 2.395,-1.726 5.086,-3.101 7.938,-3.894 2.601,-0.809 5.351,-1.114 8.066,-1.125 2.25,-0.032 4.484,0.16 6.656,0.91 2.09,0.68 4.121,1.906 5.235,3.758 0.886,1.328 1.261,3.011 1.191,4.644 -0.031,1.375 -0.387,2.707 -1.035,3.899 -0.586,1.097 -1.418,2.078 -2.441,2.769 -1.114,0.809 -2.477,1.262 -3.829,1.547 -1.964,0.43 -3.941,0.512 -5.929,0.613 -2.203,0.098 -4.418,0.227 -6.555,0.762 -2.086,0.465 -4.109,1.293 -5.914,2.477 -2.863,1.793 -5.215,4.441 -6.59,7.539 -1.34,2.73 -1.887,5.793 -1.637,8.804 0.164,2.657 0.946,5.27 2.297,7.575 1.762,3.148 4.555,5.769 7.805,7.257 3.281,1.661 7.039,2.125 10.723,2.032 3.554,-0.032 7.019,-0.567 10.367,-1.59 2.851,-0.817 5.625,-1.977 8.144,-3.531 0.477,-0.289 0.953,-0.59 1.422,-0.899 l -5.191,-7.996 c -0.453,0.289 -0.922,0.566 -1.387,0.84 -1.816,1.078 -3.781,1.898 -5.824,2.465 -2.445,0.715 -4.977,1.047 -7.531,1.144 -1.68,0.067 -3.375,0.067 -4.989,-0.429 -1.804,-0.493 -3.507,-1.555 -4.644,-3.059 -0.977,-1.211 -1.567,-2.734 -1.672,-4.293 -0.191,-1.852 0.344,-3.758 1.422,-5.281 1.16,-1.77 3.055,-3.043 5.066,-3.598 1.828,-0.57 3.746,-0.547 5.633,-0.648 2.008,-0.098 3.996,-0.325 5.984,-0.692 2.543,-0.468 5.102,-1.172 7.329,-2.5 2.734,-1.547 4.972,-4.008 6.437,-6.836 1.242,-2.261 1.988,-4.738 2.137,-7.269 0.226,-2.707 -0.227,-5.453 -1.262,-7.977 -1.184,-3.054 -3.25,-5.793 -5.863,-7.711 -4.235,-3.328 -9.973,-4.441 -15.422,-4.359 -4.387,-0.035 -8.586,0.68 -12.664,2.09 -3.399,1.121 -6.727,2.691 -9.461,4.972 -0.422,0.325 -0.82,0.672 -1.219,1 z m 54.902,15.243 v 18.25 c 0.067,1.488 0.196,2.976 0.422,4.453 0.578,3.304 1.996,6.496 4.086,9.199 2.363,3.273 5.656,5.851 9.383,7.316 2.875,1.235 5.988,1.793 9.109,1.696 3.875,-0.036 7.758,-1.102 11.051,-3.094 2.797,-1.567 5.203,-3.781 7.031,-6.449 2.067,-2.911 3.43,-6.364 3.75,-9.86 0.129,-1.094 0.16,-2.172 0.192,-3.261 v -19.821 c -0.192,-1.691 -0.352,-3.359 -0.758,-5.008 -1.113,-4.679 -4,-9.074 -7.965,-11.992 -3.848,-3.148 -8.801,-4.797 -13.719,-4.738 -4.679,-0.098 -9.324,1.351 -13.175,4.215 -5.247,3.656 -9.075,9.812 -9.301,15.969 -0.098,1.046 -0.098,2.078 -0.098,3.121 z m 9.598,-0.696 v 18.946 c 0.035,0.921 0.066,1.843 0.258,2.761 0.492,2.883 2.148,5.68 4.531,7.508 2.344,2 5.465,2.996 8.52,2.848 2.285,-0.024 4.523,-0.68 6.406,-1.887 1.773,-1.055 3.25,-2.566 4.34,-4.336 0.988,-1.57 1.679,-3.34 1.828,-5.16 0.129,-0.973 0.066,-1.977 0.023,-2.965 v -17.023 c -0.062,-1.168 -0.129,-2.352 -0.363,-3.5 -0.477,-2.364 -1.68,-4.61 -3.465,-6.336 -2.328,-2.434 -5.715,-3.887 -9.062,-3.852 -2.657,-0.098 -5.293,0.758 -7.497,2.352 -2.73,1.871 -4.792,4.859 -5.25,8.015 -0.16,0.864 -0.222,1.75 -0.257,2.625 z m 43.32,-14.547 6.024,7.473 c 0.394,-0.32 0.769,-0.59 1.179,-0.887 2.395,-1.722 5.079,-3.097 7.93,-3.894 2.609,-0.809 5.348,-1.114 8.074,-1.125 2.246,-0.032 4.477,0.164 6.657,0.91 2.089,0.683 4.121,1.91 5.234,3.758 0.879,1.332 1.262,3.011 1.191,4.644 -0.031,1.375 -0.386,2.707 -1.047,3.899 -0.566,1.101 -1.406,2.078 -2.429,2.769 -1.125,0.809 -2.477,1.266 -3.84,1.547 -1.961,0.43 -3.93,0.512 -5.918,0.613 -2.199,0.098 -4.43,0.227 -6.563,0.762 -2.089,0.469 -4.101,1.293 -5.918,2.477 -2.851,1.793 -5.203,4.441 -6.589,7.543 -1.328,2.726 -1.871,5.789 -1.621,8.8 0.16,2.657 0.941,5.27 2.296,7.575 1.747,3.148 4.543,5.773 7.789,7.261 3.297,1.657 7.055,2.125 10.747,2.032 3.531,-0.036 7.007,-0.567 10.359,-1.594 2.84,-0.817 5.621,-1.977 8.133,-3.531 0.488,-0.289 0.953,-0.59 1.429,-0.899 l -5.199,-7.996 c -0.445,0.289 -0.91,0.566 -1.375,0.84 -1.82,1.078 -3.793,1.898 -5.828,2.465 -2.441,0.715 -4.973,1.047 -7.531,1.144 -1.68,0.067 -3.383,0.067 -4.985,-0.429 -1.808,-0.489 -3.511,-1.555 -4.644,-3.055 -0.988,-1.215 -1.578,-2.738 -1.672,-4.297 -0.16,-1.848 0.34,-3.758 1.406,-5.281 1.168,-1.77 3.055,-3.039 5.078,-3.598 1.817,-0.566 3.747,-0.547 5.633,-0.648 2.008,-0.098 3.996,-0.321 5.973,-0.692 2.559,-0.468 5.125,-1.168 7.328,-2.5 2.75,-1.543 4.984,-4.008 6.441,-6.836 1.247,-2.261 1.985,-4.738 2.145,-7.269 0.227,-2.707 -0.223,-5.453 -1.262,-7.973 -1.179,-3.058 -3.246,-5.793 -5.871,-7.715 -4.226,-3.328 -9.972,-4.441 -15.402,-4.359 -4.395,-0.031 -8.61,0.68 -12.676,2.09 -3.418,1.121 -6.723,2.691 -9.473,4.972 -0.418,0.325 -0.804,0.672 -1.203,1" /></g></g></svg>