<?xml version="1.0" encoding="UTF-8" standalone="no"?>
<svg
   xmlns:dc="http://purl.org/dc/elements/1.1/"
   xmlns:cc="http://creativecommons.org/ns#"
   xmlns:rdf="http://www.w3.org/1999/02/22-rdf-syntax-ns#"
   xmlns:svg="http://www.w3.org/2000/svg"
   xmlns="http://www.w3.org/2000/svg"
   viewBox="0 0 601.00134 601.00159"
   height="601.00159"
   width="601.00134"
   xml:space="preserve"
   id="svg1582"
   version="1.1"><metadata
     id="metadata1588"><rdf:RDF><cc:Work
         rdf:about=""><dc:format>image/svg+xml</dc:format><dc:type
           rdf:resource="http://purl.org/dc/dcmitype/StillImage" /><dc:title></dc:title></cc:Work></rdf:RDF></metadata><defs
     id="defs1586" /><g
     transform="matrix(1.3333333,0,0,-1.3333333,0,601.00159)"
     id="g1590"><g
       id="g1592"><path
         id="path1594"
         style="fill:#ffffff;fill-opacity:1;fill-rule:nonzero;stroke:none"
         d="m 27.375,450.376 c -27.059,0.016 -27,-27.004 -27,-27.004 V 27.376 c 0,0 -0.059,-27.023 27,-27 h 396 c 27.234,-0.027 27,27 27,27 v 395.996 c 0,0 0.223,27.094 -27,27.004 z" /><path
         id="path1596"
         style="fill:#154889;fill-opacity:1;fill-rule:nonzero;stroke:none"
         d="m 27.375,441.376 c -9.937,0 -18,-8.058 -18,-18 v -396 c 0,-9.949 8.063,-18 18,-18 h 396 c 9.941,0 18,8.051 18,18 v 396 c 0,9.942 -8.059,18 -18,18 z m 45.75,-63.75 h 304.5 v -304.5 h -304.5 z" /><path
         id="path1598"
         style="fill:#000000;fill-opacity:1;fill-rule:nonzero;stroke:none"
         d="M 27.375,450.751 C 13.719,450.759 6.805,443.892 3.391,437.048 -0.023,430.204 0,423.368 0,423.368 V 27.376 C 0,27.376 -0.02,20.54 3.391,13.7 6.805,6.857 13.719,-0.011 27.375,0.001 h 396 c 13.742,-0.015 20.66,6.856 24.051,13.699 3.387,6.84 3.324,13.672 3.324,13.676 v 395.996 c 0,0.004 0.059,6.852 -3.332,13.7 -3.391,6.855 -10.309,13.722 -24.043,13.679 z m 0,-0.375 h 396 c 27.223,0.09 27,-27.004 27,-27.004 V 27.376 c 0,0 0.234,-27.027 -27,-27 h -396 c -27.059,-0.023 -27,27 -27,27 v 395.996 c 0,0 -0.059,27.02 27,27.004 z" /><path
         id="path1600"
         style="fill:#000000;fill-opacity:1;fill-rule:nonzero;stroke:none"
         d="m 260.445,308.005 c 0,-19.351 -15.711,-35.062 -35.062,-35.062 -19.367,0 -35.067,15.711 -35.067,35.062 0,19.367 15.7,35.067 35.067,35.067 19.351,0 35.062,-15.7 35.062,-35.067 z M 160.266,107.681 v 10.008 h 20.035 c 5.531,0 10.015,4.488 10.015,10.019 v 105.176 c 0,5.531 -4.484,10.016 -10.015,10.016 h -10.02 v 10.019 h 90.164 V 127.708 c 0,-5.531 4.473,-10.019 10.016,-10.019 h 20.027 v -10.008" /></g></g></svg>