<?xml version="1.0" encoding="UTF-8" standalone="no"?>
<svg
   xmlns:dc="http://purl.org/dc/elements/1.1/"
   xmlns:cc="http://creativecommons.org/ns#"
   xmlns:rdf="http://www.w3.org/1999/02/22-rdf-syntax-ns#"
   xmlns:svg="http://www.w3.org/2000/svg"
   xmlns="http://www.w3.org/2000/svg"
   viewBox="0 0 601.00012 601.00031"
   height="601.00031"
   width="601.00012"
   xml:space="preserve"
   version="1.1"
   id="svg3459"><metadata
     id="metadata3465"><rdf:RDF><cc:Work
         rdf:about=""><dc:format>image/svg+xml</dc:format><dc:type
           rdf:resource="http://purl.org/dc/dcmitype/StillImage" /><dc:title></dc:title></cc:Work></rdf:RDF></metadata><defs
     id="defs3463" /><g
     transform="matrix(1.25,0,0,-1.25,0,601.00029)"
     id="g3467"><g
       id="g3469"><path
         id="path3471"
         style="fill:#ffffff;fill-opacity:1;fill-rule:nonzero;stroke:none"
         d="M 29.199,480.402 C 0.336,480.417 0.398,451.597 0.398,451.597 l 0,-422.398 c 0,0 -0.062,-28.825 28.801,-28.797 l 422.403,0 c 29.05,-0.031 28.796,28.797 28.796,28.797 l 0,422.398 c 0,0 0.239,28.899 -28.796,28.805 l -422.403,0 z" /><path
         id="path3473"
         style="fill:#154889;fill-opacity:1;fill-rule:nonzero;stroke:none"
         d="M 29.199,470.8 C 18.598,470.8 10,462.203 10,451.601 L 10,29.199 c 0,-10.61 8.598,-19.2 19.199,-19.2 l 422.403,0 c 10.601,0 19.199,8.59 19.199,19.2 l 0,422.402 c 0,10.602 -8.598,19.199 -19.199,19.199 l -422.403,0 z m 48.801,-68 324.801,0 0,-324.801 -324.801,0 0,324.801 z" /><path
         id="path3475"
         style="fill:#000000;fill-opacity:1;fill-rule:nonzero;stroke:none"
         d="M 29.199,480.8 C 14.633,480.808 7.258,473.484 3.617,466.183 -0.023,458.882 0,451.593 0,451.593 L 0,29.199 c 0,0 -0.02,-7.289 3.617,-14.586 C 7.258,7.312 14.633,-0.012 29.199,-0.001 l 422.403,0 c 14.656,-0.015 22.035,7.313 25.652,14.614 3.613,7.297 3.547,14.582 3.547,14.586 l 0,422.398 c 0,0.004 0.062,7.309 -3.555,14.613 -3.617,7.309 -10.996,14.637 -25.644,14.59 l -422.403,0 z m 0,-0.398 422.403,0 c 29.035,0.094 28.796,-28.805 28.796,-28.805 l 0,-422.398 c 0,0 0.254,-28.828 -28.796,-28.797 l -422.403,0 C 0.336,0.374 0.398,29.199 0.398,29.199 l 0,422.398 c 0,0 -0.062,28.82 28.801,28.805 z" /><path
         id="path3477"
         style="fill:#000000;fill-opacity:1;fill-rule:evenodd;stroke:none"
         d="m 230.758,280.019 c -4.344,0 -7.863,-3.52 -7.863,-7.863 l 0,-7.867 -3.934,0 c -3.184,0.007 -6.059,-1.903 -7.281,-4.844 l -4.551,-10.887 c 0,-25.184 -6.359,-49.957 -18.492,-72.023 l -16.934,-30.844 c -2.555,-4.641 -3.894,-9.852 -3.902,-15.145 0.004,-18.164 19.66,-29.519 35.394,-20.445 7.305,4.219 11.801,12.012 11.801,20.445 l 0,96.368 7.899,0 0,-108.2 7.863,0 0,-11.797 78.656,0 0,11.797 7.863,0 0,153.442 c 0,4.343 -3.519,7.863 -7.863,7.863 l -78.656,0 z m 15.73,-15.73 47.192,0 c 4.343,0 7.867,-3.52 7.867,-7.864 l 0,-35.429 c 0,-4.344 -3.524,-7.864 -7.867,-7.864 l -47.192,0 c -4.343,0 -7.863,3.52 -7.863,7.864 l 0,35.429 c 0,4.344 3.52,7.864 7.863,7.864 z m -39.359,-64.872 0,-68.871 c 0.008,-5.632 -2.988,-10.836 -7.863,-13.652 -10.5,-6.055 -23.614,1.531 -23.598,13.652 0.008,3.965 1.012,7.868 2.926,11.34 l 16.965,30.844 c 4.671,8.519 8.546,17.453 11.57,26.687 z" /><path
         id="path3479"
         style="fill:#154889;fill-opacity:1;fill-rule:evenodd;stroke:none"
         d="m 317.293,134.464 45.238,0 0,11.801 7.867,0 0,153.422 c 0,4.344 -3.523,7.867 -7.867,7.867 l -78.679,0 c -4.344,0 -7.868,-3.523 -7.868,-7.867 l 0,-7.867 -3.933,0 c -3.176,0 -6.039,-1.91 -7.262,-4.844 l -2.082,-6.957 29.016,0 0,3.934 c 0,4.343 3.519,7.867 7.867,7.867 l 47.203,0 c 4.348,0 7.871,-3.524 7.871,-7.867 l 0,-35.407 c 0,-4.343 -3.523,-7.867 -7.871,-7.867 l -29.5,0 0,-106.215 z" /><path
         id="path3481"
         style="fill:#000000;fill-opacity:1;fill-rule:evenodd;stroke:none"
         d="m 147.977,323.894 10.957,0 c -1.348,-6.398 -4.231,-11.273 -8.653,-14.629 -4.422,-3.355 -9.562,-5.047 -15.426,-5.078 -5.394,0 -9.91,1.285 -13.546,3.855 -3.637,2.571 -6.27,5.379 -7.903,8.418 -1.125,2.008 -1.91,4.204 -2.351,6.586 -0.438,2.383 -0.657,7.7 -0.657,15.946 0,8.246 0.219,13.558 0.657,15.941 0.441,2.383 1.226,4.578 2.351,6.586 1.602,2.98 4.219,5.785 7.856,8.418 3.636,2.633 8.168,3.953 13.593,3.953 6.489,0 11.852,-1.992 16.086,-5.976 4.231,-3.981 6.895,-8.762 7.993,-14.344 l -10.957,0 c -0.848,2.633 -2.414,4.937 -4.704,6.914 -2.289,1.976 -5.093,2.965 -8.418,2.965 -2.445,0 -4.562,-0.504 -6.351,-1.508 -1.785,-1 -3.195,-2.16 -4.231,-3.481 -1.347,-1.754 -2.257,-3.683 -2.73,-5.785 -0.469,-2.097 -0.719,-6.66 -0.75,-13.683 0,-7.055 0.234,-11.633 0.703,-13.735 0.473,-2.101 1.399,-3.996 2.777,-5.691 1.036,-1.379 2.446,-2.555 4.231,-3.527 1.789,-0.973 3.906,-1.473 6.351,-1.504 5.77,0 10.141,3.121 13.122,9.359 z m 18.25,-19.145 0,68.528 9.828,0 30.996,-48.727 0.187,0 0,48.727 10.442,0 0,-68.528 -9.832,0 -30.993,48.727 -0.234,0 0,-48.727 -10.394,0 z m 88.089,27.891 0,9.832 24.364,0 0,-13.969 c 0,-6.804 -2.367,-12.558 -7.102,-17.261 -4.734,-4.703 -10.519,-7.055 -17.355,-7.055 -5.395,0 -9.91,1.285 -13.547,3.855 -3.637,2.571 -6.27,5.379 -7.899,8.418 -1.129,2.008 -1.914,4.204 -2.351,6.586 -0.442,2.383 -0.66,7.7 -0.66,15.946 0,8.246 0.218,13.558 0.66,15.941 0.437,2.383 1.222,4.578 2.351,6.586 1.598,2.98 4.215,5.785 7.852,8.418 3.637,2.633 8.168,3.953 13.594,3.953 6.488,0 11.851,-1.992 16.086,-5.976 4.23,-3.981 6.898,-8.762 7.996,-14.344 l -10.961,0 c -0.848,2.633 -2.414,4.937 -4.703,6.914 -2.289,1.976 -5.094,2.965 -8.418,2.965 -2.446,0 -4.563,-0.504 -6.352,-1.508 -1.785,-1 -3.195,-2.16 -4.23,-3.481 -1.348,-1.754 -2.258,-3.683 -2.727,-5.785 -0.473,-2.097 -0.723,-6.66 -0.754,-13.683 0,-7.055 0.235,-11.633 0.703,-13.735 0.473,-2.101 1.399,-3.996 2.778,-5.691 1.035,-1.379 2.445,-2.555 4.23,-3.527 1.789,-0.973 3.906,-1.473 6.352,-1.504 3.949,0 7.273,1.347 9.968,4.043 2.7,2.699 4.063,6.211 4.094,10.535 l 0,3.527 -13.969,0 z" /></g></g></svg>