<?xml version="1.0" encoding="UTF-8" standalone="no"?>
<svg
   xmlns:dc="http://purl.org/dc/elements/1.1/"
   xmlns:cc="http://creativecommons.org/ns#"
   xmlns:rdf="http://www.w3.org/1999/02/22-rdf-syntax-ns#"
   xmlns:svg="http://www.w3.org/2000/svg"
   xmlns="http://www.w3.org/2000/svg"
   viewBox="0 0 601 601"
   height="601"
   width="601"
   xml:space="preserve"
   id="svg25418"
   version="1.1"><metadata
     id="metadata25424"><rdf:RDF><cc:Work
         rdf:about=""><dc:format>image/svg+xml</dc:format><dc:type
           rdf:resource="http://purl.org/dc/dcmitype/StillImage" /><dc:title></dc:title></cc:Work></rdf:RDF></metadata><defs
     id="defs25422"><clipPath
       id="clipPath25446"
       clipPathUnits="userSpaceOnUse"><path
         id="path25444"
         d="M 115,155 H 351 V 276 H 115 Z" /></clipPath></defs><g
     transform="matrix(1.3333333,0,0,-1.3333333,0,601)"
     id="g25426"><g
       id="g25428"><path
         id="path25430"
         style="fill:#ffffff;fill-opacity:1;fill-rule:nonzero;stroke:none"
         d="m 30.375,0.375 c -16.57,0 -30,13.441 -30,29.996 v 389.992 c 0,16.571 13.43,30.012 30,30.012 h 390 c 16.57,0 30,-13.441 30,-30.012 V 30.371 c 0,-16.555 -13.43,-29.996 -30,-29.996 z" /><path
         id="path25432"
         style="fill:#154889;fill-opacity:1;fill-rule:nonzero;stroke:none"
         d="m 30.383,439.125 c -10.356,0 -18.758,-8.391 -18.758,-18.746 V 30.383 c 0,-10.356 8.402,-18.758 18.758,-18.758 h 389.984 c 10.356,0 18.758,8.402 18.758,18.758 v 389.996 c 0,10.355 -8.402,18.746 -18.758,18.746 z M 75.07,375.676 H 375.676 V 75.07 H 75.07 Z" /><path
         id="path25434"
         style="fill:#000000;fill-opacity:1;fill-rule:nonzero;stroke:none"
         d="M 30.375,450.75 C 13.602,450.75 0,437.137 0,420.363 V 30.371 C 0,13.613 13.602,0 30.375,0 h 390 c 16.773,0 30.375,13.613 30.375,30.371 v 389.992 c 0,16.774 -13.602,30.387 -30.375,30.387 z m 0,-0.375 h 390 c 16.57,0 30,-13.441 30,-30.012 V 30.371 c 0,-16.555 -13.43,-29.996 -30,-29.996 h -390 c -16.57,0 -30,13.441 -30,29.996 v 389.992 c 0,16.571 13.43,30.012 30,30.012 z" /></g><g
       id="g25436"><g
         transform="translate(0,-0.25)"
         id="g25438"><g
           id="g25440"><g
             clip-path="url(#clipPath25446)"
             id="g25442"><g
               id="g25448"><path
                 id="path25450"
                 style="fill:#000000;fill-opacity:1;fill-rule:nonzero;stroke:none"
                 d="m 315.066,265.695 c -1.14,-12.496 -4.41,-24.703 -9.66,-36.097 l 30.149,17.414 c 4.797,2.754 6.437,8.89 3.668,13.672 -1.801,3.101 -5.086,5.011 -8.68,5.011 z m -179.843,10.016 h 195.32 c 11.066,0 20.039,-8.969 20.039,-20.035 0,-7.156 -3.816,-13.77 -10.019,-17.344 L 295.43,212.266 c -7.317,-10.375 -16.352,-19.414 -26.742,-26.703 h -86.637 c -29.352,20.632 -46.828,54.265 -46.828,90.148 M 115.188,175.547 h 220.367 c 0,-11.067 -8.961,-20.035 -20.024,-20.035 H 135.223 c -11.067,0 -20.035,8.968 -20.035,20.035" /></g></g></g></g></g></g></svg>