<?xml version="1.0" encoding="UTF-8" standalone="no"?>
<svg
   xmlns:dc="http://purl.org/dc/elements/1.1/"
   xmlns:cc="http://creativecommons.org/ns#"
   xmlns:rdf="http://www.w3.org/1999/02/22-rdf-syntax-ns#"
   xmlns:svg="http://www.w3.org/2000/svg"
   xmlns="http://www.w3.org/2000/svg"
   viewBox="0 0 601.00012 601.00031"
   height="601.00031"
   width="601.00012"
   xml:space="preserve"
   version="1.1"
   id="svg5715"><metadata
     id="metadata5721"><rdf:RDF><cc:Work
         rdf:about=""><dc:format>image/svg+xml</dc:format><dc:type
           rdf:resource="http://purl.org/dc/dcmitype/StillImage" /><dc:title></dc:title></cc:Work></rdf:RDF></metadata><defs
     id="defs5719" /><g
     transform="matrix(1.25,0,0,-1.25,0,601.00029)"
     id="g5723"><g
       id="g5725"><path
         id="path5727"
         style="fill:#ffffff;fill-opacity:1;fill-rule:nonzero;stroke:none"
         d="M 29.199,480.402 C 0.336,480.417 0.398,451.597 0.398,451.597 l 0,-422.398 c 0,0 -0.062,-28.825 28.801,-28.797 l 422.403,0 c 29.05,-0.031 28.796,28.797 28.796,28.797 l 0,422.398 c 0,0 0.239,28.899 -28.796,28.805 l -422.403,0 z" /><path
         id="path5729"
         style="fill:#154889;fill-opacity:1;fill-rule:nonzero;stroke:none"
         d="M 29.199,470.8 C 18.598,470.8 10,462.203 10,451.601 L 10,29.199 c 0,-10.61 8.598,-19.2 19.199,-19.2 l 422.403,0 c 10.601,0 19.199,8.59 19.199,19.2 l 0,422.402 c 0,10.602 -8.598,19.199 -19.199,19.199 l -422.403,0 z m 48.801,-68 324.801,0 0,-324.801 -324.801,0 0,324.801 z" /><path
         id="path5731"
         style="fill:#000000;fill-opacity:1;fill-rule:nonzero;stroke:none"
         d="M 29.199,480.8 C 14.633,480.808 7.258,473.484 3.617,466.183 -0.023,458.882 0,451.593 0,451.593 L 0,29.199 c 0,0 -0.02,-7.289 3.617,-14.586 C 7.258,7.312 14.633,-0.012 29.199,-0.001 l 422.403,0 c 14.656,-0.015 22.035,7.313 25.652,14.614 3.613,7.297 3.547,14.582 3.547,14.586 l 0,422.398 c 0,0.004 0.062,7.309 -3.555,14.613 -3.617,7.309 -10.996,14.637 -25.644,14.59 l -422.403,0 z m 0,-0.398 422.403,0 c 29.035,0.094 28.796,-28.805 28.796,-28.805 l 0,-422.398 c 0,0 0.254,-28.828 -28.796,-28.797 l -422.403,0 C 0.336,0.374 0.398,29.199 0.398,29.199 l 0,422.398 c 0,0 -0.062,28.82 28.801,28.805 z" /><path
         id="path5733"
         style="fill:#000000;fill-opacity:1;fill-rule:nonzero;stroke:none"
         d="m 372.398,194.714 -30.457,-10.152 -10.164,0 c 0,14.016 -11.371,25.379 -25.386,25.379 -14.016,0 -25.375,-11.363 -25.375,-25.379 l -96.469,0 c 0,14.016 -11.359,25.379 -25.387,25.379 -14.015,0 -25.375,-11.363 -25.375,-25.379 l -20.316,0 c -2.801,0 -5.071,2.269 -5.071,5.07 l 0,28.949 c 0,2.137 1.321,4.032 3.321,4.77 l 24.097,8.828 c 1.977,0.731 3.676,2.043 4.872,3.781 l 18.703,27.211 c 1.156,1.676 2.937,2.821 4.933,3.176 l 25.297,4.52 0,5.07 -67.914,0 c -2.019,0 -3.957,0.812 -5.383,2.238 l -6.449,6.434 c -0.945,0.949 -1.477,2.242 -1.477,3.594 l 0,5.945 c 0,1.344 0.532,2.637 1.477,3.594 l 27.066,17.535 c 1.25,0.832 2.715,1.281 4.227,1.281 l 139.848,0 20.304,-10.152 65.996,0 c 2.801,0 5.082,-2.27 5.082,-5.082 l 0,-106.61 z m -45.703,-10.152 c 0,-11.215 -9.09,-20.316 -20.304,-20.316 -11.215,0 -20.305,9.101 -20.305,20.316 0,11.215 9.09,20.305 20.305,20.305 11.214,0 20.304,-9.09 20.304,-20.305 z m -147.23,0 c 0,-11.215 -9.09,-20.316 -20.305,-20.316 -11.215,0 -20.305,9.101 -20.305,20.316 0,11.215 9.09,20.305 20.305,20.305 11.215,0 20.305,-9.09 20.305,-20.305" /><path
         id="path5735"
         style="fill:#ffffff;fill-opacity:1;fill-rule:nonzero;stroke:none"
         d="m 187.09,261.734 c 1.406,0 2.531,-1.145 2.531,-2.543 l 0,-23.469 c 0,-1.355 -1.062,-2.48 -2.418,-2.531 l -39.265,-1.75 c -1.125,-0.051 -2.075,0.824 -2.125,1.937 -0.024,0.438 0.101,0.864 0.343,1.219 l 16.578,24.867 c 0.938,1.414 2.528,2.27 4.227,2.27 l 20.129,0 z m -35.539,24.367 c -1.406,0 -2.543,1.133 -2.543,2.539 l 0,15.223 c 0,1.406 1.137,2.543 2.543,2.543 l 35.539,0 c 1.406,0 2.531,-1.137 2.531,-2.543 l 0,-15.223 c 0,-1.406 -1.125,-2.539 -2.531,-2.539 l -35.539,0 z M 293.707,245.48 c -1.406,0 -2.539,1.133 -2.539,2.539 l 0,25.387 c 0,1.406 1.133,2.531 2.539,2.531 l 35.539,0 c 1.395,0 2.531,-1.125 2.531,-2.531 l 0,-25.387 c 0,-1.406 -1.136,-2.539 -2.531,-2.539 l -35.539,0 z m -66.008,-50.766 c -1.394,0 -2.531,1.137 -2.531,2.543 l 0,76.149 c 0,1.406 1.137,2.531 2.531,2.531 l 40.61,0 c 1.418,0 2.55,-1.125 2.55,-2.531 l 0,-76.149 c 0,-1.406 -1.132,-2.543 -2.55,-2.543" /></g></g></svg>