<?xml version="1.0" encoding="UTF-8" standalone="no"?>
<svg
   xmlns:dc="http://purl.org/dc/elements/1.1/"
   xmlns:cc="http://creativecommons.org/ns#"
   xmlns:rdf="http://www.w3.org/1999/02/22-rdf-syntax-ns#"
   xmlns:svg="http://www.w3.org/2000/svg"
   xmlns="http://www.w3.org/2000/svg"
   viewBox="0 0 601.00012 601.00031"
   height="601.00031"
   width="601.00012"
   xml:space="preserve"
   version="1.1"
   id="svg3585"><metadata
     id="metadata3591"><rdf:RDF><cc:Work
         rdf:about=""><dc:format>image/svg+xml</dc:format><dc:type
           rdf:resource="http://purl.org/dc/dcmitype/StillImage" /><dc:title></dc:title></cc:Work></rdf:RDF></metadata><defs
     id="defs3589" /><g
     transform="matrix(1.25,0,0,-1.25,0,601.00029)"
     id="g3593"><g
       id="g3595"><path
         id="path3597"
         style="fill:#ffffff;fill-opacity:1;fill-rule:nonzero;stroke:none"
         d="M 29.199,480.402 C 0.336,480.417 0.398,451.597 0.398,451.597 l 0,-422.398 c 0,0 -0.062,-28.825 28.801,-28.797 l 422.403,0 c 29.05,-0.031 28.796,28.797 28.796,28.797 l 0,422.398 c 0,0 0.239,28.899 -28.796,28.805 l -422.403,0 z" /><path
         id="path3599"
         style="fill:#154889;fill-opacity:1;fill-rule:nonzero;stroke:none"
         d="M 29.199,470.8 C 18.598,470.8 10,462.203 10,451.601 L 10,29.199 c 0,-10.61 8.598,-19.2 19.199,-19.2 l 422.403,0 c 10.601,0 19.199,8.59 19.199,19.2 l 0,422.402 c 0,10.602 -8.598,19.199 -19.199,19.199 l -422.403,0 z m 48.801,-68 324.801,0 0,-324.801 -324.801,0 0,324.801 z" /><path
         id="path3601"
         style="fill:#000000;fill-opacity:1;fill-rule:nonzero;stroke:none"
         d="M 29.199,480.8 C 14.633,480.808 7.258,473.484 3.617,466.183 -0.023,458.882 0,451.593 0,451.593 L 0,29.199 c 0,0 -0.02,-7.289 3.617,-14.586 C 7.258,7.312 14.633,-0.012 29.199,-0.001 l 422.403,0 c 14.656,-0.015 22.035,7.313 25.652,14.614 3.613,7.297 3.547,14.582 3.547,14.586 l 0,422.398 c 0,0.004 0.062,7.309 -3.555,14.613 -3.617,7.309 -10.996,14.637 -25.644,14.59 l -422.403,0 z m 0,-0.398 422.403,0 c 29.035,0.094 28.796,-28.805 28.796,-28.805 l 0,-422.398 c 0,0 0.254,-28.828 -28.796,-28.797 l -422.403,0 C 0.336,0.374 0.398,29.199 0.398,29.199 l 0,422.398 c 0,0 -0.062,28.82 28.801,28.805 z" /><path
         id="path3603"
         style="fill:#000000;fill-opacity:1;fill-rule:evenodd;stroke:none"
         d="m 230.465,281.238 c -4.477,-0.004 -8.106,-3.633 -8.11,-8.11 l 0,-8.105 -4.05,0 c -3.282,0.004 -6.246,-1.965 -7.508,-4.992 l -4.688,-11.223 c 0,-25.957 -6.558,-51.496 -19.062,-74.242 L 169.59,142.773 c -2.633,-4.781 -4.012,-10.152 -4.02,-15.609 0.004,-18.723 20.266,-30.426 36.485,-21.075 7.527,4.348 12.164,12.379 12.16,21.075 l 0,99.332 8.14,0 0,-111.528 8.11,0 0,-12.164 81.074,0 0,12.164 8.106,0 0,158.16 c 0,4.477 -3.629,8.106 -8.106,8.11 l -81.074,0 z m 16.215,-16.215 48.644,0 c 4.477,-0.004 8.106,-3.633 8.106,-8.109 l 0,-36.516 c 0,-4.477 -3.629,-8.106 -8.106,-8.109 l -48.644,0 c -4.477,0.003 -8.106,3.632 -8.11,8.109 l 0,36.516 c 0.004,4.476 3.633,8.105 8.11,8.109 z m -40.571,-66.871 0,-70.988 c 0.008,-5.805 -3.082,-11.172 -8.109,-14.075 -10.82,-6.238 -24.336,1.582 -24.32,14.075 0.004,4.085 1.043,8.109 3.015,11.691 l 17.489,31.793 c 4.812,8.781 8.808,17.988 11.925,27.504 z" /><path
         id="path3605"
         style="fill:#154889;fill-opacity:1;fill-rule:evenodd;stroke:none"
         d="m 319.66,131.203 46.629,0 0,12.164 8.113,0 0,158.14 c 0,4.481 -3.632,8.11 -8.113,8.11 l -81.098,0 c -4.476,0 -8.109,-3.629 -8.109,-8.11 l 0,-8.109 -4.055,0 c -3.273,0 -6.226,-1.969 -7.484,-4.988 l -2.145,-7.176 29.903,0 0,4.055 c 0,4.48 3.633,8.109 8.113,8.109 l 48.656,0 c 4.481,0 8.11,-3.629 8.11,-8.109 l 0,-36.493 c 0,-4.48 -3.629,-8.109 -8.11,-8.109 l -30.41,0 0,-109.484 z" /><path
         id="path3607"
         style="fill:#000000;fill-opacity:1;fill-rule:nonzero;stroke:none"
         d="m 145.883,305.992 0,31.429 -28.563,0 0,-31.429 -10.918,0 0,72 10.918,0 0,-30.836 28.563,0 0,30.836 10.922,0 0,-72 -10.922,0 z" /><path
         id="path3609"
         style="fill:#000000;fill-opacity:1;fill-rule:nonzero;stroke:none"
         d="m 170.766,278.906 0,6.933 20.164,25.219 c 0.777,0.992 1.285,1.898 1.519,2.727 0.239,0.824 0.356,1.625 0.356,2.402 0,1.793 -0.637,3.457 -1.91,4.988 -1.274,1.559 -3.008,2.336 -5.204,2.336 -2.003,0 -3.722,-0.672 -5.164,-2.015 -1.414,-1.321 -2.203,-3.137 -2.367,-5.45 l -7.394,0 c 0.023,4.176 1.449,7.688 4.281,10.543 2.828,2.875 6.187,4.317 10.082,4.317 4.289,0 7.863,-1.453 10.715,-4.352 2.879,-2.879 4.316,-6.355 4.316,-10.437 0,-3.489 -1.023,-6.508 -3.078,-9.055 l -16.59,-20.801 19.668,0 0,-7.355 -29.394,0 z" /></g></g></svg>