<?xml version="1.0" encoding="UTF-8" standalone="no"?>
<svg
   xmlns:dc="http://purl.org/dc/elements/1.1/"
   xmlns:cc="http://creativecommons.org/ns#"
   xmlns:rdf="http://www.w3.org/1999/02/22-rdf-syntax-ns#"
   xmlns:svg="http://www.w3.org/2000/svg"
   xmlns="http://www.w3.org/2000/svg"
   viewBox="0 0 601 601"
   height="601"
   width="601"
   xml:space="preserve"
   id="svg13516"
   version="1.1"><metadata
     id="metadata13522"><rdf:RDF><cc:Work
         rdf:about=""><dc:format>image/svg+xml</dc:format><dc:type
           rdf:resource="http://purl.org/dc/dcmitype/StillImage" /><dc:title></dc:title></cc:Work></rdf:RDF></metadata><defs
     id="defs13520" /><g
     transform="matrix(1.3333333,0,0,-1.3333333,0,601)"
     id="g13524"><g
       id="g13526"><path
         id="path13528"
         style="fill:#ffffff;fill-opacity:1;fill-rule:nonzero;stroke:none"
         d="m 30.375,0.375 c -16.57,0 -30,13.441 -30,29.996 v 389.992 c 0,16.571 13.43,30.012 30,30.012 h 390 c 16.57,0 30,-13.441 30,-30.012 V 30.371 c 0,-16.555 -13.43,-29.996 -30,-29.996 z" /><path
         id="path13530"
         style="fill:#154889;fill-opacity:1;fill-rule:nonzero;stroke:none"
         d="m 30.383,11.625 c -10.356,0 -18.758,8.402 -18.758,18.758 v 389.996 c 0,10.355 8.402,18.746 18.758,18.746 h 389.984 c 10.356,0 18.758,-8.391 18.758,-18.746 V 30.383 c 0,-10.356 -8.402,-18.758 -18.758,-18.758 z" /><path
         id="path13532"
         style="fill:#000000;fill-opacity:1;fill-rule:nonzero;stroke:none"
         d="M 30.375,450.75 C 13.602,450.75 0,437.137 0,420.363 V 30.371 C 0,13.613 13.602,0 30.375,0 h 390 c 16.773,0 30.375,13.613 30.375,30.371 v 389.992 c 0,16.774 -13.602,30.387 -30.375,30.387 z m 0,-0.375 h 390 c 16.57,0 30,-13.441 30,-30.012 V 30.371 c 0,-16.555 -13.43,-29.996 -30,-29.996 h -390 c -16.57,0 -30,13.441 -30,29.996 v 389.992 c 0,16.571 13.43,30.012 30,30.012 z" /><path
         id="path13534"
         style="fill:#ffffff;fill-opacity:1;fill-rule:nonzero;stroke:none"
         d="M 75.07,375.676 H 375.675 V 75.071 H 75.07 Z" /><path
         id="path13536"
         style="fill:#000000;fill-opacity:1;fill-rule:nonzero;stroke:none"
         d="m 184.527,230.09 -59.453,59.453 c -12.222,12.207 -19.078,28.777 -19.078,46.051 0,5.527 4.481,10.019 10.024,10.019 2.652,0 5.195,-1.058 7.078,-2.929 l 99.777,-99.778 122.672,-116.043 c 0.937,-11.027 -7.254,-20.73 -18.27,-21.66 -1.125,-0.074 -2.265,-0.074 -3.39,0 L 202.516,233.508 c -3.805,4.015 -10.141,4.203 -14.172,0.398 -0.074,-0.074 -0.149,-0.152 -0.188,-0.187 z m 59.864,-0.652 -15.379,14.542 21.953,20.758 c 5.871,5.555 9.254,13.231 9.398,21.305 l 0.075,4.996 c 0.187,9.543 4.867,18.438 12.632,23.965 l 42.274,30.055 c 1.351,0.968 3.234,0.648 4.203,-0.704 0.848,-1.207 0.703,-2.839 -0.34,-3.871 l -37.223,-37.222 c -1.179,-1.18 -1.179,-3.09 0,-4.254 1.164,-1.168 3.075,-1.168 4.243,0 l 37.238,37.222 c 1.168,1.18 3.074,1.18 4.242,0 1.18,-1.167 1.18,-3.078 0,-4.242 l -37.223,-37.222 c -1.183,-1.18 -1.183,-3.09 0,-4.258 1.164,-1.18 3.071,-1.18 4.254,0 l 37.223,37.222 c 1.18,1.168 3.078,1.168 4.254,0 1.164,-1.179 1.164,-3.078 0,-4.253 L 298.98,286.254 c -1.164,-1.18 -1.164,-3.074 0,-4.254 1.18,-1.168 3.079,-1.168 4.254,0 l 37.223,37.223 c 1.18,1.179 3.078,1.179 4.254,0 1.035,-1.035 1.184,-2.664 0.34,-3.86 L 314.988,273.09 c -5.531,-7.781 -14.41,-12.473 -23.957,-12.645 l -5.008,-0.074 c -8.074,-0.152 -15.75,-3.527 -21.289,-9.398 z M 221.934,205.695 126.863,105.203 c -11.031,-0.941 -20.718,7.238 -21.648,18.266 -0.113,1.129 -0.113,2.265 0,3.394 l 100.945,95.496 z" /></g></g></svg>