<?xml version="1.0" encoding="UTF-8" standalone="no"?>
<svg
   xmlns:dc="http://purl.org/dc/elements/1.1/"
   xmlns:cc="http://creativecommons.org/ns#"
   xmlns:rdf="http://www.w3.org/1999/02/22-rdf-syntax-ns#"
   xmlns:svg="http://www.w3.org/2000/svg"
   xmlns="http://www.w3.org/2000/svg"
   viewBox="0 0 601.00012 601.00031"
   height="601.00031"
   width="601.00012"
   xml:space="preserve"
   version="1.1"
   id="svg6691"><metadata
     id="metadata6697"><rdf:RDF><cc:Work
         rdf:about=""><dc:format>image/svg+xml</dc:format><dc:type
           rdf:resource="http://purl.org/dc/dcmitype/StillImage" /><dc:title></dc:title></cc:Work></rdf:RDF></metadata><defs
     id="defs6695" /><g
     transform="matrix(1.25,0,0,-1.25,0,601.00029)"
     id="g6699"><g
       id="g6701"><path
         id="path6703"
         style="fill:#ffffff;fill-opacity:1;fill-rule:nonzero;stroke:none"
         d="M 29.199,480.402 C 0.336,480.417 0.398,451.597 0.398,451.597 l 0,-422.398 c 0,0 -0.062,-28.825 28.801,-28.797 l 422.403,0 c 29.05,-0.031 28.796,28.797 28.796,28.797 l 0,422.398 c 0,0 0.239,28.899 -28.796,28.805 l -422.403,0 z" /><path
         id="path6705"
         style="fill:#154889;fill-opacity:1;fill-rule:nonzero;stroke:none"
         d="M 29.199,470.8 C 18.598,470.8 10,462.203 10,451.601 L 10,29.199 c 0,-10.61 8.598,-19.2 19.199,-19.2 l 422.403,0 c 10.601,0 19.199,8.59 19.199,19.2 l 0,422.402 c 0,10.602 -8.598,19.199 -19.199,19.199 l -422.403,0 z m 48.801,-68 324.801,0 0,-324.801 -324.801,0 0,324.801 z" /><path
         id="path6707"
         style="fill:#000000;fill-opacity:1;fill-rule:nonzero;stroke:none"
         d="M 29.199,480.8 C 14.633,480.808 7.258,473.484 3.617,466.183 -0.023,458.882 0,451.593 0,451.593 L 0,29.199 c 0,0 -0.02,-7.289 3.617,-14.586 C 7.258,7.312 14.633,-0.012 29.199,-0.001 l 422.403,0 c 14.656,-0.015 22.035,7.313 25.652,14.614 3.613,7.297 3.547,14.582 3.547,14.586 l 0,422.398 c 0,0.004 0.062,7.309 -3.555,14.613 -3.617,7.309 -10.996,14.637 -25.644,14.59 l -422.403,0 z m 0,-0.398 422.403,0 c 29.035,0.094 28.796,-28.805 28.796,-28.805 l 0,-422.398 c 0,0 0.254,-28.828 -28.796,-28.797 l -422.403,0 C 0.336,0.374 0.398,29.199 0.398,29.199 l 0,422.398 c 0,0 -0.062,28.82 28.801,28.805 z" /><path
         id="path6709"
         style="fill:#000000;fill-opacity:1;fill-rule:nonzero;stroke:none"
         d="m 346.402,271.476 -24.461,-8.156 -8.16,0 c 0,11.258 -9.133,20.379 -20.386,20.379 -11.254,0 -20.379,-9.121 -20.379,-20.379 l -77.465,0 c 0,11.258 -9.121,20.379 -20.387,20.379 -11.254,0 -20.379,-9.121 -20.379,-20.379 l -16.312,0 c -2.25,0 -4.071,1.824 -4.071,4.074 l 0,23.246 c 0,1.715 1.059,3.234 2.664,3.828 l 19.352,7.094 c 1.59,0.586 2.953,1.637 3.914,3.035 l 15.016,21.848 c 0.929,1.347 2.359,2.265 3.965,2.551 l 20.312,3.628 0,4.075 -54.539,0 c -1.621,0 -3.176,0.652 -4.32,1.797 l -5.176,5.168 c -0.762,0.761 -1.188,1.796 -1.188,2.882 l 0,4.778 c 0,1.078 0.426,2.113 1.188,2.882 l 21.73,14.083 c 1.004,0.667 2.184,1.027 3.395,1.027 l 112.301,0 16.304,-8.152 53,0 c 2.25,0 4.082,-1.821 4.082,-4.079 l 0,-85.609 z m -36.703,-8.156 c 0,-9.004 -7.301,-16.313 -16.304,-16.313 -9.008,0 -16.305,7.309 -16.305,16.313 0,9.008 7.297,16.308 16.305,16.308 9.003,0 16.304,-7.3 16.304,-16.308 z m -118.23,0 c 0,-9.004 -7.297,-16.313 -16.305,-16.313 -9.004,0 -16.305,7.309 -16.305,16.313 0,9.008 7.301,16.308 16.305,16.308 9.008,0 16.305,-7.3 16.305,-16.308" /><path
         id="path6711"
         style="fill:#ffffff;fill-opacity:1;fill-rule:nonzero;stroke:none"
         d="m 197.59,325.292 c 1.129,0 2.035,-0.921 2.035,-2.039 l 0,-18.847 c 0,-1.09 -0.855,-1.992 -1.941,-2.035 l -31.532,-1.403 c -0.906,-0.043 -1.664,0.66 -1.707,1.555 -0.015,0.351 0.082,0.695 0.278,0.976 l 13.308,19.969 c 0.754,1.137 2.035,1.824 3.399,1.824 l 16.16,0 z m -28.539,19.567 c -1.129,0 -2.039,0.91 -2.039,2.039 l 0,12.226 c 0,1.129 0.91,2.04 2.039,2.04 l 28.539,0 c 1.129,0 2.035,-0.911 2.035,-2.04 l 0,-12.226 c 0,-1.129 -0.906,-2.039 -2.035,-2.039 l -28.539,0 z m 114.16,-32.621 c -1.129,0 -2.043,0.914 -2.043,2.043 l 0,20.386 c 0,1.129 0.914,2.032 2.043,2.032 l 28.539,0 c 1.121,0 2.031,-0.903 2.031,-2.032 l 0,-20.386 c 0,-1.129 -0.91,-2.043 -2.031,-2.043 l -28.539,0 z m -53.008,-40.762 c -1.121,0 -2.031,0.91 -2.031,2.039 l 0,61.152 c 0,1.129 0.91,2.032 2.031,2.032 l 32.613,0 c 1.137,0 2.047,-0.903 2.047,-2.032 l 0,-61.152 c 0,-1.129 -0.91,-2.039 -2.047,-2.039" /><path
         id="path6713"
         style="fill:#000000;fill-opacity:1;fill-rule:nonzero;stroke:none"
         d="m 150.137,125.878 0,7.18 29.504,0 -7.778,37.102 c -0.097,0.453 -0.097,0.902 -0.011,1.351 l 7.261,41.309 c 0.313,1.734 1.801,2.976 3.547,2.976 l 137.133,0 c 1.734,0 3.234,-1.242 3.535,-2.976 l 7.285,-41.364 c 0.067,-0.41 0.067,-0.832 0,-1.253 l -7.285,-41.364 c -0.301,-1.707 -1.801,-2.961 -3.535,-2.961 l -47.34,0 c 0,9.922 -8.051,17.985 -17.984,17.985 -9.938,0 -17.989,-8.063 -17.989,-17.985" /><path
         id="path6715"
         style="fill:#ffffff;fill-opacity:1;fill-rule:nonzero;stroke:none"
         d="m 196.902,133.058 c -0.996,0 -1.8,0.816 -1.8,1.813 l 0,64.738 c 0,0.996 0.808,1.801 1.8,1.801 l 28.782,0 c 0.996,0 1.8,-0.805 1.8,-1.801 l 0,-64.738 c 0,-0.997 -0.804,-1.813 -1.8,-1.813" /><path
         id="path6717"
         style="fill:#ffffff;fill-opacity:1;fill-rule:nonzero;stroke:none"
         d="m 268.848,178.023 c -0.996,0 -1.801,0.816 -1.801,1.812 l 0,19.774 c 0,0.996 0.805,1.801 1.801,1.801 l 41.363,0 c 0.996,0 1.801,-0.805 1.801,-1.801 l 0,-19.774 c 0,-0.996 -0.805,-1.812 -1.801,-1.812" /><path
         id="path6719"
         style="fill:#000000;fill-opacity:1;fill-rule:nonzero;stroke:none"
         d="m 268.848,125.878 c 0,-7.957 -6.453,-14.398 -14.383,-14.398 -7.957,0 -14.399,6.441 -14.399,14.398 0,7.942 6.442,14.383 14.399,14.383 7.93,0 14.383,-6.441 14.383,-14.383" /></g></g></svg>