<?xml version="1.0" encoding="UTF-8" standalone="no"?>
<svg
   xmlns:dc="http://purl.org/dc/elements/1.1/"
   xmlns:cc="http://creativecommons.org/ns#"
   xmlns:rdf="http://www.w3.org/1999/02/22-rdf-syntax-ns#"
   xmlns:svg="http://www.w3.org/2000/svg"
   xmlns="http://www.w3.org/2000/svg"
   viewBox="0 0 601.00134 601.00159"
   height="601.00159"
   width="601.00134"
   xml:space="preserve"
   id="svg1607"
   version="1.1"><metadata
     id="metadata1613"><rdf:RDF><cc:Work
         rdf:about=""><dc:format>image/svg+xml</dc:format><dc:type
           rdf:resource="http://purl.org/dc/dcmitype/StillImage" /><dc:title></dc:title></cc:Work></rdf:RDF></metadata><defs
     id="defs1611" /><g
     transform="matrix(1.3333333,0,0,-1.3333333,0,601.00159)"
     id="g1615"><g
       id="g1617"><path
         id="path1619"
         style="fill:#ffffff;fill-opacity:1;fill-rule:nonzero;stroke:none"
         d="m 27.375,450.376 c -27.059,0.016 -27,-27.004 -27,-27.004 V 27.376 c 0,0 -0.059,-27.023 27,-27 h 396 c 27.234,-0.027 27,27 27,27 v 395.996 c 0,0 0.223,27.094 -27,27.004 z" /><path
         id="path1621"
         style="fill:#154889;fill-opacity:1;fill-rule:nonzero;stroke:none"
         d="m 27.375,441.376 c -9.937,0 -18,-8.058 -18,-18 v -396 c 0,-9.949 8.063,-18 18,-18 h 396 c 9.941,0 18,8.051 18,18 v 396 c 0,9.942 -8.059,18 -18,18 z m 45.75,-63.75 h 304.5 v -304.5 h -304.5 z" /><path
         id="path1623"
         style="fill:#000000;fill-opacity:1;fill-rule:nonzero;stroke:none"
         d="M 27.375,450.751 C 13.719,450.759 6.805,443.892 3.391,437.048 -0.023,430.204 0,423.368 0,423.368 V 27.376 C 0,27.376 -0.02,20.54 3.391,13.7 6.805,6.857 13.719,-0.011 27.375,0.001 h 396 c 13.742,-0.015 20.66,6.856 24.051,13.699 3.387,6.84 3.324,13.672 3.324,13.676 v 395.996 c 0,0.004 0.059,6.852 -3.332,13.7 -3.391,6.855 -10.309,13.722 -24.043,13.679 z m 0,-0.375 h 396 c 27.223,0.09 27,-27.004 27,-27.004 V 27.376 c 0,0 0.234,-27.027 -27,-27 h -396 c -27.059,-0.023 -27,27 -27,27 v 395.996 c 0,0 -0.059,27.02 27,27.004 z" /><path
         id="path1625"
         style="fill:#000000;fill-opacity:1;fill-rule:nonzero;stroke:none"
         d="m 317.801,262.704 c -6.281,6.282 -21.352,1.383 -33.676,-10.937 -12.324,-12.324 -17.219,-27.406 -10.937,-33.676 6.281,-6.293 21.351,-1.387 33.675,10.938 12.325,12.324 17.219,27.406 10.938,33.675 z m -59.867,-47.351 c 4.144,0 7.507,3.363 7.507,7.519 0,2.395 -1.148,4.657 -3.089,6.075 -6.961,5.054 -14.797,8.792 -23.114,11.019 -27.121,7.258 -55.687,7.258 -82.812,0 -8.313,-2.23 -16.153,-5.965 -23.113,-11.019 -3.352,-2.438 -4.102,-7.133 -1.657,-10.504 1.41,-1.934 3.668,-3.094 6.074,-3.094 z m 87.64,-55.086 H 325.547 V 180.29 H 125.211 v -20.023 h -20.035 v 90.148 c 4.148,5.532 11.996,6.657 17.527,2.496 0.953,-0.703 1.793,-1.554 2.512,-2.496 v -40.062 h 160.262 c 22.128,0 40.074,17.937 40.074,40.062 v 50.078 c 4.144,5.532 11.992,6.657 17.523,2.512 0.946,-0.715 1.793,-1.555 2.5,-2.512" /></g></g></svg>