<?xml version="1.0" encoding="UTF-8" standalone="no"?>
<svg
   xmlns:dc="http://purl.org/dc/elements/1.1/"
   xmlns:cc="http://creativecommons.org/ns#"
   xmlns:rdf="http://www.w3.org/1999/02/22-rdf-syntax-ns#"
   xmlns:svg="http://www.w3.org/2000/svg"
   xmlns="http://www.w3.org/2000/svg"
   viewBox="0 0 601.00012 601.00031"
   height="601.00031"
   width="601.00012"
   xml:space="preserve"
   version="1.1"
   id="svg4484"><metadata
     id="metadata4490"><rdf:RDF><cc:Work
         rdf:about=""><dc:format>image/svg+xml</dc:format><dc:type
           rdf:resource="http://purl.org/dc/dcmitype/StillImage" /><dc:title></dc:title></cc:Work></rdf:RDF></metadata><defs
     id="defs4488" /><g
     transform="matrix(1.25,0,0,-1.25,0,601.00029)"
     id="g4492"><g
       id="g4494"><path
         id="path4496"
         style="fill:#ffffff;fill-opacity:1;fill-rule:nonzero;stroke:none"
         d="M 29.199,480.402 C 0.336,480.417 0.398,451.597 0.398,451.597 l 0,-422.398 c 0,0 -0.062,-28.825 28.801,-28.797 l 422.403,0 c 29.05,-0.031 28.796,28.797 28.796,28.797 l 0,422.398 c 0,0 0.239,28.899 -28.796,28.805 l -422.403,0 z" /><path
         id="path4498"
         style="fill:#154889;fill-opacity:1;fill-rule:nonzero;stroke:none"
         d="M 29.199,470.8 C 18.598,470.8 10,462.203 10,451.601 L 10,29.199 c 0,-10.61 8.598,-19.2 19.199,-19.2 l 422.403,0 c 10.601,0 19.199,8.59 19.199,19.2 l 0,422.402 c 0,10.602 -8.598,19.199 -19.199,19.199 l -422.403,0 z m 48.801,-68 324.801,0 0,-324.801 -324.801,0 0,324.801 z" /><path
         id="path4500"
         style="fill:#000000;fill-opacity:1;fill-rule:nonzero;stroke:none"
         d="M 29.199,480.8 C 14.633,480.808 7.258,473.484 3.617,466.183 -0.023,458.882 0,451.593 0,451.593 L 0,29.199 c 0,0 -0.02,-7.289 3.617,-14.586 C 7.258,7.312 14.633,-0.012 29.199,-0.001 l 422.403,0 c 14.656,-0.015 22.035,7.313 25.652,14.614 3.613,7.297 3.547,14.582 3.547,14.586 l 0,422.398 c 0,0.004 0.062,7.309 -3.555,14.613 -3.617,7.309 -10.996,14.637 -25.644,14.59 l -422.403,0 z m 0,-0.398 422.403,0 c 29.035,0.094 28.796,-28.805 28.796,-28.805 l 0,-422.398 c 0,0 0.254,-28.828 -28.796,-28.797 l -422.403,0 C 0.336,0.374 0.398,29.199 0.398,29.199 l 0,422.398 c 0,0 -0.062,28.82 28.801,28.805 z" /><path
         id="path4502"
         style="fill:#154889;fill-opacity:1;fill-rule:evenodd;stroke:none"
         d="m 313.184,141.367 61.566,0 0,16.062 10.707,0 0,208.785 c 0,5.914 -4.793,10.707 -10.707,10.707 l -107.07,0 c -5.914,0 -10.707,-4.793 -10.707,-10.707 l 0,-10.707 -5.356,0 c -4.32,0 -8.219,-2.597 -9.883,-6.586 l -2.832,-9.472 39.485,0 0,5.351 c 0,5.914 4.793,10.707 10.707,10.707 l 64.242,0 c 5.91,0 10.707,-4.793 10.707,-10.707 l 0,-48.179 c 0,-5.915 -4.797,-10.707 -10.707,-10.707 l -40.152,0 0,-144.547 z" /><path
         id="path4504"
         style="fill:#000000;fill-opacity:1;fill-rule:evenodd;stroke:none"
         d="m 195.422,339.453 c -5.91,-0.004 -10.703,-4.793 -10.703,-10.707 l 0,-10.704 -10.153,0 c -4.425,0.012 -10.714,-3.625 -10.683,-10.07 0.023,-23.949 -0.137,-49.457 0,-69.168 l 0.008,0 c 0.004,-12.094 -0.004,-22.844 -0.028,-25.488 -0.133,-13.641 -9.211,-22.809 -21.972,-22.715 -12.828,0.094 -22.067,9.188 -21.907,22.609 0.079,6.692 0.289,29.746 0.36,37.75 8.945,2.145 15.297,9.895 15.297,18.864 l 0,24.297 -7.203,0 0,21.765 -0.024,0 c -0.176,0.957 -1.387,1.672 -2.824,1.676 -1.438,0 -2.649,-0.719 -2.824,-1.676 l -0.024,0 0,-21.765 -14.5,0 0,21.765 -0.023,0 c -0.176,0.957 -1.387,1.672 -2.821,1.676 -1.437,0 -2.648,-0.719 -2.824,-1.676 l -0.023,0 0,-21.765 -7.207,0 0,-24.297 c 0.011,-8.832 6.183,-16.532 15.004,-18.782 -0.075,-8.027 -0.285,-31.097 -0.364,-37.714 -0.214,-18.387 13.981,-32.598 31.832,-32.727 17.914,-0.133 31.868,14.23 32.043,32.621 0.055,5.535 0.039,32.953 0.024,53.957 l 10.836,0 0,-147.246 10.703,0 0,-16.055 107.039,0 0,16.055 10.703,0 0,208.813 c 0,5.914 -4.789,10.703 -10.703,10.707 l -107.039,0 z m 21.41,-21.411 64.223,0 c 5.91,0 10.703,-4.793 10.703,-10.703 l 0,-48.211 c 0,-5.91 -4.793,-10.703 -10.703,-10.703 l -64.223,0 c -5.914,0 -10.703,4.793 -10.707,10.703 l 0,48.211 c 0.004,5.91 4.793,10.703 10.707,10.703 z" /></g></g></svg>