<?xml version="1.0" encoding="UTF-8" standalone="no"?>
<svg
   xmlns:dc="http://purl.org/dc/elements/1.1/"
   xmlns:cc="http://creativecommons.org/ns#"
   xmlns:rdf="http://www.w3.org/1999/02/22-rdf-syntax-ns#"
   xmlns:svg="http://www.w3.org/2000/svg"
   xmlns="http://www.w3.org/2000/svg"
   viewBox="0 0 601.00507 601.00159"
   height="601.00159"
   width="601.00507"
   xml:space="preserve"
   version="1.1"
   id="svg2"><metadata
     id="metadata8"><rdf:RDF><cc:Work
         rdf:about=""><dc:format>image/svg+xml</dc:format><dc:type
           rdf:resource="http://purl.org/dc/dcmitype/StillImage" /><dc:title></dc:title></cc:Work></rdf:RDF></metadata><defs
     id="defs6"><clipPath
       id="clipPath24"
       clipPathUnits="userSpaceOnUse"><path
         id="path26"
         d="m 1.176,476.469 479.824,0 0,-476.668 -479.824,0 0,476.668 z" /></clipPath><clipPath
       id="clipPath34"
       clipPathUnits="userSpaceOnUse"><path
         id="path36"
         d="m 78,78 325,0 0,325 -325,0 0,-325 z" /></clipPath></defs><g
     transform="matrix(1.25,0,0,-1.25,0,601.00159)"
     id="g10"><g
       id="g12"><path
         id="path14"
         style="fill:#ffffff;fill-opacity:1;fill-rule:nonzero;stroke:none"
         d="M 29.199,480.403 C 0.336,480.418 0.398,451.598 0.398,451.598 l 0,-422.398 c 0,0 -0.062,-28.825 28.801,-28.797 l 422.406,0 C 480.652,0.372 480.398,29.2 480.398,29.2 l 0,422.398 c 0,0 0.243,28.899 -28.793,28.805 l -422.406,0 z" /><path
         id="path16"
         style="fill:#154889;fill-opacity:1;fill-rule:nonzero;stroke:none"
         d="M 29.199,470.801 C 18.602,470.801 10,462.204 10,451.602 L 10,29.2 C 10,18.59 18.602,10 29.199,10 l 422.406,0 c 10.598,0 19.2,8.59 19.2,19.2 l 0,422.402 c 0,10.602 -8.602,19.199 -19.2,19.199 l -422.406,0 z m 48.801,-68 324.805,0 L 402.805,78 78,78 78,402.801 Z" /><path
         id="path18"
         style="fill:#000000;fill-opacity:1;fill-rule:nonzero;stroke:none"
         d="M 29.199,480.801 C 14.637,480.809 7.262,473.485 3.617,466.184 -0.02,458.883 0,451.594 0,451.594 L 0,29.2 C 0,29.2 -0.02,21.911 3.617,14.614 7.262,7.313 14.637,-0.011 29.199,0 l 422.406,0 c 14.657,-0.015 22.036,7.313 25.649,14.614 3.613,7.297 3.551,14.582 3.551,14.586 l 0,422.398 c 0,0.004 0.058,7.309 -3.559,14.613 -3.617,7.309 -10.996,14.637 -25.641,14.59 l -422.406,0 z m 0,-0.398 422.406,0 c 29.036,0.094 28.793,-28.805 28.793,-28.805 l 0,-422.398 c 0,0 0.254,-28.828 -28.793,-28.797 l -422.406,0 C 0.336,0.375 0.398,29.2 0.398,29.2 l 0,422.398 c 0,0 -0.062,28.82 28.801,28.805 z" /></g><g
       id="g20"><g
         clip-path="url(#clipPath24)"
         id="g22"><g
           transform="translate(0,-0.19873)"
           id="g28"><g
             id="g30"><g
               clip-path="url(#clipPath34)"
               id="g32"><g
                 id="g38"><path
                   id="path40"
                   style="fill:#ffffff;fill-opacity:1;fill-rule:evenodd;stroke:none"
                   d="m 78.688,402.305 323.418,0 0,-323.352 -323.418,0 0,323.352 z" /><path
                   id="path42"
                   style="fill:#000000;fill-opacity:1;fill-rule:evenodd;stroke:none"
                   d="m 240.402,250.301 89.84,0 0,5.992 -11.984,0 -74.289,108.5 8.492,12.391 -4.926,3.375 -7.133,-10.45 -7.132,10.45 -4.989,-3.375 8.477,-12.391 -74.211,-108.5 -11.996,0 0,-5.992 89.851,0 z" /><path
                   id="path44"
                   style="fill:#ffffff;fill-opacity:1;fill-rule:evenodd;stroke:none"
                   d="m 240.402,256.293 -34.757,0 34.757,50.777 34.758,-50.777 -34.758,0 z" /><path
                   id="path46"
                   style="fill:#000000;fill-opacity:1;fill-rule:evenodd;stroke:none"
                   d="m 150.551,127.051 0,7.133 29.375,0 -7.758,36.906 c -0.063,0.277 -0.063,0.547 -0.063,0.746 0,0.207 0,0.406 0.063,0.672 l 7.215,41.082 c 0.34,1.691 1.812,2.969 3.5,2.969 l 136.519,0 c 1.684,0 3.235,-1.278 3.5,-2.969 l 7.274,-41.141 c 0,-0.207 0.074,-0.406 0.074,-0.613 0,-0.266 -0.074,-0.469 -0.074,-0.672 l -7.274,-41.156 c -0.265,-1.75 -1.816,-2.957 -3.5,-2.957 l -47.148,0 c 0,9.902 -8.012,17.914 -17.848,17.914 -9.89,0 -17.914,-8.012 -17.914,-17.914 l -85.941,0 z" /><path
                   id="path48"
                   style="fill:#ffffff;fill-opacity:1;fill-rule:evenodd;stroke:none"
                   d="m 197.102,134.184 c -1.016,0 -1.829,0.812 -1.829,1.816 l 0,64.465 c 0,0.937 0.813,1.75 1.829,1.75 l 28.613,0 c 1.015,0 1.828,-0.813 1.828,-1.75 l 0,-64.465 c 0,-1.004 -0.813,-1.816 -1.828,-1.816 l -28.613,0 z" /><path
                   id="path50"
                   style="fill:#ffffff;fill-opacity:1;fill-rule:evenodd;stroke:none"
                   d="m 268.684,178.973 c -0.938,0 -1.813,0.812 -1.813,1.75 l 0,19.742 c 0,0.937 0.875,1.75 1.813,1.75 l 41.156,0 c 1.004,0 1.816,-0.813 1.816,-1.75 l 0,-19.742 c 0,-0.938 -0.812,-1.75 -1.816,-1.75 l -41.156,0 z" /><path
                   id="path52"
                   style="fill:#000000;fill-opacity:1;fill-rule:evenodd;stroke:none"
                   d="m 268.684,127.051 c 0,-7.883 -6.399,-14.344 -14.344,-14.344 -7.883,0 -14.278,6.461 -14.278,14.344 0,7.871 6.395,14.344 14.278,14.344 7.945,0 14.344,-6.473 14.344,-14.344" /></g></g></g></g></g></g></g></svg>