<?xml version="1.0" encoding="UTF-8" standalone="no"?>
<svg
   xmlns:dc="http://purl.org/dc/elements/1.1/"
   xmlns:cc="http://creativecommons.org/ns#"
   xmlns:rdf="http://www.w3.org/1999/02/22-rdf-syntax-ns#"
   xmlns:svg="http://www.w3.org/2000/svg"
   xmlns="http://www.w3.org/2000/svg"
   viewBox="0 0 601.00012 601.00031"
   height="601.00031"
   width="601.00012"
   xml:space="preserve"
   version="1.1"
   id="svg8340"><metadata
     id="metadata8346"><rdf:RDF><cc:Work
         rdf:about=""><dc:format>image/svg+xml</dc:format><dc:type
           rdf:resource="http://purl.org/dc/dcmitype/StillImage" /><dc:title></dc:title></cc:Work></rdf:RDF></metadata><defs
     id="defs8344" /><g
     transform="matrix(1.25,0,0,-1.25,0,601.00029)"
     id="g8348"><g
       id="g8350"><path
         id="path8352"
         style="fill:#ffffff;fill-opacity:1;fill-rule:nonzero;stroke:none"
         d="M 29.199,480.402 C 0.336,480.417 0.398,451.597 0.398,451.597 l 0,-422.398 c 0,0 -0.062,-28.825 28.801,-28.797 l 422.403,0 c 29.05,-0.031 28.796,28.797 28.796,28.797 l 0,422.398 c 0,0 0.239,28.899 -28.796,28.805 l -422.403,0 z" /><path
         id="path8354"
         style="fill:#154889;fill-opacity:1;fill-rule:nonzero;stroke:none"
         d="M 29.199,470.8 C 18.598,470.8 10,462.203 10,451.601 L 10,29.199 c 0,-10.61 8.598,-19.2 19.199,-19.2 l 422.403,0 c 10.601,0 19.199,8.59 19.199,19.2 l 0,422.402 c 0,10.602 -8.598,19.199 -19.199,19.199 l -422.403,0 z" /><path
         id="path8356"
         style="fill:#000000;fill-opacity:1;fill-rule:nonzero;stroke:none"
         d="M 29.199,480.8 C 14.633,480.808 7.258,473.484 3.617,466.183 -0.023,458.882 0,451.593 0,451.593 L 0,29.199 c 0,0 -0.02,-7.289 3.617,-14.586 C 7.258,7.312 14.633,-0.012 29.199,-0.001 l 422.403,0 c 14.656,-0.015 22.035,7.313 25.652,14.614 3.613,7.297 3.547,14.582 3.547,14.586 l 0,422.398 c 0,0.004 0.062,7.309 -3.555,14.613 -3.617,7.309 -10.996,14.637 -25.644,14.59 l -422.403,0 z m 0,-0.398 422.403,0 c 29.035,0.094 28.796,-28.805 28.796,-28.805 l 0,-422.398 c 0,0 0.254,-28.828 -28.796,-28.797 l -422.403,0 C 0.336,0.374 0.398,29.199 0.398,29.199 l 0,422.398 c 0,0 -0.062,28.82 28.801,28.805 z" /><path
         id="path8358"
         style="fill:#ffffff;fill-opacity:1;fill-rule:nonzero;stroke:none"
         d="m 383.5,40.07 -14.305,0 0,14.301 -57.25,0 0,42.929 -57.23,0 0,42.934 -57.246,0 0,42.93 -57.235,0 0,42.921 -57.234,0 0,42.922 -42.937,0 0,14.313 57.234,0 0,-42.926 57.246,0 0,-42.922 57.234,0 0,-42.937 57.246,0 0,-42.93 57.235,0 0,-42.922 57.242,0" /><path
         id="path8360"
         style="fill:#ffffff;fill-opacity:1;fill-rule:nonzero;stroke:none"
         d="m 308.375,401.386 c 0,-13.836 -11.223,-25.047 -25.047,-25.047 -13.82,0 -25.039,11.211 -25.039,25.047 0,13.82 11.219,25.031 25.039,25.031 13.824,0 25.047,-11.211 25.047,-25.031 z m 0,-135.949 -50.086,0 0,52.691 -27.867,-42.914 c -6.457,-9.949 -19.75,-12.769 -29.692,-6.312 l 55.598,85.621 c 9.676,14.91 29.629,19.152 44.531,9.461 1.106,-0.719 2.157,-1.488 3.164,-2.34 l 40.887,-34.613 c 4.047,-3.403 6.387,-8.418 6.387,-13.703 l 0,-22.852 c 0,-11.844 -9.609,-21.469 -21.469,-21.469 l 0,42.965 -21.453,18.016 0,-64.551 z m 0,-7.16 0,-118.043 c 0,-13.836 -11.223,-25.039 -25.047,-25.039 l 0,132.707 -32.187,-32.184 0,-32.554 c 0,-13.836 -11.219,-25.043 -25.055,-25.043 l 0,62.043 c 0,3.792 1.512,7.425 4.199,10.113 l 28.004,28" /></g></g></svg>