<?xml version="1.0" encoding="UTF-8" standalone="no"?>
<svg
   xmlns:dc="http://purl.org/dc/elements/1.1/"
   xmlns:cc="http://creativecommons.org/ns#"
   xmlns:rdf="http://www.w3.org/1999/02/22-rdf-syntax-ns#"
   xmlns:svg="http://www.w3.org/2000/svg"
   xmlns="http://www.w3.org/2000/svg"
   viewBox="0 0 601.00134 601.00159"
   height="601.00159"
   width="601.00134"
   xml:space="preserve"
   id="svg5813"
   version="1.1"><metadata
     id="metadata5819"><rdf:RDF><cc:Work
         rdf:about=""><dc:format>image/svg+xml</dc:format><dc:type
           rdf:resource="http://purl.org/dc/dcmitype/StillImage" /><dc:title></dc:title></cc:Work></rdf:RDF></metadata><defs
     id="defs5817" /><g
     transform="matrix(1.3333333,0,0,-1.3333333,0,601.00159)"
     id="g5821"><g
       id="g5823"><path
         id="path5825"
         style="fill:#ffffff;fill-opacity:1;fill-rule:nonzero;stroke:none"
         d="m 423.375,450.376 c 27.059,0.016 27,-27.004 27,-27.004 V 27.376 c 0,0 0.059,-27.023 -27,-27 h -396 c -27.234,-0.027 -27,27 -27,27 v 395.996 c 0,0 -0.223,27.094 27,27.004 z" /><path
         id="path5827"
         style="fill:#154889;fill-opacity:1;fill-rule:nonzero;stroke:none"
         d="m 423.375,441.376 c 9.938,0 18,-8.058 18,-18 v -396 c 0,-9.949 -8.062,-18 -18,-18 h -396 c -9.941,0 -18,8.051 -18,18 v 396 c 0,9.942 8.059,18 18,18 z" /><path
         id="path5829"
         style="fill:#000000;fill-opacity:1;fill-rule:nonzero;stroke:none"
         d="m 423.375,450.751 c 13.656,0.008 20.57,-6.859 23.984,-13.703 3.414,-6.844 3.391,-13.68 3.391,-13.68 V 27.376 c 0,0 0.02,-6.836 -3.391,-13.676 C 443.945,6.857 437.031,-0.011 423.375,0.001 h -396 C 13.633,-0.014 6.715,6.857 3.324,13.7 -0.063,20.54 0,27.372 0,27.376 v 395.996 c 0,0.004 -0.059,6.852 3.332,13.7 3.391,6.851 10.309,13.722 24.043,13.679 z m 0,-0.375 h -396 c -27.223,0.09 -27,-27.004 -27,-27.004 V 27.376 c 0,0 -0.234,-27.027 27,-27 h 396 c 27.059,-0.023 27,27 27,27 v 395.996 c 0,0 0.059,27.02 -27,27.004 z" /><path
         id="path5831"
         style="fill:#ffffff;fill-opacity:1;fill-rule:nonzero;stroke:none"
         d="m 91.219,37.575 v 26.829 h 53.668 v 40.242 h 53.656 v 40.242 h 53.664 v 40.242 h 53.656 v 40.25 h 53.668 v 40.242 h 53.657 V 252.208 H 372.945 V 211.966 H 319.277 V 171.724 H 265.621 V 131.482 H 211.957 V 91.232 H 158.301 V 50.989 H 104.645 V 37.575" /><path
         id="path5833"
         style="fill:#ffffff;fill-opacity:1;fill-rule:nonzero;stroke:none"
         d="m 195.191,376.31 c 0,-12.973 -10.507,-23.477 -23.476,-23.477 -12.961,0 -23.481,10.504 -23.481,23.477 0,12.961 10.52,23.465 23.481,23.465 12.969,0 23.476,-10.504 23.476,-23.465 z M 161.648,248.861 v 26.679 l -15.91,-9.793 c -9.461,-5.824 -21.855,-2.871 -27.679,6.59 l 43.589,26.828 v 23.477 c 0,12.961 10.52,23.476 23.481,23.476 8.141,0 15.695,-4.214 19.976,-11.14 l 40.231,-65.129 c 5.84,-9.449 2.922,-21.852 -6.543,-27.703 l -30.188,48.875 v -42.16 z m 0,-6.715 h 46.957 l 7.79,-41.649 19.05,-19.05 c 9.153,-9.176 9.153,-24.032 0,-33.2 l -37.621,37.621 c -1.726,1.715 -2.941,3.871 -3.531,6.235 l -9.164,36.629 v -97.25 c 0,-12.969 -10.508,-23.477 -23.481,-23.477" /></g></g></svg>