<?xml version="1.0" encoding="UTF-8" standalone="no"?>
<svg
   xmlns:dc="http://purl.org/dc/elements/1.1/"
   xmlns:cc="http://creativecommons.org/ns#"
   xmlns:rdf="http://www.w3.org/1999/02/22-rdf-syntax-ns#"
   xmlns:svg="http://www.w3.org/2000/svg"
   xmlns="http://www.w3.org/2000/svg"
   viewBox="0 0 601 601"
   height="601"
   width="601"
   xml:space="preserve"
   id="svg25491"
   version="1.1"><metadata
     id="metadata25497"><rdf:RDF><cc:Work
         rdf:about=""><dc:format>image/svg+xml</dc:format><dc:type
           rdf:resource="http://purl.org/dc/dcmitype/StillImage" /><dc:title></dc:title></cc:Work></rdf:RDF></metadata><defs
     id="defs25495"><clipPath
       id="clipPath25515"
       clipPathUnits="userSpaceOnUse"><path
         id="path25513"
         d="M 0,450.75 H 450.754 V 0.012 L 0,0.012 Z" /></clipPath><clipPath
       id="clipPath25525"
       clipPathUnits="userSpaceOnUse"><path
         id="path25523"
         d="M 116,168 H 335 V 283 H 116 Z" /></clipPath></defs><g
     transform="matrix(1.3333333,0,0,-1.3333333,0,601)"
     id="g25499"><g
       id="g25501"><path
         id="path25503"
         style="fill:#ffffff;fill-opacity:1;fill-rule:nonzero;stroke:none"
         d="m 30.375,0.375 c -16.57,0 -30,13.441 -30,29.996 v 389.992 c 0,16.571 13.43,30.012 30,30.012 h 390 c 16.57,0 30,-13.441 30,-30.012 V 30.371 c 0,-16.555 -13.43,-29.996 -30,-29.996 z" /><path
         id="path25505"
         style="fill:#154889;fill-opacity:1;fill-rule:nonzero;stroke:none"
         d="m 30.383,439.125 c -10.356,0 -18.758,-8.391 -18.758,-18.746 V 30.383 c 0,-10.356 8.402,-18.758 18.758,-18.758 h 389.984 c 10.356,0 18.758,8.402 18.758,18.758 v 389.996 c 0,10.355 -8.402,18.746 -18.758,18.746 z M 75.07,375.676 H 375.676 V 75.07 H 75.07 Z" /><path
         id="path25507"
         style="fill:#000000;fill-opacity:1;fill-rule:nonzero;stroke:none"
         d="M 30.375,450.75 C 13.602,450.75 0,437.137 0,420.363 V 30.371 C 0,13.613 13.602,0 30.375,0 h 390 c 16.773,0 30.375,13.613 30.375,30.371 v 389.992 c 0,16.774 -13.602,30.387 -30.375,30.387 z m 0,-0.375 h 390 c 16.57,0 30,-13.441 30,-30.012 V 30.371 c 0,-16.555 -13.43,-29.996 -30,-29.996 h -390 c -16.57,0 -30,13.441 -30,29.996 v 389.992 c 0,16.571 13.43,30.012 30,30.012 z" /></g><g
       id="g25509"><g
         clip-path="url(#clipPath25515)"
         id="g25511"><g
           transform="translate(0,-0.25)"
           id="g25517"><g
             id="g25519"><g
               clip-path="url(#clipPath25525)"
               id="g25521"><g
                 id="g25527"><path
                   id="path25529"
                   style="fill:#000000;fill-opacity:1;fill-rule:nonzero;stroke:none"
                   d="m 334.73,201.484 c -3.882,-21.879 -24.781,-36.48 -46.656,-32.586 -19.215,3.422 -33.207,20.118 -33.207,39.622 v 34.214 c 0,22.223 18.008,40.246 40.242,40.246 19.504,0 36.215,-13.996 39.621,-33.195 h -17.585 c -3.883,12.164 -16.907,18.883 -29.071,15 -9.594,-3.074 -16.101,-11.98 -16.101,-22.051 V 208.52 c 0,-12.774 10.363,-23.137 23.136,-23.137 10.071,0 18.989,6.508 22.036,16.101 z M 144.191,169.285 116.02,281.973 h 18.113 l 18.117,-80.489 22.129,80.489 h 12.07 l 22.129,-80.489 18.117,80.489 h 18.114 L 216.637,169.285 h -15.094 l -21.121,81.492 -21.137,-81.492 z" /></g></g></g></g></g></g></g></svg>