<?xml version="1.0" encoding="UTF-8" standalone="no"?>
<svg
   xmlns:dc="http://purl.org/dc/elements/1.1/"
   xmlns:cc="http://creativecommons.org/ns#"
   xmlns:rdf="http://www.w3.org/1999/02/22-rdf-syntax-ns#"
   xmlns:svg="http://www.w3.org/2000/svg"
   xmlns="http://www.w3.org/2000/svg"
   viewBox="0 0 601.00012 601.00031"
   height="601.00031"
   width="601.00012"
   xml:space="preserve"
   version="1.1"
   id="svg3409"><metadata
     id="metadata3415"><rdf:RDF><cc:Work
         rdf:about=""><dc:format>image/svg+xml</dc:format><dc:type
           rdf:resource="http://purl.org/dc/dcmitype/StillImage" /><dc:title></dc:title></cc:Work></rdf:RDF></metadata><defs
     id="defs3413" /><g
     transform="matrix(1.25,0,0,-1.25,0,601.00029)"
     id="g3417"><g
       id="g3419"><path
         id="path3421"
         style="fill:#ffffff;fill-opacity:1;fill-rule:nonzero;stroke:none"
         d="M 29.199,480.402 C 0.336,480.417 0.398,451.597 0.398,451.597 l 0,-422.398 c 0,0 -0.062,-28.825 28.801,-28.797 l 422.403,0 c 29.05,-0.031 28.796,28.797 28.796,28.797 l 0,422.398 c 0,0 0.239,28.899 -28.796,28.805 l -422.403,0 z" /><path
         id="path3423"
         style="fill:#154889;fill-opacity:1;fill-rule:nonzero;stroke:none"
         d="M 29.199,470.8 C 18.598,470.8 10,462.203 10,451.601 L 10,29.199 c 0,-10.61 8.598,-19.2 19.199,-19.2 l 422.403,0 c 10.601,0 19.199,8.59 19.199,19.2 l 0,422.402 c 0,10.602 -8.598,19.199 -19.199,19.199 l -422.403,0 z m 48.801,-68 324.801,0 0,-324.801 -324.801,0 0,324.801 z" /><path
         id="path3425"
         style="fill:#000000;fill-opacity:1;fill-rule:nonzero;stroke:none"
         d="M 29.199,480.8 C 14.633,480.808 7.258,473.484 3.617,466.183 -0.023,458.882 0,451.593 0,451.593 L 0,29.199 c 0,0 -0.02,-7.289 3.617,-14.586 C 7.258,7.312 14.633,-0.012 29.199,-0.001 l 422.403,0 c 14.656,-0.015 22.035,7.313 25.652,14.614 3.613,7.297 3.547,14.582 3.547,14.586 l 0,422.398 c 0,0.004 0.062,7.309 -3.555,14.613 -3.617,7.309 -10.996,14.637 -25.644,14.59 l -422.403,0 z m 0,-0.398 422.403,0 c 29.035,0.094 28.796,-28.805 28.796,-28.805 l 0,-422.398 c 0,0 0.254,-28.828 -28.796,-28.797 l -422.403,0 C 0.336,0.374 0.398,29.199 0.398,29.199 l 0,422.398 c 0,0 -0.062,28.82 28.801,28.805 z" /><path
         id="path3427"
         style="fill:#000000;fill-opacity:1;fill-rule:evenodd;stroke:none"
         d="m 230.137,280.191 c -4.364,-0.004 -7.899,-3.539 -7.899,-7.902 l 0,-7.903 -3.953,0 c -3.195,0.008 -6.082,-1.91 -7.312,-4.863 l -4.571,-10.938 c 0,-25.293 -6.386,-50.179 -18.574,-72.343 l -17.012,-30.981 c -2.562,-4.664 -3.91,-9.894 -3.914,-15.215 0,-18.242 19.746,-29.648 35.551,-20.535 7.336,4.238 11.852,12.067 11.852,20.535 l 0,96.797 7.933,0 0,-108.679 7.899,0 0,-11.852 79.008,0 0,11.852 7.898,0 0,154.125 c 0,4.363 -3.539,7.898 -7.898,7.902 l -79.008,0 z m 15.801,-15.805 47.402,0 c 4.363,0 7.902,-3.535 7.902,-7.898 l 0,-35.586 c 0,-4.363 -3.539,-7.899 -7.902,-7.899 l -47.402,0 c -4.364,0 -7.899,3.536 -7.899,7.899 l 0,35.586 c 0,4.363 3.535,7.898 7.899,7.898 z m -39.536,-65.16 0,-69.18 c 0.008,-5.656 -3.004,-10.882 -7.898,-13.711 -10.547,-6.082 -23.719,1.539 -23.703,13.711 0.008,3.985 1.015,7.903 2.937,11.395 l 17.043,30.98 c 4.692,8.559 8.582,17.532 11.621,26.805 z" /><path
         id="path3429"
         style="fill:#154889;fill-opacity:1;fill-rule:evenodd;stroke:none"
         d="m 317.055,133.984 45.441,0 0,11.855 7.906,0 0,154.106 c 0,4.363 -3.539,7.902 -7.906,7.902 l -79.027,0 c -4.364,0 -7.903,-3.539 -7.903,-7.902 l 0,-7.903 -3.953,0 c -3.187,0 -6.066,-1.918 -7.293,-4.863 l -2.09,-6.992 29.141,0 0,3.953 c 0,4.363 3.539,7.902 7.902,7.902 l 47.418,0 c 4.364,0 7.903,-3.539 7.903,-7.902 l 0,-35.566 c 0,-4.364 -3.539,-7.903 -7.903,-7.903 l -29.636,0 0,-106.687 z" /><path
         id="path3431"
         style="fill:#000000;fill-opacity:1;fill-rule:evenodd;stroke:none"
         d="m 110.402,305.132 0,68.742 10.426,0 0,-58.929 33.543,0 0,-9.813 -43.969,0 z m 64.118,58.879 0,-22.172 15.472,0 c 3.871,0 6.746,1.164 8.637,3.492 1.887,2.325 2.844,4.86 2.875,7.594 0,4.153 -1.492,7.203 -4.481,9.153 -1.918,1.289 -4.386,1.933 -7.406,1.933 l -15.097,0 z m -10.43,-58.879 0,68.742 24.961,0 c 2.672,0 5.234,-0.285 7.687,-0.851 2.453,-0.567 5.035,-1.887 7.739,-3.961 2.078,-1.606 3.839,-3.805 5.285,-6.606 1.445,-2.8 2.172,-6.07 2.172,-9.812 0,-4.906 -1.825,-9.578 -5.477,-14.016 -3.648,-4.433 -9.008,-6.652 -16.086,-6.652 l -15.851,0 0,-26.844 -10.43,0 z m 79.594,27.977 0,9.863 24.441,0 0,-14.016 c 0,-6.824 -2.375,-12.593 -7.125,-17.312 -4.75,-4.719 -10.555,-7.078 -17.41,-7.078 -5.41,0 -9.942,1.289 -13.59,3.867 -3.648,2.582 -6.289,5.395 -7.926,8.445 -1.133,2.016 -1.918,4.215 -2.359,6.606 -0.438,2.39 -0.66,7.722 -0.66,15.996 0,8.273 0.222,13.601 0.66,15.992 0.441,2.391 1.226,4.594 2.359,6.606 1.606,2.988 4.231,5.804 7.879,8.445 3.649,2.644 8.195,3.965 13.637,3.965 6.512,0 11.89,-2 16.137,-5.992 4.246,-3.997 6.918,-8.793 8.019,-14.391 l -10.992,0 c -0.852,2.641 -2.422,4.953 -4.719,6.937 -2.297,1.981 -5.113,2.969 -8.445,2.969 -2.453,0 -4.578,-0.5 -6.371,-1.508 -1.793,-1.007 -3.207,-2.172 -4.246,-3.492 -1.352,-1.762 -2.262,-3.695 -2.735,-5.801 -0.472,-2.109 -0.722,-6.683 -0.754,-13.73 0,-7.078 0.235,-11.668 0.707,-13.777 0.473,-2.106 1.399,-4.012 2.782,-5.707 1.039,-1.387 2.453,-2.567 4.246,-3.54 1.793,-0.976 3.918,-1.48 6.371,-1.511 3.965,0 7.297,1.351 10.004,4.058 2.703,2.703 4.07,6.227 4.101,10.567 l 0,3.539 -14.011,0 z" /></g></g></svg>