<?xml version="1.0" encoding="UTF-8" standalone="no"?>
<svg
   xmlns:dc="http://purl.org/dc/elements/1.1/"
   xmlns:cc="http://creativecommons.org/ns#"
   xmlns:rdf="http://www.w3.org/1999/02/22-rdf-syntax-ns#"
   xmlns:svg="http://www.w3.org/2000/svg"
   xmlns="http://www.w3.org/2000/svg"
   xmlns:sodipodi="http://sodipodi.sourceforge.net/DTD/sodipodi-0.dtd"
   xmlns:inkscape="http://www.inkscape.org/namespaces/inkscape"
   viewBox="0 0 1751.0012 451.00126"
   height="451.00125"
   width="1751.0012"
   xml:space="preserve"
   version="1.1"
   id="svg12016"
   sodipodi:docname="386.1-22.svg"
   inkscape:version="0.92.4 (f8dce91, 2019-08-02)"><sodipodi:namedview
     pagecolor="#ffffff"
     bordercolor="#666666"
     borderopacity="1"
     objecttolerance="10"
     gridtolerance="10"
     guidetolerance="10"
     inkscape:pageopacity="0"
     inkscape:pageshadow="2"
     inkscape:window-width="1366"
     inkscape:window-height="740"
     id="namedview199"
     showgrid="false"
     fit-margin-top="0"
     fit-margin-left="0"
     fit-margin-right="0"
     fit-margin-bottom="0"
     inkscape:zoom="0.48160222"
     inkscape:cx="865.22822"
     inkscape:cy="174.2603"
     inkscape:window-x="1920"
     inkscape:window-y="312"
     inkscape:window-maximized="1"
     inkscape:current-layer="svg12016" /><metadata
     id="metadata12022"><rdf:RDF><cc:Work
         rdf:about=""><dc:format>image/svg+xml</dc:format><dc:type
           rdf:resource="http://purl.org/dc/dcmitype/StillImage" /><dc:title></dc:title></cc:Work></rdf:RDF></metadata><defs
     id="defs12020" /><path
     id="path12028"
     style="fill:#ffffff;fill-opacity:1;fill-rule:nonzero;stroke:none;stroke-width:1.25"
     d="m 50.49875,0.4975 c -27.6125,0 -50,22.3875 -50,50 v 350 c 0,27.6175 22.3875,50 50,50 H 1373.8725 c 35.4825,0 70.4388,-9.39375 101.1125,-27.11375 l 242.095,-139.9225 c 20.63,-11.9375 33.4188,-34.125 33.4188,-57.94875 0,-23.8375 -12.7888,-46.035 -33.4188,-57.915 L 1474.985,27.65125 C 1444.2775,9.8975 1409.3213,0.4975 1373.8725,0.4975 Z"
     inkscape:connector-curvature="0" /><path
     id="path12030"
     style="fill:#633a34;fill-opacity:1;fill-rule:evenodd;stroke:none;stroke-width:1.25"
     d="m 60.49875,30.4975 c -16.5675,0 -30,13.4325 -30,30 v 330 c 0,16.5675 13.4325,30 30,30 H 1377.07 c 29.6975,0 56.455,-7.83625 82.1288,-22.71 l 247.6525,-142.94375 c 10.4637,-6.065 13.6512,-17.23625 13.6512,-29.33125 0,-12.11375 -3.1875,-23.29125 -13.6512,-29.34625 L 1459.1988,53.2075 c -25.6738,-14.90625 -55.6288,-22.71 -85.3263,-22.71 z"
     inkscape:connector-curvature="0" /><path
     id="path12032"
     style="fill:#000000;fill-opacity:1;fill-rule:nonzero;stroke:none;stroke-width:1.25"
     d="M 50.49875,0 C 22.6175,0 0,22.6125 0,50.4975 v 350 c 0,27.88625 22.6175,50.50375 50.49875,50.50375 H 1373.8725 c 35.5713,0 70.615,-9.42375 101.3625,-27.1875 l 242.0988,-139.9225 c 20.7812,-12.02625 33.6675,-34.38 33.6675,-58.37875 0,-24.01875 -12.8863,-46.38125 -33.6675,-58.35 L 1475.235,27.21625 C 1444.4538,9.41875 1409.4088,0 1373.8725,0 Z m 0,0.4975 H 1373.8725 c 35.4488,0 70.405,9.4 101.1125,27.15375 L 1717.08,167.5975 c 20.63,11.88 33.4188,34.0775 33.4188,57.915 0,23.82375 -12.7888,46.01125 -33.4188,57.94875 l -242.095,139.9225 c -30.6737,17.72 -65.63,27.11375 -101.1125,27.11375 H 50.49875 c -27.6125,0 -50,-22.3825 -50,-50 v -350 c 0,-27.6125 22.3875,-50 50,-50 z"
     inkscape:connector-curvature="0" /></svg>