<?xml version="1.0" encoding="UTF-8" standalone="no"?>
<!-- Created with Inkscape (http://www.inkscape.org/) -->

<svg
   xmlns:dc="http://purl.org/dc/elements/1.1/"
   xmlns:cc="http://creativecommons.org/ns#"
   xmlns:rdf="http://www.w3.org/1999/02/22-rdf-syntax-ns#"
   xmlns:svg="http://www.w3.org/2000/svg"
   xmlns="http://www.w3.org/2000/svg"
   xmlns:sodipodi="http://sodipodi.sourceforge.net/DTD/sodipodi-0.dtd"
   xmlns:inkscape="http://www.inkscape.org/namespaces/inkscape"
   width="264.83978mm"
   height="88.363777mm"
   viewBox="0 0 264.83978 88.363777"
   version="1.1"
   id="svg8"
   sodipodi:docname="386.1.svg"
   inkscape:version="0.92.4 (33fec40, 2019-01-16)">
  <defs
     id="defs2">
    <clipPath
       clipPathUnits="userSpaceOnUse"
       id="clipPath7567">
      <path
         d="M 0,0 H 751 V 251 H 0 Z"
         id="path7565"
         inkscape:connector-curvature="0" />
    </clipPath>
  </defs>
  <sodipodi:namedview
     id="base"
     pagecolor="#ffffff"
     bordercolor="#666666"
     borderopacity="1.0"
     inkscape:pageopacity="0.0"
     inkscape:pageshadow="2"
     inkscape:zoom="0.35"
     inkscape:cx="74.77038"
     inkscape:cy="26.986639"
     inkscape:document-units="mm"
     inkscape:current-layer="layer1"
     showgrid="false"
     fit-margin-top="0"
     fit-margin-left="0"
     fit-margin-right="0"
     fit-margin-bottom="0"
     inkscape:window-width="1366"
     inkscape:window-height="740"
     inkscape:window-x="1920"
     inkscape:window-y="0"
     inkscape:window-maximized="1" />
  <metadata
     id="metadata5">
    <rdf:RDF>
      <cc:Work
         rdf:about="">
        <dc:format>image/svg+xml</dc:format>
        <dc:type
           rdf:resource="http://purl.org/dc/dcmitype/StillImage" />
        <dc:title></dc:title>
      </cc:Work>
    </rdf:RDF>
  </metadata>
  <g
     inkscape:label="Layer 1"
     inkscape:groupmode="layer"
     id="layer1"
     transform="translate(0.88418418,-89.532395)">
    <g
       id="g7559"
       transform="matrix(0.35277777,0,0,-0.35277777,-0.88418418,178.07962)">
      <g
         id="g7561">
        <g
           id="g7563"
           clip-path="url(#clipPath7567)">
          <g
             id="g7569">
            <path
               d="M 30.074,250.637 C 13.691,250.637 0.367,237.313 0.367,220.93 V 30.605 C 0.367,14.211 13.691,0.887 30.074,0.887 h 690.574 c 16.383,0 29.719,13.324 29.719,29.718 V 220.93 c 0,16.383 -13.336,29.707 -29.719,29.707 z"
               style="fill:#ffffff;fill-opacity:1;fill-rule:nonzero;stroke:none"
               id="path7571"
               inkscape:connector-curvature="0" />
            <path
               d="M 30.086,251 C 13.5,251 0,237.527 0,220.941 V 30.602 C 0,14.004 13.5,0.52 30.086,0.52 h 690.559 c 16.585,0 30.082,13.484 30.082,30.082 v 190.339 c 0,16.586 -13.497,30.059 -30.082,30.059 z m -0.012,-0.363 h 690.574 c 16.383,0 29.719,-13.324 29.719,-29.707 V 30.605 c 0,-16.394 -13.336,-29.718 -29.719,-29.718 H 30.074 C 13.691,0.887 0.367,14.211 0.367,30.605 V 220.93 c 0,16.383 13.324,29.707 29.707,29.707 z"
               style="fill:#000000;fill-opacity:1;fill-rule:nonzero;stroke:none"
               id="path7573"
               inkscape:connector-curvature="0" />
          </g>
        </g>
      </g>
    </g>
    <path
       d="m 9.7252545,173.92086 c -3.6639499,0 -6.6336332,-2.97391 -6.6336332,-6.63822 v -67.14207 c 0,-3.664307 2.9696833,-6.632579 6.6336332,-6.632579 H 253.34441 c 3.6643,0 6.63681,2.968272 6.63681,6.632579 v 67.14207 c 0,3.66431 -2.97251,6.63822 -6.63681,6.63822"
       style="fill:#633a34;fill-opacity:1;fill-rule:nonzero;stroke:none;stroke-width:0.35277778"
       id="path7575"
       inkscape:connector-curvature="0" />
  </g>
</svg>
