<?xml version="1.0" encoding="UTF-8" standalone="no"?>
<svg
   xmlns:dc="http://purl.org/dc/elements/1.1/"
   xmlns:cc="http://creativecommons.org/ns#"
   xmlns:rdf="http://www.w3.org/1999/02/22-rdf-syntax-ns#"
   xmlns:svg="http://www.w3.org/2000/svg"
   xmlns="http://www.w3.org/2000/svg"
   xmlns:sodipodi="http://sodipodi.sourceforge.net/DTD/sodipodi-0.dtd"
   xmlns:inkscape="http://www.inkscape.org/namespaces/inkscape"
   viewBox="0 0 1751.0012 451.00126"
   height="451.00125"
   width="1751.0012"
   xml:space="preserve"
   version="1.1"
   id="svg12065"
   sodipodi:docname="386.1-12.svg"
   inkscape:version="0.92.4 (f8dce91, 2019-08-02)"><sodipodi:namedview
     pagecolor="#ffffff"
     bordercolor="#666666"
     borderopacity="1"
     objecttolerance="10"
     gridtolerance="10"
     guidetolerance="10"
     inkscape:pageopacity="0"
     inkscape:pageshadow="2"
     inkscape:window-width="1366"
     inkscape:window-height="740"
     id="namedview86"
     showgrid="false"
     fit-margin-top="0"
     fit-margin-left="0"
     fit-margin-right="0"
     fit-margin-bottom="0"
     inkscape:zoom="0.48160222"
     inkscape:cx="1084.8032"
     inkscape:cy="184.46167"
     inkscape:window-x="1920"
     inkscape:window-y="312"
     inkscape:window-maximized="1"
     inkscape:current-layer="svg12065" /><metadata
     id="metadata12071"><rdf:RDF><cc:Work
         rdf:about=""><dc:format>image/svg+xml</dc:format><dc:type
           rdf:resource="http://purl.org/dc/dcmitype/StillImage" /><dc:title></dc:title></cc:Work></rdf:RDF></metadata><defs
     id="defs12069" /><path
     id="path12077"
     style="fill:#ffffff;fill-opacity:1;fill-rule:nonzero;stroke:none;stroke-width:1.25"
     d="m 1700.5025,0.4975 c 27.6125,0 50,22.3875 50,50 v 350 c 0,27.6175 -22.3875,50 -50,50 H 377.12875 c -35.4825,0 -70.43875,-9.39375 -101.1125,-27.11375 l -242.095,-139.9225 c -20.63,-11.9375 -33.41875,-34.125 -33.41875,-57.94875 0,-23.8375 12.78875,-46.035 33.41875,-57.915 L 276.01625,27.65125 C 306.72375,9.8975 341.68,0.4975 377.12875,0.4975 Z"
     inkscape:connector-curvature="0" /><path
     id="path12079"
     style="fill:#633a34;fill-opacity:1;fill-rule:evenodd;stroke:none;stroke-width:1.25"
     d="m 1690.5025,30.4975 c 16.5675,0 30,13.4325 30,30 v 330 c 0,16.5675 -13.4325,30 -30,30 H 373.93125 c -29.6975,0 -56.455,-7.83625 -82.12875,-22.71 L 44.15,254.84375 c -10.46375,-6.065 -13.65125,-17.23625 -13.65125,-29.33125 0,-12.11375 3.1875,-23.29125 13.65125,-29.34625 L 291.8025,53.2075 c 25.67375,-14.90625 55.62875,-22.71 85.32625,-22.71 z"
     inkscape:connector-curvature="0" /><path
     id="path12081"
     style="fill:#000000;fill-opacity:1;fill-rule:nonzero;stroke:none;stroke-width:1.25"
     d="m 1700.5025,0 c 27.8813,0 50.4988,22.6125 50.4988,50.4975 v 350 c 0,27.88625 -22.6175,50.50375 -50.4988,50.50375 H 377.12875 c -35.57125,0 -70.615,-9.42375 -101.3625,-27.1875 L 33.6675,283.89125 C 12.88625,271.865 0,249.51125 0,225.5125 0,201.49375 12.88625,179.13125 33.6675,167.1625 L 275.76625,27.21625 C 306.5475,9.41875 341.5925,0 377.12875,0 Z m 0,0.4975 H 377.12875 c -35.44875,0 -70.405,9.4 -101.1125,27.15375 L 33.92125,167.5975 c -20.63,11.88 -33.41875,34.0775 -33.41875,57.915 0,23.82375 12.78875,46.01125 33.41875,57.94875 l 242.095,139.9225 c 30.67375,17.72 65.63,27.11375 101.1125,27.11375 H 1700.5025 c 27.6125,0 50,-22.3825 50,-50 v -350 c 0,-27.6125 -22.3875,-50 -50,-50 z"
     inkscape:connector-curvature="0" /></svg>