<?xml version="1.0" encoding="UTF-8" standalone="no"?>
<svg
   xmlns:dc="http://purl.org/dc/elements/1.1/"
   xmlns:cc="http://creativecommons.org/ns#"
   xmlns:rdf="http://www.w3.org/1999/02/22-rdf-syntax-ns#"
   xmlns:svg="http://www.w3.org/2000/svg"
   xmlns="http://www.w3.org/2000/svg"
   viewBox="0 0 600 450.005"
   height="450.005"
   width="600"
   xml:space="preserve"
   version="1.1"
   id="svg4682"><metadata
     id="metadata4688"><rdf:RDF><cc:Work
         rdf:about=""><dc:format>image/svg+xml</dc:format><dc:type
           rdf:resource="http://purl.org/dc/dcmitype/StillImage" /><dc:title></dc:title></cc:Work></rdf:RDF></metadata><defs
     id="defs4686" /><g
     transform="matrix(1.25,0,0,-1.25,0,450.005)"
     id="g4690"><g
       id="g4692"><path
         id="path4694"
         style="fill:#ffffff;fill-opacity:1;fill-rule:nonzero;stroke:none"
         d="m 31.996,359.774 c -17.504,0 -31.754,-14.25 -31.754,-31.766 L 0.242,32 c 0,-17.508 14.25,-31.758 31.754,-31.758 l 416.008,0 c 17.516,0 31.766,14.25 31.766,31.758 l 0,296.008 c 0,17.516 -14.25,31.766 -31.766,31.766" /><path
         id="path4696"
         style="fill:#000000;fill-opacity:1;fill-rule:nonzero;stroke:none"
         d="M 31.996,0.469 C 14.613,0.469 0.477,14.613 0.477,32 l 0,296.008 c 0,17.383 14.136,31.523 31.519,31.523 l 416.008,0 c 17.383,0 31.519,-14.14 31.519,-31.523 l 0,-296.008 c 0,-17.387 -14.136,-31.531 -31.519,-31.531 l -416.008,0 z m 416.008,359.535 -416.008,0 C 14.328,360.004 0,345.676 0,328.008 L 0,32 C 0,14.328 14.328,0 31.996,0 L 448.004,0 C 465.672,0 480,14.328 480,32 l 0,296.008 c 0,17.668 -14.328,31.996 -31.996,31.996" /><path
         id="path4698"
         style="fill:#000000;fill-opacity:1;fill-rule:nonzero;stroke:none"
         d="m 31.996,352.012 c -13.25,0 -23.992,-10.746 -23.992,-24.004 L 8.004,32 C 8.004,18.75 18.746,7.996 31.996,7.996 l 416.008,0 c 13.25,0 24.004,10.754 24.004,24.004 l 0,296.008 c 0,13.258 -10.754,24.004 -24.004,24.004 l -416.008,0 z m 0,-12.008 416.008,0 c 6.629,0 12.004,-5.367 12.004,-11.996 l 0,-296.008 c 0,-6.633 -5.375,-11.996 -12.004,-11.996 l -416.008,0 C 25.379,20.004 20,25.367 20,32 l 0,296.008 c 0,6.629 5.379,11.996 11.996,11.996 z" /><path
         id="path4700"
         style="fill:#000000;fill-opacity:1;fill-rule:nonzero;stroke:none"
         d="m 372.539,101.379 32.106,-2.813 -2.575,-29.425 c -0.39,-4.442 -4.297,-7.711 -8.726,-7.328 l -16.047,1.41 c -4.442,0.371 -7.727,4.289 -7.328,8.718 l 2.57,29.438 z m -165.879,14.504 32.102,-2.813 -2.571,-29.421 c -0.39,-4.434 -4.296,-7.715 -8.726,-7.321 l -16.059,1.399 c -4.429,0.394 -7.715,4.289 -7.332,8.73 l 2.586,29.426 z m 18.594,73.863 173.91,-15.207 -14.703,43.875 c -0.68,2.024 -2.496,3.457 -4.625,3.645 l -127.309,11.132 c -2.136,0.188 -4.168,-0.906 -5.187,-2.789 l -22.086,-40.656 z m -27.293,-19.18 c 0.309,3.469 1.73,6.75 4.047,9.352 l 3.586,3.996 c 2.508,2.801 4.687,5.883 6.48,9.188 l 25.422,46.785 c 2.547,4.695 7.649,7.429 12.961,6.969 l 133.785,-11.704 c 5.324,-0.472 9.867,-4.05 11.563,-9.113 l 16.91,-50.484 c 1.191,-3.567 2.801,-6.981 4.781,-10.172 l 2.844,-4.563 c 1.84,-2.964 2.668,-6.445 2.363,-9.921 l -3.039,-34.774 c -0.648,-7.383 -7.152,-12.855 -14.551,-12.207 l -197.98,17.316 c -7.403,0.641 -12.856,7.165 -12.211,14.555" /><path
         id="path4702"
         style="fill:#000000;fill-opacity:1;fill-rule:nonzero;stroke:none"
         d="m 418.406,52.406 -1.207,-2.519 13.207,0 0,1.707 -7.199,2.406 -4.801,-1.594 z m 5.598,12.797 -0.797,-3.207 -5.195,-3.191 1.191,-4.805 4.399,1.602 6.804,-2.411 0,13.61 -1.597,0.402 -4.805,-2 z m -2,9.492 0.808,-5.5 1.192,-1.992 4.805,1.598 1.597,-0.402 0,6.296 -8.402,0 z m -8.402,-3.89 0.402,-6.809 3.601,-2.797 0.243,-0.8 3.754,2.003 0.972,3.762 -1.765,3.031 -7.207,1.61 z m 3.207,3.89 -2.395,-2.304 6.789,-1.586 -0.394,3.89 -4,0 z m -14.004,-11.492 7.199,2 2.406,0 -0.406,5.992 -2.797,0 -5.602,-5.597 -0.8,-2.395 z m -5.993,-3.207 3.196,-5.195 4.394,-0.406 0,-4.508 10.797,0 2.406,3.304 -1.593,7.618 -4.41,2.785 -14.79,-3.598 z m -8.011,-2.801 -1.989,-4.398 3.196,-2.91 12.961,0 0,3.304 -3.762,0.407 -3.602,5.992 -6.804,-2.395 z m -11.996,-6.007 0,-1.301 11.199,0 -2.402,2.113 -8.797,-0.812 z m 0,9.211 -3.196,-5.598 3.196,-2.395 8.797,0.785 1.605,4.004 -3.203,0.809 -7.199,2.395 z m -10.403,-6.083 2,-4.429 6.403,0 0.402,1.301 -3.598,3.207 -5.207,-0.079 z m -5.199,2.879 3.602,0 0.808,-1.593 6.399,0 3.195,5.597 -4.805,2.004 -0.797,1.836 -8.402,-7.844 z m -1.598,17.5 -0.164,-2.304 2.957,-2.395 4.407,-5.59 2.394,2 -3.992,8.289 -5.602,0 z m -2.796,-10.289 1.191,-2.41 4.801,-1.187 2.812,2.785 -4.004,5.601 -4.8,-4.789 z m -2.801,10.289 -0.797,-3.5 2.785,-5.597 4.41,4.398 -2.406,2.395 0.402,2.304 -4.394,0 z m -6.403,-24.808 19.594,0 -2.801,6.117 -12.394,0 -4.399,-6.117 z m 6.793,15.316 -5.992,-2.406 -3.597,-4.793 4,-3.609 2.394,3.195 8,0 2.406,2 -5.207,1.609 -2.004,4.004 z m -7.992,5.602 -2.004,-1.61 3.203,-5.199 5.997,2.805 -1.598,3.195 -5.598,0.809 z m -0.406,3.89 1.605,-2.304 4.399,-0.789 0.797,3.093 -6.801,0 z m -9.988,-18.3 0,-6.508 9.593,0 2.399,3.304 -4.805,4.004 -7.187,-0.8 z m 0,10.406 0,-8.797 7.187,0.801 3.207,3.992 -3.207,5.602 -7.187,-1.598 z m 0,7.894 0,-6.296 7.187,1.597 2.406,2.395 -1.597,2.304 -7.996,0 z m 30.39,1.59 5.207,-11.879 16.395,-5.601 12.801,3.992 1.203,3.609 6.789,6.793 4.008,0 2.394,3.086 16.801,0 0,-27.992 -384,0 0,27.992" /></g></g></svg>