<?xml version="1.0" encoding="UTF-8" standalone="no"?>
<svg
   xmlns:dc="http://purl.org/dc/elements/1.1/"
   xmlns:cc="http://creativecommons.org/ns#"
   xmlns:rdf="http://www.w3.org/1999/02/22-rdf-syntax-ns#"
   xmlns:svg="http://www.w3.org/2000/svg"
   xmlns="http://www.w3.org/2000/svg"
   viewBox="0 0 600 450.005"
   height="450.005"
   width="600"
   xml:space="preserve"
   version="1.1"
   id="svg4465"><metadata
     id="metadata4471"><rdf:RDF><cc:Work
         rdf:about=""><dc:format>image/svg+xml</dc:format><dc:type
           rdf:resource="http://purl.org/dc/dcmitype/StillImage" /><dc:title></dc:title></cc:Work></rdf:RDF></metadata><defs
     id="defs4469" /><g
     transform="matrix(1.25,0,0,-1.25,0,450.005)"
     id="g4473"><g
       id="g4475"><path
         id="path4477"
         style="fill:#ffffff;fill-opacity:1;fill-rule:nonzero;stroke:none"
         d="m 31.996,359.774 c -17.504,0 -31.754,-14.25 -31.754,-31.766 L 0.242,32 c 0,-17.508 14.25,-31.758 31.754,-31.758 l 416.008,0 c 17.516,0 31.766,14.25 31.766,31.758 l 0,296.008 c 0,17.516 -14.25,31.766 -31.766,31.766" /><path
         id="path4479"
         style="fill:#000000;fill-opacity:1;fill-rule:nonzero;stroke:none"
         d="M 31.996,0.469 C 14.613,0.469 0.477,14.613 0.477,32 l 0,296.008 c 0,17.383 14.136,31.523 31.519,31.523 l 416.008,0 c 17.383,0 31.519,-14.14 31.519,-31.523 l 0,-296.008 c 0,-17.387 -14.136,-31.531 -31.519,-31.531 l -416.008,0 z m 416.008,359.535 -416.008,0 C 14.328,360.004 0,345.676 0,328.008 L 0,32 C 0,14.328 14.328,0 31.996,0 L 448.004,0 C 465.672,0 480,14.328 480,32 l 0,296.008 c 0,17.668 -14.328,31.996 -31.996,31.996" /><path
         id="path4481"
         style="fill:#000000;fill-opacity:1;fill-rule:nonzero;stroke:none"
         d="m 31.996,352.012 c -13.25,0 -23.992,-10.746 -23.992,-24.004 L 8.004,32 C 8.004,18.75 18.746,7.996 31.996,7.996 l 416.008,0 c 13.25,0 24.004,10.754 24.004,24.004 l 0,296.008 c 0,13.258 -10.754,24.004 -24.004,24.004 l -416.008,0 z m 0,-12.008 416.008,0 c 6.629,0 12.004,-5.367 12.004,-11.996 l 0,-296.008 c 0,-6.633 -5.375,-11.996 -12.004,-11.996 l -416.008,0 C 25.379,20.004 20,25.367 20,32 l 0,296.008 c 0,6.629 5.379,11.996 11.996,11.996 z" /><path
         id="path4483"
         style="fill:#000000;fill-opacity:1;fill-rule:nonzero;stroke:none"
         d="m 245.246,141.988 13.762,154.649 c 0.652,8.519 7.863,15.074 16.379,15.074 l 1.968,0 137.61,-11.797 c 8.519,-0.652 15.07,-7.863 15.07,-17.039 l 0,-1.312 L 416.93,127.57 245.246,141.988 Z M 392.027,67.285 c -1.965,0 -3.929,1.965 -3.929,4.586 l 0,0.653 3.929,47.183 c 0,2.621 2.625,4.59 4.59,4.59 l 0.656,0 14.415,-1.313 c 2.621,0 3.933,-1.968 3.933,-4.589 l 0,-0.653 -3.933,-47.183 c 0,-2.618 -1.965,-4.586 -4.586,-4.586 l -0.657,0 -14.418,1.312 z M 273.422,77.77 c -2.621,0 -4.586,1.964 -4.586,4.586 l 0,0.656 4.586,47.179 c 0,2.622 1.965,4.59 4.59,4.59 l 0.652,0 13.762,-1.312 c 2.621,0 4.586,-2.621 4.586,-4.59 l 0,-0.652 -1.309,-13.106 0,-0.656 c 0,-1.965 1.965,-4.586 4.586,-4.586 l 9.176,-0.652 0.652,0 c 1.969,0 3.93,0.652 5.899,1.964 l 3.273,2.622 c 2.621,1.964 5.902,3.277 9.176,3.277 3.93,0 7.863,-1.965 10.484,-4.59 l 3.278,-3.277 c 1.312,-1.965 3.277,-3.278 5.898,-3.278 l 9.172,-0.652 c 0,-0.656 0,-0.656 0.656,-0.656 1.965,0 4.586,1.969 4.586,4.59 l 1.313,13.105 c 0,2.617 1.964,4.586 4.586,4.586 l 0.656,0 13.761,-1.312 c 2.622,-0.653 4.586,-2.618 4.586,-4.586 l 0,-0.653 -3.929,-47.84 c -0.657,-1.964 -2.621,-3.929 -5.242,-3.929 l -14.418,1.308 c -2.622,0 -4.586,1.965 -4.586,4.586 l 0,0.653 1.308,13.109 c 0,2.617 -1.965,4.586 -4.586,4.586 l -8.519,1.312 -1.309,0 c -1.969,0 -3.933,-0.656 -5.902,-2.621 l -3.274,-2.621 c -2.621,-1.965 -5.898,-2.617 -9.172,-2.617 -3.933,0 -7.863,1.313 -10.484,4.586 l -2.621,3.277 c -1.969,1.965 -3.934,2.621 -6.555,3.278 l -9.172,0.656 c -2.621,0 -4.589,-1.969 -5.242,-4.59 l -0.656,-13.105 c -0.656,-1.965 -2.621,-3.93 -5.242,-3.93 l -14.418,1.312 0,-0.007 z m -28.832,2.621 c -1.965,0 -3.934,1.965 -3.934,4.586 l 3.934,47.836 c 0,2.621 2.621,4.589 4.586,4.589 l 0.656,0 14.418,-1.312 c 2.621,-0.656 3.93,-2.621 3.93,-5.242 l -3.93,-47.84 c 0,-1.965 -1.969,-3.93 -4.59,-3.93 l -0.652,0 -14.418,1.313 z m 147.437,-17.696 3.278,-1.964 6.554,1.964 0,3.278 -9.832,-3.278 z m -11.793,1.969 1.965,0.652 8.52,-3.277 2.621,-1.969 -4.586,-1.964 -3.934,0.656 -3.277,1.965 0,1.964 -1.309,1.965 0,0.008 z m 38.008,-12.453 -1.312,-1.965 13.761,0 0,1.313 -7.207,2.617 -5.242,-1.965 z m 5.895,13.105 -0.653,-3.277 -5.246,-3.277 1.313,-4.586 3.929,1.312 7.211,-1.968 0,13.105 -1.964,0.656 -4.59,-1.965 z m -1.965,9.176 0.656,-5.242 1.309,-1.965 4.59,1.313 1.964,0 0,5.894 -8.519,0 z m -8.52,-3.933 0.657,-6.551 3.277,-2.621 0,-0.653 3.93,1.965 1.312,3.278 -1.965,3.277 -7.211,1.309 0,-0.004 z m 3.278,3.933 -2.621,-1.968 7.207,-1.965 -0.653,3.933 -3.933,0 z m -20.313,-14.418 3.278,-5.242 4.585,-0.652 0,-3.934 10.485,0 2.621,3.278 -1.309,7.21 -4.589,2.618 -15.071,-3.278 z m -7.863,-2.617 -1.969,-4.59 3.277,-2.617 13.106,0 0,3.277 -3.93,0 -3.277,5.899 -7.207,-1.969 z m -11.797,-5.898 0,-1.313 11.141,0 -2.621,1.965 -8.52,-0.652 z m 0,9.172 -3.277,-5.899 3.277,-2.617 8.52,1.312 1.964,3.93 -3.277,0.656 -7.207,2.618 z m -10.484,-6.551 1.965,-3.934 6.554,0 0,1.313 -3.277,2.621 -5.242,0 z m -5.243,3.277 8.52,7.863 0.652,-1.964 4.59,-1.969 -2.621,-5.895 -6.555,0 -0.656,1.965 -3.93,0 z m -4.589,7.207 5.246,4.59 3.929,-5.898 -3.277,-2.622 -4.586,1.313 -1.312,2.621 0,-0.004 z m -2.621,9.828 -0.653,-3.277 2.621,-5.242 4.586,3.933 -2.621,2.618 0.656,1.968 -4.589,0 z m -6.551,-24.242 19.66,0 -2.625,5.895 -12.449,0 -4.586,-5.895 z m 7.207,15.07 1.965,-3.933 5.242,-1.965 -2.621,-1.965 -7.864,0 -2.621,-3.277 -3.929,3.929 3.929,4.59 5.899,2.617 0,0.004 z m -8.516,5.243 -1.969,-1.309 3.278,-5.242 5.898,2.621 -1.312,3.273 -5.895,0.653 0,0.004 z m 0,3.929 1.309,-1.965 4.586,-0.652 0.656,2.617 -6.551,0 z m -9.832,-18.347 0,-5.895 9.172,0 2.625,3.277 -4.586,3.93 -7.211,-1.312 z m 0,10.484 0,-8.516 7.211,0.653 2.621,3.933 -2.621,5.895 -7.211,-1.965 z m 0,7.863 0,-5.894 7.211,1.308 1.961,2.618 -1.309,1.964 -7.863,0 0,0.004 z m 22.934,1.969 0,-1.969 c 0,-2.617 1.968,-4.586 4.59,-4.586 l 3.277,-5.242 2.621,1.965 -0.656,2.621 1.308,0 1.313,-5.242 8.519,-3.277 0,1.964 -1.968,3.278 -7.864,3.277 5.899,-0.652 5.242,-2.621 0.656,0 -1.308,3.281 c 0.652,0 0.652,0.652 1.308,0.652 l 1.965,-3.929 6.555,-2.622 0,3.934 1.308,0 -0.656,-0.656 0,-3.278 9.176,3.278 3.277,-0.653 -0.656,-2.621 6.555,1.965 2.621,0 -0.656,7.207 3.273,3.934 17.039,0 0,-28.176 -384,0 0,28.176" /></g></g></svg>