<?xml version="1.0" encoding="UTF-8" standalone="no"?>
<svg
   xmlns:dc="http://purl.org/dc/elements/1.1/"
   xmlns:cc="http://creativecommons.org/ns#"
   xmlns:rdf="http://www.w3.org/1999/02/22-rdf-syntax-ns#"
   xmlns:svg="http://www.w3.org/2000/svg"
   xmlns="http://www.w3.org/2000/svg"
   viewBox="0 0 601.00201 601.00195"
   height="601.00195"
   width="601.00201"
   xml:space="preserve"
   version="1.1"
   id="svg3612"><metadata
     id="metadata3618"><rdf:RDF><cc:Work
         rdf:about=""><dc:format>image/svg+xml</dc:format><dc:type
           rdf:resource="http://purl.org/dc/dcmitype/StillImage" /><dc:title></dc:title></cc:Work></rdf:RDF></metadata><defs
     id="defs3616" /><g
     transform="matrix(1.25,0,0,-1.25,0,601.00197)"
     id="g3620"><g
       id="g3622"><path
         id="path3624"
         style="fill:#ffffff;fill-opacity:1;fill-rule:nonzero;stroke:none"
         d="m 480.402,240.403 c 0,-132.551 -107.453,-240 -240,-240 -132.55,0 -240,107.449 -240,240 0,132.547 107.45,240 240,240 132.547,0 240,-107.453 240,-240 z" /><path
         id="path3626"
         style="fill:#000000;fill-opacity:1;fill-rule:nonzero;stroke:none"
         d="M 240.398,480.802 C 107.633,480.802 0,373.169 0,240.403 0,107.638 107.633,0.001 240.398,0.001 c 132.766,0 240.403,107.637 240.403,240.402 0,132.766 -107.637,240.399 -240.403,240.399 z m 0,-0.399 c 132.551,0 240,-107.453 240,-240 0,-132.551 -107.449,-240 -240,-240 -132.546,0 -240,107.449 -240,240 0,132.547 107.454,240 240,240 z" /><path
         id="path3628"
         style="fill:#666666;fill-opacity:1;fill-rule:evenodd;stroke:none"
         d="m 368.793,115.852 -170.559,0 0,82.653 170.559,0 0,-82.653 m -18.031,-26.297 -14.278,0 0,0.754 c 0,1.5 0,3.758 -0.75,5.262 0,1.5 -0.75,3.004 -1.504,4.508 -0.753,1.5 -1.5,2.254 -2.253,3.754 -0.75,1.5 -1.5,2.254 -2.254,3.008 -0.75,1.5 -1.5,2.254 -2.254,3.007 -0.75,0 -0.75,0 -0.75,0.75 l 42.074,0 0,-15.027 -18.031,-6.008 0,-0.008 z m -20.285,0 0,-0.753 c 0,-2.254 -0.754,-4.508 -1.504,-6.762 -0.75,-2.254 -1.504,-3.754 -3.008,-5.258 -1.5,-2.254 -3.004,-3.008 -5.258,-4.508 -0.75,-0.754 -3.004,-1.5 -4.512,-2.254 -1.5,-0.754 -3.754,-0.754 -5.254,-0.754 l -3.757,0 c -2.254,0 -3.758,0.754 -5.262,1.504 -1.5,0.75 -3.754,1.5 -5.258,3.004 -1.504,1.504 -3.004,3.008 -4.512,4.512 -0.75,1.5 -1.5,3.004 -1.5,4.508 -0.754,2.254 -1.5,4.508 -1.5,6.761 0,3.008 0.75,5.258 1.5,7.512 0.75,2.254 2.254,4.508 3.008,6.012 1.5,1.5 3.004,3.004 5.254,3.758 1.508,1.5 3.008,1.5 4.512,2.254 2.254,0.754 4.508,1.504 6.762,1.504 2.253,0 5.261,-0.754 7.515,-1.504 2.254,-0.754 3.754,-2.254 5.262,-3.758 1.5,-1.504 3,-3.008 4.504,-4.512 0.754,-1.5 1.504,-3.004 2.254,-4.504 0,-2.254 0.754,-3.758 0.754,-5.262 l 0,-1.5 z m -159.293,0 0,-0.753 c 0,-2.254 0,-4.508 -1.504,-6.762 -0.75,-2.254 -1.5,-3.754 -3.004,-5.258 -1.504,-2.254 -3.004,-3.008 -4.508,-4.508 -1.504,-0.754 -3.004,-1.5 -4.508,-2.254 -2.254,-0.754 -3.758,-0.754 -6.012,-0.754 l -3.757,0 c -1.5,0 -3.004,0.754 -4.508,1.504 -2.254,0.75 -3.754,1.5 -6.008,3.004 -1.508,1.504 -3.008,3.008 -3.762,4.512 -0.746,1.5 -1.5,3.004 -2.254,4.508 -0.75,2.254 -1.5,4.508 -1.5,6.761 0,3.008 0.75,5.258 1.5,7.512 1.508,2.254 2.254,4.508 3.762,6.012 1.5,1.5 3,3.004 4.508,3.758 1.5,1.5 3.004,1.5 4.508,2.254 2.254,0.754 4.508,1.504 6.761,1.504 2.254,0 5.258,-0.754 7.512,-1.504 2.254,-0.754 3.758,-2.254 5.262,-3.758 2.254,-1.504 3.754,-3.008 4.508,-4.512 0.75,-1.5 1.5,-3.004 2.254,-4.504 0.75,-2.254 0.75,-3.758 0.75,-5.262 l 0,-1.5 z m -5.258,48.84 0,29.305 -30.059,-1.504 c -0.746,0 -0.746,-0.75 -0.746,-0.75 l -0.754,0 -0.754,-0.754 0,-0.75 -0.746,0 -9.773,-26.301 0,-2.257 c 0.754,0 0.754,-0.75 0.754,-0.75 0,0 0.75,0 0.75,-0.754 l 1.504,0 39.824,4.508 0,0.007 z m 20.289,39.825 0,-67.625 106.691,0 0,-0.75 c -1.504,-0.754 -3.008,-2.254 -3.754,-3.762 -0.754,-0.75 -1.507,-2.254 -2.257,-3.754 -0.75,-1.504 -1.504,-3.008 -2.254,-4.508 0,-0.754 -0.75,-2.254 -0.75,-3.758 0,-0.75 -0.754,-2.254 -0.754,-3.754 l 0,-0.754 -105.942,0 0,1.5 c 0,3.008 -0.75,6.012 -1.504,8.266 -1.5,3.008 -3.003,5.258 -4.507,7.512 -1.504,2.254 -3.758,3.762 -6.012,5.262 -1.5,0.75 -3.754,2.253 -6.008,3.007 -2.254,0.75 -4.508,0.75 -6.766,0.75 l -5.257,0 c -2.254,0 -4.508,-0.75 -6.012,-1.5 -3.008,-0.754 -5.262,-2.254 -7.516,-4.507 -1.5,-1.504 -3.754,-3.758 -5.258,-6.012 -0.75,-1.5 -2.253,-3.758 -3.003,-6.012 -0.754,-2.25 -0.754,-4.508 -0.754,-6.762 l 0,-1.5 -3.754,0 c -0.754,0 -0.754,0 -1.504,0.75 -0.754,0 -1.5,0 -1.5,0.754 -0.754,0 -0.754,0.754 -1.508,1.504 0,0 -0.746,0.75 -0.746,1.5 l 0,37.567 c 0,0.75 0.746,1.5 0.746,1.5 l 0,1.504 c 0,0.75 0.754,0.75 0.754,1.5 l 12.773,34.562 0,0.754 0.75,0.75 c 0.754,0.754 0.754,0.754 0.754,1.504 0.75,0 0.75,0 1.504,0.75 l 0.75,0 c 0.75,0 0.75,0 1.504,0.754 l 51.094,3.008 z m -114.211,81.898 341.121,0 c 2.254,-0.754 4.508,-0.754 6.762,-1.5 2.254,-0.754 3.758,-2.254 5.261,-3.762 1.5,-0.75 3.008,-3.008 4.508,-4.508 0.754,-1.5 1.5,-3.007 2.254,-4.507 0.754,-2.254 0.754,-4.504 0.754,-6.012 0,-3.004 -0.754,-5.254 -1.508,-8.262 -0.746,-1.504 -1.5,-3.758 -3,-5.262 -1.508,-1.5 -3.008,-3.007 -4.511,-3.757 -1.504,-0.75 -3.004,-1.5 -4.508,-2.254 -2.254,-0.75 -3.758,-0.75 -6.012,-0.75 l -341.871,0 c -2.254,0 -4.508,0 -6.762,1.5 -1.504,0.754 -3.758,1.504 -5.262,3.008 -1.503,1.5 -3.003,3.007 -3.757,4.507 -1.5,1.5 -2.254,3.008 -2.254,4.508 -0.754,2.254 -1.5,4.508 -1.5,6.762 0,2.258 0.746,5.262 1.5,7.516 0.754,1.503 2.254,3.757 3.758,5.257 0.75,1.504 2.253,3.008 4.507,3.758 1.5,1.5 3.008,1.5 4.508,2.254 1.5,0.75 3.754,0.75 5.262,1.5 l 0.75,0 0,0.004 z m 278.758,21.789 0,71.379 -23.293,0 0,11.269 58.609,0 0,-11.269 -23.297,0 0,-71.379 -12.019,0 z m -90.918,82.648 12.027,0 0,-54.093 0.746,-0.754 c 0,-2.254 0,-3.762 0.754,-6.016 0.754,-1.5 1.5,-3.004 3.008,-3.754 0.746,-1.504 2.254,-3.008 3.754,-3.758 0.754,-0.75 2.254,-1.5 3.758,-1.5 1.504,-0.753 3.004,-1.5 4.507,-1.5 l 1.504,0 c 0.75,0 1.5,0 1.5,0.75 1.504,0 3.008,0 4.512,0.754 1.5,0.754 3,1.5 3.754,3.004 1.504,0.754 3.008,2.258 3.758,3.758 0.75,0.754 1.504,2.254 1.504,3.754 0.75,1.504 1.5,3.008 1.5,4.512 l 0,54.851 12.023,0 0,-55.601 c 0,-3.008 -0.75,-6.762 -2.254,-9.766 -0.75,-3.008 -2.254,-5.262 -4.508,-7.516 -1.503,-2.253 -3.757,-4.507 -6.761,-6.011 -1.504,-1.5 -3.758,-2.254 -6.762,-3.004 -2.254,-0.75 -4.508,-1.5 -7.516,-1.5 l -6.011,0 c -2.254,0.754 -4.508,0.754 -6.762,2.254 -2.254,0.754 -5.262,2.254 -7.516,4.508 -2.254,1.503 -4.508,3.757 -6.008,6.761 -1.503,1.5 -2.253,3.758 -3.007,6.762 -0.75,2.254 -1.504,4.508 -1.504,7.516 l 0,55.601 0,-0.012 z m -54.848,-53.347 24.043,0 -12.023,36.066 -12.02,-36.066 z m -23.289,-29.301 30.051,82.648 10.519,0 30.055,-82.648 -13.523,0 -6.012,18.031 -31.559,0 -6.761,-18.031 -12.77,0 z m -82.656,0 0,82.648 11.273,0 24.043,-54.093 23.293,54.093 12.02,0 0,-82.648 -12.77,0 0,51.844 -17.281,-40.574 -10.524,0 -18.031,40.574 0,-51.844" /><path
         id="path3630"
         style="fill:#000000;fill-opacity:1;fill-rule:nonzero;stroke:none"
         d="M 240.398,472.348 C 112.375,472.348 8.457,368.427 8.457,240.403 8.457,112.376 112.375,8.458 240.398,8.458 c 128.028,0 231.946,103.918 231.946,231.945 0,128.024 -103.918,231.945 -231.946,231.945 z m 0,-12 c 46.309,0 89.25,-14.296 124.676,-38.703 L 59.156,115.727 c -24.406,35.426 -38.703,78.368 -38.703,124.676 0,121.539 98.406,219.945 219.945,219.945 z M 372.32,416.446 c 2.418,-1.816 4.793,-3.683 7.133,-5.594 L 69.949,101.348 c -1.91,2.34 -3.777,4.715 -5.594,7.133 L 372.32,416.446 Z m 13.856,-11.316 c 2.25,-1.992 4.461,-4.024 6.629,-6.102 L 81.773,88.001 c -2.078,2.164 -4.109,4.375 -6.101,6.625 L 386.176,405.13 Z m 12.847,-12.328 c 2.082,-2.164 4.114,-4.375 6.106,-6.625 L 94.625,75.673 c -2.25,1.992 -4.461,4.023 -6.625,6.105 l 311.023,311.024 z m 11.829,-13.344 c 1.91,-2.34 3.777,-4.715 5.593,-7.133 L 108.48,64.356 c -2.417,1.817 -4.796,3.684 -7.136,5.594 l 309.508,309.508 z m 10.793,-14.383 c 24.406,-35.426 38.703,-78.367 38.703,-124.672 0,-121.543 -98.407,-219.945 -219.95,-219.945 -46.304,0 -89.246,14.297 -124.671,38.703 l 305.918,305.914 z" /></g></g></svg>