<?xml version="1.0" encoding="UTF-8" standalone="no"?>
<svg
   xmlns:dc="http://purl.org/dc/elements/1.1/"
   xmlns:cc="http://creativecommons.org/ns#"
   xmlns:rdf="http://www.w3.org/1999/02/22-rdf-syntax-ns#"
   xmlns:svg="http://www.w3.org/2000/svg"
   xmlns="http://www.w3.org/2000/svg"
   viewBox="0 0 601 601"
   height="601"
   width="601"
   xml:space="preserve"
   version="1.1"
   id="svg4911"><metadata
     id="metadata4917"><rdf:RDF><cc:Work
         rdf:about=""><dc:format>image/svg+xml</dc:format><dc:type
           rdf:resource="http://purl.org/dc/dcmitype/StillImage" /><dc:title></dc:title></cc:Work></rdf:RDF></metadata><defs
     id="defs4915" /><g
     transform="matrix(1.25,0,0,-1.25,0,600.99998)"
     id="g4919"><g
       id="g4921"><path
         id="path4923"
         style="fill:#ffffff;fill-opacity:1;fill-rule:nonzero;stroke:none"
         d="m 480.398,240.402 c 0,-132.551 -107.449,-240 -240,-240 -132.546,0 -240,107.449 -240,240 0,132.546 107.454,240 240,240 132.551,0 240,-107.454 240,-240 z" /><path
         id="path4925"
         style="fill:#c1121c;fill-opacity:1;fill-rule:nonzero;stroke:none"
         d="m 240.398,472.402 c -127.746,0 -232,-104.254 -232,-232 0,-127.75 104.254,-232 232,-232 127.75,0 232,104.25 232,232 0,127.746 -104.25,232 -232,232 z m 0,-19.204 c 118.008,0 212.801,-94.793 212.801,-212.796 0,-118.012 -94.793,-212.801 -212.801,-212.801 -118.007,0 -212.796,94.789 -212.796,212.801 0,118.003 94.789,212.796 212.796,212.796 z" /><path
         id="path4927"
         style="fill:#000000;fill-opacity:1;fill-rule:nonzero;stroke:none"
         d="M 240.398,480.8 C 107.633,480.8 0,373.167 0,240.402 0,107.632 107.633,-0.001 240.398,-0.001 c 132.77,0 240.403,107.633 240.403,240.403 0,132.765 -107.633,240.398 -240.403,240.398 z m 0,-0.398 c 132.551,0 240,-107.454 240,-240 0,-132.551 -107.449,-240 -240,-240 -132.546,0 -240,107.449 -240,240 0,132.546 107.454,240 240,240 z" /><path
         id="path4929"
         style="fill:#000000;fill-opacity:1;fill-rule:evenodd;stroke:none"
         d="m 72.426,260.402 c -11.043,0 -20,-8.954 -20,-20 0,-11.047 8.957,-20 20,-20 l 335.945,0 c 11.043,0 20,8.953 20,20 0,11.046 -8.957,20 -20,20 l -335.945,0 z" /><path
         id="path4931"
         style="fill:#000000;fill-opacity:1;fill-rule:nonzero;stroke:none"
         d="m 186.148,179.984 -49.336,-3.071 c -2.242,-0.148 -4.183,-1.586 -4.976,-3.687 l -12.559,-33.489 c -0.961,-2.554 -1.445,-5.265 -1.445,-8.003 l 0,-31.446 c 0,-3.148 2.547,-5.695 5.691,-5.695 l 2.852,0 c 0,14.152 11.469,25.621 25.609,25.621 14.153,0 25.621,-11.469 25.621,-25.621 l 102.477,0 c 0,7.742 3.496,15.059 9.516,19.93 l -103.45,0 0,65.461 z m -19.925,-9.957 0,-28.469 -37.797,-4.438 c -1.563,-0.187 -2.981,0.934 -3.16,2.492 -0.051,0.446 0,0.907 0.16,1.333 l 9.547,25.437 c 0.39,1.059 1.359,1.777 2.48,1.848 l 28.77,1.797 z" /><path
         id="path4933"
         style="fill:#000000;fill-opacity:1;fill-rule:nonzero;stroke:none"
         d="m 325.629,94.593 c 0,-11.004 -8.922,-19.926 -19.926,-19.926 -11.004,0 -19.93,8.922 -19.93,19.926 0,11.004 8.926,19.93 19.93,19.93 11.004,0 19.926,-8.926 19.926,-19.93 z m -153.715,0 c 0,-11.004 -8.914,-19.926 -19.93,-19.926 -11.004,0 -19.914,8.922 -19.914,19.926 0,11.004 8.91,19.93 19.914,19.93 11.016,0 19.93,-8.926 19.93,-19.93 z m 190.719,25.621 -165.102,0 0,79.699 165.102,0 0,-79.699 z m -17.078,-25.621 -14.235,0 c 0,7.742 -3.492,15.059 -9.511,19.93 l 40.824,0 0,-14.239" /><path
         id="path4935"
         style="fill:#000000;fill-opacity:1;fill-rule:nonzero;stroke:none"
         d="m 101.746,360.198 11.367,0 22.727,-51.699 22.285,51.699 11.367,0 0,-79.332 -12.035,0 0,49.473 -0.223,0 -16.601,-38.105 -10.028,0 -16.601,38.105 -0.223,0 0,-49.473 -12.035,0 0,79.332 z" /><path
         id="path4937"
         style="fill:#000000;fill-opacity:1;fill-rule:nonzero;stroke:none"
         d="m 225.992,309.28 -11.476,34.653 -0.223,0 -11.477,-34.653 23.176,0 z m 3.453,-10.695 -30.082,0 -6.129,-17.719 -12.703,0 28.86,79.332 10.027,0 28.859,-79.332 -12.703,0 -6.129,17.719 z" /><path
         id="path4939"
         style="fill:#000000;fill-opacity:1;fill-rule:nonzero;stroke:none"
         d="m 257.75,360.198 12.031,0 0,-51.14 c 0,-2.75 0.41,-5.164 1.227,-7.242 0.816,-2.082 1.93,-3.829 3.344,-5.239 1.484,-1.41 3.191,-2.488 5.125,-3.23 2.003,-0.742 4.16,-1.113 6.461,-1.113 2.304,0 4.417,0.371 6.351,1.113 2.004,0.742 3.715,1.82 5.125,3.23 1.484,1.41 2.637,3.157 3.453,5.239 0.817,2.078 1.227,4.492 1.227,7.242 l 0,51.14 12.035,0 0,-52.48 c 0,-4.156 -0.746,-7.945 -2.231,-11.363 -1.41,-3.344 -3.418,-6.203 -6.015,-8.578 -2.528,-2.379 -5.496,-4.235 -8.914,-5.571 -3.418,-1.34 -7.094,-2.008 -11.031,-2.008 -3.938,0 -7.614,0.668 -11.032,2.008 -3.418,1.336 -6.426,3.192 -9.023,5.571 -2.528,2.375 -4.531,5.234 -6.02,8.578 -1.41,3.418 -2.113,7.207 -2.113,11.363 l 0,52.48 z" /><path
         id="path4941"
         style="fill:#000000;fill-opacity:1;fill-rule:nonzero;stroke:none"
         d="m 345.289,349.503 -21.727,0 0,10.695 55.489,0 0,-10.695 -21.731,0 0,-68.637 -12.031,0 0,68.637 z" /></g></g></svg>