<?xml version="1.0" encoding="UTF-8" standalone="no"?>
<svg
   xmlns:dc="http://purl.org/dc/elements/1.1/"
   xmlns:cc="http://creativecommons.org/ns#"
   xmlns:rdf="http://www.w3.org/1999/02/22-rdf-syntax-ns#"
   xmlns:svg="http://www.w3.org/2000/svg"
   xmlns="http://www.w3.org/2000/svg"
   viewBox="0 0 601 601"
   height="601"
   width="601"
   xml:space="preserve"
   version="1.1"
   id="svg5171"><metadata
     id="metadata5177"><rdf:RDF><cc:Work
         rdf:about=""><dc:format>image/svg+xml</dc:format><dc:type
           rdf:resource="http://purl.org/dc/dcmitype/StillImage" /><dc:title></dc:title></cc:Work></rdf:RDF></metadata><defs
     id="defs5175" /><g
     transform="matrix(1.25,0,0,-1.25,0,600.99998)"
     id="g5179"><g
       id="g5181"><path
         id="path5183"
         style="fill:#ffffff;fill-opacity:1;fill-rule:nonzero;stroke:none"
         d="m 480.398,240.402 c 0,-132.551 -107.449,-240 -240,-240 -132.546,0 -240,107.449 -240,240 0,132.546 107.454,240 240,240 132.551,0 240,-107.454 240,-240 z" /><path
         id="path5185"
         style="fill:#c1121c;fill-opacity:1;fill-rule:nonzero;stroke:none"
         d="m 240.398,472.402 c -127.746,0 -232,-104.254 -232,-232 0,-127.75 104.254,-232 232,-232 127.75,0 232,104.25 232,232 0,127.746 -104.25,232 -232,232 z m 0,-19.204 c 118.008,0 212.801,-94.793 212.801,-212.796 0,-118.012 -94.793,-212.801 -212.801,-212.801 -118.007,0 -212.796,94.789 -212.796,212.801 0,118.003 94.789,212.796 212.796,212.796 z" /><path
         id="path5187"
         style="fill:#000000;fill-opacity:1;fill-rule:nonzero;stroke:none"
         d="M 240.398,480.8 C 107.633,480.8 0,373.167 0,240.402 0,107.632 107.633,-0.001 240.398,-0.001 c 132.77,0 240.403,107.633 240.403,240.403 0,132.765 -107.633,240.398 -240.403,240.398 z m 0,-0.398 c 132.551,0 240,-107.454 240,-240 0,-132.551 -107.449,-240 -240,-240 -132.546,0 -240,107.449 -240,240 0,132.546 107.454,240 240,240 z" /><path
         id="path5189"
         style="fill:#000000;fill-opacity:1;fill-rule:evenodd;stroke:none"
         d="m 72.426,260.402 c -11.043,0 -20,-8.954 -20,-20 0,-11.047 8.957,-20 20,-20 l 335.945,0 c 11.043,0 20,8.953 20,20 0,11.046 -8.957,20 -20,20 l -335.945,0 z" /><path
         id="path5191"
         style="fill:#000000;fill-opacity:1;fill-rule:nonzero;stroke:none"
         d="m 101.746,360.198 11.367,0 22.727,-51.699 22.285,51.699 11.367,0 0,-79.332 -12.035,0 0,49.473 -0.223,0 -16.601,-38.105 -10.028,0 -16.601,38.105 -0.223,0 0,-49.473 -12.035,0 0,79.332 z" /><path
         id="path5193"
         style="fill:#000000;fill-opacity:1;fill-rule:nonzero;stroke:none"
         d="m 225.992,309.28 -11.476,34.653 -0.223,0 -11.477,-34.653 23.176,0 z m 3.453,-10.695 -30.082,0 -6.129,-17.719 -12.703,0 28.86,79.332 10.027,0 28.859,-79.332 -12.703,0 -6.129,17.719 z" /><path
         id="path5195"
         style="fill:#000000;fill-opacity:1;fill-rule:nonzero;stroke:none"
         d="m 257.75,360.198 12.031,0 0,-51.14 c 0,-2.75 0.41,-5.164 1.227,-7.242 0.816,-2.082 1.93,-3.829 3.344,-5.239 1.484,-1.41 3.191,-2.488 5.125,-3.23 2.003,-0.742 4.16,-1.113 6.461,-1.113 2.304,0 4.417,0.371 6.351,1.113 2.004,0.742 3.715,1.82 5.125,3.23 1.484,1.41 2.637,3.157 3.453,5.239 0.817,2.078 1.227,4.492 1.227,7.242 l 0,51.14 12.035,0 0,-52.48 c 0,-4.156 -0.746,-7.945 -2.231,-11.363 -1.41,-3.344 -3.418,-6.203 -6.015,-8.578 -2.528,-2.379 -5.496,-4.235 -8.914,-5.571 -3.418,-1.34 -7.094,-2.008 -11.031,-2.008 -3.938,0 -7.614,0.668 -11.032,2.008 -3.418,1.336 -6.426,3.192 -9.023,5.571 -2.528,2.375 -4.531,5.234 -6.02,8.578 -1.41,3.418 -2.113,7.207 -2.113,11.363 l 0,52.48 z" /><path
         id="path5197"
         style="fill:#000000;fill-opacity:1;fill-rule:nonzero;stroke:none"
         d="m 345.289,349.503 -21.727,0 0,10.695 55.489,0 0,-10.695 -21.731,0 0,-68.637 -12.031,0 0,68.637 z" /><path
         id="path5199"
         style="fill:#000000;fill-opacity:1;fill-rule:evenodd;stroke:none"
         d="m 312.961,174.3 -0.352,0 c -0.765,-0.02 -1.527,-0.063 -2.3,-0.16 -1.348,-0.16 -2.668,-0.485 -3.938,-0.981 -0.996,-0.379 -1.937,-0.871 -2.824,-1.464 -0.461,-0.317 -0.887,-0.668 -1.313,-1.032 -0.625,-0.558 -1.172,-1.164 -1.707,-1.804 -0.507,-0.641 -0.968,-1.297 -1.402,-1.989 -0.535,-0.859 -0.996,-1.758 -1.371,-2.699 -0.281,-0.68 -0.535,-1.371 -0.676,-2.086 -0.09,-0.375 -0.137,-0.762 -0.207,-1.14 l 23.32,0 -0.941,-4.579 -22.926,0 c -0.012,-0.449 -0.035,-0.894 -0.035,-1.355 -0.012,-0.633 -0.012,-1.274 0,-1.914 0,-0.414 0.02,-0.824 0.035,-1.25 l 22.004,0 -0.945,-4.567 -20.344,0 c 0.039,-0.156 0.051,-0.312 0.086,-0.472 0.223,-1.02 0.477,-2.035 0.852,-3.031 0.57,-1.684 1.406,-3.305 2.554,-4.661 1.117,-1.394 2.543,-2.519 4.129,-3.367 1.856,-1.019 3.914,-1.64 6.012,-1.844 1.562,-0.183 3.148,-0.144 4.715,0.098 1.418,0.203 2.808,0.567 4.117,1.172 0.98,0.449 1.914,1.043 2.715,1.781 0.09,0.063 0.144,0.125 0.219,0.196 l 0,-7.051 c -0.086,-0.039 -0.172,-0.086 -0.258,-0.106 -0.59,-0.285 -1.196,-0.511 -1.828,-0.718 -1.211,-0.411 -2.473,-0.7 -3.743,-0.883 -2.07,-0.317 -4.218,-0.34 -6.3,-0.16 -1.407,0.113 -2.786,0.316 -4.141,0.644 -1.648,0.387 -3.297,0.953 -4.813,1.742 -1.464,0.731 -2.824,1.672 -4.007,2.774 -0.996,0.886 -1.879,1.894 -2.645,2.957 -1.32,1.804 -2.348,3.828 -3.078,5.937 -0.434,1.164 -0.773,2.364 -1.066,3.563 -0.106,0.469 -0.204,0.945 -0.325,1.429 l -5.222,0 0.945,4.567 3.602,0 c -0.043,0.652 -0.063,1.297 -0.09,1.949 -0.008,0.426 -0.039,0.863 -0.008,1.297 0,0.426 0.008,0.863 0.035,1.273 l -4.48,0 0.945,4.579 3.973,0 c 0.058,0.222 0.086,0.449 0.136,0.667 0.313,1.469 0.739,2.934 1.282,4.325 0.472,1.25 1.074,2.461 1.769,3.601 0.664,1.102 1.438,2.157 2.313,3.102 0.675,0.762 1.441,1.465 2.242,2.117 0.871,0.707 1.804,1.332 2.762,1.906 1.039,0.606 2.117,1.125 3.246,1.559 1.539,0.617 3.152,1.082 4.808,1.348 1.504,0.292 3.067,0.41 4.617,0.386 1.746,0.016 3.5,-0.144 5.196,-0.519 1.285,-0.282 2.523,-0.68 3.699,-1.25 0.613,-0.301 1.211,-0.641 1.805,-1.008 l -1.371,-6.344 c -0.086,0.067 -0.172,0.133 -0.254,0.203 -0.559,0.449 -1.176,0.871 -1.805,1.25 -1.152,0.688 -2.414,1.235 -3.746,1.551 -1.09,0.301 -2.215,0.445 -3.356,0.461 l -0.312,0 m -23.504,-47.859 c 0.723,-0.567 1.453,-1.149 2.203,-1.696 2.231,-1.633 4.699,-2.957 7.281,-3.972 2.617,-1.09 5.391,-1.832 8.192,-2.231 2.324,-0.363 4.687,-0.461 7.011,-0.34 3.274,0.149 6.497,0.739 9.586,1.797 2.825,0.906 5.524,2.215 8.036,3.84 3.085,1.961 5.882,4.418 8.222,7.281 2.387,2.825 4.313,6.032 5.672,9.473 1.535,3.707 2.434,7.691 2.566,11.68 0.059,1.175 0.059,2.363 0,3.55 -0.156,3.235 -0.726,6.481 -1.792,9.559 -0.907,2.836 -2.219,5.535 -3.84,8.031 -1.973,3.102 -4.422,5.903 -7.27,8.231 -2.836,2.394 -6.047,4.308 -9.476,5.664 -4.262,1.773 -8.864,2.668 -13.469,2.617 -3.84,0.043 -7.707,-0.578 -11.332,-1.828 -2.832,-0.93 -5.535,-2.227 -8.028,-3.84 -3.101,-1.965 -5.902,-4.445 -8.242,-7.281 -2.386,-2.824 -4.301,-6.035 -5.656,-9.473 -1.754,-4.266 -2.664,-8.871 -2.617,-13.461 -0.02,-2.64 0.281,-5.285 0.871,-7.863 0.91,-4.07 2.531,-8 4.812,-11.512 1.442,-2.347 3.172,-4.531 5.196,-6.394 0.668,-0.633 1.371,-1.239 2.074,-1.832 z m -16.867,29.648 c -2.715,-0.437 -5.406,-0.871 -7.992,-1.684 -2.84,-0.886 -5.54,-2.207 -8.036,-3.839 -3.113,-1.989 -5.902,-4.45 -8.238,-7.282 -2.387,-2.824 -4.312,-6.035 -5.672,-9.488 -1.758,-4.242 -2.652,-8.855 -2.601,-13.434 -0.051,-3.867 0.582,-7.718 1.828,-11.343 0.922,-2.832 2.215,-5.535 3.84,-8.032 1.965,-3.113 4.433,-5.898 7.281,-8.238 2.824,-2.387 6.035,-4.312 9.473,-5.668 2.632,-1.094 5.39,-1.832 8.191,-2.219 2.328,-0.363 4.687,-0.472 7.027,-0.351 3.27,0.144 6.493,0.738 9.571,1.793 2.836,0.918 5.535,2.215 8.031,3.84 3.101,1.961 5.867,4.437 8.23,7.281 2.434,2.82 4.434,6.02 5.668,9.484 0.922,2.34 1.481,4.813 2.047,7.286 -0.289,0.007 -0.543,0.007 -0.812,0.027 -1.297,0.058 -2.594,0.195 -3.875,0.375 -3.117,0.449 -6.203,1.273 -9.102,2.484 -3.824,1.504 -7.387,3.645 -10.551,6.297 -3.175,2.586 -5.996,5.66 -8.078,9.152 -1.543,2.481 -2.715,5.184 -3.89,7.887 -0.157,0.008 -0.317,0.008 -0.461,0.016 -2.012,0.019 -4.047,-0.422 -5.926,-1.223 -1.359,-0.531 -2.641,-1.246 -3.817,-2.121 -0.968,-0.691 -1.839,-1.488 -2.605,-2.383 -0.727,-0.84 -1.344,-1.758 -1.84,-2.75 -0.363,-0.738 -0.64,-1.515 -0.894,-2.304 -0.231,-0.79 -0.414,-1.575 -0.559,-2.387 -0.172,-0.996 -0.27,-1.988 -0.27,-3.004 -0.007,-0.727 0.043,-1.465 0.161,-2.195 0.07,-0.375 0.156,-0.746 0.242,-1.125 l 21.613,8.734 0.848,-4.578 -21.25,-8.602 c 0.144,-0.425 0.316,-0.847 0.472,-1.273 0.219,-0.594 0.473,-1.188 0.715,-1.781 0.168,-0.375 0.325,-0.75 0.496,-1.141 l 20.391,8.242 0.848,-4.594 -18.864,-7.621 c 0.098,-0.129 0.18,-0.261 0.254,-0.398 0.582,-0.871 1.211,-1.707 1.914,-2.496 1.176,-1.344 2.547,-2.531 4.145,-3.367 1.187,-0.68 2.508,-1.125 3.887,-1.395 1.41,-0.289 2.886,-0.351 4.3,-0.219 1.664,0.137 3.297,0.559 4.86,1.164 1.59,0.633 3.117,1.442 4.461,2.508 0.968,0.742 1.867,1.625 2.531,2.645 0.375,0.531 0.687,1.101 0.992,1.691 l 2.629,-6.527 c -0.047,-0.067 -0.109,-0.145 -0.191,-0.219 -0.887,-0.934 -1.879,-1.781 -2.934,-2.519 -1.516,-1.079 -3.164,-1.93 -4.894,-2.629 -2.11,-0.887 -4.313,-1.551 -6.602,-1.879 -1.684,-0.266 -3.418,-0.352 -5.113,-0.18 -1.625,0.133 -3.235,0.484 -4.762,1.066 -1.262,0.446 -2.434,1.043 -3.559,1.754 -1.906,1.176 -3.613,2.664 -5.078,4.352 -0.836,0.918 -1.601,1.902 -2.316,2.894 -0.278,0.399 -0.543,0.809 -0.836,1.211 l -4.844,-1.961 -0.828,4.602 3.324,1.348 c -0.113,0.214 -0.207,0.418 -0.304,0.64 -0.313,0.688 -0.629,1.395 -0.918,2.117 -0.184,0.461 -0.352,0.934 -0.524,1.395 l -4.144,-1.672 -0.832,4.602 3.668,1.492 c -0.04,0.219 -0.086,0.437 -0.122,0.668 -0.265,1.476 -0.425,2.976 -0.437,4.48 -0.016,1.336 0.059,2.68 0.289,4.012 0.367,2.273 1.133,4.52 2.266,6.543 1.105,2.047 2.582,3.875 4.281,5.449 1.211,1.164 2.531,2.184 3.949,3.055 1.305,0.824 2.692,1.516 4.129,2.098 1.625,0.675 3.297,1.199 5.039,1.46 0.461,0.063 0.91,0.114 1.383,0.172 -0.387,2.582 -0.785,5.164 -0.766,7.754 0,0.68 0.024,1.371 0.059,2.047 l 0,0.004 0.004,0 z m -33.926,-49.918 -73.063,70.781 -32.07,-33.183 c -0.012,-0.012 -0.012,-0.02 -0.039,-0.039 -0.058,-0.071 -0.121,-0.137 -0.172,-0.231 -0.058,-0.058 -0.097,-0.144 -0.144,-0.219 -0.051,-0.097 -0.098,-0.207 -0.133,-0.312 -0.039,-0.098 -0.07,-0.211 -0.086,-0.32 -0.031,-0.129 -0.051,-0.278 -0.039,-0.411 0,-0.109 0,-0.242 0.019,-0.335 0.008,-0.114 0.036,-0.196 0.067,-0.293 0.019,-0.11 0.054,-0.219 0.109,-0.317 0.059,-0.105 0.121,-0.203 0.18,-0.301 0.066,-0.109 0.148,-0.195 0.246,-0.293 0.004,0 0.016,-0.027 0.035,-0.039 L 215.602,61.46 c 0.007,-0.008 0.007,-0.019 0.035,-0.035 0.062,-0.07 0.148,-0.125 0.222,-0.184 0.067,-0.046 0.145,-0.097 0.227,-0.144 0.098,-0.051 0.207,-0.098 0.316,-0.133 0.098,-0.039 0.203,-0.059 0.317,-0.086 0.086,-0.023 0.168,-0.023 0.254,-0.023 0.074,-0.008 0.132,-0.008 0.207,-0.008 0.097,0 0.191,0.008 0.289,0.019 0.097,0.012 0.179,0.039 0.277,0.059 0.109,0.039 0.219,0.086 0.328,0.133 0.106,0.047 0.207,0.105 0.301,0.172 0.098,0.066 0.195,0.152 0.281,0.25 0.012,0 0.039,0.019 0.039,0.019 L 248,91.835 c -2.02,2.231 -4.047,4.457 -5.645,6.977 -1.101,1.722 -2.011,3.59 -2.859,5.465 -0.281,0.621 -0.558,1.25 -0.836,1.878 l 0.012,0.016 -0.004,0 z m 35.309,-25.633 c -0.34,0.008 -0.668,0.039 -0.981,0.055 -0.984,0.062 -1.941,0.172 -2.898,0.316 -3.114,0.45 -6.176,1.286 -9.11,2.473 -2.886,1.113 -5.636,2.555 -8.093,4.41 -0.532,0.387 -1.04,0.785 -1.563,1.199 L 221.867,58.476 c -0.039,-0.051 -0.066,-0.071 -0.109,-0.125 -0.266,-0.254 -0.555,-0.496 -0.86,-0.715 -0.293,-0.195 -0.593,-0.363 -0.91,-0.524 -0.312,-0.156 -0.64,-0.289 -0.976,-0.371 -0.27,-0.089 -0.535,-0.148 -0.817,-0.195 -0.3,-0.051 -0.593,-0.078 -0.894,-0.086 -0.207,0 -0.414,0 -0.629,0.008 -0.246,0.019 -0.5,0.059 -0.742,0.098 -0.34,0.058 -0.664,0.156 -0.981,0.254 -0.316,0.121 -0.617,0.253 -0.922,0.41 -0.23,0.125 -0.461,0.269 -0.679,0.425 -0.239,0.157 -0.461,0.34 -0.676,0.543 -0.039,0.043 -0.059,0.063 -0.113,0.098 l -82.008,79.215 c -0.047,0.035 -0.086,0.066 -0.121,0.105 -0.254,0.266 -0.508,0.559 -0.715,0.86 -0.195,0.281 -0.375,0.597 -0.52,0.898 -0.156,0.313 -0.293,0.656 -0.375,0.981 -0.086,0.277 -0.156,0.547 -0.195,0.824 -0.055,0.351 -0.086,0.703 -0.086,1.055 -0.012,0.414 0.039,0.812 0.109,1.211 0.059,0.328 0.145,0.667 0.254,0.98 0.114,0.316 0.254,0.621 0.41,0.922 0.126,0.23 0.27,0.461 0.426,0.676 0.157,0.246 0.34,0.461 0.535,0.668 0.036,0.039 0.067,0.078 0.106,0.109 l 49.348,51.102 0.125,0.121 c 0.253,0.257 0.543,0.5 0.843,0.714 0.293,0.196 0.594,0.375 0.91,0.536 0.313,0.156 0.641,0.277 0.981,0.375 0.269,0.086 0.547,0.144 0.812,0.195 0.231,0.019 0.461,0.055 0.68,0.055 0.121,0.011 0.254,0.019 0.387,0.011 0.144,0.008 0.301,0 0.461,-0.011 0.242,-0.008 0.496,-0.047 0.75,-0.098 0.328,-0.055 0.656,-0.141 0.972,-0.254 0.313,-0.109 0.614,-0.254 0.918,-0.41 0.243,-0.125 0.473,-0.258 0.68,-0.426 0.281,-0.191 0.535,-0.414 0.789,-0.64 l 55.258,-53.391 c 0.328,0.371 0.641,0.762 0.98,1.137 2.653,3.089 5.684,5.886 9.133,8.093 2.75,1.852 5.77,3.328 8.906,4.262 3.141,0.984 6.383,1.43 9.645,1.879 0.68,3.02 1.359,6.047 2.445,8.93 1.469,3.816 3.649,7.379 6.317,10.531 2.613,3.16 5.703,5.91 9.144,8.09 2.762,1.804 5.778,3.234 8.93,4.265 4.047,1.383 8.312,2.059 12.59,2.036 5.109,0.046 10.25,-0.934 14.961,-2.895 3.816,-1.504 7.379,-3.648 10.527,-6.312 3.152,-2.606 5.902,-5.684 8.078,-9.149 1.809,-2.773 3.239,-5.769 4.281,-8.914 1.161,-3.43 1.84,-7.031 1.973,-10.629 0.086,-1.32 0.059,-2.625 0,-3.937 -0.203,-4.434 -1.125,-8.868 -2.832,-12.977 -1.492,-3.84 -3.652,-7.41 -6.312,-10.527 -2.61,-3.16 -5.696,-5.887 -9.149,-8.094 -2.765,-1.828 -5.754,-3.316 -8.93,-4.266 -3.089,-0.992 -6.335,-1.453 -9.57,-1.914 -0.715,-3.011 -1.406,-6.019 -2.519,-8.89 -1.453,-3.817 -3.625,-7.391 -6.289,-10.543 -2.618,-3.145 -5.696,-5.91 -9.149,-8.078 -2.758,-1.805 -5.777,-3.25 -8.93,-4.278 -3.429,-1.152 -7.011,-1.84 -10.621,-1.976 -0.984,-0.055 -1.976,-0.067 -2.961,-0.036 -0.324,0 -0.664,0.008 -0.968,0.036 l 0,0.015 0.004,0 z m -32.207,60.504 -55.778,53.891 c -0.008,0.008 -0.015,0.015 -0.035,0.015 -0.07,0.071 -0.148,0.133 -0.23,0.184 -0.079,0.047 -0.149,0.109 -0.231,0.145 -0.098,0.05 -0.195,0.097 -0.305,0.132 -0.109,0.039 -0.207,0.059 -0.324,0.086 -0.133,0.02 -0.269,0.043 -0.402,0.043 -0.121,0 -0.238,0 -0.352,-0.043 -0.093,0 -0.179,-0.019 -0.281,-0.047 -0.105,-0.039 -0.215,-0.07 -0.324,-0.136 -0.094,-0.047 -0.192,-0.094 -0.305,-0.164 -0.094,-0.071 -0.191,-0.164 -0.273,-0.246 -0.012,0 -0.024,-0.02 -0.043,-0.02 l -6.336,-6.59 60.578,-58.769 c 0.531,1.949 1.078,3.898 1.828,5.777 0.789,1.977 1.809,3.852 2.84,5.73 l -0.024,0.012 -0.003,0 z" /></g></g></svg>