<?xml version="1.0" encoding="UTF-8" standalone="no"?>
<svg
   xmlns:dc="http://purl.org/dc/elements/1.1/"
   xmlns:cc="http://creativecommons.org/ns#"
   xmlns:rdf="http://www.w3.org/1999/02/22-rdf-syntax-ns#"
   xmlns:svg="http://www.w3.org/2000/svg"
   xmlns="http://www.w3.org/2000/svg"
   viewBox="0 0 601 601"
   height="601"
   width="601"
   xml:space="preserve"
   version="1.1"
   id="svg5939"><metadata
     id="metadata5945"><rdf:RDF><cc:Work
         rdf:about=""><dc:format>image/svg+xml</dc:format><dc:type
           rdf:resource="http://purl.org/dc/dcmitype/StillImage" /><dc:title></dc:title></cc:Work></rdf:RDF></metadata><defs
     id="defs5943" /><g
     transform="matrix(1.25,0,0,-1.25,0,600.99998)"
     id="g5947"><g
       id="g5949"><path
         id="path5951"
         style="fill:#ffffff;fill-opacity:1;fill-rule:nonzero;stroke:none"
         d="m 480.398,240.402 c 0,-132.551 -107.449,-240 -240,-240 -132.546,0 -240,107.449 -240,240 0,132.546 107.454,240 240,240 132.551,0 240,-107.454 240,-240 z" /><path
         id="path5953"
         style="fill:#000000;fill-opacity:1;fill-rule:nonzero;stroke:none"
         d="m 289.613,316.351 0,55.054 8.352,0 0,-47.195 26.867,0 0,-7.859 -35.219,0 z m -43.004,0 0,55.054 8.356,0 0,-47.195 26.867,0 0,-7.859 -35.223,0 z m -49.039,27.508 c 0,6.625 0.176,10.894 0.528,12.812 0.355,1.91 0.98,3.672 1.89,5.289 1.285,2.391 3.395,4.645 6.328,6.762 2.934,2.117 6.571,3.176 10.903,3.176 4.308,0 7.926,-1.059 10.863,-3.176 2.934,-2.117 5.07,-4.371 6.402,-6.762 0.883,-1.617 1.5,-3.379 1.856,-5.289 0.351,-1.918 0.527,-6.187 0.527,-12.812 0,-6.625 -0.176,-10.895 -0.527,-12.813 -0.356,-1.914 -0.973,-3.676 -1.856,-5.285 -1.332,-2.418 -3.468,-4.668 -6.402,-6.746 -2.937,-2.082 -6.559,-3.117 -10.863,-3.117 -4.332,0 -7.969,1.035 -10.903,3.117 -2.933,2.078 -5.043,4.328 -6.328,6.746 -0.91,1.609 -1.535,3.371 -1.89,5.285 -0.352,1.918 -0.528,6.188 -0.528,12.813 z m 8.348,0 c 0,-5.668 0.195,-9.348 0.586,-11.036 0.387,-1.687 1.125,-3.211 2.211,-4.57 0.832,-1.109 1.965,-2.058 3.398,-2.851 1.438,-0.797 3.133,-1.192 5.102,-1.192 1.965,0 3.664,0.395 5.101,1.192 1.434,0.793 2.567,1.742 3.399,2.851 1.086,1.359 1.824,2.883 2.211,4.57 0.39,1.688 0.586,5.368 0.586,11.036 0,5.64 -0.196,9.304 -0.586,10.992 -0.387,1.691 -1.125,3.242 -2.211,4.652 -0.832,1.055 -1.965,1.988 -3.399,2.793 -1.437,0.809 -3.136,1.211 -5.101,1.211 -1.969,0 -3.664,-0.402 -5.102,-1.211 -1.433,-0.805 -2.566,-1.738 -3.398,-2.793 -1.086,-1.41 -1.824,-2.961 -2.211,-4.652 -0.391,-1.688 -0.586,-5.352 -0.586,-10.992 z m -49.957,-27.508 0,6.953 25.019,40.695 -23.992,0 0,7.406 34.196,0 0,-6.273 -25.09,-40.922 25.09,0 0,-7.855 -35.223,0 0,-0.004 z" /><path
         id="path5955"
         style="fill:#c1121c;fill-opacity:1;fill-rule:nonzero;stroke:none"
         d="m 240.398,472.402 c -127.746,0 -232,-104.254 -232,-232 0,-127.75 104.254,-232 232,-232 127.75,0 232,104.25 232,232 0,127.746 -104.25,232 -232,232 z m 0,-19.204 c 118.008,0 212.801,-94.793 212.801,-212.796 0,-118.012 -94.793,-212.801 -212.801,-212.801 -118.007,0 -212.796,94.789 -212.796,212.801 0,118.003 94.789,212.796 212.796,212.796 z" /><path
         id="path5957"
         style="fill:#000000;fill-opacity:1;fill-rule:nonzero;stroke:none"
         d="m 23.836,456.515 0,-0.028 -0.024,0 0.024,0.028 z" /><path
         id="path5959"
         style="fill:#000000;fill-opacity:1;fill-rule:nonzero;stroke:none"
         d="m 23.812,456.515 0.023,0 0,-0.023 -0.023,0 0,0.023 z" /><path
         id="path5961"
         style="fill:#000000;fill-opacity:1;fill-rule:nonzero;stroke:none"
         d="m 23.812,456.487 0,0.028 0.024,-0.028 -0.024,0 z m 0.024,0 -0.024,0.028 0,-0.028 0.024,0 z" /><path
         id="path5963"
         style="fill:#000000;fill-opacity:1;fill-rule:nonzero;stroke:none"
         d="m 23.859,456.487 -0.047,0 0.024,0 0,0.028 0.027,-0.028 -0.004,0 z" /><path
         id="path5965"
         style="fill:#000000;fill-opacity:1;fill-rule:nonzero;stroke:none"
         d="m 23.812,456.487 0,0.028 0,-0.028 0.024,0.028 -0.024,-0.028 z" /><path
         id="path5967"
         style="fill:#000000;fill-opacity:1;fill-rule:nonzero;stroke:none"
         d="m 23.812,456.515 0.023,0 0,-0.023 -0.023,0 0,0.023 z" /><path
         id="path5969"
         style="fill:#000000;fill-opacity:1;fill-rule:nonzero;stroke:none"
         d="m 23.859,456.515 0,-0.047 -0.047,0 0.047,0.047 z" /><path
         id="path5971"
         style="fill:#000000;fill-opacity:1;fill-rule:nonzero;stroke:none"
         d="m 23.812,456.515 0.051,0 0,-0.047 -0.051,0 0,0.047 z" /><path
         id="path5973"
         style="fill:#000000;fill-opacity:1;fill-rule:nonzero;stroke:none"
         d="m 23.812,456.464 0,0.051 0.047,-0.051 -0.047,0 z m 0.047,0 -0.047,0.051 0,-0.051 0.047,0 z" /><path
         id="path5975"
         style="fill:#000000;fill-opacity:1;fill-rule:nonzero;stroke:none"
         d="m 23.859,456.464 -0.047,0 0.024,0 0,0.051 0.027,-0.051 -0.004,0 z" /><path
         id="path5977"
         style="fill:#000000;fill-opacity:1;fill-rule:nonzero;stroke:none"
         d="m 23.812,456.464 0,0.051 0,-0.051 0.047,0.051 -0.047,-0.051 z" /><path
         id="path5979"
         style="fill:#000000;fill-opacity:1;fill-rule:nonzero;stroke:none"
         d="m 23.812,456.515 0.051,0 0,-0.047 -0.051,0 0,0.047 z" /><path
         id="path5981"
         style="fill:#000000;fill-opacity:1;fill-rule:nonzero;stroke:none"
         d="m 23.859,456.515 0,-0.047 -0.047,0 0.047,0.047 z" /><path
         id="path5983"
         style="fill:#000000;fill-opacity:1;fill-rule:nonzero;stroke:none"
         d="m 23.812,456.515 0.051,0 0,-0.047 -0.051,0 0,0.047 z" /><path
         id="path5985"
         style="fill:#000000;fill-opacity:1;fill-rule:nonzero;stroke:none"
         d="m 23.812,456.464 0,0.051 0.047,-0.051 -0.047,0 z m 0.047,0 -0.047,0.051 0,-0.051 0.047,0 z" /><path
         id="path5987"
         style="fill:#000000;fill-opacity:1;fill-rule:nonzero;stroke:none"
         d="m 23.859,456.464 -0.047,0 0.024,0 0,0.051 0.027,-0.051 -0.004,0 z" /><path
         id="path5989"
         style="fill:#000000;fill-opacity:1;fill-rule:nonzero;stroke:none"
         d="m 23.812,456.464 0,0.051 0,-0.051 0.047,0.051 -0.047,-0.051 z" /><path
         id="path5991"
         style="fill:#000000;fill-opacity:1;fill-rule:nonzero;stroke:none"
         d="m 23.812,456.515 0.051,0 0,-0.047 -0.051,0 0,0.047 z" /><path
         id="path5993"
         style="fill:#000000;fill-opacity:1;fill-rule:nonzero;stroke:none"
         d="m 23.859,456.515 0,-0.047 -0.047,0 0.047,0.047 z" /><path
         id="path5995"
         style="fill:#000000;fill-opacity:1;fill-rule:nonzero;stroke:none"
         d="m 23.812,456.515 0.051,0 0,-0.047 -0.051,0 0,0.047 z" /><path
         id="path5997"
         style="fill:#000000;fill-opacity:1;fill-rule:nonzero;stroke:none"
         d="m 23.812,456.464 0,0.051 0.047,-0.051 -0.047,0 z m 0.047,0 -0.047,0.051 0,-0.051 0.047,0 z" /><path
         id="path5999"
         style="fill:#000000;fill-opacity:1;fill-rule:nonzero;stroke:none"
         d="m 23.859,456.464 -0.047,0 0.024,0 0,0.051 0.027,-0.051 -0.004,0 z" /><path
         id="path6001"
         style="fill:#000000;fill-opacity:1;fill-rule:nonzero;stroke:none"
         d="m 23.812,456.464 0,0.051 0,-0.051 0.047,0.051 -0.047,-0.051 z" /><path
         id="path6003"
         style="fill:#000000;fill-opacity:1;fill-rule:nonzero;stroke:none"
         d="m 23.812,456.515 0.051,0 0,-0.047 -0.051,0 0,0.047 z" /><path
         id="path6005"
         style="fill:#1a1a1a;fill-opacity:1;fill-rule:nonzero;stroke:none"
         d="m 76.398,276.402 c -19.878,0 -36,-16.122 -36,-36 0,-19.883 16.122,-36 36,-36 l 328,0 c 19.883,0 36,16.117 36,36 0,19.878 -16.117,36 -36,36 l -328,0 z" /><path
         id="path6007"
         style="fill:#000000;fill-opacity:1;fill-rule:nonzero;stroke:none"
         d="m 356.094,109.335 0,55.055 35.218,0 0,-7.899 -26.867,0 0,-15.679 22.899,0 0,-7.446 -22.899,0 0,-16.171 26.867,0 0,-7.86 -35.218,0 z m -54.5,0 0,55.055 7.894,0 24.903,-39.149 0.148,0 0,39.149 8.391,0 0,-55.055 -7.899,0 -24.898,39.149 -0.192,0 0,-39.149 -8.351,0 0.004,0 z m -57.199,0.039 20.101,55.09 6.875,0 20.106,-55.09 -8.77,0 -4.23,12.426 -20.895,0 -4.383,-12.426 -8.804,0 z m 15.64,19.797 15.949,0 c -1.16,3.402 -2.074,6.066 -2.742,7.992 -0.668,1.926 -1.246,3.633 -1.738,5.121 -0.492,1.485 -0.988,2.996 -1.492,4.536 -0.504,1.535 -1.172,3.613 -2.004,6.234 -0.879,-2.723 -1.586,-4.895 -2.113,-6.524 -0.532,-1.625 -1.04,-3.191 -1.532,-4.703 -0.492,-1.511 -1.058,-3.199 -1.703,-5.062 -0.64,-1.867 -1.515,-4.399 -2.625,-7.594 z m -65.988,-1.207 0,36.426 8.355,0 0,-35.481 c 0,-3.804 1.075,-6.707 3.231,-8.711 2.152,-2.003 4.816,-3.003 7.992,-3.003 3.172,0 5.836,1 7.992,3.003 2.153,2.004 3.399,4.911 3.231,8.711 l 0,35.481 8.351,0 0,-36.426 c 0,-5.746 -1.902,-10.359 -5.707,-13.848 -3.804,-3.492 -8.426,-5.234 -13.867,-5.234 -5.465,0 -10.094,1.742 -13.887,5.234 -3.789,3.489 -5.687,8.106 -5.687,13.848 l -0.004,0 z m -52.859,8.879 c 0,6.625 0.175,10.894 0.527,12.809 0.351,1.914 0.984,3.679 1.89,5.293 1.286,2.39 3.391,4.644 6.329,6.761 2.933,2.117 6.57,3.172 10.902,3.172 4.305,0 7.926,-1.055 10.863,-3.172 2.934,-2.117 5.071,-4.371 6.403,-6.761 0.882,-1.614 1.5,-3.379 1.855,-5.293 0.352,-1.915 0.527,-6.184 0.527,-12.809 0,-6.625 -0.175,-10.895 -0.527,-12.813 -0.355,-1.914 -0.973,-3.675 -1.855,-5.289 -1.332,-2.418 -3.469,-4.664 -6.403,-6.742 -2.937,-2.082 -6.558,-3.121 -10.863,-3.121 -4.336,0 -7.969,1.039 -10.902,3.121 -2.938,2.078 -5.043,4.324 -6.329,6.742 -0.906,1.614 -1.539,3.375 -1.89,5.289 -0.352,1.915 -0.527,6.188 -0.527,12.813 z m 8.347,0 c 0,-5.668 0.192,-9.348 0.586,-11.035 0.387,-1.688 1.125,-3.211 2.207,-4.571 0.832,-1.109 1.965,-2.058 3.402,-2.855 1.434,-0.793 3.137,-1.191 5.102,-1.191 1.965,0 3.664,0.398 5.102,1.191 1.433,0.797 2.57,1.746 3.398,2.855 1.086,1.36 1.824,2.883 2.211,4.571 0.391,1.687 0.586,5.363 0.586,11.035 0,5.641 -0.195,9.305 -0.586,10.996 -0.387,1.688 -1.125,3.234 -2.211,4.648 -0.828,1.055 -1.965,1.989 -3.398,2.793 -1.438,0.805 -3.137,1.211 -5.102,1.211 -1.965,0 -3.668,-0.406 -5.102,-1.211 -1.437,-0.804 -2.57,-1.738 -3.402,-2.793 -1.082,-1.414 -1.82,-2.96 -2.207,-4.648 -0.394,-1.691 -0.586,-5.355 -0.586,-10.996 z m -60.047,-27.512 0,55.059 19.27,0 c 7.535,0 13.129,-3.086 16.777,-9.258 1.36,-2.344 2.192,-4.535 2.496,-6.574 0.301,-2.043 0.453,-5.942 0.453,-11.715 0,-6.195 -0.207,-10.336 -0.625,-12.41 -0.414,-2.082 -1.238,-4.074 -2.472,-5.992 -1.641,-2.567 -3.887,-4.731 -6.746,-6.481 -2.86,-1.75 -6.329,-2.625 -10.411,-2.625 l -18.742,0 0,-0.004 z m 8.352,47.16 0,-39.296 10.015,0 c 4.583,0 7.985,1.601 10.2,4.8 0.91,1.387 1.48,2.879 1.722,4.477 0.239,1.598 0.36,4.957 0.36,10.074 0,4.934 -0.133,8.344 -0.399,10.238 -0.265,1.891 -0.953,3.59 -2.058,5.102 -2.293,3.074 -5.567,4.609 -9.825,4.609 l -10.015,0 0,-0.004 z" /><path
         id="path6009"
         style="fill:#000000;fill-opacity:1;fill-rule:nonzero;stroke:none"
         d="M 240.398,480.8 C 107.633,480.8 0,373.167 0,240.402 0,107.632 107.633,-0.001 240.398,-0.001 c 132.77,0 240.403,107.633 240.403,240.403 0,132.765 -107.633,240.398 -240.403,240.398 z m 0,-0.398 c 132.551,0 240,-107.454 240,-240 0,-132.551 -107.449,-240 -240,-240 -132.546,0 -240,107.449 -240,240 0,132.546 107.454,240 240,240 z" /></g></g></svg>