<?xml version="1.0" encoding="UTF-8" standalone="no"?>
<!-- Created with Inkscape (http://www.inkscape.org/) -->

<svg
   xmlns:dc="http://purl.org/dc/elements/1.1/"
   xmlns:cc="http://creativecommons.org/ns#"
   xmlns:rdf="http://www.w3.org/1999/02/22-rdf-syntax-ns#"
   xmlns:svg="http://www.w3.org/2000/svg"
   xmlns="http://www.w3.org/2000/svg"
   xmlns:sodipodi="http://sodipodi.sourceforge.net/DTD/sodipodi-0.dtd"
   xmlns:inkscape="http://www.inkscape.org/namespaces/inkscape"
   width="52.916664mm"
   height="31.75mm"
   viewBox="0 0 52.916664 31.75"
   version="1.1"
   id="svg144"
   inkscape:version="0.92.4 (33fec40, 2019-01-16)"
   sodipodi:docname="401.svg">
  <defs
     id="defs138" />
  <sodipodi:namedview
     id="base"
     pagecolor="#ffffff"
     bordercolor="#666666"
     borderopacity="1.0"
     inkscape:pageopacity="0.0"
     inkscape:pageshadow="2"
     inkscape:zoom="0.35"
     inkscape:cx="117.14285"
     inkscape:cy="-34.285734"
     inkscape:document-units="mm"
     inkscape:current-layer="layer1"
     showgrid="false"
     fit-margin-top="0"
     fit-margin-left="0"
     fit-margin-right="0"
     fit-margin-bottom="0"
     inkscape:window-width="1366"
     inkscape:window-height="740"
     inkscape:window-x="1920"
     inkscape:window-y="0"
     inkscape:window-maximized="1" />
  <metadata
     id="metadata141">
    <rdf:RDF>
      <cc:Work
         rdf:about="">
        <dc:format>image/svg+xml</dc:format>
        <dc:type
           rdf:resource="http://purl.org/dc/dcmitype/StillImage" />
        <dc:title></dc:title>
      </cc:Work>
    </rdf:RDF>
  </metadata>
  <g
     inkscape:label="Layer 1"
     inkscape:groupmode="layer"
     id="layer1"
     transform="translate(-74.839287,-108.0119)">
    <rect
       style="fill:#f0ca00;fill-rule:evenodd;stroke:none;stroke-width:0.26458332"
       x="74.839287"
       y="108.0119"
       width="52.916664"
       height="31.75"
       rx="5.8869791"
       ry="5.8869791"
       id="rect148" />
    <rect
       style="fill:#000000;fill-rule:evenodd;stroke:none;stroke-width:0.26458332"
       x="75.963768"
       y="109.13638"
       width="50.667709"
       height="29.501041"
       rx="4.7624998"
       ry="4.7624998"
       id="rect150" />
    <rect
       style="fill:#f0ca00;fill-rule:evenodd;stroke:none;stroke-width:0.26458332"
       x="77.815849"
       y="110.98846"
       width="46.963543"
       height="25.796875"
       rx="2.9104166"
       ry="2.9104166"
       id="rect152" />
    <path
       inkscape:connector-curvature="0"
       id="PfadZ"
       style="fill:#000000;fill-rule:evenodd;stroke:none;stroke-width:0.26458332"
       d="m 93.365412,124.8439 v -2.2479 h 0.879739 q 1.271323,0 2.004219,-0.70882 0.732896,-0.70856 0.743479,-1.82033 0,-1.08718 -0.767292,-1.83251 -0.769937,-0.74533 -1.833827,-0.74533 -0.80645,0 -1.527175,0.53763 -0.720725,0.53764 -0.928422,1.61264 h -2.553494 q 0.146579,-1.88145 1.576123,-3.28639 1.429279,-1.40494 3.335337,-1.41711 2.38125,0 3.812646,1.56369 1.42875,1.56395 1.439333,3.51869 0,1.02606 -0.402166,1.99126 -0.402167,0.9652 -1.502834,1.68592 1.124479,0.72099 1.613959,1.77165 0.486833,1.05066 0.486833,2.12566 0,2.49238 -1.563688,3.97061 -1.563687,1.47822 -3.835399,1.47822 -1.808163,0 -3.249613,-1.16046 -1.441715,-1.16073 -1.808162,-3.40863 h 2.553229 q 0.354541,0.91626 0.953029,1.46606 0.598752,0.5498 1.698096,0.56197 1.064154,0 1.881716,-0.74533 0.817563,-0.74506 0.817563,-2.07698 0,-1.33164 -0.804334,-2.07671 -0.806979,-0.74533 -1.943629,-0.7575 z" />
    <path
       inkscape:connector-curvature="0"
       id="PfadE"
       style="fill:#000000;fill-rule:evenodd;stroke:none;stroke-width:0.26458332"
       d="m 103.17801,124.72166 v -9.62713 h 9.48081 v 2.55349 h -7.07389 v 4.01929 q 1.22158,-0.97737 2.84585,-0.97737 1.01336,0 1.84415,0.39105 0.83079,0.39106 1.3335,0.91626 0.73289,0.79401 1.06362,1.7227 0.32809,0.92842 0.34132,3.15198 0,1.79599 -0.25665,2.66329 -0.25665,0.86731 -0.84402,1.61264 -0.55033,0.69638 -1.53988,1.29514 -0.98954,0.59848 -2.32039,0.59848 -1.72244,0 -3.3229,-1.06283 -1.60047,-1.06283 -1.88145,-3.5552 h 2.55349 q 0.45217,2.07697 2.55296,2.07697 1.87061,0 2.18811,-1.28296 0.3175,-1.2827 0.3175,-2.54106 0,-1.47823 -0.50271,-2.4556 -0.50006,-0.97737 -2.07566,-0.97737 -1.47849,0 -2.29684,1.47823 z" />
    <rect
       id="rect175"
       ry="5.8869791"
       rx="5.8869791"
       height="31.75"
       width="52.916664"
       y="108.0119"
       x="74.839287"
       style="fill:#f0ca00;fill-rule:evenodd;stroke:none;stroke-width:0.26458332" />
    <rect
       id="rect177"
       ry="4.7624998"
       rx="4.7624998"
       height="29.501041"
       width="50.667709"
       y="109.13638"
       x="75.963768"
       style="fill:#000000;fill-rule:evenodd;stroke:none;stroke-width:0.26458332" />
    <rect
       id="rect179"
       ry="2.9104166"
       rx="2.9104166"
       height="25.796875"
       width="46.963543"
       y="110.98846"
       x="77.815849"
       style="fill:#f0ca00;fill-rule:evenodd;stroke:none;stroke-width:0.26458332" />
  </g>
</svg>
