<?xml version="1.0" encoding="UTF-8" standalone="no"?>
<!-- Created with Inkscape (http://www.inkscape.org/) -->

<svg
   xmlns:dc="http://purl.org/dc/elements/1.1/"
   xmlns:cc="http://creativecommons.org/ns#"
   xmlns:rdf="http://www.w3.org/1999/02/22-rdf-syntax-ns#"
   xmlns:svg="http://www.w3.org/2000/svg"
   xmlns="http://www.w3.org/2000/svg"
   xmlns:sodipodi="http://sodipodi.sourceforge.net/DTD/sodipodi-0.dtd"
   xmlns:inkscape="http://www.inkscape.org/namespaces/inkscape"
   width="62.44696mm"
   height="37.172306mm"
   viewBox="0 0 62.44696 37.172306"
   version="1.1"
   id="svg387"
   inkscape:version="0.92.4 (33fec40, 2019-01-16)"
   sodipodi:docname="410.svg">
  <defs
     id="defs381" />
  <sodipodi:namedview
     id="base"
     pagecolor="#ffffff"
     bordercolor="#666666"
     borderopacity="1.0"
     inkscape:pageopacity="0.0"
     inkscape:pageshadow="2"
     inkscape:zoom="0.35"
     inkscape:cx="232.29571"
     inkscape:cy="21.675445"
     inkscape:document-units="mm"
     inkscape:current-layer="layer1"
     showgrid="false"
     fit-margin-top="0"
     fit-margin-left="0"
     fit-margin-right="0"
     fit-margin-bottom="0"
     inkscape:window-width="1366"
     inkscape:window-height="740"
     inkscape:window-x="1920"
     inkscape:window-y="0"
     inkscape:window-maximized="1" />
  <metadata
     id="metadata384">
    <rdf:RDF>
      <cc:Work
         rdf:about="">
        <dc:format>image/svg+xml</dc:format>
        <dc:type
           rdf:resource="http://purl.org/dc/dcmitype/StillImage" />
        <dc:title></dc:title>
      </cc:Work>
    </rdf:RDF>
  </metadata>
  <g
     inkscape:label="Layer 1"
     inkscape:groupmode="layer"
     id="layer1"
     transform="translate(-44.371759,-117.39599)">
    <path
       d="m 49.575452,117.46048 c -2.834349,0 -5.140524,2.30485 -5.140524,5.14053 v 26.76326 c 0,2.83567 2.306175,5.14052 5.140524,5.14052 h 52.039578 c 2.83434,0 5.14184,-2.30485 5.14184,-5.14052 v -26.76326 c 0,-2.83568 -2.3075,-5.14053 -5.14184,-5.14053"
       style="fill:#ffffff;fill-opacity:1;fill-rule:nonzero;stroke:none;stroke-width:0.33072916"
       id="path3389"
       inkscape:connector-curvature="0" />
    <path
       d="m 49.575452,154.44559 c -2.800615,0 -5.07967,-2.2817 -5.07967,-5.08 v -26.76326 c 0,-2.80062 2.279055,-5.08232 5.07967,-5.08232 h 52.039578 c 2.79829,0 5.07867,2.2817 5.07867,5.08232 v 26.76326 c 0,2.7983 -2.28038,5.08 -5.07867,5.08 z m 52.039578,-37.0496 H 49.575452 c -2.873045,0 -5.203693,2.33197 -5.203693,5.20634 v 26.76326 c 0,2.87338 2.330648,5.2027 5.203693,5.2027 h 52.039578 c 2.87436,0 5.20369,-2.32932 5.20369,-5.2027 v -26.76326 c 0,-2.87437 -2.32933,-5.20634 -5.20369,-5.20634"
       style="fill:#000000;fill-opacity:1;fill-rule:nonzero;stroke:none;stroke-width:0.33072916"
       id="path3391"
       inkscape:connector-curvature="0" />
    <path
       d="m 49.575452,152.33819 c -1.640748,0 -2.972594,-1.33317 -2.972594,-2.97392 v -26.76326 c 0,-1.64307 1.331846,-2.97392 2.972594,-2.97392 h 52.039578 c 1.64207,0 2.97391,1.33085 2.97391,2.97392 v 26.76326 c 0,1.64075 -1.33184,2.97392 -2.97391,2.97392"
       style="fill:#008754;fill-opacity:1;fill-rule:nonzero;stroke:none;stroke-width:0.33072916"
       id="path3393"
       inkscape:connector-curvature="0" />
  </g>
</svg>
