<?xml version="1.0" encoding="UTF-8" standalone="no"?>
<svg
   xmlns:dc="http://purl.org/dc/elements/1.1/"
   xmlns:cc="http://creativecommons.org/ns#"
   xmlns:rdf="http://www.w3.org/1999/02/22-rdf-syntax-ns#"
   xmlns:svg="http://www.w3.org/2000/svg"
   xmlns="http://www.w3.org/2000/svg"
   viewBox="0 0 669.22375 1004.3262"
   height="1004.3262"
   width="669.22375"
   xml:space="preserve"
   id="svg433"
   version="1.1"><metadata
     id="metadata439"><rdf:RDF><cc:Work
         rdf:about=""><dc:format>image/svg+xml</dc:format><dc:type
           rdf:resource="http://purl.org/dc/dcmitype/StillImage" /><dc:title></dc:title></cc:Work></rdf:RDF></metadata><defs
     id="defs437"><clipPath
       id="clipPath455"
       clipPathUnits="userSpaceOnUse"><path
         id="path453"
         d="M 0,0 H 502 V 754 H 0 Z" /></clipPath></defs><g
     transform="matrix(1.3333333,0,0,1.3333333,0,5.3108154e-5)"
     id="g441"><g
       id="g443" /><g
       id="g445"><g
         id="g447"><g
           id="g449"><g
             clip-path="url(#clipPath455)"
             id="g451"><g
               id="g457"><path
                 id="path459"
                 style="fill:#f0c900;fill-opacity:1;fill-rule:nonzero;stroke:none"
                 d="m 468.773,0 c 18.282,0 33.145,14.859 33.145,33.141 v 686.972 c 0,18.27 -14.863,33.133 -33.145,33.133 H 33.141 C 14.863,753.246 0,738.383 0,720.113 V 33.141 C 0,14.859 14.863,0 33.141,0" /></g></g></g></g><path
         id="path461"
         style="fill:#000000;fill-opacity:1;fill-rule:nonzero;stroke:none"
         d="m 468.773,7.992 c 13.899,0 25.149,11.25 25.149,25.141 v 686.98 c 0,13.879 -11.25,25.117 -25.149,25.117 H 33.141 C 19.25,745.23 8.012,733.992 8.012,720.113 V 33.133 C 8.012,19.242 19.25,7.992 33.141,7.992 Z m 0,12.574 H 33.141 c -6.938,0 -12.575,5.633 -12.575,12.567 v 686.98 c 0,6.934 5.637,12.567 12.575,12.567 h 435.632 c 6.957,0 12.579,-5.633 12.579,-12.567 V 33.133 c 0,-6.934 -5.622,-12.567 -12.579,-12.567 z" /><path
         id="path463"
         style="fill:#000000;fill-opacity:1;fill-rule:evenodd;stroke:none"
         d="m 215.793,463.637 80.922,0.004 -155.996,156.422 27.808,27.804 157.051,-156.828 -0.004,82.445 35.5,-35.5 -0.015,-109.695 0.14,-0.141 -0.144,-0.003 0.008,-0.086 -0.09,0.089 -109.7,0.012 z" /><path
         id="path465"
         style="fill:#000000;fill-opacity:1;fill-rule:nonzero;stroke:none"
         d="m 278.742,76.281 c 50.426,0.489 41.875,-5.211 69.008,81.985 0.004,0.011 0.004,0.011 0.008,0.023 4.078,-0.762 8.285,-1.16 12.574,-1.16 37.941,0 68.856,30.922 68.856,68.855 0,37.938 -30.915,68.852 -68.856,68.852 -37.934,0 -68.852,-30.914 -68.852,-68.852 0,-28.367 17.286,-52.804 41.872,-63.336 -1.555,-4.894 -3.223,-10.101 -5.032,-15.722 -101.465,107.031 -63.394,89.676 -117.996,91.851 -0.461,-0.004 -0.844,0 -1.293,-0.007 -6.468,31.293 -34.265,54.925 -67.433,54.925 -37.938,0 -68.852,-30.918 -68.852,-68.851 0,-37.942 30.914,-68.852 68.852,-68.852 7.679,0 15.07,1.266 21.976,3.602 5.524,-12.239 11.68,-25.903 19.324,-42.91 l -4.718,-12.977 -16.223,-0.297 0.59,-13.566 h 60.457 c 5.344,7.308 -2.16,7.277 -29.199,13.273 l 4.722,13.27 120.614,0.297 C 311.02,88.305 315.609,90.074 279.039,90.141 Z m -74.137,54.739 34.11,91.66 83.918,-91.453 z m -14.23,5.644 -13.207,29.258 c 19.863,12.047 33.191,33.844 33.277,58.68 l 13.41,-0.043 z m -48.777,34.543 c -29.711,0 -53.641,23.922 -53.641,53.637 0,29.711 23.93,53.636 53.641,53.636 24.914,0 45.75,-16.824 51.832,-39.769 -55.668,0.031 -60.774,2.902 -61.555,-6.715 0.078,-2.793 1.457,-5.461 25.41,-58.469 -4.961,-1.504 -10.226,-2.32 -15.687,-2.32 z m 218.734,1.141 c -2.699,0 -5.344,0.199 -7.937,0.582 16.089,50.75 15.066,47.863 15.168,52.293 0.082,3.797 -2.981,6.808 -6.833,7.066 -6.921,-0.703 -5.441,0.18 -22.785,-55.078 -18.465,8.457 -31.246,27.066 -31.246,48.773 0,29.711 23.926,53.637 53.633,53.637 29.715,0 53.641,-23.922 53.641,-53.637 0,-29.714 -23.926,-53.636 -53.641,-53.636 z m -189.453,7.515 -20.266,44.907 44.617,-0.129 c -0.07,-18.809 -9.722,-35.262 -24.351,-44.778 z" /></g></g></svg>