<?xml version="1.0" encoding="UTF-8" standalone="no"?>
<svg
   xmlns:dc="http://purl.org/dc/elements/1.1/"
   xmlns:cc="http://creativecommons.org/ns#"
   xmlns:rdf="http://www.w3.org/1999/02/22-rdf-syntax-ns#"
   xmlns:svg="http://www.w3.org/2000/svg"
   xmlns="http://www.w3.org/2000/svg"
   viewBox="0 0 669.22375 1004.3262"
   height="1004.3262"
   width="669.22375"
   xml:space="preserve"
   id="svg4243"
   version="1.1"><metadata
     id="metadata4249"><rdf:RDF><cc:Work
         rdf:about=""><dc:format>image/svg+xml</dc:format><dc:type
           rdf:resource="http://purl.org/dc/dcmitype/StillImage" /><dc:title></dc:title></cc:Work></rdf:RDF></metadata><defs
     id="defs4247"><clipPath
       id="clipPath4263"
       clipPathUnits="userSpaceOnUse"><path
         id="path4261"
         d="M 0,0 H 502 V 754 H 0 Z" /></clipPath></defs><g
     transform="matrix(1.3333333,0,0,-1.3333333,0,1004.3262)"
     id="g4251"><g
       id="g4253"><g
         transform="translate(0,-0.755371)"
         id="g4255"><g
           id="g4257"><g
             clip-path="url(#clipPath4263)"
             id="g4259"><g
               id="g4265"><path
                 id="path4267"
                 style="fill:#f0c900;fill-opacity:1;fill-rule:nonzero;stroke:none"
                 d="m 468.777,754 c 18.278,0 33.141,-14.859 33.141,-33.137 V 33.887 c 0,-18.27 -14.863,-33.133 -33.141,-33.133 H 33.141 C 14.863,0.754 0,15.617 0,33.887 V 720.863 C 0,739.141 14.863,754 33.141,754" /></g></g></g></g><path
         id="path4269"
         style="fill:#000000;fill-opacity:1;fill-rule:nonzero;stroke:none"
         d="m 468.777,745.249 c 13.895,0 25.145,-11.25 25.145,-25.137 V 33.131 c 0,-13.879 -11.25,-25.117 -25.145,-25.117 H 33.141 C 19.25,8.014 8.012,19.252 8.012,33.131 v 686.981 c 0,13.887 11.238,25.137 25.129,25.137 z m 0,-12.571 H 33.141 c -6.938,0 -12.575,-5.633 -12.575,-12.566 V 33.131 c 0,-6.933 5.637,-12.566 12.575,-12.566 h 435.636 c 6.953,0 12.575,5.633 12.575,12.566 v 686.981 c 0,6.933 -5.622,12.566 -12.575,12.566 z" /><path
         id="path4271"
         style="fill:#000000;fill-opacity:1;fill-rule:nonzero;stroke:none"
         d="m 165.941,625.655 -77.558,-4.828 c -3.52,-0.231 -6.574,-2.489 -7.82,-5.793 L 60.824,562.393 c -1.511,-4.016 -2.273,-8.281 -2.273,-12.582 v -49.434 c 0,-4.949 4,-8.953 8.945,-8.953 h 4.481 c 0,22.246 18.031,40.274 40.261,40.274 22.242,0 40.27,-18.028 40.27,-40.274 h 161.094 c 0,12.172 5.492,23.672 14.957,31.328 H 165.941 Z m -31.324,-15.649 v -44.754 l -59.414,-6.976 c -2.457,-0.297 -4.683,1.465 -4.969,3.918 -0.078,0.699 0,1.426 0.25,2.094 l 15.008,39.988 c 0.617,1.66 2.141,2.793 3.903,2.906 z" /><path
         id="path4273"
         style="fill:#000000;fill-opacity:1;fill-rule:nonzero;stroke:none"
         d="m 385.199,491.424 c 0,-17.297 -14.027,-31.324 -31.324,-31.324 -17.297,0 -31.328,14.027 -31.328,31.324 0,17.301 14.031,31.328 31.328,31.328 17.297,0 31.324,-14.027 31.324,-31.328 z m -241.636,0 c 0,-17.297 -14.012,-31.324 -31.325,-31.324 -17.3,0 -31.308,14.027 -31.308,31.324 0,17.301 14.008,31.328 31.308,31.328 17.313,0 31.325,-14.027 31.325,-31.328 z m 299.804,40.274 H 183.836 v 125.285 h 259.531 z m -26.844,-40.274 h -22.378 c 0,12.172 -5.493,23.672 -14.954,31.328 h 64.176 v -22.378" /><path
         id="path4275"
         style="fill:#000000;fill-opacity:1;fill-rule:evenodd;stroke:none"
         d="m 328.609,239.94 -57.222,57.215 -0.297,-220.91 h -39.328 l -0.16,221.949 -58.293,-58.297 v 50.199 l 77.578,77.559 v 0.199 l 0.105,-0.102 0.055,0.063 v -0.121 l 77.562,-77.578 z" /></g></g></svg>