<?xml version="1.0" encoding="UTF-8" standalone="no"?>
<svg
   xmlns:dc="http://purl.org/dc/elements/1.1/"
   xmlns:cc="http://creativecommons.org/ns#"
   xmlns:rdf="http://www.w3.org/1999/02/22-rdf-syntax-ns#"
   xmlns:svg="http://www.w3.org/2000/svg"
   xmlns="http://www.w3.org/2000/svg"
   viewBox="0 0 708.66144 1063.5117"
   height="1063.5117"
   width="708.66144"
   xml:space="preserve"
   version="1.1"
   id="svg4647"><metadata
     id="metadata4653"><rdf:RDF><cc:Work
         rdf:about=""><dc:format>image/svg+xml</dc:format><dc:type
           rdf:resource="http://purl.org/dc/dcmitype/StillImage" /><dc:title></dc:title></cc:Work></rdf:RDF></metadata><defs
     id="defs4651"><clipPath
       id="clipPath4667"
       clipPathUnits="userSpaceOnUse"><path
         id="path4669"
         d="M 0,0 567,0 567,851 0,851 0,0 Z" /></clipPath></defs><g
     transform="matrix(1.25,0,0,-1.25,0,1063.5117)"
     id="g4655"><g
       id="g4657" /><g
       id="g4659"><g
         transform="translate(0,-0.190613)"
         id="g4661"><g
           id="g4663"><g
             clip-path="url(#clipPath4667)"
             id="g4665"><g
               id="g4671"><path
                 id="path4673"
                 style="fill:#f0c900;fill-opacity:1;fill-rule:nonzero;stroke:none"
                 d="M 37.434,851 C 16.789,851 0,834.215 0,813.57 L 0,37.613 C 0,16.977 16.789,0.191 37.434,0.191 l 492.058,0 c 20.649,0 37.438,16.786 37.438,37.422 l 0,775.957 c 0,20.645 -16.789,37.43 -37.438,37.43" /></g></g></g></g><path
         id="path4675"
         style="fill:#000000;fill-opacity:1;fill-rule:nonzero;stroke:none"
         d="m 37.434,841.778 c -15.696,0 -28.403,-12.707 -28.403,-28.39 l 0,-775.965 C 9.031,21.747 21.738,9.052 37.434,9.052 l 492.058,0 c 15.692,0 28.387,12.695 28.387,28.371 l 0,775.965 c 0,15.683 -12.695,28.39 -28.387,28.39 l -492.058,0 z m 0,-14.199 492.058,0 c 7.84,0 14.207,-6.359 14.207,-14.191 l 0,-775.965 c 0,-7.832 -6.367,-14.192 -14.207,-14.192 l -492.058,0 c -7.852,0 -14.204,6.36 -14.204,14.192 l 0,775.965 c 0,7.832 6.352,14.191 14.204,14.191 z" /><path
         id="path4677"
         style="fill:#000000;fill-opacity:1;fill-rule:evenodd;stroke:none"
         d="m 263.258,158.774 -64.625,64.637 249.523,0.332 0,44.422 -250.699,0.183 65.848,65.84 -56.7,0 -87.605,-87.625 -0.227,0 0.118,-0.117 -0.071,-0.062 0.137,0 87.625,-87.61 56.676,0 z" /><path
         id="path4679"
         style="fill:#154889;fill-opacity:1;fill-rule:nonzero;stroke:none"
         d="m 415.762,491.735 -6.102,2.563 c -13.043,5.398 -27.695,5.398 -40.699,0 l -12.238,-5.114 c -12.996,-5.429 -27.653,-5.429 -40.696,0 l -12.203,5.114 c -13.039,5.398 -27.691,5.398 -40.707,0 l -12.23,-5.114 c -13.008,-5.429 -27.66,-5.429 -40.703,0 l -12.2,5.114 c -13.043,5.398 -27.687,5.398 -40.703,0 l -6.093,-2.563 0,13.258 6.093,2.523 c 13.016,5.438 27.66,5.438 40.703,0 l 12.2,-5.082 c 13.043,-5.437 27.695,-5.437 40.703,0 l 12.23,5.082 c 13.016,5.438 27.668,5.438 40.707,0 l 12.203,-5.082 c 13.043,-5.437 27.7,-5.437 40.696,0 l 12.238,5.082 c 13.004,5.438 27.656,5.438 40.699,0 l 6.102,-2.523 0,-13.258 z m 0,-26.461 -6.102,2.524 c -13.043,5.433 -27.695,5.433 -40.699,0 l -12.238,-5.086 c -12.996,-5.438 -27.653,-5.438 -40.696,0 l -12.203,5.086 c -13.039,5.433 -27.691,5.433 -40.707,0 l -12.23,-5.086 c -13.008,-5.438 -27.66,-5.438 -40.703,0 l -12.2,5.086 c -13.043,5.433 -27.687,5.433 -40.703,0 l -6.093,-2.524 0,13.215 6.093,2.563 c 13.016,5.437 27.66,5.437 40.703,0 l 12.2,-5.082 c 13.043,-5.473 27.695,-5.473 40.703,0 l 12.23,5.082 c 13.016,5.437 27.668,5.437 40.707,0 l 12.203,-5.082 c 13.043,-5.473 27.7,-5.473 40.696,0 l 12.238,5.082 c 13.004,5.437 27.656,5.437 40.699,0 l 6.102,-2.563" /><path
         id="path4681"
         style="fill:#000000;fill-opacity:1;fill-rule:nonzero;stroke:none"
         d="m 283.453,802.934 c -73.055,0 -132.265,-38.519 -132.265,-86.058 0,-47.535 59.21,-86.09 132.265,-86.09 73.067,0 132.309,38.555 132.309,86.09 0,47.539 -59.242,86.058 -132.309,86.058 z m 0,-16.543 c 62.129,0 112.465,-31.125 112.465,-69.515 0,-38.422 -50.336,-69.555 -112.465,-69.555 -62.086,0 -112.422,31.133 -112.422,69.555 0,38.39 50.336,69.515 112.422,69.515 z m -132.265,-135.738 0,-39.719 264.574,0 0,39.719 -35.098,0 c -53.98,-35.336 -140.398,-35.336 -194.422,0 l -35.054,0 z m 19.843,-46.387 c -3.644,0 -6.629,-2.941 -6.629,-6.586 l 0,-66.222 c 0,-3.641 2.985,-6.633 6.629,-6.633 l 19.844,0 c 3.637,0 6.621,2.992 6.621,6.633 l 0,66.222 c 0,3.645 -2.984,6.586 -6.621,6.586 l -19.844,0 z m 39.68,0 c -3.645,0 -6.621,-2.941 -6.621,-6.586 l 0,-66.222 c 0,-3.641 2.976,-6.633 6.621,-6.633 l 19.844,0 c 3.644,0 6.629,2.992 6.629,6.633 l 0,18.23 c 0,3.649 2.945,6.59 6.589,6.59 l 12.586,0 c 3.399,0 6.664,-1.289 9.118,-3.644 l 4.312,-4.102 c 7.633,-7.293 19.695,-7.293 27.375,0 l 4.316,4.102 c 2.454,2.355 5.711,3.644 9.114,3.644 l 12.547,0 c 3.679,0 6.632,-2.941 6.632,-6.59 l 0,-18.23 c 0,-3.641 2.969,-6.633 6.614,-6.633 l 19.847,0 c 3.649,0 6.59,2.992 6.59,6.633 l 0,66.222 c 0,3.645 -2.941,6.586 -6.59,6.586 l -19.847,0 c -3.645,0 -6.614,-2.941 -6.614,-6.586 l 0,-18.222 c 0,-3.649 -2.953,-6.59 -6.632,-6.59 l -12.547,0 c -3.403,0 -6.66,1.293 -9.114,3.609 l -4.316,4.137 c -7.68,7.328 -19.742,7.328 -27.375,0 l -4.312,-4.137 c -2.454,-2.316 -5.719,-3.609 -9.118,-3.609 l -12.586,0 c -3.644,0 -6.589,2.941 -6.589,6.59 l 0,18.222 c 0,3.645 -2.985,6.586 -6.629,6.586 l -19.844,0 z m 165.363,0 c -3.648,0 -6.621,-2.941 -6.621,-6.586 l 0,-66.222 c 0,-3.641 2.973,-6.633 6.621,-6.633 l 19.844,0 c 3.648,0 6.586,2.992 6.586,6.633 l 0,66.222 c 0,3.645 -2.938,6.586 -6.586,6.586 l -19.844,0 z" /><path
         id="path4683"
         style="fill:#ec7c25;fill-opacity:1;fill-rule:nonzero;stroke:none"
         d="m 171.031,716.876 c 0,38.39 50.336,69.515 112.422,69.515 62.129,0 112.465,-31.125 112.465,-69.515 0,-38.422 -50.336,-69.555 -112.465,-69.555 -62.086,0 -112.422,31.133 -112.422,69.555" /></g></g></svg>