<?xml version="1.0" encoding="UTF-8" standalone="no"?>
<svg
   xmlns:dc="http://purl.org/dc/elements/1.1/"
   xmlns:cc="http://creativecommons.org/ns#"
   xmlns:rdf="http://www.w3.org/1999/02/22-rdf-syntax-ns#"
   xmlns:svg="http://www.w3.org/2000/svg"
   xmlns="http://www.w3.org/2000/svg"
   viewBox="0 0 669.22375 1004.3262"
   height="1004.3262"
   width="669.22375"
   xml:space="preserve"
   version="1.1"
   id="svg3815"><metadata
     id="metadata3821"><rdf:RDF><cc:Work
         rdf:about=""><dc:format>image/svg+xml</dc:format><dc:type
           rdf:resource="http://purl.org/dc/dcmitype/StillImage" /><dc:title></dc:title></cc:Work></rdf:RDF></metadata><defs
     id="defs3819"><clipPath
       id="clipPath3833"
       clipPathUnits="userSpaceOnUse"><path
         id="path3835"
         d="M 0,0 536,0 536,804 0,804 0,0 Z" /></clipPath></defs><g
     transform="matrix(1.25,0,0,-1.25,0,1004.3262)"
     id="g3823"><g
       id="g3825"><g
         transform="translate(0,-0.539062)"
         id="g3827"><g
           id="g3829"><g
             clip-path="url(#clipPath3833)"
             id="g3831"><g
               id="g3837"><path
                 id="path3839"
                 style="fill:#f0c900;fill-opacity:1;fill-rule:nonzero;stroke:none"
                 d="m 500.027,804 c 19.496,0 35.352,-15.852 35.352,-35.348 l 0,-732.773 c 0,-19.488 -15.856,-35.34 -35.352,-35.34 l -464.675,0 C 15.855,0.539 0,16.391 0,35.879 L 0,768.652 C 0,788.148 15.855,804 35.352,804" /></g></g></g></g><path
         id="path3841"
         style="fill:#000000;fill-opacity:1;fill-rule:nonzero;stroke:none"
         d="m 500.027,794.934 c 14.825,0 26.825,-12 26.825,-26.813 l 0,-732.781 c 0,-14.805 -12,-26.793 -26.825,-26.793 l -464.675,0 C 20.535,8.547 8.547,20.535 8.547,35.34 l 0,732.781 c 0,14.813 11.988,26.813 26.805,26.813 l 464.675,0 z m 0,-13.411 -464.675,0 c -7.403,0 -13.414,-6.007 -13.414,-13.402 l 0,-732.781 c 0,-7.395 6.011,-13.402 13.414,-13.402 l 464.675,0 c 7.418,0 13.414,6.007 13.414,13.402 l 0,732.781 c 0,7.395 -5.996,13.402 -13.414,13.402 z" /><path
         id="path3843"
         style="fill:#154889;fill-opacity:1;fill-rule:nonzero;stroke:none"
         d="m 392.625,464.367 -5.762,2.422 c -12.316,5.098 -26.156,5.098 -38.433,0 l -11.559,-4.828 c -12.273,-5.129 -26.113,-5.129 -38.43,0 l -11.523,4.828 c -12.313,5.098 -26.152,5.098 -38.441,0 l -11.551,-4.828 c -12.285,-5.129 -26.121,-5.129 -38.438,0 l -11.523,4.828 c -12.317,5.098 -26.145,5.098 -38.438,0 l -5.75,-2.422 0,12.524 5.75,2.382 c 12.293,5.133 26.121,5.133 38.438,0 l 11.523,-4.8 c 12.317,-5.133 26.153,-5.133 38.438,0 l 11.551,4.8 c 12.289,5.133 26.128,5.133 38.441,0 l 11.523,-4.8 c 12.317,-5.133 26.157,-5.133 38.43,0 l 11.559,4.8 c 12.277,5.133 26.117,5.133 38.433,0 l 5.762,-2.382 0,-12.524 z m 0,-24.984 -5.762,2.383 c -12.316,5.129 -26.156,5.129 -38.433,0 l -11.559,-4.805 c -12.273,-5.133 -26.113,-5.133 -38.43,0 l -11.523,4.805 c -12.313,5.129 -26.152,5.129 -38.441,0 l -11.551,-4.805 c -12.285,-5.133 -26.121,-5.133 -38.438,0 l -11.523,4.805 c -12.317,5.129 -26.145,5.129 -38.438,0 l -5.75,-2.383 0,12.476 5.75,2.422 c 12.293,5.133 26.121,5.133 38.438,0 l 11.523,-4.801 c 12.317,-5.168 26.153,-5.168 38.438,0 l 11.551,4.801 c 12.289,5.133 26.128,5.133 38.441,0 l 11.523,-4.801 c 12.317,-5.168 26.157,-5.168 38.43,0 l 11.559,4.801 c 12.277,5.133 26.117,5.133 38.433,0 l 5.762,-2.422" /><path
         id="path3845"
         style="fill:#000000;fill-opacity:1;fill-rule:nonzero;stroke:none"
         d="m 267.68,758.25 c -68.989,0 -124.903,-36.379 -124.903,-81.27 0,-44.89 55.914,-81.296 124.903,-81.296 69,0 124.945,36.406 124.945,81.296 0,44.891 -55.945,81.27 -124.945,81.27 z m 0,-15.621 c 58.672,0 106.203,-29.395 106.203,-65.649 0,-36.281 -47.531,-65.683 -106.203,-65.683 -58.629,0 -106.168,29.402 -106.168,65.683 0,36.254 47.539,65.649 106.168,65.649 z m -124.903,-128.184 0,-37.511 249.848,0 0,37.511 -33.145,0 c -50.976,-33.371 -132.585,-33.371 -183.601,0 l -33.102,0 z m 18.735,-43.804 c -3.442,0 -6.258,-2.782 -6.258,-6.223 l 0,-62.535 c 0,-3.438 2.816,-6.262 6.258,-6.262 l 18.742,0 c 3.434,0 6.25,2.824 6.25,6.262 l 0,62.535 c 0,3.441 -2.816,6.223 -6.25,6.223 l -18.742,0 z m 37.472,0 c -3.441,0 -6.25,-2.782 -6.25,-6.223 l 0,-62.535 c 0,-3.438 2.809,-6.262 6.25,-6.262 l 18.743,0 c 3.441,0 6.257,2.824 6.257,6.262 l 0,17.215 c 0,3.445 2.782,6.222 6.223,6.222 l 11.883,0 c 3.211,0 6.297,-1.218 8.613,-3.441 l 4.074,-3.871 c 7.207,-6.891 18.598,-6.891 25.848,0 l 4.078,3.871 c 2.317,2.223 5.395,3.441 8.606,3.441 l 11.851,0 c 3.473,0 6.262,-2.777 6.262,-6.222 l 0,-17.215 c 0,-3.438 2.805,-6.262 6.246,-6.262 l 18.742,0 c 3.445,0 6.223,2.824 6.223,6.262 l 0,62.535 c 0,3.441 -2.778,6.223 -6.223,6.223 l -18.742,0 c -3.441,0 -6.246,-2.782 -6.246,-6.223 l 0,-17.207 c 0,-3.445 -2.789,-6.227 -6.262,-6.227 l -11.851,0 c -3.211,0 -6.289,1.223 -8.606,3.411 l -4.078,3.91 c -7.25,6.918 -18.641,6.918 -25.848,0 l -4.074,-3.91 c -2.316,-2.188 -5.402,-3.411 -8.613,-3.411 l -11.883,0 c -3.441,0 -6.223,2.782 -6.223,6.227 l 0,17.207 c 0,3.441 -2.816,6.223 -6.257,6.223 l -18.743,0 z m 156.161,0 c -3.446,0 -6.254,-2.782 -6.254,-6.223 l 0,-62.535 c 0,-3.438 2.808,-6.262 6.254,-6.262 l 18.738,0 c 3.445,0 6.222,2.824 6.222,6.262 l 0,62.535 c 0,3.441 -2.777,6.223 -6.222,6.223 l -18.738,0 z" /><path
         id="path3847"
         style="fill:#ec7c25;fill-opacity:1;fill-rule:nonzero;stroke:none"
         d="m 161.512,676.98 c 0,36.254 47.539,65.649 106.168,65.649 58.672,0 106.203,-29.395 106.203,-65.649 0,-36.281 -47.531,-65.683 -106.203,-65.683 -58.629,0 -106.168,29.402 -106.168,65.683" /><path
         id="path3849"
         style="fill:#000000;fill-opacity:1;fill-rule:evenodd;stroke:none"
         d="m 230.18,308.914 86.316,-0.004 -166.398,-166.848 29.664,-29.66 167.523,167.282 -0.004,-87.938 37.864,37.863 -0.016,117.012 0.152,0.149 -0.156,0.003 0.008,0.09 -0.094,-0.093 -117.012,-0.012 -37.847,-37.844 z" /></g></g></svg>