<?xml version="1.0" encoding="UTF-8" standalone="no"?>
<svg
   xmlns:dc="http://purl.org/dc/elements/1.1/"
   xmlns:cc="http://creativecommons.org/ns#"
   xmlns:rdf="http://www.w3.org/1999/02/22-rdf-syntax-ns#"
   xmlns:svg="http://www.w3.org/2000/svg"
   xmlns="http://www.w3.org/2000/svg"
   viewBox="0 0 669.22375 1004.3262"
   height="1004.3262"
   width="669.22375"
   xml:space="preserve"
   id="svg3810"
   version="1.1"><metadata
     id="metadata3816"><rdf:RDF><cc:Work
         rdf:about=""><dc:format>image/svg+xml</dc:format><dc:type
           rdf:resource="http://purl.org/dc/dcmitype/StillImage" /><dc:title></dc:title></cc:Work></rdf:RDF></metadata><defs
     id="defs3814"><clipPath
       id="clipPath3832"
       clipPathUnits="userSpaceOnUse"><path
         id="path3830"
         d="M 0,0 H 502 V 754 H 0 Z" /></clipPath></defs><g
     transform="matrix(1.3333333,0,0,-1.3333333,0,1004.3262)"
     id="g3818"><g
       id="g3820" /><g
       id="g3822"><g
         transform="translate(0,-0.755371)"
         id="g3824"><g
           id="g3826"><g
             clip-path="url(#clipPath3832)"
             id="g3828"><g
               id="g3834"><path
                 id="path3836"
                 style="fill:#f0c900;fill-opacity:1;fill-rule:nonzero;stroke:none"
                 d="m 468.781,754 c 18.274,0 33.137,-14.859 33.137,-33.133 V 33.887 c 0,-18.27 -14.863,-33.133 -33.137,-33.133 H 33.137 C 14.863,0.754 0,15.617 0,33.887 v 686.98 C 0,739.141 14.863,754 33.137,754" /></g></g></g></g><path
         id="path3838"
         style="fill:#000000;fill-opacity:1;fill-rule:nonzero;stroke:none"
         d="m 468.781,745.245 c 13.887,0 25.137,-11.25 25.137,-25.133 V 33.131 c 0,-13.879 -11.25,-25.117 -25.137,-25.117 H 33.137 C 19.25,8.014 8.012,19.252 8.012,33.131 v 686.981 c 0,13.883 11.238,25.133 25.125,25.133 z m 0,-12.567 H 33.137 c -6.934,0 -12.571,-5.633 -12.571,-12.566 V 33.131 c 0,-6.933 5.637,-12.57 12.571,-12.57 h 435.644 c 6.949,0 12.571,5.637 12.571,12.57 v 686.981 c 0,6.933 -5.622,12.566 -12.571,12.566 z" /><g
         transform="matrix(1,0,0,-1,0,753.24463)"
         id="g3840"><path
           id="path3842"
           style="fill:none;stroke:#000000;stroke-width:15.21648216;stroke-linecap:butt;stroke-linejoin:miter;stroke-miterlimit:4;stroke-dasharray:none;stroke-opacity:1"
           d="m 202.844,225.984 c 0,33.825 -27.422,61.246 -61.246,61.246 -33.825,0 -61.246,-27.421 -61.246,-61.246 0,-33.824 27.421,-61.246 61.246,-61.246 33.824,0 61.246,27.422 61.246,61.246 z" /></g><g
         transform="matrix(1,0,0,-1,0,753.24463)"
         id="g3844"><path
           id="path3846"
           style="fill:none;stroke:#000000;stroke-width:15.21648216;stroke-linecap:butt;stroke-linejoin:miter;stroke-miterlimit:4;stroke-dasharray:none;stroke-opacity:1"
           d="m 421.582,224.844 c 0,33.824 -27.422,61.246 -61.246,61.246 -33.828,0 -61.246,-27.422 -61.246,-61.246 0,-33.828 27.418,-61.246 61.246,-61.246 33.824,0 61.246,27.418 61.246,61.246 z" /></g><path
         id="path3848"
         style="fill:#000000;fill-opacity:1;fill-rule:evenodd;stroke:none"
         d="m 223.191,676.963 c -50.429,-0.488 -41.878,5.211 -69.011,-81.984 -22.102,-69.668 -19.696,-62.07 -19.809,-66.957 -0.082,-3.797 2.981,-6.809 6.832,-7.066 8.012,0.812 4.641,-0.864 32.41,85.363 101.461,-107.031 63.395,-89.676 117.996,-91.852 71.762,0.692 77.594,-3.734 78.446,6.785 -0.098,3.571 -1.77,5.7 -51.02,115.309 l 4.719,12.977 16.223,0.296 -0.59,13.567 H 278.93 c -5.344,-7.309 2.16,-7.277 29.195,-13.274 l -4.719,-13.269 -120.617,-0.297 c 8.125,28.379 3.535,26.609 40.106,26.543 z m -43.89,-54.945 118.027,0.207 -34.109,-91.66 z m 132.258,-5.441 -33.481,-87.895 73.242,-0.207 z" /><path
         id="path3850"
         style="fill:#000000;fill-opacity:1;fill-rule:evenodd;stroke:none"
         d="m 328.609,239.94 -57.222,57.215 -0.297,-220.91 h -39.328 l -0.16,221.949 -58.293,-58.297 v 50.199 l 77.578,77.559 v 0.199 l 0.105,-0.102 0.055,0.063 v -0.121 l 77.562,-77.578 z" /></g></g></svg>