<?xml version="1.0" encoding="UTF-8" standalone="no"?>
<svg
   xmlns:dc="http://purl.org/dc/elements/1.1/"
   xmlns:cc="http://creativecommons.org/ns#"
   xmlns:rdf="http://www.w3.org/1999/02/22-rdf-syntax-ns#"
   xmlns:svg="http://www.w3.org/2000/svg"
   xmlns="http://www.w3.org/2000/svg"
   viewBox="0 0 669.22375 1004.3262"
   height="1004.3262"
   width="669.22375"
   xml:space="preserve"
   version="1.1"
   id="svg3690"><metadata
     id="metadata3696"><rdf:RDF><cc:Work
         rdf:about=""><dc:format>image/svg+xml</dc:format><dc:type
           rdf:resource="http://purl.org/dc/dcmitype/StillImage" /><dc:title></dc:title></cc:Work></rdf:RDF></metadata><defs
     id="defs3694"><clipPath
       id="clipPath3710"
       clipPathUnits="userSpaceOnUse"><path
         id="path3712"
         d="M 0,0 536,0 536,804 0,804 0,0 Z" /></clipPath></defs><g
     transform="matrix(1.25,0,0,-1.25,0,1004.3262)"
     id="g3698"><g
       id="g3700" /><g
       id="g3702"><g
         transform="translate(0,-0.539062)"
         id="g3704"><g
           id="g3706"><g
             clip-path="url(#clipPath3710)"
             id="g3708"><g
               id="g3714"><path
                 id="path3716"
                 style="fill:#f0c900;fill-opacity:1;fill-rule:nonzero;stroke:none"
                 d="m 500.027,804 c 19.496,0 35.352,-15.852 35.352,-35.348 l 0,-732.773 c 0,-19.488 -15.856,-35.34 -35.352,-35.34 l -464.675,0 C 15.855,0.539 0,16.391 0,35.879 L 0,768.652 C 0,788.148 15.855,804 35.352,804" /></g></g></g></g><path
         id="path3718"
         style="fill:#000000;fill-opacity:1;fill-rule:nonzero;stroke:none"
         d="m 500.027,794.934 c 14.825,0 26.825,-12 26.825,-26.813 l 0,-732.781 c 0,-14.805 -12,-26.793 -26.825,-26.793 l -464.675,0 C 20.535,8.547 8.547,20.535 8.547,35.34 l 0,732.781 c 0,14.813 11.988,26.813 26.805,26.813 l 464.675,0 z m 0,-13.411 -464.675,0 c -7.403,0 -13.414,-6.007 -13.414,-13.402 l 0,-732.781 c 0,-7.395 6.011,-13.402 13.414,-13.402 l 464.675,0 c 7.418,0 13.414,6.007 13.414,13.402 l 0,732.781 c 0,7.395 -5.996,13.402 -13.414,13.402 z" /><path
         id="path3720"
         style="fill:#000000;fill-opacity:1;fill-rule:nonzero;stroke:none"
         d="m 177.004,667.367 -82.731,-5.152 c -3.753,-0.246 -7.011,-2.656 -8.339,-6.18 L 64.879,599.887 c -1.613,-4.285 -2.426,-8.832 -2.426,-13.422 l 0,-52.731 c 0,-5.277 4.27,-9.546 9.543,-9.546 l 4.781,0 c 0,23.726 19.231,42.957 42.942,42.957 23.726,0 42.957,-19.231 42.957,-42.957 l 171.832,0 c 0,12.98 5.859,25.25 15.957,33.414 l -173.461,0 0,109.765 z m -33.414,-16.695 0,-47.738 -63.375,-7.438 c -2.617,-0.32 -4.992,1.563 -5.297,4.176 -0.086,0.746 0,1.523 0.266,2.234 l 16.007,42.656 c 0.657,1.77 2.286,2.977 4.164,3.098 l 48.235,3.012 z" /><path
         id="path3722"
         style="fill:#000000;fill-opacity:1;fill-rule:nonzero;stroke:none"
         d="m 410.879,524.188 c 0,-18.454 -14.961,-33.415 -33.414,-33.415 -18.449,0 -33.414,14.961 -33.414,33.415 0,18.453 14.965,33.414 33.414,33.414 18.453,0 33.414,-14.961 33.414,-33.414 z m -257.746,0 c 0,-18.454 -14.945,-33.415 -33.414,-33.415 -18.453,0 -33.395,14.961 -33.395,33.415 0,18.453 14.942,33.414 33.395,33.414 18.469,0 33.414,-14.961 33.414,-33.414 z m 319.793,42.957 -276.836,0 0,133.636 276.836,0 0,-133.636 z m -28.633,-42.957 -23.871,0 c 0,12.98 -5.86,25.25 -15.953,33.414 l 68.457,0 0,-23.872" /><path
         id="path3724"
         style="fill:#000000;fill-opacity:1;fill-rule:evenodd;stroke:none"
         d="m 248.605,149.938 -61.027,61.039 235.637,0.316 0,41.949 -236.746,0.172 62.183,62.176 -53.547,0 -82.726,-82.75 -0.215,0 0.109,-0.11 -0.066,-0.058 0.129,0 82.75,-82.734 53.519,0 z" /></g></g></svg>