<?xml version="1.0" encoding="UTF-8" standalone="no"?>
<svg
   xmlns:dc="http://purl.org/dc/elements/1.1/"
   xmlns:cc="http://creativecommons.org/ns#"
   xmlns:rdf="http://www.w3.org/1999/02/22-rdf-syntax-ns#"
   xmlns:svg="http://www.w3.org/2000/svg"
   xmlns="http://www.w3.org/2000/svg"
   viewBox="0 0 669.22375 1004.3262"
   height="1004.3262"
   width="669.22375"
   xml:space="preserve"
   version="1.1"
   id="svg4208"><metadata
     id="metadata4214"><rdf:RDF><cc:Work
         rdf:about=""><dc:format>image/svg+xml</dc:format><dc:type
           rdf:resource="http://purl.org/dc/dcmitype/StillImage" /><dc:title></dc:title></cc:Work></rdf:RDF></metadata><defs
     id="defs4212"><clipPath
       id="clipPath4226"
       clipPathUnits="userSpaceOnUse"><path
         id="path4228"
         d="M 0,0 536,0 536,804 0,804 0,0 Z" /></clipPath></defs><g
     transform="matrix(1.25,0,0,-1.25,0,1004.3262)"
     id="g4216"><g
       id="g4218"><g
         transform="translate(0,-0.539062)"
         id="g4220"><g
           id="g4222"><g
             clip-path="url(#clipPath4226)"
             id="g4224"><g
               id="g4230"><path
                 id="path4232"
                 style="fill:#f0c900;fill-opacity:1;fill-rule:nonzero;stroke:none"
                 d="m 500.027,804 c 19.496,0 35.352,-15.852 35.352,-35.348 l 0,-732.773 c 0,-19.488 -15.856,-35.34 -35.352,-35.34 l -464.675,0 C 15.855,0.539 0,16.391 0,35.879 L 0,768.652 C 0,788.148 15.855,804 35.352,804" /></g></g></g></g><path
         id="path4234"
         style="fill:#000000;fill-opacity:1;fill-rule:nonzero;stroke:none"
         d="m 500.027,794.934 c 14.825,0 26.825,-12 26.825,-26.813 l 0,-732.781 c 0,-14.805 -12,-26.793 -26.825,-26.793 l -464.675,0 C 20.535,8.547 8.547,20.535 8.547,35.34 l 0,732.781 c 0,14.813 11.988,26.813 26.805,26.813 l 464.675,0 z m 0,-13.411 -464.675,0 c -7.403,0 -13.414,-6.007 -13.414,-13.402 l 0,-732.781 c 0,-7.395 6.011,-13.402 13.414,-13.402 l 464.675,0 c 7.418,0 13.414,6.007 13.414,13.402 l 0,732.781 c 0,7.395 -5.996,13.402 -13.414,13.402 z" /><path
         id="path4236"
         style="fill:#000000;fill-opacity:1;fill-rule:evenodd;stroke:none"
         d="m 305.199,308.914 -86.316,-0.004 166.398,-166.848 -29.664,-29.66 -167.523,167.282 0.004,-87.938 -37.864,37.863 0.016,117.012 -0.152,0.149 0.156,0.003 -0.008,0.09 0.094,-0.093 117.012,-0.012 37.847,-37.844 z" /><path
         id="path4238"
         style="fill:#000000;fill-opacity:1;fill-rule:nonzero;stroke:none"
         d="m 238.07,722.094 c -53.789,-0.52 -44.668,5.558 -73.609,-87.449 -0.004,-0.012 -0.004,-0.012 -0.008,-0.024 -4.351,0.809 -8.836,1.234 -13.414,1.234 -40.469,0 -73.445,-32.98 -73.445,-73.445 0,-40.465 32.976,-73.441 73.445,-73.441 40.465,0 73.445,32.976 73.445,73.441 0,30.258 -18.441,56.328 -44.664,67.559 1.66,5.222 3.438,10.777 5.368,16.773 108.226,-114.168 67.621,-95.656 125.863,-97.976 0.488,0.004 0.898,0 1.379,0.007 6.898,-33.378 36.547,-58.589 71.929,-58.589 40.465,0 73.442,32.98 73.442,73.445 0,40.469 -32.977,73.441 -73.442,73.441 -8.195,0 -16.078,-1.351 -23.445,-3.843 -5.891,13.054 -12.457,27.628 -20.609,45.773 l 5.031,13.84 17.305,0.316 -0.629,14.473 -64.489,0 c -5.699,-7.797 2.305,-7.762 31.145,-14.16 L 323.633,679.316 194.977,679 c 8.664,30.27 3.769,28.383 42.777,28.312 l 0.316,14.782 z m 79.078,-58.387 -36.382,-97.769 -89.512,97.546 125.894,0.223 z m 15.18,-6.023 14.086,-31.207 c -21.184,-12.848 -35.402,-36.098 -35.496,-62.59 l -14.301,0.043 35.711,93.754 z m 52.031,-36.844 c 31.692,0 57.215,-25.516 57.215,-57.211 0,-31.695 -25.523,-57.215 -57.215,-57.215 -26.578,0 -48.8,17.945 -55.289,42.422 59.379,-0.035 64.825,-3.094 65.657,7.164 -0.082,2.977 -1.551,5.824 -27.102,62.367 5.289,1.602 10.906,2.473 16.734,2.473 z m -233.32,-1.215 c 2.879,0 5.703,-0.215 8.469,-0.621 -17.164,-54.133 -16.07,-51.055 -16.18,-55.781 -0.086,-4.051 3.18,-7.262 7.289,-7.535 7.383,0.746 5.801,-0.192 24.301,58.746 19.699,-9.02 33.332,-28.868 33.332,-52.024 0,-31.691 -25.52,-57.211 -57.211,-57.211 -31.695,0 -57.215,25.516 -57.215,57.211 0,31.695 25.52,57.215 57.215,57.215 z m 202.086,-8.02 21.617,-47.898 -47.594,0.137 c 0.075,20.062 10.372,37.613 25.977,47.761 z" /></g></g></svg>