<?xml version="1.0" encoding="UTF-8" standalone="no"?>
<svg
   xmlns:dc="http://purl.org/dc/elements/1.1/"
   xmlns:cc="http://creativecommons.org/ns#"
   xmlns:rdf="http://www.w3.org/1999/02/22-rdf-syntax-ns#"
   xmlns:svg="http://www.w3.org/2000/svg"
   xmlns="http://www.w3.org/2000/svg"
   viewBox="0 0 669.22375 1004.3262"
   height="1004.3262"
   width="669.22375"
   xml:space="preserve"
   id="svg105"
   version="1.1"><metadata
     id="metadata111"><rdf:RDF><cc:Work
         rdf:about=""><dc:format>image/svg+xml</dc:format><dc:type
           rdf:resource="http://purl.org/dc/dcmitype/StillImage" /><dc:title></dc:title></cc:Work></rdf:RDF></metadata><defs
     id="defs109"><clipPath
       id="clipPath127"
       clipPathUnits="userSpaceOnUse"><path
         id="path125"
         d="M 0,0 H 502 V 754 H 0 Z" /></clipPath></defs><g
     transform="matrix(1.3333333,0,0,1.3333333,0,5.3108154e-5)"
     id="g113"><g
       id="g115" /><g
       id="g117"><g
         id="g119"><g
           id="g121"><g
             clip-path="url(#clipPath127)"
             id="g123"><g
               id="g129"><path
                 id="path131"
                 style="fill:#f0c900;fill-opacity:1;fill-rule:nonzero;stroke:none"
                 d="m 468.773,0 c 18.282,0 33.145,14.859 33.145,33.141 v 686.972 c 0,18.27 -14.863,33.133 -33.145,33.133 H 33.141 C 14.863,753.246 0,738.383 0,720.113 V 33.141 C 0,14.859 14.863,0 33.141,0" /></g></g></g></g><path
         id="path133"
         style="fill:#000000;fill-opacity:1;fill-rule:nonzero;stroke:none"
         d="m 468.773,7.992 c 13.899,0 25.149,11.25 25.149,25.141 v 686.98 c 0,13.879 -11.25,25.117 -25.149,25.117 H 33.141 C 19.25,745.23 8.012,733.992 8.012,720.113 V 33.133 C 8.012,19.242 19.25,7.992 33.141,7.992 Z m 0,12.574 H 33.141 c -6.938,0 -12.575,5.633 -12.575,12.567 v 686.98 c 0,6.934 5.637,12.567 12.575,12.567 h 435.632 c 6.957,0 12.579,-5.633 12.579,-12.567 V 33.133 c 0,-6.934 -5.622,-12.567 -12.579,-12.567 z" /><path
         id="path135"
         style="fill:#000000;fill-opacity:1;fill-rule:evenodd;stroke:none"
         d="m 233.066,612.68 -57.211,-57.227 220.911,-0.297 v -39.324 l -221.95,-0.164 58.293,-58.289 H 182.91 l -77.555,77.578 h -0.203 l 0.106,0.102 -0.063,0.054 h 0.121 l 77.579,77.567 z" /><path
         id="path137"
         style="fill:#000000;fill-opacity:1;fill-rule:nonzero;stroke:none"
         d="m 223.191,76.281 c -50.429,0.489 -41.878,-5.211 -69.007,81.985 -0.004,0.011 -0.004,0.011 -0.008,0.023 -4.082,-0.762 -8.285,-1.16 -12.578,-1.16 -37.938,0 -68.852,30.922 -68.852,68.855 0,37.938 30.914,68.852 68.852,68.852 37.937,0 68.855,-30.914 68.855,-68.852 0,-28.367 -17.289,-52.804 -41.871,-63.336 1.555,-4.894 3.223,-10.101 5.031,-15.722 101.461,107.031 63.395,89.676 117.996,91.851 0.457,-0.004 0.844,0 1.293,-0.007 6.469,31.293 34.262,54.925 67.434,54.925 37.937,0 68.852,-30.918 68.852,-68.851 0,-37.942 -30.915,-68.852 -68.852,-68.852 -7.684,0 -15.074,1.266 -21.981,3.602 -5.519,-12.239 -11.675,-25.903 -19.32,-42.91 l 4.719,-12.977 16.223,-0.297 -0.59,-13.566 H 278.93 c -5.344,7.308 2.16,7.277 29.195,13.273 l -4.719,13.27 -120.617,0.297 c 8.125,-28.379 3.535,-26.61 40.106,-26.543 z m 74.137,54.739 -34.109,91.66 -83.918,-91.453 z m 14.231,5.644 13.203,29.258 c -19.86,12.047 -33.188,33.844 -33.278,58.68 l -13.406,-0.043 z m 48.777,34.543 c 29.711,0 53.641,23.922 53.641,53.637 0,29.711 -23.93,53.636 -53.641,53.636 -24.918,0 -45.75,-16.824 -51.832,-39.769 55.668,0.031 60.773,2.902 61.551,-6.715 -0.075,-2.793 -1.453,-5.461 -25.407,-58.469 4.957,-1.504 10.223,-2.32 15.688,-2.32 z m -218.738,1.141 c 2.699,0 5.347,0.199 7.941,0.582 -16.09,50.75 -15.066,47.863 -15.168,52.293 -0.082,3.797 2.981,6.808 6.832,7.066 6.922,-0.703 5.438,0.18 22.781,-55.078 18.469,8.457 31.25,27.066 31.25,48.773 0,29.711 -23.925,53.637 -53.636,53.637 -29.711,0 -53.637,-23.922 -53.637,-53.637 0,-29.714 23.926,-53.636 53.637,-53.636 z m 189.457,7.515 20.265,44.907 -44.617,-0.129 c 0.07,-18.809 9.723,-35.262 24.352,-44.778 z" /></g></g></svg>