<?xml version="1.0" encoding="UTF-8" standalone="no"?>
<svg
   xmlns:dc="http://purl.org/dc/elements/1.1/"
   xmlns:cc="http://creativecommons.org/ns#"
   xmlns:rdf="http://www.w3.org/1999/02/22-rdf-syntax-ns#"
   xmlns:svg="http://www.w3.org/2000/svg"
   xmlns="http://www.w3.org/2000/svg"
   viewBox="0 0 669.22375 1004.3262"
   height="1004.3262"
   width="669.22375"
   xml:space="preserve"
   version="1.1"
   id="svg3642"><metadata
     id="metadata3648"><rdf:RDF><cc:Work
         rdf:about=""><dc:format>image/svg+xml</dc:format><dc:type
           rdf:resource="http://purl.org/dc/dcmitype/StillImage" /><dc:title></dc:title></cc:Work></rdf:RDF></metadata><defs
     id="defs3646"><clipPath
       id="clipPath3660"
       clipPathUnits="userSpaceOnUse"><path
         id="path3662"
         d="M 0,0 536,0 536,804 0,804 0,0 Z" /></clipPath></defs><g
     transform="matrix(1.25,0,0,-1.25,0,1004.3262)"
     id="g3650"><g
       id="g3652"><g
         transform="translate(0,-0.539062)"
         id="g3654"><g
           id="g3656"><g
             clip-path="url(#clipPath3660)"
             id="g3658"><g
               id="g3664"><path
                 id="path3666"
                 style="fill:#f0c900;fill-opacity:1;fill-rule:nonzero;stroke:none"
                 d="m 500.027,804 c 19.496,0 35.352,-15.852 35.352,-35.348 l 0,-732.773 c 0,-19.488 -15.856,-35.34 -35.352,-35.34 l -464.675,0 C 15.855,0.539 0,16.391 0,35.879 L 0,768.652 C 0,788.148 15.855,804 35.352,804" /></g></g></g></g><path
         id="path3668"
         style="fill:#000000;fill-opacity:1;fill-rule:nonzero;stroke:none"
         d="m 500.027,794.934 c 14.825,0 26.825,-12 26.825,-26.813 l 0,-732.781 c 0,-14.805 -12,-26.793 -26.825,-26.793 l -464.675,0 C 20.535,8.547 8.547,20.535 8.547,35.34 l 0,732.781 c 0,14.813 11.988,26.813 26.805,26.813 l 464.675,0 z m 0,-13.411 -464.675,0 c -7.403,0 -13.414,-6.007 -13.414,-13.402 l 0,-732.781 c 0,-7.395 6.011,-13.402 13.414,-13.402 l 464.675,0 c 7.418,0 13.414,6.007 13.414,13.402 l 0,732.781 c 0,7.395 -5.996,13.402 -13.414,13.402 z" /><path
         id="path3670"
         style="fill:#000000;fill-opacity:1;fill-rule:evenodd;stroke:none"
         d="m 248.605,149.938 -61.027,61.039 235.637,0.316 0,41.949 -236.746,0.172 62.183,62.176 -53.547,0 -82.726,-82.75 -0.215,0 0.109,-0.11 -0.066,-0.058 0.129,0 82.75,-82.734 53.519,0 z" /><path
         id="path3672"
         style="fill:#000000;fill-opacity:1;fill-rule:nonzero;stroke:none"
         d="m 155.254,537.582 0,184.262 c 0,12.07 9.793,21.863 21.863,21.863 l 181.145,0 c 12.07,0 21.863,-9.793 21.863,-21.863 l 0,-184.262 -224.871,0 z m 237.359,-18.746 -249.847,0 0,12.492 249.847,0 0,-12.492 z m -37.468,-81.211 c -3.457,0 -6.254,2.816 -6.254,6.254 l 0,62.469 c 0,3.453 2.797,6.25 6.254,6.25 l 18.742,0 c 3.457,0 6.238,-2.797 6.238,-6.25 l 0,-62.469 c 0,-3.438 -2.781,-6.254 -6.238,-6.254 l -18.742,0 z m -156.165,0 c -3.46,0 -6.238,2.816 -6.238,6.254 l 0,62.469 c 0,3.453 2.778,6.25 6.238,6.25 l 18.739,0 c 3.461,0 6.258,-2.797 6.258,-6.25 l 0,-17.184 c 0,-3.441 2.793,-6.238 6.234,-6.238 l 11.879,0 c 3.199,0 6.285,1.238 8.617,3.437 l 4.07,3.875 c 7.231,6.899 18.61,6.899 25.844,0 l 4.067,-3.875 c 2.316,-2.199 5.402,-3.437 8.601,-3.437 l 11.879,0 c 3.441,0 6.254,2.797 6.254,6.238 l 0,17.184 c 0,3.453 2.793,6.25 6.254,6.25 l 18.722,0 c 3.461,0 6.254,-2.797 6.254,-6.25 l 0,-62.469 c 0,-3.438 -2.793,-6.254 -6.254,-6.254 l -18.722,0 c -3.461,0 -6.254,2.816 -6.254,6.254 l 0,17.187 c 0,3.434 -2.813,6.235 -6.254,6.235 l -11.879,0 c -3.199,0 -6.285,-1.239 -8.601,-3.442 l -4.067,-3.875 c -7.234,-6.894 -18.613,-6.894 -25.844,0 l -4.07,3.875 c -2.332,2.203 -5.418,3.442 -8.617,3.442 l -11.879,0 c -3.441,0 -6.234,-2.801 -6.234,-6.235 l 0,-17.187 c 0,-3.438 -2.797,-6.254 -6.258,-6.254 l -18.739,0 z m -37.472,0 c -3.457,0 -6.254,2.816 -6.254,6.254 l 0,62.469 c 0,3.453 2.797,6.25 6.254,6.25 l 18.742,0 c 3.441,0 6.238,-2.797 6.238,-6.25 l 0,-62.469 c 0,-3.438 -2.797,-6.254 -6.238,-6.254" /><path
         id="path3674"
         style="fill:#ec7c25;fill-opacity:1;fill-rule:nonzero;stroke:none"
         d="m 186.488,718.711 162.402,0 0,-156.152 -162.402,0 0,156.152 z" /></g></g></svg>