<?xml version="1.0" encoding="UTF-8" standalone="no"?>
<svg
   xmlns:dc="http://purl.org/dc/elements/1.1/"
   xmlns:cc="http://creativecommons.org/ns#"
   xmlns:rdf="http://www.w3.org/1999/02/22-rdf-syntax-ns#"
   xmlns:svg="http://www.w3.org/2000/svg"
   xmlns="http://www.w3.org/2000/svg"
   id="svg3504"
   version="1.1"
   xml:space="preserve"
   width="669.22375"
   height="1004.3262"
   viewBox="0 0 669.22375 1004.3262"><metadata
     id="metadata3510"><rdf:RDF><cc:Work
         rdf:about=""><dc:format>image/svg+xml</dc:format><dc:type
           rdf:resource="http://purl.org/dc/dcmitype/StillImage" /><dc:title></dc:title></cc:Work></rdf:RDF></metadata><defs
     id="defs3508"><clipPath
       clipPathUnits="userSpaceOnUse"
       id="clipPath3524"><path
         d="M 0,0 536,0 536,804 0,804 0,0 Z"
         id="path3526" /></clipPath></defs><g
     id="g3518"
     transform="matrix(1.25,0,0,-1.25,0,1005)"><g
       id="g3520"><g
         id="g3522"
         clip-path="url(#clipPath3524)"><g
           id="g3528"><path
             d="m 500.027,804 c 19.496,0 35.352,-15.852 35.352,-35.348 l 0,-732.773 c 0,-19.488 -15.856,-35.34 -35.352,-35.34 l -464.675,0 C 15.855,0.539 0,16.391 0,35.879 L 0,768.652 C 0,788.148 15.855,804 35.352,804"
             style="fill:#f0c900;fill-opacity:1;fill-rule:nonzero;stroke:none"
             id="path3530" /></g></g></g></g><path
     d="m 625.03375,10.6587 c 18.53125,0 33.53125,15 33.53125,33.51625 l 0,915.97625 c 0,18.50625 -15,33.49125 -33.53125,33.49125 l -580.84375,0 c -18.52125,0 -33.50625,-14.985 -33.50625,-33.49125 l 0,-915.97625 c 0,-18.51625 14.985,-33.51625 33.50625,-33.51625 l 580.84375,0 z m 0,16.76375 -580.84375,0 c -9.25375,0 -16.7675,7.50875 -16.7675,16.7525 l 0,915.97625 c 0,9.24375 7.51375,16.7525 16.7675,16.7525 l 580.84375,0 c 9.2725,0 16.7675,-7.50875 16.7675,-16.7525 l 0,-915.97625 c 0,-9.24375 -7.495,-16.7525 -16.7675,-16.7525 z"
     style="fill:#000000;fill-opacity:1;fill-rule:nonzero;stroke:none"
     id="path3532" /><path
     d="m 287.725,618.1837 107.895,0.005 -207.9975,208.56 37.08,37.075 209.40375,-209.1025 -0.005,109.9225 47.33,-47.32875 -0.02,-146.265 0.19,-0.18625 -0.195,-0.004 0.01,-0.1125 -0.1175,0.11625 -146.265,0.015 -47.30875,47.305 z"
     style="fill:#000000;fill-opacity:1;fill-rule:evenodd;stroke:none"
     id="path3538" /><g
     id="g3365"
     transform="translate(0,1.875e-6)"><path
       id="path3672"
       style="fill:#000000;fill-opacity:1;fill-rule:nonzero;stroke:none"
       d="m 194.0675,332.3487 0,-230.3275 c 0,-15.0875 12.24125,-27.32875 27.32875,-27.32875 l 226.43125,0 c 15.0875,0 27.32875,12.24125 27.32875,27.32875 l 0,230.3275 -281.08875,0 z m 296.69875,23.4325 -312.30875,0 0,-15.615 312.30875,0 0,15.615 z m -46.835,101.51375 c -4.32125,0 -7.8175,-3.52 -7.8175,-7.8175 l 0,-78.08625 c 0,-4.31625 3.49625,-7.8125 7.8175,-7.8125 l 23.4275,0 c 4.32125,0 7.7975,3.49625 7.7975,7.8125 l 0,78.08625 c 0,4.2975 -3.47625,7.8175 -7.7975,7.8175 l -23.4275,0 z m -195.20625,0 c -4.325,0 -7.7975,-3.52 -7.7975,-7.8175 l 0,-78.08625 c 0,-4.31625 3.4725,-7.8125 7.7975,-7.8125 l 23.42375,0 c 4.32625,0 7.8225,3.49625 7.8225,7.8125 l 0,21.48 c 0,4.30125 3.49125,7.7975 7.7925,7.7975 l 14.84875,0 c 3.99875,0 7.85625,-1.5475 10.77125,-4.29625 l 5.0875,-4.84375 c 9.03875,-8.62375 23.2625,-8.62375 32.305,0 l 5.08375,4.84375 c 2.895,2.74875 6.7525,4.29625 10.75125,4.29625 l 14.84875,0 c 4.30125,0 7.8175,-3.49625 7.8175,-7.7975 l 0,-21.48 c 0,-4.31625 3.49125,-7.8125 7.8175,-7.8125 l 23.4025,0 c 4.32625,0 7.8175,3.49625 7.8175,7.8125 l 0,78.08625 c 0,4.2975 -3.49125,7.8175 -7.8175,7.8175 l -23.4025,0 c -4.32625,0 -7.8175,-3.52 -7.8175,-7.8175 l 0,-21.48375 c 0,-4.2925 -3.51625,-7.79375 -7.8175,-7.79375 l -14.84875,0 c -3.99875,0 -7.85625,1.54875 -10.75125,4.3025 l -5.08375,4.84375 c -9.0425,8.6175 -23.26625,8.6175 -32.305,0 l -5.0875,-4.84375 c -2.915,-2.75375 -6.7725,-4.3025 -10.77125,-4.3025 l -14.84875,0 c -4.30125,0 -7.7925,3.50125 -7.7925,7.79375 l 0,21.48375 c 0,4.2975 -3.49625,7.8175 -7.8225,7.8175 l -23.42375,0 z m -46.84,0 c -4.32125,0 -7.8175,-3.52 -7.8175,-7.8175 l 0,-78.08625 c 0,-4.31625 3.49625,-7.8125 7.8175,-7.8125 l 23.4275,0 c 4.30125,0 7.7975,3.49625 7.7975,7.8125 l 0,78.08625 c 0,4.2975 -3.49625,7.8175 -7.7975,7.8175" /><path
       id="path3674"
       style="fill:#ec7c25;fill-opacity:1;fill-rule:nonzero;stroke:none"
       d="m 233.11,105.93745 203.0025,0 0,195.19 -203.0025,0 0,-195.19 z" /></g></svg>