<?xml version="1.0" encoding="UTF-8" standalone="no"?>
<svg
   xmlns:dc="http://purl.org/dc/elements/1.1/"
   xmlns:cc="http://creativecommons.org/ns#"
   xmlns:rdf="http://www.w3.org/1999/02/22-rdf-syntax-ns#"
   xmlns:svg="http://www.w3.org/2000/svg"
   xmlns="http://www.w3.org/2000/svg"
   viewBox="0 0 669.22375 1004.3262"
   height="1004.3262"
   width="669.22375"
   xml:space="preserve"
   id="svg3701"
   version="1.1"><metadata
     id="metadata3707"><rdf:RDF><cc:Work
         rdf:about=""><dc:format>image/svg+xml</dc:format><dc:type
           rdf:resource="http://purl.org/dc/dcmitype/StillImage" /><dc:title></dc:title></cc:Work></rdf:RDF></metadata><defs
     id="defs3705"><clipPath
       id="clipPath3721"
       clipPathUnits="userSpaceOnUse"><path
         id="path3719"
         d="M 0,0 H 502 V 754 H 0 Z" /></clipPath></defs><g
     transform="matrix(1.3333333,0,0,-1.3333333,0,1004.3262)"
     id="g3709"><g
       id="g3711"><g
         transform="translate(0,-0.755371)"
         id="g3713"><g
           id="g3715"><g
             clip-path="url(#clipPath3721)"
             id="g3717"><g
               id="g3723"><path
                 id="path3725"
                 style="fill:#f0c900;fill-opacity:1;fill-rule:nonzero;stroke:none"
                 d="M 33.137,754 C 14.863,754 0,739.141 0,720.867 V 33.887 C 0,15.617 14.863,0.754 33.137,0.754 h 435.644 c 18.274,0 33.137,14.863 33.137,33.133 v 686.98 c 0,18.274 -14.863,33.133 -33.137,33.133" /></g></g></g></g><path
         id="path3727"
         style="fill:#000000;fill-opacity:1;fill-rule:nonzero;stroke:none"
         d="M 33.137,745.245 C 19.25,745.245 8,733.995 8,720.112 V 33.131 C 8,19.252 19.25,8.014 33.137,8.014 h 435.644 c 13.887,0 25.125,11.238 25.125,25.117 v 686.981 c 0,13.883 -11.238,25.133 -25.125,25.133 z m 0,-12.567 h 435.644 c 6.934,0 12.571,-5.633 12.571,-12.566 V 33.131 c 0,-6.933 -5.637,-12.57 -12.571,-12.57 H 33.137 c -6.949,0 -12.571,5.637 -12.571,12.57 v 686.981 c 0,6.933 5.622,12.566 12.571,12.566 z" /><path
         id="path3729"
         style="fill:#000000;fill-opacity:1;fill-rule:evenodd;stroke:none"
         d="m 235.059,367.854 57.214,-57.219 -59.25,-0.297 C 159.879,307.206 141.727,243.385 138.93,224.803 V 76.245 h 40.406 v 142.433 c 0,6.891 6.109,44.508 51.555,52.332 l 62.422,-0.16 -58.297,-58.293 h 50.199 l 77.558,77.578 h 0.2 l -0.102,0.102 0.063,0.058 h -0.121 l -77.579,77.559 z" /><g
         transform="rotate(180,0,376.62231)"
         id="g3731"><path
           id="path3733"
           style="fill:none;stroke:#000000;stroke-width:15.21648216;stroke-linecap:butt;stroke-linejoin:miter;stroke-miterlimit:4;stroke-dasharray:none;stroke-opacity:1"
           d="m -299.074,225.984 c 0,33.825 -27.422,61.246 -61.246,61.246 -33.825,0 -61.246,-27.421 -61.246,-61.246 0,-33.824 27.421,-61.246 61.246,-61.246 33.824,0 61.246,27.422 61.246,61.246 z" /></g><g
         transform="rotate(180,0,376.62231)"
         id="g3735"><path
           id="path3737"
           style="fill:none;stroke:#000000;stroke-width:15.21648216;stroke-linecap:butt;stroke-linejoin:miter;stroke-miterlimit:4;stroke-dasharray:none;stroke-opacity:1"
           d="m -80.336,224.844 c 0,33.824 -27.422,61.246 -61.246,61.246 -33.828,0 -61.246,-27.422 -61.246,-61.246 0,-33.828 27.418,-61.246 61.246,-61.246 33.824,0 61.246,27.418 61.246,61.246 z" /></g><path
         id="path3739"
         style="fill:#000000;fill-opacity:1;fill-rule:evenodd;stroke:none"
         d="m 278.727,676.963 c 50.429,-0.488 41.878,5.211 69.011,-81.984 22.102,-69.668 19.696,-62.07 19.809,-66.957 0.082,-3.797 -2.981,-6.809 -6.832,-7.066 -8.012,0.812 -4.641,-0.864 -32.41,85.363 -101.461,-107.031 -63.395,-89.676 -117.996,-91.852 -71.762,0.692 -77.594,-3.734 -78.446,6.785 0.098,3.571 1.77,5.7 51.02,115.309 l -4.719,12.977 -16.223,0.296 0.59,13.567 h 60.457 c 5.344,-7.309 -2.16,-7.277 -29.195,-13.274 l 4.719,-13.269 120.617,-0.297 c -8.125,28.379 -3.535,26.609 -40.106,26.543 z m 43.89,-54.945 -118.027,0.207 34.109,-91.66 z m -132.258,-5.441 33.481,-87.895 -73.242,-0.207 z" /></g></g></svg>