<?xml version="1.0" encoding="UTF-8" standalone="no"?>
<svg
   xmlns:dc="http://purl.org/dc/elements/1.1/"
   xmlns:cc="http://creativecommons.org/ns#"
   xmlns:rdf="http://www.w3.org/1999/02/22-rdf-syntax-ns#"
   xmlns:svg="http://www.w3.org/2000/svg"
   xmlns="http://www.w3.org/2000/svg"
   viewBox="0 0 669.22034 1004.3291"
   height="1004.3291"
   width="669.22034"
   xml:space="preserve"
   version="1.1"
   id="svg3996"><metadata
     id="metadata4002"><rdf:RDF><cc:Work
         rdf:about=""><dc:format>image/svg+xml</dc:format><dc:type
           rdf:resource="http://purl.org/dc/dcmitype/StillImage" /><dc:title></dc:title></cc:Work></rdf:RDF></metadata><defs
     id="defs4000"><clipPath
       id="clipPath4016"
       clipPathUnits="userSpaceOnUse"><path
         id="path4018"
         d="M 0,0 536,0 536,804 0,804 0,0 Z" /></clipPath></defs><g
     transform="matrix(1.25,0,0,-1.25,0,1004.3291)"
     id="g4004"><g
       id="g4006" /><g
       id="g4008"><g
         transform="translate(0,-0.536743)"
         id="g4010"><g
           id="g4012"><g
             clip-path="url(#clipPath4016)"
             id="g4014"><g
               id="g4020"><path
                 id="path4022"
                 style="fill:#f0c900;fill-opacity:1;fill-rule:nonzero;stroke:none"
                 d="M 35.348,804 C 15.848,804 0,788.148 0,768.652 L 0,35.879 C 0,16.391 15.848,0.535 35.348,0.535 l 464.683,0 c 19.492,0 35.344,15.856 35.344,35.344 l 0,732.773 c 0,19.496 -15.852,35.348 -35.344,35.348" /></g></g></g></g><path
         id="path4024"
         style="fill:#000000;fill-opacity:1;fill-rule:nonzero;stroke:none"
         d="m 35.348,794.928 c -14.813,0 -26.821,-12 -26.821,-26.808 l 0,-732.778 C 8.527,20.534 20.535,8.545 35.348,8.545 l 464.683,0 c 14.809,0 26.797,11.989 26.797,26.797 l 0,732.778 c 0,14.808 -11.988,26.808 -26.797,26.808 l -464.683,0 z m 0,-13.402 464.683,0 c 7.399,0 13.41,-6.008 13.41,-13.406 l 0,-732.778 c 0,-7.394 -6.011,-13.41 -13.41,-13.41 l -464.683,0 c -7.418,0 -13.41,6.016 -13.41,13.41 l 0,732.778 c 0,7.398 5.992,13.406 13.41,13.406 z" /><path
         id="path4026"
         style="fill:#000000;fill-opacity:1;fill-rule:nonzero;stroke:none"
         d="m 151.699,231.702 c 0,49.265 39.938,89.226 89.227,89.226 l 80.285,0 -62.457,62.438 44.613,0 80.309,-80.305 -80.309,-80.285 -44.613,0 62.457,62.461 -80.285,0 c -29.571,0 -53.539,-23.981 -53.539,-53.535 l 0,-151.672 -35.688,0 0,151.672 z" /><path
         id="path4028"
         style="fill:#000000;fill-opacity:1;fill-rule:nonzero;stroke:none"
         d="m 155.273,537.19 0,184.262 c 0,12.07 9.793,21.867 21.852,21.867 l 181.145,0 c 12.082,0 21.871,-9.797 21.871,-21.867 l 0,-184.262 -224.868,0 z m 237.352,-18.758 -249.848,0 0,12.504 249.848,0 0,-12.504 z m -37.473,-81.184 c -3.449,0 -6.254,2.778 -6.254,6.231 l 0,62.476 c 0,3.446 2.805,6.25 6.254,6.25 l 18.739,0 c 3.457,0 6.25,-2.804 6.25,-6.25 l 0,-62.476 c 0,-3.453 -2.793,-6.231 -6.25,-6.231 l -18.739,0 z m -156.156,0 c -3.453,0 -6.254,2.778 -6.254,6.231 l 0,62.476 c 0,3.446 2.801,6.25 6.254,6.25 l 18.734,0 c 3.45,0 6.25,-2.804 6.25,-6.25 l 0,-17.183 c 0,-3.445 2.797,-6.25 6.25,-6.25 l 11.868,0 c 3.199,0 6.281,1.246 8.625,3.453 l 4.066,3.879 c 7.227,6.887 18.594,6.887 25.836,0 l 4.074,-3.879 c 2.317,-2.207 5.418,-3.453 8.606,-3.453 l 11.879,0 c 3.453,0 6.25,2.805 6.25,6.25 l 0,17.183 c 0,3.446 2.8,6.25 6.234,6.25 l 18.754,0 c 3.433,0 6.226,-2.804 6.226,-6.25 l 0,-62.476 c 0,-3.453 -2.793,-6.231 -6.226,-6.231 l -18.754,0 c -3.434,0 -6.234,2.778 -6.234,6.231 l 0,17.176 c 0,3.453 -2.797,6.25 -6.25,6.25 l -11.879,0 c -3.188,0 -6.289,-1.239 -8.606,-3.45 l -4.074,-3.863 c -7.242,-6.906 -18.609,-6.906 -25.836,0 l -4.066,3.863 c -2.344,2.211 -5.426,3.45 -8.625,3.45 l -11.868,0 c -3.453,0 -6.25,-2.797 -6.25,-6.25 l 0,-17.176 c 0,-3.453 -2.8,-6.231 -6.25,-6.231 l -18.734,0 z m -37.473,0 c -3.449,0 -6.25,2.778 -6.25,6.231 l 0,62.476 c 0,3.446 2.801,6.25 6.25,6.25 l 18.739,0 c 3.449,0 6.23,-2.804 6.23,-6.25 l 0,-62.476 c 0,-3.453 -2.781,-6.231 -6.23,-6.231" /><path
         id="path4030"
         style="fill:#ec7c25;fill-opacity:1;fill-rule:nonzero;stroke:none"
         d="m 186.492,718.33 162.406,0 0,-156.16 -162.406,0 0,156.16 z" /></g></g></svg>