<?xml version="1.0" encoding="UTF-8" standalone="no"?>
<svg
   xmlns:dc="http://purl.org/dc/elements/1.1/"
   xmlns:cc="http://creativecommons.org/ns#"
   xmlns:rdf="http://www.w3.org/1999/02/22-rdf-syntax-ns#"
   xmlns:svg="http://www.w3.org/2000/svg"
   xmlns="http://www.w3.org/2000/svg"
   viewBox="0 0 669.22375 1004.3262"
   height="1004.3262"
   width="669.22375"
   xml:space="preserve"
   id="svg4315"
   version="1.1"><metadata
     id="metadata4321"><rdf:RDF><cc:Work
         rdf:about=""><dc:format>image/svg+xml</dc:format><dc:type
           rdf:resource="http://purl.org/dc/dcmitype/StillImage" /><dc:title></dc:title></cc:Work></rdf:RDF></metadata><defs
     id="defs4319"><clipPath
       id="clipPath4335"
       clipPathUnits="userSpaceOnUse"><path
         id="path4333"
         d="M 0,0 H 502 V 754 H 0 Z" /></clipPath></defs><g
     transform="matrix(1.3333333,0,0,-1.3333333,0,1004.3262)"
     id="g4323"><g
       id="g4325"><g
         transform="translate(0,-0.755371)"
         id="g4327"><g
           id="g4329"><g
             clip-path="url(#clipPath4335)"
             id="g4331"><g
               id="g4337"><path
                 id="path4339"
                 style="fill:#f0c900;fill-opacity:1;fill-rule:nonzero;stroke:none"
                 d="m 468.777,754 c 18.278,0 33.141,-14.859 33.141,-33.137 V 33.887 c 0,-18.27 -14.863,-33.133 -33.141,-33.133 H 33.141 C 14.863,0.754 0,15.617 0,33.887 V 720.863 C 0,739.141 14.863,754 33.141,754" /></g></g></g></g><path
         id="path4341"
         style="fill:#000000;fill-opacity:1;fill-rule:nonzero;stroke:none"
         d="m 468.777,745.249 c 13.895,0 25.145,-11.25 25.145,-25.137 V 33.131 c 0,-13.879 -11.25,-25.117 -25.145,-25.117 H 33.141 C 19.25,8.014 8.012,19.252 8.012,33.131 v 686.981 c 0,13.887 11.238,25.137 25.129,25.137 z m 0,-12.571 H 33.141 c -6.938,0 -12.575,-5.633 -12.575,-12.566 V 33.131 c 0,-6.933 5.637,-12.566 12.575,-12.566 h 435.636 c 6.953,0 12.575,5.633 12.575,12.566 v 686.981 c 0,6.933 -5.622,12.566 -12.575,12.566 z" /><path
         id="path4343"
         style="fill:#000000;fill-opacity:1;fill-rule:nonzero;stroke:none"
         d="m 335.977,625.655 77.558,-4.828 c 3.52,-0.231 6.574,-2.489 7.82,-5.793 l 19.739,-52.641 c 1.511,-4.016 2.273,-8.281 2.273,-12.582 v -49.434 c 0,-4.949 -4,-8.953 -8.945,-8.953 h -4.481 c 0,22.246 -18.031,40.274 -40.261,40.274 -22.242,0 -40.27,-18.028 -40.27,-40.274 H 188.316 c 0,12.172 -5.492,23.672 -14.957,31.328 h 162.618 z m 31.324,-15.649 v -44.754 l 59.414,-6.976 c 2.457,-0.297 4.683,1.465 4.969,3.918 0.078,0.699 0,1.426 -0.25,2.094 l -15.008,39.988 c -0.617,1.66 -2.141,2.793 -3.903,2.906 z" /><path
         id="path4345"
         style="fill:#000000;fill-opacity:1;fill-rule:nonzero;stroke:none"
         d="m 116.719,491.424 c 0,-17.297 14.027,-31.324 31.324,-31.324 17.297,0 31.328,14.027 31.328,31.324 0,17.301 -14.031,31.328 -31.328,31.328 -17.297,0 -31.324,-14.027 -31.324,-31.328 z m 241.636,0 c 0,-17.297 14.012,-31.324 31.325,-31.324 17.3,0 31.308,14.027 31.308,31.324 0,17.301 -14.008,31.328 -31.308,31.328 -17.313,0 -31.325,-14.027 -31.325,-31.328 z M 58.551,531.698 H 318.082 V 656.983 H 58.551 Z m 26.844,-40.274 h 22.378 c 0,12.172 5.493,23.672 14.954,31.328 H 58.551 v -22.378" /><path
         id="path4347"
         style="fill:#000000;fill-opacity:1;fill-rule:evenodd;stroke:none"
         d="m 235.059,367.854 57.214,-57.219 -59.25,-0.297 C 159.879,307.206 141.727,243.385 138.93,224.803 V 76.245 h 40.406 v 142.433 c 0,6.891 6.109,44.508 51.555,52.332 l 62.422,-0.16 -58.297,-58.293 h 50.199 l 77.558,77.578 h 0.2 l -0.102,0.102 0.063,0.058 h -0.121 l -77.579,77.559 z" /></g></g></svg>