<?xml version="1.0" encoding="UTF-8" standalone="no"?>
<svg
   xmlns:dc="http://purl.org/dc/elements/1.1/"
   xmlns:cc="http://creativecommons.org/ns#"
   xmlns:rdf="http://www.w3.org/1999/02/22-rdf-syntax-ns#"
   xmlns:svg="http://www.w3.org/2000/svg"
   xmlns="http://www.w3.org/2000/svg"
   version="1.1"
   id="svg3701"
   xml:space="preserve"
   width="669.22375"
   height="1004.3262"
   viewBox="0 0 669.22375 1004.3262"><metadata
     id="metadata3707"><rdf:RDF><cc:Work
         rdf:about=""><dc:format>image/svg+xml</dc:format><dc:type
           rdf:resource="http://purl.org/dc/dcmitype/StillImage" /><dc:title></dc:title></cc:Work></rdf:RDF></metadata><defs
     id="defs3705"><clipPath
       clipPathUnits="userSpaceOnUse"
       id="clipPath3721"><path
         d="M 0,0 H 502 V 754 H 0 Z"
         id="path3719" /></clipPath></defs><g
     id="g3713"
     transform="matrix(1.3333333,0,0,-1.3333333,0,1005.3334)"><g
       id="g3715"><g
         id="g3717"
         clip-path="url(#clipPath3721)"><g
           id="g3723"><path
             d="M 33.137,754 C 14.863,754 0,739.141 0,720.867 V 33.887 C 0,15.617 14.863,0.754 33.137,0.754 h 435.644 c 18.274,0 33.137,14.863 33.137,33.133 v 686.98 c 0,18.274 -14.863,33.133 -33.137,33.133"
             style="fill:#f0c900;fill-opacity:1;fill-rule:nonzero;stroke:none"
             id="path3725" /></g></g></g></g><path
     d="m 44.182666,10.666225 c -18.516,0 -33.516,14.999999 -33.516,33.510666 V 960.15153 c 0,18.50534 15,33.48934 33.516,33.48934 H 625.04132 c 18.516,0 33.5,-14.984 33.5,-33.48934 V 44.176891 c 0,-18.510667 -14.984,-33.510666 -33.5,-33.510666 z m 0,16.755999 H 625.04132 c 9.24533,0 16.76133,7.510667 16.76133,16.754667 V 960.15153 c 0,9.244 -7.516,16.76 -16.76133,16.76 H 44.182666 c -9.265334,0 -16.761333,-7.516 -16.761333,-16.76 V 44.176891 c 0,-9.244 7.495999,-16.754667 16.761333,-16.754667 z"
     style="fill:#000000;fill-opacity:1;fill-rule:nonzero;stroke:none;stroke-width:1.33333325"
     id="path3727" /><g
     transform="matrix(-1,0,0,1,669.20265,254.75078)"
     id="g3881"><g
       transform="matrix(-1.3333333,0,0,1.3333333,0,6.5108154e-5)"
       id="g3731"><path
         id="path3733"
         transform="matrix(0.75000002,0,0,0.75000002,-501.902,-191.06314)"
         d="M 297.56641 356.45898 C 230.32774 357.10965 241.73007 349.51148 205.55273 465.77148 C 205.54891 465.78354 205.54874 465.78678 205.54492 465.79883 C 200.10544 464.78864 194.50083 464.25586 188.77539 464.25586 C 138.19271 464.25586 96.970703 505.48118 96.970703 556.0625 C 96.970703 606.64498 138.19291 647.86719 188.77539 647.86719 C 239.3567 647.86719 280.58203 606.64518 280.58203 556.0625 C 280.58203 518.2402 257.53048 485.65285 224.75391 471.61719 C 226.82971 465.0873 229.05015 458.14428 231.46289 450.65234 C 366.74422 593.36033 315.98969 570.21975 388.79102 573.12109 C 389.39952 573.11523 389.91226 573.11665 390.51367 573.11133 C 399.13407 614.83643 436.19883 646.34766 480.42578 646.34766 C 531.00729 646.34766 572.23047 605.12447 572.23047 554.54297 C 572.23047 503.95677 531.00649 462.73828 480.42578 462.73828 C 470.18529 462.73828 460.32964 464.4268 451.12109 467.54102 C 443.75742 451.22235 435.54857 433.00484 425.35938 410.32812 L 431.65039 393.02539 L 453.28125 392.63086 L 452.49414 374.54297 L 371.88477 374.54297 C 364.75944 384.2883 374.76583 384.24423 410.8125 392.24023 L 404.51953 409.93359 L 243.69727 410.32812 C 254.5306 372.48946 248.41054 374.8495 297.17188 374.9375 L 297.56641 356.45898 z M 396.41602 429.44336 L 350.9375 551.65625 L 239.04688 429.71875 L 396.41602 429.44336 z M 415.39062 436.97461 L 432.99609 475.98438 C 406.51512 492.04365 388.74057 521.10652 388.625 554.21875 L 370.75 554.16797 L 415.39062 436.97461 z M 480.42578 483.02734 C 520.04241 483.02734 551.94531 514.92117 551.94531 554.54297 C 551.94531 594.15879 520.04161 626.06055 480.42578 626.06055 C 447.20407 626.06055 419.42562 603.62772 411.31445 573.0293 C 485.53811 573.0765 492.34626 576.89582 493.38477 564.07422 C 493.28265 560.35347 491.4462 556.79593 459.50977 486.11914 C 466.12201 484.11316 473.14095 483.02734 480.42578 483.02734 z M 188.77539 484.54492 C 192.37404 484.54492 195.90615 484.81585 199.35938 485.32422 C 177.9074 552.98838 179.27718 549.14082 179.14062 555.04688 C 179.03129 560.10955 183.11533 564.12608 188.25 564.46875 C 197.47799 563.53351 195.50125 564.70416 218.625 491.0332 C 243.25247 502.30765 260.29297 527.11691 260.29297 556.0625 C 260.29297 595.67981 228.3914 627.57812 188.77539 627.57812 C 149.15787 627.57812 117.25977 595.68001 117.25977 556.0625 C 117.25977 516.44647 149.15807 484.54492 188.77539 484.54492 z M 441.38281 494.56836 L 468.40625 554.44336 L 408.91406 554.27539 C 409.00551 529.19736 421.87985 507.25587 441.38281 494.56836 z "
         style="color:#000000;font-style:normal;font-variant:normal;font-weight:normal;font-stretch:normal;font-size:medium;line-height:normal;font-family:sans-serif;font-variant-ligatures:normal;font-variant-position:normal;font-variant-caps:normal;font-variant-numeric:normal;font-variant-alternates:normal;font-feature-settings:normal;text-indent:0;text-align:start;text-decoration:none;text-decoration-line:none;text-decoration-style:solid;text-decoration-color:#000000;letter-spacing:normal;word-spacing:normal;text-transform:none;writing-mode:lr-tb;direction:ltr;text-orientation:mixed;dominant-baseline:auto;baseline-shift:baseline;text-anchor:start;white-space:normal;shape-padding:0;clip-rule:nonzero;display:inline;overflow:visible;visibility:visible;opacity:1;isolation:auto;mix-blend-mode:normal;color-interpolation:sRGB;color-interpolation-filters:linearRGB;solid-color:#000000;solid-opacity:1;vector-effect:none;fill:#000000;fill-opacity:1;fill-rule:nonzero;stroke:none;stroke-width:20.28864288;stroke-linecap:butt;stroke-linejoin:miter;stroke-miterlimit:4;stroke-dasharray:none;stroke-dashoffset:0;stroke-opacity:1;color-rendering:auto;image-rendering:auto;shape-rendering:auto;text-rendering:auto;enable-background:accumulate" /></g><g
       transform="matrix(-1.3333333,0,0,1.3333333,0,6.5108154e-5)"
       id="g3735" /></g></svg>