<?xml version="1.0" encoding="UTF-8" standalone="no"?>
<svg
   xmlns:dc="http://purl.org/dc/elements/1.1/"
   xmlns:cc="http://creativecommons.org/ns#"
   xmlns:rdf="http://www.w3.org/1999/02/22-rdf-syntax-ns#"
   xmlns:svg="http://www.w3.org/2000/svg"
   xmlns="http://www.w3.org/2000/svg"
   viewBox="0 0 669.22375 1004.3262"
   height="1004.3262"
   width="669.22375"
   xml:space="preserve"
   id="svg3721"
   version="1.1"><metadata
     id="metadata3727"><rdf:RDF><cc:Work
         rdf:about=""><dc:format>image/svg+xml</dc:format><dc:type
           rdf:resource="http://purl.org/dc/dcmitype/StillImage" /><dc:title></dc:title></cc:Work></rdf:RDF></metadata><defs
     id="defs3725"><clipPath
       id="clipPath3741"
       clipPathUnits="userSpaceOnUse"><path
         id="path3739"
         d="M 0,0 H 502 V 754 H 0 Z" /></clipPath></defs><g
     transform="matrix(1.3333333,0,0,-1.3333333,0,1004.3262)"
     id="g3729"><g
       id="g3731"><g
         transform="translate(0,-0.755371)"
         id="g3733"><g
           id="g3735"><g
             clip-path="url(#clipPath3741)"
             id="g3737"><g
               id="g3743"><path
                 id="path3745"
                 style="fill:#f0c900;fill-opacity:1;fill-rule:nonzero;stroke:none"
                 d="M 33.141,754 C 14.863,754 0,739.141 0,720.863 V 33.887 C 0,15.617 14.863,0.754 33.141,0.754 h 435.636 c 18.278,0 33.141,14.863 33.141,33.133 v 686.976 c 0,18.278 -14.863,33.137 -33.141,33.137" /></g></g></g></g><path
         id="path3747"
         style="fill:#000000;fill-opacity:1;fill-rule:nonzero;stroke:none"
         d="m 33.141,745.249 c -13.895,0 -25.145,-11.25 -25.145,-25.137 V 33.131 c 0,-13.879 11.25,-25.117 25.145,-25.117 h 435.636 c 13.891,0 25.129,11.238 25.129,25.117 v 686.981 c 0,13.887 -11.238,25.137 -25.129,25.137 z m 0,-12.571 h 435.636 c 6.938,0 12.575,-5.633 12.575,-12.566 V 33.131 c 0,-6.933 -5.637,-12.566 -12.575,-12.566 H 33.141 c -6.953,0 -12.575,5.633 -12.575,12.566 v 686.981 c 0,6.933 5.622,12.566 12.575,12.566 z" /><path
         id="path3749"
         style="fill:#000000;fill-opacity:1;fill-rule:nonzero;stroke:none"
         d="m 165.941,443.737 -77.558,-4.828 c -3.52,-0.235 -6.574,-2.492 -7.82,-5.793 L 60.824,380.471 c -1.511,-4.015 -2.273,-8.277 -2.273,-12.582 v -49.433 c 0,-4.95 4,-8.954 8.945,-8.954 h 4.481 c 0,22.247 18.031,40.278 40.261,40.278 22.242,0 40.27,-18.031 40.27,-40.278 h 161.094 c 0,12.172 5.492,23.672 14.957,31.329 H 165.941 Z m -31.324,-15.653 v -44.753 l -59.414,-6.973 c -2.457,-0.301 -4.683,1.465 -4.969,3.918 -0.078,0.695 0,1.426 0.25,2.094 l 15.008,39.988 c 0.617,1.656 2.141,2.793 3.903,2.902 z" /><path
         id="path3751"
         style="fill:#000000;fill-opacity:1;fill-rule:nonzero;stroke:none"
         d="m 385.199,309.502 c 0,-17.296 -14.027,-31.324 -31.324,-31.324 -17.297,0 -31.328,14.028 -31.328,31.324 0,17.301 14.031,31.329 31.328,31.329 17.297,0 31.324,-14.028 31.324,-31.329 z m -241.636,0 c 0,-17.296 -14.012,-31.324 -31.325,-31.324 -17.3,0 -31.308,14.028 -31.308,31.324 0,17.301 14.008,31.329 31.308,31.329 17.313,0 31.325,-14.028 31.325,-31.329 z M 443.367,349.78 H 183.836 v 125.285 h 259.531 z m -26.844,-40.278 h -22.378 c 0,12.172 -5.493,23.672 -14.954,31.329 h 64.176 v -22.375" /></g></g></svg>