<?xml version="1.0" encoding="UTF-8" standalone="no"?>
<svg
   xmlns:dc="http://purl.org/dc/elements/1.1/"
   xmlns:cc="http://creativecommons.org/ns#"
   xmlns:rdf="http://www.w3.org/1999/02/22-rdf-syntax-ns#"
   xmlns:svg="http://www.w3.org/2000/svg"
   xmlns="http://www.w3.org/2000/svg"
   viewBox="0 0 669.22375 1004.3262"
   height="1004.3262"
   width="669.22375"
   xml:space="preserve"
   id="svg4014"
   version="1.1"><metadata
     id="metadata4020"><rdf:RDF><cc:Work
         rdf:about=""><dc:format>image/svg+xml</dc:format><dc:type
           rdf:resource="http://purl.org/dc/dcmitype/StillImage" /><dc:title></dc:title></cc:Work></rdf:RDF></metadata><defs
     id="defs4018"><clipPath
       id="clipPath4034"
       clipPathUnits="userSpaceOnUse"><path
         id="path4032"
         d="M 0,0 H 502 V 754 H 0 Z" /></clipPath></defs><g
     transform="matrix(1.3333333,0,0,-1.3333333,0,1004.3262)"
     id="g4022"><g
       id="g4024"><g
         transform="translate(0,-0.755371)"
         id="g4026"><g
           id="g4028"><g
             clip-path="url(#clipPath4034)"
             id="g4030"><g
               id="g4036"><path
                 id="path4038"
                 style="fill:#f0c900;fill-opacity:1;fill-rule:nonzero;stroke:none"
                 d="m 468.781,754 c 18.274,0 33.137,-14.859 33.137,-33.133 V 33.887 c 0,-18.27 -14.863,-33.133 -33.137,-33.133 H 33.137 C 14.863,0.754 0,15.617 0,33.887 v 686.98 C 0,739.141 14.863,754 33.137,754" /></g></g></g></g><path
         id="path4040"
         style="fill:#000000;fill-opacity:1;fill-rule:nonzero;stroke:none"
         d="m 468.781,745.245 c 13.887,0 25.137,-11.25 25.137,-25.133 V 33.131 c 0,-13.879 -11.25,-25.117 -25.137,-25.117 H 33.137 C 19.25,8.014 8.012,19.252 8.012,33.131 v 686.981 c 0,13.883 11.238,25.133 25.125,25.133 z m 0,-12.567 H 33.137 c -6.934,0 -12.571,-5.633 -12.571,-12.566 V 33.131 c 0,-6.933 5.637,-12.57 12.571,-12.57 h 435.644 c 6.949,0 12.571,5.637 12.571,12.57 v 686.981 c 0,6.933 -5.622,12.566 -12.571,12.566 z" /><path
         id="path4042"
         style="fill:#000000;fill-opacity:1;fill-rule:evenodd;stroke:none"
         d="m 266.859,367.854 -57.214,-57.219 59.25,-0.297 c 73.144,-3.132 91.296,-66.953 94.093,-85.535 V 76.245 h -40.406 v 142.433 c 0,6.891 -6.109,44.508 -51.555,52.332 l -62.422,-0.16 58.297,-58.293 h -50.199 l -77.558,77.578 h -0.2 l 0.102,0.102 -0.063,0.058 h 0.121 l 77.579,77.559 z" /><path
         id="path4044"
         style="fill:#154889;fill-opacity:1;fill-rule:nonzero;stroke:none"
         d="m 368.086,435.346 -5.402,2.27 c -11.547,4.777 -24.52,4.777 -36.032,0 l -10.836,-4.528 c -11.507,-4.808 -24.48,-4.808 -36.027,0 l -10.805,4.528 c -11.543,4.777 -24.515,4.777 -36.039,0 l -10.828,-4.528 c -11.515,-4.808 -24.488,-4.808 -36.035,0 l -10.801,4.528 c -11.547,4.777 -24.511,4.777 -36.035,0 l -5.394,-2.27 v 11.738 l 5.394,2.235 c 11.524,4.812 24.488,4.812 36.035,0 l 10.801,-4.5 c 11.547,-4.813 24.52,-4.813 36.035,0 l 10.828,4.5 c 11.524,4.812 24.496,4.812 36.039,0 l 10.805,-4.5 c 11.547,-4.813 24.52,-4.813 36.027,0 l 10.836,4.5 c 11.512,4.812 24.485,4.812 36.032,0 l 5.402,-2.235 z m 0,-23.426 -5.402,2.235 c -11.547,4.808 -24.52,4.808 -36.032,0 l -10.836,-4.504 c -11.507,-4.813 -24.48,-4.813 -36.027,0 l -10.805,4.504 c -11.543,4.808 -24.515,4.808 -36.039,0 l -10.828,-4.504 c -11.515,-4.813 -24.488,-4.813 -36.035,0 l -10.801,4.504 c -11.547,4.808 -24.511,4.808 -36.035,0 l -5.394,-2.235 v 11.7 l 5.394,2.269 c 11.524,4.813 24.488,4.813 36.035,0 l 10.801,-4.5 c 11.547,-4.847 24.52,-4.847 36.035,0 l 10.828,4.5 c 11.524,4.813 24.496,4.813 36.039,0 l 10.805,-4.5 c 11.547,-4.847 24.52,-4.847 36.027,0 l 10.836,4.5 c 11.512,4.813 24.485,4.813 36.032,0 l 5.402,-2.269" /><path
         id="path4046"
         style="fill:#000000;fill-opacity:1;fill-rule:nonzero;stroke:none"
         d="m 250.949,710.858 c -64.676,0 -117.097,-34.102 -117.097,-76.188 0,-42.086 52.421,-76.218 117.097,-76.218 64.688,0 117.137,34.132 117.137,76.218 0,42.086 -52.449,76.188 -117.137,76.188 z m 0,-14.645 c 55.004,0 99.567,-27.554 99.567,-61.543 0,-34.015 -44.563,-61.578 -99.567,-61.578 -54.965,0 -99.531,27.563 -99.531,61.578 0,33.989 44.566,61.543 99.531,61.543 z M 133.852,576.042 v -35.165 h 234.234 v 35.165 h -31.074 c -47.789,-31.286 -124.297,-31.286 -172.125,0 z m 17.566,-41.067 c -3.227,0 -5.867,-2.605 -5.867,-5.832 v -58.629 c 0,-3.222 2.64,-5.871 5.867,-5.871 h 17.57 c 3.219,0 5.86,2.649 5.86,5.871 v 58.629 c 0,3.227 -2.641,5.832 -5.86,5.832 z m 35.129,0 c -3.227,0 -5.859,-2.605 -5.859,-5.832 v -58.629 c 0,-3.222 2.632,-5.871 5.859,-5.871 h 17.57 c 3.227,0 5.867,2.649 5.867,5.871 v 16.141 c 0,3.23 2.61,5.832 5.836,5.832 h 11.141 c 3.008,0 5.902,-1.141 8.074,-3.227 l 3.817,-3.629 c 6.757,-6.457 17.437,-6.457 24.234,0 l 3.824,3.629 c 2.172,2.086 5.055,3.227 8.067,3.227 h 11.109 c 3.258,0 5.871,-2.602 5.871,-5.832 v -16.141 c 0,-3.222 2.629,-5.871 5.856,-5.871 h 17.57 c 3.23,0 5.836,2.649 5.836,5.871 v 58.629 c 0,3.227 -2.606,5.832 -5.836,5.832 h -17.57 c -3.227,0 -5.856,-2.605 -5.856,-5.832 V 513.01 c 0,-3.23 -2.613,-5.836 -5.871,-5.836 h -11.109 c -3.012,0 -5.895,1.145 -8.067,3.196 l -3.824,3.664 c -6.797,6.488 -17.477,6.488 -24.234,0 l -3.817,-3.664 c -2.172,-2.051 -5.066,-3.196 -8.074,-3.196 H 215.82 c -3.226,0 -5.836,2.606 -5.836,5.836 v 16.133 c 0,3.227 -2.64,5.832 -5.867,5.832 z m 146.402,0 c -3.23,0 -5.863,-2.605 -5.863,-5.832 v -58.629 c 0,-3.222 2.633,-5.871 5.863,-5.871 h 17.567 c 3.23,0 5.832,2.649 5.832,5.871 v 58.629 c 0,3.227 -2.602,5.832 -5.832,5.832 z" /><path
         id="path4048"
         style="fill:#ec7c25;fill-opacity:1;fill-rule:nonzero;stroke:none"
         d="m 151.418,634.67 c 0,33.989 44.566,61.543 99.531,61.543 55.004,0 99.567,-27.554 99.567,-61.543 0,-34.015 -44.563,-61.578 -99.567,-61.578 -54.965,0 -99.531,27.563 -99.531,61.578" /></g></g></svg>