<?xml version="1.0" encoding="UTF-8" standalone="no"?>
<!-- Created with Inkscape (http://www.inkscape.org/) -->

<svg
   xmlns:dc="http://purl.org/dc/elements/1.1/"
   xmlns:cc="http://creativecommons.org/ns#"
   xmlns:rdf="http://www.w3.org/1999/02/22-rdf-syntax-ns#"
   xmlns:svg="http://www.w3.org/2000/svg"
   xmlns="http://www.w3.org/2000/svg"
   xmlns:sodipodi="http://sodipodi.sourceforge.net/DTD/sodipodi-0.dtd"
   xmlns:inkscape="http://www.inkscape.org/namespaces/inkscape"
   width="171.97917mm"
   height="396.875mm"
   viewBox="0 0 171.97917 396.875"
   version="1.1"
   id="svg225"
   inkscape:version="0.92.4 (33fec40, 2019-01-16)"
   sodipodi:docname="450-55.svg">
  <defs
     id="defs219">
    <clipPath
       clipPathUnits="userSpaceOnUse"
       id="clipPath19724">
      <path
         d="m 136,1318.84 h 521 v -1201 H 136 Z"
         id="path19726"
         inkscape:connector-curvature="0" />
    </clipPath>
    <clipPath
       clipPathUnits="userSpaceOnUse"
       id="clipPath19734">
      <path
         d="M 136,118 H 657 V 1319 H 136 Z"
         id="path19736"
         inkscape:connector-curvature="0" />
    </clipPath>
  </defs>
  <sodipodi:namedview
     id="base"
     pagecolor="#ffffff"
     bordercolor="#666666"
     borderopacity="1.0"
     inkscape:pageopacity="0.0"
     inkscape:pageshadow="2"
     inkscape:zoom="0.35"
     inkscape:cx="609.70134"
     inkscape:cy="893.73144"
     inkscape:document-units="mm"
     inkscape:current-layer="layer1"
     showgrid="false"
     fit-margin-top="0"
     fit-margin-left="0"
     fit-margin-right="0"
     fit-margin-bottom="0"
     inkscape:window-width="1366"
     inkscape:window-height="740"
     inkscape:window-x="1920"
     inkscape:window-y="312"
     inkscape:window-maximized="1" />
  <metadata
     id="metadata222">
    <rdf:RDF>
      <cc:Work
         rdf:about="">
        <dc:format>image/svg+xml</dc:format>
        <dc:type
           rdf:resource="http://purl.org/dc/dcmitype/StillImage" />
        <dc:title></dc:title>
      </cc:Work>
    </rdf:RDF>
  </metadata>
  <g
     inkscape:label="Layer 1"
     inkscape:groupmode="layer"
     id="layer1"
     transform="translate(55.48348,123.50379)">
    <g
       id="g19722"
       clip-path="url(#clipPath19724)"
       transform="matrix(0.33072917,0,0,-0.33072917,-100.62272,312.49287)">
      <g
         id="g19728"
         transform="translate(0,-0.159912)">
        <g
           id="g19730">
          <g
             id="g19732"
             clip-path="url(#clipPath19734)">
            <g
               id="g19738">
              <path
                 d="m 186.484,1318.449 c -27.613,0 -50,-22.387 -50,-50 v -1100 c 0,-27.613 22.387,-50 50,-50 h 422.5 c 27.614,0 47.5,22.387 47.5,50 v 1100 c 0,27.613 -19.886,50 -47.5,50 z"
                 style="fill:#f0c900;fill-opacity:1;fill-rule:nonzero;stroke:none"
                 id="path19740"
                 inkscape:connector-curvature="0" />
            </g>
          </g>
        </g>
      </g>
      <path
         d="M 636.242,1032.418 156.484,755.43 V 644.582 l 479.746,276.981 0.012,0.008 z M 636.23,810.715 156.484,533.731 V 422.895 L 636.23,699.879 v -0.004 l 0.012,0.008 c 0.012,85.832 -0.012,110.832 -0.012,110.832 z M 636.242,589.028 633.25,587.305 156.484,312.047 V 201.184 c 0,0 319.828,184.668 479.758,276.965 z"
         style="fill:#000000;fill-opacity:1;fill-rule:nonzero;stroke:none"
         id="path19742"
         inkscape:connector-curvature="0" />
    </g>
    <path
       d="M 48.600628,-3.9659978 V -20.676751 c 0,-2.93919 -0.773906,-5.41569 -2.785401,-7.375591 -1.547482,-1.494565 -3.919472,-2.371989 -6.601685,-2.371989 -3.455789,0 -6.086078,1.237588 -8.199438,3.816284 -1.651331,-2.526771 -4.178101,-3.816284 -7.427515,-3.816284 -2.63029,0 -5.208985,1.030882 -6.963172,2.93919 v -2.630289 h -5.157391 v 26.1494322 h 5.260578 V -19.902844 c 0,-4.02299 2.475508,-5.827779 5.41569,-5.827779 2.93919,0 5.260909,1.752865 5.260909,5.827779 v 15.9368462 h 5.260578 V -20.161474 c 0,-3.76436 2.578696,-5.569149 5.415691,-5.569149 2.93919,0 5.260578,1.752865 5.260578,5.827779 v 15.9368462 z"
       style="fill:#000000;fill-opacity:1;fill-rule:nonzero;stroke:none;stroke-width:0.33072916"
       id="path19894"
       inkscape:connector-curvature="0" />
    <path
       d="m 45.024784,-61.683199 c 0,1.88218 -0.368101,3.672748 -1.10199,5.371703 -0.73521,1.652323 -1.722106,3.09794 -2.961018,4.338175 -1.240234,1.238911 -2.709333,2.225807 -4.407958,2.961018 -1.652654,0.733888 -3.41974,1.10199 -5.30225,1.10199 -1.928813,0 -3.741209,-0.368102 -5.440164,-1.10199 -1.652323,-0.735211 -3.099263,-1.722107 -4.338175,-2.961018 -1.240234,-1.240235 -2.22713,-2.685852 -2.961018,-4.338175 -0.688578,-1.698955 -1.033529,-3.489523 -1.033529,-5.371703 v -22.726055 c 0,-1.88251 0.344951,-3.649596 1.033529,-5.30225 0.733888,-1.698625 1.720784,-3.167724 2.961018,-4.406635 1.238912,-1.240235 2.685852,-2.227131 4.338175,-2.962341 1.698955,-0.733889 3.511351,-1.100667 5.440164,-1.100667 1.88251,0 3.649596,0.366778 5.30225,1.100667 1.698625,0.73521 3.167724,1.722106 4.407958,2.962341 1.238912,1.238911 2.225808,2.70801 2.961018,4.406635 0.733889,1.652654 1.10199,3.41974 1.10199,5.30225 z M 31.251568,-91.295366 c -1.928813,0 -3.557985,0.665427 -4.889831,1.997274 -1.330523,1.330854 -1.997273,2.961349 -1.997273,4.888838 v 22.726055 c 0,1.92749 0.66675,3.557654 1.997273,4.888508 1.331846,1.331846 2.961018,1.997273 4.889831,1.997273 1.927489,0 3.557984,-0.665427 4.888838,-1.997273 1.331847,-1.330854 1.997274,-2.961018 1.997274,-4.888508 v -22.726055 c 0,-1.927489 -0.665427,-3.557984 -1.997274,-4.888838 -1.330854,-1.331847 -2.961349,-1.997274 -4.888838,-1.997274 z"
       style="fill:#000000;fill-opacity:1;fill-rule:nonzero;stroke:none;stroke-width:0.33072916"
       id="path19896"
       inkscape:connector-curvature="0" />
    <path
       d="m 79.590943,-61.683199 c 0,1.88218 -0.366778,3.672748 -1.101989,5.371703 -0.734881,1.652323 -1.722107,3.09794 -2.961019,4.338175 -1.240234,1.238911 -2.709002,2.225807 -4.407958,2.961018 -1.652323,0.733888 -3.41974,1.10199 -5.301919,1.10199 -1.92749,0 -3.741539,-0.368102 -5.440164,-1.10199 -1.652323,-0.735211 -3.097941,-1.722107 -4.338175,-2.961018 -1.240234,-1.240235 -2.227461,-2.685852 -2.961349,-4.338175 -0.688578,-1.698955 -1.033529,-3.489523 -1.033529,-5.371703 v -22.726055 c 0,-1.88251 0.344951,-3.649596 1.033529,-5.30225 0.733888,-1.698625 1.721115,-3.167724 2.961349,-4.406635 1.240234,-1.240235 2.685852,-2.227131 4.338175,-2.962341 1.698625,-0.733889 3.512674,-1.100667 5.440164,-1.100667 1.882179,0 3.649596,0.366778 5.301919,1.100667 1.698956,0.73521 3.167724,1.722106 4.407958,2.962341 1.238912,1.238911 2.226138,2.70801 2.961019,4.406635 0.735211,1.652654 1.101989,3.41974 1.101989,5.30225 z M 65.818058,-91.295366 c -1.92749,0 -3.557985,0.665427 -4.889831,1.997274 -1.330854,1.330854 -1.994628,2.961349 -1.994628,4.888838 v 22.726055 c 0,1.92749 0.663774,3.557654 1.994628,4.888508 1.331846,1.331846 2.962341,1.997273 4.889831,1.997273 1.928812,0 3.557984,-0.665427 4.88983,-1.997273 1.330524,-1.330854 1.995951,-2.961018 1.995951,-4.888508 v -22.726055 c 0,-1.927489 -0.665427,-3.557984 -1.995951,-4.888838 -1.331846,-1.331847 -2.961018,-1.997274 -4.88983,-1.997274 z"
       style="fill:#000000;fill-opacity:1;fill-rule:nonzero;stroke:none;stroke-width:0.33072916"
       id="path19898"
       inkscape:connector-curvature="0" />
    <path
       d="m -7.2926019,-76.854407 h 2.4235834 c 2.3541302,0 4.20026044,-0.645914 5.53971358,-1.939065 1.38509372,-1.338461 2.07764062,-3.022865 2.07764062,-5.053873 0,-1.015338 -0.1848776,-1.939065 -0.5543021,-2.769857 -0.3694244,-0.877093 -0.9005755,-1.639424 -1.59312237,-2.285338 -0.64591407,-0.645914 -1.40791408,-1.153584 -2.28533853,-1.523339 -0.8770938,-0.369424 -1.7994975,-0.553971 -2.7698568,-0.553971 -1.4767058,0 -2.8846199,0.484187 -4.2230808,1.454547 -1.3384611,0.969036 -2.1924041,2.468893 -2.5618281,4.500893 h -7.063052 c 0.138245,-1.754188 0.599612,-3.417094 1.385094,-4.986734 0.784158,-1.568318 1.777669,-2.953081 2.977885,-4.153297 1.245195,-1.200217 2.65344,-2.147425 4.2230808,-2.839641 1.5696406,-0.692547 3.231224,-1.03882 4.9854115,-1.03882 2.2158854,0 4.20158335,0.392906 5.954448,1.177065 1.801151,0.785482 3.3241588,1.847453 4.5710078,3.185583 1.2918282,1.292159 2.2853386,2.793339 2.9778855,4.501224 0.6922161,1.661253 1.0384896,3.39262 1.0384896,5.192117 0,1.894086 -0.3694245,3.740217 -1.1082735,5.539714 -0.6925469,1.754518 -2.0776406,3.301008 -4.1549506,4.639138 2.07731,1.339784 3.5553386,2.977885 4.4314402,4.917281 0.9237266,1.892433 1.3847627,3.853657 1.3847627,5.885657 0,2.307497 -0.391583,4.384807 -1.1770648,6.230937 -0.737526,1.847453 -1.7994974,3.439253 -3.1842604,4.779037 -1.338461,1.291828 -2.9315834,2.307166 -4.7790365,3.046015 -1.79949746,0.692547 -3.7385626,1.038821 -5.8162032,1.038821 -1.6612526,0 -3.2775261,-0.27649 -4.8471667,-0.830792 -1.5230074,-0.553971 -2.9081014,-1.361612 -4.1532974,-2.423583 -1.246849,-1.061972 -2.30882,-2.376951 -3.185914,-3.946592 -0.877424,-1.56964 -1.476705,-3.393942 -1.799828,-5.469929 h 7.061729 c 0.647237,1.707885 1.5243312,3.069497 2.6316124,4.084836 1.1082735,1.015338 2.6782449,1.523338 4.708922,1.523338 0.9690364,0 1.892763,-0.184877 2.7698568,-0.554302 0.92240362,-0.369424 1.73136717,-0.877094 2.4235833,-1.523338 0.6925469,-0.692217 1.2455261,-1.523008 1.6615834,-2.492045 0.4160573,-0.970028 0.622763,-2.055481 0.622763,-3.255698 0,-2.492044 -0.7610078,-4.407958 -2.2843464,-5.746419 -1.47769791,-1.384763 -3.254375,-2.07731 -5.3316849,-2.07731 h -2.9778855 z"
       style="fill:#000000;fill-opacity:1;fill-rule:nonzero;stroke:none;stroke-width:0.33072916"
       id="path19900"
       inkscape:connector-curvature="0" />
    <path
       d="m -39.071045,-120.63964 c -7.308122,0 -13.762633,6.44789 -13.762633,13.74841 v 363.64962 c 0,7.30052 6.454511,13.74874 13.762633,13.74874 H 100.09615 c 7.30846,0 13.75007,-6.44822 13.75007,-13.74874 v -363.64962 c 0,-7.30052 -5.91179,-13.74841 -13.22024,-13.74841 z m 1.061971,6.6159 H 99.120831 c 4.941759,0 8.181909,3.87681 8.181909,8.91679 l -0.14221,180.31057 0.14221,180.32479 c 0,5.03998 -3.76866,8.36414 -8.710083,8.36414 H -38.009074 c -4.941424,0 -8.138914,-3.32416 -8.138914,-8.36414 l -0.142213,-90.05259 0.142213,-270.58277 c 0,-5.03998 3.19749,-8.91679 8.138914,-8.91679 z"
       style="fill:#000000;fill-opacity:1;fill-rule:nonzero;stroke:none;stroke-width:0.33072916"
       id="path19902"
       inkscape:connector-curvature="0" />
  </g>
</svg>
