<?xml version="1.0" encoding="UTF-8" standalone="no"?>
<!-- Created with Inkscape (http://www.inkscape.org/) -->

<svg
   xmlns:dc="http://purl.org/dc/elements/1.1/"
   xmlns:cc="http://creativecommons.org/ns#"
   xmlns:rdf="http://www.w3.org/1999/02/22-rdf-syntax-ns#"
   xmlns:svg="http://www.w3.org/2000/svg"
   xmlns="http://www.w3.org/2000/svg"
   xmlns:sodipodi="http://sodipodi.sourceforge.net/DTD/sodipodi-0.dtd"
   xmlns:inkscape="http://www.inkscape.org/namespaces/inkscape"
   width="172.37572mm"
   height="397.25598mm"
   viewBox="0 0 172.37572 397.25598"
   version="1.1"
   id="svg719"
   inkscape:version="0.92.4 (33fec40, 2019-01-16)"
   sodipodi:docname="450-52.svg">
  <defs
     id="defs713">
    <clipPath
       clipPathUnits="userSpaceOnUse"
       id="clipPath15296">
      <path
         d="m 136,1318.84 h 521 v -1201 H 136 Z"
         id="path15298"
         inkscape:connector-curvature="0" />
    </clipPath>
    <clipPath
       clipPathUnits="userSpaceOnUse"
       id="clipPath15306">
      <path
         d="M 136,118 H 657 V 1319 H 136 Z"
         id="path15308"
         inkscape:connector-curvature="0" />
    </clipPath>
    <clipPath
       clipPathUnits="userSpaceOnUse"
       id="clipPath15324">
      <path
         d="m 135,1318.84 h 523 v -1202 H 135 Z"
         id="path15326"
         inkscape:connector-curvature="0" />
    </clipPath>
    <clipPath
       clipPathUnits="userSpaceOnUse"
       id="clipPath15334">
      <path
         d="M 135,117 H 658 V 1319 H 135 Z"
         id="path15336"
         inkscape:connector-curvature="0" />
    </clipPath>
  </defs>
  <sodipodi:namedview
     id="base"
     pagecolor="#ffffff"
     bordercolor="#666666"
     borderopacity="1.0"
     inkscape:pageopacity="0.0"
     inkscape:pageshadow="2"
     inkscape:zoom="0.35"
     inkscape:cx="373.30474"
     inkscape:cy="750.20119"
     inkscape:document-units="mm"
     inkscape:current-layer="layer1"
     showgrid="false"
     fit-margin-top="0"
     fit-margin-left="0"
     fit-margin-right="0"
     fit-margin-bottom="0"
     inkscape:window-width="1366"
     inkscape:window-height="740"
     inkscape:window-x="1920"
     inkscape:window-y="312"
     inkscape:window-maximized="1" />
  <metadata
     id="metadata716">
    <rdf:RDF>
      <cc:Work
         rdf:about="">
        <dc:format>image/svg+xml</dc:format>
        <dc:type
           rdf:resource="http://purl.org/dc/dcmitype/StillImage" />
        <dc:title></dc:title>
      </cc:Work>
    </rdf:RDF>
  </metadata>
  <g
     inkscape:label="Layer 1"
     inkscape:groupmode="layer"
     id="layer1"
     transform="translate(-7.0631217,119.14895)">
    <g
       id="g15292"
       transform="matrix(0.33072917,0,0,-0.33072917,-37.878673,317.02991)">
      <g
         clip-path="url(#clipPath15296)"
         id="g15294">
        <g
           transform="translate(0,-0.159912)"
           id="g15300">
          <g
             id="g15302">
            <g
               clip-path="url(#clipPath15306)"
               id="g15304">
              <g
                 id="g15310">
                <path
                   inkscape:connector-curvature="0"
                   id="path15312"
                   style="fill:#ffffff;fill-opacity:1;fill-rule:nonzero;stroke:none"
                   d="m 186.484,1318.449 c -27.613,0 -50,-22.387 -50,-50 v -1100 c 0,-27.613 22.387,-50 50,-50 h 422.5 c 27.614,0 47.5,22.387 47.5,50 v 1100 c 0,27.613 -19.886,50 -47.5,50 z" />
              </g>
            </g>
          </g>
        </g>
        <path
           inkscape:connector-curvature="0"
           id="path15314"
           style="fill:#154889;fill-opacity:1;fill-rule:nonzero;stroke:none"
           d="m 186.484,1298.289 c -15.496,0 -30,-14.519 -30,-30 V 755.43 l 480,277.129 v 235.73 c 0,15.481 -12,30 -27.5,30 z m 450,-820 c -160.011,-92.343 -320,-184.734 -480,-277.105 v -32.895 c 0,-15.484 14.504,-30 30,-30 h 422.5 c 15.5,0 27.5,14.516 27.5,30 z" />
        <path
           inkscape:connector-curvature="0"
           id="path15316"
           style="fill:#154889;fill-opacity:1;fill-rule:nonzero;stroke:none"
           d="M 636.23,699.879 156.484,422.895 V 312.047 L 636.23,589.028 Z" />
        <path
           inkscape:connector-curvature="0"
           id="path15318"
           style="fill:#154889;fill-opacity:1;fill-rule:nonzero;stroke:none"
           d="M 636.23,921.563 156.484,644.582 V 533.731 L 636.23,810.715 Z" />
      </g>
    </g>
    <g
       id="g15320"
       transform="matrix(0.33072917,0,0,-0.33072917,-37.878673,317.02991)">
      <g
         clip-path="url(#clipPath15324)"
         id="g15322">
        <g
           transform="translate(0,-0.159912)"
           id="g15328">
          <g
             id="g15330">
            <g
               clip-path="url(#clipPath15334)"
               id="g15332">
              <g
                 id="g15338">
                <path
                   inkscape:connector-curvature="0"
                   id="path15340"
                   style="fill:#000000;fill-opacity:1;fill-rule:nonzero;stroke:none"
                   d="m 186.484,1319.047 c -27.937,0 -50.597,-22.66 -50.597,-50.598 V 168.445 c 0,-27.937 22.66,-50.597 50.597,-50.597 h 422.5 c 27.938,0 48.102,22.699 48.102,50.597 v 1100.004 c 0,27.903 -20.164,50.598 -48.102,50.598 z m 0,-0.598 h 422.5 c 27.614,0 47.5,-22.387 47.5,-50 v -1100 c 0,-27.613 -19.886,-50 -47.5,-50 h -422.5 c -27.613,0 -50,22.387 -50,50 v 1100 c 0,27.613 22.387,50 50,50 z" />
              </g>
            </g>
          </g>
        </g>
      </g>
    </g>
    <path
       d="M 111.34467,0.57104223 V -16.139711 c 0,-2.93919 -0.7739,-5.41569 -2.7854,-7.375591 -1.54748,-1.494565 -3.91947,-2.371989 -6.60168,-2.371989 -3.45579,0 -6.086079,1.237588 -8.199439,3.816284 -1.651331,-2.526771 -4.178101,-3.816284 -7.427515,-3.816284 -2.63029,0 -5.208985,1.030882 -6.963172,2.93919 V -25.57839 H 74.210073 V 0.57104223 h 5.260578 V -15.365804 c 0,-4.02299 2.475508,-5.827779 5.41569,-5.827779 2.93919,0 5.260909,1.752865 5.260909,5.827779 V 0.57104223 h 5.260578 V -15.624434 c 0,-3.76436 2.578696,-5.569149 5.415692,-5.569149 2.93919,0 5.26058,1.752865 5.26058,5.827779 V 0.57104223 Z"
       style="fill:#ffffff;fill-opacity:1;fill-rule:nonzero;stroke:none;stroke-width:0.33072916"
       id="path15474"
       inkscape:connector-curvature="0" />
    <path
       d="m 107.76883,-57.146159 c 0,1.88218 -0.3681,3.672748 -1.10199,5.371703 -0.73521,1.652323 -1.72211,3.09794 -2.96102,4.338175 -1.24023,1.238911 -2.70933,2.225807 -4.407955,2.961018 -1.652654,0.733888 -3.41974,1.10199 -5.30225,1.10199 -1.928813,0 -3.741209,-0.368102 -5.440164,-1.10199 -1.652323,-0.735211 -3.099263,-1.722107 -4.338175,-2.961018 -1.240234,-1.240235 -2.22713,-2.685852 -2.961018,-4.338175 -0.688578,-1.698955 -1.033529,-3.489523 -1.033529,-5.371703 v -22.726055 c 0,-1.88251 0.344951,-3.649596 1.033529,-5.30225 0.733888,-1.698625 1.720784,-3.167724 2.961018,-4.406635 1.238912,-1.240235 2.685852,-2.227131 4.338175,-2.962341 1.698955,-0.733889 3.511351,-1.100667 5.440164,-1.100667 1.88251,0 3.649596,0.366778 5.30225,1.100667 1.698625,0.73521 3.167725,1.722106 4.407955,2.962341 1.23891,1.238911 2.22581,2.70801 2.96102,4.406635 0.73389,1.652654 1.10199,3.41974 1.10199,5.30225 z M 93.995615,-86.758326 c -1.928813,0 -3.557985,0.665427 -4.889831,1.997274 -1.330523,1.330854 -1.997273,2.961349 -1.997273,4.888838 v 22.726055 c 0,1.92749 0.66675,3.557654 1.997273,4.888508 1.331846,1.331846 2.961018,1.997273 4.889831,1.997273 1.927489,0 3.557984,-0.665427 4.888838,-1.997273 1.331847,-1.330854 1.997277,-2.961018 1.997277,-4.888508 v -22.726055 c 0,-1.927489 -0.66543,-3.557984 -1.997277,-4.888838 -1.330854,-1.331847 -2.961349,-1.997274 -4.888838,-1.997274 z"
       style="fill:#ffffff;fill-opacity:1;fill-rule:nonzero;stroke:none;stroke-width:0.33072916"
       id="path15476"
       inkscape:connector-curvature="0" />
    <path
       d="m 142.33499,-57.146159 c 0,1.88218 -0.36678,3.672748 -1.10199,5.371703 -0.73488,1.652323 -1.72211,3.09794 -2.96102,4.338175 -1.24023,1.238911 -2.709,2.225807 -4.40796,2.961018 -1.65232,0.733888 -3.41974,1.10199 -5.30192,1.10199 -1.92748,0 -3.74153,-0.368102 -5.44016,-1.10199 -1.65232,-0.735211 -3.09794,-1.722107 -4.33817,-2.961018 -1.24024,-1.240235 -2.22746,-2.685852 -2.96135,-4.338175 -0.68858,-1.698955 -1.03353,-3.489523 -1.03353,-5.371703 v -22.726055 c 0,-1.88251 0.34495,-3.649596 1.03353,-5.30225 0.73389,-1.698625 1.72111,-3.167724 2.96135,-4.406635 1.24023,-1.240235 2.68585,-2.227131 4.33817,-2.962341 1.69863,-0.733889 3.51268,-1.100667 5.44016,-1.100667 1.88218,0 3.6496,0.366778 5.30192,1.100667 1.69896,0.73521 3.16773,1.722106 4.40796,2.962341 1.23891,1.238911 2.22614,2.70801 2.96102,4.406635 0.73521,1.652654 1.10199,3.41974 1.10199,5.30225 z M 128.5621,-86.758326 c -1.92748,0 -3.55798,0.665427 -4.88983,1.997274 -1.33085,1.330854 -1.99462,2.961349 -1.99462,4.888838 v 22.726055 c 0,1.92749 0.66377,3.557654 1.99462,4.888508 1.33185,1.331846 2.96235,1.997273 4.88983,1.997273 1.92882,0 3.55799,-0.665427 4.88984,-1.997273 1.33052,-1.330854 1.99595,-2.961018 1.99595,-4.888508 v -22.726055 c 0,-1.927489 -0.66543,-3.557984 -1.99595,-4.888838 -1.33185,-1.331847 -2.96102,-1.997274 -4.88984,-1.997274 z"
       style="fill:#ffffff;fill-opacity:1;fill-rule:nonzero;stroke:none;stroke-width:0.33072916"
       id="path15478"
       inkscape:connector-curvature="0" />
    <path
       d="m 55.451445,-72.317367 h 2.423583 c 2.354131,0 4.200261,-0.645914 5.539714,-1.939065 1.385094,-1.338461 2.077641,-3.022865 2.077641,-5.053873 0,-1.015338 -0.184878,-1.939065 -0.554302,-2.769857 -0.369425,-0.877093 -0.900576,-1.639424 -1.593123,-2.285338 -0.645914,-0.645914 -1.407914,-1.153584 -2.285338,-1.523339 -0.877094,-0.369424 -1.799498,-0.553971 -2.769857,-0.553971 -1.476706,0 -2.88462,0.484187 -4.223081,1.454547 -1.338461,0.969036 -2.192404,2.468893 -2.561828,4.500893 h -7.063052 c 0.138245,-1.754188 0.599612,-3.417094 1.385094,-4.986734 0.784158,-1.568318 1.777669,-2.953081 2.977885,-4.153297 1.245195,-1.200217 2.65344,-2.147425 4.223081,-2.839641 1.56964,-0.692547 3.231224,-1.03882 4.985411,-1.03882 2.215886,0 4.201584,0.392906 5.954448,1.177065 1.801151,0.785482 3.324159,1.847453 4.571008,3.185583 1.291828,1.292159 2.285339,2.793339 2.977886,4.501224 0.692216,1.661253 1.038489,3.39262 1.038489,5.192117 0,1.894086 -0.369424,3.740217 -1.108273,5.539714 -0.692547,1.754518 -2.077641,3.301008 -4.154951,4.639138 2.07731,1.339784 3.555339,2.977885 4.43144,4.917281 0.923727,1.892433 1.384763,3.853657 1.384763,5.885657 0,2.307497 -0.391583,4.384807 -1.177065,6.230937 -0.737526,1.847453 -1.799497,3.439253 -3.18426,4.779037 -1.338461,1.291828 -2.931584,2.307166 -4.779037,3.046015 -1.799497,0.692547 -3.738562,1.038821 -5.816203,1.038821 -1.661253,0 -3.277526,-0.27649 -4.847167,-0.830792 -1.523007,-0.553971 -2.908101,-1.361612 -4.153297,-2.423583 -1.246849,-1.061972 -2.30882,-2.376951 -3.185914,-3.946592 -0.877424,-1.56964 -1.476705,-3.393942 -1.799828,-5.469929 h 7.061729 c 0.647237,1.707885 1.524331,3.069497 2.631612,4.084836 1.108274,1.015338 2.678245,1.523338 4.708922,1.523338 0.969037,0 1.892763,-0.184877 2.769857,-0.554302 0.922404,-0.369424 1.731367,-0.877094 2.423584,-1.523338 0.692546,-0.692217 1.245526,-1.523008 1.661583,-2.492045 0.416057,-0.970028 0.622763,-2.055481 0.622763,-3.255698 0,-2.492044 -0.761008,-4.407958 -2.284346,-5.746419 -1.477698,-1.384763 -3.254376,-2.07731 -5.331685,-2.07731 h -2.977886 z"
       style="fill:#ffffff;fill-opacity:1;fill-rule:nonzero;stroke:none;stroke-width:0.33072916"
       id="path15480"
       inkscape:connector-curvature="0" />
  </g>
</svg>
