<?xml version="1.0" encoding="UTF-8" standalone="no"?>
<svg
   xmlns:dc="http://purl.org/dc/elements/1.1/"
   xmlns:cc="http://creativecommons.org/ns#"
   xmlns:rdf="http://www.w3.org/1999/02/22-rdf-syntax-ns#"
   xmlns:svg="http://www.w3.org/2000/svg"
   xmlns="http://www.w3.org/2000/svg"
   viewBox="0 0 652.5 1501.4412"
   height="1501.4412"
   width="652.5"
   xml:space="preserve"
   id="svg40"
   version="1.1"><metadata
     id="metadata46"><rdf:RDF><cc:Work
         rdf:about=""><dc:format>image/svg+xml</dc:format><dc:type
           rdf:resource="http://purl.org/dc/dcmitype/StillImage" /><dc:title></dc:title></cc:Work></rdf:RDF></metadata><defs
     id="defs44"><clipPath
       id="clipPath58"
       clipPathUnits="userSpaceOnUse"><path
         id="path56"
         d="M 0.57,1126.081 H 489.375 V -0.794 H 0.57 Z" /></clipPath><clipPath
       id="clipPath68"
       clipPathUnits="userSpaceOnUse"><path
         id="path66"
         d="M 0,0 H 490 V 1127 H 0 Z" /></clipPath><clipPath
       id="clipPath78"
       clipPathUnits="userSpaceOnUse"><path
         id="path76"
         d="M 0.938,1127 H 489.376 V 1.062 H 0.938 Z" /></clipPath><clipPath
       id="clipPath88"
       clipPathUnits="userSpaceOnUse"><path
         id="path86"
         d="M 1,1 H 489 V 1127 H 1 Z" /></clipPath><clipPath
       id="clipPath102"
       clipPathUnits="userSpaceOnUse"><path
         id="path100"
         d="M 0,1127 H 489.375 V 0.125 H 0 Z" /></clipPath><clipPath
       id="clipPath112"
       clipPathUnits="userSpaceOnUse"><path
         id="path110"
         d="M 0,0 H 490 V 1127 H 0 Z" /></clipPath></defs><g
     transform="matrix(1.3333333,0,0,-1.3333333,0,1501.4412)"
     id="g48"><g
       id="g50" /><g
       id="g52"><g
         clip-path="url(#clipPath58)"
         id="g54"><g
           transform="translate(0,-0.919067)"
           id="g60"><g
             id="g62"><g
               clip-path="url(#clipPath68)"
               id="g64"><g
                 id="g70" /><g
                 id="g72"><g
                   clip-path="url(#clipPath78)"
                   id="g74"><g
                     id="g80"><g
                       id="g82"><g
                         clip-path="url(#clipPath88)"
                         id="g84"><g
                           id="g90"><path
                             id="path92"
                             style="fill:#ffffff;fill-opacity:1;fill-rule:nonzero;stroke:none"
                             d="m 48.188,1126.484 c -25.891,0 -46.875,-20.988 -46.875,-46.875 V 48.359 C 1.313,22.473 22.297,1.484 48.188,1.484 h 396.093 c 25.887,0 44.532,20.989 44.532,46.875 v 1031.25 c 0,25.887 -18.645,46.875 -44.532,46.875 z" /></g></g></g></g><path
                     id="path94"
                     style="fill:#154889;fill-opacity:1;fill-rule:nonzero;stroke:none"
                     d="m 48.188,1107.734 c -14.532,0 -28.125,-13.613 -28.125,-28.125 V 455.773 l 450,259.809 v 364.027 c 0,14.512 -11.25,28.125 -25.782,28.125 z m 421.875,-600 -450,-259.8 V 48.359 c 0,-14.515 13.593,-28.125 28.125,-28.125 h 396.093 c 14.532,0 25.782,13.61 25.782,28.125 z" /></g></g><g
                 id="g96"><g
                   clip-path="url(#clipPath102)"
                   id="g98"><g
                     id="g104"><g
                       id="g106"><g
                         clip-path="url(#clipPath112)"
                         id="g108"><g
                           id="g114"><path
                             id="path116"
                             style="fill:#000000;fill-opacity:1;fill-rule:nonzero;stroke:none"
                             d="m 48.188,1127.043 c -26.192,0 -47.438,-21.242 -47.438,-47.434 V 48.355 C 0.75,22.164 21.996,0.922 48.188,0.922 h 396.093 c 26.192,0 45.094,21.277 45.094,47.433 v 1031.254 c 0,26.157 -18.902,47.434 -45.094,47.434 z m 0,-0.559 h 396.093 c 25.887,0 44.532,-20.988 44.532,-46.875 V 48.359 c 0,-25.886 -18.645,-46.875 -44.532,-46.875 H 48.188 C 22.297,1.484 1.313,22.473 1.313,48.359 v 1031.25 c 0,25.887 20.984,46.875 46.875,46.875 z" /></g></g></g></g><path
                     id="path118"
                     style="fill:#ffffff;fill-opacity:1;fill-rule:nonzero;stroke:none"
                     d="m 265.043,951.242 c 0,-5.332 -1.043,-10.41 -3.125,-15.226 -2.086,-4.684 -4.883,-8.782 -8.395,-12.297 -3.515,-3.512 -7.679,-6.309 -12.492,-8.391 -4.687,-2.082 -9.695,-3.125 -15.031,-3.125 -5.469,0 -10.605,1.043 -15.422,3.125 -4.687,2.082 -8.785,4.879 -12.297,8.391 -3.515,3.515 -6.312,7.613 -8.394,12.297 -1.953,4.816 -2.93,9.894 -2.93,15.226 v 64.422 c 0,5.336 0.977,10.344 2.93,15.031 2.082,4.813 4.879,8.977 8.394,12.493 3.512,3.515 7.61,6.312 12.297,8.394 4.817,2.082 9.953,3.121 15.422,3.121 5.336,0 10.344,-1.039 15.031,-3.121 4.813,-2.082 8.977,-4.879 12.492,-8.394 3.512,-3.516 6.309,-7.68 8.395,-12.493 2.082,-4.687 3.125,-9.695 3.125,-15.031 z M 226,1035.184 c -5.469,0 -10.086,-1.887 -13.863,-5.661 -3.77,-3.773 -5.66,-8.394 -5.66,-13.859 v -64.422 c 0,-5.461 1.89,-10.082 5.66,-13.855 3.777,-3.774 8.394,-5.66 13.863,-5.66 5.465,0 10.086,1.886 13.859,5.66 3.774,3.773 5.661,8.394 5.661,13.855 v 64.422 c 0,5.465 -1.887,10.086 -5.661,13.859 -3.773,3.774 -8.394,5.661 -13.859,5.661 z" /><path
                     id="path120"
                     style="fill:#ffffff;fill-opacity:1;fill-rule:nonzero;stroke:none"
                     d="m 363.492,951.242 c 0,-5.332 -1.043,-10.41 -3.125,-15.226 -2.082,-4.684 -4.879,-8.782 -8.394,-12.297 -3.512,-3.512 -7.68,-6.309 -12.493,-8.391 -4.687,-2.082 -9.695,-3.125 -15.031,-3.125 -5.465,0 -10.605,1.043 -15.422,3.125 -4.683,2.082 -8.781,4.879 -12.297,8.391 -3.511,3.515 -6.312,7.613 -8.394,12.297 -1.953,4.816 -2.93,9.894 -2.93,15.226 v 64.422 c 0,5.336 0.977,10.344 2.93,15.031 2.082,4.813 4.883,8.977 8.394,12.493 3.516,3.515 7.614,6.312 12.297,8.394 4.817,2.082 9.957,3.121 15.422,3.121 5.336,0 10.344,-1.039 15.031,-3.121 4.813,-2.082 8.981,-4.879 12.493,-8.394 3.515,-3.516 6.312,-7.68 8.394,-12.493 2.082,-4.687 3.125,-9.695 3.125,-15.031 z m -39.043,83.942 c -5.465,0 -10.086,-1.887 -13.859,-5.661 -3.774,-3.773 -5.66,-8.394 -5.66,-13.859 v -64.422 c 0,-5.461 1.886,-10.082 5.66,-13.855 3.773,-3.774 8.394,-5.66 13.859,-5.66 5.465,0 10.086,1.886 13.86,5.66 3.773,3.773 5.66,8.394 5.66,13.855 v 64.422 c 0,5.465 -1.887,10.086 -5.66,13.859 -3.774,3.774 -8.395,5.661 -13.86,5.661 z" /><path
                     id="path122"
                     style="fill:#ffffff;fill-opacity:1;fill-rule:nonzero;stroke:none"
                     d="m 146.512,1032.266 -19.875,-14.567 v 21.262 l 19.875,14.562 H 166.59 V 913.387 h -20.078 z" /><path
                     id="path124"
                     style="fill:#ffffff;fill-opacity:1;fill-rule:nonzero;stroke:none"
                     d="m 193.309,861.758 h 14.91 v -7.895 h 0.293 c 2.34,2.926 5.117,5.117 8.332,6.578 3.316,1.461 6.969,2.196 10.969,2.196 5.164,0 9.257,-0.926 12.281,-2.782 3.117,-1.847 5.992,-4.14 8.621,-6.867 3.121,3.41 6.535,5.848 10.238,7.309 3.699,1.558 8.09,2.34 13.156,2.34 2.922,0 5.848,-0.586 8.77,-1.754 2.926,-1.074 5.555,-2.684 7.894,-4.828 2.344,-2.141 4.243,-4.821 5.704,-8.039 1.562,-3.219 2.339,-6.922 2.339,-11.11 v -49.269 h -14.91 v 44.148 c 0,5.07 -1.414,8.969 -4.242,11.699 -2.726,2.829 -6.187,4.239 -10.379,4.239 -4.289,0 -7.847,-1.41 -10.672,-4.239 -2.73,-2.73 -4.097,-6.629 -4.097,-11.699 v -44.148 h -14.911 v 44.148 c 0,5.07 -1.414,8.969 -4.238,11.699 -2.73,2.829 -6.187,4.239 -10.383,4.239 -4.289,0 -7.843,-1.41 -10.668,-4.239 -2.73,-2.73 -4.097,-6.629 -4.097,-11.699 v -44.148 h -14.91 z" /></g></g></g></g></g></g></g></g></svg>