<?xml version="1.0" encoding="UTF-8" standalone="no"?>
<svg
   xmlns:dc="http://purl.org/dc/elements/1.1/"
   xmlns:cc="http://creativecommons.org/ns#"
   xmlns:rdf="http://www.w3.org/1999/02/22-rdf-syntax-ns#"
   xmlns:svg="http://www.w3.org/2000/svg"
   xmlns="http://www.w3.org/2000/svg"
   viewBox="0 0 694.9295 1601.536"
   height="1601.536"
   width="694.9295"
   xml:space="preserve"
   id="svg247"
   version="1.1"><metadata
     id="metadata253"><rdf:RDF><cc:Work
         rdf:about=""><dc:format>image/svg+xml</dc:format><dc:type
           rdf:resource="http://purl.org/dc/dcmitype/StillImage" /><dc:title></dc:title></cc:Work></rdf:RDF></metadata><defs
     id="defs251"><clipPath
       id="clipPath267"
       clipPathUnits="userSpaceOnUse"><path
         id="path265"
         d="M 0,1 H 521 V 1202 H 0 Z" /></clipPath><clipPath
       id="clipPath291"
       clipPathUnits="userSpaceOnUse"><path
         id="path289"
         d="M 0,0 H 522 V 1202 H 0 Z" /></clipPath></defs><g
     transform="matrix(1.3333333,0,0,-1.3333333,0,1601.536)"
     id="g255"><g
       id="g257"><g
         transform="translate(0,-0.848022)"
         id="g259"><g
           id="g261"><g
             clip-path="url(#clipPath267)"
             id="g263"><g
               id="g269"><path
                 id="path271"
                 style="fill:#ffffff;fill-opacity:1;fill-rule:nonzero;stroke:none"
                 d="m 50.598,1201.449 c -27.614,0 -50,-22.386 -50,-50 v -1100 c 0,-27.613 22.386,-50 50,-50 h 422.496 c 27.617,0 47.504,22.387 47.504,50 v 1100 c 0,27.614 -19.887,50 -47.504,50 z" /></g></g></g></g><path
         id="path273"
         style="fill:#154889;fill-opacity:1;fill-rule:nonzero;stroke:none"
         d="m 20.598,582.265 v 568.336 c 0,15.481 14.504,30 30,30 h 422.496 c 15.504,0 27.504,-14.519 27.504,-30 V 859.679 Z m 0,-494.531 480,272.867 v -310 c 0,-15.484 -12,-30 -27.504,-30 H 50.598 c -15.496,0 -30,14.516 -30,30" /><path
         id="path275"
         style="fill:#ffffff;fill-opacity:1;fill-rule:nonzero;stroke:none"
         d="m 152.883,1103.214 c -2.918,0 -5.692,-0.554 -8.332,-1.664 -2.496,-1.113 -4.719,-2.636 -6.66,-4.582 -1.805,-1.804 -3.262,-3.957 -4.375,-6.453 -0.973,-2.5 -1.457,-5.207 -1.457,-8.121 0,-1.39 0.07,-2.43 0.207,-3.125 h -21.028 v 3.125 c 0,5.692 1.039,11.035 3.121,16.031 2.223,5.137 5.207,9.579 8.954,13.329 3.75,3.746 8.121,6.73 13.117,8.953 5.136,2.218 10.621,3.332 16.453,3.332 5.691,0 11.035,-1.114 16.031,-3.332 5.137,-2.223 9.578,-5.207 13.324,-8.953 3.75,-3.75 6.735,-8.192 8.953,-13.329 2.223,-4.996 3.332,-10.339 3.332,-16.031 0,-4.582 -0.761,-8.953 -2.289,-13.117 -1.386,-4.168 -3.332,-7.984 -5.832,-11.453 L 137.047,995.98 h 57.476 v -20.82 h -83.285 v 20.82 l 58.301,73.918 c 1.25,1.805 2.219,3.75 2.914,5.832 0.832,2.082 1.25,4.305 1.25,6.664 0,5.828 -2.012,10.758 -6.039,14.781 -4.023,4.028 -8.953,6.039 -14.781,6.039 z" /><path
         id="path277"
         style="fill:#ffffff;fill-opacity:1;fill-rule:nonzero;stroke:none"
         d="m 305.441,1013.679 c 0,-5.691 -1.109,-11.105 -3.332,-16.238 -2.218,-5 -5.203,-9.371 -8.953,-13.121 -3.746,-3.746 -8.191,-6.731 -13.324,-8.953 -5,-2.219 -10.344,-3.328 -16.035,-3.328 -5.828,0 -11.313,1.109 -16.449,3.328 -4.996,2.222 -9.371,5.207 -13.118,8.953 -3.75,3.75 -6.734,8.121 -8.953,13.121 -2.082,5.133 -3.125,10.547 -3.125,16.238 v 68.715 c 0,5.692 1.043,11.035 3.125,16.031 2.219,5.137 5.203,9.579 8.953,13.329 3.747,3.746 8.122,6.73 13.118,8.953 5.136,2.218 10.621,3.332 16.449,3.332 5.691,0 11.035,-1.114 16.035,-3.332 5.133,-2.223 9.578,-5.207 13.324,-8.953 3.75,-3.75 6.735,-8.192 8.953,-13.329 2.223,-4.996 3.332,-10.339 3.332,-16.031 z m -41.644,89.535 c -5.828,0 -10.758,-2.011 -14.781,-6.039 -4.028,-4.023 -6.039,-8.953 -6.039,-14.781 v -68.715 c 0,-5.828 2.011,-10.757 6.039,-14.781 4.023,-4.027 8.953,-6.039 14.781,-6.039 5.832,0 10.758,2.012 14.785,6.039 4.023,4.024 6.039,8.953 6.039,14.781 v 68.715 c 0,5.828 -2.016,10.758 -6.039,14.781 -4.027,4.028 -8.953,6.039 -14.785,6.039 z" /><path
         id="path279"
         style="fill:#ffffff;fill-opacity:1;fill-rule:nonzero;stroke:none"
         d="m 409.957,1013.679 c 0,-5.691 -1.109,-11.105 -3.332,-16.238 -2.219,-5 -5.203,-9.371 -8.953,-13.121 -3.746,-3.746 -8.188,-6.731 -13.324,-8.953 -5,-2.219 -10.344,-3.328 -16.035,-3.328 -5.829,0 -11.313,1.109 -16.45,3.328 -4.996,2.222 -9.367,5.207 -13.117,8.953 -3.746,3.75 -6.73,8.121 -8.953,13.121 -2.082,5.133 -3.121,10.547 -3.121,16.238 v 68.715 c 0,5.692 1.039,11.035 3.121,16.031 2.223,5.137 5.207,9.579 8.953,13.329 3.75,3.746 8.121,6.73 13.117,8.953 5.137,2.218 10.621,3.332 16.45,3.332 5.691,0 11.035,-1.114 16.035,-3.332 5.136,-2.223 9.578,-5.207 13.324,-8.953 3.75,-3.75 6.734,-8.192 8.953,-13.329 2.223,-4.996 3.332,-10.339 3.332,-16.031 z m -41.644,89.535 c -5.829,0 -10.758,-2.011 -14.782,-6.039 -4.027,-4.023 -6.039,-8.953 -6.039,-14.781 v -68.715 c 0,-5.828 2.012,-10.757 6.039,-14.781 4.024,-4.027 8.953,-6.039 14.782,-6.039 5.832,0 10.757,2.012 14.785,6.039 4.023,4.024 6.039,8.953 6.039,14.781 v 68.715 c 0,5.828 -2.016,10.758 -6.039,14.781 -4.028,4.028 -8.953,6.039 -14.785,6.039 z" /><path
         id="path281"
         style="fill:#154889;fill-opacity:1;fill-rule:nonzero;stroke:none"
         d="m 500.793,693.312 -480,-277.129 V 249.906 l 480,277.129 z" /><g
         transform="translate(0,-0.848022)"
         id="g283"><g
           id="g285"><g
             clip-path="url(#clipPath291)"
             id="g287"><g
               id="g293"><path
                 id="path295"
                 style="fill:#000000;fill-opacity:1;fill-rule:nonzero;stroke:none"
                 d="m 50.598,1202.051 c -27.938,0 -50.602,-22.664 -50.602,-50.602 v -1100 C -0.004,23.508 22.66,0.848 50.598,0.848 h 422.496 c 27.937,0 48.105,22.699 48.105,50.601 v 1100 c 0,27.903 -20.168,50.602 -48.105,50.602 z m 0,-0.602 h 422.496 c 27.613,0 47.504,-22.386 47.504,-50 v -1100 c 0,-27.617 -19.891,-50 -47.504,-50 H 50.598 c -27.614,0 -50,22.383 -50,50 v 1100 c 0,27.614 22.386,50 50,50 z" /></g></g></g></g><path
         id="path297"
         style="fill:#ffffff;fill-opacity:1;fill-rule:nonzero;stroke:none"
         d="m 205.395,918.222 h 15.906 v -8.418 h 0.312 c 2.496,3.118 5.457,5.457 8.887,7.016 3.535,1.559 7.434,2.34 11.699,2.34 5.508,0 9.875,-0.988 13.098,-2.965 3.328,-1.973 6.394,-4.418 9.199,-7.328 3.328,3.64 6.969,6.238 10.918,7.797 3.949,1.664 8.629,2.496 14.035,2.496 3.117,0 6.239,-0.625 9.356,-1.871 3.121,-1.145 5.925,-2.86 8.422,-5.149 2.496,-2.285 4.523,-5.144 6.082,-8.574 1.664,-3.434 2.496,-7.383 2.496,-11.852 V 839.16 h -15.907 v 47.094 c 0,5.406 -1.507,9.566 -4.523,12.476 -2.91,3.016 -6.602,4.524 -11.07,4.524 -4.575,0 -8.371,-1.508 -11.387,-4.524 -2.91,-2.91 -4.367,-7.07 -4.367,-12.476 V 839.16 h -15.906 v 47.094 c 0,5.406 -1.508,9.566 -4.52,12.476 -2.914,3.016 -6.602,4.524 -11.074,4.524 -4.574,0 -8.367,-1.508 -11.383,-4.524 -2.91,-2.91 -4.367,-7.07 -4.367,-12.476 V 839.16 h -15.906 z" /></g></g></svg>