<?xml version="1.0" encoding="UTF-8" standalone="no"?>
<svg
   xmlns:dc="http://purl.org/dc/elements/1.1/"
   xmlns:cc="http://creativecommons.org/ns#"
   xmlns:rdf="http://www.w3.org/1999/02/22-rdf-syntax-ns#"
   xmlns:svg="http://www.w3.org/2000/svg"
   xmlns="http://www.w3.org/2000/svg"
   viewBox="0 0 652.5 1501.4412"
   height="1501.4412"
   width="652.5"
   xml:space="preserve"
   version="1.1"
   id="svg3848"><metadata
     id="metadata3854"><rdf:RDF><cc:Work
         rdf:about=""><dc:format>image/svg+xml</dc:format><dc:type
           rdf:resource="http://purl.org/dc/dcmitype/StillImage" /><dc:title></dc:title></cc:Work></rdf:RDF></metadata><defs
     id="defs3852"><clipPath
       id="clipPath3866"
       clipPathUnits="userSpaceOnUse"><path
         id="path3868"
         d="M 0,0 522,0 522,1202 0,1202 0,0 Z" /></clipPath><clipPath
       id="clipPath3870"
       clipPathUnits="userSpaceOnUse"><path
         id="path3872"
         d="m 1,1202 521,0 L 522,1 1,1 1,1202 Z" /></clipPath><clipPath
       id="clipPath3874"
       clipPathUnits="userSpaceOnUse"><path
         id="path3876"
         d="M 0,0 522,0 522,1202 0,1202 0,0 Z" /></clipPath><clipPath
       id="clipPath3878"
       clipPathUnits="userSpaceOnUse"><path
         id="path3880"
         d="m 1.066,1202 520.535,0 0,-1201.066 -520.535,0 0,1201.066 z" /></clipPath><clipPath
       id="clipPath3882"
       clipPathUnits="userSpaceOnUse"><path
         id="path3884"
         d="M 0,0 522,0 522,1202 0,1202 0,0 Z" /></clipPath><clipPath
       id="clipPath3886"
       clipPathUnits="userSpaceOnUse"><path
         id="path3888"
         d="M 0,0 522,0 522,1202 0,1202 0,0 Z" /></clipPath></defs><g
     transform="matrix(1.25,0,0,-1.25,0,1501.4412)"
     id="g3856"><g
       id="g3858" /><g
       id="g3860"><g
         transform="translate(0,-0.847046)"
         id="g3862"><g
           id="g3864" /><g
           id="g3890"><g
             id="g3892"
             clip-path="url(#clipPath3866)"><g
               id="g3894"><g
                 id="g3896"
                 clip-path="url(#clipPath3870)"><g
                   id="g3898"><g
                     id="g3900" /><g
                     id="g3902"><g
                       id="g3904"
                       clip-path="url(#clipPath3874)"><g
                         id="g3906" /><g
                         id="g3908"><g
                           id="g3910"
                           clip-path="url(#clipPath3878)"><g
                             id="g3912"><g
                               id="g3914" /><g
                               id="g3916"><g
                                 id="g3918"
                                 clip-path="url(#clipPath3882)"><g
                                   id="g3920"><path
                                   id="path3922"
                                   style="fill:#f0c900;fill-opacity:1;fill-rule:nonzero;stroke:none"
                                   d="m 51.398,1201.449 c -27.617,0 -50,-22.386 -50,-50 l 0,-1100 c 0,-27.609 22.383,-50 50,-50 l 422.5,0 c 27.614,0 47.5,22.391 47.5,50 l 0,1100 c 0,27.614 -19.886,50 -47.5,50 l -422.5,0 z" /></g></g></g></g></g></g></g></g></g></g></g><g
               id="g3924"><g
                 id="g3926"><g
                   id="g3928" /><g
                   id="g3930"><g
                     id="g3932"
                     clip-path="url(#clipPath3886)"><g
                       id="g3934" /><g
                       id="g3936"><path
                         id="path3938"
                         style="fill:#000000;fill-opacity:1;fill-rule:nonzero;stroke:none"
                         d="m 282.711,1014.523 c 0,-5.687 -1.109,-11.101 -3.332,-16.238 -2.227,-4.996 -5.207,-9.367 -8.953,-13.117 -3.75,-3.746 -8.192,-6.73 -13.324,-8.953 -5,-2.219 -10.344,-3.332 -16.036,-3.332 -5.832,0 -11.312,1.113 -16.449,3.332 -5,2.223 -9.371,5.207 -13.117,8.953 -3.75,3.75 -6.734,8.121 -8.953,13.117 -2.082,5.137 -3.125,10.551 -3.125,16.238 l 0,68.719 c 0,5.692 1.043,11.031 3.125,16.031 2.219,5.137 5.203,9.579 8.953,13.329 3.746,3.75 8.117,6.73 13.117,8.953 5.137,2.218 10.617,3.328 16.449,3.328 5.692,0 11.036,-1.11 16.036,-3.328 5.132,-2.223 9.574,-5.203 13.324,-8.953 3.746,-3.75 6.726,-8.192 8.953,-13.329 2.223,-5 3.332,-10.339 3.332,-16.031 l 0,-68.719 z m -41.645,89.54 c -5.832,0 -10.757,-2.012 -14.785,-6.04 -4.023,-4.023 -6.039,-8.953 -6.039,-14.781 l 0,-68.719 c 0,-5.824 2.016,-10.753 6.039,-14.777 4.028,-4.027 8.953,-6.039 14.785,-6.039 5.829,0 10.758,2.012 14.782,6.039 4.027,4.024 6.039,8.953 6.039,14.777 l 0,68.719 c 0,5.828 -2.012,10.758 -6.039,14.781 -4.024,4.028 -8.953,6.04 -14.782,6.04 z" /><path
                         id="path3940"
                         style="fill:#000000;fill-opacity:1;fill-rule:nonzero;stroke:none"
                         d="m 387.727,1014.523 c 0,-5.687 -1.114,-11.101 -3.336,-16.238 -2.219,-4.996 -5.203,-9.367 -8.953,-13.117 -3.747,-3.746 -8.192,-6.73 -13.325,-8.953 -5,-2.219 -10.343,-3.332 -16.035,-3.332 -5.828,0 -11.312,1.113 -16.449,3.332 -4.996,2.223 -9.367,5.207 -13.117,8.953 -3.746,3.75 -6.735,8.121 -8.953,13.117 -2.082,5.137 -3.125,10.551 -3.125,16.238 l 0,68.719 c 0,5.692 1.043,11.031 3.125,16.031 2.218,5.137 5.207,9.579 8.953,13.329 3.75,3.75 8.121,6.73 13.117,8.953 5.137,2.218 10.621,3.328 16.449,3.328 5.692,0 11.035,-1.11 16.035,-3.328 5.133,-2.223 9.578,-5.203 13.325,-8.953 3.75,-3.75 6.734,-8.192 8.953,-13.329 2.222,-5 3.336,-10.339 3.336,-16.031 l 0,-68.719 z m -41.649,89.54 c -5.828,0 -10.758,-2.012 -14.781,-6.04 -4.027,-4.023 -6.039,-8.953 -6.039,-14.781 l 0,-68.719 c 0,-5.824 2.012,-10.753 6.039,-14.777 4.023,-4.027 8.953,-6.039 14.781,-6.039 5.832,0 10.758,2.012 14.785,6.039 4.024,4.024 6.035,8.953 6.035,14.777 l 0,68.719 c 0,5.828 -2.011,10.758 -6.035,14.781 -4.027,4.028 -8.953,6.04 -14.785,6.04 z" /><path
                         id="path3942"
                         style="fill:#000000;fill-opacity:1;fill-rule:nonzero;stroke:none"
                         d="m 156.281,1100.949 -21.203,-15.535 0,22.676 21.203,15.535 21.414,0 0,-149.48 -21.414,0 0,126.804 z" /><path
                         id="path3944"
                         style="fill:#000000;fill-opacity:1;fill-rule:nonzero;stroke:none"
                         d="m 206.195,919.074 15.907,0 0,-8.422 0.312,0 c 2.496,3.121 5.457,5.461 8.887,7.02 3.535,1.558 7.433,2.34 11.699,2.34 5.508,0 9.875,-0.989 13.102,-2.965 3.324,-1.973 6.39,-4.418 9.195,-7.328 3.328,3.64 6.969,6.238 10.918,7.797 3.949,1.664 8.633,2.496 14.035,2.496 3.117,0 6.238,-0.625 9.355,-1.871 3.122,-1.145 5.926,-2.864 8.418,-5.149 2.5,-2.285 4.528,-5.14 6.086,-8.574 1.664,-3.434 2.496,-7.383 2.496,-11.852 l 0,-52.554 -15.906,0 0,47.093 c 0,5.407 -1.508,9.567 -4.523,12.477 -2.91,3.02 -6.602,4.523 -11.071,4.523 -4.578,0 -8.371,-1.503 -11.386,-4.523 -2.91,-2.91 -4.367,-7.07 -4.367,-12.477 l 0,-47.093 -15.907,0 0,47.093 c 0,5.407 -1.507,9.567 -4.519,12.477 -2.914,3.02 -6.602,4.523 -11.078,4.523 -4.575,0 -8.364,-1.503 -11.379,-4.523 -2.91,-2.91 -4.367,-7.07 -4.367,-12.477 l 0,-47.093 -15.907,0 0,79.062 z" /></g></g></g></g></g></g></g></g></g><g
       id="g3946"><path
         id="path3948"
         style="fill:#000000;fill-opacity:1;fill-rule:nonzero;stroke:none"
         d="m 49.625,1191.34 c -22.098,0 -41.613,-19.496 -41.613,-41.57 l 0,-1099.539 c 0,-22.074 19.515,-41.57 41.613,-41.57 l 420.789,0 c 22.098,0 41.574,19.496 41.574,41.57 l 0,1099.539 c 0,22.074 -17.875,41.57 -39.972,41.57 l -422.391,0 z m 3.211,-20.003 414.629,0 c 14.941,0 24.738,-11.723 24.738,-26.961 L 491.898,756.821 27.883,488.919 l 0.344,655.457 c 0,15.238 9.668,26.961 24.609,26.961 z M 491.824,535.075 492.203,53.95 c 0,-15.238 -11.394,-25.289 -26.336,-25.289 l -413.031,0 c -14.941,0 -24.609,10.051 -24.609,25.289 l -0.336,213.281 463.933,267.844 z" /></g></g></svg>