<?xml version="1.0" encoding="UTF-8" standalone="no"?>
<svg xmlns:dc="http://purl.org/dc/elements/1.1/" xmlns:cc="http://creativecommons.org/ns#" xmlns:rdf="http://www.w3.org/1999/02/22-rdf-syntax-ns#" xmlns:svg="http://www.w3.org/2000/svg" xmlns="http://www.w3.org/2000/svg" viewBox="0 0 1400.036 350" height="350" width="1400.036" xml:space="preserve" version="1.1" id="svg17299"><metadata id="metadata17305"><rdf:RDF><cc:Work rdf:about=""><dc:format>image/svg+xml</dc:format><dc:type rdf:resource="http://purl.org/dc/dcmitype/StillImage"/><dc:title/></cc:Work></rdf:RDF></metadata><defs id="defs17303"><clipPath id="clipPath17317" clipPathUnits="userSpaceOnUse"><path id="path17319" d="m 0,0 1121,0 0,280 L 0,280 0,0 Z"/></clipPath></defs><g transform="matrix(1.25,0,0,-1.25,0,350)" id="g17307"><g id="g17309"/><g id="g17311"><g id="g17313"><g id="g17315"/><g id="g17321"><g id="g17323" clip-path="url(#clipPath17317)"><g id="g17325"><path id="path17327" style="fill:#f0c900;fill-opacity:1;fill-rule:nonzero;stroke:none" d="m 1086.84,280 c 18.281,0 33.187,-14.875 33.187,-33.156 l 0,-213.653 C 1120.027,14.875 1105.121,0 1086.84,0 L 236.281,0 C 218.66,0 201.242,4.66 185.969,13.488 L 16.613,111.273 c -5.058,2.911 -9.258,7.106 -12.168,12.133 -4.429,7.703 -5.586,16.625 -3.304,25.188 2.316,8.562 7.8,15.703 15.472,20.133 l 169.356,97.785 C 201.242,275.34 218.66,280 236.281,280 l 850.559,0 z"/></g></g></g></g></g><g id="g17329"><path id="path17331" style="fill:#000000;fill-opacity:1;fill-rule:nonzero;stroke:none" d="m 1086.758,271.977 c 13.984,0 25.289,-11.336 25.289,-25.321 l 0,-213.301 c 0,-13.984 -11.305,-25.32 -25.289,-25.32 l -850.477,0 c -16.265,0 -32.265,4.297 -46.379,12.43 L 20.547,118.09 c -3.867,2.215 -7.043,5.422 -9.258,9.254 -7.008,12.101 -2.84,27.57 9.258,34.578 l 169.355,97.625 c 14.114,8.133 30.114,12.43 46.379,12.43 l 850.477,0 z m 0,-12.079 -850.477,0 c -13.82,0 -27.933,-3.632 -39.898,-10.543 L 25.477,150.688 c -5.391,-3.106 -6.969,-11.903 -3.86,-17.258 0.988,-1.719 2.41,-3.141 4.098,-4.133 L 196.223,30.625 c 11.968,-6.906 25.359,-10.543 39.179,-10.543 l 851.356,0 c 13.203,0 13.16,13.273 13.16,13.273 l 0,213.301 c 0,13.414 -13.16,13.242 -13.16,13.242 z"/><path id="path17333" style="fill:#000000;fill-opacity:1;fill-rule:nonzero;stroke:none" d="m 258.336,198.734 17.871,0 0,-76.812 c 0,-13.367 10.824,-24.195 24.172,-24.195 13.348,0 24.18,10.828 24.18,24.195 l 0,76.812 17.871,0 0,-76.812 c 0,-23.223 -18.828,-42.086 -42.051,-42.086 -23.223,0 -42.043,18.863 -42.043,42.086"/><path id="path17335" style="fill:#000000;fill-opacity:1;fill-rule:nonzero;stroke:none" d="m 365.551,80.891 0,84.172 16.808,0 0,-9.493 c 9.86,12.211 27.731,14.098 39.922,4.239 1.887,-1.543 3.59,-3.325 5.028,-5.293 11.015,13.507 30.894,15.515 44.379,4.484 7.324,-5.984 11.585,-14.969 11.585,-24.445 l 0,-53.664 -16.816,0 0,51.558 c 0,9.313 -7.527,16.832 -16.816,16.832 -9.289,0 -16.817,-7.519 -16.817,-16.832 l 0,-51.558 -16.832,0 0,51.558 c 0,9.313 -7.527,16.832 -16.816,16.832 -9.289,0 -16.817,-7.519 -16.817,-16.832 l 0,-51.558"/><path id="path17337" style="fill:#000000;fill-opacity:1;fill-rule:nonzero;stroke:none" d="m 535.82,80.891 -10.504,0 c -10.449,0 -18.921,8.496 -18.921,18.945 l 0,98.898 16.816,0 0,-96.793 c 0,-2.921 2.348,-5.253 5.25,-5.253 l 7.359,0"/><path id="path17339" style="fill:#000000;fill-opacity:1;fill-rule:nonzero;stroke:none" d="m 569.453,131.395 35.738,0 c 0,9.875 -7.996,17.886 -17.871,17.886 -9.855,0 -17.867,-8.011 -17.867,-17.886 z m 52.57,-14.727 -52.57,0 0,-2.09 c 0,-7.32 4.442,-13.914 11.231,-16.629 9.351,-3.73 20.043,-1.097 26.593,6.531 L 620.035,93.527 C 608.801,80.426 590.484,75.898 574.441,82.328 c -13.164,5.274 -21.804,18.031 -21.804,32.25 l 0,16.817 c 0,19.187 15.539,34.722 34.683,34.722 19.164,0 34.703,-15.535 34.703,-34.722"/><path id="path17341" style="fill:#000000;fill-opacity:1;fill-rule:nonzero;stroke:none" d="m 661.961,181.895 -16.836,0 0,16.832 16.836,0 0,-16.832 z m -16.836,-101.004 0,84.172 16.836,0 0,-84.172"/><path id="path17343" style="fill:#000000;fill-opacity:1;fill-rule:nonzero;stroke:none" d="m 722.906,80.891 -10.527,0 c -10.422,0 -18.899,8.496 -18.899,18.945 l 0,51.559 -8.417,0 0,13.668 8.417,0 0,25.253 16.817,0 0,-25.253 12.609,0 0,-13.668 -12.609,0 0,-49.454 c 0,-2.921 2.348,-5.253 5.269,-5.253 l 7.34,0"/><path id="path17345" style="fill:#000000;fill-opacity:1;fill-rule:nonzero;stroke:none" d="m 809.094,80.891 -16.801,0 0,9.515 c -9.852,-12.215 -27.742,-14.121 -39.93,-4.246 -6.656,5.399 -10.527,13.512 -10.527,22.094 l 0,56.809 16.812,0 0,-51.559 c 0,-9.289 7.524,-16.816 16.813,-16.816 9.293,0 16.832,7.527 16.832,16.816 l 0,51.559 16.801,0"/><path id="path17347" style="fill:#000000;fill-opacity:1;fill-rule:nonzero;stroke:none" d="m 834.324,80.891 0,84.172 16.813,0 0,-9.493 c 9.855,12.211 27.726,14.098 39.918,4.239 6.648,-5.395 10.547,-13.504 10.547,-22.086 l 0,-56.832 -16.836,0 0,51.558 c 0,9.313 -7.524,16.832 -16.817,16.832 -9.289,0 -16.812,-7.519 -16.812,-16.832 l 0,-51.558"/><path id="path17349" style="fill:#000000;fill-opacity:1;fill-rule:nonzero;stroke:none" d="m 975.164,113.504 0,18.945 c 0,9.313 -7.523,16.832 -16.816,16.832 -9.285,0 -16.813,-7.519 -16.813,-16.832 l 0,-18.945 c 0,-9.289 7.528,-16.816 16.813,-16.816 9.293,0 16.816,7.527 16.816,16.816 z m 16.816,51.559 0,-85.227 c 0,-12.742 -7.179,-24.402 -18.578,-30.098 -16.062,-8.05 -35.574,-3.836 -46.914,10.117 l 13.063,10.629 c 6.367,-7.847 17.301,-10.218 26.304,-5.699 5.7,2.86 9.309,8.68 9.309,15.051 l 0,10.57 C 965.305,78.191 947.438,76.285 935.25,86.16 c -6.656,5.399 -10.527,13.512 -10.527,22.094 l 0,29.469 c 0,15.675 12.699,28.394 28.379,28.394 8.578,0 16.691,-3.875 22.062,-10.547 l 0,9.493"/></g></g></svg>