<?xml version="1.0" encoding="UTF-8" standalone="no"?>
<svg
   xmlns:dc="http://purl.org/dc/elements/1.1/"
   xmlns:cc="http://creativecommons.org/ns#"
   xmlns:rdf="http://www.w3.org/1999/02/22-rdf-syntax-ns#"
   xmlns:svg="http://www.w3.org/2000/svg"
   xmlns="http://www.w3.org/2000/svg"
   viewBox="0 0 2125.9844 3190.5393"
   height="3190.5393"
   width="2125.9844"
   xml:space="preserve"
   version="1.1"
   id="svg7704"><metadata
     id="metadata7710"><rdf:RDF><cc:Work
         rdf:about=""><dc:format>image/svg+xml</dc:format><dc:type
           rdf:resource="http://purl.org/dc/dcmitype/StillImage" /><dc:title></dc:title></cc:Work></rdf:RDF></metadata><defs
     id="defs7708"><clipPath
       id="clipPath7722"
       clipPathUnits="userSpaceOnUse"><path
         id="path7724"
         d="m 0,0 1701,0 0,2553 L 0,2553 0,0 Z" /></clipPath></defs><g
     transform="matrix(1.25,0,0,-1.25,0,3190.5392)"
     id="g7712"><g
       id="g7714"><g
         transform="translate(0,-0.568604)"
         id="g7716"><g
           id="g7718"><g
             clip-path="url(#clipPath7722)"
             id="g7720"><g
               id="g7726"><path
                 id="path7728"
                 style="fill:#f0c900;fill-opacity:1;fill-rule:nonzero;stroke:none"
                 d="M 112.289,2553 C 50.379,2553 0,2502.637 0,2440.727 L 0,112.844 C 0,50.918 50.379,0.57 112.289,0.57 l 1476.227,0 c 61.906,0 112.273,50.348 112.273,112.274 l 0,2327.883 c 0,61.91 -50.367,112.273 -112.273,112.273" /></g></g></g></g><path
         id="path7730"
         style="fill:#000000;fill-opacity:1;fill-rule:nonzero;stroke:none"
         d="m 112.289,2525.322 c -47.047,0 -85.18,-38.133 -85.18,-85.164 l 0,-2327.887 c 0,-47.027 38.133,-85.121 85.18,-85.121 l 1476.227,0 c 47.043,0 85.121,38.094 85.121,85.121 l 0,2327.887 c 0,47.031 -38.078,85.164 -85.121,85.164 l -1476.227,0 z m 0,-42.582 1476.227,0 c 23.496,0 42.593,-19.086 42.593,-42.582 l 0,-2327.887 c 0,-23.496 -19.097,-42.594 -42.593,-42.594 l -1476.227,0 c -23.539,0 -42.586,19.098 -42.586,42.594 l 0,2327.887 c 0,23.496 19.047,42.582 42.586,42.582 z" /><path
         id="path7732"
         style="fill:#231f20;fill-opacity:1;fill-rule:evenodd;stroke:none"
         d="m 673.285,2124.826 74.84,0 0,-322.465 c 0,-56.016 46.125,-102.027 102.277,-102.027 56.149,0 101.52,46.011 101.52,102.027 l 0,322.465 75.594,0 0,-322.465 c 0,-97.742 -79.211,-176.687 -177.114,-176.687 -97.906,0 -177.117,78.945 -177.117,176.687 l 0,322.465 z" /><path
         id="path7734"
         style="fill:#231f20;fill-opacity:1;fill-rule:evenodd;stroke:none"
         d="m 1219.016,258.099 -113.735,0 0,481.258 c 0,93.305 -75.593,169.469 -169.879,169.469 l -254.898,0 197.996,-198.262 -141.168,0 -255.574,255.024 255.574,254.203 141.168,0 -197.996,-198.188 254.898,0 c 156.918,0 283.614,-126.386 283.614,-282.246 l 0,-481.258 z" /></g></g></svg>