<?xml version="1.0" encoding="UTF-8" standalone="no"?>
<svg
   xmlns:dc="http://purl.org/dc/elements/1.1/"
   xmlns:cc="http://creativecommons.org/ns#"
   xmlns:rdf="http://www.w3.org/1999/02/22-rdf-syntax-ns#"
   xmlns:svg="http://www.w3.org/2000/svg"
   xmlns="http://www.w3.org/2000/svg"
   viewBox="0 0 2125.9844 3190.5393"
   height="3190.5393"
   width="2125.9844"
   xml:space="preserve"
   version="1.1"
   id="svg4701"><metadata
     id="metadata4707"><rdf:RDF><cc:Work
         rdf:about=""><dc:format>image/svg+xml</dc:format><dc:type
           rdf:resource="http://purl.org/dc/dcmitype/StillImage" /><dc:title></dc:title></cc:Work></rdf:RDF></metadata><defs
     id="defs4705"><clipPath
       id="clipPath4719"
       clipPathUnits="userSpaceOnUse"><path
         id="path4721"
         d="m 0,0 1701,0 0,2553 L 0,2553 0,0 Z" /></clipPath></defs><g
     transform="matrix(1.25,0,0,-1.25,0,3190.5392)"
     id="g4709"><g
       id="g4711"><g
         transform="translate(0,-0.568604)"
         id="g4713"><g
           id="g4715"><g
             clip-path="url(#clipPath4719)"
             id="g4717"><g
               id="g4723"><path
                 id="path4725"
                 style="fill:#f0c900;fill-opacity:1;fill-rule:nonzero;stroke:none"
                 d="M 112.289,2553 C 50.379,2553 0,2502.637 0,2440.727 L 0,112.844 C 0,50.918 50.379,0.57 112.289,0.57 l 1476.227,0 c 61.906,0 112.273,50.348 112.273,112.274 l 0,2327.883 c 0,61.91 -50.367,112.273 -112.273,112.273" /></g></g></g></g><path
         id="path4727"
         style="fill:#000000;fill-opacity:1;fill-rule:nonzero;stroke:none"
         d="m 112.289,2525.322 c -47.047,0 -85.18,-38.133 -85.18,-85.164 l 0,-2327.887 c 0,-47.027 38.133,-85.121 85.18,-85.121 l 1476.227,0 c 47.043,0 85.121,38.094 85.121,85.121 l 0,2327.887 c 0,47.031 -38.078,85.164 -85.121,85.164 l -1476.227,0 z m 0,-42.582 1476.227,0 c 23.496,0 42.593,-19.086 42.593,-42.582 l 0,-2327.887 c 0,-23.496 -19.097,-42.594 -42.593,-42.594 l -1476.227,0 c -23.539,0 -42.586,19.098 -42.586,42.594 l 0,2327.887 c 0,23.496 19.047,42.582 42.586,42.582 z" /><path
         id="path4729"
         style="fill:#000000;fill-opacity:1;fill-rule:nonzero;stroke:none"
         d="m 672.922,1574.271 90.488,0 0,-388.562 c 0,-67.598 54.813,-122.41 122.426,-122.41 67.598,0 122.41,54.812 122.41,122.41 l 0,388.562 90.5,0 0,-388.562 c 0,-117.578 -95.332,-212.91 -212.91,-212.91 -117.594,0 -212.914,95.332 -212.914,212.91 l 0,388.562 z" /></g></g></svg>