<?xml version="1.0" encoding="UTF-8" standalone="no"?>
<svg
   xmlns:dc="http://purl.org/dc/elements/1.1/"
   xmlns:cc="http://creativecommons.org/ns#"
   xmlns:rdf="http://www.w3.org/1999/02/22-rdf-syntax-ns#"
   xmlns:svg="http://www.w3.org/2000/svg"
   xmlns="http://www.w3.org/2000/svg"
   viewBox="0 0 670.19562 1005.2602"
   height="1005.2602"
   width="670.19562"
   xml:space="preserve"
   id="svg3699"
   version="1.1"><metadata
     id="metadata3705"><rdf:RDF><cc:Work
         rdf:about=""><dc:format>image/svg+xml</dc:format><dc:type
           rdf:resource="http://purl.org/dc/dcmitype/StillImage" /><dc:title></dc:title></cc:Work></rdf:RDF></metadata><defs
     id="defs3703"><clipPath
       id="clipPath3719"
       clipPathUnits="userSpaceOnUse"><path
         id="path3717"
         d="M 0,0 H 503 V 754 H 0 Z" /></clipPath></defs><g
     transform="matrix(1.3333333,0,0,-1.3333333,0,1005.2602)"
     id="g3707"><g
       id="g3709"><g
         transform="translate(0,-0.0548706)"
         id="g3711"><g
           id="g3713"><g
             clip-path="url(#clipPath3719)"
             id="g3715"><g
               id="g3721"><path
                 id="path3723"
                 style="fill:#f0c900;fill-opacity:1;fill-rule:nonzero;stroke:none"
                 d="m 33.516,753.668 c -18.27,0 -33.137,-14.863 -33.137,-33.133 V 33.555 C 0.379,15.281 15.246,0.422 33.516,0.422 h 435.648 c 18.27,0 33.133,14.859 33.133,33.133 v 686.98 c 0,18.27 -14.863,33.133 -33.133,33.133" /></g></g></g></g><path
         id="path3725"
         style="fill:#000000;fill-opacity:1;fill-rule:nonzero;stroke:none"
         d="M 33.516,745.613 C 19.633,745.613 8.379,734.359 8.379,720.48 V 33.5 C 8.379,19.621 19.633,8.379 33.516,8.379 h 435.648 c 13.883,0 25.121,11.242 25.121,25.121 v 686.98 c 0,13.879 -11.238,25.133 -25.121,25.133 z m 0,-12.566 h 435.648 c 6.934,0 12.57,-5.633 12.57,-12.567 V 33.5 c 0,-6.934 -5.636,-12.57 -12.57,-12.57 H 33.516 c -6.946,0 -12.567,5.636 -12.567,12.57 v 686.98 c 0,6.934 5.621,12.567 12.567,12.567 z" /><path
         id="path3727"
         style="fill:#c1121c;fill-opacity:1;fill-rule:nonzero;stroke:none"
         d="M 481.711,675.625 53.453,20.937 H 33.516 c -6.938,0 -12.575,5.641 -12.575,12.575 v 44.835 l 428.235,654.688 h 19.957 c 6.937,0 12.578,-5.641 12.578,-12.578 z" /><path
         id="path3729"
         style="fill:#000000;fill-opacity:1;fill-rule:nonzero;stroke:none"
         d="m 198.965,464.949 h 26.703 V 350.281 c 0,-19.949 16.176,-36.125 36.129,-36.125 19.949,0 36.125,16.176 36.125,36.125 v 114.668 h 26.707 V 350.281 c 0,-34.699 -28.133,-62.832 -62.832,-62.832 -34.703,0 -62.832,28.133 -62.832,62.832 z" /></g></g></svg>