<?xml version="1.0" encoding="UTF-8" standalone="no"?>
<svg
   xmlns:dc="http://purl.org/dc/elements/1.1/"
   xmlns:cc="http://creativecommons.org/ns#"
   xmlns:rdf="http://www.w3.org/1999/02/22-rdf-syntax-ns#"
   xmlns:svg="http://www.w3.org/2000/svg"
   xmlns="http://www.w3.org/2000/svg"
   viewBox="0 0 1050 349.99969"
   height="349.99969"
   width="1050"
   xml:space="preserve"
   id="svg5401"
   version="1.1"><metadata
     id="metadata5407"><rdf:RDF><cc:Work
         rdf:about=""><dc:format>image/svg+xml</dc:format><dc:type
           rdf:resource="http://purl.org/dc/dcmitype/StillImage" /><dc:title></dc:title></cc:Work></rdf:RDF></metadata><defs
     id="defs5405"><clipPath
       id="clipPath5421"
       clipPathUnits="userSpaceOnUse"><path
         id="path5419"
         d="M 0,0 H 788 V 263 H 0 Z" /></clipPath><clipPath
       id="clipPath5433"
       clipPathUnits="userSpaceOnUse"><path
         id="path5431"
         d="M 0,0 H 788 V 263 H 0 Z" /></clipPath><clipPath
       id="clipPath5445"
       clipPathUnits="userSpaceOnUse"><path
         id="path5443"
         d="M 5.008,262.5 H 788 V -0.5 H 5.008 Z" /></clipPath><clipPath
       id="clipPath5455"
       clipPathUnits="userSpaceOnUse"><path
         id="path5453"
         d="M 5,0 H 788 V 263 H 5 Z" /></clipPath><clipPath
       id="clipPath5465"
       clipPathUnits="userSpaceOnUse"><path
         id="path5463"
         d="M 5.008,263 H 788 V 0 H 5.008 Z" /></clipPath><clipPath
       id="clipPath5475"
       clipPathUnits="userSpaceOnUse"><path
         id="path5473"
         d="M 71,45 H 716 V 182 H 71 Z" /></clipPath><clipPath
       id="clipPath5507"
       clipPathUnits="userSpaceOnUse"><path
         id="path5505"
         d="M 0,0 H 788 V 263 H 0 Z" /></clipPath><clipPath
       id="clipPath5519"
       clipPathUnits="userSpaceOnUse"><path
         id="path5517"
         d="M 7,8 H 781 V 256 H 7 Z" /></clipPath></defs><g
     transform="matrix(1.3333333,0,0,-1.3333333,0,349.99971)"
     id="g5409"><g
       id="g5411"><g
         transform="translate(0,-0.500214)"
         id="g5413"><g
           id="g5415"><g
             clip-path="url(#clipPath5421)"
             id="g5417"><g
               id="g5423"><g
                 id="g5425"><g
                   id="g5427"><g
                     clip-path="url(#clipPath5433)"
                     id="g5429"><g
                       id="g5435"><path
                         id="path5437"
                         style="fill:#f0c900;fill-opacity:1;fill-rule:nonzero;stroke:none"
                         d="M 30.008,0.5 C 13.438,0.5 0,14.082 0,30.844 V 232.656 C 0,249.418 13.438,263 30.008,263 h 727.496 c 16.57,0 29.996,-13.582 29.996,-30.344 V 30.844 C 787.5,14.082 774.074,0.5 757.504,0.5 Z" /></g></g></g></g></g></g></g></g></g><g
       id="g5439"><g
         clip-path="url(#clipPath5445)"
         id="g5441"><g
           transform="translate(0,-0.500214)"
           id="g5447"><g
             id="g5449"><g
               clip-path="url(#clipPath5455)"
               id="g5451"><g
                 id="g5457" /><g
                 id="g5459"><g
                   clip-path="url(#clipPath5465)"
                   id="g5461"><g
                     id="g5467"><g
                       id="g5469"><g
                         clip-path="url(#clipPath5475)"
                         id="g5471"><g
                           id="g5477"><path
                             id="path5479"
                             style="fill:#231f20;fill-opacity:1;fill-rule:nonzero;stroke:none"
                             d="m 71.895,181.078 h 15.679 v -68.109 c 0,-11.844 9.5,-21.453 21.215,-21.453 11.707,0 21.207,9.609 21.207,21.453 v 68.109 h 15.684 v -68.109 c 0,-20.602 -16.516,-37.309 -36.891,-37.309 -20.375,0 -36.894,16.707 -36.894,37.309 v 68.109" /><path
                             id="path5481"
                             style="fill:#231f20;fill-opacity:1;fill-rule:nonzero;stroke:none"
                             d="m 165.969,76.59 v 74.637 h 14.75 v -8.422 c 8.652,10.828 24.32,12.504 35.023,3.761 1.66,-1.359 3.145,-2.941 4.414,-4.683 9.676,11.965 27.098,13.746 38.93,3.965 6.434,-5.321 10.176,-13.274 10.176,-21.676 V 76.59 H 254.5 v 45.715 c 0,8.242 -6.605,14.922 -14.758,14.922 -8.144,0 -14.75,-6.68 -14.75,-14.922 V 76.59 h -14.758 v 45.715 c 0,8.242 -6.605,14.922 -14.757,14.922 -8.149,0 -14.758,-6.68 -14.758,-14.922 V 76.59 h -14.75" /><path
                             id="path5483"
                             style="fill:#231f20;fill-opacity:1;fill-rule:nonzero;stroke:none"
                             d="m 315.363,76.59 h -9.215 c -9.171,0 -16.601,7.515 -16.601,16.789 v 87.699 h 14.746 V 95.242 c 0,-2.57 2.07,-4.66 4.621,-4.66 h 6.449 V 76.59" /><path
                             id="path5485"
                             style="fill:#231f20;fill-opacity:1;fill-rule:nonzero;stroke:none"
                             d="m 390.992,108.313 h -46.121 v -1.872 c 0,-6.48 3.906,-12.32 9.859,-14.722 8.2,-3.321 17.579,-0.996 23.336,5.785 l 11.192,-9.723 c -9.86,-11.629 -25.942,-15.609 -40.004,-9.926 -11.559,4.676 -19.129,15.993 -19.129,28.586 v 14.934 c 0,17.004 13.617,30.781 30.426,30.781 16.808,0 30.441,-13.777 30.441,-30.781 z m -46.121,13.062 h 31.359 c 0,8.758 -7.015,15.852 -15.679,15.852 -8.653,0 -15.68,-7.094 -15.68,-15.852" /><path
                             id="path5487"
                             style="fill:#231f20;fill-opacity:1;fill-rule:nonzero;stroke:none"
                             d="m 426.023,76.59 h -14.75 v 74.644 h 14.75 z m 0,89.566 h -14.75 v 14.926 h 14.75 z" /><path
                             id="path5489"
                             style="fill:#231f20;fill-opacity:1;fill-rule:nonzero;stroke:none"
                             d="m 479.523,76.59 h -9.23 c -9.164,0 -16.59,7.515 -16.59,16.789 v 45.726 h -7.387 v 12.122 h 7.387 v 22.39 h 14.746 v -22.39 h 11.074 V 139.105 H 468.449 V 95.242 c 0,-2.57 2.074,-4.66 4.61,-4.66 h 6.464 V 76.59" /><path
                             id="path5491"
                             style="fill:#231f20;fill-opacity:1;fill-rule:nonzero;stroke:none"
                             d="m 555.133,76.59 h -14.746 v 8.418 c -8.641,-10.82 -24.324,-12.496 -35.024,-3.754 -5.843,4.785 -9.238,11.984 -9.238,19.598 v 50.375 h 14.742 v -45.711 c 0,-8.254 6.61,-14.934 14.762,-14.934 8.144,0 14.758,6.68 14.758,14.934 v 45.711 h 14.746 V 76.59" /><path
                             id="path5493"
                             style="fill:#231f20;fill-opacity:1;fill-rule:nonzero;stroke:none"
                             d="m 577.27,76.59 v 74.637 h 14.757 v -8.422 c 8.645,10.828 24.325,12.504 35.016,3.761 5.852,-4.785 9.25,-11.98 9.25,-19.597 V 76.59 h -14.746 v 45.715 c 0,8.242 -6.617,14.922 -14.758,14.922 -8.16,0 -14.762,-6.68 -14.762,-14.922 V 76.59 H 577.27" /><path
                             id="path5495"
                             style="fill:#231f20;fill-opacity:1;fill-rule:nonzero;stroke:none"
                             d="M 715.605,151.227 V 75.66 c 0,-11.308 -6.312,-21.656 -16.308,-26.715 -14.109,-7.129 -31.207,-3.398 -41.152,8.989 l 11.449,9.41 c 5.586,-6.953 15.183,-9.039 23.097,-5.047 5,2.535 8.157,7.703 8.157,13.363 v 9.348 c -8.641,-10.82 -24.325,-12.496 -35.016,-3.754 -5.848,4.785 -9.25,11.984 -9.25,19.598 v 26.117 c 0,13.91 11.148,25.187 24.895,25.187 7.531,0 14.644,-3.429 19.371,-9.351 v 8.422 z m -14.757,-45.711 v 16.789 c 0,8.242 -6.606,14.922 -14.75,14.922 -8.157,0 -14.758,-6.68 -14.758,-14.922 v -16.789 c 0,-8.254 6.601,-14.934 14.758,-14.934 8.144,0 14.75,6.68 14.75,14.934" /></g></g></g></g></g></g></g></g></g></g></g><g
       id="g5497"><g
         transform="translate(0,-0.500214)"
         id="g5499"><g
           id="g5501"><g
             clip-path="url(#clipPath5507)"
             id="g5503"><g
               id="g5509"><g
                 id="g5511"><g
                   id="g5513"><g
                     clip-path="url(#clipPath5519)"
                     id="g5515"><g
                       id="g5521"><path
                         id="path5523"
                         style="fill:#000000;fill-opacity:1;fill-rule:nonzero;stroke:none"
                         d="m 30.008,255.414 c -12.434,0 -22.516,-10.191 -22.516,-22.758 V 30.844 C 7.492,18.277 17.574,8.086 30.008,8.086 h 727.496 c 12.426,0 22.5,10.191 22.5,22.758 v 201.812 c 0,12.567 -10.074,22.758 -22.5,22.758 z m 0,-11.383 h 727.496 c 6.207,0 11.246,-5.097 11.246,-11.375 V 30.844 c 0,-6.278 -5.039,-11.375 -11.246,-11.375 H 30.008 c -6.219,0 -11.254,5.097 -11.254,11.375 v 201.812 c 0,6.278 5.035,11.375 11.254,11.375 z" /></g></g></g></g></g></g></g></g></g></g></svg>