<?xml version="1.0" encoding="UTF-8" standalone="no"?>
<svg
   xmlns:dc="http://purl.org/dc/elements/1.1/"
   xmlns:cc="http://creativecommons.org/ns#"
   xmlns:rdf="http://www.w3.org/1999/02/22-rdf-syntax-ns#"
   xmlns:svg="http://www.w3.org/2000/svg"
   xmlns="http://www.w3.org/2000/svg"
   viewBox="0 0 1050 349.99969"
   height="349.99969"
   width="1050"
   xml:space="preserve"
   id="svg5980"
   version="1.1"><metadata
     id="metadata5986"><rdf:RDF><cc:Work
         rdf:about=""><dc:format>image/svg+xml</dc:format><dc:type
           rdf:resource="http://purl.org/dc/dcmitype/StillImage" /><dc:title></dc:title></cc:Work></rdf:RDF></metadata><defs
     id="defs5984"><clipPath
       id="clipPath6000"
       clipPathUnits="userSpaceOnUse"><path
         id="path5998"
         d="M 0,0 H 788 V 263 H 0 Z" /></clipPath><clipPath
       id="clipPath6012"
       clipPathUnits="userSpaceOnUse"><path
         id="path6010"
         d="M 0,0 H 788 V 263 H 0 Z" /></clipPath><clipPath
       id="clipPath6024"
       clipPathUnits="userSpaceOnUse"><path
         id="path6022"
         d="M 7,255.5 H 781 V 7.5 H 7 Z" /></clipPath><clipPath
       id="clipPath6034"
       clipPathUnits="userSpaceOnUse"><path
         id="path6032"
         d="M 7,8 H 781 V 256 H 7 Z" /></clipPath><clipPath
       id="clipPath6044"
       clipPathUnits="userSpaceOnUse"><path
         id="path6042"
         d="M 7,256 H 781 V 8 H 7 Z" /></clipPath><clipPath
       id="clipPath6054"
       clipPathUnits="userSpaceOnUse"><path
         id="path6052"
         d="M 7,8 H 781 V 256 H 7 Z" /></clipPath><clipPath
       id="clipPath6064"
       clipPathUnits="userSpaceOnUse"><path
         id="path6062"
         d="M 7,256 H 781 V 8 H 7 Z" /></clipPath><clipPath
       id="clipPath6074"
       clipPathUnits="userSpaceOnUse"><path
         id="path6072"
         d="M 7,8 H 781 V 256 H 7 Z" /></clipPath><clipPath
       id="clipPath6088"
       clipPathUnits="userSpaceOnUse"><path
         id="path6086"
         d="M 5.008,262.5 H 788 V -0.5 H 5.008 Z" /></clipPath><clipPath
       id="clipPath6098"
       clipPathUnits="userSpaceOnUse"><path
         id="path6096"
         d="M 5,0 H 788 V 263 H 5 Z" /></clipPath><clipPath
       id="clipPath6108"
       clipPathUnits="userSpaceOnUse"><path
         id="path6106"
         d="M 5,263 H 788 V 0 H 5 Z" /></clipPath><clipPath
       id="clipPath6118"
       clipPathUnits="userSpaceOnUse"><path
         id="path6116"
         d="M 5,0 H 788 V 263 H 5 Z" /></clipPath><clipPath
       id="clipPath6128"
       clipPathUnits="userSpaceOnUse"><path
         id="path6126"
         d="M 5,263 H 788 V 0 H 5 Z" /></clipPath><clipPath
       id="clipPath6138"
       clipPathUnits="userSpaceOnUse"><path
         id="path6136"
         d="M 5,0 H 788 V 263 H 5 Z" /></clipPath><clipPath
       id="clipPath6148"
       clipPathUnits="userSpaceOnUse"><path
         id="path6146"
         d="M 5,263 H 788 V 0 H 5 Z" /></clipPath><clipPath
       id="clipPath6158"
       clipPathUnits="userSpaceOnUse"><path
         id="path6156"
         d="M 5,0 H 788 V 263 H 5 Z" /></clipPath><clipPath
       id="clipPath6168"
       clipPathUnits="userSpaceOnUse"><path
         id="path6166"
         d="M 5.008,263 H 788 V 0 H 5.008 Z" /></clipPath><clipPath
       id="clipPath6178"
       clipPathUnits="userSpaceOnUse"><path
         id="path6176"
         d="M 71,45 H 716 V 182 H 71 Z" /></clipPath><clipPath
       id="clipPath6188"
       clipPathUnits="userSpaceOnUse"><path
         id="path6186"
         d="M 71,182 H 716 V 45 H 71 Z" /></clipPath><clipPath
       id="clipPath6198"
       clipPathUnits="userSpaceOnUse"><path
         id="path6196"
         d="M 71,45 H 716 V 182 H 71 Z" /></clipPath><clipPath
       id="clipPath6208"
       clipPathUnits="userSpaceOnUse"><path
         id="path6206"
         d="M 71,182 H 716 V 45 H 71 Z" /></clipPath><clipPath
       id="clipPath6218"
       clipPathUnits="userSpaceOnUse"><path
         id="path6216"
         d="M 71,45 H 716 V 182 H 71 Z" /></clipPath><clipPath
       id="clipPath6228"
       clipPathUnits="userSpaceOnUse"><path
         id="path6226"
         d="M 71,182 H 716 V 45 H 71 Z" /></clipPath><clipPath
       id="clipPath6238"
       clipPathUnits="userSpaceOnUse"><path
         id="path6236"
         d="M 71,45 H 716 V 182 H 71 Z" /></clipPath></defs><g
     transform="matrix(1.3333333,0,0,-1.3333333,0,349.99971)"
     id="g5988"><g
       id="g5990"><g
         transform="translate(0,-0.500214)"
         id="g5992"><g
           id="g5994"><g
             clip-path="url(#clipPath6000)"
             id="g5996"><g
               id="g6002"><g
                 id="g6004"><g
                   id="g6006"><g
                     clip-path="url(#clipPath6012)"
                     id="g6008"><g
                       id="g6014"><path
                         id="path6016"
                         style="fill:#f0c900;fill-opacity:1;fill-rule:nonzero;stroke:none"
                         d="M 30.008,0.5 C 13.438,0.5 0,14.082 0,30.844 V 232.656 C 0,249.418 13.438,263 30.008,263 h 727.496 c 16.57,0 29.996,-13.582 29.996,-30.344 V 30.844 C 787.5,14.082 774.074,0.5 757.504,0.5 Z" /></g></g></g></g></g></g></g></g></g><g
       id="g6018"><g
         clip-path="url(#clipPath6024)"
         id="g6020"><g
           transform="translate(0,-0.500214)"
           id="g6026"><g
             id="g6028"><g
               clip-path="url(#clipPath6034)"
               id="g6030"><g
                 id="g6036" /><g
                 id="g6038"><g
                   clip-path="url(#clipPath6044)"
                   id="g6040"><g
                     id="g6046"><g
                       id="g6048"><g
                         clip-path="url(#clipPath6054)"
                         id="g6050"><g
                           id="g6056" /><g
                           id="g6058"><g
                             clip-path="url(#clipPath6064)"
                             id="g6060"><g
                               id="g6066"><g
                                 id="g6068"><g
                                   clip-path="url(#clipPath6074)"
                                   id="g6070"><g
                                   id="g6076"><path
                                   id="path6078"
                                   style="fill:#000000;fill-opacity:1;fill-rule:nonzero;stroke:none"
                                   d="m 30.008,255.414 c -12.434,0 -22.516,-10.191 -22.516,-22.758 V 30.844 C 7.492,18.277 17.574,8.086 30.008,8.086 h 727.496 c 12.426,0 22.5,10.191 22.5,22.758 v 201.812 c 0,12.567 -10.074,22.758 -22.5,22.758 z m 0,-11.383 h 727.496 c 6.207,0 11.246,-5.097 11.246,-11.375 V 30.844 c 0,-6.278 -5.039,-11.375 -11.246,-11.375 H 30.008 c -6.219,0 -11.254,5.097 -11.254,11.375 v 201.812 c 0,6.278 5.035,11.375 11.254,11.375 z" /></g></g></g></g></g></g></g></g></g></g></g></g></g></g><path
           id="path6080"
           style="fill:#c1121c;fill-opacity:1;fill-rule:nonzero;stroke:none"
           d="M 707.98,243.535 C 479.449,180.594 247.836,114.629 18.754,50.058 V 30.344 c 0,-6.278 5.035,-11.379 11.254,-11.379 h 75.226 C 335.816,82.664 569.859,149.351 768.75,205.41 v 26.746 c 0,6.277 -5.039,11.379 -11.246,11.379 z" /></g></g><g
       id="g6082"><g
         clip-path="url(#clipPath6088)"
         id="g6084"><g
           transform="translate(0,-0.500214)"
           id="g6090"><g
             id="g6092"><g
               clip-path="url(#clipPath6098)"
               id="g6094"><g
                 id="g6100" /><g
                 id="g6102"><g
                   clip-path="url(#clipPath6108)"
                   id="g6104"><g
                     id="g6110"><g
                       id="g6112"><g
                         clip-path="url(#clipPath6118)"
                         id="g6114"><g
                           id="g6120" /><g
                           id="g6122"><g
                             clip-path="url(#clipPath6128)"
                             id="g6124"><g
                               id="g6130"><g
                                 id="g6132"><g
                                   clip-path="url(#clipPath6138)"
                                   id="g6134"><g
                                   id="g6140" /><g
                                   id="g6142"><g
                                   clip-path="url(#clipPath6148)"
                                   id="g6144"><g
                                   id="g6150"><g
                                   id="g6152"><g
                                   clip-path="url(#clipPath6158)"
                                   id="g6154"><g
                                   id="g6160" /><g
                                   id="g6162"><g
                                   clip-path="url(#clipPath6168)"
                                   id="g6164"><g
                                   id="g6170"><g
                                   id="g6172"><g
                                   clip-path="url(#clipPath6178)"
                                   id="g6174"><g
                                   id="g6180" /><g
                                   id="g6182"><g
                                   clip-path="url(#clipPath6188)"
                                   id="g6184"><g
                                   id="g6190"><g
                                   id="g6192"><g
                                   clip-path="url(#clipPath6198)"
                                   id="g6194"><g
                                   id="g6200" /><g
                                   id="g6202"><g
                                   clip-path="url(#clipPath6208)"
                                   id="g6204"><g
                                   id="g6210"><g
                                   id="g6212"><g
                                   clip-path="url(#clipPath6218)"
                                   id="g6214"><g
                                   id="g6220" /><g
                                   id="g6222"><g
                                   clip-path="url(#clipPath6228)"
                                   id="g6224"><g
                                   id="g6230"><g
                                   id="g6232"><g
                                   clip-path="url(#clipPath6238)"
                                   id="g6234"><g
                                   id="g6240"><path
                                   id="path6242"
                                   style="fill:#000000;fill-opacity:1;fill-rule:nonzero;stroke:none"
                                   d="m 71.895,181.078 h 15.679 v -68.109 c 0,-11.844 9.5,-21.453 21.215,-21.453 11.707,0 21.207,9.609 21.207,21.453 v 68.109 h 15.684 v -68.109 c 0,-20.602 -16.516,-37.309 -36.891,-37.309 -20.375,0 -36.894,16.707 -36.894,37.309 v 68.109" /><path
                                   id="path6244"
                                   style="fill:#000000;fill-opacity:1;fill-rule:nonzero;stroke:none"
                                   d="m 165.969,76.59 v 74.637 h 14.75 v -8.422 c 8.652,10.828 24.32,12.504 35.023,3.761 1.66,-1.359 3.145,-2.941 4.414,-4.683 9.676,11.965 27.098,13.746 38.93,3.965 6.434,-5.321 10.176,-13.274 10.176,-21.676 V 76.59 H 254.5 v 45.715 c 0,8.242 -6.605,14.922 -14.758,14.922 -8.144,0 -14.75,-6.68 -14.75,-14.922 V 76.59 h -14.758 v 45.715 c 0,8.242 -6.605,14.922 -14.757,14.922 -8.149,0 -14.758,-6.68 -14.758,-14.922 V 76.59 h -14.75" /><path
                                   id="path6246"
                                   style="fill:#000000;fill-opacity:1;fill-rule:nonzero;stroke:none"
                                   d="m 315.363,76.59 h -9.215 c -9.171,0 -16.601,7.515 -16.601,16.789 v 87.699 h 14.746 V 95.242 c 0,-2.57 2.07,-4.66 4.621,-4.66 h 6.449 V 76.59" /><path
                                   id="path6248"
                                   style="fill:#000000;fill-opacity:1;fill-rule:nonzero;stroke:none"
                                   d="m 390.992,108.313 h -46.121 v -1.872 c 0,-6.48 3.906,-12.32 9.859,-14.722 8.2,-3.321 17.579,-0.996 23.336,5.785 l 11.192,-9.723 c -9.86,-11.629 -25.942,-15.609 -40.004,-9.926 -11.559,4.676 -19.129,15.993 -19.129,28.586 v 14.934 c 0,17.004 13.617,30.781 30.426,30.781 16.808,0 30.441,-13.777 30.441,-30.781 z m -46.121,13.062 h 31.359 c 0,8.758 -7.015,15.852 -15.679,15.852 -8.653,0 -15.68,-7.094 -15.68,-15.852" /><path
                                   id="path6250"
                                   style="fill:#000000;fill-opacity:1;fill-rule:nonzero;stroke:none"
                                   d="m 426.023,76.59 h -14.75 v 74.644 h 14.75 z m 0,89.566 h -14.75 v 14.926 h 14.75 z" /><path
                                   id="path6252"
                                   style="fill:#000000;fill-opacity:1;fill-rule:nonzero;stroke:none"
                                   d="m 479.523,76.59 h -9.23 c -9.164,0 -16.59,7.515 -16.59,16.789 v 45.726 h -7.387 v 12.122 h 7.387 v 22.39 h 14.746 v -22.39 h 11.074 V 139.105 H 468.449 V 95.242 c 0,-2.57 2.074,-4.66 4.61,-4.66 h 6.464 V 76.59" /><path
                                   id="path6254"
                                   style="fill:#000000;fill-opacity:1;fill-rule:nonzero;stroke:none"
                                   d="m 555.133,76.59 h -14.746 v 8.418 c -8.641,-10.82 -24.324,-12.496 -35.024,-3.754 -5.843,4.785 -9.238,11.984 -9.238,19.598 v 50.375 h 14.742 v -45.711 c 0,-8.254 6.61,-14.934 14.762,-14.934 8.144,0 14.758,6.68 14.758,14.934 v 45.711 h 14.746 V 76.59" /><path
                                   id="path6256"
                                   style="fill:#000000;fill-opacity:1;fill-rule:nonzero;stroke:none"
                                   d="m 577.27,76.59 v 74.637 h 14.757 v -8.422 c 8.645,10.828 24.325,12.504 35.016,3.761 5.852,-4.785 9.25,-11.98 9.25,-19.597 V 76.59 h -14.746 v 45.715 c 0,8.242 -6.617,14.922 -14.758,14.922 -8.16,0 -14.762,-6.68 -14.762,-14.922 V 76.59 H 577.27" /><path
                                   id="path6258"
                                   style="fill:#000000;fill-opacity:1;fill-rule:nonzero;stroke:none"
                                   d="M 715.605,151.227 V 75.66 c 0,-11.308 -6.312,-21.656 -16.308,-26.715 -14.109,-7.129 -31.207,-3.398 -41.152,8.989 l 11.449,9.41 c 5.586,-6.953 15.183,-9.039 23.097,-5.047 5,2.535 8.157,7.703 8.157,13.363 v 9.348 c -8.641,-10.82 -24.325,-12.496 -35.016,-3.754 -5.848,4.785 -9.25,11.984 -9.25,19.598 v 26.117 c 0,13.91 11.148,25.187 24.895,25.187 7.531,0 14.644,-3.429 19.371,-9.351 v 8.422 z m -14.757,-45.711 v 16.789 c 0,8.242 -6.606,14.922 -14.75,14.922 -8.157,0 -14.758,-6.68 -14.758,-14.922 v -16.789 c 0,-8.254 6.601,-14.934 14.758,-14.934 8.144,0 14.75,6.68 14.75,14.934" /></g></g></g></g></g></g></g></g></g></g></g></g></g></g></g></g></g></g></g></g></g></g></g></g></g></g></g></g></g></g></g></g></g></g></g></g></g></g></g></g></g></g></svg>