<?xml version="1.0" encoding="UTF-8" standalone="no"?>
<svg xmlns:dc="http://purl.org/dc/elements/1.1/" xmlns:cc="http://creativecommons.org/ns#" xmlns:rdf="http://www.w3.org/1999/02/22-rdf-syntax-ns#" xmlns:svg="http://www.w3.org/2000/svg" xmlns="http://www.w3.org/2000/svg" viewBox="0 0 2502.3025 1602.4237" height="1602.4237" width="2502.3025" xml:space="preserve" version="1.1" id="svg16606"><metadata id="metadata16612"><rdf:RDF><cc:Work rdf:about=""><dc:format>image/svg+xml</dc:format><dc:type rdf:resource="http://purl.org/dc/dcmitype/StillImage"/><dc:title/></cc:Work></rdf:RDF></metadata><defs id="defs16610"/><g transform="matrix(1.25,0,0,-1.25,0,1602.4237)" id="g16614"><g id="g16616"><path id="path16618" style="fill:#ffffff;fill-opacity:1;fill-rule:nonzero;stroke:none" d="m 2000.922,1189.935 0,-1097.934 c 0,-50.32 -40.758,-91.082 -91.082,-91.082 l -1817.836,0 C 41.68,0.919 0.922,41.681 0.922,92.001 l 0,1097.934 c 0,50.324 40.758,91.082 91.082,91.082 l 1817.836,0 c 50.324,0 91.082,-40.758 91.082,-91.082 z"/><path id="path16620" style="fill:#000000;fill-opacity:1;fill-rule:nonzero;stroke:none" d="m 0,1189.935 c 0,50.832 41.172,92.004 92.004,92.004 l 1817.836,0 c 50.832,0 92.004,-41.172 92.004,-92.004 l 0,-1097.934 c 0,-50.832 -41.172,-92 -92.004,-92 l -1817.836,0 C 41.172,0.001 0,41.169 0,92.001 l 0,1097.934 z m 0.922,0 0,-1097.934 C 0.922,41.677 41.68,0.919 92.004,0.919 l 1817.836,0 c 50.324,0 91.082,40.758 91.082,91.082 l 0,1097.934 c 0,50.324 -40.758,91.082 -91.082,91.082 l -1817.836,0 c -50.324,0 -91.082,-40.758 -91.082,-91.082 z"/><path id="path16622" style="fill:#000000;fill-opacity:1;fill-rule:evenodd;stroke:none" d="m 28.926,1191.392 c 0,34.016 27.59,61.606 61.668,61.606 l 1820.316,0 c 34.016,0 61.61,-27.59 61.61,-61.606 l 0,-1100.625 c 0,-34.078 -27.594,-61.668 -61.61,-61.668 l -1820.316,0 c -34.078,0 -61.668,27.59 -61.668,61.668 l 0,1100.625 z m 44.461,1.945 0,-1104.484 c 0,-8.547 6.898,-15.445 15.445,-15.445 l 1824.238,0 c 8.489,0 15.387,6.898 15.387,15.445 l 0,1104.484 c 0,8.547 -6.898,15.446 -15.387,15.446 l -1824.238,0 c -8.547,0 -15.445,-6.899 -15.445,-15.446 z"/><path id="path16624" style="fill:#000000;fill-opacity:1;fill-rule:evenodd;stroke:none" d="m 1802.035,640.974 0,184.887 -955.14,84.719 -574.641,-252.801 c -9.316,-4.305 -13.383,-15.27 -9.078,-24.528 1.828,-4.007 5.07,-7.191 9.078,-9.078 l 574.641,-252.8 955.14,84.718 0,184.883"/><path id="path16626" style="fill:#ec7c25;fill-opacity:1;fill-rule:evenodd;stroke:none" d="m 1771.23,640.974 0,156.649 -918.882,81.535 -541.153,-238.184 541.153,-238.18 918.882,81.536 0,156.644 z"/></g></g></svg>