<?xml version="1.0" encoding="UTF-8" standalone="no"?>
<svg
   xmlns:dc="http://purl.org/dc/elements/1.1/"
   xmlns:cc="http://creativecommons.org/ns#"
   xmlns:rdf="http://www.w3.org/1999/02/22-rdf-syntax-ns#"
   xmlns:svg="http://www.w3.org/2000/svg"
   xmlns="http://www.w3.org/2000/svg"
   viewBox="0 0 1602.4237 2502.3025"
   height="2502.3025"
   width="1602.4237"
   xml:space="preserve"
   version="1.1"
   id="svg16544"><metadata
     id="metadata16550"><rdf:RDF><cc:Work
         rdf:about=""><dc:format>image/svg+xml</dc:format><dc:type
           rdf:resource="http://purl.org/dc/dcmitype/StillImage" /><dc:title></dc:title></cc:Work></rdf:RDF></metadata><defs
     id="defs16548" /><g
     transform="matrix(1.25,0,0,-1.25,0,2502.3026)"
     id="g16552"><g
       id="g16554"><path
         id="path16556"
         style="fill:#ffffff;fill-opacity:1;fill-rule:nonzero;stroke:none"
         d="m 92.004,0.92 1097.934,0 c 50.32,0 91.082,40.758 91.082,91.082 l 0,1817.836 c 0,50.324 -40.762,91.082 -91.082,91.082 l -1097.934,0 c -50.324,0 -91.082,-40.758 -91.082,-91.082 l 0,-1817.836 C 0.922,41.678 41.68,0.92 92.004,0.92 Z" /><path
         id="path16558"
         style="fill:#000000;fill-opacity:1;fill-rule:nonzero;stroke:none"
         d="M 92.004,2001.842 C 41.172,2001.842 0,1960.67 0,1909.838 L 0,92.002 C 0,41.17 41.172,-0.002 92.004,-0.002 l 1097.934,0 c 50.832,0 92,41.172 92,92.004 l 0,1817.836 c 0,50.832 -41.168,92.004 -92,92.004 l -1097.934,0 z m 0,-0.922 1097.934,0 c 50.324,0 91.082,-40.758 91.082,-91.082 l 0,-1817.836 c 0,-50.324 -40.758,-91.082 -91.082,-91.082 L 92.004,0.92 C 41.68,0.92 0.922,41.678 0.922,92.002 l 0,1817.836 c 0,50.324 40.758,91.082 91.082,91.082 z" /><path
         id="path16560"
         style="fill:#000000;fill-opacity:1;fill-rule:evenodd;stroke:none"
         d="m 90.547,1972.916 c -34.016,0 -61.606,-27.59 -61.606,-61.668 l 0,-1820.316 c 0,-34.016 27.59,-61.609 61.606,-61.609 l 1100.625,0 c 34.078,0 61.668,27.593 61.668,61.609 l 0,1820.316 c 0,34.078 -27.59,61.668 -61.668,61.668 l -1100.625,0 z m -1.945,-44.461 1104.484,0 c 8.547,0 15.445,-6.898 15.445,-15.445 l 0,-1824.238 c 0,-8.489 -6.898,-15.387 -15.445,-15.387 l -1104.484,0 c -8.547,0 -15.446,6.898 -15.446,15.387 l 0,1824.238 c 0,8.547 6.899,15.445 15.446,15.445 z" /><path
         id="path16562"
         style="fill:#000000;fill-opacity:1;fill-rule:evenodd;stroke:none"
         d="m 640.965,199.807 -184.887,0 -84.719,955.141 252.801,574.64 c 4.305,9.317 15.27,13.383 24.528,9.078 4.007,-1.828 7.191,-5.07 9.078,-9.078 l 252.8,-574.64 -84.718,-955.141 -184.883,0" /><path
         id="path16564"
         style="fill:#ec7c25;fill-opacity:1;fill-rule:evenodd;stroke:none"
         d="m 640.965,230.612 -156.649,0 -81.535,918.882 238.184,541.153 238.18,-541.153 -81.536,-918.882 -156.644,0 z" /><path
         id="path16566"
         style="fill:#000000;fill-opacity:1;fill-rule:evenodd;stroke:none"
         d="M 1155.984,1936.174 46.246,89.178 l 65.645,-39.473 1108.144,1844.254 0,42.215 -64.051,0 z" /><path
         id="path16568"
         style="fill:#000000;fill-opacity:1;fill-rule:evenodd;stroke:none"
         d="M 1022.883,1938.799 38.52,300.494 l 0,-148.675 1073.726,1786.98 -89.363,0 z" /><path
         id="path16570"
         style="fill:#000000;fill-opacity:1;fill-rule:evenodd;stroke:none"
         d="M 1217.176,1814.076 164.137,61.498 l 88.715,0 988.187,1644.645 0,93.59 -23.863,14.343 z" /></g></g></svg>