<?xml version="1.0" encoding="UTF-8" standalone="no"?>
<svg xmlns:dc="http://purl.org/dc/elements/1.1/" xmlns:cc="http://creativecommons.org/ns#" xmlns:rdf="http://www.w3.org/1999/02/22-rdf-syntax-ns#" xmlns:svg="http://www.w3.org/2000/svg" xmlns="http://www.w3.org/2000/svg" viewBox="0 0 1602.4237 2502.3025" height="2502.3025" width="1602.4237" xml:space="preserve" version="1.1" id="svg16628"><metadata id="metadata16634"><rdf:RDF><cc:Work rdf:about=""><dc:format>image/svg+xml</dc:format><dc:type rdf:resource="http://purl.org/dc/dcmitype/StillImage"/><dc:title/></cc:Work></rdf:RDF></metadata><defs id="defs16632"/><g transform="matrix(1.25,0,0,-1.25,0,2502.3026)" id="g16636"><g id="g16638"><path id="path16640" style="fill:#ffffff;fill-opacity:1;fill-rule:nonzero;stroke:none" d="M 1189.938,0.92 92.004,0.92 C 41.68,0.92 0.922,41.678 0.922,92.002 l 0,1817.836 c 0,50.324 40.758,91.082 91.082,91.082 l 1097.934,0 c 50.32,0 91.082,-40.758 91.082,-91.082 l 0,-1817.836 c 0,-50.324 -40.762,-91.082 -91.082,-91.082 z"/><path id="path16642" style="fill:#000000;fill-opacity:1;fill-rule:nonzero;stroke:none" d="m 1189.938,2001.842 c 50.832,0 92,-41.172 92,-92.004 l 0,-1817.836 c 0,-50.832 -41.168,-92.004 -92,-92.004 l -1097.934,0 C 41.172,-0.002 0,41.17 0,92.002 l 0,1817.836 c 0,50.832 41.172,92.004 92.004,92.004 l 1097.934,0 z m 0,-0.922 -1097.938,0 c -50.32,0 -91.078,-40.758 -91.078,-91.082 l 0,-1817.836 C 0.922,41.678 41.68,0.92 92,0.92 l 1097.938,0 c 50.32,0 91.078,40.758 91.078,91.082 l 0,1817.836 c 0,50.324 -40.758,91.082 -91.078,91.082 z"/><path id="path16644" style="fill:#000000;fill-opacity:1;fill-rule:evenodd;stroke:none" d="m 1191.391,1972.916 c 34.015,0 61.609,-27.59 61.609,-61.668 l 0,-1820.316 c 0,-34.016 -27.594,-61.609 -61.609,-61.609 l -1100.625,0 c -34.075,0 -61.664,27.593 -61.664,61.609 l 0,1820.316 c 0,34.078 27.589,61.668 61.664,61.668 l 1100.625,0 z m 1.945,-44.461 -1104.481,0 c -8.55,0 -15.449,-6.898 -15.449,-15.445 l 0,-1824.238 c 0,-8.489 6.899,-15.387 15.449,-15.387 l 1104.481,0 c 8.551,0 15.449,6.898 15.449,15.387 l 0,1824.238 c 0,8.547 -6.898,15.445 -15.449,15.445 z"/><path id="path16646" style="fill:#000000;fill-opacity:1;fill-rule:evenodd;stroke:none" d="m 640.977,199.807 184.882,0 84.719,955.141 -252.801,574.64 c -4.304,9.317 -15.269,13.383 -24.523,9.078 -4.012,-1.828 -7.195,-5.07 -9.082,-9.078 l -252.801,-574.64 84.719,-955.141 184.887,0"/><path id="path16648" style="fill:#ec7c25;fill-opacity:1;fill-rule:evenodd;stroke:none" d="m 640.977,230.612 156.644,0 81.535,918.882 -238.179,541.153 -238.18,-541.153 81.535,-918.882 156.645,0 z"/></g></g></svg>