<?xml version="1.0" encoding="UTF-8" standalone="no"?>
<svg
   xmlns:dc="http://purl.org/dc/elements/1.1/"
   xmlns:cc="http://creativecommons.org/ns#"
   xmlns:rdf="http://www.w3.org/1999/02/22-rdf-syntax-ns#"
   xmlns:svg="http://www.w3.org/2000/svg"
   xmlns="http://www.w3.org/2000/svg"
   viewBox="0 0 1251 1601.9473"
   height="1601.9473"
   width="1251"
   xml:space="preserve"
   version="1.1"
   id="svg11612"><metadata
     id="metadata11618"><rdf:RDF><cc:Work
         rdf:about=""><dc:format>image/svg+xml</dc:format><dc:type
           rdf:resource="http://purl.org/dc/dcmitype/StillImage" /><dc:title></dc:title></cc:Work></rdf:RDF></metadata><defs
     id="defs11616"><clipPath
       id="clipPath11636"
       clipPathUnits="userSpaceOnUse"><path
         id="path11638"
         d="m 0.461,1281.12 999.617,0 0,-1280.676 -999.617,0 0,1280.676 z" /></clipPath><clipPath
       id="clipPath11646"
       clipPathUnits="userSpaceOnUse"><path
         id="path11648"
         d="m 344,1016 113,0 0,214 -113,0 0,-214 z" /></clipPath></defs><g
     transform="matrix(1.25,0,0,-1.25,0,1601.9473)"
     id="g11620"><g
       id="g11622"><path
         id="path11624"
         style="fill:#ffffff;fill-opacity:1;fill-rule:nonzero;stroke:none"
         d="m 47.234,1281.159 c -25.828,0 -46.832,-21.007 -46.832,-46.836 l 0,-1187.066 C 0.402,21.429 21.406,0.402 47.234,0.402 l 906.332,0 c 25.829,0 46.836,21.027 46.836,46.855 l 0,1187.066 c 0,25.829 -21.007,46.836 -46.836,46.836 l -906.332,0 z" /><path
         id="path11626"
         style="fill:#000000;fill-opacity:1;fill-rule:nonzero;stroke:none"
         d="m 48.504,12.433 c -19.942,0 -36.106,16.183 -36.106,36.105 l 0,1184.539 c 0,19.922 16.164,36.082 36.106,36.082 l 903.793,0 c 19.941,0 36.105,-16.16 36.105,-36.082 l 0,-1184.539 c 0,-19.922 -16.164,-36.105 -36.105,-36.105" /><path
         id="path11628"
         style="fill:#ffffff;fill-opacity:1;fill-rule:nonzero;stroke:none"
         d="m 48.504,28.484 c -11.066,0 -20.055,8.961 -20.055,20.054 l 0,1184.539 c 0,11.071 8.989,20.055 20.055,20.055 l 903.793,0 c 11.07,0 20.055,-8.984 20.055,-20.055 l 0,-1184.539 c 0,-11.093 -8.985,-20.054 -20.055,-20.054" /><path
         id="path11630"
         style="fill:#000000;fill-opacity:1;fill-rule:nonzero;stroke:none"
         d="M 47.234,1281.558 C 21.191,1281.558 0,1260.366 0,1234.323 L 0,47.257 C 0,21.214 21.188,-0.001 47.234,-0.001 l 906.332,0 c 26.043,0 47.235,21.215 47.235,47.258 l 0,1187.066 c 0,26.043 -21.192,47.235 -47.235,47.235 l -906.332,0 z m 0,-0.399 906.332,0 c 25.829,0 46.832,-21.007 46.832,-46.836 l 0,-1187.066 c 0,-25.828 -21.003,-46.855 -46.832,-46.855 l -906.332,0 C 21.406,0.402 0.398,21.429 0.398,47.257 l 0,1187.066 c 0,25.829 21.008,46.836 46.836,46.836 z" /></g><g
       id="g11632"><g
         clip-path="url(#clipPath11636)"
         id="g11634"><g
           transform="translate(0,-0.442139)"
           id="g11640"><g
             id="g11642"><g
               clip-path="url(#clipPath11646)"
               id="g11644"><g
                 id="g11650"><path
                   id="path11652"
                   style="fill:#000000;fill-opacity:1;fill-rule:nonzero;stroke:none"
                   d="m 368.316,1229.562 c 0,-64.492 10.832,-128.5 31.993,-189.421 21.179,60.921 31.988,124.929 31.988,189.421 l 23.988,0 c 0,-67.167 -11.269,-133.878 -33.316,-197.324 l 0,0.028 c -4.36,-12.543 -18.024,-19.145 -30.539,-14.786 -6.934,2.395 -12.364,7.852 -14.785,14.786 -22.047,63.418 -33.317,130.129 -33.317,197.296" /></g></g></g></g><path
           id="path11654"
           style="fill:#000000;fill-opacity:1;fill-rule:nonzero;stroke:none"
           d="m 104.41,1046.632 -35.965,-9.305 c -5.152,-1.324 -10.375,1.754 -11.703,6.911 -0.691,2.625 -0.203,5.453 1.328,7.722 l 70.328,105.121 70.356,-105.121 c 2.957,-4.41 1.773,-10.351 -2.629,-13.308 -2.266,-1.528 -5.098,-2.02 -7.746,-1.325 l -35.969,9.305 0,-33.621 c 0,-145.402 63.192,-283.637 173.156,-378.664 l 44.891,-38.774 C 490.977,491.421 560.234,339.929 560.234,180.562 l 0,-56.028 -47.972,0 0,56.028 c 0,145.422 -63.192,283.609 -173.157,378.636 l -44.89,38.825 C 173.695,702.152 104.41,853.64 104.41,1013.011" /><path
           id="path11656"
           style="fill:#000000;fill-opacity:1;fill-rule:nonzero;stroke:none"
           d="m 680.223,1046.632 -35.996,-9.305 c -5.149,-1.324 -10.375,1.754 -11.7,6.911 -0.652,2.625 -0.203,5.453 1.305,7.722 l 70.356,105.121 70.351,-105.121 c 2.957,-4.41 1.754,-10.351 -2.625,-13.308 -2.269,-1.528 -5.074,-2.02 -7.723,-1.325 l -35.996,9.305 0,-922.098 -47.968,0" /><path
           id="path11658"
           style="fill:#000000;fill-opacity:1;fill-rule:nonzero;stroke:none"
           d="m 848.152,1046.632 -36.019,-9.305 c -5.098,-1.324 -10.348,1.754 -11.672,6.911 -0.695,2.625 -0.207,5.453 1.324,7.722 l 70.356,105.121 70.351,-105.121 c 2.957,-4.41 1.754,-10.351 -2.648,-13.308 -2.27,-1.528 -5.074,-2.02 -7.727,-1.325 l -35.992,9.305 0,-922.098 -47.973,0" /></g></g></g></svg>