<?xml version="1.0" encoding="UTF-8" standalone="no"?>
<svg
   xmlns:dc="http://purl.org/dc/elements/1.1/"
   xmlns:cc="http://creativecommons.org/ns#"
   xmlns:rdf="http://www.w3.org/1999/02/22-rdf-syntax-ns#"
   xmlns:svg="http://www.w3.org/2000/svg"
   xmlns="http://www.w3.org/2000/svg"
   viewBox="0 0 1251 1601.9473"
   height="1601.9473"
   width="1251"
   xml:space="preserve"
   version="1.1"
   id="svg12511"><metadata
     id="metadata12517"><rdf:RDF><cc:Work
         rdf:about=""><dc:format>image/svg+xml</dc:format><dc:type
           rdf:resource="http://purl.org/dc/dcmitype/StillImage" /><dc:title></dc:title></cc:Work></rdf:RDF></metadata><defs
     id="defs12515" /><g
     transform="matrix(1.25,0,0,-1.25,0,1601.9473)"
     id="g12519"><g
       id="g12521"><path
         id="path12523"
         style="fill:#ffffff;fill-opacity:1;fill-rule:nonzero;stroke:none"
         d="m 953.566,1281.159 c 25.829,0 46.832,-21.007 46.832,-46.836 l 0,-1187.066 c 0,-25.828 -21.003,-46.855 -46.832,-46.855 l -906.332,0 C 21.406,0.402 0.398,21.429 0.398,47.257 l 0,1187.066 c 0,25.829 21.008,46.836 46.836,46.836 l 906.332,0 z" /><path
         id="path12525"
         style="fill:#000000;fill-opacity:1;fill-rule:nonzero;stroke:none"
         d="m 952.297,12.433 c 19.941,0 36.105,16.183 36.105,36.105 l 0,1184.539 c 0,19.922 -16.164,36.082 -36.105,36.082 l -903.793,0 c -19.942,0 -36.106,-16.16 -36.106,-36.082 l 0,-1184.539 c 0,-19.922 16.164,-36.105 36.106,-36.105" /><path
         id="path12527"
         style="fill:#ffffff;fill-opacity:1;fill-rule:nonzero;stroke:none"
         d="m 952.297,28.484 c 11.066,0 20.055,8.961 20.055,20.054 l 0,1184.539 c 0,11.071 -8.989,20.055 -20.055,20.055 l -903.793,0 c -11.07,0 -20.055,-8.984 -20.055,-20.055 l 0,-1184.539 c 0,-11.093 8.985,-20.054 20.055,-20.054" /><path
         id="path12529"
         style="fill:#000000;fill-opacity:1;fill-rule:nonzero;stroke:none"
         d="m 953.566,1281.558 c 26.043,0 47.235,-21.192 47.235,-47.235 l 0,-1187.066 c 0,-26.043 -21.188,-47.258 -47.235,-47.258 l -906.332,0 C 21.191,-0.001 0,21.214 0,47.257 l 0,1187.066 c 0,26.043 21.191,47.235 47.234,47.235 l 906.332,0 z m 0,-0.399 -906.332,0 c -25.828,0 -46.832,-21.007 -46.832,-46.836 l 0,-1187.066 C 0.402,21.429 21.406,0.402 47.234,0.402 l 906.332,0 c 25.829,0 46.836,21.027 46.836,46.855 l 0,1187.066 c 0,25.829 -21.007,46.836 -46.836,46.836 z" /><path
         id="path12531"
         style="fill:#000000;fill-opacity:1;fill-rule:nonzero;stroke:none"
         d="m 900.391,1046.632 35.968,-9.305 c 5.125,-1.324 10.375,1.762 11.7,6.911 0.695,2.625 0.203,5.453 -1.325,7.722 l -70.355,105.125 -70.356,-105.125 c -2.929,-4.41 -1.753,-10.347 2.653,-13.332 2.269,-1.504 5.097,-1.988 7.726,-1.301 l 35.989,9.305 0,-33.621 c 0,-206.605 -97.168,-401.125 -262.297,-525.086 l -9.61,-7.215 C 489.891,412.702 436.539,305.948 436.539,192.566 l 0,-68.035 47.996,0 0,68.035 c 0,98.242 46.215,190.773 124.754,249.73 l 9.609,7.192 c 177.184,133.035 281.493,341.804 281.493,563.523" /><path
         id="path12533"
         style="fill:#000000;fill-opacity:1;fill-rule:nonzero;stroke:none"
         d="m 732.434,1046.632 35.992,-9.305 c 5.148,-1.324 10.375,1.762 11.699,6.911 0.695,2.625 0.207,5.453 -1.324,7.722 l -70.356,105.125 -70.328,-105.125 c -2.957,-4.41 -1.797,-10.347 2.598,-13.332 2.297,-1.504 5.101,-1.988 7.75,-1.301 l 35.992,9.305 0,-33.621 c 0,-153.684 -72.289,-298.395 -195.129,-390.621 l -9.609,-7.188 C 346.809,515.429 268.629,358.839 268.629,192.566 l 0,-68.035 47.973,0 0,68.035 c 0,151.16 71.093,293.5 191.921,384.195 l 9.582,7.215 c 134.926,101.273 214.329,260.234 214.329,429.035" /><path
         id="path12535"
         style="fill:#000000;fill-opacity:1;fill-rule:nonzero;stroke:none"
         d="m 564.5,1046.632 35.996,-9.305 c 5.121,-1.324 10.371,1.762 11.699,6.911 0.672,2.625 0.203,5.453 -1.328,7.722 L 540.512,1157.085 470.16,1051.96 c -2.957,-4.41 -1.754,-10.347 2.649,-13.332 2.269,-1.504 5.074,-1.988 7.722,-1.301 l 35.996,9.305 0,-33.621 c 0,-100.766 -47.414,-195.668 -127.965,-256.156 l -9.585,-7.192 C 203.781,618.159 100.672,411.761 100.672,192.566 l 0,-68.035 47.973,0 0,68.035 c 0,204.078 95.996,396.254 259.113,518.683 l 9.586,7.188 C 509.977,787.976 564.5,897.105 564.5,1013.011" /><path
         id="path12537"
         style="fill:#000000;fill-opacity:1;fill-rule:nonzero;stroke:none"
         d="m 396.57,1229.12 c 0,-64.492 -10.836,-128.523 -31.992,-189.422 -21.183,60.899 -31.992,124.93 -31.992,189.422 l -23.988,0 c 0,-67.168 11.269,-133.875 33.316,-197.324 l 0,0.02 c 4.387,-12.539 18.047,-19.168 30.566,-14.809 6.907,2.422 12.336,7.879 14.758,14.809 22.051,63.422 33.317,130.132 33.317,197.3" /></g></g></svg>