<?xml version="1.0" encoding="UTF-8" standalone="no"?>
<svg
   xmlns:dc="http://purl.org/dc/elements/1.1/"
   xmlns:cc="http://creativecommons.org/ns#"
   xmlns:rdf="http://www.w3.org/1999/02/22-rdf-syntax-ns#"
   xmlns:svg="http://www.w3.org/2000/svg"
   xmlns="http://www.w3.org/2000/svg"
   viewBox="0 0 1251 1601.9473"
   height="1601.9473"
   width="1251"
   xml:space="preserve"
   version="1.1"
   id="svg11809"><metadata
     id="metadata11815"><rdf:RDF><cc:Work
         rdf:about=""><dc:format>image/svg+xml</dc:format><dc:type
           rdf:resource="http://purl.org/dc/dcmitype/StillImage" /><dc:title></dc:title></cc:Work></rdf:RDF></metadata><defs
     id="defs11813" /><g
     transform="matrix(1.25,0,0,-1.25,0,1601.9473)"
     id="g11817"><g
       id="g11819"><path
         id="path11821"
         style="fill:#ffffff;fill-opacity:1;fill-rule:nonzero;stroke:none"
         d="m 47.234,1281.159 c -25.828,0 -46.832,-21.007 -46.832,-46.836 l 0,-1187.066 C 0.402,21.429 21.406,0.402 47.234,0.402 l 906.332,0 c 25.829,0 46.836,21.027 46.836,46.855 l 0,1187.066 c 0,25.829 -21.007,46.836 -46.836,46.836 l -906.332,0 z" /><path
         id="path11823"
         style="fill:#000000;fill-opacity:1;fill-rule:nonzero;stroke:none"
         d="m 48.504,12.433 c -19.942,0 -36.106,16.183 -36.106,36.105 l 0,1184.539 c 0,19.922 16.164,36.082 36.106,36.082 l 903.793,0 c 19.941,0 36.105,-16.16 36.105,-36.082 l 0,-1184.539 c 0,-19.922 -16.164,-36.105 -36.105,-36.105" /><path
         id="path11825"
         style="fill:#ffffff;fill-opacity:1;fill-rule:nonzero;stroke:none"
         d="m 48.504,28.484 c -11.066,0 -20.055,8.961 -20.055,20.054 l 0,1184.539 c 0,11.071 8.989,20.055 20.055,20.055 l 903.793,0 c 11.07,0 20.055,-8.984 20.055,-20.055 l 0,-1184.539 c 0,-11.093 -8.985,-20.054 -20.055,-20.054" /><path
         id="path11827"
         style="fill:#000000;fill-opacity:1;fill-rule:nonzero;stroke:none"
         d="M 47.234,1281.558 C 21.191,1281.558 0,1260.366 0,1234.323 L 0,47.257 C 0,21.214 21.188,-0.001 47.234,-0.001 l 906.332,0 c 26.043,0 47.235,21.215 47.235,47.258 l 0,1187.066 c 0,26.043 -21.192,47.235 -47.235,47.235 l -906.332,0 z m 0,-0.399 906.332,0 c 25.829,0 46.832,-21.007 46.832,-46.836 l 0,-1187.066 c 0,-25.828 -21.003,-46.855 -46.832,-46.855 l -906.332,0 C 21.406,0.402 0.398,21.429 0.398,47.257 l 0,1187.066 c 0,25.829 21.008,46.836 46.836,46.836 z" /><path
         id="path11829"
         style="fill:#000000;fill-opacity:1;fill-rule:nonzero;stroke:none"
         d="m 468.281,1229.12 c 0,-64.515 10.809,-128.519 31.989,-189.418 21.16,60.899 31.992,124.903 31.992,189.418 l 23.984,0 c 0,-67.191 -11.266,-133.875 -33.34,-197.32 -4.359,-12.516 -18.019,-19.141 -30.535,-14.785 -6.91,2.422 -12.363,7.851 -14.758,14.785 -22.074,63.445 -33.343,130.129 -33.343,197.32" /><path
         id="path11831"
         style="fill:#000000;fill-opacity:1;fill-rule:nonzero;stroke:none"
         d="m 98.418,1046.613 -35.988,-9.305 c -5.125,-1.328 -10.375,1.75 -11.676,6.906 -0.692,2.652 -0.223,5.481 1.305,7.75 l 70.351,105.094 70.356,-105.094 c 2.957,-4.41 1.754,-10.375 -2.629,-13.332 -2.289,-1.531 -5.098,-2.019 -7.746,-1.324 l -35.993,9.305 0,-65.641 c 0,-118.836 52.254,-231.652 142.872,-308.453 l 93.089,-78.918 C 499.004,494.722 566.246,349.531 566.246,196.566 l 0,-72.035 -47.996,0 0,68.031 c 0,138.847 -61.023,270.656 -166.887,360.379 L 258.25,635.863 C 156.875,721.788 98.426,848.015 98.426,980.972" /><path
         id="path11833"
         style="fill:#000000;fill-opacity:1;fill-rule:nonzero;stroke:none"
         d="m 258.344,1046.613 -35.965,-9.305 c -5.125,-1.328 -10.375,1.75 -11.699,6.906 -0.696,2.652 -0.203,5.481 1.324,7.75 l 70.351,105.094 70.356,-105.094 c 2.93,-4.41 1.754,-10.375 -2.652,-13.332 -2.27,-1.531 -5.098,-2.019 -7.723,-1.324 l -35.992,9.305 0,-65.641 c 0,-71.781 31.554,-139.914 86.285,-186.281 l 98.262,-72.825 c 154.316,-130.789 243.277,-322.91 243.277,-525.3 l 0,-72.035 -47.973,0 0,68.031 c 0,188.246 -82.789,366.984 -226.3,488.648 l -98.29,76.824 c -65.484,55.52 -103.261,137.063 -103.261,222.938" /><path
         id="path11835"
         style="fill:#000000;fill-opacity:1;fill-rule:nonzero;stroke:none"
         d="m 854.125,1046.613 -35.992,-9.305 c -5.125,-1.328 -10.371,1.75 -11.699,6.906 -0.672,2.652 -0.204,5.481 1.328,7.75 l 70.351,105.094 70.352,-105.094 c 2.957,-4.41 1.754,-10.375 -2.649,-13.332 -2.273,-1.531 -5.074,-2.019 -7.726,-1.324 l -35.992,9.305 0,-922.082 -47.973,0" /></g></g></svg>