<?xml version="1.0" encoding="UTF-8" standalone="no"?>
<svg
   xmlns:dc="http://purl.org/dc/elements/1.1/"
   xmlns:cc="http://creativecommons.org/ns#"
   xmlns:rdf="http://www.w3.org/1999/02/22-rdf-syntax-ns#"
   xmlns:svg="http://www.w3.org/2000/svg"
   xmlns="http://www.w3.org/2000/svg"
   viewBox="0 0 1251 1601.9473"
   height="1601.9473"
   width="1251"
   xml:space="preserve"
   version="1.1"
   id="svg11413"><metadata
     id="metadata11419"><rdf:RDF><cc:Work
         rdf:about=""><dc:format>image/svg+xml</dc:format><dc:type
           rdf:resource="http://purl.org/dc/dcmitype/StillImage" /><dc:title></dc:title></cc:Work></rdf:RDF></metadata><defs
     id="defs11417" /><g
     transform="matrix(1.25,0,0,-1.25,0,1601.9473)"
     id="g11421"><g
       id="g11423"><path
         id="path11425"
         style="fill:#ffffff;fill-opacity:1;fill-rule:nonzero;stroke:none"
         d="m 47.234,1281.159 c -25.828,0 -46.832,-21.007 -46.832,-46.836 l 0,-1187.066 C 0.402,21.429 21.406,0.402 47.234,0.402 l 906.332,0 c 25.829,0 46.836,21.027 46.836,46.855 l 0,1187.066 c 0,25.829 -21.007,46.836 -46.836,46.836 l -906.332,0 z" /><path
         id="path11427"
         style="fill:#000000;fill-opacity:1;fill-rule:nonzero;stroke:none"
         d="m 48.504,12.433 c -19.942,0 -36.106,16.183 -36.106,36.105 l 0,1184.539 c 0,19.922 16.164,36.082 36.106,36.082 l 903.793,0 c 19.941,0 36.105,-16.16 36.105,-36.082 l 0,-1184.539 c 0,-19.922 -16.164,-36.105 -36.105,-36.105" /><path
         id="path11429"
         style="fill:#ffffff;fill-opacity:1;fill-rule:nonzero;stroke:none"
         d="m 48.504,28.484 c -11.066,0 -20.055,8.961 -20.055,20.054 l 0,1184.539 c 0,11.071 8.989,20.055 20.055,20.055 l 903.793,0 c 11.07,0 20.055,-8.984 20.055,-20.055 l 0,-1184.539 c 0,-11.093 -8.985,-20.054 -20.055,-20.054" /><path
         id="path11431"
         style="fill:#000000;fill-opacity:1;fill-rule:nonzero;stroke:none"
         d="M 47.234,1281.558 C 21.191,1281.558 0,1260.366 0,1234.323 L 0,47.257 C 0,21.214 21.188,-0.001 47.234,-0.001 l 906.332,0 c 26.043,0 47.235,21.215 47.235,47.258 l 0,1187.066 c 0,26.043 -21.192,47.235 -47.235,47.235 l -906.332,0 z m 0,-0.399 906.332,0 c 25.829,0 46.832,-21.007 46.832,-46.836 l 0,-1187.066 c 0,-25.828 -21.003,-46.855 -46.832,-46.855 l -906.332,0 C 21.406,0.402 0.398,21.429 0.398,47.257 l 0,1187.066 c 0,25.829 21.008,46.836 46.836,46.836 z" /><path
         id="path11433"
         style="fill:#000000;fill-opacity:1;fill-rule:nonzero;stroke:none"
         d="m 532.273,52.495 c 0,64.493 -10.808,128.5 -31.992,189.422 C 479.098,180.995 468.289,116.988 468.289,52.495 l -24.008,0 c 0,67.168 11.262,133.852 33.336,197.297 4.336,12.516 18.024,19.145 30.539,14.785 6.938,-2.394 12.364,-7.851 14.789,-14.785 22.047,-63.445 33.313,-130.129 33.313,-197.297" /><path
         id="path11435"
         style="fill:#000000;fill-opacity:1;fill-rule:nonzero;stroke:none"
         d="m 468.289,1229.12 c 0,-64.492 10.809,-128.523 31.992,-189.422 21.184,60.899 31.992,124.93 31.992,189.422 l 23.985,0 c 0,-67.168 -11.266,-133.879 -33.313,-197.324 -4.386,-12.539 -18.05,-19.168 -30.566,-14.808 -6.906,2.421 -12.363,7.875 -14.762,14.808 -22.074,63.422 -33.336,130.133 -33.336,197.301" /><path
         id="path11437"
         style="fill:#000000;fill-opacity:1;fill-rule:nonzero;stroke:none"
         d="m 196.383,1046.632 -35.996,-9.305 c -5.121,-1.324 -10.348,1.754 -11.672,6.911 -0.695,2.625 -0.203,5.453 1.324,7.722 l 70.332,105.121 70.352,-105.121 c 2.957,-4.41 1.797,-10.351 -2.625,-13.332 -2.27,-1.508 -5.098,-1.996 -7.75,-1.305 l -35.969,9.305 0,-33.621 c 0,-145.402 63.191,-283.637 173.16,-378.664 L 462.43,595.546 C 582.949,491.413 652.207,339.925 652.207,180.558 l 0,-56.027 -47.977,0 0,56.027 c 0,145.422 -63.214,283.609 -173.156,378.637 l -44.89,38.796 C 265.664,702.148 196.383,853.636 196.383,1013.007" /><path
         id="path11439"
         style="fill:#000000;fill-opacity:1;fill-rule:nonzero;stroke:none"
         d="m 756.184,1046.632 -35.996,-9.305 c -5.122,-1.324 -10.348,1.754 -11.672,6.911 -0.715,2.625 -0.223,5.453 1.324,7.722 l 70.328,105.121 70.355,-105.121 c 2.957,-4.41 1.793,-10.351 -2.625,-13.332 -2.293,-1.508 -5.097,-1.996 -7.75,-1.305 l -35.992,9.305 0,-922.097 -47.972,0" /></g></g></svg>