<?xml version="1.0" encoding="UTF-8" standalone="no"?>
<svg
   xmlns:dc="http://purl.org/dc/elements/1.1/"
   xmlns:cc="http://creativecommons.org/ns#"
   xmlns:rdf="http://www.w3.org/1999/02/22-rdf-syntax-ns#"
   xmlns:svg="http://www.w3.org/2000/svg"
   xmlns="http://www.w3.org/2000/svg"
   viewBox="0 0 1251 1601.9473"
   height="1601.9473"
   width="1251"
   xml:space="preserve"
   version="1.1"
   id="svg12159"><metadata
     id="metadata12165"><rdf:RDF><cc:Work
         rdf:about=""><dc:format>image/svg+xml</dc:format><dc:type
           rdf:resource="http://purl.org/dc/dcmitype/StillImage" /><dc:title></dc:title></cc:Work></rdf:RDF></metadata><defs
     id="defs12163" /><g
     transform="matrix(1.25,0,0,-1.25,0,1601.9473)"
     id="g12167"><g
       id="g12169"><path
         id="path12171"
         style="fill:#ffffff;fill-opacity:1;fill-rule:nonzero;stroke:none"
         d="m 953.566,1281.159 c 25.829,0 46.832,-21.007 46.832,-46.836 l 0,-1187.066 c 0,-25.828 -21.003,-46.855 -46.832,-46.855 l -906.332,0 C 21.406,0.402 0.398,21.429 0.398,47.257 l 0,1187.066 c 0,25.829 21.008,46.836 46.836,46.836 l 906.332,0 z" /><path
         id="path12173"
         style="fill:#000000;fill-opacity:1;fill-rule:nonzero;stroke:none"
         d="m 952.297,12.433 c 19.941,0 36.105,16.183 36.105,36.105 l 0,1184.539 c 0,19.922 -16.164,36.082 -36.105,36.082 l -903.793,0 c -19.942,0 -36.106,-16.16 -36.106,-36.082 l 0,-1184.539 c 0,-19.922 16.164,-36.105 36.106,-36.105" /><path
         id="path12175"
         style="fill:#ffffff;fill-opacity:1;fill-rule:nonzero;stroke:none"
         d="m 952.297,28.484 c 11.066,0 20.055,8.961 20.055,20.054 l 0,1184.539 c 0,11.071 -8.989,20.055 -20.055,20.055 l -903.793,0 c -11.07,0 -20.055,-8.984 -20.055,-20.055 l 0,-1184.539 c 0,-11.093 8.985,-20.054 20.055,-20.054" /><path
         id="path12177"
         style="fill:#000000;fill-opacity:1;fill-rule:nonzero;stroke:none"
         d="m 773.109,1047.441 36.082,-9.328 c 5.161,-1.336 10.414,1.765 11.727,6.925 0.68,2.649 0.203,5.481 -1.313,7.743 l -70.558,105.347 -70.555,-105.347 c -2.969,-4.415 -1.789,-10.391 2.625,-13.333 2.285,-1.539 5.113,-2.015 7.762,-1.335 l 36.105,9.324 0,-53.739 c 0,-130.019 -64.964,-251.441 -173.121,-323.605 L 425.801,585.976 C 302.027,503.421 227.715,364.48 227.715,215.695 l 0,-92.247 48.101,0 0,92.247 c 0,132.691 66.301,256.625 176.696,330.261 l 126.062,84.114 c 121.535,81.086 194.535,217.535 194.535,363.628" /><path
         id="path12179"
         style="fill:#000000;fill-opacity:1;fill-rule:nonzero;stroke:none"
         d="m 468.312,51.265 c 0,64.625 10.844,128.777 32.098,189.805 21.235,-61.028 32.055,-125.18 32.055,-189.805 l 24.086,0 c 0,67.32 -11.297,134.141 -33.434,197.726 -4.371,12.52 -18.066,19.149 -30.629,14.805 -6.949,-2.398 -12.402,-7.879 -14.804,-14.805 C 455.547,185.406 444.25,118.585 444.25,51.265" /><path
         id="path12181"
         style="fill:#000000;fill-opacity:1;fill-rule:nonzero;stroke:none"
         d="m 532.465,1230.316 c 0,-64.625 -10.82,-128.778 -32.055,-189.828 -21.254,61.05 -32.098,125.203 -32.098,189.828 l -24.062,0 c 0,-67.321 11.297,-134.164 33.434,-197.727 4.371,-12.539 18.066,-19.172 30.628,-14.805 6.95,2.399 12.383,7.856 14.805,14.805 22.137,63.563 33.434,130.406 33.434,197.727" /><path
         id="path12183"
         style="fill:#000000;fill-opacity:1;fill-rule:nonzero;stroke:none"
         d="m 953.566,1281.558 c 26.043,0 47.235,-21.192 47.235,-47.235 l 0,-1187.066 c 0,-26.043 -21.188,-47.258 -47.235,-47.258 l -906.332,0 C 21.191,-0.001 0,21.214 0,47.257 l 0,1187.066 c 0,26.043 21.191,47.235 47.234,47.235 l 906.332,0 z m 0,-0.399 -906.332,0 c -25.828,0 -46.832,-21.007 -46.832,-46.836 l 0,-1187.066 C 0.402,21.429 21.406,0.402 47.234,0.402 l 906.332,0 c 25.829,0 46.836,21.027 46.836,46.855 l 0,1187.066 c 0,25.829 -21.007,46.836 -46.836,46.836 z" /></g></g></svg>