<?xml version="1.0" encoding="UTF-8" standalone="no"?>
<svg
   xmlns:dc="http://purl.org/dc/elements/1.1/"
   xmlns:cc="http://creativecommons.org/ns#"
   xmlns:rdf="http://www.w3.org/1999/02/22-rdf-syntax-ns#"
   xmlns:svg="http://www.w3.org/2000/svg"
   xmlns="http://www.w3.org/2000/svg"
   viewBox="0 0 1251.0012 1601.9487"
   height="1601.9487"
   width="1251.0012"
   xml:space="preserve"
   version="1.1"
   id="svg7752"><metadata
     id="metadata7758"><rdf:RDF><cc:Work
         rdf:about=""><dc:format>image/svg+xml</dc:format><dc:type
           rdf:resource="http://purl.org/dc/dcmitype/StillImage" /><dc:title></dc:title></cc:Work></rdf:RDF></metadata><defs
     id="defs7756" /><g
     transform="matrix(1.25,0,0,-1.25,0,1601.9487)"
     id="g7760"><g
       id="g7762"><path
         id="path7764"
         style="fill:#ffffff;fill-opacity:1;fill-rule:nonzero;stroke:none"
         d="m 47.234,1281.161 c -25.828,0 -46.832,-21.008 -46.832,-46.836 l 0,-1187.067 C 0.402,21.43 21.406,0.403 47.234,0.403 l 906.332,0 c 25.829,0 46.836,21.027 46.836,46.855 l 0,1187.067 c 0,25.828 -21.007,46.836 -46.836,46.836 l -906.332,0 z" /><path
         id="path7766"
         style="fill:#000000;fill-opacity:1;fill-rule:nonzero;stroke:none"
         d="m 48.504,12.434 c -19.942,0 -36.106,16.184 -36.106,36.105 l 0,1184.539 c 0,19.922 16.164,36.083 36.106,36.083 l 903.793,0 c 19.941,0 36.105,-16.161 36.105,-36.083 l 0,-1184.539 c 0,-19.921 -16.164,-36.105 -36.105,-36.105" /><path
         id="path7768"
         style="fill:#ffffff;fill-opacity:1;fill-rule:nonzero;stroke:none"
         d="m 48.504,28.485 c -11.066,0 -20.055,8.961 -20.055,20.054 l 0,1184.539 c 0,11.071 8.989,20.055 20.055,20.055 l 903.793,0 c 11.07,0 20.055,-8.984 20.055,-20.055 l 0,-1184.539 c 0,-11.093 -8.985,-20.054 -20.055,-20.054" /><path
         id="path7770"
         style="fill:#000000;fill-opacity:1;fill-rule:nonzero;stroke:none"
         d="M 47.234,1281.559 C 21.191,1281.559 0,1260.368 0,1234.325 L 0,47.258 C 0,21.215 21.188,0 47.234,0 l 906.332,0 c 26.043,0 47.235,21.215 47.235,47.258 l 0,1187.067 c 0,26.043 -21.192,47.234 -47.235,47.234 l -906.332,0 z m 0,-0.398 906.332,0 c 25.829,0 46.832,-21.008 46.832,-46.836 l 0,-1187.067 c 0,-25.828 -21.003,-46.855 -46.832,-46.855 l -906.332,0 C 21.406,0.403 0.398,21.43 0.398,47.258 l 0,1187.067 c 0,25.828 21.008,46.836 46.836,46.836 z" /><path
         id="path7772"
         style="fill:#000000;fill-opacity:1;fill-rule:nonzero;stroke:none"
         d="m 432.492,55.106 c 0,64.402 -10.832,128.258 -32.035,189.07 C 379.25,183.364 368.422,119.508 368.422,55.106 l -23.981,0 c 0,67.035 11.239,133.617 33.309,196.879 l 0,0.093 0,-0.093 0,0.093 c 3.367,9.625 12.512,16.032 22.707,16.032 10.191,0 19.34,-6.407 22.613,-16.032 l 0,-0.093 0,0.093 0,-0.093 c 22.118,-63.262 33.403,-129.844 33.403,-196.879 l -23.981,0 z" /><path
         id="path7774"
         style="fill:#000000;fill-opacity:1;fill-rule:nonzero;stroke:none"
         d="m 368.426,1229.582 c 0,-64.398 10.828,-128.254 32.035,-189.109 21.203,60.855 32.035,124.711 32.035,189.109 l 23.981,0 c 0,-67.031 -11.286,-133.656 -33.399,-196.921 -3.277,-9.672 -12.426,-16.168 -22.617,-16.168 -10.195,0 -19.34,6.496 -22.707,16.168 -22.07,63.265 -33.309,129.89 -33.309,196.921 l 23.981,0 z" /><path
         id="path7776"
         style="fill:#000000;fill-opacity:1;fill-rule:nonzero;stroke:none"
         d="m 660.488,1038.125 c 0.821,-0.226 1.637,-0.32 2.41,-0.32 5.372,0 9.649,4.316 9.649,9.582 0,1.953 -0.59,3.77 -1.637,5.359 l -70.398,104.915 -70.442,-104.915 c -1.09,-1.589 -1.59,-3.406 -1.59,-5.359 0,-5.266 4.321,-9.582 9.555,-9.582 0.82,0 1.594,0.094 2.41,0.32 l 36.043,9.262 0,-33.516 C 584.586,664.215 815.523,541.317 824.625,194.93 l 0,-67.898 48.008,0 0,67.898 c -9.102,346.387 -240.039,469.285 -248.094,818.941 l 0,33.516 35.949,-9.262 z" /><path
         id="path7778"
         style="fill:#000000;fill-opacity:1;fill-rule:nonzero;stroke:none"
         d="m 640.371,194.934 c 0,130.027 -62.207,252.285 -167.414,328.996 l 0.047,0.406 C 316.605,638.559 224.23,820.45 224.23,1013.875 l 0,33.52 36.086,-9.266 c 0.727,-0.226 1.547,-0.32 2.364,-0.32 5.324,0 9.648,4.316 9.648,9.586 0,1.953 -0.59,3.769 -1.73,5.359 l -70.395,104.91 -70.351,-104.91 c -1.047,-1.59 -1.684,-3.406 -1.684,-5.359 0,-5.27 4.371,-9.586 9.602,-9.586 0.867,0 1.683,0.094 2.457,0.32 l 35.996,9.266 0,-33.52 c 0,-208.73 99.699,-404.929 268.433,-528.187 92.782,-67.762 147.66,-175.625 147.66,-290.301 l 0,-68.351 48.008,0 0.047,67.898 z" /></g></g></svg>