<?xml version="1.0" encoding="UTF-8" standalone="no"?>
<svg
   xmlns:dc="http://purl.org/dc/elements/1.1/"
   xmlns:cc="http://creativecommons.org/ns#"
   xmlns:rdf="http://www.w3.org/1999/02/22-rdf-syntax-ns#"
   xmlns:svg="http://www.w3.org/2000/svg"
   xmlns="http://www.w3.org/2000/svg"
   viewBox="0 0 1251 1601.9473"
   height="1601.9473"
   width="1251"
   xml:space="preserve"
   version="1.1"
   id="svg14773"><metadata
     id="metadata14779"><rdf:RDF><cc:Work
         rdf:about=""><dc:format>image/svg+xml</dc:format><dc:type
           rdf:resource="http://purl.org/dc/dcmitype/StillImage" /><dc:title></dc:title></cc:Work></rdf:RDF></metadata><defs
     id="defs14777" /><g
     transform="matrix(1.25,0,0,-1.25,0,1601.9473)"
     id="g14781"><g
       id="g14783"><path
         id="path14785"
         style="fill:#ffffff;fill-opacity:1;fill-rule:nonzero;stroke:none"
         d="m 47.234,1281.159 c -25.828,0 -46.832,-21.007 -46.832,-46.836 l 0,-1187.066 C 0.402,21.429 21.406,0.402 47.234,0.402 l 906.332,0 c 25.829,0 46.836,21.027 46.836,46.855 l 0,1187.066 c 0,25.829 -21.007,46.836 -46.836,46.836 l -906.332,0 z" /><path
         id="path14787"
         style="fill:#000000;fill-opacity:1;fill-rule:nonzero;stroke:none"
         d="m 48.504,12.433 c -19.942,0 -36.106,16.183 -36.106,36.105 l 0,1184.539 c 0,19.922 16.164,36.082 36.106,36.082 l 903.793,0 c 19.941,0 36.105,-16.16 36.105,-36.082 l 0,-1184.539 c 0,-19.922 -16.164,-36.105 -36.105,-36.105" /><path
         id="path14789"
         style="fill:#ffffff;fill-opacity:1;fill-rule:nonzero;stroke:none"
         d="m 48.504,28.484 c -11.066,0 -20.055,8.961 -20.055,20.054 l 0,1184.539 c 0,11.071 8.989,20.055 20.055,20.055 l 903.793,0 c 11.07,0 20.055,-8.984 20.055,-20.055 l 0,-1184.539 c 0,-11.093 -8.985,-20.054 -20.055,-20.054" /><path
         id="path14791"
         style="fill:#000000;fill-opacity:1;fill-rule:nonzero;stroke:none"
         d="M 47.234,1281.558 C 21.191,1281.558 0,1260.366 0,1234.323 L 0,47.257 C 0,21.214 21.188,-0.001 47.234,-0.001 l 906.332,0 c 26.043,0 47.235,21.215 47.235,47.258 l 0,1187.066 c 0,26.043 -21.192,47.235 -47.235,47.235 l -906.332,0 z m 0,-0.399 906.332,0 c 25.829,0 46.832,-21.007 46.832,-46.836 l 0,-1187.066 c 0,-25.828 -21.003,-46.855 -46.832,-46.855 l -906.332,0 C 21.406,0.402 0.398,21.429 0.398,47.257 l 0,1187.066 c 0,25.829 21.008,46.836 46.836,46.836 z" /><path
         id="path14793"
         style="fill:#000000;fill-opacity:1;fill-rule:nonzero;stroke:none"
         d="m 828.285,1046.632 -36.019,-9.305 c -5.098,-1.324 -10.348,1.754 -11.672,6.911 -0.696,2.625 -0.207,5.453 1.324,7.722 l 70.355,105.121 70.352,-105.121 c 2.957,-4.41 1.754,-10.351 -2.648,-13.308 -2.27,-1.528 -5.075,-2.02 -7.727,-1.325 l -35.992,9.305 0,-922.098 -47.973,0" /><path
         id="path14795"
         style="fill:#000000;fill-opacity:1;fill-rule:nonzero;stroke:none"
         d="m 418.805,52.495 c 0,64.493 -10.809,128.5 -31.993,189.422 C 365.629,180.995 354.82,116.988 354.82,52.495 l -24.008,0 c 0,67.168 11.262,133.852 33.336,197.297 4.336,12.516 18.024,19.145 30.54,14.785 6.937,-2.394 12.363,-7.851 14.789,-14.785 22.046,-63.445 33.312,-130.129 33.312,-197.297" /><path
         id="path14797"
         style="fill:#000000;fill-opacity:1;fill-rule:nonzero;stroke:none"
         d="m 354.82,1229.12 c 0,-64.492 10.809,-128.523 31.992,-189.422 21.184,60.899 31.993,124.93 31.993,189.422 l 23.984,0 c 0,-67.168 -11.266,-133.879 -33.312,-197.324 -4.387,-12.539 -18.051,-19.168 -30.567,-14.808 -6.906,2.421 -12.363,7.875 -14.762,14.808 -22.074,63.422 -33.336,130.133 -33.336,197.301" /><path
         id="path14799"
         style="fill:#000000;fill-opacity:1;fill-rule:nonzero;stroke:none"
         d="m 708.316,1046.632 35.989,-9.305 c 5.148,-1.324 10.375,1.762 11.699,6.911 0.699,2.625 0.207,5.453 -1.324,7.722 l -70.352,105.125 -70.332,-105.125 c -2.957,-4.41 -1.793,-10.347 2.598,-13.332 2.297,-1.504 5.105,-1.988 7.75,-1.301 l 35.992,9.305 0,-33.621 c 0,-153.684 -72.289,-298.395 -195.129,-390.621 l -9.609,-7.188 C 322.691,515.429 244.508,358.839 244.508,192.566 l 0,-68.035 47.976,0 0,68.035 c 0,151.16 71.094,293.5 191.922,384.195 l 9.582,7.215 C 628.91,685.249 708.316,844.21 708.316,1013.011" /><path
         id="path14801"
         style="fill:#000000;fill-opacity:1;fill-rule:nonzero;stroke:none"
         d="m 540.379,1046.632 35.996,-9.305 c 5.121,-1.324 10.371,1.762 11.703,6.911 0.668,2.625 0.203,5.453 -1.332,7.722 l -70.355,105.125 -70.352,-105.125 c -2.957,-4.41 -1.754,-10.347 2.652,-13.332 2.266,-1.504 5.071,-1.988 7.719,-1.301 l 36,9.305 0,-33.621 c 0,-100.766 -47.418,-195.668 -127.965,-256.156 l -9.586,-7.192 C 179.66,618.159 76.551,411.761 76.551,192.566 l 0,-68.035 47.976,0 0,68.035 c 0,204.078 95.996,396.254 259.11,518.683 l 9.586,7.188 c 92.636,69.539 147.156,178.668 147.156,294.574" /></g></g></svg>