<?xml version="1.0" encoding="UTF-8" standalone="no"?>
<svg
   xmlns:dc="http://purl.org/dc/elements/1.1/"
   xmlns:cc="http://creativecommons.org/ns#"
   xmlns:rdf="http://www.w3.org/1999/02/22-rdf-syntax-ns#"
   xmlns:svg="http://www.w3.org/2000/svg"
   xmlns="http://www.w3.org/2000/svg"
   viewBox="0 0 1251.0012 1601.9487"
   height="1601.9487"
   width="1251.0012"
   xml:space="preserve"
   version="1.1"
   id="svg3491"><metadata
     id="metadata3497"><rdf:RDF><cc:Work
         rdf:about=""><dc:format>image/svg+xml</dc:format><dc:type
           rdf:resource="http://purl.org/dc/dcmitype/StillImage" /><dc:title></dc:title></cc:Work></rdf:RDF></metadata><defs
     id="defs3495" /><g
     transform="matrix(1.25,0,0,-1.25,0,1601.9487)"
     id="g3499"><g
       id="g3501"><path
         id="path3503"
         style="fill:#ffffff;fill-opacity:1;fill-rule:nonzero;stroke:none"
         d="m 953.566,1281.161 c 25.829,0 46.832,-21.008 46.832,-46.836 l 0,-1187.067 c 0,-25.828 -21.003,-46.855 -46.832,-46.855 l -906.332,0 C 21.406,0.403 0.398,21.43 0.398,47.258 l 0,1187.067 c 0,25.828 21.008,46.836 46.836,46.836 l 906.332,0 z" /><path
         id="path3505"
         style="fill:#000000;fill-opacity:1;fill-rule:nonzero;stroke:none"
         d="m 952.297,12.434 c 19.941,0 36.105,16.184 36.105,36.105 l 0,1184.539 c 0,19.922 -16.164,36.083 -36.105,36.083 l -903.793,0 c -19.942,0 -36.106,-16.161 -36.106,-36.083 l 0,-1184.539 c 0,-19.921 16.164,-36.105 36.106,-36.105" /><path
         id="path3507"
         style="fill:#ffffff;fill-opacity:1;fill-rule:nonzero;stroke:none"
         d="m 952.297,28.485 c 11.066,0 20.055,8.961 20.055,20.054 l 0,1184.539 c 0,11.071 -8.989,20.055 -20.055,20.055 l -903.793,0 c -11.07,0 -20.055,-8.984 -20.055,-20.055 l 0,-1184.539 c 0,-11.093 8.985,-20.054 20.055,-20.054" /><path
         id="path3509"
         style="fill:#000000;fill-opacity:1;fill-rule:nonzero;stroke:none"
         d="m 953.566,1281.559 c 26.043,0 47.235,-21.191 47.235,-47.234 l 0,-1187.067 C 1000.801,21.215 979.613,0 953.566,0 L 47.234,0 C 21.191,0 0,21.215 0,47.258 l 0,1187.067 c 0,26.043 21.191,47.234 47.234,47.234 l 906.332,0 z m 0,-0.398 -906.332,0 c -25.828,0 -46.832,-21.008 -46.832,-46.836 l 0,-1187.067 C 0.402,21.43 21.406,0.403 47.234,0.403 l 906.332,0 c 25.829,0 46.836,21.027 46.836,46.855 l 0,1187.067 c 0,25.828 -21.007,46.836 -46.836,46.836 z" /><path
         id="path3511"
         style="fill:#000000;fill-opacity:1;fill-rule:nonzero;stroke:none"
         d="m 652.488,55.164 c 0,64.352 10.828,128.25 31.942,189.012 21.203,-60.762 32.035,-124.66 32.035,-189.012 l 24.07,0 c 0,67.032 -11.285,133.61 -33.398,196.914 -3.367,9.629 -12.422,16.125 -22.707,16.125 -10.239,0 -19.293,-6.496 -22.614,-16.125 C 639.699,188.774 628.461,122.196 628.461,55.164 l 24.027,0 z" /><path
         id="path3513"
         style="fill:#000000;fill-opacity:1;fill-rule:nonzero;stroke:none"
         d="m 716.555,1229.582 c 0,-64.351 -10.828,-128.25 -32.035,-189.058 l -0.09,0 c -21.114,60.808 -31.942,124.707 -31.942,189.058 l -24.027,0 c 0,-67.031 11.238,-133.609 33.355,-196.914 3.321,-9.629 12.375,-16.125 22.614,-16.125 10.285,0 19.34,6.496 22.707,16.125 22.113,63.305 33.398,129.883 33.398,196.914 l -23.98,0 z" /><path
         id="path3515"
         style="fill:#000000;fill-opacity:1;fill-rule:nonzero;stroke:none"
         d="m 456.406,1038.18 c -0.773,-0.227 -1.594,-0.316 -2.367,-0.316 -5.367,0 -9.601,4.312 -9.601,9.582 0,1.906 0.546,3.769 1.593,5.312 l 70.395,104.906 70.437,-104.906 c 1.09,-1.543 1.59,-3.406 1.59,-5.312 0,-5.27 -4.23,-9.582 -9.555,-9.582 -0.816,0 -1.683,0.089 -2.41,0.316 l -36.039,9.266 0,-33.563 C 532.395,664.286 301.422,541.348 292.324,194.977 l 0,-67.895 -48.008,0 0,67.895 c 9.012,346.371 239.985,469.309 248.129,818.906 l 0,33.563 c 0,0 -36.039,-9.582 -36.039,-9.266" /><path
         id="path3517"
         style="fill:#000000;fill-opacity:1;fill-rule:nonzero;stroke:none"
         d="m 288.34,1038.18 c -0.817,-0.227 -1.637,-0.316 -2.41,-0.316 -5.325,0 -9.602,4.312 -9.602,9.582 0,1.906 0.547,3.769 1.594,5.312 l 70.39,104.906 70.485,-104.906 c 1.094,-1.543 1.594,-3.406 1.594,-5.312 0,-5.27 -4.368,-9.582 -9.602,-9.582 -0.82,0 -1.594,0.089 -2.41,0.316 l -35.992,9.266 0,-33.563 C 364.285,664.286 133.359,541.348 124.211,194.977 l 0,-67.895 -48.004,0 0,67.895 c 9.012,346.371 239.981,469.309 248.129,818.906 l 0,33.563 -35.996,-9.582 0,0.316 z" /><path
         id="path3519"
         style="fill:#000000;fill-opacity:1;fill-rule:nonzero;stroke:none"
         d="m 412.414,194.981 0,-67.895 48.004,0 0,67.895 0.094,0.41 c 0,114.758 54.828,222.617 147.656,290.285 168.723,123.301 268.418,319.488 268.418,528.211 l 0.094,0 0,33.516 35.902,-9.219 c 0.863,-0.227 1.637,-0.316 2.457,-0.316 5.277,0 9.555,4.312 9.555,9.535 0,1.953 -0.547,3.769 -1.594,5.359 l -70.391,104.906 -70.484,-104.906 c -1.047,-1.59 -1.594,-3.406 -1.594,-5.359 0,-5.223 4.278,-9.535 9.602,-9.535 0.82,0 1.594,0.089 2.41,0.316 l 36.086,9.219 0,-33.516 -0.094,0 c 0,-193.418 -92.367,-375.258 -248.762,-489.519 l 0,-0.454 C 474.523,447.211 412.414,325 412.414,194.981" /></g></g></svg>