<?xml version="1.0" encoding="UTF-8" standalone="no"?>
<svg
   xmlns:dc="http://purl.org/dc/elements/1.1/"
   xmlns:cc="http://creativecommons.org/ns#"
   xmlns:rdf="http://www.w3.org/1999/02/22-rdf-syntax-ns#"
   xmlns:svg="http://www.w3.org/2000/svg"
   xmlns="http://www.w3.org/2000/svg"
   viewBox="0 0 1251 1601.9473"
   height="1601.9473"
   width="1251"
   xml:space="preserve"
   version="1.1"
   id="svg11260"><metadata
     id="metadata11266"><rdf:RDF><cc:Work
         rdf:about=""><dc:format>image/svg+xml</dc:format><dc:type
           rdf:resource="http://purl.org/dc/dcmitype/StillImage" /><dc:title></dc:title></cc:Work></rdf:RDF></metadata><defs
     id="defs11264" /><g
     transform="matrix(1.25,0,0,-1.25,0,1601.9473)"
     id="g11268"><g
       id="g11270"><path
         id="path11272"
         style="fill:#ffffff;fill-opacity:1;fill-rule:nonzero;stroke:none"
         d="m 47.234,1281.159 c -25.828,0 -46.832,-21.007 -46.832,-46.836 l 0,-1187.066 C 0.402,21.429 21.406,0.402 47.234,0.402 l 906.332,0 c 25.829,0 46.836,21.027 46.836,46.855 l 0,1187.066 c 0,25.829 -21.007,46.836 -46.836,46.836 l -906.332,0 z" /><path
         id="path11274"
         style="fill:#000000;fill-opacity:1;fill-rule:nonzero;stroke:none"
         d="m 48.504,12.433 c -19.942,0 -36.106,16.183 -36.106,36.105 l 0,1184.539 c 0,19.922 16.164,36.082 36.106,36.082 l 903.793,0 c 19.941,0 36.105,-16.16 36.105,-36.082 l 0,-1184.539 c 0,-19.922 -16.164,-36.105 -36.105,-36.105" /><path
         id="path11276"
         style="fill:#ffffff;fill-opacity:1;fill-rule:nonzero;stroke:none"
         d="m 48.504,28.484 c -11.066,0 -20.055,8.961 -20.055,20.054 l 0,1184.539 c 0,11.071 8.989,20.055 20.055,20.055 l 903.793,0 c 11.07,0 20.055,-8.984 20.055,-20.055 l 0,-1184.539 c 0,-11.093 -8.985,-20.054 -20.055,-20.054" /><path
         id="path11278"
         style="fill:#000000;fill-opacity:1;fill-rule:nonzero;stroke:none"
         d="M 47.234,1281.558 C 21.191,1281.558 0,1260.366 0,1234.323 L 0,47.257 C 0,21.214 21.188,-0.001 47.234,-0.001 l 906.332,0 c 26.043,0 47.235,21.215 47.235,47.258 l 0,1187.066 c 0,26.043 -21.192,47.235 -47.235,47.235 l -906.332,0 z m 0,-0.399 906.332,0 c 25.829,0 46.832,-21.007 46.832,-46.836 l 0,-1187.066 c 0,-25.828 -21.003,-46.855 -46.832,-46.855 l -906.332,0 C 21.406,0.402 0.398,21.429 0.398,47.257 l 0,1187.066 c 0,25.829 21.008,46.836 46.836,46.836 z" /><path
         id="path11280"
         style="fill:#000000;fill-opacity:1;fill-rule:nonzero;stroke:none"
         d="m 468.422,1229.12 c 0,-64.492 10.808,-128.523 31.992,-189.422 21.184,60.899 31.992,124.93 31.992,189.422 l 23.985,0 c 0,-67.168 -11.266,-133.879 -33.317,-197.324 -4.383,-12.539 -18.047,-19.168 -30.562,-14.808 -6.907,2.421 -12.364,7.875 -14.762,14.808 -22.074,63.422 -33.34,130.133 -33.34,197.301" /><path
         id="path11282"
         style="fill:#000000;fill-opacity:1;fill-rule:nonzero;stroke:none"
         d="m 728.738,1037.32 c 0.805,-0.207 1.61,-0.313 2.414,-0.313 5.321,0 9.621,4.297 9.621,9.609 0,1.887 -0.593,3.778 -1.644,5.348 l -70.5,105.133 -70.465,-105.133 c -1.086,-1.57 -1.644,-3.461 -1.644,-5.348 0,-5.312 4.304,-9.609 9.621,-9.609 0.804,0 1.609,0.106 2.414,0.313 l 36.039,9.296 0,-33.585 C 652.711,662.722 883.91,539.589 893.008,192.566 l 0,-68.051 48.074,0 0,68.051 c -9.133,347.023 -240.297,470.156 -248.414,820.465 l 0,33.585 36.07,-9.296 z" /><path
         id="path11284"
         style="fill:#000000;fill-opacity:1;fill-rule:nonzero;stroke:none"
         d="m 772.816,192.558 c 0,183.945 -87.89,356.808 -236.554,465.332 l 0.035,0.316 C 423.043,741.038 356.145,872.8 356.145,1012.988 l 0,33.656 36.039,-9.328 c 0.804,-0.211 1.609,-0.317 2.414,-0.317 5.316,0 9.621,4.301 9.621,9.645 0,1.89 -0.559,3.742 -1.61,5.312 l -70.5,105.133 -70.5,-105.133 c -1.05,-1.57 -1.609,-3.422 -1.609,-5.312 0,-5.344 4.301,-9.645 9.621,-9.645 0.805,0 1.609,0.106 2.379,0.317 l 36.07,9.328 0,-33.656 0.457,0 c 0,-155.497 74.243,-301.661 199.852,-393.543 l -0.492,0.105 C 644.168,520.081 724.742,361.613 724.742,192.976 l 0,-68.469 48.074,0 0,68.051 z" /><path
         id="path11286"
         style="fill:#000000;fill-opacity:1;fill-rule:nonzero;stroke:none"
         d="m 604.539,192.558 0,-68.051 -48.074,0 0,68.051 c 0,114.953 -54.93,223.019 -147.86,290.824 l 0.352,0.453 C 240.07,607.351 140.285,803.913 140.285,1012.988 l -0.492,0 0,33.656 -36.07,-9.328 c -0.77,-0.211 -1.575,-0.317 -2.379,-0.317 -5.321,0 -9.625,4.301 -9.625,9.645 0,1.89 0.562,3.742 1.609,5.312 l 70.504,105.133 70.5,-105.133 c 1.047,-1.57 1.609,-3.422 1.609,-5.312 0,-5.344 -4.304,-9.645 -9.621,-9.645 -0.804,0 -1.609,0.106 -2.379,0.317 l -36.074,9.328 0,-33.656 0.488,0 c 0,-193.766 92.477,-375.93 249.012,-490.426 l -0.387,-0.387 C 542.297,445.284 604.539,322.82 604.539,192.558" /></g></g></svg>