<?xml version="1.0" encoding="UTF-8" standalone="no"?>
<svg
   xmlns:dc="http://purl.org/dc/elements/1.1/"
   xmlns:cc="http://creativecommons.org/ns#"
   xmlns:rdf="http://www.w3.org/1999/02/22-rdf-syntax-ns#"
   xmlns:svg="http://www.w3.org/2000/svg"
   xmlns="http://www.w3.org/2000/svg"
   viewBox="0 0 1251 1601.9473"
   height="1601.9473"
   width="1251"
   xml:space="preserve"
   version="1.1"
   id="svg3571"><metadata
     id="metadata3577"><rdf:RDF><cc:Work
         rdf:about=""><dc:format>image/svg+xml</dc:format><dc:type
           rdf:resource="http://purl.org/dc/dcmitype/StillImage" /><dc:title></dc:title></cc:Work></rdf:RDF></metadata><defs
     id="defs3575" /><g
     transform="matrix(1.25,0,0,-1.25,0,1601.9473)"
     id="g3579"><g
       id="g3581"><path
         id="path3583"
         style="fill:#ffffff;fill-opacity:1;fill-rule:nonzero;stroke:none"
         d="m 47.234,1281.159 c -25.828,0 -46.832,-21.007 -46.832,-46.836 l 0,-1187.066 C 0.402,21.429 21.406,0.402 47.234,0.402 l 906.332,0 c 25.829,0 46.836,21.027 46.836,46.855 l 0,1187.066 c 0,25.829 -21.007,46.836 -46.836,46.836 l -906.332,0 z" /><path
         id="path3585"
         style="fill:#000000;fill-opacity:1;fill-rule:nonzero;stroke:none"
         d="m 48.504,12.433 c -19.942,0 -36.106,16.183 -36.106,36.105 l 0,1184.539 c 0,19.922 16.164,36.082 36.106,36.082 l 903.793,0 c 19.941,0 36.105,-16.16 36.105,-36.082 l 0,-1184.539 c 0,-19.922 -16.164,-36.105 -36.105,-36.105" /><path
         id="path3587"
         style="fill:#ffffff;fill-opacity:1;fill-rule:nonzero;stroke:none"
         d="m 48.504,28.484 c -11.066,0 -20.055,8.961 -20.055,20.054 l 0,1184.539 c 0,11.071 8.989,20.055 20.055,20.055 l 903.793,0 c 11.07,0 20.055,-8.984 20.055,-20.055 l 0,-1184.539 c 0,-11.093 -8.985,-20.054 -20.055,-20.054" /><path
         id="path3589"
         style="fill:#000000;fill-opacity:1;fill-rule:nonzero;stroke:none"
         d="m 532.488,51.265 c 0,64.625 -10.843,128.777 -32.097,189.805 C 479.156,180.042 468.336,115.89 468.336,51.265 l -24.086,0 c 0,67.32 11.297,134.141 33.434,197.726 4.371,12.52 18.066,19.149 30.628,14.805 6.95,-2.398 12.403,-7.879 14.805,-14.805 22.137,-63.585 33.434,-130.406 33.434,-197.726" /><path
         id="path3591"
         style="fill:#000000;fill-opacity:1;fill-rule:nonzero;stroke:none"
         d="m 468.336,1230.316 c 0,-64.625 10.82,-128.778 32.055,-189.828 21.254,61.05 32.097,125.203 32.097,189.828 l 24.063,0 c 0,-67.321 -11.297,-134.164 -33.434,-197.727 -4.371,-12.539 -18.066,-19.172 -30.629,-14.805 -6.949,2.399 -12.383,7.856 -14.804,14.805 -22.137,63.563 -33.434,130.406 -33.434,197.727" /><path
         id="path3593"
         style="fill:#000000;fill-opacity:1;fill-rule:nonzero;stroke:none"
         d="M 47.234,1281.558 C 21.191,1281.558 0,1260.366 0,1234.323 L 0,47.257 C 0,21.214 21.188,-0.001 47.234,-0.001 l 906.332,0 c 26.043,0 47.235,21.215 47.235,47.258 l 0,1187.066 c 0,26.043 -21.192,47.235 -47.235,47.235 l -906.332,0 z m 0,-0.399 906.332,0 c 25.829,0 46.832,-21.007 46.832,-46.836 l 0,-1187.066 c 0,-25.828 -21.003,-46.855 -46.832,-46.855 l -906.332,0 C 21.406,0.402 0.398,21.429 0.398,47.257 l 0,1187.066 c 0,25.829 21.008,46.836 46.836,46.836 z" /><path
         id="path3595"
         style="fill:#000000;fill-opacity:1;fill-rule:nonzero;stroke:none"
         d="m 128.43,1046.835 -35.973,-9.308 c -5.156,-1.305 -10.383,1.789 -11.711,6.91 -0.68,2.652 -0.195,5.457 1.328,7.726 l 70.375,105.028 70.348,-105.028 c 2.961,-4.386 1.789,-10.351 -2.621,-13.308 -2.27,-1.504 -5.11,-1.985 -7.731,-1.328 l -36.004,9.308 0,-57.57 c 0,-156.457 76.34,-303.09 204.52,-392.875 L 532.637,490.14 C 620.23,428.796 672.395,328.616 672.395,221.675 l 0,-95.949 -48.008,0 0,95.949 c 0,91.285 -44.524,176.824 -119.301,229.18 L 353.422,557.097 C 212.426,655.882 128.43,817.152 128.43,989.265" /><path
         id="path3597"
         style="fill:#000000;fill-opacity:1;fill-rule:nonzero;stroke:none"
         d="m 328.438,1046.835 -36.012,-9.308 c -5.149,-1.305 -10.371,1.789 -11.696,6.91 -0.691,2.652 -0.21,5.457 1.325,7.726 l 70.367,105.028 70.383,-105.028 c 2.925,-4.386 1.754,-10.351 -2.657,-13.308 -2.269,-1.504 -5.097,-1.985 -7.73,-1.328 l -35.996,9.308 0,-57.57 c 0,-91.266 44.516,-176.809 119.301,-229.184 L 647.387,653.866 c 141,-98.777 224.984,-260.082 224.984,-432.191 l 0,-95.949 -47.98,0 0,95.949 c 0,156.453 -76.364,303.098 -204.543,392.895 L 468.184,720.8 C 380.582,782.163 328.438,882.355 328.438,989.265" /></g></g></svg>