<?xml version="1.0" encoding="UTF-8" standalone="no"?>
<svg
   xmlns:dc="http://purl.org/dc/elements/1.1/"
   xmlns:cc="http://creativecommons.org/ns#"
   xmlns:rdf="http://www.w3.org/1999/02/22-rdf-syntax-ns#"
   xmlns:svg="http://www.w3.org/2000/svg"
   xmlns="http://www.w3.org/2000/svg"
   viewBox="0 0 1251.0012 1601.9487"
   height="1601.9487"
   width="1251.0012"
   xml:space="preserve"
   version="1.1"
   id="svg7988"><metadata
     id="metadata7994"><rdf:RDF><cc:Work
         rdf:about=""><dc:format>image/svg+xml</dc:format><dc:type
           rdf:resource="http://purl.org/dc/dcmitype/StillImage" /><dc:title></dc:title></cc:Work></rdf:RDF></metadata><defs
     id="defs7992" /><g
     transform="matrix(1.25,0,0,-1.25,0,1601.9487)"
     id="g7996"><g
       id="g7998"><path
         id="path8000"
         style="fill:#ffffff;fill-opacity:1;fill-rule:nonzero;stroke:none"
         d="m 47.234,1281.161 c -25.828,0 -46.832,-21.008 -46.832,-46.836 l 0,-1187.067 C 0.402,21.43 21.406,0.403 47.234,0.403 l 906.332,0 c 25.829,0 46.836,21.027 46.836,46.855 l 0,1187.067 c 0,25.828 -21.007,46.836 -46.836,46.836 l -906.332,0 z" /><path
         id="path8002"
         style="fill:#000000;fill-opacity:1;fill-rule:nonzero;stroke:none"
         d="m 48.504,12.434 c -19.942,0 -36.106,16.184 -36.106,36.105 l 0,1184.539 c 0,19.922 16.164,36.083 36.106,36.083 l 903.793,0 c 19.941,0 36.105,-16.161 36.105,-36.083 l 0,-1184.539 c 0,-19.921 -16.164,-36.105 -36.105,-36.105" /><path
         id="path8004"
         style="fill:#ffffff;fill-opacity:1;fill-rule:nonzero;stroke:none"
         d="m 48.504,28.485 c -11.066,0 -20.055,8.961 -20.055,20.054 l 0,1184.539 c 0,11.071 8.989,20.055 20.055,20.055 l 903.793,0 c 11.07,0 20.055,-8.984 20.055,-20.055 l 0,-1184.539 c 0,-11.093 -8.985,-20.054 -20.055,-20.054" /><path
         id="path8006"
         style="fill:#000000;fill-opacity:1;fill-rule:nonzero;stroke:none"
         d="M 47.234,1281.559 C 21.191,1281.559 0,1260.368 0,1234.325 L 0,47.258 C 0,21.215 21.188,0 47.234,0 l 906.332,0 c 26.043,0 47.235,21.215 47.235,47.258 l 0,1187.067 c 0,26.043 -21.192,47.234 -47.235,47.234 l -906.332,0 z m 0,-0.398 906.332,0 c 25.829,0 46.832,-21.008 46.832,-46.836 l 0,-1187.067 c 0,-25.828 -21.003,-46.855 -46.832,-46.855 l -906.332,0 C 21.406,0.403 0.398,21.43 0.398,47.258 l 0,1187.067 c 0,25.828 21.008,46.836 46.836,46.836 z" /><path
         id="path8008"
         style="fill:#000000;fill-opacity:1;fill-rule:nonzero;stroke:none"
         d="m 348.312,55.164 c 0,64.352 -10.828,128.25 -31.941,189.012 -21.203,-60.762 -32.035,-124.66 -32.035,-189.012 l -24.07,0 c 0,67.032 11.285,133.61 33.398,196.914 3.367,9.629 12.422,16.125 22.707,16.125 10.238,0 19.293,-6.496 22.613,-16.125 22.118,-63.304 33.356,-129.882 33.356,-196.914 l -24.028,0 z" /><path
         id="path8010"
         style="fill:#000000;fill-opacity:1;fill-rule:nonzero;stroke:none"
         d="m 284.246,1229.582 c 0,-64.351 10.828,-128.25 32.035,-189.058 l 0.09,0 c 21.113,60.808 31.941,124.707 31.941,189.058 l 24.028,0 c 0,-67.031 -11.238,-133.609 -33.356,-196.914 -3.32,-9.629 -12.375,-16.125 -22.613,-16.125 -10.285,0 -19.34,6.496 -22.707,16.125 -22.113,63.305 -33.398,129.883 -33.398,196.914 l 23.98,0 z" /><path
         id="path8012"
         style="fill:#000000;fill-opacity:1;fill-rule:nonzero;stroke:none"
         d="m 544.395,1038.18 c 0.773,-0.227 1.593,-0.316 2.367,-0.316 5.367,0 9.601,4.312 9.601,9.582 0,1.906 -0.547,3.769 -1.593,5.312 l -70.395,104.906 -70.437,-104.906 c -1.09,-1.543 -1.59,-3.406 -1.59,-5.312 0,-5.27 4.23,-9.582 9.554,-9.582 0.817,0 1.684,0.089 2.41,0.316 l 36.04,9.266 0,-33.563 C 468.406,664.286 699.379,541.348 708.477,194.977 l 0,-67.895 48.007,0 0,67.895 C 747.473,541.348 516.5,664.286 508.355,1013.883 l 0,33.563 c 0,0 36.04,-9.582 36.04,-9.266" /><path
         id="path8014"
         style="fill:#000000;fill-opacity:1;fill-rule:nonzero;stroke:none"
         d="m 712.461,1038.18 c 0.816,-0.227 1.637,-0.316 2.41,-0.316 5.324,0 9.602,4.312 9.602,9.582 0,1.906 -0.547,3.769 -1.594,5.312 l -70.391,104.906 -70.484,-104.906 c -1.094,-1.543 -1.594,-3.406 -1.594,-5.312 0,-5.27 4.367,-9.582 9.602,-9.582 0.82,0 1.593,0.089 2.41,0.316 l 35.992,9.266 0,-33.563 C 636.516,664.286 867.441,541.348 876.59,194.977 l 0,-67.895 48.004,0 0,67.895 c -9.012,346.371 -239.981,469.309 -248.129,818.906 l 0,33.563 35.996,-9.582 0,0.316 z" /><path
         id="path8016"
         style="fill:#000000;fill-opacity:1;fill-rule:nonzero;stroke:none"
         d="m 588.387,194.981 0,-67.895 -48.004,0 0,67.895 -0.094,0.41 c 0,114.758 -54.828,222.617 -147.656,290.285 C 223.91,608.977 124.215,805.164 124.215,1013.887 l -0.094,0 0,33.516 -35.902,-9.219 c -0.864,-0.227 -1.637,-0.316 -2.457,-0.316 -5.278,0 -9.555,4.312 -9.555,9.535 0,1.953 0.547,3.769 1.594,5.359 l 70.39,104.906 70.485,-104.906 c 1.047,-1.59 1.594,-3.406 1.594,-5.359 0,-5.223 -4.278,-9.535 -9.602,-9.535 -0.82,0 -1.594,0.089 -2.41,0.316 l -36.086,9.219 0,-33.516 0.094,0 c 0,-193.418 92.367,-375.258 248.761,-489.519 l 0,-0.454 C 526.277,447.211 588.387,325 588.387,194.981" /></g></g></svg>