<?xml version="1.0" encoding="UTF-8" standalone="no"?>
<svg
   xmlns:dc="http://purl.org/dc/elements/1.1/"
   xmlns:cc="http://creativecommons.org/ns#"
   xmlns:rdf="http://www.w3.org/1999/02/22-rdf-syntax-ns#"
   xmlns:svg="http://www.w3.org/2000/svg"
   xmlns="http://www.w3.org/2000/svg"
   viewBox="0 0 1251 1601.9473"
   height="1601.9473"
   width="1251"
   xml:space="preserve"
   version="1.1"
   id="svg6467"><metadata
     id="metadata6473"><rdf:RDF><cc:Work
         rdf:about=""><dc:format>image/svg+xml</dc:format><dc:type
           rdf:resource="http://purl.org/dc/dcmitype/StillImage" /><dc:title></dc:title></cc:Work></rdf:RDF></metadata><defs
     id="defs6471" /><g
     transform="matrix(1.25,0,0,-1.25,0,1601.9473)"
     id="g6475"><g
       id="g6477"><path
         id="path6479"
         style="fill:#ffffff;fill-opacity:1;fill-rule:nonzero;stroke:none"
         d="m 953.566,1281.159 c 25.829,0 46.832,-21.007 46.832,-46.836 l 0,-1187.066 c 0,-25.828 -21.003,-46.855 -46.832,-46.855 l -906.332,0 C 21.406,0.402 0.398,21.429 0.398,47.257 l 0,1187.066 c 0,25.829 21.008,46.836 46.836,46.836 l 906.332,0 z" /><path
         id="path6481"
         style="fill:#000000;fill-opacity:1;fill-rule:nonzero;stroke:none"
         d="m 952.297,12.433 c 19.941,0 36.105,16.183 36.105,36.105 l 0,1184.539 c 0,19.922 -16.164,36.082 -36.105,36.082 l -903.793,0 c -19.942,0 -36.106,-16.16 -36.106,-36.082 l 0,-1184.539 c 0,-19.922 16.164,-36.105 36.106,-36.105" /><path
         id="path6483"
         style="fill:#ffffff;fill-opacity:1;fill-rule:nonzero;stroke:none"
         d="m 952.297,28.484 c 11.066,0 20.055,8.961 20.055,20.054 l 0,1184.539 c 0,11.071 -8.989,20.055 -20.055,20.055 l -903.793,0 c -11.07,0 -20.055,-8.984 -20.055,-20.055 l 0,-1184.539 c 0,-11.093 8.985,-20.054 20.055,-20.054" /><path
         id="path6485"
         style="fill:#000000;fill-opacity:1;fill-rule:nonzero;stroke:none"
         d="m 953.566,1281.558 c 26.043,0 47.235,-21.192 47.235,-47.235 l 0,-1187.066 c 0,-26.043 -21.188,-47.258 -47.235,-47.258 l -906.332,0 C 21.191,-0.001 0,21.214 0,47.257 l 0,1187.066 c 0,26.043 21.191,47.235 47.234,47.235 l 906.332,0 z m 0,-0.399 -906.332,0 c -25.828,0 -46.832,-21.007 -46.832,-46.836 l 0,-1187.066 C 0.402,21.429 21.406,0.402 47.234,0.402 l 906.332,0 c 25.829,0 46.836,21.027 46.836,46.855 l 0,1187.066 c 0,25.829 -21.007,46.836 -46.836,46.836 z" /><path
         id="path6487"
         style="fill:#000000;fill-opacity:1;fill-rule:nonzero;stroke:none"
         d="m 128.18,1046.613 -35.887,-9.305 c -5.137,-1.324 -10.352,1.758 -11.676,6.906 -0.691,2.652 -0.203,5.481 1.324,7.75 l 70.2,105.121 70.175,-105.121 c 2.954,-4.41 1.77,-10.375 -2.621,-13.332 -2.261,-1.527 -5.086,-2.012 -7.707,-1.324 l -35.91,9.305 0,-57.633 c 0,-68.391 14.547,-135.992 42.703,-198.289 -14.906,-5.993 -29.023,-13.84 -41.996,-23.325 -31.996,69.489 -48.578,145.09 -48.578,221.614" /><path
         id="path6489"
         style="fill:#000000;fill-opacity:1;fill-rule:nonzero;stroke:none"
         d="m 670.816,124.531 -47.894,0 0,96.046 c 0,91.356 -44.41,177.004 -119.012,229.411 l -56.695,39.843 c 9.765,12.848 17.879,26.84 24.238,41.625 L 531.402,489.32 C 618.773,427.913 670.816,327.613 670.816,220.577" /><path
         id="path6491"
         style="fill:#000000;fill-opacity:1;fill-rule:nonzero;stroke:none"
         d="m 327.695,1046.613 -35.914,-9.305 c -5.14,-1.324 -10.351,1.758 -11.676,6.906 -0.691,2.652 -0.203,5.481 1.325,7.75 l 70.199,105.121 70.199,-105.121 c 2.926,-4.41 1.75,-10.375 -2.644,-13.332 -2.262,-1.527 -5.086,-2.012 -7.707,-1.324 l -35.915,9.305 0,-57.633 c 0,-91.36 44.411,-176.981 119.012,-229.438 L 645.863,653.222 C 786.52,554.347 870.301,392.866 870.301,220.577 l 0,-96.046 -47.867,0 0,96.046 c 0,156.614 -76.18,303.411 -204.039,393.313 L 467.102,720.238 C 379.711,781.667 327.695,881.945 327.695,988.98" /><path
         id="path6493"
         style="fill:#000000;fill-opacity:1;fill-rule:nonzero;stroke:none"
         d="m 531.176,52.495 c 0,64.493 -10.785,128.496 -31.922,189.418 C 478.117,180.991 467.332,116.988 467.332,52.495 l -23.957,0 c 0,67.168 11.242,133.875 33.27,197.321 4.32,12.488 17.98,19.117 30.468,14.757 6.918,-2.394 12.336,-7.851 14.754,-14.757 22,-63.446 33.242,-130.153 33.242,-197.321" /><path
         id="path6495"
         style="fill:#000000;fill-opacity:1;fill-rule:nonzero;stroke:none"
         d="m 467.332,1229.097 c 0,-64.492 10.785,-128.496 31.922,-189.418 21.137,60.922 31.922,124.926 31.922,189.418 l 23.933,0 c 0,-67.168 -11.242,-133.852 -33.242,-197.297 -4.375,-12.516 -18.008,-19.141 -30.5,-14.781 -6.89,2.422 -12.332,7.847 -14.722,14.781 -22.028,63.445 -33.27,130.129 -33.27,197.297" /><path
         id="path6497"
         style="fill:#c1121c;fill-opacity:1;fill-rule:nonzero;stroke:none"
         d="m 477.508,608.792 c 0,-102.902 -83.149,-186.308 -185.727,-186.308 -102.582,0 -185.73,83.406 -185.73,186.308 0,102.879 83.148,186.309 185.73,186.309 102.578,0 185.727,-83.43 185.727,-186.309" /><path
         id="path6499"
         style="fill:#ffffff;fill-opacity:1;fill-rule:nonzero;stroke:none"
         d="m 428.621,608.792 c 0,-75.832 -61.273,-137.289 -136.84,-137.289 -75.593,0 -136.843,61.457 -136.843,137.289 0,75.809 61.25,137.266 136.843,137.266 75.567,0 136.84,-61.457 136.84,-137.266" /><path
         id="path6501"
         style="fill:#000000;fill-opacity:1;fill-rule:nonzero;stroke:none"
         d="m 193.297,608.792 -27.473,-48.508 c -11.929,31.227 -11.929,65.789 0,96.993" /><path
         id="path6503"
         style="fill:#000000;fill-opacity:1;fill-rule:nonzero;stroke:none"
         d="m 390.266,608.792 27.445,48.485 c 11.953,-31.204 11.953,-65.766 0,-96.993" /><path
         id="path6505"
         style="fill:#000000;fill-opacity:1;fill-rule:nonzero;stroke:none"
         d="m 217.918,514.937 0,25.133 50.41,96.507 c 1.973,3.825 3.055,8.079 3.055,12.438 l 0,15.09 c 0,7.394 -6.004,13.383 -13.379,13.383 -7.379,0 -13.356,-5.989 -13.356,-13.383 l 0,-15.09 -26.73,0 0,15.09 c 0,22.203 17.957,40.199 40.086,40.199 22.152,0 40.109,-17.996 40.109,-40.199 l 0,-15.09 c 0,-8.563 -2.035,-17 -5.949,-24.598 l -42.504,-82.664 48.453,0 0,-26.816" /><path
         id="path6507"
         style="fill:#000000;fill-opacity:1;fill-rule:nonzero;stroke:none"
         d="m 316.172,514.937 0,57.125 11.394,0 0,-5.711 c 3.153,5.89 10.481,8.156 16.383,4.972 1.871,-0.996 3.485,-2.5 4.602,-4.308 4.301,6.117 12.746,7.594 18.847,3.289 3.586,-2.551 5.723,-6.707 5.723,-11.113 l 0,-44.254 -11.367,0 0,40.683 c 0,3.188 -2.543,5.735 -5.699,5.735 -3.153,0 -5.696,-2.547 -5.696,-5.735 l 0,-40.683 -11.394,0 0,40.683 c 0,3.188 -2.547,5.735 -5.703,5.735 -3.149,0 -5.696,-2.547 -5.696,-5.735 l 0,-40.683" /></g></g></svg>