<?xml version="1.0" encoding="UTF-8" standalone="no"?>
<svg
   xmlns:dc="http://purl.org/dc/elements/1.1/"
   xmlns:cc="http://creativecommons.org/ns#"
   xmlns:rdf="http://www.w3.org/1999/02/22-rdf-syntax-ns#"
   xmlns:svg="http://www.w3.org/2000/svg"
   xmlns="http://www.w3.org/2000/svg"
   viewBox="0 0 1251 1601.9473"
   height="1601.9473"
   width="1251"
   xml:space="preserve"
   version="1.1"
   id="svg7153"><metadata
     id="metadata7159"><rdf:RDF><cc:Work
         rdf:about=""><dc:format>image/svg+xml</dc:format><dc:type
           rdf:resource="http://purl.org/dc/dcmitype/StillImage" /><dc:title></dc:title></cc:Work></rdf:RDF></metadata><defs
     id="defs7157" /><g
     transform="matrix(1.25,0,0,-1.25,0,1601.9473)"
     id="g7161"><g
       id="g7163"><path
         id="path7165"
         style="fill:#ffffff;fill-opacity:1;fill-rule:nonzero;stroke:none"
         d="m 953.566,1281.159 c 25.829,0 46.832,-21.007 46.832,-46.836 l 0,-1187.066 c 0,-25.828 -21.003,-46.855 -46.832,-46.855 l -906.332,0 C 21.406,0.402 0.398,21.429 0.398,47.257 l 0,1187.066 c 0,25.829 21.008,46.836 46.836,46.836 l 906.332,0 z" /><path
         id="path7167"
         style="fill:#000000;fill-opacity:1;fill-rule:nonzero;stroke:none"
         d="m 952.297,12.433 c 19.941,0 36.105,16.183 36.105,36.105 l 0,1184.539 c 0,19.922 -16.164,36.082 -36.105,36.082 l -903.793,0 c -19.942,0 -36.106,-16.16 -36.106,-36.082 l 0,-1184.539 c 0,-19.922 16.164,-36.105 36.106,-36.105" /><path
         id="path7169"
         style="fill:#ffffff;fill-opacity:1;fill-rule:nonzero;stroke:none"
         d="m 952.297,28.484 c 11.066,0 20.055,8.961 20.055,20.054 l 0,1184.539 c 0,11.071 -8.989,20.055 -20.055,20.055 l -903.793,0 c -11.07,0 -20.055,-8.984 -20.055,-20.055 l 0,-1184.539 c 0,-11.093 8.985,-20.054 20.055,-20.054" /><path
         id="path7171"
         style="fill:#000000;fill-opacity:1;fill-rule:nonzero;stroke:none"
         d="m 953.566,1281.558 c 26.043,0 47.235,-21.192 47.235,-47.235 l 0,-1187.066 c 0,-26.043 -21.188,-47.258 -47.235,-47.258 l -906.332,0 C 21.191,-0.001 0,21.214 0,47.257 l 0,1187.066 c 0,26.043 21.191,47.235 47.234,47.235 l 906.332,0 z m 0,-0.399 -906.332,0 c -25.828,0 -46.832,-21.007 -46.832,-46.836 l 0,-1187.066 C 0.402,21.429 21.406,0.402 47.234,0.402 l 906.332,0 c 25.829,0 46.836,21.027 46.836,46.855 l 0,1187.066 c 0,25.829 -21.007,46.836 -46.836,46.836 z" /><path
         id="path7173"
         style="fill:#000000;fill-opacity:1;fill-rule:nonzero;stroke:none"
         d="m 672.484,1046.613 0,-57.633 c 0,-45.274 -9.379,-90.082 -27.476,-131.555 -10.274,14.606 -22.434,27.758 -36.199,39.051 10.375,29.746 15.679,60.996 15.679,92.504 l 0,57.633 -35.992,-9.305 c -5.125,-1.324 -10.351,1.758 -11.676,6.906 -0.691,2.652 -0.203,5.481 1.305,7.75 l 70.352,105.121 70.351,-105.121 c 2.957,-4.41 1.754,-10.375 -2.625,-13.332 -2.265,-1.527 -5.098,-2.012 -7.723,-1.324" /><path
         id="path7175"
         style="fill:#000000;fill-opacity:1;fill-rule:nonzero;stroke:none"
         d="m 176.676,124.531 -47.996,0 0,96.046 c 0,159.543 72.058,310.547 196.043,410.875 9.304,-13.152 20.187,-25.105 32.398,-35.558 C 243.078,504.741 176.676,366.636 176.676,220.577" /><path
         id="path7177"
         style="fill:#000000;fill-opacity:1;fill-rule:nonzero;stroke:none"
         d="m 872.402,1046.613 0,-57.633 c 0,-172.289 -83.964,-333.742 -224.922,-432.621 L 495.863,449.988 C 421.102,397.581 376.598,311.933 376.598,220.577 l 0,-96.046 -48,0 0,96.046 c 0,107.036 52.152,207.336 139.738,268.743 L 619.949,595.691 C 748.09,685.57 824.43,832.343 824.43,988.98 l 0,57.633 -35.992,-9.305 c -5.149,-1.324 -10.372,1.758 -11.696,6.906 -0.695,2.652 -0.207,5.481 1.324,7.75 l 70.352,105.121 70.328,-105.121 c 2.957,-4.41 1.774,-10.375 -2.625,-13.332 -2.269,-1.527 -5.074,-2.012 -7.75,-1.324" /><path
         id="path7179"
         style="fill:#000000;fill-opacity:1;fill-rule:nonzero;stroke:none"
         d="m 468.566,52.495 -24.011,0 c 0,67.168 11.265,133.875 33.34,197.321 4.332,12.488 18.019,19.117 30.535,14.757 6.933,-2.394 12.363,-7.851 14.785,-14.757 22.047,-63.446 33.316,-130.153 33.316,-197.321 l -23.984,0 c 0,64.493 -10.813,128.496 -31.992,189.418 C 479.371,180.991 468.566,116.988 468.566,52.495" /><path
         id="path7181"
         style="fill:#000000;fill-opacity:1;fill-rule:nonzero;stroke:none"
         d="m 532.547,1229.097 23.984,0 c 0,-67.168 -11.269,-133.852 -33.316,-197.297 -4.383,-12.516 -18.047,-19.141 -30.563,-14.781 -6.906,2.422 -12.363,7.847 -14.761,14.781 -22.075,63.445 -33.336,130.129 -33.336,197.297 l 24.007,0 c 0,-64.492 10.809,-128.496 31.993,-189.418 21.179,60.922 31.988,124.926 31.988,189.418" /><path
         id="path7183"
         style="fill:#c1121c;fill-opacity:1;fill-rule:nonzero;stroke:none"
         d="m 670.703,744.859 c 0,-102.879 -83.355,-186.309 -186.156,-186.309 -102.777,0 -186.129,83.43 -186.129,186.309 0,102.879 83.352,186.308 186.129,186.308 102.801,0 186.156,-83.429 186.156,-186.308" /><path
         id="path7185"
         style="fill:#ffffff;fill-opacity:1;fill-rule:nonzero;stroke:none"
         d="m 621.711,744.859 c 0,-75.809 -61.41,-137.289 -137.164,-137.289 -75.731,0 -137.137,61.48 -137.137,137.289 0,75.808 61.406,137.265 137.137,137.265 75.754,0 137.164,-61.457 137.164,-137.265" /><path
         id="path7187"
         style="fill:#000000;fill-opacity:1;fill-rule:nonzero;stroke:none"
         d="m 385.848,744.859 -27.504,-48.481 c -11.981,31.223 -11.981,65.762 0,96.965" /><path
         id="path7189"
         style="fill:#000000;fill-opacity:1;fill-rule:nonzero;stroke:none"
         d="m 583.242,744.859 27.531,48.484 c 11.954,-31.203 11.954,-65.742 0,-96.965" /><path
         id="path7191"
         style="fill:#000000;fill-opacity:1;fill-rule:nonzero;stroke:none"
         d="m 410.523,651.003 0,25.133 50.52,96.508 c 2.019,3.824 3.059,8.105 3.059,12.437 l 0,15.09 c 0,7.395 -5.989,13.383 -13.379,13.383 -7.395,0 -13.411,-5.988 -13.411,-13.383 l 0,-15.09 -26.789,0 0,15.09 c 0,22.203 17.997,40.199 40.2,40.199 22.175,0 40.172,-17.996 40.172,-40.199 l 0,-15.09 c 0,-8.562 -2.04,-16.976 -5.965,-24.57 l -42.594,-82.691 48.559,0 0,-26.817" /><path
         id="path7193"
         style="fill:#000000;fill-opacity:1;fill-rule:nonzero;stroke:none"
         d="m 509.016,651.003 0,57.125 11.394,0 0,-5.711 c 3.164,5.914 10.504,8.156 16.414,4.996 1.879,-0.996 3.469,-2.496 4.617,-4.332 4.305,6.117 12.77,7.594 18.86,3.289 3.621,-2.55 5.789,-6.679 5.789,-11.089 l 0,-44.278 -11.422,0 0,40.711 c 0,3.16 -2.547,5.707 -5.707,5.707 -3.137,0 -5.711,-2.547 -5.711,-5.707 l 0,-40.711 -11.418,0 0,40.711 c 0,3.16 -2.551,5.707 -5.711,5.707 -3.137,0 -5.711,-2.547 -5.711,-5.707 l 0,-40.711" /></g></g></svg>