<?xml version="1.0" encoding="UTF-8" standalone="no"?>
<svg
   xmlns:dc="http://purl.org/dc/elements/1.1/"
   xmlns:cc="http://creativecommons.org/ns#"
   xmlns:rdf="http://www.w3.org/1999/02/22-rdf-syntax-ns#"
   xmlns:svg="http://www.w3.org/2000/svg"
   xmlns="http://www.w3.org/2000/svg"
   viewBox="0 0 1251 1601.0001"
   height="1601.0001"
   width="1251"
   xml:space="preserve"
   version="1.1"
   id="svg16699"><metadata
     id="metadata16705"><rdf:RDF><cc:Work
         rdf:about=""><dc:format>image/svg+xml</dc:format><dc:type
           rdf:resource="http://purl.org/dc/dcmitype/StillImage" /><dc:title></dc:title></cc:Work></rdf:RDF></metadata><defs
     id="defs16703"><clipPath
       id="clipPath16723"
       clipPathUnits="userSpaceOnUse"><path
         id="path16725"
         d="m 52,124 849,0 0,1105 -849,0 0,-1105 z" /></clipPath></defs><g
     transform="matrix(1.25,0,0,-1.25,0,1601.0001)"
     id="g16707"><g
       id="g16709"><path
         id="path16711"
         style="fill:#ffffff;fill-opacity:1;fill-rule:nonzero;stroke:#000000;stroke-width:0.80000001;stroke-linecap:butt;stroke-linejoin:miter;stroke-miterlimit:4;stroke-dasharray:none;stroke-opacity:1"
         d="m 48.398,0.402 c -26.507,0 -48,21.488 -48,48 l 0,1184 c 0,26.507 21.493,48 48,48 l 904,0 c 26.512,0 48,-21.493 48,-48 l 0,-1184 c 0,-26.512 -21.488,-48 -48,-48 l -904,0 z" /><path
         id="path16713"
         style="fill:#000000;fill-opacity:1;fill-rule:nonzero;stroke:none"
         d="m 48.398,12.402 c -19.878,0 -36,16.117 -36,36 l 0,1184 c 0,19.879 16.122,36 36,36 l 904,0 c 19.883,0 36,-16.121 36,-36 l 0,-1184 c 0,-19.883 -16.117,-36 -36,-36 l -904,0 z" /><path
         id="path16715"
         style="fill:#ffffff;fill-opacity:1;fill-rule:nonzero;stroke:none"
         d="m 48.398,28.402 c -11.043,0 -20,8.953 -20,20 l 0,1184 c 0,11.043 8.957,20 20,20 l 904,0 c 11.047,0 20,-8.957 20,-20 l 0,-1184 c 0,-11.047 -8.953,-20 -20,-20 l -904,0 z" /><g
         transform="translate(0,-0.199951)"
         id="g16717"><g
           id="g16719"><g
             clip-path="url(#clipPath16723)"
             id="g16721"><g
               id="g16727"><path
                 id="path16729"
                 style="fill:#000000;fill-opacity:1;fill-rule:nonzero;stroke:none"
                 d="m 124.402,1156.609 70.368,-105.062 c 1.082,-1.57 1.64,-3.422 1.64,-5.344 0,-5.312 -4.297,-9.609 -9.609,-9.609 -0.801,0 -1.606,0.105 -2.41,0.316 l -35.985,9.293 0,-33.609 c 0,-89.723 18.41,-178.469 54.082,-260.817 -12.82,-13.418 -23.617,-28.617 -32.14,-45.07 -46.051,95.414 -69.95,199.984 -69.95,305.887 l 0,33.609 -35.984,-9.293 c -0.805,-0.211 -1.609,-0.316 -2.414,-0.316 -5.309,0 -9.605,4.297 -9.605,9.609 0,1.922 0.558,3.774 1.64,5.344 l 70.367,105.062 z" /><path
                 id="path16731"
                 style="fill:#000000;fill-opacity:1;fill-rule:nonzero;stroke:none"
                 d="m 516.395,124.621 0,67.988 c 0,92.239 -40.809,179.723 -111.454,239.016 l 1.223,-1.016 c 16.387,5.418 32.004,13.036 46.398,22.571 l 0.141,0.07 C 524.012,385.332 564.398,291.102 564.398,192.609 l 0,-67.988 -48.003,0 z" /><path
                 id="path16733"
                 style="fill:#000000;fill-opacity:1;fill-rule:nonzero;stroke:none"
                 d="m 292.398,1156.609 70.368,-105.062 c 1.082,-1.57 1.644,-3.422 1.644,-5.344 0,-5.312 -4.301,-9.609 -9.609,-9.609 -0.805,0 -1.61,0.105 -2.41,0.316 l -35.989,9.293 0,-33.609 c 0,-69.145 14.711,-137.52 43.114,-200.547 -5.032,0.383 -10.063,0.558 -15.129,0.558 -12.051,0 -24.071,-1.121 -35.949,-3.32 -26.45,64.531 -40.04,133.57 -40.04,203.309 l 0,33.609 -35.988,-9.293 c -0.805,-0.211 -1.605,-0.316 -2.41,-0.316 -5.312,0 -9.609,4.297 -9.609,9.609 0,1.922 0.558,3.774 1.644,5.344 l 70.363,105.062 z" /><path
                 id="path16735"
                 style="fill:#000000;fill-opacity:1;fill-rule:nonzero;stroke:none"
                 d="m 684.391,124.621 0,67.988 c 0,135.004 -56.844,263.786 -156.629,354.731 6.429,17.051 10.449,34.937 11.949,53.105 C 661.719,500.172 732.398,350.531 732.398,192.609 l 0,-67.988 -48.007,0 z" /><path
                 id="path16737"
                 style="fill:#000000;fill-opacity:1;fill-rule:nonzero;stroke:none"
                 d="m 460.395,1156.609 70.367,-105.062 c 1.082,-1.57 1.64,-3.422 1.64,-5.344 0,-5.312 -4.297,-9.609 -9.605,-9.609 -0.805,0 -1.609,0.105 -2.414,0.316 l -35.985,9.293 0,-33.609 c 0,-100.731 47.411,-195.551 127.981,-255.996 l 9.605,-7.2 C 797.238,617.961 900.375,411.684 900.375,192.621 l 0,-67.992 -47.969,0 0,67.992 c 0,203.934 -96.047,396.027 -259.211,518.383 l -9.605,7.195 C 490.93,787.691 436.391,896.77 436.391,1012.594 l 0,33.609 -35.985,-9.293 c -0.804,-0.211 -1.609,-0.316 -2.41,-0.316 -5.312,0 -9.609,4.297 -9.609,9.609 0,1.922 0.558,3.774 1.64,5.344 l 70.368,105.062 z" /><path
                 id="path16739"
                 style="fill:#000000;fill-opacity:1;fill-rule:nonzero;stroke:none"
                 d="m 652.391,1228.598 0.066,0 c 0,-67.184 11.777,-133.848 34.731,-196.981 l -5.52,0 c 22.953,63.133 34.727,129.797 34.727,196.981 l 24.003,0 c 0,-66.489 -11.039,-132.485 -32.703,-195.34 l -0.765,-2.199 c -3.426,-9.469 -12.442,-15.758 -22.539,-15.758 -10.094,0 -19.11,6.289 -22.567,15.758 l 2.758,-7.688 c -23.934,65.789 -36.195,135.246 -36.195,205.227 l 24.004,0 z" /><path
                 id="path16741"
                 style="fill:#cc0000;fill-opacity:1;fill-rule:nonzero;stroke:none"
                 d="m 530.59,616.613 c 0,-102.859 -83.363,-186.187 -186.188,-186.187 -102.859,0 -186.187,83.328 -186.187,186.187 0,102.825 83.328,186.188 186.187,186.188 102.825,0 186.188,-83.363 186.188,-186.188" /><path
                 id="path16743"
                 style="fill:#ffffff;fill-opacity:1;fill-rule:nonzero;stroke:none"
                 d="m 481.594,616.613 c 0,-75.781 -61.422,-137.203 -137.207,-137.203 -75.746,0 -137.203,61.422 -137.203,137.203 0,75.782 61.457,137.203 137.203,137.203 75.785,0 137.207,-61.421 137.207,-137.203" /><path
                 id="path16745"
                 style="fill:#000000;fill-opacity:1;fill-rule:nonzero;stroke:none"
                 d="m 245.66,616.613 -27.531,-48.461 c -5.941,15.446 -8.981,31.899 -8.981,48.461 0,16.563 3.04,32.981 8.981,48.461 l 27.531,-48.461 z" /><path
                 id="path16747"
                 style="fill:#000000;fill-opacity:1;fill-rule:nonzero;stroke:none"
                 d="m 443.129,616.613 27.531,48.461 c 5.938,-15.48 8.981,-31.898 8.981,-48.461 0,-16.562 -3.043,-33.015 -8.981,-48.461 l -27.531,48.461 z" /><path
                 id="path16749"
                 style="fill:#000000;fill-opacity:1;fill-rule:nonzero;stroke:none"
                 d="m 253.254,552.301 0,18.379 36.965,70.504 c 1.469,2.832 2.238,5.941 2.238,9.121 l 0,11.039 c 0,5.383 -4.402,9.785 -9.785,9.785 -5.449,0 -9.817,-4.402 -9.817,-9.785 l 0,-11.039 -19.601,0 0,11.039 c 0,16.211 13.172,29.383 29.418,29.383 16.215,0 29.383,-13.172 29.383,-29.383 l 0,-11.039 c 0,-6.254 -1.5,-12.403 -4.367,-17.957 l -31.165,-60.446 35.532,0 0,-19.601 -58.801,0 z" /><path
                 id="path16751"
                 style="fill:#000000;fill-opacity:1;fill-rule:nonzero;stroke:none"
                 d="m 321.199,542.5 0,22.852 13.067,0 0,-13.067 -13.067,-9.785 z" /><path
                 id="path16753"
                 style="fill:#000000;fill-opacity:1;fill-rule:nonzero;stroke:none"
                 d="m 343.414,552.301 0,12.265 24.633,47.028 c 0.976,1.851 1.5,3.945 1.5,6.043 l 0,7.336 c 0,3.632 -2.934,6.535 -6.531,6.535 -3.602,0 -6.536,-2.903 -6.536,-6.535 l 0,-7.336 -13.066,0 0,7.336 c 0,10.832 8.77,19.601 19.602,19.601 10.828,0 19.597,-8.769 19.597,-19.601 l 0,-7.336 c 0,-4.157 -0.976,-8.282 -2.898,-11.985 l -20.789,-40.285 23.687,0 0,-13.066 -39.199,0 z" /><path
                 id="path16755"
                 style="fill:#000000;fill-opacity:1;fill-rule:nonzero;stroke:none"
                 d="m 391.762,552.301 0,48.984 9.816,0 0,-4.89 c 1.785,3.421 5.313,5.519 9.192,5.519 3.597,0 6.953,-1.852 8.839,-4.926 2.164,3.074 5.727,4.926 9.5,4.926 6.43,0 11.637,-5.207 11.637,-11.633 l 0,-37.98 -9.785,0 0,34.906 c 0,2.723 -2.199,4.926 -4.891,4.926 -2.722,0 -4.925,-2.203 -4.925,-4.926 l 0,-34.906 -9.782,0 0,34.906 c 0,2.723 -2.203,4.926 -4.89,4.926 -2.727,0 -4.895,-2.203 -4.895,-4.926 l 0,-34.906 -9.816,0 z" /></g></g></g></g></g></g></svg>