<?xml version="1.0" encoding="UTF-8" standalone="no"?>
<svg
   xmlns:dc="http://purl.org/dc/elements/1.1/"
   xmlns:cc="http://creativecommons.org/ns#"
   xmlns:rdf="http://www.w3.org/1999/02/22-rdf-syntax-ns#"
   xmlns:svg="http://www.w3.org/2000/svg"
   xmlns="http://www.w3.org/2000/svg"
   viewBox="0 0 1251.0012 1601.9487"
   height="1601.9487"
   width="1251.0012"
   xml:space="preserve"
   version="1.1"
   id="svg13558"><metadata
     id="metadata13564"><rdf:RDF><cc:Work
         rdf:about=""><dc:format>image/svg+xml</dc:format><dc:type
           rdf:resource="http://purl.org/dc/dcmitype/StillImage" /><dc:title></dc:title></cc:Work></rdf:RDF></metadata><defs
     id="defs13562"><clipPath
       id="clipPath13588"
       clipPathUnits="userSpaceOnUse"><path
         id="path13590"
         d="m 465,598 25,0 0,585 -25,0 0,-585 z" /></clipPath></defs><g
     transform="matrix(1.25,0,0,-1.25,0,1601.9487)"
     id="g13566"><g
       id="g13568"><path
         id="path13570"
         style="fill:#ffffff;fill-opacity:1;fill-rule:nonzero;stroke:none"
         d="m 953.566,1281.161 c 25.829,0 46.832,-21.008 46.832,-46.836 l 0,-1187.067 c 0,-25.828 -21.003,-46.855 -46.832,-46.855 l -906.332,0 C 21.406,0.403 0.398,21.43 0.398,47.258 l 0,1187.067 c 0,25.828 21.008,46.836 46.836,46.836 l 906.332,0 z" /><path
         id="path13572"
         style="fill:#000000;fill-opacity:1;fill-rule:nonzero;stroke:none"
         d="m 952.297,12.434 c 19.941,0 36.105,16.184 36.105,36.105 l 0,1184.539 c 0,19.922 -16.164,36.083 -36.105,36.083 l -903.793,0 c -19.942,0 -36.106,-16.161 -36.106,-36.083 l 0,-1184.539 c 0,-19.921 16.164,-36.105 36.106,-36.105" /><path
         id="path13574"
         style="fill:#ffffff;fill-opacity:1;fill-rule:nonzero;stroke:none"
         d="m 952.297,28.485 c 11.066,0 20.055,8.961 20.055,20.054 l 0,1184.539 c 0,11.071 -8.989,20.055 -20.055,20.055 l -903.793,0 c -11.07,0 -20.055,-8.984 -20.055,-20.055 l 0,-1184.539 c 0,-11.093 8.985,-20.054 20.055,-20.054" /><path
         id="path13576"
         style="fill:#000000;fill-opacity:1;fill-rule:nonzero;stroke:none"
         d="m 953.566,1281.559 c 26.043,0 47.235,-21.191 47.235,-47.234 l 0,-1187.067 C 1000.801,21.215 979.613,0 953.566,0 L 47.234,0 C 21.191,0 0,21.215 0,47.258 l 0,1187.067 c 0,26.043 21.191,47.234 47.234,47.234 l 906.332,0 z m 0,-0.398 -906.332,0 c -25.828,0 -46.832,-21.008 -46.832,-46.836 l 0,-1187.067 C 0.402,21.43 21.406,0.403 47.234,0.403 l 906.332,0 c 25.829,0 46.836,21.027 46.836,46.855 l 0,1187.067 c 0,25.828 -21.007,46.836 -46.836,46.836 z" /><path
         id="path13578"
         style="fill:#000000;fill-opacity:1;fill-rule:nonzero;stroke:none"
         d="m 674.531,1047.395 0,-57.539 c 0,-177.938 -67.976,-349.203 -190.148,-478.817 L 408.852,430.836 C 355.844,374.52 326.316,300.176 326.316,222.875 l 0,-95.871 -48.05,0 0,95.871 c 0,89.516 34.218,175.578 95.687,240.793 l 75.442,80.207 c 113.75,120.715 177.089,280.258 177.089,445.981 l 0,57.539 -35.992,-9.262 c -0.82,-0.23 -1.594,-0.32 -2.457,-0.32 -5.277,0 -9.555,4.269 -9.555,9.582 0,1.91 0.547,3.726 1.59,5.316 l 70.438,104.953 70.39,-104.953 c 1.043,-1.59 1.637,-3.406 1.637,-5.316 0,-5.313 -4.277,-9.582 -9.555,-9.582 -0.867,0 -1.64,0.09 -2.503,0.32 l -35.946,9.262 z" /><path
         id="path13580"
         style="fill:#000000;fill-opacity:1;fill-rule:nonzero;stroke:none"
         d="m 465.07,455.536 0,-352.469 24.114,0 0,377.992 -24.114,-25.523 z" /><g
         transform="translate(0,-0.44104)"
         id="g13582"><g
           id="g13584"><g
             clip-path="url(#clipPath13588)"
             id="g13586"><g
               id="g13592"><path
                 id="path13594"
                 style="fill:#000000;fill-opacity:1;fill-rule:nonzero;stroke:none"
                 d="m 465.086,1182.027 24.117,0 0,-550.98 c -7.734,-10.945 -15.742,-21.664 -24.117,-32.109 l 0,583.089 z" /></g></g></g></g></g></g></svg>