<?xml version="1.0" encoding="UTF-8" standalone="no"?>
<svg
   xmlns:dc="http://purl.org/dc/elements/1.1/"
   xmlns:cc="http://creativecommons.org/ns#"
   xmlns:rdf="http://www.w3.org/1999/02/22-rdf-syntax-ns#"
   xmlns:svg="http://www.w3.org/2000/svg"
   xmlns="http://www.w3.org/2000/svg"
   viewBox="0 0 1251 1601.9473"
   height="1601.9473"
   width="1251"
   xml:space="preserve"
   version="1.1"
   id="svg4032"><metadata
     id="metadata4038"><rdf:RDF><cc:Work
         rdf:about=""><dc:format>image/svg+xml</dc:format><dc:type
           rdf:resource="http://purl.org/dc/dcmitype/StillImage" /><dc:title></dc:title></cc:Work></rdf:RDF></metadata><defs
     id="defs4036" /><g
     transform="matrix(1.25,0,0,-1.25,0,1601.9473)"
     id="g4040"><g
       id="g4042"><path
         id="path4044"
         style="fill:#ffffff;fill-opacity:1;fill-rule:nonzero;stroke:none"
         d="m 47.234,1281.159 c -25.828,0 -46.832,-21.007 -46.832,-46.836 l 0,-1187.066 C 0.402,21.429 21.406,0.402 47.234,0.402 l 906.332,0 c 25.829,0 46.836,21.027 46.836,46.855 l 0,1187.066 c 0,25.829 -21.007,46.836 -46.836,46.836 l -906.332,0 z" /><path
         id="path4046"
         style="fill:#000000;fill-opacity:1;fill-rule:nonzero;stroke:none"
         d="m 48.504,12.433 c -19.942,0 -36.106,16.183 -36.106,36.105 l 0,1184.539 c 0,19.922 16.164,36.082 36.106,36.082 l 903.793,0 c 19.941,0 36.105,-16.16 36.105,-36.082 l 0,-1184.539 c 0,-19.922 -16.164,-36.105 -36.105,-36.105" /><path
         id="path4048"
         style="fill:#ffffff;fill-opacity:1;fill-rule:nonzero;stroke:none"
         d="m 48.504,28.484 c -11.066,0 -20.055,8.961 -20.055,20.054 l 0,1184.539 c 0,11.071 8.989,20.055 20.055,20.055 l 903.793,0 c 11.07,0 20.055,-8.984 20.055,-20.055 l 0,-1184.539 c 0,-11.093 -8.985,-20.054 -20.055,-20.054" /><path
         id="path4050"
         style="fill:#000000;fill-opacity:1;fill-rule:nonzero;stroke:none"
         d="M 47.234,1281.558 C 21.191,1281.558 0,1260.366 0,1234.323 L 0,47.257 C 0,21.214 21.188,-0.001 47.234,-0.001 l 906.332,0 c 26.043,0 47.235,21.215 47.235,47.258 l 0,1187.066 c 0,26.043 -21.192,47.235 -47.235,47.235 l -906.332,0 z m 0,-0.399 906.332,0 c 25.829,0 46.832,-21.007 46.832,-46.836 l 0,-1187.066 c 0,-25.828 -21.003,-46.855 -46.832,-46.855 l -906.332,0 C 21.406,0.402 0.398,21.429 0.398,47.257 l 0,1187.066 c 0,25.829 21.008,46.836 46.836,46.836 z" /><path
         id="path4052"
         style="fill:#000000;fill-opacity:1;fill-rule:nonzero;stroke:none"
         d="m 100.41,1046.632 -35.969,-9.305 c -5.125,-1.324 -10.375,1.762 -11.699,6.911 -0.695,2.625 -0.203,5.453 1.324,7.722 l 70.356,105.125 70.355,-105.125 c 2.93,-4.41 1.754,-10.347 -2.652,-13.332 -2.27,-1.504 -5.098,-1.988 -7.727,-1.301 l -35.988,9.305 0,-33.621 c 0,-206.605 97.168,-401.125 262.297,-525.086 l 9.609,-7.215 C 510.91,412.702 564.262,305.948 564.262,192.566 l 0,-68.035 -47.996,0 0,68.035 c 0,98.242 -46.215,190.773 -124.754,249.73 l -9.61,7.192 C 204.719,582.523 100.41,791.292 100.41,1013.011" /><path
         id="path4054"
         style="fill:#000000;fill-opacity:1;fill-rule:nonzero;stroke:none"
         d="m 268.367,1046.632 -35.992,-9.305 c -5.148,-1.324 -10.375,1.762 -11.699,6.911 -0.696,2.625 -0.207,5.453 1.324,7.722 l 70.355,105.125 70.329,-105.125 c 2.957,-4.41 1.796,-10.347 -2.598,-13.332 -2.297,-1.504 -5.102,-1.988 -7.75,-1.301 l -35.992,9.305 0,-33.621 c 0,-153.684 72.289,-298.395 195.129,-390.621 l 9.609,-7.188 c 132.91,-99.773 211.09,-256.363 211.09,-422.636 l 0,-68.035 -47.973,0 0,68.035 c 0,151.16 -71.094,293.5 -191.922,384.195 l -9.582,7.215 C 347.77,685.249 268.367,844.21 268.367,1013.011" /><path
         id="path4056"
         style="fill:#000000;fill-opacity:1;fill-rule:nonzero;stroke:none"
         d="m 436.301,1046.632 -35.996,-9.305 c -5.121,-1.324 -10.371,1.762 -11.7,6.911 -0.671,2.625 -0.203,5.453 1.329,7.722 l 70.355,105.125 70.352,-105.125 c 2.957,-4.41 1.754,-10.347 -2.649,-13.332 -2.269,-1.504 -5.074,-1.988 -7.722,-1.301 l -35.997,9.305 0,-33.621 c 0,-100.766 47.415,-195.668 127.965,-256.156 l 9.586,-7.192 C 797.02,618.159 900.129,411.761 900.129,192.566 l 0,-68.035 -47.973,0 0,68.035 c 0,204.078 -95.996,396.254 -259.113,518.683 l -9.586,7.188 c -92.633,69.539 -147.156,178.668 -147.156,294.574" /></g></g></svg>