<?xml version="1.0" encoding="UTF-8" standalone="no"?>
<svg
   xmlns:dc="http://purl.org/dc/elements/1.1/"
   xmlns:cc="http://creativecommons.org/ns#"
   xmlns:rdf="http://www.w3.org/1999/02/22-rdf-syntax-ns#"
   xmlns:svg="http://www.w3.org/2000/svg"
   xmlns="http://www.w3.org/2000/svg"
   viewBox="0 0 1251 1601.9473"
   height="1601.9473"
   width="1251"
   xml:space="preserve"
   version="1.1"
   id="svg3751"><metadata
     id="metadata3757"><rdf:RDF><cc:Work
         rdf:about=""><dc:format>image/svg+xml</dc:format><dc:type
           rdf:resource="http://purl.org/dc/dcmitype/StillImage" /><dc:title></dc:title></cc:Work></rdf:RDF></metadata><defs
     id="defs3755" /><g
     transform="matrix(1.25,0,0,-1.25,0,1601.9473)"
     id="g3759"><g
       id="g3761"><path
         id="path3763"
         style="fill:#ffffff;fill-opacity:1;fill-rule:nonzero;stroke:none"
         d="m 953.566,1281.159 c 25.829,0 46.832,-21.007 46.832,-46.836 l 0,-1187.066 c 0,-25.828 -21.003,-46.855 -46.832,-46.855 l -906.332,0 C 21.406,0.402 0.398,21.429 0.398,47.257 l 0,1187.066 c 0,25.829 21.008,46.836 46.836,46.836 l 906.332,0 z" /><path
         id="path3765"
         style="fill:#000000;fill-opacity:1;fill-rule:nonzero;stroke:none"
         d="m 952.297,12.433 c 19.941,0 36.105,16.183 36.105,36.105 l 0,1184.539 c 0,19.922 -16.164,36.082 -36.105,36.082 l -903.793,0 c -19.942,0 -36.106,-16.16 -36.106,-36.082 l 0,-1184.539 c 0,-19.922 16.164,-36.105 36.106,-36.105" /><path
         id="path3767"
         style="fill:#ffffff;fill-opacity:1;fill-rule:nonzero;stroke:none"
         d="m 952.297,28.484 c 11.066,0 20.055,8.961 20.055,20.054 l 0,1184.539 c 0,11.071 -8.989,20.055 -20.055,20.055 l -903.793,0 c -11.07,0 -20.055,-8.984 -20.055,-20.055 l 0,-1184.539 c 0,-11.093 8.985,-20.054 20.055,-20.054" /><path
         id="path3769"
         style="fill:#000000;fill-opacity:1;fill-rule:nonzero;stroke:none"
         d="m 953.566,1281.558 c 26.043,0 47.235,-21.192 47.235,-47.235 l 0,-1187.066 c 0,-26.043 -21.188,-47.258 -47.235,-47.258 l -906.332,0 C 21.191,-0.001 0,21.214 0,47.257 l 0,1187.066 c 0,26.043 21.191,47.235 47.234,47.235 l 906.332,0 z m 0,-0.399 -906.332,0 c -25.828,0 -46.832,-21.007 -46.832,-46.836 l 0,-1187.066 C 0.402,21.429 21.406,0.402 47.234,0.402 l 906.332,0 c 25.829,0 46.836,21.027 46.836,46.855 l 0,1187.066 c 0,25.829 -21.007,46.836 -46.836,46.836 z" /><path
         id="path3771"
         style="fill:#000000;fill-opacity:1;fill-rule:nonzero;stroke:none"
         d="m 872.371,1046.835 35.973,-9.308 c 5.156,-1.305 10.383,1.789 11.711,6.91 0.679,2.652 0.195,5.457 -1.328,7.726 l -70.375,105.028 -70.348,-105.028 c -2.961,-4.386 -1.789,-10.351 2.621,-13.308 2.27,-1.504 5.109,-1.985 7.73,-1.328 l 36.004,9.308 0,-57.57 C 824.359,832.808 748.02,686.175 619.84,596.39 L 468.164,490.14 C 380.57,428.796 328.406,328.616 328.406,221.675 l 0,-95.949 48.008,0 0,95.949 c 0,91.285 44.524,176.824 119.301,229.18 l 151.664,106.242 c 140.996,98.785 224.992,260.055 224.992,432.168" /><path
         id="path3773"
         style="fill:#000000;fill-opacity:1;fill-rule:nonzero;stroke:none"
         d="m 672.363,1046.835 36.012,-9.308 c 5.148,-1.305 10.371,1.789 11.695,6.91 0.692,2.652 0.211,5.457 -1.324,7.726 l -70.367,105.028 -70.383,-105.028 c -2.926,-4.386 -1.754,-10.351 2.656,-13.308 2.27,-1.504 5.098,-1.985 7.731,-1.328 l 35.996,9.308 0,-57.57 c 0,-91.266 -44.516,-176.809 -119.301,-229.184 L 353.414,653.866 C 212.414,555.089 128.43,393.784 128.43,221.675 l 0,-95.949 47.98,0 0,95.949 c 0,156.453 76.363,303.098 204.543,392.895 L 532.617,720.8 c 87.602,61.363 139.746,161.555 139.746,268.465" /></g></g></svg>