<?xml version="1.0" encoding="UTF-8" standalone="no"?>
<svg
   xmlns:dc="http://purl.org/dc/elements/1.1/"
   xmlns:cc="http://creativecommons.org/ns#"
   xmlns:rdf="http://www.w3.org/1999/02/22-rdf-syntax-ns#"
   xmlns:svg="http://www.w3.org/2000/svg"
   xmlns="http://www.w3.org/2000/svg"
   viewBox="0 0 1251.0012 1601.9487"
   height="1601.9487"
   width="1251.0012"
   xml:space="preserve"
   version="1.1"
   id="svg13738"><metadata
     id="metadata13744"><rdf:RDF><cc:Work
         rdf:about=""><dc:format>image/svg+xml</dc:format><dc:type
           rdf:resource="http://purl.org/dc/dcmitype/StillImage" /><dc:title></dc:title></cc:Work></rdf:RDF></metadata><defs
     id="defs13742" /><g
     transform="matrix(1.25,0,0,-1.25,0,1601.9487)"
     id="g13746"><g
       id="g13748"><path
         id="path13750"
         style="fill:#ffffff;fill-opacity:1;fill-rule:nonzero;stroke:none"
         d="m 953.566,1281.161 c 25.829,0 46.832,-21.008 46.832,-46.836 l 0,-1187.067 c 0,-25.828 -21.003,-46.855 -46.832,-46.855 l -906.332,0 C 21.406,0.403 0.398,21.43 0.398,47.258 l 0,1187.067 c 0,25.828 21.008,46.836 46.836,46.836 l 906.332,0 z" /><path
         id="path13752"
         style="fill:#000000;fill-opacity:1;fill-rule:nonzero;stroke:none"
         d="m 952.297,12.434 c 19.941,0 36.105,16.184 36.105,36.105 l 0,1184.539 c 0,19.922 -16.164,36.083 -36.105,36.083 l -903.793,0 c -19.942,0 -36.106,-16.161 -36.106,-36.083 l 0,-1184.539 c 0,-19.921 16.164,-36.105 36.106,-36.105" /><path
         id="path13754"
         style="fill:#ffffff;fill-opacity:1;fill-rule:nonzero;stroke:none"
         d="m 952.297,28.485 c 11.066,0 20.055,8.961 20.055,20.054 l 0,1184.539 c 0,11.071 -8.989,20.055 -20.055,20.055 l -903.793,0 c -11.07,0 -20.055,-8.984 -20.055,-20.055 l 0,-1184.539 c 0,-11.093 8.985,-20.054 20.055,-20.054" /><path
         id="path13756"
         style="fill:#000000;fill-opacity:1;fill-rule:nonzero;stroke:none"
         d="m 953.566,1281.559 c 26.043,0 47.235,-21.191 47.235,-47.234 l 0,-1187.067 C 1000.801,21.215 979.613,0 953.566,0 L 47.234,0 C 21.191,0 0,21.215 0,47.258 l 0,1187.067 c 0,26.043 21.191,47.234 47.234,47.234 l 906.332,0 z m 0,-0.398 -906.332,0 c -25.828,0 -46.832,-21.008 -46.832,-46.836 l 0,-1187.067 C 0.402,21.43 21.406,0.403 47.234,0.403 l 906.332,0 c 25.829,0 46.836,21.027 46.836,46.855 l 0,1187.067 c 0,25.828 -21.007,46.836 -46.836,46.836 z" /><path
         id="path13758"
         style="fill:#000000;fill-opacity:1;fill-rule:nonzero;stroke:none"
         d="m 500.477,1047.368 0,-57.5 c 0,-89.477 -34.223,-175.586 -95.61,-240.809 L 329.324,668.895 C 215.512,548.129 152.164,388.618 152.164,222.887 l 0,-95.922 -48.008,0 0,95.922 c 0,177.949 67.989,349.223 190.129,478.848 l 75.539,80.16 c 53.016,56.32 82.551,130.715 82.551,207.973 l 0,57.5 -35.996,-9.266 c -0.82,-0.184 -1.594,-0.274 -2.41,-0.274 -5.324,0 -9.649,4.27 -9.649,9.54 0,1.953 0.637,3.812 1.684,5.359 l 70.445,104.961 70.399,-104.961 c 1.047,-1.547 1.593,-3.406 1.593,-5.359 0,-5.27 -4.234,-9.54 -9.558,-9.54 -0.817,0 -1.684,0.09 -2.41,0.274 l -35.996,9.266 z" /><path
         id="path13760"
         style="fill:#000000;fill-opacity:1;fill-rule:nonzero;stroke:none"
         d="m 848.68,1047.368 0,-57.5 c 0,-177.95 -68.032,-349.223 -190.172,-478.848 L 582.965,430.813 C 529.906,374.539 500.461,300.145 500.461,222.887 l 0,-95.922 -48.102,0 0,95.922 c 0,89.43 34.27,175.586 95.657,240.762 l 75.496,80.211 c 113.769,120.765 177.07,280.277 177.07,446.008 l 0,57.5 -35.996,-9.266 c -0.82,-0.184 -1.594,-0.274 -2.414,-0.274 -5.277,0 -9.555,4.27 -9.555,9.54 0,1.953 0.543,3.812 1.59,5.359 l 70.445,104.961 70.399,-104.961 c 1.047,-1.547 1.594,-3.406 1.594,-5.359 0,-5.27 -4.231,-9.54 -9.555,-9.54 -0.82,0 -1.594,0.09 -2.414,0.274 l -35.996,9.266 z" /><path
         id="path13762"
         style="fill:#000000;fill-opacity:1;fill-rule:nonzero;stroke:none"
         d="m 639.246,455.563 0,-352.539 23.984,0 0,378.019 -23.984,-25.48 z" /><path
         id="path13764"
         style="fill:#000000;fill-opacity:1;fill-rule:nonzero;stroke:none"
         d="m 639.258,1181.649 23.937,0 0,-551.153 c -7.597,-10.855 -15.609,-21.574 -23.937,-32.019 l 0,583.172 z" /></g></g></svg>