<?xml version="1.0" standalone="no"?>
<!DOCTYPE svg PUBLIC "-//W3C//DTD SVG 1.1//EN" "http://www.w3.org/Graphics/SVG/1.1/DTD/svg11.dtd">
<svg width="1250" height="1600" version="1.1" xmlns="http://www.w3.org/2000/svg">
<path fill="white" stroke="black" stroke-width="1" d="M60 1600A60 60 0 0 1 0 1540L0 60A60 60 0 0 1 60 0L1190 0A60 60 0 0 1 1250 60L1250 1540A60 60 0 0 1 1190 1600L60 1600Z" />
<path fill="black" stroke="none" d="M60 1585A45 45 0 0 1 15 1540L15 60A45 45 0 0 1 60 15L1190 15A45 45 0 0 1 1235 60L1235 1540A45 45 0 0 1 1190 1585L60 1585Z" />
<path fill="white" stroke="none" d="M60 1565A25 25 0 0 1 35 1540L35 60A25 25 0 0 1 60 35L1190 35A25 25 0 0 1 1215 60L1215 1540A25 25 0 0 1 1190 1565L60 1565Z" />
<path fill="black" stroke="none" d="M285 293L240.000098923186 304.618924496316A12 12 0 0 1 225.437666759944 289.788699633188A12 12 0 0 1 227.028768958083 286.323582434515L315 155L402.971231041917 286.323582434515A12 12 0 0 1 393.796331697025 304.973548172046A12 12 0 0 1 389.999901076814 304.618924496316L345 293L345 360A485 485 0 0 0 560.837074729627 763.455474197458L718.011182525891 868.313838804971A555 555 0 0 1 965 1330L965 1445L905 1445L905 1330A495 495 0 0 0 684.712676306876 918.225856231461L527.538568510612 813.367491623947A545 545 0 0 1 285 360L285 293Z" />
</svg>
