<?xml version="1.0" encoding="UTF-8" standalone="no"?>
<svg
   xmlns:dc="http://purl.org/dc/elements/1.1/"
   xmlns:cc="http://creativecommons.org/ns#"
   xmlns:rdf="http://www.w3.org/1999/02/22-rdf-syntax-ns#"
   xmlns:svg="http://www.w3.org/2000/svg"
   xmlns="http://www.w3.org/2000/svg"
   viewBox="0 0 1251.0012 1601.9487"
   height="1601.9487"
   width="1251.0012"
   xml:space="preserve"
   id="svg5612"
   version="1.1"><metadata
     id="metadata5618"><rdf:RDF><cc:Work
         rdf:about=""><dc:format>image/svg+xml</dc:format><dc:type
           rdf:resource="http://purl.org/dc/dcmitype/StillImage" /><dc:title></dc:title></cc:Work></rdf:RDF></metadata><defs
     id="defs5616"><clipPath
       id="clipPath5640"
       clipPathUnits="userSpaceOnUse"><path
         id="path5638"
         d="M 0,0 H 939 V 1202 H 0 Z" /></clipPath></defs><g
     transform="matrix(1.3333333,0,0,1.3333333,0,9.3820515e-6)"
     id="g5620"><g
       id="g5622"><path
         id="path5624"
         style="fill:#ffffff;fill-opacity:1;fill-rule:nonzero;stroke:none"
         d="m 893.969,0.375 c 24.215,0 43.906,19.691 43.906,43.906 v 1112.875 c 0,24.215 -19.691,43.926 -43.906,43.926 H 44.281 c -24.215,0 -43.906,-19.711 -43.906,-43.926 V 44.281 C 0.375,20.066 20.066,0.375 44.281,0.375 Z" /><path
         id="path5626"
         style="fill:#000000;fill-opacity:1;fill-rule:nonzero;stroke:none"
         d="m 892.777,1189.805 c 18.696,0 33.848,-15.172 33.848,-33.848 V 45.449 c 0,-18.676 -15.152,-33.824 -33.848,-33.824 H 45.473 c -18.696,0 -33.848,15.148 -33.848,33.824 v 1110.508 c 0,18.676 15.152,33.848 33.848,33.848" /><path
         id="path5628"
         style="fill:#ffffff;fill-opacity:1;fill-rule:nonzero;stroke:none"
         d="m 892.777,1174.758 c 10.375,0 18.801,-8.403 18.801,-18.801 V 45.449 c 0,-10.379 -8.426,-18.801 -18.801,-18.801 H 45.473 c -10.379,0 -18.801,8.422 -18.801,18.801 v 1110.508 c 0,10.398 8.422,18.801 18.801,18.801" /><path
         id="path5630"
         style="fill:#000000;fill-opacity:1;fill-rule:nonzero;stroke:none"
         d="m 893.969,0 c 24.414,0 44.281,19.867 44.281,44.281 v 1112.875 c 0,24.418 -19.863,44.305 -44.281,44.305 H 44.281 C 19.867,1201.461 0,1181.574 0,1157.156 V 44.281 C 0,19.867 19.867,0 44.281,0 Z m 0,0.375 H 44.281 C 20.066,0.375 0.375,20.066 0.375,44.281 v 1112.875 c 0,24.215 19.691,43.926 43.906,43.926 h 849.688 c 24.215,0 43.906,-19.711 43.906,-43.926 V 44.281 c 0,-24.215 -19.691,-43.906 -43.906,-43.906 z" /><g
         id="g5632"><g
           id="g5634"><g
             clip-path="url(#clipPath5640)"
             id="g5636"><g
               id="g5642"><path
                 id="path5644"
                 style="fill:#000000;fill-opacity:1;fill-rule:evenodd;stroke:none"
                 d="m 809.625,220.965 v 53.933 c 0,166.825 -63.605,327.375 -177.871,448.93 l -70.699,75.176 c -49.614,52.82 -77.235,122.535 -77.235,194.969 v 89.882 h -44.972 v -89.882 c 0,-83.871 31.996,-164.637 89.457,-225.758 L 599.004,693.07 C 705.426,579.852 764.684,430.281 764.684,274.898 v -53.933 l -33.7,8.695 c -0.75,0.195 -1.468,0.293 -2.254,0.293 -4.968,0 -8.988,-4.019 -8.988,-8.988 0,-1.797 0.524,-3.527 1.535,-5 l 65.895,-98.383 65.894,98.383 c 0.981,1.473 1.504,3.203 1.504,5 0,4.969 -4.023,8.988 -8.988,8.988 -0.754,0 -1.504,-0.098 -2.258,-0.293 z" /><path
                 id="path5646"
                 style="fill:#000000;fill-opacity:1;fill-rule:evenodd;stroke:none"
                 d="M 627.781,1106.336 V 768.535 l 22.485,-24.449 v 362.25 z" /><path
                 id="path5648"
                 style="fill:#000000;fill-opacity:1;fill-rule:evenodd;stroke:none"
                 d="m 627.781,95.125 h 22.485 V 592.43 c -7.192,9.84 -14.676,19.48 -22.485,28.925 z" /><path
                 id="path5650"
                 style="fill:#000000;fill-opacity:1;fill-rule:nonzero;stroke:none"
                 d="m 487.277,220.961 v 31.441 c -7.586,327.801 -223.668,443.047 -232.195,767.809 v 63.637 h 44.941 v -63.637 C 308.52,695.449 524.633,580.203 532.184,252.402 v -31.441 l 33.765,8.727 c 0.719,0.164 1.469,0.261 2.223,0.261 4.969,0 8.988,-4.019 8.988,-8.988 0,-1.766 -0.523,-3.531 -1.535,-5 l -65.895,-98.352 -65.894,98.352 c -0.981,1.469 -1.504,3.234 -1.504,5 0,4.969 4.023,8.988 8.988,8.988 0.754,0 1.504,-0.097 2.258,-0.261 0,0.261 33.699,-8.727 33.699,-8.727" /><path
                 id="path5652"
                 style="fill:#000000;fill-opacity:1;fill-rule:nonzero;stroke:none"
                 d="m 282.18,229.938 33.699,-8.989 v 31.477 C 308.328,580.227 92.215,695.473 83.684,1020.199 v 63.672 h 44.941 v -63.672 C 137.156,695.473 353.238,580.227 360.82,252.426 v -31.477 l 33.731,8.727 c 0.719,0.164 1.504,0.262 2.222,0.262 4.969,0 8.989,-4.02 8.989,-8.989 0,-1.765 -0.489,-3.496 -1.504,-5 l -65.895,-98.347 -65.925,98.347 c -0.981,1.504 -1.469,3.235 -1.469,5 0,4.969 3.988,8.989 8.957,8.989 0.75,0 1.535,-0.098 2.254,-0.262 z" /></g></g></g></g></g></g></svg>