<?xml version="1.0" standalone="no"?>
<!DOCTYPE svg PUBLIC "-//W3C//DTD SVG 1.1//EN" "http://www.w3.org/Graphics/SVG/1.1/DTD/svg11.dtd">
<svg width="1250" height="1600" version="1.1" xmlns="http://www.w3.org/2000/svg">
<path fill="white" stroke="black" stroke-width="1" d="M60 1600A60 60 0 0 1 0 1540L0 60A60 60 0 0 1 60 0L1190 0A60 60 0 0 1 1250 60L1250 1540A60 60 0 0 1 1190 1600L60 1600Z" />
<path fill="black" stroke="none" d="M60 1585A45 45 0 0 1 15 1540L15 60A45 45 0 0 1 60 15L1190 15A45 45 0 0 1 1235 60L1235 1540A45 45 0 0 1 1190 1585L60 1585Z" />
<path fill="white" stroke="none" d="M60 1565A25 25 0 0 1 35 1540L35 60A25 25 0 0 1 60 35L1190 35A25 25 0 0 1 1215 60L1215 1540A25 25 0 0 1 1190 1565L60 1565Z" />
<path fill="black" stroke="none" fill-rule="evenodd" d="M775 1445L775 1205A325 325 0 0 1 821.300918713819 1037.81201571214L845.151219369783 998.053458310238A385 385 0 0 0 845.151219369783 601.946541689762L821.300918713819 562.187984287863A325 325 0 0 1 775 395L775 293L819.999901076814 304.618924496316A12 12 0 0 0 834.562333240056 289.788699633188A12 12 0 0 0 832.971231041917 286.323582434515L745 155L657.028768958083 286.323582434515A12 12 0 0 0 666.203668302975 304.973548172046A12 12 0 0 0 670.000098923186 304.618924496316L715 293L715 395A385 385 0 0 0 769.848780630217 593.053458310238L793.699081286181 632.812015712137A325 325 0 0 1 793.699081286181 967.187984287863L769.848780630217 1006.94654168976A385 385 0 0 0 715 1205L715 1445L775 1445ZM475 1445L475 1205A325 325 0 0 1 521.300918713819 1037.81201571214L545.151219369783 998.053458310238A385 385 0 0 0 545.151219369783 601.946541689762L521.300918713819 562.187984287863A325 325 0 0 1 475 395L475 293L519.999901076814 304.618924496316A12 12 0 0 0 534.562333240056 289.788699633188A12 12 0 0 0 532.971231041916 286.323582434515L445 155L357.028768958084 286.323582434515A12 12 0 0 0 366.203668302975 304.973548172046A12 12 0 0 0 370.000098923186 304.618924496316L415 293L415 395A385 385 0 0 0 469.848780630217 593.053458310238L493.699081286181 632.812015712137A325 325 0 0 1 493.699081286181 967.187984287863L469.848780630217 1006.94654168976A385 385 0 0 0 415 1205L415 1445L475 1445Z" />
</svg>
