<?xml version="1.0" encoding="UTF-8" standalone="no"?>
<svg
   xmlns:dc="http://purl.org/dc/elements/1.1/"
   xmlns:cc="http://creativecommons.org/ns#"
   xmlns:rdf="http://www.w3.org/1999/02/22-rdf-syntax-ns#"
   xmlns:svg="http://www.w3.org/2000/svg"
   xmlns="http://www.w3.org/2000/svg"
   viewBox="0 0 1251.0012 1601.9487"
   height="1601.9487"
   width="1251.0012"
   xml:space="preserve"
   version="1.1"
   id="svg3531"><metadata
     id="metadata3537"><rdf:RDF><cc:Work
         rdf:about=""><dc:format>image/svg+xml</dc:format><dc:type
           rdf:resource="http://purl.org/dc/dcmitype/StillImage" /><dc:title></dc:title></cc:Work></rdf:RDF></metadata><defs
     id="defs3535" /><g
     transform="matrix(1.25,0,0,-1.25,0,1601.9487)"
     id="g3539"><g
       id="g3541"><path
         id="path3543"
         style="fill:#ffffff;fill-opacity:1;fill-rule:nonzero;stroke:none"
         d="m 953.566,1281.161 c 25.829,0 46.832,-21.008 46.832,-46.836 l 0,-1187.067 c 0,-25.828 -21.003,-46.855 -46.832,-46.855 l -906.332,0 C 21.406,0.403 0.398,21.43 0.398,47.258 l 0,1187.067 c 0,25.828 21.008,46.836 46.836,46.836 l 906.332,0 z" /><path
         id="path3545"
         style="fill:#000000;fill-opacity:1;fill-rule:nonzero;stroke:none"
         d="m 952.297,12.434 c 19.941,0 36.105,16.184 36.105,36.105 l 0,1184.539 c 0,19.922 -16.164,36.083 -36.105,36.083 l -903.793,0 c -19.942,0 -36.106,-16.161 -36.106,-36.083 l 0,-1184.539 c 0,-19.921 16.164,-36.105 36.106,-36.105" /><path
         id="path3547"
         style="fill:#ffffff;fill-opacity:1;fill-rule:nonzero;stroke:none"
         d="m 952.297,28.485 c 11.066,0 20.055,8.961 20.055,20.054 l 0,1184.539 c 0,11.071 -8.989,20.055 -20.055,20.055 l -903.793,0 c -11.07,0 -20.055,-8.984 -20.055,-20.055 l 0,-1184.539 c 0,-11.093 8.985,-20.054 20.055,-20.054" /><path
         id="path3549"
         style="fill:#000000;fill-opacity:1;fill-rule:nonzero;stroke:none"
         d="m 953.566,1281.559 c 26.043,0 47.235,-21.191 47.235,-47.234 l 0,-1187.067 C 1000.801,21.215 979.613,0 953.566,0 L 47.234,0 C 21.191,0 0,21.215 0,47.258 l 0,1187.067 c 0,26.043 21.191,47.234 47.234,47.234 l 906.332,0 z m 0,-0.398 -906.332,0 c -25.828,0 -46.832,-21.008 -46.832,-46.836 l 0,-1187.067 C 0.402,21.43 21.406,0.403 47.234,0.403 l 906.332,0 c 25.829,0 46.836,21.027 46.836,46.855 l 0,1187.067 c 0,25.828 -21.007,46.836 -46.836,46.836 z" /><path
         id="path3551"
         style="fill:#000000;fill-opacity:1;fill-rule:nonzero;stroke:none"
         d="m 498.402,125.161 0,192 c 0,47.113 12.801,93.343 37.039,133.75 l 19.079,31.804 c 58.507,97.528 58.507,219.36 0,316.887 l -19.079,31.809 c -24.238,40.402 -37.039,86.632 -37.039,133.75 l 0,81.597 36,-9.293 c 7.153,-1.847 13.625,4.742 11.649,11.863 -0.274,0.985 -0.703,1.922 -1.274,2.774 l -70.375,105.059 -70.379,-105.059 c -4.113,-6.141 -0.035,-14.43 7.34,-14.922 1.02,-0.066 2.047,0.027 3.039,0.285 l 36,9.293 0,-81.597 c 0,-55.817 15.164,-110.583 43.879,-158.446 l 19.078,-31.804 c 49.387,-82.329 49.387,-185.172 0,-267.5 L 494.281,475.602 C 465.566,427.739 450.402,372.973 450.402,317.161 l 0,-192 48,0 z" /></g></g></svg>