<?xml version="1.0" standalone="no"?>
<!DOCTYPE svg PUBLIC "-//W3C//DTD SVG 1.1//EN" "http://www.w3.org/Graphics/SVG/1.1/DTD/svg11.dtd">
<svg width="1250" height="1600" version="1.1" xmlns="http://www.w3.org/2000/svg">
<path fill="white" stroke="black" stroke-width="1" d="M60 1600A60 60 0 0 1 0 1540L0 60A60 60 0 0 1 60 0L1190 0A60 60 0 0 1 1250 60L1250 1540A60 60 0 0 1 1190 1600L60 1600Z" />
<path fill="black" stroke="none" d="M60 1585A45 45 0 0 1 15 1540L15 60A45 45 0 0 1 60 15L1190 15A45 45 0 0 1 1235 60L1235 1540A45 45 0 0 1 1190 1585L60 1585Z" />
<path fill="white" stroke="none" d="M60 1565A25 25 0 0 1 35 1540L35 60A25 25 0 0 1 60 35L1190 35A25 25 0 0 1 1215 60L1215 1540A25 25 0 0 1 1190 1565L60 1565Z" />
<path fill="black" stroke="none" d="M625 1445L625 1205A325 325 0 0 0 578.699081286181 1037.81201571214L554.848780630217 998.053458310238A385 385 0 0 1 554.848780630217 601.946541689762L578.699081286181 562.187984287863A325 325 0 0 0 625 395L625 293L580.000098923186 304.618924496316A12 12 0 0 1 565.437666759944 289.788699633188A12 12 0 0 1 567.028768958084 286.323582434515L655 155L742.971231041917 286.323582434515A12 12 0 0 1 733.796331697025 304.973548172046A12 12 0 0 1 729.999901076814 304.618924496316L685 293L685 395A385 385 0 0 1 630.151219369783 593.053458310238L606.300918713819 632.812015712137A325 325 0 0 0 606.300918713819 967.187984287863L630.151219369783 1006.94654168976A385 385 0 0 1 685 1205L685 1445L625 1445Z" />
</svg>
