<?xml version="1.0" standalone="no"?>
<!DOCTYPE svg PUBLIC "-//W3C//DTD SVG 1.1//EN" "http://www.w3.org/Graphics/SVG/1.1/DTD/svg11.dtd">
<svg width="1250" height="1600" version="1.1" xmlns="http://www.w3.org/2000/svg">
<path fill="white" stroke="black" stroke-width="1" d="M60 1600A60 60 0 0 1 0 1540L0 60A60 60 0 0 1 60 0L1190 0A60 60 0 0 1 1250 60L1250 1540A60 60 0 0 1 1190 1600L60 1600Z" />
<path fill="black" stroke="none" d="M60 1585A45 45 0 0 1 15 1540L15 60A45 45 0 0 1 60 15L1190 15A45 45 0 0 1 1235 60L1235 1540A45 45 0 0 1 1190 1585L60 1585Z" />
<path fill="white" stroke="none" d="M60 1565A25 25 0 0 1 35 1540L35 60A25 25 0 0 1 60 35L1190 35A25 25 0 0 1 1215 60L1215 1540A25 25 0 0 1 1190 1565L60 1565Z" />
<path fill="black" stroke="none" fill-rule="evenodd" d="M475 275L475 395A325 325 0 0 1 428.699081286181 562.187984287863L404.848780630217 601.946541689762A385 385 0 0 0 404.848780630217 998.053458310238L428.699081286181 1037.81201571214A325 325 0 0 1 475 1205L475 1307L430.000098923186 1295.38107550368A12 12 0 0 0 415.437666759944 1310.21130036681A12 12 0 0 0 417.028768958084 1313.67641756549L505 1445L592.971231041916 1313.67641756549A12 12 0 0 0 583.796331697025 1295.02645182795A12 12 0 0 0 579.999901076814 1295.38107550368L535 1307L535 1205A385 385 0 0 0 480.151219369783 1006.94654168976L456.300918713819 967.187984287863A325 325 0 0 1 456.300918713819 632.812015712137L480.151219369783 593.053458310238A385 385 0 0 0 535 395L535 275L475 275ZM775 1325L775 1205A325 325 0 0 0 728.699081286181 1037.81201571214L704.848780630217 998.053458310238A385 385 0 0 1 704.848780630217 601.946541689762L728.699081286181 562.187984287863A325 325 0 0 0 775 395L775 293L730.000098923186 304.618924496316A12 12 0 0 1 715.437666759944 289.788699633188A12 12 0 0 1 717.028768958083 286.323582434515L805 155L892.971231041917 286.323582434515A12 12 0 0 1 883.796331697025 304.973548172046A12 12 0 0 1 879.999901076814 304.618924496316L835 293L835 395A385 385 0 0 1 780.151219369783 593.053458310238L756.300918713819 632.812015712137A325 325 0 0 0 756.300918713819 967.187984287863L780.151219369783 1006.94654168976A385 385 0 0 1 835 1205L835 1325L775 1325Z" />
</svg>
