<?xml version="1.0" encoding="UTF-8" standalone="no"?>
<svg
   xmlns:dc="http://purl.org/dc/elements/1.1/"
   xmlns:cc="http://creativecommons.org/ns#"
   xmlns:rdf="http://www.w3.org/1999/02/22-rdf-syntax-ns#"
   xmlns:svg="http://www.w3.org/2000/svg"
   xmlns="http://www.w3.org/2000/svg"
   viewBox="0 0 1251 1601.9473"
   height="1601.9473"
   width="1251"
   xml:space="preserve"
   version="1.1"
   id="svg7288"><metadata
     id="metadata7294"><rdf:RDF><cc:Work
         rdf:about=""><dc:format>image/svg+xml</dc:format><dc:type
           rdf:resource="http://purl.org/dc/dcmitype/StillImage" /><dc:title></dc:title></cc:Work></rdf:RDF></metadata><defs
     id="defs7292" /><g
     transform="matrix(1.25,0,0,-1.25,0,1601.9473)"
     id="g7296"><g
       id="g7298"><path
         id="path7300"
         style="fill:#ffffff;fill-opacity:1;fill-rule:nonzero;stroke:none"
         d="m 47.234,1281.159 c -25.828,0 -46.832,-21.007 -46.832,-46.836 l 0,-1187.066 C 0.402,21.429 21.406,0.402 47.234,0.402 l 906.332,0 c 25.829,0 46.836,21.027 46.836,46.855 l 0,1187.066 c 0,25.829 -21.007,46.836 -46.836,46.836 l -906.332,0 z" /><path
         id="path7302"
         style="fill:#000000;fill-opacity:1;fill-rule:nonzero;stroke:none"
         d="m 48.504,12.433 c -19.942,0 -36.106,16.183 -36.106,36.105 l 0,1184.539 c 0,19.922 16.164,36.082 36.106,36.082 l 903.793,0 c 19.941,0 36.105,-16.16 36.105,-36.082 l 0,-1184.539 c 0,-19.922 -16.164,-36.105 -36.105,-36.105" /><path
         id="path7304"
         style="fill:#ffffff;fill-opacity:1;fill-rule:nonzero;stroke:none"
         d="m 48.504,28.484 c -11.066,0 -20.055,8.961 -20.055,20.054 l 0,1184.539 c 0,11.071 8.989,20.055 20.055,20.055 l 903.793,0 c 11.07,0 20.055,-8.984 20.055,-20.055 l 0,-1184.539 c 0,-11.093 -8.985,-20.054 -20.055,-20.054" /><path
         id="path7306"
         style="fill:#000000;fill-opacity:1;fill-rule:nonzero;stroke:none"
         d="M 47.234,1281.558 C 21.191,1281.558 0,1260.366 0,1234.323 L 0,47.257 C 0,21.214 21.188,-0.001 47.234,-0.001 l 906.332,0 c 26.043,0 47.235,21.215 47.235,47.258 l 0,1187.066 c 0,26.043 -21.192,47.235 -47.235,47.235 l -906.332,0 z m 0,-0.399 906.332,0 c 25.829,0 46.832,-21.007 46.832,-46.836 l 0,-1187.066 c 0,-25.828 -21.003,-46.855 -46.832,-46.855 l -906.332,0 C 21.406,0.402 0.398,21.429 0.398,47.257 l 0,1187.066 c 0,25.829 21.008,46.836 46.836,46.836 z" /><path
         id="path7308"
         style="fill:#000000;fill-opacity:1;fill-rule:evenodd;stroke:none"
         d="m 126.801,1046.734 -36,-9.297 c -7.156,-1.848 -13.629,4.742 -11.649,11.863 0.274,0.988 0.703,1.922 1.274,2.773 l 70.375,105.059 70.379,-105.059 c 4.109,-6.14 0.031,-14.429 -7.34,-14.921 -1.024,-0.067 -2.047,0.031 -3.039,0.285 l -36,9.297 0,-57.602 c 0,-58.871 10.832,-117.242 31.949,-172.195 l 0,0.004 c -15.145,-5.61 -29.543,-13.067 -42.859,-22.207 l 0,0.004 c -24.504,61.882 -37.09,127.835 -37.09,194.394 l 0,57.602 z m 544,-921.602 -48,0 0,96 c 0,91.32 -44.531,176.902 -119.321,229.305 l -79.421,55.66 c 10.414,12.234 19.281,25.703 26.41,40.101 l 80.558,-56.449 c 87.606,-61.39 139.774,-161.644 139.774,-268.617 l 0,-96 z m -340.703,921.602 -36,-9.297 c -7.157,-1.848 -13.629,4.742 -11.653,11.863 0.278,0.988 0.707,1.922 1.274,2.773 l 70.379,105.059 70.375,-105.059 c 4.113,-6.14 0.035,-14.429 -7.34,-14.921 -1.02,-0.067 -2.047,0.031 -3.035,0.285 l -36,9.297 0,-57.602 c 0,-90.246 44.007,-174.82 117.914,-226.605 L 647.691,656.238 C 789.598,556.8 874.098,394.409 874.098,221.132 l 0,-96 -48,0 0,96 c 0,157.621 -76.868,305.344 -205.953,395.797 l -151.68,106.285 c -86.727,60.774 -138.367,160.02 -138.367,265.918 l 0,57.602 z" /><path
         id="path7310"
         style="fill:#c1121c;fill-opacity:1;fill-rule:nonzero;stroke:none"
         d="m 461,633.132 c 0,-102.836 -83.363,-186.199 -186.199,-186.199 -102.836,0 -186.199,83.363 -186.199,186.199 0,102.836 83.363,186.199 186.199,186.199 C 377.637,819.331 461,735.968 461,633.132 Z" /><path
         id="path7312"
         style="fill:#ffffff;fill-opacity:1;fill-rule:nonzero;stroke:none"
         d="m 412,633.132 c 0,-75.773 -61.426,-137.199 -137.199,-137.199 -75.774,0 -137.199,61.426 -137.199,137.199 0,75.774 61.425,137.199 137.199,137.199 75.773,0 137.199,-61.425 137.199,-137.199 z" /><path
         id="path7314"
         style="fill:#000000;fill-opacity:1;fill-rule:evenodd;stroke:none"
         d="m 176.066,633.132 -27.523,48.465 c -11.977,-31.199 -11.977,-65.731 0,-96.93 l 27.523,48.465 z m 197.469,0 27.524,48.465 c 11.976,-31.199 11.976,-65.731 0,-96.93 l -27.524,48.465 z m -172.781,-93.801 0,25.129 50.535,96.434 c 2.012,3.836 3.063,8.105 3.063,12.437 l 0,15.075 c 0,10.312 -11.164,16.761 -20.098,11.601 -4.149,-2.391 -6.699,-6.816 -6.699,-11.601 l 0,-15.075 -26.801,0 0,15.075 c 0,30.945 33.5,50.285 60.301,34.812 12.437,-7.18 20.097,-20.453 20.097,-34.812 l 0,-15.075 c 0,-8.547 -2.043,-16.968 -5.961,-24.566 l -42.613,-82.633 48.574,0 0,-26.801 -80.398,0 z m 98.519,0 0,57.098 11.415,0 0,-5.707 c 4.398,8.246 16.07,8.637 21.011,0.707 0.008,-0.012 0.016,-0.023 0.024,-0.039 l 0,-0.004 c 6.007,8.535 19.004,7.367 23.39,-2.105 0.828,-1.786 1.258,-3.731 1.258,-5.7 l 0,-44.25 -11.426,0 0.008,40.68 c 0,4.398 -4.758,7.145 -8.566,4.949 -1.77,-1.023 -2.856,-2.906 -2.856,-4.949 l 0,-40.68 -11.418,0 0,40.68 c 0,4.398 -4.758,7.145 -8.566,4.949 -1.77,-1.023 -2.856,-2.906 -2.856,-4.949 l 0,-40.68 -11.418,0 z" /></g></g></svg>