<?xml version="1.0" encoding="UTF-8" standalone="no"?>
<svg
   xmlns:dc="http://purl.org/dc/elements/1.1/"
   xmlns:cc="http://creativecommons.org/ns#"
   xmlns:rdf="http://www.w3.org/1999/02/22-rdf-syntax-ns#"
   xmlns:svg="http://www.w3.org/2000/svg"
   xmlns="http://www.w3.org/2000/svg"
   viewBox="0 0 1251 1601.0001"
   height="1601.0001"
   width="1251"
   xml:space="preserve"
   version="1.1"
   id="svg7949"><metadata
     id="metadata7955"><rdf:RDF><cc:Work
         rdf:about=""><dc:format>image/svg+xml</dc:format><dc:type
           rdf:resource="http://purl.org/dc/dcmitype/StillImage" /><dc:title></dc:title></cc:Work></rdf:RDF></metadata><defs
     id="defs7953" /><g
     transform="matrix(1.25,0,0,-1.25,0,1601.0001)"
     id="g7957"><g
       id="g7959"><g
         transform="matrix(1,0,0,-1,0,1280.8)"
         id="g7961"><path
           id="path7963"
           style="fill:#ffffff;fill-opacity:1;fill-rule:nonzero;stroke:#000000;stroke-width:0.80000001;stroke-linecap:butt;stroke-linejoin:miter;stroke-miterlimit:4;stroke-dasharray:none;stroke-opacity:1"
           d="m 48.398,1280.398 c -26.507,0 -48,-21.488 -48,-48 l 0,-1184 c 0,-26.507 21.493,-48 48,-48 l 904,0 c 26.512,0 48,21.493 48,48 l 0,1184 c 0,26.512 -21.488,48 -48,48 l -904,0 z" /></g><path
         id="path7965"
         style="fill:#000000;fill-opacity:1;fill-rule:nonzero;stroke:none"
         d="m 48.398,12.402 c -19.878,0 -36,16.117 -36,36 l 0,1184 c 0,19.879 16.122,36 36,36 l 904,0 c 19.883,0 36,-16.121 36,-36 l 0,-1184 c 0,-19.883 -16.117,-36 -36,-36 l -904,0 z" /><path
         id="path7967"
         style="fill:#ffffff;fill-opacity:1;fill-rule:nonzero;stroke:none"
         d="m 48.398,28.402 c -11.043,0 -20,8.953 -20,20 l 0,1184 c 0,11.043 8.957,20 20,20 l 904,0 c 11.047,0 20,-8.957 20,-20 l 0,-1184 c 0,-11.047 -8.953,-20 -20,-20 l -904,0 z" /><path
         id="path7969"
         style="fill:#000000;fill-opacity:1;fill-rule:evenodd;stroke:none"
         d="m 564.398,1045.999 36,-9.293 c 7.157,-1.847 13.629,4.742 11.653,11.864 -0.274,0.984 -0.703,1.921 -1.274,2.773 l -70.379,105.059 -70.375,-105.059 c -4.113,-6.141 -0.035,-14.43 7.34,-14.922 1.02,-0.066 2.047,0.027 3.035,0.285 l 36,9.293 0,-33.597 c 0,-39.121 -7.171,-77.911 -21.164,-114.446 l 0.004,0.004 c 15.91,-2.535 31.446,-7.023 46.258,-13.359 15.149,40.906 22.902,84.18 22.902,127.801 l 0,33.597 z m -416,-921.597 -48,0 0,68 c 0,169.89 62.141,333.918 174.711,461.164 l 0,-0.004 C 279.77,636.198 286.801,619.558 296,604.109 200.574,488.124 148.398,342.593 148.398,192.402 l 0,-68 z m 584,921.597 36,-9.293 c 7.157,-1.847 13.629,4.742 11.653,11.864 -0.274,0.984 -0.703,1.921 -1.274,2.773 l -70.379,105.059 -70.375,-105.059 c -4.113,-6.141 -0.035,-14.43 7.34,-14.922 1.02,-0.066 2.047,0.027 3.035,0.285 l 36,9.293 0,-33.597 c 0,-73.653 -16.668,-146.348 -48.761,-212.641 10.558,-18.961 17.894,-39.539 21.711,-60.902 l 0,0.004 c 49.129,82.785 75.05,177.273 75.05,273.539 l 0,33.597 z m -416,-921.597 -48,0 0,68 c 0,120.984 41.551,238.3 117.7,332.316 l 0,0.004 c 16.179,-7.051 33.234,-11.887 50.711,-14.371 C 359.223,422.609 316.398,309.523 316.398,192.402 l 0,-68 z m 584,921.597 36,-9.293 c 7.157,-1.847 13.629,4.742 11.653,11.864 -0.274,0.984 -0.703,1.921 -1.274,2.773 l -70.379,105.059 -70.375,-105.059 c -4.113,-6.141 -0.035,-14.43 7.34,-14.922 1.02,-0.066 2.047,0.027 3.035,0.285 l 36,9.293 0,-33.597 C 852.398,805.921 755.184,611.488 590,487.601 l -9.602,-7.203 c -90.648,-67.985 -144,-174.684 -144,-287.996 l 0,-68 48,0 0,68 c 0,98.203 46.239,190.675 124.801,249.597 l 9.602,7.203 c 177.269,132.954 281.597,341.61 281.597,563.2 l 0,33.597 z" /><path
         id="path7971"
         style="fill:#c1121c;fill-opacity:1;fill-rule:nonzero;stroke:none"
         d="m 650.602,704.402 c 0,-102.836 -83.368,-186.204 -186.204,-186.204 -102.832,0 -186.199,83.368 -186.199,186.204 0,102.832 83.367,186.199 186.199,186.199 102.836,0 186.204,-83.367 186.204,-186.199 z" /><path
         id="path7973"
         style="fill:#ffffff;fill-opacity:1;fill-rule:nonzero;stroke:none"
         d="m 601.602,704.402 c 0,-75.774 -61.43,-137.204 -137.204,-137.204 -75.773,0 -137.199,61.43 -137.199,137.204 0,75.773 61.426,137.199 137.199,137.199 75.774,0 137.204,-61.426 137.204,-137.199 z" /><path
         id="path7975"
         style="fill:#000000;fill-opacity:1;fill-rule:evenodd;stroke:none"
         d="m 365.664,704.402 -27.519,48.464 c -11.981,-31.203 -11.981,-65.73 0,-96.933 l 27.519,48.469 z m 197.473,0 27.519,48.464 c 11.977,-31.203 11.977,-65.73 0,-96.933 l -27.519,48.469 z m -172.793,-93.801 0,25.129 50.539,96.429 c 2.012,3.84 3.062,8.106 3.062,12.442 l 0,15.07 c 0,10.317 -11.168,16.762 -20.101,11.606 -4.145,-2.395 -6.699,-6.817 -6.699,-11.606 l 0,-15.07 -26.801,0 0,15.07 c 0,30.945 33.5,50.289 60.301,34.817 12.437,-7.184 20.097,-20.454 20.097,-34.817 l 0,-15.07 c 0,-8.547 -2.043,-16.973 -5.961,-24.567 l -42.605,-82.632 48.566,0 0,-26.801 -80.398,0 z m 98.527,0 0,57.094 11.418,0 -0.004,-5.704 c 4.395,8.243 16.067,8.637 21.008,0.707 0.008,-0.011 0.016,-0.027 0.023,-0.039 l 0.004,-0.007 c 6.008,8.535 19.004,7.367 23.391,-2.102 0.828,-1.789 1.258,-3.734 1.258,-5.703 l 0,-44.246 -11.426,0 0.008,40.68 c 0,4.398 -4.758,7.144 -8.567,4.945 -1.769,-1.02 -2.855,-2.906 -2.855,-4.945 l 0,-40.68 -11.426,0 0.008,40.68 c 0,4.398 -4.758,7.144 -8.566,4.945 -1.77,-1.02 -2.856,-2.906 -2.856,-4.945 l 0,-40.68 -11.418,0 z" /></g></g></svg>