<?xml version="1.0" encoding="UTF-8" standalone="no"?>
<svg
   xmlns:dc="http://purl.org/dc/elements/1.1/"
   xmlns:cc="http://creativecommons.org/ns#"
   xmlns:rdf="http://www.w3.org/1999/02/22-rdf-syntax-ns#"
   xmlns:svg="http://www.w3.org/2000/svg"
   xmlns="http://www.w3.org/2000/svg"
   viewBox="0 0 1251 1601.9473"
   height="1601.9473"
   width="1251"
   xml:space="preserve"
   version="1.1"
   id="svg7773"><metadata
     id="metadata7779"><rdf:RDF><cc:Work
         rdf:about=""><dc:format>image/svg+xml</dc:format><dc:type
           rdf:resource="http://purl.org/dc/dcmitype/StillImage" /><dc:title></dc:title></cc:Work></rdf:RDF></metadata><defs
     id="defs7777" /><g
     transform="matrix(1.25,0,0,-1.25,0,1601.9473)"
     id="g7781"><g
       id="g7783"><path
         id="path7785"
         style="fill:#ffffff;fill-opacity:1;fill-rule:nonzero;stroke:none"
         d="m 953.566,1281.159 c 25.829,0 46.832,-21.007 46.832,-46.836 l 0,-1187.066 c 0,-25.828 -21.003,-46.855 -46.832,-46.855 l -906.332,0 C 21.406,0.402 0.398,21.429 0.398,47.257 l 0,1187.066 c 0,25.829 21.008,46.836 46.836,46.836 l 906.332,0 z" /><path
         id="path7787"
         style="fill:#000000;fill-opacity:1;fill-rule:nonzero;stroke:none"
         d="m 952.297,12.433 c 19.941,0 36.105,16.183 36.105,36.105 l 0,1184.539 c 0,19.922 -16.164,36.082 -36.105,36.082 l -903.793,0 c -19.942,0 -36.106,-16.16 -36.106,-36.082 l 0,-1184.539 c 0,-19.922 16.164,-36.105 36.106,-36.105" /><path
         id="path7789"
         style="fill:#ffffff;fill-opacity:1;fill-rule:nonzero;stroke:none"
         d="m 952.297,28.484 c 11.066,0 20.055,8.961 20.055,20.054 l 0,1184.539 c 0,11.071 -8.989,20.055 -20.055,20.055 l -903.793,0 c -11.07,0 -20.055,-8.984 -20.055,-20.055 l 0,-1184.539 c 0,-11.093 8.985,-20.054 20.055,-20.054" /><path
         id="path7791"
         style="fill:#000000;fill-opacity:1;fill-rule:nonzero;stroke:none"
         d="m 953.566,1281.558 c 26.043,0 47.235,-21.192 47.235,-47.235 l 0,-1187.066 c 0,-26.043 -21.188,-47.258 -47.235,-47.258 l -906.332,0 C 21.191,-0.001 0,21.214 0,47.257 l 0,1187.066 c 0,26.043 21.191,47.235 47.234,47.235 l 906.332,0 z m 0,-0.399 -906.332,0 c -25.828,0 -46.832,-21.007 -46.832,-46.836 l 0,-1187.066 C 0.402,21.429 21.406,0.402 47.234,0.402 l 906.332,0 c 25.829,0 46.836,21.027 46.836,46.855 l 0,1187.066 c 0,25.829 -21.007,46.836 -46.836,46.836 z" /><path
         id="path7793"
         style="fill:#000000;fill-opacity:1;fill-rule:evenodd;stroke:none"
         d="m 100.449,1046.734 -36,-9.297 c -7.156,-1.848 -13.629,4.742 -11.648,11.863 0.273,0.988 0.703,1.922 1.269,2.773 l 70.379,105.059 70.375,-105.059 c 4.114,-6.14 0.035,-14.429 -7.34,-14.921 -1.019,-0.067 -2.043,0.031 -3.035,0.285 l -36,9.297 0,-33.602 c 0,-89.723 18.406,-178.488 54.074,-260.812 l 0,-0.004 c -12.793,-13.434 -23.617,-28.614 -32.144,-45.09 l 0.004,0 c -46.031,95.41 -69.938,199.976 -69.938,305.906 l 0,33.602 0.004,0 z m 464,-921.602 -48,0 0,68 c 0,91.672 -40.316,178.703 -110.238,237.984 16.453,5.461 32.105,13.086 46.555,22.665 71.32,-67.946 111.683,-162.145 111.683,-260.649 l 0,-68 z m -296,921.602 -36,-9.297 c -7.156,-1.848 -13.629,4.742 -11.648,11.863 0.273,0.988 0.703,1.922 1.269,2.773 l 70.379,105.059 70.375,-105.059 c 4.114,-6.14 0.035,-14.429 -7.34,-14.921 -1.019,-0.067 -2.043,0.031 -3.035,0.285 l -36,9.297 0,-33.602 c 0,-69.164 14.703,-137.535 43.129,-200.586 -17.07,1.324 -34.238,0.402 -51.07,-2.738 l 0,0.004 c -26.453,64.523 -40.059,133.586 -40.059,203.32 l 0,33.602 z m 464,-921.602 -48,0 0,68 c 0,135.016 -56.863,263.785 -156.644,354.742 6.441,17.059 10.472,34.93 11.976,53.102 C 661.766,500.683 732.453,351.054 732.453,193.132 l 0,-68 -0.004,0 z m -296,921.602 -36,-9.297 c -7.156,-1.848 -13.629,4.742 -11.648,11.863 0.273,0.988 0.703,1.922 1.269,2.773 l 70.379,105.059 70.375,-105.059 c 4.114,-6.14 0.035,-14.429 -7.34,-14.921 -1.019,-0.067 -2.043,0.031 -3.035,0.285 l -36,9.297 0,-33.602 c 0,-100.723 47.422,-195.566 128,-256 l 9.602,-7.199 C 797.305,618.488 900.449,412.202 900.449,193.132 l 0,-68 -48,0 0,68 c 0,203.961 -96.031,396.024 -259.199,518.399 l -9.602,7.203 C 490.984,788.23 436.449,897.3 436.449,1013.132 l 0,33.602 z" /><path
         id="path7795"
         style="fill:#c1121c;fill-opacity:1;fill-rule:nonzero;stroke:none"
         d="m 530.648,617.132 c 0,-102.836 -83.363,-186.199 -186.199,-186.199 -102.836,0 -186.199,83.363 -186.199,186.199 0,102.836 83.363,186.199 186.199,186.199 102.836,0 186.199,-83.363 186.199,-186.199 z" /><path
         id="path7797"
         style="fill:#ffffff;fill-opacity:1;fill-rule:nonzero;stroke:none"
         d="m 481.648,617.132 c 0,-75.773 -61.425,-137.199 -137.199,-137.199 -75.773,0 -137.199,61.426 -137.199,137.199 0,75.774 61.426,137.199 137.199,137.199 75.774,0 137.199,-61.425 137.199,-137.199 z" /><path
         id="path7799"
         style="fill:#000000;fill-opacity:1;fill-rule:evenodd;stroke:none"
         d="m 245.715,617.132 -27.524,48.465 c -11.976,-31.199 -11.976,-65.731 0,-96.93 l 27.524,48.465 z m 197.469,0 27.523,48.465 c 11.977,-31.199 11.977,-65.731 0,-96.93 l -27.523,48.465 z m -172.789,-93.801 0,25.129 50.535,96.434 c 2.011,3.836 3.062,8.105 3.062,12.437 l 0,15.075 c 0,10.312 -11.164,16.761 -20.097,11.601 -4.149,-2.391 -6.704,-6.816 -6.704,-11.601 l 0,-15.075 -26.796,0 0,15.075 c 0,30.945 33.5,50.285 60.296,34.812 12.442,-7.18 20.102,-20.453 20.102,-34.812 l 0,-15.075 c 0,-8.547 -2.043,-16.968 -5.961,-24.566 l -42.605,-82.633 48.566,0 0,-26.801 -80.398,0 z m 98.527,0 0,57.098 11.414,0 0,-5.707 c 4.398,8.246 16.07,8.637 21.008,0.707 0.008,-0.012 0.019,-0.023 0.027,-0.039 l 0,-0.004 c 6.008,8.535 19,7.367 23.391,-2.105 0.828,-1.786 1.258,-3.731 1.258,-5.7 l 0,-44.25 -11.426,0 0.008,40.68 c 0,4.398 -4.758,7.145 -8.567,4.949 -1.769,-1.023 -2.855,-2.906 -2.855,-4.949 l 0,-40.68 -11.426,0 0.008,40.68 c 0,4.398 -4.758,7.145 -8.567,4.949 -1.769,-1.023 -2.855,-2.906 -2.855,-4.949 l 0,-40.68 -11.418,0 z" /></g></g></svg>