<?xml version="1.0" encoding="UTF-8" standalone="no"?>
<svg
   xmlns:dc="http://purl.org/dc/elements/1.1/"
   xmlns:cc="http://creativecommons.org/ns#"
   xmlns:rdf="http://www.w3.org/1999/02/22-rdf-syntax-ns#"
   xmlns:svg="http://www.w3.org/2000/svg"
   xmlns="http://www.w3.org/2000/svg"
   viewBox="0 0 1251 1601.0001"
   height="1601.0001"
   width="1251"
   xml:space="preserve"
   version="1.1"
   id="svg16067"><metadata
     id="metadata16073"><rdf:RDF><cc:Work
         rdf:about=""><dc:format>image/svg+xml</dc:format><dc:type
           rdf:resource="http://purl.org/dc/dcmitype/StillImage" /><dc:title></dc:title></cc:Work></rdf:RDF></metadata><defs
     id="defs16071"><clipPath
       id="clipPath16093"
       clipPathUnits="userSpaceOnUse"><path
         id="path16095"
         d="m 0,0 1001,0 0,1281 L 0,1281 0,0 Z" /></clipPath><clipPath
       id="clipPath16103"
       clipPathUnits="userSpaceOnUse"><path
         id="path16105"
         d="m 0,1281 1000.824,0 0,-1281 L 0,0 0,1281 Z" /></clipPath><clipPath
       id="clipPath16113"
       clipPathUnits="userSpaceOnUse"><path
         id="path16115"
         d="m 116,123 145,0 0,1035 -145,0 0,-1035 z" /></clipPath><clipPath
       id="clipPath16127"
       clipPathUnits="userSpaceOnUse"><path
         id="path16129"
         d="m 0,0 1001,0 0,1281 L 0,1281 0,0 Z" /></clipPath><clipPath
       id="clipPath16137"
       clipPathUnits="userSpaceOnUse"><path
         id="path16139"
         d="m 0,1281 1000.824,0 0,-1281 L 0,0 0,1281 Z" /></clipPath><clipPath
       id="clipPath16147"
       clipPathUnits="userSpaceOnUse"><path
         id="path16149"
         d="m 324,123 145,0 0,1035 -145,0 0,-1035 z" /></clipPath><clipPath
       id="clipPath16161"
       clipPathUnits="userSpaceOnUse"><path
         id="path16163"
         d="m 0,0 1001,0 0,1281 L 0,1281 0,0 Z" /></clipPath><clipPath
       id="clipPath16171"
       clipPathUnits="userSpaceOnUse"><path
         id="path16173"
         d="m 0,1281 1000.824,0 0,-1281 L 0,0 0,1281 Z" /></clipPath><clipPath
       id="clipPath16181"
       clipPathUnits="userSpaceOnUse"><path
         id="path16183"
         d="m 532,123 145,0 0,1035 -145,0 0,-1035 z" /></clipPath><clipPath
       id="clipPath16195"
       clipPathUnits="userSpaceOnUse"><path
         id="path16197"
         d="m 0,0 1001,0 0,1281 L 0,1281 0,0 Z" /></clipPath><clipPath
       id="clipPath16205"
       clipPathUnits="userSpaceOnUse"><path
         id="path16207"
         d="m 0,1281 1000.824,0 0,-1281 L 0,0 0,1281 Z" /></clipPath><clipPath
       id="clipPath16215"
       clipPathUnits="userSpaceOnUse"><path
         id="path16217"
         d="m 740,123 145,0 0,1035 -145,0 0,-1035 z" /></clipPath></defs><g
     transform="matrix(1.25,0,0,-1.25,0,1601.0001)"
     id="g16075"><g
       id="g16077"><g
         transform="matrix(1,0,0,-1,0,1280.8)"
         id="g16079"><path
           id="path16081"
           style="fill:#ffffff;fill-opacity:1;fill-rule:nonzero;stroke:#000000;stroke-width:0.80000001;stroke-linecap:butt;stroke-linejoin:miter;stroke-miterlimit:4;stroke-dasharray:none;stroke-opacity:1"
           d="m 48.398,1280.398 c -26.507,0 -48,-21.488 -48,-48 l 0,-1184 c 0,-26.507 21.493,-48 48,-48 l 904,0 c 26.512,0 48,21.493 48,48 l 0,1184 c 0,26.512 -21.488,48 -48,48 l -904,0 z" /></g><path
         id="path16083"
         style="fill:#000000;fill-opacity:1;fill-rule:nonzero;stroke:none"
         d="m 48.398,12.402 c -19.878,0 -36,16.117 -36,36 l 0,1184 c 0,19.879 16.122,36 36,36 l 904,0 c 19.883,0 36,-16.121 36,-36 l 0,-1184 c 0,-19.883 -16.117,-36 -36,-36 l -904,0 z" /><path
         id="path16085"
         style="fill:#ffffff;fill-opacity:1;fill-rule:nonzero;stroke:none"
         d="m 48.398,28.402 c -11.043,0 -20,8.953 -20,20 l 0,1184 c 0,11.043 8.957,20 20,20 l 904,0 c 11.047,0 20,-8.957 20,-20 l 0,-1184 c 0,-11.047 -8.953,-20 -20,-20 l -904,0 z" /><g
         transform="translate(0,-0.199951)"
         id="g16087"><g
           id="g16089"><g
             clip-path="url(#clipPath16093)"
             id="g16091"><g
               id="g16097" /><g
               id="g16099"><g
                 clip-path="url(#clipPath16103)"
                 id="g16101"><g
                   id="g16107"><g
                     id="g16109"><g
                       clip-path="url(#clipPath16113)"
                       id="g16111"><g
                         id="g16117"><path
                           id="path16119"
                           style="fill:#231f20;fill-opacity:1;fill-rule:nonzero;stroke:none"
                           d="m 164.125,1046.918 -36.035,-9.34 c -5.129,-1.305 -10.363,1.785 -11.688,6.914 -0.691,2.656 -0.207,5.488 1.301,7.758 l 70.438,105.25 70.437,-105.25 c 2.961,-4.414 1.785,-10.387 -2.629,-13.348 -2.269,-1.504 -5.105,-1.988 -7.734,-1.324 l -36.035,9.34 0,-923.219 -48.055,0" /></g></g></g></g></g></g></g></g></g><g
         transform="translate(0,-0.199951)"
         id="g16121"><g
           id="g16123"><g
             clip-path="url(#clipPath16127)"
             id="g16125"><g
               id="g16131" /><g
               id="g16133"><g
                 clip-path="url(#clipPath16137)"
                 id="g16135"><g
                   id="g16141"><g
                     id="g16143"><g
                       clip-path="url(#clipPath16147)"
                       id="g16145"><g
                         id="g16151"><path
                           id="path16153"
                           style="fill:#231f20;fill-opacity:1;fill-rule:nonzero;stroke:none"
                           d="m 372.297,1046.918 -36.035,-9.34 c -5.129,-1.305 -10.36,1.785 -11.688,6.914 -0.687,2.656 -0.23,5.488 1.301,7.758 l 70.437,105.25 70.438,-105.25 c 2.961,-4.414 1.789,-10.387 -2.629,-13.348 -2.269,-1.504 -5.101,-1.988 -7.758,-1.324 l -36.008,9.34 0,-923.219 -48.058,0" /></g></g></g></g></g></g></g></g></g><g
         transform="translate(0,-0.199951)"
         id="g16155"><g
           id="g16157"><g
             clip-path="url(#clipPath16161)"
             id="g16159"><g
               id="g16165" /><g
               id="g16167"><g
                 clip-path="url(#clipPath16171)"
                 id="g16169"><g
                   id="g16175"><g
                     id="g16177"><g
                       clip-path="url(#clipPath16181)"
                       id="g16179"><g
                         id="g16185"><path
                           id="path16187"
                           style="fill:#231f20;fill-opacity:1;fill-rule:nonzero;stroke:none"
                           d="m 580.473,1046.918 -36.012,-9.34 c -5.152,-1.305 -10.387,1.785 -11.738,6.914 -0.688,2.656 -0.18,5.488 1.328,7.758 l 70.437,105.25 70.438,-105.25 c 2.933,-4.414 1.762,-10.387 -2.656,-13.348 -2.27,-1.504 -5.079,-1.988 -7.731,-1.324 l -36.012,9.34 0,-923.219 -48.054,0" /></g></g></g></g></g></g></g></g></g><g
         transform="translate(0,-0.199951)"
         id="g16189"><g
           id="g16191"><g
             clip-path="url(#clipPath16195)"
             id="g16193"><g
               id="g16199" /><g
               id="g16201"><g
                 clip-path="url(#clipPath16205)"
                 id="g16203"><g
                   id="g16209"><g
                     id="g16211"><g
                       clip-path="url(#clipPath16215)"
                       id="g16213"><g
                         id="g16219"><path
                           id="path16221"
                           style="fill:#231f20;fill-opacity:1;fill-rule:nonzero;stroke:none"
                           d="m 788.645,1046.918 -36.008,-9.34 c -5.184,-1.305 -10.414,1.785 -11.742,6.914 -0.661,2.656 -0.176,5.488 1.328,7.758 l 70.414,105.25 70.437,-105.25 c 2.961,-4.414 1.785,-10.387 -2.629,-13.348 -2.273,-1.504 -5.078,-1.988 -7.734,-1.324 l -36.035,9.34 0,-923.219 -48.031,0" /></g></g></g></g></g></g></g></g></g></g></g></svg>