<?xml version="1.0" encoding="UTF-8" standalone="no"?>
<svg
   xmlns:dc="http://purl.org/dc/elements/1.1/"
   xmlns:cc="http://creativecommons.org/ns#"
   xmlns:rdf="http://www.w3.org/1999/02/22-rdf-syntax-ns#"
   xmlns:svg="http://www.w3.org/2000/svg"
   xmlns="http://www.w3.org/2000/svg"
   viewBox="0 0 1251 1601.0001"
   height="1601.0001"
   width="1251"
   xml:space="preserve"
   version="1.1"
   id="svg16389"><metadata
     id="metadata16395"><rdf:RDF><cc:Work
         rdf:about=""><dc:format>image/svg+xml</dc:format><dc:type
           rdf:resource="http://purl.org/dc/dcmitype/StillImage" /><dc:title></dc:title></cc:Work></rdf:RDF></metadata><defs
     id="defs16393"><clipPath
       id="clipPath16415"
       clipPathUnits="userSpaceOnUse"><path
         id="path16417"
         d="m 0,0 1001,0 0,1281 L 0,1281 0,0 Z" /></clipPath><clipPath
       id="clipPath16425"
       clipPathUnits="userSpaceOnUse"><path
         id="path16427"
         d="m 0.523,1280.973 999.734,0 0,-1280.797 -999.734,0 0,1280.797 z" /></clipPath><clipPath
       id="clipPath16435"
       clipPathUnits="userSpaceOnUse"><path
         id="path16437"
         d="m 60,124 145,0 0,1033 -145,0 0,-1033 z" /></clipPath><clipPath
       id="clipPath16449"
       clipPathUnits="userSpaceOnUse"><path
         id="path16451"
         d="m 0,0 1001,0 0,1281 L 0,1281 0,0 Z" /></clipPath><clipPath
       id="clipPath16459"
       clipPathUnits="userSpaceOnUse"><path
         id="path16461"
         d="m 0.523,1280.973 999.734,0 0,-1280.797 -999.734,0 0,1280.797 z" /></clipPath><clipPath
       id="clipPath16469"
       clipPathUnits="userSpaceOnUse"><path
         id="path16471"
         d="m 244,124 145,0 0,1033 -145,0 0,-1033 z" /></clipPath><clipPath
       id="clipPath16483"
       clipPathUnits="userSpaceOnUse"><path
         id="path16485"
         d="m 0,0 1001,0 0,1281 L 0,1281 0,0 Z" /></clipPath><clipPath
       id="clipPath16493"
       clipPathUnits="userSpaceOnUse"><path
         id="path16495"
         d="m 0.523,1280.973 999.734,0 0,-1280.797 -999.734,0 0,1280.797 z" /></clipPath><clipPath
       id="clipPath16503"
       clipPathUnits="userSpaceOnUse"><path
         id="path16505"
         d="m 428,124 145,0 0,1033 -145,0 0,-1033 z" /></clipPath><clipPath
       id="clipPath16517"
       clipPathUnits="userSpaceOnUse"><path
         id="path16519"
         d="m 0,0 1001,0 0,1281 L 0,1281 0,0 Z" /></clipPath><clipPath
       id="clipPath16527"
       clipPathUnits="userSpaceOnUse"><path
         id="path16529"
         d="m 0.523,1280.973 999.734,0 0,-1280.797 -999.734,0 0,1280.797 z" /></clipPath><clipPath
       id="clipPath16537"
       clipPathUnits="userSpaceOnUse"><path
         id="path16539"
         d="m 612,124 145,0 0,1033 -145,0 0,-1033 z" /></clipPath><clipPath
       id="clipPath16551"
       clipPathUnits="userSpaceOnUse"><path
         id="path16553"
         d="m 0,0 1001,0 0,1281 L 0,1281 0,0 Z" /></clipPath><clipPath
       id="clipPath16561"
       clipPathUnits="userSpaceOnUse"><path
         id="path16563"
         d="m 0.523,1280.973 999.734,0 0,-1280.797 -999.734,0 0,1280.797 z" /></clipPath><clipPath
       id="clipPath16571"
       clipPathUnits="userSpaceOnUse"><path
         id="path16573"
         d="m 796,124 145,0 0,1033 -145,0 0,-1033 z" /></clipPath></defs><g
     transform="matrix(1.25,0,0,-1.25,0,1601.0001)"
     id="g16397"><g
       id="g16399"><g
         transform="matrix(1,0,0,-1,0,1280.8)"
         id="g16401"><path
           id="path16403"
           style="fill:#ffffff;fill-opacity:1;fill-rule:nonzero;stroke:#000000;stroke-width:0.80000001;stroke-linecap:butt;stroke-linejoin:miter;stroke-miterlimit:4;stroke-dasharray:none;stroke-opacity:1"
           d="m 48.398,1280.398 c -26.507,0 -48,-21.488 -48,-48 l 0,-1184 c 0,-26.507 21.493,-48 48,-48 l 904,0 c 26.512,0 48,21.493 48,48 l 0,1184 c 0,26.512 -21.488,48 -48,48 l -904,0 z" /></g><path
         id="path16405"
         style="fill:#000000;fill-opacity:1;fill-rule:nonzero;stroke:none"
         d="m 48.398,12.402 c -19.878,0 -36,16.117 -36,36 l 0,1184 c 0,19.879 16.122,36 36,36 l 904,0 c 19.883,0 36,-16.121 36,-36 l 0,-1184 c 0,-19.883 -16.117,-36 -36,-36 l -904,0 z" /><path
         id="path16407"
         style="fill:#ffffff;fill-opacity:1;fill-rule:nonzero;stroke:none"
         d="m 48.398,28.402 c -11.043,0 -20,8.953 -20,20 l 0,1184 c 0,11.043 8.957,20 20,20 l 904,0 c 11.047,0 20,-8.957 20,-20 l 0,-1184 c 0,-11.047 -8.953,-20 -20,-20 l -904,0 z" /><g
         transform="translate(0,-0.199951)"
         id="g16409"><g
           id="g16411"><g
             clip-path="url(#clipPath16415)"
             id="g16413"><g
               id="g16419" /><g
               id="g16421"><g
                 clip-path="url(#clipPath16425)"
                 id="g16423"><g
                   id="g16429"><g
                     id="g16431"><g
                       clip-path="url(#clipPath16435)"
                       id="g16433"><g
                         id="g16439"><path
                           id="path16441"
                           style="fill:#231f20;fill-opacity:1;fill-rule:nonzero;stroke:none"
                           d="m 108.488,1046.484 -35.968,-9.332 c -5.153,-1.3 -10.379,1.786 -11.704,6.91 -0.687,2.653 -0.203,5.481 1.325,7.75 l 70.339,105.137 70.364,-105.137 c 2.957,-4.41 1.781,-10.374 -2.629,-13.332 -2.27,-1.503 -5.098,-1.988 -7.75,-1.328 l -35.996,9.332 0,-922.23 -47.981,0" /></g></g></g></g></g></g></g></g></g><g
         transform="translate(0,-0.199951)"
         id="g16443"><g
           id="g16445"><g
             clip-path="url(#clipPath16449)"
             id="g16447"><g
               id="g16453" /><g
               id="g16455"><g
                 clip-path="url(#clipPath16459)"
                 id="g16457"><g
                   id="g16463"><g
                     id="g16465"><g
                       clip-path="url(#clipPath16469)"
                       id="g16467"><g
                         id="g16473"><path
                           id="path16475"
                           style="fill:#231f20;fill-opacity:1;fill-rule:nonzero;stroke:none"
                           d="m 292.453,1046.484 -36,-9.332 c -5.121,-1.3 -10.375,1.786 -11.699,6.91 -0.688,2.653 -0.203,5.481 1.324,7.75 l 70.363,105.137 70.364,-105.137 c 2.957,-4.41 1.757,-10.374 -2.653,-13.332 -2.269,-1.503 -5.074,-1.988 -7.722,-1.328 l -36,9.332 0,-922.23 -47.977,0" /></g></g></g></g></g></g></g></g></g><g
         transform="translate(0,-0.199951)"
         id="g16477"><g
           id="g16479"><g
             clip-path="url(#clipPath16483)"
             id="g16481"><g
               id="g16487" /><g
               id="g16489"><g
                 clip-path="url(#clipPath16493)"
                 id="g16491"><g
                   id="g16497"><g
                     id="g16499"><g
                       clip-path="url(#clipPath16503)"
                       id="g16501"><g
                         id="g16507"><path
                           id="path16509"
                           style="fill:#231f20;fill-opacity:1;fill-rule:nonzero;stroke:none"
                           d="m 476.387,1046.484 -35.969,-9.332 c -5.152,-1.3 -10.375,1.786 -11.703,6.91 -0.688,2.653 -0.203,5.481 1.328,7.75 l 70.359,105.137 70.364,-105.137 c 2.957,-4.41 1.757,-10.374 -2.653,-13.332 -2.269,-1.503 -5.07,-1.988 -7.75,-1.328 l -35.996,9.332 0,-922.23 -47.98,0" /></g></g></g></g></g></g></g></g></g><g
         transform="translate(0,-0.199951)"
         id="g16511"><g
           id="g16513"><g
             clip-path="url(#clipPath16517)"
             id="g16515"><g
               id="g16521" /><g
               id="g16523"><g
                 clip-path="url(#clipPath16527)"
                 id="g16525"><g
                   id="g16531"><g
                     id="g16533"><g
                       clip-path="url(#clipPath16537)"
                       id="g16535"><g
                         id="g16541"><path
                           id="path16543"
                           style="fill:#231f20;fill-opacity:1;fill-rule:nonzero;stroke:none"
                           d="m 660.352,1046.484 -35.997,-9.332 c -5.125,-1.3 -10.351,1.786 -11.679,6.91 -0.711,2.653 -0.203,5.481 1.328,7.75 l 70.336,105.137 70.363,-105.137 c 2.957,-4.41 1.785,-10.374 -2.625,-13.332 -2.297,-1.503 -5.074,-1.988 -7.75,-1.328 l -35.973,9.332 0,-922.23 -48.003,0" /></g></g></g></g></g></g></g></g></g><g
         transform="translate(0,-0.199951)"
         id="g16545"><g
           id="g16547"><g
             clip-path="url(#clipPath16551)"
             id="g16549"><g
               id="g16555" /><g
               id="g16557"><g
                 clip-path="url(#clipPath16561)"
                 id="g16559"><g
                   id="g16565"><g
                     id="g16567"><g
                       clip-path="url(#clipPath16571)"
                       id="g16569"><g
                         id="g16575"><path
                           id="path16577"
                           style="fill:#231f20;fill-opacity:1;fill-rule:nonzero;stroke:none"
                           d="m 844.312,1046.484 -35.996,-9.332 c -5.152,-1.3 -10.375,1.786 -11.675,6.91 -0.692,2.653 -0.207,5.481 1.3,7.75 l 70.36,105.137 70.363,-105.137 c 2.957,-4.41 1.758,-10.374 -2.625,-13.332 -2.269,-1.503 -5.098,-1.988 -7.75,-1.328 l -35.996,9.332 0,-922.23 -47.981,0" /></g></g></g></g></g></g></g></g></g></g></g></svg>