<?xml version="1.0" encoding="UTF-8" standalone="no"?>
<svg
   xmlns:dc="http://purl.org/dc/elements/1.1/"
   xmlns:cc="http://creativecommons.org/ns#"
   xmlns:rdf="http://www.w3.org/1999/02/22-rdf-syntax-ns#"
   xmlns:svg="http://www.w3.org/2000/svg"
   xmlns="http://www.w3.org/2000/svg"
   viewBox="0 0 1251 1601.0001"
   height="1601.0001"
   width="1251"
   xml:space="preserve"
   version="1.1"
   id="svg3701"><metadata
     id="metadata3707"><rdf:RDF><cc:Work
         rdf:about=""><dc:format>image/svg+xml</dc:format><dc:type
           rdf:resource="http://purl.org/dc/dcmitype/StillImage" /><dc:title></dc:title></cc:Work></rdf:RDF></metadata><defs
     id="defs3705" /><g
     transform="matrix(1.25,0,0,-1.25,0,1601.0001)"
     id="g3709"><g
       id="g3711"><g
         transform="matrix(1,0,0,-1,0,1280.8)"
         id="g3713"><path
           id="path3715"
           style="fill:#ffffff;fill-opacity:1;fill-rule:nonzero;stroke:#000000;stroke-width:0.80000001;stroke-linecap:butt;stroke-linejoin:miter;stroke-miterlimit:4;stroke-dasharray:none;stroke-opacity:1"
           d="m 48.398,1280.398 c -26.507,0 -48,-21.488 -48,-48 l 0,-1184 c 0,-26.507 21.493,-48 48,-48 l 904,0 c 26.512,0 48,21.493 48,48 l 0,1184 c 0,26.512 -21.488,48 -48,48 l -904,0 z" /></g><path
         id="path3717"
         style="fill:#000000;fill-opacity:1;fill-rule:nonzero;stroke:none"
         d="m 48.398,12.402 c -19.878,0 -36,16.117 -36,36 l 0,1184 c 0,19.879 16.122,36 36,36 l 904,0 c 19.883,0 36,-16.121 36,-36 l 0,-1184 c 0,-19.883 -16.117,-36 -36,-36 l -904,0 z" /><path
         id="path3719"
         style="fill:#ffffff;fill-opacity:1;fill-rule:nonzero;stroke:none"
         d="m 48.398,28.402 c -11.043,0 -20,8.953 -20,20 l 0,1184 c 0,11.043 8.957,20 20,20 l 904,0 c 11.047,0 20,-8.957 20,-20 l 0,-1184 c 0,-11.047 -8.953,-20 -20,-20 l -904,0 z" /><path
         id="path3721"
         style="fill:#000000;fill-opacity:1;fill-rule:evenodd;stroke:none"
         d="m 748.398,1045.999 -36,-9.293 c -7.156,-1.847 -13.628,4.742 -11.648,11.864 0.273,0.984 0.703,1.921 1.273,2.773 l 70.375,105.059 70.379,-105.059 c 4.11,-6.141 0.032,-14.43 -7.339,-14.922 -1.024,-0.066 -2.047,0.027 -3.04,0.285 l -36,9.293 0,-921.597 -48,0 0,921.597 z" /><path
         id="path3723"
         style="fill:#000000;fill-opacity:1;fill-rule:evenodd;stroke:none"
         d="m 252.402,1045.999 36,-9.293 c 7.153,-1.847 13.625,4.742 11.649,11.864 -0.274,0.984 -0.703,1.921 -1.274,2.773 l -70.375,105.059 -70.379,-105.059 c -4.109,-6.141 -0.031,-14.43 7.34,-14.922 1.024,-0.066 2.047,0.027 3.039,0.285 l 36,9.293 0,-921.597 48,0 0,921.597 z" /><path
         id="path3725"
         style="fill:#000000;fill-opacity:1;fill-rule:evenodd;stroke:none"
         d="m 476.398,1045.999 -36,-9.293 c -7.156,-1.847 -13.628,4.742 -11.648,11.864 0.273,0.984 0.703,1.921 1.273,2.773 l 70.375,105.059 70.379,-105.059 c 4.11,-6.141 0.032,-14.43 -7.339,-14.922 -1.024,-0.066 -2.047,0.027 -3.04,0.285 l -36,9.293 0,-921.597 -48,0 0,921.597 z" /></g></g></svg>