<?xml version="1.0" standalone="no"?>
<!DOCTYPE svg PUBLIC "-//W3C//DTD SVG 1.1//EN" "http://www.w3.org/Graphics/SVG/1.1/DTD/svg11.dtd">
<svg width="1250" height="1600" version="1.1" xmlns="http://www.w3.org/2000/svg">
<path fill="white" stroke="black" stroke-width="1" d="M60 1600A60 60 0 0 1 0 1540L0 60A60 60 0 0 1 60 0L1190 0A60 60 0 0 1 1250 60L1250 1540A60 60 0 0 1 1190 1600L60 1600Z" />
<path fill="black" stroke="none" d="M60 1585A45 45 0 0 1 15 1540L15 60A45 45 0 0 1 60 15L1190 15A45 45 0 0 1 1235 60L1235 1540A45 45 0 0 1 1190 1585L60 1585Z" />
<path fill="white" stroke="none" d="M60 1565A25 25 0 0 1 35 1540L35 60A25 25 0 0 1 60 35L1190 35A25 25 0 0 1 1215 60L1215 1540A25 25 0 0 1 1190 1565L60 1565Z" />
<path fill="black" stroke="none" fill-rule="evenodd" d="M370 293L325.000098923186 304.618924496316A12 12 0 0 1 310.437666759944 289.788699633188A12 12 0 0 1 312.028768958084 286.323582434515L400 155L487.971231041917 286.323582434515A12 12 0 0 1 478.796331697025 304.973548172046A12 12 0 0 1 474.999901076814 304.618924496316L430 293L430 1445L370 1445L370 293ZM820 293L775.000098923186 304.618924496316A12 12 0 0 1 760.437666759944 289.788699633188A12 12 0 0 1 762.028768958083 286.323582434515L850 155L937.971231041917 286.323582434515A12 12 0 0 1 928.796331697025 304.973548172046A12 12 0 0 1 924.999901076814 304.618924496316L880 293L880 1445L820 1445L820 293Z" />
</svg>
