<?xml version="1.0" encoding="UTF-8" standalone="no"?>
<svg
   xmlns:dc="http://purl.org/dc/elements/1.1/"
   xmlns:cc="http://creativecommons.org/ns#"
   xmlns:rdf="http://www.w3.org/1999/02/22-rdf-syntax-ns#"
   xmlns:svg="http://www.w3.org/2000/svg"
   xmlns="http://www.w3.org/2000/svg"
   viewBox="0 0 1250 1600"
   height="1600"
   width="1250"
   xml:space="preserve"
   version="1.1"
   id="svg3685"><metadata
     id="metadata3691"><rdf:RDF><cc:Work
         rdf:about=""><dc:format>image/svg+xml</dc:format><dc:type
           rdf:resource="http://purl.org/dc/dcmitype/StillImage" /><dc:title></dc:title></cc:Work></rdf:RDF></metadata><defs
     id="defs3689" /><g
     transform="matrix(1.25,0,0,-1.25,0,1600)"
     id="g3693"><g
       id="g3695"><g
         transform="matrix(1,0,0,-1,0,1280)"
         id="g3697"><path
           id="path3699"
           style="fill:#ffffff;fill-opacity:1;fill-rule:nonzero;stroke:#000000;stroke-width:0.80000001;stroke-linecap:butt;stroke-linejoin:miter;stroke-miterlimit:4;stroke-dasharray:none;stroke-opacity:1"
           d="M 48,1280 C 21.492,1280 0,1258.508 0,1232 L 0,48 C 0,21.492 21.492,0 48,0 l 904,0 c 26.508,0 48,21.492 48,48 l 0,1184 c 0,26.508 -21.492,48 -48,48 l -904,0 z" /></g><path
         id="path3701"
         style="fill:#000000;fill-opacity:1;fill-rule:nonzero;stroke:none"
         d="M 48,12 C 28.117,12 12,28.117 12,48 l 0,1184 c 0,19.883 16.117,36 36,36 l 904,0 c 19.883,0 36,-16.117 36,-36 L 988,48 C 988,28.117 971.883,12 952,12 L 48,12 Z" /><path
         id="path3703"
         style="fill:#ffffff;fill-opacity:1;fill-rule:nonzero;stroke:none"
         d="M 48,28 C 36.953,28 28,36.953 28,48 l 0,1184 c 0,11.047 8.953,20 20,20 l 904,0 c 11.047,0 20,-8.953 20,-20 L 972,48 C 972,36.953 963.047,28 952,28 L 48,28 Z" /><path
         id="path3705"
         style="fill:#000000;fill-opacity:1;fill-rule:evenodd;stroke:none"
         d="m 804,1045.602 -36,-9.297 c -7.156,-1.848 -13.629,4.742 -11.648,11.863 0.273,0.988 0.703,1.922 1.269,2.773 L 828,1156 898.379,1050.941 c 4.109,-6.14 0.031,-14.429 -7.344,-14.921 -1.019,-0.067 -2.043,0.031 -3.035,0.285 l -36,9.297 0,-777.602 -48,0 0,777.602 z m -400,-811.204 36,9.297 c 7.156,1.848 13.629,-4.742 11.648,-11.863 -0.273,-0.988 -0.703,-1.922 -1.269,-2.773 L 380,124 309.621,229.059 c -4.109,6.14 -0.031,14.429 7.344,14.921 1.019,0.067 2.043,-0.031 3.035,-0.285 l 36,-9.297 0,777.602 48,0 0,-777.602 z m -208,0 36,9.297 c 7.156,1.848 13.629,-4.742 11.648,-11.863 -0.273,-0.988 -0.703,-1.922 -1.269,-2.773 L 172,124 101.621,229.059 c -4.109,6.14 -0.031,14.429 7.344,14.921 1.019,0.067 2.043,-0.031 3.035,-0.285 l 36,-9.297 0,777.602 48,0 0,-777.602 z" /><path
         id="path3707"
         style="fill:#000000;fill-opacity:1;fill-rule:evenodd;stroke:none"
         d="m 612.004,234.398 36,9.297 c 7.152,1.848 13.625,-4.742 11.648,-11.863 -0.273,-0.988 -0.703,-1.922 -1.273,-2.773 L 588.004,124 517.625,229.059 c -4.109,6.14 -0.035,14.429 7.34,14.921 1.019,0.067 2.047,-0.031 3.039,-0.285 l 36,-9.297 0,777.602 48,0 0,-777.602 z" /></g></g></svg>