<?xml version="1.0" standalone="no"?>
<!DOCTYPE svg PUBLIC "-//W3C//DTD SVG 1.1//EN" "http://www.w3.org/Graphics/SVG/1.1/DTD/svg11.dtd">
<svg width="1250" height="1600" version="1.1" xmlns="http://www.w3.org/2000/svg">
<path fill="white" stroke="black" stroke-width="1" d="M60 1600A60 60 0 0 1 0 1540L0 60A60 60 0 0 1 60 0L1190 0A60 60 0 0 1 1250 60L1250 1540A60 60 0 0 1 1190 1600L60 1600Z" />
<path fill="black" stroke="none" d="M60 1585A45 45 0 0 1 15 1540L15 60A45 45 0 0 1 60 15L1190 15A45 45 0 0 1 1235 60L1235 1540A45 45 0 0 1 1190 1585L60 1585Z" />
<path fill="white" stroke="none" d="M60 1565A25 25 0 0 1 35 1540L35 60A25 25 0 0 1 60 35L1190 35A25 25 0 0 1 1215 60L1215 1540A25 25 0 0 1 1190 1565L60 1565Z" />
<path fill="black" stroke="none" fill-rule="evenodd" d="M325 1307L369.999901076814 1295.38107550368A12 12 0 0 1 384.562333240056 1310.21130036681A12 12 0 0 1 382.971231041917 1313.67641756549L295 1445L207.028768958083 1313.67641756549A12 12 0 0 1 216.203668302975 1295.02645182795A12 12 0 0 1 220.000098923186 1295.38107550368L265 1307L265 335L325 335L325 1307ZM625 293L580.000098923186 304.618924496316A12 12 0 0 1 565.437666759944 289.788699633188A12 12 0 0 1 567.028768958084 286.323582434515L655 155L742.971231041917 286.323582434515A12 12 0 0 1 733.796331697025 304.973548172046A12 12 0 0 1 729.999901076814 304.618924496316L685 293L685 1265L625 1265L625 293ZM925 293L880.000098923186 304.618924496316A12 12 0 0 1 865.437666759944 289.788699633188A12 12 0 0 1 867.028768958083 286.323582434515L955 155L1042.97123104192 286.323582434515A12 12 0 0 1 1033.79633169702 304.973548172046A12 12 0 0 1 1029.99990107681 304.618924496316L985 293L985 1265L925 1265L925 293Z" />
</svg>
