<?xml version="1.0" encoding="UTF-8" standalone="no"?>
<svg
   xmlns:dc="http://purl.org/dc/elements/1.1/"
   xmlns:cc="http://creativecommons.org/ns#"
   xmlns:rdf="http://www.w3.org/1999/02/22-rdf-syntax-ns#"
   xmlns:svg="http://www.w3.org/2000/svg"
   xmlns="http://www.w3.org/2000/svg"
   viewBox="0 0 1251.0012 1601.9487"
   height="1601.9487"
   width="1251.0012"
   xml:space="preserve"
   version="1.1"
   id="svg3407"><metadata
     id="metadata3413"><rdf:RDF><cc:Work
         rdf:about=""><dc:format>image/svg+xml</dc:format><dc:type
           rdf:resource="http://purl.org/dc/dcmitype/StillImage" /><dc:title></dc:title></cc:Work></rdf:RDF></metadata><defs
     id="defs3411" /><g
     transform="matrix(1.25,0,0,-1.25,0,1601.9487)"
     id="g3415"><g
       id="g3417"><path
         id="path3419"
         style="fill:#ffffff;fill-opacity:1;fill-rule:nonzero;stroke:none"
         d="m 953.566,1281.161 c 25.829,0 46.832,-21.008 46.832,-46.836 l 0,-1187.067 c 0,-25.828 -21.003,-46.855 -46.832,-46.855 l -906.332,0 C 21.406,0.403 0.398,21.43 0.398,47.258 l 0,1187.067 c 0,25.828 21.008,46.836 46.836,46.836 l 906.332,0 z" /><path
         id="path3421"
         style="fill:#000000;fill-opacity:1;fill-rule:nonzero;stroke:none"
         d="m 952.297,12.434 c 19.941,0 36.105,16.184 36.105,36.105 l 0,1184.539 c 0,19.922 -16.164,36.083 -36.105,36.083 l -903.793,0 c -19.942,0 -36.106,-16.161 -36.106,-36.083 l 0,-1184.539 c 0,-19.921 16.164,-36.105 36.106,-36.105" /><path
         id="path3423"
         style="fill:#ffffff;fill-opacity:1;fill-rule:nonzero;stroke:none"
         d="m 952.297,28.485 c 11.066,0 20.055,8.961 20.055,20.054 l 0,1184.539 c 0,11.071 -8.989,20.055 -20.055,20.055 l -903.793,0 c -11.07,0 -20.055,-8.984 -20.055,-20.055 l 0,-1184.539 c 0,-11.093 8.985,-20.054 20.055,-20.054" /><path
         id="path3425"
         style="fill:#000000;fill-opacity:1;fill-rule:nonzero;stroke:none"
         d="m 953.566,1281.559 c 26.043,0 47.235,-21.191 47.235,-47.234 l 0,-1187.067 C 1000.801,21.215 979.613,0 953.566,0 L 47.234,0 C 21.191,0 0,21.215 0,47.258 l 0,1187.067 c 0,26.043 21.191,47.234 47.234,47.234 l 906.332,0 z m 0,-0.398 -906.332,0 c -25.828,0 -46.832,-21.008 -46.832,-46.836 l 0,-1187.067 C 0.402,21.43 21.406,0.403 47.234,0.403 l 906.332,0 c 25.829,0 46.836,21.027 46.836,46.855 l 0,1187.067 c 0,25.828 -21.007,46.836 -46.836,46.836 z" /><path
         id="path3427"
         style="fill:#000000;fill-opacity:1;fill-rule:evenodd;stroke:none"
         d="m 144.402,226.36 33,8.519 c 6.559,1.696 12.489,-4.347 10.676,-10.875 -0.25,-0.902 -0.644,-1.761 -1.164,-2.543 l -64.512,-96.3 -64.515,96.3 c -3.766,5.629 -0.032,13.231 6.73,13.68 0.934,0.062 1.875,-0.027 2.785,-0.262 l 33,-8.519 0,786.801 44,0 0,-786.801 z m 148,0 33,8.519 c 6.559,1.696 12.489,-4.347 10.676,-10.875 -0.25,-0.902 -0.644,-1.761 -1.164,-2.543 l -64.512,-96.3 -64.515,96.3 c -3.766,5.629 -0.032,13.231 6.73,13.68 0.934,0.062 1.875,-0.027 2.785,-0.262 l 33,-8.519 0,786.801 44,0 0,-786.801 z m 148,0 33,8.519 c 6.559,1.696 12.489,-4.347 10.676,-10.875 -0.25,-0.902 -0.644,-1.761 -1.164,-2.543 l -64.512,-96.3 -64.515,96.3 c -3.766,5.629 -0.032,13.231 6.73,13.68 0.934,0.062 1.875,-0.027 2.785,-0.262 l 33,-8.519 0,786.801 44,0 0,-786.801 z m 120,829.597 -33,-8.519 c -6.562,-1.692 -12.492,4.348 -10.679,10.875 0.25,0.906 0.644,1.762 1.164,2.543 l 64.515,96.305 64.512,-96.305 c 3.77,-5.629 0.031,-13.227 -6.73,-13.676 -0.934,-0.062 -1.875,0.023 -2.782,0.258 l -33,8.519 0,-786.796 -44,0 0,786.796 z m 148,0 -33,-8.519 c -6.562,-1.692 -12.492,4.348 -10.679,10.875 0.25,0.906 0.644,1.762 1.164,2.543 l 64.515,96.305 64.512,-96.305 c 3.77,-5.629 0.031,-13.227 -6.73,-13.676 -0.934,-0.062 -1.875,0.023 -2.782,0.258 l -33,8.519 0,-786.796 -44,0 0,786.796 z m 148,0 -33,-8.519 c -6.562,-1.692 -12.492,4.348 -10.679,10.875 0.25,0.906 0.644,1.762 1.164,2.543 l 64.515,96.305 64.512,-96.305 c 3.77,-5.629 0.031,-13.227 -6.73,-13.676 -0.934,-0.062 -1.875,0.023 -2.782,0.258 l -33,8.519 0,-786.796 -44,0 0,786.796 z" /></g></g></svg>