<?xml version="1.0" standalone="no"?>
<!DOCTYPE svg PUBLIC "-//W3C//DTD SVG 1.1//EN" "http://www.w3.org/Graphics/SVG/1.1/DTD/svg11.dtd">
<svg width="1250" height="1600" version="1.1" xmlns="http://www.w3.org/2000/svg">
<path fill="white" stroke="black" stroke-width="1" d="M60 1600A60 60 0 0 1 0 1540L0 60A60 60 0 0 1 60 0L1190 0A60 60 0 0 1 1250 60L1250 1540A60 60 0 0 1 1190 1600L60 1600Z" />
<path fill="black" stroke="none" d="M60 1585A45 45 0 0 1 15 1540L15 60A45 45 0 0 1 60 15L1190 15A45 45 0 0 1 1235 60L1235 1540A45 45 0 0 1 1190 1585L60 1585Z" />
<path fill="white" stroke="none" d="M60 1565A25 25 0 0 1 35 1540L35 60A25 25 0 0 1 60 35L1190 35A25 25 0 0 1 1215 60L1215 1540A25 25 0 0 1 1190 1565L60 1565Z" />
<path fill="black" stroke="none" fill-rule="evenodd" d="M245 1307L289.999901076814 1295.38107550368A12 12 0 0 1 304.562333240056 1310.21130036681A12 12 0 0 1 302.971231041917 1313.67641756549L215 1445L127.028768958083 1313.67641756549A12 12 0 0 1 136.203668302975 1295.02645182795A12 12 0 0 1 140.000098923186 1295.38107550368L185 1307L185 335L245 335L245 1307ZM505 1307L549.999901076814 1295.38107550368A12 12 0 0 1 564.562333240056 1310.21130036681A12 12 0 0 1 562.971231041916 1313.67641756549L475 1445L387.028768958084 1313.67641756549A12 12 0 0 1 396.203668302975 1295.02645182795A12 12 0 0 1 400.000098923186 1295.38107550368L445 1307L445 335L505 335L505 1307ZM745 293L700.000098923186 304.618924496316A12 12 0 0 1 685.437666759944 289.788699633188A12 12 0 0 1 687.028768958083 286.323582434515L775 155L862.971231041917 286.323582434515A12 12 0 0 1 853.796331697025 304.973548172046A12 12 0 0 1 849.999901076814 304.618924496316L805 293L805 1265L745 1265L745 293ZM1005 293L960.000098923186 304.618924496316A12 12 0 0 1 945.437666759944 289.788699633188A12 12 0 0 1 947.028768958083 286.323582434515L1035 155L1122.97123104192 286.323582434515A12 12 0 0 1 1113.79633169702 304.973548172046A12 12 0 0 1 1109.99990107681 304.618924496316L1065 293L1065 1265L1005 1265L1005 293Z" />
</svg>
