<?xml version="1.0" standalone="no"?>
<!DOCTYPE svg PUBLIC "-//W3C//DTD SVG 1.1//EN" "http://www.w3.org/Graphics/SVG/1.1/DTD/svg11.dtd">
<svg width="1250" height="1600" version="1.1" xmlns="http://www.w3.org/2000/svg">
<path fill="white" stroke="black" stroke-width="1" d="M60 1600A60 60 0 0 1 0 1540L0 60A60 60 0 0 1 60 0L1190 0A60 60 0 0 1 1250 60L1250 1540A60 60 0 0 1 1190 1600L60 1600Z" />
<path fill="black" stroke="none" d="M60 1585A45 45 0 0 1 15 1540L15 60A45 45 0 0 1 60 15L1190 15A45 45 0 0 1 1235 60L1235 1540A45 45 0 0 1 1190 1585L60 1585Z" />
<path fill="white" stroke="none" d="M60 1565A25 25 0 0 1 35 1540L35 60A25 25 0 0 1 60 35L1190 35A25 25 0 0 1 1215 60L1215 1540A25 25 0 0 1 1190 1565L60 1565Z" />
<path fill="black" stroke="none" fill-rule="evenodd" d="M200 1307L244.999901076814 1295.38107550368A12 12 0 0 1 259.562333240056 1310.21130036681A12 12 0 0 1 257.971231041917 1313.67641756549L170 1445L82.0287689580835 1313.67641756549A12 12 0 0 1 91.2036683029754 1295.02645182795A12 12 0 0 1 95.0000989231864 1295.38107550368L140 1307L140 335L200 335L200 1307ZM420 1307L464.999901076814 1295.38107550368A12 12 0 0 1 479.562333240056 1310.21130036681A12 12 0 0 1 477.971231041917 1313.67641756549L390 1445L302.028768958083 1313.67641756549A12 12 0 0 1 311.203668302975 1295.02645182795A12 12 0 0 1 315.000098923186 1295.38107550368L360 1307L360 335L420 335L420 1307ZM610 293L565.000098923186 304.618924496316A12 12 0 0 1 550.437666759944 289.788699633188A12 12 0 0 1 552.028768958084 286.323582434515L640 155L727.971231041917 286.323582434515A12 12 0 0 1 718.796331697025 304.973548172046A12 12 0 0 1 714.999901076814 304.618924496316L670 293L670 1265L610 1265L610 293ZM830 293L785.000098923186 304.618924496316A12 12 0 0 1 770.437666759944 289.788699633188A12 12 0 0 1 772.028768958083 286.323582434515L860 155L947.971231041917 286.323582434515A12 12 0 0 1 938.796331697025 304.973548172046A12 12 0 0 1 934.999901076814 304.618924496316L890 293L890 1265L830 1265L830 293ZM1050 293L1005.00009892319 304.618924496316A12 12 0 0 1 990.437666759944 289.788699633188A12 12 0 0 1 992.028768958083 286.323582434515L1080 155L1167.97123104192 286.323582434515A12 12 0 0 1 1158.79633169702 304.973548172046A12 12 0 0 1 1154.99990107681 304.618924496316L1110 293L1110 1265L1050 1265L1050 293Z" />
</svg>
