<?xml version="1.0" encoding="UTF-8" standalone="no"?>
<svg
   xmlns:dc="http://purl.org/dc/elements/1.1/"
   xmlns:cc="http://creativecommons.org/ns#"
   xmlns:rdf="http://www.w3.org/1999/02/22-rdf-syntax-ns#"
   xmlns:svg="http://www.w3.org/2000/svg"
   xmlns="http://www.w3.org/2000/svg"
   viewBox="0 0 1251 1601.9473"
   height="1601.9473"
   width="1251"
   xml:space="preserve"
   version="1.1"
   id="svg25252"><metadata
     id="metadata25258"><rdf:RDF><cc:Work
         rdf:about=""><dc:format>image/svg+xml</dc:format><dc:type
           rdf:resource="http://purl.org/dc/dcmitype/StillImage" /><dc:title></dc:title></cc:Work></rdf:RDF></metadata><defs
     id="defs25256" /><g
     transform="matrix(1.25,0,0,-1.25,0,1601.9473)"
     id="g25260"><g
       id="g25262"><path
         id="path25264"
         style="fill:#ffffff;fill-opacity:1;fill-rule:nonzero;stroke:none"
         d="m 47.234,1281.159 c -25.828,0 -46.832,-21.007 -46.832,-46.836 l 0,-1187.066 C 0.402,21.429 21.406,0.402 47.234,0.402 l 906.332,0 c 25.829,0 46.836,21.027 46.836,46.855 l 0,1187.066 c 0,25.829 -21.007,46.836 -46.836,46.836 l -906.332,0 z" /><path
         id="path25266"
         style="fill:#000000;fill-opacity:1;fill-rule:nonzero;stroke:none"
         d="m 48.504,12.433 c -19.942,0 -36.106,16.183 -36.106,36.105 l 0,1184.539 c 0,19.922 16.164,36.082 36.106,36.082 l 903.793,0 c 19.941,0 36.105,-16.16 36.105,-36.082 l 0,-1184.539 c 0,-19.922 -16.164,-36.105 -36.105,-36.105" /><path
         id="path25268"
         style="fill:#ffffff;fill-opacity:1;fill-rule:nonzero;stroke:none"
         d="m 48.504,28.484 c -11.066,0 -20.055,8.961 -20.055,20.054 l 0,1184.539 c 0,11.071 8.989,20.055 20.055,20.055 l 903.793,0 c 11.07,0 20.055,-8.984 20.055,-20.055 l 0,-1184.539 c 0,-11.093 -8.985,-20.054 -20.055,-20.054" /><path
         id="path25270"
         style="fill:#000000;fill-opacity:1;fill-rule:nonzero;stroke:none"
         d="M 47.234,1281.558 C 21.191,1281.558 0,1260.366 0,1234.323 L 0,47.257 C 0,21.214 21.188,-0.001 47.234,-0.001 l 906.332,0 c 26.043,0 47.235,21.215 47.235,47.258 l 0,1187.066 c 0,26.043 -21.192,47.235 -47.235,47.235 l -906.332,0 z m 0,-0.399 906.332,0 c 25.829,0 46.832,-21.007 46.832,-46.836 l 0,-1187.066 c 0,-25.828 -21.003,-46.855 -46.832,-46.855 l -906.332,0 C 21.406,0.402 0.398,21.429 0.398,47.257 l 0,1187.066 c 0,25.829 21.008,46.836 46.836,46.836 z" /><path
         id="path25272"
         style="fill:#000000;fill-opacity:1;fill-rule:nonzero;stroke:none"
         d="m 295.949,1047.202 -36.035,-9.273 c -0.82,-0.184 -1.594,-0.316 -2.367,-0.316 -5.371,0 -9.602,4.316 -9.602,9.589 0,1.954 0.547,3.817 1.594,5.364 l 70.481,105.043 70.343,-105.043 c 1.047,-1.547 1.594,-3.41 1.594,-5.364 0,-5.273 -4.23,-9.589 -9.555,-9.589 -0.82,0 -1.593,0.132 -2.41,0.316 l -36.039,9.273 0,-921.152 -48.004,0 0,921.152 z" /><path
         id="path25274"
         style="fill:#000000;fill-opacity:1;fill-rule:nonzero;stroke:none"
         d="m 636.129,1047.202 -36.035,-9.273 c -0.821,-0.184 -1.594,-0.316 -2.367,-0.316 -5.368,0 -9.602,4.316 -9.602,9.589 0,1.954 0.547,3.817 1.594,5.364 l 70.48,105.043 70.348,-105.043 c 1.047,-1.547 1.637,-3.41 1.637,-5.364 0,-5.273 -4.278,-9.589 -9.555,-9.589 -0.867,0 -1.641,0.132 -2.457,0.316 l -36.039,9.273 0,-921.152 -48.004,0 0,921.152 z" /><path
         id="path25276"
         style="fill:#ffffff;fill-opacity:1;fill-rule:nonzero;stroke:none"
         d="m 855.891,641.761 c 0,-107.906 -87.68,-195.449 -195.746,-195.449 -108.063,0 -195.79,87.543 -195.79,195.449 0,108.039 87.727,195.582 195.79,195.582 108.066,0 195.746,-87.543 195.746,-195.582" /><path
         id="path25278"
         style="fill:#c1121c;fill-opacity:1;fill-rule:nonzero;stroke:none"
         d="m 846.465,641.804 c 0,-102.77 -83.449,-186.082 -186.328,-186.082 -102.879,0 -186.282,83.312 -186.282,186.082 0,102.816 83.403,186.086 186.282,186.086 102.879,0 186.328,-83.27 186.328,-186.086" /><path
         id="path25280"
         style="fill:#ffffff;fill-opacity:1;fill-rule:nonzero;stroke:none"
         d="m 797.441,641.804 c 0,-75.723 -61.519,-137.086 -137.324,-137.086 -75.805,0 -137.277,61.363 -137.277,137.086 0,75.773 61.472,137.18 137.277,137.18 75.805,0 137.324,-61.407 137.324,-137.18" /><path
         id="path25282"
         style="fill:#000000;fill-opacity:1;fill-rule:nonzero;stroke:none"
         d="m 582.652,678.077 c 0,-12.863 10.375,-23.226 23.16,-23.226 12.879,0 23.25,10.363 23.25,23.226 0,12.774 -10.371,23.18 -23.25,23.18 -12.785,0 -23.16,-10.406 -23.16,-23.18 m -2.91,-69.636 c 0,-14.36 11.692,-26.043 26.07,-26.043 14.469,0 26.075,11.683 26.075,26.043 0,14.5 -11.606,26.136 -26.075,26.136 -14.378,0 -26.07,-11.636 -26.07,-26.136 m -4.371,36.636 c -10.098,8 -15.969,20.137 -15.969,33 0,25.543 20.793,46.364 46.41,46.364 25.665,0 46.411,-20.821 46.411,-46.364 0,-12.863 -5.868,-25 -15.969,-33 11.875,-8.41 18.93,-22.089 18.93,-36.636 0,-27.133 -22.161,-49.223 -49.372,-49.223 -27.253,0 -49.367,22.09 -49.367,49.223 0,14.547 7.098,28.226 18.926,36.636" /><path
         id="path25284"
         style="fill:#000000;fill-opacity:1;fill-rule:nonzero;stroke:none"
         d="m 694.152,605.573 c 0,-12.816 10.375,-23.179 23.254,-23.179 12.785,0 23.25,10.363 23.25,23.179 l 0,72.5 c 0,12.77 -10.465,23.18 -23.25,23.18 -12.879,0 -23.254,-10.41 -23.254,-23.18 l 0,-72.5 z m -23.16,0 0,72.5 c 0,25.59 20.75,46.36 46.414,46.36 25.617,0 46.41,-20.77 46.41,-46.36 l 0,-72.5 c 0,-25.542 -20.793,-46.359 -46.41,-46.359 -25.664,0 -46.414,20.817 -46.414,46.359" /></g></g></svg>