<?xml version="1.0" encoding="UTF-8" standalone="no"?>
<svg
   xmlns:dc="http://purl.org/dc/elements/1.1/"
   xmlns:cc="http://creativecommons.org/ns#"
   xmlns:rdf="http://www.w3.org/1999/02/22-rdf-syntax-ns#"
   xmlns:svg="http://www.w3.org/2000/svg"
   xmlns="http://www.w3.org/2000/svg"
   viewBox="0 0 1251 1601.9473"
   height="1601.9473"
   width="1251"
   xml:space="preserve"
   version="1.1"
   id="svg25682"><metadata
     id="metadata25688"><rdf:RDF><cc:Work
         rdf:about=""><dc:format>image/svg+xml</dc:format><dc:type
           rdf:resource="http://purl.org/dc/dcmitype/StillImage" /><dc:title></dc:title></cc:Work></rdf:RDF></metadata><defs
     id="defs25686" /><g
     transform="matrix(1.25,0,0,-1.25,0,1601.9473)"
     id="g25690"><g
       id="g25692"><path
         id="path25694"
         style="fill:#ffffff;fill-opacity:1;fill-rule:nonzero;stroke:none"
         d="m 47.234,1281.159 c -25.828,0 -46.832,-21.007 -46.832,-46.836 l 0,-1187.066 C 0.402,21.429 21.406,0.402 47.234,0.402 l 906.332,0 c 25.829,0 46.836,21.027 46.836,46.855 l 0,1187.066 c 0,25.829 -21.007,46.836 -46.836,46.836 l -906.332,0 z" /><path
         id="path25696"
         style="fill:#000000;fill-opacity:1;fill-rule:nonzero;stroke:none"
         d="m 48.504,12.433 c -19.942,0 -36.106,16.183 -36.106,36.105 l 0,1184.539 c 0,19.922 16.164,36.082 36.106,36.082 l 903.793,0 c 19.941,0 36.105,-16.16 36.105,-36.082 l 0,-1184.539 c 0,-19.922 -16.164,-36.105 -36.105,-36.105" /><path
         id="path25698"
         style="fill:#ffffff;fill-opacity:1;fill-rule:nonzero;stroke:none"
         d="m 48.504,28.484 c -11.066,0 -20.055,8.961 -20.055,20.054 l 0,1184.539 c 0,11.071 8.989,20.055 20.055,20.055 l 903.793,0 c 11.07,0 20.055,-8.984 20.055,-20.055 l 0,-1184.539 c 0,-11.093 -8.985,-20.054 -20.055,-20.054" /><path
         id="path25700"
         style="fill:#000000;fill-opacity:1;fill-rule:nonzero;stroke:none"
         d="M 47.234,1281.558 C 21.191,1281.558 0,1260.366 0,1234.323 L 0,47.257 C 0,21.214 21.188,-0.001 47.234,-0.001 l 906.332,0 c 26.043,0 47.235,21.215 47.235,47.258 l 0,1187.066 c 0,26.043 -21.192,47.235 -47.235,47.235 l -906.332,0 z m 0,-0.399 906.332,0 c 25.829,0 46.832,-21.007 46.832,-46.836 l 0,-1187.066 c 0,-25.828 -21.003,-46.855 -46.832,-46.855 l -906.332,0 C 21.406,0.402 0.398,21.429 0.398,47.257 l 0,1187.066 c 0,25.829 21.008,46.836 46.836,46.836 z" /><path
         id="path25702"
         style="fill:#000000;fill-opacity:1;fill-rule:nonzero;stroke:none"
         d="m 768.207,1047.23 -0.184,-430.922 c -7.871,1 -15.789,1.5 -23.843,1.5 -7.961,0 -15.926,-0.5 -23.797,-1.5 l -0.184,430.922 -35.992,-9.321 c -0.82,-0.179 -1.637,-0.316 -2.414,-0.316 -5.277,0 -9.598,4.316 -9.598,9.637 0,1.863 0.59,3.726 1.637,5.316 l 70.348,105.051 70.484,-105.051 c 1.004,-1.59 1.594,-3.453 1.594,-5.316 0,-5.321 -4.278,-9.637 -9.602,-9.637 -0.773,0 -1.636,0.137 -2.367,0.316 l -36.082,9.321 z" /><path
         id="path25704"
         style="fill:#000000;fill-opacity:1;fill-rule:nonzero;stroke:none"
         d="m 720.367,227.417 c 7.918,-0.957 15.836,-1.457 23.844,-1.457 8.012,0 15.973,0.5 23.801,1.457 l 0,-101.457 -47.871,0 c 0,0 0.047,0.043 0.226,101.457" /><path
         id="path25706"
         style="fill:#000000;fill-opacity:1;fill-rule:nonzero;stroke:none"
         d="m 496.051,1047.23 -0.184,-87.051 c -7.871,1 -15.789,1.457 -23.844,1.457 -7.964,0 -15.925,-0.457 -23.796,-1.457 l -0.231,87.051 -36.039,-9.321 c -0.773,-0.179 -1.547,-0.316 -2.363,-0.316 -5.235,0 -9.602,4.316 -9.602,9.637 0,1.863 0.59,3.726 1.637,5.316 l 70.394,105.051 70.438,-105.051 c 1.047,-1.59 1.641,-3.453 1.641,-5.316 0,-5.321 -4.325,-9.637 -9.649,-9.637 -0.816,0 -1.59,0.137 -2.363,0.316 l -36.039,9.321 z" /><path
         id="path25708"
         style="fill:#000000;fill-opacity:1;fill-rule:nonzero;stroke:none"
         d="m 448.211,571.198 c 7.918,-0.957 15.836,-1.457 23.844,-1.457 8.007,0 15.972,0.5 23.797,1.457 l 0.183,-445.242 -47.961,0 c 0,0 0.047,241.235 0.137,445.242" /><path
         id="path25710"
         style="fill:#000000;fill-opacity:1;fill-rule:nonzero;stroke:none"
         d="m 223.895,1047.23 0,-921.254 -48.051,0 0,921.254 -36.039,-9.321 c -0.774,-0.179 -1.547,-0.316 -2.41,-0.316 -5.278,0 -9.555,4.316 -9.555,9.637 0,1.863 0.59,3.726 1.637,5.316 l 70.394,105.051 70.438,-105.051 c 1.046,-1.59 1.64,-3.453 1.64,-5.316 0,-5.321 -4.324,-9.637 -9.648,-9.637 -0.821,0 -1.594,0.137 -2.41,0.316 l -35.996,9.321 z" /><path
         id="path25712"
         style="fill:#c1121c;fill-opacity:1;fill-rule:nonzero;stroke:none"
         d="m 744.199,607.98 c -102.84,0 -186.293,-83.321 -186.293,-186.094 0,-102.824 83.453,-186.098 186.293,-186.098 102.883,0 186.336,83.274 186.336,186.098 0,102.773 -83.453,186.094 -186.336,186.094 z m -0.019,-48.953 c 75.808,0 137.328,-61.414 137.328,-137.141 0,-75.73 -61.52,-137.188 -137.328,-137.188 -75.809,0 -137.239,61.458 -137.239,137.188 0,75.727 61.43,137.141 137.239,137.141 z" /><path
         id="path25714"
         style="fill:#000000;fill-opacity:1;fill-rule:nonzero;stroke:none"
         d="m 666.664,458.116 c 0,-12.816 10.465,-23.183 23.207,-23.183 12.832,0 23.207,10.367 23.207,23.183 0,12.821 -10.375,23.184 -23.207,23.184 -12.742,0 -23.207,-10.363 -23.207,-23.184 m -2.867,-69.593 c 0,-14.407 11.648,-26.043 26.074,-26.043 14.422,0 26.117,11.636 26.117,26.043 0,14.41 -11.695,26.093 -26.117,26.093 -14.426,0 -26.074,-11.683 -26.074,-26.093 m -4.367,36.593 c -10.102,8 -15.973,20.137 -15.973,33 0,25.594 20.793,46.411 46.414,46.411 25.664,0 46.457,-20.817 46.457,-46.411 0,-12.863 -5.914,-25 -16.016,-33 11.876,-8.41 18.93,-22.046 18.93,-36.593 0,-27.18 -22.117,-49.274 -49.371,-49.274 -27.211,0 -49.328,22.094 -49.328,49.274 0,14.547 7.008,28.183 18.887,36.593" /><path
         id="path25716"
         style="fill:#000000;fill-opacity:1;fill-rule:nonzero;stroke:none"
         d="m 778.211,385.652 c 0,-12.821 10.375,-23.184 23.207,-23.184 12.832,0 23.207,10.363 23.207,23.184 l 0,72.457 c 0,12.816 -10.375,23.183 -23.207,23.183 -12.832,0 -23.207,-10.367 -23.207,-23.183 l 0,-72.457 z m -23.16,0 0,72.457 c 0,25.636 20.75,46.41 46.367,46.41 25.621,0 46.461,-20.774 46.461,-46.41 l 0,-72.457 c 0,-25.637 -20.84,-46.411 -46.461,-46.411 -25.617,0 -46.367,20.774 -46.367,46.411" /><path
         id="path25718"
         style="fill:#c1121c;fill-opacity:1;fill-rule:nonzero;stroke:none"
         d="m 472.039,949.62 c -102.836,0 -186.289,-83.273 -186.289,-186.093 0,-102.778 83.453,-186.098 186.289,-186.098 102.887,0 186.34,83.32 186.34,186.098 0,102.82 -83.453,186.093 -186.34,186.093 z m -0.016,-48.953 c 75.809,0 137.329,-61.414 137.329,-137.14 0,-75.731 -61.52,-137.141 -137.329,-137.141 -75.808,0 -137.242,61.41 -137.242,137.141 0,75.726 61.434,137.14 137.242,137.14 z" /><path
         id="path25720"
         style="fill:#000000;fill-opacity:1;fill-rule:nonzero;stroke:none"
         d="m 394.52,799.757 c 0,-12.816 10.375,-23.18 23.207,-23.18 12.832,0 23.207,10.364 23.207,23.18 0,12.82 -10.375,23.184 -23.207,23.184 -12.832,0 -23.207,-10.364 -23.207,-23.184 m -2.868,-69.59 c 0,-14.367 11.649,-26.094 26.075,-26.094 14.425,0 26.074,11.727 26.074,26.094 0,14.406 -11.649,26.09 -26.074,26.09 -14.426,0 -26.075,-11.684 -26.075,-26.09 m -4.367,36.637 c -10.101,7.953 -15.973,20.09 -15.973,32.953 0,25.637 20.797,46.41 46.415,46.41 25.621,0 46.414,-20.773 46.414,-46.41 0,-12.863 -5.871,-25 -15.973,-32.953 11.879,-8.457 18.887,-22.094 18.887,-36.637 0,-27.183 -22.071,-49.277 -49.328,-49.277 -27.211,0 -49.372,22.094 -49.372,49.277 0,14.543 7.055,28.18 18.93,36.637" /><path
         id="path25722"
         style="fill:#000000;fill-opacity:1;fill-rule:nonzero;stroke:none"
         d="m 506.059,727.296 c 0,-12.816 10.375,-23.226 23.207,-23.226 12.832,0 23.207,10.41 23.207,23.226 l 0,72.457 c 0,12.82 -10.375,23.184 -23.207,23.184 -12.832,0 -23.207,-10.364 -23.207,-23.184 l 0,-72.457 z m -23.207,0 0,72.457 c 0,25.637 20.796,46.41 46.414,46.41 25.617,0 46.414,-20.773 46.414,-46.41 l 0,-72.457 c 0,-25.637 -20.797,-46.41 -46.414,-46.41 -25.618,0 -46.414,20.773 -46.414,46.41" /></g></g></svg>