<?xml version="1.0" encoding="UTF-8" standalone="no"?>
<svg
   xmlns:dc="http://purl.org/dc/elements/1.1/"
   xmlns:cc="http://creativecommons.org/ns#"
   xmlns:rdf="http://www.w3.org/1999/02/22-rdf-syntax-ns#"
   xmlns:svg="http://www.w3.org/2000/svg"
   xmlns="http://www.w3.org/2000/svg"
   viewBox="0 0 1251 1601.9473"
   height="1601.9473"
   width="1251"
   xml:space="preserve"
   version="1.1"
   id="svg26102"><metadata
     id="metadata26108"><rdf:RDF><cc:Work
         rdf:about=""><dc:format>image/svg+xml</dc:format><dc:type
           rdf:resource="http://purl.org/dc/dcmitype/StillImage" /><dc:title></dc:title></cc:Work></rdf:RDF></metadata><defs
     id="defs26106" /><g
     transform="matrix(1.25,0,0,-1.25,0,1601.9473)"
     id="g26110"><g
       id="g26112"><path
         id="path26114"
         style="fill:#ffffff;fill-opacity:1;fill-rule:nonzero;stroke:none"
         d="m 47.234,1281.159 c -25.828,0 -46.832,-21.007 -46.832,-46.836 l 0,-1187.066 C 0.402,21.429 21.406,0.402 47.234,0.402 l 906.332,0 c 25.829,0 46.836,21.027 46.836,46.855 l 0,1187.066 c 0,25.829 -21.007,46.836 -46.836,46.836 l -906.332,0 z" /><path
         id="path26116"
         style="fill:#000000;fill-opacity:1;fill-rule:nonzero;stroke:none"
         d="m 48.504,12.433 c -19.942,0 -36.106,16.183 -36.106,36.105 l 0,1184.539 c 0,19.922 16.164,36.082 36.106,36.082 l 903.793,0 c 19.941,0 36.105,-16.16 36.105,-36.082 l 0,-1184.539 c 0,-19.922 -16.164,-36.105 -36.105,-36.105" /><path
         id="path26118"
         style="fill:#ffffff;fill-opacity:1;fill-rule:nonzero;stroke:none"
         d="m 48.504,28.484 c -11.066,0 -20.055,8.961 -20.055,20.054 l 0,1184.539 c 0,11.071 8.989,20.055 20.055,20.055 l 903.793,0 c 11.07,0 20.055,-8.984 20.055,-20.055 l 0,-1184.539 c 0,-11.093 -8.985,-20.054 -20.055,-20.054" /><path
         id="path26120"
         style="fill:#000000;fill-opacity:1;fill-rule:nonzero;stroke:none"
         d="M 47.234,1281.558 C 21.191,1281.558 0,1260.366 0,1234.323 L 0,47.257 C 0,21.214 21.188,-0.001 47.234,-0.001 l 906.332,0 c 26.043,0 47.235,21.215 47.235,47.258 l 0,1187.066 c 0,26.043 -21.192,47.235 -47.235,47.235 l -906.332,0 z m 0,-0.399 906.332,0 c 25.829,0 46.832,-21.007 46.832,-46.836 l 0,-1187.066 c 0,-25.828 -21.003,-46.855 -46.832,-46.855 l -906.332,0 C 21.406,0.402 0.398,21.429 0.398,47.257 l 0,1187.066 c 0,25.829 21.008,46.836 46.836,46.836 z" /><path
         id="path26122"
         style="fill:#000000;fill-opacity:1;fill-rule:nonzero;stroke:none"
         d="m 704.504,1047.198 0,-921.164 -48.004,0 0,921.164 -36.039,-9.316 c -0.816,-0.184 -1.547,-0.273 -2.41,-0.273 -5.278,0 -9.602,4.273 -9.602,9.589 0,1.911 0.59,3.774 1.684,5.321 l 70.347,105.043 70.438,-105.043 c 1.09,-1.547 1.637,-3.41 1.637,-5.321 0,-5.316 -4.325,-9.589 -9.602,-9.589 -0.816,0 -1.594,0.089 -2.41,0.273 l -36.039,9.316 z" /><path
         id="path26124"
         style="fill:#000000;fill-opacity:1;fill-rule:nonzero;stroke:none"
         d="m 364.332,1047.198 -0.184,-210.949 c -7.871,0.953 -15.878,1.453 -23.843,1.453 -7.961,0 -15.926,-0.5 -23.797,-1.453 l -0.184,210.949 -36.035,-9.316 c -0.82,-0.184 -1.594,-0.273 -2.414,-0.273 -5.32,0 -9.598,4.273 -9.598,9.589 0,1.911 0.543,3.774 1.637,5.364 l 70.391,105 70.394,-105.043 c 1.137,-1.547 1.637,-3.41 1.637,-5.321 0,-5.316 -4.277,-9.589 -9.555,-9.589 -0.867,0 -1.593,0.089 -2.414,0.273 l -36.035,9.316 z" /><path
         id="path26126"
         style="fill:#000000;fill-opacity:1;fill-rule:nonzero;stroke:none"
         d="m 316.496,447.351 c 7.914,-0.953 15.832,-1.453 23.84,-1.453 7.918,0 15.926,0.5 23.801,1.453 l 0.179,-321.309 -48.004,0.133 0.184,321.176" /><path
         id="path26128"
         style="fill:#c1121c;fill-opacity:1;fill-rule:nonzero;stroke:none"
         d="m 340.348,827.933 c -102.926,0 -186.332,-83.363 -186.332,-186.133 0,-102.773 83.406,-186.133 186.332,-186.133 102.836,0 186.285,83.36 186.285,186.133 0,102.77 -83.449,186.133 -186.285,186.133 z m -0.036,-49 c 75.809,0 137.282,-61.41 137.282,-137.133 0,-75.727 -61.473,-137.137 -137.282,-137.137 -75.851,0 -137.281,61.41 -137.281,137.137 0,75.723 61.43,137.133 137.281,137.133 z" /><path
         id="path26130"
         style="fill:#000000;fill-opacity:1;fill-rule:nonzero;stroke:none"
         d="m 449.801,621.089 -149.883,0 0,72.274 149.883,0 0,-72.274 z m -15.469,-23.226 -12.969,-0.04 c 0,7.043 -3.14,13.637 -8.644,18.043 l 37.082,0.043 0,-12.91 -15.469,-5.136 z m -18.156,-0.04 c 0,-9.953 -8.098,-18.046 -18.063,-18.046 -9.968,0 -18.113,8.093 -18.113,18.046 0,10 8.145,18.043 18.113,18.043 9.965,0 18.063,-8.043 18.063,-18.043 m -139.555,0 c 0,-9.953 -8.055,-18.046 -18.109,-18.046 -9.969,0 -18.067,8.093 -18.067,18.046 0,10 8.098,18.043 18.067,18.043 10.054,0 18.109,-8.043 18.109,-18.043 m 12.969,77.454 0,-59.364 93.914,-0.039 c -5.461,-4.41 -8.645,-11 -8.645,-18.047 l -93.097,0 c 0,12.821 -10.375,23.227 -23.25,23.227 -12.832,0 -23.254,-10.406 -23.254,-23.227 l -2.504,0.039 c -2.91,0 -5.231,2.321 -5.231,5.184 l 0,28.453 c 0,2.5 0.461,4.953 1.325,7.274 l 11.422,30.363 c 0.679,1.906 2.453,3.226 4.503,3.363 l 44.821,2.774 -0.004,0 z" /><path
         id="path26132"
         style="fill:#ffffff;fill-opacity:1;fill-rule:nonzero;stroke:none"
         d="m 271.492,640.421 -34.355,-4.047 -0.274,0 c -1.453,0 -2.593,1.137 -2.593,2.594 0,0.316 0.046,0.59 0.183,0.906 l 8.645,23.047 c 0.363,0.953 1.23,1.637 2.277,1.68 l 26.117,1.637 0,-25.817 z" /></g></g></svg>