<?xml version="1.0" encoding="UTF-8" standalone="no"?>
<svg
   xmlns:dc="http://purl.org/dc/elements/1.1/"
   xmlns:cc="http://creativecommons.org/ns#"
   xmlns:rdf="http://www.w3.org/1999/02/22-rdf-syntax-ns#"
   xmlns:svg="http://www.w3.org/2000/svg"
   xmlns="http://www.w3.org/2000/svg"
   viewBox="0 0 1251 1601.9473"
   height="1601.9473"
   width="1251"
   xml:space="preserve"
   version="1.1"
   id="svg26691"><metadata
     id="metadata26697"><rdf:RDF><cc:Work
         rdf:about=""><dc:format>image/svg+xml</dc:format><dc:type
           rdf:resource="http://purl.org/dc/dcmitype/StillImage" /><dc:title></dc:title></cc:Work></rdf:RDF></metadata><defs
     id="defs26695" /><g
     transform="matrix(1.25,0,0,-1.25,0,1601.9473)"
     id="g26699"><g
       id="g26701"><path
         id="path26703"
         style="fill:#ffffff;fill-opacity:1;fill-rule:nonzero;stroke:none"
         d="m 47.234,1281.159 c -25.828,0 -46.832,-21.007 -46.832,-46.836 l 0,-1187.066 C 0.402,21.429 21.406,0.402 47.234,0.402 l 906.332,0 c 25.829,0 46.836,21.027 46.836,46.855 l 0,1187.066 c 0,25.829 -21.007,46.836 -46.836,46.836 l -906.332,0 z" /><path
         id="path26705"
         style="fill:#000000;fill-opacity:1;fill-rule:nonzero;stroke:none"
         d="m 48.504,12.433 c -19.942,0 -36.106,16.183 -36.106,36.105 l 0,1184.539 c 0,19.922 16.164,36.082 36.106,36.082 l 903.793,0 c 19.941,0 36.105,-16.16 36.105,-36.082 l 0,-1184.539 c 0,-19.922 -16.164,-36.105 -36.105,-36.105" /><path
         id="path26707"
         style="fill:#ffffff;fill-opacity:1;fill-rule:nonzero;stroke:none"
         d="m 48.504,28.484 c -11.066,0 -20.055,8.961 -20.055,20.054 l 0,1184.539 c 0,11.071 8.989,20.055 20.055,20.055 l 903.793,0 c 11.07,0 20.055,-8.984 20.055,-20.055 l 0,-1184.539 c 0,-11.093 -8.985,-20.054 -20.055,-20.054" /><path
         id="path26709"
         style="fill:#000000;fill-opacity:1;fill-rule:nonzero;stroke:none"
         d="M 47.234,1281.558 C 21.191,1281.558 0,1260.366 0,1234.323 L 0,47.257 C 0,21.214 21.188,-0.001 47.234,-0.001 l 906.332,0 c 26.043,0 47.235,21.215 47.235,47.258 l 0,1187.066 c 0,26.043 -21.192,47.235 -47.235,47.235 l -906.332,0 z m 0,-0.399 906.332,0 c 25.829,0 46.832,-21.007 46.832,-46.836 l 0,-1187.066 c 0,-25.828 -21.003,-46.855 -46.832,-46.855 l -906.332,0 C 21.406,0.402 0.398,21.429 0.398,47.257 l 0,1187.066 c 0,25.829 21.008,46.836 46.836,46.836 z" /><path
         id="path26711"
         style="fill:#000000;fill-opacity:1;fill-rule:nonzero;stroke:none"
         d="m 844.547,1047.191 -36.039,-9.274 c -0.727,-0.179 -1.594,-0.269 -2.367,-0.269 -5.321,0 -9.598,4.273 -9.598,9.543 0,1.957 0.59,3.82 1.59,5.363 l 70.484,105.004 70.395,-105.004 c 1.047,-1.543 1.593,-3.406 1.593,-5.363 0,-5.27 -4.277,-9.543 -9.558,-9.543 -0.863,0 -1.637,0.09 -2.457,0.269 l -35.992,9.274 0,-921.145 -48.051,0 0,921.145 z" /><path
         id="path26713"
         style="fill:#000000;fill-opacity:1;fill-rule:nonzero;stroke:none"
         d="m 660.469,1047.191 -36.039,-9.274 c -0.821,-0.179 -1.594,-0.269 -2.41,-0.269 -5.325,0 -9.559,4.273 -9.559,9.543 0,1.957 0.547,3.82 1.594,5.363 l 70.441,105.004 70.438,-105.004 c 1.046,-1.543 1.593,-3.406 1.593,-5.363 0,-5.27 -4.277,-9.543 -9.648,-9.543 -0.774,0 -1.547,0.09 -2.367,0.269 l -36.039,9.274 0,-405.414 c 0,57.867 -16.743,114.504 -48.188,163.046 l 0.184,242.368 z" /><path
         id="path26715"
         style="fill:#000000;fill-opacity:1;fill-rule:nonzero;stroke:none"
         d="m 708.469,641.796 0,-515.734 -48.004,0 -0.184,352.82 c 31.442,48.5 48.188,105.047 48.188,162.914" /><path
         id="path26717"
         style="fill:#000000;fill-opacity:1;fill-rule:nonzero;stroke:none"
         d="m 476.379,1047.191 -36.039,-9.274 c -0.817,-0.179 -1.59,-0.269 -2.363,-0.269 -5.372,0 -9.649,4.273 -9.649,9.543 0,1.957 0.547,3.82 1.594,5.363 l 70.437,105.004 70.442,-105.004 c 1.047,-1.543 1.637,-3.406 1.637,-5.363 0,-5.27 -4.278,-9.543 -9.602,-9.543 -0.82,0 -1.594,0.09 -2.41,0.269 l -36.039,9.274 0,-128.821 c -15.61,6.504 -31.762,11.731 -48.371,15.594 l 0.363,113.227 z" /><path
         id="path26719"
         style="fill:#000000;fill-opacity:1;fill-rule:nonzero;stroke:none"
         d="m 524.391,365.191 0,-239.137 -48.008,0 -0.363,223.637 c 16.609,3.82 32.761,9 48.371,15.5" /><path
         id="path26721"
         style="fill:#000000;fill-opacity:1;fill-rule:nonzero;stroke:none"
         d="m 292.164,1047.191 -35.902,-9.274 c -0.817,-0.179 -1.59,-0.269 -2.41,-0.269 -5.325,0 -9.602,4.273 -9.602,9.543 0,1.957 0.5,3.82 1.594,5.363 l 70.437,105.004 70.442,-105.004 c 0.953,-1.543 1.589,-3.406 1.589,-5.363 0,-5.27 -4.367,-9.543 -9.644,-9.543 -0.82,0 -1.594,0.09 -2.32,0.269 l -36.039,9.274 0.363,-113.227 c -16.61,-3.863 -32.809,-9.09 -48.508,-15.594 l 0,128.821 z" /><path
         id="path26723"
         style="fill:#000000;fill-opacity:1;fill-rule:nonzero;stroke:none"
         d="m 340.305,349.679 0,-223.641 -48.145,0 0,239.188 c 15.699,-6.5 31.899,-11.727 48.145,-15.547" /><path
         id="path26725"
         style="fill:#000000;fill-opacity:1;fill-rule:nonzero;stroke:none"
         d="m 108.086,1047.191 -35.902,-9.274 c -0.864,-0.179 -1.637,-0.269 -2.457,-0.269 -5.325,0 -9.645,4.273 -9.645,9.543 0,1.957 0.59,3.82 1.684,5.363 l 70.347,105.004 70.438,-105.004 c 1.047,-1.543 1.594,-3.406 1.594,-5.363 0,-5.27 -4.278,-9.543 -9.555,-9.543 -0.82,0 -1.594,0.09 -2.457,0.269 l -35.949,9.274 0.089,-242.368 c -31.441,-48.542 -48.097,-105.179 -48.187,-163 l 0,405.368 z" /><path
         id="path26727"
         style="fill:#000000;fill-opacity:1;fill-rule:nonzero;stroke:none"
         d="m 156.18,478.956 0,-352.914 -48.098,0 0,515.735 c 0,-57.817 16.789,-114.411 48.098,-162.821" /><path
         id="path26729"
         style="fill:#c1121c;fill-opacity:1;fill-rule:nonzero;stroke:none"
         d="m 408.305,926.659 c -157.485,0 -285.121,-127.546 -285.121,-284.867 0,-157.363 127.636,-284.863 285.121,-284.863 157.535,0 285.172,127.5 285.172,284.863 0,157.321 -127.637,284.867 -285.172,284.867 z m 0.015,-74.953 c 116.078,0 210.18,-93.957 210.18,-209.914 0,-115.953 -94.102,-209.863 -210.18,-209.863 -116.078,0 -210.132,93.91 -210.132,209.863 0,115.957 94.054,209.914 210.132,209.914 z" /><path
         id="path26731"
         style="fill:#000000;fill-opacity:1;fill-rule:nonzero;stroke:none"
         d="m 346.445,720.73 0,-110.637 229.426,0 0,110.637 -229.426,0 z m -15.789,-27.684 -68.574,-4.273 c -3.094,-0.274 -5.824,-2.184 -6.871,-5.137 l -17.516,-46.5 c -1.328,-3.547 -2.05,-7.32 -2.05,-11.09 l 0,-43.683 c 0,-4.321 3.593,-7.864 7.964,-7.864 l 3.914,0 c 0,19.637 16.016,35.547 35.672,35.547 19.657,0 35.629,-15.91 35.629,-35.547 l 142.379,0 c 0,10.727 4.871,20.907 13.199,27.637 l -143.746,0 0,90.91 z m -27.726,-13.793 0,-39.547 -52.465,-6.183 -0.543,0 c -2.141,0 -3.914,1.773 -3.914,3.957 0,0.453 0.09,0.906 0.273,1.363 l 13.242,35.316 c 0.543,1.457 1.864,2.5 3.457,2.594 l 39.95,2.5 z m -19.735,-77.07 c -15.336,0 -27.664,-12.41 -27.664,-27.637 0,-15.363 12.328,-27.683 27.664,-27.683 15.289,0 27.711,12.32 27.711,27.683 0,15.227 -12.422,27.637 -27.711,27.637 z m 213.594,0 c -15.242,0 -27.668,-12.41 -27.668,-27.637 0,-15.363 12.426,-27.683 27.668,-27.683 15.379,0 27.711,12.32 27.711,27.683 0,15.227 -12.332,27.637 -27.711,27.637 z m 22.434,0 c 8.371,-6.731 13.238,-16.91 13.238,-27.637 l 19.707,0 0,0.043 23.703,7.867 0,19.727 -56.648,0 z" /></g></g></svg>