<?xml version="1.0" encoding="UTF-8" standalone="no"?>
<svg
   xmlns:dc="http://purl.org/dc/elements/1.1/"
   xmlns:cc="http://creativecommons.org/ns#"
   xmlns:rdf="http://www.w3.org/1999/02/22-rdf-syntax-ns#"
   xmlns:svg="http://www.w3.org/2000/svg"
   xmlns="http://www.w3.org/2000/svg"
   viewBox="0 0 1251 1601.9473"
   height="1601.9473"
   width="1251"
   xml:space="preserve"
   version="1.1"
   id="svg26276"><metadata
     id="metadata26282"><rdf:RDF><cc:Work
         rdf:about=""><dc:format>image/svg+xml</dc:format><dc:type
           rdf:resource="http://purl.org/dc/dcmitype/StillImage" /><dc:title></dc:title></cc:Work></rdf:RDF></metadata><defs
     id="defs26280" /><g
     transform="matrix(1.25,0,0,-1.25,0,1601.9473)"
     id="g26284"><g
       id="g26286"><path
         id="path26288"
         style="fill:#ffffff;fill-opacity:1;fill-rule:nonzero;stroke:none"
         d="m 47.234,1281.159 c -25.828,0 -46.832,-21.007 -46.832,-46.836 l 0,-1187.066 C 0.402,21.429 21.406,0.402 47.234,0.402 l 906.332,0 c 25.829,0 46.836,21.027 46.836,46.855 l 0,1187.066 c 0,25.829 -21.007,46.836 -46.836,46.836 l -906.332,0 z" /><path
         id="path26290"
         style="fill:#000000;fill-opacity:1;fill-rule:nonzero;stroke:none"
         d="m 48.504,12.433 c -19.942,0 -36.106,16.183 -36.106,36.105 l 0,1184.539 c 0,19.922 16.164,36.082 36.106,36.082 l 903.793,0 c 19.941,0 36.105,-16.16 36.105,-36.082 l 0,-1184.539 c 0,-19.922 -16.164,-36.105 -36.105,-36.105" /><path
         id="path26292"
         style="fill:#ffffff;fill-opacity:1;fill-rule:nonzero;stroke:none"
         d="m 48.504,28.484 c -11.066,0 -20.055,8.961 -20.055,20.054 l 0,1184.539 c 0,11.071 8.989,20.055 20.055,20.055 l 903.793,0 c 11.07,0 20.055,-8.984 20.055,-20.055 l 0,-1184.539 c 0,-11.093 -8.985,-20.054 -20.055,-20.054" /><path
         id="path26294"
         style="fill:#000000;fill-opacity:1;fill-rule:nonzero;stroke:none"
         d="M 47.234,1281.558 C 21.191,1281.558 0,1260.366 0,1234.323 L 0,47.257 C 0,21.214 21.188,-0.001 47.234,-0.001 l 906.332,0 c 26.043,0 47.235,21.215 47.235,47.258 l 0,1187.066 c 0,26.043 -21.192,47.235 -47.235,47.235 l -906.332,0 z m 0,-0.399 906.332,0 c 25.829,0 46.832,-21.007 46.832,-46.836 l 0,-1187.066 c 0,-25.828 -21.003,-46.855 -46.832,-46.855 l -906.332,0 C 21.406,0.402 0.398,21.429 0.398,47.257 l 0,1187.066 c 0,25.829 21.008,46.836 46.836,46.836 z" /><path
         id="path26296"
         style="fill:#000000;fill-opacity:1;fill-rule:nonzero;stroke:none"
         d="m 748.559,1047.171 -35.903,-9.226 c -0.82,-0.227 -1.594,-0.364 -2.414,-0.364 -5.371,0 -9.691,4.317 -9.691,9.59 0,1.957 0.637,3.82 1.683,5.363 l 70.446,105.059 70.308,-105.059 c 1.047,-1.543 1.774,-3.406 1.774,-5.363 0,-5.273 -4.414,-9.59 -9.692,-9.59 -0.82,0 -1.593,0.137 -2.414,0.364 l -35.996,9.226 0,-921.265 -48.101,0 0,921.265 z" /><path
         id="path26298"
         style="fill:#000000;fill-opacity:1;fill-rule:nonzero;stroke:none"
         d="m 476.383,1047.171 -35.996,-9.226 c -0.731,-0.227 -1.594,-0.364 -2.414,-0.364 -5.278,0 -9.602,4.317 -9.602,9.59 0,1.957 0.637,3.82 1.594,5.363 l 70.535,105.059 70.309,-105.059 c 1.046,-1.543 1.593,-3.406 1.593,-5.363 0,-5.273 -4.234,-9.59 -9.511,-9.59 -0.821,0 -1.594,0.137 -2.411,0.364 l -36.089,9.226 0,-226.609 c -14.563,13.09 -30.715,24.273 -48.008,33.457 l 0,193.152 z" /><path
         id="path26300"
         style="fill:#000000;fill-opacity:1;fill-rule:nonzero;stroke:none"
         d="m 524.398,462.909 0,-336.984 -48.007,0 0,303.574 c 17.293,9.09 33.449,20.321 48.007,33.41" /><path
         id="path26302"
         style="fill:#000000;fill-opacity:1;fill-rule:nonzero;stroke:none"
         d="m 204.203,1047.171 -35.996,-9.226 c -0.816,-0.227 -1.59,-0.364 -2.41,-0.364 -5.277,0 -9.602,4.317 -9.602,9.59 0,1.957 0.547,3.82 1.594,5.363 l 70.535,105.059 70.309,-105.059 c 1.047,-1.543 1.59,-3.406 1.59,-5.363 0,-5.273 -4.231,-9.59 -9.508,-9.59 -0.82,0 -1.594,0.137 -2.414,0.364 l -36.086,9.226 0,-193.199 c -17.293,-9.137 -33.356,-20.363 -48.012,-33.41 l 0,226.609 z" /><path
         id="path26304"
         style="fill:#000000;fill-opacity:1;fill-rule:nonzero;stroke:none"
         d="m 252.223,429.519 0,-303.617 -48.012,0 0.094,337.031 c 14.562,-13.094 30.715,-24.274 47.918,-33.414" /><path
         id="path26306"
         style="fill:#c1121c;fill-opacity:1;fill-rule:nonzero;stroke:none"
         d="m 532.434,641.722 c 0,92.781 -75.176,167.969 -168.059,167.969 -92.832,0 -168.102,-75.188 -168.102,-167.969 0,-92.781 75.27,-167.926 168.102,-167.926 92.883,0 168.059,75.145 168.059,167.926 m 60.113,0 c 0,-125.828 -102.207,-227.93 -228.172,-227.93 -126.098,0 -228.125,102.102 -228.125,227.93 0,125.875 102.027,227.93 228.125,227.93 125.965,0 228.172,-102.055 228.172,-227.93" /><path
         id="path26308"
         style="fill:#000000;fill-opacity:1;fill-rule:nonzero;stroke:none"
         d="m 498.43,616.339 -183.664,0 0,88.551 183.664,0 0,-88.551 z m -19.067,-28.457 -15.746,0 c 0,8.637 -3.824,16.727 -10.512,22.137 l 45.325,0 0,-15.821 -19.067,-6.316 z m -22.027,0 c 0,-12.23 -9.965,-22.094 -22.25,-22.094 -12.109,0 -22.074,9.864 -22.074,22.094 0,12.18 9.965,22.09 22.074,22.09 12.285,0 22.25,-9.91 22.25,-22.09 m -170.969,0 c 0,-12.23 -9.875,-22.094 -22.164,-22.094 -12.238,0 -22.023,9.864 -22.023,22.094 0,12.18 9.785,22.09 22.023,22.09 12.289,0 22.164,-9.91 22.164,-22.09 m 15.883,94.914 0,-72.777 114.996,0 c -6.691,-5.41 -10.648,-13.5 -10.648,-22.137 l -113.86,0 c 0,15.727 -12.785,28.457 -28.535,28.457 -15.699,0 -28.484,-12.73 -28.484,-28.457 l -3.188,0 c -3.457,0 -6.277,2.816 -6.277,6.363 l 0,34.911 c 0,3 0.539,6.046 1.586,8.82 l 14.062,37.277 c 0.782,2.274 3,3.91 5.457,4.09 l 54.883,3.453 0.008,0 z" /><path
         id="path26310"
         style="fill:#ffffff;fill-opacity:1;fill-rule:nonzero;stroke:none"
         d="m 280.023,640.089 -42.003,-5 c -0.18,0 -0.274,-0.047 -0.364,-0.047 -1.773,0 -3.183,1.457 -3.183,3.231 0,0.363 0.089,0.726 0.179,1.09 l 10.696,28.273 c 0.453,1.184 1.5,1.91 2.73,2.047 l 31.945,2 0,-31.594 z" /></g></g></svg>