<?xml version="1.0" encoding="UTF-8" standalone="no"?>
<svg
   xmlns:dc="http://purl.org/dc/elements/1.1/"
   xmlns:cc="http://creativecommons.org/ns#"
   xmlns:rdf="http://www.w3.org/1999/02/22-rdf-syntax-ns#"
   xmlns:svg="http://www.w3.org/2000/svg"
   xmlns="http://www.w3.org/2000/svg"
   viewBox="0 0 1251 1601.9473"
   height="1601.9473"
   width="1251"
   xml:space="preserve"
   version="1.1"
   id="svg26474"><metadata
     id="metadata26480"><rdf:RDF><cc:Work
         rdf:about=""><dc:format>image/svg+xml</dc:format><dc:type
           rdf:resource="http://purl.org/dc/dcmitype/StillImage" /><dc:title></dc:title></cc:Work></rdf:RDF></metadata><defs
     id="defs26478" /><g
     transform="matrix(1.25,0,0,-1.25,0,1601.9473)"
     id="g26482"><g
       id="g26484"><path
         id="path26486"
         style="fill:#ffffff;fill-opacity:1;fill-rule:nonzero;stroke:none"
         d="m 47.234,1281.159 c -25.828,0 -46.832,-21.007 -46.832,-46.836 l 0,-1187.066 C 0.402,21.429 21.406,0.402 47.234,0.402 l 906.332,0 c 25.829,0 46.836,21.027 46.836,46.855 l 0,1187.066 c 0,25.829 -21.007,46.836 -46.836,46.836 l -906.332,0 z" /><path
         id="path26488"
         style="fill:#000000;fill-opacity:1;fill-rule:nonzero;stroke:none"
         d="m 48.504,12.433 c -19.942,0 -36.106,16.183 -36.106,36.105 l 0,1184.539 c 0,19.922 16.164,36.082 36.106,36.082 l 903.793,0 c 19.941,0 36.105,-16.16 36.105,-36.082 l 0,-1184.539 c 0,-19.922 -16.164,-36.105 -36.105,-36.105" /><path
         id="path26490"
         style="fill:#ffffff;fill-opacity:1;fill-rule:nonzero;stroke:none"
         d="m 48.504,28.484 c -11.066,0 -20.055,8.961 -20.055,20.054 l 0,1184.539 c 0,11.071 8.989,20.055 20.055,20.055 l 903.793,0 c 11.07,0 20.055,-8.984 20.055,-20.055 l 0,-1184.539 c 0,-11.093 -8.985,-20.054 -20.055,-20.054" /><path
         id="path26492"
         style="fill:#000000;fill-opacity:1;fill-rule:nonzero;stroke:none"
         d="M 47.234,1281.558 C 21.191,1281.558 0,1260.366 0,1234.323 L 0,47.257 C 0,21.214 21.188,-0.001 47.234,-0.001 l 906.332,0 c 26.043,0 47.235,21.215 47.235,47.258 l 0,1187.066 c 0,26.043 -21.192,47.235 -47.235,47.235 l -906.332,0 z m 0,-0.399 906.332,0 c 25.829,0 46.832,-21.007 46.832,-46.836 l 0,-1187.066 c 0,-25.828 -21.003,-46.855 -46.832,-46.855 l -906.332,0 C 21.406,0.402 0.398,21.429 0.398,47.257 l 0,1187.066 c 0,25.829 21.008,46.836 46.836,46.836 z" /><path
         id="path26494"
         style="fill:#000000;fill-opacity:1;fill-rule:nonzero;stroke:none"
         d="m 836.555,1047.218 0,-921.227 -48.004,0 0,921.227 -36.035,-9.32 c -0.821,-0.18 -1.594,-0.317 -2.414,-0.317 -5.278,0 -9.598,4.317 -9.598,9.637 0,1.906 0.543,3.727 1.637,5.316 l 70.39,105.047 70.391,-105.047 c 1.137,-1.589 1.637,-3.41 1.637,-5.316 0,-5.32 -4.278,-9.637 -9.555,-9.637 -0.816,0 -1.594,0.137 -2.41,0.317 l -36.039,9.32 z" /><path
         id="path26496"
         style="fill:#000000;fill-opacity:1;fill-rule:nonzero;stroke:none"
         d="m 628.41,1047.218 0,-215.32 c -14.195,17.32 -30.305,33 -48.004,46.726 l 0,168.594 -36.039,-9.32 c -0.773,-0.18 -1.59,-0.317 -2.41,-0.317 -5.277,0 -9.602,4.317 -9.602,9.637 0,1.906 0.594,3.727 1.637,5.316 l 70.391,105.047 70.437,-105.047 c 1.094,-1.589 1.641,-3.41 1.641,-5.316 0,-5.32 -4.277,-9.637 -9.602,-9.637 -0.82,0 -1.593,0.137 -2.414,0.317 l -36.035,9.32 z" /><path
         id="path26498"
         style="fill:#000000;fill-opacity:1;fill-rule:nonzero;stroke:none"
         d="m 580.387,404.948 c 17.699,13.727 33.808,29.411 48.004,46.727 l 0,-326 -47.821,0.094 c 0,0 -0.183,0.226 -0.183,279.179" /><path
         id="path26500"
         style="fill:#000000;fill-opacity:1;fill-rule:nonzero;stroke:none"
         d="m 420.309,1047.218 -0.043,-106.5 c -8.012,0.633 -15.973,0.953 -23.981,0.953 -7.965,0 -15.973,-0.32 -23.89,-0.953 l -0.09,106.5 -36.035,-9.32 c -0.821,-0.18 -1.641,-0.317 -2.368,-0.317 -5.324,0 -9.691,4.317 -9.691,9.637 0,1.906 0.637,3.727 1.684,5.316 l 70.39,105.047 70.391,-105.047 c 1.136,-1.589 1.683,-3.41 1.683,-5.316 0,-5.32 -4.277,-9.637 -9.601,-9.637 -0.82,0 -1.594,0.137 -2.41,0.317 l -36.039,9.32 z" /><path
         id="path26502"
         style="fill:#000000;fill-opacity:1;fill-rule:nonzero;stroke:none"
         d="m 372.379,342.902 c 7.961,-0.684 15.926,-0.957 23.933,-0.957 7.961,0 15.969,0.273 23.934,0.957 l 0,-217.047 -48.051,0 c 0,0 0.09,0.136 0.184,217.047" /><path
         id="path26504"
         style="fill:#000000;fill-opacity:1;fill-rule:nonzero;stroke:none"
         d="m 212.199,1047.218 0,-168.594 c -17.703,-13.726 -33.808,-29.406 -48.008,-46.726 l 0,215.32 -36.035,-9.32 c -0.82,-0.18 -1.594,-0.317 -2.41,-0.317 -5.324,0 -9.601,4.317 -9.601,9.637 0,1.906 0.589,3.727 1.636,5.316 l 70.348,105.047 70.48,-105.047 c 1.047,-1.589 1.594,-3.41 1.594,-5.316 0,-5.32 -4.277,-9.637 -9.558,-9.637 -0.817,0 -1.637,0.137 -2.411,0.317 l -36.035,9.32 z" /><path
         id="path26506"
         style="fill:#000000;fill-opacity:1;fill-rule:nonzero;stroke:none"
         d="m 164.184,451.679 c 14.199,-17.32 30.304,-33 48.004,-46.731 l 0,-279.406 -47.868,-0.32 c 0,0 -0.136,0.773 -0.136,326.457" /><path
         id="path26508"
         style="fill:#c1121c;fill-opacity:1;fill-rule:nonzero;stroke:none"
         d="m 396.285,926.652 c -157.484,0 -285.203,-127.543 -285.203,-284.86 0,-157.32 127.719,-284.867 285.203,-284.867 157.481,0 285.203,127.547 285.203,284.867 0,157.317 -127.722,284.86 -285.203,284.86 z m 0.027,-74.954 c 116.028,0 210.083,-94 210.083,-209.906 0,-115.91 -94.055,-209.91 -210.083,-209.91 -116.074,0 -210.171,94 -210.171,209.91 0,115.906 94.097,209.906 210.171,209.906 z" /><path
         id="path26510"
         style="fill:#000000;fill-opacity:1;fill-rule:nonzero;stroke:none"
         d="m 563.891,610.05 -229.422,0 0,110.68 229.422,0 0,-110.68 z m -23.707,-35.547 -19.75,0 c 0,10.774 -4.868,20.91 -13.286,27.684 l 56.743,0 0,-19.727 -23.707,-7.91 0,-0.047 z m -27.711,0 c 0,-15.273 -12.379,-27.68 -27.664,-27.68 -15.289,0 -27.711,12.407 -27.711,27.68 0,15.317 12.422,27.684 27.711,27.684 15.285,0 27.664,-12.367 27.664,-27.684 m -213.586,0 c 0,-15.273 -12.375,-27.68 -27.711,-27.68 -15.242,0 -27.664,12.407 -27.664,27.68 0,15.317 12.422,27.684 27.664,27.684 15.336,0 27.711,-12.367 27.711,-27.684 m 19.746,118.547 0,-90.91 143.785,0 c -8.371,-6.774 -13.238,-16.91 -13.238,-27.684 l -142.375,0 c 0,19.637 -15.973,35.594 -35.629,35.594 -19.656,0 -35.582,-15.957 -35.582,-35.594 l -3.957,0 c -4.414,0 -7.965,3.547 -7.965,7.91 l 0,43.637 c 0,3.817 0.683,7.59 2.008,11.09 l 17.472,46.547 c 1.086,2.91 3.871,4.906 6.965,5.09 l 68.524,4.273 -0.008,0.047 z" /><path
         id="path26512"
         style="fill:#ffffff;fill-opacity:1;fill-rule:nonzero;stroke:none"
         d="m 290.938,639.71 -52.508,-6.23 -0.457,0 c -2.184,0 -3.957,1.773 -3.957,3.957 0,0.453 0.046,0.953 0.226,1.363 l 13.285,35.363 c 0.547,1.453 1.868,2.453 3.461,2.547 l 39.95,2.5 0,-39.5 z" /></g></g></svg>