<?xml version="1.0" encoding="UTF-8" standalone="no"?>
<svg
   xmlns:dc="http://purl.org/dc/elements/1.1/"
   xmlns:cc="http://creativecommons.org/ns#"
   xmlns:rdf="http://www.w3.org/1999/02/22-rdf-syntax-ns#"
   xmlns:svg="http://www.w3.org/2000/svg"
   xmlns="http://www.w3.org/2000/svg"
   viewBox="0 0 1251 1601.9473"
   height="1601.9473"
   width="1251"
   xml:space="preserve"
   version="1.1"
   id="svg4934"><metadata
     id="metadata4940"><rdf:RDF><cc:Work
         rdf:about=""><dc:format>image/svg+xml</dc:format><dc:type
           rdf:resource="http://purl.org/dc/dcmitype/StillImage" /><dc:title></dc:title></cc:Work></rdf:RDF></metadata><defs
     id="defs4938" /><g
     transform="matrix(1.25,0,0,-1.25,0,1601.9473)"
     id="g4942"><g
       id="g4944"><path
         id="path4946"
         style="fill:#ffffff;fill-opacity:1;fill-rule:nonzero;stroke:none"
         d="m 47.234,1281.159 c -25.828,0 -46.832,-21.007 -46.832,-46.836 l 0,-1187.066 C 0.402,21.429 21.406,0.402 47.234,0.402 l 906.332,0 c 25.829,0 46.836,21.027 46.836,46.855 l 0,1187.066 c 0,25.829 -21.007,46.836 -46.836,46.836 l -906.332,0 z" /><path
         id="path4948"
         style="fill:#000000;fill-opacity:1;fill-rule:nonzero;stroke:none"
         d="m 48.504,12.433 c -19.942,0 -36.106,16.183 -36.106,36.105 l 0,1184.539 c 0,19.922 16.164,36.082 36.106,36.082 l 903.793,0 c 19.941,0 36.105,-16.16 36.105,-36.082 l 0,-1184.539 c 0,-19.922 -16.164,-36.105 -36.105,-36.105" /><path
         id="path4950"
         style="fill:#ffffff;fill-opacity:1;fill-rule:nonzero;stroke:none"
         d="m 48.504,28.484 c -11.066,0 -20.055,8.961 -20.055,20.054 l 0,1184.539 c 0,11.071 8.989,20.055 20.055,20.055 l 903.793,0 c 11.07,0 20.055,-8.984 20.055,-20.055 l 0,-1184.539 c 0,-11.093 -8.985,-20.054 -20.055,-20.054" /><path
         id="path4952"
         style="fill:#000000;fill-opacity:1;fill-rule:nonzero;stroke:none"
         d="M 47.234,1281.558 C 21.191,1281.558 0,1260.366 0,1234.323 L 0,47.257 C 0,21.214 21.188,-0.001 47.234,-0.001 l 906.332,0 c 26.043,0 47.235,21.215 47.235,47.258 l 0,1187.066 c 0,26.043 -21.192,47.235 -47.235,47.235 l -906.332,0 z m 0,-0.399 906.332,0 c 25.829,0 46.832,-21.007 46.832,-46.836 l 0,-1187.066 c 0,-25.828 -21.003,-46.855 -46.832,-46.855 l -906.332,0 C 21.406,0.402 0.398,21.429 0.398,47.257 l 0,1187.066 c 0,25.829 21.008,46.836 46.836,46.836 z" /><path
         id="path4954"
         style="fill:#000000;fill-opacity:1;fill-rule:nonzero;stroke:none"
         d="m 500.82,1045.812 -36.035,-9.321 c -5.187,-1.277 -10.375,1.774 -11.742,6.957 -0.684,2.586 -0.184,5.407 1.367,7.723 l 70.395,105.008 70.39,-105.008 c 2.957,-4.457 1.778,-10.406 -2.59,-13.316 -2.277,-1.5 -5.097,-2.043 -7.785,-1.364 l -35.992,9.321 0,-138.082 c -15.969,1.953 -32.078,1.953 -48.008,0 l 0,138.082 z" /><path
         id="path4956"
         style="fill:#000000;fill-opacity:1;fill-rule:nonzero;stroke:none"
         d="m 548.828,266.995 -48.008,0 0,251.856 c 15.93,-2 32.039,-2 48.008,0 l 0,-251.856 z" /><path
         id="path4958"
         style="fill:#154889;fill-opacity:1;fill-rule:nonzero;stroke:none"
         d="m 708.922,713.277 c 0,-101.551 -82.453,-183.914 -184.11,-183.914 -101.703,0 -184.156,82.363 -184.156,183.914 0,101.593 82.453,183.914 184.156,183.914 101.657,0 184.11,-82.321 184.11,-183.914" /><path
         id="path4960"
         style="fill:#ffffff;fill-opacity:1;fill-rule:nonzero;stroke:none"
         d="m 409.832,706.331 0,103.731 103.84,0 0,-27.637 -77.902,0 0,-43.684 c 21.753,17.137 53.332,13.5 70.531,-8.183 7.008,-8.863 10.832,-19.863 10.832,-31.137 l 0,-29.41 c 0,-30.5 -24.852,-55.273 -55.379,-55.273 -28.578,0 -52.516,21.726 -55.152,50.136 l 27.941,0 c 2.863,-15.047 17.383,-24.863 32.352,-21.953 13.058,2.453 22.523,13.863 22.523,27.09 l 0,24.227 c 0,15.32 -12.375,27.64 -27.664,27.64 -10.602,0 -20.297,-6 -24.895,-15.547 l -27.027,0 z" /><path
         id="path4962"
         style="fill:#ffffff;fill-opacity:1;fill-rule:nonzero;stroke:none"
         d="m 537.887,670.034 0,86.457 c 0,30.547 24.801,55.321 55.332,55.321 30.625,0 55.422,-24.774 55.422,-55.321 l 0,-86.457 c 0,-30.546 -24.797,-55.277 -55.422,-55.277 -30.531,0 -55.332,24.731 -55.332,55.277 m 27.668,0 c 0,-15.23 12.375,-27.683 27.664,-27.683 15.336,0 27.711,12.453 27.711,27.683 l 0,86.457 c 0,15.274 -12.375,27.637 -27.711,27.637 -15.289,0 -27.664,-12.363 -27.664,-27.637 l 0,-86.457 z" /><path
         id="path4964"
         style="fill:#000000;fill-opacity:1;fill-rule:nonzero;stroke:none"
         d="m 763.203,1156.175 -70.394,-105 c -1.547,-2.32 -2.047,-5.141 -1.368,-7.727 1.368,-5.183 6.555,-8.23 11.743,-6.957 l 36.039,9.317 0,-778.813 48.004,0 0,778.813 35.996,-9.317 c 2.683,-0.679 5.504,-0.136 7.781,1.364 4.367,2.91 5.551,8.863 2.594,13.32 l -70.395,105 z" /><path
         id="path4966"
         style="fill:#000000;fill-opacity:1;fill-rule:nonzero;stroke:none"
         d="m 237.633,125.378 -70.395,105.004 c -1.547,2.32 -2.047,5.137 -1.367,7.727 1.367,5.183 6.555,8.23 11.742,6.957 l 36.039,-9.321 0,778.817 48.004,0 0,-778.817 35.996,9.321 c 2.684,0.679 5.504,0.136 7.782,-1.364 4.367,-2.91 5.55,-8.863 2.593,-13.32 L 237.633,125.378 Z" /></g></g></svg>