<?xml version="1.0" encoding="UTF-8" standalone="no"?>
<svg
   xmlns:dc="http://purl.org/dc/elements/1.1/"
   xmlns:cc="http://creativecommons.org/ns#"
   xmlns:rdf="http://www.w3.org/1999/02/22-rdf-syntax-ns#"
   xmlns:svg="http://www.w3.org/2000/svg"
   xmlns="http://www.w3.org/2000/svg"
   viewBox="0 0 1251 1601.9473"
   height="1601.9473"
   width="1251"
   xml:space="preserve"
   version="1.1"
   id="svg9498"><metadata
     id="metadata9504"><rdf:RDF><cc:Work
         rdf:about=""><dc:format>image/svg+xml</dc:format><dc:type
           rdf:resource="http://purl.org/dc/dcmitype/StillImage" /><dc:title></dc:title></cc:Work></rdf:RDF></metadata><defs
     id="defs9502" /><g
     transform="matrix(1.25,0,0,-1.25,0,1601.9473)"
     id="g9506"><g
       id="g9508"><path
         id="path9510"
         style="fill:#ffffff;fill-opacity:1;fill-rule:nonzero;stroke:none"
         d="m 47.234,1281.159 c -25.828,0 -46.832,-21.007 -46.832,-46.836 l 0,-1187.066 C 0.402,21.429 21.406,0.402 47.234,0.402 l 906.332,0 c 25.829,0 46.836,21.027 46.836,46.855 l 0,1187.066 c 0,25.829 -21.007,46.836 -46.836,46.836 l -906.332,0 z" /><path
         id="path9512"
         style="fill:#000000;fill-opacity:1;fill-rule:nonzero;stroke:none"
         d="m 48.504,12.433 c -19.942,0 -36.106,16.183 -36.106,36.105 l 0,1184.539 c 0,19.922 16.164,36.082 36.106,36.082 l 903.793,0 c 19.941,0 36.105,-16.16 36.105,-36.082 l 0,-1184.539 c 0,-19.922 -16.164,-36.105 -36.105,-36.105" /><path
         id="path9514"
         style="fill:#ffffff;fill-opacity:1;fill-rule:nonzero;stroke:none"
         d="m 48.504,28.484 c -11.066,0 -20.055,8.961 -20.055,20.054 l 0,1184.539 c 0,11.071 8.989,20.055 20.055,20.055 l 903.793,0 c 11.07,0 20.055,-8.984 20.055,-20.055 l 0,-1184.539 c 0,-11.093 -8.985,-20.054 -20.055,-20.054" /><path
         id="path9516"
         style="fill:#000000;fill-opacity:1;fill-rule:nonzero;stroke:none"
         d="M 47.234,1281.558 C 21.191,1281.558 0,1260.366 0,1234.323 L 0,47.257 C 0,21.214 21.188,-0.001 47.234,-0.001 l 906.332,0 c 26.043,0 47.235,21.215 47.235,47.258 l 0,1187.066 c 0,26.043 -21.192,47.235 -47.235,47.235 l -906.332,0 z m 0,-0.399 906.332,0 c 25.829,0 46.832,-21.007 46.832,-46.836 l 0,-1187.066 c 0,-25.828 -21.003,-46.855 -46.832,-46.855 l -906.332,0 C 21.406,0.402 0.398,21.429 0.398,47.257 l 0,1187.066 c 0,25.829 21.008,46.836 46.836,46.836 z" /><path
         id="path9518"
         style="fill:#000000;fill-opacity:1;fill-rule:nonzero;stroke:none"
         d="m 795.66,697.14 32.035,18.894 c 2.914,1.68 4.688,4.86 4.688,8.219 0,4.586 -3.231,8.539 -7.692,9.403 l -124.136,24.523 24.527,-123.898 c 0.91,-4.497 4.867,-7.723 9.418,-7.723 3.414,0 6.555,1.773 8.238,4.68 l 18.93,31.972 36.859,-36.742 c 9.008,-8.992 14.063,-21.211 14.063,-33.926 l 0,-465.582 48.051,0 0,465.582 c 0,25.434 -10.102,49.821 -28.121,67.809 l -36.86,36.789 z" /><path
         id="path9520"
         style="fill:#000000;fill-opacity:1;fill-rule:nonzero;stroke:none"
         d="m 652.488,1047.406 36.043,-9.313 c 0.817,-0.184 1.594,-0.273 2.41,-0.273 5.325,0 9.649,4.316 9.649,9.586 0,1.906 -0.637,3.722 -1.684,5.312 l -70.398,104.961 -70.442,-104.961 c -1.046,-1.59 -1.64,-3.406 -1.64,-5.312 0,-5.27 4.324,-9.586 9.648,-9.586 0.774,0 1.594,0.089 2.367,0.273 l 36.039,9.313 0,-920.446 48.008,0 0,920.446 z" /><path
         id="path9522"
         style="fill:#000000;fill-opacity:1;fill-rule:nonzero;stroke:none"
         d="m 444.391,1047.406 35.996,-9.313 c 0.773,-0.184 1.593,-0.273 2.414,-0.273 5.277,0 9.601,4.316 9.601,9.586 0,1.906 -0.593,3.722 -1.64,5.312 l -70.399,104.961 -70.441,-104.961 c -1,-1.59 -1.637,-3.406 -1.637,-5.312 0,-5.27 4.32,-9.586 9.602,-9.586 0.863,0 1.636,0.089 2.41,0.273 l 36.043,9.313 0,-920.446 48.051,0 0,920.446 z" /><path
         id="path9524"
         style="fill:#000000;fill-opacity:1;fill-rule:nonzero;stroke:none"
         d="m 236.223,1047.406 36.039,-9.313 c 0.773,-0.184 1.593,-0.273 2.414,-0.273 5.23,0 9.601,4.316 9.601,9.586 0,1.906 -0.593,3.722 -1.64,5.312 l -70.399,104.961 -70.441,-104.961 c -1.047,-1.59 -1.637,-3.406 -1.637,-5.312 0,-5.27 4.32,-9.586 9.602,-9.586 0.816,0 1.636,0.089 2.41,0.273 l 36.043,9.313 0,-920.446 48.008,0 0,920.446 z" /></g></g></svg>