<?xml version="1.0" encoding="UTF-8" standalone="no"?>
<svg
   xmlns:dc="http://purl.org/dc/elements/1.1/"
   xmlns:cc="http://creativecommons.org/ns#"
   xmlns:rdf="http://www.w3.org/1999/02/22-rdf-syntax-ns#"
   xmlns:svg="http://www.w3.org/2000/svg"
   xmlns="http://www.w3.org/2000/svg"
   viewBox="0 0 1251 1601.9473"
   height="1601.9473"
   width="1251"
   xml:space="preserve"
   version="1.1"
   id="svg10758"><metadata
     id="metadata10764"><rdf:RDF><cc:Work
         rdf:about=""><dc:format>image/svg+xml</dc:format><dc:type
           rdf:resource="http://purl.org/dc/dcmitype/StillImage" /><dc:title></dc:title></cc:Work></rdf:RDF></metadata><defs
     id="defs10762" /><g
     transform="matrix(1.25,0,0,-1.25,0,1601.9473)"
     id="g10766"><g
       id="g10768"><path
         id="path10770"
         style="fill:#ffffff;fill-opacity:1;fill-rule:nonzero;stroke:none"
         d="m 47.234,1281.159 c -25.828,0 -46.832,-21.007 -46.832,-46.836 l 0,-1187.066 C 0.402,21.429 21.406,0.402 47.234,0.402 l 906.332,0 c 25.829,0 46.836,21.027 46.836,46.855 l 0,1187.066 c 0,25.829 -21.007,46.836 -46.836,46.836 l -906.332,0 z" /><path
         id="path10772"
         style="fill:#000000;fill-opacity:1;fill-rule:nonzero;stroke:none"
         d="m 48.504,12.433 c -19.942,0 -36.106,16.183 -36.106,36.105 l 0,1184.539 c 0,19.922 16.164,36.082 36.106,36.082 l 903.793,0 c 19.941,0 36.105,-16.16 36.105,-36.082 l 0,-1184.539 c 0,-19.922 -16.164,-36.105 -36.105,-36.105" /><path
         id="path10774"
         style="fill:#ffffff;fill-opacity:1;fill-rule:nonzero;stroke:none"
         d="m 48.504,28.484 c -11.066,0 -20.055,8.961 -20.055,20.054 l 0,1184.539 c 0,11.071 8.989,20.055 20.055,20.055 l 903.793,0 c 11.07,0 20.055,-8.984 20.055,-20.055 l 0,-1184.539 c 0,-11.093 -8.985,-20.054 -20.055,-20.054" /><path
         id="path10776"
         style="fill:#000000;fill-opacity:1;fill-rule:nonzero;stroke:none"
         d="M 47.234,1281.558 C 21.191,1281.558 0,1260.366 0,1234.323 L 0,47.257 C 0,21.214 21.188,-0.001 47.234,-0.001 l 906.332,0 c 26.043,0 47.235,21.215 47.235,47.258 l 0,1187.066 c 0,26.043 -21.192,47.235 -47.235,47.235 l -906.332,0 z m 0,-0.399 906.332,0 c 25.829,0 46.832,-21.007 46.832,-46.836 l 0,-1187.066 c 0,-25.828 -21.003,-46.855 -46.832,-46.855 l -906.332,0 C 21.406,0.402 0.398,21.429 0.398,47.257 l 0,1187.066 c 0,25.829 21.008,46.836 46.836,46.836 z" /><path
         id="path10778"
         style="fill:#000000;fill-opacity:1;fill-rule:nonzero;stroke:none"
         d="m 205.152,695.597 -32.035,18.894 c -2.91,1.68 -4.687,4.86 -4.687,8.219 0,4.586 3.23,8.539 7.691,9.403 l 124.133,24.523 -24.527,-123.895 c -0.911,-4.496 -4.868,-7.722 -9.418,-7.722 -3.414,0 -6.551,1.769 -8.235,4.679 l -18.929,31.973 -36.86,-36.742 c -9.008,-8.992 -14.058,-21.211 -14.058,-33.926 l 0,-465.566 -48.055,0 0,465.566 c 0,25.434 10.101,49.82 28.121,67.805 l 36.859,36.789 z" /><path
         id="path10780"
         style="fill:#000000;fill-opacity:1;fill-rule:nonzero;stroke:none"
         d="m 348.32,1045.847 -36.039,-9.309 c -0.816,-0.183 -1.59,-0.273 -2.41,-0.273 -5.324,0 -9.648,4.316 -9.648,9.582 0,1.91 0.636,3.726 1.683,5.316 l 70.395,104.957 70.441,-104.957 c 1.047,-1.59 1.637,-3.406 1.637,-5.316 0,-5.266 -4.324,-9.582 -9.645,-9.582 -0.777,0 -1.593,0.09 -2.367,0.273 l -36.039,9.309 0,-920.41 -48.008,0 0,920.41 z" /><path
         id="path10782"
         style="fill:#000000;fill-opacity:1;fill-rule:nonzero;stroke:none"
         d="m 556.406,1045.847 -35.992,-9.309 c -0.773,-0.183 -1.594,-0.273 -2.41,-0.273 -5.281,0 -9.602,4.316 -9.602,9.582 0,1.91 0.59,3.726 1.637,5.316 l 70.395,104.957 70.437,-104.957 c 1.004,-1.59 1.641,-3.406 1.641,-5.316 0,-5.266 -4.324,-9.582 -9.602,-9.582 -0.863,0 -1.637,0.09 -2.41,0.273 l -36.039,9.309 0,-920.41 -48.055,0 0,920.41 z" /><path
         id="path10784"
         style="fill:#000000;fill-opacity:1;fill-rule:nonzero;stroke:none"
         d="m 764.57,1045.847 -36.039,-9.309 c -0.773,-0.183 -1.593,-0.273 -2.41,-0.273 -5.234,0 -9.601,4.316 -9.601,9.582 0,1.91 0.589,3.726 1.636,5.316 l 70.395,104.957 70.437,-104.957 c 1.047,-1.59 1.641,-3.406 1.641,-5.316 0,-5.266 -4.324,-9.582 -9.602,-9.582 -0.82,0 -1.636,0.09 -2.41,0.273 l -36.039,9.309 0,-920.41 -48.008,0 0,920.41 z" /></g></g></svg>