<?xml version="1.0" encoding="UTF-8" standalone="no"?>
<svg
   xmlns:dc="http://purl.org/dc/elements/1.1/"
   xmlns:cc="http://creativecommons.org/ns#"
   xmlns:rdf="http://www.w3.org/1999/02/22-rdf-syntax-ns#"
   xmlns:svg="http://www.w3.org/2000/svg"
   xmlns="http://www.w3.org/2000/svg"
   viewBox="0 0 1251 1601.9473"
   height="1601.9473"
   width="1251"
   xml:space="preserve"
   version="1.1"
   id="svg27629"><metadata
     id="metadata27635"><rdf:RDF><cc:Work
         rdf:about=""><dc:format>image/svg+xml</dc:format><dc:type
           rdf:resource="http://purl.org/dc/dcmitype/StillImage" /><dc:title></dc:title></cc:Work></rdf:RDF></metadata><defs
     id="defs27633" /><g
     transform="matrix(1.25,0,0,-1.25,0,1601.9473)"
     id="g27637"><g
       id="g27639"><path
         id="path27641"
         style="fill:#ffffff;fill-opacity:1;fill-rule:nonzero;stroke:none"
         d="m 47.234,1281.159 c -25.828,0 -46.832,-21.007 -46.832,-46.836 l 0,-1187.066 C 0.402,21.429 21.406,0.402 47.234,0.402 l 906.332,0 c 25.829,0 46.836,21.027 46.836,46.855 l 0,1187.066 c 0,25.829 -21.007,46.836 -46.836,46.836 l -906.332,0 z" /><path
         id="path27643"
         style="fill:#000000;fill-opacity:1;fill-rule:nonzero;stroke:none"
         d="m 48.504,12.433 c -19.942,0 -36.106,16.183 -36.106,36.105 l 0,1184.539 c 0,19.922 16.164,36.082 36.106,36.082 l 903.793,0 c 19.941,0 36.105,-16.16 36.105,-36.082 l 0,-1184.539 c 0,-19.922 -16.164,-36.105 -36.105,-36.105" /><path
         id="path27645"
         style="fill:#ffffff;fill-opacity:1;fill-rule:nonzero;stroke:none"
         d="m 48.504,28.484 c -11.066,0 -20.055,8.961 -20.055,20.054 l 0,1184.539 c 0,11.071 8.989,20.055 20.055,20.055 l 903.793,0 c 11.07,0 20.055,-8.984 20.055,-20.055 l 0,-1184.539 c 0,-11.093 -8.985,-20.054 -20.055,-20.054" /><path
         id="path27647"
         style="fill:#000000;fill-opacity:1;fill-rule:nonzero;stroke:none"
         d="M 47.234,1281.558 C 21.191,1281.558 0,1260.366 0,1234.323 L 0,47.257 C 0,21.214 21.188,-0.001 47.234,-0.001 l 906.332,0 c 26.043,0 47.235,21.215 47.235,47.258 l 0,1187.066 c 0,26.043 -21.192,47.235 -47.235,47.235 l -906.332,0 z m 0,-0.399 906.332,0 c 25.829,0 46.832,-21.007 46.832,-46.836 l 0,-1187.066 c 0,-25.828 -21.003,-46.855 -46.832,-46.855 l -906.332,0 C 21.406,0.402 0.398,21.429 0.398,47.257 l 0,1187.066 c 0,25.829 21.008,46.836 46.836,46.836 z" /><path
         id="path27649"
         style="fill:#000000;fill-opacity:1;fill-rule:nonzero;stroke:none"
         d="m 388.336,1047.198 0,-921.218 -48.047,0 0,921.218 -36.039,-9.32 c -5.141,-1.273 -10.375,1.774 -11.691,6.91 -0.684,2.637 -0.184,5.453 1.316,7.727 l 70.437,105 70.438,-105 c 2.957,-4.41 1.727,-10.363 -2.641,-13.317 -2.273,-1.5 -5.093,-2 -7.734,-1.32 l -36.039,9.32 z" /><path
         id="path27651"
         style="fill:#000000;fill-opacity:1;fill-rule:nonzero;stroke:none"
         d="M 579.457,696.648 680.379,595.827 c 17.973,-17.953 28.164,-42.406 28.164,-67.816 l 0,-402.039 -48.047,0 0,402.039 c 0,12.727 -5.051,24.953 -14.105,33.953 l -100.879,100.774 -18.93,-32 c -2.684,-4.59 -8.555,-6.09 -13.148,-3.411 -2.321,1.411 -3.957,3.731 -4.504,6.364 l -24.571,124.047 124.172,-24.547 c 5.188,-1 8.555,-6.09 7.555,-11.274 -0.547,-2.679 -2.184,-5 -4.551,-6.406 l -32.078,-18.863 z" /></g></g></svg>