<?xml version="1.0" encoding="UTF-8" standalone="no"?>
<svg
   xmlns:dc="http://purl.org/dc/elements/1.1/"
   xmlns:cc="http://creativecommons.org/ns#"
   xmlns:rdf="http://www.w3.org/1999/02/22-rdf-syntax-ns#"
   xmlns:svg="http://www.w3.org/2000/svg"
   xmlns="http://www.w3.org/2000/svg"
   viewBox="0 0 1251 1601.9473"
   height="1601.9473"
   width="1251"
   xml:space="preserve"
   version="1.1"
   id="svg9807"><metadata
     id="metadata9813"><rdf:RDF><cc:Work
         rdf:about=""><dc:format>image/svg+xml</dc:format><dc:type
           rdf:resource="http://purl.org/dc/dcmitype/StillImage" /><dc:title></dc:title></cc:Work></rdf:RDF></metadata><defs
     id="defs9811" /><g
     transform="matrix(1.25,0,0,-1.25,0,1601.9473)"
     id="g9815"><g
       id="g9817"><path
         id="path9819"
         style="fill:#ffffff;fill-opacity:1;fill-rule:nonzero;stroke:none"
         d="m 47.234,1281.159 c -25.828,0 -46.832,-21.007 -46.832,-46.836 l 0,-1187.066 C 0.402,21.429 21.406,0.402 47.234,0.402 l 906.332,0 c 25.829,0 46.836,21.027 46.836,46.855 l 0,1187.066 c 0,25.829 -21.007,46.836 -46.836,46.836 l -906.332,0 z" /><path
         id="path9821"
         style="fill:#000000;fill-opacity:1;fill-rule:nonzero;stroke:none"
         d="m 48.504,12.433 c -19.942,0 -36.106,16.183 -36.106,36.105 l 0,1184.539 c 0,19.922 16.164,36.082 36.106,36.082 l 903.793,0 c 19.941,0 36.105,-16.16 36.105,-36.082 l 0,-1184.539 c 0,-19.922 -16.164,-36.105 -36.105,-36.105" /><path
         id="path9823"
         style="fill:#ffffff;fill-opacity:1;fill-rule:nonzero;stroke:none"
         d="m 48.504,28.484 c -11.066,0 -20.055,8.961 -20.055,20.054 l 0,1184.539 c 0,11.071 8.989,20.055 20.055,20.055 l 903.793,0 c 11.07,0 20.055,-8.984 20.055,-20.055 l 0,-1184.539 c 0,-11.093 -8.985,-20.054 -20.055,-20.054" /><path
         id="path9825"
         style="fill:#000000;fill-opacity:1;fill-rule:nonzero;stroke:none"
         d="M 47.234,1281.558 C 21.191,1281.558 0,1260.366 0,1234.323 L 0,47.257 C 0,21.214 21.188,-0.001 47.234,-0.001 l 906.332,0 c 26.043,0 47.235,21.215 47.235,47.258 l 0,1187.066 c 0,26.043 -21.192,47.235 -47.235,47.235 l -906.332,0 z m 0,-0.399 906.332,0 c 25.829,0 46.832,-21.007 46.832,-46.836 l 0,-1187.066 c 0,-25.828 -21.003,-46.855 -46.832,-46.855 l -906.332,0 C 21.406,0.402 0.398,21.429 0.398,47.257 l 0,1187.066 c 0,25.829 21.008,46.836 46.836,46.836 z" /><path
         id="path9827"
         style="fill:#000000;fill-opacity:1;fill-rule:nonzero;stroke:none"
         d="m 839.723,697.097 32.039,18.898 c 2.957,1.727 4.687,4.86 4.687,8.219 0,4.59 -3.187,8.539 -7.691,9.449 l -124.196,24.481 24.575,-123.91 c 0.91,-4.496 4.824,-7.719 9.468,-7.719 3.368,0 6.551,1.769 8.235,4.676 l 18.887,32.023 36.863,-36.793 c 9.012,-8.992 14.062,-21.211 14.062,-33.93 l 0,-465.617 48.012,0 0,465.617 c 0,25.438 -10.102,49.829 -28.125,67.817 l -36.816,36.789 z" /><path
         id="path9829"
         style="fill:#000000;fill-opacity:1;fill-rule:nonzero;stroke:none"
         d="m 720.531,1047.386 36.043,-9.266 c 0.821,-0.226 1.594,-0.316 2.41,-0.316 5.325,0 9.649,4.312 9.649,9.582 0,1.906 -0.637,3.727 -1.684,5.359 l -70.355,104.926 -70.496,-104.926 c -1.047,-1.632 -1.59,-3.453 -1.59,-5.359 0,-5.27 4.277,-9.582 9.601,-9.582 0.774,0 1.594,0.09 2.411,0.316 l 36,9.266 0,-920.516 48.011,0 0,920.516 z" /><path
         id="path9831"
         style="fill:#000000;fill-opacity:1;fill-rule:nonzero;stroke:none"
         d="m 544.473,1047.386 36.043,-9.266 c 0.683,-0.226 1.593,-0.316 2.367,-0.316 5.234,0 9.601,4.312 9.601,9.582 0,1.906 -0.543,3.727 -1.589,5.359 l -70.45,104.926 -70.492,-104.926 c -1.047,-1.632 -1.594,-3.453 -1.594,-5.359 0,-5.27 4.368,-9.582 9.602,-9.582 0.773,0 1.684,0.09 2.367,0.316 l 36.043,9.266 0,-920.516 48.102,0 0,920.516 z" /><path
         id="path9833"
         style="fill:#000000;fill-opacity:1;fill-rule:nonzero;stroke:none"
         d="m 368.309,1047.386 36.043,-9.266 c 0.82,-0.226 1.593,-0.316 2.41,-0.316 5.281,0 9.558,4.312 9.558,9.582 0,1.906 -0.547,3.727 -1.593,5.359 l -70.45,104.926 -70.402,-104.926 c -1.047,-1.632 -1.684,-3.453 -1.684,-5.359 0,-5.27 4.371,-9.582 9.696,-9.582 0.773,0 1.593,0.09 2.41,0.316 l 36,9.266 0,-920.516 48.012,0 0,920.516 z" /><path
         id="path9835"
         style="fill:#000000;fill-opacity:1;fill-rule:nonzero;stroke:none"
         d="m 192.16,1047.386 36.043,-9.266 c 0.774,-0.226 1.594,-0.316 2.367,-0.316 5.371,0 9.696,4.312 9.696,9.582 0,1.906 -0.641,3.727 -1.688,5.359 L 168.223,1157.671 97.73,1052.745 c -1.046,-1.632 -1.593,-3.453 -1.593,-5.359 0,-5.27 4.277,-9.582 9.601,-9.582 0.774,0 1.594,0.09 2.367,0.316 l 36.043,9.266 0,-920.516 48.012,0 0,920.516 z" /></g></g></svg>