<?xml version="1.0" encoding="UTF-8" standalone="no"?>
<svg
   xmlns:dc="http://purl.org/dc/elements/1.1/"
   xmlns:cc="http://creativecommons.org/ns#"
   xmlns:rdf="http://www.w3.org/1999/02/22-rdf-syntax-ns#"
   xmlns:svg="http://www.w3.org/2000/svg"
   xmlns="http://www.w3.org/2000/svg"
   viewBox="0 0 1251 1601.9473"
   height="1601.9473"
   width="1251"
   xml:space="preserve"
   version="1.1"
   id="svg10470"><metadata
     id="metadata10476"><rdf:RDF><cc:Work
         rdf:about=""><dc:format>image/svg+xml</dc:format><dc:type
           rdf:resource="http://purl.org/dc/dcmitype/StillImage" /><dc:title></dc:title></cc:Work></rdf:RDF></metadata><defs
     id="defs10474" /><g
     transform="matrix(1.25,0,0,-1.25,0,1601.9473)"
     id="g10478"><g
       id="g10480"><path
         id="path10482"
         style="fill:#ffffff;fill-opacity:1;fill-rule:nonzero;stroke:none"
         d="m 47.234,1281.159 c -25.828,0 -46.832,-21.007 -46.832,-46.836 l 0,-1187.066 C 0.402,21.429 21.406,0.402 47.234,0.402 l 906.332,0 c 25.829,0 46.836,21.027 46.836,46.855 l 0,1187.066 c 0,25.829 -21.007,46.836 -46.836,46.836 l -906.332,0 z" /><path
         id="path10484"
         style="fill:#000000;fill-opacity:1;fill-rule:nonzero;stroke:none"
         d="m 48.504,12.433 c -19.942,0 -36.106,16.183 -36.106,36.105 l 0,1184.539 c 0,19.922 16.164,36.082 36.106,36.082 l 903.793,0 c 19.941,0 36.105,-16.16 36.105,-36.082 l 0,-1184.539 c 0,-19.922 -16.164,-36.105 -36.105,-36.105" /><path
         id="path10486"
         style="fill:#ffffff;fill-opacity:1;fill-rule:nonzero;stroke:none"
         d="m 48.504,28.484 c -11.066,0 -20.055,8.961 -20.055,20.054 l 0,1184.539 c 0,11.071 8.989,20.055 20.055,20.055 l 903.793,0 c 11.07,0 20.055,-8.984 20.055,-20.055 l 0,-1184.539 c 0,-11.093 -8.985,-20.054 -20.055,-20.054" /><path
         id="path10488"
         style="fill:#000000;fill-opacity:1;fill-rule:nonzero;stroke:none"
         d="M 47.234,1281.558 C 21.191,1281.558 0,1260.366 0,1234.323 L 0,47.257 C 0,21.214 21.188,-0.001 47.234,-0.001 l 906.332,0 c 26.043,0 47.235,21.215 47.235,47.258 l 0,1187.066 c 0,26.043 -21.192,47.235 -47.235,47.235 l -906.332,0 z m 0,-0.399 906.332,0 c 25.829,0 46.832,-21.007 46.832,-46.836 l 0,-1187.066 c 0,-25.828 -21.003,-46.855 -46.832,-46.855 l -906.332,0 C 21.406,0.402 0.398,21.429 0.398,47.257 l 0,1187.066 c 0,25.829 21.008,46.836 46.836,46.836 z" /><path
         id="path10490"
         style="fill:#000000;fill-opacity:1;fill-rule:nonzero;stroke:none"
         d="m 724.527,1045.839 0,-920.391 48.004,0 0,920.391 35.992,-9.308 c 5.235,-1.27 10.375,1.816 11.786,6.949 0.636,2.633 0.136,5.449 -1.411,7.718 l -70.347,104.911 -70.438,-104.911 c -2.957,-4.402 -1.773,-10.398 2.641,-13.261 2.273,-1.543 5.094,-2.086 7.734,-1.406 l 36.039,9.308 z" /><path
         id="path10492"
         style="fill:#000000;fill-opacity:1;fill-rule:nonzero;stroke:none"
         d="m 452.32,1045.839 0,-920.391 48.094,0 0,920.391 35.949,-9.308 c 5.188,-1.27 10.418,1.816 11.739,6.949 0.683,2.633 0.183,5.449 -1.321,7.718 l -70.437,104.911 -70.438,-104.911 c -2.91,-4.402 -1.773,-10.398 2.684,-13.261 2.277,-1.543 5.098,-2.086 7.691,-1.406 l 36.039,9.308 z" /><path
         id="path10494"
         style="fill:#000000;fill-opacity:1;fill-rule:nonzero;stroke:none"
         d="M 309.176,695.632 208.297,594.898 c -18.02,-17.938 -28.074,-42.325 -28.074,-67.805 l 0,-401.609 48.004,0 0,401.609 c 0,12.762 5.007,24.934 14.015,33.926 l 100.926,100.687 18.93,-31.972 c 2.683,-4.586 8.554,-6.086 13.148,-3.36 2.32,1.407 4.004,3.723 4.598,6.356 l 24.48,123.941 -124.133,-24.57 c -5.187,-0.953 -8.597,-5.996 -7.55,-11.262 0.543,-2.637 2.136,-4.953 4.504,-6.359 l 32.031,-18.848 z" /></g></g></svg>