<?xml version="1.0" encoding="UTF-8" standalone="no"?>
<svg
   xmlns:dc="http://purl.org/dc/elements/1.1/"
   xmlns:cc="http://creativecommons.org/ns#"
   xmlns:rdf="http://www.w3.org/1999/02/22-rdf-syntax-ns#"
   xmlns:svg="http://www.w3.org/2000/svg"
   xmlns="http://www.w3.org/2000/svg"
   viewBox="0 0 1251 1601.9473"
   height="1601.9473"
   width="1251"
   xml:space="preserve"
   version="1.1"
   id="svg11326"><metadata
     id="metadata11332"><rdf:RDF><cc:Work
         rdf:about=""><dc:format>image/svg+xml</dc:format><dc:type
           rdf:resource="http://purl.org/dc/dcmitype/StillImage" /><dc:title></dc:title></cc:Work></rdf:RDF></metadata><defs
     id="defs11330" /><g
     transform="matrix(1.25,0,0,-1.25,0,1601.9473)"
     id="g11334"><g
       id="g11336"><path
         id="path11338"
         style="fill:#ffffff;fill-opacity:1;fill-rule:nonzero;stroke:none"
         d="m 47.234,1281.159 c -25.828,0 -46.832,-21.007 -46.832,-46.836 l 0,-1187.066 C 0.402,21.429 21.406,0.402 47.234,0.402 l 906.332,0 c 25.829,0 46.836,21.027 46.836,46.855 l 0,1187.066 c 0,25.829 -21.007,46.836 -46.836,46.836 l -906.332,0 z" /><path
         id="path11340"
         style="fill:#000000;fill-opacity:1;fill-rule:nonzero;stroke:none"
         d="m 48.504,12.433 c -19.942,0 -36.106,16.183 -36.106,36.105 l 0,1184.539 c 0,19.922 16.164,36.082 36.106,36.082 l 903.793,0 c 19.941,0 36.105,-16.16 36.105,-36.082 l 0,-1184.539 c 0,-19.922 -16.164,-36.105 -36.105,-36.105" /><path
         id="path11342"
         style="fill:#ffffff;fill-opacity:1;fill-rule:nonzero;stroke:none"
         d="m 48.504,28.484 c -11.066,0 -20.055,8.961 -20.055,20.054 l 0,1184.539 c 0,11.071 8.989,20.055 20.055,20.055 l 903.793,0 c 11.07,0 20.055,-8.984 20.055,-20.055 l 0,-1184.539 c 0,-11.093 -8.985,-20.054 -20.055,-20.054" /><path
         id="path11344"
         style="fill:#000000;fill-opacity:1;fill-rule:nonzero;stroke:none"
         d="M 47.234,1281.558 C 21.191,1281.558 0,1260.366 0,1234.323 L 0,47.257 C 0,21.214 21.188,-0.001 47.234,-0.001 l 906.332,0 c 26.043,0 47.235,21.215 47.235,47.258 l 0,1187.066 c 0,26.043 -21.192,47.235 -47.235,47.235 l -906.332,0 z m 0,-0.399 906.332,0 c 25.829,0 46.832,-21.007 46.832,-46.836 l 0,-1187.066 c 0,-25.828 -21.003,-46.855 -46.832,-46.855 l -906.332,0 C 21.406,0.402 0.398,21.429 0.398,47.257 l 0,1187.066 c 0,25.829 21.008,46.836 46.836,46.836 z" /><path
         id="path11346"
         style="fill:#000000;fill-opacity:1;fill-rule:nonzero;stroke:none"
         d="m 200.184,237.238 36.039,9.308 c 5.187,1.32 10.375,-1.816 11.695,-6.945 0.727,-2.637 0.184,-5.453 -1.32,-7.676 L 176.203,126.968 105.766,231.925 c -2.961,4.359 -1.731,10.356 2.636,13.305 2.278,1.5 5.098,1.953 7.735,1.316 l 36.043,-9.308 0,776.621 48.004,0 0,-776.621 z" /><path
         id="path11348"
         style="fill:#000000;fill-opacity:1;fill-rule:nonzero;stroke:none"
         d="m 408.324,237.238 36.039,9.308 c 5.141,1.32 10.375,-1.816 11.696,-6.945 0.683,-2.637 0.179,-5.453 -1.321,-7.676 L 384.344,126.968 313.902,231.925 c -2.957,4.359 -1.773,10.356 2.641,13.305 2.23,1.5 5.098,1.953 7.781,1.316 l 35.992,-9.308 0,776.621 48.008,0 0,-776.621 z" /><path
         id="path11350"
         style="fill:#000000;fill-opacity:1;fill-rule:nonzero;stroke:none"
         d="m 657.457,840.972 -32.035,18.848 c -4.594,2.679 -6.141,8.586 -3.41,13.125 1.363,2.363 3.73,4.043 6.414,4.543 l 124.136,24.48 -24.527,-123.852 c -1.047,-5.222 -6.097,-8.628 -11.332,-7.585 -2.683,0.546 -4.957,2.179 -6.371,4.542 l -18.883,32.02 -36.859,-36.789 c -9.055,-9.039 -14.059,-21.207 -14.059,-33.973 l 0,-465.515 -48.051,0 0,465.515 c 0,25.481 10.102,49.867 28.122,67.856 l 36.855,36.785 z" /><path
         id="path11352"
         style="fill:#000000;fill-opacity:1;fill-rule:nonzero;stroke:none"
         d="m 800.605,1047.366 -35.996,-9.261 c -5.187,-1.321 -10.418,1.722 -11.738,6.902 -0.726,2.633 -0.183,5.449 1.32,7.719 l 70.395,104.957 70.441,-104.957 c 2.957,-4.403 1.774,-10.356 -2.64,-13.305 -2.278,-1.547 -5.141,-2 -7.735,-1.316 l -35.996,9.261 0,-776.574 -48.051,0 0,776.574 z" /></g></g></svg>