<?xml version="1.0" encoding="UTF-8" standalone="no"?>
<svg
   xmlns:dc="http://purl.org/dc/elements/1.1/"
   xmlns:cc="http://creativecommons.org/ns#"
   xmlns:rdf="http://www.w3.org/1999/02/22-rdf-syntax-ns#"
   xmlns:svg="http://www.w3.org/2000/svg"
   xmlns="http://www.w3.org/2000/svg"
   viewBox="0 0 1251 1601.9473"
   height="1601.9473"
   width="1251"
   xml:space="preserve"
   version="1.1"
   id="svg11035"><metadata
     id="metadata11041"><rdf:RDF><cc:Work
         rdf:about=""><dc:format>image/svg+xml</dc:format><dc:type
           rdf:resource="http://purl.org/dc/dcmitype/StillImage" /><dc:title></dc:title></cc:Work></rdf:RDF></metadata><defs
     id="defs11039" /><g
     transform="matrix(1.25,0,0,-1.25,0,1601.9473)"
     id="g11043"><g
       id="g11045"><path
         id="path11047"
         style="fill:#ffffff;fill-opacity:1;fill-rule:nonzero;stroke:none"
         d="m 47.234,1281.159 c -25.828,0 -46.832,-21.007 -46.832,-46.836 l 0,-1187.066 C 0.402,21.429 21.406,0.402 47.234,0.402 l 906.332,0 c 25.829,0 46.836,21.027 46.836,46.855 l 0,1187.066 c 0,25.829 -21.007,46.836 -46.836,46.836 l -906.332,0 z" /><path
         id="path11049"
         style="fill:#000000;fill-opacity:1;fill-rule:nonzero;stroke:none"
         d="m 48.504,12.433 c -19.942,0 -36.106,16.183 -36.106,36.105 l 0,1184.539 c 0,19.922 16.164,36.082 36.106,36.082 l 903.793,0 c 19.941,0 36.105,-16.16 36.105,-36.082 l 0,-1184.539 c 0,-19.922 -16.164,-36.105 -36.105,-36.105" /><path
         id="path11051"
         style="fill:#ffffff;fill-opacity:1;fill-rule:nonzero;stroke:none"
         d="m 48.504,28.484 c -11.066,0 -20.055,8.961 -20.055,20.054 l 0,1184.539 c 0,11.071 8.989,20.055 20.055,20.055 l 903.793,0 c 11.07,0 20.055,-8.984 20.055,-20.055 l 0,-1184.539 c 0,-11.093 -8.985,-20.054 -20.055,-20.054" /><path
         id="path11053"
         style="fill:#000000;fill-opacity:1;fill-rule:nonzero;stroke:none"
         d="M 47.234,1281.558 C 21.191,1281.558 0,1260.366 0,1234.323 L 0,47.257 C 0,21.214 21.188,-0.001 47.234,-0.001 l 906.332,0 c 26.043,0 47.235,21.215 47.235,47.258 l 0,1187.066 c 0,26.043 -21.192,47.235 -47.235,47.235 l -906.332,0 z m 0,-0.399 906.332,0 c 25.829,0 46.832,-21.007 46.832,-46.836 l 0,-1187.066 c 0,-25.828 -21.003,-46.855 -46.832,-46.855 l -906.332,0 C 21.406,0.402 0.398,21.429 0.398,47.257 l 0,1187.066 c 0,25.829 21.008,46.836 46.836,46.836 z" /><path
         id="path11055"
         style="fill:#000000;fill-opacity:1;fill-rule:nonzero;stroke:none"
         d="m 228.215,237.179 36.039,9.312 c 0.816,0.18 1.594,0.274 2.41,0.274 5.324,0 9.602,-4.27 9.602,-9.586 0,-1.906 -0.59,-3.77 -1.637,-5.313 l -70.399,-104.96 -70.441,104.96 c -1.047,1.543 -1.637,3.407 -1.637,5.313 0,5.316 4.368,9.586 9.602,9.586 0.863,0 1.637,-0.094 2.41,-0.274 l 36.043,-9.312 0,776.609 48.008,0 0,-776.609 z" /><path
         id="path11057"
         style="fill:#000000;fill-opacity:1;fill-rule:nonzero;stroke:none"
         d="m 541.418,840.925 -32.035,18.895 c -2.957,1.683 -4.778,4.859 -4.778,8.222 0,4.586 3.231,8.539 7.782,9.403 l 124.136,24.48 -24.57,-123.855 c -0.867,-4.5 -4.824,-7.723 -9.422,-7.723 -3.414,0 -6.597,1.769 -8.281,4.68 l -18.84,32.019 -36.902,-36.836 c -9.059,-8.945 -14.063,-21.164 -14.063,-33.883 l 0,-465.582 -48.007,0 0,465.582 c 0,25.434 10.101,49.825 28.078,67.813 l 36.902,36.785 z" /><path
         id="path11059"
         style="fill:#000000;fill-opacity:1;fill-rule:nonzero;stroke:none"
         d="m 772.633,1047.37 -36.086,-9.308 c -0.817,-0.184 -1.59,-0.274 -2.41,-0.274 -5.278,0 -9.602,4.27 -9.602,9.582 0,1.911 0.59,3.77 1.637,5.317 l 70.441,104.961 70.399,-104.961 c 1.047,-1.547 1.636,-3.406 1.636,-5.317 0,-5.312 -4.324,-9.582 -9.601,-9.582 -0.863,0 -1.637,0.09 -2.457,0.274 l -35.949,9.308 0,-776.609 -48.008,0 0,776.609 z" /></g></g></svg>