<?xml version="1.0" standalone="no"?>
<!DOCTYPE svg PUBLIC "-//W3C//DTD SVG 1.1//EN" "http://www.w3.org/Graphics/SVG/1.1/DTD/svg11.dtd">
<svg width="1250" height="1600" version="1.1" xmlns="http://www.w3.org/2000/svg">
<path fill="white" stroke="black" stroke-width="1" d="M60 1600A60 60 0 0 1 0 1540L0 60A60 60 0 0 1 60 0L1190 0A60 60 0 0 1 1250 60L1250 1540A60 60 0 0 1 1190 1600L60 1600Z" />
<path fill="black" stroke="none" d="M60 1585A45 45 0 0 1 15 1540L15 60A45 45 0 0 1 60 15L1190 15A45 45 0 0 1 1235 60L1235 1540A45 45 0 0 1 1190 1585L60 1585Z" />
<path fill="white" stroke="none" d="M60 1565A25 25 0 0 1 35 1540L35 60A25 25 0 0 1 60 35L1190 35A25 25 0 0 1 1215 60L1215 1540A25 25 0 0 1 1190 1565L60 1565Z" />
<path fill="black" stroke="none" fill-rule="evenodd" d="M285 1307L329.999901076814 1295.38107550368A12 12 0 0 1 344.562333240056 1310.21130036681A12 12 0 0 1 342.971231041917 1313.67641756549L255 1445L167.028768958083 1313.67641756549A12 12 0 0 1 176.203668302975 1295.02645182795A12 12 0 0 1 180.000098923186 1295.38107550368L225 1307L225 335L285 335L285 1307ZM595 293L550.000098923186 304.618924496316A12 12 0 0 1 535.437666759944 289.788699633188A12 12 0 0 1 537.028768958084 286.323582434515L625 155L712.971231041917 286.323582434515A12 12 0 0 1 703.796331697025 304.973548172046A12 12 0 0 1 699.999901076814 304.618924496316L655 293L655 1265L595 1265L595 293ZM863.79 551.37L903.824430008624 527.767210594255A12 12 0 0 0 903.635071974583 506.983463493818A12 12 0 0 0 900.059784951929 505.658334778895L745 475L775.658334778895 630.059784951929A12 12 0 0 0 795.333485564278 636.759668650358A12 12 0 0 0 797.767104224811 633.824610426056L821.37 593.79L947.426406871193 719.853593128807A60 60 0 0 1 965 762.28L965 1265L1025 1265L1025 762.28A120 120 0 0 0 989.852813742386 677.427186257614L863.79 551.37Z" />
</svg>
