<?xml version="1.0" encoding="UTF-8" standalone="no"?>
<svg
   xmlns:dc="http://purl.org/dc/elements/1.1/"
   xmlns:cc="http://creativecommons.org/ns#"
   xmlns:rdf="http://www.w3.org/1999/02/22-rdf-syntax-ns#"
   xmlns:svg="http://www.w3.org/2000/svg"
   xmlns="http://www.w3.org/2000/svg"
   viewBox="0 0 1251 1601.9473"
   height="1601.9473"
   width="1251"
   xml:space="preserve"
   version="1.1"
   id="svg12242"><metadata
     id="metadata12248"><rdf:RDF><cc:Work
         rdf:about=""><dc:format>image/svg+xml</dc:format><dc:type
           rdf:resource="http://purl.org/dc/dcmitype/StillImage" /><dc:title></dc:title></cc:Work></rdf:RDF></metadata><defs
     id="defs12246" /><g
     transform="matrix(1.25,0,0,-1.25,0,1601.9473)"
     id="g12250"><g
       id="g12252"><path
         id="path12254"
         style="fill:#ffffff;fill-opacity:1;fill-rule:nonzero;stroke:none"
         d="m 47.234,1281.159 c -25.828,0 -46.832,-21.007 -46.832,-46.836 l 0,-1187.066 C 0.402,21.429 21.406,0.402 47.234,0.402 l 906.332,0 c 25.829,0 46.836,21.027 46.836,46.855 l 0,1187.066 c 0,25.829 -21.007,46.836 -46.836,46.836 l -906.332,0 z" /><path
         id="path12256"
         style="fill:#000000;fill-opacity:1;fill-rule:nonzero;stroke:none"
         d="m 48.504,12.433 c -19.942,0 -36.106,16.183 -36.106,36.105 l 0,1184.539 c 0,19.922 16.164,36.082 36.106,36.082 l 903.793,0 c 19.941,0 36.105,-16.16 36.105,-36.082 l 0,-1184.539 c 0,-19.922 -16.164,-36.105 -36.105,-36.105" /><path
         id="path12258"
         style="fill:#ffffff;fill-opacity:1;fill-rule:nonzero;stroke:none"
         d="m 48.504,28.484 c -11.066,0 -20.055,8.961 -20.055,20.054 l 0,1184.539 c 0,11.071 8.989,20.055 20.055,20.055 l 903.793,0 c 11.07,0 20.055,-8.984 20.055,-20.055 l 0,-1184.539 c 0,-11.093 -8.985,-20.054 -20.055,-20.054" /><path
         id="path12260"
         style="fill:#000000;fill-opacity:1;fill-rule:nonzero;stroke:none"
         d="M 47.234,1281.558 C 21.191,1281.558 0,1260.366 0,1234.323 L 0,47.257 C 0,21.214 21.188,-0.001 47.234,-0.001 l 906.332,0 c 26.043,0 47.235,21.215 47.235,47.258 l 0,1187.066 c 0,26.043 -21.192,47.235 -47.235,47.235 l -906.332,0 z m 0,-0.399 906.332,0 c 25.829,0 46.832,-21.007 46.832,-46.836 l 0,-1187.066 c 0,-25.828 -21.003,-46.855 -46.832,-46.855 l -906.332,0 C 21.406,0.402 0.398,21.429 0.398,47.257 l 0,1187.066 c 0,25.829 21.008,46.836 46.836,46.836 z" /><path
         id="path12262"
         style="fill:#000000;fill-opacity:1;fill-rule:nonzero;stroke:none"
         d="m 204.195,1045.87 0,-920.453 -48.054,0 0,920.453 -35.996,-9.265 c -0.817,-0.227 -1.594,-0.321 -2.411,-0.321 -5.281,0 -9.601,4.317 -9.601,9.586 0,1.907 0.59,3.77 1.59,5.36 l 70.445,104.914 70.445,-104.914 c 1.047,-1.59 1.59,-3.453 1.59,-5.36 0,-5.269 -4.277,-9.586 -9.601,-9.586 -0.774,0 -1.59,0.094 -2.411,0.321 l -35.996,9.265 z" /><path
         id="path12264"
         style="fill:#000000;fill-opacity:1;fill-rule:nonzero;stroke:none"
         d="m 396.32,1045.87 0,-920.453 -48.054,0 0,920.453 -35.996,-9.265 c -0.821,-0.227 -1.594,-0.321 -2.415,-0.321 -5.277,0 -9.601,4.317 -9.601,9.586 0,1.907 0.594,3.77 1.594,5.36 l 70.488,104.914 70.398,-104.914 c 1.047,-1.59 1.594,-3.453 1.594,-5.36 0,-5.269 -4.277,-9.586 -9.601,-9.586 -0.774,0 -1.594,0.094 -2.415,0.321 l -35.992,9.265 z" /><path
         id="path12266"
         style="fill:#000000;fill-opacity:1;fill-rule:nonzero;stroke:none"
         d="m 695.672,825.265 -93.106,-73.078 c -9.054,-8.992 -14.105,-21.211 -14.105,-33.926 l 0,-592.852 -48.055,0 0,592.852 c 0,25.434 10.149,49.824 28.121,67.809 l 93.2,73.125 -32.082,18.847 c -2.915,1.727 -4.688,4.86 -4.688,8.266 0,4.543 3.184,8.539 7.734,9.402 l 124.098,24.481 -24.531,-123.903 c -0.863,-4.496 -4.82,-7.718 -9.418,-7.718 -3.414,0 -6.555,1.816 -8.281,4.722 l -18.887,31.973 z" /><path
         id="path12268"
         style="fill:#000000;fill-opacity:1;fill-rule:nonzero;stroke:none"
         d="m 797.562,723.593 -32.082,18.848 c -2.914,1.726 -4.734,4.859 -4.734,8.265 0,4.59 3.277,8.496 7.781,9.403 l 124.141,24.527 -24.57,-123.902 c -0.868,-4.543 -4.825,-7.723 -9.422,-7.723 -3.367,0 -6.551,1.773 -8.235,4.68 l -18.933,31.972 -36.86,-36.789 c -9.011,-8.992 -14.062,-21.164 -14.062,-33.879 l 0,-493.566 -48.055,0 0,493.566 c 0,25.434 10.149,49.825 28.125,67.762 l 36.906,36.836 z" /></g></g></svg>