<?xml version="1.0" encoding="UTF-8" standalone="no"?>
<svg
   xmlns:dc="http://purl.org/dc/elements/1.1/"
   xmlns:cc="http://creativecommons.org/ns#"
   xmlns:rdf="http://www.w3.org/1999/02/22-rdf-syntax-ns#"
   xmlns:svg="http://www.w3.org/2000/svg"
   xmlns="http://www.w3.org/2000/svg"
   viewBox="0 0 1251 1601.9473"
   height="1601.9473"
   width="1251"
   xml:space="preserve"
   version="1.1"
   id="svg11952"><metadata
     id="metadata11958"><rdf:RDF><cc:Work
         rdf:about=""><dc:format>image/svg+xml</dc:format><dc:type
           rdf:resource="http://purl.org/dc/dcmitype/StillImage" /><dc:title></dc:title></cc:Work></rdf:RDF></metadata><defs
     id="defs11956" /><g
     transform="matrix(1.25,0,0,-1.25,0,1601.9473)"
     id="g11960"><g
       id="g11962"><path
         id="path11964"
         style="fill:#ffffff;fill-opacity:1;fill-rule:nonzero;stroke:none"
         d="m 47.234,1281.159 c -25.828,0 -46.832,-21.007 -46.832,-46.836 l 0,-1187.066 C 0.402,21.429 21.406,0.402 47.234,0.402 l 906.332,0 c 25.829,0 46.836,21.027 46.836,46.855 l 0,1187.066 c 0,25.829 -21.007,46.836 -46.836,46.836 l -906.332,0 z" /><path
         id="path11966"
         style="fill:#000000;fill-opacity:1;fill-rule:nonzero;stroke:none"
         d="m 48.504,12.433 c -19.942,0 -36.106,16.183 -36.106,36.105 l 0,1184.539 c 0,19.922 16.164,36.082 36.106,36.082 l 903.793,0 c 19.941,0 36.105,-16.16 36.105,-36.082 l 0,-1184.539 c 0,-19.922 -16.164,-36.105 -36.105,-36.105" /><path
         id="path11968"
         style="fill:#ffffff;fill-opacity:1;fill-rule:nonzero;stroke:none"
         d="m 48.504,28.484 c -11.066,0 -20.055,8.961 -20.055,20.054 l 0,1184.539 c 0,11.071 8.989,20.055 20.055,20.055 l 903.793,0 c 11.07,0 20.055,-8.984 20.055,-20.055 l 0,-1184.539 c 0,-11.093 -8.985,-20.054 -20.055,-20.054" /><path
         id="path11970"
         style="fill:#000000;fill-opacity:1;fill-rule:nonzero;stroke:none"
         d="M 47.234,1281.558 C 21.191,1281.558 0,1260.366 0,1234.323 L 0,47.257 C 0,21.214 21.188,-0.001 47.234,-0.001 l 906.332,0 c 26.043,0 47.235,21.215 47.235,47.258 l 0,1187.066 c 0,26.043 -21.192,47.235 -47.235,47.235 l -906.332,0 z m 0,-0.399 906.332,0 c 25.829,0 46.832,-21.007 46.832,-46.836 l 0,-1187.066 c 0,-25.828 -21.003,-46.855 -46.832,-46.855 l -906.332,0 C 21.406,0.402 0.398,21.429 0.398,47.257 l 0,1187.066 c 0,25.829 21.008,46.836 46.836,46.836 z" /><path
         id="path11972"
         style="fill:#000000;fill-opacity:1;fill-rule:nonzero;stroke:none"
         d="m 204.219,1045.843 0,-920.398 -48.004,0 0,920.398 -36.039,-9.309 c -0.774,-0.183 -1.594,-0.273 -2.414,-0.273 -5.278,0 -9.602,4.27 -9.602,9.582 0,1.91 0.594,3.727 1.641,5.316 l 70.394,104.954 70.438,-104.954 c 1.047,-1.589 1.64,-3.406 1.64,-5.316 0,-5.312 -4.324,-9.582 -9.648,-9.582 -0.773,0 -1.594,0.09 -2.41,0.273 l -35.996,9.309 z" /><path
         id="path11974"
         style="fill:#000000;fill-opacity:1;fill-rule:nonzero;stroke:none"
         d="m 396.32,1045.843 0,-920.398 -48.008,0 0,920.398 -36.039,-9.309 c -0.773,-0.183 -1.593,-0.273 -2.367,-0.273 -5.324,0 -9.644,4.27 -9.644,9.582 0,1.91 0.59,3.727 1.636,5.316 l 70.395,104.954 70.441,-104.954 c 1.047,-1.589 1.637,-3.406 1.637,-5.316 0,-5.312 -4.324,-9.582 -9.601,-9.582 -0.821,0 -1.637,0.09 -2.411,0.273 l -36.039,9.309 z" /><path
         id="path11976"
         style="fill:#000000;fill-opacity:1;fill-rule:nonzero;stroke:none"
         d="m 588.477,1045.843 0,-920.398 -48.051,0 0,920.398 -36.039,-9.309 c -0.727,-0.183 -1.594,-0.273 -2.41,-0.273 -5.282,0 -9.559,4.27 -9.559,9.582 0,1.91 0.547,3.727 1.594,5.316 l 70.441,104.954 70.438,-104.954 c 1.004,-1.589 1.593,-3.406 1.593,-5.316 0,-5.312 -4.324,-9.582 -9.601,-9.582 -0.821,0 -1.637,0.09 -2.367,0.273 l -36.039,9.309 z" /><path
         id="path11978"
         style="fill:#000000;fill-opacity:1;fill-rule:nonzero;stroke:none"
         d="M 797.582,843.398 765.5,862.292 c -2.91,1.68 -4.73,4.86 -4.73,8.219 0,4.586 3.277,8.539 7.734,9.402 l 124.137,24.524 -24.528,-123.895 c -0.863,-4.496 -4.824,-7.722 -9.418,-7.722 -3.414,0 -6.554,1.773 -8.285,4.726 l -18.883,31.973 -36.859,-36.789 c -9.008,-8.992 -14.106,-21.207 -14.106,-33.926 l 0,-613.344 -48.003,0 0,613.344 c 0,25.48 10.101,49.82 28.121,67.805 l 36.902,36.789 z" /></g></g></svg>