<?xml version="1.0" encoding="UTF-8" standalone="no"?>
<svg
   xmlns:dc="http://purl.org/dc/elements/1.1/"
   xmlns:cc="http://creativecommons.org/ns#"
   xmlns:rdf="http://www.w3.org/1999/02/22-rdf-syntax-ns#"
   xmlns:svg="http://www.w3.org/2000/svg"
   xmlns="http://www.w3.org/2000/svg"
   viewBox="0 0 1251 1601.9473"
   height="1601.9473"
   width="1251"
   xml:space="preserve"
   version="1.1"
   id="svg11664"><metadata
     id="metadata11670"><rdf:RDF><cc:Work
         rdf:about=""><dc:format>image/svg+xml</dc:format><dc:type
           rdf:resource="http://purl.org/dc/dcmitype/StillImage" /><dc:title></dc:title></cc:Work></rdf:RDF></metadata><defs
     id="defs11668" /><g
     transform="matrix(1.25,0,0,-1.25,0,1601.9473)"
     id="g11672"><g
       id="g11674"><path
         id="path11676"
         style="fill:#ffffff;fill-opacity:1;fill-rule:nonzero;stroke:none"
         d="m 47.234,1281.159 c -25.828,0 -46.832,-21.007 -46.832,-46.836 l 0,-1187.066 C 0.402,21.429 21.406,0.402 47.234,0.402 l 906.332,0 c 25.829,0 46.836,21.027 46.836,46.855 l 0,1187.066 c 0,25.829 -21.007,46.836 -46.836,46.836 l -906.332,0 z" /><path
         id="path11678"
         style="fill:#000000;fill-opacity:1;fill-rule:nonzero;stroke:none"
         d="m 48.504,12.433 c -19.942,0 -36.106,16.183 -36.106,36.105 l 0,1184.539 c 0,19.922 16.164,36.082 36.106,36.082 l 903.793,0 c 19.941,0 36.105,-16.16 36.105,-36.082 l 0,-1184.539 c 0,-19.922 -16.164,-36.105 -36.105,-36.105" /><path
         id="path11680"
         style="fill:#ffffff;fill-opacity:1;fill-rule:nonzero;stroke:none"
         d="m 48.504,28.484 c -11.066,0 -20.055,8.961 -20.055,20.054 l 0,1184.539 c 0,11.071 8.989,20.055 20.055,20.055 l 903.793,0 c 11.07,0 20.055,-8.984 20.055,-20.055 l 0,-1184.539 c 0,-11.093 -8.985,-20.054 -20.055,-20.054" /><path
         id="path11682"
         style="fill:#000000;fill-opacity:1;fill-rule:nonzero;stroke:none"
         d="M 47.234,1281.558 C 21.191,1281.558 0,1260.366 0,1234.323 L 0,47.257 C 0,21.214 21.188,-0.001 47.234,-0.001 l 906.332,0 c 26.043,0 47.235,21.215 47.235,47.258 l 0,1187.066 c 0,26.043 -21.192,47.235 -47.235,47.235 l -906.332,0 z m 0,-0.399 906.332,0 c 25.829,0 46.832,-21.007 46.832,-46.836 l 0,-1187.066 c 0,-25.828 -21.003,-46.855 -46.832,-46.855 l -906.332,0 C 21.406,0.402 0.398,21.429 0.398,47.257 l 0,1187.066 c 0,25.829 21.008,46.836 46.836,46.836 z" /><path
         id="path11684"
         style="fill:#000000;fill-opacity:1;fill-rule:nonzero;stroke:none"
         d="m 236.223,1045.859 0,-920.434 -48.055,0 0,920.434 -35.992,-9.313 c -0.774,-0.18 -1.594,-0.269 -2.367,-0.269 -5.325,0 -9.645,4.269 -9.645,9.582 0,1.906 0.59,3.722 1.637,5.312 l 70.441,104.961 70.442,-104.961 c 1.046,-1.59 1.589,-3.406 1.589,-5.312 0,-5.313 -4.32,-9.582 -9.601,-9.582 -0.817,0 -1.637,0.089 -2.41,0.269 l -36.039,9.313 z" /><path
         id="path11686"
         style="fill:#000000;fill-opacity:1;fill-rule:nonzero;stroke:none"
         d="m 492.375,1045.859 0,-920.434 -48.008,0 0,920.434 -36.039,-9.313 c -0.773,-0.18 -1.59,-0.269 -2.41,-0.269 -5.277,0 -9.602,4.269 -9.602,9.582 0,1.906 0.59,3.722 1.637,5.312 l 70.399,104.961 70.437,-104.961 c 1.047,-1.59 1.641,-3.406 1.641,-5.312 0,-5.313 -4.325,-9.582 -9.602,-9.582 -0.82,0 -1.594,0.089 -2.414,0.269 l -36.039,9.313 z" /><path
         id="path11688"
         style="fill:#000000;fill-opacity:1;fill-rule:nonzero;stroke:none"
         d="m 765.535,843.159 -32.082,18.852 c -2.867,1.723 -4.73,4.859 -4.73,8.266 0,4.586 3.32,8.492 7.781,9.402 l 124.137,24.477 -24.528,-123.852 c -0.91,-4.496 -4.871,-7.723 -9.465,-7.723 -3.367,0 -6.554,1.774 -8.238,4.68 l -18.883,31.973 -36.906,-36.743 c -9.008,-9.039 -14.059,-21.21 -14.059,-33.925 l 0,-613.141 -48.007,0 0,613.141 c 0,25.433 10.101,49.777 28.074,67.761 l 36.906,36.832 z" /></g></g></svg>