<?xml version="1.0" encoding="UTF-8" standalone="no"?>
<svg
   xmlns:dc="http://purl.org/dc/elements/1.1/"
   xmlns:cc="http://creativecommons.org/ns#"
   xmlns:rdf="http://www.w3.org/1999/02/22-rdf-syntax-ns#"
   xmlns:svg="http://www.w3.org/2000/svg"
   xmlns="http://www.w3.org/2000/svg"
   viewBox="0 0 1251.0012 1601.9487"
   height="1601.9487"
   width="1251.0012"
   xml:space="preserve"
   id="svg14149"
   version="1.1"><metadata
     id="metadata14155"><rdf:RDF><cc:Work
         rdf:about=""><dc:format>image/svg+xml</dc:format><dc:type
           rdf:resource="http://purl.org/dc/dcmitype/StillImage" /><dc:title></dc:title></cc:Work></rdf:RDF></metadata><defs
     id="defs14153" /><g
     transform="matrix(1.3333333,0,0,-1.3333333,0,1601.9487)"
     id="g14157"><g
       id="g14159"><path
         id="path14161"
         style="fill:#ffffff;fill-opacity:1;fill-rule:nonzero;stroke:none"
         d="m 44.281,1201.087 c -24.215,0 -43.906,-19.692 -43.906,-43.907 V 44.305 C 0.375,20.09 20.066,0.38 44.281,0.38 h 849.688 c 24.215,0 43.906,19.71 43.906,43.925 V 1157.18 c 0,24.215 -19.691,43.907 -43.906,43.907 z" /><path
         id="path14163"
         style="fill:#000000;fill-opacity:1;fill-rule:nonzero;stroke:none"
         d="m 45.473,11.657 c -18.696,0 -33.848,15.172 -33.848,33.848 v 1110.507 c 0,18.676 15.152,33.825 33.848,33.825 h 847.304 c 18.696,0 33.848,-15.149 33.848,-33.825 V 45.505 c 0,-18.676 -15.152,-33.848 -33.848,-33.848" /><path
         id="path14165"
         style="fill:#ffffff;fill-opacity:1;fill-rule:nonzero;stroke:none"
         d="m 45.473,26.704 c -10.375,0 -18.801,8.402 -18.801,18.801 v 1110.507 c 0,10.379 8.426,18.801 18.801,18.801 h 847.304 c 10.379,0 18.801,-8.422 18.801,-18.801 V 45.505 c 0,-10.399 -8.422,-18.801 -18.801,-18.801" /><path
         id="path14167"
         style="fill:#000000;fill-opacity:1;fill-rule:nonzero;stroke:none"
         d="M 44.281,1201.462 C 19.867,1201.462 0,1181.594 0,1157.18 V 44.305 C 0,19.887 19.863,0.001 44.281,0.001 h 849.688 c 24.414,0 44.281,19.886 44.281,44.304 V 1157.18 c 0,24.414 -19.867,44.282 -44.281,44.282 z m 0,-0.375 h 849.688 c 24.215,0 43.906,-19.692 43.906,-43.907 V 44.305 C 937.875,20.09 918.184,0.38 893.969,0.38 H 44.281 C 20.066,0.38 0.375,20.09 0.375,44.305 V 1157.18 c 0,24.215 19.691,43.907 43.906,43.907 z" /><path
         id="path14169"
         style="fill:#000000;fill-opacity:1;fill-rule:evenodd;stroke:none"
         d="m 277.875,980.981 33.75,-8.715 c 3.113,-0.804 6.418,0.114 8.672,2.41 2.254,2.293 3.109,5.614 2.25,8.711 -0.258,0.926 -0.66,1.805 -1.192,2.602 l -65.98,98.492 -65.977,-98.492 c -1.789,-2.672 -2.019,-6.098 -0.597,-8.981 1.418,-2.886 4.269,-4.793 7.476,-5.007 0.957,-0.063 1.918,0.027 2.848,0.265 l 33.75,8.715 0.004,-122.883 c 14.941,1.844 30.055,1.844 44.996,0 z m -45,-864 h 45 v 376.383 c -14.941,-1.844 -30.055,-1.844 -44.996,0 z m 300,864 33.75,-8.715 c 3.113,-0.804 6.418,0.114 8.672,2.41 2.254,2.293 3.109,5.614 2.25,8.711 -0.258,0.926 -0.66,1.805 -1.192,2.602 l -65.98,98.492 -65.977,-98.492 c -1.789,-2.672 -2.019,-6.098 -0.597,-8.981 1.418,-2.886 4.269,-4.793 7.476,-5.007 0.957,-0.063 1.918,0.027 2.848,0.265 l 33.75,8.715 0.004,-370.383 c 14.941,1.844 30.055,1.844 44.996,0 z m -45,-864 h 45 v 128.883 c -14.941,-1.844 -30.055,-1.844 -44.996,0 z m 179.094,647.723 30.023,17.703 c 2.774,1.633 4.461,4.617 4.43,7.832 -0.027,3.215 -1.77,6.172 -4.57,7.754 -0.836,0.472 -1.739,0.808 -2.68,0.996 l -116.297,22.992 22.996,-116.297 c 0.621,-3.152 2.883,-5.734 5.926,-6.769 3.043,-1.039 6.41,-0.371 8.828,1.746 0.723,0.633 1.34,1.375 1.824,2.203 l 17.703,30.023 94.543,-94.547 c 8.438,-8.437 13.18,-19.886 13.18,-31.82 V 116.981 h 45 V 606.52 c 0,23.871 -9.48,46.762 -26.359,63.641 z" /><path
         id="path14171"
         style="fill:#154889;fill-opacity:1;fill-rule:evenodd;stroke:none"
         d="M 363.836,809.868 C 315.914,848.618 250.957,858.856 193.438,836.727 135.922,814.602 94.574,763.469 84.98,702.59 77.383,654.387 90.555,605.219 121.238,567.27 l 31.364,31.367 c -10.852,10.399 -16.985,24.774 -16.985,39.805 h 0.004 c 0,16.254 7.863,31.504 21.102,40.934 -11.282,8.918 -17.86,22.507 -17.86,36.886 0,18.532 9.887,35.66 25.938,44.926 16.051,9.266 35.828,9.266 51.879,0 16.05,-9.266 25.937,-26.394 25.937,-44.926 h 0.008 c 0,-14.379 -6.578,-27.968 -17.859,-36.886 1.656,-1.18 3.242,-2.461 4.746,-3.836 l 35.808,35.816 v 4.906 c 0,14.575 6.133,28.477 16.895,38.305 10.762,9.828 25.164,14.676 39.68,13.359 l 41.937,41.942 z M 164.797,716.262 c 0,-9.269 4.945,-17.836 12.973,-22.468 8.027,-4.633 17.914,-4.633 25.941,0 8.027,4.632 12.973,13.199 12.973,22.468 0,9.266 -4.946,17.832 -12.973,22.465 -8.027,4.633 -17.914,4.633 -25.941,0 -8.028,-4.633 -12.973,-13.199 -12.973,-22.465 m 6.156,-99.273 c -7.66,7.07 -10.973,17.691 -8.683,27.859 2.289,10.172 9.832,18.352 19.785,21.453 10.761,3.356 22.496,0.211 30.136,-8.074 l -41.234,-41.238 z m 218.559,167.203 c 38.75,-47.926 48.988,-112.879 26.859,-170.398 -22.125,-57.52 -73.258,-98.864 -134.137,-108.457 -48.203,-7.602 -97.371,5.574 -135.316,36.257 l 41.742,41.762 c 14.969,-0.566 29.528,4.984 40.317,15.375 10.793,10.395 16.89,24.731 16.89,39.711 0,0.684 -0.015,1.371 -0.043,2.055 l 19.496,19.5 V 635.2 c 0,-18.531 9.887,-35.66 25.938,-44.926 16.051,-9.266 35.828,-9.266 51.879,0 16.051,9.266 25.937,26.395 25.937,44.926 v 81.062 c 0,12.692 -4.652,24.942 -13.078,34.434 l 33.516,33.492 z M 291.254,685.938 V 635.2 c 0,-9.266 4.945,-17.832 12.973,-22.465 8.027,-4.637 17.918,-4.637 25.941,0 8.027,4.633 12.973,13.199 12.973,22.465 v 81.062 c 0,5.809 -1.95,11.45 -5.536,16.016 z" /><path
         id="path14173"
         style="fill:#c1121c;fill-opacity:1;fill-rule:nonzero;stroke:none"
         d="m 389.512,784.192 c -7.633,9.438 -16.239,18.043 -25.676,25.676 L 121.238,567.27 c 7.633,-9.437 16.239,-18.043 25.68,-25.676 l 242.594,242.594 z" /><path
         id="path14175"
         style="fill:#154889;fill-opacity:1;fill-rule:evenodd;stroke:none"
         d="m 618.836,562.368 c -47.922,38.75 -112.879,48.988 -170.398,26.859 -57.516,-22.125 -98.864,-73.258 -108.458,-134.137 -7.597,-48.203 5.575,-97.371 36.258,-135.32 l 34.985,34.988 c -6.575,7.997 -10.602,17.774 -11.575,28.079 h 26.168 c 0.653,-3.418 1.985,-6.668 3.918,-9.559 l 45.957,45.949 c -3.156,8.715 -10.718,15.086 -19.843,16.711 -9.125,1.625 -18.422,-1.742 -24.395,-8.832 -1.375,-1.637 -2.547,-3.434 -3.484,-5.359 H 402.66 v 97.273 h 97.274 v -25.933 h -72.95 L 426.98,452.13 c 10.551,8.351 24.172,11.785 37.418,9.429 13.247,-2.355 24.848,-10.273 31.872,-21.75 l 26.367,26.363 v 2.59 c 0,14.196 5.82,27.774 16.101,37.567 10.282,9.789 24.125,14.941 38.309,14.246 l 41.785,41.793 z m 25.676,-25.676 c 38.75,-47.926 48.988,-112.879 26.859,-170.398 -22.125,-57.52 -73.258,-98.864 -134.137,-108.457 -48.203,-7.602 -97.371,5.574 -135.316,36.257 l 42.219,42.227 c 14.867,-2.074 29.898,2.394 41.218,12.246 11.321,9.855 17.821,24.125 17.821,39.133 l 0.008,7.726 19.453,19.387 V 387.7 c 0,-18.531 9.89,-35.66 25.941,-44.926 16.051,-9.266 35.824,-9.266 51.875,0 16.051,9.266 25.942,26.395 25.942,44.926 v 81.062 c 0,13.25 -5.075,26 -14.176,35.633 l 32.293,32.293 z m -95.938,-95.945 45.293,45.293 c 4.246,-4.754 6.59,-10.907 6.59,-17.278 V 387.7 c 0,-9.266 -4.945,-17.832 -12.969,-22.465 -8.027,-4.637 -17.918,-4.637 -25.945,0 -8.023,4.633 -12.969,13.199 -12.969,22.465 z" /><path
         id="path14177"
         style="fill:#c1121c;fill-opacity:1;fill-rule:nonzero;stroke:none"
         d="m 644.512,536.692 c -7.633,9.438 -16.239,18.043 -25.676,25.676 L 376.238,319.77 c 7.633,-9.437 16.239,-18.043 25.68,-25.676 l 242.594,242.594 z" /></g></g></svg>