<?xml version="1.0" encoding="UTF-8" standalone="no"?>
<svg
   xmlns:dc="http://purl.org/dc/elements/1.1/"
   xmlns:cc="http://creativecommons.org/ns#"
   xmlns:rdf="http://www.w3.org/1999/02/22-rdf-syntax-ns#"
   xmlns:svg="http://www.w3.org/2000/svg"
   xmlns="http://www.w3.org/2000/svg"
   viewBox="0 0 1251.0012 1601.9487"
   height="1601.9487"
   width="1251.0012"
   xml:space="preserve"
   id="svg16007"
   version="1.1"><metadata
     id="metadata16013"><rdf:RDF><cc:Work
         rdf:about=""><dc:format>image/svg+xml</dc:format><dc:type
           rdf:resource="http://purl.org/dc/dcmitype/StillImage" /><dc:title></dc:title></cc:Work></rdf:RDF></metadata><defs
     id="defs16011" /><g
     transform="matrix(1.3333333,0,0,-1.3333333,0,1601.9487)"
     id="g16015"><g
       id="g16017"><path
         id="path16019"
         style="fill:#ffffff;fill-opacity:1;fill-rule:nonzero;stroke:none"
         d="m 44.281,1201.087 c -24.215,0 -43.906,-19.692 -43.906,-43.907 V 44.305 C 0.375,20.09 20.066,0.38 44.281,0.38 h 849.688 c 24.215,0 43.906,19.71 43.906,43.925 V 1157.18 c 0,24.215 -19.691,43.907 -43.906,43.907 z" /><path
         id="path16021"
         style="fill:#000000;fill-opacity:1;fill-rule:nonzero;stroke:none"
         d="m 45.473,11.657 c -18.696,0 -33.848,15.172 -33.848,33.848 v 1110.507 c 0,18.676 15.152,33.825 33.848,33.825 h 847.304 c 18.696,0 33.848,-15.149 33.848,-33.825 V 45.505 c 0,-18.676 -15.152,-33.848 -33.848,-33.848" /><path
         id="path16023"
         style="fill:#ffffff;fill-opacity:1;fill-rule:nonzero;stroke:none"
         d="m 45.473,26.704 c -10.375,0 -18.801,8.402 -18.801,18.801 v 1110.507 c 0,10.379 8.426,18.801 18.801,18.801 h 847.304 c 10.379,0 18.801,-8.422 18.801,-18.801 V 45.505 c 0,-10.399 -8.422,-18.801 -18.801,-18.801" /><path
         id="path16025"
         style="fill:#000000;fill-opacity:1;fill-rule:nonzero;stroke:none"
         d="M 44.281,1201.462 C 19.867,1201.462 0,1181.594 0,1157.18 V 44.305 C 0,19.887 19.863,0.001 44.281,0.001 h 849.688 c 24.414,0 44.281,19.886 44.281,44.304 V 1157.18 c 0,24.414 -19.867,44.282 -44.281,44.282 z m 0,-0.375 h 849.688 c 24.215,0 43.906,-19.692 43.906,-43.907 V 44.305 C 937.875,20.09 918.184,0.38 893.969,0.38 H 44.281 C 20.066,0.38 0.375,20.09 0.375,44.305 V 1157.18 c 0,24.215 19.691,43.907 43.906,43.907 z" /><path
         id="path16027"
         style="fill:#000000;fill-opacity:1;fill-rule:nonzero;stroke:none"
         d="m 187.648,218.438 33.786,8.731 c 4.808,1.246 9.738,-1.649 10.98,-6.485 0.625,-2.488 0.168,-5.117 -1.242,-7.246 l -66.035,-98.672 -66.035,98.672 c -2.778,4.137 -1.653,9.711 2.464,12.488 2.153,1.434 4.786,1.891 7.274,1.243 l 33.781,-8.731 V 948.7 h 45.027" /><path
         id="path16029"
         style="fill:#000000;fill-opacity:1;fill-rule:nonzero;stroke:none"
         d="m 382.813,218.438 33.757,8.731 c 4.836,1.246 9.739,-1.649 10.985,-6.485 0.644,-2.488 0.191,-5.117 -1.223,-7.246 l -66.035,-98.672 -66.035,98.672 c -2.774,4.137 -1.649,9.711 2.465,12.488 2.156,1.434 4.785,1.891 7.273,1.243 l 33.785,-8.731 V 948.7 h 45.028" /><path
         id="path16031"
         style="fill:#000000;fill-opacity:1;fill-rule:nonzero;stroke:none"
         d="m 616.398,786.149 -30.05,17.75 c -4.282,2.512 -5.715,8.039 -3.18,12.324 1.316,2.223 3.492,3.778 6.004,4.282 L 705.594,843.52 682.555,727.028 c -0.957,-4.883 -5.696,-8.063 -10.575,-7.106 -2.511,0.5 -4.714,2.055 -6.007,4.282 l -17.727,30.074 -34.574,-34.598 c -8.445,-8.468 -13.184,-19.929 -13.184,-31.89 v -30.028 c -14.929,2.274 -30.121,2.274 -45.05,0 v 30.028 c 0,23.925 9.523,46.843 26.39,63.761" /><path
         id="path16033"
         style="fill:#000000;fill-opacity:1;fill-rule:nonzero;stroke:none"
         d="m 600.488,249.997 h -45.05 V 360.63 c 14.929,-2.25 30.121,-2.25 45.05,0" /><path
         id="path16035"
         style="fill:#000000;fill-opacity:1;fill-rule:nonzero;stroke:none"
         d="m 750.602,980.258 -33.762,-8.734 c -4.809,-1.242 -9.738,1.652 -10.981,6.484 -0.648,2.489 -0.191,5.145 1.243,7.274 l 66.035,98.668 66.035,-98.668 c 2.754,-4.141 1.652,-9.738 -2.488,-12.512 -2.129,-1.437 -4.786,-1.89 -7.274,-1.246 l -33.758,8.734 V 249.997 h -45.05" /><path
         id="path16037"
         style="fill:#154889;fill-opacity:1;fill-rule:nonzero;stroke:none"
         d="m 667.648,620.2 c -61.25,49.574 -151.066,40.051 -200.57,-21.246 -42.301,-52.375 -42.301,-127.168 0,-179.516 l 28.902,28.973 c -5.429,6.605 -8.753,14.691 -9.546,23.207 h 21.629 c 0.527,-2.821 1.652,-5.524 3.23,-7.895 l 37.996,38.02 c -4.019,11.148 -16.316,16.914 -27.445,12.871 -5.262,-1.891 -9.571,-5.766 -12.008,-10.789 h -20.938 v 80.484 h 80.442 v -21.437 h -60.32 v -33.903 c 16.843,13.328 41.296,10.481 54.601,-6.363 0.981,-1.223 1.863,-2.512 2.703,-3.828 l 21.774,21.797 v 2.152 c 0,23.711 19.234,42.945 42.898,42.945 0.692,0 1.387,0 2.106,0" /><path
         id="path16039"
         style="fill:#154889;fill-opacity:1;fill-rule:nonzero;stroke:none"
         d="m 688.871,598.954 c 49.527,-61.324 40.004,-151.188 -21.223,-200.762 -52.3,-42.324 -127.046,-42.324 -179.371,0 l 34.934,34.953 c 23.445,-3.277 45.144,13.09 48.398,36.586 0.266,1.961 0.411,3.945 0.411,5.906 v 6.414 l 16.078,16.032 v -22.446 c 0,-23.707 19.234,-42.922 42.898,-42.922 23.707,0 42.899,19.215 42.899,42.922 v 67.09 c 0,10.957 -4.211,21.508 -11.727,29.5" /><path
         id="path16041"
         style="fill:#154889;fill-opacity:1;fill-rule:nonzero;stroke:none"
         d="M 609.559,519.567 647,557.008 c 3.52,-3.921 5.434,-8.992 5.434,-14.281 v -67.09 c 0,-11.84 -9.594,-21.461 -21.438,-21.461 -11.844,0 -21.437,9.621 -21.437,21.461" /><path
         id="path16043"
         style="fill:#c1121c;fill-opacity:1;fill-rule:nonzero;stroke:none"
         d="M 688.871,598.954 488.277,398.192 c -7.777,6.316 -14.906,13.422 -21.199,21.246 L 667.648,620.2 c 7.801,-6.317 14.907,-13.426 21.223,-21.246" /></g></g></svg>