<?xml version="1.0" encoding="UTF-8" standalone="no"?>
<svg
   xmlns:dc="http://purl.org/dc/elements/1.1/"
   xmlns:cc="http://creativecommons.org/ns#"
   xmlns:rdf="http://www.w3.org/1999/02/22-rdf-syntax-ns#"
   xmlns:svg="http://www.w3.org/2000/svg"
   xmlns="http://www.w3.org/2000/svg"
   id="svg32244"
   version="1.1"
   height="1600"
   width="1250">
  <metadata
     id="metadata32266">
    <rdf:RDF>
      <cc:Work
         rdf:about="">
        <dc:format>image/svg+xml</dc:format>
        <dc:type
           rdf:resource="http://purl.org/dc/dcmitype/StillImage" />
        <dc:title></dc:title>
      </cc:Work>
    </rdf:RDF>
  </metadata>
  <defs
     id="defs32264" />
  <path
     id="path32246"
     d="M 60,1600 A 60,60 0 0 1 0,1540 L 0,60 A 60,60 0 0 1 60,0 l 1130,0 a 60,60 0 0 1 60,60 l 0,1480 a 60,60 0 0 1 -60,60 l -1130,0 z"
     style="fill:#ffffff;stroke:#000000;stroke-width:1" />
  <path
     id="path32248"
     d="M 60,1585 A 45,45 0 0 1 15,1540 L 15,60 A 45,45 0 0 1 60,15 l 1130,0 a 45,45 0 0 1 45,45 l 0,1480 a 45,45 0 0 1 -45,45 l -1130,0 z"
     style="fill:#000000;stroke:none" />
  <path
     id="path32250"
     d="M 60,1565 A 25,25 0 0 1 35,1540 L 35,60 A 25,25 0 0 1 60,35 l 1130,0 a 25,25 0 0 1 25,25 l 0,1480 a 25,25 0 0 1 -25,25 l -1130,0 z"
     style="fill:#ffffff;stroke:none" />
  <path
     id="path32823"
     d="m 950,155.8418 -87.9707,131.32422 c -0.71165,1.06286 -1.2495,2.23238 -1.5918,3.46484 -2.47204,8.90067 5.61826,17.13952 14.5625,14.83008 l 45,-11.61914 0,972.002 60,0 0,-972 45,11.61914 c 1.2385,0.31983 2.5206,0.44037 3.7969,0.35547 9.2169,-0.61301 14.3133,-10.97453 9.1738,-18.65039 z m -680,180 0,972 -45,-11.6172 c -1.23848,-0.3196 -2.52059,-0.4405 -3.79688,-0.3555 -9.2172,0.613 -14.31325,10.9746 -9.17382,18.6504 L 300,1445.8418 387.9707,1314.5195 c 0.71165,-1.0629 1.2495,-2.2323 1.5918,-3.4648 2.47202,-8.9007 -5.61827,-17.1395 -14.5625,-14.8301 l -45,11.6172 0,-972 z m 555,140 -155.06055,30.66015 c -1.25477,0.24834 -2.4607,0.69478 -3.57422,1.32422 -8.04175,4.54573 -8.14704,16.09171 -0.18945,20.78321 l 40.03516,23.60351 -46.06446,46.05664 c -24.56487,31.11957 -35.17773,57.34975 -35.17773,92.71485 19.9373,-2.45335 40.09841,-2.45335 60.06641,0 -0.57262,-18.93542 6.43988,-38.85946 17.53906,-50.28907 l 46.05664,-46.0625 23.60156,40.03516 c 0.6496,1.1018 1.47116,2.09118 2.4336,2.93359 6.95104,6.08412 17.88232,2.36262 19.67578,-6.69922 z"
     style="fill:#000000;fill-rule:evenodd;stroke:none" />
  <path
     id="path15881"
     style="fill:#000000;fill-opacity:1;fill-rule:nonzero;stroke:none"
     d="m 685.0401,1265.843 -60.0667,0 0,-87.7085 c 19.9427,2.4894 40.0987,2.4894 60.0667,0" />
  <path
     id="path15889"
     style="fill:#154889;fill-opacity:1;fill-rule:nonzero;stroke:none"
     d="m 833.9828,789.71717 c 79.912,98.92267 64.6,244.00533 -34.26,324.01073 -84.4067,68.328 -205.0214,68.328 -289.4587,0 l 56.3654,-56.4 c 37.8639,5.296 72.8279,-21.1521 78.1253,-59.07873 0.452,-3.156 0.6666,-6.38 0.6666,-9.568 l 0,-10.30667 25.9374,-25.90133 0,36.208 c 0,38.27603 31.0053,69.28673 69.224,69.28673 38.2186,0 69.224,-31.0107 69.224,-69.28673 l 0,-108.24 c 0,-17.70267 -6.7667,-34.73867 -18.9174,-47.624 z m -34.26,-34.32266 c -98.8587,-80.01067 -243.7813,-64.62934 -323.724,34.32266 -68.2347,84.46933 -68.2347,205.21466 0,289.72003 l 46.7027,-46.7347 c -8.7707,-10.688 -14.1614,-23.7653 -15.4374,-37.516 l 34.896,0 c 0.8654,4.56267 2.652,8.9013 5.2347,12.76 l 61.344,-61.37467 c -6.5054,-17.964 -26.38,-27.30666 -44.3747,-20.77066 -8.4226,3.09866 -15.376,9.31733 -19.3293,17.45333 l -33.7547,0 0,-129.964 129.7707,0 0,34.64667 -97.328,0 0,54.708 c 27.1827,-21.532 66.6093,-16.93733 88.1093,10.27067 1.604,1.97866 3.032,4.052 4.3387,6.188 l 35.188,-35.22 0,-3.44267 c 0,-38.28 31.0053,-69.31733 69.224,-69.31733 1.124,0 2.2706,0.032 3.38,0.0933" />
  <path
     id="path15891"
     style="fill:#c1121c;fill-opacity:1;fill-rule:nonzero;stroke:none"
     d="M 833.9828,789.71717 510.2641,1113.7279 c -12.572,-10.208 -24.0573,-21.724 -34.2653,-34.2907 l 323.724,-324.04269 c 12.604,10.204 24.0893,21.688 34.26,34.32266" />
  <path
     id="path15901"
     style="fill:#154889;fill-opacity:1;fill-rule:nonzero;stroke:none"
     d="m 705.9988,917.8585 60.3906,-60.51066 c 5.6774,6.344 8.8334,14.54133 8.8334,23.09333 l 0,108.24 c 0,19.17203 -15.5,34.67203 -34.64,34.67203 -19.1094,0 -34.584,-15.5 -34.584,-34.67203" />
</svg>
