<?xml version="1.0" encoding="UTF-8" standalone="no"?>
<svg
   xmlns:dc="http://purl.org/dc/elements/1.1/"
   xmlns:cc="http://creativecommons.org/ns#"
   xmlns:rdf="http://www.w3.org/1999/02/22-rdf-syntax-ns#"
   xmlns:svg="http://www.w3.org/2000/svg"
   xmlns="http://www.w3.org/2000/svg"
   viewBox="0 0 1251 1601.9473"
   height="1601.9473"
   width="1251"
   xml:space="preserve"
   version="1.1"
   id="svg32178"><metadata
     id="metadata32184"><rdf:RDF><cc:Work
         rdf:about=""><dc:format>image/svg+xml</dc:format><dc:type
           rdf:resource="http://purl.org/dc/dcmitype/StillImage" /><dc:title></dc:title></cc:Work></rdf:RDF></metadata><defs
     id="defs32182" /><g
     transform="matrix(1.25,0,0,-1.25,0,1601.9473)"
     id="g32186"><g
       id="g32188"><path
         id="path32190"
         style="fill:#ffffff;fill-opacity:1;fill-rule:nonzero;stroke:none"
         d="m 47.234,1281.159 c -25.828,0 -46.832,-21.007 -46.832,-46.836 l 0,-1187.066 C 0.402,21.429 21.406,0.402 47.234,0.402 l 906.332,0 c 25.829,0 46.836,21.027 46.836,46.855 l 0,1187.066 c 0,25.829 -21.007,46.836 -46.836,46.836 l -906.332,0 z" /><path
         id="path32192"
         style="fill:#000000;fill-opacity:1;fill-rule:nonzero;stroke:none"
         d="m 48.504,12.433 c -19.942,0 -36.106,16.183 -36.106,36.105 l 0,1184.539 c 0,19.922 16.164,36.082 36.106,36.082 l 903.793,0 c 19.941,0 36.105,-16.16 36.105,-36.082 l 0,-1184.539 c 0,-19.922 -16.164,-36.105 -36.105,-36.105" /><path
         id="path32194"
         style="fill:#ffffff;fill-opacity:1;fill-rule:nonzero;stroke:none"
         d="m 48.504,28.484 c -11.066,0 -20.055,8.961 -20.055,20.054 l 0,1184.539 c 0,11.071 8.989,20.055 20.055,20.055 l 903.793,0 c 11.07,0 20.055,-8.984 20.055,-20.055 l 0,-1184.539 c 0,-11.093 -8.985,-20.054 -20.055,-20.054" /><path
         id="path32196"
         style="fill:#000000;fill-opacity:1;fill-rule:nonzero;stroke:none"
         d="M 47.234,1281.558 C 21.191,1281.558 0,1260.366 0,1234.323 L 0,47.257 C 0,21.214 21.188,-0.001 47.234,-0.001 l 906.332,0 c 26.043,0 47.235,21.215 47.235,47.258 l 0,1187.066 c 0,26.043 -21.192,47.235 -47.235,47.235 l -906.332,0 z m 0,-0.399 906.332,0 c 25.829,0 46.832,-21.007 46.832,-46.836 l 0,-1187.066 c 0,-25.828 -21.003,-46.855 -46.832,-46.855 l -906.332,0 C 21.406,0.402 0.398,21.429 0.398,47.257 l 0,1187.066 c 0,25.829 21.008,46.836 46.836,46.836 z" /><path
         id="path32198"
         style="fill:#000000;fill-opacity:1;fill-rule:nonzero;stroke:none"
         d="m 244.434,1046.398 -36.043,-9.278 c -0.821,-0.226 -1.594,-0.32 -2.411,-0.32 -5.234,0 -9.605,4.277 -9.605,9.598 0,1.91 0.641,3.777 1.641,5.32 l 70.445,105.109 70.449,-105.015 c 1.047,-1.594 1.594,-3.414 1.594,-5.324 0,-5.321 -4.324,-9.594 -9.606,-9.594 -0.773,0 -1.589,0.043 -2.41,0.316 l -36.043,9.188 0,-921.668 -48.011,0 0,921.668 z" /><path
         id="path32200"
         style="fill:#000000;fill-opacity:1;fill-rule:nonzero;stroke:none"
         d="m 608.738,1156.823 -70.449,-105.105 c -1.047,-1.547 -1.637,-3.41 -1.637,-5.32 0,-5.321 4.325,-9.598 9.602,-9.598 0.82,0 1.594,0.094 2.414,0.32 l 36.043,9.278 0,-211.481 c 7.875,0.965 15.891,1.469 24.027,1.469 8.121,0 16.121,-0.504 23.981,-1.461 l 0,211.473 36.047,-9.188 c 0.816,-0.273 1.589,-0.316 2.41,-0.316 5.277,0 9.601,4.273 9.601,9.594 0,1.91 -0.547,3.73 -1.593,5.324 l -70.446,105.011 z m -24.027,-710.148 0,-321.945 48.008,0 0,321.941 c -7.86,-0.961 -15.86,-1.465 -23.981,-1.465 -8.136,0 -16.152,0.504 -24.027,1.469 z" /><path
         id="path32202"
         style="fill:#000000;fill-opacity:1;fill-rule:nonzero;stroke:none"
         d="m 608.738,826.972 c -102.941,0 -186.359,-83.367 -186.359,-186.199 0,-102.832 83.418,-186.196 186.359,-186.196 102.848,0 186.266,83.364 186.266,186.196 0,102.832 -83.418,186.199 -186.266,186.199 z m 0,-9.555 c 34.403,0 68.078,-10.051 96.84,-28.972 L 460.926,543.941 c -18.93,28.742 -28.942,62.445 -28.942,96.828 0,97.554 79.137,176.648 176.754,176.648 z m 104.387,-34.148 c 1.82,-1.363 3.641,-2.727 5.414,-4.137 L 470.246,530.988 c -1.457,1.82 -2.82,3.593 -4.141,5.457 l 246.973,246.777 0.047,0.047 z m 12.281,-9.93 0.047,0 c 1.684,-1.453 3.367,-3 4.961,-4.547 L 480.57,519.105 c -1.547,1.636 -3.047,3.273 -4.55,4.957 l 249.386,249.277 z m 11.383,-10.894 c 1.547,-1.637 3.094,-3.321 4.551,-5.004 L 491.91,508.159 c -1.683,1.504 -3.324,3.051 -5.008,4.594 l 249.887,249.692 z m 10.367,-11.918 c 1.364,-1.774 2.778,-3.59 4.141,-5.411 l -0.043,0 -246.977,-246.871 c -1.82,1.368 -3.64,2.731 -5.414,4.188 l 248.293,248.094 z m 9.328,-12.926 c 18.844,-28.742 28.946,-62.445 28.946,-96.828 0,-97.555 -79.141,-176.645 -176.711,-176.645 -34.449,0 -68.125,10.051 -96.887,28.969 l 244.609,244.461 0.043,0.043 z" /><path
         id="path32204"
         style="fill:#868786;fill-opacity:1;fill-rule:nonzero;stroke:none"
         d="m 622.176,603.398 26.988,26.968 0.043,-31.699 c 0,-14.918 12.063,-26.969 26.988,-26.969 14.926,0 26.985,12.051 26.985,26.969 l 0,84.231 c 0,0.457 -0.043,0.91 -0.043,1.32 l 21.797,21.785 c 3.461,-7.187 5.234,-15.101 5.234,-23.105 l 0,-84.231 c 0,-29.789 -24.211,-53.941 -53.973,-53.941 -29.855,0 -53.972,24.152 -53.972,53.941 l -0.047,4.731 z m 78.367,91.05 0,-0.042 c -0.957,2.089 -2.188,4.046 -3.688,5.82 l 19.114,19.101 c 1.5,-1.683 2.957,-3.41 4.277,-5.273 l -19.703,-19.606 z m -78.367,-68.812 26.988,26.973 0,-9.508 -26.988,-26.969 0,9.504 z m 67.762,80.41 c -2.047,1.274 -4.368,2.231 -6.645,2.867 l 20.344,20.375 c 2,-1.136 3.867,-2.457 5.687,-3.867 l -19.386,-19.375 z m -67.762,-58.121 26.988,26.922 0,-9.504 -26.988,-27.016 0,9.598 z m 0,22.238 65.531,65.446 c 2.504,-0.543 5.008,-1.274 7.328,-2.18 l -24.027,-24.063 c -10.742,-2.136 -19.207,-10.55 -21.301,-21.328 l -27.531,-27.425 0,9.55 z m 0.047,12.735 c 0,3.504 0.363,7.05 1,10.55 l 42.461,42.344 c 3.457,0.637 6.961,1 10.511,1 l 0.043,0 -54.062,-53.941 c 0,0 0,0.047 0.047,0.047 m 18.203,40.386 c -1.641,-1.453 -3.188,-3 -4.688,-4.683 l -0.047,0.047 4.735,4.636 z m -76.09,-98.238 c -1.731,1.5 -3.641,2.774 -5.691,3.82 l 36.773,36.793 c -3.094,-8.367 -8.512,-15.644 -15.43,-21.101 0.774,-0.5 1.504,-1.09 2.231,-1.684 l -17.883,-17.828 z m 9.008,-13.234 c -0.774,2.23 -1.821,4.41 -3.094,6.414 l 18.477,18.508 c 1.503,-1.727 2.914,-3.5 4.14,-5.411 l -19.523,-19.511 z m -2.094,-24.379 -0.043,0 c 2.273,4.094 3.504,8.644 3.688,13.234 l 22.523,22.516 c 1.004,-2.274 1.914,-4.594 2.551,-7.004 L 571.25,587.433 Z m 25.352,-9.594 C 590.91,565.558 581.035,555.734 568.84,550.05 l -0.047,0 27.809,27.789 z m -45.512,-32.746 0,-0.047 c -2.184,-0.226 -4.32,-0.363 -6.461,-0.363 -1.09,0 -2.231,0.043 -3.32,0.09 l 60.48,60.582 c 0.09,-1.137 0.137,-2.231 0.137,-3.367 l 0.043,0 c 0,-2.184 -0.137,-4.321 -0.364,-6.457 L 551.09,545.093 Z m -20.84,1.41 c -2.414,0.637 -4.781,1.453 -7.145,2.363 l 22.844,22.832 c 4.641,0.227 9.149,1.454 13.199,3.684 L 530.25,546.503 Z m -15.609,6.637 c -1.957,1.183 -3.871,2.504 -5.598,3.914 l 19.34,19.375 c 2.004,-1.32 4.187,-2.367 6.461,-3.141 L 514.641,553.14 Z m -12.243,10.008 c -1.503,1.683 -2.957,3.41 -4.234,5.277 l 19.57,19.555 c 1.047,-2.047 2.368,-3.957 3.825,-5.684 l -19.161,-19.148 z m 69.172,119.75 c 0,14.871 -12.058,26.925 -26.941,26.925 -14.926,0 -26.984,-12.054 -26.984,-26.925 0,-14.871 12.058,-26.969 26.984,-26.969 14.883,0 26.941,12.098 26.941,26.969 m -78.183,-106.563 -0.047,0 c -4.004,7.961 -6.098,16.738 -6.098,25.653 l 0.047,0 c 0,16.918 8.145,32.746 21.981,42.57 -11.786,9.234 -18.614,23.379 -18.614,38.34 0,29.789 24.121,53.894 53.973,53.894 29.762,0 53.93,-24.105 53.93,-53.894 l 0,-1.41 -49.516,-49.481 c -1.5,0.227 -2.957,0.363 -4.414,0.363 -16.793,0 -30.356,-13.644 -30.356,-30.382 0,-1.5 0.094,-2.957 0.274,-4.411 l -21.16,-21.242 z" /></g></g></svg>