<?xml version="1.0" encoding="UTF-8" standalone="no"?>
<svg
   xmlns:dc="http://purl.org/dc/elements/1.1/"
   xmlns:cc="http://creativecommons.org/ns#"
   xmlns:rdf="http://www.w3.org/1999/02/22-rdf-syntax-ns#"
   xmlns:svg="http://www.w3.org/2000/svg"
   xmlns="http://www.w3.org/2000/svg"
   viewBox="0 0 1251 1601.9473"
   height="1601.9473"
   width="1251"
   xml:space="preserve"
   version="1.1"
   id="svg8239"><metadata
     id="metadata8245"><rdf:RDF><cc:Work
         rdf:about=""><dc:format>image/svg+xml</dc:format><dc:type
           rdf:resource="http://purl.org/dc/dcmitype/StillImage" /><dc:title></dc:title></cc:Work></rdf:RDF></metadata><defs
     id="defs8243" /><g
     transform="matrix(1.25,0,0,-1.25,0,1601.9473)"
     id="g8247"><g
       id="g8249"><path
         id="path8251"
         style="fill:#ffffff;fill-opacity:1;fill-rule:nonzero;stroke:none"
         d="m 47.234,1281.159 c -25.828,0 -46.832,-21.007 -46.832,-46.836 l 0,-1187.066 C 0.402,21.429 21.406,0.402 47.234,0.402 l 906.332,0 c 25.829,0 46.836,21.027 46.836,46.855 l 0,1187.066 c 0,25.829 -21.007,46.836 -46.836,46.836 l -906.332,0 z" /><path
         id="path8253"
         style="fill:#000000;fill-opacity:1;fill-rule:nonzero;stroke:none"
         d="m 48.504,12.433 c -19.942,0 -36.106,16.183 -36.106,36.105 l 0,1184.539 c 0,19.922 16.164,36.082 36.106,36.082 l 903.793,0 c 19.941,0 36.105,-16.16 36.105,-36.082 l 0,-1184.539 c 0,-19.922 -16.164,-36.105 -36.105,-36.105" /><path
         id="path8255"
         style="fill:#ffffff;fill-opacity:1;fill-rule:nonzero;stroke:none"
         d="m 48.504,28.484 c -11.066,0 -20.055,8.961 -20.055,20.054 l 0,1184.539 c 0,11.071 8.989,20.055 20.055,20.055 l 903.793,0 c 11.07,0 20.055,-8.984 20.055,-20.055 l 0,-1184.539 c 0,-11.093 -8.985,-20.054 -20.055,-20.054" /><path
         id="path8257"
         style="fill:#000000;fill-opacity:1;fill-rule:nonzero;stroke:none"
         d="M 47.234,1281.558 C 21.191,1281.558 0,1260.366 0,1234.323 L 0,47.257 C 0,21.214 21.188,-0.001 47.234,-0.001 l 906.332,0 c 26.043,0 47.235,21.215 47.235,47.258 l 0,1187.066 c 0,26.043 -21.192,47.235 -47.235,47.235 l -906.332,0 z m 0,-0.399 906.332,0 c 25.829,0 46.832,-21.007 46.832,-46.836 l 0,-1187.066 c 0,-25.828 -21.003,-46.855 -46.832,-46.855 l -906.332,0 C 21.406,0.402 0.398,21.429 0.398,47.257 l 0,1187.066 c 0,25.829 21.008,46.836 46.836,46.836 z" /><path
         id="path8259"
         style="fill:#000000;fill-opacity:1;fill-rule:nonzero;stroke:none"
         d="m 768.191,1044.706 -0.136,-430.484 c -7.871,0.953 -15.836,1.453 -23.844,1.453 -7.961,0 -15.926,-0.5 -23.844,-1.453 l -0.137,430.484 -36.035,-9.265 c -0.82,-0.227 -1.593,-0.317 -2.414,-0.317 -5.277,0 -9.601,4.27 -9.601,9.582 0,1.864 0.547,3.723 1.593,5.313 l 70.438,104.953 70.437,-104.953 c 1.047,-1.59 1.594,-3.449 1.594,-5.313 0,-5.312 -4.277,-9.582 -9.554,-9.582 -0.821,0 -1.641,0.09 -2.415,0.317 l -36.082,9.265 z" /><path
         id="path8261"
         style="fill:#000000;fill-opacity:1;fill-rule:nonzero;stroke:none"
         d="m 720.352,225.659 c 7.964,-0.953 15.878,-1.453 23.89,-1.453 7.961,0 15.926,0.5 23.797,1.453 l 0.09,-101.363 -47.777,0 c 0,0 -0.137,0.043 0,101.363" /><path
         id="path8263"
         style="fill:#000000;fill-opacity:1;fill-rule:nonzero;stroke:none"
         d="m 496.055,1044.706 -0.137,-86.922 c -7.918,0.954 -15.883,1.454 -23.844,1.454 -7.965,0 -15.972,-0.5 -23.89,-1.454 l -0.09,86.922 -36.082,-9.265 c -0.774,-0.227 -1.547,-0.317 -2.414,-0.317 -5.278,0 -9.555,4.27 -9.555,9.582 0,1.864 0.547,3.723 1.594,5.313 l 70.437,104.953 70.391,-104.953 c 1.094,-1.59 1.594,-3.449 1.594,-5.313 0,-5.312 -4.231,-9.582 -9.555,-9.582 -0.82,0 -1.641,0.09 -2.367,0.317 l -36.082,9.265 z" /><path
         id="path8265"
         style="fill:#000000;fill-opacity:1;fill-rule:nonzero;stroke:none"
         d="m 448.203,569.218 c 7.918,-0.996 15.879,-1.453 23.891,-1.453 7.914,0 15.926,0.457 23.84,1.453 l 0.136,-444.609 -47.683,-0.274 c 0,0 -0.321,0 -0.184,444.883" /><path
         id="path8267"
         style="fill:#000000;fill-opacity:1;fill-rule:nonzero;stroke:none"
         d="m 223.906,1044.706 0,-920.375 -48.008,0 0,920.375 -36.035,-9.265 c -0.82,-0.227 -1.593,-0.317 -2.414,-0.317 -5.277,0 -9.601,4.27 -9.601,9.582 0,1.864 0.593,3.723 1.64,5.313 l 70.391,104.953 70.437,-104.953 c 1.094,-1.59 1.594,-3.449 1.594,-5.313 0,-5.312 -4.277,-9.582 -9.555,-9.582 -0.82,0 -1.593,0.09 -2.414,0.317 l -36.035,9.265 z" /><path
         id="path8269"
         style="fill:#000000;fill-opacity:1;fill-rule:nonzero;stroke:none"
         d="m 930.539,419.941 c 0,-102.684 -83.449,-185.926 -186.332,-185.926 -102.836,0 -186.285,83.242 -186.285,185.926 0,102.683 83.449,185.972 186.285,185.972 102.883,0 186.332,-83.289 186.332,-185.972" /><path
         id="path8271"
         style="fill:#ffffff;fill-opacity:1;fill-rule:nonzero;stroke:none"
         d="M 841.07,567.421 596.449,323.226 c -18.883,28.746 -28.894,62.355 -28.894,96.734 0,97.367 79.086,176.344 176.687,176.344 34.399,0 68.07,-10.035 96.828,-28.883 z" /><path
         id="path8273"
         style="fill:#ffffff;fill-opacity:1;fill-rule:nonzero;stroke:none"
         d="m 848.613,562.222 c 1.867,-1.32 3.641,-2.727 5.414,-4.133 L 605.812,310.351 c -1.41,1.769 -2.82,3.586 -4.14,5.402 l 246.941,246.469 z" /><path
         id="path8275"
         style="fill:#ffffff;fill-opacity:1;fill-rule:nonzero;stroke:none"
         d="m 860.953,552.32 0.047,0 c 1.684,-1.454 3.32,-2.997 4.914,-4.539 L 616.152,298.452 c -1.547,1.633 -3.05,3.27 -4.597,4.996 L 860.953,552.32 Z" /><path
         id="path8277"
         style="fill:#ffffff;fill-opacity:1;fill-rule:nonzero;stroke:none"
         d="M 876.844,536.46 627.445,287.542 c -1.683,1.5 -3.32,3 -4.961,4.586 L 872.34,541.456 c 1.547,-1.633 3.047,-3.269 4.551,-4.996 l -0.047,0 z" /><path
         id="path8279"
         style="fill:#ffffff;fill-opacity:1;fill-rule:nonzero;stroke:none"
         d="M 886.781,524.128 639.793,277.659 c -1.82,1.321 -3.594,2.727 -5.367,4.133 l 248.215,247.739 c 1.41,-1.77 2.82,-3.543 4.14,-5.403 z" /><path
         id="path8281"
         style="fill:#ffffff;fill-opacity:1;fill-rule:nonzero;stroke:none"
         d="m 647.387,272.484 244.578,244.148 0.043,0.047 c 18.84,-28.746 28.894,-62.356 28.894,-96.734 0,-97.414 -79.082,-176.344 -176.683,-176.344 -34.446,0 -68.117,10.035 -96.832,28.883" /><path
         id="path8283"
         style="fill:#868786;fill-opacity:1;fill-rule:nonzero;stroke:none"
         d="m 757.723,382.624 26.984,26.977 0,-31.699 c 0,-14.899 12.055,-26.934 26.938,-26.934 14.921,0 26.98,12.035 26.98,26.934 l 0.047,84.105 c 0,0.457 0,0.91 -0.047,1.363 l 21.797,21.754 c 3.414,-7.222 5.187,-15.121 5.187,-23.117 l 0,-84.105 c 0,-29.746 -24.164,-53.864 -53.964,-53.864 -29.762,0 -53.922,24.118 -53.922,53.864 l 0,4.722 z m 78.308,90.918 0,-0.043 c -0.953,2.133 -2.183,4.039 -3.683,5.813 l 19.109,19.074 c 1.5,-1.637 2.914,-3.406 4.277,-5.27 l -19.703,-19.574 z m -78.308,-68.664 26.984,26.883 0,-9.492 -26.984,-26.977 0,9.586 z m 67.754,80.293 -0.047,-0.047 c -2.094,1.274 -4.325,2.227 -6.688,2.864 l 20.43,20.39 c 1.957,-1.183 3.867,-2.5 5.64,-3.863 l -19.335,-19.344 z m -67.754,-58.086 26.984,26.93 0,-9.535 -26.984,-26.934 0,9.539 z m 0,22.207 65.476,65.352 c 2.457,-0.543 4.961,-1.27 7.328,-2.133 L 806.5,488.441 c -10.785,-2.09 -19.203,-10.539 -21.293,-21.254 l -27.484,-27.43 0,9.535 z m 0,12.715 c 0,3.543 0.363,7.039 1.047,10.492 l 42.363,42.328 c 3.457,0.68 7.008,1.043 10.512,1.043 l 0.089,0 -54.011,-53.906 0,0.043 z m 18.199,40.328 c -1.59,-1.453 -3.184,-2.996 -4.641,-4.629 l -0.043,0 c 0,0 4.684,4.676 4.684,4.629 m -76.078,-98.094 c -1.684,1.5 -3.641,2.77 -5.688,3.86 l 36.809,36.648 c -3.137,-8.265 -8.461,-15.531 -15.469,-21.027 l 0.047,0 c 0.773,-0.543 1.5,-1.09 2.227,-1.633 l -17.926,-17.848 z m 9.008,-13.214 c -0.774,2.222 -1.821,4.402 -3.094,6.402 l 18.472,18.484 c 1.551,-1.726 2.961,-3.496 4.188,-5.359 l -19.566,-19.527 z m -2.094,-24.344 0,0.047 c 2.23,4.039 3.461,8.582 3.687,13.168 l 22.524,22.48 c 1,-2.269 1.867,-4.586 2.547,-6.992 l -28.758,-28.703 z m 25.347,-9.582 c -5.687,-12.219 -15.515,-22.07 -27.757,-27.75 l 27.757,27.75 z m -45.503,-32.699 0,-0.047 c -2.094,-0.227 -4.278,-0.364 -6.461,-0.364 -1.094,0 -2.231,0.047 -3.321,0.094 l 60.516,60.446 c 0.094,-1.09 0.137,-2.18 0.137,-3.317 0,-2.133 -0.09,-4.266 -0.364,-6.449 l -50.507,-50.363 z m -20.793,1.453 0,-0.047 c -2.457,0.637 -4.825,1.41 -7.145,2.363 l 22.797,22.844 c 4.641,0.18 9.144,1.453 13.242,3.68 l -28.894,-28.84 z m -15.61,6.586 c -1.957,1.179 -3.82,2.496 -5.64,3.906 l 19.336,19.301 c 2.003,-1.274 4.187,-2.27 6.46,-3.09 l -20.156,-20.117 z m -12.238,10.035 c -1.547,1.637 -2.961,3.406 -4.277,5.222 l 19.566,19.532 c 1.047,-2.047 2.363,-3.953 3.82,-5.68 l -19.109,-19.074 z m 69.164,119.531 c 0,14.899 -12.059,26.934 -26.984,26.934 -14.926,0 -26.985,-12.035 -26.985,-26.934 0,-14.848 12.059,-26.93 26.985,-26.93 14.925,0 26.984,12.082 26.984,26.93 m -78.266,-106.406 -0.047,0 c -3.957,7.949 -6.003,16.758 -6.003,25.613 0,16.895 8.144,32.746 21.929,42.508 -11.738,9.266 -18.562,23.391 -18.562,38.285 0,29.746 24.207,53.863 53.965,53.863 29.757,0 53.964,-24.117 53.964,-53.863 0,-0.453 0,-0.953 -0.043,-1.406 l -49.464,-49.41 c -1.5,0.226 -2.957,0.316 -4.457,0.316 -16.746,0 -30.305,-13.578 -30.305,-30.293 0,-1.453 0.09,-2.949 0.316,-4.402 l -21.293,-21.211 z" /><path
         id="path8285"
         style="fill:#000000;fill-opacity:1;fill-rule:nonzero;stroke:none"
         d="m 658.348,763.499 c 0,-102.73 -83.407,-185.972 -186.243,-185.972 -102.925,0 -186.332,83.242 -186.332,185.972 0,102.684 83.407,185.926 186.332,185.926 102.836,0 186.243,-83.242 186.243,-185.926" /><path
         id="path8287"
         style="fill:#ffffff;fill-opacity:1;fill-rule:nonzero;stroke:none"
         d="M 568.922,910.937 324.301,666.788 c -18.883,28.746 -28.938,62.356 -28.938,96.735 0,97.367 79.082,176.3 176.731,176.3 34.398,0 68.07,-10.039 96.828,-28.839 l 0,-0.047 z" /><path
         id="path8289"
         style="fill:#ffffff;fill-opacity:1;fill-rule:nonzero;stroke:none"
         d="m 576.465,905.753 c 1.82,-1.32 3.64,-2.68 5.414,-4.09 L 333.617,653.882 c -1.363,1.77 -2.773,3.586 -4.094,5.402 l 246.942,246.469 z" /><path
         id="path8291"
         style="fill:#ffffff;fill-opacity:1;fill-rule:nonzero;stroke:none"
         d="m 588.805,895.851 c 1.683,-1.5 3.324,-2.996 4.961,-4.543 L 344.004,641.984 c -1.547,1.632 -3.051,3.269 -4.551,4.996 l 249.352,248.871 z" /><path
         id="path8293"
         style="fill:#ffffff;fill-opacity:1;fill-rule:nonzero;stroke:none"
         d="M 604.691,879.968 355.34,631.097 c -1.731,1.5 -3.367,2.996 -5.008,4.543 l 249.809,249.324 c 1.547,-1.59 3.05,-3.269 4.597,-4.996 l -0.047,0 z" /><path
         id="path8295"
         style="fill:#ffffff;fill-opacity:1;fill-rule:nonzero;stroke:none"
         d="M 614.633,867.659 367.645,621.191 c -1.821,1.316 -3.641,2.726 -5.368,4.132 l 248.215,247.739 c 1.457,-1.77 2.778,-3.586 4.141,-5.403 z" /><path
         id="path8297"
         style="fill:#ffffff;fill-opacity:1;fill-rule:nonzero;stroke:none"
         d="m 375.199,616.038 244.621,244.102 0,0.047 c 18.883,-28.746 28.942,-62.356 28.942,-96.688 0,-97.414 -79.086,-176.39 -176.688,-176.39 -34.445,0 -68.117,10.035 -96.875,28.929" /><path
         id="path8299"
         style="fill:#868786;fill-opacity:1;fill-rule:nonzero;stroke:none"
         d="m 485.578,726.175 26.981,26.934 -0.043,-31.7 c 0,-14.851 12.101,-26.933 26.98,-26.933 14.926,0 26.938,12.082 26.938,26.933 l 0.093,84.106 c 0,0.5 -0.047,0.957 -0.047,1.41 l 21.797,21.707 c 3.368,-7.176 5.188,-15.078 5.188,-23.117 l 0,-84.106 c 0,-29.703 -24.164,-53.816 -53.969,-53.816 -29.801,0 -53.918,24.113 -53.918,53.816 l 0,4.766 z m 78.309,90.875 -0.047,0 c -0.953,2.09 -2.184,4.043 -3.684,5.816 l 19.156,19.075 c 1.5,-1.684 2.911,-3.407 4.231,-5.27 L 563.887,817.05 Z m -78.309,-68.664 26.981,26.93 0,-9.539 -26.981,-26.93 0,9.539 z m 67.754,80.293 c -2.094,1.227 -4.324,2.18 -6.691,2.816 l 20.339,20.391 c 2.004,-1.184 3.915,-2.453 5.688,-3.863 l -19.336,-19.344 z m -67.754,-58.086 26.981,26.93 0,-9.492 -26.981,-26.93 0,9.492 z m 0,22.207 65.477,65.398 c 2.504,-0.546 4.961,-1.273 7.418,-2.179 l -24.118,-24.028 c -10.785,-2.132 -19.203,-10.535 -21.293,-21.296 l -27.484,-27.387 0,9.492 z m 0,12.715 c 0,3.543 0.363,7.039 1.047,10.539 l 42.406,42.281 c 3.461,0.727 7.008,1.043 10.512,1.043 l 0.09,0 -54.055,-53.863 z m 18.199,40.375 c -1.636,-1.453 -3.183,-2.996 -4.64,-4.676 l -0.047,0.043 4.687,4.633 m -76.078,-98.094 c -1.73,1.453 -3.64,2.723 -5.687,3.813 l 36.765,36.695 c -3.093,-8.266 -8.418,-15.578 -15.425,-21.027 l 0.043,0 c 0.773,-0.543 1.503,-1.09 2.23,-1.68 l -17.926,-17.801 z m 9.008,-13.262 c -0.773,2.27 -1.82,4.403 -3.094,6.45 l 18.52,18.437 c 1.5,-1.68 2.867,-3.496 4.14,-5.312 l -19.566,-19.575 z m -2.094,-24.296 c 2.231,4.085 3.461,8.582 3.688,13.214 l 22.523,22.481 c 0.957,-2.27 1.864,-4.633 2.504,-7.039 l -28.715,-28.656 z m 25.348,-9.582 c -5.691,-12.266 -15.52,-22.075 -27.758,-27.75 l -0.047,0 27.805,27.75 z m -45.504,-32.747 0,-0.046 c -2.141,-0.227 -4.277,-0.317 -6.461,-0.317 -1.137,0 -2.23,0.047 -3.324,0.09 l 60.609,60.449 c 0.047,-1.09 0.094,-2.179 0.094,-3.316 l -0.047,0 c 0,-2.133 -0.09,-4.313 -0.316,-6.492 l -50.555,-50.368 z m -20.793,1.454 c -2.461,0.589 -4.824,1.41 -7.144,2.363 l 22.796,22.797 c 4.641,0.183 9.145,1.453 13.239,3.679 l -28.891,-28.839 z m -15.609,6.585 -0.047,0 c -1.91,1.227 -3.82,2.543 -5.594,3.95 l 19.336,19.304 c 2.004,-1.273 4.188,-2.316 6.508,-3.089 l -20.203,-20.165 z m -12.196,10.036 c -1.636,1.679 -3.004,3.406 -4.367,5.222 l 19.61,19.575 c 1.046,-2.043 2.367,-3.95 3.824,-5.723 l -19.067,-19.074 z m 69.118,119.531 c 0,14.898 -12.055,26.933 -26.981,26.933 -14.926,0 -26.984,-12.035 -26.984,-26.933 0,-14.805 12.058,-26.883 26.984,-26.883 14.926,0 26.981,12.078 26.981,26.883 M 356.715,699.156 c -4.004,7.945 -6.051,16.71 -6.051,25.613 0,16.847 8.145,32.699 21.93,42.508 -11.739,9.265 -18.61,23.343 -18.61,38.238 l 0.047,0 c 0,29.793 24.16,53.863 53.965,53.863 29.805,0 53.965,-24.07 53.965,-53.863 0,-0.406 0,-0.906 -0.047,-1.359 l -49.461,-49.415 c -1.5,0.184 -2.957,0.321 -4.457,0.321 -16.746,0 -30.351,-13.582 -30.351,-30.293 0,-1.5 0.136,-2.953 0.363,-4.406 l -21.293,-21.207 z" /></g></g></svg>