<?xml version="1.0" standalone="no"?>
<!DOCTYPE svg PUBLIC "-//W3C//DTD SVG 1.1//EN" "http://www.w3.org/Graphics/SVG/1.1/DTD/svg11.dtd">
<svg width="1250" height="1600" version="1.1" xmlns="http://www.w3.org/2000/svg">
<path fill="white" stroke="black" stroke-width="1" d="M60 1600A60 60 0 0 1 0 1540L0 60A60 60 0 0 1 60 0L1190 0A60 60 0 0 1 1250 60L1250 1540A60 60 0 0 1 1190 1600L60 1600Z" />
<path fill="black" stroke="none" d="M60 1585A45 45 0 0 1 15 1540L15 60A45 45 0 0 1 60 15L1190 15A45 45 0 0 1 1235 60L1235 1540A45 45 0 0 1 1190 1585L60 1585Z" />
<path fill="white" stroke="none" d="M60 1565A25 25 0 0 1 35 1540L35 60A25 25 0 0 1 60 35L1190 35A25 25 0 0 1 1215 60L1215 1540A25 25 0 0 1 1190 1565L60 1565Z" />
<path fill="black" stroke="none" fill-rule="evenodd" d="M355 293L399.999901076814 304.618924496316A12 12 0 0 0 414.562333240056 289.788699633188A12 12 0 0 0 412.971231041917 286.323582434515L325 155L237.028768958083 286.323582434515A12 12 0 0 0 246.203668302975 304.973548172046A12 12 0 0 0 250.000098923186 304.618924496316L295 293L295 1445L355 1445L355 293ZM655 293L699.999901076814 304.618924496316A12 12 0 0 0 714.562333240056 289.788699633188A12 12 0 0 0 712.971231041917 286.323582434515L625 155L537.028768958084 286.323582434515A12 12 0 0 0 546.203668302975 304.973548172046A12 12 0 0 0 550.000098923186 304.618924496316L595 293L595 1445L655 1445L655 293ZM955 293L999.999901076814 304.618924496316A12 12 0 0 0 1014.56233324006 289.788699633188A12 12 0 0 0 1012.97123104192 286.323582434515L925 155L837.028768958083 286.323582434515A12 12 0 0 0 846.203668302975 304.973548172046A12 12 0 0 0 850.000098923186 304.618924496316L895 293L895 715.29A60 60 0 0 1 877.426406871193 757.716406871193L715 920.15L715 1005L919.852813742386 800.142813742386A120 120 0 0 0 955 715.29L955 293Z" />
</svg>
