<?xml version="1.0" standalone="no"?>
<!DOCTYPE svg PUBLIC "-//W3C//DTD SVG 1.1//EN" "http://www.w3.org/Graphics/SVG/1.1/DTD/svg11.dtd">
<svg width="1250" height="1600" version="1.1" xmlns="http://www.w3.org/2000/svg">
<path fill="white" stroke="black" stroke-width="1" d="M60 1600A60 60 0 0 1 0 1540L0 60A60 60 0 0 1 60 0L1190 0A60 60 0 0 1 1250 60L1250 1540A60 60 0 0 1 1190 1600L60 1600Z" />
<path fill="black" stroke="none" d="M60 1585A45 45 0 0 1 15 1540L15 60A45 45 0 0 1 60 15L1190 15A45 45 0 0 1 1235 60L1235 1540A45 45 0 0 1 1190 1585L60 1585Z" />
<path fill="white" stroke="none" d="M60 1565A25 25 0 0 1 35 1540L35 60A25 25 0 0 1 60 35L1190 35A25 25 0 0 1 1215 60L1215 1540A25 25 0 0 1 1190 1565L60 1565Z" />
<path fill="black" stroke="none" fill-rule="evenodd" d="M505 293L549.999901076814 304.618924496316A12 12 0 0 0 564.562333240056 289.788699633188A12 12 0 0 0 562.971231041916 286.323582434515L475 155L387.028768958084 286.323582434515A12 12 0 0 0 396.203668302975 304.973548172046A12 12 0 0 0 400.000098923186 304.618924496316L445 293L445 1445L505 1445L505 293ZM805 293L849.999901076814 304.618924496316A12 12 0 0 0 864.562333240056 289.788699633188A12 12 0 0 0 862.971231041917 286.323582434515L775 155L687.028768958083 286.323582434515A12 12 0 0 0 696.203668302975 304.973548172046A12 12 0 0 0 700.000098923186 304.618924496316L745 293L745 715.29A60 60 0 0 1 727.426406871193 757.716406871193L565 920.15L565 1005L769.852813742386 800.142813742386A120 120 0 0 0 805 715.29L805 293Z" />
</svg>
