<?xml version="1.0" standalone="no"?>
<!DOCTYPE svg PUBLIC "-//W3C//DTD SVG 1.1//EN" "http://www.w3.org/Graphics/SVG/1.1/DTD/svg11.dtd">
<svg width="1250" height="1600" version="1.1" xmlns="http://www.w3.org/2000/svg">
<path fill="white" stroke="black" stroke-width="1" d="M60 1600A60 60 0 0 1 0 1540L0 60A60 60 0 0 1 60 0L1190 0A60 60 0 0 1 1250 60L1250 1540A60 60 0 0 1 1190 1600L60 1600Z" />
<path fill="black" stroke="none" d="M60 1585A45 45 0 0 1 15 1540L15 60A45 45 0 0 1 60 15L1190 15A45 45 0 0 1 1235 60L1235 1540A45 45 0 0 1 1190 1585L60 1585Z" />
<path fill="white" stroke="none" d="M60 1565A25 25 0 0 1 35 1540L35 60A25 25 0 0 1 60 35L1190 35A25 25 0 0 1 1215 60L1215 1540A25 25 0 0 1 1190 1565L60 1565Z" />
<path fill="black" stroke="none" fill-rule="evenodd" d="M295 293L250.000098923186 304.618924496316A12 12 0 0 1 235.437666759944 289.788699633188A12 12 0 0 1 237.028768958083 286.323582434515L325 155L412.971231041917 286.323582434515A12 12 0 0 1 403.796331697025 304.973548172046A12 12 0 0 1 399.999901076814 304.618924496316L355 293L355 715.29A60 60 0 0 0 372.573593128807 757.716406871193L535 920.15L535 1005L330.147186257614 800.142813742386A120 120 0 0 1 295 715.29L295 293ZM595 293L550.000098923186 304.618924496316A12 12 0 0 1 535.437666759944 289.788699633188A12 12 0 0 1 537.028768958084 286.323582434515L625 155L712.971231041917 286.323582434515A12 12 0 0 1 703.796331697025 304.973548172046A12 12 0 0 1 699.999901076814 304.618924496316L655 293L655 1445L595 1445L595 293ZM895 293L850.000098923186 304.618924496316A12 12 0 0 1 835.437666759944 289.788699633188A12 12 0 0 1 837.028768958083 286.323582434515L925 155L1012.97123104192 286.323582434515A12 12 0 0 1 1003.79633169702 304.973548172046A12 12 0 0 1 999.999901076814 304.618924496316L955 293L955 1445L895 1445L895 293Z" />
</svg>
