<?xml version="1.0" standalone="no"?>
<!DOCTYPE svg PUBLIC "-//W3C//DTD SVG 1.1//EN" "http://www.w3.org/Graphics/SVG/1.1/DTD/svg11.dtd">
<svg width="1250" height="1600" version="1.1" xmlns="http://www.w3.org/2000/svg">
<path fill="white" stroke="black" stroke-width="1" d="M60 1600A60 60 0 0 1 0 1540L0 60A60 60 0 0 1 60 0L1190 0A60 60 0 0 1 1250 60L1250 1540A60 60 0 0 1 1190 1600L60 1600Z" />
<path fill="black" stroke="none" d="M60 1585A45 45 0 0 1 15 1540L15 60A45 45 0 0 1 60 15L1190 15A45 45 0 0 1 1235 60L1235 1540A45 45 0 0 1 1190 1585L60 1585Z" />
<path fill="white" stroke="none" d="M60 1565A25 25 0 0 1 35 1540L35 60A25 25 0 0 1 60 35L1190 35A25 25 0 0 1 1215 60L1215 1540A25 25 0 0 1 1190 1565L60 1565Z" />
<path fill="black" stroke="none" fill-rule="evenodd" d="M335 1307L379.999901076814 1295.38107550368A12 12 0 0 1 394.562333240056 1310.21130036681A12 12 0 0 1 392.971231041917 1313.67641756549L305 1445L217.028768958083 1313.67641756549A12 12 0 0 1 226.203668302975 1295.02645182795A12 12 0 0 1 230.000098923186 1295.38107550368L275 1307L275 335L335 335L335 1307ZM615 293L570.000098923186 304.618924496316A12 12 0 0 1 555.437666759944 289.788699633188A12 12 0 0 1 557.028768958084 286.323582434515L645 155L732.971231041917 286.323582434515A12 12 0 0 1 723.796331697025 304.973548172046A12 12 0 0 1 719.999901076814 304.618924496316L675 293L675 715.29A60 60 0 0 0 692.573593128807 757.716406871193L855 920.15L855 1005L650.147186257614 800.142813742386A120 120 0 0 1 615 715.29L615 293ZM915 293L870.000098923186 304.618924496316A12 12 0 0 1 855.437666759944 289.788699633188A12 12 0 0 1 857.028768958083 286.323582434515L945 155L1032.97123104192 286.323582434515A12 12 0 0 1 1023.79633169702 304.973548172046A12 12 0 0 1 1019.99990107681 304.618924496316L975 293L975 1445L915 1445L915 293Z" />
</svg>
