<?xml version="1.0" encoding="UTF-8" standalone="no"?>
<svg
   xmlns:dc="http://purl.org/dc/elements/1.1/"
   xmlns:cc="http://creativecommons.org/ns#"
   xmlns:rdf="http://www.w3.org/1999/02/22-rdf-syntax-ns#"
   xmlns:svg="http://www.w3.org/2000/svg"
   xmlns="http://www.w3.org/2000/svg"
   viewBox="0 0 1250 1600"
   height="1600"
   width="1250"
   xml:space="preserve"
   version="1.1"
   id="svg33420"><metadata
     id="metadata33426"><rdf:RDF><cc:Work
         rdf:about=""><dc:format>image/svg+xml</dc:format><dc:type
           rdf:resource="http://purl.org/dc/dcmitype/StillImage" /><dc:title></dc:title></cc:Work></rdf:RDF></metadata><defs
     id="defs33424" /><g
     transform="matrix(1.25,0,0,-1.25,0,1600)"
     id="g33428"><g
       id="g33430"><g
         transform="matrix(1,0,0,-1,0,1280)"
         id="g33432"><path
           id="path33434"
           style="fill:#ffffff;fill-opacity:1;fill-rule:nonzero;stroke:#000000;stroke-width:0.80000001;stroke-linecap:butt;stroke-linejoin:miter;stroke-miterlimit:4;stroke-dasharray:none;stroke-opacity:1"
           d="M 48,1280 C 21.492,1280 0,1258.508 0,1232 L 0,48 C 0,21.492 21.492,0 48,0 l 904,0 c 26.508,0 48,21.492 48,48 l 0,1184 c 0,26.508 -21.492,48 -48,48 l -904,0 z" /></g><path
         id="path33436"
         style="fill:#000000;fill-opacity:1;fill-rule:nonzero;stroke:none"
         d="M 48,12 C 28.117,12 12,28.117 12,48 l 0,1184 c 0,19.883 16.117,36 36,36 l 904,0 c 19.883,0 36,-16.117 36,-36 L 988,48 C 988,28.117 971.883,12 952,12 L 48,12 Z" /><path
         id="path33438"
         style="fill:#ffffff;fill-opacity:1;fill-rule:nonzero;stroke:none"
         d="M 48,28 C 36.953,28 28,36.953 28,48 l 0,1184 c 0,11.047 8.953,20 20,20 l 904,0 c 11.047,0 20,-8.953 20,-20 L 972,48 C 972,36.953 963.047,28 952,28 L 48,28 Z" /><path
         id="path33440"
         style="fill:#000000;fill-opacity:1;fill-rule:evenodd;stroke:none"
         d="m 228,1045.602 -36,-9.297 c -7.156,-1.848 -13.629,4.742 -11.648,11.863 0.273,0.988 0.703,1.922 1.269,2.773 L 252,1156 322.379,1050.941 c 4.109,-6.14 0.031,-14.429 -7.344,-14.921 -1.019,-0.067 -2.043,0.031 -3.035,0.285 l -36,9.297 -0.18,-23.055 c -15.82,1.937 -31.82,1.937 -47.64,0 L 228,1045.602 Z M 452,347.879 452,280 256.117,475.887 C 238.113,493.891 228,518.309 228,543.77 l 0.18,89.683 c 15.82,-1.937 31.82,-1.937 47.64,0 L 276,543.77 c 0,-12.731 5.059,-24.942 14.059,-33.942 L 452,347.879 Z m 84,697.723 -36,-9.297 c -7.156,-1.848 -13.629,4.742 -11.648,11.863 0.273,0.988 0.703,1.922 1.269,2.773 L 560,1156 630.379,1050.941 c 4.109,-6.14 0.031,-14.429 -7.344,-14.921 -1.019,-0.067 -2.043,0.031 -3.035,0.285 l -36,9.297 -0.18,-299.055 c -15.82,1.937 -31.82,1.937 -47.64,0 L 536,1045.602 Z M 584,124 l -48,0 0.18,233.453 c 15.82,-1.937 31.82,-1.937 47.64,0 L 584,124 Z m 228,921.602 -36,-9.297 c -7.156,-1.848 -13.629,4.742 -11.648,11.863 0.273,0.988 0.703,1.922 1.269,2.773 L 836,1156 906.379,1050.941 c 4.109,-6.14 0.031,-14.429 -7.344,-14.921 -1.019,-0.067 -2.043,0.031 -3.035,0.285 l -36,9.297 0,-921.602 -48,0 0,921.602 z" /><path
         id="path33442"
         style="fill:#154889;fill-opacity:1;fill-rule:nonzero;stroke:none"
         d="M 436,828 C 436,726.379 353.621,644 252,644 150.379,644 68,726.379 68,828 c 0,101.621 82.379,184 184,184 101.621,0 184,-82.379 184,-184 z" /><path
         id="path33444"
         style="fill:#ffffff;fill-opacity:1;fill-rule:evenodd;stroke:none"
         d="m 146.773,831.891 c -14.125,-10.059 -22.507,-26.329 -22.507,-43.668 l -0.008,0 c 0,-21.008 11.207,-40.418 29.398,-50.922 18.192,-10.504 40.606,-10.504 58.801,0 18.191,10.504 29.398,29.914 29.398,50.922 0,17.339 -8.386,33.609 -22.507,43.668 l 0.004,-0.004 c 12.031,9.511 19.046,24.008 19.046,39.343 l -0.007,0 c 0,19.77 -10.547,38.04 -27.668,47.926 -17.121,9.883 -38.215,9.883 -55.336,0 C 138.266,909.27 127.719,891 127.719,871.23 c 0,-15.335 7.019,-29.832 19.051,-39.343 l 0.003,0.004 z m 5.157,-43.668 c 0,-23.961 25.937,-38.938 46.691,-26.957 20.75,11.98 20.75,41.933 0,53.914 -20.754,11.984 -46.691,-2.992 -46.691,-26.957 m 3.453,83.007 c 0,-21.3 23.062,-34.613 41.508,-23.964 18.449,10.652 18.449,37.281 0,47.929 -18.446,10.653 -41.508,-2.66 -41.508,-23.965 z m 107.226,-86.46 0,86.46 c 0,19.77 10.547,38.04 27.668,47.926 17.121,9.883 38.215,9.883 55.336,0 17.121,-9.886 27.668,-28.156 27.668,-47.926 l 0,-86.46 c 0,-19.77 -10.547,-38.04 -27.668,-47.926 -17.121,-9.883 -38.215,-9.883 -55.336,0 -17.121,9.886 -27.668,28.156 -27.668,47.926 z m 27.664,0 0,86.46 c 0,21.305 23.059,34.618 41.508,23.965 8.559,-4.941 13.836,-14.078 13.836,-23.965 l 0,-86.46 c 0,-21.305 -23.062,-34.618 -41.508,-23.965 -8.562,4.941 -13.836,14.078 -13.836,23.965 z" /><path
         id="path33446"
         style="fill:#154889;fill-opacity:1;fill-rule:nonzero;stroke:none"
         d="m 744,552 c 0,-101.621 -82.379,-184 -184,-184 -101.621,0 -184,82.379 -184,184 0,101.621 82.379,184 184,184 101.621,0 184,-82.379 184,-184 z" /><path
         id="path33448"
         style="fill:#ffffff;fill-opacity:1;fill-rule:evenodd;stroke:none"
         d="m 445.105,545.078 0,103.762 103.758,0 0,-27.664 -77.816,0 0,-43.688 c 14.047,11.121 32.961,13.907 49.617,7.301 16.656,-6.605 28.524,-21.598 31.129,-39.324 0.355,-2.414 0.535,-4.856 0.535,-7.297 L 552.32,508.77 c 0,-19.77 -10.547,-38.04 -27.668,-47.926 -17.121,-9.883 -38.214,-9.883 -55.336,0 -15.523,8.965 -25.746,24.89 -27.425,42.738 l 27.914,-0.004 c 3.992,-20.922 29.14,-29.676 45.261,-15.754 6.09,5.254 9.59,12.899 9.59,20.946 l 0,24.207 c 0,21.3 -23.058,34.613 -41.508,23.964 -4.785,-2.761 -8.632,-6.89 -11.046,-11.859 l -26.997,-0.004 z m 127.973,-36.308 0,86.46 c 0,19.77 10.551,38.04 27.668,47.926 17.121,9.883 38.219,9.883 55.34,0 17.117,-9.886 27.668,-28.156 27.668,-47.926 l 0,-86.46 c 0,-19.77 -10.551,-38.04 -27.668,-47.926 -17.121,-9.883 -38.219,-9.883 -55.34,0 -17.117,9.886 -27.668,28.156 -27.668,47.926 z m 27.664,0 0,86.46 c 0,21.305 23.063,34.618 41.512,23.965 8.558,-4.941 13.836,-14.078 13.836,-23.965 l 0,-86.46 c 0,-21.305 -23.063,-34.618 -41.512,-23.965 -8.558,4.941 -13.836,14.078 -13.836,23.965 z" /></g></g></svg>