<?xml version="1.0" encoding="UTF-8" standalone="no"?>
<svg
   xmlns:dc="http://purl.org/dc/elements/1.1/"
   xmlns:cc="http://creativecommons.org/ns#"
   xmlns:rdf="http://www.w3.org/1999/02/22-rdf-syntax-ns#"
   xmlns:svg="http://www.w3.org/2000/svg"
   xmlns="http://www.w3.org/2000/svg"
   viewBox="0 0 1251 1601.9473"
   height="1601.9473"
   width="1251"
   xml:space="preserve"
   version="1.1"
   id="svg33275"><metadata
     id="metadata33281"><rdf:RDF><cc:Work
         rdf:about=""><dc:format>image/svg+xml</dc:format><dc:type
           rdf:resource="http://purl.org/dc/dcmitype/StillImage" /><dc:title></dc:title></cc:Work></rdf:RDF></metadata><defs
     id="defs33279" /><g
     transform="matrix(1.25,0,0,-1.25,0,1601.9473)"
     id="g33283"><g
       id="g33285"><path
         id="path33287"
         style="fill:#ffffff;fill-opacity:1;fill-rule:nonzero;stroke:none"
         d="m 47.234,1281.159 c -25.828,0 -46.832,-21.007 -46.832,-46.836 l 0,-1187.066 C 0.402,21.429 21.406,0.402 47.234,0.402 l 906.332,0 c 25.829,0 46.836,21.027 46.836,46.855 l 0,1187.066 c 0,25.829 -21.007,46.836 -46.836,46.836 l -906.332,0 z" /><path
         id="path33289"
         style="fill:#000000;fill-opacity:1;fill-rule:nonzero;stroke:none"
         d="m 48.504,12.433 c -19.942,0 -36.106,16.183 -36.106,36.105 l 0,1184.539 c 0,19.922 16.164,36.082 36.106,36.082 l 903.793,0 c 19.941,0 36.105,-16.16 36.105,-36.082 l 0,-1184.539 c 0,-19.922 -16.164,-36.105 -36.105,-36.105" /><path
         id="path33291"
         style="fill:#ffffff;fill-opacity:1;fill-rule:nonzero;stroke:none"
         d="m 48.504,28.484 c -11.066,0 -20.055,8.961 -20.055,20.054 l 0,1184.539 c 0,11.071 8.989,20.055 20.055,20.055 l 903.793,0 c 11.07,0 20.055,-8.984 20.055,-20.055 l 0,-1184.539 c 0,-11.093 -8.985,-20.054 -20.055,-20.054" /><path
         id="path33293"
         style="fill:#000000;fill-opacity:1;fill-rule:nonzero;stroke:none"
         d="M 47.234,1281.558 C 21.191,1281.558 0,1260.366 0,1234.323 L 0,47.257 C 0,21.214 21.188,-0.001 47.234,-0.001 l 906.332,0 c 26.043,0 47.235,21.215 47.235,47.258 l 0,1187.066 c 0,26.043 -21.192,47.235 -47.235,47.235 l -906.332,0 z m 0,-0.399 906.332,0 c 25.829,0 46.832,-21.007 46.832,-46.836 l 0,-1187.066 c 0,-25.828 -21.003,-46.855 -46.832,-46.855 l -906.332,0 C 21.406,0.402 0.398,21.429 0.398,47.257 l 0,1187.066 c 0,25.829 21.008,46.836 46.836,46.836 z" /><path
         id="path33295"
         style="fill:#000000;fill-opacity:1;fill-rule:evenodd;stroke:none"
         d="m 620.531,1156.777 -70.379,-105.055 c -0.566,-0.852 -0.996,-1.789 -1.273,-2.774 -1.977,-7.121 4.496,-13.714 11.652,-11.867 l 36,9.297 0.176,-62.254 c 15.824,1.938 31.824,1.938 47.645,0 l 0.179,62.254 36,-9.297 c 0.992,-0.254 2.016,-0.347 3.035,-0.281 7.375,0.492 11.454,8.781 7.344,14.922 l -70.379,105.055 z m 240,0 -70.379,-105.055 c -0.566,-0.852 -0.996,-1.789 -1.273,-2.774 -1.977,-7.121 4.496,-13.714 11.652,-11.867 l 36,9.297 0,-921.601 48,0 0,921.601 36,-9.297 c 0.992,-0.254 2.016,-0.347 3.035,-0.281 7.375,0.492 11.454,8.781 7.344,14.922 l -70.379,105.055 z M 278.152,229.839 c -161.554,-153.226 -80.777,-76.613 0,0 z m 318.555,365.192 c -0.156,-15.52 -0.047,-31.043 -0.176,-46.485 0,-25.461 10.114,-49.879 28.117,-67.883 l 163.883,-163.886 0,67.882 -129.941,129.946 c -9,9 -14.059,21.211 -14.059,33.941 -0.062,15.445 -0.109,30.965 -0.179,46.485 -15.821,-1.938 -31.821,-1.938 -47.645,0 z" /><path
         id="path33297"
         style="fill:#154889;fill-opacity:1;fill-rule:nonzero;stroke:none"
         d="m 804.531,789.577 c 0,-101.621 -82.379,-184 -184,-184 -101.621,0 -184,82.379 -184,184 0,101.621 82.379,184 184,184 101.621,0 184,-82.379 184,-184 z" /><path
         id="path33299"
         style="fill:#ffffff;fill-opacity:1;fill-rule:evenodd;stroke:none"
         d="m 505.637,782.659 0,103.758 103.758,0 0,-27.664 -77.817,0 0,-43.683 c 14.047,11.121 32.965,13.902 49.617,7.296 16.657,-6.605 28.524,-21.593 31.129,-39.32 0.356,-2.418 0.535,-4.855 0.535,-7.301 l -0.007,-29.398 c 0,-19.77 -10.547,-38.039 -27.668,-47.922 -17.122,-9.887 -38.215,-9.887 -55.336,0 -15.524,8.961 -25.743,24.887 -27.426,42.734 l 27.914,0 c 3.992,-20.925 29.141,-29.679 45.262,-15.757 6.09,5.257 9.59,12.902 9.59,20.945 l 0,24.207 c 0,21.301 -23.059,34.617 -41.508,23.965 -4.785,-2.762 -8.633,-6.891 -11.047,-11.86 l -26.996,0 z m 127.972,-36.312 0,86.465 c 0,19.769 10.551,38.035 27.668,47.922 17.121,9.882 38.219,9.882 55.34,0 17.117,-9.887 27.668,-28.153 27.668,-47.922 l 0,-86.465 c 0,-19.77 -10.551,-38.039 -27.668,-47.922 -17.121,-9.887 -38.219,-9.887 -55.34,0 -17.117,9.883 -27.668,28.152 -27.668,47.922 z m 27.664,0 0,86.465 c 0,21.301 23.063,34.613 41.512,23.965 8.559,-4.946 13.836,-14.079 13.836,-23.965 l 0,-86.465 c 0,-21.301 -23.062,-34.617 -41.512,-23.965 -8.558,4.941 -13.836,14.078 -13.836,23.965 z" /><path
         id="path33301"
         style="fill:#000000;fill-opacity:1;fill-rule:evenodd;stroke:none"
         d="m 324.531,1012.777 0,-777.598 -36,9.293 c -0.992,0.258 -2.015,0.355 -3.035,0.285 -7.375,-0.488 -11.453,-8.777 -7.344,-14.918 l 70.379,-105.062 70.379,105.062 c 0.567,0.848 0.996,1.785 1.27,2.77 1.98,7.121 -4.492,13.711 -11.649,11.863 l -36,-9.293 0,777.598 -48,0 z" /><path
         id="path33303"
         style="fill:#000000;fill-opacity:1;fill-rule:evenodd;stroke:none"
         d="m 116.27,1012.777 0,-777.598 -36,9.293 c -0.993,0.258 -2.016,0.355 -3.036,0.285 -7.375,-0.488 -11.453,-8.777 -7.343,-14.918 l 70.379,-105.062 70.378,105.062 c 0.567,0.848 0.997,1.785 1.27,2.77 1.977,7.121 -4.492,13.711 -11.648,11.863 l -36,-9.293 0,777.598 -48,0 z" /></g></g></svg>