<?xml version="1.0" encoding="UTF-8" standalone="no"?>
<svg
   xmlns:dc="http://purl.org/dc/elements/1.1/"
   xmlns:cc="http://creativecommons.org/ns#"
   xmlns:rdf="http://www.w3.org/1999/02/22-rdf-syntax-ns#"
   xmlns:svg="http://www.w3.org/2000/svg"
   xmlns="http://www.w3.org/2000/svg"
   viewBox="0 0 1251 1601.9473"
   height="1601.9473"
   width="1251"
   xml:space="preserve"
   version="1.1"
   id="svg7940"><metadata
     id="metadata7946"><rdf:RDF><cc:Work
         rdf:about=""><dc:format>image/svg+xml</dc:format><dc:type
           rdf:resource="http://purl.org/dc/dcmitype/StillImage" /><dc:title></dc:title></cc:Work></rdf:RDF></metadata><defs
     id="defs7944" /><g
     transform="matrix(1.25,0,0,-1.25,0,1601.9473)"
     id="g7948"><g
       id="g7950"><path
         id="path7952"
         style="fill:#ffffff;fill-opacity:1;fill-rule:nonzero;stroke:none"
         d="m 46.934,1281.159 c -25.829,0 -46.832,-21.007 -46.832,-46.836 l 0,-1187.066 C 0.102,21.429 21.105,0.402 46.934,0.402 l 906.332,0 c 25.828,0 46.836,21.027 46.836,46.855 l 0,1187.066 c 0,25.829 -21.008,46.836 -46.836,46.836 l -906.332,0 z" /><path
         id="path7954"
         style="fill:#000000;fill-opacity:1;fill-rule:nonzero;stroke:none"
         d="m 48.504,12.433 c -19.942,0 -36.106,16.183 -36.106,36.105 l 0,1184.539 c 0,19.922 16.164,36.082 36.106,36.082 l 903.793,0 c 19.941,0 36.105,-16.16 36.105,-36.082 l 0,-1184.539 c 0,-19.922 -16.164,-36.105 -36.105,-36.105" /><path
         id="path7956"
         style="fill:#ffffff;fill-opacity:1;fill-rule:nonzero;stroke:none"
         d="m 48.504,28.484 c -11.066,0 -20.055,8.961 -20.055,20.054 l 0,1184.539 c 0,11.071 8.989,20.055 20.055,20.055 l 903.793,0 c 11.07,0 20.055,-8.984 20.055,-20.055 l 0,-1184.539 c 0,-11.093 -8.985,-20.054 -20.055,-20.054" /><path
         id="path7958"
         style="fill:#000000;fill-opacity:1;fill-rule:nonzero;stroke:none"
         d="M 47.234,1281.558 C 21.191,1281.558 0,1260.366 0,1234.323 L 0,47.257 C 0,21.214 21.188,-0.001 47.234,-0.001 l 906.332,0 c 26.043,0 47.235,21.215 47.235,47.258 l 0,1187.066 c 0,26.043 -21.192,47.235 -47.235,47.235 l -906.332,0 z m 0,-0.399 906.332,0 c 25.829,0 46.832,-21.007 46.832,-46.836 l 0,-1187.066 c 0,-25.828 -21.003,-46.855 -46.832,-46.855 l -906.332,0 C 21.406,0.402 0.398,21.429 0.398,47.257 l 0,1187.066 c 0,25.829 21.008,46.836 46.836,46.836 z" /><path
         id="path7960"
         style="fill:#000000;fill-opacity:1;fill-rule:nonzero;stroke:none"
         d="m 196.211,1045.843 0,-920.332 -48.004,0 0,920.332 -35.992,-9.262 c -0.82,-0.226 -1.637,-0.32 -2.41,-0.32 -5.325,0 -9.602,4.316 -9.602,9.582 0,1.91 0.547,3.77 1.594,5.359 l 70.433,104.903 70.434,-104.903 c 1.004,-1.589 1.594,-3.449 1.594,-5.359 0,-5.266 -4.324,-9.582 -9.602,-9.582 -0.816,0 -1.59,0.094 -2.41,0.32 l -36.035,9.262 z" /><path
         id="path7962"
         style="fill:#000000;fill-opacity:1;fill-rule:nonzero;stroke:none"
         d="m 384.301,1045.843 0,-920.332 -48.004,0 0,920.332 -35.992,-9.262 c -0.821,-0.226 -1.594,-0.32 -2.41,-0.32 -5.325,0 -9.602,4.316 -9.602,9.582 0,1.91 0.547,3.77 1.594,5.359 l 70.386,104.903 70.481,-104.903 c 1.004,-1.589 1.594,-3.449 1.594,-5.359 0,-5.266 -4.325,-9.582 -9.602,-9.582 -0.773,0 -1.59,0.094 -2.41,0.32 l -36.035,9.262 z" /><path
         id="path7964"
         style="fill:#000000;fill-opacity:1;fill-rule:nonzero;stroke:none"
         d="m 524.398,1045.843 -35.988,-9.262 c -0.82,-0.226 -1.594,-0.32 -2.414,-0.32 -5.324,0 -9.601,4.316 -9.601,9.582 0,1.91 0.546,3.77 1.593,5.359 l 70.434,104.903 70.39,-104.903 c 1.047,-1.589 1.684,-3.449 1.684,-5.359 0,-5.266 -4.367,-9.582 -9.644,-9.582 -0.774,0 -1.594,0.094 -2.414,0.32 l -35.989,9.262 0,-413.48 c 0,-12.719 5.051,-24.887 14.059,-33.879 l 314.09,-313.532 0,-67.754 -348.078,347.364 c -17.973,18.027 -28.122,42.367 -28.122,67.801 l 0,413.48 z" /><path
         id="path7966"
         style="fill:#000000;fill-opacity:1;fill-rule:nonzero;stroke:none"
         d="m 708.496,1045.843 -35.992,-9.262 c -0.82,-0.226 -1.594,-0.32 -2.41,-0.32 -5.324,0 -9.602,4.316 -9.602,9.582 0,1.91 0.547,3.77 1.594,5.359 l 70.434,104.903 70.386,-104.903 c 1.047,-1.589 1.641,-3.449 1.641,-5.359 0,-5.266 -4.277,-9.582 -9.602,-9.582 -0.82,0 -1.636,0.094 -2.41,0.32 l -36.039,9.262 0,-337.371 c 0,-12.715 5.098,-24.887 14.106,-33.875 l 129.996,-129.793 0,-67.754 -163.938,163.621 c -18.019,18.031 -28.164,42.371 -28.164,67.801 l 0,337.371 z" /></g></g></svg>