<?xml version="1.0" encoding="UTF-8" standalone="no"?>
<svg
   xmlns:dc="http://purl.org/dc/elements/1.1/"
   xmlns:cc="http://creativecommons.org/ns#"
   xmlns:rdf="http://www.w3.org/1999/02/22-rdf-syntax-ns#"
   xmlns:svg="http://www.w3.org/2000/svg"
   xmlns="http://www.w3.org/2000/svg"
   viewBox="0 0 1251 1601.9473"
   height="1601.9473"
   width="1251"
   xml:space="preserve"
   version="1.1"
   id="svg20712"><metadata
     id="metadata20718"><rdf:RDF><cc:Work
         rdf:about=""><dc:format>image/svg+xml</dc:format><dc:type
           rdf:resource="http://purl.org/dc/dcmitype/StillImage" /><dc:title></dc:title></cc:Work></rdf:RDF></metadata><defs
     id="defs20716" /><g
     transform="matrix(1.25,0,0,-1.25,0,1601.9473)"
     id="g20720"><g
       id="g20722"><path
         id="path20724"
         style="fill:#ffffff;fill-opacity:1;fill-rule:nonzero;stroke:none"
         d="m 47.234,1281.159 c -25.828,0 -46.832,-21.007 -46.832,-46.836 l 0,-1187.066 C 0.402,21.429 21.406,0.402 47.234,0.402 l 906.332,0 c 25.829,0 46.836,21.027 46.836,46.855 l 0,1187.066 c 0,25.829 -21.007,46.836 -46.836,46.836 l -906.332,0 z" /><path
         id="path20726"
         style="fill:#000000;fill-opacity:1;fill-rule:nonzero;stroke:none"
         d="m 48.504,12.433 c -19.942,0 -36.106,16.183 -36.106,36.105 l 0,1184.539 c 0,19.922 16.164,36.082 36.106,36.082 l 903.793,0 c 19.941,0 36.105,-16.16 36.105,-36.082 l 0,-1184.539 c 0,-19.922 -16.164,-36.105 -36.105,-36.105" /><path
         id="path20728"
         style="fill:#ffffff;fill-opacity:1;fill-rule:nonzero;stroke:none"
         d="m 48.504,28.484 c -11.066,0 -20.055,8.961 -20.055,20.054 l 0,1184.539 c 0,11.071 8.989,20.055 20.055,20.055 l 903.793,0 c 11.07,0 20.055,-8.984 20.055,-20.055 l 0,-1184.539 c 0,-11.093 -8.985,-20.054 -20.055,-20.054" /><path
         id="path20730"
         style="fill:#000000;fill-opacity:1;fill-rule:nonzero;stroke:none"
         d="M 47.234,1281.558 C 21.191,1281.558 0,1260.366 0,1234.323 L 0,47.257 C 0,21.214 21.188,-0.001 47.234,-0.001 l 906.332,0 c 26.043,0 47.235,21.215 47.235,47.258 l 0,1187.066 c 0,26.043 -21.192,47.235 -47.235,47.235 l -906.332,0 z m 0,-0.399 906.332,0 c 25.829,0 46.832,-21.007 46.832,-46.836 l 0,-1187.066 c 0,-25.828 -21.003,-46.855 -46.832,-46.855 l -906.332,0 C 21.406,0.402 0.398,21.429 0.398,47.257 l 0,1187.066 c 0,25.829 21.008,46.836 46.836,46.836 z" /><path
         id="path20732"
         style="fill:#000000;fill-opacity:1;fill-rule:nonzero;stroke:none"
         d="m 492.414,1046.335 0,-921.469 -48.055,0 0,921.469 -35.992,-9.32 c -0.82,-0.18 -1.594,-0.274 -2.457,-0.274 -5.281,0 -9.558,4.321 -9.558,9.594 0,1.91 0.593,3.774 1.64,5.321 l 70.348,105.035 70.488,-105.035 c 1,-1.547 1.59,-3.411 1.59,-5.321 0,-5.273 -4.277,-9.594 -9.602,-9.594 -0.816,0 -1.636,0.094 -2.363,0.274 l -36.039,9.32 z" /><path
         id="path20734"
         style="fill:#000000;fill-opacity:1;fill-rule:nonzero;stroke:none"
         d="m 164.215,1046.335 0,-921.469 -48.051,0 0,921.469 -35.996,-9.32 c -0.816,-0.18 -1.59,-0.274 -2.457,-0.274 -5.277,0 -9.555,4.321 -9.555,9.594 0,1.91 0.594,3.774 1.637,5.321 l 70.352,105.035 70.441,-105.035 c 1.047,-1.547 1.637,-3.411 1.637,-5.321 0,-5.273 -4.321,-9.594 -9.602,-9.594 -0.816,0 -1.637,0.094 -2.41,0.274 l -35.996,9.32 z" /><path
         id="path20736"
         style="fill:#000000;fill-opacity:1;fill-rule:nonzero;stroke:none"
         d="m 328.309,1046.335 0,-921.469 -48.051,0 0,921.469 -36.039,-9.32 c -0.774,-0.18 -1.547,-0.274 -2.414,-0.274 -5.278,0 -9.555,4.321 -9.555,9.594 0,1.91 0.547,3.774 1.637,5.321 l 70.398,105.035 70.395,-105.035 c 1.047,-1.547 1.636,-3.411 1.636,-5.321 0,-5.273 -4.277,-9.594 -9.601,-9.594 -0.82,0 -1.637,0.094 -2.41,0.274 l -35.996,9.32 z" /><path
         id="path20738"
         style="fill:#000000;fill-opacity:1;fill-rule:nonzero;stroke:none"
         d="m 608.457,1046.335 -35.992,-9.32 c -0.82,-0.18 -1.594,-0.274 -2.457,-0.274 -5.281,0 -9.559,4.321 -9.559,9.594 0,1.91 0.594,3.774 1.594,5.321 l 70.441,105.035 70.442,-105.035 c 1,-1.547 1.59,-3.411 1.59,-5.321 0,-5.273 -4.321,-9.594 -9.555,-9.594 -0.863,0 -1.684,0.094 -2.41,0.274 l -36.039,9.32 0,-413.992 c 0,-12.73 5.05,-24.914 14.058,-33.918 l 262.059,-261.898 0,-67.887 -296.051,295.82 c -17.973,18.051 -28.121,42.422 -28.121,67.883 l 0,413.992 z" /><path
         id="path20740"
         style="fill:#000000;fill-opacity:1;fill-rule:nonzero;stroke:none"
         d="m 772.559,1046.335 -36.039,-9.32 c -0.774,-0.18 -1.547,-0.274 -2.364,-0.274 -5.324,0 -9.601,4.321 -9.601,9.594 0,1.91 0.59,3.774 1.636,5.321 l 70.395,105.035 70.441,-105.035 c 1,-1.547 1.594,-3.411 1.594,-5.321 0,-5.273 -4.324,-9.594 -9.559,-9.594 -0.816,0 -1.683,0.094 -2.41,0.274 l -36.039,9.32 0,-337.785 c 0,-12.73 5.051,-24.961 14.059,-33.922 l 97.973,-97.937 0,-67.887 -131.961,131.859 c -18.02,18.008 -28.125,42.422 -28.125,67.887 l 0,337.785 z" /></g></g></svg>