<?xml version="1.0" encoding="UTF-8" standalone="no"?>
<svg
   xmlns:dc="http://purl.org/dc/elements/1.1/"
   xmlns:cc="http://creativecommons.org/ns#"
   xmlns:rdf="http://www.w3.org/1999/02/22-rdf-syntax-ns#"
   xmlns:svg="http://www.w3.org/2000/svg"
   xmlns="http://www.w3.org/2000/svg"
   viewBox="0 0 1251 1601.9473"
   height="1601.9473"
   width="1251"
   xml:space="preserve"
   version="1.1"
   id="svg8570"><metadata
     id="metadata8576"><rdf:RDF><cc:Work
         rdf:about=""><dc:format>image/svg+xml</dc:format><dc:type
           rdf:resource="http://purl.org/dc/dcmitype/StillImage" /><dc:title></dc:title></cc:Work></rdf:RDF></metadata><defs
     id="defs8574" /><g
     transform="matrix(1.25,0,0,-1.25,0,1601.9473)"
     id="g8578"><g
       id="g8580"><path
         id="path8582"
         style="fill:#ffffff;fill-opacity:1;fill-rule:nonzero;stroke:none"
         d="m 46.172,1281.159 c -25.828,0 -46.832,-21.007 -46.832,-46.836 l 0,-1187.066 C -0.66,21.429 20.344,0.402 46.172,0.402 l 906.332,0 c 25.828,0 46.836,21.027 46.836,46.855 l 0,1187.066 c 0,25.829 -21.008,46.836 -46.836,46.836 l -906.332,0 z" /><path
         id="path8584"
         style="fill:#000000;fill-opacity:1;fill-rule:nonzero;stroke:none"
         d="m 48.504,12.433 c -19.942,0 -36.106,16.183 -36.106,36.105 l 0,1184.539 c 0,19.922 16.164,36.082 36.106,36.082 l 903.793,0 c 19.941,0 36.105,-16.16 36.105,-36.082 l 0,-1184.539 c 0,-19.922 -16.164,-36.105 -36.105,-36.105" /><path
         id="path8586"
         style="fill:#ffffff;fill-opacity:1;fill-rule:nonzero;stroke:none"
         d="m 48.504,28.484 c -11.066,0 -20.055,8.961 -20.055,20.054 l 0,1184.539 c 0,11.071 8.989,20.055 20.055,20.055 l 903.793,0 c 11.07,0 20.055,-8.984 20.055,-20.055 l 0,-1184.539 c 0,-11.093 -8.985,-20.054 -20.055,-20.054" /><path
         id="path8588"
         style="fill:#000000;fill-opacity:1;fill-rule:nonzero;stroke:none"
         d="M 47.234,1281.558 C 21.191,1281.558 0,1260.366 0,1234.323 L 0,47.257 C 0,21.214 21.188,-0.001 47.234,-0.001 l 906.332,0 c 26.043,0 47.235,21.215 47.235,47.258 l 0,1187.066 c 0,26.043 -21.192,47.235 -47.235,47.235 l -906.332,0 z m 0,-0.399 906.332,0 c 25.829,0 46.832,-21.007 46.832,-46.836 l 0,-1187.066 c 0,-25.828 -21.003,-46.855 -46.832,-46.855 l -906.332,0 C 21.406,0.402 0.398,21.429 0.398,47.257 l 0,1187.066 c 0,25.829 21.008,46.836 46.836,46.836 z" /><path
         id="path8590"
         style="fill:#000000;fill-opacity:1;fill-rule:nonzero;stroke:none"
         d="m 436.941,1046.198 0,-921.121 -48.023,0 0,921.121 -36.074,-9.3 c -0.774,-0.227 -1.547,-0.317 -2.364,-0.317 -5.316,0 -9.632,4.309 -9.632,9.617 0,1.864 0.59,3.766 1.636,5.309 l 70.422,105.031 70.469,-105.031 c 1.047,-1.543 1.59,-3.445 1.59,-5.309 0,-5.308 -4.27,-9.617 -9.586,-9.617 -0.817,0 -1.637,0.09 -2.406,0.317 l -36.032,9.3 z" /><path
         id="path8592"
         style="fill:#000000;fill-opacity:1;fill-rule:nonzero;stroke:none"
         d="m 245.465,1046.198 0,-921.121 -48.07,0 0,921.121 -35.985,-9.3 c -0.82,-0.227 -1.637,-0.317 -2.41,-0.317 -5.312,0 -9.629,4.309 -9.629,9.617 0,1.864 0.543,3.766 1.633,5.309 l 70.426,105.031 70.468,-105.031 c 1.043,-1.543 1.59,-3.445 1.59,-5.309 0,-5.308 -4.273,-9.617 -9.586,-9.617 -0.82,0 -1.636,0.09 -2.41,0.317 l -36.027,9.3 z" /><path
         id="path8594"
         style="fill:#000000;fill-opacity:1;fill-rule:nonzero;stroke:none"
         d="m 659.289,1046.198 -36.074,-9.3 c -0.774,-0.227 -1.59,-0.317 -2.41,-0.317 -5.317,0 -9.586,4.309 -9.586,9.617 0,1.864 0.59,3.766 1.636,5.309 l 70.422,105.031 70.469,-105.031 c 1.047,-1.543 1.59,-3.445 1.59,-5.309 0,-5.308 -4.316,-9.617 -9.586,-9.617 -0.816,0 -1.59,0.09 -2.406,0.317 l -36.032,9.3 0,-337.679 c 0,-12.703 5.043,-24.906 14.04,-33.887 l 130.078,-129.848 0,-67.871 -164.016,163.782 c -17.992,18.011 -28.125,42.375 -28.125,67.824 l 0,337.679 z" /></g></g></svg>