<?xml version="1.0" encoding="UTF-8" standalone="no"?>
<svg
   xmlns:dc="http://purl.org/dc/elements/1.1/"
   xmlns:cc="http://creativecommons.org/ns#"
   xmlns:rdf="http://www.w3.org/1999/02/22-rdf-syntax-ns#"
   xmlns:svg="http://www.w3.org/2000/svg"
   xmlns="http://www.w3.org/2000/svg"
   viewBox="0 0 1251 1601.9473"
   height="1601.9473"
   width="1251"
   xml:space="preserve"
   version="1.1"
   id="svg8318"><metadata
     id="metadata8324"><rdf:RDF><cc:Work
         rdf:about=""><dc:format>image/svg+xml</dc:format><dc:type
           rdf:resource="http://purl.org/dc/dcmitype/StillImage" /><dc:title></dc:title></cc:Work></rdf:RDF></metadata><defs
     id="defs8322" /><g
     transform="matrix(1.25,0,0,-1.25,0,1601.9473)"
     id="g8326"><g
       id="g8328"><path
         id="path8330"
         style="fill:#ffffff;fill-opacity:1;fill-rule:nonzero;stroke:none"
         d="m 46.609,1281.159 c -25.828,0 -46.832,-21.007 -46.832,-46.836 l 0,-1187.066 c 0,-25.828 21.004,-46.855 46.832,-46.855 l 906.332,0 c 25.829,0 46.836,21.027 46.836,46.855 l 0,1187.066 c 0,25.829 -21.007,46.836 -46.836,46.836 l -906.332,0 z" /><path
         id="path8332"
         style="fill:#000000;fill-opacity:1;fill-rule:nonzero;stroke:none"
         d="m 48.504,12.433 c -19.942,0 -36.106,16.183 -36.106,36.105 l 0,1184.539 c 0,19.922 16.164,36.082 36.106,36.082 l 903.793,0 c 19.941,0 36.105,-16.16 36.105,-36.082 l 0,-1184.539 c 0,-19.922 -16.164,-36.105 -36.105,-36.105" /><path
         id="path8334"
         style="fill:#ffffff;fill-opacity:1;fill-rule:nonzero;stroke:none"
         d="m 48.504,28.484 c -11.066,0 -20.055,8.961 -20.055,20.054 l 0,1184.539 c 0,11.071 8.989,20.055 20.055,20.055 l 903.793,0 c 11.07,0 20.055,-8.984 20.055,-20.055 l 0,-1184.539 c 0,-11.093 -8.985,-20.054 -20.055,-20.054" /><path
         id="path8336"
         style="fill:#000000;fill-opacity:1;fill-rule:nonzero;stroke:none"
         d="M 47.234,1281.558 C 21.191,1281.558 0,1260.366 0,1234.323 L 0,47.257 C 0,21.214 21.188,-0.001 47.234,-0.001 l 906.332,0 c 26.043,0 47.235,21.215 47.235,47.258 l 0,1187.066 c 0,26.043 -21.192,47.235 -47.235,47.235 l -906.332,0 z m 0,-0.399 906.332,0 c 25.829,0 46.832,-21.007 46.832,-46.836 l 0,-1187.066 c 0,-25.828 -21.003,-46.855 -46.832,-46.855 l -906.332,0 C 21.406,0.402 0.398,21.429 0.398,47.257 l 0,1187.066 c 0,25.829 21.008,46.836 46.836,46.836 z" /><path
         id="path8338"
         style="fill:#000000;fill-opacity:1;fill-rule:nonzero;stroke:none"
         d="m 196.211,1045.843 0,-920.332 -48.004,0 0,920.332 -35.992,-9.262 c -0.82,-0.226 -1.637,-0.32 -2.41,-0.32 -5.325,0 -9.602,4.316 -9.602,9.582 0,1.91 0.547,3.77 1.594,5.359 l 70.433,104.903 70.434,-104.903 c 1.004,-1.589 1.594,-3.449 1.594,-5.359 0,-5.266 -4.324,-9.582 -9.602,-9.582 -0.816,0 -1.59,0.094 -2.41,0.32 l -36.035,9.262 z" /><path
         id="path8340"
         style="fill:#000000;fill-opacity:1;fill-rule:nonzero;stroke:none"
         d="m 384.301,1045.843 0,-920.332 -48.004,0 0,920.332 -35.992,-9.262 c -0.821,-0.226 -1.594,-0.32 -2.41,-0.32 -5.325,0 -9.602,4.316 -9.602,9.582 0,1.91 0.547,3.77 1.594,5.359 l 70.386,104.903 70.481,-104.903 c 1.004,-1.589 1.594,-3.449 1.594,-5.359 0,-5.266 -4.325,-9.582 -9.602,-9.582 -0.773,0 -1.59,0.094 -2.41,0.32 l -36.035,9.262 z" /><path
         id="path8342"
         style="fill:#000000;fill-opacity:1;fill-rule:nonzero;stroke:none"
         d="m 708.496,1045.843 -35.992,-9.262 c -0.82,-0.226 -1.594,-0.32 -2.41,-0.32 -5.324,0 -9.602,4.316 -9.602,9.582 0,1.91 0.547,3.77 1.594,5.359 l 70.434,104.903 70.386,-104.903 c 1.047,-1.589 1.641,-3.449 1.641,-5.359 0,-5.266 -4.277,-9.582 -9.602,-9.582 -0.82,0 -1.636,0.094 -2.41,0.32 l -36.039,9.262 0,-337.371 c 0,-12.715 5.098,-24.887 14.106,-33.875 l 129.996,-129.793 0,-67.754 -163.938,163.621 c -18.019,18.031 -28.164,42.371 -28.164,67.801 l 0,337.371 z" /><path
         id="path8344"
         style="fill:#000000;fill-opacity:1;fill-rule:nonzero;stroke:none"
         d="m 572.469,1046.109 0,-920.914 -48.059,0 0,920.914 -36.023,-9.297 c -0.77,-0.227 -1.59,-0.321 -2.407,-0.321 -5.312,0 -9.585,4.313 -9.585,9.618 0,1.859 0.546,3.765 1.589,5.308 l 70.454,105.004 70.41,-105.004 c 1.043,-1.543 1.632,-3.449 1.632,-5.308 0,-5.305 -4.312,-9.618 -9.582,-9.618 -0.82,0 -1.679,0.094 -2.41,0.321 l -36.019,9.297 z" /></g></g></svg>