<?xml version="1.0" encoding="UTF-8" standalone="no"?>
<svg
   xmlns:dc="http://purl.org/dc/elements/1.1/"
   xmlns:cc="http://creativecommons.org/ns#"
   xmlns:rdf="http://www.w3.org/1999/02/22-rdf-syntax-ns#"
   xmlns:svg="http://www.w3.org/2000/svg"
   xmlns="http://www.w3.org/2000/svg"
   viewBox="0 0 1251 1601.9473"
   height="1601.9473"
   width="1251"
   xml:space="preserve"
   version="1.1"
   id="svg8653"><metadata
     id="metadata8659"><rdf:RDF><cc:Work
         rdf:about=""><dc:format>image/svg+xml</dc:format><dc:type
           rdf:resource="http://purl.org/dc/dcmitype/StillImage" /><dc:title></dc:title></cc:Work></rdf:RDF></metadata><defs
     id="defs8657" /><g
     transform="matrix(1.25,0,0,-1.25,0,1601.9473)"
     id="g8661"><g
       id="g8663"><path
         id="path8665"
         style="fill:#ffffff;fill-opacity:1;fill-rule:nonzero;stroke:none"
         d="m 46.172,1281.159 c -25.828,0 -46.832,-21.007 -46.832,-46.836 l 0,-1187.066 C -0.66,21.429 20.344,0.402 46.172,0.402 l 906.332,0 c 25.828,0 46.836,21.027 46.836,46.855 l 0,1187.066 c 0,25.829 -21.008,46.836 -46.836,46.836 l -906.332,0 z" /><path
         id="path8667"
         style="fill:#000000;fill-opacity:1;fill-rule:nonzero;stroke:none"
         d="m 48.504,12.433 c -19.942,0 -36.106,16.183 -36.106,36.105 l 0,1184.539 c 0,19.922 16.164,36.082 36.106,36.082 l 903.793,0 c 19.941,0 36.105,-16.16 36.105,-36.082 l 0,-1184.539 c 0,-19.922 -16.164,-36.105 -36.105,-36.105" /><path
         id="path8669"
         style="fill:#ffffff;fill-opacity:1;fill-rule:nonzero;stroke:none"
         d="m 48.504,28.484 c -11.066,0 -20.055,8.961 -20.055,20.054 l 0,1184.539 c 0,11.071 8.989,20.055 20.055,20.055 l 903.793,0 c 11.07,0 20.055,-8.984 20.055,-20.055 l 0,-1184.539 c 0,-11.093 -8.985,-20.054 -20.055,-20.054" /><path
         id="path8671"
         style="fill:#000000;fill-opacity:1;fill-rule:nonzero;stroke:none"
         d="M 47.234,1281.558 C 21.191,1281.558 0,1260.366 0,1234.323 L 0,47.257 C 0,21.214 21.188,-0.001 47.234,-0.001 l 906.332,0 c 26.043,0 47.235,21.215 47.235,47.258 l 0,1187.066 c 0,26.043 -21.192,47.235 -47.235,47.235 l -906.332,0 z m 0,-0.399 906.332,0 c 25.829,0 46.832,-21.007 46.832,-46.836 l 0,-1187.066 c 0,-25.828 -21.003,-46.855 -46.832,-46.855 l -906.332,0 C 21.406,0.402 0.398,21.429 0.398,47.257 l 0,1187.066 c 0,25.829 21.008,46.836 46.836,46.836 z" /><path
         id="path8673"
         style="fill:#000000;fill-opacity:1;fill-rule:nonzero;stroke:none"
         d="m 341.203,1046.198 0,-921.117 -48.023,0 0,921.117 -36.075,-9.3 c -0.773,-0.227 -1.546,-0.317 -2.363,-0.317 -5.316,0 -9.633,4.309 -9.633,9.617 0,1.864 0.59,3.766 1.637,5.309 l 70.422,105.031 70.469,-105.031 c 1.047,-1.543 1.59,-3.445 1.59,-5.309 0,-5.308 -4.27,-9.617 -9.586,-9.617 -0.817,0 -1.637,0.09 -2.411,0.317 l -36.027,9.3 z" /><path
         id="path8675"
         style="fill:#000000;fill-opacity:1;fill-rule:nonzero;stroke:none"
         d="m 563.551,1046.198 -36.074,-9.3 c -0.774,-0.227 -1.594,-0.317 -2.411,-0.317 -5.316,0 -9.586,4.309 -9.586,9.617 0,1.864 0.59,3.766 1.637,5.309 l 70.422,105.031 70.469,-105.031 c 1.047,-1.543 1.59,-3.445 1.59,-5.309 0,-5.308 -4.317,-9.617 -9.586,-9.617 -0.817,0 -1.59,0.09 -2.41,0.317 l -36.028,9.3 0,-337.675 c 0,-12.707 5.043,-24.91 14.039,-33.891 l 130.078,-129.848 0,-67.871 -164.019,163.782 c -17.992,18.011 -28.121,42.375 -28.121,67.828 l 0,337.675 z" /></g></g></svg>