<?xml version="1.0" standalone="no"?>
<!DOCTYPE svg PUBLIC "-//W3C//DTD SVG 1.1//EN" "http://www.w3.org/Graphics/SVG/1.1/DTD/svg11.dtd">
<svg width="1250" height="1600" version="1.1" xmlns="http://www.w3.org/2000/svg">
<path fill="white" stroke="black" stroke-width="1" d="M60 1600A60 60 0 0 1 0 1540L0 60A60 60 0 0 1 60 0L1190 0A60 60 0 0 1 1250 60L1250 1540A60 60 0 0 1 1190 1600L60 1600Z" />
<path fill="black" stroke="none" d="M60 1585A45 45 0 0 1 15 1540L15 60A45 45 0 0 1 60 15L1190 15A45 45 0 0 1 1235 60L1235 1540A45 45 0 0 1 1190 1585L60 1585Z" />
<path fill="white" stroke="none" d="M60 1565A25 25 0 0 1 35 1540L35 60A25 25 0 0 1 60 35L1190 35A25 25 0 0 1 1215 60L1215 1540A25 25 0 0 1 1190 1565L60 1565Z" />
<path fill="black" stroke="none" fill-rule="evenodd" d="M351.21 166.37L311.175569991376 142.767210594255A12 12 0 0 1 311.364928025417 121.983463493818A12 12 0 0 1 314.940215048071 120.658334778895L470 90L439.341665221105 245.059784951929A12 12 0 0 1 419.666514435722 251.759668650357A12 12 0 0 1 417.232895775189 248.824610426056L393.63 208.79L132.43 472.43L90 430L351.21 166.37ZM521.21 336.37L481.175569991376 312.767210594255A12 12 0 0 1 481.364928025417 291.983463493818A12 12 0 0 1 484.940215048071 290.658334778895L640 260L609.341665221105 415.059784951929A12 12 0 0 1 589.666514435722 421.759668650358A12 12 0 0 1 587.232895775189 418.824610426056L563.63 378.79L302.43 642.43L260 600L521.21 336.37ZM691.21 506.37L651.175569991376 482.767210594255A12 12 0 0 1 651.364928025417 461.983463493818A12 12 0 0 1 654.940215048071 460.658334778895L810 430L779.341665221105 585.059784951929A12 12 0 0 1 759.666514435722 591.759668650358A12 12 0 0 1 757.232895775189 588.824610426056L733.63 548.79L472.43 812.43L430 770L691.21 506.37ZM861.21 676.37L821.175569991376 652.767210594255A12 12 0 0 1 821.364928025417 631.983463493818A12 12 0 0 1 824.940215048071 630.658334778895L980 600L949.341665221105 755.059784951929A12 12 0 0 1 929.666514435722 761.759668650358A12 12 0 0 1 927.232895775189 758.824610426056L903.63 718.79L687.283593128807 935.143593128807A60 60 0 0 0 669.71 977.57L670 1505L610 1505L609.71 977.57A120 120 0 0 1 644.857186257614 892.717186257614L861.21 676.37ZM1031.21 846.37L991.175569991376 822.767210594255A12 12 0 0 1 991.364928025417 801.983463493818A12 12 0 0 1 994.940215048071 800.658334778895L1150 770L1119.3416652211 925.059784951929A12 12 0 0 1 1099.66651443572 931.759668650358A12 12 0 0 1 1097.23289577519 928.824610426056L1073.63 888.79L927.573593128807 1034.85359312881A60 60 0 0 0 910 1077.28L910 1505L850 1505L850 1077.28A120 120 0 0 1 885.147186257614 992.427186257614L1031.21 846.37Z" />
</svg>
