<?xml version="1.0" encoding="UTF-8" standalone="no"?>
<svg
   xmlns:dc="http://purl.org/dc/elements/1.1/"
   xmlns:cc="http://creativecommons.org/ns#"
   xmlns:rdf="http://www.w3.org/1999/02/22-rdf-syntax-ns#"
   xmlns:svg="http://www.w3.org/2000/svg"
   xmlns="http://www.w3.org/2000/svg"
   viewBox="0 0 1251 1601.9473"
   height="1601.9473"
   width="1251"
   xml:space="preserve"
   version="1.1"
   id="svg20988"><metadata
     id="metadata20994"><rdf:RDF><cc:Work
         rdf:about=""><dc:format>image/svg+xml</dc:format><dc:type
           rdf:resource="http://purl.org/dc/dcmitype/StillImage" /><dc:title></dc:title></cc:Work></rdf:RDF></metadata><defs
     id="defs20992" /><g
     transform="matrix(1.25,0,0,-1.25,0,1601.9473)"
     id="g20996"><g
       id="g20998"><path
         id="path21000"
         style="fill:#ffffff;fill-opacity:1;fill-rule:nonzero;stroke:none"
         d="m 47.234,1281.159 c -25.828,0 -46.832,-21.007 -46.832,-46.836 l 0,-1187.066 C 0.402,21.429 21.406,0.402 47.234,0.402 l 906.332,0 c 25.829,0 46.836,21.027 46.836,46.855 l 0,1187.066 c 0,25.829 -21.007,46.836 -46.836,46.836 l -906.332,0 z" /><path
         id="path21002"
         style="fill:#000000;fill-opacity:1;fill-rule:nonzero;stroke:none"
         d="m 48.504,12.433 c -19.942,0 -36.106,16.183 -36.106,36.105 l 0,1184.539 c 0,19.922 16.164,36.082 36.106,36.082 l 903.793,0 c 19.941,0 36.105,-16.16 36.105,-36.082 l 0,-1184.539 c 0,-19.922 -16.164,-36.105 -36.105,-36.105" /><path
         id="path21004"
         style="fill:#ffffff;fill-opacity:1;fill-rule:nonzero;stroke:none"
         d="m 48.504,28.484 c -11.066,0 -20.055,8.961 -20.055,20.054 l 0,1184.539 c 0,11.071 8.989,20.055 20.055,20.055 l 903.793,0 c 11.07,0 20.055,-8.984 20.055,-20.055 l 0,-1184.539 c 0,-11.093 -8.985,-20.054 -20.055,-20.054" /><path
         id="path21006"
         style="fill:#000000;fill-opacity:1;fill-rule:nonzero;stroke:none"
         d="M 47.234,1281.558 C 21.191,1281.558 0,1260.366 0,1234.323 L 0,47.257 C 0,21.214 21.188,-0.001 47.234,-0.001 l 906.332,0 c 26.043,0 47.235,21.215 47.235,47.258 l 0,1187.066 c 0,26.043 -21.192,47.235 -47.235,47.235 l -906.332,0 z m 0,-0.399 906.332,0 c 25.829,0 46.832,-21.007 46.832,-46.836 l 0,-1187.066 c 0,-25.828 -21.003,-46.855 -46.832,-46.855 l -906.332,0 C 21.406,0.402 0.398,21.429 0.398,47.257 l 0,1187.066 c 0,25.829 21.008,46.836 46.836,46.836 z" /><path
         id="path21008"
         style="fill:#000000;fill-opacity:1;fill-rule:nonzero;stroke:none"
         d="m 353.277,1145.601 -32.035,18.871 c -2.91,1.726 -4.777,4.863 -4.777,8.273 0,4.594 3.277,8.504 7.781,9.414 l 124.086,24.555 -24.48,-124.043 c -0.911,-4.5 -4.868,-7.73 -9.465,-7.73 -3.367,0 -6.551,1.73 -8.282,4.683 l -18.835,32.059 -209.086,-210.891 -33.993,33.969 209.086,210.84 z" /><path
         id="path21010"
         style="fill:#000000;fill-opacity:1;fill-rule:nonzero;stroke:none"
         d="m 489.336,1009.628 -32.035,18.871 c -2.91,1.727 -4.684,4.864 -4.684,8.278 0,4.589 3.231,8.5 7.688,9.41 l 124.133,24.554 -24.528,-124.043 c -0.91,-4.546 -4.867,-7.73 -9.418,-7.73 -3.414,0 -6.551,1.773 -8.281,4.684 l -18.883,32.058 -209.086,-210.887 -33.945,33.918 209.039,210.887 z" /><path
         id="path21012"
         style="fill:#000000;fill-opacity:1;fill-rule:nonzero;stroke:none"
         d="m 625.434,873.675 -32.036,18.871 c -2.914,1.684 -4.734,4.863 -4.734,8.231 0,4.589 3.234,8.546 7.738,9.41 l 124.133,24.601 -24.527,-124.09 c -0.957,-4.5 -4.871,-7.726 -9.465,-7.726 -3.414,0 -6.551,1.773 -8.234,4.726 L 659.422,839.71 450.336,628.823 416.348,662.788 625.434,873.675 Z" /><path
         id="path21014"
         style="fill:#000000;fill-opacity:1;fill-rule:nonzero;stroke:none"
         d="m 761.555,737.698 -32.082,18.872 c -2.911,1.679 -4.778,4.863 -4.778,8.23 0,4.59 3.325,8.547 7.828,9.41 l 124.086,24.555 -24.527,-124.043 c -0.91,-4.547 -4.867,-7.727 -9.418,-7.727 -3.414,0 -6.551,1.774 -8.328,4.727 L 795.5,703.734 622.316,530.675 c -9.058,-8.957 -14.062,-21.187 -14.062,-33.918 l 0.226,-421.914 -48.05,0 -0.227,421.914 c 0,25.461 10.102,49.879 28.168,67.887 l 173.184,173.054 z" /></g></g></svg>