<?xml version="1.0" standalone="no"?>
<!DOCTYPE svg PUBLIC "-//W3C//DTD SVG 1.1//EN" "http://www.w3.org/Graphics/SVG/1.1/DTD/svg11.dtd">
<svg width="1250" height="1600" version="1.1" xmlns="http://www.w3.org/2000/svg">
<path fill="white" stroke="black" stroke-width="1" d="M60 1600A60 60 0 0 1 0 1540L0 60A60 60 0 0 1 60 0L1190 0A60 60 0 0 1 1250 60L1250 1540A60 60 0 0 1 1190 1600L60 1600Z" />
<path fill="black" stroke="none" d="M60 1585A45 45 0 0 1 15 1540L15 60A45 45 0 0 1 60 15L1190 15A45 45 0 0 1 1235 60L1235 1540A45 45 0 0 1 1190 1585L60 1585Z" />
<path fill="white" stroke="none" d="M60 1565A25 25 0 0 1 35 1540L35 60A25 25 0 0 1 60 35L1190 35A25 25 0 0 1 1215 60L1215 1540A25 25 0 0 1 1190 1565L60 1565Z" />
<path fill="black" stroke="none" fill-rule="evenodd" d="M771.15 231.37L731.105569991376 207.767210594255A12 12 0 0 1 731.294928025417 186.983463493818A12 12 0 0 1 734.870215048071 185.658334778895L889.94 155L859.281665221105 310.059784951929A12 12 0 0 1 839.606514435722 316.759668650357A12 12 0 0 1 837.172895775189 313.824610426056L813.57 273.79L197.43 889.94L155 847.51L771.15 231.37ZM976.21 436.43L936.175569991376 412.827210594255A12 12 0 0 1 936.364928025417 392.043463493818A12 12 0 0 1 939.940215048071 390.718334778895L1095 360.06L1064.3416652211 515.129784951929A12 12 0 0 1 1044.66651443572 521.829668650358A12 12 0 0 1 1042.23289577519 518.894610426056L1018.63 478.85L682.573593128807 814.913593128807A60 60 0 0 0 665 857.34L665 1445L605 1445L605 857.34A120 120 0 0 1 640.147186257614 772.487186257614L976.21 436.43Z" />
</svg>
