<?xml version="1.0" standalone="no"?>
<!DOCTYPE svg PUBLIC "-//W3C//DTD SVG 1.1//EN" "http://www.w3.org/Graphics/SVG/1.1/DTD/svg11.dtd">
<svg width="1250" height="1600" version="1.1" xmlns="http://www.w3.org/2000/svg">
<path fill="white" stroke="black" stroke-width="1" d="M60 1600A60 60 0 0 1 0 1540L0 60A60 60 0 0 1 60 0L1190 0A60 60 0 0 1 1250 60L1250 1540A60 60 0 0 1 1190 1600L60 1600Z" />
<path fill="black" stroke="none" d="M60 1585A45 45 0 0 1 15 1540L15 60A45 45 0 0 1 60 15L1190 15A45 45 0 0 1 1235 60L1235 1540A45 45 0 0 1 1190 1585L60 1585Z" />
<path fill="white" stroke="none" d="M60 1565A25 25 0 0 1 35 1540L35 60A25 25 0 0 1 60 35L1190 35A25 25 0 0 1 1215 60L1215 1540A25 25 0 0 1 1190 1565L60 1565Z" />
<path fill="black" stroke="none" fill-rule="evenodd" d="M638.51 201.37L598.475569991376 177.767210594255A12 12 0 0 1 598.664928025417 156.983463493818A12 12 0 0 1 602.240215048071 155.658334778895L757.3 125L726.651665221105 280.059784951929A12 12 0 0 1 706.976514435722 286.759668650357A12 12 0 0 1 704.542895775189 283.824610426056L680.94 243.79L167.43 757.3L125 714.88L638.51 201.37ZM822.36 385.22L782.325569991376 361.607210594255A12 12 0 0 1 782.514928025417 340.823463493818A12 12 0 0 1 786.090215048071 339.498334778895L941.15 308.85L910.501665221105 463.909784951929A12 12 0 0 1 890.826514435722 470.609668650358A12 12 0 0 1 888.392895775189 467.674610426056L864.78 427.64L351.27 941.15L308.85 898.73L822.36 385.22ZM1006.21 569.06L966.175569991376 545.457210594255A12 12 0 0 1 966.364928025417 524.673463493818A12 12 0 0 1 969.940215048071 523.348334778895L1125 492.7L1094.3416652211 647.759784951929A12 12 0 0 1 1074.66651443572 654.459668650358A12 12 0 0 1 1072.23289577519 651.524610426056L1048.63 611.49L782.573593128807 877.543593128807A60 60 0 0 0 765 919.97L765 1475L705 1475L705 919.97A120 120 0 0 1 740.147186257614 835.117186257614L1006.21 569.06Z" />
</svg>
