<?xml version="1.0" standalone="no"?>
<!DOCTYPE svg PUBLIC "-//W3C//DTD SVG 1.1//EN" "http://www.w3.org/Graphics/SVG/1.1/DTD/svg11.dtd">
<svg width="1250" height="1600" version="1.1" xmlns="http://www.w3.org/2000/svg">
<path fill="white" stroke="black" stroke-width="1" d="M60 1600A60 60 0 0 1 0 1540L0 60A60 60 0 0 1 60 0L1190 0A60 60 0 0 1 1250 60L1250 1540A60 60 0 0 1 1190 1600L60 1600Z" />
<path fill="black" stroke="none" d="M60 1585A45 45 0 0 1 15 1540L15 60A45 45 0 0 1 60 15L1190 15A45 45 0 0 1 1235 60L1235 1540A45 45 0 0 1 1190 1585L60 1585Z" />
<path fill="white" stroke="none" d="M60 1565A25 25 0 0 1 35 1540L35 60A25 25 0 0 1 60 35L1190 35A25 25 0 0 1 1215 60L1215 1540A25 25 0 0 1 1190 1565L60 1565Z" />
<path fill="black" stroke="none" fill-rule="evenodd" d="M527.09 171.37L487.055569991376 147.767210594255A12 12 0 0 1 487.244928025417 126.983463493818A12 12 0 0 1 490.820215048071 125.658334778895L645.88 95L615.231665221105 250.059784951929A12 12 0 0 1 595.556514435722 256.759668650357A12 12 0 0 1 593.122895775189 253.824610426056L569.52 213.79L137.43 645.88L95 603.46L527.09 171.37ZM696.8 341.07L656.755569991376 317.467210594255A12 12 0 0 1 656.944928025417 296.683463493818A12 12 0 0 1 660.520215048071 295.358334778895L815.59 264.71L784.931665221105 419.769784951929A12 12 0 0 1 765.256514435722 426.469668650358A12 12 0 0 1 762.822895775189 423.534610426056L739.22 383.5L307.13 815.59L264.71 773.16L696.8 341.07ZM866.5 510.78L826.465569991376 487.177210594255A12 12 0 0 1 826.654928025417 466.393463493818A12 12 0 0 1 830.230215048071 465.068334778895L985.29 434.41L954.641665221105 589.479784951929A12 12 0 0 1 934.966514435722 596.179668650358A12 12 0 0 1 932.532895775189 593.244610426056L908.93 553.2L692.573593128807 769.553593128807A60 60 0 0 0 675 811.98L675 1505L615 1505L615 811.98A120 120 0 0 1 650.147186257614 727.127186257614L866.5 510.78ZM1036.21 680.48L996.175569991376 656.877210594255A12 12 0 0 1 996.364928025417 636.093463493818A12 12 0 0 1 999.940215048071 634.768334778895L1155 604.12L1124.3416652211 759.179784951929A12 12 0 0 1 1104.66651443572 765.879668650358A12 12 0 0 1 1102.23289577519 762.944610426056L1078.63 722.91L932.573593128807 868.973593128807A60 60 0 0 0 915 911.4L915 1505L855 1505L855 911.4A120 120 0 0 1 890.147186257614 826.547186257614L1036.21 680.48Z" />
</svg>
