<?xml version="1.0" encoding="UTF-8" standalone="no"?>
<svg
   xmlns:dc="http://purl.org/dc/elements/1.1/"
   xmlns:cc="http://creativecommons.org/ns#"
   xmlns:rdf="http://www.w3.org/1999/02/22-rdf-syntax-ns#"
   xmlns:svg="http://www.w3.org/2000/svg"
   xmlns="http://www.w3.org/2000/svg"
   viewBox="0 0 601.09955 601.03516"
   height="601.03516"
   width="601.09955"
   xml:space="preserve"
   id="svg6096"
   version="1.1"><metadata
     id="metadata6102"><rdf:RDF><cc:Work
         rdf:about=""><dc:format>image/svg+xml</dc:format><dc:type
           rdf:resource="http://purl.org/dc/dcmitype/StillImage" /><dc:title></dc:title></cc:Work></rdf:RDF></metadata><defs
     id="defs6100" /><g
     transform="matrix(1.3333333,0,0,-1.3333333,0,601.03516)"
     id="g6104"><g
       id="g6106"><path
         id="path6108"
         style="fill:#ffffff;fill-opacity:1;fill-rule:evenodd;stroke:none"
         d="M 30.422,450.386 H 420.41 c 16.574,0 30.008,-13.43 30.008,-30.004 V 30.394 C 450.418,13.913 436.984,0.386 420.41,0.386 H 30.422 C 13.941,0.386 0.414,13.913 0.414,30.394 v 389.988 c 0,16.574 13.527,30.004 30.008,30.004 z" /><path
         id="path6110"
         style="fill:#828282;fill-opacity:1;fill-rule:evenodd;stroke:none"
         d="m 28.918,17.604 c -6.191,0 -11.242,5.051 -11.242,11.243 v 57.797 h 57.801 c 6.191,0 11.238,-5.051 11.238,-11.239 V 17.604" /><path
         id="path6112"
         style="fill:#828282;fill-opacity:1;fill-rule:evenodd;stroke:none"
         d="m 154.254,17.604 v 57.801 c 0,6.188 5.051,11.239 11.242,11.239 H 433.148 V 28.847 c 0,-6.192 -5.05,-11.243 -11.242,-11.243" /><path
         id="path6114"
         style="fill:#828282;fill-opacity:1;fill-rule:evenodd;stroke:none"
         d="M 17.676,154.183 V 296.69 h 57.801 c 6.191,0 11.238,-5.05 11.238,-11.242 V 165.425 c 0,-6.196 -5.047,-11.242 -11.238,-11.242" /><path
         id="path6116"
         style="fill:#828282;fill-opacity:1;fill-rule:evenodd;stroke:none"
         d="m 433.148,154.183 h -57.707 c -6.187,0 -11.238,5.046 -11.238,11.242 v 120.023 c 0,6.192 5.051,11.242 11.238,11.242 h 57.707" /><path
         id="path6118"
         style="fill:#828282;fill-opacity:1;fill-rule:evenodd;stroke:none"
         d="m 17.676,364.132 v 57.797 c 0,6.191 5.051,11.242 11.242,11.242 H 86.715 V 375.37 c 0,-6.187 -5.047,-11.238 -11.238,-11.238" /><path
         id="path6120"
         style="fill:#828282;fill-opacity:1;fill-rule:evenodd;stroke:none"
         d="M 154.254,433.171 H 296.762 V 375.37 c 0,-6.187 -5.051,-11.238 -11.242,-11.238 H 165.496 c -6.191,0 -11.242,5.051 -11.242,11.238" /><path
         id="path6122"
         style="fill:#828282;fill-opacity:1;fill-rule:evenodd;stroke:none"
         d="m 364.203,433.171 h 57.703 c 6.192,0 11.403,-5.051 11.242,-11.242 v -57.797 h -57.707 c -6.187,0 -11.238,5.051 -11.238,11.238" /><path
         id="path6124"
         style="fill:#828282;fill-opacity:1;fill-rule:evenodd;stroke:none"
         d="m 165.496,154.183 c -6.191,0 -11.242,5.046 -11.242,11.242 v 120.023 c 0,6.192 5.051,11.242 11.242,11.242 H 285.52 c 6.191,0 11.242,-5.05 11.242,-11.242 V 165.425 c 0,-6.196 -5.051,-11.242 -11.242,-11.242" /><path
         id="path6126"
         style="fill:#000000;fill-opacity:1;fill-rule:evenodd;stroke:none"
         d="m 109.195,19.104 v 56.301 c 0,31.055 25.246,56.203 56.301,56.203 H 285.52 c 18.578,0 33.722,15.145 33.722,33.817 v 120.023 c 0,18.574 -15.144,33.723 -33.722,33.723 H 93.48 l 4.286,-16.766 c 0.668,-2.383 -0.668,-4.859 -3.051,-5.527 -1.235,-0.379 -2.57,-0.199 -3.715,0.476 L 41.754,330.409 91,363.464 c 2.098,1.336 4.957,0.762 6.289,-1.332 0.668,-1.047 0.856,-2.383 0.574,-3.528 L 93.48,341.651 h 192.04 c 31.054,0 56.203,-25.148 56.203,-56.203 V 165.425 c 0,-31.055 -25.149,-56.301 -56.203,-56.301 H 165.496 c -18.672,0 -33.816,-15.051 -33.816,-33.719 V 19.104" /><path
         id="path6128"
         style="fill:#000000;fill-opacity:1;fill-rule:evenodd;stroke:none"
         d="M 30.418,450.776 C 13.723,450.776 0,437.151 0,420.358 V 30.37 C 0,13.675 13.719,-0.001 30.418,-0.001 h 389.984 c 16.797,0 30.422,13.676 30.422,30.371 v 389.988 c 0,16.789 -13.629,30.418 -30.422,30.418 z m 0.004,-0.39 H 420.41 c 16.574,0 30.004,-13.43 30.004,-30.008 V 30.394 c 0,-16.481 -13.43,-30.008 -30.004,-30.008 H 30.422 C 13.941,0.386 0.414,13.913 0.414,30.394 v 389.984 c 0,16.578 13.527,30.008 30.008,30.008 z" /><path
         id="path6130"
         style="fill:#000000;fill-opacity:1;fill-rule:evenodd;stroke:none"
         d="m 30.422,442.862 c -12.383,0 -22.481,-10.097 -22.481,-22.484 V 30.394 C 7.941,18.011 18.039,7.913 30.422,7.913 H 420.41 c 12.383,0 22.481,10.098 22.481,22.481 v 389.984 c 0,12.387 -10.098,22.484 -22.481,22.484 z m 0,-11.144 H 420.41 c 6.192,0 11.242,-5.051 11.242,-11.242 V 30.394 c 0,-6.192 -5.05,-11.243 -11.242,-11.243 H 30.422 c -6.192,0 -11.242,5.051 -11.242,11.243 v 390.082 c 0,6.191 5.05,11.242 11.242,11.242 z" /></g></g></svg>