<?xml version="1.0" encoding="UTF-8" standalone="no"?>
<svg
   xmlns:dc="http://purl.org/dc/elements/1.1/"
   xmlns:cc="http://creativecommons.org/ns#"
   xmlns:rdf="http://www.w3.org/1999/02/22-rdf-syntax-ns#"
   xmlns:svg="http://www.w3.org/2000/svg"
   xmlns="http://www.w3.org/2000/svg"
   viewBox="0 0 601.09955 601.03516"
   height="601.03516"
   width="601.09955"
   xml:space="preserve"
   id="svg6229"
   version="1.1"><metadata
     id="metadata6235"><rdf:RDF><cc:Work
         rdf:about=""><dc:format>image/svg+xml</dc:format><dc:type
           rdf:resource="http://purl.org/dc/dcmitype/StillImage" /><dc:title></dc:title></cc:Work></rdf:RDF></metadata><defs
     id="defs6233" /><g
     transform="matrix(1.3333333,0,0,-1.3333333,0,601.03516)"
     id="g6237"><g
       id="g6239"><path
         id="path6241"
         style="fill:#ffffff;fill-opacity:1;fill-rule:evenodd;stroke:none"
         d="M 30.422,450.386 H 420.41 c 16.574,0 30.008,-13.43 30.008,-30.004 V 30.394 C 450.418,13.913 436.984,0.386 420.41,0.386 H 30.422 C 13.941,0.386 0.414,13.913 0.414,30.394 v 389.988 c 0,16.574 13.527,30.004 30.008,30.004 z" /><path
         id="path6243"
         style="fill:#828282;fill-opacity:1;fill-rule:evenodd;stroke:none"
         d="m 28.918,17.604 c -6.191,0 -11.242,5.051 -11.242,11.243 v 57.797 h 57.801 c 6.191,0 11.238,-5.051 11.238,-11.239 V 17.604" /><path
         id="path6245"
         style="fill:#828282;fill-opacity:1;fill-rule:evenodd;stroke:none"
         d="m 154.254,17.604 v 57.801 c 0,6.188 5.051,11.239 11.242,11.239 H 433.148 V 28.847 c 0,-6.192 -5.05,-11.243 -11.242,-11.243" /><path
         id="path6247"
         style="fill:#828282;fill-opacity:1;fill-rule:evenodd;stroke:none"
         d="M 17.676,154.183 V 296.69 h 57.801 c 6.191,0 11.238,-5.05 11.238,-11.242 V 165.425 c 0,-6.196 -5.047,-11.242 -11.238,-11.242" /><path
         id="path6249"
         style="fill:#828282;fill-opacity:1;fill-rule:evenodd;stroke:none"
         d="m 433.148,154.183 h -57.707 c -6.187,0 -11.238,5.046 -11.238,11.242 v 120.023 c 0,6.192 5.051,11.242 11.238,11.242 h 57.707" /><path
         id="path6251"
         style="fill:#828282;fill-opacity:1;fill-rule:evenodd;stroke:none"
         d="m 17.676,364.132 v 57.797 c 0,6.191 5.051,11.242 11.242,11.242 H 86.715 V 375.37 c 0,-6.187 -5.047,-11.238 -11.238,-11.238" /><path
         id="path6253"
         style="fill:#828282;fill-opacity:1;fill-rule:evenodd;stroke:none"
         d="M 154.254,433.171 H 296.762 V 375.37 c 0,-6.187 -5.051,-11.238 -11.242,-11.238 H 165.496 c -6.191,0 -11.242,5.051 -11.242,11.238" /><path
         id="path6255"
         style="fill:#828282;fill-opacity:1;fill-rule:evenodd;stroke:none"
         d="m 364.203,433.171 h 57.703 c 6.192,0 11.403,-5.051 11.242,-11.242 v -57.797 h -57.707 c -6.187,0 -11.238,5.051 -11.238,11.238" /><path
         id="path6257"
         style="fill:#828282;fill-opacity:1;fill-rule:evenodd;stroke:none"
         d="m 165.496,154.183 c -6.191,0 -11.242,5.046 -11.242,11.242 v 120.023 c 0,6.192 5.051,11.242 11.242,11.242 H 285.52 c 6.191,0 11.242,-5.05 11.242,-11.242 V 165.425 c 0,-6.196 -5.051,-11.242 -11.242,-11.242" /><path
         id="path6259"
         style="fill:#000000;fill-opacity:1;fill-rule:evenodd;stroke:none"
         d="M 30.418,450.776 C 13.723,450.776 0,437.151 0,420.358 V 30.37 C 0,13.675 13.719,-0.001 30.418,-0.001 h 389.984 c 16.797,0 30.422,13.676 30.422,30.371 v 389.988 c 0,16.789 -13.629,30.418 -30.422,30.418 z m 0.004,-0.39 H 420.41 c 16.574,0 30.004,-13.43 30.004,-30.008 V 30.394 c 0,-16.481 -13.43,-30.008 -30.004,-30.008 H 30.422 C 13.941,0.386 0.414,13.913 0.414,30.394 v 389.984 c 0,16.578 13.527,30.008 30.008,30.008 z" /><path
         id="path6261"
         style="fill:#000000;fill-opacity:1;fill-rule:evenodd;stroke:none"
         d="m 109.199,17.62 v 91.516 H 93.48 L 97.766,92.37 c 0.668,-2.379 -0.664,-4.855 -3.047,-5.523 -1.239,-0.383 -2.574,-0.2 -3.715,0.476 l -49.25,33.051 49.25,33.059 c 2.094,1.332 4.953,0.761 6.285,-1.336 0.668,-1.047 0.859,-2.285 0.574,-3.524 L 93.48,131.616 h 15.719 v 153.836 c 0,31.055 25.242,56.199 56.293,56.199 h 120.031 c 31.051,0 56.2,-25.144 56.2,-56.199 V 165.433 c 0,-31.055 -25.149,-56.297 -56.2,-56.297 H 131.676 V 17.62 Z m 22.477,113.996 h 153.847 c 18.575,0 33.719,15.149 33.719,33.817 v 120.019 c 0,18.574 -15.144,33.719 -33.719,33.719 H 165.492 c -18.668,0 -33.816,-15.145 -33.816,-33.719" /><path
         id="path6263"
         style="fill:#000000;fill-opacity:1;fill-rule:evenodd;stroke:none"
         d="m 30.422,442.862 c -12.383,0 -22.481,-10.097 -22.481,-22.484 V 30.394 C 7.941,18.011 18.039,7.913 30.422,7.913 H 420.41 c 12.383,0 22.481,10.098 22.481,22.481 v 389.984 c 0,12.387 -10.098,22.484 -22.481,22.484 z m 0,-11.144 H 420.41 c 6.192,0 11.242,-5.051 11.242,-11.242 V 30.394 c 0,-6.192 -5.05,-11.243 -11.242,-11.243 H 30.422 c -6.192,0 -11.242,5.051 -11.242,11.243 v 390.082 c 0,6.191 5.05,11.242 11.242,11.242 z" /></g></g></svg>