<?xml version="1.0" encoding="UTF-8" standalone="no"?>
<!-- Created with Inkscape (http://www.inkscape.org/) -->

<svg
   xmlns:dc="http://purl.org/dc/elements/1.1/"
   xmlns:cc="http://creativecommons.org/ns#"
   xmlns:rdf="http://www.w3.org/1999/02/22-rdf-syntax-ns#"
   xmlns:svg="http://www.w3.org/2000/svg"
   xmlns="http://www.w3.org/2000/svg"
   xmlns:sodipodi="http://sodipodi.sourceforge.net/DTD/sodipodi-0.dtd"
   xmlns:inkscape="http://www.inkscape.org/namespaces/inkscape"
   width="261.34375"
   height="587.9375"
   id="svg4090"
   sodipodi:version="0.32"
   inkscape:version="0.48.2 r9819"
   version="1.0"
   sodipodi:docname="AJAX.svg"
   inkscape:output_extension="org.inkscape.output.svg.inkscape">
  <defs
     id="defs4092">
    <inkscape:perspective
       sodipodi:type="inkscape:persp3d"
       inkscape:vp_x="0 : 526.18109 : 1"
       inkscape:vp_y="0 : 1000 : 0"
       inkscape:vp_z="744.09448 : 526.18109 : 1"
       inkscape:persp3d-origin="372.04724 : 350.78739 : 1"
       id="perspective4098" />
    <inkscape:perspective
       sodipodi:type="inkscape:persp3d"
       inkscape:vp_x="0 : 526.18109 : 1"
       inkscape:vp_y="0 : 1000 : 0"
       inkscape:vp_z="744.09448 : 526.18109 : 1"
       inkscape:persp3d-origin="372.04724 : 350.78739 : 1"
       id="perspective2749" />
    <inkscape:perspective
       sodipodi:type="inkscape:persp3d"
       inkscape:vp_x="0 : 600 : 1"
       inkscape:vp_y="0 : 1000 : 0"
       inkscape:vp_z="1000 : 600 : 1"
       inkscape:persp3d-origin="500 : 400 : 1"
       id="perspective86" />
    <inkscape:perspective
       sodipodi:type="inkscape:persp3d"
       inkscape:vp_x="0 : 677.49988 : 1"
       inkscape:vp_y="0 : 1000 : 0"
       inkscape:vp_z="1296 : 677.49988 : 1"
       inkscape:persp3d-origin="648 : 451.66659 : 1"
       id="perspective49" />
    <marker
       refX="0"
       refY="0"
       orient="auto"
       style="overflow:visible"
       id="Arrow2Lstart">
      <path
         d="M 8.7185878,4.0337352 -2.2072895,0.01601326 8.7185884,-4.0017078 c -1.7454984,2.3720609 -1.7354408,5.6174519 -6e-7,8.035443 z"
         transform="matrix(1.1,0,0,1.1,1.1,0)"
         style="font-size:12px;fill-rule:evenodd;stroke-width:0.625;stroke-linejoin:round"
         id="path5785"
         inkscape:connector-curvature="0" />
    </marker>
    <pattern
       id="pattern4002"
       patternTransform="translate(18.50938,18)"
       height="476"
       width="370"
       patternUnits="userSpaceOnUse">
      <rect
         style="fill:#00e5ff;fill-opacity:1"
         id="rect2240"
         width="370"
         height="476"
         x="0"
         y="0"
         rx="20"
         ry="20" />
    </pattern>
    <pattern
       patternUnits="userSpaceOnUse"
       width="370"
       height="476"
       patternTransform="translate(18.50938,18)"
       id="pattern5932">
      <rect
         ry="20"
         rx="20"
         y="0"
         x="0"
         height="476"
         width="370"
         id="rect5934"
         style="fill:#00e5ff;fill-opacity:1" />
    </pattern>
    <pattern
       patternUnits="userSpaceOnUse"
       width="370"
       height="476"
       patternTransform="translate(18.50938,18)"
       id="pattern2944">
      <rect
         ry="20"
         rx="20"
         y="0"
         x="0"
         height="476"
         width="370"
         id="rect2946"
         style="fill:#00e5ff;fill-opacity:1" />
    </pattern>
    <pattern
       id="pattern2940"
       patternTransform="translate(18.50938,18)"
       height="476"
       width="370"
       patternUnits="userSpaceOnUse">
      <rect
         style="fill:#00e5ff;fill-opacity:1"
         id="rect2942"
         width="370"
         height="476"
         x="0"
         y="0"
         rx="20"
         ry="20" />
    </pattern>
    <marker
       refX="0"
       refY="0"
       orient="auto"
       style="overflow:visible"
       id="marker2936">
      <path
         d="M 8.7185878,4.0337352 -2.2072895,0.01601326 8.7185884,-4.0017078 c -1.7454984,2.3720609 -1.7354408,5.6174519 -6e-7,8.035443 z"
         transform="matrix(1.1,0,0,1.1,1.1,0)"
         style="font-size:12px;fill-rule:evenodd;stroke-width:0.625;stroke-linejoin:round"
         id="path2938"
         inkscape:connector-curvature="0" />
    </marker>
    <pattern
       patternUnits="userSpaceOnUse"
       width="370"
       height="476"
       patternTransform="translate(18.50938,18)"
       id="pattern5613">
      <rect
         ry="20"
         rx="20"
         y="0"
         x="0"
         height="476"
         width="370"
         id="rect5615"
         style="fill:#00e5ff;fill-opacity:1" />
    </pattern>
    <marker
       refX="0"
       refY="0"
       orient="auto"
       style="overflow:visible"
       id="marker2313">
      <path
         d="M 8.7185878,4.0337352 -2.2072895,0.01601326 8.7185884,-4.0017078 c -1.7454984,2.3720609 -1.7354408,5.6174519 -6e-7,8.035443 z"
         transform="matrix(1.1,0,0,1.1,1.1,0)"
         style="font-size:12px;fill-rule:evenodd;stroke-width:0.625;stroke-linejoin:round"
         id="path2315"
         inkscape:connector-curvature="0" />
    </marker>
    <pattern
       id="pattern2317"
       patternTransform="translate(18.50938,18)"
       height="476"
       width="370"
       patternUnits="userSpaceOnUse">
      <rect
         style="fill:#00e5ff;fill-opacity:1"
         id="rect2319"
         width="370"
         height="476"
         x="0"
         y="0"
         rx="20"
         ry="20" />
    </pattern>
    <pattern
       patternUnits="userSpaceOnUse"
       width="370"
       height="476"
       patternTransform="translate(18.50938,18)"
       id="pattern2321">
      <rect
         ry="20"
         rx="20"
         y="0"
         x="0"
         height="476"
         width="370"
         id="rect2323"
         style="fill:#00e5ff;fill-opacity:1" />
    </pattern>
    <pattern
       patternUnits="userSpaceOnUse"
       width="370"
       height="476"
       patternTransform="translate(18.50938,18)"
       id="pattern3936">
      <rect
         ry="20"
         rx="20"
         y="0"
         x="0"
         height="476"
         width="370"
         id="rect3938"
         style="fill:#00e5ff;fill-opacity:1" />
    </pattern>
    <pattern
       id="pattern3932"
       patternTransform="translate(18.50938,18)"
       height="476"
       width="370"
       patternUnits="userSpaceOnUse">
      <rect
         style="fill:#00e5ff;fill-opacity:1"
         id="rect3934"
         width="370"
         height="476"
         x="0"
         y="0"
         rx="20"
         ry="20" />
    </pattern>
    <marker
       refX="0"
       refY="0"
       orient="auto"
       style="overflow:visible"
       id="marker3928">
      <path
         d="M 8.7185878,4.0337352 -2.2072895,0.01601326 8.7185884,-4.0017078 c -1.7454984,2.3720609 -1.7354408,5.6174519 -6e-7,8.035443 z"
         transform="matrix(1.1,0,0,1.1,1.1,0)"
         style="font-size:12px;fill-rule:evenodd;stroke-width:0.625;stroke-linejoin:round"
         id="path3930"
         inkscape:connector-curvature="0" />
    </marker>
    <pattern
       patternUnits="userSpaceOnUse"
       width="370"
       height="476"
       patternTransform="translate(18.50938,18)"
       id="pattern4296">
      <rect
         ry="20"
         rx="20"
         y="0"
         x="0"
         height="476"
         width="370"
         id="rect4298"
         style="fill:#00e5ff;fill-opacity:1" />
    </pattern>
    <pattern
       id="pattern4292"
       patternTransform="translate(18.50938,18)"
       height="476"
       width="370"
       patternUnits="userSpaceOnUse">
      <rect
         style="fill:#00e5ff;fill-opacity:1"
         id="rect4294"
         width="370"
         height="476"
         x="0"
         y="0"
         rx="20"
         ry="20" />
    </pattern>
    <marker
       refX="0"
       refY="0"
       orient="auto"
       style="overflow:visible"
       id="marker4288">
      <path
         d="M 8.7185878,4.0337352 -2.2072895,0.01601326 8.7185884,-4.0017078 c -1.7454984,2.3720609 -1.7354408,5.6174519 -6e-7,8.035443 z"
         transform="matrix(1.1,0,0,1.1,1.1,0)"
         style="font-size:12px;fill-rule:evenodd;stroke-width:0.625;stroke-linejoin:round"
         id="path4290"
         inkscape:connector-curvature="0" />
    </marker>
    <inkscape:perspective
       sodipodi:type="inkscape:persp3d"
       inkscape:vp_x="0 : 677.49988 : 1"
       inkscape:vp_y="0 : 1000 : 0"
       inkscape:vp_z="1296 : 677.49988 : 1"
       inkscape:persp3d-origin="648 : 451.66659 : 1"
       id="perspective3345" />
    <marker
       refX="0"
       refY="0"
       orient="auto"
       style="overflow:visible"
       id="marker3341">
      <path
         d="M 8.7185878,4.0337352 -2.2072895,0.01601326 8.7185884,-4.0017078 c -1.7454984,2.3720609 -1.7354408,5.6174519 -6e-7,8.035443 z"
         transform="matrix(1.1,0,0,1.1,1.1,0)"
         style="font-size:12px;fill-rule:evenodd;stroke-width:0.625;stroke-linejoin:round"
         id="path3343"
         inkscape:connector-curvature="0" />
    </marker>
    <pattern
       id="pattern3337"
       patternTransform="translate(18.50938,18)"
       height="476"
       width="370"
       patternUnits="userSpaceOnUse">
      <rect
         style="fill:#00e5ff;fill-opacity:1"
         id="rect3339"
         width="370"
         height="476"
         x="0"
         y="0"
         rx="20"
         ry="20" />
    </pattern>
    <pattern
       patternUnits="userSpaceOnUse"
       width="370"
       height="476"
       patternTransform="translate(18.50938,18)"
       id="pattern3333">
      <rect
         ry="20"
         rx="20"
         y="0"
         x="0"
         height="476"
         width="370"
         id="rect3335"
         style="fill:#00e5ff;fill-opacity:1" />
    </pattern>
    <pattern
       patternUnits="userSpaceOnUse"
       width="370"
       height="476"
       patternTransform="translate(18.50938,18)"
       id="pattern3329">
      <rect
         ry="20"
         rx="20"
         y="0"
         x="0"
         height="476"
         width="370"
         id="rect3331"
         style="fill:#00e5ff;fill-opacity:1" />
    </pattern>
    <pattern
       id="pattern3325"
       patternTransform="translate(18.50938,18)"
       height="476"
       width="370"
       patternUnits="userSpaceOnUse">
      <rect
         style="fill:#00e5ff;fill-opacity:1"
         id="rect3327"
         width="370"
         height="476"
         x="0"
         y="0"
         rx="20"
         ry="20" />
    </pattern>
    <marker
       refX="0"
       refY="0"
       orient="auto"
       style="overflow:visible"
       id="marker3321">
      <path
         d="M 8.7185878,4.0337352 -2.2072895,0.01601326 8.7185884,-4.0017078 c -1.7454984,2.3720609 -1.7354408,5.6174519 -6e-7,8.035443 z"
         transform="matrix(1.1,0,0,1.1,1.1,0)"
         style="font-size:12px;fill-rule:evenodd;stroke-width:0.625;stroke-linejoin:round"
         id="path3323"
         inkscape:connector-curvature="0" />
    </marker>
    <pattern
       patternUnits="userSpaceOnUse"
       width="370"
       height="476"
       patternTransform="translate(18.50938,18)"
       id="pattern3317">
      <rect
         ry="20"
         rx="20"
         y="0"
         x="0"
         height="476"
         width="370"
         id="rect3319"
         style="fill:#00e5ff;fill-opacity:1" />
    </pattern>
    <marker
       refX="0"
       refY="0"
       orient="auto"
       style="overflow:visible"
       id="marker3313">
      <path
         d="M 8.7185878,4.0337352 -2.2072895,0.01601326 8.7185884,-4.0017078 c -1.7454984,2.3720609 -1.7354408,5.6174519 -6e-7,8.035443 z"
         transform="matrix(1.1,0,0,1.1,1.1,0)"
         style="font-size:12px;fill-rule:evenodd;stroke-width:0.625;stroke-linejoin:round"
         id="path3315"
         inkscape:connector-curvature="0" />
    </marker>
    <pattern
       id="pattern3309"
       patternTransform="translate(18.50938,18)"
       height="476"
       width="370"
       patternUnits="userSpaceOnUse">
      <rect
         style="fill:#00e5ff;fill-opacity:1"
         id="rect3311"
         width="370"
         height="476"
         x="0"
         y="0"
         rx="20"
         ry="20" />
    </pattern>
    <pattern
       patternUnits="userSpaceOnUse"
       width="370"
       height="476"
       patternTransform="translate(18.50938,18)"
       id="pattern3305">
      <rect
         ry="20"
         rx="20"
         y="0"
         x="0"
         height="476"
         width="370"
         id="rect3307"
         style="fill:#00e5ff;fill-opacity:1" />
    </pattern>
    <pattern
       patternUnits="userSpaceOnUse"
       width="370"
       height="476"
       patternTransform="translate(18.50938,18)"
       id="pattern3301">
      <rect
         ry="20"
         rx="20"
         y="0"
         x="0"
         height="476"
         width="370"
         id="rect3303"
         style="fill:#00e5ff;fill-opacity:1" />
    </pattern>
    <pattern
       id="pattern3297"
       patternTransform="translate(18.50938,18)"
       height="476"
       width="370"
       patternUnits="userSpaceOnUse">
      <rect
         style="fill:#00e5ff;fill-opacity:1"
         id="rect3299"
         width="370"
         height="476"
         x="0"
         y="0"
         rx="20"
         ry="20" />
    </pattern>
    <marker
       refX="0"
       refY="0"
       orient="auto"
       style="overflow:visible"
       id="marker3293">
      <path
         d="M 8.7185878,4.0337352 -2.2072895,0.01601326 8.7185884,-4.0017078 c -1.7454984,2.3720609 -1.7354408,5.6174519 -6e-7,8.035443 z"
         transform="matrix(1.1,0,0,1.1,1.1,0)"
         style="font-size:12px;fill-rule:evenodd;stroke-width:0.625;stroke-linejoin:round"
         id="path3295"
         inkscape:connector-curvature="0" />
    </marker>
    <pattern
       patternUnits="userSpaceOnUse"
       width="370"
       height="476"
       patternTransform="translate(18.50938,18)"
       id="pattern3289">
      <rect
         ry="20"
         rx="20"
         y="0"
         x="0"
         height="476"
         width="370"
         id="rect3291"
         style="fill:#00e5ff;fill-opacity:1" />
    </pattern>
    <pattern
       id="pattern3285"
       patternTransform="translate(18.50938,18)"
       height="476"
       width="370"
       patternUnits="userSpaceOnUse">
      <rect
         style="fill:#00e5ff;fill-opacity:1"
         id="rect3287"
         width="370"
         height="476"
         x="0"
         y="0"
         rx="20"
         ry="20" />
    </pattern>
    <marker
       refX="0"
       refY="0"
       orient="auto"
       style="overflow:visible"
       id="marker3281">
      <path
         d="M 8.7185878,4.0337352 -2.2072895,0.01601326 8.7185884,-4.0017078 c -1.7454984,2.3720609 -1.7354408,5.6174519 -6e-7,8.035443 z"
         transform="matrix(1.1,0,0,1.1,1.1,0)"
         style="font-size:12px;fill-rule:evenodd;stroke-width:0.625;stroke-linejoin:round"
         id="path3283"
         inkscape:connector-curvature="0" />
    </marker>
    <inkscape:perspective
       sodipodi:type="inkscape:persp3d"
       inkscape:vp_x="0 : 526.18109 : 1"
       inkscape:vp_y="0 : 1000 : 0"
       inkscape:vp_z="744.09448 : 526.18109 : 1"
       inkscape:persp3d-origin="372.04724 : 350.78739 : 1"
       id="perspective2392" />
    <inkscape:perspective
       id="perspective2561"
       inkscape:persp3d-origin="372.04724 : 350.78739 : 1"
       inkscape:vp_z="744.09448 : 526.18109 : 1"
       inkscape:vp_y="0 : 1000 : 0"
       inkscape:vp_x="0 : 526.18109 : 1"
       sodipodi:type="inkscape:persp3d" />
    <inkscape:perspective
       id="perspective3382"
       inkscape:persp3d-origin="372.04724 : 350.78739 : 1"
       inkscape:vp_z="744.09448 : 526.18109 : 1"
       inkscape:vp_y="0 : 1000 : 0"
       inkscape:vp_x="0 : 526.18109 : 1"
       sodipodi:type="inkscape:persp3d" />
    <inkscape:perspective
       id="perspective3415"
       inkscape:persp3d-origin="372.04724 : 350.78739 : 1"
       inkscape:vp_z="744.09448 : 526.18109 : 1"
       inkscape:vp_y="0 : 1000 : 0"
       inkscape:vp_x="0 : 526.18109 : 1"
       sodipodi:type="inkscape:persp3d" />
    <inkscape:perspective
       id="perspective10"
       inkscape:persp3d-origin="466.33295 : 536.50168 : 1"
       inkscape:vp_z="1169.8088 : 1463.324 : 1"
       inkscape:vp_y="6.1230318e-014 : 1000 : 0"
       inkscape:vp_x="-22.857147 : 606.18109 : 1"
       sodipodi:type="inkscape:persp3d" />
    <inkscape:perspective
       id="perspective4496"
       inkscape:persp3d-origin="372.04724 : 350.78739 : 1"
       inkscape:vp_z="744.09448 : 526.18109 : 1"
       inkscape:vp_y="0 : 1000 : 0"
       inkscape:vp_x="0 : 526.18109 : 1"
       sodipodi:type="inkscape:persp3d" />
    <inkscape:perspective
       id="perspective5235"
       inkscape:persp3d-origin="372.04724 : 350.78739 : 1"
       inkscape:vp_z="744.09448 : 526.18109 : 1"
       inkscape:vp_y="0 : 1000 : 0"
       inkscape:vp_x="0 : 526.18109 : 1"
       sodipodi:type="inkscape:persp3d" />
    <inkscape:perspective
       id="perspective5315"
       inkscape:persp3d-origin="372.04724 : 350.78739 : 1"
       inkscape:vp_z="744.09448 : 526.18109 : 1"
       inkscape:vp_y="0 : 1000 : 0"
       inkscape:vp_x="0 : 526.18109 : 1"
       sodipodi:type="inkscape:persp3d" />
    <inkscape:perspective
       id="perspective5332"
       inkscape:persp3d-origin="250.00015 : 166.66665 : 1"
       inkscape:vp_z="500.00031 : 249.99997 : 1"
       inkscape:vp_y="0 : 1000 : 0"
       inkscape:vp_x="0 : 249.99997 : 1"
       sodipodi:type="inkscape:persp3d" />
    <inkscape:perspective
       id="perspective5351"
       inkscape:persp3d-origin="500 : 333.33333 : 1"
       inkscape:vp_z="1000 : 500 : 1"
       inkscape:vp_y="0 : 1000 : 0"
       inkscape:vp_x="0 : 500 : 1"
       sodipodi:type="inkscape:persp3d" />
    <inkscape:perspective
       id="perspective5366"
       inkscape:persp3d-origin="250 : 166.66667 : 1"
       inkscape:vp_z="500 : 250 : 1"
       inkscape:vp_y="0 : 1000 : 0"
       inkscape:vp_x="0 : 250 : 1"
       sodipodi:type="inkscape:persp3d" />
    <pattern
       id="pattern5408"
       patternTransform="translate(18.50938,18)"
       height="476"
       width="370"
       patternUnits="userSpaceOnUse">
      <rect
         style="fill:#00e5ff;fill-opacity:1"
         id="rect5410"
         width="370"
         height="476"
         x="0"
         y="0"
         rx="20"
         ry="20" />
    </pattern>
    <pattern
       patternUnits="userSpaceOnUse"
       width="370"
       height="476"
       patternTransform="translate(18.50938,18)"
       id="pattern5404">
      <rect
         ry="20"
         rx="20"
         y="0"
         x="0"
         height="476"
         width="370"
         id="rect5406"
         style="fill:#00e5ff;fill-opacity:1" />
    </pattern>
    <marker
       id="marker5400"
       style="overflow:visible"
       orient="auto"
       refY="0"
       refX="0">
      <path
         id="path5402"
         style="font-size:12px;fill-rule:evenodd;stroke-width:0.625;stroke-linejoin:round"
         transform="matrix(1.1,0,0,1.1,1.1,0)"
         d="M 8.7185878,4.0337352 -2.2072895,0.01601326 8.7185884,-4.0017078 c -1.7454984,2.3720609 -1.7354408,5.6174519 -6e-7,8.035443 z"
         inkscape:connector-curvature="0" />
    </marker>
    <inkscape:perspective
       id="perspective5397"
       inkscape:persp3d-origin="250 : 166.66667 : 1"
       inkscape:vp_z="500 : 250 : 1"
       inkscape:vp_y="0 : 1000 : 0"
       inkscape:vp_x="0 : 250 : 1"
       sodipodi:type="inkscape:persp3d" />
    <pattern
       id="pattern5461"
       patternTransform="translate(18.50938,18)"
       height="476"
       width="370"
       patternUnits="userSpaceOnUse">
      <rect
         style="fill:#00e5ff;fill-opacity:1"
         id="rect5463"
         width="370"
         height="476"
         x="0"
         y="0"
         rx="20"
         ry="20" />
    </pattern>
    <pattern
       patternUnits="userSpaceOnUse"
       width="370"
       height="476"
       patternTransform="translate(18.50938,18)"
       id="pattern5457">
      <rect
         ry="20"
         rx="20"
         y="0"
         x="0"
         height="476"
         width="370"
         id="rect5459"
         style="fill:#00e5ff;fill-opacity:1" />
    </pattern>
    <marker
       id="marker5453"
       style="overflow:visible"
       orient="auto"
       refY="0"
       refX="0">
      <path
         id="path5455"
         style="font-size:12px;fill-rule:evenodd;stroke-width:0.625;stroke-linejoin:round"
         transform="matrix(1.1,0,0,1.1,1.1,0)"
         d="M 8.7185878,4.0337352 -2.2072895,0.01601326 8.7185884,-4.0017078 c -1.7454984,2.3720609 -1.7354408,5.6174519 -6e-7,8.035443 z"
         inkscape:connector-curvature="0" />
    </marker>
    <inkscape:perspective
       id="perspective5450"
       inkscape:persp3d-origin="250 : 166.66667 : 1"
       inkscape:vp_z="500 : 250 : 1"
       inkscape:vp_y="0 : 1000 : 0"
       inkscape:vp_x="0 : 250 : 1"
       sodipodi:type="inkscape:persp3d" />
    <inkscape:perspective
       id="perspective5501"
       inkscape:persp3d-origin="250.00005 : 166.66674 : 1"
       inkscape:vp_z="500.00009 : 250.00011 : 1"
       inkscape:vp_y="0 : 1000 : 0"
       inkscape:vp_x="0 : 250.00011 : 1"
       sodipodi:type="inkscape:persp3d" />
    <inkscape:perspective
       id="perspective5604"
       inkscape:persp3d-origin="500 : 400 : 1"
       inkscape:vp_z="1000 : 600 : 1"
       inkscape:vp_y="0 : 1000 : 0"
       inkscape:vp_x="0 : 600 : 1"
       sodipodi:type="inkscape:persp3d" />
    <inkscape:perspective
       id="perspective5899"
       inkscape:persp3d-origin="372.04724 : 350.78739 : 1"
       inkscape:vp_z="744.09448 : 526.18109 : 1"
       inkscape:vp_y="0 : 1000 : 0"
       inkscape:vp_x="0 : 526.18109 : 1"
       sodipodi:type="inkscape:persp3d" />
    <inkscape:perspective
       id="perspective5992"
       inkscape:persp3d-origin="500 : 400 : 1"
       inkscape:vp_z="1000 : 600 : 1"
       inkscape:vp_y="0 : 1000 : 0"
       inkscape:vp_x="0 : 600 : 1"
       sodipodi:type="inkscape:persp3d" />
  </defs>
  <sodipodi:namedview
     id="base"
     pagecolor="#ffffff"
     bordercolor="#666666"
     borderopacity="1.0"
     gridtolerance="10000"
     guidetolerance="10"
     objecttolerance="10"
     inkscape:pageopacity="0.0"
     inkscape:pageshadow="2"
     inkscape:zoom="1"
     inkscape:cx="20.921512"
     inkscape:cy="240.79771"
     inkscape:document-units="px"
     inkscape:current-layer="layer1"
     showgrid="false"
     inkscape:window-width="1280"
     inkscape:window-height="1004"
     inkscape:window-x="-8"
     inkscape:window-y="-8"
     fit-margin-top="0"
     fit-margin-left="0"
     fit-margin-right="0"
     fit-margin-bottom="0"
     inkscape:window-maximized="1" />
  <metadata
     id="metadata4095">
    <rdf:RDF>
      <cc:Work
         rdf:about="">
        <dc:format>image/svg+xml</dc:format>
        <dc:type
           rdf:resource="http://purl.org/dc/dcmitype/StillImage" />
      </cc:Work>
    </rdf:RDF>
  </metadata>
  <g
     inkscape:label="Layer 1"
     inkscape:groupmode="layer"
     id="layer1"
     transform="translate(-444.4375,59.125)">
    <rect
       id="rect3222"
       style="fill:#ffffff;fill-opacity:1;stroke:#000000;stroke-width:2.29999995;stroke-miterlimit:4;stroke-opacity:1;stroke-dasharray:none"
       transform="matrix(0,-1,-1,0,0,0)"
       y="-704.63824"
       x="-527.67114"
       ry="19.018696"
       rx="21.725502"
       height="259.04257"
       width="585.64172" />
    <rect
       id="rect3015"
       style="fill:#003399;fill-opacity:1;stroke:none"
       transform="matrix(0,-1,-1,0,0,0)"
       y="-694.43823"
       x="-516.63696"
       ry="9.0121307"
       rx="10.470596"
       height="238.64249"
       width="563.57336" />
    <g
       id="g6250"
       transform="translate(-0.06122586,0)">
      <path
         d="m 595.04267,72.204911 c -8.11554,0.07904 -13.58709,5.31785 -13.58709,5.31785 0,0 -6.33235,-5.31785 -13.16572,-5.31785 -7.25661,0 -12.55359,3.9634 -13.84903,5.03378 l 0,-5.03378 -13.57567,0 0,54.587849 13.57567,0 0,-34.520819 c 0.49346,-1.47776 2.55345,-6.38598 8.24564,-6.38598 7.4256,0 8.56452,6.8178 8.56452,6.8178 l 0.22781,34.088999 13.57568,0 0.0457,-34.088999 c 0,0 1.5032,-6.88599 8.7922,-6.88599 5.91801,0 8.34149,6.16958 8.56451,6.77237 l 0,34.202619 13.57581,0 0.0455,-34.088999 c -0.48549,-11.39098 -9.84589,-20.30687 -21.03553,-20.49885 z"
         style="fill:#ffffff;fill-opacity:1;stroke:none"
         id="path6232"
         inkscape:connector-curvature="0" />
      <path
         d="m 501.9511,-30.017969 c -12.09147,0 -21.98388,9.40548 -22.74565,21.26698 l 13.15538,0 c 0.95583,-4.39977 4.89108,-7.70103 9.59027,-7.70103 5.41402,0 9.80698,4.37855 9.80698,9.77483 0,5.3962804 -4.39296,9.7748604 -9.80698,9.7748604 -1.19301,0 -2.33418,-0.2157 -3.39181,-0.60487 l 0,10.6604896 c 1.08137,-0.29495 2.21681,-0.45363 3.39181,-0.45363 7.08905,0 12.84124,5.73335 12.84124,12.79912 0,7.06573 -5.75219,12.79907 -12.84124,12.79907 -6.55955,0 -11.97165,-4.91246 -12.7438,-11.24373 l -13.45891,0 c 0.7031,13.8113 12.17282,24.8097 26.20271,24.8097 14.4827,0 26.2352,-11.71398 26.2352,-26.14901 l 0,-0.01084 c 0,-7.50086 -3.1762,-14.25041 -8.25751,-19.0204096 3.02008,-3.85515 4.82228,-8.69913 4.82228,-13.9656104 0,-12.54634 -10.21228,-22.73592 -22.79997,-22.73592 z"
         style="fill:#ffffff;fill-opacity:1;stroke:none"
         id="path6234"
         inkscape:connector-curvature="0" />
      <path
         d="m 573.129,-30.786379 c -14.59511,0.45057 -26.22604,15.02065 -26.22604,33.0377104 l 0,15.8031396 c 0,18.30305 12.00596,33.03775 26.92593,33.03775 14.91983,0 26.92579,-14.7347 26.92579,-33.03775 l 0,-15.8031396 c 0,-18.3030504 -12.00596,-33.0377104 -26.92579,-33.0377104 -0.23312,0 -0.46823,-0.0072 -0.69989,0 z m 0.69989,13.59295 c 7.39652,0 13.35384,9.84582 13.35384,22.0671704 l 0,10.5468596 c 0,12.22136 -5.95732,22.06715 -13.35384,22.06715 -7.39666,0 -13.3541,-9.84579 -13.3541,-22.06715 l 0,-10.5468596 c 0,-12.2213504 5.95744,-22.0671704 13.3541,-22.0671704 z"
         style="fill:#ffffff;fill-opacity:1;stroke:none"
         id="path6236"
         inkscape:connector-curvature="0" />
      <path
         d="m 646.98235,-30.505309 c -14.59511,0.45057 -26.22604,15.02064 -26.22604,33.0377104 l 0,15.8031496 c 0,18.30305 12.00596,33.03774 26.92594,33.03774 14.91982,0 26.92579,-14.73469 26.92579,-33.03774 l 0,-15.8031496 c 0,-18.3030504 -12.00597,-33.0377104 -26.92579,-33.0377104 -0.23313,0 -0.46824,-0.0072 -0.6999,0 z m 0.6999,13.59296 c 7.39651,0 13.35383,9.84582 13.35383,22.0671604 l 0,10.5468596 c 0,12.22136 -5.95732,22.06715 -13.35383,22.06715 -7.39667,0 -13.35412,-9.84579 -13.35412,-22.06715 l 0,-10.5468596 c 0,-12.2213404 5.95745,-22.0671604 13.35412,-22.0671604 z"
         style="fill:#ffffff;fill-opacity:1;stroke:none"
         id="path6238"
         inkscape:connector-curvature="0" />
    </g>
    <path
       sodipodi:type="arc"
       id="path6240"
       style="fill:#000000;stroke:none"
       sodipodi:cx="23.398735"
       sodipodi:cy="-150.36266"
       sodipodi:rx="1.5"
       sodipodi:ry="1.5"
       d="m 24.898735,-150.36266 a 1.5,1.5 0 1 1 -3,0 1.5,1.5 0 1 1 3,0 z" />
    <path
       style="fill:#ffffff;fill-rule:evenodd;stroke:none"
       d="m 454.37725,248.23098 243.9518,-146.0537 0,50.83939 -243.9518,145.22737 0,-50.01306 z"
       id="path6244"
       sodipodi:nodetypes="ccccc"
       inkscape:connector-curvature="0" />
    <path
       style="fill:#ffffff;fill-rule:evenodd;stroke:none"
       d="m 454.37725,355.0303 243.9518,-146.0537 0,50.83939 -243.9518,145.22737 0,-50.01306 z"
       id="path6246"
       sodipodi:nodetypes="ccccc"
       inkscape:connector-curvature="0" />
    <path
       style="fill:#ffffff;fill-rule:evenodd;stroke:none"
       d="m 454.37725,461.82966 243.9518,-146.0537 0,50.83939 -243.9518,145.22737 0,-50.01306 z"
       id="path6248"
       sodipodi:nodetypes="ccccc"
       inkscape:connector-curvature="0" />
  </g>
</svg>
