<?xml version="1.0" encoding="UTF-8" standalone="no"?>
<!-- Created with Inkscape (http://www.inkscape.org/) -->
<svg
   xmlns:dc="http://purl.org/dc/elements/1.1/"
   xmlns:cc="http://creativecommons.org/ns#"
   xmlns:rdf="http://www.w3.org/1999/02/22-rdf-syntax-ns#"
   xmlns:svg="http://www.w3.org/2000/svg"
   xmlns="http://www.w3.org/2000/svg"
   xmlns:sodipodi="http://sodipodi.sourceforge.net/DTD/sodipodi-0.dtd"
   xmlns:inkscape="http://www.inkscape.org/namespaces/inkscape"
   width="966.59674"
   height="717.2735"
   id="svg2"
   sodipodi:version="0.32"
   inkscape:version="0.46"
   version="1.0"
   sodipodi:docname="Znak F-2a.svg"
   inkscape:output_extension="org.inkscape.output.svg.inkscape">
  <defs
     id="defs4">
    <inkscape:perspective
       sodipodi:type="inkscape:persp3d"
       inkscape:vp_x="0 : 526.18109 : 1"
       inkscape:vp_y="0 : 1000 : 0"
       inkscape:vp_z="744.09448 : 526.18109 : 1"
       inkscape:persp3d-origin="372.04724 : 350.78739 : 1"
       id="perspective10" />
    <linearGradient
       id="linearGradient6990">
      <stop
         id="stop6992"
         offset="0"
         style="stop-color:#f6d155;stop-opacity:1;" />
      <stop
         id="stop6994"
         offset="1"
         style="stop-color:#dfa12f;stop-opacity:1;" />
    </linearGradient>
    <linearGradient
       id="linearGradient10876">
      <stop
         id="stop10878"
         offset="0"
         style="stop-color:#f6d155;stop-opacity:1;" />
      <stop
         style="stop-color:#dfa12f;stop-opacity:1;"
         offset="1"
         id="stop10886" />
    </linearGradient>
    <inkscape:perspective
       id="perspective2610"
       inkscape:persp3d-origin="1579.1925 : 1238.5824 : 1"
       inkscape:vp_z="3158.385 : 1857.8735 : 1"
       inkscape:vp_y="0 : 1000 : 0"
       inkscape:vp_x="0 : 1857.8735 : 1"
       sodipodi:type="inkscape:persp3d" />
    <inkscape:perspective
       id="perspective3052"
       inkscape:persp3d-origin="372.04724 : 350.78739 : 1"
       inkscape:vp_z="744.09448 : 526.18109 : 1"
       inkscape:vp_y="0 : 1000 : 0"
       inkscape:vp_x="0 : 526.18109 : 1"
       sodipodi:type="inkscape:persp3d" />
    <inkscape:perspective
       id="perspective3067"
       inkscape:persp3d-origin="372.04724 : 350.78739 : 1"
       inkscape:vp_z="744.09448 : 526.18109 : 1"
       inkscape:vp_y="0 : 1000 : 0"
       inkscape:vp_x="0 : 526.18109 : 1"
       sodipodi:type="inkscape:persp3d" />
    <inkscape:perspective
       id="perspective86"
       inkscape:persp3d-origin="500 : 400 : 1"
       inkscape:vp_z="1000 : 600 : 1"
       inkscape:vp_y="0 : 1000 : 0"
       inkscape:vp_x="0 : 600 : 1"
       sodipodi:type="inkscape:persp3d" />
    <inkscape:perspective
       sodipodi:type="inkscape:persp3d"
       inkscape:vp_x="0 : 600 : 1"
       inkscape:vp_y="0 : 1000 : 0"
       inkscape:vp_z="1000 : 600 : 1"
       inkscape:persp3d-origin="500 : 400 : 1"
       id="perspective3993" />
    <inkscape:perspective
       sodipodi:type="inkscape:persp3d"
       inkscape:vp_x="0 : 500 : 1"
       inkscape:vp_y="0 : 1000 : 0"
       inkscape:vp_z="1000 : 500 : 1"
       inkscape:persp3d-origin="500 : 333.33333 : 1"
       id="perspective3874" />
    <inkscape:perspective
       sodipodi:type="inkscape:persp3d"
       inkscape:vp_x="0 : 526.18109 : 1"
       inkscape:vp_y="0 : 1000 : 0"
       inkscape:vp_z="744.09448 : 526.18109 : 1"
       inkscape:persp3d-origin="372.04724 : 350.78739 : 1"
       id="perspective3860" />
    <inkscape:perspective
       sodipodi:type="inkscape:persp3d"
       inkscape:vp_x="0 : 600 : 1"
       inkscape:vp_y="0 : 1000 : 0"
       inkscape:vp_z="1000 : 600 : 1"
       inkscape:persp3d-origin="500 : 400 : 1"
       id="perspective4733" />
    <inkscape:perspective
       sodipodi:type="inkscape:persp3d"
       inkscape:vp_x="0 : 249.99997 : 1"
       inkscape:vp_y="0 : 1000 : 0"
       inkscape:vp_z="500.00031 : 249.99997 : 1"
       inkscape:persp3d-origin="250.00015 : 166.66665 : 1"
       id="perspective2569" />
    <inkscape:perspective
       sodipodi:type="inkscape:persp3d"
       inkscape:vp_x="0 : 526.18109 : 1"
       inkscape:vp_y="0 : 1000 : 0"
       inkscape:vp_z="744.09448 : 526.18109 : 1"
       inkscape:persp3d-origin="372.04724 : 350.78739 : 1"
       id="perspective2552" />
    <inkscape:perspective
       sodipodi:type="inkscape:persp3d"
       inkscape:vp_x="0 : 677.49988 : 1"
       inkscape:vp_y="0 : 1000 : 0"
       inkscape:vp_z="1296 : 677.49988 : 1"
       inkscape:persp3d-origin="648 : 451.66659 : 1"
       id="perspective49" />
    <marker
       refX="0"
       refY="0"
       orient="auto"
       style="overflow:visible"
       id="Arrow2Lstart">
      <path
         d="M 8.7185878,4.0337352 L -2.2072895,0.016013256 L 8.7185884,-4.0017078 C 6.97309,-1.6296469 6.9831476,1.6157441 8.7185878,4.0337352 z"
         transform="matrix(1.1,0,0,1.1,1.1,0)"
         style="font-size:12px;fill-rule:evenodd;stroke-width:0.625;stroke-linejoin:round"
         id="path5785" />
    </marker>
    <pattern
       id="pattern4002"
       patternTransform="translate(18.50938,18)"
       height="476"
       width="370"
       patternUnits="userSpaceOnUse">
      <rect
         style="fill:#00e5ff;fill-opacity:1"
         id="rect2240"
         width="370"
         height="476"
         x="0"
         y="0"
         rx="20"
         ry="20" />
    </pattern>
    <pattern
       patternUnits="userSpaceOnUse"
       width="370"
       height="476"
       patternTransform="translate(18.50938,18)"
       id="pattern5932">
      <rect
         ry="20"
         rx="20"
         y="0"
         x="0"
         height="476"
         width="370"
         id="rect5934"
         style="fill:#00e5ff;fill-opacity:1" />
    </pattern>
    <pattern
       patternUnits="userSpaceOnUse"
       width="370"
       height="476"
       patternTransform="translate(18.50938,18)"
       id="pattern2944">
      <rect
         ry="20"
         rx="20"
         y="0"
         x="0"
         height="476"
         width="370"
         id="rect2946"
         style="fill:#00e5ff;fill-opacity:1" />
    </pattern>
    <pattern
       id="pattern2940"
       patternTransform="translate(18.50938,18)"
       height="476"
       width="370"
       patternUnits="userSpaceOnUse">
      <rect
         style="fill:#00e5ff;fill-opacity:1"
         id="rect2942"
         width="370"
         height="476"
         x="0"
         y="0"
         rx="20"
         ry="20" />
    </pattern>
    <marker
       refX="0"
       refY="0"
       orient="auto"
       style="overflow:visible"
       id="marker2936">
      <path
         d="M 8.7185878,4.0337352 L -2.2072895,0.016013256 L 8.7185884,-4.0017078 C 6.97309,-1.6296469 6.9831476,1.6157441 8.7185878,4.0337352 z"
         transform="matrix(1.1,0,0,1.1,1.1,0)"
         style="font-size:12px;fill-rule:evenodd;stroke-width:0.625;stroke-linejoin:round"
         id="path2938" />
    </marker>
    <pattern
       patternUnits="userSpaceOnUse"
       width="370"
       height="476"
       patternTransform="translate(18.50938,18)"
       id="pattern5613">
      <rect
         ry="20"
         rx="20"
         y="0"
         x="0"
         height="476"
         width="370"
         id="rect5615"
         style="fill:#00e5ff;fill-opacity:1" />
    </pattern>
    <marker
       refX="0"
       refY="0"
       orient="auto"
       style="overflow:visible"
       id="marker2313">
      <path
         d="M 8.7185878,4.0337352 L -2.2072895,0.016013256 L 8.7185884,-4.0017078 C 6.97309,-1.6296469 6.9831476,1.6157441 8.7185878,4.0337352 z"
         transform="matrix(1.1,0,0,1.1,1.1,0)"
         style="font-size:12px;fill-rule:evenodd;stroke-width:0.625;stroke-linejoin:round"
         id="path2315" />
    </marker>
    <pattern
       id="pattern2317"
       patternTransform="translate(18.50938,18)"
       height="476"
       width="370"
       patternUnits="userSpaceOnUse">
      <rect
         style="fill:#00e5ff;fill-opacity:1"
         id="rect2319"
         width="370"
         height="476"
         x="0"
         y="0"
         rx="20"
         ry="20" />
    </pattern>
    <pattern
       patternUnits="userSpaceOnUse"
       width="370"
       height="476"
       patternTransform="translate(18.50938,18)"
       id="pattern2321">
      <rect
         ry="20"
         rx="20"
         y="0"
         x="0"
         height="476"
         width="370"
         id="rect2323"
         style="fill:#00e5ff;fill-opacity:1" />
    </pattern>
    <pattern
       patternUnits="userSpaceOnUse"
       width="370"
       height="476"
       patternTransform="translate(18.50938,18)"
       id="pattern3936">
      <rect
         ry="20"
         rx="20"
         y="0"
         x="0"
         height="476"
         width="370"
         id="rect3938"
         style="fill:#00e5ff;fill-opacity:1" />
    </pattern>
    <pattern
       id="pattern3932"
       patternTransform="translate(18.50938,18)"
       height="476"
       width="370"
       patternUnits="userSpaceOnUse">
      <rect
         style="fill:#00e5ff;fill-opacity:1"
         id="rect3934"
         width="370"
         height="476"
         x="0"
         y="0"
         rx="20"
         ry="20" />
    </pattern>
    <marker
       refX="0"
       refY="0"
       orient="auto"
       style="overflow:visible"
       id="marker3928">
      <path
         d="M 8.7185878,4.0337352 L -2.2072895,0.016013256 L 8.7185884,-4.0017078 C 6.97309,-1.6296469 6.9831476,1.6157441 8.7185878,4.0337352 z"
         transform="matrix(1.1,0,0,1.1,1.1,0)"
         style="font-size:12px;fill-rule:evenodd;stroke-width:0.625;stroke-linejoin:round"
         id="path3930" />
    </marker>
    <pattern
       patternUnits="userSpaceOnUse"
       width="370"
       height="476"
       patternTransform="translate(18.50938,18)"
       id="pattern4296">
      <rect
         ry="20"
         rx="20"
         y="0"
         x="0"
         height="476"
         width="370"
         id="rect4298"
         style="fill:#00e5ff;fill-opacity:1" />
    </pattern>
    <pattern
       id="pattern4292"
       patternTransform="translate(18.50938,18)"
       height="476"
       width="370"
       patternUnits="userSpaceOnUse">
      <rect
         style="fill:#00e5ff;fill-opacity:1"
         id="rect4294"
         width="370"
         height="476"
         x="0"
         y="0"
         rx="20"
         ry="20" />
    </pattern>
    <marker
       refX="0"
       refY="0"
       orient="auto"
       style="overflow:visible"
       id="marker4288">
      <path
         d="M 8.7185878,4.0337352 L -2.2072895,0.016013256 L 8.7185884,-4.0017078 C 6.97309,-1.6296469 6.9831476,1.6157441 8.7185878,4.0337352 z"
         transform="matrix(1.1,0,0,1.1,1.1,0)"
         style="font-size:12px;fill-rule:evenodd;stroke-width:0.625;stroke-linejoin:round"
         id="path4290" />
    </marker>
    <inkscape:perspective
       sodipodi:type="inkscape:persp3d"
       inkscape:vp_x="0 : 677.49988 : 1"
       inkscape:vp_y="0 : 1000 : 0"
       inkscape:vp_z="1296 : 677.49988 : 1"
       inkscape:persp3d-origin="648 : 451.66659 : 1"
       id="perspective3345" />
    <marker
       refX="0"
       refY="0"
       orient="auto"
       style="overflow:visible"
       id="marker3341">
      <path
         d="M 8.7185878,4.0337352 L -2.2072895,0.016013256 L 8.7185884,-4.0017078 C 6.97309,-1.6296469 6.9831476,1.6157441 8.7185878,4.0337352 z"
         transform="matrix(1.1,0,0,1.1,1.1,0)"
         style="font-size:12px;fill-rule:evenodd;stroke-width:0.625;stroke-linejoin:round"
         id="path3343" />
    </marker>
    <pattern
       id="pattern3337"
       patternTransform="translate(18.50938,18)"
       height="476"
       width="370"
       patternUnits="userSpaceOnUse">
      <rect
         style="fill:#00e5ff;fill-opacity:1"
         id="rect3339"
         width="370"
         height="476"
         x="0"
         y="0"
         rx="20"
         ry="20" />
    </pattern>
    <pattern
       patternUnits="userSpaceOnUse"
       width="370"
       height="476"
       patternTransform="translate(18.50938,18)"
       id="pattern3333">
      <rect
         ry="20"
         rx="20"
         y="0"
         x="0"
         height="476"
         width="370"
         id="rect3335"
         style="fill:#00e5ff;fill-opacity:1" />
    </pattern>
    <pattern
       patternUnits="userSpaceOnUse"
       width="370"
       height="476"
       patternTransform="translate(18.50938,18)"
       id="pattern3329">
      <rect
         ry="20"
         rx="20"
         y="0"
         x="0"
         height="476"
         width="370"
         id="rect3331"
         style="fill:#00e5ff;fill-opacity:1" />
    </pattern>
    <pattern
       id="pattern3325"
       patternTransform="translate(18.50938,18)"
       height="476"
       width="370"
       patternUnits="userSpaceOnUse">
      <rect
         style="fill:#00e5ff;fill-opacity:1"
         id="rect3327"
         width="370"
         height="476"
         x="0"
         y="0"
         rx="20"
         ry="20" />
    </pattern>
    <marker
       refX="0"
       refY="0"
       orient="auto"
       style="overflow:visible"
       id="marker3321">
      <path
         d="M 8.7185878,4.0337352 L -2.2072895,0.016013256 L 8.7185884,-4.0017078 C 6.97309,-1.6296469 6.9831476,1.6157441 8.7185878,4.0337352 z"
         transform="matrix(1.1,0,0,1.1,1.1,0)"
         style="font-size:12px;fill-rule:evenodd;stroke-width:0.625;stroke-linejoin:round"
         id="path3323" />
    </marker>
    <pattern
       patternUnits="userSpaceOnUse"
       width="370"
       height="476"
       patternTransform="translate(18.50938,18)"
       id="pattern3317">
      <rect
         ry="20"
         rx="20"
         y="0"
         x="0"
         height="476"
         width="370"
         id="rect3319"
         style="fill:#00e5ff;fill-opacity:1" />
    </pattern>
    <marker
       refX="0"
       refY="0"
       orient="auto"
       style="overflow:visible"
       id="marker3313">
      <path
         d="M 8.7185878,4.0337352 L -2.2072895,0.016013256 L 8.7185884,-4.0017078 C 6.97309,-1.6296469 6.9831476,1.6157441 8.7185878,4.0337352 z"
         transform="matrix(1.1,0,0,1.1,1.1,0)"
         style="font-size:12px;fill-rule:evenodd;stroke-width:0.625;stroke-linejoin:round"
         id="path3315" />
    </marker>
    <pattern
       id="pattern3309"
       patternTransform="translate(18.50938,18)"
       height="476"
       width="370"
       patternUnits="userSpaceOnUse">
      <rect
         style="fill:#00e5ff;fill-opacity:1"
         id="rect3311"
         width="370"
         height="476"
         x="0"
         y="0"
         rx="20"
         ry="20" />
    </pattern>
    <pattern
       patternUnits="userSpaceOnUse"
       width="370"
       height="476"
       patternTransform="translate(18.50938,18)"
       id="pattern3305">
      <rect
         ry="20"
         rx="20"
         y="0"
         x="0"
         height="476"
         width="370"
         id="rect3307"
         style="fill:#00e5ff;fill-opacity:1" />
    </pattern>
    <pattern
       patternUnits="userSpaceOnUse"
       width="370"
       height="476"
       patternTransform="translate(18.50938,18)"
       id="pattern3301">
      <rect
         ry="20"
         rx="20"
         y="0"
         x="0"
         height="476"
         width="370"
         id="rect3303"
         style="fill:#00e5ff;fill-opacity:1" />
    </pattern>
    <pattern
       id="pattern3297"
       patternTransform="translate(18.50938,18)"
       height="476"
       width="370"
       patternUnits="userSpaceOnUse">
      <rect
         style="fill:#00e5ff;fill-opacity:1"
         id="rect3299"
         width="370"
         height="476"
         x="0"
         y="0"
         rx="20"
         ry="20" />
    </pattern>
    <marker
       refX="0"
       refY="0"
       orient="auto"
       style="overflow:visible"
       id="marker3293">
      <path
         d="M 8.7185878,4.0337352 L -2.2072895,0.016013256 L 8.7185884,-4.0017078 C 6.97309,-1.6296469 6.9831476,1.6157441 8.7185878,4.0337352 z"
         transform="matrix(1.1,0,0,1.1,1.1,0)"
         style="font-size:12px;fill-rule:evenodd;stroke-width:0.625;stroke-linejoin:round"
         id="path3295" />
    </marker>
    <pattern
       patternUnits="userSpaceOnUse"
       width="370"
       height="476"
       patternTransform="translate(18.50938,18)"
       id="pattern3289">
      <rect
         ry="20"
         rx="20"
         y="0"
         x="0"
         height="476"
         width="370"
         id="rect3291"
         style="fill:#00e5ff;fill-opacity:1" />
    </pattern>
    <pattern
       id="pattern3285"
       patternTransform="translate(18.50938,18)"
       height="476"
       width="370"
       patternUnits="userSpaceOnUse">
      <rect
         style="fill:#00e5ff;fill-opacity:1"
         id="rect3287"
         width="370"
         height="476"
         x="0"
         y="0"
         rx="20"
         ry="20" />
    </pattern>
    <marker
       refX="0"
       refY="0"
       orient="auto"
       style="overflow:visible"
       id="marker3281">
      <path
         d="M 8.7185878,4.0337352 L -2.2072895,0.016013256 L 8.7185884,-4.0017078 C 6.97309,-1.6296469 6.9831476,1.6157441 8.7185878,4.0337352 z"
         transform="matrix(1.1,0,0,1.1,1.1,0)"
         style="font-size:12px;fill-rule:evenodd;stroke-width:0.625;stroke-linejoin:round"
         id="path3283" />
    </marker>
    <inkscape:perspective
       sodipodi:type="inkscape:persp3d"
       inkscape:vp_x="0 : 526.18109 : 1"
       inkscape:vp_y="0 : 1000 : 0"
       inkscape:vp_z="744.09448 : 526.18109 : 1"
       inkscape:persp3d-origin="372.04724 : 350.78739 : 1"
       id="perspective2392" />
    <inkscape:perspective
       id="perspective2532"
       inkscape:persp3d-origin="372.04724 : 350.78739 : 1"
       inkscape:vp_z="744.09448 : 526.18109 : 1"
       inkscape:vp_y="0 : 1000 : 0"
       inkscape:vp_x="0 : 526.18109 : 1"
       sodipodi:type="inkscape:persp3d" />
    <inkscape:perspective
       id="perspective4661"
       inkscape:persp3d-origin="372.04724 : 350.78739 : 1"
       inkscape:vp_z="744.09448 : 526.18109 : 1"
       inkscape:vp_y="0 : 1000 : 0"
       inkscape:vp_x="0 : 526.18109 : 1"
       sodipodi:type="inkscape:persp3d" />
    <inkscape:perspective
       id="perspective5157"
       inkscape:persp3d-origin="372.04724 : 350.78739 : 1"
       inkscape:vp_z="744.09448 : 526.18109 : 1"
       inkscape:vp_y="0 : 1000 : 0"
       inkscape:vp_x="0 : 526.18109 : 1"
       sodipodi:type="inkscape:persp3d" />
    <inkscape:perspective
       id="perspective5248"
       inkscape:persp3d-origin="500 : 400 : 1"
       inkscape:vp_z="1000 : 600 : 1"
       inkscape:vp_y="0 : 1000 : 0"
       inkscape:vp_x="0 : 600 : 1"
       sodipodi:type="inkscape:persp3d" />
    <inkscape:perspective
       id="perspective5693"
       inkscape:persp3d-origin="372.04724 : 350.78739 : 1"
       inkscape:vp_z="744.09448 : 526.18109 : 1"
       inkscape:vp_y="0 : 1000 : 0"
       inkscape:vp_x="0 : 526.18109 : 1"
       sodipodi:type="inkscape:persp3d" />
  </defs>
  <sodipodi:namedview
     id="base"
     pagecolor="#ffffff"
     bordercolor="#666666"
     borderopacity="1.0"
     gridtolerance="10000"
     guidetolerance="10"
     objecttolerance="10"
     inkscape:pageopacity="0.0"
     inkscape:pageshadow="2"
     inkscape:zoom="0.35355339"
     inkscape:cx="688.1645"
     inkscape:cy="544.89888"
     inkscape:document-units="px"
     inkscape:current-layer="g2631"
     showgrid="false"
     inkscape:window-width="1440"
     inkscape:window-height="844"
     inkscape:window-x="-4"
     inkscape:window-y="-4" />
  <metadata
     id="metadata7">
    <rdf:RDF>
      <cc:Work
         rdf:about="">
        <dc:format>image/svg+xml</dc:format>
        <dc:type
           rdf:resource="http://purl.org/dc/dcmitype/StillImage" />
      </cc:Work>
    </rdf:RDF>
  </metadata>
  <g
     inkscape:label="Layer 1"
     inkscape:groupmode="layer"
     id="layer1"
     transform="translate(-4024.3792,3809.4648)">
    <g
       id="g2631"
       transform="translate(-1030.621,-1685.5114)">
      <g
         transform="matrix(0.7734209,0,0,0.7734209,4645.1078,-1531.0991)"
         id="g4738"
         inkscape:label="Layer 1">
        <g
           transform="matrix(1.1737461,0,0,1.1737461,1534.3354,555.43345)"
           id="g2361"
           inkscape:label="Layer 1" />
        <g
           transform="translate(-1051.4286,194.28571)"
           id="g3798">
          <g
             id="g3784"
             transform="translate(-2767.4506,361.88556)">
            <g
               id="g3817">
              <g
                 id="g4257">
                <g
                   id="g4760"
                   transform="translate(823.35302,-643.10639)">
                  <rect
                     width="1246.3939"
                     height="924.02966"
                     rx="27.07107"
                     ry="27.015749"
                     x="-4773.5806"
                     y="-677.91296"
                     transform="scale(-1,1)"
                     style="fill:#ffffff;fill-opacity:1;stroke:#808080;stroke-width:3.37422228;stroke-miterlimit:4;stroke-dasharray:none;stroke-opacity:1"
                     id="rect3222" />
                  <rect
                     width="1204.7528"
                     height="884.69086"
                     rx="12.199387"
                     ry="13.075953"
                     x="-4752.7598"
                     y="-658.24353"
                     transform="scale(-1,1)"
                     style="fill:#2e4994;fill-opacity:1;stroke:none;stroke-width:32.59304047;stroke-miterlimit:4;stroke-dasharray:none;stroke-opacity:1"
                     id="rect3015" />
                </g>
                <g
                   id="g4241"
                   transform="translate(-1783.7474,88.138108)" />
              </g>
            </g>
          </g>
        </g>
      </g>
      <g
         id="g3079"
         transform="matrix(0.1824399,0,0,0.1824399,4429.4398,-1945.8225)">
        <g
           id="g3856">
          <path
             transform="matrix(1.3974645,0,0,1.3974645,-108.83445,3415.7782)"
             d="M 4997.1431,-2011.9236 A 570,570 0 1 1 3857.1431,-2011.9236 A 570,570 0 1 1 4997.1431,-2011.9236 z"
             sodipodi:ry="570"
             sodipodi:rx="570"
             sodipodi:cy="-2011.9236"
             sodipodi:cx="4427.1431"
             id="path3083"
             style="opacity:1;fill:#ff0000;fill-opacity:1;stroke:#ffffff;stroke-width:28.88713646;stroke-miterlimit:4;stroke-dasharray:none;stroke-opacity:1"
             sodipodi:type="arc" />
          <path
             style="fill:#ffffff;fill-rule:evenodd;stroke:none;stroke-width:1px;stroke-linecap:butt;stroke-linejoin:miter;stroke-opacity:1"
             d="M 6169.0634,30.01864 C 6154.811,55.342947 6148.8034,53.887215 6087.5385,46.33963 C 6038.9012,41.487545 5995.0853,27.750156 5993.0745,71.830372 C 5994.002,71.940472 5994.9616,72.049204 5995.935,72.164523 C 5967.1568,71.598878 5940.1926,93.12946 5961.8894,134.86878 C 5975.9815,120.16067 6002.568,115.70074 6014.5952,135.17624 C 5993.5547,138.60103 5958.755,166.63939 5936.9067,140.5497 C 5930.895,165.14615 5953.4749,172.06714 5977.0342,171.07977 C 5993.5422,169.38729 5998.8136,164.95479 6029.633,158.8624 L 6030.4751,159.75798 C 6028.7924,163.92239 6029.9762,167.59907 6035.0466,168.88759 C 6036.2805,168.92942 6037.1201,168.44795 6038.0542,167.6712 C 6084.4346,171.74745 6108.3161,238.14414 6032.9614,277.13292 C 6030.0375,286.17299 6034.8617,297.01987 6042.0375,298.30613 C 6020.0899,329.34862 5984.0747,368.07954 5971.1527,342.52391 C 5968.1431,345.35287 5959.6642,366.47476 5976.0985,378.14675 C 5963.613,393.52145 5958.7884,411.71186 5959.4567,432.7239 C 5909.6975,424.94943 5876.9225,416.51626 5888.0773,369.97956 C 5941.0205,372.42581 5955.3668,308.48896 5947.5868,276.07694 C 5916.8208,146.61755 5749.8167,42.787879 5628.2644,39.402219 C 5635.026,74.625662 5656.7581,100.04018 5681.5049,123.48016 C 5649.271,107.78957 5611.8638,92.576861 5572.6848,100.55587 C 5577.2129,128.38131 5592.2998,160.65557 5655.7869,213.30587 C 5610.0275,186.13523 5567.821,159.6064 5552.9552,137.99663 C 5546.3507,146.90822 5542.6284,183.19853 5581.6941,209.68344 C 5569.2884,204.73507 5507.9749,205.17715 5489.4356,218.75958 C 5500.6361,244.24747 5551.8035,288.7926 5593.7912,302.53008 C 5553.978,296.73983 5516.6588,280.69609 5482.4848,251.72241 C 5477.4365,256.2536 5482.6788,303.41762 5525.1253,322.19282 C 5511.3773,323.10809 5464.4799,336.26451 5452.3691,351.37281 C 5476.8374,384.0372 5539.4022,412.81037 5570.4926,412.92748 C 5528.0838,418.45784 5481.7703,409.93197 5462.5146,403.86471 C 5462.9424,414.70347 5453.8235,458.23451 5569.8911,451.04995 C 5528.4817,470.61497 5465.9821,511.34509 5456.0049,547.25168 C 5496.2351,565.06292 5568.3776,550.3847 5605.6877,538.68349 C 5495.3578,605.93048 5478.1407,612.83966 5457.6758,608.32515 C 5484.3892,664.80345 5548.76,626.64583 5604.3778,595.01169 C 5536.0019,686.49893 5524.8841,733.1377 5526.3417,797.96167 C 5581.4052,791.33558 5661.1118,712.46014 5703.587,645.21785 C 5654.3666,746.45947 5625.0699,827.8525 5571.4016,851.80363 C 5632.5459,876.02625 5684.989,799.29436 5721.8329,717.90717 C 5707.7215,769.4253 5701.8842,878.62869 5719.9081,905.33815 C 5775.1881,867.88424 5817.0634,784.726 5845.1294,689.38216 C 5835.556,736.36413 5828.4713,783.34102 5811.2576,830.32299 C 5846.7919,837.08052 5864.9553,773.31922 5876.9427,735.96588 C 5878.0494,737.92147 5879.3676,739.56871 5882.7974,742.75628 C 5927.69,710.18765 5941.9744,634.58544 5945.1273,604.98342 C 5986.0586,616.61589 6004.0687,601.77223 6014.5551,594.15621 C 6023.5197,606.57141 6024.0891,625.93907 6026.6121,628.5894 C 5982.0925,592.42822 5934.3424,628.67046 5932.3887,688.90095 C 5927.5651,714.03526 5914.135,743.10427 5880.525,765.60035 C 5882.6259,768.33413 5887.3216,769.44449 5893.4107,769.32972 C 5887.5552,779.40367 5882.2437,788.10958 5872.3177,797.23985 C 5874.8831,798.72669 5878.0901,798.92719 5881.1265,799.47213 C 5873.6561,811.94989 5861.1855,823.73149 5848.7251,829.73484 C 5851.7149,832.59997 5853.4161,833.56167 5862.4796,836.0173 C 5854.1759,847.04561 5840.6258,856.99393 5827.846,862.3635 C 5852.231,876.84671 5870.8607,878.70389 5885.9787,877.32108 C 5886.0056,877.31953 5886.0321,877.32267 5886.0589,877.32108 C 5876.4111,896.40604 5860.851,906.07109 5845.6507,914.64153 C 5850.3792,919.08229 5856.0669,920.04243 5860.7954,918.71844 C 5847.0549,932.99526 5832.54,944.24146 5819.4382,948.29944 C 5821.8241,950.08602 5823.4964,952.54349 5831.9362,951.90851 C 5822.5591,963.4822 5811.1852,974.78113 5791.0602,980.03251 C 5795.0422,987.69065 5803.2276,986.51673 5810.2952,986.76944 C 5804.7984,998.60291 5787.5828,1002.5753 5770.1543,1006.245 C 5783.2885,1009.9596 5792.2189,1017.0146 5784.4035,1015.1741 C 5779.1018,1021.5663 5773.899,1024.8743 5762.5352,1026.5761 C 5750.8584,1028.3248 5709.0597,1013.2699 5692.2118,1019.0773 C 5687.442,1009.5788 5675.8997,1003.037 5663.7269,1003.037 C 5648.1733,1003.037 5632.8851,1012.9505 5632.1676,1026.8034 C 5629.7915,1025.1583 5619.9019,1023.8406 5621.1131,1035.3582 C 5603.3824,1058.7568 5619.109,1085.1307 5630.4299,1086.1525 C 5631.0158,1063.3144 5647.1353,1063.5198 5647.4326,1057.2666 C 5651.0688,1058.8763 5655.4897,1059.7126 5660.8396,1059.4855 C 5668.8129,1059.1495 5677.733,1055.1443 5684.4055,1049.3534 L 5684.2718,1049.594 C 5695.4174,1051.6573 5707.6892,1053.5237 5714.4677,1056.3576 C 5696.8336,1057.7654 5690.7689,1067.4979 5680.7162,1074.4966 C 5676.4841,1074.2835 5672.9841,1073.2373 5669.1539,1072.6252 L 5669.2742,1072.7588 C 5666.9761,1072.1805 5664.6552,1071.928 5662.3902,1072.0504 C 5649.8012,1072.7307 5637.1105,1086.9189 5635.7499,1102.9948 C 5635.474,1106.2551 5636.2802,1109.3702 5637.8619,1112.218 L 5637.6748,1114.9582 C 5634.0024,1119.4894 5635.4571,1123.0941 5639.0382,1125.7052 C 5639.1295,1125.7415 5639.2147,1125.7766 5639.3055,1125.8122 C 5638.4501,1149.391 5680.4026,1162.2883 5688.0681,1158.9354 C 5674.6433,1146.5489 5680.5738,1129.5456 5676.0378,1125.224 C 5686.7075,1121.2413 5694.7114,1111.5509 5694.7114,1100.9631 C 5694.7114,1100.9321 5694.7116,1100.9005 5694.7114,1100.8695 L 5695.0055,1101.1903 C 5711.5016,1097.7626 5727.7668,1093.1819 5736.8038,1086.5268 C 5737.2692,1087.5312 5737.5409,1088.6238 5737.3385,1089.9621 C 5731.5988,1093.3649 5722.1585,1098.765 5717.1678,1115.4127 C 5715.6785,1115.2731 5714.2593,1115.201 5712.9172,1115.1988 C 5694.0492,1115.1691 5689.3919,1128.1999 5689.7256,1138.8449 C 5690.0508,1149.2236 5693.822,1155.9075 5699.2027,1159.9379 C 5698.0609,1166.4005 5698.8533,1171.8021 5705.5386,1173.9598 C 5705.5886,1173.9676 5705.6358,1173.9655 5705.6857,1173.9732 C 5705.1488,1197.3467 5754.4394,1200.5561 5758.5786,1185.5756 C 5749.6891,1181.0125 5740.5356,1172.2947 5738.1539,1165.5921 C 5738.0977,1165.5996 5738.0372,1165.6082 5737.9801,1165.6189 C 5737.8377,1162.9273 5738.4112,1160.9536 5739.1965,1159.1894 C 5746.1053,1155.9822 5750.7912,1153.3579 5751.4406,1140.3821 C 5752.0331,1132.3214 5750.6613,1127.3857 5748.0187,1124.2349 L 5748.6202,1124.4086 C 5748.6228,1124.4312 5748.631,1124.4528 5748.6336,1124.4755 C 5748.6555,1124.4567 5748.6785,1124.4407 5748.7004,1124.422 L 5748.8875,1124.4755 L 5748.8608,1124.2883 C 5769.4905,1106.6748 5782.7,1092.7713 5791.6082,1081.0196 C 5799.5466,1082.8445 5817.3493,1082.4267 5826.1083,1079.4958 L 5825.7607,1082.6503 C 5817.4967,1090.5148 5823.1139,1109.2916 5834.0215,1108.8763 C 5833.5518,1110.64 5833.6376,1112.232 5834.0215,1113.9958 C 5834.1819,1114.0947 5834.3496,1114.1851 5834.516,1114.2765 C 5831.6307,1118.0341 5830.693,1129.872 5821.8843,1134.3937 C 5827.5598,1144.6643 5866.8592,1141.2677 5863.549,1117.6717 C 5863.4869,1117.5391 5863.3646,1117.4293 5863.1881,1117.3242 C 5863.5146,1117.3852 5863.8435,1117.4532 5864.1639,1117.5247 C 5869.2827,1116.9244 5871.7141,1113.4837 5870.4196,1106.4702 L 5870.2458,1106.3633 C 5878.2535,1101.6216 5883.6256,1093.0671 5882.5969,1082.2494 C 5882.5969,1067.3017 5870.9251,1055.3619 5856.5314,1054.4194 L 5856.6116,1054.3526 C 5841.206,1052.6891 5826.424,1063.8026 5829.6505,1039.8094 C 5871.8223,989.86977 5929.3924,914.42548 5945.1273,905.25795 C 5943.8713,903.62469 5943.0246,901.47708 5942.3069,899.38987 C 5948.5545,915.9306 5972.1875,933.37051 5997.0445,931.87149 C 5992.5698,923.35517 5987.6024,915.78935 5985.8296,893.02722 C 5989.5452,898.39765 5995.8841,900.91642 6003.6343,902.50436 C 5992.0139,849.33112 6009.3522,805.58272 6045.0584,765.60035 C 6042.2236,817.0506 6035.7244,868.82477 6004.4898,921.27152 C 6020.5619,926.30436 6041.5655,909.92031 6044.4569,900.19189 C 6047.8751,946.51947 6003.9782,1006.1497 5969.6423,977.55963 C 5948.0874,1024.9512 5999.208,1047.9482 6031.4509,1020.4407 C 6026.0007,1049.1096 6003.5966,1065.9627 5979.1729,1072.545 C 5954.7491,1079.1271 5929.3019,1068.7503 5945.5417,1029.6505 C 5942.0994,1027.6138 5893.1082,1026.374 5891.7265,1079.7899 C 5893.1872,1110.6551 5914.0282,1122.2679 5915.9072,1122.8046 C 5846.0512,1175.7997 5916.4295,1234.8616 5974.0667,1223.3907 C 6019.7716,1216.3387 6045.745,1179.3052 6062.3018,1152.4525 C 6057.2958,1171.7724 6036.6284,1233.8039 6089.2896,1300.9857 C 6141.4656,1219.5004 6119.3965,1164.6033 6118.1354,1155.8877 C 6159.1499,1219.1056 6199.5898,1223.6604 6223.4935,1222.0941 C 6264.3509,1222.7501 6322.1963,1158.5438 6248.65,1117.4712 C 6286.2869,1099.5519 6288.7696,1025.1155 6235.7509,1021.2962 C 6246.6713,1050.7895 6223.6256,1068.6143 6198.2033,1066.316 C 6172.781,1064.0176 6149.3515,1049.3588 6140.3379,1016.3371 C 6190.3902,1040.4087 6213.621,993.05307 6196.5859,967.3473 C 6153.8705,1002.6656 6133.6682,946.00833 6127.9334,912.28895 C 6138.8446,920.59602 6148.2883,923.47991 6166.644,920.76358 C 6131.8968,876.08054 6123.7835,816.1443 6120.6751,759.85257 C 6144.3241,797.4558 6167.6711,843.47632 6166.9113,888.56267 C 6172.3838,885.8771 6177.3585,885.14775 6187.2156,865.41116 C 6188.1041,899.13469 6184.2559,903.70009 6172.8462,917.80949 C 6191.5296,925.66228 6216.0669,910.55615 6227.7442,890.51424 C 6227.781,890.46078 6227.8148,890.40726 6227.8511,890.35383 C 6264.153,939.36365 6303.3379,989.67017 6341.4566,1028.5678 C 6349.7231,1037.1978 6352.5838,1045.8256 6337.2727,1048.8588 C 6288.2838,1030.7762 6283.1444,1082.0025 6303.4678,1088.9328 C 6301.8699,1093.5471 6301.4195,1098.3292 6302.7994,1103.3691 C 6302.7774,1103.3638 6302.7547,1103.3611 6302.7326,1103.3557 C 6312.5097,1130.305 6347.0428,1126.9376 6356.227,1116.736 C 6342.3087,1112.0424 6340.9918,1104.7846 6337.6069,1098.1159 C 6337.3801,1098.1205 6337.1537,1098.1364 6336.9118,1098.156 C 6337.0987,1098.1334 6337.2723,1098.1248 6337.4331,1098.1159 C 6339.8867,1095.9013 6339.9089,1091.2645 6339.8391,1086.5268 C 6344.7571,1086.2843 6348.1209,1083.7045 6350.4659,1079.6027 C 6360.0186,1081.436 6369.2857,1082.6598 6381.3702,1072.6787 L 6417.5945,1109.0634 C 6419.4745,1110.1448 6415.6756,1114.0295 6420.8026,1114.5305 C 6416.7757,1138.6946 6425.965,1141.4404 6433.8487,1147.5334 C 6433.3241,1155.0352 6436.6158,1158.6867 6441.4144,1160.2587 C 6436.9376,1164.6641 6431.9161,1169.3605 6423.476,1174.4143 C 6439.0473,1188.5855 6470.7329,1172.6787 6469.4983,1158.9487 C 6469.4225,1158.8031 6469.3425,1158.6694 6469.2577,1158.5478 C 6469.682,1158.5307 6470.0131,1158.5609 6470.2201,1158.6413 C 6473.8843,1156.4805 6474.1966,1153.9831 6473.602,1151.3964 C 6477.6236,1147.1788 6475.7417,1145.037 6474.4173,1142.053 C 6491.7504,1115.6308 6467.1669,1095.486 6453.6452,1097.7951 C 6439.2608,1082.0099 6428.8901,1075.3734 6417.2737,1065.915 C 6441.0449,1074.8855 6477.72,1085.0289 6488.2521,1092.7959 C 6489.9982,1104.5383 6495.4695,1109.0475 6502.528,1110.4803 C 6502.7652,1128.6689 6500.4196,1133.5131 6498.3441,1139.8073 C 6507.2198,1145.8497 6530.1419,1131.4922 6532.5501,1109.7852 C 6532.5045,1109.6875 6532.4539,1109.6056 6532.4031,1109.5179 C 6532.7096,1109.527 6533.0224,1109.5286 6533.3254,1109.5446 C 6538.7388,1101.9403 6535.8312,1099.5823 6533.3254,1096.9797 C 6556.2541,1067.4035 6507.8794,1043.1341 6487.2897,1060.6083 C 6475.0744,1049.338 6464.4999,1047.367 6453.4848,1042.8972 C 6458.0823,1038.2726 6467.8184,1034.6645 6489.7091,1033.2462 C 6499.5282,1039.7491 6509.3373,1042.0357 6519.1564,1034.8502 C 6523.3789,1044.0976 6531.7846,1041.7 6534.769,1039.9965 C 6534.8458,1039.908 6534.921,1039.8187 6534.9962,1039.7292 C 6540.8747,1043.3586 6544.9491,1051.3209 6549.3389,1058.5231 C 6563.8919,1047.5033 6563.354,1016.1152 6544.6204,1008.1832 C 6544.3988,1008.2391 6544.1908,1008.3224 6543.9922,1008.4239 C 6544.0343,1008.1658 6544.0686,1007.9056 6544.1125,1007.6486 C 6542.1537,1003.4839 6539.0306,1000.7675 6533.6462,1000.8849 C 6518.7773,975.45194 6490.0581,990.9146 6488.4125,1002.3285 C 6463.6576,1004.3552 6441.6434,1007.5144 6415.4959,1017.9544 C 6406.8717,1020.5519 6398.6655,1011.2212 6391.3553,1005.8708 C 6397.973,1003.2259 6403.7437,1000.2115 6403.586,994.60246 C 6392.9974,993.5626 6382.6588,994.3025 6370.4227,981.73011 L 6373.6441,973.04161 C 6364.1997,970.14692 6354.0467,963.26896 6341.617,943.74132 C 6344.2237,942.1894 6346.6833,939.60288 6348.8618,935.05282 C 6334.7337,931.78719 6323.1675,924.30889 6313.7603,913.3182 C 6317.1275,911.67042 6320.3259,908.79873 6323.2642,904.1485 C 6310.0863,896.19465 6297.4025,889.27184 6272.1491,856.36175 C 6272.0538,856.20095 6271.9597,856.02396 6271.8684,855.88054 C 6298.4623,860.32232 6326.2382,857.70191 6342.6729,845.74841 C 6329.6039,842.10464 6306.5406,834.50112 6296.2496,814.60349 C 6301.353,814.1869 6304.1582,813.19016 6307.3308,812.29101 C 6287.3864,799.1256 6282.1046,792.00533 6277.0414,781.33322 C 6281.2386,781.7524 6287.2403,779.84549 6289.2454,776.92213 C 6276.3848,771.13808 6270.7463,763.13324 6266.1607,754.41224 C 6271.4462,754.52148 6277.0053,755.55189 6281.2787,752.2869 C 6230.4741,729.37077 6237.538,610.58371 6183.0051,610.22325 C 6158.7338,612.20801 6154.3255,617.46791 6141.8082,623.85751 C 6145.479,613.69818 6151.6977,604.17345 6158.1827,594.71762 C 6187.9679,608.62902 6211.5745,600.78706 6219.577,593.80867 C 6223.6449,641.5507 6238.9547,692.77817 6272.0956,718.41512 C 6277.776,715.21394 6284.5997,711.10324 6288.7642,706.50519 C 6294.6746,750.85779 6311.2362,809.14829 6348.4207,804.31096 C 6331.2846,761.60951 6331.5581,718.69745 6329.6669,676.02861 C 6345.256,801.25139 6383.6882,874.28363 6415.4558,896.18181 C 6430.0917,876.84632 6441.0009,785.44349 6433.9022,730.55228 C 6465.1362,787.08812 6499.8006,839.4431 6528.8608,839.15852 C 6542.0259,839.02589 6556.6452,828.25111 6565.4728,825.52426 C 6519.9233,807.14499 6488.9996,723.27668 6461.0237,671.05611 C 6513.517,753.25443 6575.8254,790.2805 6605.2127,795.84969 C 6606.2654,770.42911 6611.893,699.30474 6546.5319,600.75947 C 6663.3394,662.59588 6688.158,622.66319 6694.9983,601.36098 C 6642.2871,619.72966 6571.196,551.97557 6523.5809,530.43609 L 6522.9393,528.55136 C 6592.6085,560.34774 6660.97,571.30718 6703.513,544.4981 C 6667.1472,488.3817 6631.9289,467.93831 6593.6503,453.52283 C 6669.2837,461.91742 6694.0784,436.18805 6695.6399,408.02182 C 6668.0386,417.34902 6642.5043,418.80653 6609.597,413.54236 C 6681.9784,398.95783 6695.0304,368.24937 6694.3166,365.18084 C 6675.7767,350.77545 6640.7666,334.55433 6609.1425,331.5764 C 6696.4136,300.21767 6668.6729,270.65377 6665.4307,261.37332 C 6638.293,286.81147 6590.9943,304.95886 6582.6359,304.20094 C 6623.3734,282.95655 6658.698,227.3814 6656.408,221.09879 C 6636.0573,210.62743 6593.9082,211.14056 6576.9683,216.25996 C 6593.9174,197.66511 6616.1718,165.83563 6595.6419,139.36006 C 6575.8972,167.26995 6557.121,182.11104 6538.3647,196.67742 C 6555.3861,175.14726 6575.1565,150.44826 6581.9275,99.887562 C 6556.4388,103.22583 6533.3365,100.72679 6500.2556,122.57121 C 6519.2376,98.85756 6530.92,75.521481 6533.2318,47.261969 C 6419.2313,55.262018 6285.978,115.02786 6221.6756,264.03334 C 6203.0119,307.8063 6217.5742,382.31026 6276.2393,373.81587 C 6285.4936,411.409 6260.6203,434.38216 6206.571,432.7239 C 6205.4276,420.13927 6209.3705,395.20389 6193.8724,382.07663 C 6207.0014,381.2273 6209.5727,374.4719 6212.3187,368.73644 C 6177.0398,360.59451 6182.7534,348.88812 6189.3276,286.20906 C 6193.9666,288.13654 6199.2569,287.02068 6203.2693,283.30844 C 6188.6914,269.86871 6193.5107,245.00754 6200.8633,166.68205 C 6202.3398,132.54383 6195.3089,115.45586 6187.8172,109.56521 C 6192.3335,107.27359 6195.2931,103.56409 6192.9634,95.048694 C 6209.2809,92.183553 6202.3697,72.269876 6195.6502,65.815257 C 6192.3741,74.690936 6178.39,77.966452 6165.1335,68.127756 C 6181.161,60.822487 6181.3063,42.643516 6169.0634,30.01864 z M 6235.0024,871.76044 C 6235.5435,872.41518 6236.1051,873.03019 6236.6733,873.63181 C 6236.1031,873.06273 6235.5411,872.47837 6234.9757,871.86738 C 6234.9866,871.83212 6234.9913,871.79569 6235.0024,871.76044 z M 5901.3908,874.17986 C 5899.8125,880.08834 5902.618,896.24488 5902.9547,906.99565 C 5908.3571,909.65136 5917.8951,906.9026 5928.833,902.7316 C 5928.2396,902.9889 5927.6581,903.2394 5927.0686,903.49352 C 5918.8394,906.5442 5909.0348,909.66382 5902.8745,907.18279 L 5900.9497,883.13569 C 5900.5421,880.42083 5900.5814,877.48923 5901.3373,874.19322 C 5901.3558,874.18799 5901.3722,874.18499 5901.3908,874.17986 z M 5897.3673,875.30268 C 5896.4624,875.57084 5895.5395,875.80061 5894.587,875.99776 C 5895.5052,875.77953 5896.4232,875.55684 5897.3673,875.30268 z M 6241.8997,878.2434 C 6253.9515,887.05352 6268.8281,887.30072 6274.3145,885.98285 C 6274.6249,885.29725 6274.8977,884.60255 6275.1433,883.91098 C 6274.9504,884.69054 6274.7291,885.47816 6274.4883,886.27692 C 6263.1354,888.00802 6252.1834,886.13527 6241.8997,878.2434 z M 5630.4967,1048.7652 C 5632.2826,1050.0786 5634.5141,1051.4342 5637.354,1052.8688 C 5635.0777,1051.808 5632.7238,1050.505 5630.4967,1048.7652 z M 5826.6296,1079.3087 C 5826.6286,1079.3174 5826.6305,1079.3265 5826.6296,1079.3354 L 5826.6028,1079.322 C 5826.612,1079.3187 5826.6205,1079.3117 5826.6296,1079.3087 z M 6135.7129,1092.6889 C 6147.0415,1104.58 6190.7339,1136.9065 6241.4185,1121.2808 C 6245.6297,1149.9252 6221.2942,1160.7111 6202.0797,1156.7967 C 6183.2984,1152.9707 6155.0534,1137.9832 6135.7129,1092.6889 z M 6035.0065,1100.014 C 6018.5609,1131.3059 5991.3025,1157.7667 5967.0357,1164.1351 C 5942.7689,1170.5034 5920.1583,1158.4381 5928.9667,1126.935 C 5981.3692,1144.4781 6023.9488,1113.4492 6035.0065,1100.014 z M 6324.0261,1101.4175 C 6319.583,1102.6758 6314.7276,1103.8375 6309.9641,1104.0107 C 6314.4013,1103.7334 6319.4232,1102.6148 6324.0261,1101.4175 z M 6516.5232,1110.6273 C 6515.2468,1110.788 6513.888,1110.8969 6512.4596,1110.9481 C 6513.7961,1110.8708 6515.1599,1110.7564 6516.5232,1110.6273 z M 5639.7199,1125.9592 C 5642.2521,1126.9285 5644.6166,1127.6355 5646.8177,1128.1247 C 5644.3981,1127.6735 5642.012,1126.9733 5639.7199,1125.9592 z M 5670.0093,1126.8013 C 5668.7077,1127.1079 5667.3342,1127.4048 5665.9057,1127.6701 C 5667.0818,1127.3858 5668.1517,1127.1272 5669.1004,1126.935 C 5669.406,1126.8979 5669.706,1126.8477 5670.0093,1126.8013 z M 6454.9417,1160.887 C 6453.1061,1161.2189 6451.1068,1161.3923 6448.94,1161.2746 C 6450.9216,1161.2715 6452.9537,1161.1234 6454.9417,1160.887 z"
             id="path81137" />
          <path
             sodipodi:nodetypes="ccccccccccccccc"
             id="path2569"
             d="M 5974.8867,-67.934035 C 5996.9019,-29.50523 6005.7308,6.860955 6017.8988,41.594001 C 6038.0527,38.855395 6061.4658,43.449663 6083.9447,45.94222 C 6106.8784,48.922334 6130.6305,53.266451 6149.9905,50.290435 C 6161.8743,-4.4401252 6172.1627,-31.781939 6195.8231,-70.284419 C 6185.3243,-63.144318 6162.9813,-60.225397 6154.2212,-47.250629 C 6141.0912,-58.932155 6130.6769,-51.619619 6124.1363,-39.25931 C 6126.3615,-49.125377 6123.4196,-57.489161 6110.504,-58.297447 C 6118.1605,-72.651095 6106.371,-79.773573 6094.0513,-73.339922 C 6093.7089,-85.843405 6083.7167,-85.94756 6083.0045,-92.613098 C 6081.3462,-84.893588 6072.5879,-88.712246 6073.838,-70.049383 C 6063.8653,-78.061131 6054.1209,-72.842121 6057.8554,-58.767522 C 6045.7548,-58.821777 6042.3765,-48.857975 6043.518,-36.438847 C 6035.2192,-55.692317 6019.6302,-49.813977 6014.1382,-43.019932 C 6004.407,-62.193847 5997.0547,-50.085511 5974.8867,-67.934035 z"
             style="fill:#f5fd46;fill-opacity:1;fill-rule:evenodd;stroke:none;stroke-width:1px;stroke-linecap:butt;stroke-linejoin:miter;stroke-opacity:1" />
        </g>
      </g>
      <g
         id="g4960"
         transform="matrix(0.1841218,0,0,0.1841218,4000.854,-1738.7279)"
         style="fill:#ffffff">
        <path
           d="M 9084.769,-1808.4929 L 9084.769,-1589.5016 L 9122.158,-1589.5016 L 9122.158,-1680.3029 L 9185.363,-1680.3029 C 9185.363,-1680.3029 9222.752,-1700.7776 9222.752,-1744.3979 C 9222.752,-1791.5789 9185.363,-1808.4929 9185.363,-1808.4929 L 9122.158,-1808.4929 L 9084.769,-1808.4929 z M 9173.79,-1771.9943 C 9173.79,-1771.9943 9186.253,-1758.6412 9186.253,-1744.3979 C 9186.253,-1731.0447 9173.79,-1716.8014 9173.79,-1716.8014 L 9122.158,-1716.8014 L 9122.158,-1771.9943 L 9173.79,-1771.9943 z"
           style="fill:#ffffff;fill-opacity:1;stroke:none;stroke-width:7;stroke-miterlimit:4;stroke-opacity:1"
           id="path4920" />
        <path
           d="M 6719.1762,-1808.493 L 6719.1762,-1589.5016 L 6756.5644,-1589.5016 L 6756.5644,-1680.303 L 6786.8321,-1680.303 L 6841.1349,-1589.5016 L 6883.8649,-1589.5016 L 6826.8916,-1685.6441 C 6837.5735,-1694.5463 6857.1585,-1713.2406 6857.1585,-1744.398 C 6857.1585,-1791.579 6818.8794,-1808.493 6818.8794,-1808.493 L 6756.5644,-1808.493 L 6719.1762,-1808.493 z M 6808.1967,-1771.9944 C 6808.1967,-1771.9944 6820.6597,-1758.6413 6820.6597,-1744.398 C 6820.6597,-1731.0448 6808.1967,-1716.8015 6808.1967,-1716.8015 L 6756.5644,-1716.8015 L 6756.5644,-1771.9944 L 6808.1967,-1771.9944 z"
           style="fill:#ffffff;fill-opacity:1;stroke:none;stroke-width:7;stroke-miterlimit:4;stroke-opacity:1"
           id="path4922" />
        <path
           d="M 8798.7315,-1735.4958 C 8757.7819,-1735.4958 8724.8444,-1702.5581 8724.8444,-1662.4987 C 8724.8444,-1621.5491 8757.7819,-1589.5016 8798.7315,-1589.5016 C 8813.865,-1589.5016 8828.9984,-1593.9527 8840.5713,-1602.8547 L 8844.1319,-1589.5016 L 8880.6308,-1589.5016 L 8871.7284,-1625.1099 L 8871.7284,-1735.4958 L 8835.2303,-1735.4958 L 8835.2303,-1725.7035 C 8824.5476,-1731.935 8812.0846,-1735.4958 8798.7315,-1735.4958 z M 8799.6217,-1698.1071 C 8816.5354,-1698.1071 8830.7788,-1682.0833 8835.2303,-1666.0596 L 8835.2303,-1656.2673 C 8830.7788,-1640.2435 8816.5354,-1626.0002 8799.6217,-1626.0002 C 8779.1472,-1626.0002 8763.1236,-1642.0239 8763.1236,-1661.6085 C 8763.1236,-1682.0833 8779.1472,-1698.1071 8799.6217,-1698.1071 z"
           style="fill:#ffffff;fill-opacity:1;stroke:none;stroke-width:7;stroke-miterlimit:4;stroke-dasharray:none;stroke-opacity:1"
           id="path4924"
           sodipodi:nodetypes="csscccccccccccssc" />
        <path
           d="M 7115.6686,-1735.4958 C 7075.6092,-1735.4958 7042.6717,-1702.5581 7042.6717,-1662.4987 C 7042.6717,-1621.5491 7075.6092,-1589.5016 7115.6686,-1589.5016 C 7129.9119,-1589.5016 7138.8143,-1590.3918 7151.2773,-1593.0624 L 7168.1911,-1627.7806 C 7134.3627,-1626.0002 7098.7548,-1611.7568 7080.06,-1649.1455 L 7176.2025,-1649.1455 L 7176.2025,-1704.3385 C 7162.8494,-1723.0329 7140.5946,-1735.4958 7115.6686,-1735.4958 z M 7115.6686,-1700.7777 C 7132.5824,-1700.7777 7146.8257,-1690.0952 7152.1675,-1674.9616 L 7080.06,-1674.9616 C 7085.4017,-1690.0952 7099.645,-1700.7777 7115.6686,-1700.7777 z"
           style="fill:#ffffff;fill-opacity:1;stroke:none;stroke-width:7;stroke-miterlimit:4;stroke-dasharray:none;stroke-opacity:1"
           id="path4926" />
        <path
           d="M 8521.937,-1808.493 L 8521.937,-1771.1042 L 8559.326,-1771.1042 L 8559.326,-1808.493 L 8521.937,-1808.493 z M 8522.8272,-1736.386 L 8522.8272,-1589.5016 L 8559.326,-1589.5016 L 8559.326,-1736.386 L 8522.8272,-1736.386 z"
           style="fill:#ffffff;fill-opacity:1;stroke:none;stroke-width:7;stroke-miterlimit:4;stroke-opacity:1"
           id="path4928" />
        <path
           d="M 9670.0349,-1808.493 L 9670.0349,-1589.5016 L 9706.5339,-1589.5016 L 9706.5339,-1644.6945 L 9718.1069,-1644.6945 L 9762.6169,-1589.5016 L 9803.5672,-1589.5016 L 9751.0449,-1660.7183 L 9800.8972,-1734.6056 L 9759.9469,-1734.6056 L 9720.7779,-1681.1931 L 9706.5339,-1681.1931 L 9706.5339,-1808.493 L 9670.0349,-1808.493 z"
           style="fill:#ffffff;fill-opacity:1;stroke:none;stroke-width:7;stroke-miterlimit:4;stroke-opacity:1"
           id="path4930" />
        <path
           d="M 8432.2678,-1808.493 L 8469.6568,-1808.493 L 8469.6568,-1589.5016 L 8432.2678,-1589.5016 L 8432.2678,-1808.493 z"
           style="fill:#ffffff;fill-opacity:1;stroke:none;stroke-width:7;stroke-miterlimit:4;stroke-opacity:1"
           id="path4932" />
        <path
           d="M 7524.6401,-1515.6143 L 7524.6401,-1735.4958 L 7562.0291,-1735.4958 L 7562.0291,-1725.7035 C 7572.711,-1731.9349 7585.174,-1735.4958 7598.5272,-1735.4958 C 7639.4768,-1735.4958 7672.415,-1702.5581 7672.415,-1661.6084 C 7672.415,-1620.6589 7639.4768,-1587.7212 7598.5272,-1587.7212 C 7585.174,-1587.7212 7572.711,-1591.282 7562.0291,-1597.5134 L 7562.0291,-1515.6143 L 7524.6401,-1515.6143 z M 7599.4173,-1625.1099 C 7619.8925,-1625.1099 7635.9162,-1642.0239 7635.9162,-1661.6084 C 7635.9162,-1682.0833 7619.8925,-1698.107 7599.4173,-1698.107 C 7578.9429,-1698.107 7562.9193,-1682.0833 7562.9193,-1661.6084 C 7562.9193,-1642.0239 7578.9429,-1625.1099 7599.4173,-1625.1099 z"
           style="fill:#ffffff;fill-opacity:1;stroke:none;stroke-width:7;stroke-miterlimit:4;stroke-dasharray:none;stroke-opacity:1"
           id="path4934" />
        <path
           d="M 8658.4088,-1808.493 L 8621.91,-1771.9944 L 8621.91,-1736.3861 L 8593.4234,-1736.3861 L 8593.4234,-1699.8875 L 8621.91,-1699.8875 L 8621.91,-1652.7065 C 8621.91,-1617.9884 8640.6049,-1590.3919 8677.103,-1589.5016 L 8695.7978,-1625.11 C 8685.1152,-1625.11 8684.225,-1625.11 8671.762,-1625.11 C 8666.421,-1625.11 8658.4088,-1634.9023 8658.4088,-1640.2436 C 8658.4088,-1658.9379 8658.4088,-1699.8875 8658.4088,-1699.8875 L 8686.8955,-1699.8875 L 8686.8955,-1736.3861 L 8658.4088,-1736.3861 L 8658.4088,-1808.493 z"
           style="fill:#ffffff;fill-opacity:1;stroke:none;stroke-width:7;stroke-miterlimit:4;stroke-dasharray:none;stroke-opacity:1"
           id="path4936" />
        <path
           d="M 6906.8505,-1735.4958 L 6906.8505,-1698.9972 L 6957.5927,-1698.9972 L 6906.8505,-1607.3057 L 6906.8505,-1589.5016 L 7006.5538,-1589.5016 L 7006.5538,-1625.1099 L 6955.8124,-1625.1099 L 7006.5538,-1719.472 L 7006.5538,-1735.4958 L 6906.8505,-1735.4958 z"
           style="fill:#ffffff;fill-opacity:1;stroke:none;stroke-width:7;stroke-miterlimit:4;stroke-opacity:1"
           id="path4938" />
        <path
           d="M 7299.3396,-1735.4958 C 7258.39,-1735.4958 7225.4526,-1702.5581 7225.4526,-1662.4987 C 7225.4526,-1621.5491 7258.39,-1589.5016 7299.3396,-1589.5016 C 7317.1436,-1589.5016 7333.1672,-1595.7331 7345.6302,-1605.5254 L 7329.6066,-1637.5729 C 7322.4853,-1629.561 7310.9125,-1623.3296 7299.3396,-1623.3296 C 7277.9743,-1623.3296 7260.1703,-1641.1337 7260.1703,-1662.4987 C 7260.1703,-1683.8637 7277.9743,-1700.7777 7299.3396,-1700.7777 C 7310.0223,-1700.7777 7319.8141,-1696.3266 7326.9361,-1689.205 L 7340.2893,-1723.0329 C 7328.7164,-1731.0448 7314.4731,-1735.4958 7299.3396,-1735.4958 z"
           style="fill:#ffffff;fill-opacity:1;stroke:none;stroke-width:7;stroke-miterlimit:4;stroke-dasharray:none;stroke-opacity:1"
           id="path4940" />
        <path
           d="M 7787.4705,-1735.4958 C 7746.5208,-1735.4958 7713.5834,-1702.5581 7713.5834,-1662.4987 C 7713.5834,-1621.5491 7746.5208,-1589.5016 7787.4705,-1589.5016 C 7827.5299,-1589.5016 7860.4674,-1621.5491 7860.4674,-1662.4987 C 7860.4674,-1702.5581 7827.5299,-1735.4958 7787.4705,-1735.4958 z M 7788.3606,-1698.107 C 7808.8358,-1698.107 7824.8595,-1682.0833 7824.8595,-1661.6084 C 7824.8595,-1642.0239 7808.8358,-1626.0002 7788.3606,-1626.0002 C 7767.8862,-1626.0002 7751.8626,-1642.0239 7751.8626,-1661.6084 C 7751.8626,-1682.0833 7767.8862,-1698.107 7788.3606,-1698.107 z"
           style="fill:#ffffff;fill-opacity:1;stroke:none;stroke-width:7;stroke-miterlimit:4;stroke-dasharray:none;stroke-opacity:1"
           id="path4942" />
        <path
           style="fill:#ffffff;fill-opacity:1;stroke:none;stroke-width:7;stroke-miterlimit:4;stroke-dasharray:none;stroke-opacity:1"
           d="M 7961.7088,-1736.386 C 7959.9284,-1736.386 7959.0383,-1736.386 7957.258,-1735.4958 C 7938.5638,-1735.4958 7923.4296,-1717.6916 7923.4296,-1698.9973 C 7923.4296,-1675.8518 7934.1123,-1667.8399 7951.0261,-1656.2672 C 7972.3914,-1642.9141 7979.5135,-1645.5847 7977.7324,-1629.5609 C 7970.6111,-1611.7568 7938.5638,-1622.4393 7921.6493,-1626.8904 L 7912.7477,-1600.1841 C 7926.991,-1593.9526 7941.2343,-1590.3918 7956.3678,-1589.5016 C 7979.5135,-1589.5016 8008.0001,-1597.5134 8008.0001,-1633.1218 C 8008.8903,-1652.7064 7995.5371,-1664.2791 7984.8544,-1670.5106 C 7975.9521,-1678.5225 7954.5875,-1683.8637 7954.5875,-1698.107 C 7959.0383,-1713.2406 7980.4036,-1705.2287 7990.1954,-1701.6679 L 7991.0855,-1732.8252 C 7980.4036,-1735.4958 7972.3914,-1736.386 7961.7088,-1736.386 z"
           id="path4944" />
        <path
           d="M 8048.2008,-1515.6143 L 8048.2008,-1735.4958 L 8085.5898,-1735.4958 L 8085.5898,-1725.7035 C 8096.2717,-1731.9349 8108.7347,-1735.4958 8122.0878,-1735.4958 C 8163.0375,-1735.4958 8195.9756,-1702.5581 8195.9756,-1661.6084 C 8195.9756,-1620.6589 8163.0375,-1587.7212 8122.0878,-1587.7212 C 8108.7347,-1587.7212 8096.2717,-1591.282 8085.5898,-1597.5134 L 8085.5898,-1515.6143 L 8048.2008,-1515.6143 z M 8122.978,-1625.1099 C 8143.4532,-1625.1099 8159.4768,-1642.0239 8159.4768,-1661.6084 C 8159.4768,-1682.0833 8143.4532,-1698.107 8122.978,-1698.107 C 8102.5035,-1698.107 8086.4799,-1682.0833 8086.4799,-1661.6084 C 8086.4799,-1642.0239 8102.5035,-1625.1099 8122.978,-1625.1099 z"
           style="fill:#ffffff;fill-opacity:1;stroke:none;stroke-width:7;stroke-miterlimit:4;stroke-dasharray:none;stroke-opacity:1"
           id="path4946" />
        <path
           d="M 8310.021,-1735.4958 C 8269.0714,-1735.4958 8236.1339,-1702.5581 8236.1339,-1662.4987 C 8236.1339,-1621.5491 8269.0714,-1589.5016 8310.021,-1589.5016 C 8350.0805,-1589.5016 8383.0179,-1621.5491 8383.0179,-1662.4987 C 8383.0179,-1702.5581 8350.0805,-1735.4958 8310.021,-1735.4958 z M 8310.9111,-1698.1071 C 8331.3863,-1698.1071 8347.41,-1682.0833 8347.41,-1661.6085 C 8347.41,-1642.0239 8331.3863,-1626.0002 8310.9111,-1626.0002 C 8290.4367,-1626.0002 8274.4131,-1642.0239 8274.4131,-1661.6085 C 8274.4131,-1682.0833 8290.4367,-1698.1071 8310.9111,-1698.1071 z"
           style="fill:#ffffff;fill-opacity:1;stroke:none;stroke-width:7;stroke-miterlimit:4;stroke-dasharray:none;stroke-opacity:1"
           id="path4948" />
        <path
           d="M 9319.5623,-1735.4958 C 9278.6123,-1735.4958 9245.6753,-1702.5581 9245.6753,-1662.4987 C 9245.6753,-1621.5491 9278.6123,-1589.5016 9319.5623,-1589.5016 C 9359.6213,-1589.5016 9392.5593,-1621.5491 9392.5593,-1662.4987 C 9392.5593,-1702.5581 9359.6213,-1735.4958 9319.5623,-1735.4958 z M 9320.4523,-1698.1071 C 9340.9273,-1698.1071 9356.9513,-1682.0833 9356.9513,-1661.6085 C 9356.9513,-1642.0239 9340.9273,-1626.0002 9320.4523,-1626.0002 C 9299.9783,-1626.0002 9283.9543,-1642.0239 9283.9543,-1661.6085 C 9283.9543,-1682.0833 9299.9783,-1698.1071 9320.4523,-1698.1071 z"
           style="fill:#ffffff;fill-opacity:1;stroke:none;stroke-width:7;stroke-miterlimit:4;stroke-dasharray:none;stroke-opacity:1"
           id="path4950" />
        <path
           d="M 9444.4283,-1808.493 L 9481.8173,-1808.493 L 9481.8173,-1589.5016 L 9444.4283,-1589.5016 L 9444.4283,-1808.493 z"
           style="fill:#ffffff;fill-opacity:1;stroke:none;stroke-width:7;stroke-miterlimit:4;stroke-opacity:1"
           id="path4952" />
        <path
           style="fill:#ffffff;fill-opacity:1;stroke:none;stroke-width:7;stroke-miterlimit:4;stroke-dasharray:none;stroke-opacity:1"
           d="M 9575.751,-1736.386 C 9573.97,-1736.386 9573.08,-1736.386 9571.3,-1735.4958 C 9552.606,-1735.4958 9537.471,-1717.6916 9537.471,-1698.9972 C 9537.471,-1675.8518 9548.154,-1667.8399 9565.068,-1656.2672 C 9586.433,-1642.9141 9593.555,-1645.5847 9591.774,-1629.5609 C 9584.653,-1611.7568 9552.606,-1622.4392 9535.691,-1626.8903 L 9526.79,-1600.184 C 9541.033,-1593.9526 9555.276,-1590.3917 9570.41,-1589.5016 C 9593.555,-1589.5016 9622.042,-1597.5134 9622.042,-1633.1218 C 9622.932,-1652.7063 9609.579,-1664.2791 9598.896,-1670.5105 C 9589.994,-1678.5224 9568.629,-1683.8637 9568.629,-1698.107 C 9573.08,-1713.2406 9594.445,-1705.2287 9604.237,-1701.6679 L 9605.127,-1732.8251 C 9594.445,-1735.4958 9586.433,-1736.386 9575.751,-1736.386 z"
           id="path4954" />
        <path
           d="M 9899.2253,-1735.4958 C 9858.2753,-1735.4958 9825.338,-1702.5581 9825.338,-1662.4987 C 9825.338,-1621.5491 9858.2753,-1589.5016 9899.2253,-1589.5016 C 9914.3583,-1589.5016 9929.4923,-1593.9527 9941.0653,-1602.8547 L 9944.6253,-1589.5016 L 9981.1243,-1589.5016 L 9972.2223,-1625.1099 L 9972.2223,-1735.4958 L 9935.7243,-1735.4958 L 9935.7243,-1725.7035 C 9925.0413,-1731.935 9912.5783,-1735.4958 9899.2253,-1735.4958 z M 9900.1153,-1698.1071 C 9917.0293,-1698.1071 9931.2723,-1682.0833 9935.7243,-1666.0596 L 9935.7243,-1656.2673 C 9931.2723,-1640.2435 9917.0293,-1626.0002 9900.1153,-1626.0002 C 9879.6403,-1626.0002 9863.6173,-1642.0239 9863.6173,-1661.6085 C 9863.6173,-1682.0833 9879.6403,-1698.1071 9900.1153,-1698.1071 z"
           style="fill:#ffffff;fill-opacity:1;stroke:none;stroke-width:7;stroke-miterlimit:4;stroke-dasharray:none;stroke-opacity:1"
           id="path4956"
           sodipodi:nodetypes="csscccccccccccssc" />
        <path
           d="M 7383.7682,-1735.4958 L 7383.7682,-1698.9972 L 7434.5104,-1698.9972 L 7383.7682,-1607.3057 L 7383.7682,-1589.5016 L 7483.4715,-1589.5016 L 7483.4715,-1625.1099 L 7432.7301,-1625.1099 L 7483.4715,-1719.472 L 7483.4715,-1735.4958 L 7383.7682,-1735.4958 z"
           style="fill:#ffffff;fill-opacity:1;stroke:none;stroke-width:7;stroke-miterlimit:4;stroke-opacity:1"
           id="path4958" />
      </g>
      <g
         id="g5579"
         transform="translate(1368.8678,-154)"
         style="fill:#ffffff">
        <path
           d="M 3815.0072,-1451.7905 C 3795.1151,-1451.7905 3778.9709,-1435.6962 3778.9709,-1415.8655 C 3778.9709,-1396.0349 3795.1151,-1379.9405 3815.0072,-1379.9405 C 3826.7225,-1379.9405 3837.1345,-1385.5251 3843.7176,-1394.1655 L 3843.7176,-1421.7575 L 3814.9116,-1421.6241 L 3814.9116,-1410.0306 L 3832.2792,-1410.0306 L 3832.2792,-1398.5704 C 3827.8508,-1394.1749 3821.7452,-1391.4578 3815.0072,-1391.4578 C 3801.4922,-1391.4578 3790.5241,-1402.3925 3790.5241,-1415.8655 C 3790.5241,-1429.1279 3801.1527,-1439.9386 3814.3759,-1440.2729 C 3814.5859,-1440.2783 3814.7959,-1440.2729 3815.0072,-1440.2729 C 3822.2087,-1440.2729 3828.6874,-1437.1658 3833.1688,-1432.2262 L 3839.1365,-1442.5423 C 3832.7467,-1448.2913 3824.2853,-1451.7905 3815.0072,-1451.7905 z"
           style="fill:#ffffff;fill-opacity:1;stroke:none;stroke-width:7;stroke-miterlimit:4;stroke-dasharray:none;stroke-opacity:1"
           id="path5551" />
        <path
           d="M 4197.9794,-1451.7905 L 4197.9794,-1379.9405 L 4210.2592,-1379.9405 L 4210.2592,-1409.8243 L 4230.6752,-1409.8243 C 4230.6752,-1409.8243 4243.076,-1416.5381 4243.0759,-1430.7822 C 4243.076,-1446.277 4230.6752,-1451.7905 4230.6752,-1451.7905 L 4210.2592,-1451.7905 L 4197.9794,-1451.7905 z M 4227.0345,-1439.8188 C 4227.0345,-1439.8188 4231.2486,-1435.3028 4231.2485,-1430.7822 C 4231.2485,-1426.2617 4227.0345,-1421.7358 4227.0345,-1421.7358 L 4210.2592,-1421.7358 L 4210.2592,-1439.6479 L 4227.0345,-1439.8188 z"
           style="fill:#ffffff;fill-opacity:1;stroke:none;stroke-width:7;stroke-miterlimit:4;stroke-opacity:1"
           id="path5553" />
        <path
           d="M 3914.8577,-1427.8404 C 3901.613,-1427.8404 3890.8639,-1417.1131 3890.8639,-1403.8955 C 3890.8639,-1390.6778 3901.613,-1379.9506 3914.8577,-1379.9506 C 3920.0377,-1379.9506 3924.8316,-1381.6017 3928.7546,-1384.3902 L 3929.924,-1379.9405 L 3941.841,-1379.9405 L 3938.7318,-1391.6337 L 3938.7318,-1427.8305 L 3926.8148,-1427.8305 L 3926.8148,-1424.6479 C 3923.2933,-1426.6737 3919.2116,-1427.8404 3914.8577,-1427.8404 z M 3915.2177,-1415.7083 C 3920.8536,-1415.7083 3925.5789,-1410.4526 3926.8148,-1405.2008 L 3926.8148,-1402.0185 C 3925.5789,-1396.7689 3920.8536,-1391.933 3915.2177,-1391.933 C 3908.6428,-1391.933 3903.3107,-1397.2542 3903.3107,-1403.8158 C 3903.3107,-1410.3771 3908.6428,-1415.7083 3915.2177,-1415.7083 z"
           style="fill:#ffffff;fill-opacity:1;stroke:none;stroke-width:7;stroke-miterlimit:4;stroke-dasharray:none;stroke-opacity:1"
           id="path5555"
           sodipodi:nodetypes="csscccccccccccssc" />
        <path
           d="M 4010.2692,-1451.7905 L 4010.2692,-1439.6581 L 4022.4384,-1439.6581 L 4022.4384,-1451.7905 L 4010.2692,-1451.7905 z M 4010.3497,-1428.1484 L 4010.3497,-1379.9405 L 4022.3578,-1379.9405 L 4022.3578,-1428.1484 L 4010.3497,-1428.1484 z"
           style="fill:#ffffff;fill-opacity:1;stroke:none;stroke-width:7;stroke-miterlimit:4;stroke-opacity:1"
           id="path5557" />
        <path
           d="M 4331.1772,-1451.7905 L 4325.6911,-1433.8655 L 4343.6689,-1451.7905 L 4331.1772,-1451.7905 z M 4308.0201,-1427.8404 L 4308.0201,-1379.9405 L 4319.9504,-1379.9405 L 4319.9504,-1410.2372 C 4320.3838,-1411.534 4323.7078,-1415.8356 4328.7074,-1415.8356 C 4335.2294,-1415.8356 4337.4341,-1409.8556 4337.4341,-1409.8556 L 4337.6364,-1379.9405 L 4349.5591,-1379.9405 L 4349.5964,-1409.8556 C 4348.6314,-1421.7133 4340.3422,-1427.8404 4331.9479,-1427.8404 C 4325.5744,-1427.8404 4321.088,-1424.364 4319.9504,-1423.4247 L 4319.9504,-1427.8404 L 4308.0201,-1427.8404 z"
           style="fill:#ffffff;fill-opacity:1;stroke:none;stroke-width:7;stroke-miterlimit:4;stroke-opacity:1"
           id="path5559" />
        <path
           d="M 3871.0097,-1425.6147 L 3871.0097,-1427.8404 L 3859.0984,-1427.8404 L 3859.0984,-1379.9405 L 3871.0097,-1379.9405 L 3871.0097,-1410.9856 C 3873.8858,-1414.4575 3878.4736,-1416.2038 3882.9413,-1416.0293 L 3882.9413,-1427.8404 C 3877.6412,-1427.6681 3873.4089,-1427.1648 3871.0097,-1425.6147 z"
           style="fill:#ffffff;fill-opacity:1;stroke:none;stroke-width:7;stroke-miterlimit:4;stroke-opacity:1"
           id="path5561" />
        <path
           d="M 4420.8575,-1451.7905 L 4408.8973,-1439.9525 L 4408.8973,-1428.2552 L 4399.6158,-1428.2552 L 4399.6158,-1416.2968 L 4408.8973,-1416.2968 L 4408.8973,-1400.7872 C 4408.7298,-1389.3345 4414.9675,-1380.4038 4426.9581,-1379.9405 L 4433.0285,-1391.826 C 4429.6301,-1391.826 4429.291,-1391.826 4425.1019,-1391.826 C 4423.4847,-1391.826 4420.8575,-1394.9746 4420.8575,-1396.6541 C 4420.8575,-1402.7244 4420.8575,-1416.2968 4420.8575,-1416.2968 L 4430.1188,-1416.2968 L 4430.1188,-1428.2552 L 4420.8575,-1428.2552 L 4420.8575,-1451.7905 z"
           style="fill:#ffffff;fill-opacity:1;stroke:none;stroke-width:7;stroke-miterlimit:4;stroke-dasharray:none;stroke-opacity:1"
           id="path5563" />
        <path
           d="M 4437.3898,-1427.8404 L 4449.0737,-1379.9405 L 4461.0182,-1379.9405 L 4469.8962,-1408.5808 L 4478.7743,-1379.9405 L 4490.7186,-1379.9405 L 4502.4024,-1427.8404 L 4490.458,-1427.8404 L 4484.0349,-1401.5054 L 4475.8682,-1427.8404 L 4463.9239,-1427.8404 L 4455.7575,-1401.5054 L 4449.3341,-1427.8404 L 4437.3898,-1427.8404 z"
           style="fill:#ffffff;fill-opacity:1;stroke:none;stroke-width:7;stroke-miterlimit:4;stroke-opacity:1"
           id="path5565" />
        <path
           d="M 4060.7376,-1427.8404 C 4047.4851,-1427.8404 4036.7273,-1417.1096 4036.7273,-1403.8905 C 4036.7273,-1390.6713 4047.4851,-1379.9405 4060.7376,-1379.9405 C 4066.5135,-1379.9405 4071.8173,-1381.9763 4075.9616,-1385.3709 L 4070.6312,-1395.9576 C 4068.3032,-1393.0732 4064.7344,-1391.2261 4060.7376,-1391.2261 C 4053.7307,-1391.2261 4048.0413,-1396.9015 4048.0413,-1403.8905 C 4048.0413,-1410.8795 4053.7307,-1416.5549 4060.7376,-1416.5549 C 4064.3371,-1416.5549 4067.5813,-1415.0495 4069.8928,-1412.6451 L 4074.2574,-1423.6851 C 4070.4063,-1426.3082 4065.7486,-1427.8404 4060.7376,-1427.8404 z"
           style="fill:#ffffff;fill-opacity:1;stroke:none;stroke-width:7;stroke-miterlimit:4;stroke-dasharray:none;stroke-opacity:1"
           id="path5567" />
        <path
           d="M 3953.6284,-1427.8404 L 3953.6284,-1379.9405 L 3965.5587,-1379.9405 L 3965.5587,-1410.2372 C 3965.992,-1411.534 3969.316,-1415.8356 3974.3156,-1415.8356 C 3980.8376,-1415.8357 3983.0425,-1409.8556 3983.0425,-1409.8556 L 3983.2446,-1379.9405 L 3995.1674,-1379.9405 L 3995.2047,-1409.8556 C 3994.2395,-1421.7133 3985.9505,-1427.8404 3977.5563,-1427.8404 C 3971.1826,-1427.8405 3966.6964,-1424.364 3965.5587,-1423.4247 L 3965.5587,-1427.8404 L 3953.6284,-1427.8404 z"
           style="fill:#ffffff;fill-opacity:1;stroke:none;stroke-width:7;stroke-miterlimit:4;stroke-opacity:1"
           id="path5569" />
        <path
           style="fill:#ffffff;fill-opacity:1;stroke:none;stroke-width:7;stroke-miterlimit:4;stroke-dasharray:none;stroke-opacity:1"
           d="M 4379.6056,-1427.8477 C 4379.1109,-1427.8427 4378.6042,-1427.8275 4378.0767,-1427.8114 C 4372.1632,-1427.8113 4367.1189,-1421.8222 4367.1189,-1415.5797 C 4367.1716,-1408.1956 4370.7003,-1405.3883 4376.1836,-1401.6735 C 4383.093,-1397.4585 4385.406,-1398.1416 4384.8477,-1392.9002 C 4382.4984,-1387.1549 4371.922,-1390.5792 4366.5,-1392.2449 L 4363.6241,-1383.2896 C 4368.1599,-1381.3817 4373.0239,-1380.1847 4377.8217,-1379.9405 C 4385.4037,-1379.9406 4394.6406,-1382.596 4394.6406,-1394.2835 C 4395.1328,-1400.4421 4390.7102,-1404.2666 4387.287,-1406.5152 C 4384.2665,-1409.1565 4377.2507,-1410.6752 4377.203,-1415.4342 C 4378.5869,-1420.3562 4385.677,-1417.6472 4389.0345,-1416.5262 L 4389.1072,-1426.9376 C 4385.8092,-1427.631 4383.0696,-1427.8831 4379.6056,-1427.8477 z"
           id="path5571" />
        <path
           d="M 4108.2927,-1427.8404 C 4095.048,-1427.8404 4084.299,-1417.1131 4084.299,-1403.8955 C 4084.299,-1390.6778 4095.048,-1379.9506 4108.2927,-1379.9506 C 4113.4726,-1379.9506 4118.2666,-1381.6017 4122.1894,-1384.3902 L 4123.359,-1379.9405 L 4135.276,-1379.9405 L 4132.1666,-1391.6337 L 4132.1666,-1427.8305 L 4120.2497,-1427.8305 L 4120.2497,-1424.6479 C 4116.7281,-1426.6737 4112.6464,-1427.8404 4108.2927,-1427.8404 z M 4108.6527,-1415.7083 C 4114.2886,-1415.7083 4119.0138,-1410.4526 4120.2497,-1405.2008 L 4120.2497,-1402.0185 C 4119.0138,-1396.7689 4114.2886,-1391.933 4108.6527,-1391.933 C 4102.0777,-1391.933 4096.7457,-1397.2542 4096.7457,-1403.8158 C 4096.7457,-1410.3771 4102.0777,-1415.7083 4108.6527,-1415.7083 z"
           style="fill:#ffffff;fill-opacity:1;stroke:none;stroke-width:7;stroke-miterlimit:4;stroke-dasharray:none;stroke-opacity:1"
           id="path5573"
           sodipodi:nodetypes="csscccccccccccssc" />
        <path
           d="M 4270.2568,-1427.8404 C 4257.0121,-1427.8404 4246.2631,-1417.1131 4246.2631,-1403.8955 C 4246.2631,-1390.6778 4257.0121,-1379.9506 4270.2568,-1379.9506 C 4275.4368,-1379.9506 4280.2307,-1381.6017 4284.1536,-1384.3902 L 4285.3231,-1379.9405 L 4297.24,-1379.9405 L 4294.1308,-1391.6337 L 4294.1308,-1427.8305 L 4282.2139,-1427.8305 L 4282.2139,-1424.6479 C 4278.6923,-1426.6737 4274.6108,-1427.8404 4270.2568,-1427.8404 z M 4270.6168,-1415.7083 C 4276.2527,-1415.7083 4280.9779,-1410.4526 4282.2139,-1405.2008 L 4282.2139,-1402.0185 C 4280.9779,-1396.7689 4276.2527,-1391.933 4270.6168,-1391.933 C 4264.0418,-1391.933 4258.7098,-1397.2542 4258.7098,-1403.8158 C 4258.7098,-1410.3771 4264.0418,-1415.7083 4270.6168,-1415.7083 z"
           style="fill:#ffffff;fill-opacity:1;stroke:none;stroke-width:7;stroke-miterlimit:4;stroke-dasharray:none;stroke-opacity:1"
           id="path5575"
           sodipodi:nodetypes="csscccccccccccssc" />
        <path
           d="M 4532.9076,-1427.8404 C 4519.6628,-1427.8404 4508.9138,-1417.1131 4508.9138,-1403.8955 C 4508.9138,-1390.6778 4519.6628,-1379.9506 4532.9076,-1379.9506 C 4538.0876,-1379.9506 4542.8815,-1381.6017 4546.8043,-1384.3902 L 4547.9739,-1379.9405 L 4559.8908,-1379.9405 L 4556.7816,-1391.6337 L 4556.7816,-1427.8305 L 4544.8646,-1427.8305 L 4544.8646,-1424.6479 C 4541.3431,-1426.6737 4537.2617,-1427.8404 4532.9076,-1427.8404 z M 4533.2675,-1415.7083 C 4538.9035,-1415.7083 4543.6287,-1410.4526 4544.8646,-1405.2008 L 4544.8646,-1402.0185 C 4543.6287,-1396.7689 4538.9035,-1391.933 4533.2675,-1391.933 C 4526.6926,-1391.933 4521.3606,-1397.2542 4521.3606,-1403.8158 C 4521.3606,-1410.3771 4526.6926,-1415.7083 4533.2675,-1415.7083 z"
           style="fill:#ffffff;fill-opacity:1;stroke:none;stroke-width:7;stroke-miterlimit:4;stroke-dasharray:none;stroke-opacity:1"
           id="path5577"
           sodipodi:nodetypes="csscccccccccccssc" />
      </g>
    </g>
  </g>
</svg>
