<?xml version="1.0" encoding="UTF-8" standalone="no"?>
<!-- Created with Inkscape (http://www.inkscape.org/) -->
<svg
   xmlns:dc="http://purl.org/dc/elements/1.1/"
   xmlns:cc="http://creativecommons.org/ns#"
   xmlns:rdf="http://www.w3.org/1999/02/22-rdf-syntax-ns#"
   xmlns:svg="http://www.w3.org/2000/svg"
   xmlns="http://www.w3.org/2000/svg"
   xmlns:sodipodi="http://sodipodi.sourceforge.net/DTD/sodipodi-0.dtd"
   xmlns:inkscape="http://www.inkscape.org/namespaces/inkscape"
   version="1.0"
   width="1249.7682"
   height="1303.2017"
   id="svg2"
   sodipodi:version="0.32"
   inkscape:version="0.46"
   sodipodi:docname="Znak_F-3.svg"
   inkscape:output_extension="org.inkscape.output.svg.inkscape">
  <metadata
     id="metadata47">
    <rdf:RDF>
      <cc:Work
         rdf:about="">
        <dc:format>image/svg+xml</dc:format>
        <dc:type
           rdf:resource="http://purl.org/dc/dcmitype/StillImage" />
      </cc:Work>
    </rdf:RDF>
  </metadata>
  <sodipodi:namedview
     inkscape:window-height="844"
     inkscape:window-width="1440"
     inkscape:pageshadow="2"
     inkscape:pageopacity="0.0"
     guidetolerance="10.0"
     gridtolerance="10.0"
     objecttolerance="10.0"
     borderopacity="1.0"
     bordercolor="#666666"
     pagecolor="#ffffff"
     id="base"
     showgrid="false"
     inkscape:zoom="1.3638379"
     inkscape:cx="152.7408"
     inkscape:cy="1301.6291"
     inkscape:window-x="-4"
     inkscape:window-y="-4"
     inkscape:current-layer="layer1" />
  <defs
     id="defs4">
    <inkscape:perspective
       sodipodi:type="inkscape:persp3d"
       inkscape:vp_x="0 : 677.49988 : 1"
       inkscape:vp_y="0 : 1000 : 0"
       inkscape:vp_z="1296 : 677.49988 : 1"
       inkscape:persp3d-origin="648 : 451.66659 : 1"
       id="perspective49" />
    <marker
       refX="0"
       refY="0"
       orient="auto"
       style="overflow:visible"
       id="Arrow2Lstart">
      <path
         d="M 8.7185878,4.0337352 L -2.2072895,0.016013256 L 8.7185884,-4.0017078 C 6.97309,-1.6296469 6.9831476,1.6157441 8.7185878,4.0337352 z"
         transform="matrix(1.1,0,0,1.1,1.1,0)"
         style="font-size:12px;fill-rule:evenodd;stroke-width:0.625;stroke-linejoin:round"
         id="path5785" />
    </marker>
    <pattern
       id="pattern4002"
       patternTransform="translate(18.50938,18)"
       height="476"
       width="370"
       patternUnits="userSpaceOnUse">
      <rect
         style="fill:#00e5ff;fill-opacity:1"
         id="rect2240"
         width="370"
         height="476"
         x="0"
         y="0"
         rx="20"
         ry="20" />
    </pattern>
    <pattern
       patternUnits="userSpaceOnUse"
       width="370"
       height="476"
       patternTransform="translate(18.50938,18)"
       id="pattern5932">
      <rect
         ry="20"
         rx="20"
         y="0"
         x="0"
         height="476"
         width="370"
         id="rect5934"
         style="fill:#00e5ff;fill-opacity:1" />
    </pattern>
    <pattern
       patternUnits="userSpaceOnUse"
       width="370"
       height="476"
       patternTransform="translate(18.50938,18)"
       id="pattern2944">
      <rect
         ry="20"
         rx="20"
         y="0"
         x="0"
         height="476"
         width="370"
         id="rect2946"
         style="fill:#00e5ff;fill-opacity:1" />
    </pattern>
    <pattern
       id="pattern2940"
       patternTransform="translate(18.50938,18)"
       height="476"
       width="370"
       patternUnits="userSpaceOnUse">
      <rect
         style="fill:#00e5ff;fill-opacity:1"
         id="rect2942"
         width="370"
         height="476"
         x="0"
         y="0"
         rx="20"
         ry="20" />
    </pattern>
    <marker
       refX="0"
       refY="0"
       orient="auto"
       style="overflow:visible"
       id="marker2936">
      <path
         d="M 8.7185878,4.0337352 L -2.2072895,0.016013256 L 8.7185884,-4.0017078 C 6.97309,-1.6296469 6.9831476,1.6157441 8.7185878,4.0337352 z"
         transform="matrix(1.1,0,0,1.1,1.1,0)"
         style="font-size:12px;fill-rule:evenodd;stroke-width:0.625;stroke-linejoin:round"
         id="path2938" />
    </marker>
    <pattern
       patternUnits="userSpaceOnUse"
       width="370"
       height="476"
       patternTransform="translate(18.50938,18)"
       id="pattern5613">
      <rect
         ry="20"
         rx="20"
         y="0"
         x="0"
         height="476"
         width="370"
         id="rect5615"
         style="fill:#00e5ff;fill-opacity:1" />
    </pattern>
    <marker
       refX="0"
       refY="0"
       orient="auto"
       style="overflow:visible"
       id="marker2313">
      <path
         d="M 8.7185878,4.0337352 L -2.2072895,0.016013256 L 8.7185884,-4.0017078 C 6.97309,-1.6296469 6.9831476,1.6157441 8.7185878,4.0337352 z"
         transform="matrix(1.1,0,0,1.1,1.1,0)"
         style="font-size:12px;fill-rule:evenodd;stroke-width:0.625;stroke-linejoin:round"
         id="path2315" />
    </marker>
    <pattern
       id="pattern2317"
       patternTransform="translate(18.50938,18)"
       height="476"
       width="370"
       patternUnits="userSpaceOnUse">
      <rect
         style="fill:#00e5ff;fill-opacity:1"
         id="rect2319"
         width="370"
         height="476"
         x="0"
         y="0"
         rx="20"
         ry="20" />
    </pattern>
    <pattern
       patternUnits="userSpaceOnUse"
       width="370"
       height="476"
       patternTransform="translate(18.50938,18)"
       id="pattern2321">
      <rect
         ry="20"
         rx="20"
         y="0"
         x="0"
         height="476"
         width="370"
         id="rect2323"
         style="fill:#00e5ff;fill-opacity:1" />
    </pattern>
    <pattern
       patternUnits="userSpaceOnUse"
       width="370"
       height="476"
       patternTransform="translate(18.50938,18)"
       id="pattern3936">
      <rect
         ry="20"
         rx="20"
         y="0"
         x="0"
         height="476"
         width="370"
         id="rect3938"
         style="fill:#00e5ff;fill-opacity:1" />
    </pattern>
    <pattern
       id="pattern3932"
       patternTransform="translate(18.50938,18)"
       height="476"
       width="370"
       patternUnits="userSpaceOnUse">
      <rect
         style="fill:#00e5ff;fill-opacity:1"
         id="rect3934"
         width="370"
         height="476"
         x="0"
         y="0"
         rx="20"
         ry="20" />
    </pattern>
    <marker
       refX="0"
       refY="0"
       orient="auto"
       style="overflow:visible"
       id="marker3928">
      <path
         d="M 8.7185878,4.0337352 L -2.2072895,0.016013256 L 8.7185884,-4.0017078 C 6.97309,-1.6296469 6.9831476,1.6157441 8.7185878,4.0337352 z"
         transform="matrix(1.1,0,0,1.1,1.1,0)"
         style="font-size:12px;fill-rule:evenodd;stroke-width:0.625;stroke-linejoin:round"
         id="path3930" />
    </marker>
    <pattern
       patternUnits="userSpaceOnUse"
       width="370"
       height="476"
       patternTransform="translate(18.50938,18)"
       id="pattern4296">
      <rect
         ry="20"
         rx="20"
         y="0"
         x="0"
         height="476"
         width="370"
         id="rect4298"
         style="fill:#00e5ff;fill-opacity:1" />
    </pattern>
    <pattern
       id="pattern4292"
       patternTransform="translate(18.50938,18)"
       height="476"
       width="370"
       patternUnits="userSpaceOnUse">
      <rect
         style="fill:#00e5ff;fill-opacity:1"
         id="rect4294"
         width="370"
         height="476"
         x="0"
         y="0"
         rx="20"
         ry="20" />
    </pattern>
    <marker
       refX="0"
       refY="0"
       orient="auto"
       style="overflow:visible"
       id="marker4288">
      <path
         d="M 8.7185878,4.0337352 L -2.2072895,0.016013256 L 8.7185884,-4.0017078 C 6.97309,-1.6296469 6.9831476,1.6157441 8.7185878,4.0337352 z"
         transform="matrix(1.1,0,0,1.1,1.1,0)"
         style="font-size:12px;fill-rule:evenodd;stroke-width:0.625;stroke-linejoin:round"
         id="path4290" />
    </marker>
    <inkscape:perspective
       sodipodi:type="inkscape:persp3d"
       inkscape:vp_x="0 : 677.49988 : 1"
       inkscape:vp_y="0 : 1000 : 0"
       inkscape:vp_z="1296 : 677.49988 : 1"
       inkscape:persp3d-origin="648 : 451.66659 : 1"
       id="perspective3345" />
    <marker
       refX="0"
       refY="0"
       orient="auto"
       style="overflow:visible"
       id="marker3341">
      <path
         d="M 8.7185878,4.0337352 L -2.2072895,0.016013256 L 8.7185884,-4.0017078 C 6.97309,-1.6296469 6.9831476,1.6157441 8.7185878,4.0337352 z"
         transform="matrix(1.1,0,0,1.1,1.1,0)"
         style="font-size:12px;fill-rule:evenodd;stroke-width:0.625;stroke-linejoin:round"
         id="path3343" />
    </marker>
    <pattern
       id="pattern3337"
       patternTransform="translate(18.50938,18)"
       height="476"
       width="370"
       patternUnits="userSpaceOnUse">
      <rect
         style="fill:#00e5ff;fill-opacity:1"
         id="rect3339"
         width="370"
         height="476"
         x="0"
         y="0"
         rx="20"
         ry="20" />
    </pattern>
    <pattern
       patternUnits="userSpaceOnUse"
       width="370"
       height="476"
       patternTransform="translate(18.50938,18)"
       id="pattern3333">
      <rect
         ry="20"
         rx="20"
         y="0"
         x="0"
         height="476"
         width="370"
         id="rect3335"
         style="fill:#00e5ff;fill-opacity:1" />
    </pattern>
    <pattern
       patternUnits="userSpaceOnUse"
       width="370"
       height="476"
       patternTransform="translate(18.50938,18)"
       id="pattern3329">
      <rect
         ry="20"
         rx="20"
         y="0"
         x="0"
         height="476"
         width="370"
         id="rect3331"
         style="fill:#00e5ff;fill-opacity:1" />
    </pattern>
    <pattern
       id="pattern3325"
       patternTransform="translate(18.50938,18)"
       height="476"
       width="370"
       patternUnits="userSpaceOnUse">
      <rect
         style="fill:#00e5ff;fill-opacity:1"
         id="rect3327"
         width="370"
         height="476"
         x="0"
         y="0"
         rx="20"
         ry="20" />
    </pattern>
    <marker
       refX="0"
       refY="0"
       orient="auto"
       style="overflow:visible"
       id="marker3321">
      <path
         d="M 8.7185878,4.0337352 L -2.2072895,0.016013256 L 8.7185884,-4.0017078 C 6.97309,-1.6296469 6.9831476,1.6157441 8.7185878,4.0337352 z"
         transform="matrix(1.1,0,0,1.1,1.1,0)"
         style="font-size:12px;fill-rule:evenodd;stroke-width:0.625;stroke-linejoin:round"
         id="path3323" />
    </marker>
    <pattern
       patternUnits="userSpaceOnUse"
       width="370"
       height="476"
       patternTransform="translate(18.50938,18)"
       id="pattern3317">
      <rect
         ry="20"
         rx="20"
         y="0"
         x="0"
         height="476"
         width="370"
         id="rect3319"
         style="fill:#00e5ff;fill-opacity:1" />
    </pattern>
    <marker
       refX="0"
       refY="0"
       orient="auto"
       style="overflow:visible"
       id="marker3313">
      <path
         d="M 8.7185878,4.0337352 L -2.2072895,0.016013256 L 8.7185884,-4.0017078 C 6.97309,-1.6296469 6.9831476,1.6157441 8.7185878,4.0337352 z"
         transform="matrix(1.1,0,0,1.1,1.1,0)"
         style="font-size:12px;fill-rule:evenodd;stroke-width:0.625;stroke-linejoin:round"
         id="path3315" />
    </marker>
    <pattern
       id="pattern3309"
       patternTransform="translate(18.50938,18)"
       height="476"
       width="370"
       patternUnits="userSpaceOnUse">
      <rect
         style="fill:#00e5ff;fill-opacity:1"
         id="rect3311"
         width="370"
         height="476"
         x="0"
         y="0"
         rx="20"
         ry="20" />
    </pattern>
    <pattern
       patternUnits="userSpaceOnUse"
       width="370"
       height="476"
       patternTransform="translate(18.50938,18)"
       id="pattern3305">
      <rect
         ry="20"
         rx="20"
         y="0"
         x="0"
         height="476"
         width="370"
         id="rect3307"
         style="fill:#00e5ff;fill-opacity:1" />
    </pattern>
    <pattern
       patternUnits="userSpaceOnUse"
       width="370"
       height="476"
       patternTransform="translate(18.50938,18)"
       id="pattern3301">
      <rect
         ry="20"
         rx="20"
         y="0"
         x="0"
         height="476"
         width="370"
         id="rect3303"
         style="fill:#00e5ff;fill-opacity:1" />
    </pattern>
    <pattern
       id="pattern3297"
       patternTransform="translate(18.50938,18)"
       height="476"
       width="370"
       patternUnits="userSpaceOnUse">
      <rect
         style="fill:#00e5ff;fill-opacity:1"
         id="rect3299"
         width="370"
         height="476"
         x="0"
         y="0"
         rx="20"
         ry="20" />
    </pattern>
    <marker
       refX="0"
       refY="0"
       orient="auto"
       style="overflow:visible"
       id="marker3293">
      <path
         d="M 8.7185878,4.0337352 L -2.2072895,0.016013256 L 8.7185884,-4.0017078 C 6.97309,-1.6296469 6.9831476,1.6157441 8.7185878,4.0337352 z"
         transform="matrix(1.1,0,0,1.1,1.1,0)"
         style="font-size:12px;fill-rule:evenodd;stroke-width:0.625;stroke-linejoin:round"
         id="path3295" />
    </marker>
    <pattern
       patternUnits="userSpaceOnUse"
       width="370"
       height="476"
       patternTransform="translate(18.50938,18)"
       id="pattern3289">
      <rect
         ry="20"
         rx="20"
         y="0"
         x="0"
         height="476"
         width="370"
         id="rect3291"
         style="fill:#00e5ff;fill-opacity:1" />
    </pattern>
    <pattern
       id="pattern3285"
       patternTransform="translate(18.50938,18)"
       height="476"
       width="370"
       patternUnits="userSpaceOnUse">
      <rect
         style="fill:#00e5ff;fill-opacity:1"
         id="rect3287"
         width="370"
         height="476"
         x="0"
         y="0"
         rx="20"
         ry="20" />
    </pattern>
    <marker
       refX="0"
       refY="0"
       orient="auto"
       style="overflow:visible"
       id="marker3281">
      <path
         d="M 8.7185878,4.0337352 L -2.2072895,0.016013256 L 8.7185884,-4.0017078 C 6.97309,-1.6296469 6.9831476,1.6157441 8.7185878,4.0337352 z"
         transform="matrix(1.1,0,0,1.1,1.1,0)"
         style="font-size:12px;fill-rule:evenodd;stroke-width:0.625;stroke-linejoin:round"
         id="path3283" />
    </marker>
    <inkscape:perspective
       sodipodi:type="inkscape:persp3d"
       inkscape:vp_x="0 : 526.18109 : 1"
       inkscape:vp_y="0 : 1000 : 0"
       inkscape:vp_z="744.09448 : 526.18109 : 1"
       inkscape:persp3d-origin="372.04724 : 350.78739 : 1"
       id="perspective2392" />
    <inkscape:perspective
       id="perspective10"
       inkscape:persp3d-origin="372.04724 : 350.78739 : 1"
       inkscape:vp_z="744.09448 : 526.18109 : 1"
       inkscape:vp_y="0 : 1000 : 0"
       inkscape:vp_x="0 : 526.18109 : 1"
       sodipodi:type="inkscape:persp3d" />
  </defs>
  <g
     transform="translate(-36.777825,-886.89435)"
     id="layer1">
    <rect
       id="rect3222"
       style="fill:#ffffff;fill-opacity:1;stroke:#808080;stroke-width:4;stroke-miterlimit:4;stroke-dasharray:none;stroke-opacity:1"
       transform="scale(-1,1)"
       y="888.89435"
       x="-1284.546"
       ry="29.950226"
       rx="27.057478"
       height="1299.2017"
       width="1245.7682" />
    <rect
       id="rect3015"
       style="fill:#2e4994;fill-opacity:1;stroke:none;stroke-width:32.59304047;stroke-miterlimit:4;stroke-dasharray:none;stroke-opacity:1"
       transform="scale(-1,1)"
       y="910.28168"
       x="-1264.0383"
       ry="14.005419"
       rx="12.199387"
       height="1256.427"
       width="1204.7528" />
    <g
       transform="translate(26.976145,44.532308)"
       id="g6353"
       style="fill:#ffffff">
      <g
         id="g6390"
         style="fill:#ffffff">
        <path
           d="M 179.44591,970.21614 L 206.44601,1078.2166 L 224.44608,1078.2166 L 242.44615,1006.2163 L 260.44622,1078.2166 L 278.44629,1078.2166 L 305.44639,970.21614 L 287.44632,970.21614 L 269.44625,1042.2164 L 251.44618,970.21614 L 233.44611,970.21614 L 215.44604,1042.2164 L 197.44598,970.21614 L 179.44591,970.21614 L 179.44591,970.21614 z M 314.44594,1042.2164 C 314.72006,1053.0476 318.45582,1062.0619 325.65323,1069.2593 C 332.85061,1076.4567 341.86489,1080.1924 352.69609,1080.4666 C 363.52719,1080.1924 372.54147,1076.4567 379.73894,1069.2592 C 386.93626,1062.0619 390.67202,1053.0476 390.94623,1042.2164 C 390.67202,1031.3853 386.93626,1022.371 379.73894,1015.1736 C 372.54147,1007.9762 363.52719,1004.2405 352.69609,1003.9663 C 341.86489,1004.2405 332.85061,1007.9762 325.65323,1015.1736 C 318.45582,1022.371 314.72006,1031.3853 314.44594,1042.2164 L 314.44594,1042.2164 z M 332.44601,1042.2164 C 332.59111,1036.4823 334.56886,1031.71 338.37928,1027.8996 C 342.18963,1024.0893 346.9619,1022.1115 352.69609,1021.9663 C 358.43018,1022.1115 363.20244,1024.0893 367.01289,1027.8996 C 370.82321,1031.71 372.80097,1036.4823 372.94617,1042.2164 C 372.80097,1047.9506 370.82322,1052.7229 367.01289,1056.5332 C 363.20244,1060.3436 358.43018,1062.3214 352.69609,1062.4665 C 346.9619,1062.3214 342.18964,1060.3436 338.37928,1056.5332 C 334.56886,1052.7229 332.59111,1047.9506 332.44601,1042.2164 L 332.44601,1042.2164 z M 431.44603,1078.2166 L 431.44603,1006.2163 L 413.44596,1006.2163 L 413.44596,1078.2166 C 413.31695,1083.3136 411.55895,1087.5556 408.17196,1090.9426 C 404.78495,1094.3296 400.54293,1096.0876 395.44589,1096.2166 L 403.89242,1113.2188 C 411.95353,1111.1565 418.52095,1106.9677 423.5947,1100.6526 C 428.6684,1094.3374 431.28551,1086.8587 431.44603,1078.2166 L 431.44603,1078.2166 z M 413.44596,970.21614 L 413.44596,988.21621 L 431.44603,988.21621 L 431.44603,970.21614 L 413.44596,970.21614 L 413.44596,970.21614 z M 511.32116,1035.4664 L 473.07101,1035.4664 C 474.50068,1031.4586 476.92881,1028.2242 480.35542,1025.7632 C 483.78195,1023.3023 487.72884,1022.0367 492.19609,1021.9663 C 496.66324,1022.0367 500.61013,1023.3023 504.03676,1025.7632 C 507.46327,1028.2242 509.8914,1031.4586 511.32116,1035.4664 L 511.32116,1035.4664 z M 473.07101,1048.9664 L 523.69621,1048.9664 L 523.69621,1020.6163 C 520.14768,1015.4929 515.65704,1011.4523 510.22428,1008.4944 C 504.79138,1005.5367 498.78199,1004.0273 492.19609,1003.9663 C 481.34913,1004.2382 472.33036,1007.9695 465.13973,1015.1601 C 457.94907,1022.3508 454.21781,1031.3695 453.94594,1042.2164 C 454.21781,1053.0634 457.94907,1062.0821 465.13973,1069.2728 C 472.33036,1076.4634 481.34914,1080.1947 492.19609,1080.4666 C 494.25854,1080.4291 496.20855,1080.2791 498.04611,1080.0166 L 510.19616,1078.2166 L 519.19619,1060.2165 C 517.2133,1060.5071 513.27579,1060.9384 507.38365,1061.5102 C 501.49138,1062.0821 496.42887,1062.4009 492.19609,1062.4665 C 487.74852,1062.4103 483.84101,1061.1728 480.47354,1058.754 C 477.10599,1056.3352 474.63849,1053.0727 473.07101,1048.9664 L 473.07101,1048.9664 z M 537.19592,1006.2163 L 555.19599,1078.2166 L 573.19606,1078.2166 L 586.69611,1035.0164 L 600.19617,1078.2166 L 618.19623,1078.2166 L 636.1963,1006.2163 L 618.19623,1006.2163 L 608.1963,1046.2163 L 595.69615,1006.2163 L 577.69608,1006.2163 L 565.19593,1046.2163 L 555.19599,1006.2163 L 537.19592,1006.2163 L 537.19592,1006.2163 z M 696.94612,970.21614 L 687.94609,997.21624 L 714.94619,970.21614 L 696.94612,970.21614 L 696.94612,970.21614 z M 649.69594,1042.2164 C 649.97006,1053.0476 653.70582,1062.0619 660.90323,1069.2593 C 668.10061,1076.4567 677.11489,1080.1924 687.94609,1080.4666 C 698.77719,1080.1924 707.79147,1076.4567 714.98894,1069.2592 C 722.18626,1062.0619 725.92202,1053.0476 726.19623,1042.2164 C 725.92202,1031.3853 722.18626,1022.371 714.98894,1015.1736 C 707.79147,1007.9762 698.77719,1004.2405 687.94609,1003.9663 C 677.11489,1004.2405 668.10061,1007.9762 660.90323,1015.1736 C 653.70582,1022.371 649.97006,1031.3853 649.69594,1042.2164 L 649.69594,1042.2164 z M 667.69601,1042.2164 C 667.84111,1036.4823 669.81886,1031.71 673.62928,1027.8996 C 677.43963,1024.0893 682.2119,1022.1115 687.94609,1021.9663 C 693.68018,1022.1115 698.45244,1024.0893 702.26289,1027.8996 C 706.07321,1031.71 708.05097,1036.4823 708.19617,1042.2164 C 708.05097,1047.9506 706.07322,1052.7229 702.26289,1056.5332 C 698.45244,1060.3436 693.68018,1062.3214 687.94609,1062.4665 C 682.2119,1062.3214 677.43964,1060.3436 673.62928,1056.5332 C 669.81886,1052.7229 667.84111,1047.9506 667.69601,1042.2164 L 667.69601,1042.2164 z M 743.74594,1042.2164 C 744.00843,1052.379 747.53344,1060.854 754.32098,1067.6415 C 761.10848,1074.429 769.5835,1077.954 779.74608,1078.2166 C 783.02804,1078.2071 786.18327,1077.7835 789.21178,1076.9458 C 792.24018,1076.1082 795.08497,1074.9133 797.74615,1073.3612 L 797.74615,1078.2166 L 815.74621,1078.2166 L 815.74621,970.21614 L 797.74615,970.21614 L 797.74615,1011.0716 C 795.08497,1009.5196 792.24018,1008.3247 789.21178,1007.487 C 786.18327,1006.6494 783.02804,1006.2258 779.74608,1006.2163 C 769.5835,1006.4789 761.10848,1010.0039 754.32098,1016.7913 C 747.53344,1023.5789 744.00843,1032.0539 743.74594,1042.2164 L 743.74594,1042.2164 z M 761.74601,1042.2164 C 761.87723,1037.0274 763.63974,1032.7242 767.03353,1029.307 C 770.42726,1025.8898 774.66477,1024.118 779.74608,1023.9913 C 784.8273,1024.118 789.06481,1025.8898 792.45862,1029.307 C 795.85233,1032.7242 797.61483,1037.0274 797.74615,1042.2164 C 797.61483,1047.4055 795.85233,1051.7087 792.45863,1055.1258 C 789.06481,1058.5431 784.8273,1060.3149 779.74608,1060.4415 C 774.66477,1060.3149 770.42725,1058.5431 767.03352,1055.1258 C 763.63973,1051.7087 761.87723,1047.4055 761.74601,1042.2164 L 761.74601,1042.2164 z M 886.95863,1060.2165 L 862.13361,1060.2165 L 886.95863,1014.5413 L 886.95863,1006.2163 L 837.45844,1006.2163 L 837.45844,1024.2163 L 862.20853,1024.2163 L 837.45844,1069.892 L 837.45844,1078.2166 L 886.95863,1078.2166 L 886.95863,1060.2165 L 886.95863,1060.2165 z M 914.07098,988.21621 L 914.07098,1006.2163 L 900.57092,1006.2163 L 900.57092,1024.2163 L 914.07098,1024.2163 L 914.07098,1051.2164 C 914.26446,1058.862 916.90147,1065.225 921.98201,1070.3055 C 927.0625,1075.3861 933.42551,1078.0231 941.07108,1078.2166 L 950.40862,1060.2165 L 941.07108,1060.2165 C 938.52253,1060.152 936.40152,1059.273 934.70806,1057.5795 C 933.01451,1055.886 932.13551,1053.765 932.07104,1051.2164 L 932.07104,1024.2163 L 945.5711,1024.2163 L 945.5711,1006.2163 L 932.07104,1006.2163 L 932.07104,970.21614 L 914.07098,988.21621 L 914.07098,988.21621 z M 959.35217,1006.2163 L 977.35224,1078.2166 L 995.35231,1078.2166 L 1008.8524,1035.0164 L 1022.3524,1078.2166 L 1040.3525,1078.2166 L 1058.3526,1006.2163 L 1040.3525,1006.2163 L 1030.3525,1046.2163 L 1017.8524,1006.2163 L 999.85233,1006.2163 L 987.35218,1046.2163 L 977.35224,1006.2163 L 959.35217,1006.2163 L 959.35217,1006.2163 z M 1071.8522,1042.2164 C 1072.1263,1053.0476 1075.8621,1062.0619 1083.0595,1069.2593 C 1090.2569,1076.4567 1099.2711,1080.1924 1110.1023,1080.4666 C 1120.9334,1080.1924 1129.9477,1076.4567 1137.1452,1069.2592 C 1144.3425,1062.0619 1148.0783,1053.0476 1148.3525,1042.2164 C 1148.0783,1031.3853 1144.3425,1022.371 1137.1452,1015.1736 C 1129.9477,1007.9762 1120.9334,1004.2405 1110.1023,1003.9663 C 1099.2711,1004.2405 1090.2569,1007.9762 1083.0595,1015.1736 C 1075.8621,1022.371 1072.1263,1031.3853 1071.8522,1042.2164 L 1071.8522,1042.2164 z M 1089.8523,1042.2164 C 1089.9974,1036.4823 1091.9751,1031.71 1095.7855,1027.8996 C 1099.5959,1024.0893 1104.3681,1022.1115 1110.1023,1021.9663 C 1115.8364,1022.1115 1120.6087,1024.0893 1124.4191,1027.8996 C 1128.2295,1031.71 1130.2072,1036.4823 1130.3524,1042.2164 C 1130.2072,1047.9506 1128.2295,1052.7229 1124.4191,1056.5332 C 1120.6087,1060.3436 1115.8364,1062.3214 1110.1023,1062.4665 C 1104.3682,1062.3214 1099.5959,1060.3436 1095.7855,1056.5332 C 1091.9751,1052.7229 1089.9974,1047.9506 1089.8523,1042.2164 L 1089.8523,1042.2164 z"
           style="font-size:12px;font-style:normal;font-weight:normal;fill:#ffffff;fill-opacity:1;stroke:none;stroke-width:1px;stroke-linecap:butt;stroke-linejoin:miter;stroke-opacity:1;font-family:Drogowskaz"
           id="text4334" />
        <path
           d="M 468.66796,1134.2263 L 459.66793,1161.2264 L 486.66804,1134.2263 L 468.66796,1134.2263 L 468.66796,1134.2263 z M 470.9236,1237.2879 C 472.96502,1238.4904 474.59208,1240.1081 475.80477,1242.1411 C 477.01734,1244.1742 477.63842,1246.4527 477.668,1248.9767 C 477.57119,1252.7995 476.25269,1255.981 473.71249,1258.5212 C 471.17217,1261.0615 467.99066,1262.38 464.16795,1262.4767 C 458.30929,1262.4687 452.60139,1261.9392 447.04421,1260.8883 C 441.48697,1259.8373 436.12862,1258.3129 430.96914,1256.3151 L 425.2716,1273.411 C 431.32934,1275.7033 437.61306,1277.4518 444.12278,1278.6564 C 450.63245,1279.861 457.31416,1280.4678 464.16795,1280.4768 C 473.08767,1280.2511 480.51119,1277.1746 486.43853,1271.2473 C 492.36573,1265.3201 495.44224,1257.8965 495.66807,1248.9767 C 495.59924,1243.089 494.15099,1237.7735 491.3233,1233.0302 C 488.49546,1228.2869 484.70068,1224.5126 479.93893,1221.7073 L 458.59963,1209.2526 C 456.88637,1208.2451 455.51757,1206.8927 454.49322,1205.1952 C 453.46878,1203.4979 452.94368,1201.5917 452.9179,1199.4765 C 452.99849,1196.2909 454.09724,1193.6397 456.21417,1191.5227 C 458.33101,1189.4059 460.98227,1188.3072 464.16795,1188.2265 C 472.64288,1188.2519 480.77103,1189.3676 488.55242,1191.5733 L 494.26519,1174.4812 C 484.6773,1171.6781 474.6449,1170.2599 464.16795,1170.2264 C 455.88525,1170.4361 448.99198,1173.2929 443.48812,1178.7967 C 437.98421,1184.3007 435.12746,1191.1939 434.91786,1199.4765 C 434.98113,1204.9387 436.32267,1209.8714 438.94246,1214.2745 C 441.56221,1218.6777 445.08046,1222.1806 449.49722,1224.783 L 470.9236,1237.2879 L 470.9236,1237.2879 z M 520.72787,1170.2264 L 520.72787,1278.2268 L 538.72793,1278.2268 L 538.72793,1170.2264 L 520.72787,1170.2264 L 520.72787,1170.2264 z M 578.77792,1242.2267 C 578.90914,1237.0376 580.67165,1232.7345 584.06544,1229.3172 C 587.45916,1225.9001 591.69668,1224.1282 596.77798,1224.0016 C 601.8592,1224.1282 606.09671,1225.9001 609.49053,1229.3172 C 612.88423,1232.7345 614.64674,1237.0376 614.77805,1242.2267 C 614.64674,1247.4158 612.88424,1251.7189 609.49053,1255.1361 C 606.09671,1258.5533 601.8592,1260.3252 596.77798,1260.4517 C 591.69667,1260.3252 587.45916,1258.5533 584.06543,1255.1361 C 580.67164,1251.7189 578.90913,1247.4158 578.77792,1242.2267 L 578.77792,1242.2267 z M 560.77785,1242.2267 C 561.04034,1252.3892 564.56535,1260.8643 571.35288,1267.6518 C 578.14038,1274.4393 586.61541,1277.9643 596.77798,1278.2268 C 600.66637,1278.2111 604.36994,1277.6228 607.88872,1276.4618 C 611.40739,1275.3009 614.64696,1273.6616 617.60744,1271.544 L 619.27807,1278.2268 L 637.27814,1278.2268 L 632.77812,1260.2267 L 632.77812,1206.2265 L 614.77805,1206.2265 L 614.77805,1211.0818 C 612.11687,1209.5298 609.27209,1208.3349 606.24369,1207.4972 C 603.21517,1206.6596 600.05994,1206.2361 596.77798,1206.2265 C 586.61541,1206.4891 578.14039,1210.0141 571.35288,1216.8016 C 564.56535,1223.5891 561.04034,1232.0642 560.77785,1242.2267 L 560.77785,1242.2267 z M 627.9307,1302.6885 C 624.58025,1301.5955 621.86601,1299.6675 619.78797,1296.9047 C 617.7098,1294.1418 616.63975,1290.9158 616.57783,1287.2268 C 616.60867,1283.8455 617.50874,1280.8455 619.27807,1278.2268 C 616.49973,1280.311 614.31304,1282.9016 612.718,1285.9985 C 611.12283,1289.0955 610.30943,1292.5049 610.27781,1296.2269 C 610.31146,1299.9371 611.12891,1303.3418 612.73015,1306.4411 C 614.33127,1309.5403 616.51391,1312.1333 619.27807,1314.2202 L 627.9307,1302.6885 L 627.9307,1302.6885 z M 682.23925,1206.2265 C 676.6517,1206.3532 671.85169,1208.2938 667.8392,1212.0484 C 663.82668,1215.8032 661.72668,1220.6126 661.5392,1226.4766 C 661.722,1231.1829 662.87512,1234.9329 664.99858,1237.7267 C 667.122,1240.5205 669.11888,1242.4705 670.98921,1243.5767 L 685.61427,1252.1267 C 686.64079,1252.708 687.45642,1253.5142 688.06115,1254.5455 C 688.66579,1255.5767 688.97517,1256.7205 688.98928,1257.9767 C 688.94705,1259.9314 688.30017,1261.5346 687.04864,1262.7861 C 685.79703,1264.0377 684.19391,1264.6846 682.23925,1264.7268 C 677.99042,1264.708 673.98202,1264.2956 670.21402,1263.4894 C 666.44598,1262.6832 662.92976,1261.5957 659.66537,1260.227 L 654.71535,1275.302 C 658.68357,1276.9284 663.00825,1278.194 667.68941,1279.0987 C 672.37052,1280.0034 677.22047,1280.4627 682.23925,1280.4768 C 688.5908,1280.3128 693.88768,1278.1096 698.12993,1273.8674 C 702.37208,1269.6252 704.57521,1264.3283 704.73934,1257.9767 C 704.68772,1253.7674 703.66584,1249.9798 701.6737,1246.6142 C 699.68145,1243.2486 697.02832,1240.5861 693.7143,1238.6267 L 679.98924,1230.3016 C 679.30483,1229.9595 678.76108,1229.4626 678.35798,1228.811 C 677.95483,1228.1595 677.74858,1227.3813 677.73924,1226.4766 C 677.77202,1225.2063 678.21264,1224.147 679.06112,1223.2985 C 679.90952,1222.4501 680.9689,1222.0095 682.23925,1221.9766 C 685.01852,1221.986 687.74274,1222.1923 690.41193,1222.5954 C 693.08102,1222.9986 695.55679,1223.5424 697.83923,1224.2268 L 697.83923,1208.027 C 695.74663,1207.4843 693.37633,1207.0505 690.72833,1206.7258 C 688.08024,1206.4012 685.25055,1206.2348 682.23925,1206.2265 L 682.23925,1206.2265 z M 727.16537,1170.2264 L 727.16537,1278.2268 L 745.16543,1278.2268 L 745.16543,1251.3392 L 751.99984,1251.3392 L 772.16554,1278.2268 L 794.66382,1278.2268 L 767.66552,1242.2267 L 794.66382,1206.2281 L 772.16554,1206.2281 L 751.99984,1233.1141 L 745.16543,1233.1141 L 745.16543,1170.2264 L 727.16537,1170.2264 L 727.16537,1170.2264 z M 808.16537,1206.2265 L 808.16537,1278.2268 L 826.16543,1278.2268 L 826.16543,1206.2265 L 808.16537,1206.2265 L 808.16537,1206.2265 z M 808.16537,1170.2264 L 808.16537,1188.2265 L 826.16543,1188.2265 L 826.16543,1170.2264 L 808.16537,1170.2264 L 808.16537,1170.2264 z M 906.04057,1235.4766 L 867.79042,1235.4766 C 869.22008,1231.4689 871.64821,1228.2345 875.07482,1225.7735 C 878.50136,1223.3126 882.44825,1222.047 886.91549,1221.9766 C 891.38265,1222.047 895.32953,1223.3126 898.75616,1225.7735 C 902.18268,1228.2345 904.61081,1231.4689 906.04057,1235.4766 L 906.04057,1235.4766 z M 867.79042,1248.9767 L 918.41561,1248.9767 L 918.41561,1220.6266 C 914.86708,1215.5032 910.37644,1211.4626 904.94368,1208.5047 C 899.51079,1205.5469 893.5014,1204.0375 886.91549,1203.9765 C 876.06854,1204.2485 867.04976,1207.9797 859.85914,1215.1703 C 852.66847,1222.361 848.93721,1231.3798 848.66535,1242.2267 C 848.93721,1253.0736 852.66847,1262.0924 859.85914,1269.283 C 867.04977,1276.4737 876.06854,1280.2049 886.91549,1280.4768 C 888.97795,1280.4393 890.92796,1280.2893 892.76552,1280.0268 L 904.91556,1278.2268 L 913.9156,1260.2267 C 911.93271,1260.5174 907.9952,1260.9486 902.10305,1261.5205 C 896.21079,1262.0924 891.14827,1262.4111 886.91549,1262.4767 C 882.46793,1262.4205 878.56042,1261.183 875.19294,1258.7642 C 871.8254,1256.3455 869.35789,1253.083 867.79042,1248.9767 L 867.79042,1248.9767 z M 480.26586,1413.2266 C 485.32991,1409.7107 489.33903,1405.2305 492.29325,1399.7858 C 495.24731,1394.3412 496.75685,1388.3214 496.82187,1381.7265 C 496.75691,1375.1315 495.24748,1369.1116 492.29359,1363.667 C 489.33954,1358.2226 485.3303,1353.7424 480.26586,1350.2264 L 429.32162,1350.2264 L 429.32162,1458.2268 L 447.32168,1458.2268 L 447.32168,1413.2266 L 480.26586,1413.2266 L 480.26586,1413.2266 z M 473.66051,1395.2266 L 447.32168,1395.2266 L 447.32168,1368.2278 L 473.66051,1368.2278 C 475.27982,1370.0341 476.54126,1372.0837 477.44485,1374.3768 C 478.34832,1376.6701 478.8073,1379.12 478.8218,1381.7265 C 478.80716,1384.3331 478.3479,1386.7831 477.44401,1389.0768 C 476.54,1391.3706 475.27883,1393.4205 473.66051,1395.2266 L 473.66051,1395.2266 z M 505.8216,1422.2267 C 506.09571,1433.0578 509.83148,1442.0721 517.02889,1449.2695 C 524.22627,1456.4669 533.24054,1460.2027 544.07174,1460.4768 C 554.90285,1460.2027 563.91712,1456.4669 571.11459,1449.2695 C 578.31191,1442.0721 582.04768,1433.0578 582.32189,1422.2267 C 582.04768,1411.3955 578.31192,1402.3813 571.11459,1395.1838 C 563.91712,1387.9865 554.90285,1384.2507 544.07174,1383.9765 C 533.24054,1384.2507 524.22627,1387.9865 517.02889,1395.1838 C 509.83147,1402.3813 506.09571,1411.3955 505.8216,1422.2267 L 505.8216,1422.2267 z M 523.82167,1422.2267 C 523.96676,1416.4926 525.94452,1411.7203 529.75494,1407.9099 C 533.56529,1404.0995 538.33755,1402.1218 544.07174,1401.9766 C 549.80584,1402.1218 554.5781,1404.0995 558.38855,1407.9099 C 562.19887,1411.7203 564.17663,1416.4926 564.32182,1422.2267 C 564.17663,1427.9608 562.19887,1432.7331 558.38855,1436.5435 C 554.5781,1440.3539 549.80583,1442.3316 544.07174,1442.4767 C 538.33756,1442.3316 533.56529,1440.3539 529.75494,1436.5435 C 525.94452,1432.7331 523.96676,1427.9608 523.82167,1422.2267 L 523.82167,1422.2267 z M 595.82158,1386.2265 L 613.82165,1458.2268 L 631.82172,1458.2268 L 645.32177,1415.0266 L 658.82182,1458.2268 L 676.82189,1458.2268 L 694.82196,1386.2265 L 676.82189,1386.2265 L 666.82195,1426.2265 L 654.3218,1386.2265 L 636.32174,1386.2265 L 623.82159,1426.2265 L 613.82165,1386.2265 L 595.82158,1386.2265 L 595.82158,1386.2265 z M 712.82162,1386.2265 L 712.82162,1458.2268 L 730.82168,1458.2268 L 730.82168,1386.2265 L 712.82162,1386.2265 L 712.82162,1386.2265 z M 712.82162,1350.2264 L 712.82162,1368.2265 L 730.82168,1368.2265 L 730.82168,1350.2264 L 712.82162,1350.2264 L 712.82162,1350.2264 z M 752.8716,1422.2267 C 753.13409,1432.3892 756.6591,1440.8643 763.44663,1447.6518 C 770.23413,1454.4393 778.70916,1457.9643 788.87173,1458.2268 C 792.76012,1458.2111 796.46369,1457.6228 799.98247,1456.4618 C 803.50114,1455.3009 806.74071,1453.6616 809.70119,1451.544 L 811.37182,1458.2268 L 829.37189,1458.2268 L 824.87187,1440.2267 L 824.87187,1386.2265 L 806.8718,1386.2265 L 806.8718,1391.0818 C 804.21062,1389.5298 801.36584,1388.3349 798.33744,1387.4972 C 795.30892,1386.6596 792.15369,1386.2361 788.87173,1386.2265 C 778.70916,1386.4891 770.23414,1390.0141 763.44663,1396.8016 C 756.6591,1403.5891 753.13409,1412.0642 752.8716,1422.2267 L 752.8716,1422.2267 z M 770.87167,1422.2267 C 771.00289,1417.0376 772.7654,1412.7345 776.15919,1409.3172 C 779.55291,1405.9001 783.79043,1404.1282 788.87173,1404.0016 C 793.95295,1404.1282 798.19046,1405.9001 801.58428,1409.3172 C 804.97798,1412.7345 806.74049,1417.0376 806.8718,1422.2267 C 806.74049,1427.4158 804.97799,1431.7189 801.58428,1435.1361 C 798.19046,1438.5533 793.95295,1440.3252 788.87173,1440.4517 C 783.79042,1440.3252 779.55291,1438.5533 776.15918,1435.1361 C 772.76539,1431.7189 771.00288,1427.4158 770.87167,1422.2267 L 770.87167,1422.2267 z M 856.25913,1368.2265 L 856.25913,1386.2265 L 842.75908,1386.2265 L 842.75908,1404.2266 L 856.25913,1404.2266 L 856.25913,1431.2267 C 856.45262,1438.8723 859.08962,1445.2353 864.17016,1450.3158 C 869.25065,1455.3963 875.61367,1458.0333 883.25924,1458.2268 L 892.59677,1440.2267 L 883.25924,1440.2267 C 880.71069,1440.1623 878.58968,1439.2833 876.89621,1437.5897 C 875.20267,1435.8963 874.32366,1433.7753 874.2592,1431.2267 L 874.2592,1404.2266 L 887.75925,1404.2266 L 887.75925,1386.2265 L 874.2592,1386.2265 L 874.2592,1350.2264 L 856.25913,1368.2265 L 856.25913,1368.2265 z"
           style="font-size:12px;font-style:normal;font-weight:normal;fill:#ffffff;fill-opacity:1;stroke:none;stroke-width:1px;stroke-linecap:butt;stroke-linejoin:miter;stroke-opacity:1;font-family:Drogowskaz"
           id="text5337" />
        <path
           d="M 212.18339,1623.2335 L 203.44188,1607.0239 C 199.98968,1610.2672 196.03729,1612.7978 191.5847,1614.6157 C 187.13196,1616.4337 182.36018,1617.3577 177.26933,1617.3879 C 166.43811,1617.1138 157.42384,1613.378 150.22647,1606.1806 C 143.02904,1598.9832 139.29328,1589.9689 139.01918,1579.1377 C 139.29329,1568.3066 143.02905,1559.2924 150.22648,1552.0949 C 157.42384,1544.8976 166.43811,1541.1618 177.26933,1540.8876 C 182.39889,1540.9186 187.20389,1541.8561 191.68435,1543.7002 C 196.16465,1545.5445 200.13513,1548.11 203.59578,1551.3969 L 212.35304,1535.1771 C 207.51099,1531.3007 202.11922,1528.2912 196.17772,1526.1485 C 190.23606,1524.0061 183.93327,1522.9191 177.26933,1522.8875 C 161.3411,1523.2908 148.08481,1528.7845 137.50043,1539.3688 C 126.916,1549.9533 121.42223,1563.2096 121.01911,1579.1377 C 121.42224,1595.066 126.916,1608.3222 137.50043,1618.9066 C 148.08481,1629.4911 161.3411,1634.9848 177.26933,1635.3879 C 183.8938,1635.3571 190.1619,1634.2824 196.07366,1632.164 C 201.98525,1630.0456 207.35516,1627.0688 212.18339,1623.2335 L 212.18339,1623.2335 z M 279.25057,1615.1379 L 254.42555,1615.1379 L 279.25057,1569.4627 L 279.25057,1561.1377 L 229.75038,1561.1377 L 229.75038,1579.1377 L 254.50047,1579.1377 L 229.75038,1624.8134 L 229.75038,1633.1379 L 279.25057,1633.1379 L 279.25057,1615.1379 L 279.25057,1615.1379 z M 362.16313,1657.663 C 358.83961,1656.5802 356.14897,1654.6396 354.09122,1651.8411 C 352.03334,1649.0427 350.97396,1645.8083 350.91308,1642.138 C 350.91302,1640.4411 351.13802,1638.8286 351.58809,1637.3005 C 352.03802,1635.7723 352.71302,1634.3848 353.6131,1633.1379 C 350.87552,1635.1958 348.70052,1637.7739 347.08807,1640.8723 C 345.4755,1643.9708 344.6505,1647.3927 344.61306,1651.138 C 344.6505,1654.8833 345.47551,1658.3052 347.08807,1661.4037 C 348.70051,1664.5021 350.87552,1667.0802 353.6131,1669.1381 L 362.16313,1657.663 L 362.16313,1657.663 z M 354.7381,1590.3878 L 316.48795,1590.3878 C 317.91761,1586.38 320.34575,1583.1456 323.77235,1580.6846 C 327.19889,1578.2237 331.14578,1576.9581 335.61303,1576.8877 C 340.08018,1576.9581 344.02706,1578.2237 347.4537,1580.6846 C 350.88021,1583.1456 353.30834,1586.38 354.7381,1590.3878 L 354.7381,1590.3878 z M 316.48795,1603.8878 L 367.11315,1603.8878 L 367.11315,1575.5377 C 363.56462,1570.4143 359.07398,1566.3737 353.64122,1563.4158 C 348.20832,1560.458 342.19893,1558.9487 335.61303,1558.8877 C 324.76607,1559.1596 315.74729,1562.8909 308.55667,1570.0814 C 301.36601,1577.2722 297.63475,1586.2909 297.36288,1597.1378 C 297.63475,1607.9847 301.36601,1617.0035 308.55667,1624.1942 C 315.7473,1631.3848 324.76607,1635.1161 335.61303,1635.3879 C 337.67548,1635.3504 339.62549,1635.2004 341.46305,1634.9379 L 353.6131,1633.1379 L 362.61313,1615.1379 C 362.37972,1615.1657 360.44638,1615.3601 356.81311,1615.7212 C 353.17969,1616.0823 349.24635,1616.4434 345.01306,1616.8045 C 340.77966,1617.1657 337.64631,1617.3601 335.61303,1617.3879 C 331.15984,1617.3316 327.24108,1616.0941 323.85673,1613.6754 C 320.47231,1611.2566 318.01605,1607.9941 316.48795,1603.8878 L 316.48795,1603.8878 z M 412.18679,1561.1377 C 406.59923,1561.2643 401.79922,1563.2049 397.78674,1566.9596 C 393.77421,1570.7143 391.67421,1575.5237 391.48673,1581.3877 C 391.66953,1586.0941 392.82266,1589.8441 394.94611,1592.6378 C 397.06953,1595.4316 399.06641,1597.3816 400.93674,1598.4878 L 415.5618,1607.0378 C 416.58832,1607.6191 417.40395,1608.4254 418.00868,1609.4566 C 418.61332,1610.4879 418.9227,1611.6316 418.93681,1612.8879 C 418.89458,1614.8426 418.2477,1616.4457 416.99617,1617.6973 C 415.74457,1618.9488 414.14144,1619.5957 412.18679,1619.6379 C 407.93796,1619.6192 403.92955,1619.2067 400.16156,1618.4005 C 396.39351,1617.5943 392.8773,1616.5069 389.6129,1615.1381 L 384.66288,1630.2132 C 388.6311,1631.8396 392.95579,1633.1051 397.63694,1634.0098 C 402.31806,1634.9145 407.168,1635.3739 412.18679,1635.3879 C 418.53833,1635.2239 423.83522,1633.0208 428.07747,1628.7785 C 432.31961,1624.5364 434.52274,1619.2395 434.68687,1612.8879 C 434.63525,1608.6785 433.61337,1604.891 431.62123,1601.5253 C 429.62899,1598.1597 426.97585,1595.4972 423.66183,1593.5378 L 409.93678,1585.2128 C 409.25236,1584.8706 408.70861,1584.3737 408.30552,1583.7221 C 407.90236,1583.0706 407.69611,1582.2925 407.68677,1581.3877 C 407.71955,1580.1175 408.16018,1579.0581 409.00865,1578.2096 C 409.85706,1577.3612 410.91643,1576.9206 412.18679,1576.8877 C 414.96605,1576.8972 417.69027,1577.1034 420.35946,1577.5065 C 423.02855,1577.9097 425.50432,1578.4535 427.78677,1579.138 L 427.78677,1562.9381 C 425.69416,1562.3954 423.32387,1561.9617 420.67587,1561.6369 C 418.02777,1561.3124 415.19808,1561.1459 412.18679,1561.1377 L 412.18679,1561.1377 z M 461.61292,1543.1376 L 461.61292,1561.1377 L 448.11286,1561.1377 L 448.11286,1579.1377 L 461.61292,1579.1377 L 461.61292,1606.1378 C 461.8064,1613.7834 464.44341,1620.1464 469.52395,1625.2269 C 474.60443,1630.3074 480.96745,1632.9444 488.61302,1633.1379 L 497.95056,1615.1379 L 488.61302,1615.1379 C 486.06447,1615.0734 483.94346,1614.1944 482.24999,1612.5009 C 480.55645,1610.8074 479.67745,1608.6864 479.61298,1606.1378 L 479.61298,1579.1377 L 493.11304,1579.1377 L 493.11304,1561.1377 L 479.61298,1561.1377 L 479.61298,1525.1375 L 461.61292,1543.1376 L 461.61292,1543.1376 z M 511.39413,1597.1378 C 511.66825,1607.969 515.40401,1616.9832 522.60142,1624.1806 C 529.7988,1631.3781 538.81307,1635.1138 549.64428,1635.3879 C 560.47538,1635.1138 569.48966,1631.3781 576.68713,1624.1806 C 583.88445,1616.9832 587.62021,1607.969 587.89442,1597.1378 C 587.62021,1586.3067 583.88445,1577.2924 576.68713,1570.0949 C 569.48966,1562.8976 560.47538,1559.1619 549.64428,1558.8877 C 538.81307,1559.1619 529.7988,1562.8976 522.60142,1570.0949 C 515.404,1577.2924 511.66824,1586.3067 511.39413,1597.1378 L 511.39413,1597.1378 z M 529.3942,1597.1378 C 529.5393,1591.4037 531.51705,1586.6314 535.32747,1582.821 C 539.13782,1579.0107 543.91009,1577.0329 549.64428,1576.8877 C 555.37837,1577.0329 560.15063,1579.0107 563.96108,1582.821 C 567.7714,1586.6314 569.74916,1591.4037 569.89435,1597.1378 C 569.74916,1602.872 567.7714,1607.6442 563.96108,1611.4546 C 560.15063,1615.265 555.37837,1617.2428 549.64428,1617.3879 C 543.91009,1617.2428 539.13783,1615.265 535.32747,1611.4546 C 531.51705,1607.6442 529.53929,1602.872 529.3942,1597.1378 L 529.3942,1597.1378 z M 667.84519,1626.9992 L 659.44456,1610.193 C 657.5684,1612.4218 655.30025,1614.1721 652.64008,1615.4439 C 649.97981,1616.7157 647.07287,1617.3637 643.91928,1617.3879 C 638.15359,1617.2473 633.37232,1615.2785 629.57547,1611.4816 C 625.77855,1607.6847 623.80979,1602.9035 623.6692,1597.1378 C 623.8098,1591.3722 625.77855,1586.5909 629.57547,1582.794 C 633.37232,1578.9972 638.15359,1577.0284 643.91928,1576.8877 C 646.82225,1576.9067 649.52055,1577.4603 652.01419,1578.5485 C 654.50771,1579.6367 656.68277,1581.1459 658.53938,1583.0759 L 665.54613,1565.57 C 662.45688,1563.4468 659.08773,1561.806 655.43867,1560.6475 C 651.78949,1559.4892 647.9497,1558.9026 643.91928,1558.8877 C 633.07232,1559.1596 624.05354,1562.8909 616.86292,1570.0814 C 609.67225,1577.2722 605.941,1586.2909 605.66913,1597.1378 C 605.941,1607.9847 609.67226,1617.0035 616.86292,1624.1941 C 624.05355,1631.3848 633.07232,1635.1161 643.91928,1635.3879 C 648.47088,1635.3666 652.7726,1634.6248 656.82445,1633.1625 C 660.87618,1631.7003 664.54975,1629.6459 667.84519,1626.9992 L 667.84519,1626.9992 z M 688.8629,1525.1375 L 688.8629,1633.1379 L 706.86297,1633.1379 L 706.86297,1592.6378 C 706.96054,1588.8143 708.27941,1585.6325 710.81957,1583.0926 C 713.35967,1580.5527 716.54081,1579.2344 720.36302,1579.1377 C 724.18573,1579.2345 727.36724,1580.553 729.90755,1583.0932 C 732.44776,1585.6336 733.76626,1588.8151 733.86307,1592.6378 L 733.86307,1633.1379 L 751.86314,1633.1379 L 751.86314,1588.1378 C 751.6618,1580.4923 749.00926,1574.1293 743.90553,1569.0487 C 738.80166,1563.9682 732.45417,1561.3312 724.86304,1561.1377 C 721.37911,1561.1577 718.10753,1561.7822 715.04827,1563.0114 C 711.98894,1564.2407 709.2605,1565.9551 706.86297,1568.1545 L 706.86297,1525.1375 L 688.8629,1525.1375 L 688.8629,1525.1375 z M 774.36288,1597.1378 C 774.637,1607.969 778.37276,1616.9832 785.57017,1624.1806 C 792.76755,1631.3781 801.78182,1635.1138 812.61303,1635.3879 C 823.44413,1635.1138 832.45841,1631.3781 839.65588,1624.1806 C 846.8532,1616.9832 850.58896,1607.969 850.86317,1597.1378 C 850.58896,1586.3067 846.8532,1577.2924 839.65588,1570.0949 C 832.45841,1562.8976 823.44413,1559.1619 812.61303,1558.8877 C 801.78182,1559.1619 792.76755,1562.8976 785.57017,1570.0949 C 778.37275,1577.2924 774.63699,1586.3067 774.36288,1597.1378 L 774.36288,1597.1378 z M 792.36295,1597.1378 C 792.50805,1591.4037 794.4858,1586.6314 798.29622,1582.821 C 802.10657,1579.0107 806.87884,1577.0329 812.61303,1576.8877 C 818.34712,1577.0329 823.11938,1579.0107 826.92983,1582.821 C 830.74015,1586.6314 832.71791,1591.4037 832.8631,1597.1378 C 832.71791,1602.872 830.74015,1607.6442 826.92983,1611.4546 C 823.11938,1615.265 818.34712,1617.2428 812.61303,1617.3879 C 806.87884,1617.2428 802.10658,1615.265 798.29622,1611.4546 C 794.4858,1607.6442 792.50804,1602.872 792.36295,1597.1378 L 792.36295,1597.1378 z M 864.36286,1561.1377 L 882.36293,1633.1379 L 900.363,1633.1379 L 913.86305,1589.9378 L 927.3631,1633.1379 L 945.36317,1633.1379 L 963.36324,1561.1377 L 945.36317,1561.1377 L 935.36324,1601.1376 L 922.86309,1561.1377 L 904.86302,1561.1377 L 892.36287,1601.1376 L 882.36293,1561.1377 L 864.36286,1561.1377 L 864.36286,1561.1377 z M 1003.9368,1561.1377 C 998.34923,1561.2643 993.54922,1563.2049 989.53674,1566.9596 C 985.52421,1570.7143 983.42421,1575.5237 983.23673,1581.3877 C 983.41953,1586.0941 984.57266,1589.8441 986.69611,1592.6378 C 988.81953,1595.4316 990.81641,1597.3816 992.68674,1598.4878 L 1007.3118,1607.0378 C 1008.3383,1607.6191 1009.154,1608.4254 1009.7587,1609.4566 C 1010.3633,1610.4879 1010.6727,1611.6316 1010.6868,1612.8879 C 1010.6446,1614.8426 1009.9977,1616.4457 1008.7462,1617.6973 C 1007.4946,1618.9488 1005.8914,1619.5957 1003.9368,1619.6379 C 999.68796,1619.6192 995.67955,1619.2067 991.91156,1618.4005 C 988.14351,1617.5943 984.6273,1616.5069 981.3629,1615.1381 L 976.41288,1630.2132 C 980.3811,1631.8396 984.70579,1633.1051 989.38694,1634.0098 C 994.06806,1634.9145 998.918,1635.3739 1003.9368,1635.3879 C 1010.2883,1635.2239 1015.5852,1633.0208 1019.8275,1628.7785 C 1024.0696,1624.5364 1026.2727,1619.2395 1026.4369,1612.8879 C 1026.3853,1608.6785 1025.3634,1604.891 1023.3712,1601.5253 C 1021.379,1598.1597 1018.7259,1595.4972 1015.4118,1593.5378 L 1001.6868,1585.2128 C 1001.0024,1584.8706 1000.4586,1584.3737 1000.0555,1583.7221 C 999.65236,1583.0706 999.44611,1582.2925 999.43677,1581.3877 C 999.46955,1580.1175 999.91018,1579.0581 1000.7586,1578.2096 C 1001.6071,1577.3612 1002.6664,1576.9206 1003.9368,1576.8877 C 1006.7161,1576.8972 1009.4403,1577.1034 1012.1095,1577.5065 C 1014.7786,1577.9097 1017.2543,1578.4535 1019.5368,1579.138 L 1019.5368,1562.9381 C 1017.4442,1562.3954 1015.0739,1561.9617 1012.4259,1561.6369 C 1009.7778,1561.3124 1006.9481,1561.1459 1003.9368,1561.1377 L 1003.9368,1561.1377 z M 1048.8629,1525.1375 L 1048.8629,1633.1379 L 1066.863,1633.1379 L 1066.863,1606.2503 L 1073.6974,1606.2503 L 1093.8631,1633.1379 L 1116.3614,1633.1379 L 1089.3631,1597.1378 L 1116.3614,1561.1392 L 1093.8631,1561.1392 L 1073.6974,1588.0253 L 1066.863,1588.0253 L 1066.863,1525.1375 L 1048.8629,1525.1375 L 1048.8629,1525.1375 z M 1129.8629,1561.1377 L 1129.8629,1633.1379 L 1147.863,1633.1379 L 1147.863,1561.1377 L 1129.8629,1561.1377 L 1129.8629,1561.1377 z M 1129.8629,1525.1375 L 1129.8629,1543.1376 L 1147.863,1543.1376 L 1147.863,1525.1375 L 1129.8629,1525.1375 L 1129.8629,1525.1375 z"
           style="font-size:144px;font-style:normal;font-weight:normal;fill:#ffffff;fill-opacity:1;stroke:none;stroke-width:1px;stroke-linecap:butt;stroke-linejoin:miter;stroke-opacity:1;font-family:Drogowskaz"
           id="text6342" />
        <path
           d="M 522.26948,1792.8879 L 522.26948,1750.1377 L 477.26931,1750.1377 L 477.26931,1768.1378 L 504.26941,1768.1378 L 504.26941,1786.2501 C 500.77848,1789.7268 496.73248,1792.4438 492.13142,1794.4012 C 487.53021,1796.3586 482.57618,1797.3542 477.26931,1797.3879 C 466.42234,1797.116 457.40356,1793.3848 450.21295,1786.1941 C 443.02227,1779.0035 439.29101,1769.9847 439.01916,1759.1377 C 439.29101,1748.2909 443.02227,1739.2721 450.21295,1732.0814 C 457.40356,1724.8908 466.42234,1721.1596 477.26931,1720.8876 C 482.88115,1720.9275 488.09262,1722.0348 492.90374,1724.2097 C 497.71471,1726.3848 501.88674,1729.3887 505.41984,1733.2215 L 514.9313,1717.3675 C 509.90373,1712.8271 504.19017,1709.2889 497.79059,1706.7528 C 491.39085,1704.2169 484.55043,1702.9285 477.26931,1702.8875 C 461.34108,1703.2908 448.08479,1708.7845 437.5004,1719.3688 C 426.91597,1729.9533 421.42221,1743.2096 421.01909,1759.1377 C 421.42221,1775.066 426.91598,1788.3222 437.5004,1798.9066 C 448.08479,1809.4911 461.34108,1814.9848 477.26931,1815.3879 C 487.29876,1815.2222 496.1734,1813.0158 503.89324,1808.7687 C 511.6129,1804.5216 517.7383,1799.228 522.26948,1792.8879 L 522.26948,1792.8879 z M 549.26912,1741.1377 L 549.26912,1813.1379 L 567.26919,1813.1379 L 567.26919,1770.3878 C 567.34979,1767.2022 568.44854,1764.5509 570.56545,1762.434 C 572.6823,1760.3172 575.33356,1759.2184 578.51924,1759.1377 C 581.70483,1759.2184 584.35608,1760.3172 586.47301,1762.434 C 588.58984,1764.5509 589.6886,1767.2022 589.76928,1770.3878 L 589.76928,1813.1379 L 607.76935,1813.1379 L 607.76935,1770.3878 C 607.8499,1767.2022 608.94866,1764.5509 611.06561,1762.434 C 613.18241,1760.3172 615.83367,1759.2184 619.01939,1759.1377 C 622.20494,1759.2184 624.8562,1760.3172 626.97317,1762.434 C 629.08996,1764.5509 630.18871,1767.2022 630.26943,1770.3878 L 630.26943,1813.1379 L 648.2695,1813.1379 L 648.2695,1768.1378 C 648.07589,1760.4923 645.43888,1754.1293 640.35847,1749.0487 C 635.27785,1743.9682 628.91483,1741.3312 621.2694,1741.1377 C 617.54904,1741.1614 614.07233,1741.8583 610.83928,1743.2284 C 607.60608,1744.5986 604.75832,1746.5004 602.29598,1748.9337 C 600.20606,1746.5204 597.70251,1744.6243 594.78534,1743.2455 C 591.86804,1741.8668 588.69602,1741.1642 585.26926,1741.1377 C 581.55692,1741.1713 578.15048,1741.9886 575.04992,1743.5896 C 571.94928,1745.1907 569.35571,1747.3744 567.26919,1750.1406 L 567.26919,1741.1377 L 549.26912,1741.1377 L 549.26912,1741.1377 z M 675.26912,1741.1377 L 675.26912,1813.1379 L 693.26919,1813.1379 L 693.26919,1741.1377 L 675.26912,1741.1377 L 675.26912,1741.1377 z M 675.26912,1705.1375 L 675.26912,1723.1376 L 693.26919,1723.1376 L 693.26919,1705.1375 L 675.26912,1705.1375 L 675.26912,1705.1375 z M 720.26912,1741.1377 L 720.26912,1813.1379 L 738.26919,1813.1379 L 738.26919,1772.6378 C 738.36677,1768.8143 739.68564,1765.6325 742.2258,1763.0926 C 744.7659,1760.5527 747.94704,1759.2344 751.76925,1759.1377 C 755.59196,1759.2345 758.77347,1760.553 761.31378,1763.0932 C 763.85398,1765.6336 765.17249,1768.8151 765.2693,1772.6378 L 765.2693,1813.1379 L 783.26937,1813.1379 L 783.26937,1768.1378 C 783.06802,1760.4923 780.41549,1754.1293 775.31176,1749.0487 C 770.20789,1743.9682 763.86039,1741.3312 756.26926,1741.1377 C 752.78534,1741.1577 749.51376,1741.7822 746.4545,1743.0114 C 743.39516,1744.2407 740.66673,1745.9551 738.26919,1748.1545 L 738.26919,1741.1377 L 720.26912,1741.1377 L 720.26912,1741.1377 z M 805.31911,1777.1378 C 805.5816,1787.3004 809.10661,1795.7754 815.89414,1802.5629 C 822.68164,1809.3504 831.15667,1812.8754 841.31924,1813.1379 C 845.20763,1813.1222 848.9112,1812.5339 852.42998,1811.373 C 855.94865,1810.2121 859.18822,1808.5728 862.1487,1806.4551 L 863.81933,1813.1379 L 881.8194,1813.1379 L 877.31938,1795.1379 L 877.31938,1741.1377 L 859.31931,1741.1377 L 859.31931,1745.993 C 856.65813,1744.4409 853.81335,1743.2461 850.78495,1742.4084 C 847.75643,1741.5708 844.6012,1741.1472 841.31924,1741.1377 C 831.15667,1741.4002 822.68164,1744.9252 815.89414,1751.7127 C 809.10661,1758.5003 805.5816,1766.9753 805.31911,1777.1378 L 805.31911,1777.1378 z M 823.31917,1777.1378 C 823.4504,1771.9488 825.21291,1767.6456 828.6067,1764.2284 C 832.00042,1760.8112 836.23794,1759.0393 841.31924,1758.9127 C 846.40046,1759.0393 850.63797,1760.8112 854.03179,1764.2284 C 857.42549,1767.6456 859.188,1771.9488 859.31931,1777.1378 C 859.188,1782.3269 857.4255,1786.6301 854.03179,1790.0472 C 850.63797,1793.4644 846.40046,1795.2363 841.31924,1795.3629 C 836.23793,1795.2363 832.00042,1793.4644 828.60669,1790.0472 C 825.2129,1786.6301 823.45039,1782.3269 823.31917,1777.1378 L 823.31917,1777.1378 z"
           style="font-size:144px;font-style:normal;font-weight:normal;fill:#ffffff;fill-opacity:1;stroke:none;stroke-width:1px;stroke-linecap:butt;stroke-linejoin:miter;stroke-opacity:1;font-family:Drogowskaz"
           id="text6371" />
        <path
           d="M 355.73344,1873.709 L 355.73344,1981.7094 L 373.73351,1981.7094 L 373.73351,1945.6177 L 382.51034,1935.5998 L 414.75724,1981.7094 L 436.73375,1981.7094 L 394.72474,1921.6583 L 436.73375,1873.709 L 412.81279,1873.709 L 373.73351,1918.3028 L 373.73351,1873.709 L 355.73344,1873.709 L 355.73344,1873.709 z M 451.07719,1909.7091 L 451.07719,1981.7094 L 469.07726,1981.7094 L 469.07726,1934.5897 C 471.48549,1932.4314 474.21859,1930.7499 477.27657,1929.5452 C 480.33448,1928.3406 483.6014,1927.7286 487.07733,1927.7092 L 487.07733,1909.7091 C 480.62771,1909.7548 474.6277,1911.031 469.07726,1913.5378 L 469.07726,1909.7091 L 451.07719,1909.7091 L 451.07719,1909.7091 z M 501.92718,1909.7091 L 501.92718,1952.4593 C 502.15292,1961.3791 505.22943,1968.8027 511.15672,1974.7299 C 517.08397,1980.6572 524.50749,1983.7337 533.4273,1983.9594 C 542.34703,1983.7337 549.77055,1980.6572 555.69788,1974.7299 C 561.62509,1968.8027 564.7016,1961.3791 564.92742,1952.4593 L 564.92742,1909.7091 L 546.92735,1909.7091 L 546.92735,1952.4593 C 546.82886,1956.2703 545.50698,1959.4484 542.96171,1961.9937 C 540.41634,1964.5391 537.23821,1965.8609 533.4273,1965.9594 C 529.61631,1965.8609 526.43817,1964.5391 523.89289,1961.9937 C 521.34754,1959.4484 520.02566,1956.2703 519.92725,1952.4593 L 519.92725,1909.7091 L 501.92718,1909.7091 L 501.92718,1909.7091 z M 611.46358,1909.7091 C 605.87603,1909.8358 601.07602,1911.7764 597.06353,1915.531 C 593.05101,1919.2858 590.951,1924.0952 590.76352,1929.9592 C 590.94632,1934.6655 592.09945,1938.4155 594.22291,1941.2093 C 596.34633,1944.0031 598.3432,1945.9531 600.21354,1947.0593 L 614.83859,1955.6093 C 615.86512,1956.1906 616.68075,1956.9969 617.28547,1958.0281 C 617.89012,1959.0594 618.1995,1960.2031 618.21361,1961.4593 C 618.17137,1963.4141 617.5245,1965.0172 616.27297,1966.2687 C 615.02136,1967.5203 613.41823,1968.1672 611.46358,1968.2094 C 607.21475,1968.1906 603.20635,1967.7782 599.43835,1966.972 C 595.67031,1966.1658 592.15409,1965.0783 588.88969,1963.7096 L 583.93967,1978.7846 C 587.9079,1980.4111 592.23258,1981.6766 596.91374,1982.5813 C 601.59485,1983.486 606.44479,1983.9454 611.46358,1983.9594 C 617.81512,1983.7954 623.11201,1981.5922 627.35426,1977.35 C 631.59641,1973.1078 633.79954,1967.8109 633.96367,1961.4593 C 633.91205,1957.25 632.89017,1953.4625 630.89803,1950.0968 C 628.90578,1946.7312 626.25265,1944.0687 622.93862,1942.1093 L 609.21357,1933.7842 C 608.52916,1933.4421 607.9854,1932.9452 607.58231,1932.2936 C 607.17915,1931.6421 606.9729,1930.864 606.96356,1929.9592 C 606.99634,1928.689 607.43697,1927.6296 608.28544,1926.7811 C 609.13385,1925.9327 610.19323,1925.4921 611.46358,1925.4592 C 614.24285,1925.4686 616.96707,1925.6749 619.63625,1926.078 C 622.30535,1926.4812 624.78112,1927.025 627.06356,1927.7094 L 627.06356,1911.5096 C 624.97096,1910.9669 622.60066,1910.5332 619.95266,1910.2084 C 617.30457,1909.8838 614.47488,1909.7174 611.46358,1909.7091 L 611.46358,1909.7091 z M 700.71486,1963.7094 L 675.88985,1963.7094 L 700.71486,1918.0342 L 700.71486,1909.7091 L 651.21467,1909.7091 L 651.21467,1927.7092 L 675.96477,1927.7092 L 651.21467,1973.3848 L 651.21467,1981.7094 L 700.71486,1981.7094 L 700.71486,1963.7094 L 700.71486,1963.7094 z M 714.32716,1909.7091 L 736.82724,1981.7094 L 725.5772,2017.7096 L 743.57727,2017.7096 L 777.3274,1909.7091 L 759.32733,1909.7091 L 745.82728,1952.9093 L 732.32723,1909.7091 L 714.32716,1909.7091 L 714.32716,1909.7091 z M 795.32719,1909.7091 L 795.32719,1981.7094 L 813.32726,1981.7094 L 813.32726,1941.2093 C 813.42484,1937.3858 814.7437,1934.204 817.28387,1931.6641 C 819.82396,1929.1242 823.00511,1927.8059 826.82731,1927.7092 C 830.65003,1927.806 833.83154,1929.1245 836.37185,1931.6647 C 838.91205,1934.205 840.23056,1937.3865 840.32736,1941.2093 L 840.32736,1981.7094 L 858.32743,1981.7094 L 858.32743,1936.7093 C 858.12609,1929.0638 855.47356,1922.7008 850.36983,1917.6202 C 845.26595,1912.5397 838.91846,1909.9027 831.32733,1909.7091 C 827.84341,1909.7291 824.57182,1910.3537 821.51257,1911.5829 C 818.45323,1912.8122 815.7248,1914.5266 813.32726,1916.726 L 813.32726,1909.7091 L 795.32719,1909.7091 L 795.32719,1909.7091 z M 880.37717,1945.7093 C 880.63967,1955.8719 884.16468,1964.3469 890.95221,1971.1344 C 897.73971,1977.9219 906.21473,1981.4469 916.37731,1981.7094 C 920.2657,1981.6937 923.96927,1981.1054 927.48805,1979.9445 C 931.00672,1978.7835 934.24629,1977.1443 937.20677,1975.0266 L 938.8774,1981.7094 L 956.87747,1981.7094 L 952.37745,1963.7094 L 952.37745,1909.7091 L 934.37738,1909.7091 L 934.37738,1914.5644 C 931.7162,1913.0124 928.87142,1911.8176 925.84301,1910.9798 C 922.8145,1910.1423 919.65927,1909.7187 916.37731,1909.7091 C 906.21474,1909.9717 897.73971,1913.4967 890.95221,1920.2842 C 884.16467,1927.0718 880.63966,1935.5468 880.37717,1945.7093 L 880.37717,1945.7093 z M 898.37724,1945.7093 C 898.50847,1940.5202 900.27097,1936.2171 903.66477,1932.7999 C 907.05849,1929.3827 911.296,1927.6108 916.37731,1927.4842 C 921.45853,1927.6108 925.69604,1929.3827 929.08986,1932.7999 C 932.48356,1936.2171 934.24607,1940.5202 934.37738,1945.7093 C 934.24607,1950.8984 932.48356,1955.2015 929.08986,1958.6187 C 925.69604,1962.0359 921.45853,1963.8078 916.37731,1963.9344 C 911.296,1963.8078 907.05849,1962.0359 903.66476,1958.6187 C 900.27097,1955.2015 898.50846,1950.8984 898.37724,1945.7093 L 898.37724,1945.7093 z"
           style="font-size:144px;font-style:normal;font-weight:normal;fill:#ffffff;fill-opacity:1;stroke:none;stroke-width:1px;stroke-linecap:butt;stroke-linejoin:miter;stroke-opacity:1;font-family:Drogowskaz"
           id="text6385" />
      </g>
    </g>
  </g>
</svg>
