<?xml version="1.0" encoding="UTF-8" standalone="no"?>
<!-- Created with Inkscape (http://www.inkscape.org/) -->

<svg
   xmlns:dc="http://purl.org/dc/elements/1.1/"
   xmlns:cc="http://creativecommons.org/ns#"
   xmlns:rdf="http://www.w3.org/1999/02/22-rdf-syntax-ns#"
   xmlns:svg="http://www.w3.org/2000/svg"
   xmlns="http://www.w3.org/2000/svg"
   xmlns:sodipodi="http://sodipodi.sourceforge.net/DTD/sodipodi-0.dtd"
   xmlns:inkscape="http://www.inkscape.org/namespaces/inkscape"
   width="399.99997"
   height="400"
   id="svg2"
   sodipodi:version="0.32"
   inkscape:version="0.48.2 r9819"
   version="1.0"
   sodipodi:docname="AJAX.svg"
   inkscape:output_extension="org.inkscape.output.svg.inkscape">
  <defs
     id="defs4">
    <inkscape:perspective
       sodipodi:type="inkscape:persp3d"
       inkscape:vp_x="0 : 526.18109 : 1"
       inkscape:vp_y="0 : 1000 : 0"
       inkscape:vp_z="744.09448 : 526.18109 : 1"
       inkscape:persp3d-origin="372.04724 : 350.78739 : 1"
       id="perspective10" />
    <inkscape:perspective
       id="perspective2390"
       inkscape:persp3d-origin="372.04724 : 350.78739 : 1"
       inkscape:vp_z="744.09448 : 526.18109 : 1"
       inkscape:vp_y="0 : 1000 : 0"
       inkscape:vp_x="0 : 526.18109 : 1"
       sodipodi:type="inkscape:persp3d" />
    <inkscape:perspective
       id="perspective3192"
       inkscape:persp3d-origin="250 : 166.66667 : 1"
       inkscape:vp_z="500 : 250 : 1"
       inkscape:vp_y="0 : 1000 : 0"
       inkscape:vp_x="0 : 250 : 1"
       sodipodi:type="inkscape:persp3d" />
  </defs>
  <sodipodi:namedview
     id="base"
     pagecolor="#ffffff"
     bordercolor="#666666"
     borderopacity="1.0"
     gridtolerance="10000"
     guidetolerance="10"
     objecttolerance="10"
     inkscape:pageopacity="0.0"
     inkscape:pageshadow="2"
     inkscape:zoom="0.49497475"
     inkscape:cx="-271.67932"
     inkscape:cy="152.32531"
     inkscape:document-units="px"
     inkscape:current-layer="layer1"
     showgrid="false"
     inkscape:window-width="1280"
     inkscape:window-height="844"
     inkscape:window-x="-4"
     inkscape:window-y="-4"
     inkscape:window-maximized="0" />
  <metadata
     id="metadata7">
    <rdf:RDF>
      <cc:Work
         rdf:about="">
        <dc:format>image/svg+xml</dc:format>
        <dc:type
           rdf:resource="http://purl.org/dc/dcmitype/StillImage" />
      </cc:Work>
    </rdf:RDF>
  </metadata>
  <g
     inkscape:label="Layer 1"
     inkscape:groupmode="layer"
     id="layer1"
     transform="translate(-523.44643,133.94139)">
    <rect
       style="opacity:1;fill:#ffffff;fill-opacity:1;stroke:#000000;stroke-width:9.99984741;stroke-miterlimit:4;stroke-dasharray:none;stroke-opacity:1"
       id="rect2396"
       width="390.00012"
       height="390.00015"
       x="528.44635"
       y="-128.94147"
       rx="0"
       ry="0" />
    <g
       id="g3195"
       inkscape:label="Layer 1"
       transform="matrix(-1,0,0,1,1836.473,138.08302)">
      <g
         transform="matrix(-0.3045984,0,0,0.3045984,1265.3258,-266.17932)"
         inkscape:label="Layer 1"
         id="g1362">
        <g
           id="g2204">
          <g
             style="fill:#000000;fill-opacity:1;stroke:none;stroke-opacity:1"
             id="kolo-przod">
            <path
               style="opacity:1;fill:#000000;fill-opacity:1;fill-rule:nonzero;stroke:none;stroke-width:2;stroke-linecap:butt;stroke-linejoin:round;stroke-miterlimit:4;stroke-dasharray:none;stroke-dashoffset:0;stroke-opacity:1"
               d="M 235.40625,400 C 146.67242,401.12523 75,473.50078 75,562.5 C 75,652.2 147.8,725 237.5,725 C 327.2,725 400,652.2 400,562.5 C 400,472.8 327.2,400 237.5,400 C 236.79922,400 236.10494,399.99114 235.40625,400 z M 235.71875,425 C 236.30995,424.9925 236.90703,425 237.5,425 C 313.4,425 375,486.6 375,562.5 C 375,638.4 313.4,700 237.5,700 C 161.6,700 100,638.4 100,562.5 C 100,487.19297 160.63628,425.95212 235.71875,425 z"
               id="opona" />
            <path
               sodipodi:type="arc"
               style="opacity:1;fill:#000000;fill-opacity:1;fill-rule:nonzero;stroke:none;stroke-width:2;stroke-linecap:butt;stroke-linejoin:round;stroke-miterlimit:4;stroke-dasharray:none;stroke-dashoffset:0;stroke-opacity:1"
               id="piasta"
               sodipodi:cx="237.5"
               sodipodi:cy="562.5"
               sodipodi:rx="25"
               sodipodi:ry="25"
               d="m 262.5,562.5 c 0,13.80712 -11.19288,25 -25,25 -13.80712,0 -25,-11.19288 -25,-25 0,-13.80712 11.19288,-25 25,-25 13.80712,0 25,11.19288 25,25 z" />
          </g>
          <g
             style="fill:#000000;fill-opacity:1;stroke:none"
             transform="translate(525,0)"
             id="kolo-tyl">
            <path
               style="opacity:1;fill:#000000;fill-opacity:1;fill-rule:nonzero;stroke:none;stroke-width:2;stroke-linecap:butt;stroke-linejoin:round;stroke-miterlimit:4;stroke-dasharray:none;stroke-dashoffset:0;stroke-opacity:1"
               d="M 235.40625,400 C 146.67242,401.12523 75,473.50078 75,562.5 C 75,652.2 147.8,725 237.5,725 C 327.2,725 400,652.2 400,562.5 C 400,472.8 327.2,400 237.5,400 C 236.79922,400 236.10494,399.99114 235.40625,400 z M 235.71875,425 C 236.30995,424.9925 236.90703,425 237.5,425 C 313.4,425 375,486.6 375,562.5 C 375,638.4 313.4,700 237.5,700 C 161.6,700 100,638.4 100,562.5 C 100,487.19297 160.63628,425.95212 235.71875,425 z"
               id="path1324" />
            <path
               sodipodi:type="arc"
               style="opacity:1;fill:#000000;fill-opacity:1;fill-rule:nonzero;stroke:none;stroke-width:2;stroke-linecap:butt;stroke-linejoin:round;stroke-miterlimit:4;stroke-dasharray:none;stroke-dashoffset:0;stroke-opacity:1"
               id="path1326"
               sodipodi:cx="237.5"
               sodipodi:cy="562.5"
               sodipodi:rx="25"
               sodipodi:ry="25"
               d="m 262.5,562.5 c 0,13.80712 -11.19288,25 -25,25 -13.80712,0 -25,-11.19288 -25,-25 0,-13.80712 11.19288,-25 25,-25 13.80712,0 25,11.19288 25,25 z" />
          </g>
          <path
             id="wzdlozlancucha"
             d="M 537.5,562.5 L 762.5,562.5"
             style="fill:none;fill-opacity:1;fill-rule:evenodd;stroke:#000000;stroke-width:25;stroke-linecap:butt;stroke-linejoin:miter;stroke-miterlimit:4;stroke-dasharray:none;stroke-opacity:1" />
          <path
             id="ukos-damka"
             d="M 537.5,562.5 L 296,360"
             style="fill:none;fill-opacity:0.75;fill-rule:evenodd;stroke:#000000;stroke-width:25;stroke-linecap:butt;stroke-linejoin:miter;stroke-miterlimit:4;stroke-dasharray:none;stroke-opacity:1" />
          <path
             id="slupek-siodelko"
             d="M 537.5,562.5 L 637.5,250"
             style="fill:none;fill-opacity:0.75;fill-rule:evenodd;stroke:#000000;stroke-width:25;stroke-linecap:butt;stroke-linejoin:miter;stroke-miterlimit:4;stroke-dasharray:none;stroke-opacity:1" />
          <path
             id="poprzeczka"
             d="M 300,312.5 L 610,312.5 L 762.5,562.5"
             style="fill:none;fill-opacity:0.75;fill-rule:evenodd;stroke:#000000;stroke-width:25;stroke-linecap:butt;stroke-linejoin:miter;stroke-miterlimit:4;stroke-dasharray:none;stroke-opacity:1" />
          <path
             sodipodi:nodetypes="cssc"
             id="kierownica"
             d="M 237.5,562.5 C 237.5,562.5 328.37525,244.07866 330,240 C 336.88841,222.70781 339.17087,216.86 360,212.5 C 363.04271,211.86309 400,212.5 400,212.5"
             style="fill:none;fill-opacity:0.75;fill-rule:evenodd;stroke:#000000;stroke-width:25;stroke-linecap:butt;stroke-linejoin:miter;stroke-miterlimit:4;stroke-dasharray:none;stroke-opacity:1" />
          <path
             d="m 587.5,562.5 c 0,27.61424 -22.38576,50 -50,50 -27.61424,0 -50,-22.38576 -50,-50 0,-27.61424 22.38576,-50 50,-50 27.61424,0 50,22.38576 50,50 z"
             sodipodi:ry="50"
             sodipodi:rx="50"
             sodipodi:cy="562.5"
             sodipodi:cx="537.5"
             id="kolo=pedalowe"
             style="fill:#000000;fill-opacity:1;fill-rule:nonzero;stroke:none;stroke-width:25;stroke-linecap:butt;stroke-linejoin:round;stroke-miterlimit:4;stroke-dasharray:none;stroke-dashoffset:0;stroke-opacity:1"
             sodipodi:type="arc" />
          <path
             sodipodi:nodetypes="ccczsc"
             id="siodelko"
             d="M 625,275 L 700,275 L 700,225 C 700,225 550.27802,223.60684 537.5,225 C 525.64092,226.29297 530.1687,247.8408 537.5,250 C 662.33056,286.76492 625,275 625,275 z"
             style="fill:#000000;fill-opacity:1;fill-rule:evenodd;stroke:none;stroke-width:1px;stroke-linecap:butt;stroke-linejoin:miter;stroke-opacity:1" />
        </g>
      </g>
    </g>
    <path
       sodipodi:type="arc"
       style="opacity:1;fill:#d40000;fill-opacity:1;stroke:none;stroke-width:10;stroke-miterlimit:4;stroke-dasharray:none;stroke-opacity:1"
       id="path3234"
       sodipodi:cx="-639.42657"
       sodipodi:cy="45.436459"
       sodipodi:rx="114.14724"
       sodipodi:ry="114.14724"
       d="m -525.27934,45.436459 c 0,63.041781 -51.10545,114.147241 -114.14723,114.147241 -63.04178,0 -114.14724,-51.10546 -114.14724,-114.147241 0,-63.04178 51.10546,-114.14724 114.14724,-114.14724 63.04178,0 114.14723,51.10546 114.14723,114.14724 z"
       transform="matrix(0.3942277,0,0,0.3942277,975.52608,137.30698)" />
  </g>
</svg>
