<?xml version="1.0" encoding="UTF-8" standalone="no"?>
<!-- Created with Inkscape (http://www.inkscape.org/) -->
<svg
   xmlns:dc="http://purl.org/dc/elements/1.1/"
   xmlns:cc="http://creativecommons.org/ns#"
   xmlns:rdf="http://www.w3.org/1999/02/22-rdf-syntax-ns#"
   xmlns:svg="http://www.w3.org/2000/svg"
   xmlns="http://www.w3.org/2000/svg"
   xmlns:sodipodi="http://sodipodi.sourceforge.net/DTD/sodipodi-0.dtd"
   xmlns:inkscape="http://www.inkscape.org/namespaces/inkscape"
   width="800"
   height="400"
   id="svg2"
   sodipodi:version="0.32"
   inkscape:version="0.46"
   version="1.0"
   sodipodi:docname="Znak R-3.svg"
   inkscape:output_extension="org.inkscape.output.svg.inkscape">
  <defs
     id="defs4">
    <inkscape:perspective
       sodipodi:type="inkscape:persp3d"
       inkscape:vp_x="0 : 526.18109 : 1"
       inkscape:vp_y="0 : 1000 : 0"
       inkscape:vp_z="744.09448 : 526.18109 : 1"
       inkscape:persp3d-origin="372.04724 : 350.78739 : 1"
       id="perspective10" />
    <inkscape:perspective
       id="perspective2390"
       inkscape:persp3d-origin="372.04724 : 350.78739 : 1"
       inkscape:vp_z="744.09448 : 526.18109 : 1"
       inkscape:vp_y="0 : 1000 : 0"
       inkscape:vp_x="0 : 526.18109 : 1"
       sodipodi:type="inkscape:persp3d" />
    <inkscape:perspective
       id="perspective3192"
       inkscape:persp3d-origin="250 : 166.66667 : 1"
       inkscape:vp_z="500 : 250 : 1"
       inkscape:vp_y="0 : 1000 : 0"
       inkscape:vp_x="0 : 250 : 1"
       sodipodi:type="inkscape:persp3d" />
    <inkscape:perspective
       id="perspective86"
       inkscape:persp3d-origin="500 : 400 : 1"
       inkscape:vp_z="1000 : 600 : 1"
       inkscape:vp_y="0 : 1000 : 0"
       inkscape:vp_x="0 : 600 : 1"
       sodipodi:type="inkscape:persp3d" />
    <inkscape:perspective
       id="perspective3574"
       inkscape:persp3d-origin="372.04724 : 350.78739 : 1"
       inkscape:vp_z="744.09448 : 526.18109 : 1"
       inkscape:vp_y="0 : 1000 : 0"
       inkscape:vp_x="0 : 526.18109 : 1"
       sodipodi:type="inkscape:persp3d" />
    <inkscape:perspective
       id="perspective3682"
       inkscape:persp3d-origin="500 : 400 : 1"
       inkscape:vp_z="1000 : 600 : 1"
       inkscape:vp_y="0 : 1000 : 0"
       inkscape:vp_x="0 : 600 : 1"
       sodipodi:type="inkscape:persp3d" />
  </defs>
  <sodipodi:namedview
     id="base"
     pagecolor="#ffffff"
     bordercolor="#666666"
     borderopacity="1.0"
     gridtolerance="10000"
     guidetolerance="10"
     objecttolerance="10"
     inkscape:pageopacity="0.0"
     inkscape:pageshadow="2"
     inkscape:zoom="0.1767767"
     inkscape:cx="258.09468"
     inkscape:cy="-221.85244"
     inkscape:document-units="px"
     inkscape:current-layer="layer1"
     showgrid="false"
     inkscape:window-width="1440"
     inkscape:window-height="844"
     inkscape:window-x="-4"
     inkscape:window-y="-4" />
  <metadata
     id="metadata7">
    <rdf:RDF>
      <cc:Work
         rdf:about="">
        <dc:format>image/svg+xml</dc:format>
        <dc:type
           rdf:resource="http://purl.org/dc/dcmitype/StillImage" />
      </cc:Work>
    </rdf:RDF>
  </metadata>
  <g
     inkscape:label="Layer 1"
     inkscape:groupmode="layer"
     id="layer1"
     transform="translate(-523.44641,133.94139)">
    <rect
       style="fill:#000000;fill-opacity:1;stroke:none;stroke-width:9.99984741;stroke-miterlimit:4;stroke-dasharray:none;stroke-opacity:1"
       id="rect2396"
       width="800"
       height="400"
       x="523.44641"
       y="-133.94139"
       rx="0"
       ry="0" />
    <rect
       style="fill:#ffffff;fill-opacity:1;stroke:none;stroke-width:10;stroke-miterlimit:4;stroke-dasharray:none;stroke-opacity:1"
       id="rect3580"
       width="180"
       height="380"
       x="533.44641"
       y="-123.94139" />
    <rect
       y="-123.94139"
       x="723.44641"
       height="380"
       width="590"
       id="rect3582"
       style="fill:#ffffff;fill-opacity:1;stroke:none;stroke-width:10;stroke-miterlimit:4;stroke-dasharray:none;stroke-opacity:1" />
    <g
       id="g3946"
       transform="matrix(1.0086441,0,0,1.0086441,-1230.6926,994.84417)"
       style="fill:#000000">
      <path
         d="M 1970.2471,-826.51401 L 1970.2471,-774.95931 L 1978.9608,-774.95931 L 1978.9608,-792.34855 L 1982.9347,-796.82027 L 1997.8843,-774.95931 L 2009.3222,-774.95931 L 1988.7443,-803.35474 L 2009.3222,-826.51401 L 1997.8915,-826.51401 L 1978.9608,-805.21555 L 1978.9608,-826.51401 L 1970.2471,-826.51401 z"
         style="fill:#000000;fill-opacity:1;stroke:none;stroke-width:7;stroke-miterlimit:4;stroke-opacity:1"
         id="path3922" />
      <path
         d="M 2405.7148,-826.51402 L 2405.7148,-774.95931 L 2414.4245,-774.95931 L 2414.4245,-788.06435 L 2417.0894,-788.06435 L 2427.5033,-774.95931 L 2437.0942,-774.95931 L 2424.8746,-791.82207 L 2436.56,-809.13195 L 2426.969,-809.13195 L 2417.6959,-796.66165 L 2414.4245,-796.66165 L 2414.4245,-826.51402 L 2405.7148,-826.51402 z"
         style="fill:#000000;fill-opacity:1;stroke:none;stroke-width:7;stroke-miterlimit:4;stroke-opacity:1"
         id="path3924" />
      <path
         d="M 2476.2361,-809.32912 C 2471.1262,-809.2793 2467.6813,-805.98082 2467.6813,-805.98082 C 2467.6813,-805.98082 2463.6943,-809.32912 2459.3918,-809.32912 C 2454.8229,-809.32912 2451.4878,-806.83364 2450.6722,-806.15968 L 2450.6722,-809.32912 L 2442.1248,-809.32912 L 2442.1248,-774.95931 L 2450.6722,-774.95931 L 2450.6722,-796.69442 C 2450.983,-797.62483 2452.2797,-800.71518 2455.8638,-800.71518 C 2460.5392,-800.71518 2461.2562,-796.4225 2461.2562,-796.4225 L 2461.3996,-774.95931 L 2469.9474,-774.95931 L 2469.9761,-796.4225 C 2469.9761,-796.4225 2470.9225,-800.75805 2475.5118,-800.75805 C 2479.2378,-800.75805 2480.7637,-796.87362 2480.9042,-796.49407 L 2480.9042,-774.95931 L 2489.4518,-774.95931 L 2489.4805,-796.4225 C 2489.1749,-803.59459 2483.2813,-809.20825 2476.2361,-809.32912 z"
         style="fill:#000000;fill-opacity:1;stroke:none;stroke-width:7;stroke-miterlimit:4;stroke-opacity:1"
         id="path3926" />
      <path
         d="M 2066.8658,-807.73194 L 2066.8658,-809.32912 L 2058.3189,-809.32912 L 2058.3189,-774.95931 L 2066.8658,-774.95931 L 2066.8658,-797.23522 C 2068.9293,-799.72636 2072.2211,-800.97949 2075.4269,-800.85427 L 2075.4269,-809.32912 C 2071.6237,-809.2055 2068.587,-808.8444 2066.8658,-807.73194 z"
         style="fill:#000000;fill-opacity:1;stroke:none;stroke-width:7;stroke-miterlimit:4;stroke-opacity:1"
         id="path3928" />
      <path
         d="M 2206.5646,-809.32912 L 2214.948,-774.95931 L 2223.5185,-774.95931 L 2229.8884,-795.50959 L 2236.2586,-774.95931 L 2244.8291,-774.95931 L 2253.2122,-809.32912 L 2244.6421,-809.32912 L 2240.0332,-790.43285 L 2234.1736,-809.32912 L 2225.6035,-809.32912 L 2219.7436,-790.43285 L 2215.1351,-809.32912 L 2206.5646,-809.32912 z"
         style="fill:#000000;fill-opacity:1;stroke:none;stroke-width:7;stroke-miterlimit:4;stroke-opacity:1"
         id="path3930" />
      <path
         d="M 2334.8579,-826.51402 C 2334.8579,-826.51402 2334.6629,-822.73467 2332.5733,-820.59977 C 2330.4841,-818.46489 2326.5004,-817.97447 2326.5004,-817.97447 L 2326.5004,-809.26183 L 2334.8579,-809.26183 L 2334.8579,-774.95931 L 2343.5769,-774.95931 L 2343.5769,-826.51402 L 2334.8579,-826.51402 z"
         style="fill:#000000;fill-opacity:1;stroke:none;stroke-width:7;stroke-miterlimit:4;stroke-opacity:1"
         id="path3932" />
      <path
         d="M 2029.4888,-809.32912 C 2019.9551,-809.32912 2012.2172,-801.63028 2012.2172,-792.1442 C 2012.2172,-782.65814 2019.9551,-774.95931 2029.4888,-774.95931 C 2039.0228,-774.95931 2046.7606,-782.65814 2046.7606,-792.1442 C 2046.7606,-801.63028 2039.0228,-809.32912 2029.4888,-809.32912 z M 2029.7479,-800.62207 C 2034.4809,-800.62207 2038.3264,-796.79596 2038.3264,-792.08689 C 2038.3264,-787.37785 2034.4809,-783.55886 2029.7479,-783.55886 C 2025.0152,-783.55886 2021.1769,-787.37785 2021.1769,-792.08689 C 2021.1769,-796.79596 2025.0152,-800.62207 2029.7479,-800.62207 z"
         style="fill:#000000;fill-opacity:1;stroke:none;stroke-width:7;stroke-miterlimit:4;stroke-dasharray:none;stroke-opacity:1"
         id="path3934" />
      <path
         d="M 2126.1307,-809.32912 L 2126.1307,-774.95931 L 2134.6909,-774.95931 L 2134.6909,-796.69817 C 2135.002,-797.62865 2137.3867,-800.71518 2140.9742,-800.71518 C 2145.6539,-800.71527 2147.236,-796.42435 2147.236,-796.42435 L 2147.3811,-774.95931 L 2155.9359,-774.95931 L 2155.9627,-796.42435 C 2155.2701,-804.93264 2149.3225,-809.32912 2143.2994,-809.32912 C 2138.7263,-809.32912 2135.5072,-806.83457 2134.6909,-806.16061 L 2134.6909,-809.32912 L 2126.1307,-809.32912 z"
         style="fill:#000000;fill-opacity:1;stroke:none;stroke-width:7;stroke-miterlimit:4;stroke-opacity:1"
         id="path3936" />
      <path
         d="M 2098.085,-809.32912 C 2088.551,-809.32912 2080.8134,-801.63028 2080.8134,-792.1442 C 2080.8134,-782.65814 2088.551,-774.95931 2098.085,-774.95931 C 2107.619,-774.95931 2115.3568,-782.65814 2115.3568,-792.1442 C 2115.3568,-801.63028 2107.619,-809.32912 2098.085,-809.32912 z M 2098.3441,-800.62207 C 2103.077,-800.62207 2106.9223,-796.79596 2106.9223,-792.08689 C 2106.9223,-787.37785 2103.077,-783.55886 2098.3441,-783.55886 C 2093.6112,-783.55886 2089.773,-787.37785 2089.773,-792.08689 C 2089.773,-796.79596 2093.6111,-800.62207 2098.3441,-800.62207 z"
         style="fill:#000000;fill-opacity:1;stroke:none;stroke-width:7;stroke-miterlimit:4;stroke-dasharray:none;stroke-opacity:1"
         id="path3938" />
      <path
         d="M 2183.1497,-809.32912 C 2173.6156,-809.32912 2165.8778,-801.63028 2165.8778,-792.1442 C 2165.8778,-782.65814 2173.6156,-774.95931 2183.1497,-774.95931 C 2192.6835,-774.95931 2200.4213,-782.65814 2200.4213,-792.1442 C 2200.4213,-801.63028 2192.6835,-809.32912 2183.1497,-809.32912 z M 2183.4086,-800.62207 C 2188.1417,-800.62207 2191.987,-796.79596 2191.987,-792.08689 C 2191.987,-787.37785 2188.1417,-783.55886 2183.4086,-783.55886 C 2178.6758,-783.55886 2174.8374,-787.37785 2174.8374,-792.08689 C 2174.8374,-796.79596 2178.6758,-800.62207 2183.4086,-800.62207 z"
         style="fill:#000000;fill-opacity:1;stroke:none;stroke-width:7;stroke-miterlimit:4;stroke-dasharray:none;stroke-opacity:1"
         id="path3940" />
      <path
         d="M 2277.2726,-809.32912 C 2267.7387,-809.32912 2260.001,-801.63028 2260.001,-792.1442 C 2260.001,-782.65814 2267.7387,-774.95931 2277.2726,-774.95931 C 2286.8067,-774.95931 2294.5445,-782.65814 2294.5445,-792.1442 C 2294.5445,-801.63028 2286.8067,-809.32912 2277.2726,-809.32912 z M 2277.5318,-800.62207 C 2282.2646,-800.62207 2286.11,-796.79596 2286.11,-792.08689 C 2286.11,-787.37785 2282.2646,-783.55886 2277.5318,-783.55886 C 2272.7987,-783.55886 2268.9607,-787.37785 2268.9607,-792.08689 C 2268.9607,-796.79596 2272.7987,-800.62207 2277.5318,-800.62207 z"
         style="fill:#000000;fill-opacity:1;stroke:none;stroke-width:7;stroke-miterlimit:4;stroke-dasharray:none;stroke-opacity:1"
         id="path3942" />
      <path
         d="M 2358.9973,-826.51402 C 2358.9973,-826.51402 2358.8025,-822.73467 2356.7129,-820.59977 C 2354.6235,-818.46489 2350.6399,-817.97447 2350.6399,-817.97447 L 2350.6399,-809.26183 L 2358.9973,-809.26183 L 2358.9973,-774.95931 L 2367.7165,-774.95931 L 2367.7165,-826.51402 L 2358.9973,-826.51402 z"
         style="fill:#000000;fill-opacity:1;stroke:none;stroke-width:7;stroke-miterlimit:4;stroke-opacity:1"
         id="path3944" />
    </g>
    <g
       id="g4084"
       transform="translate(-1.4142234,0)">
      <path
         id="rect3592"
         d="M 1194.4025,-29.727759 L 1194.4025,0.27224097 L 1104.4025,0.27224097 L 1104.4025,30.272241 L 1194.4025,30.272241 L 1194.4025,60.272241 L 1284.4025,18.897241 L 1194.4025,-29.727759 z"
         style="fill:#000000;fill-opacity:1;stroke:none;stroke-width:10;stroke-miterlimit:4;stroke-dasharray:none;stroke-opacity:1" />
      <g
         transform="translate(15.556349,0)"
         id="g4071">
        <path
           style="fill:#000000;fill-opacity:1;fill-rule:nonzero;stroke:none;stroke-width:2;stroke-linecap:butt;stroke-linejoin:round;stroke-miterlimit:4;stroke-dasharray:none;stroke-dashoffset:0;stroke-opacity:1"
           d="M 949.81157,-12.222047 C 976.83976,-11.879304 998.67106,10.166173 998.67106,37.275193 C 998.67106,64.597669 976.4963,86.772433 949.17382,86.772433 C 921.85134,86.772433 899.67658,64.597669 899.67658,37.275193 C 899.67658,9.952717 921.85134,-12.222047 949.17382,-12.222047 C 949.38728,-12.222047 949.59875,-12.224746 949.81157,-12.222047 z M 949.71639,-4.607087 C 949.53631,-4.6093715 949.35444,-4.607087 949.17382,-4.607087 C 926.0548,-4.607087 907.29154,14.156174 907.29154,37.275193 C 907.29154,60.394212 926.0548,79.157473 949.17382,79.157473 C 972.29284,79.157473 991.0561,60.394212 991.0561,37.275193 C 991.0561,14.336792 972.58639,-4.3170728 949.71639,-4.607087 z"
           id="opona" />
        <path
           sodipodi:type="arc"
           style="fill:#000000;fill-opacity:1;fill-rule:nonzero;stroke:none;stroke-width:2;stroke-linecap:butt;stroke-linejoin:round;stroke-miterlimit:4;stroke-dasharray:none;stroke-dashoffset:0;stroke-opacity:1"
           id="piasta"
           sodipodi:cx="237.5"
           sodipodi:cy="562.5"
           sodipodi:rx="25"
           sodipodi:ry="25"
           d="M 262.5,562.5 A 25,25 0 1 1 212.5,562.5 A 25,25 0 1 1 262.5,562.5 z"
           transform="matrix(-0.3045984,0,0,0.3045984,1021.5159,-134.06141)" />
        <path
           style="fill:#000000;fill-opacity:1;fill-rule:nonzero;stroke:none;stroke-width:2;stroke-linecap:butt;stroke-linejoin:round;stroke-miterlimit:4;stroke-dasharray:none;stroke-dashoffset:0;stroke-opacity:1"
           d="M 789.89741,-12.222047 C 816.9256,-11.879304 838.7569,10.166173 838.7569,37.275193 C 838.7569,64.597669 816.58214,86.772433 789.25966,86.772433 C 761.93718,86.772433 739.76242,64.597669 739.76242,37.275193 C 739.76242,9.952717 761.93718,-12.222047 789.25966,-12.222047 C 789.47312,-12.222047 789.68459,-12.224746 789.89741,-12.222047 z M 789.80223,-4.607087 C 789.62215,-4.6093715 789.44028,-4.607087 789.25966,-4.607087 C 766.14064,-4.607087 747.37738,14.156174 747.37738,37.275193 C 747.37738,60.394212 766.14064,79.157473 789.25966,79.157473 C 812.37868,79.157473 831.14194,60.394212 831.14194,37.275193 C 831.14194,14.336792 812.67223,-4.3170728 789.80223,-4.607087 z"
           id="path1324" />
        <path
           sodipodi:type="arc"
           style="fill:#000000;fill-opacity:1;fill-rule:nonzero;stroke:none;stroke-width:2;stroke-linecap:butt;stroke-linejoin:round;stroke-miterlimit:4;stroke-dasharray:none;stroke-dashoffset:0;stroke-opacity:1"
           id="path1326"
           sodipodi:cx="237.5"
           sodipodi:cy="562.5"
           sodipodi:rx="25"
           sodipodi:ry="25"
           d="M 262.5,562.5 A 25,25 0 1 1 212.5,562.5 A 25,25 0 1 1 262.5,562.5 z"
           transform="matrix(-0.3045984,0,0,0.3045984,861.60178,-134.06141)" />
        <path
           style="fill:#008000;fill-opacity:1;fill-rule:evenodd;stroke:#000000;stroke-width:7.61496019;stroke-linecap:butt;stroke-linejoin:miter;stroke-miterlimit:4;stroke-dasharray:none;stroke-opacity:1"
           d="M 857.7943,37.275193 L 789.25966,37.275193"
           id="wzdlozlancucha" />
        <path
           style="fill:none;fill-opacity:0.75;fill-rule:evenodd;stroke:#000000;stroke-width:7.61496019;stroke-linecap:butt;stroke-linejoin:miter;stroke-miterlimit:4;stroke-dasharray:none;stroke-opacity:1"
           d="M 857.7943,37.275193 L 931.35481,-24.405983"
           id="ukos-damka" />
        <path
           style="fill:none;fill-opacity:0.75;fill-rule:evenodd;stroke:#000000;stroke-width:7.61496019;stroke-linecap:butt;stroke-linejoin:miter;stroke-miterlimit:4;stroke-dasharray:none;stroke-opacity:1"
           d="M 857.7943,37.275193 L 827.33446,-57.911807"
           id="slupek-siodelko" />
        <path
           style="fill:none;fill-opacity:0.75;fill-rule:evenodd;stroke:#000000;stroke-width:7.61496019;stroke-linecap:butt;stroke-linejoin:miter;stroke-miterlimit:4;stroke-dasharray:none;stroke-opacity:1"
           d="M 930.13642,-38.874407 L 835.71092,-38.874407 L 789.25966,37.275193"
           id="poprzeczka" />
        <path
           style="fill:none;fill-opacity:0.75;fill-rule:evenodd;stroke:#000000;stroke-width:7.61496019;stroke-linecap:butt;stroke-linejoin:miter;stroke-miterlimit:4;stroke-dasharray:none;stroke-opacity:1"
           d="M 949.17382,37.275193 C 949.17382,37.275193 921.49336,-59.715438 920.99847,-60.957791 C 918.90027,-66.224964 918.20504,-68.006198 911.86052,-69.334247 C 910.93371,-69.528249 899.67658,-69.334247 899.67658,-69.334247"
           id="kierownica"
           sodipodi:nodetypes="cssc" />
        <path
           sodipodi:type="arc"
           style="fill:#000000;fill-opacity:1;fill-rule:nonzero;stroke:none;stroke-width:25;stroke-linecap:butt;stroke-linejoin:round;stroke-miterlimit:4;stroke-dasharray:none;stroke-dashoffset:0;stroke-opacity:1"
           id="kolo=pedalowe"
           sodipodi:cx="537.5"
           sodipodi:cy="562.5"
           sodipodi:rx="50"
           sodipodi:ry="50"
           d="M 587.5,562.5 A 50,50 0 1 1 487.5,562.5 A 50,50 0 1 1 587.5,562.5 z"
           transform="matrix(-0.3045984,0,0,0.3045984,1021.5159,-134.06141)" />
        <path
           style="fill:#000000;fill-opacity:1;fill-rule:evenodd;stroke:none;stroke-width:1px;stroke-linecap:butt;stroke-linejoin:miter;stroke-opacity:1"
           d="M 831.14194,-50.296847 L 808.29706,-50.296847 L 808.29706,-65.526767 C 808.29706,-65.526767 853.90214,-65.951121 857.7943,-65.526767 C 861.40656,-65.13293 860.0274,-58.569496 857.7943,-57.911807 C 819.77111,-46.713271 831.14194,-50.296847 831.14194,-50.296847 z"
           id="siodelko"
           sodipodi:nodetypes="ccczsc" />
      </g>
    </g>
    <g
       id="g4007"
       transform="translate(-1038.8696,380.12132)">
      <path
         d="M 1641.7407,-258.78017 L 1641.7407,-202.78038 L 1651.206,-202.78038 L 1651.206,-221.66897 L 1655.5226,-226.52624 L 1671.7609,-202.78038 L 1684.185,-202.78038 L 1661.8327,-233.62412 L 1684.185,-258.78017 L 1671.7688,-258.78017 L 1651.206,-235.64536 L 1651.206,-258.78017 L 1641.7407,-258.78017 z"
         style="fill:#000000;fill-opacity:1;stroke:none;stroke-width:7;stroke-miterlimit:4;stroke-opacity:1"
         id="path3999" />
      <path
         d="M 1645.3891,-474.78054 L 1645.3891,-418.78075 L 1654.9598,-418.78075 L 1654.9598,-442.07219 L 1670.8718,-442.07219 C 1670.8718,-442.07219 1680.5366,-447.3048 1680.5365,-458.40675 C 1680.5366,-470.48328 1670.8718,-474.78054 1670.8718,-474.78054 L 1654.9598,-474.78054 L 1645.3891,-474.78054 z M 1668.0342,-465.44987 C 1668.0342,-465.44987 1671.3186,-461.93008 1671.3185,-458.40675 C 1671.3185,-454.88351 1668.0342,-451.35582 1668.0342,-451.35582 L 1654.9598,-451.35582 L 1654.9598,-465.31668 L 1668.0342,-465.44987 z"
         style="fill:#000000;fill-opacity:1;stroke:none;stroke-width:7;stroke-miterlimit:4;stroke-opacity:1"
         id="path4001" />
      <path
         d="M 1640.4471,-330.7803 L 1640.4471,-321.32425 L 1654.478,-321.32425 L 1654.478,-274.78051 L 1663.9474,-274.78051 L 1663.9474,-321.32425 L 1677.9785,-321.32425 L 1677.9785,-330.7803 L 1663.9474,-330.7803 L 1654.478,-330.7803 L 1640.4471,-330.7803 z"
         style="fill:#000000;fill-opacity:1;stroke:none;stroke-width:7;stroke-miterlimit:4;stroke-opacity:1"
         id="path4003" />
      <path
         d="M 1640.4472,-402.78042 L 1640.4472,-393.32437 L 1654.4782,-393.32437 L 1654.4782,-346.78063 L 1663.9475,-346.78063 L 1663.9475,-393.32437 L 1677.9785,-393.32437 L 1677.9785,-402.78042 L 1663.9475,-402.78042 L 1654.4782,-402.78042 L 1640.4472,-402.78042 z"
         style="fill:#000000;fill-opacity:1;stroke:none;stroke-width:7;stroke-miterlimit:4;stroke-opacity:1"
         id="path4005" />
    </g>
    <g
       id="g4060"
       style="fill:#000000"
       transform="translate(-1033.2512,0)">
      <path
         d="M 1667.1155,192.06475 L 1667.1155,212.06206 L 1667.1475,212.06206 L 1670.4895,212.06206 L 1676.9865,212.06206 C 1676.9865,212.06206 1679.8845,210.74149 1680.4425,207.03966 C 1680.8405,204.40289 1678.6795,201.5276 1678.6795,201.5276 C 1678.6795,201.5276 1680.1605,198.83116 1679.4985,196.47441 C 1678.6025,193.28472 1676.1645,192.06475 1676.1645,192.06475 L 1670.4895,192.06475 L 1669.4625,192.06475 L 1667.1155,192.06475 z M 1670.5265,195.42517 L 1675.3335,195.42517 C 1675.3335,195.42517 1676.5545,196.69545 1676.5545,197.96574 C 1676.5545,199.23605 1675.3335,200.50634 1675.3335,200.50634 L 1670.5265,200.50634 L 1670.5265,195.42517 z M 1670.5605,203.78559 L 1676.1405,203.78559 C 1676.1405,203.78559 1677.3595,205.05589 1677.3595,206.32618 C 1677.3595,207.59648 1676.1405,208.86673 1676.1405,208.86673 L 1670.5605,208.86673 L 1670.5605,203.78559 z"
         style="fill:#000000;fill-opacity:1;stroke:none;stroke-width:7;stroke-miterlimit:4;stroke-opacity:1"
         id="path4013" />
      <path
         d="M 1633.8968,198.73052 C 1630.2108,198.73052 1627.2188,201.71616 1627.2188,205.3949 C 1627.2188,209.07365 1630.2108,212.05929 1633.8968,212.05929 C 1635.3388,212.05929 1636.6728,211.59975 1637.7658,210.82362 L 1638.0908,212.06206 L 1641.4068,212.06206 L 1640.5428,208.80765 L 1640.5428,198.73331 L 1637.2248,198.73331 L 1637.2248,199.61912 C 1636.2468,199.05525 1635.1078,198.73052 1633.8968,198.73052 z M 1633.9968,202.10714 C 1635.5648,202.10714 1636.8818,203.56992 1637.2248,205.03161 L 1637.2248,205.91727 C 1636.8818,207.37837 1635.5648,208.72432 1633.9968,208.72432 C 1632.1688,208.72432 1630.6838,207.2433 1630.6838,205.41714 C 1630.6838,203.59094 1632.1688,202.10714 1633.9968,202.10714 z"
         style="fill:#000000;fill-opacity:1;stroke:none;stroke-width:7;stroke-miterlimit:4;stroke-dasharray:none;stroke-opacity:1"
         id="path4015"
         sodipodi:nodetypes="csscccccccccccssc" />
      <path
         d="M 1705.5034,192.06475 L 1705.5034,212.06206 L 1702.1214,212.06206 L 1702.1214,211.17804 C 1701.1354,211.74102 1699.9954,212.06206 1698.7794,212.06206 C 1695.0634,212.06206 1692.0464,209.05407 1692.0464,205.34782 C 1692.0464,201.64154 1695.0634,198.63355 1698.7794,198.63355 C 1699.9954,198.63355 1701.1354,198.95738 1702.1214,199.52038 L 1702.1214,192.06475 L 1705.5034,192.06475 z M 1698.6794,202.03542 C 1696.8334,202.03542 1695.3344,203.53034 1695.3344,205.37019 C 1695.3344,207.21003 1696.8334,208.70213 1698.6794,208.70213 C 1700.5224,208.70213 1702.0194,207.21003 1702.0194,205.37019 C 1702.0194,203.53034 1700.5224,202.03542 1698.6794,202.03542 z"
         style="fill:#000000;fill-opacity:1;stroke:none;stroke-width:7;stroke-miterlimit:4;stroke-dasharray:none;stroke-opacity:1"
         id="path4017" />
      <path
         d="M 1645.0871,192.06475 L 1645.0871,212.06206 L 1648.4661,212.06206 L 1648.4661,206.9788 L 1649.4991,206.9788 L 1653.5381,212.06206 L 1657.2581,212.06206 L 1652.5181,205.52124 L 1657.0511,198.807 L 1653.3301,198.807 L 1649.7361,203.64404 L 1648.4661,203.64404 L 1648.4661,192.06475 L 1645.0871,192.06475 z"
         style="fill:#000000;fill-opacity:1;stroke:none;stroke-width:7;stroke-miterlimit:4;stroke-opacity:1"
         id="path4021" />
      <path
         d="M 1620.8367,192.06475 L 1624.2217,192.06475 L 1624.2217,212.06206 L 1620.8367,212.06206 L 1620.8367,192.06475 z"
         style="fill:#000000;fill-opacity:1;stroke:none;stroke-width:7;stroke-miterlimit:4;stroke-opacity:1"
         id="path4023" />
      <path
         d="M 1687.8591,199.35004 L 1687.8591,198.73052 L 1684.5431,198.73052 L 1684.5431,212.06206 L 1687.8591,212.06206 L 1687.8591,203.42156 C 1688.6581,202.4553 1689.9341,201.96921 1691.1781,202.01779 L 1691.1781,198.73052 C 1689.7031,198.77847 1688.5251,198.91854 1687.8591,199.35004 z"
         style="fill:#000000;fill-opacity:1;stroke:none;stroke-width:7;stroke-miterlimit:4;stroke-opacity:1"
         id="path4025" />
      <path
         d="M 1708.2238,198.73052 L 1712.4318,212.12864 L 1710.2858,218.72784 L 1713.7108,218.72784 L 1719.9708,198.73052 L 1716.6378,198.73052 L 1714.0988,206.82242 L 1711.5568,198.73052 L 1708.2238,198.73052 z"
         style="fill:#000000;fill-opacity:1;stroke:none;stroke-width:7;stroke-miterlimit:4;stroke-opacity:1"
         id="path4027" />
      <path
         d="M 1608.474,198.73052 L 1608.474,202.04119 L 1613.05,202.04119 L 1608.474,210.42063 L 1608.474,212.06206 L 1617.559,212.06206 L 1617.559,208.75142 L 1612.94,208.75142 L 1617.559,200.147 L 1617.559,198.73052 L 1608.474,198.73052 z"
         style="fill:#000000;fill-opacity:1;stroke:none;stroke-width:7;stroke-miterlimit:4;stroke-opacity:1"
         id="path4029" />
      <path
         style="fill:#000000;fill-opacity:1;stroke:none;stroke-width:7;stroke-miterlimit:4;stroke-dasharray:none;stroke-opacity:1"
         d="M 1600.9635,192.06171 C 1600.8375,192.06114 1600.7085,192.06845 1600.5785,192.07186 C 1597.6505,192.07186 1595.2175,194.43351 1595.2175,197.35059 C 1595.2175,199.03731 1596.0185,200.58752 1597.2545,201.55529 C 1597.2545,201.55529 1599.4805,202.90417 1599.7075,203.02442 C 1603.1265,204.79807 1603.4565,206.28575 1602.7345,207.59388 C 1600.4895,209.91348 1597.2935,208.66446 1594.5905,207.81679 L 1593.4245,210.93739 C 1595.6715,211.74028 1597.8625,212.06206 1600.4655,212.06206 C 1603.6515,212.06203 1606.2295,209.48957 1606.2295,206.31728 C 1606.2295,204.40041 1605.2895,202.70092 1603.8405,201.65661 C 1602.2685,200.79683 1600.6635,199.84747 1599.0885,198.94126 C 1598.7555,198.71746 1598.2675,197.78753 1598.4295,196.89463 C 1598.5915,196.00176 1599.3275,195.47688 1599.7365,195.37485 C 1601.5395,195.10501 1603.3825,195.5353 1605.1075,196.0537 L 1606.0485,192.83174 C 1604.2985,192.51908 1602.8575,192.07096 1600.9635,192.06171 z"
         id="path4035" />
    </g>
    <g
       id="g4049"
       transform="translate(-1031.8161,0)"
       style="fill:#000000">
      <path
         d="M 1645.0075,226.48052 C 1643.7985,226.48056 1642.6605,226.80358 1641.6785,227.36526 L 1641.6785,227.33458 C 1639.8245,228.38843 1638.5225,230.29757 1638.3085,232.52299 L 1638.3085,233.81519 C 1638.5225,236.04064 1639.8245,237.94695 1641.6785,239.00082 L 1641.6785,238.99523 C 1641.9245,239.13565 1642.1795,239.263 1642.4415,239.37201 C 1642.5075,239.39928 1642.5745,239.42498 1642.6405,239.45018 C 1642.7085,239.47536 1642.7775,239.49966 1642.8465,239.52273 C 1642.9125,239.54582 1642.9815,239.56876 1643.0495,239.58972 C 1643.1875,239.63165 1643.3275,239.66821 1643.4685,239.70134 C 1643.5405,239.71794 1643.6105,239.73448 1643.6805,239.74881 C 1643.7525,239.76312 1643.8245,239.77584 1643.8965,239.78787 C 1643.9675,239.7999 1644.0425,239.8089 1644.1145,239.81857 C 1644.1795,239.82714 1644.2435,239.837 1644.3105,239.84372 C 1644.4085,239.85386 1644.5095,239.86015 1644.6105,239.86602 C 1644.6235,239.86682 1644.6375,239.86809 1644.6515,239.86879 C 1644.6645,239.86947 1644.6775,239.86822 1644.6895,239.86879 C 1644.7885,239.87321 1644.8875,239.87701 1644.9855,239.87721 C 1644.9935,239.87721 1645.0005,239.87721 1645.0075,239.87721 C 1645.1205,239.87701 1645.2315,239.87442 1645.3405,239.86879 C 1645.3435,239.86863 1645.3475,239.86899 1645.3515,239.86879 C 1645.4635,239.863 1645.5725,239.8548 1645.6815,239.84372 C 1645.6855,239.84333 1645.6905,239.84407 1645.6935,239.84372 C 1645.9145,239.82079 1646.1345,239.78719 1646.3495,239.74324 C 1647.1095,239.588 1647.8215,239.30464 1648.4635,238.91709 L 1648.4635,239.87438 C 1648.2555,241.85422 1647.0045,242.82605 1645.1165,243.1259 C 1644.3475,243.1259 1643.6385,242.86391 1643.0755,242.42535 L 1641.0165,245.16607 C 1641.2305,245.32429 1641.4545,245.46909 1641.6865,245.60145 L 1641.6865,245.5959 C 1641.9335,245.73631 1642.1875,245.86366 1642.4495,245.97267 C 1642.5155,245.99991 1642.5825,246.02562 1642.6495,246.05081 C 1642.7165,246.076 1642.7865,246.10029 1642.8545,246.12336 C 1642.9225,246.14649 1642.9895,246.16939 1643.0585,246.19035 C 1643.1955,246.23227 1643.3355,246.26888 1643.4765,246.30201 C 1643.5485,246.31856 1643.6185,246.3351 1643.6905,246.34945 C 1643.7605,246.36377 1643.8325,246.37646 1643.9045,246.3885 C 1643.9755,246.40053 1644.0505,246.40953 1644.1225,246.41923 C 1644.1875,246.42781 1644.2535,246.43764 1644.3185,246.44434 C 1644.4175,246.45452 1644.5185,246.46082 1644.6185,246.46669 C 1644.6325,246.46747 1644.6455,246.46876 1644.6595,246.46949 C 1644.6725,246.47016 1644.6855,246.46886 1644.6985,246.46949 C 1644.7965,246.47388 1644.8945,246.47767 1644.9935,246.47784 C 1645.0015,246.47787 1645.0085,246.47784 1645.0175,246.47784 C 1645.1285,246.47764 1645.2395,246.47507 1645.3485,246.46949 C 1645.3515,246.46928 1645.3555,246.46968 1645.3605,246.46949 C 1645.4715,246.46368 1645.5805,246.45543 1645.6915,246.44434 C 1645.6945,246.44395 1645.6985,246.44474 1645.7025,246.44434 C 1645.9225,246.42142 1646.1435,246.38787 1646.3575,246.34388 C 1647.2335,246.165 1648.0475,245.816 1648.7635,245.33354 C 1648.7635,245.33312 1648.7655,245.33396 1648.7665,245.33354 C 1650.5555,244.09105 1651.6925,242.04796 1651.7235,239.87721 L 1651.7955,226.48052 L 1648.4635,226.48052 L 1648.4635,227.44064 C 1647.4545,226.83267 1646.2735,226.48052 1645.0075,226.48052 z M 1645.1085,229.87437 C 1646.9485,229.87437 1648.4415,231.36569 1648.4415,233.20119 C 1648.4415,235.0367 1646.9485,236.52521 1645.1085,236.52521 C 1643.2715,236.52525 1641.7795,235.0367 1641.7795,233.20119 C 1641.7795,231.36572 1643.2715,229.87437 1645.1085,229.87437 z"
         style="fill:#000000;fill-opacity:1;stroke:none;stroke-width:7;stroke-miterlimit:4;stroke-dasharray:none;stroke-opacity:1"
         id="path4019" />
      <path
         d="M 1700.9525,226.48052 C 1697.2635,226.48052 1694.2705,229.46714 1694.2705,233.14629 C 1694.2705,236.82548 1697.2635,239.81206 1700.9525,239.81206 C 1702.5595,239.81206 1704.0365,239.24548 1705.1895,238.3007 L 1703.7065,235.35418 C 1703.0585,236.15696 1702.0655,236.67109 1700.9525,236.67109 C 1699.0025,236.67109 1697.4185,235.09152 1697.4185,233.14629 C 1697.4185,231.2011 1699.0025,229.62152 1700.9525,229.62152 C 1701.9545,229.62152 1702.8575,230.04051 1703.5005,230.70975 L 1704.7145,227.63704 C 1703.6435,226.907 1702.3465,226.48052 1700.9525,226.48052 z"
         style="fill:#000000;fill-opacity:1;stroke:none;stroke-width:7;stroke-miterlimit:4;stroke-dasharray:none;stroke-opacity:1"
         id="path4031" />
      <path
         d="M 1661.8885,226.48052 C 1658.1895,226.48052 1655.1885,229.46678 1655.1885,233.14629 C 1655.1885,236.82581 1658.1895,239.81206 1661.8885,239.81206 C 1665.5875,239.81206 1668.5885,236.82581 1668.5885,233.14629 C 1668.5885,229.46678 1665.5875,226.48052 1661.8885,226.48052 z M 1661.9895,229.85785 C 1663.8235,229.85785 1665.3165,231.34195 1665.3165,233.16854 C 1665.3165,234.99508 1663.8235,236.47642 1661.9895,236.47642 C 1660.1535,236.47642 1658.6645,234.99508 1658.6645,233.16854 C 1658.6645,231.34195 1660.1535,229.85785 1661.9895,229.85785 z"
         style="fill:#000000;fill-opacity:1;stroke:none;stroke-width:7;stroke-miterlimit:4;stroke-dasharray:none;stroke-opacity:1"
         id="path4033" />
      <path
         style="fill:#000000;fill-opacity:1;stroke:none;stroke-width:7;stroke-miterlimit:4;stroke-dasharray:none;stroke-opacity:1"
         d="M 1675.6235,226.47852 C 1675.4875,226.47991 1675.3465,226.48415 1675.1985,226.48863 C 1673.5515,226.48866 1672.1485,228.15551 1672.1485,229.89297 C 1672.1635,231.9481 1673.1445,232.72941 1674.6715,233.76331 C 1676.5945,234.93651 1677.2375,234.74638 1677.0815,236.20511 C 1676.4295,237.80414 1673.4845,236.85108 1671.9765,236.38749 L 1671.1775,238.87993 C 1672.4375,239.41097 1673.7905,239.7441 1675.1265,239.81206 C 1677.2375,239.81206 1679.8085,239.07301 1679.8085,235.82009 C 1679.9455,234.10602 1678.7135,233.04162 1677.7605,232.41579 C 1676.9205,231.68064 1674.9675,231.25797 1674.9545,229.93349 C 1675.3415,228.56353 1677.3115,229.31747 1678.2475,229.6295 L 1678.2675,226.73179 C 1677.3505,226.53878 1676.5885,226.46868 1675.6235,226.47852 z"
         id="path4037" />
      <path
         d="M 1594.0045,219.81475 L 1594.0045,239.81206 L 1594.0345,239.81206 L 1597.3775,239.81206 L 1603.8735,239.81206 C 1603.8735,239.81206 1606.7735,238.49149 1607.3285,234.78966 C 1607.7275,232.15289 1605.5675,229.2776 1605.5675,229.2776 C 1605.5675,229.2776 1607.0475,226.58116 1606.3865,224.22441 C 1605.4895,221.03472 1603.0505,219.81475 1603.0505,219.81475 L 1597.3775,219.81475 L 1596.3495,219.81475 L 1594.0045,219.81475 z M 1597.4135,223.17517 L 1602.2205,223.17517 C 1602.2205,223.17517 1603.4405,224.44545 1603.4405,225.71574 C 1603.4405,226.98605 1602.2205,228.25634 1602.2205,228.25634 L 1597.4135,228.25634 L 1597.4135,223.17517 z M 1597.4465,231.53559 L 1603.0255,231.53559 C 1603.0255,231.53559 1604.2465,232.80589 1604.2465,234.07618 C 1604.2465,235.34648 1603.0255,236.61673 1603.0255,236.61673 L 1597.4465,236.61673 L 1597.4465,231.53559 z"
         style="fill:#000000;fill-opacity:1;stroke:none;stroke-width:7;stroke-miterlimit:4;stroke-opacity:1"
         id="path4039" />
      <path
         d="M 1609.6185,226.48052 L 1613.8245,239.87864 L 1611.6795,246.47784 L 1615.1075,246.47784 L 1621.3655,226.48052 L 1618.0335,226.48052 L 1615.4915,234.57242 L 1612.9505,226.48052 L 1609.6185,226.48052 z"
         style="fill:#000000;fill-opacity:1;stroke:none;stroke-width:7;stroke-miterlimit:4;stroke-opacity:1"
         id="path4041" />
      <path
         d="M 1636.0495,219.81475 L 1636.0495,239.81206 L 1632.6675,239.81206 L 1632.6675,238.92804 C 1631.6815,239.49102 1630.5395,239.81206 1629.3255,239.81206 C 1625.6065,239.81206 1622.5925,236.80407 1622.5925,233.09782 C 1622.5925,229.39154 1625.6065,226.38355 1629.3255,226.38355 C 1630.5395,226.38355 1631.6815,226.70738 1632.6675,227.27038 L 1632.6675,219.81475 L 1636.0495,219.81475 z M 1629.2235,229.78542 C 1627.3795,229.78542 1625.8805,231.28034 1625.8805,233.12019 C 1625.8805,234.96003 1627.3795,236.45213 1629.2235,236.45213 C 1631.0685,236.45213 1632.5645,234.96003 1632.5645,233.12019 C 1632.5645,231.28034 1631.0685,229.78542 1629.2235,229.78542 z"
         style="fill:#000000;fill-opacity:1;stroke:none;stroke-width:7;stroke-miterlimit:4;stroke-dasharray:none;stroke-opacity:1"
         id="path4043" />
      <path
         d="M 1682.7465,226.48052 L 1682.7465,229.79119 L 1687.3245,229.79119 L 1682.7465,238.17063 L 1682.7465,239.81206 L 1691.8325,239.81206 L 1691.8325,236.50142 L 1687.2145,236.50142 L 1691.8325,227.897 L 1691.8325,226.48052 L 1682.7465,226.48052 z"
         style="fill:#000000;fill-opacity:1;stroke:none;stroke-width:7;stroke-miterlimit:4;stroke-opacity:1"
         id="path4045" />
      <path
         d="M 1707.4345,226.48052 L 1707.4345,229.79119 L 1712.0115,229.79119 L 1707.4345,238.17063 L 1707.4345,239.81206 L 1716.5205,239.81206 L 1716.5205,236.50142 L 1711.9035,236.50142 L 1716.5205,227.897 L 1716.5205,226.48052 L 1707.4345,226.48052 z"
         style="fill:#000000;fill-opacity:1;stroke:none;stroke-width:7;stroke-miterlimit:4;stroke-opacity:1"
         id="path4047" />
    </g>
  </g>
</svg>
