<?xml version="1.0" encoding="UTF-8" standalone="no"?>
<!-- Created with Inkscape (http://www.inkscape.org/) -->

<svg
   xmlns:dc="http://purl.org/dc/elements/1.1/"
   xmlns:cc="http://creativecommons.org/ns#"
   xmlns:rdf="http://www.w3.org/1999/02/22-rdf-syntax-ns#"
   xmlns:svg="http://www.w3.org/2000/svg"
   xmlns="http://www.w3.org/2000/svg"
   xmlns:sodipodi="http://sodipodi.sourceforge.net/DTD/sodipodi-0.dtd"
   xmlns:inkscape="http://www.inkscape.org/namespaces/inkscape"
   width="400"
   height="400"
   id="svg3866"
   version="1.1"
   inkscape:version="0.48.4 r9939"
   sodipodi:docname="Znak R-4">
  <title
     id="title3938">Znak R-4</title>
  <defs
     id="defs3868" />
  <sodipodi:namedview
     id="base"
     pagecolor="#ffffff"
     bordercolor="#666666"
     borderopacity="1.0"
     inkscape:pageopacity="0.0"
     inkscape:pageshadow="2"
     inkscape:zoom="0.59"
     inkscape:cx="200"
     inkscape:cy="200"
     inkscape:document-units="px"
     inkscape:current-layer="layer1"
     showgrid="false"
     inkscape:window-width="874"
     inkscape:window-height="453"
     inkscape:window-x="208"
     inkscape:window-y="208"
     inkscape:window-maximized="0" />
  <metadata
     id="metadata3871">
    <rdf:RDF>
      <cc:Work
         rdf:about="">
        <dc:format>image/svg+xml</dc:format>
        <dc:type
           rdf:resource="http://purl.org/dc/dcmitype/StillImage" />
        <cc:license
           rdf:resource="http://creativecommons.org/licenses/by-sa/3.0/" />
        <dc:title>Znak R-4</dc:title>
        <dc:date>2013-11-05</dc:date>
        <dc:creator>
          <cc:Agent>
            <dc:title>Blackfish</dc:title>
          </cc:Agent>
        </dc:creator>
      </cc:Work>
      <cc:License
         rdf:about="http://creativecommons.org/licenses/by-sa/3.0/">
        <cc:permits
           rdf:resource="http://creativecommons.org/ns#Reproduction" />
        <cc:permits
           rdf:resource="http://creativecommons.org/ns#Distribution" />
        <cc:requires
           rdf:resource="http://creativecommons.org/ns#Notice" />
        <cc:requires
           rdf:resource="http://creativecommons.org/ns#Attribution" />
        <cc:permits
           rdf:resource="http://creativecommons.org/ns#DerivativeWorks" />
        <cc:requires
           rdf:resource="http://creativecommons.org/ns#ShareAlike" />
      </cc:License>
    </rdf:RDF>
  </metadata>
  <g
     inkscape:label="Layer 1"
     inkscape:groupmode="layer"
     id="layer1"
     transform="translate(0,-652.36218)">
    <g
       transform="translate(-3.2627614e-7,-3.3350001e-4)"
       id="layer1-7"
       inkscape:label="Layer 1">
      <g
         transform="matrix(12.584287,0,0,12.584287,-3460.5886,-7584.9782)"
         id="g3043">
        <g
           transform="matrix(1.0324827,0,0,1.0324827,-9.4487482,-21.778532)"
           inkscape:label="linie"
           id="g3005">
          <path
             inkscape:connector-curvature="0"
             style="fill:#000000;fill-opacity:1;stroke:none"
             d="m 280.13972,685.85914 21.49188,0 a 4.646893,4.646893 0 0 0 4.64689,-4.6469 l 0,-21.49187 a 4.646893,4.646893 0 0 0 -4.64689,-4.6469 l -21.49188,0 a 4.646893,4.646893 0 0 0 -4.6469,4.6469 l 0,21.49187 a 4.646893,4.646893 0 0 0 4.6469,4.6469 z"
             id="path3007" />
          <path
             inkscape:connector-curvature="0"
             style="fill:#e97717;fill-opacity:1;stroke:none"
             d="m 280.13972,684.84263 21.49188,0 a 3.630385,3.630385 0 0 0 3.63038,-3.63039 l 0,-21.49187 a 3.630385,3.630385 0 0 0 -3.63038,-3.63039 l -21.49188,0 a 3.630385,3.630385 0 0 0 -3.63039,3.63039 l 0,21.49187 a 3.630385,3.630385 0 0 0 3.63039,3.63039 z"
             id="path3009" />
          <path
             id="path3021"
             transform="matrix(0.07696417,0,0,0.07696417,275.49282,655.07345)"
             d="m 157.4375,39.09375 a 11.02743,11.02743 0 0 0 -10.59375,7.9375 l -15.4375,52.6875 a 49.990399,49.990399 0 1 0 7.25,2.125 l 2.375,-8.125 56.875,48.84375 a 14.202803,14.202803 0 1 0 26.53125,9.8125 l 4.125,0 A 49.990399,49.990399 0 1 0 255.84375,104 l -17.53125,-29 4.03125,-12.59375 17.3125,0 0,-15.1875 -47.28125,0 A 3.1705268,3.1705268 0 0 0 211.5,53.25 a 73.366376,73.366376 0 0 0 23.21875,8.28125 l -2.53125,7.875 -84.03125,0 6.65625,-22.75 15.53125,0 0,-7.5625 -12.90625,0 z m -11.5,37.875 83.84375,0 -18.4375,57.4375 a 14.202803,14.202803 0 0 0 -8.5,2.40625 L 143.375,85.75 l 2.5625,-8.78125 z m 89.34375,7.5625 14.09375,23.375 a 49.9904,49.9904 0 0 0 -20.8125,36.9375 l -4.125,0 a 14.202803,14.202803 0 0 0 -5.90625,-8.125 l 16.75,-52.1875 z m -114.65625,21.625 a 42.443242,42.443242 0 0 1 8.65625,0.8125 l -10.25,35.0625 a 6.8830728,6.8830728 0 1 0 7.21875,2.125 l 10.28125,-35.0625 a 42.443242,42.443242 0 1 1 -15.90625,-2.9375 z m 158.78125,0.0312 A 42.44324,42.44324 0 1 1 236.125,152.375 l 36.53125,0 a 6.8830724,6.8830724 0 1 0 6,-10.65625 l -18.90625,-31.25 a 42.44324,42.44324 0 0 1 19.65625,-4.28125 z m -26.09375,8.1875 18.40625,30.46875 -35.59375,0 a 42.443241,42.443241 0 0 1 17.1875,-30.4687 z"
             style="fill:#000000;fill-opacity:1;stroke:none"
             inkscape:connector-curvature="0" />
          <path
             id="path3023"
             transform="matrix(0.07696417,0,0,0.07696417,275.49282,655.07345)"
             d="m 139.90625,219.53125 a 18.867922,18.867922 0 0 0 -18.875,18.875 l 0,106.6875 a 18.867922,18.867922 0 0 0 18.875,18.875 l 119.625,0 a 18.867922,18.867922 0 0 0 18.875,-18.875 l 0,-106.6875 a 18.867922,18.867922 0 0 0 -18.875,-18.875 l -119.625,0 z m 0,11.3125 119.625,0 a 7.547174,7.547174 0 0 1 7.5625,7.5625 l 0,106.6875 a 7.547174,7.547174 0 0 1 -7.5625,7.5625 l -119.625,0 a 7.547174,7.547174 0 0 1 -7.5625,-7.5625 l 0,-106.6875 a 7.547174,7.547174 0 0 1 7.5625,-7.5625 z"
             style="fill:#000000;fill-opacity:1;stroke:none"
             inkscape:connector-curvature="0" />
          <path
             inkscape:connector-curvature="0"
             style="fill:#000000;fill-opacity:1;stroke:none"
             d="m 292.12321,676.37825 0,-0.29966 a 0.688321,0.688321 0 1 1 1.25534,0.39021 l -2.45325,3.56486 0,0.8311 3.56813,0 0,-1.16173 -1.93037,0 1.7725,-2.57564 a 1.850044,1.850044 0 1 0 -3.37408,-1.0488 l 0,0.29966 1.16173,0 z"
             id="path3027" />
          <path
             inkscape:connector-curvature="0"
             style="fill:#000000;fill-opacity:1;stroke:none"
             d="m 289.3036,674.24174 0,6.62302 -1.16172,0 0,-4.3622 -1.06322,0 0,-1.11569 a 1.109458,1.109458 0 0 0 1.06322,-1.14513 l 1.16172,0 z"
             id="path3029" />
        </g>
      </g>
    </g>
  </g>
</svg>
