<?xml version="1.0" encoding="UTF-8" standalone="no"?>
<!-- Created with Inkscape (http://www.inkscape.org/) -->

<svg
   xmlns:dc="http://purl.org/dc/elements/1.1/"
   xmlns:cc="http://creativecommons.org/ns#"
   xmlns:rdf="http://www.w3.org/1999/02/22-rdf-syntax-ns#"
   xmlns:svg="http://www.w3.org/2000/svg"
   xmlns="http://www.w3.org/2000/svg"
   xmlns:sodipodi="http://sodipodi.sourceforge.net/DTD/sodipodi-0.dtd"
   xmlns:inkscape="http://www.inkscape.org/namespaces/inkscape"
   width="400"
   height="400"
   id="svg3866"
   version="1.1"
   inkscape:version="0.48.4 r9939"
   sodipodi:docname="Znak R-4a.svg">
  <title
     id="title3938">Znak R-4a</title>
  <defs
     id="defs3868" />
  <sodipodi:namedview
     id="base"
     pagecolor="#ffffff"
     bordercolor="#666666"
     borderopacity="1.0"
     inkscape:pageopacity="0.0"
     inkscape:pageshadow="2"
     inkscape:zoom="0.59"
     inkscape:cx="200"
     inkscape:cy="200"
     inkscape:document-units="px"
     inkscape:current-layer="layer1-7"
     showgrid="false"
     inkscape:window-width="874"
     inkscape:window-height="453"
     inkscape:window-x="208"
     inkscape:window-y="208"
     inkscape:window-maximized="0" />
  <metadata
     id="metadata3871">
    <rdf:RDF>
      <cc:Work
         rdf:about="">
        <dc:format>image/svg+xml</dc:format>
        <dc:type
           rdf:resource="http://purl.org/dc/dcmitype/StillImage" />
        <cc:license
           rdf:resource="http://creativecommons.org/licenses/by-sa/3.0/" />
        <dc:title>Znak R-4a</dc:title>
        <dc:date>2013-11-05</dc:date>
        <dc:creator>
          <cc:Agent>
            <dc:title>Blackfish</dc:title>
          </cc:Agent>
        </dc:creator>
      </cc:Work>
      <cc:License
         rdf:about="http://creativecommons.org/licenses/by-sa/3.0/">
        <cc:permits
           rdf:resource="http://creativecommons.org/ns#Reproduction" />
        <cc:permits
           rdf:resource="http://creativecommons.org/ns#Distribution" />
        <cc:requires
           rdf:resource="http://creativecommons.org/ns#Notice" />
        <cc:requires
           rdf:resource="http://creativecommons.org/ns#Attribution" />
        <cc:permits
           rdf:resource="http://creativecommons.org/ns#DerivativeWorks" />
        <cc:requires
           rdf:resource="http://creativecommons.org/ns#ShareAlike" />
      </cc:License>
    </rdf:RDF>
  </metadata>
  <g
     inkscape:label="Layer 1"
     inkscape:groupmode="layer"
     id="layer1"
     transform="translate(0,-652.36218)">
    <g
       transform="translate(-3.2627614e-7,-3.3350001e-4)"
       id="layer1-7"
       inkscape:label="Layer 1">
      <g
         transform="matrix(12.584287,0,0,12.584287,-3460.5886,-7584.9782)"
         id="g3043">
        <g
           transform="matrix(1.0324827,0,0,1.0324827,-9.4487482,-21.778532)"
           inkscape:label="linie"
           id="g3005">
          <path
             inkscape:connector-curvature="0"
             style="fill:#000000;fill-opacity:1;stroke:none"
             d="m 280.13972,685.85914 21.49188,0 a 4.646893,4.646893 0 0 0 4.64689,-4.6469 l 0,-21.49187 a 4.646893,4.646893 0 0 0 -4.64689,-4.6469 l -21.49188,0 a 4.646893,4.646893 0 0 0 -4.6469,4.6469 l 0,21.49187 a 4.646893,4.646893 0 0 0 4.6469,4.6469 z"
             id="path3007" />
          <path
             inkscape:connector-curvature="0"
             style="fill:#e97717;fill-opacity:1;stroke:none"
             d="m 280.13972,684.84263 21.49188,0 a 3.630385,3.630385 0 0 0 3.63038,-3.63039 l 0,-21.49187 a 3.630385,3.630385 0 0 0 -3.63038,-3.63039 l -21.49188,0 a 3.630385,3.630385 0 0 0 -3.63039,3.63039 l 0,21.49187 a 3.630385,3.630385 0 0 0 3.63039,3.63039 z"
             id="path3009" />
        </g>
      </g>
      <g
         id="g3040"
         transform="matrix(9.8562324,0,0,9.8562286,-1257.9608,-5706.3147)">
        <g
           id="g3018"
           inkscape:label="0" />
        <g
           id="g3020"
           inkscape:label="linie">
          <path
             id="path3026"
             d="m 152.33871,659.49409 a 6.110492,6.110492 0 0 1 -2.27585,4.75748 l -5.17814,4.17371 0,-19.02596 -3.05524,0 0,21.90606 a 6.110492,6.110492 0 0 0 -0.94883,3.27037 l 0,6.77464 4.96478,0 0,-4.39963 a 6.110492,6.110492 0 0 1 2.27585,-4.75748 l 6.90636,-5.5667 a 6.110492,6.110492 0 0 0 2.27585,-4.75748 l 0,-2.32909 4.01339,0 -6.49578,-10.14069 -6.49578,10.14069 4.01322,0"
             style="fill:#000000;fill-opacity:1;stroke:none"
             inkscape:connector-curvature="0" />
        </g>
      </g>
    </g>
  </g>
</svg>
