<?xml version="1.0" encoding="UTF-8" standalone="no"?>
<!-- Created with Inkscape (http://www.inkscape.org/) -->
<svg
   xmlns:svg="http://www.w3.org/2000/svg"
   xmlns="http://www.w3.org/2000/svg"
   version="1.0"
   width="440"
   height="285"
   viewBox="0 0 512.819 453.105"
   id="svg1903"
   xml:space="preserve"><defs
   id="defs1912">
			
			
			
		</defs>
	
		
	<g
   transform="matrix(0.2770357,0,0,0.2782139,-107.68738,-22.276522)"
   id="g2462"><g
     transform="matrix(0.6102023,0,0,0.9525315,52.596896,81.103556)"
     id="g4297"><rect
       width="4121.145"
       height="1698.9891"
       rx="10.948345"
       ry="12.658186"
       x="7.0418673"
       y="4.3112144"
       id="rect2648"
       style="fill:#000000;fill-opacity:1;stroke:#fafd4a;stroke-width:13.51250076;stroke-miterlimit:4;stroke-dasharray:none;stroke-opacity:1" /><rect
       width="4055.2939"
       height="1636.7485"
       rx="3.7285783"
       ry="4.2927551"
       x="-4092.499"
       y="35.432549"
       transform="scale(-1,1)"
       id="rect4588"
       style="fill:#fafd4a;fill-opacity:1;stroke:none;stroke-width:10;stroke-miterlimit:4;stroke-dasharray:none;stroke-opacity:1" /></g><path
     d="M 1923.7907,388.79903 C 2065.789,225.08536 1980.5519,187.34561 1791.5516,159.86699 C 1602.5513,132.38837 1384.6747,181.55297 1237.3626,323.41618 C 1132.7948,256.72259 1019.5964,317.10478 978.40983,425.81862 C 872.16633,360.245 771.66583,426.47811 752.24023,544.42861 C 650.34303,527.93408 606.06393,651.81625 687.96283,707.24111 L 608.39843,707.24111 L 608.39843,880.92004 L 491.99843,880.92004 L 491.99843,1284.8202 L 369.88883,1284.8202 L 369.88883,1251.3 L 320.52943,1251.3 L 320.52943,1409.8764 L 369.88883,1409.8764 L 369.88883,1374.5144 L 488.86723,1374.5144 C 421.40413,1414.3622 431.49823,1498.0488 496.60253,1533.0908 L 157.71693,1533.0908 L 157.71693,1619.4698 L 2473.7433,1619.4698 L 2473.7433,1533.0908 L 1824.7034,1533.0908 C 1889.1653,1509.9945 1935.3935,1448.3778 1935.3935,1375.9878 C 1935.3941,1375.4981 1935.3983,1375.0033 1935.3935,1374.5144 L 2138.7249,1374.5144 L 2257.3349,1374.5144 L 2257.3349,1409.8764 L 2306.5105,1409.8764 L 2306.5105,1251.3 L 2257.3349,1251.3 L 2257.3349,1284.8202 L 2138.7249,1284.8202 L 2138.7249,959.74781 L 1971.6767,959.74781 L 1971.6767,799.14544 L 2051.425,799.14544 L 2051.425,707.24111 L 1636.6584,707.24111 L 1636.6584,880.92004 L 1486.0016,880.92004 L 1486.0016,799.14544 L 1393.7292,799.14544 L 1393.7292,880.92004 L 1150.9838,880.92004 C 1155.5862,825.2354 1113.1182,794.89363 1064.0523,786.98976 C 1013.1557,790.8349 974.45803,828.25225 977.30463,880.92004 L 735.48043,880.92004 L 735.48043,717.18666 C 770.12233,714.74599 799.29423,692.38883 811.36143,661.38103 C 894.87173,719.73886 990.71103,678.40552 1033.1105,592.13047 C 1115.6449,659.49412 1219.8749,636.35877 1284.1436,557.13683 C 1500.5341,628.76902 1781.7924,552.5127 1923.7907,388.79903 z M 823.14883,1374.5144 L 859.06303,1374.5144 C 859.05893,1375.0034 859.06303,1375.498 859.06303,1375.9878 C 859.06303,1448.3779 905.29173,1509.9945 969.75373,1533.0908 L 560.32793,1533.0908 C 592.71233,1520.3646 615.76543,1488.9171 615.76543,1452.0529 C 615.76543,1451.3001 615.60043,1450.5913 615.58103,1449.8428 L 823.14883,1449.8428 L 823.14883,1374.5144 z M 1192.7918,1374.5144 L 1231.4689,1374.5144 C 1231.4647,1375.0034 1231.4689,1375.498 1231.4689,1375.9878 C 1231.4689,1448.3693 1277.661,1509.9881 1342.1596,1533.0908 L 1082.1016,1533.0908 C 1146.5636,1509.9945 1192.7918,1448.3778 1192.7918,1375.9878 C 1192.7918,1375.4981 1192.7964,1375.0033 1192.7918,1374.5144 z M 1565.3821,1374.5144 L 1601.6647,1374.5144 C 1601.6606,1375.0034 1601.6647,1375.498 1601.6647,1375.9878 C 1601.6653,1448.3779 1647.8935,1509.9945 1712.3554,1533.0908 L 1454.6914,1533.0908 C 1519.1541,1509.9945 1565.3821,1448.3778 1565.3821,1375.9878 C 1565.3821,1375.4981 1565.3862,1375.0033 1565.3821,1374.5144 z"
     id="path1981"
     style="fill:#000000;fill-rule:evenodd;stroke:none;stroke-width:1px;stroke-linecap:butt;stroke-linejoin:miter;stroke-opacity:1" /></g></svg>