<?xml version="1.0" encoding="UTF-8" standalone="no"?>
<!-- Created with Inkscape (http://www.inkscape.org/) -->
<svg
   xmlns:dc="http://purl.org/dc/elements/1.1/"
   xmlns:cc="http://creativecommons.org/ns#"
   xmlns:rdf="http://www.w3.org/1999/02/22-rdf-syntax-ns#"
   xmlns:svg="http://www.w3.org/2000/svg"
   xmlns="http://www.w3.org/2000/svg"
   xmlns:sodipodi="http://sodipodi.sourceforge.net/DTD/sodipodi-0.dtd"
   xmlns:inkscape="http://www.inkscape.org/namespaces/inkscape"
   width="600"
   height="900"
   id="svg2"
   sodipodi:version="0.32"
   inkscape:version="0.46"
   version="1.0"
   sodipodi:docname="Znak T-12.svg"
   inkscape:output_extension="org.inkscape.output.svg.inkscape">
  <defs
     id="defs4"><inkscape:perspective
   sodipodi:type="inkscape:persp3d"
   inkscape:vp_x="0 : 526.18109 : 1"
   inkscape:vp_y="0 : 1000 : 0"
   inkscape:vp_z="744.09448 : 526.18109 : 1"
   inkscape:persp3d-origin="372.04724 : 350.78739 : 1"
   id="perspective10" />
<inkscape:perspective
   id="perspective2392"
   inkscape:persp3d-origin="372.04724 : 350.78739 : 1"
   inkscape:vp_z="744.09448 : 526.18109 : 1"
   inkscape:vp_y="0 : 1000 : 0"
   inkscape:vp_x="0 : 526.18109 : 1"
   sodipodi:type="inkscape:persp3d" />
<inkscape:perspective
   sodipodi:type="inkscape:persp3d"
   inkscape:vp_x="0 : 600 : 1"
   inkscape:vp_y="0 : 1000 : 0"
   inkscape:vp_z="1000 : 600 : 1"
   inkscape:persp3d-origin="500 : 400 : 1"
   id="perspective3405" />
<inkscape:perspective
   sodipodi:type="inkscape:persp3d"
   inkscape:vp_x="0 : 526.18109 : 1"
   inkscape:vp_y="0 : 1000 : 0"
   inkscape:vp_z="744.09448 : 526.18109 : 1"
   inkscape:persp3d-origin="372.04724 : 350.78739 : 1"
   id="perspective3294" />
<inkscape:perspective
   id="perspective86"
   inkscape:persp3d-origin="500 : 400 : 1"
   inkscape:vp_z="1000 : 600 : 1"
   inkscape:vp_y="0 : 1000 : 0"
   inkscape:vp_x="0 : 600 : 1"
   sodipodi:type="inkscape:persp3d" />
<inkscape:perspective
   sodipodi:type="inkscape:persp3d"
   inkscape:vp_x="0 : 600 : 1"
   inkscape:vp_y="0 : 1000 : 0"
   inkscape:vp_z="1000 : 600 : 1"
   inkscape:persp3d-origin="500 : 400 : 1"
   id="perspective2620" />
<inkscape:perspective
   sodipodi:type="inkscape:persp3d"
   inkscape:vp_x="0 : 250 : 1"
   inkscape:vp_y="0 : 1000 : 0"
   inkscape:vp_z="500 : 250 : 1"
   inkscape:persp3d-origin="250 : 166.66667 : 1"
   id="perspective3175" />
<inkscape:perspective
   sodipodi:type="inkscape:persp3d"
   inkscape:vp_x="0 : 526.18109 : 1"
   inkscape:vp_y="0 : 1000 : 0"
   inkscape:vp_z="744.09448 : 526.18109 : 1"
   inkscape:persp3d-origin="372.04724 : 350.78739 : 1"
   id="perspective3162" />
<inkscape:perspective
   id="perspective2616"
   inkscape:persp3d-origin="372.04724 : 350.78739 : 1"
   inkscape:vp_z="744.09448 : 526.18109 : 1"
   inkscape:vp_y="0 : 1000 : 0"
   inkscape:vp_x="0 : 526.18109 : 1"
   sodipodi:type="inkscape:persp3d" />
<inkscape:perspective
   id="perspective2688"
   inkscape:persp3d-origin="372.04724 : 350.78739 : 1"
   inkscape:vp_z="744.09448 : 526.18109 : 1"
   inkscape:vp_y="0 : 1000 : 0"
   inkscape:vp_x="0 : 526.18109 : 1"
   sodipodi:type="inkscape:persp3d" />
<inkscape:perspective
   sodipodi:type="inkscape:persp3d"
   inkscape:vp_x="0 : 600 : 1"
   inkscape:vp_y="0 : 1000 : 0"
   inkscape:vp_z="1000 : 600 : 1"
   inkscape:persp3d-origin="500 : 400 : 1"
   id="perspective3648" />
<inkscape:perspective
   sodipodi:type="inkscape:persp3d"
   inkscape:vp_x="0 : 250 : 1"
   inkscape:vp_y="0 : 1000 : 0"
   inkscape:vp_z="500 : 250 : 1"
   inkscape:persp3d-origin="250 : 166.66667 : 1"
   id="perspective3646" />
<inkscape:perspective
   sodipodi:type="inkscape:persp3d"
   inkscape:vp_x="0 : 526.18109 : 1"
   inkscape:vp_y="0 : 1000 : 0"
   inkscape:vp_z="744.09448 : 526.18109 : 1"
   inkscape:persp3d-origin="372.04724 : 350.78739 : 1"
   id="perspective3644" />
<inkscape:perspective
   id="perspective3642"
   inkscape:persp3d-origin="372.04724 : 350.78739 : 1"
   inkscape:vp_z="744.09448 : 526.18109 : 1"
   inkscape:vp_y="0 : 1000 : 0"
   inkscape:vp_x="0 : 526.18109 : 1"
   sodipodi:type="inkscape:persp3d" />
<inkscape:perspective
   sodipodi:type="inkscape:persp3d"
   inkscape:vp_x="0 : 526.18109 : 1"
   inkscape:vp_y="0 : 1000 : 0"
   inkscape:vp_z="744.09448 : 526.18109 : 1"
   inkscape:persp3d-origin="372.04724 : 350.78739 : 1"
   id="perspective2403" />
<inkscape:perspective
   sodipodi:type="inkscape:persp3d"
   inkscape:vp_x="0 : 526.18109 : 1"
   inkscape:vp_y="0 : 1000 : 0"
   inkscape:vp_z="744.09448 : 526.18109 : 1"
   inkscape:persp3d-origin="372.04724 : 350.78739 : 1"
   id="perspective2390" />
<inkscape:perspective
   id="perspective3279"
   inkscape:persp3d-origin="372.04724 : 350.78739 : 1"
   inkscape:vp_z="744.09448 : 526.18109 : 1"
   inkscape:vp_y="0 : 1000 : 0"
   inkscape:vp_x="0 : 526.18109 : 1"
   sodipodi:type="inkscape:persp3d" />
<inkscape:perspective
   id="perspective3389"
   inkscape:persp3d-origin="500 : 400 : 1"
   inkscape:vp_z="1000 : 600 : 1"
   inkscape:vp_y="0 : 1000 : 0"
   inkscape:vp_x="0 : 600 : 1"
   sodipodi:type="inkscape:persp3d" />
<inkscape:perspective
   id="perspective3652"
   inkscape:persp3d-origin="372.04724 : 350.78739 : 1"
   inkscape:vp_z="744.09448 : 526.18109 : 1"
   inkscape:vp_y="0 : 1000 : 0"
   inkscape:vp_x="0 : 526.18109 : 1"
   sodipodi:type="inkscape:persp3d" />
<inkscape:perspective
   id="perspective3740"
   inkscape:persp3d-origin="500 : 400 : 1"
   inkscape:vp_z="1000 : 600 : 1"
   inkscape:vp_y="0 : 1000 : 0"
   inkscape:vp_x="0 : 600 : 1"
   sodipodi:type="inkscape:persp3d" />
<inkscape:perspective
   id="perspective4068"
   inkscape:persp3d-origin="372.04724 : 350.78739 : 1"
   inkscape:vp_z="744.09448 : 526.18109 : 1"
   inkscape:vp_y="0 : 1000 : 0"
   inkscape:vp_x="0 : 526.18109 : 1"
   sodipodi:type="inkscape:persp3d" />
<inkscape:perspective
   id="perspective4154"
   inkscape:persp3d-origin="372.04724 : 350.78739 : 1"
   inkscape:vp_z="744.09448 : 526.18109 : 1"
   inkscape:vp_y="0 : 1000 : 0"
   inkscape:vp_x="0 : 526.18109 : 1"
   sodipodi:type="inkscape:persp3d" />
<inkscape:perspective
   id="perspective4230"
   inkscape:persp3d-origin="372.04724 : 350.78739 : 1"
   inkscape:vp_z="744.09448 : 526.18109 : 1"
   inkscape:vp_y="0 : 1000 : 0"
   inkscape:vp_x="0 : 526.18109 : 1"
   sodipodi:type="inkscape:persp3d" />
<inkscape:perspective
   id="perspective3285"
   inkscape:persp3d-origin="372.04724 : 350.78739 : 1"
   inkscape:vp_z="744.09448 : 526.18109 : 1"
   inkscape:vp_y="0 : 1000 : 0"
   inkscape:vp_x="0 : 526.18109 : 1"
   sodipodi:type="inkscape:persp3d" />
<inkscape:perspective
   id="perspective3375"
   inkscape:persp3d-origin="372.04724 : 350.78739 : 1"
   inkscape:vp_z="744.09448 : 526.18109 : 1"
   inkscape:vp_y="0 : 1000 : 0"
   inkscape:vp_x="0 : 526.18109 : 1"
   sodipodi:type="inkscape:persp3d" />
<inkscape:perspective
   sodipodi:type="inkscape:persp3d"
   inkscape:vp_x="0 : 600 : 1"
   inkscape:vp_y="0 : 1000 : 0"
   inkscape:vp_z="1000 : 600 : 1"
   inkscape:persp3d-origin="500 : 400 : 1"
   id="perspective3526" />
<inkscape:perspective
   sodipodi:type="inkscape:persp3d"
   inkscape:vp_x="0 : 526.18109 : 1"
   inkscape:vp_y="0 : 1000 : 0"
   inkscape:vp_z="744.09448 : 526.18109 : 1"
   inkscape:persp3d-origin="372.04724 : 350.78739 : 1"
   id="perspective3524" />
<inkscape:perspective
   id="perspective3522"
   inkscape:persp3d-origin="372.04724 : 350.78739 : 1"
   inkscape:vp_z="744.09448 : 526.18109 : 1"
   inkscape:vp_y="0 : 1000 : 0"
   inkscape:vp_x="0 : 526.18109 : 1"
   sodipodi:type="inkscape:persp3d" />
<inkscape:perspective
   id="perspective3520"
   inkscape:persp3d-origin="372.04724 : 350.78739 : 1"
   inkscape:vp_z="744.09448 : 526.18109 : 1"
   inkscape:vp_y="0 : 1000 : 0"
   inkscape:vp_x="0 : 526.18109 : 1"
   sodipodi:type="inkscape:persp3d" />
<inkscape:perspective
   sodipodi:type="inkscape:persp3d"
   inkscape:vp_x="0 : 526.18109 : 1"
   inkscape:vp_y="0 : 1000 : 0"
   inkscape:vp_z="744.09448 : 526.18109 : 1"
   inkscape:persp3d-origin="372.04724 : 350.78739 : 1"
   id="perspective3518" />
<inkscape:perspective
   id="perspective3516"
   inkscape:persp3d-origin="372.04724 : 350.78739 : 1"
   inkscape:vp_z="744.09448 : 526.18109 : 1"
   inkscape:vp_y="0 : 1000 : 0"
   inkscape:vp_x="0 : 526.18109 : 1"
   sodipodi:type="inkscape:persp3d" />
<inkscape:perspective
   id="perspective3514"
   inkscape:persp3d-origin="250 : 166.66667 : 1"
   inkscape:vp_z="500 : 250 : 1"
   inkscape:vp_y="0 : 1000 : 0"
   inkscape:vp_x="0 : 250 : 1"
   sodipodi:type="inkscape:persp3d" />
<inkscape:perspective
   id="perspective3512"
   inkscape:persp3d-origin="500 : 400 : 1"
   inkscape:vp_z="1000 : 600 : 1"
   inkscape:vp_y="0 : 1000 : 0"
   inkscape:vp_x="0 : 600 : 1"
   sodipodi:type="inkscape:persp3d" />
<inkscape:perspective
   sodipodi:type="inkscape:persp3d"
   inkscape:vp_x="0 : 526.18109 : 1"
   inkscape:vp_y="0 : 1000 : 0"
   inkscape:vp_z="744.09448 : 526.18109 : 1"
   inkscape:persp3d-origin="372.04724 : 350.78739 : 1"
   id="perspective3510" />
<inkscape:perspective
   sodipodi:type="inkscape:persp3d"
   inkscape:vp_x="0 : 526.18109 : 1"
   inkscape:vp_y="0 : 1000 : 0"
   inkscape:vp_z="744.09448 : 526.18109 : 1"
   inkscape:persp3d-origin="372.04724 : 350.78739 : 1"
   id="perspective3508" />
<inkscape:perspective
   id="perspective3506"
   inkscape:persp3d-origin="372.04724 : 350.78739 : 1"
   inkscape:vp_z="744.09448 : 526.18109 : 1"
   inkscape:vp_y="0 : 1000 : 0"
   inkscape:vp_x="0 : 526.18109 : 1"
   sodipodi:type="inkscape:persp3d" />
<inkscape:perspective
   id="perspective3504"
   inkscape:persp3d-origin="250 : 166.66667 : 1"
   inkscape:vp_z="500 : 250 : 1"
   inkscape:vp_y="0 : 1000 : 0"
   inkscape:vp_x="0 : 250 : 1"
   sodipodi:type="inkscape:persp3d" />
<inkscape:perspective
   id="perspective3502"
   inkscape:persp3d-origin="500 : 400 : 1"
   inkscape:vp_z="1000 : 600 : 1"
   inkscape:vp_y="0 : 1000 : 0"
   inkscape:vp_x="0 : 600 : 1"
   sodipodi:type="inkscape:persp3d" />
<inkscape:perspective
   sodipodi:type="inkscape:persp3d"
   inkscape:vp_x="0 : 600 : 1"
   inkscape:vp_y="0 : 1000 : 0"
   inkscape:vp_z="1000 : 600 : 1"
   inkscape:persp3d-origin="500 : 400 : 1"
   id="perspective3500" />
<inkscape:perspective
   id="perspective3498"
   inkscape:persp3d-origin="372.04724 : 350.78739 : 1"
   inkscape:vp_z="744.09448 : 526.18109 : 1"
   inkscape:vp_y="0 : 1000 : 0"
   inkscape:vp_x="0 : 526.18109 : 1"
   sodipodi:type="inkscape:persp3d" />
<inkscape:perspective
   id="perspective3496"
   inkscape:persp3d-origin="500 : 400 : 1"
   inkscape:vp_z="1000 : 600 : 1"
   inkscape:vp_y="0 : 1000 : 0"
   inkscape:vp_x="0 : 600 : 1"
   sodipodi:type="inkscape:persp3d" />
<inkscape:perspective
   sodipodi:type="inkscape:persp3d"
   inkscape:vp_x="0 : 526.18109 : 1"
   inkscape:vp_y="0 : 1000 : 0"
   inkscape:vp_z="744.09448 : 526.18109 : 1"
   inkscape:persp3d-origin="372.04724 : 350.78739 : 1"
   id="perspective3494" />
<inkscape:perspective
   id="perspective3492"
   inkscape:persp3d-origin="372.04724 : 350.78739 : 1"
   inkscape:vp_z="744.09448 : 526.18109 : 1"
   inkscape:vp_y="0 : 1000 : 0"
   inkscape:vp_x="0 : 526.18109 : 1"
   sodipodi:type="inkscape:persp3d" />
<inkscape:perspective
   id="perspective3619"
   inkscape:persp3d-origin="500 : 400 : 1"
   inkscape:vp_z="1000 : 600 : 1"
   inkscape:vp_y="0 : 1000 : 0"
   inkscape:vp_x="0 : 600 : 1"
   sodipodi:type="inkscape:persp3d" />

			
			
			
		<inkscape:perspective
   id="perspective3779"
   inkscape:persp3d-origin="256.40948 : 151.035 : 1"
   inkscape:vp_z="512.81897 : 226.55251 : 1"
   inkscape:vp_y="0 : 1000 : 0"
   inkscape:vp_x="0 : 226.55251 : 1"
   sodipodi:type="inkscape:persp3d" />
<inkscape:perspective
   id="perspective3797"
   inkscape:persp3d-origin="372.04724 : 350.78739 : 1"
   inkscape:vp_z="744.09448 : 526.18109 : 1"
   inkscape:vp_y="0 : 1000 : 0"
   inkscape:vp_x="0 : 526.18109 : 1"
   sodipodi:type="inkscape:persp3d" />
<inkscape:perspective
   id="perspective3853"
   inkscape:persp3d-origin="4574.7285 : 545.32792 : 1"
   inkscape:vp_z="9149.457 : 817.99188 : 1"
   inkscape:vp_y="0 : 1000 : 0"
   inkscape:vp_x="0 : 817.99188 : 1"
   sodipodi:type="inkscape:persp3d" />
<inkscape:perspective
   id="perspective3880"
   inkscape:persp3d-origin="372.04724 : 350.78739 : 1"
   inkscape:vp_z="744.09448 : 526.18109 : 1"
   inkscape:vp_y="0 : 1000 : 0"
   inkscape:vp_x="0 : 526.18109 : 1"
   sodipodi:type="inkscape:persp3d" />
<inkscape:perspective
   id="perspective3907"
   inkscape:persp3d-origin="4574.7285 : 545.32792 : 1"
   inkscape:vp_z="9149.457 : 817.99188 : 1"
   inkscape:vp_y="0 : 1000 : 0"
   inkscape:vp_x="0 : 817.99188 : 1"
   sodipodi:type="inkscape:persp3d" />
<inkscape:perspective
   id="perspective3954"
   inkscape:persp3d-origin="372.04724 : 350.78739 : 1"
   inkscape:vp_z="744.09448 : 526.18109 : 1"
   inkscape:vp_y="0 : 1000 : 0"
   inkscape:vp_x="0 : 526.18109 : 1"
   sodipodi:type="inkscape:persp3d" />
<inkscape:perspective
   id="perspective4138"
   inkscape:persp3d-origin="250.00003 : 166.66667 : 1"
   inkscape:vp_z="500.00006 : 250 : 1"
   inkscape:vp_y="0 : 1000 : 0"
   inkscape:vp_x="0 : 250 : 1"
   sodipodi:type="inkscape:persp3d" />
<inkscape:perspective
   id="perspective4244"
   inkscape:persp3d-origin="500 : 400 : 1"
   inkscape:vp_z="1000 : 600 : 1"
   inkscape:vp_y="0 : 1000 : 0"
   inkscape:vp_x="0 : 600 : 1"
   sodipodi:type="inkscape:persp3d" />
</defs>
  <sodipodi:namedview
     id="base"
     pagecolor="#ffffff"
     bordercolor="#666666"
     borderopacity="1.0"
     gridtolerance="10000"
     guidetolerance="10"
     objecttolerance="10"
     inkscape:pageopacity="0.0"
     inkscape:pageshadow="2"
     inkscape:zoom="0.33345764"
     inkscape:cx="1231.5098"
     inkscape:cy="126.87834"
     inkscape:document-units="px"
     inkscape:current-layer="layer1"
     showgrid="false"
     inkscape:window-width="1440"
     inkscape:window-height="844"
     inkscape:window-x="-4"
     inkscape:window-y="-4" />
  <metadata
     id="metadata7">
    <rdf:RDF>
      <cc:Work
         rdf:about="">
        <dc:format>image/svg+xml</dc:format>
        <dc:type
           rdf:resource="http://purl.org/dc/dcmitype/StillImage" />
      </cc:Work>
    </rdf:RDF>
  </metadata>
  <g
     inkscape:label="Layer 1"
     inkscape:groupmode="layer"
     id="layer1"
     transform="translate(116.38659,5633.8936)">
    <g
       id="g3564"
       transform="matrix(0.8616637,0,0,1.0084725,-864.8975,-3530.1112)" />
    <g
       id="g2874"
       transform="translate(1477.0941,-6335.2566)" />
    <g
       id="g2893"
       transform="translate(1477.0941,-6335.2566)" />
    <rect
       style="fill:#fdfb33;fill-opacity:1;stroke:#000000;stroke-width:10.00000763;stroke-miterlimit:4;stroke-dasharray:none;stroke-opacity:1"
       id="rect2409"
       width="590"
       height="890"
       x="-111.38658"
       y="-5628.8936"
       ry="22.474365" />
    <g
       id="g3910"
       transform="translate(-6171.9959,575.27673)" />
    <g
       id="g4559"
       transform="translate(-1076.2105,-0.8301775)"
       style="fill:#000000">
      <g
         style="opacity:1;fill:#000000"
         inkscape:transform-center-y="320.94106"
         inkscape:transform-center-x="-15.821034"
         inkscape:label="Layer 1"
         id="g4141"
         transform="matrix(1.4669106,-0.3930575,0.3930575,1.4669106,1799.4208,-6070.5963)">
        <g
           id="g3067"
           transform="matrix(0.401786,0,0,-0.401761,312.2645,529.9748)"
           style="fill:#000000">
          <g
             id="g8360"
             style="fill:#000000">
            <path
               sodipodi:nodetypes="cccccccccccccccccccccc"
               id="path1307"
               d="M -2053.86,671.71355 L -2079.9994,573.60845 L -2096.3747,557.28305 L -2096.3747,410.15075 L -2079.9994,410.15075 L -2079.9994,361.12365 L -2030.9753,361.12365 L -2030.9753,410.15075 L -1802.1285,410.15075 L -1802.1285,361.12365 L -1753.1044,361.12365 L -1753.1044,410.15075 L -1736.7291,410.15075 L -1736.7291,557.28305 L -1753.1044,573.60845 L -1779.2438,671.71355 L -2053.86,671.71355 z M -2040.7903,640.52004 L -1792.3135,640.52004 L -1779.2438,589.98475 L -2053.86,589.98475 L -2040.7903,640.52004 z"
               style="fill:#000000;fill-opacity:1;fill-rule:evenodd;stroke:none;stroke-width:1px;stroke-linecap:butt;stroke-linejoin:miter;stroke-opacity:1" />
          </g>
        </g>
      </g>
      <path
         transform="translate(-167.70088,0)"
         d="M 1429.0248,-5179.4272 A 1.5,1.5 0 1 1 1426.0248,-5179.4272 A 1.5,1.5 0 1 1 1429.0248,-5179.4272 z"
         sodipodi:ry="1.5"
         sodipodi:rx="1.5"
         sodipodi:cy="-5179.4272"
         sodipodi:cx="1427.5248"
         style="fill:#000000;stroke:none"
         id="path4149"
         sodipodi:type="arc" />
      <path
         sodipodi:nodetypes="ccccccc"
         id="path4157"
         d="M 978.05851,-5177.26 L 1541.5893,-5177.26 L 1541.5893,-5274.8044 L 1255.8538,-5333.0932 L 1255.8538,-5286.7043 L 978.05851,-5230.0082 L 978.05851,-5177.26 z"
         style="fill:#000000;fill-rule:evenodd;stroke:none;stroke-width:1px;stroke-linecap:butt;stroke-linejoin:miter;stroke-opacity:1" />
      <g
         transform="translate(-5.061595,0)"
         id="g4542"
         style="fill:#000000">
        <g
           id="g4532"
           style="fill:#000000">
          <path
             d="M 1047.3272,-5092.4585 L 1047.3272,-5014.3363 L 1060.6788,-5014.3363 L 1060.6788,-5046.8289 L 1082.8768,-5046.8289 C 1082.8768,-5046.8289 1096.3596,-5054.1288 1096.3595,-5069.6164 C 1096.3596,-5086.4638 1082.8768,-5092.4585 1082.8768,-5092.4585 L 1060.6788,-5092.4585 L 1047.3272,-5092.4585 z M 1078.9182,-5079.4418 C 1078.9182,-5079.4418 1083.5,-5074.5316 1083.4999,-5069.6164 C 1083.4999,-5064.7012 1078.9182,-5059.7801 1078.9182,-5059.7801 L 1060.6788,-5059.7801 L 1060.6788,-5079.2561 L 1078.9182,-5079.4418 z"
             style="fill:#000000;fill-opacity:1;stroke:none;stroke-width:7;stroke-miterlimit:4;stroke-opacity:1"
             id="path4484" />
          <path
             d="M 1218.1678,-5092.4585 L 1218.1678,-5014.3363 L 1204.9507,-5014.3363 L 1204.9507,-5017.79 C 1201.1033,-5015.5905 1196.648,-5014.3363 1191.8981,-5014.3363 C 1177.3791,-5014.3363 1165.5954,-5026.0874 1165.5954,-5040.5665 C 1165.5954,-5055.0455 1177.3791,-5066.7968 1191.8981,-5066.7966 C 1196.648,-5066.7966 1201.1033,-5065.5315 1204.9507,-5063.332 L 1204.9507,-5092.4585 L 1218.1678,-5092.4585 z M 1191.5037,-5053.5067 C 1184.296,-5053.5067 1178.4399,-5047.6668 1178.4399,-5040.4791 C 1178.4399,-5033.2913 1184.296,-5027.4624 1191.5037,-5027.4624 C 1198.7111,-5027.4624 1204.5566,-5033.2913 1204.5566,-5040.4791 C 1204.5566,-5047.6668 1198.7111,-5053.5067 1191.5037,-5053.5067 z"
             style="fill:#000000;fill-opacity:1;stroke:none;stroke-width:7;stroke-miterlimit:4;stroke-dasharray:none;stroke-opacity:1"
             id="path4486" />
          <path
             d="M 1241.4141,-5092.4585 L 1241.4141,-5066.8294 L 1228.32,-5060.4359 L 1228.32,-5047.2442 L 1241.4141,-5053.6378 L 1241.4141,-5014.3363 L 1254.6289,-5014.3363 L 1254.6289,-5060.0861 L 1267.723,-5066.4798 L 1267.723,-5079.6712 L 1254.6289,-5073.2777 L 1254.6289,-5092.4585 L 1241.4141,-5092.4585 z"
             style="fill:#000000;fill-opacity:1;stroke:none;stroke-width:7;stroke-miterlimit:4;stroke-opacity:1"
             id="path4490" />
          <path
             d="M 1274.0022,-5066.4178 C 1274.0022,-5056.3322 1274.2181,-5046.7293 1273.97,-5037.0553 C 1273.97,-5024.5146 1284.1986,-5014.3363 1296.8012,-5014.3363 C 1308.8658,-5014.3363 1319.525,-5023.5111 1319.525,-5037.0553 C 1319.525,-5050.0804 1319.525,-5066.4178 1319.525,-5066.4178 L 1306.7302,-5066.4178 C 1306.7981,-5056.5021 1306.539,-5046.6579 1306.698,-5036.6922 C 1306.698,-5031.2556 1302.2538,-5026.8439 1296.7906,-5026.8439 C 1292.2234,-5026.8439 1288.3768,-5029.9307 1287.2373,-5034.1179 L 1287.4842,-5066.4178 L 1274.0022,-5066.4178 z"
             style="fill:#000000;fill-opacity:1;stroke:none;stroke-width:7;stroke-miterlimit:4;stroke-dasharray:none;stroke-opacity:1"
             id="path4492" />
          <path
             d="M 1436.5553,-5066.4178 L 1452.9908,-5014.0764 L 1444.6063,-4988.2956 L 1457.9924,-4988.2956 L 1482.4438,-5066.4178 L 1469.4263,-5066.4178 L 1459.4995,-5034.8058 L 1449.5726,-5066.4178 L 1436.5553,-5066.4178 z"
             style="fill:#000000;fill-opacity:1;stroke:none;stroke-width:7;stroke-miterlimit:4;stroke-opacity:1"
             id="path4494" />
          <path
             d="M 1343.2653,-5092.4585 L 1343.2653,-5079.3405 L 1356.4242,-5079.3405 L 1356.4242,-5092.4585 L 1343.2653,-5092.4585 z M 1330.4077,-5066.4178 L 1330.4077,-5053.487 L 1348.2782,-5053.487 L 1330.4077,-5020.7489 L 1330.4077,-5014.3363 L 1365.8802,-5014.3363 L 1365.8802,-5027.2671 L 1347.855,-5027.2671 L 1365.8802,-5060.8841 L 1365.8802,-5066.4178 L 1330.4077,-5066.4178 z"
             style="fill:#000000;fill-opacity:1;stroke:none;stroke-width:7;stroke-miterlimit:4;stroke-opacity:1"
             id="path4496" />
          <path
             d="M 1127.333,-5066.4178 C 1112.886,-5066.4178 1101.1609,-5054.7516 1101.1609,-5040.377 C 1101.1609,-5026.0026 1112.886,-5014.3363 1127.333,-5014.3363 C 1141.7801,-5014.3363 1153.5054,-5026.0026 1153.5054,-5040.377 C 1153.5054,-5054.7516 1141.7801,-5066.4178 1127.333,-5066.4178 z M 1127.7257,-5053.2239 C 1134.8976,-5053.2239 1140.7246,-5047.426 1140.7246,-5040.2902 C 1140.7246,-5033.1545 1134.8976,-5027.3676 1127.7257,-5027.3676 C 1120.5539,-5027.3676 1114.7377,-5033.1545 1114.7377,-5040.2902 C 1114.7377,-5047.426 1120.5538,-5053.2239 1127.7257,-5053.2239 z"
             style="fill:#000000;fill-opacity:1;stroke:none;stroke-width:7;stroke-miterlimit:4;stroke-dasharray:none;stroke-opacity:1"
             id="path4498" />
          <path
             d="M 1380.7011,-5066.4178 L 1380.7011,-5014.3363 L 1393.6727,-5014.3363 L 1393.6727,-5047.2779 C 1394.1438,-5048.6878 1397.7579,-5053.3649 1403.1938,-5053.3649 C 1410.2851,-5053.365 1412.6824,-5046.8629 1412.6824,-5046.8629 L 1412.9022,-5014.3363 L 1425.8656,-5014.3363 L 1425.9062,-5046.8629 C 1424.8568,-5059.7557 1415.8443,-5066.4178 1406.7175,-5066.4178 C 1399.7874,-5066.4179 1394.9097,-5062.6377 1393.6727,-5061.6165 L 1393.6727,-5066.4178 L 1380.7011,-5066.4178 z"
             style="fill:#000000;fill-opacity:1;stroke:none;stroke-width:7;stroke-miterlimit:4;stroke-opacity:1"
             id="path4500" />
        </g>
        <g
           id="g4525"
           transform="translate(5.8199,0)"
           style="fill:#000000">
          <path
             d="M 1228.0213,-4913.4548 L 1228.0213,-4835.3326 L 1241.2194,-4835.3326 L 1241.2194,-4855.191 L 1245.2575,-4855.191 L 1261.0382,-4835.3326 L 1275.5713,-4835.3326 L 1257.0548,-4860.8852 L 1274.7615,-4887.1154 L 1260.2283,-4887.1154 L 1246.1767,-4868.2187 L 1241.2194,-4868.2187 L 1241.2194,-4913.4548 L 1228.0213,-4913.4548 z"
             style="fill:#000000;fill-opacity:1;stroke:none;stroke-width:7;stroke-miterlimit:4;stroke-opacity:1"
             id="path4488" />
          <path
             style="fill:#000000;fill-opacity:1;stroke:none;stroke-width:7;stroke-miterlimit:4;stroke-dasharray:none;stroke-opacity:1"
             d="M 1199.0179,-4887.4219 C 1198.48,-4887.4165 1197.9292,-4887.4 1197.3557,-4887.3824 C 1190.926,-4887.3823 1185.4415,-4880.8705 1185.4415,-4874.083 C 1185.4988,-4866.0542 1189.3354,-4863.0019 1195.2973,-4858.9628 C 1202.8096,-4854.3796 1205.3246,-4855.1225 1204.7176,-4849.4236 C 1202.1633,-4843.1769 1190.6639,-4846.9 1184.7686,-4848.7112 L 1181.6417,-4838.9741 C 1186.5733,-4836.8995 1191.8619,-4835.5982 1197.0785,-4835.3326 C 1205.3221,-4835.3327 1215.3652,-4838.2198 1215.3652,-4850.9277 C 1215.9005,-4857.624 1211.0917,-4861.7822 1207.3697,-4864.2272 C 1204.0857,-4867.099 1196.4575,-4868.7505 1196.4057,-4873.9246 C 1197.9104,-4879.2765 1205.6193,-4876.3311 1209.2697,-4875.1121 L 1209.3487,-4886.4325 C 1205.763,-4887.1865 1202.7843,-4887.4602 1199.0179,-4887.4219 z"
             id="path4502" />
          <path
             d="M 1120.7689,-4887.4141 C 1120.7689,-4877.3284 1120.9848,-4867.7256 1120.7368,-4858.0515 C 1120.7368,-4845.5108 1130.9653,-4835.3326 1143.5679,-4835.3326 C 1155.6326,-4835.3326 1166.2917,-4844.5073 1166.2917,-4858.0515 C 1166.2917,-4871.0767 1166.2917,-4887.4141 1166.2917,-4887.4141 L 1153.4968,-4887.4141 C 1153.5647,-4877.4985 1153.3057,-4867.6542 1153.4646,-4857.6884 C 1153.4646,-4852.2519 1149.0205,-4847.8403 1143.5573,-4847.8403 C 1138.9901,-4847.8403 1135.1434,-4850.9269 1134.0039,-4855.1141 L 1134.2509,-4887.4141 L 1120.7689,-4887.4141 z"
             style="fill:#000000;fill-opacity:1;stroke:none;stroke-width:7;stroke-miterlimit:4;stroke-dasharray:none;stroke-opacity:1"
             id="path4504" />
          <path
             d="M 1309.1581,-4887.4141 C 1294.7111,-4887.4141 1282.9858,-4875.7477 1282.9858,-4861.3733 C 1282.9858,-4846.9989 1294.7111,-4835.3326 1309.1581,-4835.3326 C 1323.6052,-4835.3326 1335.3304,-4846.9989 1335.3304,-4861.3733 C 1335.3304,-4875.7477 1323.6052,-4887.4141 1309.1581,-4887.4141 z M 1309.5507,-4874.2202 C 1316.7225,-4874.2202 1322.5495,-4868.4222 1322.5495,-4861.2865 C 1322.5495,-4854.1508 1316.7225,-4848.3638 1309.5507,-4848.3638 C 1302.3789,-4848.3638 1296.5626,-4854.1508 1296.5626,-4861.2865 C 1296.5626,-4868.4222 1302.3788,-4874.2202 1309.5507,-4874.2202 z"
             style="fill:#000000;fill-opacity:1;stroke:none;stroke-width:7;stroke-miterlimit:4;stroke-dasharray:none;stroke-opacity:1"
             id="path4506" />
          <path
             d="M 1349.8444,-4913.4548 L 1349.8444,-4835.3326 L 1363.0425,-4835.3326 L 1363.0425,-4855.191 L 1367.0806,-4855.191 L 1382.8614,-4835.3326 L 1397.3944,-4835.3326 L 1378.8779,-4860.8852 L 1396.5846,-4887.1154 L 1382.0515,-4887.1154 L 1367.9998,-4868.2187 L 1363.0425,-4868.2187 L 1363.0425,-4913.4548 L 1349.8444,-4913.4548 z"
             style="fill:#000000;fill-opacity:1;stroke:none;stroke-width:7;stroke-miterlimit:4;stroke-opacity:1"
             id="path4508" />
        </g>
      </g>
    </g>
  </g>
</svg>
