<?xml version="1.0" encoding="UTF-8" standalone="no"?>
<!-- Created with Inkscape (http://www.inkscape.org/) -->

<svg
   xmlns:svg="http://www.w3.org/2000/svg"
   xmlns="http://www.w3.org/2000/svg"
   version="1.1"
   width="320"
   height="700.89282"
   id="svg3805">
  <defs
     id="defs3807" />
  <g
     transform="translate(-228.57143,-241.91577)"
     id="layer1">
    <rect
       width="320"
       height="700.89282"
       rx="22.321428"
       ry="22.321428"
       x="-548.57141"
       y="241.91577"
       transform="scale(-1,1)"
       id="rect3797"
       style="fill:#000000;fill-opacity:1;stroke:none" />
    <rect
       width="304.01785"
       height="685.08923"
       rx="13.392857"
       ry="13.392857"
       x="-540.61194"
       y="249.74445"
       transform="scale(-1,1)"
       id="rect3799"
       style="fill:#febe0b;fill-opacity:1;stroke:none" />
    <path
       d="m 467.05618,901.02291 0,-96.5469 c 0,-19.70607 -0.48009,-24.04943 -5.3192,-34.70587 -3.96992,-8.74236 -12.85818,-16.27025 -18.56604,-22.0228 l -55.38789,-48.05342 c -12.49914,-12.49913 -30.32189,-24.25143 -30.32189,-41.87468 l -0.31832,-33.15038 c 0,0 -1.02865,-40.33418 1.20932,-50.28674 2.69845,-12.0209 21.15072,-25.79705 29.89174,-33.41262 l 36.55821,-31.85115 c 30.93841,-25.47079 42.30914,-35.79682 42.30914,-64.43852 0,-11.1299 0,-42.24453 0,-42.24453 l 0,-31.94811 33.96016,0 -56.78572,-77.32141 -56.78571,77.32141 33.21429,0 0,32.95826 c 0,0 0,19.94999 0,23.5257 0,15.39183 -0.97685,17.3478 -3.87723,24.05072 -2.9842,6.89663 -18.34749,18.45456 -28.01237,26.90082 l -36.67144,32.04766 c -18.49033,14.79017 -29.87908,22.17395 -36.55851,38.58451 -9.0754,22.29721 -6.30903,46.59813 -6.30903,76.114 0,32.85012 -3.96038,62.95281 14.56253,81.47572 l 28.54101,25.12366 42.76911,37.30923 c 0,0 13.89771,11.50151 18.77021,16.37401 7.28713,7.28713 6.78572,16.21549 6.78572,30.1628 0,32.081 0,85.89686 0,85.89686 l 46.34191,0.0118 0,-3e-5 z"
       id="path3801"
       style="fill:#000000;stroke:none" />
  </g>
</svg>
