<?xml version="1.0" encoding="UTF-8" standalone="no"?>
<!-- Created with Inkscape (http://www.inkscape.org/) -->
<svg
   xmlns:svg="http://www.w3.org/2000/svg"
   xmlns="http://www.w3.org/2000/svg"
   version="1.0"
   width="1000"
   height="700"
   id="svg4284">
  <defs
     id="defs4286" />
  <g
     transform="translate(-394.39499,552.83392)"
     id="g3184">
    <path
       d="M 429.39499,-547.83392 L 1359.395,-547.83392 C 1376.015,-547.83392 1389.395,-534.45392 1389.395,-517.83392 L 1389.395,112.16608 C 1389.395,128.78608 1376.015,142.16608 1359.395,142.16608 L 429.39499,142.16608 C 412.77499,142.16608 399.39499,128.78608 399.39499,112.16608 L 399.39499,-517.83392 C 399.39499,-534.45392 412.77499,-547.83392 429.39499,-547.83392 z"
       id="rect2411"
       style="fill:#ffffff;fill-opacity:1;stroke:#000000;stroke-width:10;stroke-miterlimit:4;stroke-opacity:1" />
    <g
       transform="matrix(2.0932948,0,0,1.9421132,-344.7296,-677.08278)"
       id="g4205">
      <path
         d="M 531.39843,115.19513 C 511.47725,115.19513 498.45959,127.3646 498.45959,146.21428 L 498.45959,288.21908 L 685.43921,288.21908 L 685.43921,146.21428 C 685.43921,127.3646 672.42153,115.19513 652.50039,115.19513 L 531.39843,115.19513 z"
         id="rect1969"
         style="fill:#ff9700;fill-opacity:1;fill-rule:nonzero;stroke:#000000;stroke-width:5.02747011;stroke-miterlimit:4;stroke-dasharray:none;stroke-dashoffset:0;stroke-opacity:1" />
      <path
         d="M 495.94584,301.10962 L 495.94584,375.79897 L 518.66222,375.79897 L 518.66222,343.84311 L 583.36462,343.84311 C 585.14054,346.43859 588.14662,348.14789 591.57263,348.14788 C 594.9987,348.14788 598.02081,346.43859 599.79671,343.84311 L 665.23653,343.84311 L 665.23653,375.79897 L 687.95295,375.79897 L 687.95295,301.10962 L 665.23653,301.10962 L 665.23653,333.06547 L 599.79671,333.06547 C 598.02081,330.46999 594.9987,328.7607 591.57263,328.7607 C 588.14661,328.7607 585.14054,330.46999 583.36462,333.06547 L 518.66222,333.06547 L 518.66222,301.10962 L 495.94584,301.10962 z"
         id="rect3746"
         style="fill:#000000;fill-opacity:1;fill-rule:nonzero;stroke:none;stroke-width:10;stroke-miterlimit:4;stroke-dasharray:none;stroke-dashoffset:0;stroke-opacity:1" />
      <path
         d="M 108.92857,306.96423 C 108.92857,313.76917 103.41208,319.28566 96.60714,319.28566 C 89.802203,319.28566 84.285711,313.76917 84.285711,306.96423 C 84.285711,300.15929 89.802203,294.6428 96.607141,294.6428 C 103.41208,294.6428 108.92857,300.15929 108.92857,306.96423 L 108.92857,306.96423 z"
         transform="matrix(1.100872,0,0,1.100872,485.5973,0.52597)"
         id="path4670"
         style="fill:#000000;fill-opacity:1;fill-rule:nonzero;stroke:none;stroke-width:10;stroke-miterlimit:4;stroke-dasharray:none;stroke-dashoffset:0;stroke-opacity:1" />
    </g>
  </g>
</svg>
