<?xml version="1.0" encoding="UTF-8" standalone="no"?>
<!-- Created with Inkscape (http://www.inkscape.org/) -->
<svg
   xmlns:svg="http://www.w3.org/2000/svg"
   xmlns="http://www.w3.org/2000/svg"
   version="1.0"
   width="1000"
   height="700"
   id="svg3486">
  <defs
     id="defs3488" />
  <g
     transform="translate(286.08902,840.77979)"
     id="g3174">
    <rect
       width="990"
       height="690"
       rx="30"
       ry="30"
       x="-281.08902"
       y="-835.77979"
       id="rect2402"
       style="fill:#ffffff;fill-opacity:1;stroke:#000000;stroke-width:10;stroke-miterlimit:4;stroke-dasharray:none;stroke-opacity:1" />
    <path
       d="M 189.12308,-749.67464 C 170.87628,-749.67464 156.04628,-734.43998 156.04628,-715.69641 C 156.04628,-696.95264 170.87628,-681.71819 189.12308,-681.71819 C 207.36918,-681.71819 222.19918,-696.95264 222.19918,-715.69641 C 222.19918,-734.43998 207.36918,-749.67464 189.12308,-749.67464 z M 166.81348,-675.35225 L 127.69488,-641.8515 L 96.168179,-486.52254 L -9.1808183,-486.52254 L -9.1808183,-461.05877 L -83.545018,-435.59505 L -108.33272,-333.73997 L -83.545018,-333.73997 C -83.545018,-277.51882 -39.121918,-231.88494 15.606882,-231.88494 C 52.278382,-231.88494 84.281779,-252.37877 101.43538,-282.81247 L 267.97968,-282.81247 L 322.04868,-384.66751 L 337.07618,-384.66751 C 329.64198,-369.31939 325.45678,-352.03642 325.45678,-333.73997 L 325.45678,-282.81247 L 351.17428,-282.81247 C 368.32738,-252.37877 400.33128,-231.88494 437.00278,-231.88494 C 491.73158,-231.88494 536.15468,-277.51882 536.15468,-333.73997 C 536.15468,-367.04067 520.57448,-396.63503 496.49358,-415.22407 L 503.93028,-425.40953 C 485.27988,-439.81429 462.11558,-448.32691 437.00278,-448.32691 C 420.53058,-448.32691 404.91208,-444.65502 390.83488,-438.06172 L 368.21608,-473.79068 L 398.81348,-473.79068 L 402.91928,-524.71817 L 337.85088,-524.71817 L 337.85088,-556.54787 L 241.10018,-581.37504 L 166.81348,-675.35225 z M 203.76308,-566.01713 L 228.39628,-541.50836 L 337.85088,-517.47691 L 254.03628,-517.47691 L 219.72048,-490.97873 L 185.63688,-502.99433 L 203.76308,-566.01713 z M 15.606882,-409.81283 C 37.443782,-409.81283 57.127082,-400.12341 70.682782,-384.66751 L 23.663082,-384.66751 C 21.047682,-385.10023 18.340782,-385.30411 15.606882,-385.30411 C -12.105118,-385.30411 -34.588618,-362.20785 -34.588618,-333.73997 C -34.588618,-305.27214 -12.105118,-282.17588 15.606882,-282.17588 C 18.340782,-282.17588 21.047682,-282.37976 23.663082,-282.81247 L 70.682782,-282.81247 C 57.127082,-267.35653 37.443782,-257.66691 15.606882,-257.66691 C -25.276418,-257.66691 -58.447018,-291.74184 -58.447018,-333.73997 C -58.447018,-375.73809 -25.276418,-409.81308 15.606882,-409.81283 z M 437.00278,-409.81283 C 477.88608,-409.81283 511.05668,-375.73809 511.05668,-333.73997 C 511.05668,-291.74184 477.88608,-257.66691 437.00278,-257.66691 C 396.11888,-257.66691 362.94888,-291.74184 362.94888,-333.73997 C 362.94888,-357.54815 373.61088,-378.83244 390.29298,-392.78411 L 405.32038,-373.76573 C 394.01888,-364.30908 386.80678,-349.87319 386.80678,-333.73997 C 386.80678,-305.27214 409.29028,-282.17588 437.00278,-282.17588 C 464.71478,-282.17588 487.19828,-305.27214 487.19828,-333.73997 C 487.19828,-362.20785 464.71478,-385.30411 437.00278,-385.30411 C 432.92408,-385.30411 428.94808,-384.81602 425.15058,-383.87179 L 411.59498,-405.19761 C 419.51448,-408.16872 428.08508,-409.81283 437.00278,-409.81283 z M 263.48668,-384.66751 L 288.27488,-384.66751 L 263.48668,-346.47188 L 263.48668,-384.66751 z"
       id="motocyklista"
       style="fill:#000000;fill-opacity:1;fill-rule:evenodd;stroke:none;stroke-width:1px;stroke-linecap:butt;stroke-linejoin:miter;stroke-opacity:1" />
  </g>
</svg>
