<?xml version="1.0" encoding="UTF-8" standalone="no"?>
<!-- Created with Inkscape (http://www.inkscape.org/) -->

<svg
   xmlns:dc="http://purl.org/dc/elements/1.1/"
   xmlns:cc="http://creativecommons.org/ns#"
   xmlns:rdf="http://www.w3.org/1999/02/22-rdf-syntax-ns#"
   xmlns:svg="http://www.w3.org/2000/svg"
   xmlns="http://www.w3.org/2000/svg"
   xmlns:sodipodi="http://sodipodi.sourceforge.net/DTD/sodipodi-0.dtd"
   xmlns:inkscape="http://www.inkscape.org/namespaces/inkscape"
   version="1.0"
   width="1000"
   height="700"
   id="svg4028"
   inkscape:version="0.48.2 r9819"
   sodipodi:docname="AJAX.svg">
  <metadata
     id="metadata15">
    <rdf:RDF>
      <cc:Work
         rdf:about="">
        <dc:format>image/svg+xml</dc:format>
        <dc:type
           rdf:resource="http://purl.org/dc/dcmitype/StillImage" />
      </cc:Work>
    </rdf:RDF>
  </metadata>
  <sodipodi:namedview
     pagecolor="#ffffff"
     bordercolor="#666666"
     borderopacity="1"
     objecttolerance="10"
     gridtolerance="10"
     guidetolerance="10"
     inkscape:pageopacity="0"
     inkscape:pageshadow="2"
     inkscape:window-width="1280"
     inkscape:window-height="1004"
     id="namedview13"
     showgrid="false"
     fit-margin-top="0"
     fit-margin-left="0"
     fit-margin-right="0"
     fit-margin-bottom="0"
     inkscape:zoom="0.644"
     inkscape:cx="258.61789"
     inkscape:cy="376.97468"
     inkscape:window-x="-8"
     inkscape:window-y="-8"
     inkscape:window-maximized="1"
     inkscape:current-layer="svg4028" />
  <defs
     id="defs4030" />
  <g
     transform="translate(-201.25,317.84375)"
     id="g3213">
    <path
       d="m 236.2603,-312.85716 930,0 c 16.62,0 30,13.38 30,30 l 0,630 c 0,16.62 -13.38,30 -30,30 l -930,0 c -16.62,0 -30,-13.38 -30,-30 l 0,-630 c 0,-16.62 13.38,-30 30,-30 z"
       id="rect2417"
       style="fill:#ffffff;fill-opacity:1;stroke:#000000;stroke-width:10;stroke-miterlimit:4;stroke-opacity:1"
       inkscape:connector-curvature="0" />
    <g
       transform="matrix(1.3471167,0,0,1.3471167,1374.4314,15.830941)"
       id="g3205">
      <path
         d="m -348.30747,-110.091 c 0,42.89651 -69.04533,77.671001 -154.21707,77.671001 -85.17174,0 -154.21708,-34.774491 -154.21708,-77.671001 0,-42.89651 69.04534,-77.671 154.21708,-77.671 85.17174,0 154.21707,34.77449 154.21707,77.671 l 0,0 z"
         id="path4761"
         style="fill:#ff9700;fill-opacity:1;fill-rule:nonzero;stroke:none"
         inkscape:connector-curvature="0" />
      <g
         transform="matrix(0.855316,0,0,0.855316,-72.70729,-30.246814)"
         id="g3195">
        <path
           d="m -677.48374,-21.135402 0,145.948422 41.39888,0 0,-62.444076 117.91507,0 c 3.23644,5.071769 8.71482,8.411889 14.95845,8.411847 6.24377,0 11.75132,-3.340078 14.98776,-8.411847 l 119.25893,0 0,62.444076 41.39889,0 0,-145.948422 -41.39889,0 0,62.444081 -119.25893,0 c -3.23644,-5.071769 -8.74399,-8.411847 -14.98776,-8.411847 -6.24363,0 -11.72201,3.340078 -14.95845,8.411847 l -117.91507,0 0,-62.444081 -41.39888,0 z"
           id="rect3746"
           style="fill:#000000;fill-opacity:1;fill-rule:nonzero;stroke:none"
           inkscape:connector-curvature="0" />
        <path
           d="m -477.80541,51.838824 c 0,14.638681 -11.06747,26.505669 -24.71991,26.505669 -13.65242,0 -24.7199,-11.866988 -24.7199,-26.505669 0,-14.638682 11.06748,-26.50567 24.71991,-26.50567 13.65243,0 24.7199,11.866988 24.7199,26.50567 l 0,0 z"
           id="path4670"
           style="fill:#000000;fill-opacity:1;fill-rule:nonzero;stroke:none"
           inkscape:connector-curvature="0" />
      </g>
      <path
         d="m -712.24937,171.36705 c 0,0 26.56711,30.61245 53.13425,30.61245 26.56707,0 53.13421,-26.65284 53.13421,-26.65284 0,0 26.56711,26.65284 53.13422,26.65284 26.56707,0 53.13422,-26.65284 53.13422,-26.65284 0,0 26.56707,26.65284 53.13418,26.65284 26.56711,0 53.13425,-26.65284 53.13425,-26.65284 0,0 26.56711,26.65284 53.13425,26.65284 26.56704,0 53.13418,-30.61245 53.13418,-30.61245"
         id="path4847"
         style="fill:none;stroke:#003399;stroke-width:20;stroke-linecap:butt;stroke-linejoin:miter;stroke-miterlimit:4;stroke-opacity:1;stroke-dasharray:none"
         inkscape:connector-curvature="0" />
      <path
         d="m -712.24941,133.185 c 0,0 26.56711,30.6124 53.13425,30.6124 26.56711,0 53.13425,-30.6124 53.13425,-30.6124 0,0 26.56708,30.6124 53.13419,30.6124 26.56707,0 53.13421,-30.6124 53.13421,-30.6124 0,0 26.56711,30.6124 53.13418,30.6124 26.56715,0 53.13429,-30.6124 53.13429,-30.6124 0,0 26.56704,30.6124 53.13418,30.6124 26.56711,0 53.13425,-30.6124 53.13425,-30.6124"
         id="path9274"
         style="fill:none;stroke:#003399;stroke-width:20;stroke-linecap:butt;stroke-linejoin:miter;stroke-miterlimit:4;stroke-opacity:1;stroke-dasharray:none"
         inkscape:connector-curvature="0" />
    </g>
  </g>
</svg>
