<?xml version="1.0" encoding="UTF-8" standalone="no"?>
<!-- Created with Inkscape (http://www.inkscape.org/) -->
<svg
   xmlns:svg="http://www.w3.org/2000/svg"
   xmlns="http://www.w3.org/2000/svg"
   version="1.0"
   width="1000"
   height="500"
   id="svg2660">
  <defs
     id="defs2662" />
  <g
     transform="translate(1175.0585,217.82714)"
     id="g3175">
    <path
       d="M -1140.0585,-212.82714 L -210.05853,-212.82714 C -193.43853,-212.82714 -180.05853,-199.44714 -180.05853,-182.82714 L -180.05853,247.17286 C -180.05853,263.79286 -193.43853,277.17286 -210.05853,277.17286 L -1140.0585,277.17286 C -1156.6785,277.17286 -1170.0585,263.79286 -1170.0585,247.17286 L -1170.0585,-182.82714 C -1170.0585,-199.44714 -1156.6785,-212.82714 -1140.0585,-212.82714 z"
       id="rect2402"
       style="fill:#ffffff;fill-opacity:1;stroke:#000000;stroke-width:10.00000095;stroke-miterlimit:4;stroke-opacity:1" />
    <path
       d="M -1030.7538,-96.505773 L -1037.6396,-22.852151 L -1037.6396,99.924373 L -865.55589,112.22042 C -865.29218,139.10176 -843.40814,160.85149 -816.433,160.85149 C -789.45781,160.85149 -767.51229,139.10171 -767.24862,112.22042 L -521.38814,112.22042 C -521.12441,139.10176 -499.24043,160.85149 -472.26522,160.85149 C -445.29008,160.85149 -423.34454,139.10171 -423.08085,112.22042 L -329.69198,112.22042 L -312.47744,99.924373 L -312.47744,26.270714 L -356.74338,-96.505773 L -1030.7538,-96.505773 z M -995.34097,-71.913545 L -992.08262,-71.913545 L -920.88829,-71.913545 L -914.74027,-66.995149 L -914.74027,9.117694 L -920.88829,14.036131 L -997.06262,14.036131 L -1006.8994,9.117694 L -1000.2597,-66.995149 L -995.34097,-71.913545 z M -892.6073,-71.913545 L -789.38154,-71.913545 L -779.54467,-66.995149 L -779.54467,9.117694 L -789.38154,14.036131 L -892.6073,14.036131 L -902.44418,9.117694 L -902.44418,-66.995149 L -892.6073,-71.913545 z M -757.4117,-71.913545 L -666.48208,-71.913545 L -656.64521,-66.995149 L -656.64521,9.117694 L -666.48208,14.036131 L -757.4117,14.036131 L -767.24862,9.117694 L -767.24862,-66.995149 L -757.4117,-71.913545 z M -548.43953,-71.913545 L -432.91773,-71.913545 L -423.08085,-66.995149 L -423.08085,9.117694 L -432.91773,14.036131 L -548.43953,14.036131 L -558.27642,9.117694 L -558.27642,-66.995149 L -548.43953,-71.913545 z M -400.94785,-71.913545 L -360.12486,-71.913545 L -324.77355,26.270714 L -349.36574,50.862942 L -400.94785,50.862942 L -410.78472,38.566849 L -410.78472,-66.995149 L -400.94785,-71.913545 z M -632.05299,-71.42175 L -607.46083,-71.42175 L -607.46083,14.036131 L -632.05299,14.036131 L -632.05299,-71.42175 z M -595.16468,-71.42175 L -570.57254,-71.42175 L -570.57254,14.036131 L -595.16468,14.036131 L -595.16468,-71.42175 z"
       id="autobus"
       style="fill:#000000;fill-opacity:1;fill-rule:evenodd;stroke:none;stroke-width:1px;stroke-linecap:butt;stroke-linejoin:miter;stroke-opacity:1" />
  </g>
</svg>
