<?xml version="1.0" encoding="UTF-8" standalone="no"?>
<!-- Created with Inkscape (http://www.inkscape.org/) -->

<svg
   xmlns:dc="http://purl.org/dc/elements/1.1/"
   xmlns:cc="http://creativecommons.org/ns#"
   xmlns:rdf="http://www.w3.org/1999/02/22-rdf-syntax-ns#"
   xmlns:svg="http://www.w3.org/2000/svg"
   xmlns="http://www.w3.org/2000/svg"
   xmlns:sodipodi="http://sodipodi.sourceforge.net/DTD/sodipodi-0.dtd"
   xmlns:inkscape="http://www.inkscape.org/namespaces/inkscape"
   version="1.0"
   width="1000"
   height="800"
   id="svg2"
   inkscape:version="0.48.2 r9819"
   sodipodi:docname="AJAX.svg">
  <metadata
     id="metadata16">
    <rdf:RDF>
      <cc:Work
         rdf:about="">
        <dc:format>image/svg+xml</dc:format>
        <dc:type
           rdf:resource="http://purl.org/dc/dcmitype/StillImage" />
      </cc:Work>
    </rdf:RDF>
  </metadata>
  <sodipodi:namedview
     pagecolor="#ffffff"
     bordercolor="#666666"
     borderopacity="1"
     objecttolerance="10"
     gridtolerance="10"
     guidetolerance="10"
     inkscape:pageopacity="0"
     inkscape:pageshadow="2"
     inkscape:window-width="1280"
     inkscape:window-height="1004"
     id="namedview14"
     showgrid="false"
     fit-margin-top="0"
     fit-margin-left="0"
     fit-margin-right="0"
     fit-margin-bottom="0"
     inkscape:zoom="0.59"
     inkscape:cx="406.1383"
     inkscape:cy="347.43308"
     inkscape:window-x="-8"
     inkscape:window-y="-8"
     inkscape:window-maximized="1"
     inkscape:current-layer="g3253" />
  <defs
     id="defs4" />
  <g
     transform="translate(0.0625,-10.0625)"
     id="g3253">
    <rect
       width="990"
       height="790"
       rx="29.699999"
       ry="29.625002"
       x="4.9505062"
       y="15.061367"
       id="rect3193"
       style="fill:#ffffff;fill-opacity:1;stroke:#000000;stroke-width:10;stroke-miterlimit:4;stroke-opacity:1;stroke-dasharray:none" />
    <g
       transform="matrix(1.1477873,0,0,1.1449225,1202.9706,397.30667)"
       id="g3204">
      <path
         d="m -459.31245,169.15445 106.29434,-209.306843 -57.97003,-9.323121 38.30932,-125.089746 -170.14433,111.023656 -39.35259,-170.590546 -47.26886,110.03158 -81.26303,-106.06045 3.67567,133.80383 -128.42624,-42.46721 73.93611,138.93200306 -110.46045,-0.82636558 120.29859,116.53993252 52.9755,-97.337353 197.33421,-3.651643 42.06179,154.322276 z"
         id="path5941"
         style="fill:#ff9700;fill-opacity:1;fill-rule:evenodd;stroke:#d40000;stroke-width:8.99613857;stroke-linecap:butt;stroke-linejoin:miter;stroke-miterlimit:4;stroke-opacity:1;stroke-dasharray:none"
         inkscape:connector-curvature="0" />
      <g
         transform="matrix(0.5635394,0,0,-0.565559,-885.36339,404.30045)"
         id="g3067">
        <path
           d="m 337.79961,324.25292 0,-70.72648 -88.72494,0 0,70.72648 -26.61748,0 0,229.86108 26.61748,17.68162 35.48998,150.29378 425.87971,0 35.48998,-150.29378 26.61748,-17.68162 0,-229.86108 -26.61748,0 0,-70.72648 -88.72494,0 0,70.72648 -319.40979,0 z"
           id="path1307"
           style="fill:#000000;fill-opacity:1;fill-rule:evenodd;stroke:none"
           inkscape:connector-curvature="0" />
        <path
           d="m 290,600 20,100 380,0 20,-100 -420,0 z"
           id="path2186"
           style="fill:#ffffff;fill-opacity:1;fill-rule:evenodd;stroke:none"
           inkscape:connector-curvature="0" />
        <path
           d="m 358.71478,506.36258 c 0,18.06 -15.52783,32.70052 -34.68237,32.70052 -19.15454,0 -34.68237,-14.64052 -34.68237,-32.70052 0,-18.06 15.52783,-32.70052 34.68237,-32.70052 19.15454,0 34.68237,14.64052 34.68237,32.70052 z"
           transform="matrix(1.081241,0,0,1.146771,-62.85713,-65.81963)"
           id="path3061"
           style="fill:#ffffff;fill-opacity:1;fill-rule:nonzero;stroke:none"
           inkscape:connector-curvature="0" />
        <path
           d="m 358.71478,506.36258 c 0,18.06 -15.52783,32.70052 -34.68237,32.70052 -19.15454,0 -34.68237,-14.64052 -34.68237,-32.70052 0,-18.06 15.52783,-32.70052 34.68237,-32.70052 19.15454,0 34.68237,14.64052 34.68237,32.70052 z"
           transform="matrix(1.081241,0,0,1.146771,362.1429,-65.81975)"
           id="path3122"
           style="fill:#ffffff;fill-opacity:1;fill-rule:nonzero;stroke:none"
           inkscape:connector-curvature="0" />
        <rect
           width="500"
           height="25"
           x="250"
           y="427.36218"
           id="rect3065"
           style="fill:#ffffff;fill-opacity:1;fill-rule:nonzero;stroke:none" />
      </g>
    </g>
  </g>
</svg>
