<?xml version="1.0" encoding="UTF-8" standalone="no"?>
<!-- Created with Inkscape (http://www.inkscape.org/) -->
<svg
   xmlns:svg="http://www.w3.org/2000/svg"
   xmlns="http://www.w3.org/2000/svg"
   version="1.0"
   width="999.99994"
   height="650"
   id="svg2">
  <defs
     id="defs4" />
  <g
     transform="translate(-470.15158,1433.9197)"
     id="layer1">
    <g
       transform="translate(257.38687,-161.22035)"
       id="g3207">
      <rect
         width="989.99994"
         height="640"
         rx="30"
         ry="27.826086"
         x="217.76471"
         y="-1267.6993"
         id="rect3205"
         style="fill:#ffffff;fill-opacity:1;stroke:#000000;stroke-width:10;stroke-miterlimit:4;stroke-dasharray:none;stroke-opacity:1" />
      <path
         d="M 559.4939,-1174.6227 L 558.99399,-1025.7178 L 386.22694,-1025.7178 L 386.22694,-865.74836 L 407.9228,-844.28576 C 399.77321,-831.75566 395.02526,-816.81166 395.02526,-800.76076 C 395.02526,-756.60922 430.85843,-720.77606 475.01001,-720.77603 C 519.16159,-720.77605 554.99474,-756.60916 554.99475,-800.76076 C 554.99475,-804.85476 554.65583,-808.86286 554.0616,-812.79186 L 717.53042,-812.79186 C 739.2074,-758.87608 791.99781,-720.77603 853.6378,-720.77603 C 915.26981,-720.77603 968.06295,-758.88714 989.74515,-812.79186 L 1039.3024,-812.79186 L 1039.3024,-843.81916 L 998.37689,-843.81916 C 999.6238,-851.50916 1000.2765,-859.37456 1000.2765,-867.41466 C 1000.2765,-924.72406 967.35078,-974.37246 919.39193,-998.48966 L 919.45858,-1150.494 L 729.62812,-1150.494 L 686.96959,-1025.7178 L 588.85496,-1025.7178 L 588.88829,-1174.6227 L 559.4939,-1174.6227 z M 731.76104,-1107.8354 L 798.94823,-1107.8354 L 797.88177,-1025.7178 L 704.033,-1025.7178 L 731.76104,-1107.8354 z M 814.94518,-1107.8354 L 884.26529,-1107.8354 L 884.26529,-1025.7178 L 814.94518,-1025.7178 L 814.94518,-1107.8354 z"
         id="rect2409"
         style="fill:#000000;fill-opacity:1;stroke:none" />
    </g>
  </g>
</svg>
