<?xml version="1.0" encoding="UTF-8" standalone="no"?>
<!-- Created with Inkscape (http://www.inkscape.org/) -->
<svg
   xmlns:svg="http://www.w3.org/2000/svg"
   xmlns="http://www.w3.org/2000/svg"
   version="1.0"
   width="1000"
   height="600"
   id="svg2">
  <defs
     id="defs4" />
  <g
     transform="translate(190.01253,798.21088)"
     id="layer1">
    <g
       id="g3410">
      <path
         d="M -155.01253,-793.21088 L 774.98747,-793.21088 C 791.60747,-793.21088 804.98747,-779.83088 804.98747,-763.21088 L 804.98747,-233.21088 C 804.98747,-216.59088 791.60747,-203.21088 774.98747,-203.21088 L -155.01253,-203.21088 C -171.63253,-203.21088 -185.01253,-216.59088 -185.01253,-233.21088 L -185.01253,-763.21088 C -185.01253,-779.83088 -171.63253,-793.21088 -155.01253,-793.21088 z"
         id="rect3205"
         style="fill:#ffffff;fill-opacity:1;stroke:#000000;stroke-width:10;stroke-miterlimit:4;stroke-opacity:1" />
      <g
         id="g3406">
        <path
           d="M -184.85792,-350.15625 L -184.85792,-450.03125 L -62.5,-450.03125 L -62.5,-525.65625 L -184.85792,-525.65625 L -184.84375,-575.5625 L -71.0625,-575.5625 L 85.84375,-398.65625 L 85.84375,-368.71875 L 67.3125,-350.15625 L 36.90625,-350.15625 C 36.907278,-350.02271 36.90625,-349.88378 36.90625,-349.75 C 36.90625,-321.65477 14.095237,-298.90623 -14,-298.90625 C -42.095237,-298.90626 -64.906238,-321.65478 -64.90625,-349.75 C -64.906249,-349.88378 -64.907278,-350.02272 -64.90625,-350.15625 L -184.85792,-350.15625 z"
           id="path3404"
           style="fill:#000000;fill-rule:evenodd;stroke:#000000;stroke-width:1.32800007;stroke-linecap:butt;stroke-linejoin:miter;stroke-miterlimit:4;stroke-dasharray:none;stroke-opacity:1" />
        <path
           d="M 235.8571,-651.23846 L 159.6696,-575.86346 L 159.6696,-400.05096 L 205.2321,-368.53253 L 34.2321,-368.53253 L 34.2321,-349.53253 L 404.2321,-349.53253 C 406.08484,-321.043 429.99557,-298.73847 458.95085,-298.73846 C 487.90632,-298.73846 511.37967,-321.04273 513.2321,-349.53253 L 561.2321,-349.53253 L 657.51335,-420.14471 L 657.51335,-575.86346 L 560.9821,-651.23846 L 235.8571,-651.23846 z M 257.4821,-601.23846 L 360.01335,-601.23846 L 360.01335,-397.83221 L 343.57585,-397.83221 L 343.57585,-584.83221 L 273.9196,-584.83221 L 273.9196,-397.83221 L 257.4821,-397.83221 L 257.4821,-601.23846 z M 406.07585,-601.23846 L 560.38835,-601.23846 L 560.38835,-526.23846 L 406.07585,-526.23846 L 406.07585,-601.23846 z"
           id="path2586"
           style="fill:#000000;fill-rule:evenodd;stroke:#000000;stroke-width:1.01035547px;stroke-linecap:butt;stroke-linejoin:miter;stroke-opacity:1" />
      </g>
    </g>
  </g>
</svg>
