<?xml version="1.0" encoding="UTF-8" standalone="no"?>
<!-- Created with Inkscape (http://www.inkscape.org/) -->
<svg
   xmlns:svg="http://www.w3.org/2000/svg"
   xmlns="http://www.w3.org/2000/svg"
   version="1.0"
   width="1000"
   height="500"
   id="svg3676">
  <defs
     id="defs3678" />
  <g
     transform="translate(659.38324,186.69096)"
     id="g3187">
    <rect
       width="990"
       height="490"
       rx="30"
       ry="30"
       x="-654.38324"
       y="-181.69096"
       id="rect2402"
       style="fill:#ffffff;fill-opacity:1;stroke:#000000;stroke-width:10;stroke-miterlimit:4;stroke-dasharray:none;stroke-opacity:1" />
    <path
       d="M -311.10834,-96.895456 L -335.57994,-71.863484 L -335.57994,-46.831511 L -394.31224,-46.831511 L -408.99514,28.26438 L -453.04454,53.296299 L -453.04454,143.41133 L -462.83314,143.41133 L -462.83314,153.42412 L -453.04454,153.42412 L -453.04454,168.44328 L -399.20654,168.44328 C -399.20654,198.84205 -375.08714,223.51353 -345.36864,223.51353 C -315.65004,223.51353 -291.53064,198.84205 -291.53064,168.44328 L -56.601812,168.44328 C -56.601812,198.84205 -32.482462,223.51353 -2.7639617,223.51353 C 26.954428,223.51353 51.073888,198.84205 51.073888,168.44328 L 144.06667,168.44328 L 144.06667,-71.863484 L 124.48927,-96.895456 L -311.10834,-96.895456 z M -389.41804,-11.786803 L -335.57994,-11.786803 L -335.57994,28.26438 L -394.31224,28.26438 L -396.26994,28.26438 L -389.41804,-11.786803 z"
       id="korpus"
       style="fill:#000000;fill-opacity:1;fill-rule:evenodd;stroke:#000000;stroke-width:0.99001116px;stroke-linecap:butt;stroke-linejoin:miter;stroke-opacity:1" />
  </g>
</svg>
