<?xml version="1.0" encoding="UTF-8" standalone="no"?>
<!-- Created with Inkscape (http://www.inkscape.org/) -->
<svg
   xmlns:svg="http://www.w3.org/2000/svg"
   xmlns="http://www.w3.org/2000/svg"
   version="1.0"
   width="1000"
   height="510.00003"
   id="svg2">
  <defs
     id="defs4" />
  <g
     transform="translate(642.85724,436.20929)"
     id="layer1">
    <g
       id="g3257">
      <rect
         width="990"
         height="500.00003"
         rx="30"
         ry="30.612246"
         x="-637.85724"
         y="-431.20929"
         id="rect2402"
         style="fill:#ffffff;fill-opacity:1;stroke:#000000;stroke-width:10;stroke-miterlimit:4;stroke-dasharray:none;stroke-opacity:1" />
      <path
         d="M -552.67411,-341.64677 L -577.14286,-316.61552 L -577.14286,-291.58427 L -635.86161,-291.58427 L -639.61032,-272.41797 L -640,-77.637817 C -639.99999,-47.239047 -616.64261,-21.240528 -586.92411,-21.240528 C -557.20551,-21.240528 -533.14286,-46.229578 -533.14286,-76.628348 L -298.14286,-76.628348 C -298.14286,-46.229578 -274.04886,-21.240528 -244.33036,-21.240528 C -214.61199,-21.240528 -190.14286,-46.229578 -190.14286,-76.628348 L 92.857143,-76.615528 C 93.169343,-46.490028 117.42644,-20.771778 146.95094,-20.771778 C 176.47554,-20.771758 200.54524,-46.489718 200.85714,-76.615528 L 350.85714,-76.615528 L 350.85714,-275.61552 L 43.857143,-275.61552 L 43.857143,-107.33427 L -97.486607,-107.33427 L -97.486607,-316.61552 L -117.08036,-341.64677 L -552.67411,-341.64677 z M -638,-257.63782 L -577,-257.63782 L -577,-216.63782 L -638,-216.63782 L -638,-257.63782 z"
         id="korpus"
         style="fill:#000000;fill-opacity:1;fill-rule:evenodd;stroke:#000000;stroke-width:0.99001116px;stroke-linecap:butt;stroke-linejoin:miter;stroke-opacity:1" />
    </g>
  </g>
</svg>
