<?xml version="1.0" encoding="UTF-8" standalone="no"?>
<!-- Created with Inkscape (http://www.inkscape.org/) -->

<svg
   xmlns:dc="http://purl.org/dc/elements/1.1/"
   xmlns:cc="http://creativecommons.org/ns#"
   xmlns:rdf="http://www.w3.org/1999/02/22-rdf-syntax-ns#"
   xmlns:svg="http://www.w3.org/2000/svg"
   xmlns="http://www.w3.org/2000/svg"
   xmlns:sodipodi="http://sodipodi.sourceforge.net/DTD/sodipodi-0.dtd"
   xmlns:inkscape="http://www.inkscape.org/namespaces/inkscape"
   version="1.0"
   width="1637.4932"
   height="647.6391"
   id="svg2"
   inkscape:version="0.48.4 r9939"
   sodipodi:docname="AJAX.svg">
  <metadata
     id="metadata11">
    <rdf:RDF>
      <cc:Work
         rdf:about="">
        <dc:format>image/svg+xml</dc:format>
        <dc:type
           rdf:resource="http://purl.org/dc/dcmitype/StillImage" />
      </cc:Work>
    </rdf:RDF>
  </metadata>
  <sodipodi:namedview
     pagecolor="#ffffff"
     bordercolor="#666666"
     borderopacity="1"
     objecttolerance="10"
     gridtolerance="10"
     guidetolerance="10"
     inkscape:pageopacity="0"
     inkscape:pageshadow="2"
     inkscape:window-width="1280"
     inkscape:window-height="1001"
     id="namedview9"
     showgrid="false"
     inkscape:zoom="0.1929779"
     inkscape:cx="818.74658"
     inkscape:cy="323.81955"
     inkscape:window-x="-8"
     inkscape:window-y="-8"
     inkscape:window-maximized="1"
     inkscape:current-layer="svg2" />
  <defs
     id="defs4" />
  <g
     transform="translate(-854.9281,-856.75958)"
     id="layer1">
    <rect
       width="1612.4932"
       height="622.6391"
       ry="44.651402"
       x="867.4281"
       y="869.25958"
       id="rect3717"
       style="fill:none;fill-opacity:1;stroke:#000000;stroke-width:25;stroke-miterlimit:4;stroke-dasharray:none;stroke-opacity:1" />
    <rect
       width="1612.4932"
       height="622.6391"
       ry="44.651402"
       x="867.4281"
       y="869.25958"
       id="rect2409"
       style="fill:#003399;fill-opacity:1;stroke:#ffffff;stroke-width:15;stroke-miterlimit:4;stroke-dasharray:none;stroke-opacity:1" />
    <g
       transform="translate(1126.5051,782.31377)"
       id="g3653"
       style="fill:#ffffff">
      <path
         d="M 7.1319684,403.56038 C 7.4682213,390.26346 11.984642,379.23667 20.681244,370.47997 C 29.377658,361.72353 40.23628,357.18309 53.257144,356.85864 C 66.277755,357.18309 77.136377,361.72354 85.833044,370.47998 C 94.529393,379.23667 99.045814,390.26346 99.38232,403.56038 C 99.045821,416.85748 94.529402,427.88427 85.83305,436.64077 C 77.136379,445.3974 66.277755,449.93784 53.257144,450.26212 C 40.236273,449.93785 29.377645,445.3974 20.681228,436.64078 C 11.984622,427.88427 7.4682067,416.85748 7.1319684,403.56038 L 7.1319684,403.56038 z M -38.993208,311.31003 L -38.993208,588.06108 L 7.1319684,588.06108 L 7.1319684,483.36898 C 13.951002,487.34618 21.240768,490.40802 29.001288,492.55452 C 36.761603,494.70103 44.84688,495.78643 53.257144,495.81073 C 79.298499,495.13807 101.01575,486.10523 118.40895,468.71218 C 135.80177,451.31919 144.83461,429.60194 145.5075,403.56038 C 144.83462,377.51899 135.80178,355.80174 118.40895,338.40856 C 101.01574,321.0157 79.298492,311.98286 53.257144,311.31003 C 44.84688,311.3345 36.761601,312.41988 29.001282,314.56617 C 21.240759,316.71283 13.950995,319.77467 7.1319684,323.75172 L 7.1319684,311.31003 L -38.993208,311.31003 L -38.993208,311.31003 z M 224.78422,219.05967 L 224.78422,311.31003 L 178.65905,334.37261 L 178.65905,380.49779 L 224.78422,357.4352 L 224.78422,495.81073 L 270.9094,495.81073 L 270.9094,334.37261 L 317.03458,311.31003 L 317.03458,265.18485 L 270.9094,288.24744 L 270.9094,219.05967 L 224.78422,219.05967 L 224.78422,219.05967 z M 338.94346,403.56038 C 339.6161,429.60195 348.64894,451.3192 366.042,468.71218 C 383.43496,486.10522 405.15221,495.13806 431.19381,495.81073 C 441.1578,495.77047 450.64822,494.2629 459.66509,491.28802 C 468.68167,488.31314 476.98306,484.1125 484.5693,478.68607 L 488.85028,495.81073 L 534.97546,495.81073 L 523.44417,449.68555 L 523.44417,311.31003 L 477.31899,311.31003 L 477.31899,323.75172 C 470.49972,319.77467 463.20996,316.71282 455.44968,314.56617 C 447.68912,312.41987 439.60384,311.33449 431.19381,311.31003 C 405.15222,311.98287 383.43497,321.01571 366.042,338.40856 C 348.64893,355.80173 339.61609,377.51898 338.94346,403.56038 L 338.94346,403.56038 z M 385.06864,403.56038 C 385.4049,390.26346 389.92133,379.23667 398.61791,370.47997 C 407.31434,361.72353 418.17296,357.18309 431.19381,356.85864 C 444.21444,357.18309 455.07306,361.72354 463.76971,370.47998 C 472.46608,379.23667 476.9825,390.26346 477.31899,403.56038 C 476.9825,416.85748 472.46609,427.88427 463.76972,436.64077 C 455.07306,445.3974 444.21444,449.93784 431.19381,450.26212 C 418.17296,449.93785 407.31433,445.3974 398.6179,436.64078 C 389.9213,427.88427 385.40489,416.85748 385.06864,403.56038 L 385.06864,403.56038 z M 603.87402,265.18485 L 603.87402,311.31003 L 569.28014,311.31003 L 569.28014,357.4352 L 603.87402,357.4352 L 603.87402,426.62297 C 604.36983,446.21473 611.12716,462.51998 624.14604,475.53876 C 637.16479,488.55757 653.47002,495.31489 673.06179,495.81073 L 696.98923,449.68555 L 673.06179,449.68555 C 666.53113,449.52032 661.09605,447.26789 656.75654,442.92824 C 652.41683,438.5887 650.16439,433.15362 649.9992,426.62297 L 649.9992,357.4352 L 684.59308,357.4352 L 684.59308,311.31003 L 649.9992,311.31003 L 649.9992,219.05967 L 603.87402,265.18485 L 603.87402,265.18485 z M 742.96968,311.31003 L 742.96968,495.81073 L 789.09486,495.81073 L 789.09486,392.02908 C 789.3449,382.23134 792.72449,374.07815 799.23367,367.56947 C 805.74266,361.06106 813.89434,357.68297 823.68874,357.4352 C 833.48445,357.68327 841.63707,361.06193 848.14661,367.57121 C 854.65588,374.08075 858.03455,382.23336 858.28262,392.02908 L 858.28262,495.81073 L 904.4078,495.81073 L 904.4078,380.49779 C 903.89186,360.90626 897.09475,344.60103 884.01643,331.58204 C 870.93776,318.56339 854.67231,311.80605 835.22003,311.31003 C 826.29248,311.36127 817.90905,312.96176 810.06971,316.11152 C 802.23016,319.26163 795.23855,323.65471 789.09486,329.29078 L 789.09486,311.31003 L 742.96968,311.31003 L 742.96968,311.31003 z M 960.91026,403.56038 C 961.5829,429.60195 970.61573,451.3192 988.0088,468.71218 C 1005.4018,486.10522 1027.119,495.13806 1053.1606,495.81073 C 1063.1246,495.77047 1072.615,494.2629 1081.6319,491.28802 C 1090.6485,488.31314 1098.9499,484.1125 1106.5361,478.68607 L 1110.8171,495.81073 L 1156.9423,495.81073 L 1145.411,449.68555 L 1145.411,311.31003 L 1099.2858,311.31003 L 1099.2858,323.75172 C 1092.4665,319.77467 1085.1768,316.71282 1077.4165,314.56617 C 1069.6559,312.41987 1061.5706,311.33449 1053.1606,311.31003 C 1027.119,311.98287 1005.4018,321.01571 988.0088,338.40856 C 970.61573,355.80173 961.58289,377.51898 960.91026,403.56038 L 960.91026,403.56038 z M 1007.0354,403.56038 C 1007.3717,390.26346 1011.8881,379.23667 1020.5847,370.47997 C 1029.2811,361.72353 1040.1398,357.18309 1053.1606,356.85864 C 1066.1812,357.18309 1077.0399,361.72354 1085.7365,370.47998 C 1094.4329,379.23667 1098.9493,390.26346 1099.2858,403.56038 C 1098.9493,416.85748 1094.4329,427.88427 1085.7365,436.64077 C 1077.0399,445.3974 1066.1812,449.93784 1053.1606,450.26212 C 1040.1398,449.93785 1029.2811,445.3974 1020.5847,436.64078 C 1011.8881,427.88427 1007.3717,416.85748 1007.0354,403.56038 L 1007.0354,403.56038 z"
         id="text2401"
         style="font-size:369px;font-style:normal;font-variant:normal;font-weight:bold;font-stretch:normal;text-align:start;line-height:125%;writing-mode:lr-tb;text-anchor:start;fill:#ffffff;fill-opacity:1;stroke:none;stroke-width:1px;stroke-linecap:butt;stroke-linejoin:miter;stroke-opacity:1;font-family:Drogowskaz;-inkscape-font-specification:Drogowskaz Bold" />
    </g>
  </g>
</svg>
