<?xml version="1.0" encoding="UTF-8" standalone="no"?>
<!-- Created with Inkscape (http://www.inkscape.org/) -->
<svg
   xmlns:svg="http://www.w3.org/2000/svg"
   xmlns="http://www.w3.org/2000/svg"
   version="1.0"
   width="1000"
   height="600"
   id="svg2">
  <defs
     id="defs4" />
  <g
     transform="translate(4.950285e-2,-10.081184)"
     id="g3208">
    <rect
       width="990"
       height="590"
       rx="29.700001"
       ry="29.499996"
       x="4.9504967"
       y="15.081183"
       id="rect3172"
       style="fill:#ffffff;fill-opacity:1;stroke:#000000;stroke-width:9.99999905;stroke-miterlimit:4;stroke-dasharray:none;stroke-opacity:1" />
    <g
       transform="translate(-1.0677225,0.1059922)"
       id="g3204">
      <path
         d="M 424.59958,64.308977 C 398.4671,64.308977 377.26047,85.378248 377.26047,111.3415 C 377.26047,119.89744 379.57968,127.94328 383.60324,134.85776 L 390.99809,240.4811 C 395.21057,300.54621 398.68483,349.74413 398.70225,349.79328 C 398.72007,349.84244 434.06987,349.8855 477.26046,349.8855 L 555.78769,349.8855 L 587.3471,425.22974 C 604.70136,466.66567 619.19155,501.25696 619.55631,502.111 C 620.03492,503.23001 620.37363,503.61311 620.79393,503.49431 C 699.02532,491.52035 742.76238,413.96981 644.46343,455.69329 C 644.31076,455.69109 630.23938,422.8412 613.18244,382.6853 C 596.12542,342.5294 582.04779,309.53407 581.90155,309.36991 C 581.65423,309.0929 483.18621,309.57286 450.31116,310.01545 L 435.7072,310.23063 L 434.93374,298.85676 C 434.49601,292.60886 434.02522,286.32614 433.91275,284.9007 L 433.727,282.31852 L 486.57353,282.31852 L 539.45106,282.31852 L 539.45106,261.93777 L 539.45106,241.55701 L 484.53155,241.55701 L 429.61195,241.55701 L 429.61195,240.66555 C 429.61195,239.45191 425.71275,168.58915 425.09463,158.40475 C 450.99928,158.14053 471.93868,137.14053 471.93868,111.3415 C 471.93868,85.378245 450.73215,64.308976 424.59958,64.308977 z M 375.86819,249.45724 L 371.38176,251.73202 C 340.39324,267.55062 315.08859,293.72644 299.78522,325.75444 C 291.70888,342.65686 286.70453,360.3419 284.62433,379.36536 C 283.9972,385.09868 283.99859,405.41206 284.62433,411.18147 C 284.87997,413.54093 285.55007,418.25506 286.10948,421.66388 C 295.68265,479.95988 336.72948,528.76703 392.05007,547.57576 C 404.14948,551.68942 416.46552,554.21179 430.13789,555.41452 C 435.45294,555.882 452.87205,555.58251 458.20106,554.92267 C 471.21264,553.31126 481.43195,550.93033 493.13294,546.77652 C 530.61195,533.47133 562.65245,505.76432 581.12799,470.69451 L 582.92264,467.31309 L 569.15403,438.63247 C 561.59245,422.85652 555.33047,409.95396 555.23076,409.95186 C 555.13096,409.94963 554.76631,411.76504 554.42631,414.00957 C 553.28492,421.54783 550.62443,431.22695 547.58839,438.87839 C 537.397,464.56547 517.36007,486.79941 493.28769,499.1292 C 484.29532,503.735 478.26482,506.15951 470.5773,508.2283 C 439.02859,516.71863 405.50423,511.11519 378.4672,492.8582 C 371.45195,488.12122 366.53027,484.0226 360.64542,478.04142 C 343.71176,460.83072 333.02621,440.30072 328.59096,416.37656 C 327.23908,409.08401 326.95958,405.39074 326.98205,394.73546 C 327.00096,385.87019 327.11641,383.61352 327.78641,379.18091 C 331.41948,355.14902 340.67789,334.86054 356.12799,316.99348 C 361.65621,310.60074 369.77334,303.33146 376.51789,298.76453 C 378.11037,297.68631 379.42631,296.56979 379.42631,296.27458 C 379.42631,295.34373 376.30017,253.25865 376.08473,251.30166 L 375.86819,249.45724 z"
         id="path1938"
         style="fill:#000000;fill-opacity:1" />
      <path
         d="M 614.8789,474.28903 L 701.59894,439.89326 L 711.39602,464.27514 L 624.67598,498.67091 L 614.8789,474.28903 z"
         id="rect3191"
         style="fill:#000000;fill-opacity:1;stroke:#000000;stroke-width:12.97182941;stroke-miterlimit:4;stroke-opacity:1" />
    </g>
  </g>
</svg>
