<?xml version="1.0" encoding="UTF-8" standalone="no"?>
<!-- Created with Inkscape (http://www.inkscape.org/) -->

<svg
   xmlns:dc="http://purl.org/dc/elements/1.1/"
   xmlns:cc="http://creativecommons.org/ns#"
   xmlns:rdf="http://www.w3.org/1999/02/22-rdf-syntax-ns#"
   xmlns:svg="http://www.w3.org/2000/svg"
   xmlns="http://www.w3.org/2000/svg"
   xmlns:sodipodi="http://sodipodi.sourceforge.net/DTD/sodipodi-0.dtd"
   xmlns:inkscape="http://www.inkscape.org/namespaces/inkscape"
   version="1.0"
   width="269.15488"
   height="98.439102"
   id="svg2"
   sodipodi:version="0.32"
   inkscape:version="0.48.2 r9819"
   sodipodi:docname="AJAX.svg"
   inkscape:output_extension="org.inkscape.output.svg.inkscape">
  <metadata
     id="metadata10">
    <rdf:RDF>
      <cc:Work
         rdf:about="">
        <dc:format>image/svg+xml</dc:format>
        <dc:type
           rdf:resource="http://purl.org/dc/dcmitype/StillImage" />
      </cc:Work>
    </rdf:RDF>
  </metadata>
  <sodipodi:namedview
     inkscape:window-height="1004"
     inkscape:window-width="1280"
     inkscape:pageshadow="2"
     inkscape:pageopacity="0.0"
     guidetolerance="10.0"
     gridtolerance="10.0"
     objecttolerance="10.0"
     borderopacity="1.0"
     bordercolor="#666666"
     pagecolor="#ffffff"
     id="base"
     showgrid="false"
     inkscape:zoom="0.71458132"
     inkscape:cx="-51.960205"
     inkscape:cy="-52.096302"
     inkscape:window-x="-8"
     inkscape:window-y="-8"
     inkscape:current-layer="svg2"
     inkscape:window-maximized="1" />
  <defs
     id="defs4">
    <inkscape:perspective
       sodipodi:type="inkscape:persp3d"
       inkscape:vp_x="0 : 49.219551 : 1"
       inkscape:vp_y="0 : 1000 : 0"
       inkscape:vp_z="269.15488 : 49.219551 : 1"
       inkscape:persp3d-origin="134.57744 : 32.813034 : 1"
       id="perspective12" />
    <inkscape:perspective
       id="perspective2392"
       inkscape:persp3d-origin="372.04724 : 350.78739 : 1"
       inkscape:vp_z="744.09448 : 526.18109 : 1"
       inkscape:vp_y="0 : 1000 : 0"
       inkscape:vp_x="0 : 526.18109 : 1"
       sodipodi:type="inkscape:persp3d" />
    <inkscape:perspective
       id="perspective86"
       inkscape:persp3d-origin="500 : 400 : 1"
       inkscape:vp_z="1000 : 600 : 1"
       inkscape:vp_y="0 : 1000 : 0"
       inkscape:vp_x="0 : 600 : 1"
       sodipodi:type="inkscape:persp3d" />
    <inkscape:perspective
       id="perspective3352"
       inkscape:persp3d-origin="372.04724 : 350.78739 : 1"
       inkscape:vp_z="744.09448 : 526.18109 : 1"
       inkscape:vp_y="0 : 1000 : 0"
       inkscape:vp_x="0 : 526.18109 : 1"
       sodipodi:type="inkscape:persp3d" />
  </defs>
  <rect
     style="opacity:1;fill:#ffffff;fill-opacity:1;stroke:#000000;stroke-width:4;stroke-miterlimit:4;stroke-dasharray:none;stroke-opacity:1"
     id="rect3168"
     width="264.80777"
     height="95.005043"
     x="2.1735535"
     y="1.7170296"
     ry="5.6744637" />
  <path
     d="M 20.536767,87.71954 L 58.53677,87.71954 L 58.53677,24.71956 C 56.12387,23.29661 53.45474,22.30071 50.53677,21.71956 L 50.53677,18.71956 L 51.53677,18.71956 L 51.53677,10.71956 L 25.536767,10.71956 L 10.536767,16.71956 L 10.536767,26.71956 L 17.536767,26.71956 L 17.536767,24.71956 L 24.536767,19.71956 L 34.53677,19.71956 L 34.53677,21.71956 L 28.536767,21.71956 C 25.490521,23.06901 22.753298,25.0466 20.536767,27.71956 L 20.536767,87.71954 z"
     id="path2543"
     style="fill:#d40000;fill-opacity:1;fill-rule:evenodd;stroke:#e20018;stroke-width:1px;stroke-linecap:butt;stroke-linejoin:miter;stroke-opacity:1" />
  <path
     d="M 227.48564,29.69944 C 236.65655,37.32816 247.63036,50.68948 253.02136,61.75301 C 256.59659,69.09017 259.25054,80.39148 253.02136,87.02086 C 250.51173,89.69172 249.3876,92.22089 243.79877,85.99091 C 240.35266,82.14944 233.09088,76.16072 231.47734,71.25877 C 230.61295,66.59146 236.60981,66.82854 239.09279,64.43158 C 240.81492,62.80391 239.43657,60.96402 238.3785,60.05658 C 224.34129,48.01777 206.42896,32.11597 193.91421,24.87801 C 192.0283,23.78728 188.45669,22.97777 188.28921,25.41372 C 187.9815,29.88933 186.48171,34.28615 181.6976,34.38747 C 176.86077,34.48992 171.48587,34.72532 166.97857,33.47741 C 162.2362,32.16443 160.67043,25.33021 166.23564,16.57444 C 168.67379,12.73849 172.28955,9.2892 175.96778,8.62801 C 178.30803,8.20733 180.58801,10.32151 182.93207,9.92265 C 196.30462,7.64722 216.52386,20.581 227.48564,29.69944 z"
     id="path3335"
     style="fill:#000000;fill-rule:evenodd;stroke:#000000;stroke-width:0.5;stroke-linecap:butt;stroke-linejoin:miter;stroke-miterlimit:4;stroke-dasharray:none;stroke-opacity:1" />
  <rect
     id="rect19871"
     style="fill:#000000;fill-opacity:1;stroke:none;stroke-width:7;stroke-miterlimit:4;stroke-dasharray:none;stroke-opacity:1"
     y="76.370461"
     x="111.89729"
     height="6.487042"
     width="6.487042" />
  <path
     id="path2233"
     d="M 143.35081,43.92939 C 132.52329,43.92941 123.72898,52.65092 123.72898,63.39345 C 123.72902,74.136 132.52326,82.85752 143.35081,82.85752 C 154.17838,82.85752 162.97263,74.13598 162.97263,63.39345 C 162.97265,52.65093 154.17836,43.92939 143.35081,43.92939 z M 142.6606,50.18076 C 142.88764,50.16934 143.12092,50.18076 143.35081,50.18076 C 150.70713,50.18076 156.68181,56.09491 156.68181,63.39345 C 156.68186,70.69199 150.70711,76.60614 143.35081,76.60614 C 135.99454,76.60615 130.01979,70.69199 130.01979,63.39345 C 130.01981,56.32301 135.62243,50.53508 142.6606,50.18076 z"
     style="fill:#000000;fill-opacity:1;stroke:none;stroke-width:7;stroke-miterlimit:4;stroke-dasharray:none;stroke-opacity:1" />
  <path
     id="path3210"
     d="M 91.66589,43.92939 C 91.41998,43.92821 91.17071,43.94251 90.91653,43.94911 C 85.21684,43.94912 80.48438,48.54577 80.48438,54.22345 C 80.48444,57.50646 82.04164,60.5238 84.44822,62.40743 C 84.44822,62.40742 88.78293,65.03285 89.22056,65.26689 C 95.87994,68.7191 96.51997,71.61469 95.117,74.1608 C 90.74663,78.6756 84.52539,76.24457 79.26178,74.59465 L 76.9939,80.66854 C 81.36547,82.23122 85.63403,82.85752 90.69963,82.85752 C 96.89803,82.85751 101.92052,77.85049 101.92052,71.67603 C 101.92052,67.94512 100.08788,64.63723 97.2665,62.60463 C 94.2086,60.93117 91.08192,59.08339 88.01766,57.31956 C 87.37094,56.88394 86.41931,55.07393 86.7358,53.33604 C 87.05233,51.5982 88.48254,50.57655 89.27976,50.37797 C 92.791,49.85273 96.38025,50.69026 99.73152,51.69924 L 101.56555,45.42815 C 98.15988,44.81955 95.35446,43.94732 91.66589,43.92939 z"
     style="fill:#000000;fill-opacity:1;stroke:none;stroke-width:7;stroke-miterlimit:4;stroke-dasharray:none;stroke-opacity:1" />
  <path
     id="path3515"
     d="M 198.95177,43.92939 C 198.70584,43.92821 198.45658,43.94251 198.20239,43.94911 C 192.50272,43.94912 187.77025,48.54577 187.77025,54.22345 C 187.77032,57.50646 189.32751,60.5238 191.7341,62.40743 C 191.7341,62.40742 196.06879,65.03285 196.50644,65.26689 C 203.16582,68.7191 203.80583,71.61469 202.40287,74.1608 C 198.03251,78.6756 191.81127,76.24457 186.54765,74.59465 L 184.27978,80.66854 C 188.65134,82.23122 192.9199,82.85752 197.9855,82.85752 C 204.18389,82.85751 209.20638,77.85049 209.20638,71.67603 C 209.20638,67.94512 207.37376,64.63723 204.55237,62.60463 C 201.49447,60.93117 198.36779,59.08339 195.30352,57.31956 C 194.65682,56.88394 193.70519,55.07393 194.02166,53.33604 C 194.33819,51.5982 195.76842,50.57655 196.56563,50.37797 C 200.07688,49.85273 203.66612,50.69026 207.0174,51.69924 L 208.85142,45.42815 C 205.44575,44.81955 202.64034,43.94732 198.95177,43.92939 z"
     style="fill:#000000;fill-opacity:1;stroke:none;stroke-width:7;stroke-miterlimit:4;stroke-dasharray:none;stroke-opacity:1" />
  <rect
     id="rect3517"
     style="fill:#000000;fill-opacity:1;stroke:none;stroke-width:7;stroke-miterlimit:4;stroke-dasharray:none;stroke-opacity:1"
     y="76.370461"
     x="169.83521"
     height="6.487042"
     width="6.487042" />
</svg>
