<?xml version="1.0" encoding="UTF-8" standalone="no"?>
<!-- Creator: CorelDRAW -->

<svg
   xmlns:dc="http://purl.org/dc/elements/1.1/"
   xmlns:cc="http://creativecommons.org/ns#"
   xmlns:rdf="http://www.w3.org/1999/02/22-rdf-syntax-ns#"
   xmlns:svg="http://www.w3.org/2000/svg"
   xmlns="http://www.w3.org/2000/svg"
   xmlns:sodipodi="http://sodipodi.sourceforge.net/DTD/sodipodi-0.dtd"
   xmlns:inkscape="http://www.inkscape.org/namespaces/inkscape"
   xml:space="preserve"
   width="973.96649"
   height="707.99701"
   style="fill-rule:evenodd"
   viewBox="0 0 274.875 199.81248"
   id="svg2"
   version="1.1"
   inkscape:version="0.48.2 r9819"
   sodipodi:docname="AJAX.svg"><metadata
   id="metadata24"><rdf:RDF><cc:Work
       rdf:about=""><dc:format>image/svg+xml</dc:format><dc:type
         rdf:resource="http://purl.org/dc/dcmitype/StillImage" /></cc:Work></rdf:RDF></metadata><sodipodi:namedview
   pagecolor="#ffffff"
   bordercolor="#666666"
   borderopacity="1"
   objecttolerance="10"
   gridtolerance="10"
   guidetolerance="10"
   inkscape:pageopacity="0"
   inkscape:pageshadow="2"
   inkscape:window-width="1280"
   inkscape:window-height="1004"
   id="namedview22"
   showgrid="false"
   inkscape:zoom="0.4283915"
   inkscape:cx="552.35622"
   inkscape:cy="515.62086"
   inkscape:window-x="-8"
   inkscape:window-y="-8"
   inkscape:window-maximized="1"
   inkscape:current-layer="Warstwa_x0020_1"
   fit-margin-top="0"
   fit-margin-left="0"
   fit-margin-right="0"
   fit-margin-bottom="0" />
 <defs
   id="defs4">
  <style
   type="text/css"
   id="style6">
   
    .str1 {stroke:black;stroke-width:0.2}
    .str0 {stroke:black;stroke-width:0.5}
    .str2 {stroke:black;stroke-width:4}
    .fil1 {fill:none}
    .fil2 {fill:#1F1A17}
    .fil0 {fill:#E67938}
   
  </style>
 </defs>
 <g
   id="Warstwa_x0020_1"
   transform="translate(-12.5625,-0.09375861)">
  <metadata
   id="CorelCorpID_0Corel-Layer" />
  
  <path
   class="fil1 str0"
   d="m 35.7943,0.3686 228.412,0 c 12.6152,0 22.9367,10.3734 22.9367,23.0521 l 0,153.159 c 0,12.6786 -10.3215,23.052 -22.9367,23.052 l -228.412,0 c -12.6153,0 -22.9367,-10.3734 -22.9367,-23.052 l 0,-153.159 C 12.8576,10.742 23.179,0.3686 35.7943,0.3686 z"
   id="path12"
   style="fill:#ffffff;stroke:#000000;stroke-width:0.56444448;stroke-miterlimit:4;stroke-dasharray:none"
   inkscape:connector-curvature="0" />
  
  
  
  
 <path
   style="fill:#ed8a0f;fill-opacity:1;stroke:none"
   id="path3052"
   d="m 43.2518,6.8745 213.496,0 c 11.7915,0 21.439,9.696 21.439,21.5467 l 0,143.158 c 0,11.8508 -9.6475,21.5468 -21.439,21.5468 l -213.496,0 c -11.7915,0 -21.439,-9.696 -21.439,-21.5468 l 0,-143.158 c 0,-11.8507 9.6475,-21.5467 21.439,-21.5467 z"
   class="fil0"
   inkscape:connector-curvature="0" /><path
   id="path3109"
   d="m 78.7599,179.199 108.412,-24.833 c 3.7116,-0.8502 6.0527,-4.5825 5.2025,-8.294 L 179.4912,89.829 c -0.8501,-3.7116 -4.5824,-6.0527 -8.294,-5.2025 l -108.412,24.8331 c -3.7115,0.8501 -6.0527,4.5824 -5.2025,8.2939 l 12.8832,56.2431 c 0.8501,3.7115 4.5824,6.0526 8.294,5.2024 z"
   class="fil2 str1"
   inkscape:connector-curvature="0"
   style="fill:#000000;stroke:none;stroke-width:0.20000000000000001" /><path
   id="path3111"
   d="M 207.423,80.1696 C 203.6134,74.1073 199.0711,68.374 193.7941,63.0969 189.2022,58.505 184.2652,54.4681 179.0666,50.986"
   class="fil1 str2"
   inkscape:connector-curvature="0"
   style="fill:none;stroke:#000000;stroke-width:4" /><path
   id="path3113"
   d="M 240.811,74.1773 C 234.7387,61.9953 226.6256,50.5725 216.4718,40.4187 206.3098,30.2567 194.8765,22.1385 182.6834,16.0645"
   class="fil1 str2"
   inkscape:connector-curvature="0"
   style="fill:none;stroke:#000000;stroke-width:4" /><path
   id="path3115"
   d="M 222.935,77.3854 C 217.9965,68.522 211.7624,60.187 204.2331,52.6577 197.0593,45.4838 189.154,39.4858 180.7572,34.6638"
   class="fil1 str2"
   inkscape:connector-curvature="0"
   style="fill:none;stroke:#000000;stroke-width:4" /></g>
</svg>