<?xml version="1.0" encoding="UTF-8" standalone="no"?>
<!-- Created with Inkscape (http://www.inkscape.org/) -->

<svg
   xmlns:dc="http://purl.org/dc/elements/1.1/"
   xmlns:cc="http://creativecommons.org/ns#"
   xmlns:rdf="http://www.w3.org/1999/02/22-rdf-syntax-ns#"
   xmlns:svg="http://www.w3.org/2000/svg"
   xmlns="http://www.w3.org/2000/svg"
   xmlns:sodipodi="http://sodipodi.sourceforge.net/DTD/sodipodi-0.dtd"
   xmlns:inkscape="http://www.inkscape.org/namespaces/inkscape"
   width="1295.0436"
   height="746.25964"
   id="svg2"
   sodipodi:version="0.32"
   inkscape:version="0.92.2 (5c3e80d, 2017-08-06)"
   version="1.0"
   sodipodi:docname="Znak_T-5.svg"
   inkscape:output_extension="org.inkscape.output.svg.inkscape">
  <defs
     id="defs4">
    <inkscape:perspective
       sodipodi:type="inkscape:persp3d"
       inkscape:vp_x="0 : 526.18109 : 1"
       inkscape:vp_y="0 : 1000 : 0"
       inkscape:vp_z="744.09448 : 526.18109 : 1"
       inkscape:persp3d-origin="372.04724 : 350.78739 : 1"
       id="perspective10" />
    <inkscape:perspective
       id="perspective2392"
       inkscape:persp3d-origin="372.04724 : 350.78739 : 1"
       inkscape:vp_z="744.09448 : 526.18109 : 1"
       inkscape:vp_y="0 : 1000 : 0"
       inkscape:vp_x="0 : 526.18109 : 1"
       sodipodi:type="inkscape:persp3d" />
    <inkscape:perspective
       sodipodi:type="inkscape:persp3d"
       inkscape:vp_x="0 : 600 : 1"
       inkscape:vp_y="0 : 1000 : 0"
       inkscape:vp_z="1000 : 600 : 1"
       inkscape:persp3d-origin="500 : 400 : 1"
       id="perspective3405" />
    <inkscape:perspective
       sodipodi:type="inkscape:persp3d"
       inkscape:vp_x="0 : 526.18109 : 1"
       inkscape:vp_y="0 : 1000 : 0"
       inkscape:vp_z="744.09448 : 526.18109 : 1"
       inkscape:persp3d-origin="372.04724 : 350.78739 : 1"
       id="perspective3294" />
    <inkscape:perspective
       id="perspective86"
       inkscape:persp3d-origin="500 : 400 : 1"
       inkscape:vp_z="1000 : 600 : 1"
       inkscape:vp_y="0 : 1000 : 0"
       inkscape:vp_x="0 : 600 : 1"
       sodipodi:type="inkscape:persp3d" />
    <inkscape:perspective
       sodipodi:type="inkscape:persp3d"
       inkscape:vp_x="0 : 600 : 1"
       inkscape:vp_y="0 : 1000 : 0"
       inkscape:vp_z="1000 : 600 : 1"
       inkscape:persp3d-origin="500 : 400 : 1"
       id="perspective2620" />
    <inkscape:perspective
       sodipodi:type="inkscape:persp3d"
       inkscape:vp_x="0 : 250 : 1"
       inkscape:vp_y="0 : 1000 : 0"
       inkscape:vp_z="500 : 250 : 1"
       inkscape:persp3d-origin="250 : 166.66667 : 1"
       id="perspective3175" />
    <inkscape:perspective
       sodipodi:type="inkscape:persp3d"
       inkscape:vp_x="0 : 526.18109 : 1"
       inkscape:vp_y="0 : 1000 : 0"
       inkscape:vp_z="744.09448 : 526.18109 : 1"
       inkscape:persp3d-origin="372.04724 : 350.78739 : 1"
       id="perspective3162" />
    <inkscape:perspective
       id="perspective2616"
       inkscape:persp3d-origin="372.04724 : 350.78739 : 1"
       inkscape:vp_z="744.09448 : 526.18109 : 1"
       inkscape:vp_y="0 : 1000 : 0"
       inkscape:vp_x="0 : 526.18109 : 1"
       sodipodi:type="inkscape:persp3d" />
    <inkscape:perspective
       id="perspective2688"
       inkscape:persp3d-origin="372.04724 : 350.78739 : 1"
       inkscape:vp_z="744.09448 : 526.18109 : 1"
       inkscape:vp_y="0 : 1000 : 0"
       inkscape:vp_x="0 : 526.18109 : 1"
       sodipodi:type="inkscape:persp3d" />
    <inkscape:perspective
       sodipodi:type="inkscape:persp3d"
       inkscape:vp_x="0 : 600 : 1"
       inkscape:vp_y="0 : 1000 : 0"
       inkscape:vp_z="1000 : 600 : 1"
       inkscape:persp3d-origin="500 : 400 : 1"
       id="perspective3648" />
    <inkscape:perspective
       sodipodi:type="inkscape:persp3d"
       inkscape:vp_x="0 : 250 : 1"
       inkscape:vp_y="0 : 1000 : 0"
       inkscape:vp_z="500 : 250 : 1"
       inkscape:persp3d-origin="250 : 166.66667 : 1"
       id="perspective3646" />
    <inkscape:perspective
       sodipodi:type="inkscape:persp3d"
       inkscape:vp_x="0 : 526.18109 : 1"
       inkscape:vp_y="0 : 1000 : 0"
       inkscape:vp_z="744.09448 : 526.18109 : 1"
       inkscape:persp3d-origin="372.04724 : 350.78739 : 1"
       id="perspective3644" />
    <inkscape:perspective
       id="perspective3642"
       inkscape:persp3d-origin="372.04724 : 350.78739 : 1"
       inkscape:vp_z="744.09448 : 526.18109 : 1"
       inkscape:vp_y="0 : 1000 : 0"
       inkscape:vp_x="0 : 526.18109 : 1"
       sodipodi:type="inkscape:persp3d" />
    <inkscape:perspective
       sodipodi:type="inkscape:persp3d"
       inkscape:vp_x="0 : 526.18109 : 1"
       inkscape:vp_y="0 : 1000 : 0"
       inkscape:vp_z="744.09448 : 526.18109 : 1"
       inkscape:persp3d-origin="372.04724 : 350.78739 : 1"
       id="perspective2403" />
    <inkscape:perspective
       sodipodi:type="inkscape:persp3d"
       inkscape:vp_x="0 : 526.18109 : 1"
       inkscape:vp_y="0 : 1000 : 0"
       inkscape:vp_z="744.09448 : 526.18109 : 1"
       inkscape:persp3d-origin="372.04724 : 350.78739 : 1"
       id="perspective2390" />
    <inkscape:perspective
       id="perspective3279"
       inkscape:persp3d-origin="372.04724 : 350.78739 : 1"
       inkscape:vp_z="744.09448 : 526.18109 : 1"
       inkscape:vp_y="0 : 1000 : 0"
       inkscape:vp_x="0 : 526.18109 : 1"
       sodipodi:type="inkscape:persp3d" />
    <inkscape:perspective
       id="perspective3389"
       inkscape:persp3d-origin="500 : 400 : 1"
       inkscape:vp_z="1000 : 600 : 1"
       inkscape:vp_y="0 : 1000 : 0"
       inkscape:vp_x="0 : 600 : 1"
       sodipodi:type="inkscape:persp3d" />
    <inkscape:perspective
       id="perspective3652"
       inkscape:persp3d-origin="372.04724 : 350.78739 : 1"
       inkscape:vp_z="744.09448 : 526.18109 : 1"
       inkscape:vp_y="0 : 1000 : 0"
       inkscape:vp_x="0 : 526.18109 : 1"
       sodipodi:type="inkscape:persp3d" />
    <inkscape:perspective
       id="perspective3740"
       inkscape:persp3d-origin="500 : 400 : 1"
       inkscape:vp_z="1000 : 600 : 1"
       inkscape:vp_y="0 : 1000 : 0"
       inkscape:vp_x="0 : 600 : 1"
       sodipodi:type="inkscape:persp3d" />
  </defs>
  <sodipodi:namedview
     id="base"
     pagecolor="#ffffff"
     bordercolor="#666666"
     borderopacity="1.0"
     gridtolerance="10000"
     guidetolerance="10"
     objecttolerance="10"
     inkscape:pageopacity="0.0"
     inkscape:pageshadow="2"
     inkscape:zoom="0.49497476"
     inkscape:cx="-32.693962"
     inkscape:cy="239.17107"
     inkscape:document-units="px"
     inkscape:current-layer="layer1"
     showgrid="false"
     inkscape:window-width="1920"
     inkscape:window-height="1018"
     inkscape:window-x="-8"
     inkscape:window-y="-8"
     inkscape:window-maximized="1" />
  <metadata
     id="metadata7">
    <rdf:RDF>
      <cc:Work
         rdf:about="">
        <dc:format>image/svg+xml</dc:format>
        <dc:type
           rdf:resource="http://purl.org/dc/dcmitype/StillImage" />
      </cc:Work>
    </rdf:RDF>
  </metadata>
  <g
     inkscape:label="Layer 1"
     inkscape:groupmode="layer"
     id="layer1"
     transform="translate(5259.4136,1402.7716)">
    <rect
       style="opacity:1;fill:#febe0b;fill-opacity:1;stroke:#000000;stroke-width:20;stroke-miterlimit:4;stroke-dasharray:none;stroke-opacity:1"
       id="rect2409"
       width="1275.0436"
       height="726.25964"
       x="-5249.4136"
       y="-1392.7716"
       ry="52.082355" />
    <g
       id="g4027"
       transform="translate(-4.9324347,-1.6115868)"
       style="opacity:1;fill:#000000">
      <g
         id="g4020"
         style="fill:#000000">
        <path
           id="path3980"
           style="fill:#000000;fill-opacity:1;stroke:none;stroke-width:7;stroke-miterlimit:4;stroke-opacity:1"
           d="M -4997.0818,-1306.5735 L -4997.0818,-1105.1855 L -4904.9234,-1105.1855 C -4904.9234,-1105.1855 -4838.0806,-1131.1656 -4838.0806,-1205.8796 C -4838.0806,-1279.6769 -4904.9234,-1306.5735 -4904.9234,-1306.5735 L -4997.0818,-1306.5735 z M -4963.3105,-1272.5612 L -4911.8678,-1272.5612 C -4911.8678,-1272.5612 -4871.936,-1253.9241 -4871.936,-1205.8796 C -4871.936,-1157.2008 -4911.8678,-1139.8688 -4911.8678,-1139.8688 L -4963.3105,-1139.8688 L -4963.3105,-1272.5612 z" />
        <path
           sodipodi:nodetypes="csscccccccccccssc"
           id="path3982"
           style="fill:#000000;fill-opacity:1;stroke:none;stroke-width:7;stroke-miterlimit:4;stroke-dasharray:none;stroke-opacity:1"
           d="M -4292.4667,-1239.4442 C -4329.5894,-1239.4442 -4359.7176,-1209.3766 -4359.7176,-1172.3288 C -4359.7176,-1135.281 -4329.5894,-1105.2132 -4292.4667,-1105.2132 C -4277.9479,-1105.2132 -4264.5113,-1109.8412 -4253.5162,-1117.6577 L -4250.2383,-1105.1855 L -4216.8369,-1105.1855 L -4225.5517,-1137.9601 L -4225.5517,-1239.4161 L -4258.953,-1239.4161 L -4258.953,-1230.4954 C -4268.8233,-1236.1738 -4280.2633,-1239.4442 -4292.4667,-1239.4442 z M -4291.4578,-1205.439 C -4275.6611,-1205.439 -4262.4171,-1190.7077 -4258.953,-1175.9875 L -4258.953,-1167.0681 C -4262.4171,-1152.3538 -4275.6611,-1138.799 -4291.4578,-1138.799 C -4309.8863,-1138.799 -4324.8311,-1153.714 -4324.8311,-1172.1048 C -4324.8311,-1190.4961 -4309.8863,-1205.439 -4291.4578,-1205.439 z" />
        <path
           id="path3984"
           style="fill:#000000;fill-opacity:1;stroke:none;stroke-width:7;stroke-miterlimit:4;stroke-dasharray:none;stroke-opacity:1"
           d="M -4464.1912,-1239.4442 C -4476.3921,-1239.4439 -4487.8363,-1236.1908 -4497.7196,-1230.5343 L -4497.7196,-1230.8431 C -4516.3897,-1220.2302 -4529.5189,-1201.0036 -4531.6703,-1178.592 L -4531.6703,-1165.5785 C -4529.5189,-1143.1665 -4516.3897,-1123.9686 -4497.7196,-1113.3552 L -4497.7196,-1113.4116 C -4495.2485,-1111.9976 -4492.6877,-1110.7151 -4490.0348,-1109.6173 C -4489.3704,-1109.3427 -4488.7088,-1109.0838 -4488.0356,-1108.83 C -4487.3618,-1108.5763 -4486.6643,-1108.3318 -4485.98,-1108.0993 C -4485.2968,-1107.8668 -4484.6189,-1107.6356 -4483.9253,-1107.4246 C -4482.5383,-1107.0027 -4481.1261,-1106.6341 -4479.7029,-1106.3004 C -4478.9913,-1106.1334 -4478.2833,-1105.9669 -4477.5637,-1105.8225 C -4476.8434,-1105.6785 -4476.1237,-1105.5503 -4475.3952,-1105.4291 C -4474.668,-1105.3079 -4473.935,-1105.2175 -4473.1995,-1105.1198 C -4472.5422,-1105.0338 -4471.8937,-1104.9344 -4471.2293,-1104.8669 C -4470.2357,-1104.7647 -4469.2235,-1104.7012 -4468.2171,-1104.6423 C -4468.0754,-1104.6341 -4467.9363,-1104.6213 -4467.7942,-1104.6141 C -4467.6627,-1104.6073 -4467.5324,-1104.6199 -4467.4008,-1104.6141 C -4466.4141,-1104.5698 -4465.4143,-1104.5315 -4464.4168,-1104.5297 C -4464.3418,-1104.5297 -4464.2673,-1104.5297 -4464.1912,-1104.5297 C -4463.0629,-1104.5315 -4461.9571,-1104.5575 -4460.8415,-1104.6141 C -4460.8039,-1104.6157 -4460.7664,-1104.6123 -4460.7295,-1104.6141 C -4459.6139,-1104.6727 -4458.507,-1104.7553 -4457.4067,-1104.8669 C -4457.3704,-1104.8707 -4457.3315,-1104.8632 -4457.2945,-1104.8669 C -4455.0591,-1105.0977 -4452.8451,-1105.4359 -4450.6781,-1105.8788 C -4443.0341,-1107.4419 -4435.8701,-1110.2958 -4429.3962,-1114.1987 L -4429.3962,-1104.5579 C -4431.4993,-1084.6194 -4444.0913,-1074.8324 -4463.0937,-1071.8129 C -4470.8497,-1071.8129 -4477.991,-1074.451 -4483.6718,-1078.8678 L -4504.391,-1051.2667 C -4502.2313,-1049.6732 -4499.9808,-1048.2149 -4497.6344,-1046.8819 L -4497.6344,-1046.9379 C -4495.1641,-1045.5239 -4492.6025,-1044.2412 -4489.9496,-1043.1436 C -4489.2864,-1042.8692 -4488.6242,-1042.6105 -4487.9503,-1042.3567 C -4487.2765,-1042.103 -4486.5796,-1041.8584 -4485.8963,-1041.6259 C -4485.2121,-1041.3931 -4484.5349,-1041.1623 -4483.8415,-1040.9514 C -4482.4537,-1040.5291 -4481.0413,-1040.1604 -4479.6177,-1039.8268 C -4478.9062,-1039.66 -4478.1993,-1039.4935 -4477.4784,-1039.3492 C -4476.7588,-1039.2048 -4476.0385,-1039.0768 -4475.3114,-1038.9557 C -4474.5829,-1038.8346 -4473.8505,-1038.7442 -4473.1162,-1038.6465 C -4472.4569,-1038.5598 -4471.8084,-1038.461 -4471.1447,-1038.3935 C -4470.1511,-1038.291 -4469.1382,-1038.2276 -4468.1327,-1038.1684 C -4467.9908,-1038.1607 -4467.8519,-1038.1476 -4467.7111,-1038.1404 C -4467.5794,-1038.1335 -4467.448,-1038.1466 -4467.3163,-1038.1404 C -4466.3287,-1038.096 -4465.3298,-1038.0578 -4464.3329,-1038.0561 C -4464.2572,-1038.0557 -4464.182,-1038.0561 -4464.1073,-1038.0561 C -4462.9776,-1038.0581 -4461.8726,-1038.0839 -4460.7569,-1038.1404 C -4460.7194,-1038.1424 -4460.6812,-1038.1383 -4460.6443,-1038.1404 C -4459.5292,-1038.1988 -4458.4217,-1038.2817 -4457.322,-1038.3935 C -4457.2851,-1038.3973 -4457.2468,-1038.3895 -4457.209,-1038.3935 C -4454.9738,-1038.6243 -4452.7607,-1038.9622 -4450.5948,-1039.4052 C -4441.7855,-1041.2067 -4433.5858,-1044.7213 -4426.3848,-1049.5802 C -4426.3785,-1049.5843 -4426.3619,-1049.576 -4426.3558,-1049.5802 C -4408.321,-1062.0929 -4396.8775,-1082.6685 -4396.5728,-1104.5297 L -4395.8404,-1239.4442 L -4429.3962,-1239.4442 L -4429.3962,-1229.7751 C -4439.5636,-1235.8978 -4451.46,-1239.4442 -4464.1912,-1239.4442 z M -4463.1777,-1205.2655 C -4444.6647,-1205.2655 -4429.6219,-1190.247 -4429.6219,-1171.762 C -4429.6219,-1153.277 -4444.6647,-1138.2866 -4463.1777,-1138.2866 C -4481.6921,-1138.2862 -4496.7054,-1153.277 -4496.7054,-1171.762 C -4496.7054,-1190.2467 -4481.6921,-1205.2655 -4463.1777,-1205.2655 z" />
        <path
           id="path3988"
           style="fill:#000000;fill-opacity:1;stroke:none;stroke-width:7;stroke-miterlimit:4;stroke-opacity:1"
           d="M -4761.301,-1233.2051 L -4761.301,-1239.4442 L -4794.6867,-1239.4442 L -4794.6867,-1105.1855 L -4761.301,-1105.1855 L -4761.301,-1192.2018 C -4753.2401,-1201.9329 -4740.3812,-1206.8281 -4727.8587,-1206.3388 L -4727.8587,-1239.4442 C -4742.7141,-1238.9612 -4754.5768,-1237.5506 -4761.301,-1233.2051 z" />
        <path
           id="path3994"
           style="fill:#000000;fill-opacity:1;stroke:none;stroke-width:7;stroke-miterlimit:4;stroke-dasharray:none;stroke-opacity:1"
           d="M -4633.6961,-1239.4442 C -4670.9385,-1239.4442 -4701.1642,-1209.3703 -4701.1642,-1172.3149 C -4701.1642,-1135.2595 -4670.9385,-1105.1855 -4633.6961,-1105.1855 C -4596.4534,-1105.1855 -4566.2274,-1135.2595 -4566.2274,-1172.3149 C -4566.2274,-1209.3703 -4596.4534,-1239.4442 -4633.6961,-1239.4442 z M -4632.6838,-1205.4319 C -4614.1959,-1205.4319 -4599.1746,-1190.4861 -4599.1746,-1172.0908 C -4599.1746,-1153.696 -4614.1959,-1138.7779 -4632.6838,-1138.7779 C -4651.1718,-1138.7779 -4666.1651,-1153.696 -4666.1651,-1172.0908 C -4666.1651,-1190.4861 -4651.1719,-1205.4319 -4632.6838,-1205.4319 z" />
      </g>
      <g
         transform="translate(-7.2666,0)"
         id="g4000"
         style="fill:#000000">
        <path
           id="path3986"
           style="fill:#000000;fill-opacity:1;stroke:none;stroke-width:7;stroke-miterlimit:4;stroke-opacity:1"
           d="M -4925.1264,-979.47477 L -4925.1264,-778.08681 L -4891.1037,-778.08681 L -4891.1037,-829.27894 L -4880.6938,-829.27894 L -4840.0134,-778.08681 L -4802.5491,-778.08681 L -4850.2822,-843.95769 L -4804.6364,-911.57527 L -4842.101,-911.57527 L -4878.3242,-862.86266 L -4891.1037,-862.86266 L -4891.1037,-979.47477 L -4925.1264,-979.47477 z" />
        <path
           id="path3990"
           style="fill:#000000;fill-opacity:1;stroke:none;stroke-width:7;stroke-miterlimit:4;stroke-dasharray:none;stroke-opacity:1"
           d="M -4475.2255,-979.47477 L -4508.7488,-946.29446 L -4508.7488,-913.50749 L -4534.7628,-913.50749 L -4534.7628,-879.98997 L -4508.7488,-879.98997 L -4508.7488,-836.51773 C -4509.218,-804.41725 -4491.7345,-779.38531 -4458.1267,-778.08681 L -4441.112,-811.4004 C -4450.6374,-811.4004 -4451.5879,-811.4004 -4463.3293,-811.4004 C -4467.8617,-811.4004 -4475.2255,-820.22582 -4475.2255,-824.93275 C -4475.2255,-841.94779 -4475.2255,-879.98997 -4475.2255,-879.98997 L -4449.2678,-879.98997 L -4449.2678,-913.50749 L -4475.2255,-913.50749 L -4475.2255,-979.47477 z" />
        <path
           id="path3992"
           style="fill:#000000;fill-opacity:1;stroke:none;stroke-width:7;stroke-miterlimit:4;stroke-dasharray:none;stroke-opacity:1"
           d="M -4618.667,-912.33897 C -4655.0193,-911.41694 -4684.2552,-881.5986 -4684.2552,-845.0255 C -4684.2552,-807.87181 -4654.0951,-777.7119 -4616.9422,-777.7119 C -4604.0845,-777.7119 -4595.9579,-778.91557 -4585.1695,-781.34841 C -4587.5091,-779.7735 -4599.8741,-770.60023 -4599.8741,-752.36301 C -4599.8741,-730.01275 -4583.8422,-720.29903 -4583.8422,-720.29903 L -4568.9776,-740.89644 C -4568.9776,-740.89644 -4582.4614,-745.11706 -4587.1335,-756.79616 C -4591.1647,-766.87432 -4584.7989,-781.45668 -4584.7183,-781.6402 L -4569.3241,-813.65145 C -4600.2199,-811.66512 -4632.8092,-798.68684 -4650.2532,-832.89519 L -4561.8917,-833.18733 L -4561.8917,-883.69877 C -4574.0685,-901.0138 -4594.1782,-912.33897 -4616.9422,-912.33897 C -4617.5224,-912.33897 -4618.0897,-912.35359 -4618.667,-912.33897 z M -4616.9422,-880.4604 C -4601.5926,-880.4604 -4588.5238,-870.684 -4583.6034,-857.02294 L -4650.2794,-857.02294 C -4645.3594,-870.684 -4632.2909,-880.4604 -4616.9422,-880.4604 z" />
        <path
           id="path3996"
           style="fill:#000000;fill-opacity:1;stroke:none;stroke-width:7;stroke-miterlimit:4;stroke-opacity:1"
           d="M -4744.5302,-906.10649 L -4744.5302,-912.34535 L -4777.9159,-912.34535 L -4777.9159,-778.08681 L -4744.5302,-778.08681 L -4744.5302,-865.10306 C -4736.4691,-874.83425 -4723.6105,-879.72926 -4711.088,-879.24015 L -4711.088,-912.34535 C -4725.9434,-911.86259 -4737.8058,-910.45199 -4744.5302,-906.10649 z" />
        <path
           sodipodi:nodetypes="csscccccccccccssc"
           id="path3998"
           style="fill:#000000;fill-opacity:1;stroke:none;stroke-width:7;stroke-miterlimit:4;stroke-dasharray:none;stroke-opacity:1"
           d="M -4349.8888,-912.34535 C -4387.0116,-912.34535 -4417.1396,-882.2777 -4417.1396,-845.23016 C -4417.1396,-808.18228 -4387.0116,-778.11458 -4349.8888,-778.11458 C -4335.37,-778.11458 -4321.9333,-782.74259 -4310.9383,-790.55904 L -4307.6604,-778.08681 L -4274.2591,-778.08681 L -4282.9738,-810.86133 L -4282.9738,-912.31752 L -4316.3752,-912.31752 L -4316.3752,-903.39671 C -4326.2453,-909.07503 -4337.6854,-912.34535 -4349.8888,-912.34535 z M -4348.8799,-878.34031 C -4333.0832,-878.34031 -4319.8391,-863.60899 -4316.3752,-848.88886 L -4316.3752,-839.96931 C -4319.8391,-825.25511 -4333.0832,-811.7004 -4348.8799,-811.7004 C -4367.3085,-811.7004 -4382.2533,-826.61524 -4382.2533,-845.00612 C -4382.2533,-863.39735 -4367.3085,-878.34031 -4348.8799,-878.34031 z" />
      </g>
    </g>
  </g>
</svg>
