<?xml version="1.0" encoding="UTF-8" standalone="no"?>
<svg
   xmlns:dc="http://purl.org/dc/elements/1.1/"
   xmlns:cc="http://creativecommons.org/ns#"
   xmlns:rdf="http://www.w3.org/1999/02/22-rdf-syntax-ns#"
   xmlns:svg="http://www.w3.org/2000/svg"
   xmlns="http://www.w3.org/2000/svg"
   xmlns:sodipodi="http://sodipodi.sourceforge.net/DTD/sodipodi-0.dtd"
   xmlns:inkscape="http://www.inkscape.org/namespaces/inkscape"
   viewBox="0 0 900 600"
   height="600"
   width="900"
   xml:space="preserve"
   version="1.1"
   id="svg3650"
   sodipodi:docname="311_stripe.svg"
   inkscape:version="0.92.5 (2060ec1f9f, 2020-04-08)"><sodipodi:namedview
     pagecolor="#ffffff"
     bordercolor="#666666"
     borderopacity="1"
     objecttolerance="10"
     gridtolerance="10"
     guidetolerance="10"
     inkscape:pageopacity="0"
     inkscape:pageshadow="2"
     inkscape:window-width="1848"
     inkscape:window-height="1053"
     id="namedview47"
     showgrid="false"
     inkscape:zoom="0.55625733"
     inkscape:cx="313.98636"
     inkscape:cy="150.3598"
     inkscape:window-x="72"
     inkscape:window-y="-1"
     inkscape:window-maximized="1"
     inkscape:current-layer="svg3650" /><metadata
     id="metadata3656"><rdf:RDF><cc:Work
         rdf:about=""><dc:format>image/svg+xml</dc:format><dc:type
           rdf:resource="http://purl.org/dc/dcmitype/StillImage" /><dc:title></dc:title></cc:Work></rdf:RDF></metadata><defs
     id="defs3654" /><path
     inkscape:connector-curvature="0"
     id="path17738"
     style="fill:#c1121c;fill-opacity:1;fill-rule:evenodd;stroke:none;stroke-width:1.78737175"
     d="M 14.566489,519.28784 768.15524,16.590624 h 111.89375 l -1.5175,80.925531 -724.66375,484.027395 -122.553751,1.55646 -16.7475,-26.45465 z" /><g
     transform="matrix(1.25,0,0,-1.25,0,600)"
     id="g3658"><path
       inkscape:connector-curvature="0"
       d="M 30,472 C 30,472 8.012,471.961 8,450 V 30 C 8,30 7.992,7.98 30,8 h 660.074 c 22.008,-0.02 22,22 22,22 v 420 c -0.011,21.961 -22,22 -22,22 z m 0,-12 h 660.074 c 0,0 9.942,-0.004 9.961,-10 0.891,-137.652 0.176,-420 0.176,-420 -0.035,-9.73 -10.137,-10 -10.137,-10 H 30 c 0,0 -10.102,0.27 -10.141,10 0,0 -0.711,282.348 0.18,420 0.016,9.996 9.961,10 9.961,10 z"
       style="fill:#000000;fill-opacity:1;fill-rule:evenodd;stroke:none"
       id="path3664" /></g></svg>