<?xml version="1.0" encoding="UTF-8" standalone="no"?>
<svg
   xmlns:dc="http://purl.org/dc/elements/1.1/"
   xmlns:cc="http://creativecommons.org/ns#"
   xmlns:rdf="http://www.w3.org/1999/02/22-rdf-syntax-ns#"
   xmlns:svg="http://www.w3.org/2000/svg"
   xmlns="http://www.w3.org/2000/svg"
   viewBox="0 0 129.58942 750.99878"
   height="750.99878"
   width="129.58942"
   xml:space="preserve"
   version="1.1"
   id="svg20369"><metadata
     id="metadata20375"><rdf:RDF><cc:Work
         rdf:about=""><dc:format>image/svg+xml</dc:format><dc:type
           rdf:resource="http://purl.org/dc/dcmitype/StillImage" /><dc:title></dc:title></cc:Work></rdf:RDF></metadata><defs
     id="defs20373" /><g
     transform="matrix(1.25,0,0,-1.25,0,750.99876)"
     id="g20377"><g
       id="g20379"><path
         id="path20381"
         style="fill:#ffffff;fill-opacity:1;fill-rule:nonzero;stroke:none"
         d="m 0.121,600.682 103.43,0 0,-600.562 -103.43,0 0,600.562 z" /><path
         id="path20383"
         style="fill:#ffffff;fill-opacity:1;fill-rule:nonzero;stroke:none"
         d="m 0.121,600.682 103.41,0 0,-600.562 -103.41,0 0,600.562 z" /><path
         id="path20385"
         style="fill:#c1121c;fill-opacity:1;fill-rule:nonzero;stroke:none"
         d="m 0.121,600.682 103.41,0 0,-100.105 -103.41,0 0,100.105 z" /><path
         id="path20387"
         style="fill:#c1121c;fill-opacity:1;fill-rule:nonzero;stroke:none"
         d="m 0.121,400.487 103.41,0 0,-100.086 -103.41,0 0,100.086 z" /><path
         id="path20389"
         style="fill:#c1121c;fill-opacity:1;fill-rule:nonzero;stroke:none"
         d="m 0.121,200.311 103.41,0 0,-100.086 -103.41,0 0,100.086 z" /><path
         id="path20391"
         style="fill:#ffffff;fill-opacity:1;fill-rule:nonzero;stroke:none"
         d="m 0.121,500.576 103.41,0 0,-100.09 -103.41,0 0,100.09 z" /><path
         id="path20393"
         style="fill:#ffffff;fill-opacity:1;fill-rule:nonzero;stroke:none"
         d="m 0.121,100.225 103.41,0 0,-100.105 -103.41,0 0,100.105 z" /><g
         transform="matrix(1,0,0,-0.967881,0,600.79901)"
         id="g20395"><path
           id="path20397"
           style="fill:none;stroke:#000000;stroke-width:0.24394999;stroke-linecap:butt;stroke-linejoin:miter;stroke-miterlimit:4;stroke-dasharray:none;stroke-opacity:1"
           d="m 0.121,0.121 103.43,0 0,620.492 -103.43,0 0,-620.492 z" /></g></g></g></svg>