<?xml version="1.0" encoding="UTF-8" standalone="no"?>
<svg
   xmlns:dc="http://purl.org/dc/elements/1.1/"
   xmlns:cc="http://creativecommons.org/ns#"
   xmlns:rdf="http://www.w3.org/1999/02/22-rdf-syntax-ns#"
   xmlns:svg="http://www.w3.org/2000/svg"
   xmlns="http://www.w3.org/2000/svg"
   viewBox="0 0 1200.5157 100.74219"
   height="100.74219"
   width="1200.5157"
   xml:space="preserve"
   version="1.1"
   id="svg21860"><metadata
     id="metadata21866"><rdf:RDF><cc:Work
         rdf:about=""><dc:format>image/svg+xml</dc:format><dc:type
           rdf:resource="http://purl.org/dc/dcmitype/StillImage" /><dc:title></dc:title></cc:Work></rdf:RDF></metadata><defs
     id="defs21864"><clipPath
       id="clipPath21876"
       clipPathUnits="userSpaceOnUse"><path
         id="path21878"
         d="m 320.398,80.594 640.602,0 0,-81 -640.602,0 0,81 z" /></clipPath><clipPath
       id="clipPath21886"
       clipPathUnits="userSpaceOnUse"><path
         id="path21888"
         d="m 338,0 623,0 0,81 -623,0 0,-81 z" /></clipPath><clipPath
       id="clipPath21900"
       clipPathUnits="userSpaceOnUse"><path
         id="path21902"
         d="m 0,80.594 641,0 0,-81 -641,0 0,81 z" /></clipPath><clipPath
       id="clipPath21910"
       clipPathUnits="userSpaceOnUse"><path
         id="path21912"
         d="M 0,0 352,0 352,81 0,81 0,0 Z" /></clipPath><clipPath
       id="clipPath21924"
       clipPathUnits="userSpaceOnUse"><path
         id="path21926"
         d="m 0,80.594 640,0 0,-81 -640,0 0,81 z" /></clipPath><clipPath
       id="clipPath21934"
       clipPathUnits="userSpaceOnUse"><path
         id="path21936"
         d="M 0,0 640,0 640,81 0,81 0,0 Z" /></clipPath><clipPath
       id="clipPath21944"
       clipPathUnits="userSpaceOnUse"><path
         id="path21946"
         d="M 0,81 640,81 640,0 0,0 0,81 Z" /></clipPath><clipPath
       id="clipPath21950"
       clipPathUnits="userSpaceOnUse"><path
         id="path21952"
         d="M 16.195,80.805 C 7.359,80.805 0.207,73.402 0.207,64.27 l 0,-70.239 c 0,-9.125 7.152,-16.515 15.988,-16.515 l 607.645,0 c 8.848,0 15.988,7.39 15.988,16.515 l 0,70.239 c 0,9.132 -7.14,16.535 -15.988,16.535 l -607.645,0 z" /></clipPath><clipPath
       id="clipPath21960"
       clipPathUnits="userSpaceOnUse"><path
         id="path21962"
         d="M 0,0 640,0 640,81 0,81 0,0 Z" /></clipPath><clipPath
       id="clipPath21970"
       clipPathUnits="userSpaceOnUse"><path
         id="path21972"
         d="M 0,81 640,81 640,0 0,0 0,81 Z" /></clipPath><clipPath
       id="clipPath21980"
       clipPathUnits="userSpaceOnUse"><path
         id="path21982"
         d="M 0,0 520,0 520,81 0,81 0,0 Z" /></clipPath><clipPath
       id="clipPath21998"
       clipPathUnits="userSpaceOnUse"><path
         id="path22000"
         d="m 320.379,80.594 640,0 0,-81 -640,0 0,81 z" /></clipPath><clipPath
       id="clipPath22008"
       clipPathUnits="userSpaceOnUse"><path
         id="path22010"
         d="m 320,0 641,0 0,81 -641,0 0,-81 z" /></clipPath><clipPath
       id="clipPath22018"
       clipPathUnits="userSpaceOnUse"><path
         id="path22020"
         d="m 320,81 641,0 0,-81 -641,0 0,81 z" /></clipPath><clipPath
       id="clipPath22024"
       clipPathUnits="userSpaceOnUse"><path
         id="path22026"
         d="m 336.574,80.805 c -8.836,0 -15.988,-7.403 -15.988,-16.535 l 0,-70.239 c 0,-9.125 7.152,-16.515 15.988,-16.515 l 607.645,0 c 8.847,0 15.988,7.39 15.988,16.515 l 0,70.239 c 0,9.132 -7.141,16.535 -15.988,16.535 l -607.645,0 z" /></clipPath><clipPath
       id="clipPath22034"
       clipPathUnits="userSpaceOnUse"><path
         id="path22036"
         d="m 320,0 641,0 0,81 -641,0 0,-81 z" /></clipPath><clipPath
       id="clipPath22044"
       clipPathUnits="userSpaceOnUse"><path
         id="path22046"
         d="m 320.379,81 640,0 0,-81 -640,0 0,81 z" /></clipPath><clipPath
       id="clipPath22054"
       clipPathUnits="userSpaceOnUse"><path
         id="path22056"
         d="m 600,0 361,0 0,81 -361,0 0,-81 z" /></clipPath></defs><g
     transform="matrix(1.25,0,0,-1.25,0,100.74219)"
     id="g21868"><g
       id="g21870" /><g
       id="g21872"><g
         clip-path="url(#clipPath21876)"
         id="g21874"><g
           transform="translate(0,-0.40625)"
           id="g21880"><g
             id="g21882"><g
               clip-path="url(#clipPath21886)"
               id="g21884"><g
                 id="g21890"><path
                   id="path21892"
                   style="fill:#000000;fill-opacity:1;fill-rule:nonzero;stroke:none"
                   d="m 338.258,81 0,-0.414 605.984,0 c 8.742,0 15.789,-7.285 15.789,-16.32 l 0,-47.149 c 0,-9.012 -7.047,-16.32 -15.789,-16.32 l -605.984,0 0,-0.391 605.984,0 c 8.957,0 16.172,7.481 16.172,16.711 l 0,47.149 C 960.414,73.52 953.199,81 944.242,81 l -605.984,0 z" /><path
                   id="path21894"
                   style="fill:#ffffff;fill-opacity:1;fill-rule:nonzero;stroke:none"
                   d="m 338.258,80.586 605.984,0 c 8.742,0 15.789,-7.285 15.789,-16.32 l 0,-47.149 c 0,-9.012 -7.047,-16.32 -15.789,-16.32 l -605.984,0 0,79.789 z" /></g></g></g></g></g></g><g
       id="g21896"><g
         clip-path="url(#clipPath21900)"
         id="g21898"><g
           transform="translate(0,-0.40625)"
           id="g21904"><g
             id="g21906"><g
               clip-path="url(#clipPath21910)"
               id="g21908"><g
                 id="g21914"><path
                   id="path21916"
                   style="fill:#000000;fill-opacity:1;fill-rule:nonzero;stroke:none"
                   d="M 16.191,81 C 7.262,81 0,73.52 0,64.266 L 0,17.117 C 0,7.887 7.262,0.406 16.191,0.406 l 322.102,0 0,0.391 -322.102,0 c -8.718,0 -15.793,7.308 -15.793,16.32 l 0,47.149 c 0,9.035 7.075,16.32 15.793,16.32 l 322.102,0 0,0.414 -322.102,0 z" /><path
                   id="path21918"
                   style="fill:#ffffff;fill-opacity:1;fill-rule:nonzero;stroke:none"
                   d="m 351.094,0.797 -334.903,0 c -8.718,0 -15.793,7.308 -15.793,16.32 l 0,47.149 c 0,9.035 7.075,16.32 15.793,16.32 l 334.903,0 0,-79.789 z" /></g></g></g></g></g></g><g
       id="g21920"><g
         clip-path="url(#clipPath21924)"
         id="g21922"><g
           transform="translate(0,-0.40625)"
           id="g21928"><g
             id="g21930"><g
               clip-path="url(#clipPath21934)"
               id="g21932"><g
                 id="g21938" /><g
                 id="g21940"><g
                   clip-path="url(#clipPath21944)"
                   id="g21942"><g
                     clip-path="url(#clipPath21950)"
                     id="g21948"><g
                       id="g21954"><g
                         id="g21956"><g
                           clip-path="url(#clipPath21960)"
                           id="g21958"><g
                             id="g21964" /><g
                             id="g21966"><g
                               clip-path="url(#clipPath21970)"
                               id="g21968"><g
                                 id="g21974"><g
                                   id="g21976"><g
                                   clip-path="url(#clipPath21980)"
                                   id="g21978"><g
                                   id="g21984"><path
                                   id="path21986"
                                   style="fill:#c1121c;fill-opacity:1;fill-rule:nonzero;stroke:none"
                                   d="m 40.168,0.602 -23.973,0 C 7.359,0.602 0.207,8.008 0.207,17.129 l 0,47.137 c 0,9.144 7.152,16.535 15.988,16.535 l 23.973,0 0,-80.199 z" /><path
                                   id="path21988"
                                   style="fill:#c1121c;fill-opacity:1;fill-rule:nonzero;stroke:none"
                                   d="m 120.125,80.805 79.945,0 0,-80.195 -79.945,0 0,80.195 z" /><path
                                   id="path21990"
                                   style="fill:#c1121c;fill-opacity:1;fill-rule:nonzero;stroke:none"
                                   d="m 280.039,80.805 79.945,0 0,-80.195 -79.945,0 0,80.195 z" /><path
                                   id="path21992"
                                   style="fill:#c1121c;fill-opacity:1;fill-rule:nonzero;stroke:none"
                                   d="m 439.953,80.805 79.945,0 0,-80.195 -79.945,0 0,80.195 z" /></g></g></g></g></g></g></g></g></g></g></g></g></g></g></g></g></g><g
       id="g21994"><g
         clip-path="url(#clipPath21998)"
         id="g21996"><g
           transform="translate(0,-0.40625)"
           id="g22002"><g
             id="g22004"><g
               clip-path="url(#clipPath22008)"
               id="g22006"><g
                 id="g22012" /><g
                 id="g22014"><g
                   clip-path="url(#clipPath22018)"
                   id="g22016"><g
                     clip-path="url(#clipPath22024)"
                     id="g22022"><g
                       id="g22028"><g
                         id="g22030"><g
                           clip-path="url(#clipPath22034)"
                           id="g22032"><g
                             id="g22038" /><g
                             id="g22040"><g
                               clip-path="url(#clipPath22044)"
                               id="g22042"><g
                                 id="g22048"><g
                                   id="g22050"><g
                                   clip-path="url(#clipPath22054)"
                                   id="g22052"><g
                                   id="g22058"><path
                                   id="path22060"
                                   style="fill:#c1121c;fill-opacity:1;fill-rule:nonzero;stroke:none"
                                   d="m 600.418,80.805 79.945,0 0,-80.195 -79.945,0 0,80.195 z" /><path
                                   id="path22062"
                                   style="fill:#c1121c;fill-opacity:1;fill-rule:nonzero;stroke:none"
                                   d="m 760.332,80.805 79.945,0 0,-80.195 -79.945,0 0,80.195 z" /><path
                                   id="path22064"
                                   style="fill:#c1121c;fill-opacity:1;fill-rule:nonzero;stroke:none"
                                   d="m 920.238,0.602 0,80.199 23.985,0 c 8.836,0 15.988,-7.391 15.988,-16.535 l 0,-47.137 c 0,-9.121 -7.152,-16.524 -15.988,-16.527 l -23.985,0 z" /></g></g></g></g></g></g></g></g></g></g></g></g></g></g></g></g></g></g></svg>