<?xml version="1.0" encoding="UTF-8" standalone="no"?>
<svg
   xmlns:dc="http://purl.org/dc/elements/1.1/"
   xmlns:cc="http://creativecommons.org/ns#"
   xmlns:rdf="http://www.w3.org/1999/02/22-rdf-syntax-ns#"
   xmlns:svg="http://www.w3.org/2000/svg"
   xmlns="http://www.w3.org/2000/svg"
   viewBox="0 0 1601.5585 250.74219"
   height="250.74219"
   width="1601.5585"
   xml:space="preserve"
   version="1.1"
   id="svg22427"><metadata
     id="metadata22433"><rdf:RDF><cc:Work
         rdf:about=""><dc:format>image/svg+xml</dc:format><dc:type
           rdf:resource="http://purl.org/dc/dcmitype/StillImage" /><dc:title></dc:title></cc:Work></rdf:RDF></metadata><defs
     id="defs22431" /><g
     transform="matrix(1.25,0,0,-1.25,0,250.74219)"
     id="g22435"><g
       id="g22437"><path
         id="path22439"
         style="fill:#ffffff;fill-opacity:1;fill-rule:nonzero;stroke:none"
         d="m 15.43,200.18 0,-0.02 C 7.062,199.75 0.398,192.629 0.398,183.859 0.43,128.035 0.398,72.414 0.398,16.5 0.398,7.754 7.062,0.613 15.43,0.199 l 0,-0.019 1250.023,0 c 8.742,0 15.793,7.308 15.793,16.32 -0.043,55.883 0,111.605 0,167.359 0,9.036 -7.051,16.321 -15.793,16.321 l -1250.023,0 z" /><path
         id="path22441"
         style="fill:#c1121c;fill-opacity:1;fill-rule:nonzero;stroke:none"
         d="m 120.125,200.398 0,-200.218 79.945,0 0,200.218 -79.945,0 z m 159.914,0 0,-200.218 79.945,0 0,200.218 -79.945,0 z m 159.914,0 0,-200.218 79.945,0 0,200.218 -79.945,0 z m 160.465,0 0,-200.218 79.945,0 0,200.218 -79.945,0 z m 159.914,0 0,-200.218 79.945,0 0,200.218 -79.945,0 z m 161.121,0 0,-200.218 79.945,0 0,200.218 -79.945,0 z m 159.914,0 0,-200.218 79.945,0 0,200.218 -79.945,0 z M 16.195,200.395 c -8.836,0 -15.988,-7.391 -15.988,-16.536 0.027,-55.754 0,-111.32 0,-167.152 C 0.207,7.586 7.359,0.18 16.195,0.18 l 23.973,0 0,200.215 -23.973,0 z m 1225.078,0 0,-200.215 23.985,0 c 8.836,0.004 15.988,7.406 15.988,16.527 -0.039,55.809 0,111.465 0,167.152 0,9.145 -7.152,16.536 -15.988,16.536 l -23.985,0 z" /><path
         id="path22443"
         style="fill:#000000;fill-opacity:1;fill-rule:nonzero;stroke:none"
         d="M 16.191,200.594 C 7.262,200.594 0,193.113 0,183.859 L 0,16.711 C 0,7.48 7.262,0 16.191,0 l 1248.883,0 c 8.957,0 16.172,7.48 16.172,16.711 l 0,167.148 c 0,9.254 -7.215,16.735 -16.172,16.735 l -1248.883,0 z m 0,-0.414 1248.883,0 c 8.742,0 15.793,-7.285 15.793,-16.321 l 0,-167.148 c 0,-9.012 -7.051,-16.32 -15.793,-16.32 l -1248.883,0 c -8.718,0 -15.793,7.308 -15.793,16.32 l 0,167.148 c 0,9.036 7.075,16.321 15.793,16.321 z" /></g></g></svg>