<?xml version="1.0" encoding="UTF-8" standalone="no"?>
<svg
   xmlns:dc="http://purl.org/dc/elements/1.1/"
   xmlns:cc="http://creativecommons.org/ns#"
   xmlns:rdf="http://www.w3.org/1999/02/22-rdf-syntax-ns#"
   xmlns:svg="http://www.w3.org/2000/svg"
   xmlns="http://www.w3.org/2000/svg"
   viewBox="0 0 1601.5585 100.74219"
   height="100.74219"
   width="1601.5585"
   xml:space="preserve"
   version="1.1"
   id="svg22300"><metadata
     id="metadata22306"><rdf:RDF><cc:Work
         rdf:about=""><dc:format>image/svg+xml</dc:format><dc:type
           rdf:resource="http://purl.org/dc/dcmitype/StillImage" /><dc:title></dc:title></cc:Work></rdf:RDF></metadata><defs
     id="defs22304" /><g
     transform="matrix(1.25,0,0,-1.25,0,100.74219)"
     id="g22308"><g
       id="g22310"><path
         id="path22312"
         style="fill:#ffffff;fill-opacity:1;fill-rule:nonzero;stroke:none"
         d="M 16.191,80.18 C 7.473,80.18 0.398,72.895 0.398,63.859 l 0,-47.148 c 0,-9.012 7.075,-16.32 15.793,-16.32 l 1249.262,0 c 8.742,0 15.793,7.308 15.793,16.32 l 0,47.148 c 0,9.036 -7.051,16.321 -15.793,16.321 l -1249.262,0 z" /><path
         id="path22314"
         style="fill:#c1121c;fill-opacity:1;fill-rule:nonzero;stroke:none"
         d="m 921.453,80.398 79.945,0 0,-80.195 -79.945,0 0,80.195 z" /><path
         id="path22316"
         style="fill:#c1121c;fill-opacity:1;fill-rule:nonzero;stroke:none"
         d="m 1081.367,80.398 79.945,0 0,-80.195 -79.945,0 0,80.195 z" /><path
         id="path22318"
         style="fill:#c1121c;fill-opacity:1;fill-rule:nonzero;stroke:none"
         d="m 1241.273,0.195 0,80.2 23.985,0 c 8.836,0 15.988,-7.391 15.988,-16.536 l 0,-47.136 c 0,-9.121 -7.152,-16.524 -15.988,-16.528 l -23.985,0 z" /><path
         id="path22320"
         style="fill:#c1121c;fill-opacity:1;fill-rule:nonzero;stroke:none"
         d="m 760.988,80.398 79.945,0 0,-80.195 -79.945,0 0,80.195 z" /><path
         id="path22322"
         style="fill:#c1121c;fill-opacity:1;fill-rule:nonzero;stroke:none"
         d="m 40.168,0.195 -23.973,0 C 7.359,0.195 0.207,7.602 0.207,16.723 l 0,47.136 c 0,9.145 7.152,16.536 15.988,16.536 l 23.973,0 0,-80.2 z" /><path
         id="path22324"
         style="fill:#c1121c;fill-opacity:1;fill-rule:nonzero;stroke:none"
         d="m 120.125,80.398 79.945,0 0,-80.195 -79.945,0 0,80.195 z" /><path
         id="path22326"
         style="fill:#c1121c;fill-opacity:1;fill-rule:nonzero;stroke:none"
         d="m 600.418,80.398 79.945,0 0,-80.195 -79.945,0 0,80.195 z" /><path
         id="path22328"
         style="fill:#c1121c;fill-opacity:1;fill-rule:nonzero;stroke:none"
         d="m 760.332,80.398 79.945,0 0,-80.195 -79.945,0 0,80.195 z" /><path
         id="path22330"
         style="fill:#c1121c;fill-opacity:1;fill-rule:nonzero;stroke:none"
         d="m 600.418,80.398 79.945,0 0,-80.195 -79.945,0 0,80.195 z" /><path
         id="path22332"
         style="fill:#c1121c;fill-opacity:1;fill-rule:nonzero;stroke:none"
         d="m 760.332,80.398 79.945,0 0,-80.195 -79.945,0 0,80.195 z" /><path
         id="path22334"
         style="fill:#c1121c;fill-opacity:1;fill-rule:nonzero;stroke:none"
         d="m 920.238,0.195 0,80.2 23.985,0 c 8.836,0 15.988,-7.391 15.988,-16.536 l 0,-47.136 c 0,-9.121 -7.152,-16.524 -15.988,-16.528 l -23.985,0 z" /><path
         id="path22336"
         style="fill:#c1121c;fill-opacity:1;fill-rule:nonzero;stroke:none"
         d="m 439.953,80.398 79.945,0 0,-80.195 -79.945,0 0,80.195 z" /><path
         id="path22338"
         style="fill:#c1121c;fill-opacity:1;fill-rule:nonzero;stroke:none"
         d="m 280.039,80.398 79.945,0 0,-80.195 -79.945,0 0,80.195 z" /><path
         id="path22340"
         style="fill:#000000;fill-opacity:1;fill-rule:nonzero;stroke:none"
         d="m 332.691,80.594 0,-0.414 932.383,0 c 8.742,0 15.793,-7.285 15.793,-16.321 l 0,-47.148 c 0,-9.012 -7.051,-16.32 -15.793,-16.32 l -932.383,0 0,-0.391 932.383,0 c 8.957,0 16.172,7.48 16.172,16.711 l 0,47.148 c 0,9.254 -7.215,16.735 -16.172,16.735 l -932.383,0 z" /><path
         id="path22342"
         style="fill:#000000;fill-opacity:1;fill-rule:nonzero;stroke:none"
         d="M 16.191,80.594 C 7.262,80.594 0,73.113 0,63.859 L 0,16.711 C 0,7.48 7.262,0 16.191,0 l 322.102,0 0,0.391 -322.102,0 c -8.718,0 -15.793,7.308 -15.793,16.32 l 0,47.148 c 0,9.036 7.075,16.321 15.793,16.321 l 322.102,0 0,0.414 -322.102,0 z" /></g></g></svg>