<?xml version="1.0" encoding="UTF-8" standalone="no"?>
<svg
   xmlns:dc="http://purl.org/dc/elements/1.1/"
   xmlns:cc="http://creativecommons.org/ns#"
   xmlns:rdf="http://www.w3.org/1999/02/22-rdf-syntax-ns#"
   xmlns:svg="http://www.w3.org/2000/svg"
   xmlns="http://www.w3.org/2000/svg"
   viewBox="0 0 877.37799 4387.1479"
   height="4387.1479"
   width="877.37799"
   xml:space="preserve"
   version="1.1"
   id="svg4153"><metadata
     id="metadata4159"><rdf:RDF><cc:Work
         rdf:about=""><dc:format>image/svg+xml</dc:format><dc:type
           rdf:resource="http://purl.org/dc/dcmitype/StillImage" /><dc:title></dc:title></cc:Work></rdf:RDF></metadata><defs
     id="defs4157"><clipPath
       id="clipPath4173"
       clipPathUnits="userSpaceOnUse"><path
         id="path4175"
         d="M 0,0 702,0 702,3510 0,3510 0,0 Z" /></clipPath></defs><g
     transform="matrix(1.25,0,0,-1.25,0,4387.1478)"
     id="g4161"><g
       id="g4163"><path
         id="path4165"
         style="fill:#ffffff;fill-opacity:1;fill-rule:nonzero;stroke:none"
         d="M 56.129,3.437 C 27.102,3.437 3.508,27.101 3.508,56.128 l 0,3397.454 c 0,29.031 23.594,52.691 52.621,52.691 l 589.711,0 c 28.961,0 52.555,-23.66 52.555,-52.691 l 0,-3397.454 c 0,-29.027 -23.594,-52.691 -52.555,-52.691 l -589.711,0 z" /></g><g
       id="g4167"><g
         transform="translate(0,-0.281738)"
         id="g4169"><g
           id="g4171" /><g
           id="g4177"><g
             id="g4179"
             clip-path="url(#clipPath4173)"><g
               id="g4181"><path
                 id="path4183"
                 style="fill:#c1121c;fill-opacity:1;fill-rule:nonzero;stroke:none"
                 d="M 351.02,3510 0,3159.047 0,3453.867 C 0,3484.891 25.176,3510 56.129,3510" /><path
                 id="path4185"
                 style="fill:#c1121c;fill-opacity:1;fill-rule:nonzero;stroke:none"
                 d="M 701.973,3159.047 0,2457.074 l 0,351.02 685.531,685.465 c 10.524,-10.524 16.442,-24.832 16.442,-39.692" /><path
                 id="path4187"
                 style="fill:#c1121c;fill-opacity:1;fill-rule:nonzero;stroke:none"
                 d="M 701.973,2457.074 0,1755.172 l 0,350.953 701.973,701.969" /><path
                 id="path4189"
                 style="fill:#c1121c;fill-opacity:1;fill-rule:nonzero;stroke:none"
                 d="m 701.973,2106.125 0,-350.953 -36.391,-36.457 c -34.668,78.351 -97.195,140.879 -175.543,175.547" /><path
                 id="path4191"
                 style="fill:#c1121c;fill-opacity:1;fill-rule:nonzero;stroke:none"
                 d="m 0,1404.152 36.387,36.391 c 34.601,-78.281 97.199,-140.879 175.476,-175.477 L 0,1053.203" /><path
                 id="path4193"
                 style="fill:#c1121c;fill-opacity:1;fill-rule:nonzero;stroke:none"
                 d="M 701.973,1053.203 0,351.23 0,702.184 701.973,1404.152" /><path
                 id="path4195"
                 style="fill:#c1121c;fill-opacity:1;fill-rule:nonzero;stroke:none"
                 d="m 701.973,702.184 0,-350.954 L 351.02,0.281 l -294.891,0 c -14.856,0 -29.164,5.914 -39.688,16.438" /></g></g></g></g></g><g
       id="g4197"><path
         id="path4199"
         style="fill:#000000;fill-opacity:1;fill-rule:nonzero;stroke:none"
         d="m 226.93,2983.289 c 0,68.511 55.508,124.093 124.09,124.093 68.511,0 124.093,-55.582 124.093,-124.093 0,-68.512 -55.582,-124.09 -124.093,-124.09 -68.582,0 -124.09,55.578 -124.09,124.09" /><path
         id="path4201"
         style="fill:#ffcc33;fill-opacity:1;fill-rule:nonzero;stroke:none"
         d="m 231.262,2983.289 c 0,66.101 53.586,119.691 119.758,119.691 66.105,0 119.691,-53.59 119.691,-119.691 0,-66.106 -53.586,-119.688 -119.691,-119.688 -66.172,0 -119.758,53.582 -119.758,119.688" /><path
         id="path4203"
         style="fill:#000000;fill-opacity:1;fill-rule:nonzero;stroke:none"
         d="m 226.93,2281.316 c 0,68.512 55.508,124.09 124.09,124.09 68.511,0 124.093,-55.578 124.093,-124.09 0,-68.512 -55.582,-124.094 -124.093,-124.094 -68.582,0 -124.09,55.582 -124.09,124.094" /><path
         id="path4205"
         style="fill:#ffcc33;fill-opacity:1;fill-rule:nonzero;stroke:none"
         d="m 231.262,2281.316 c 0,66.105 53.586,119.687 119.758,119.687 66.105,0 119.691,-53.582 119.691,-119.687 0,-66.102 -53.586,-119.691 -119.691,-119.691 -66.172,0 -119.758,53.589 -119.758,119.691" /><path
         id="path4207"
         style="fill:#154889;fill-opacity:1;fill-rule:nonzero;stroke:none"
         d="m 172.656,1401.05 218.879,0 60.738,60.739 -170.246,0 271.641,271.64 -48.633,48.629 -271.57,-271.637 0,170.246 -60.809,-60.808 0,-218.809 z m 505.102,178.297 c 0,-180.43 -146.309,-326.738 -326.738,-326.738 -180.497,0 -326.805,146.308 -326.805,326.738 0,180.496 146.308,326.805 326.805,326.805 180.429,0 326.738,-146.309 326.738,-326.805" /><path
         id="path4209"
         style="fill:#000000;fill-opacity:1;fill-rule:nonzero;stroke:none"
         d="M 56.129,3.437 C 27.102,3.437 3.508,27.101 3.508,56.128 l 0,3397.454 c 0,29.031 23.594,52.691 52.621,52.691 l 589.711,0 c 28.961,0 52.555,-23.66 52.555,-52.691 l 0,-3397.454 c 0,-29.027 -23.594,-52.691 -52.555,-52.691 l -589.711,0 z m 589.711,3506.277 -589.711,0 C 25.105,3509.714 0,3484.539 0,3453.582 L 0,56.128 C 0,25.101 25.105,0 56.129,0 L 645.84,0 c 30.957,0 56.062,25.101 56.062,56.128 l 0,3397.454 c 0,30.957 -25.105,56.132 -56.062,56.132" /></g></g></svg>