<?xml version="1.0" encoding="UTF-8" standalone="no"?>
<svg
   xmlns:dc="http://purl.org/dc/elements/1.1/"
   xmlns:cc="http://creativecommons.org/ns#"
   xmlns:rdf="http://www.w3.org/1999/02/22-rdf-syntax-ns#"
   xmlns:svg="http://www.w3.org/2000/svg"
   xmlns="http://www.w3.org/2000/svg"
   viewBox="0 0 886.32397 4431.4429"
   height="4431.4429"
   width="886.32397"
   xml:space="preserve"
   version="1.1"
   id="svg4046"><metadata
     id="metadata4052"><rdf:RDF><cc:Work
         rdf:about=""><dc:format>image/svg+xml</dc:format><dc:type
           rdf:resource="http://purl.org/dc/dcmitype/StillImage" /><dc:title></dc:title></cc:Work></rdf:RDF></metadata><defs
     id="defs4050" /><g
     transform="matrix(1.25,0,0,-1.25,0,4431.4429)"
     id="g4054"><g
       id="g4056"><path
         id="path4058"
         style="fill:#ffffff;fill-opacity:1;fill-rule:nonzero;stroke:none"
         d="m 56.695,3.475 c -29.32,0 -53.152,23.902 -53.152,53.148 l 0,3431.836 c 0,29.32 23.832,53.223 53.152,53.223 l 595.598,0 c 29.32,0 53.152,-23.903 53.152,-53.223 l 0,-3431.836 c 0,-29.246 -23.832,-53.148 -53.152,-53.148 l -595.598,0 z" /><path
         id="path4060"
         style="fill:#c1121c;fill-opacity:1;fill-rule:nonzero;stroke:none"
         d="M 354.563,3545.154 0,3190.658 0,3488.459 c 0,31.336 25.43,56.695 56.766,56.695" /><path
         id="path4062"
         style="fill:#c1121c;fill-opacity:1;fill-rule:nonzero;stroke:none"
         d="M 709.059,3190.658 0,2481.604 l 0,354.562 692.453,692.387 c 10.629,-10.637 16.606,-25.086 16.606,-40.094" /><path
         id="path4064"
         style="fill:#c1121c;fill-opacity:1;fill-rule:nonzero;stroke:none"
         d="M 709.059,2481.604 0,1772.541 l 0,354.566 709.059,709.059" /><path
         id="path4066"
         style="fill:#c1121c;fill-opacity:1;fill-rule:nonzero;stroke:none"
         d="M 709.059,1772.541 0,1063.553 l 0,354.492 709.059,709.062" /><path
         id="path4068"
         style="fill:#c1121c;fill-opacity:1;fill-rule:nonzero;stroke:none"
         d="M 709.059,1063.553 0,354.494 0,708.99 709.059,1418.045" /><path
         id="path4070"
         style="fill:#c1121c;fill-opacity:1;fill-rule:nonzero;stroke:none"
         d="m 709.059,708.99 0,-354.496 -354.496,-354.492 -297.797,0 c -15.078,0 -29.528,5.973 -40.161,16.602" /><path
         id="path4072"
         style="fill:#000000;fill-opacity:1;fill-rule:nonzero;stroke:none"
         d="m 229.219,3013.416 c 0,69.203 56.074,125.344 125.344,125.344 69.207,0 125.347,-56.141 125.347,-125.344 0,-69.203 -56.14,-125.348 -125.347,-125.348 -69.27,0 -125.344,56.145 -125.344,125.348" /><path
         id="path4074"
         style="fill:#000000;fill-opacity:1;fill-rule:nonzero;stroke:none"
         d="m 229.219,2304.354 c 0,69.203 56.074,125.343 125.344,125.343 69.207,0 125.347,-56.14 125.347,-125.343 0,-69.204 -56.14,-125.344 -125.347,-125.344 -69.27,0 -125.344,56.14 -125.344,125.344" /><path
         id="path4076"
         style="fill:#000000;fill-opacity:1;fill-rule:nonzero;stroke:none"
         d="m 229.219,1595.295 c 0,69.203 56.074,125.348 125.344,125.348 69.207,0 125.347,-56.145 125.347,-125.348 0,-69.203 -56.14,-125.344 -125.347,-125.344 -69.27,0 -125.344,56.141 -125.344,125.344" /><path
         id="path4078"
         style="fill:#ffcc33;fill-opacity:1;fill-rule:nonzero;stroke:none"
         d="m 233.598,3013.416 c 0,66.77 54.125,120.898 120.965,120.898 66.773,0 120.898,-54.128 120.898,-120.898 0,-66.777 -54.125,-120.898 -120.898,-120.898 -66.84,0 -120.965,54.121 -120.965,120.898" /><path
         id="path4080"
         style="fill:#ffcc33;fill-opacity:1;fill-rule:nonzero;stroke:none"
         d="m 233.598,2304.354 c 0,66.773 54.125,120.898 120.965,120.898 66.773,0 120.898,-54.125 120.898,-120.898 0,-66.77 -54.125,-120.899 -120.898,-120.899 -66.84,0 -120.965,54.129 -120.965,120.899" /><path
         id="path4082"
         style="fill:#ffcc33;fill-opacity:1;fill-rule:nonzero;stroke:none"
         d="m 233.598,1595.295 c 0,66.769 54.125,120.898 120.965,120.898 66.773,0 120.898,-54.129 120.898,-120.898 0,-66.774 -54.125,-120.895 -120.898,-120.895 -66.84,0 -120.965,54.121 -120.965,120.895" /><path
         id="path4084"
         style="fill:#000000;fill-opacity:1;fill-rule:nonzero;stroke:none"
         d="m 56.695,3.475 c -29.32,0 -53.152,23.902 -53.152,53.148 l 0,3431.836 c 0,29.32 23.832,53.223 53.152,53.223 l 595.598,0 c 29.32,0 53.152,-23.903 53.152,-53.223 l 0,-3431.836 c 0,-29.246 -23.832,-53.148 -53.152,-53.148 l -595.598,0 z m 595.598,3541.679 -595.598,0 C 25.359,3545.154 0,3519.725 0,3488.459 L 0,56.623 C 0,25.357 25.359,0.002 56.695,0.002 l 595.598,0 c 31.336,0 56.695,25.355 56.695,56.621 l 0,3431.836 c 0,31.266 -25.359,56.695 -56.695,56.695" /></g></g></svg>