<?xml version="1.0" encoding="UTF-8" standalone="no"?>
<svg
   xmlns:dc="http://purl.org/dc/elements/1.1/"
   xmlns:cc="http://creativecommons.org/ns#"
   xmlns:rdf="http://www.w3.org/1999/02/22-rdf-syntax-ns#"
   xmlns:svg="http://www.w3.org/2000/svg"
   xmlns="http://www.w3.org/2000/svg"
   viewBox="0 0 877.37799 4387.1479"
   height="4387.1479"
   width="877.37799"
   xml:space="preserve"
   version="1.1"
   id="svg4211"><metadata
     id="metadata4217"><rdf:RDF><cc:Work
         rdf:about=""><dc:format>image/svg+xml</dc:format><dc:type
           rdf:resource="http://purl.org/dc/dcmitype/StillImage" /><dc:title></dc:title></cc:Work></rdf:RDF></metadata><defs
     id="defs4215"><clipPath
       id="clipPath4231"
       clipPathUnits="userSpaceOnUse"><path
         id="path4233"
         d="M 0,0 702,0 702,3510 0,3510 0,0 Z" /></clipPath></defs><g
     transform="matrix(1.25,0,0,-1.25,0,4387.1478)"
     id="g4219"><g
       id="g4221"><path
         id="path4223"
         style="fill:#ffffff;fill-opacity:1;fill-rule:nonzero;stroke:none"
         d="m 645.844,3.437 c 29.027,0 52.621,23.664 52.621,52.691 l 0,3397.454 c 0,29.031 -23.594,52.691 -52.621,52.691 l -589.711,0 c -28.961,0 -52.555,-23.66 -52.555,-52.691 l 0,-3397.454 C 3.578,27.101 27.172,3.437 56.133,3.437 l 589.711,0 z" /></g><g
       id="g4225"><g
         transform="translate(0,-0.281738)"
         id="g4227"><g
           id="g4229" /><g
           id="g4235"><g
             id="g4237"
             clip-path="url(#clipPath4231)"><g
               id="g4239"><path
                 id="path4241"
                 style="fill:#c1121c;fill-opacity:1;fill-rule:nonzero;stroke:none"
                 d="m 350.953,3510 351.02,-350.953 0,294.82 c 0,31.024 -25.176,56.133 -56.129,56.133" /><path
                 id="path4243"
                 style="fill:#c1121c;fill-opacity:1;fill-rule:nonzero;stroke:none"
                 d="m 0,3159.047 701.973,-701.973 0,351.02 -685.532,685.465 C 5.918,3483.035 0,3468.727 0,3453.867" /><path
                 id="path4245"
                 style="fill:#c1121c;fill-opacity:1;fill-rule:nonzero;stroke:none"
                 d="m 0,2457.074 701.973,-701.902 0,350.953 L 0,2808.094" /><path
                 id="path4247"
                 style="fill:#c1121c;fill-opacity:1;fill-rule:nonzero;stroke:none"
                 d="m 0,2106.125 0,-350.953 36.391,-36.457 c 34.668,78.351 97.195,140.879 175.543,175.547" /><path
                 id="path4249"
                 style="fill:#c1121c;fill-opacity:1;fill-rule:nonzero;stroke:none"
                 d="m 701.973,1404.152 -36.387,36.391 c -34.602,-78.281 -97.199,-140.879 -175.477,-175.477 l 211.864,-211.863" /><path
                 id="path4251"
                 style="fill:#c1121c;fill-opacity:1;fill-rule:nonzero;stroke:none"
                 d="m 0,1053.203 701.973,-701.973 0,350.954 L 0,1404.152" /><path
                 id="path4253"
                 style="fill:#c1121c;fill-opacity:1;fill-rule:nonzero;stroke:none"
                 d="M 0,702.184 0,351.23 350.953,0.281 l 294.891,0 c 14.855,0 29.164,5.914 39.687,16.438" /></g></g></g></g></g><g
       id="g4255"><path
         id="path4257"
         style="fill:#000000;fill-opacity:1;fill-rule:nonzero;stroke:none"
         d="m 475.043,2983.289 c 0,68.511 -55.508,124.093 -124.09,124.093 -68.512,0 -124.094,-55.582 -124.094,-124.093 0,-68.512 55.582,-124.09 124.094,-124.09 68.582,0 124.09,55.578 124.09,124.09" /><path
         id="path4259"
         style="fill:#ffcc33;fill-opacity:1;fill-rule:nonzero;stroke:none"
         d="m 470.711,2983.289 c 0,66.101 -53.586,119.691 -119.758,119.691 -66.105,0 -119.691,-53.59 -119.691,-119.691 0,-66.106 53.586,-119.688 119.691,-119.688 66.172,0 119.758,53.582 119.758,119.688" /><path
         id="path4261"
         style="fill:#000000;fill-opacity:1;fill-rule:nonzero;stroke:none"
         d="m 475.043,2281.316 c 0,68.512 -55.508,124.09 -124.09,124.09 -68.512,0 -124.094,-55.578 -124.094,-124.09 0,-68.512 55.582,-124.094 124.094,-124.094 68.582,0 124.09,55.582 124.09,124.094" /><path
         id="path4263"
         style="fill:#ffcc33;fill-opacity:1;fill-rule:nonzero;stroke:none"
         d="m 470.711,2281.316 c 0,66.105 -53.586,119.687 -119.758,119.687 -66.105,0 -119.691,-53.582 -119.691,-119.687 0,-66.102 53.586,-119.691 119.691,-119.691 66.172,0 119.758,53.589 119.758,119.691" /><path
         id="path4265"
         style="fill:#154889;fill-opacity:1;fill-rule:nonzero;stroke:none"
         d="m 529.316,1401.05 -218.878,0 -60.739,60.739 170.246,0 -271.64,271.64 48.633,48.629 271.57,-271.637 0,170.246 60.808,-60.808 0,-218.809 z M 24.215,1579.347 c 0,-180.43 146.308,-326.738 326.738,-326.738 180.496,0 326.805,146.308 326.805,326.738 0,180.496 -146.309,326.805 -326.805,326.805 -180.43,0 -326.738,-146.309 -326.738,-326.805" /><path
         id="path4267"
         style="fill:#000000;fill-opacity:1;fill-rule:nonzero;stroke:none"
         d="m 645.844,3.437 c 29.027,0 52.621,23.664 52.621,52.691 l 0,3397.454 c 0,29.031 -23.594,52.691 -52.621,52.691 l -589.711,0 c -28.961,0 -52.555,-23.66 -52.555,-52.691 l 0,-3397.454 C 3.578,27.101 27.172,3.437 56.133,3.437 l 589.711,0 z m -589.711,3506.277 589.711,0 c 31.023,0 56.129,-25.175 56.129,-56.132 l 0,-3397.454 C 701.973,25.101 676.867,0 645.844,0 L 56.133,0 C 25.176,0 0.07,25.101 0.07,56.128 l 0,3397.454 c 0,30.957 25.106,56.132 56.063,56.132" /></g></g></svg>