<?xml version="1.0" encoding="UTF-8" standalone="no"?>
<svg
   xmlns:dc="http://purl.org/dc/elements/1.1/"
   xmlns:cc="http://creativecommons.org/ns#"
   xmlns:rdf="http://www.w3.org/1999/02/22-rdf-syntax-ns#"
   xmlns:svg="http://www.w3.org/2000/svg"
   xmlns="http://www.w3.org/2000/svg"
   viewBox="0 0 886.32397 4431.4429"
   height="4431.4429"
   width="886.32397"
   xml:space="preserve"
   version="1.1"
   id="svg4086"><metadata
     id="metadata4092"><rdf:RDF><cc:Work
         rdf:about=""><dc:format>image/svg+xml</dc:format><dc:type
           rdf:resource="http://purl.org/dc/dcmitype/StillImage" /><dc:title></dc:title></cc:Work></rdf:RDF></metadata><defs
     id="defs4090" /><g
     transform="matrix(1.25,0,0,-1.25,0,4431.4429)"
     id="g4094"><g
       id="g4096"><path
         id="path4098"
         style="fill:#ffffff;fill-opacity:1;fill-rule:nonzero;stroke:none"
         d="m 652.363,3.475 c 29.321,0 53.153,23.902 53.153,53.148 l 0,3431.836 c 0,29.32 -23.832,53.223 -53.153,53.223 l -595.597,0 c -29.321,0 -53.153,-23.903 -53.153,-53.223 l 0,-3431.836 C 3.613,27.377 27.445,3.475 56.766,3.475 l 595.597,0 z" /><path
         id="path4100"
         style="fill:#c1121c;fill-opacity:1;fill-rule:nonzero;stroke:none"
         d="m 354.496,3545.154 354.563,-354.496 0,297.801 c 0,31.336 -25.43,56.695 -56.766,56.695" /><path
         id="path4102"
         style="fill:#c1121c;fill-opacity:1;fill-rule:nonzero;stroke:none"
         d="m 0,3190.658 709.059,-709.054 0,354.562 -692.454,692.387 C 5.977,3517.916 0,3503.467 0,3488.459" /><path
         id="path4104"
         style="fill:#c1121c;fill-opacity:1;fill-rule:nonzero;stroke:none"
         d="m 0,2481.604 709.059,-709.063 0,354.566 L 0,2836.166" /><path
         id="path4106"
         style="fill:#c1121c;fill-opacity:1;fill-rule:nonzero;stroke:none"
         d="m 0,1772.541 709.059,-708.988 0,354.492 L 0,2127.107" /><path
         id="path4108"
         style="fill:#c1121c;fill-opacity:1;fill-rule:nonzero;stroke:none"
         d="m 0,1063.553 709.059,-709.059 0,354.496 L 0,1418.045" /><path
         id="path4110"
         style="fill:#c1121c;fill-opacity:1;fill-rule:nonzero;stroke:none"
         d="M 0,708.99 0,354.494 354.496,0.002 l 297.797,0 c 15.078,0 29.527,5.973 40.16,16.602" /><path
         id="path4112"
         style="fill:#000000;fill-opacity:1;fill-rule:nonzero;stroke:none"
         d="m 479.84,3013.416 c 0,69.203 -56.074,125.344 -125.344,125.344 -69.207,0 -125.348,-56.141 -125.348,-125.344 0,-69.203 56.141,-125.348 125.348,-125.348 69.27,0 125.344,56.145 125.344,125.348" /><path
         id="path4114"
         style="fill:#000000;fill-opacity:1;fill-rule:nonzero;stroke:none"
         d="m 479.84,2304.354 c 0,69.203 -56.074,125.343 -125.344,125.343 -69.207,0 -125.348,-56.14 -125.348,-125.343 0,-69.204 56.141,-125.344 125.348,-125.344 69.27,0 125.344,56.14 125.344,125.344" /><path
         id="path4116"
         style="fill:#000000;fill-opacity:1;fill-rule:nonzero;stroke:none"
         d="m 479.84,1595.295 c 0,69.203 -56.074,125.348 -125.344,125.348 -69.207,0 -125.348,-56.145 -125.348,-125.348 0,-69.203 56.141,-125.344 125.348,-125.344 69.27,0 125.344,56.141 125.344,125.344" /><path
         id="path4118"
         style="fill:#ffcc33;fill-opacity:1;fill-rule:nonzero;stroke:none"
         d="m 475.461,3013.416 c 0,66.77 -54.125,120.898 -120.965,120.898 -66.773,0 -120.898,-54.128 -120.898,-120.898 0,-66.777 54.125,-120.898 120.898,-120.898 66.84,0 120.965,54.121 120.965,120.898" /><path
         id="path4120"
         style="fill:#ffcc33;fill-opacity:1;fill-rule:nonzero;stroke:none"
         d="m 475.461,2304.354 c 0,66.773 -54.125,120.898 -120.965,120.898 -66.773,0 -120.898,-54.125 -120.898,-120.898 0,-66.77 54.125,-120.899 120.898,-120.899 66.84,0 120.965,54.129 120.965,120.899" /><path
         id="path4122"
         style="fill:#ffcc33;fill-opacity:1;fill-rule:nonzero;stroke:none"
         d="m 475.461,1595.295 c 0,66.769 -54.125,120.898 -120.965,120.898 -66.773,0 -120.898,-54.129 -120.898,-120.898 0,-66.774 54.125,-120.895 120.898,-120.895 66.84,0 120.965,54.121 120.965,120.895" /><path
         id="path4124"
         style="fill:#000000;fill-opacity:1;fill-rule:nonzero;stroke:none"
         d="m 652.363,3.475 c 29.321,0 53.153,23.902 53.153,53.148 l 0,3431.836 c 0,29.32 -23.832,53.223 -53.153,53.223 l -595.597,0 c -29.321,0 -53.153,-23.903 -53.153,-53.223 l 0,-3431.836 C 3.613,27.377 27.445,3.475 56.766,3.475 l 595.597,0 z m -595.597,3541.679 595.597,0 c 31.336,0 56.696,-25.429 56.696,-56.695 l 0,-3431.836 c 0,-31.266 -25.36,-56.621 -56.696,-56.621 l -595.597,0 C 25.43,0.002 0.07,25.357 0.07,56.623 l 0,3431.836 c 0,31.266 25.36,56.695 56.696,56.695" /></g></g></svg>