<?xml version="1.0" encoding="UTF-8" standalone="no"?>
<svg
   xmlns:dc="http://purl.org/dc/elements/1.1/"
   xmlns:cc="http://creativecommons.org/ns#"
   xmlns:rdf="http://www.w3.org/1999/02/22-rdf-syntax-ns#"
   xmlns:svg="http://www.w3.org/2000/svg"
   xmlns="http://www.w3.org/2000/svg"
   viewBox="0 0 817.95697 1327.3566"
   height="1327.3566"
   width="817.95697"
   xml:space="preserve"
   version="1.1"
   id="svg10802"><metadata
     id="metadata10808"><rdf:RDF><cc:Work
         rdf:about=""><dc:format>image/svg+xml</dc:format><dc:type
           rdf:resource="http://purl.org/dc/dcmitype/StillImage" /><dc:title></dc:title></cc:Work></rdf:RDF></metadata><defs
     id="defs10806"><clipPath
       id="clipPath10952"
       clipPathUnits="userSpaceOnUse"><path
         id="path10954"
         d="M 0,0 655,0 655,1062 0,1062 0,0 Z" /></clipPath></defs><g
     transform="matrix(1.25,0,0,-1.25,0,1327.3566)"
     id="g10810"><g
       id="g10812"><path
         id="path10814"
         style="fill:#ffffff;fill-opacity:1;fill-rule:nonzero;stroke:none"
         d="m 12.77,0.889 -0.391,0 L 11.602,0.94 10.832,1.038 10.07,1.19 9.316,1.389 8.586,1.639 7.863,1.932 7.168,2.276 6.5,2.667 5.852,3.088 5.234,3.553 4.648,4.065 4.105,4.608 3.59,5.194 3.113,5.799 2.688,6.44 2.297,7.108 1.957,7.803 1.656,8.514 1.41,9.241 1.203,9.991 1.059,10.745 0.953,11.51 l -0.051,0.77 0,1037.336 0.051,0.769 0.106,0.766 0.144,0.754 0.207,0.742 0.246,0.73 0.301,0.711 0.34,0.696 0.391,0.672 0.425,0.632 0.477,0.618 0.515,0.574 0.543,0.551 0.586,0.507 0.618,0.465 0.648,0.434 0.668,0.379 0.695,0.343 0.723,0.297 0.73,0.25 0.754,0.2 0.762,0.144 0.77,0.102 0.777,0.05 629.656,0 0.778,-0.05 0.769,-0.102 0.762,-0.144 0.746,-0.2 0.738,-0.25 0.719,-0.297 0.699,-0.343 0.668,-0.379 0.649,-0.434 0.617,-0.465 0.582,-0.507 0.551,-0.551 0.511,-0.574 0.469,-0.618 0.437,-0.632 0.387,-0.672 0.344,-0.696 0.297,-0.711 0.246,-0.73 0.207,-0.742 0.144,-0.754 0.106,-0.766 0.051,-0.769 0.004,-0.387 0,-1036.562 -0.004,-0.387 -0.051,-0.77 -0.106,-0.765 -0.144,-0.754 -0.207,-0.75 -0.246,-0.723 -0.297,-0.715 -0.344,-0.691 -0.387,-0.672 -0.437,-0.641 -0.469,-0.605 -0.511,-0.586 -0.551,-0.543 -0.582,-0.508 -0.617,-0.465 -0.649,-0.425 -0.668,-0.391 -0.699,-0.34 -0.719,-0.297 -0.738,-0.25 -0.746,-0.199 -0.762,-0.152 -0.769,-0.094 -0.778,-0.051 -629.265,0" /><g
         transform="matrix(1,0,0,-0.992715,0,1061.8853)"
         id="g10816"><path
           id="path10818"
           style="fill:none;stroke:#231f20;stroke-width:1.60585999;stroke-linecap:butt;stroke-linejoin:miter;stroke-miterlimit:4;stroke-dasharray:none;stroke-opacity:1"
           d="m 12.789,1068.751 -0.387,0 -0.781,-0.051 -0.766,-0.102 -0.765,-0.146 -0.75,-0.209 -0.735,-0.247 -0.714,-0.296 -0.703,-0.342 -0.668,-0.393 -0.645,-0.433 -0.621,-0.465 -0.582,-0.515 -0.543,-0.551 -0.512,-0.586 -0.48,-0.614 -0.426,-0.641 -0.395,-0.681 -0.339,-0.693 -0.301,-0.716 -0.246,-0.736 -0.203,-0.751 -0.149,-0.764 -0.101,-0.767 -0.055,-0.771 0,-1045.004 L 0.977,11.502 1.078,10.734 1.227,9.971 1.43,9.22 1.676,8.484 1.977,7.768 2.316,7.067 2.711,6.398 3.137,5.753 3.617,5.135 4.129,4.553 4.672,4.002 5.254,3.49 5.875,3.018 6.52,2.585 7.188,2.196 7.891,1.849 8.605,1.554 9.34,1.302 l 0.75,-0.196 0.765,-0.154 0.766,-0.098 0.781,-0.051 629.684,0 0.773,0.051 0.766,0.098 0.766,0.154 0.75,0.196 0.734,0.252 0.715,0.295 0.703,0.347 0.672,0.389 0.64,0.433 0.622,0.472 0.582,0.512 0.55,0.551 0.512,0.582 0.473,0.618 0.433,0.645 0.387,0.669 0.34,0.701 0.297,0.716 0.25,0.736 0.203,0.751 0.148,0.763 0.102,0.768 0.055,0.775 0.004,0.386 0,1044.224 -0.004,0.394 -0.055,0.771 -0.102,0.767 -0.148,0.764 -0.203,0.751 -0.25,0.736 -0.297,0.716 -0.34,0.693 -0.387,0.681 -0.433,0.641 -0.473,0.614 -0.512,0.586 -0.55,0.551 -0.582,0.515 -0.622,0.465 -0.64,0.433 -0.672,0.393 -0.703,0.342 -0.715,0.296 -0.734,0.247 -0.75,0.209 -0.766,0.146 -0.766,0.102 -0.773,0.051 -629.297,0 z" /></g><path
         id="path10820"
         style="fill:#c1121c;fill-opacity:1;fill-rule:nonzero;stroke:none"
         d="m 12.77,0.889 -0.391,0 L 11.602,0.94 10.832,1.038 10.07,1.19 9.316,1.389 8.586,1.639 7.863,1.932 7.168,2.276 6.5,2.667 5.852,3.088 5.234,3.553 4.648,4.065 4.379,4.338 l 144.84,143.789 106.304,0 0.18,-0.066 0.184,-0.062 -148.199,-147.11 -94.918,0" /><path
         id="path10822"
         style="fill:#da2128;fill-opacity:1;fill-rule:nonzero;stroke:none"
         d="m 0.902,954.999 0,94.617 0.051,0.769 0.102,0.766 0.148,0.754 0.203,0.742 0.25,0.734 0.301,0.707 0.34,0.7 0.391,0.668 0.425,0.632 0.477,0.621 0.515,0.571 0.543,0.551 0.586,0.511 0.618,0.465 0.644,0.43 0.668,0.379 0.699,0.347 0.719,0.293 0.734,0.25 0.754,0.2 0.758,0.144 0.774,0.106 0.773,0.05 95.313,0 -23.219,-23.054 -0.367,0.683 -0.801,1.332 -0.832,1.301 -0.891,1.277 -0.926,1.243 -0.98,1.214 -1.008,1.172 -1.062,1.141 -1.094,1.098 -1.133,1.066 -1.176,1.019 -1.199,0.985 -1.242,0.937 -1.278,0.899 -1.296,0.851 -1.332,0.805 -1.364,0.754 -1.383,0.715 -1.41,0.656 -1.433,0.613 -1.453,0.555 -1.473,0.516 -1.492,0.457 -1.504,0.41 -1.52,0.351 -1.531,0.301 -1.535,0.25 -1.547,0.192 -1.555,0.14 -1.554,0.086 -1.559,0.035 -1.559,-0.023 -1.566,-0.074 -1.547,-0.129 -1.554,-0.188 -1.536,-0.238 -1.531,-0.289 -1.523,-0.348 -1.504,-0.394 -1.496,-0.453 -1.477,-0.5 -1.457,-0.551 -1.434,-0.606 -1.417,-0.652 -1.387,-0.703 -1.367,-0.75 -1.34,-0.793 -1.309,-0.844 -1.273,-0.883 -1.242,-0.929 -1.219,-0.977 -1.176,-1.016 -1.141,-1.054 -1.105,-1.094 -1.059,-1.133 -1.027,-1.168 -0.98,-1.203 -0.934,-1.234 -0.899,-1.274 -0.843,-1.297 -0.805,-1.332 -0.75,-1.355 -0.715,-1.379 -0.652,-1.406 -0.606,-1.422 -0.558,-1.445 -0.508,-1.469 -0.445,-1.481 -0.403,-1.496 -0.347,-1.508 -0.293,-1.519 -0.246,-1.531 -0.18,-1.536 -0.133,-1.542 -0.078,-1.547 -0.023,-1.551 0.027,-1.547 0.09,-1.547 0.136,-1.543 0.2,-1.535 0.254,-1.527 0.3,-1.52 0.36,-1.508 0.406,-1.492 0.465,-1.476 0.515,-1.465 0.567,-1.442 0.613,-1.422 0.668,-1.398 0.715,-1.375 0.762,-1.352 0.808,-1.324 0.864,-1.293 0.894,-1.261 0.949,-1.231 0.992,-1.199 1.024,-1.16 1.074,-1.129 1.11,-1.09 1.144,-1.047 1.188,-1.008 1.218,-0.965 1.254,-0.918 1.285,-0.878 1.309,-0.84 1.344,-0.789 0.687,-0.368 -23.219,-23.046" /><path
         id="path10824"
         style="fill:#c1121c;fill-opacity:1;fill-rule:nonzero;stroke:none"
         d="m 641.648,0.889 0.387,0 0.778,0.051 0.769,0.098 0.762,0.152 0.746,0.199 0.738,0.25 0.719,0.293 0.699,0.344 0.668,0.391 0.649,0.421 0.617,0.465 0.582,0.512 0.281,0.273 -144.848,143.789 -106.3,0 -0.184,-0.066 -0.184,-0.062 148.2,-147.11 94.921,0" /><path
         id="path10826"
         style="fill:#da2128;fill-opacity:1;fill-rule:nonzero;stroke:none"
         d="m 653.516,954.999 0,94.23 -0.004,0.387 -0.051,0.769 -0.102,0.766 -0.148,0.754 -0.203,0.742 -0.25,0.734 -0.293,0.707 -0.348,0.7 -0.387,0.668 -0.433,0.632 -0.473,0.621 -0.508,0.571 -0.55,0.551 -0.586,0.511 -0.617,0.465 -0.645,0.43 -0.672,0.379 -0.695,0.347 -0.719,0.293 -0.738,0.25 -0.75,0.2 -0.758,0.144 -0.773,0.102 -0.774,0.054 -95.312,0 23.218,-23.054 0.375,0.679 0.793,1.336 0.84,1.301 0.883,1.277 0.93,1.243 0.976,1.21 1.016,1.176 1.055,1.141 1.093,1.098 1.133,1.066 1.176,1.019 1.199,0.985 1.242,0.937 1.278,0.899 1.296,0.847 1.333,0.809 1.363,0.754 1.387,0.715 1.406,0.656 1.433,0.613 1.457,0.555 1.469,0.516 1.492,0.457 1.504,0.41 1.512,0.351 1.539,0.301 1.535,0.25 1.555,0.192 1.547,0.14 1.554,0.086 1.563,0.035 1.555,-0.023 1.558,-0.074 1.559,-0.129 1.543,-0.188 1.547,-0.238 1.527,-0.289 1.523,-0.348 1.508,-0.394 1.492,-0.453 1.473,-0.5 1.453,-0.551 1.442,-0.606 1.41,-0.652 1.394,-0.703 1.364,-0.75 1.343,-0.793 1.309,-0.844 1.273,-0.883 1.25,-0.933 1.207,-0.973 1.18,-1.016 1.145,-1.054 1.101,-1.094 1.063,-1.133 1.015,-1.168 0.981,-1.203 0.941,-1.238 0.899,-1.27 0.843,-1.297 0.805,-1.332 0.754,-1.355 0.711,-1.379 0.656,-1.406 0.606,-1.422 0.554,-1.445 0.508,-1.469 0.453,-1.481 0.395,-1.496 0.347,-1.508 0.301,-1.519 0.238,-1.531 0.184,-1.536 0.133,-1.542 0.074,-1.547 0.02,-1.551 -0.036,-1.547 -0.082,-1.547 -0.144,-1.543 -0.191,-1.535 -0.25,-1.527 -0.305,-1.52 -0.36,-1.508 -0.414,-1.492 -0.457,-1.476 -0.511,-1.465 -0.571,-1.442 -0.613,-1.422 -0.664,-1.398 -0.715,-1.375 -0.765,-1.355 -0.809,-1.321 -0.859,-1.293 -0.899,-1.261 -0.949,-1.231 -0.984,-1.199 -1.032,-1.16 -1.074,-1.129 -1.109,-1.09 -1.145,-1.047 -1.187,-1.008 -1.219,-0.965 -1.246,-0.918 -1.289,-0.878 -1.313,-0.84 -1.34,-0.789 -0.687,-0.368 23.219,-23.046" /><path
         id="path10828"
         style="fill:#c1121c;fill-opacity:1;fill-rule:nonzero;stroke:none"
         d="M 214.484,0.889 327.207,112.788 439.934,0.889 l -101.184,0 -11.543,15.172 -11.543,-15.172 -101.18,0" /><path
         id="path10830"
         style="fill:#ffffff;fill-opacity:1;fill-rule:nonzero;stroke:none"
         d="m 89.895,1016.838 -0.004,0.77 -0.055,1.539 -0.109,1.539 -0.164,1.539 -0.215,1.52 -0.266,1.519 -0.324,1.508 -0.379,1.504 -0.426,1.476 -0.484,1.469 -0.531,1.446 -0.579,1.429 -0.636,1.406 -0.672,1.391 -0.735,1.359 -0.773,1.34 -0.824,1.301 -0.867,1.285 -0.914,1.246 -0.958,1.211 -1.003,1.18 -1.032,1.148 -1.082,1.114 -1.117,1.066 -1.152,1.035 -1.192,0.992 -1.222,0.946 -1.258,0.906 -1.289,0.863 -1.317,0.817 -1.343,0.769 -1.371,0.727 -1.399,0.676 -1.418,0.628 -1.441,0.579 -1.457,0.527 -1.481,0.476 -1.492,0.418 -1.508,0.375 -1.519,0.325 -1.532,0.265 -1.535,0.215 -1.543,0.16 -1.55,0.106 -1.551,0.058 -1.559,0 -1.551,-0.058 -1.543,-0.106 -1.55,-0.16 -1.535,-0.215 -1.532,-0.265 -1.519,-0.325 -1.508,-0.375 -1.492,-0.418 -1.477,-0.476 -1.457,-0.527 -1.441,-0.579 -1.422,-0.628 -1.399,-0.676 -1.371,-0.727 -1.343,-0.769 -1.317,-0.817 -1.285,-0.863 -1.258,-0.906 -1.226,-0.946 -1.184,-0.992 -1.164,-1.035 -1.117,-1.066 -1.074,-1.114 -1.039,-1.148 -0.997,-1.18 -0.961,-1.211 -0.91,-1.246 -0.871,-1.285 -0.82,-1.301 -0.777,-1.34 -0.731,-1.359 -0.68,-1.391 -0.628,-1.406 -0.586,-1.429 -0.532,-1.446 -0.476,-1.469 -0.43,-1.476 -0.375,-1.504 -0.324,-1.508 -0.266,-1.519 -0.222,-1.52 -0.157,-1.539 -0.109,-1.539 -0.055,-1.539 0,-1.539 0.055,-1.543 0.109,-1.539 0.157,-1.535 0.222,-1.524 0.266,-1.519 0.324,-1.508 0.375,-1.5 0.43,-1.477 0.476,-1.468 0.532,-1.45 0.586,-1.433 0.628,-1.406 0.68,-1.383 0.731,-1.367 0.777,-1.333 0.82,-1.308 0.871,-1.277 0.91,-1.247 0.961,-1.218 0.997,-1.18 1.039,-1.145 1.074,-1.113 1.117,-1.062 1.164,-1.039 1.184,-0.989 1.226,-0.949 1.258,-0.902 1.285,-0.863 1.317,-0.821 1.343,-0.773 1.371,-0.719 1.399,-0.68 1.422,-0.625 1.441,-0.578 1.457,-0.527 1.477,-0.477 1.492,-0.425 1.508,-0.372 1.519,-0.32 1.532,-0.266 1.535,-0.214 1.55,-0.164 1.543,-0.11 1.551,-0.054 1.559,0 1.551,0.054 1.55,0.11 1.543,0.164 1.535,0.214 1.532,0.266 1.519,0.32 1.508,0.372 1.492,0.425 1.481,0.477 1.457,0.527 1.441,0.578 1.418,0.625 1.399,0.68 1.371,0.719 1.343,0.773 1.317,0.821 1.289,0.863 1.258,0.902 1.222,0.949 1.192,0.989 1.152,1.039 1.117,1.062 1.082,1.113 1.032,1.145 1.003,1.18 0.958,1.218 0.914,1.247 0.867,1.277 0.824,1.308 0.773,1.333 0.735,1.367 0.672,1.383 0.636,1.406 0.579,1.433 0.531,1.45 0.484,1.468 0.426,1.477 0.379,1.5 0.324,1.508 0.266,1.519 0.215,1.524 0.164,1.535 0.109,1.539 0.055,1.543 0.004,0.769" /><g
         transform="matrix(1,0,0,-0.992715,0,1061.8853)"
         id="g10832"><path
           id="path10834"
           style="fill:none;stroke:#231f20;stroke-width:1.60585999;stroke-linecap:butt;stroke-linejoin:miter;stroke-miterlimit:4;stroke-dasharray:none;stroke-opacity:1"
           d="m 89.918,45.299 0,-0.779 -0.059,-1.555 -0.109,-1.546 -0.164,-1.55 -0.215,-1.535 -0.269,-1.527 -0.325,-1.523 -0.375,-1.507 -0.425,-1.491 -0.481,-1.48 L 86.961,29.347 86.387,27.906 85.75,26.49 85.074,25.097 84.34,23.72 83.559,22.378 82.742,21.064 81.875,19.769 80.961,18.514 80.004,17.29 79,16.102 77.965,14.945 76.883,13.827 75.762,12.749 74.621,11.71 73.426,10.711 72.199,9.755 70.941,8.846 69.656,7.972 68.336,7.15 66.992,6.375 65.621,5.647 64.227,4.962 62.813,4.332 61.367,3.75 59.91,3.223 58.43,2.739 56.938,2.31 55.43,1.936 53.91,1.609 52.379,1.342 50.844,1.125 49.301,0.968 47.746,0.862 46.195,0.803 44.641,0.803 43.086,0.862 41.539,0.968 39.996,1.125 38.461,1.342 36.93,1.609 35.41,1.936 33.902,2.31 32.406,2.739 30.93,3.223 29.469,3.75 28.027,4.332 26.613,4.962 25.219,5.647 23.84,6.375 22.504,7.15 l -1.32,0.822 -1.293,0.874 -1.25,0.909 -1.231,0.956 -1.183,0.999 -1.161,1.039 -1.117,1.078 -1.074,1.118 -1.043,1.157 -0.996,1.188 -0.953,1.224 -0.918,1.255 -0.871,1.295 -0.821,1.314 -0.777,1.342 -0.73,1.377 -0.684,1.393 -0.629,1.416 -0.582,1.441 -0.527,1.459 -0.481,1.48 -0.433,1.491 -0.367,1.507 -0.333,1.523 -0.265,1.527 -0.219,1.535 -0.156,1.55 -0.11,1.546 -0.058,1.555 0,1.554 0.058,1.554 0.11,1.547 0.156,1.546 0.219,1.539 0.265,1.522 0.333,1.527 0.367,1.503 0.433,1.496 0.481,1.475 0.527,1.464 0.582,1.436 0.629,1.421 0.684,1.397 0.73,1.373 0.777,1.342 0.821,1.322 0.871,1.287 0.918,1.251 0.953,1.228 0.996,1.188 1.043,1.149 1.074,1.121 1.117,1.082 1.161,1.043 1.183,0.996 1.231,0.956 1.25,0.909 1.293,0.873 1.32,0.819 1.336,0.779 1.379,0.728 1.394,0.685 1.414,0.629 1.442,0.583 1.461,0.535 1.476,0.476 1.496,0.429 1.508,0.374 1.52,0.322 1.531,0.268 1.535,0.216 1.543,0.166 1.547,0.11 1.555,0.055 1.554,0 1.551,-0.055 1.555,-0.11 1.543,-0.166 1.535,-0.216 1.531,-0.268 1.52,-0.322 1.508,-0.374 1.492,-0.429 1.48,-0.476 1.457,-0.535 1.446,-0.583 1.414,-0.629 1.394,-0.685 1.371,-0.728 1.344,-0.779 1.32,-0.819 1.285,-0.873 1.258,-0.909 1.227,-0.956 1.195,-0.996 1.141,-1.043 1.121,-1.082 1.082,-1.121 1.035,-1.149 1.004,-1.188 0.957,-1.228 0.914,-1.251 0.867,-1.287 0.817,-1.322 0.781,-1.342 0.734,-1.373 0.676,-1.397 0.637,-1.421 0.574,-1.436 0.535,-1.464 0.481,-1.475 0.425,-1.496 0.375,-1.503 0.325,-1.527 0.269,-1.522 0.215,-1.539 0.164,-1.546 0.109,-1.547 0.059,-1.554 0,-0.775 z" /></g><g
         transform="matrix(1,0,0,-0.992715,0,1061.8853)"
         id="g10836"><path
           id="path10838"
           style="fill:none;stroke:#231f20;stroke-width:1.60585999;stroke-linecap:butt;stroke-linejoin:miter;stroke-miterlimit:4;stroke-dasharray:none;stroke-opacity:1"
           d="m 564.563,45.299 0.007,-0.779 0.051,-1.555 0.109,-1.546 0.165,-1.55 0.214,-1.535 0.27,-1.527 0.324,-1.523 0.375,-1.507 0.426,-1.491 0.484,-1.48 0.532,-1.459 0.578,-1.441 0.632,-1.416 0.684,-1.393 0.727,-1.377 0.773,-1.342 0.824,-1.314 0.871,-1.295 0.911,-1.255 0.957,-1.224 0.996,-1.188 1.047,-1.157 1.07,-1.118 1.121,-1.078 1.156,-1.039 1.188,-0.999 1.226,-0.956 1.262,-0.909 1.281,-0.874 1.321,-0.822 1.343,-0.775 1.371,-0.728 1.395,-0.685 1.422,-0.63 1.437,-0.582 1.457,-0.527 1.481,-0.484 1.496,-0.429 1.508,-0.374 1.515,-0.327 1.532,-0.267 1.535,-0.217 1.547,-0.157 1.55,-0.106 1.551,-0.059 1.555,0 1.555,0.059 1.546,0.106 1.543,0.157 1.543,0.217 1.524,0.267 1.527,0.327 1.5,0.374 1.492,0.429 1.481,0.484 1.461,0.527 1.441,0.582 1.414,0.63 1.395,0.685 1.379,0.728 1.343,0.775 1.313,0.822 1.285,0.874 1.258,0.909 1.226,0.956 1.196,0.999 1.148,1.039 1.121,1.078 1.074,1.118 1.043,1.157 1,1.188 0.957,1.224 0.911,1.255 0.871,1.295 0.82,1.314 0.777,1.342 0.731,1.377 0.683,1.393 0.625,1.416 0.586,1.441 0.528,1.459 0.48,1.48 0.434,1.491 0.367,1.507 0.324,1.523 0.274,1.527 0.218,1.535 0.164,1.55 0.106,1.546 0.055,1.555 0,1.554 -0.055,1.554 -0.106,1.547 -0.164,1.546 -0.218,1.539 -0.274,1.522 -0.324,1.527 -0.367,1.503 -0.434,1.496 -0.48,1.475 -0.528,1.464 -0.586,1.436 -0.625,1.421 -0.683,1.397 -0.731,1.373 -0.777,1.342 -0.82,1.322 -0.871,1.287 -0.911,1.251 -0.957,1.228 -1,1.188 -1.043,1.149 -1.074,1.121 -1.121,1.082 -1.148,1.043 -1.196,0.996 -1.226,0.956 -1.258,0.909 -1.285,0.873 -1.313,0.819 -1.343,0.779 -1.379,0.728 -1.395,0.685 -1.414,0.629 -1.441,0.583 -1.461,0.535 -1.481,0.476 -1.492,0.429 -1.5,0.374 -1.527,0.322 -1.524,0.268 -1.543,0.216 -1.543,0.166 -1.546,0.11 -1.555,0.055 -1.555,0 -1.551,-0.055 -1.55,-0.11 -1.547,-0.166 -1.535,-0.216 -1.532,-0.268 -1.515,-0.322 -1.508,-0.374 -1.496,-0.429 -1.481,-0.476 -1.457,-0.535 -1.437,-0.583 -1.422,-0.629 -1.395,-0.685 -1.371,-0.728 -1.343,-0.779 -1.321,-0.819 -1.281,-0.873 -1.262,-0.909 -1.226,-0.956 -1.188,-0.996 -1.156,-1.043 -1.121,-1.082 -1.07,-1.121 -1.047,-1.149 -0.996,-1.188 -0.957,-1.228 -0.911,-1.251 -0.871,-1.287 -0.824,-1.322 -0.773,-1.342 -0.727,-1.373 -0.684,-1.397 -0.632,-1.421 -0.578,-1.436 -0.532,-1.464 -0.484,-1.475 -0.426,-1.496 -0.375,-1.503 -0.324,-1.527 -0.27,-1.522 -0.214,-1.539 -0.165,-1.546 -0.109,-1.547 -0.051,-1.554 -0.007,-0.775 z" /></g><path
         id="path10840"
         style="fill:#c1121c;fill-opacity:1;fill-rule:nonzero;stroke:none"
         d="m 439.707,1061.022 213.301,-209.883 0,-109.586 -321.817,319.469 108.516,0" /><path
         id="path10842"
         style="fill:#c1121c;fill-opacity:1;fill-rule:nonzero;stroke:none"
         d="m 321.836,951.436 331.172,-321.328 0,-104.012 -331.172,317.617 0,107.723" /><path
         id="path10844"
         style="fill:#c1121c;fill-opacity:1;fill-rule:nonzero;stroke:none"
         d="m 505.195,572.534 147.813,-146.739 0,-104.011 -147.813,143.019 0,107.731" /><path
         id="path10846"
         style="fill:#c1121c;fill-opacity:1;fill-rule:nonzero;stroke:none"
         d="m 505.195,364.502 147.813,-146.73 0,-104.02 -147.813,143.02 0,107.73" /><path
         id="path10848"
         style="fill:#c1121c;fill-opacity:1;fill-rule:nonzero;stroke:none"
         d="M 213.316,1061.022 0.012,851.139 l 0,-109.586 321.824,319.469 -108.52,0" /><path
         id="path10850"
         style="fill:#c1121c;fill-opacity:1;fill-rule:nonzero;stroke:none"
         d="M 321.836,951.436 0.012,630.108 l 0,-104.012 321.824,317.617 0,107.723" /><path
         id="path10852"
         style="fill:#c1121c;fill-opacity:1;fill-rule:nonzero;stroke:none"
         d="M 147.824,572.534 0.012,425.795 l 0,-104.011 147.812,143.019 0,107.731" /><path
         id="path10854"
         style="fill:#c1121c;fill-opacity:1;fill-rule:nonzero;stroke:none"
         d="M 147.824,364.502 0.012,217.772 l 0,-104.02 147.812,143.02 0,107.73" /><path
         id="path10856"
         style="fill:#ffffff;fill-opacity:1;fill-rule:nonzero;stroke:none"
         d="m 142.012,923.901 366.652,0 0,-787.238 -366.652,0 0,787.238 z" /><g
         transform="matrix(1,0,0,-1,0,1061.8853)"
         id="g10858"><path
           id="path10860"
           style="fill:none;stroke:#231f20;stroke-width:1.60000002;stroke-linecap:butt;stroke-linejoin:miter;stroke-miterlimit:4;stroke-dasharray:none;stroke-opacity:1"
           d="m 142.039,137.914 366.664,0 0,787.27 -366.664,0 0,-787.27 z" /></g><path
         id="path10862"
         style="fill:#ffffff;fill-opacity:1;fill-rule:nonzero;stroke:none"
         d="m 162.43,900.084 c 0,3.415 2.785,6.18 6.215,6.18 l 313.394,0 c 3.441,0 6.227,-2.765 6.227,-6.18 l 0,-335.062 c 0,-3.414 -2.786,-6.18 -6.227,-6.18 l -313.394,0 c -3.43,0 -6.215,2.766 -6.215,6.18 l 0,335.062" /><g
         transform="matrix(1,0,0,-1,0,1061.8853)"
         id="g10864"><path
           id="path10866"
           style="fill:none;stroke:#231f20;stroke-width:1.60000002;stroke-linecap:butt;stroke-linejoin:miter;stroke-miterlimit:4;stroke-dasharray:none;stroke-opacity:1"
           d="m 162.457,161.727 c 0,-3.418 2.789,-6.18 6.215,-6.18 l 313.41,0 c 3.438,0 6.223,2.762 6.223,6.18 l 0,335.078 c 0,3.418 -2.785,6.179 -6.223,6.179 l -313.41,0 c -3.426,0 -6.215,-2.761 -6.215,-6.179 l 0,-335.078 z" /></g><path
         id="path10868"
         style="fill:#ffcc33;fill-opacity:1;fill-rule:nonzero;stroke:none"
         d="m 468,855.284 c 0,-17.813 -14.555,-32.258 -32.5,-32.258 -17.937,0 -32.469,14.445 -32.469,32.258 0,17.808 14.532,32.234 32.469,32.234 17.945,0 32.5,-14.426 32.5,-32.234" /><g
         transform="matrix(1,0,0,-1,0,1061.8853)"
         id="g10870"><path
           id="path10872"
           style="fill:none;stroke:#231f20;stroke-width:1.60000002;stroke-linecap:butt;stroke-linejoin:miter;stroke-miterlimit:4;stroke-dasharray:none;stroke-opacity:1"
           d="m 468.035,206.527 c 0,17.813 -14.551,32.258 -32.492,32.258 -17.941,0 -32.477,-14.445 -32.477,-32.258 0,-17.804 14.536,-32.234 32.477,-32.234 17.941,0 32.492,14.43 32.492,32.234 z" /></g><path
         id="path10874"
         style="fill:#ffcc33;fill-opacity:1;fill-rule:nonzero;stroke:none"
         d="m 406.996,795.542 c 0,-17.813 -14.523,-32.254 -32.469,-32.254 -17.937,0 -32.492,14.441 -32.492,32.254 0,17.792 14.555,32.238 32.492,32.238 17.946,0 32.469,-14.446 32.469,-32.238" /><g
         transform="matrix(1,0,0,-1,0,1061.8853)"
         id="g10876"><path
           id="path10878"
           style="fill:none;stroke:#231f20;stroke-width:1.60000002;stroke-linecap:butt;stroke-linejoin:miter;stroke-miterlimit:4;stroke-dasharray:none;stroke-opacity:1"
           d="m 407.035,266.27 c 0,17.812 -14.527,32.257 -32.469,32.257 -17.945,0 -32.496,-14.445 -32.496,-32.257 0,-17.79 14.551,-32.235 32.496,-32.235 17.942,0 32.469,14.445 32.469,32.235 z" /></g><path
         id="path10880"
         style="fill:#ffcc33;fill-opacity:1;fill-rule:nonzero;stroke:none"
         d="m 357.777,732.506 c 0,-17.812 -14.523,-32.257 -32.468,-32.257 -17.938,0 -32.493,14.445 -32.493,32.257 0,17.786 14.555,32.235 32.493,32.235 17.945,0 32.468,-14.449 32.468,-32.235" /><g
         transform="matrix(1,0,0,-1,0,1061.8853)"
         id="g10882"><path
           id="path10884"
           style="fill:none;stroke:#231f20;stroke-width:1.60000002;stroke-linecap:butt;stroke-linejoin:miter;stroke-miterlimit:4;stroke-dasharray:none;stroke-opacity:1"
           d="m 357.816,329.309 c 0,17.812 -14.535,32.257 -32.468,32.257 -17.946,0 -32.5,-14.445 -32.5,-32.257 0,-17.789 14.554,-32.231 32.5,-32.231 17.933,0 32.468,14.442 32.468,32.231 z" /></g><path
         id="path10886"
         style="fill:#ffcc33;fill-opacity:1;fill-rule:nonzero;stroke:none"
         d="m 238.039,601.237 c 0,-17.805 -14.555,-32.25 -32.492,-32.25 -17.938,0 -32.469,14.445 -32.469,32.25 0,17.808 14.531,32.262 32.469,32.262 17.937,0 32.492,-14.454 32.492,-32.262" /><g
         transform="matrix(1,0,0,-1,0,1061.8853)"
         id="g10888"><path
           id="path10890"
           style="fill:none;stroke:#231f20;stroke-width:1.60000002;stroke-linecap:butt;stroke-linejoin:miter;stroke-miterlimit:4;stroke-dasharray:none;stroke-opacity:1"
           d="m 238.07,460.582 c 0,17.813 -14.554,32.254 -32.492,32.254 -17.941,0 -32.473,-14.441 -32.473,-32.254 0,-17.805 14.532,-32.258 32.473,-32.258 17.938,0 32.492,14.453 32.492,32.258 z" /></g><path
         id="path10892"
         style="fill:#ffcc33;fill-opacity:1;fill-rule:nonzero;stroke:none"
         d="m 236.422,690.362 c 0,-17.813 -14.547,-32.254 -32.492,-32.254 -17.938,0 -32.469,14.441 -32.469,32.254 0,17.808 14.531,32.234 32.469,32.234 17.945,0 32.492,-14.426 32.492,-32.234" /><g
         transform="matrix(1,0,0,-1,0,1061.8853)"
         id="g10894"><path
           id="path10896"
           style="fill:none;stroke:#231f20;stroke-width:1.60000002;stroke-linecap:butt;stroke-linejoin:miter;stroke-miterlimit:4;stroke-dasharray:none;stroke-opacity:1"
           d="m 236.449,371.457 c 0,17.813 -14.551,32.258 -32.484,32.258 -17.942,0 -32.477,-14.445 -32.477,-32.258 0,-17.809 14.535,-32.238 32.477,-32.238 17.933,0 32.484,14.429 32.484,32.238 z" /></g><path
         id="path10898"
         style="fill:#ffcc33;fill-opacity:1;fill-rule:nonzero;stroke:none"
         d="m 236.41,775.502 c 0,-17.812 -14.547,-32.257 -32.492,-32.257 -17.938,0 -32.465,14.445 -32.465,32.257 0,17.805 14.527,32.231 32.465,32.231 17.945,0 32.492,-14.426 32.492,-32.231" /><g
         transform="matrix(1,0,0,-1,0,1061.8853)"
         id="g10900"><path
           id="path10902"
           style="fill:none;stroke:#231f20;stroke-width:1.60000002;stroke-linecap:butt;stroke-linejoin:miter;stroke-miterlimit:4;stroke-dasharray:none;stroke-opacity:1"
           d="m 236.438,286.313 c 0,17.812 -14.551,32.261 -32.485,32.261 -17.941,0 -32.476,-14.449 -32.476,-32.261 0,-17.809 14.535,-32.231 32.476,-32.231 17.934,0 32.485,14.422 32.485,32.231 z" /></g><path
         id="path10904"
         style="fill:#fff200;fill-opacity:1;fill-rule:nonzero;stroke:none"
         d="m 315.914,601.229 c 0,-17.812 -14.527,-32.25 -32.465,-32.25 -17.945,0 -32.492,14.438 -32.492,32.25 0,17.809 14.547,32.254 32.492,32.254 17.938,0 32.465,-14.445 32.465,-32.254" /><g
         transform="matrix(1,0,0,-1,0,1061.8853)"
         id="g10906"><path
           id="path10908"
           style="fill:#ffcc33;fill-opacity:1;fill-rule:nonzero;stroke:#231f20;stroke-width:1.60000002;stroke-linecap:butt;stroke-linejoin:miter;stroke-miterlimit:4;stroke-dasharray:none;stroke-opacity:1"
           d="m 315.949,460.594 c 0,17.812 -14.527,32.258 -32.469,32.258 -17.941,0 -32.492,-14.446 -32.492,-32.258 0,-17.809 14.551,-32.254 32.492,-32.254 17.942,0 32.469,14.445 32.469,32.254 z" /></g><path
         id="path10910"
         style="fill:#ffcc33;fill-opacity:1;fill-rule:nonzero;stroke:none"
         d="m 402.656,600.643 c 0,-17.809 -14.551,-32.23 -32.488,-32.23 -17.941,0 -32.473,14.421 -32.473,32.23 0,17.805 14.532,32.254 32.473,32.254 17.937,0 32.488,-14.449 32.488,-32.254" /><g
         transform="matrix(1,0,0,-1,0,1061.8853)"
         id="g10912"><path
           id="path10914"
           style="fill:none;stroke:#231f20;stroke-width:1.60000002;stroke-linecap:butt;stroke-linejoin:miter;stroke-miterlimit:4;stroke-dasharray:none;stroke-opacity:1"
           d="m 402.691,461.184 c 0,17.808 -14.546,32.23 -32.488,32.23 -17.941,0 -32.469,-14.422 -32.469,-32.23 0,-17.813 14.528,-32.254 32.469,-32.254 17.942,0 32.488,14.441 32.488,32.254 z" /></g><path
         id="path10916"
         style="fill:#ffffff;fill-opacity:1;fill-rule:nonzero;stroke:none"
         d="m 310.668,802.194 c 0,-17.813 -14.547,-32.258 -32.48,-32.258 -17.946,0 -32.473,14.445 -32.473,32.258 0,17.805 14.527,32.226 32.473,32.226 17.933,0 32.48,-14.421 32.48,-32.226" /><g
         transform="matrix(1,0,0,-1,0,1061.8853)"
         id="g10918"><path
           id="path10920"
           style="fill:none;stroke:#231f20;stroke-width:1.60000002;stroke-linecap:butt;stroke-linejoin:miter;stroke-miterlimit:4;stroke-dasharray:none;stroke-opacity:1"
           d="m 310.703,259.621 c 0,17.813 -14.547,32.254 -32.488,32.254 -17.942,0 -32.473,-14.441 -32.473,-32.254 0,-17.808 14.531,-32.23 32.473,-32.23 17.941,0 32.488,14.422 32.488,32.23 z" /></g><path
         id="path10922"
         style="fill:#ffffff;fill-opacity:1;fill-rule:nonzero;stroke:none"
         d="m 249.703,860.292 c 0,-17.805 -14.551,-32.25 -32.488,-32.25 -17.938,0 -32.465,14.445 -32.465,32.25 0,17.808 14.527,32.234 32.465,32.234 17.937,0 32.488,-14.426 32.488,-32.234" /><g
         transform="matrix(1,0,0,-1,0,1061.8853)"
         id="g10924"><path
           id="path10926"
           style="fill:none;stroke:#231f20;stroke-width:1.60000002;stroke-linecap:butt;stroke-linejoin:miter;stroke-miterlimit:4;stroke-dasharray:none;stroke-opacity:1"
           d="m 249.734,201.516 c 0,17.812 -14.546,32.254 -32.488,32.254 -17.941,0 -32.473,-14.442 -32.473,-32.254 0,-17.809 14.532,-32.231 32.473,-32.231 17.942,0 32.488,14.422 32.488,32.231 z" /></g><path
         id="path10928"
         style="fill:#ffffff;fill-opacity:1;fill-rule:nonzero;stroke:none"
         d="m 477.465,600.725 c 0,-17.812 -14.547,-32.25 -32.488,-32.25 -17.938,0 -32.469,14.438 -32.469,32.25 0,17.805 14.531,32.227 32.469,32.227 17.941,0 32.488,-14.422 32.488,-32.227" /><g
         transform="matrix(1,0,0,-1,0,1061.8853)"
         id="g10930"><path
           id="path10932"
           style="fill:none;stroke:#231f20;stroke-width:1.60000002;stroke-linecap:butt;stroke-linejoin:miter;stroke-miterlimit:4;stroke-dasharray:none;stroke-opacity:1"
           d="m 477.508,461.102 c 0,17.808 -14.555,32.25 -32.496,32.25 -17.934,0 -32.465,-14.442 -32.465,-32.25 0,-17.813 14.531,-32.231 32.465,-32.231 17.941,0 32.496,14.418 32.496,32.231 z" /></g><path
         id="path10934"
         style="fill:#ffffff;fill-opacity:1;fill-rule:nonzero;stroke:none"
         d="m 478.254,687.487 c 0,-17.805 -14.551,-32.25 -32.488,-32.25 -17.942,0 -32.465,14.445 -32.465,32.25 0,17.812 14.523,32.23 32.465,32.23 17.937,0 32.488,-14.418 32.488,-32.23" /><g
         transform="matrix(1,0,0,-1,0,1061.8853)"
         id="g10936"><path
           id="path10938"
           style="fill:none;stroke:#231f20;stroke-width:1.60000002;stroke-linecap:butt;stroke-linejoin:miter;stroke-miterlimit:4;stroke-dasharray:none;stroke-opacity:1"
           d="m 478.289,374.336 c 0,17.801 -14.547,32.25 -32.488,32.25 -17.934,0 -32.465,-14.449 -32.465,-32.25 0,-17.813 14.531,-32.238 32.465,-32.238 17.941,0 32.488,14.425 32.488,32.238 z" /></g><path
         id="path10940"
         style="fill:#ffffff;fill-opacity:1;fill-rule:nonzero;stroke:none"
         d="m 478.238,770.272 c 0,-17.813 -14.55,-32.254 -32.488,-32.254 -17.941,0 -32.465,14.441 -32.465,32.254 0,17.805 14.524,32.234 32.465,32.234 17.938,0 32.488,-14.429 32.488,-32.234" /><g
         transform="matrix(1,0,0,-1,0,1061.8853)"
         id="g10942"><path
           id="path10944"
           style="fill:none;stroke:#231f20;stroke-width:1.60000002;stroke-linecap:butt;stroke-linejoin:miter;stroke-miterlimit:4;stroke-dasharray:none;stroke-opacity:1"
           d="m 478.273,291.547 c 0,17.808 -14.546,32.254 -32.488,32.254 -17.933,0 -32.465,-14.446 -32.465,-32.254 0,-17.809 14.532,-32.234 32.465,-32.234 17.942,0 32.488,14.425 32.488,32.234 z" /></g></g><g
       id="g10946"><g
         transform="translate(0,-0.114746)"
         id="g10948"><g
           id="g10950" /><g
           id="g10956"><g
             id="g10958"
             clip-path="url(#clipPath10952)"><g
               id="g10960"><g
                 id="g10962"
                 transform="matrix(1,0,0,-0.992725,0,1062)"><path
                   id="path10964"
                   style="fill:none;stroke:#231f20;stroke-width:1.60585201;stroke-linecap:butt;stroke-linejoin:miter;stroke-miterlimit:4;stroke-dasharray:none;stroke-opacity:1"
                   d="m 12.664,1068.866 -0.387,0 -0.777,-0.051 -0.77,-0.103 -0.761,-0.149 -0.75,-0.205 -0.735,-0.252 -0.718,-0.295 -0.7,-0.342 -0.671,-0.39 -0.641,-0.432 -0.621,-0.469 -0.582,-0.511 -0.543,-0.551 -0.516,-0.586 -0.476,-0.614 -0.426,-0.646 -0.395,-0.676 -0.34,-0.693 -0.3,-0.716 -0.246,-0.736 -0.204,-0.751 -0.148,-0.764 -0.102,-0.767 -0.05,-0.771 0,-1044.793 0.05,-0.771 L 0.957,11.065 1.105,10.302 1.309,9.55 1.555,8.814 1.855,8.098 2.195,7.398 2.59,6.729 3.016,6.083 3.492,5.466 4.008,4.883 4.551,4.332 5.133,3.821 5.754,3.349 6.395,2.916 7.066,2.53 7.766,2.18 8.484,1.885 9.219,1.637 9.969,1.436 10.73,1.283 11.5,1.184 l 0.777,-0.051 629.555,0 0.773,0.051 0.77,0.099 0.762,0.153 0.75,0.201 0.734,0.248 0.719,0.295 0.699,0.35 0.672,0.386 0.641,0.433 0.621,0.472 0.582,0.511 0.55,0.551 0.512,0.583 0.473,0.617 0.43,0.646 0.39,0.669 0.34,0.7 0.297,0.716 0.25,0.736 0.203,0.752 0.148,0.763 0.102,0.767 0.051,0.771 0.008,0.39 0,1044.009 -0.008,0.394 -0.051,0.771 -0.102,0.767 -0.148,0.764 -0.203,0.751 -0.25,0.736 -0.297,0.716 -0.34,0.693 -0.39,0.676 -0.43,0.646 -0.473,0.614 -0.512,0.586 -0.55,0.551 -0.582,0.511 -0.621,0.469 -0.641,0.432 -0.672,0.39 -0.699,0.342 -0.719,0.295 -0.734,0.252 -0.75,0.205 -0.762,0.149 -0.77,0.103 -0.773,0.051 -629.168,0 z" /></g></g></g></g></g></g><g
       id="g10966"><g
         transform="matrix(1,0,0,-1,0,1061.8853)"
         id="g10968"><path
           id="path10970"
           style="fill:#ffffff;fill-opacity:1;fill-rule:nonzero;stroke:#000000;stroke-width:1.08227706;stroke-linecap:butt;stroke-linejoin:miter;stroke-miterlimit:4;stroke-dasharray:none;stroke-opacity:1"
           d="m 170.426,796.32 c 0,83.594 67.762,151.352 151.355,151.352 83.586,0 151.352,-67.758 151.352,-151.352 0,-83.59 -67.766,-151.355 -151.352,-151.355 -83.593,0 -151.355,67.765 -151.355,151.355 z" /></g><path
         id="path10972"
         style="fill:#154889;fill-opacity:1;fill-rule:nonzero;stroke:none"
         d="m 179.875,265.565 c 0,-78.371 63.531,-141.906 141.906,-141.906 78.367,0 141.899,63.535 141.899,141.906 0,78.371 -63.532,141.902 -141.899,141.902 -78.375,0 -141.906,-63.531 -141.906,-141.902 z" /><path
         id="path10974"
         style="fill:#ffffff;fill-opacity:1;fill-rule:evenodd;stroke:none"
         d="m 269.652,312.342 -0.082,-76.59 122.168,121.754 22.367,-22.449 -122.289,-121.875 76.625,-0.176 -28.285,-28.191 -99.09,0.074 4.997,4.848 -4.961,-4.676 0.277,99.102 28.273,28.179 z" /></g></g></svg>