<?xml version="1.0" encoding="UTF-8" standalone="no"?>
<svg
   xmlns:dc="http://purl.org/dc/elements/1.1/"
   xmlns:cc="http://creativecommons.org/ns#"
   xmlns:rdf="http://www.w3.org/1999/02/22-rdf-syntax-ns#"
   xmlns:svg="http://www.w3.org/2000/svg"
   xmlns="http://www.w3.org/2000/svg"
   xml:space="preserve"
   id="svg4767"
   height="1338.2021"
   width="821.45221"
   version="1.1"><metadata
     id="metadata4773"><rdf:RDF><cc:Work
         rdf:about=""><dc:format>image/svg+xml</dc:format><dc:type
           rdf:resource="http://purl.org/dc/dcmitype/StillImage" /><dc:title></dc:title></cc:Work></rdf:RDF></metadata><defs
     id="defs4771" /><g
     id="g4299"><path
       d="m 0.4975,9.1747 0.18625,1321.1088 c 0,3.2425 3.25625,7.4162 7.6075,7.4162 l 805.79625,-0.37 c 3.37375,0 6.865,-4.3513 6.865,-7.4175 L 820.79125,8.20345 c 0,-3.2325 -3.29125,-6.08 -6.33375,-6.08 l -806.7225,0 c -5.425,0 -7.2375,4.195 -7.2375,7.05125 z"
       id="path4779"
       style="fill:#ffffff;fill-opacity:1;fill-rule:evenodd;stroke:#000000;stroke-width:1;stroke-linecap:butt;stroke-linejoin:miter;stroke-miterlimit:4;stroke-dasharray:none;stroke-opacity:1" /><path
       d="m 820.15625,935.88845 -169.02875,-163.125 0.035,-142.085 168.965,170.17625 0.0287,135.03375 z"
       id="path4781"
       style="fill:#c1121c;fill-opacity:1;fill-rule:evenodd;stroke:none" /><path
       d="m 410.7375,1195.9909 -0.03,-0.029 0,0.064 -143.15875,140.7175 137.74875,0.064 5.44,-5.7525 5.4975,5.81 137.75375,-0.058 -143.25125,-140.8163 z"
       id="path4783"
       style="fill:#c1121c;fill-opacity:1;fill-rule:evenodd;stroke:none" /><path
       d="m 172.46625,1164.7609 135.23875,-0.03 -171.41125,172.0176 -128.06125,0.5662 -3.40875,-0.6063 -2.63125,-2.665 170.27375,-169.2825 z"
       id="path4785"
       style="fill:#c1121c;fill-opacity:1;fill-rule:evenodd;stroke:none" /><path
       d="m 1.39125,1203.8572 168.965,-170.2387 0,-134.9563 -168.965,167.1438 0,138.0512 z"
       id="path4787"
       style="fill:#c1121c;fill-opacity:1;fill-rule:evenodd;stroke:none" /><path
       d="M 1.38125,935.8247 170.41,772.6997 l -0.0288,-142.085 -168.97,170.17625 -0.03,135.03375 z"
       id="path4789"
       style="fill:#c1121c;fill-opacity:1;fill-rule:evenodd;stroke:none" /><path
       d="M 1.3375,667.9047 170.35625,504.66845 170.3275,362.7197 1.38125,532.8422 1.3375,667.9047 Z"
       id="path4791"
       style="fill:#c1121c;fill-opacity:1;fill-rule:evenodd;stroke:none" /><path
       d="M 1.41625,400.5422 170.42,232.17345 l -0.1075,-57.4375 58.935,0 L 401.245,2.7397 262.34375,2.8472 1.41625,266.12345 l 0,134.41875 z"
       id="path4793"
       style="fill:#c1121c;fill-opacity:1;fill-rule:evenodd;stroke:none" /><path
       d="M 1.42125,135.67345 135.02,2.9347 3.80875,2.8422 1.225,5.8447 1.42125,135.67345 Z"
       id="path4795"
       style="fill:#c1121c;fill-opacity:1;fill-rule:evenodd;stroke:none" /><path
       d="m 649.0725,1164.8247 -135.235,-0.03 171.40625,172.0163 128.0275,0.03 2.66625,0.077 3.29625,-2.6562 -170.16125,-169.4375 z"
       id="path4797"
       style="fill:#c1121c;fill-opacity:1;fill-rule:evenodd;stroke:none" /><path
       d="m 820.14625,1203.921 -168.965,-170.2388 0,-134.95625 168.965,167.14375 0,138.0513 z"
       id="path4799"
       style="fill:#c1121c;fill-opacity:1;fill-rule:evenodd;stroke:none" /><path
       d="m 820.2,667.96845 -169.01875,-163.2375 0.03,-141.9475 168.945,170.12125 0.0438,135.06375 z"
       id="path4801"
       style="fill:#c1121c;fill-opacity:1;fill-rule:evenodd;stroke:none" /><path
       d="m 820.1225,400.60595 -169.00375,-168.37 0.10625,-57.43625 -58.935,0 L 420.2925,2.8022 559.19375,2.9097 820.1225,266.18595 l 0,134.42 z"
       id="path4803"
       style="fill:#c1121c;fill-opacity:1;fill-rule:evenodd;stroke:none" /><path
       d="M 820.1175,135.7372 685.86375,2.12345 l 130.7275,-0.2675 3.765,3.8225 -0.23875,130.05875 z"
       id="path4805"
       style="fill:#c1121c;fill-opacity:1;fill-rule:evenodd;stroke:none" /><path
       style="fill:#c1121c;fill-opacity:1;fill-rule:evenodd;stroke:none"
       id="path4280"
       d="m 410.7375,119.28282 -0.03,-0.029 0,0.064 -143.15875,140.7175 137.74875,0.064 5.44,-5.7525 5.4975,5.81 137.75375,-0.058 -143.25125,-140.8163 z" /><path
       d="m 170.855,174.9322 0.85875,988.6325 479.16,0.8637 -0.175,-989.55495 -479.84375,0.0588 z"
       id="path4807"
       style="fill:#ffffff;stroke:#000000;stroke-width:2;stroke-linecap:butt;stroke-linejoin:miter;stroke-miterlimit:4;stroke-dasharray:none;stroke-opacity:1;fill-opacity:1" /><path
       d="m 131.03,890.70845 c 0,154.47255 125.225,279.69255 279.6975,279.69255 154.4675,0 279.6925,-125.22 279.6925,-279.69255 0,-154.4725 -125.225,-279.6975 -279.6925,-279.6975 -154.4725,0 -279.6975,125.225 -279.6975,279.6975 z"
       id="path4809"
       style="fill:#ffffff;fill-opacity:1;fill-rule:nonzero;stroke:#000000;stroke-width:2;stroke-linecap:butt;stroke-linejoin:miter;stroke-miterlimit:4;stroke-dasharray:none;stroke-opacity:1" /><path
       d="m 148.49625,890.70845 c 0,144.82375 117.4025,262.23125 262.23125,262.23125 144.82375,0 262.22625,-117.4075 262.22625,-262.23125 0,-144.825 -117.4025,-262.2325 -262.22625,-262.2325 -144.82875,0 -262.23125,117.4075 -262.23125,262.2325 z"
       id="path4811"
       style="fill:#154889;fill-opacity:1;fill-rule:nonzero;stroke:none" /><path
       d="m 314.4,804.2622 -0.1525,141.53375 225.7575,-224.99 41.3375,41.47875 -225.98625,225.22 141.60125,0.3275 -52.27,52.095 -183.115,-0.1375 9.23375,-8.955 -9.165,8.6375 0.5075,-183.13375 L 314.4,804.2622 Z"
       id="path4813"
       style="fill:#ffffff;fill-opacity:1;fill-rule:evenodd;stroke:none" /><path
       d="m 117.54875,57.1047 c 0,14.6875 -6.05,29.2825 -16.43,39.6625 C 90.7325,107.15345 76.1375,113.19845 61.45,113.19845 c -14.6825,0 -29.2775,-6.045 -39.6625,-16.43125 C 11.40125,86.3872 5.35625,71.7922 5.35125,57.1047 c 0,-14.6875 6.045,-29.2825 16.43125,-39.6725 C 32.1675,7.04595 46.7625,1.00095 61.45,1.00095 c 14.6875,0 29.2875,6.045 39.6725,16.43125 10.38625,10.39 16.43125,24.985 16.42625,39.6725 z"
       id="path4815"
       style="fill:#ffcc33;fill-opacity:1;fill-rule:nonzero;stroke:#000000;stroke-width:2;stroke-linecap:round;stroke-linejoin:miter;stroke-miterlimit:4;stroke-dasharray:none;stroke-opacity:1" /><path
       d="m 814.83875,57.1047 c 0,14.6875 -6.045,29.2875 -16.43,39.6675 -10.38125,10.38625 -24.98125,16.43125 -39.66875,16.43125 -14.6825,0 -29.2825,-6.045 -39.6625,-16.43125 -10.38625,-10.38 -16.43625,-24.98 -16.43625,-39.6675 0,-14.6825 6.05,-29.2825 16.43625,-39.66375 10.38,-10.385 24.98,-16.435 39.6625,-16.435 14.6875,0 29.2875,6.05 39.66875,16.435 10.385,10.38125 16.43,24.98125 16.43,39.66375 z"
       id="path4817"
       style="fill:#ffcc33;fill-opacity:1;fill-rule:nonzero;stroke:#000000;stroke-width:2;stroke-linecap:round;stroke-linejoin:miter;stroke-miterlimit:4;stroke-dasharray:none;stroke-opacity:1" /><path
       d="m 130.2975,186.8897 c -0.005,8.565 -3.53,17.075 -9.59,23.13 -6.05375,6.05 -14.565,9.575 -23.12875,9.575 -8.565,0 -17.07625,-3.525 -23.13,-9.575 -6.06,-6.055 -9.585,-14.565 -9.59,-23.13 0,-8.57 3.525,-17.085 9.58,-23.145 6.05875,-6.05375 14.57,-9.585 23.14,-9.585 8.56875,0 17.08,3.53125 23.13875,9.585 6.055,6.06 9.58,14.575 9.58,23.145 z"
       id="path4819"
       style="fill:#ffcc33;fill-opacity:1;fill-rule:nonzero;stroke:#000000;stroke-width:2;stroke-linecap:round;stroke-linejoin:miter;stroke-miterlimit:4;stroke-dasharray:none;stroke-opacity:1" /><path
       d="m 130.2975,292.16845 c -0.005,8.56375 -3.53,17.075 -9.59,23.13 -6.05375,6.05375 -14.565,9.58 -23.12875,9.58 -8.565,0 -17.07625,-3.52625 -23.13,-9.58 -6.06,-6.055 -9.585,-14.56625 -9.59,-23.13 0,-8.565 3.525,-17.08 9.58,-23.14 6.05875,-6.06 14.57,-9.585 23.14,-9.585 8.56875,0 17.08,3.525 23.13875,9.585 6.055,6.06 9.58,14.575 9.58,23.14 z"
       id="path4821"
       style="fill:#ffcc33;fill-opacity:1;fill-rule:nonzero;stroke:#000000;stroke-width:2;stroke-linecap:round;stroke-linejoin:miter;stroke-miterlimit:4;stroke-dasharray:none;stroke-opacity:1" /><path
       d="m 337.68125,292.16845 c 0,8.56375 -3.52625,17.08 -9.58125,23.13375 -6.05875,6.06 -14.57,9.585 -23.13375,9.585 -8.57,0 -17.08,-3.525 -23.135,-9.585 -6.06,-6.05375 -9.585,-14.57 -9.585,-23.13375 0,-8.565 3.525,-17.07625 9.585,-23.135 6.055,-6.055 14.565,-9.58 23.135,-9.58 8.56375,0 17.075,3.525 23.13375,9.58 6.055,6.05875 9.58125,14.57 9.58125,23.135 z"
       id="path4823"
       style="fill:#ffcc33;fill-opacity:1;fill-rule:nonzero;stroke:#000000;stroke-width:2;stroke-linecap:round;stroke-linejoin:miter;stroke-miterlimit:4;stroke-dasharray:none;stroke-opacity:1" /><path
       d="m 130.2975,397.45095 c -0.005,8.565 -3.53,17.075 -9.59,23.13 -6.05375,6.055 -14.565,9.575 -23.12875,9.575 -8.565,0 -17.07625,-3.52 -23.13,-9.575 -6.06,-6.055 -9.585,-14.565 -9.59,-23.13 0,-8.56875 3.525,-17.085 9.58,-23.14375 6.05875,-6.055 14.57,-9.585 23.14,-9.585 8.56875,0 17.08,3.53 23.13875,9.585 6.055,6.05875 9.58,14.575 9.58,23.14375 z"
       id="path4825"
       style="fill:#ffcc33;fill-opacity:1;fill-rule:nonzero;stroke:#000000;stroke-width:2;stroke-linecap:round;stroke-linejoin:miter;stroke-miterlimit:4;stroke-dasharray:none;stroke-opacity:1" /><path
       d="m 130.2975,502.24595 c -0.005,8.565 -3.53,17.075 -9.59,23.13 -6.05375,6.055 -14.565,9.58 -23.12875,9.58 -8.565,0 -17.07625,-3.525 -23.13,-9.58 -6.06,-6.055 -9.585,-14.565 -9.59,-23.13 0,-8.56875 3.525,-17.085 9.58,-23.14 6.05875,-6.05875 14.57,-9.58875 23.14,-9.58875 8.56875,0 17.08,3.53 23.13875,9.58875 6.055,6.055 9.58,14.57125 9.58,23.14 z"
       id="path4827"
       style="fill:#ffcc33;fill-opacity:1;fill-rule:nonzero;stroke:#000000;stroke-width:2;stroke-linecap:round;stroke-linejoin:miter;stroke-miterlimit:4;stroke-dasharray:none;stroke-opacity:1" /><path
       d="m 235.9475,502.24595 c 0,8.565 -3.525,17.08 -9.585,23.135 -6.055,6.055 -14.57,9.585 -23.135,9.585 -8.565,0 -17.075,-3.53 -23.135,-9.585 -6.055,-6.055 -9.58,-14.57 -9.58,-23.135 0,-8.56375 3.525,-17.08 9.58,-23.135 6.06,-6.05875 14.57,-9.585 23.135,-9.585 8.565,0 17.08,3.52625 23.135,9.585 6.06,6.055 9.585,14.57125 9.585,23.135 z"
       id="path4829"
       style="fill:#ffcc33;fill-opacity:1;fill-rule:nonzero;stroke:#000000;stroke-width:2;stroke-linecap:round;stroke-linejoin:miter;stroke-miterlimit:4;stroke-dasharray:none;stroke-opacity:1" /><path
       d="m 339.2875,502.24595 c 0,8.565 -3.52625,17.08 -9.585,23.135 -6.055,6.055 -14.57125,9.585 -23.135,9.585 -8.565,0 -17.075,-3.53 -23.135,-9.585 -6.055,-6.055 -9.58,-14.57 -9.58,-23.135 0,-8.56375 3.525,-17.08 9.58,-23.135 6.06,-6.05875 14.57,-9.585 23.135,-9.585 8.56375,0 17.08,3.52625 23.135,9.585 6.05875,6.055 9.585,14.57125 9.585,23.135 z"
       id="path4831"
       style="fill:#ffcc33;fill-opacity:1;fill-rule:nonzero;stroke:#000000;stroke-width:2;stroke-linecap:round;stroke-linejoin:miter;stroke-miterlimit:4;stroke-dasharray:none;stroke-opacity:1" /><path
       d="m 443.59875,502.24595 c 0,8.565 -3.525,17.08 -9.585,23.135 -6.055,6.055 -14.57,9.585 -23.135,9.585 -8.56375,0 -17.08,-3.53 -23.135,-9.585 -6.05375,-6.055 -9.585,-14.57 -9.585,-23.135 0,-8.56375 3.53125,-17.08 9.585,-23.135 6.055,-6.05875 14.57125,-9.585 23.135,-9.585 8.565,0 17.08,3.52625 23.135,9.585 6.06,6.055 9.585,14.57125 9.585,23.135 z"
       id="path4833"
       style="fill:#ffcc33;fill-opacity:1;fill-rule:nonzero;stroke:#000000;stroke-width:2;stroke-linecap:round;stroke-linejoin:miter;stroke-miterlimit:4;stroke-dasharray:none;stroke-opacity:1" /><path
       d="m 287.86125,344.56595 c 0,8.56875 -3.53,17.08 -9.585,23.13375 -6.055,6.06 -14.57,9.585 -23.135,9.585 -8.56375,0 -17.08,-3.525 -23.135,-9.585 -6.05875,-6.05375 -9.58375,-14.565 -9.58375,-23.13375 0,-8.565 3.525,-17.07625 9.58375,-23.135 6.055,-6.055 14.57125,-9.58 23.135,-9.58 8.565,0 17.08,3.525 23.135,9.58 6.055,6.05875 9.585,14.57 9.585,23.135 z"
       id="path4835"
       style="fill:#ffcc33;fill-opacity:1;fill-rule:nonzero;stroke:#000000;stroke-width:2;stroke-linecap:round;stroke-linejoin:miter;stroke-miterlimit:4;stroke-dasharray:none;stroke-opacity:1" /><path
       d="m 390.81,239.2872 c 0,8.56375 -3.525,17.075 -9.585,23.135 -6.05375,6.05375 -14.565,9.58 -23.13375,9.58 -8.565,0 -17.075,-3.52625 -23.135,-9.58 -6.055,-6.06 -9.58,-14.57125 -9.58,-23.135 0,-8.565 3.525,-17.08 9.58,-23.135 6.06,-6.06 14.57,-9.585 23.135,-9.585 8.56875,0 17.08,3.525 23.13375,9.585 6.06,6.055 9.585,14.57 9.585,23.135 z"
       id="path4837"
       style="fill:#ffcc33;fill-opacity:1;fill-rule:nonzero;stroke:#000000;stroke-width:2;stroke-linecap:round;stroke-linejoin:miter;stroke-miterlimit:4;stroke-dasharray:none;stroke-opacity:1" /><path
       d="m 495.87375,134.97595 c 0,8.56375 -3.525,17.08 -9.58,23.135 -6.05875,6.05875 -14.57,9.58375 -23.135,9.58375 -8.56375,0 -17.08,-3.525 -23.13375,-9.58375 -6.06,-6.055 -9.585,-14.57125 -9.585,-23.135 0,-8.565 3.525,-17.08 9.585,-23.135 6.05375,-6.055 14.57,-9.585 23.13375,-9.585 8.565,0 17.07625,3.53 23.135,9.585 6.055,6.055 9.58,14.57 9.58,23.135 z"
       id="path4839"
       style="fill:#ffcc33;fill-opacity:1;fill-rule:nonzero;stroke:#000000;stroke-width:2;stroke-linecap:round;stroke-linejoin:miter;stroke-miterlimit:4;stroke-dasharray:none;stroke-opacity:1" /><path
       d="m 547.13875,82.57845 c 0,8.56375 -3.525,17.08 -9.58,23.135 -6.06,6.05375 -14.57,9.585 -23.135,9.585 -8.56875,0 -17.08,-3.53125 -23.135,-9.585 -6.05875,-6.055 -9.585,-14.57125 -9.585,-23.135 0,-8.565 3.52625,-17.08 9.585,-23.135 6.055,-6.06 14.56625,-9.585 23.135,-9.585 8.565,0 17.075,3.525 23.135,9.585 6.055,6.055 9.58,14.57 9.58,23.135 z"
       id="path4841"
       style="fill:#ffcc33;fill-opacity:1;fill-rule:nonzero;stroke:#000000;stroke-width:2;stroke-linecap:round;stroke-linejoin:miter;stroke-miterlimit:4;stroke-dasharray:none;stroke-opacity:1" /><path
       d="m 337.68125,82.57845 c 0,8.56375 -3.52625,17.08 -9.58125,23.135 -6.05875,6.05375 -14.57,9.585 -23.13375,9.585 -8.57,0 -17.08,-3.53125 -23.135,-9.585 -6.06,-6.055 -9.585,-14.57125 -9.585,-23.135 0,-8.565 3.525,-17.08 9.585,-23.135 6.055,-6.06 14.565,-9.585 23.135,-9.585 8.56375,0 17.075,3.525 23.13375,9.585 6.055,6.055 9.58125,14.57 9.58125,23.135 z"
       id="path4843"
       style="fill:#ffffff;fill-opacity:1;fill-rule:nonzero;stroke:#000000;stroke-width:2;stroke-linecap:round;stroke-linejoin:miter;stroke-miterlimit:4;stroke-dasharray:none;stroke-opacity:1" /><path
       d="m 390.81,134.97595 c 0,8.56375 -3.525,17.08 -9.585,23.135 -6.05375,6.05875 -14.565,9.58375 -23.13375,9.58375 -8.565,0 -17.075,-3.525 -23.135,-9.58375 -6.055,-6.055 -9.58,-14.57125 -9.58,-23.135 0,-8.565 3.525,-17.08 9.58,-23.135 6.06,-6.055 14.57,-9.585 23.135,-9.585 8.56875,0 17.08,3.53 23.13375,9.585 6.06,6.055 9.585,14.57 9.585,23.135 z"
       id="path4845"
       style="fill:#ffffff;fill-opacity:1;fill-rule:nonzero;stroke:#000000;stroke-width:2;stroke-linecap:round;stroke-linejoin:miter;stroke-miterlimit:4;stroke-dasharray:none;stroke-opacity:1" /><path
       d="m 495.87375,239.2872 c 0,8.56375 -3.525,17.075 -9.58,23.135 -6.05875,6.05375 -14.57,9.58 -23.135,9.58 -8.56375,0 -17.08,-3.52625 -23.13375,-9.58 -6.06,-6.06 -9.585,-14.57125 -9.585,-23.135 0,-8.565 3.525,-17.08 9.585,-23.135 6.05375,-6.06 14.57,-9.585 23.13375,-9.585 8.565,0 17.07625,3.525 23.135,9.585 6.055,6.055 9.58,14.57 9.58,23.135 z"
       id="path4847"
       style="fill:#ffffff;fill-opacity:1;fill-rule:nonzero;stroke:#000000;stroke-width:2;stroke-linecap:round;stroke-linejoin:miter;stroke-miterlimit:4;stroke-dasharray:none;stroke-opacity:1" /><path
       d="m 547.13875,292.16845 c 0,8.56375 -3.525,17.08 -9.58,23.13375 -6.06,6.06 -14.57,9.585 -23.135,9.585 -8.56875,0 -17.08,-3.525 -23.135,-9.585 -6.05875,-6.05375 -9.585,-14.57 -9.585,-23.13375 0,-8.565 3.52625,-17.07625 9.585,-23.135 6.055,-6.055 14.56625,-9.58 23.135,-9.58 8.565,0 17.075,3.525 23.135,9.58 6.055,6.05875 9.58,14.57 9.58,23.135 z"
       id="path4849"
       style="fill:#ffffff;fill-opacity:1;fill-rule:nonzero;stroke:#000000;stroke-width:2;stroke-linecap:round;stroke-linejoin:miter;stroke-miterlimit:4;stroke-dasharray:none;stroke-opacity:1" /><path
       d="m 598.8475,344.56595 c 0,8.56875 -3.525,17.08 -9.58,23.13375 -6.06,6.06 -14.57,9.585 -23.135,9.585 -8.56375,0 -17.08,-3.525 -23.135,-9.585 -6.05875,-6.05375 -9.585,-14.565 -9.585,-23.13375 0,-8.565 3.52625,-17.07625 9.585,-23.135 6.055,-6.055 14.57125,-9.58 23.135,-9.58 8.565,0 17.075,3.525 23.135,9.58 6.055,6.05875 9.58,14.57 9.58,23.135 z"
       id="path4851"
       style="fill:#ffffff;fill-opacity:1;fill-rule:nonzero;stroke:#000000;stroke-width:2;stroke-linecap:round;stroke-linejoin:miter;stroke-miterlimit:4;stroke-dasharray:none;stroke-opacity:1" /><path
       d="m 548.39375,502.24595 c 0,8.565 -3.525,17.08 -9.585,23.135 -6.055,6.055 -14.57,9.585 -23.135,9.585 -8.56375,0 -17.075,-3.53 -23.135,-9.585 -6.05375,-6.055 -9.58,-14.57 -9.58,-23.135 0,-8.56375 3.52625,-17.08 9.58,-23.135 6.06,-6.05875 14.57125,-9.585 23.135,-9.585 8.565,0 17.08,3.52625 23.135,9.585 6.06,6.055 9.585,14.57125 9.585,23.135 z"
       id="path4853"
       style="fill:#ffffff;fill-opacity:1;fill-rule:nonzero;stroke:#000000;stroke-width:2;stroke-linecap:round;stroke-linejoin:miter;stroke-miterlimit:4;stroke-dasharray:none;stroke-opacity:1" /><path
       d="m 651.25,502.24595 c 0,8.565 -3.53,17.08 -9.585,23.135 -6.055,6.055 -14.57,9.585 -23.135,9.585 -8.56375,0 -17.08,-3.53 -23.135,-9.585 -6.05875,-6.055 -9.585,-14.57 -9.585,-23.135 0,-8.56375 3.52625,-17.08 9.585,-23.135 6.055,-6.05875 14.57125,-9.585 23.135,-9.585 8.565,0 17.08,3.52625 23.135,9.585 6.055,6.055 9.585,14.57125 9.585,23.135 z"
       id="path4855"
       style="fill:#ffffff;fill-opacity:1;fill-rule:nonzero;stroke:#000000;stroke-width:2;stroke-linecap:round;stroke-linejoin:miter;stroke-miterlimit:4;stroke-dasharray:none;stroke-opacity:1" /><path
       d="m 754.0625,502.24595 c 0,8.565 -3.53,17.08 -9.585,23.135 -6.055,6.055 -14.57,9.585 -23.135,9.585 -8.56375,0 -17.08,-3.53 -23.135,-9.585 -6.05875,-6.055 -9.585,-14.57 -9.585,-23.135 0,-8.56375 3.52625,-17.08 9.585,-23.135 6.055,-6.05875 14.57125,-9.585 23.135,-9.585 8.565,0 17.08,3.52625 23.135,9.585 6.055,6.055 9.585,14.57125 9.585,23.135 z"
       id="path4857"
       style="fill:#ffffff;fill-opacity:1;fill-rule:nonzero;stroke:#000000;stroke-width:2;stroke-linecap:round;stroke-linejoin:miter;stroke-miterlimit:4;stroke-dasharray:none;stroke-opacity:1" /><path
       d="m 754.0625,397.45095 c 0,8.565 -3.53,17.075 -9.585,23.135 -6.055,6.055 -14.57,9.58 -23.135,9.58 -8.56375,0 -17.08,-3.525 -23.135,-9.58 -6.05875,-6.06 -9.585,-14.57 -9.585,-23.135 0,-8.56375 3.52625,-17.08 9.585,-23.135 6.055,-6.05875 14.57125,-9.585 23.135,-9.585 8.565,0 17.08,3.52625 23.135,9.585 6.055,6.055 9.585,14.57125 9.585,23.135 z"
       id="path4859"
       style="fill:#ffffff;fill-opacity:1;fill-rule:nonzero;stroke:#000000;stroke-width:2;stroke-linecap:round;stroke-linejoin:miter;stroke-miterlimit:4;stroke-dasharray:none;stroke-opacity:1" /><path
       d="m 754.0625,292.16845 c 0,8.56375 -3.53,17.08 -9.585,23.13375 -6.055,6.06 -14.57,9.585 -23.135,9.585 -8.56375,0 -17.08,-3.525 -23.135,-9.585 -6.05875,-6.05375 -9.585,-14.57 -9.585,-23.13375 0,-8.565 3.52625,-17.07625 9.585,-23.135 6.055,-6.055 14.57125,-9.58 23.135,-9.58 8.565,0 17.08,3.525 23.135,9.58 6.055,6.05875 9.585,14.57 9.585,23.135 z"
       id="path4861"
       style="fill:#ffffff;fill-opacity:1;fill-rule:nonzero;stroke:#000000;stroke-width:2;stroke-linecap:round;stroke-linejoin:miter;stroke-miterlimit:4;stroke-dasharray:none;stroke-opacity:1" /><path
       d="m 754.0625,186.8897 c 0,8.565 -3.53,17.075 -9.585,23.135 -6.055,6.055 -14.57,9.58 -23.135,9.58 -8.56375,0 -17.08,-3.525 -23.135,-9.58 -6.05875,-6.06 -9.585,-14.57 -9.585,-23.135 0,-8.565 3.52625,-17.08 9.585,-23.135 6.055,-6.06 14.57125,-9.585 23.135,-9.585 8.565,0 17.08,3.525 23.135,9.585 6.055,6.055 9.585,14.57 9.585,23.135 z"
       id="path4863"
       style="fill:#ffffff;fill-opacity:1;fill-rule:nonzero;stroke:#000000;stroke-width:2;stroke-linecap:round;stroke-linejoin:miter;stroke-miterlimit:4;stroke-dasharray:none;stroke-opacity:1" /><path
       d="m 443.44155,186.80203 c 0,8.56375 -3.525,17.075 -9.585,23.135 -6.05375,6.05375 -14.565,9.58 -23.13375,9.58 -8.565,0 -17.075,-3.52625 -23.135,-9.58 -6.055,-6.06 -9.58,-14.57125 -9.58,-23.135 0,-8.565 3.525,-17.08 9.58,-23.135 6.06,-6.06 14.57,-9.585 23.135,-9.585 8.56875,0 17.08,3.525 23.13375,9.585 6.06,6.055 9.585,14.57 9.585,23.135 z"
       id="path4837-6"
       style="fill:#ffcc33;fill-opacity:1;fill-rule:nonzero;stroke:#000000;stroke-width:2;stroke-linecap:round;stroke-linejoin:miter;stroke-miterlimit:4;stroke-dasharray:none;stroke-opacity:1" /></g></svg>