<?xml version="1.0" encoding="UTF-8" standalone="no"?>
<svg
   xmlns:dc="http://purl.org/dc/elements/1.1/"
   xmlns:cc="http://creativecommons.org/ns#"
   xmlns:rdf="http://www.w3.org/1999/02/22-rdf-syntax-ns#"
   xmlns:svg="http://www.w3.org/2000/svg"
   xmlns="http://www.w3.org/2000/svg"
   viewBox="0 0 2001.7036 501.72052"
   height="501.72052"
   width="2001.7036"
   xml:space="preserve"
   version="1.1"
   id="svg9716"><metadata
     id="metadata9722"><rdf:RDF><cc:Work
         rdf:about=""><dc:format>image/svg+xml</dc:format><dc:type
           rdf:resource="http://purl.org/dc/dcmitype/StillImage" /><dc:title></dc:title></cc:Work></rdf:RDF></metadata><defs
     id="defs9720"><clipPath
       id="clipPath9734"
       clipPathUnits="userSpaceOnUse"><path
         id="path9736"
         d="m 0,0 1602,0 0,402 L 0,402 0,0 Z" /></clipPath><clipPath
       id="clipPath9746"
       clipPathUnits="userSpaceOnUse"><path
         id="path9748"
         d="m 0,0 1602,0 0,402 L 0,402 0,0 Z" /></clipPath><clipPath
       id="clipPath9758"
       clipPathUnits="userSpaceOnUse"><path
         id="path9760"
         d="m 0,0 1602,0 0,402 L 0,402 0,0 Z" /></clipPath></defs><g
     transform="matrix(1.25,0,0,-1.25,0,501.7205)"
     id="g9724"><g
       id="g9726"><g
         transform="translate(0,-0.623596)"
         id="g9728"><g
           id="g9730"><g
             clip-path="url(#clipPath9734)"
             id="g9732"><g
               id="g9738"><g
                 id="g9740"><g
                   id="g9742"><g
                     clip-path="url(#clipPath9746)"
                     id="g9744"><g
                       id="g9750"><g
                         id="g9752"><g
                           id="g9754"><g
                             clip-path="url(#clipPath9758)"
                             id="g9756"><g
                               id="g9762"><path
                                 id="path9764"
                                 style="fill:#ffffff;fill-opacity:1;fill-rule:nonzero;stroke:none"
                                 d="m 32.801,2.254 1535.715,0 c 17.246,0 31.214,13.922 31.214,31.156 l 0,335.805 c 0,17.234 -13.968,31.156 -31.214,31.156 l -1535.715,0 c -17.242,0 -31.215,-13.922 -31.215,-31.156 l 0,-335.805 C 1.586,16.176 15.559,2.254 32.801,2.254 Z" /><path
                                 id="path9766"
                                 style="fill:#231f20;fill-opacity:1;fill-rule:nonzero;stroke:none"
                                 d="M 32.801,0.625 C 14.695,0.625 0,15.312 0,33.41 L 0,369.215 C 0,387.312 14.695,402 32.801,402 l 1535.715,0 c 18.109,0 32.847,-14.688 32.847,-32.785 l 0,-335.805 c 0,-18.098 -14.738,-32.785 -32.847,-32.785 l -1535.715,0 z m 0,1.629 1535.715,0 c 17.246,0 31.214,13.922 31.214,31.156 l 0,335.805 c 0,17.234 -13.968,31.156 -31.214,31.156 l -1535.715,0 c -17.242,0 -31.215,-13.922 -31.215,-31.156 l 0,-335.805 C 1.586,16.176 15.559,2.254 32.801,2.254 Z" /><path
                                 id="path9768"
                                 style="fill:#c1121c;fill-opacity:1;fill-rule:nonzero;stroke:none"
                                 d="m 1400.57,1.434 -199.972,199.863 199.972,199.887 167.969,0 c 8.484,0 16.633,-3.364 22.641,-9.364 l -190.61,-190.523 190.61,-190.5 c -6.008,-6.004 -14.157,-9.363 -22.641,-9.363 l -167.969,0" /><path
                                 id="path9770"
                                 style="fill:#c1121c;fill-opacity:1;fill-rule:nonzero;stroke:none"
                                 d="m 1200.598,1.434 -199.977,0 -199.949,199.863 199.949,199.887 199.977,0 L 1000.621,201.297 1200.598,1.434" /><path
                                 id="path9772"
                                 style="fill:#c1121c;fill-opacity:1;fill-rule:nonzero;stroke:none"
                                 d="m 800.672,1.434 -199.977,0 -199.972,199.863 199.972,199.887 199.977,0 L 600.695,201.297 800.672,1.434" /><path
                                 id="path9774"
                                 style="fill:#c1121c;fill-opacity:1;fill-rule:nonzero;stroke:none"
                                 d="m 400.723,1.434 -199.977,0 -199.953,199.863 199.953,199.887 199.977,0 L 200.746,201.297 400.723,1.434" /></g></g></g></g></g></g></g></g></g></g></g></g></g></g></svg>