<?xml version="1.0" encoding="UTF-8" standalone="no"?>
<svg
   xmlns:dc="http://purl.org/dc/elements/1.1/"
   xmlns:cc="http://creativecommons.org/ns#"
   xmlns:rdf="http://www.w3.org/1999/02/22-rdf-syntax-ns#"
   xmlns:svg="http://www.w3.org/2000/svg"
   xmlns="http://www.w3.org/2000/svg"
   viewBox="0 0 2500.0173 500"
   height="500"
   width="2500.0173"
   xml:space="preserve"
   version="1.1"
   id="svg10135"><metadata
     id="metadata10141"><rdf:RDF><cc:Work
         rdf:about=""><dc:format>image/svg+xml</dc:format><dc:type
           rdf:resource="http://purl.org/dc/dcmitype/StillImage" /><dc:title></dc:title></cc:Work></rdf:RDF></metadata><defs
     id="defs10139"><clipPath
       id="clipPath10153"
       clipPathUnits="userSpaceOnUse"><path
         id="path10155"
         d="m 0,0 2001,0 0,400 L 0,400 0,0 Z" /></clipPath><clipPath
       id="clipPath10165"
       clipPathUnits="userSpaceOnUse"><path
         id="path10167"
         d="m 0,0 2001,0 0,400 L 0,400 0,0 Z" /></clipPath><clipPath
       id="clipPath10177"
       clipPathUnits="userSpaceOnUse"><path
         id="path10179"
         d="m 0,0 2001,0 0,400 L 0,400 0,0 Z" /></clipPath></defs><g
     transform="matrix(1.25,0,0,-1.25,0,500)"
     id="g10143"><g
       id="g10145"><g
         id="g10147"><g
           id="g10149"><g
             clip-path="url(#clipPath10153)"
             id="g10151"><g
               id="g10157"><g
                 id="g10159"><g
                   id="g10161"><g
                     clip-path="url(#clipPath10165)"
                     id="g10163"><g
                       id="g10169"><g
                         id="g10171"><g
                           id="g10173"><g
                             clip-path="url(#clipPath10177)"
                             id="g10175"><g
                               id="g10181"><path
                                 id="path10183"
                                 style="fill:#231f20;fill-opacity:1;fill-rule:nonzero;stroke:none"
                                 d="m 1966.809,0 c 18.304,0 33.207,14.785 33.207,33.008 l 0,334.027 c 0,18.223 -14.903,32.965 -33.207,32.965 L 33.164,400 C 14.879,400 0,385.258 0,367.035 L 0,33.008 C 0,14.785 14.879,0 33.164,0 l 1933.645,0 z m 0,2.367 -1933.645,0 C 16.18,2.367 2.422,16.082 2.422,33.008 l 0,334.027 c 0,16.926 13.758,30.598 30.742,30.598 l 1933.645,0 c 17.003,0 30.781,-13.672 30.781,-30.598 l 0,-334.027 c 0,-16.926 -13.778,-30.641 -30.781,-30.641 z" /><path
                                 id="path10185"
                                 style="fill:#c1121c;fill-opacity:1;fill-rule:nonzero;stroke:none"
                                 d="m 200.965,1.184 199.742,198.808 -199.742,198.828 -167.813,0 c -8.476,0 -16.593,-3.343 -22.593,-9.312 L 200.965,199.992 10.559,10.496 c 6,-5.969 14.117,-9.312 22.593,-9.312 l 167.813,0" /><path
                                 id="path10187"
                                 style="fill:#c1121c;fill-opacity:1;fill-rule:nonzero;stroke:none"
                                 d="m 400.707,1.184 199.762,0 199.765,198.808 -199.765,198.828 -199.762,0 L 600.469,199.992 400.707,1.184" /><path
                                 id="path10189"
                                 style="fill:#c1121c;fill-opacity:1;fill-rule:nonzero;stroke:none"
                                 d="m 800.234,1.184 199.762,0 199.766,198.808 -199.766,198.828 -199.762,0 L 999.996,199.992 800.234,1.184" /><path
                                 id="path10191"
                                 style="fill:#c1121c;fill-opacity:1;fill-rule:nonzero;stroke:none"
                                 d="m 1199.762,1.184 199.742,0 199.762,198.808 -199.762,198.828 -199.742,0 L 1399.504,199.992 1199.762,1.184" /><path
                                 id="path10193"
                                 style="fill:#c1121c;fill-opacity:1;fill-rule:nonzero;stroke:none"
                                 d="m 1599.266,1.184 199.765,0 199.766,198.808 -199.766,198.828 -199.765,0 L 1799.031,199.992 1599.266,1.184" /></g></g></g></g></g></g></g></g></g></g></g></g></g></g></svg>