<?xml version="1.0" encoding="UTF-8" standalone="no"?>
<svg xmlns:dc="http://purl.org/dc/elements/1.1/" xmlns:cc="http://creativecommons.org/ns#" xmlns:rdf="http://www.w3.org/1999/02/22-rdf-syntax-ns#" xmlns:svg="http://www.w3.org/2000/svg" xmlns="http://www.w3.org/2000/svg" viewBox="0 0 1500 499.99997" height="499.99997" width="1500" xml:space="preserve" id="svg14326" version="1.1"><metadata id="metadata14332"><rdf:RDF><cc:Work rdf:about=""><dc:format>image/svg+xml</dc:format><dc:type rdf:resource="http://purl.org/dc/dcmitype/StillImage"/><dc:title/></cc:Work></rdf:RDF></metadata><defs id="defs14330"/><g transform="matrix(1.3333333,0,0,-1.3333333,0,499.99996)" id="g14334"><g id="g14336"><path id="path14338" style="fill:#ffffff;fill-opacity:1;fill-rule:nonzero;stroke:none" d="M 0,0 H 1125 V 374.99997 H 0 Z"/><path id="path14340" style="fill:#c1121c;fill-opacity:1;fill-rule:nonzero;stroke:none" d="M 937.5,0 750,187.5 937.5,375 h 157.492 c 7.961,0 15.59,-3.176 21.211,-8.797 L 937.5,187.5 1116.203,8.773 C 1110.582,3.152 1102.953,0 1094.992,0"/><path id="path14342" style="fill:#c1121c;fill-opacity:1;fill-rule:nonzero;stroke:none" d="M 750,0 H 562.5 L 375,187.5 562.5,375 H 750 L 562.5,187.5"/><path id="path14344" style="fill:#c1121c;fill-opacity:1;fill-rule:nonzero;stroke:none" d="M 375,0 H 187.5 L 0,187.5 187.5,375 H 375 L 187.5,187.5"/><path id="path14346" style="fill:#000000;fill-opacity:1;fill-rule:nonzero;stroke:none" d="M 30.008,0.75 C 13.867,0.75 0.75,13.867 0.75,29.984 v 315.008 c 0,16.141 13.117,29.258 29.258,29.258 h 1064.984 c 16.141,0 29.258,-13.117 29.258,-29.258 V 29.984 c 0,-16.117 -13.117,-29.234 -29.258,-29.234 z M 1094.992,375 H 30.008 C 13.426,375 0,361.551 0,344.992 V 29.984 C 0,13.426 13.426,0 30.008,0 H 1094.992 C 1111.551,0 1125,13.426 1125,29.984 v 315.008 c 0,16.559 -13.449,30.008 -30.008,30.008"/></g></g></svg>