<?xml version="1.0" encoding="UTF-8" standalone="no"?>
<svg
   xmlns:dc="http://purl.org/dc/elements/1.1/"
   xmlns:cc="http://creativecommons.org/ns#"
   xmlns:rdf="http://www.w3.org/1999/02/22-rdf-syntax-ns#"
   xmlns:svg="http://www.w3.org/2000/svg"
   xmlns="http://www.w3.org/2000/svg"
   viewBox="0 0 2500.0173 500"
   height="500"
   width="2500.0173"
   xml:space="preserve"
   version="1.1"
   id="svg10018"><metadata
     id="metadata10024"><rdf:RDF><cc:Work
         rdf:about=""><dc:format>image/svg+xml</dc:format><dc:type
           rdf:resource="http://purl.org/dc/dcmitype/StillImage" /><dc:title></dc:title></cc:Work></rdf:RDF></metadata><defs
     id="defs10022"><clipPath
       id="clipPath10036"
       clipPathUnits="userSpaceOnUse"><path
         id="path10038"
         d="m 0,0 2001,0 0,400 L 0,400 0,0 Z" /></clipPath><clipPath
       id="clipPath10048"
       clipPathUnits="userSpaceOnUse"><path
         id="path10050"
         d="m 0,0 2001,0 0,400 L 0,400 0,0 Z" /></clipPath><clipPath
       id="clipPath10060"
       clipPathUnits="userSpaceOnUse"><path
         id="path10062"
         d="m 0,0 2001,0 0,400 L 0,400 0,0 Z" /></clipPath></defs><g
     transform="matrix(1.25,0,0,-1.25,0,500)"
     id="g10026"><g
       id="g10028"><g
         id="g10030"><g
           id="g10032"><g
             clip-path="url(#clipPath10036)"
             id="g10034"><g
               id="g10040"><g
                 id="g10042"><g
                   id="g10044"><g
                     clip-path="url(#clipPath10048)"
                     id="g10046"><g
                       id="g10052"><g
                         id="g10054"><g
                           id="g10056"><g
                             clip-path="url(#clipPath10060)"
                             id="g10058"><g
                               id="g10064"><path
                                 id="path10066"
                                 style="fill:#231f20;fill-opacity:1;fill-rule:nonzero;stroke:none"
                                 d="M 33.207,0 C 14.902,0 0,14.785 0,33.008 L 0,367.035 C 0,385.258 14.902,400 33.207,400 l 1933.645,0 c 18.281,0 33.164,-14.742 33.164,-32.965 l 0,-334.027 C 2000.016,14.785 1985.133,0 1966.852,0 L 33.207,0 Z m 0,2.367 1933.645,0 c 16.98,0 30.738,13.715 30.738,30.641 l 0,334.027 c 0,16.926 -13.758,30.598 -30.738,30.598 l -1933.645,0 c -17.008,0 -30.785,-13.672 -30.785,-30.598 l 0,-334.027 C 2.422,16.082 16.199,2.367 33.207,2.367 Z" /><path
                                 id="path10068"
                                 style="fill:#c1121c;fill-opacity:1;fill-rule:nonzero;stroke:none"
                                 d="m 1799.051,1.184 -199.742,198.808 199.742,198.828 167.808,0 c 8.481,0 16.598,-3.343 22.594,-9.312 L 1799.051,199.992 1989.453,10.496 c -5.996,-5.969 -14.113,-9.312 -22.594,-9.312 l -167.808,0" /><path
                                 id="path10070"
                                 style="fill:#c1121c;fill-opacity:1;fill-rule:nonzero;stroke:none"
                                 d="m 1599.309,1.184 -199.766,0 -199.762,198.808 199.762,198.828 199.766,0 L 1399.543,199.992 1599.309,1.184" /><path
                                 id="path10072"
                                 style="fill:#c1121c;fill-opacity:1;fill-rule:nonzero;stroke:none"
                                 d="m 1199.781,1.184 -199.765,0 -199.762,198.808 199.762,198.828 199.765,0 L 1000.016,199.992 1199.781,1.184" /><path
                                 id="path10074"
                                 style="fill:#c1121c;fill-opacity:1;fill-rule:nonzero;stroke:none"
                                 d="m 800.254,1.184 -199.742,0 -199.766,198.808 199.766,198.828 199.742,0 L 600.512,199.992 800.254,1.184" /><path
                                 id="path10076"
                                 style="fill:#c1121c;fill-opacity:1;fill-rule:nonzero;stroke:none"
                                 d="m 400.746,1.184 -199.762,0 -199.765,198.808 199.765,198.828 199.762,0 L 200.984,199.992 400.746,1.184" /></g></g></g></g></g></g></g></g></g></g></g></g></g></g></svg>