<?xml version="1.0" encoding="UTF-8" standalone="no"?>
<svg
   xmlns:dc="http://purl.org/dc/elements/1.1/"
   xmlns:cc="http://creativecommons.org/ns#"
   xmlns:rdf="http://www.w3.org/1999/02/22-rdf-syntax-ns#"
   xmlns:svg="http://www.w3.org/2000/svg"
   xmlns="http://www.w3.org/2000/svg"
   id="svg10018"
   version="1.1"
   xml:space="preserve"
   width="2500.0173"
   height="500"
   viewBox="0 0 2500.0173 500"><metadata
     id="metadata10024"><rdf:RDF><cc:Work
         rdf:about=""><dc:format>image/svg+xml</dc:format><dc:type
           rdf:resource="http://purl.org/dc/dcmitype/StillImage" /><dc:title></dc:title></cc:Work></rdf:RDF></metadata><defs
     id="defs10022"><clipPath
       clipPathUnits="userSpaceOnUse"
       id="clipPath10036"><path
         d="m 0,0 2001,0 0,400 L 0,400 0,0 Z"
         id="path10038" /></clipPath><clipPath
       clipPathUnits="userSpaceOnUse"
       id="clipPath10048"><path
         d="m 0,0 2001,0 0,400 L 0,400 0,0 Z"
         id="path10050" /></clipPath><clipPath
       clipPathUnits="userSpaceOnUse"
       id="clipPath10060"><path
         d="m 0,0 2001,0 0,400 L 0,400 0,0 Z"
         id="path10062" /></clipPath></defs><g
     id="g10026"
     transform="matrix(1.25,0,0,-1.25,0,500)"><g
       id="g10028"><rect
         ry="37.337921"
         transform="scale(-1)"
         y="-399.02701"
         x="-1998.9572"
         height="397.98138"
         width="1997.7836"
         id="rect840"
         style="color:#000000;clip-rule:nonzero;display:inline;overflow:visible;visibility:visible;opacity:1;isolation:auto;mix-blend-mode:normal;color-interpolation:sRGB;color-interpolation-filters:linearRGB;solid-color:#000000;solid-opacity:1;vector-effect:none;fill:#ffffff;fill-opacity:1;fill-rule:evenodd;stroke:none;stroke-width:11.2258997;stroke-linecap:butt;stroke-linejoin:miter;stroke-miterlimit:4;stroke-dasharray:none;stroke-dashoffset:0;stroke-opacity:1;marker:none;color-rendering:auto;image-rendering:auto;shape-rendering:auto;text-rendering:auto;enable-background:accumulate" /><g
         transform="matrix(-1,0,0,1,2000.016,0)"
         id="g10030"><g
           id="g10032"><g
             id="g10034"
             clip-path="url(#clipPath10036)"><g
               id="g10040"><g
                 id="g10042"><g
                   id="g10044"><g
                     id="g10046"
                     clip-path="url(#clipPath10048)"><g
                       id="g10052"><g
                         id="g10054"><g
                           id="g10056"><g
                             id="g10058"
                             clip-path="url(#clipPath10060)"><g
                               id="g10064"><path
                                 d="m 1799.051,1.184 -199.742,198.808 199.742,198.828 h 167.808 c 8.481,0 16.598,-3.343 22.594,-9.312 L 1799.051,199.992 1989.453,10.496 c -5.996,-5.969 -14.113,-9.312 -22.594,-9.312 h -167.808"
                                 style="fill:#c1121c;fill-opacity:1;fill-rule:nonzero;stroke:none"
                                 id="path10068" /><path
                                 d="m 1599.309,1.184 h -199.766 l -199.762,198.808 199.762,198.828 h 199.766 L 1399.543,199.992 1599.309,1.184"
                                 style="fill:#c1121c;fill-opacity:1;fill-rule:nonzero;stroke:none"
                                 id="path10070" /><path
                                 d="M 1199.781,1.184 H 1000.016 L 800.254,199.992 1000.016,398.82 h 199.765 L 1000.016,199.992 1199.781,1.184"
                                 style="fill:#c1121c;fill-opacity:1;fill-rule:nonzero;stroke:none"
                                 id="path10072" /><path
                                 d="M 800.254,1.184 H 600.512 L 400.746,199.992 600.512,398.82 H 800.254 L 600.512,199.992 800.254,1.184"
                                 style="fill:#c1121c;fill-opacity:1;fill-rule:nonzero;stroke:none"
                                 id="path10074" /><path
                                 d="M 400.746,1.184 H 200.984 L 1.219,199.992 200.984,398.82 H 400.746 L 200.984,199.992 400.746,1.184"
                                 style="fill:#c1121c;fill-opacity:1;fill-rule:nonzero;stroke:none"
                                 id="path10076" /><path
                                 d="M 33.207,0 C 14.902,0 0,14.785 0,33.008 V 367.035 C 0,385.258 14.902,400 33.207,400 h 1933.645 c 18.281,0 33.164,-14.742 33.164,-32.965 V 33.008 C 2000.016,14.785 1985.133,0 1966.852,0 Z m 0,2.367 h 1933.645 c 16.98,0 30.738,13.715 30.738,30.641 v 334.027 c 0,16.926 -13.758,30.598 -30.738,30.598 H 33.207 c -17.008,0 -30.785,-13.672 -30.785,-30.598 V 33.008 C 2.422,16.082 16.199,2.367 33.207,2.367 Z"
                                 style="fill:#231f20;fill-opacity:1;fill-rule:nonzero;stroke:none"
                                 id="path10066" /></g></g></g></g></g></g></g></g></g></g></g></g></g></g></svg>