<?xml version="1.0" encoding="UTF-8" standalone="no"?>
<svg
   xmlns:dc="http://purl.org/dc/elements/1.1/"
   xmlns:cc="http://creativecommons.org/ns#"
   xmlns:rdf="http://www.w3.org/1999/02/22-rdf-syntax-ns#"
   xmlns:svg="http://www.w3.org/2000/svg"
   xmlns="http://www.w3.org/2000/svg"
   viewBox="0 0 600 1200.0427"
   height="1200.0427"
   width="600"
   xml:space="preserve"
   version="1.1"
   id="svg4345"><metadata
     id="metadata4351"><rdf:RDF><cc:Work
         rdf:about=""><dc:format>image/svg+xml</dc:format><dc:type
           rdf:resource="http://purl.org/dc/dcmitype/StillImage" /><dc:title></dc:title></cc:Work></rdf:RDF></metadata><defs
     id="defs4349"><clipPath
       id="clipPath4363"
       clipPathUnits="userSpaceOnUse"><path
         id="path4365"
         d="M 0,0 480,0 480,961 0,961 0,0 Z" /></clipPath></defs><g
     transform="matrix(1.25,0,0,-1.25,0,1200.0427)"
     id="g4353"><g
       id="g4355" /><g
       id="g4357"><g
         transform="translate(0,-0.96582)"
         id="g4359"><g
           id="g4361" /><g
           id="g4367"><g
             id="g4369"
             clip-path="url(#clipPath4363)"><g
               id="g4371"><path
                 id="path4373"
                 style="fill:#ffffff;fill-opacity:1;fill-rule:nonzero;stroke:none"
                 d="M 32.004,1.949 C 14.902,1.949 0.949,15.867 0.949,33.004 l 0,895.992 c 0,17.137 13.953,31.055 31.055,31.055 l 415.992,0 c 17.137,0 31.055,-13.918 31.055,-31.055 l 0,-895.992 c 0,-17.137 -13.918,-31.055 -31.055,-31.055 l -415.992,0 z" /><path
                 id="path4375"
                 style="fill:#c1121c;fill-opacity:1;fill-rule:nonzero;stroke:none"
                 d="M 0,240.984 0,481 240.016,721.016 480,481 480,240.984 240.016,481" /><path
                 id="path4377"
                 style="fill:#c1121c;fill-opacity:1;fill-rule:nonzero;stroke:none"
                 d="m 0,721.016 0,207.98 C 0,946.676 14.324,961 32.004,961 l 208.012,0" /><path
                 id="path4379"
                 style="fill:#c1121c;fill-opacity:1;fill-rule:nonzero;stroke:none"
                 d="M 480,721.016 240.016,961 l 207.98,0 C 465.676,961 480,946.676 480,928.996" /><path
                 id="path4381"
                 style="fill:#000000;fill-opacity:1;fill-rule:nonzero;stroke:none"
                 d="M 32.004,1.949 C 14.902,1.949 0.949,15.867 0.949,33.004 l 0,895.992 c 0,17.137 13.953,31.055 31.055,31.055 l 415.992,0 c 17.137,0 31.055,-13.918 31.055,-31.055 l 0,-895.992 c 0,-17.137 -13.918,-31.055 -31.055,-31.055 l -415.992,0 z M 447.996,961 32.004,961 C 14.324,961 0,946.676 0,928.996 L 0,33.004 C 0,15.293 14.324,0.965 32.004,0.965 l 415.992,0 c 17.68,0 32.004,14.328 32.004,32.039 l 0,895.992 C 480,946.676 465.676,961 447.996,961" /></g></g></g></g></g><g
       id="g4383"><path
         id="path4385"
         style="fill:#c1121c;fill-opacity:1;fill-rule:nonzero;stroke:none"
         d="M 240.016,240.019 470.652,9.417 C 464.625,3.386 456.496,0.003 447.996,0.003 l -415.992,0 c -8.5,0 -16.629,3.383 -22.621,9.414" /></g></g></svg>