<?xml version="1.0" encoding="UTF-8" standalone="no"?>
<svg
   xmlns:dc="http://purl.org/dc/elements/1.1/"
   xmlns:cc="http://creativecommons.org/ns#"
   xmlns:rdf="http://www.w3.org/1999/02/22-rdf-syntax-ns#"
   xmlns:svg="http://www.w3.org/2000/svg"
   xmlns="http://www.w3.org/2000/svg"
   viewBox="0 0 501 750.99805"
   height="750.99805"
   width="501"
   xml:space="preserve"
   id="svg4626"
   version="1.1"><metadata
     id="metadata4632"><rdf:RDF><cc:Work
         rdf:about=""><dc:format>image/svg+xml</dc:format><dc:type
           rdf:resource="http://purl.org/dc/dcmitype/StillImage" /><dc:title></dc:title></cc:Work></rdf:RDF></metadata><defs
     id="defs4630" /><g
     transform="matrix(1.3333333,0,0,-1.3333333,0,750.99805)"
     id="g4634"><g
       id="g4636"><path
         id="path4638"
         style="fill:#c1121c;fill-opacity:1;fill-rule:evenodd;stroke:none"
         d="m 21.402,562.874 h 334.899 c 8.715,-0.633 18.594,-9.684 19.074,-20.082 V 20.229 c 0,-9.359 -8.012,-19.863 -20.281,-19.855 L 20.68,0.6 C 9.445,0.608 0.641,10.264 0.641,20.694 L 0.375,542.967 c 0,11.328 9.457,19.907 21.027,19.907 z" /><path
         id="path4640"
         style="fill:#ffffff;fill-opacity:1;fill-rule:evenodd;stroke:none"
         d="M 9.145,4.428 C 9.238,4.362 9.309,4.276 9.402,4.209 10.465,3.459 11.605,2.811 12.809,2.276 14.012,1.741 15.277,1.323 16.594,1.038 17.91,0.752 19.273,0.6 20.68,0.6 l 159.715,-0.109 194.98,197.656 v 176.082 z" /><path
         id="path4642"
         style="fill:#ffffff;fill-opacity:1;fill-rule:evenodd;stroke:none"
         d="M 179.621,562.874 0.402,378.897 V 202.815 l 356.325,360.059 z" /><path
         id="path4644"
         style="fill:#000000;fill-opacity:1;fill-rule:evenodd;stroke:none"
         d="M 21.402,563.249 C 9.645,563.249 0,554.502 0,542.967 L 0.262,20.694 C 0.262,10.053 9.23,0.233 20.68,0.225 l 334.414,-0.226 c 12.484,-0.008 20.656,10.656 20.656,20.23 v 522.582 c -0.246,5.313 -2.883,10.25 -6.559,13.949 -3.671,3.696 -8.386,6.164 -12.863,6.489 z m 0,-0.375 h 334.899 c 8.715,-0.633 18.594,-9.684 19.074,-20.082 V 20.229 c 0,-9.359 -8.012,-19.863 -20.281,-19.855 L 20.68,0.6 C 9.445,0.608 0.637,10.264 0.637,20.694 L 0.375,542.967 c 0,11.328 9.453,19.907 21.027,19.907 z" /></g></g></svg>