<?xml version="1.0" encoding="UTF-8" standalone="no"?>
<svg
   xmlns:dc="http://purl.org/dc/elements/1.1/"
   xmlns:cc="http://creativecommons.org/ns#"
   xmlns:rdf="http://www.w3.org/1999/02/22-rdf-syntax-ns#"
   xmlns:svg="http://www.w3.org/2000/svg"
   xmlns="http://www.w3.org/2000/svg"
   viewBox="0 0 877.46594 1316.1411"
   height="1316.1411"
   width="877.46594"
   xml:space="preserve"
   version="1.1"
   id="svg4288"><metadata
     id="metadata4294"><rdf:RDF><cc:Work
         rdf:about=""><dc:format>image/svg+xml</dc:format><dc:type
           rdf:resource="http://purl.org/dc/dcmitype/StillImage" /><dc:title></dc:title></cc:Work></rdf:RDF></metadata><defs
     id="defs4292"><clipPath
       id="clipPath4304"
       clipPathUnits="userSpaceOnUse"><path
         id="path4306"
         d="M 0,0 702,0 702,1053 0,1053 0,0 Z" /></clipPath></defs><g
     transform="matrix(1.25,0,0,-1.25,0,1316.1411)"
     id="g4296"><g
       id="g4298"><g
         transform="translate(0,-0.0871582)"
         id="g4300"><g
           id="g4302" /><g
           id="g4308"><g
             id="g4310"
             clip-path="url(#clipPath4304)"><g
               id="g4312"><path
                 id="path4314"
                 style="fill:#ffffff;fill-opacity:1;fill-rule:nonzero;stroke:none"
                 d="m 56.184,1052.488 c -30.692,0 -55.625,-24.933 -55.625,-55.625 l 0,-940.636 C 0.559,25.531 25.492,0.598 56.184,0.598 l 589.652,0 c 30.644,0 55.625,24.933 55.625,55.629 l 0,940.636 c 0,30.692 -24.981,55.625 -55.625,55.625" /><path
                 id="path4316"
                 style="fill:#000000;fill-opacity:1;fill-rule:nonzero;stroke:none"
                 d="M 56.184,1.109 C 25.77,1.109 1.066,25.859 1.066,56.227 l 0,940.636 c 0,30.414 24.704,55.114 55.118,55.114 l 589.652,0 c 30.367,0 55.07,-24.7 55.07,-55.114 l 0,-940.636 c 0,-30.368 -24.703,-55.118 -55.07,-55.118 l -589.652,0 z m 589.652,1051.938 -589.652,0 C 25.168,1053.047 0,1027.879 0,996.863 L 0,56.227 C 0,25.207 25.168,0.086 56.184,0.086 l 589.652,0 c 31.016,0 56.137,25.121 56.137,56.141 l 0,940.636 c 0,31.016 -25.121,56.184 -56.137,56.184" /><path
                 id="path4318"
                 style="fill:#c1121c;fill-opacity:1;fill-rule:nonzero;stroke:none"
                 d="m 0,351.074 350.984,350.985 350.989,-350.985 0,-294.847 c 0,-14.907 -5.899,-29.161 -16.438,-39.704 L 350.984,351.074 16.438,16.523 C 5.941,27.066 0,41.32 0,56.227" /><path
                 id="path4320"
                 style="fill:#c1121c;fill-opacity:1;fill-rule:nonzero;stroke:none"
                 d="m 0,702.059 0,294.804 c 0,31.016 25.168,56.184 56.184,56.184 l 294.8,0" /><path
                 id="path4322"
                 style="fill:#c1121c;fill-opacity:1;fill-rule:nonzero;stroke:none"
                 d="m 701.973,702.059 -350.989,350.988 294.852,0 c 31.016,0 56.137,-25.168 56.137,-56.184" /></g></g></g></g></g></g></svg>