<?xml version="1.0" encoding="UTF-8" standalone="no"?>
<svg
   xmlns:dc="http://purl.org/dc/elements/1.1/"
   xmlns:cc="http://creativecommons.org/ns#"
   xmlns:rdf="http://www.w3.org/1999/02/22-rdf-syntax-ns#"
   xmlns:svg="http://www.w3.org/2000/svg"
   xmlns="http://www.w3.org/2000/svg"
   viewBox="0 0 1938.0118 251.76234"
   height="251.76234"
   width="1938.0118"
   xml:space="preserve"
   version="1.1"
   id="svg17869"><metadata
     id="metadata17875"><rdf:RDF><cc:Work
         rdf:about=""><dc:format>image/svg+xml</dc:format><dc:type
           rdf:resource="http://purl.org/dc/dcmitype/StillImage" /><dc:title></dc:title></cc:Work></rdf:RDF></metadata><defs
     id="defs17873" /><g
     transform="matrix(1.25,0,0,-1.25,0,251.76235)"
     id="g17877"><g
       id="g17879"><path
         id="path17881"
         style="fill:#ffffff;fill-opacity:1;fill-rule:nonzero;stroke:none"
         d="m 0.777,200.582 1548.863,0 0,-199.797 -1548.863,0 0,199.797 z" /><path
         id="path17883"
         style="fill:#c1121c;fill-opacity:1;fill-rule:nonzero;stroke:none"
         d="m 1162.426,200.582 154.957,0 0,-199.797 -154.957,0 0,199.797 z" /><path
         id="path17885"
         style="fill:#c1121c;fill-opacity:1;fill-rule:nonzero;stroke:none"
         d="m 852.688,200.582 154.852,0 0,-199.797 -154.852,0 0,199.797 z" /><path
         id="path17887"
         style="fill:#c1121c;fill-opacity:1;fill-rule:nonzero;stroke:none"
         d="m 542.844,200.582 154.957,0 0,-199.797 -154.957,0 0,199.797 z" /><path
         id="path17889"
         style="fill:#c1121c;fill-opacity:1;fill-rule:nonzero;stroke:none"
         d="m 233.109,200.582 154.883,0 0,-199.797 -154.883,0 0,199.797 z" /><path
         id="path17891"
         style="fill:#c1121c;fill-opacity:1;fill-rule:nonzero;stroke:none"
         d="m 1472.234,200.582 78.176,0 0,-199.797 -78.176,0 0,199.797 z" /><path
         id="path17893"
         style="fill:#c1121c;fill-opacity:1;fill-rule:nonzero;stroke:none"
         d="m 0,200.582 78.223,0 0,-199.797 -78.223,0 0,199.797 z" /><path
         id="path17895"
         style="fill:#000000;fill-opacity:1;fill-rule:nonzero;stroke:none"
         d="m 1550.41,201.406 c -516.805,-0.008 -1033.609,0.012 -1550.41,0 l 0,-1.648 1550.41,0 0,1.648 z M 78.223,1.586 0,1.586 0,0 l 1550.41,0 0,1.586 -1472.187,0 z" /></g></g></svg>