<?xml version="1.0" encoding="UTF-8" standalone="no"?>
<!-- Created with Inkscape (http://www.inkscape.org/) -->

<svg
   xmlns:dc="http://purl.org/dc/elements/1.1/"
   xmlns:cc="http://creativecommons.org/ns#"
   xmlns:rdf="http://www.w3.org/1999/02/22-rdf-syntax-ns#"
   xmlns:svg="http://www.w3.org/2000/svg"
   xmlns="http://www.w3.org/2000/svg"
   xmlns:sodipodi="http://sodipodi.sourceforge.net/DTD/sodipodi-0.dtd"
   xmlns:inkscape="http://www.inkscape.org/namespaces/inkscape"
   version="1.0"
   width="1528.1176"
   height="1350.1105"
   viewBox="0 0 1528.1175 1350.1105"
   id="svg7798"
   xml:space="preserve"
   inkscape:version="0.48.2 r9819"
   sodipodi:docname="AJAX.svg"><metadata
   id="metadata9"><rdf:RDF><cc:Work
       rdf:about=""><dc:format>image/svg+xml</dc:format><dc:type
         rdf:resource="http://purl.org/dc/dcmitype/StillImage" /></cc:Work></rdf:RDF></metadata><sodipodi:namedview
   pagecolor="#ffffff"
   bordercolor="#666666"
   borderopacity="1"
   objecttolerance="10"
   gridtolerance="10"
   guidetolerance="10"
   inkscape:pageopacity="0"
   inkscape:pageshadow="2"
   inkscape:window-width="1280"
   inkscape:window-height="1004"
   id="namedview7"
   showgrid="false"
   fit-margin-top="0"
   fit-margin-left="0"
   fit-margin-right="0"
   fit-margin-bottom="0"
   inkscape:zoom="0.24720525"
   inkscape:cx="579.60166"
   inkscape:cy="676.7009"
   inkscape:window-x="-8"
   inkscape:window-y="-8"
   inkscape:window-maximized="1"
   inkscape:current-layer="layer1"
   showguides="true"
   inkscape:guide-bbox="true" /><defs
   id="defs7806" />
	
		<g
   id="layer1"
   transform="translate(-0.00377323,-0.01454577)">
			
				<path
   d="m 768.0875,24.622 c 25.638,1.36 48.847,15.593 61.682,37.826 l 663.686,1149.388 c 13.547,23.467 13.545,52.38 -0.01,75.846 -13.553,23.467 -38.597,37.92 -65.699,37.918 l -1327.368,0 c -27.103,0 -52.148,-14.451 -65.699,-37.918 -13.554,-23.466 -13.558,-52.379 -0.01,-75.846 L 698.3595,62.448 c 14.271,-24.724 41.218,-39.342 69.728,-37.826 l 0,0 z"
   style="fill:#febe0b;fill-opacity:1;stroke:#d40000;stroke-width:49.02959824;stroke-opacity:1"
   id="path4844"
   inkscape:connector-curvature="0" />
			<path
   d="m 415.8065,1140.03 c -0.614,-48.072 6.86,-96.705 20.593,-142.883 12.479,-46.793 31.829,-91.1 56.772,-132.283 24.33,-41.801 54.918,-79.861 89.23,-113.547 34.3,-33.66 73.615,-62.354 116.029,-86.082 41.812,-24.345 86.106,-43.029 132.886,-53.677 33.686,-8.09 68.022,-11.826 101.707,-14.334 11.84,-1.229 23.09,-1.869 34.312,-2.508 l 74.258,73.614 -73.631,73.642 c -33.684,2.484 -67.395,4.992 -99.838,12.467 -34.314,8.115 -67.998,21.859 -97.922,39.316 -31.228,17.457 -59.294,38.678 -84.877,63.02 -25.584,24.955 -47.418,53.035 -65.502,83.598 -18.084,29.949 -31.817,63.021 -41.8,96.705 -9.995,34.301 -16.229,69.879 -14.975,104.82 0,1.867 0,79.248 0,79.248 l -73.628,-73.645 -73.616,73.645 0,-81.116 z"
   id="path7526_10_"
   style="fill:#000000;fill-opacity:1;stroke:none"
   inkscape:connector-curvature="0" />
		</g>
	</svg>