<?xml version="1.0" encoding="UTF-8" standalone="no"?>
<!-- Created with Inkscape (http://www.inkscape.org/) -->

<svg
   xmlns:svg="http://www.w3.org/2000/svg"
   xmlns="http://www.w3.org/2000/svg"
   version="1.1"
   width="512.82001"
   height="453.10999"
   id="svg2">
  <defs
     id="defs4">
			
			
			
		</defs>
  <g
     transform="translate(-74.391749,135.41762)"
     id="layer1">
    <g
       transform="matrix(0.99997654,0,0,0.99908609,74.391749,-134.99908)"
       id="g2873">
      <g
         transform="translate(-1.2492967e-4,5.7530595e-4)"
         id="g2875" />
      <g
         transform="translate(-1.2492967e-4,5.7530595e-4)"
         id="g2877" />
      <g
         transform="translate(-1.2492967e-4,5.7530595e-4)"
         id="g2879">
        <path
           d="m 271.333,25.071 c -3.258,-5.646 -9.328,-8.938 -15.838,-8.591 -5.848,0.312 -11.086,3.522 -14.013,8.594 0,0 -222.736,385.738 -222.735,385.737 -3.066,5.313 -3.065,11.914 0.002,17.227 3.068,5.313 8.787,8.612 14.924,8.612 0,0 445.47,0 445.472,0 6.14,0 11.854,-3.3 14.927,-8.613 3.065,-5.312 3.065,-11.908 0.002,-17.225 -0.004,0 -222.741,-385.738 -222.741,-385.741 z"
           id="path2881"
           style="fill:#febe0b;fill-opacity:1;stroke:none" />
        <path
           d="M 508.319,402.583 285.585,16.844 C 279.213,5.808 267.352,-0.629 254.624,0.048 c -11.429,0.604 -21.668,6.885 -27.391,16.797 0,-10e-4 -222.735,385.738 -222.735,385.738 -5.998,10.39 -5.997,23.296 0.002,33.683 5.999,10.387 17.177,16.839 29.174,16.839 l 445.47,0 c 11.996,0 23.179,-6.452 29.177,-16.839 5.996,-10.388 5.998,-23.295 -0.002,-33.683 z m -14.25,25.454 c -3.068,5.313 -8.787,8.613 -14.927,8.613 -0.002,0 -445.472,0 -445.472,0 -6.138,0 -11.855,-3.3 -14.924,-8.611 -3.068,-5.312 -3.069,-11.91 -0.002,-17.228 0,0.001 222.735,-385.737 222.735,-385.737 2.927,-5.068 8.166,-8.28 14.013,-8.594 6.51,-0.347 12.581,2.946 15.838,8.592 0,0.001 222.736,385.74 222.736,385.74 3.071,5.313 3.069,11.912 0.003,17.225 z"
           id="path2883"
           style="fill:#d40000;fill-opacity:1;stroke:none" />
      </g>
    </g>
    <path
       d="m 528.4344,281.6886 0,-47.58692 c -2.3649,0 -7.55752,0 -18.11028,0 -62.72367,0 -49.54885,-57.16466 -94.97389,-57.16466 -41.66553,0 -49.00301,57.16466 -77.21935,57.16466 -12.07353,0 -0.92966,0 -13.0032,0 -35.73439,0 -38.27305,-57.16466 -80.63368,-57.16466 -36.91393,0 -44.5628,57.16466 -80.97515,57.16466 -13.96705,0 -29.05877,0 -31.42616,0 l 0,47.58692 396.34171,0 z"
       id="bump-1"
       style="fill:#000000;stroke:none" />
  </g>
</svg>
