<?xml version="1.0" encoding="UTF-8" standalone="no"?>
<!-- Created with Inkscape (http://www.inkscape.org/) -->

<svg
   xmlns:dc="http://purl.org/dc/elements/1.1/"
   xmlns:cc="http://creativecommons.org/ns#"
   xmlns:rdf="http://www.w3.org/1999/02/22-rdf-syntax-ns#"
   xmlns:svg="http://www.w3.org/2000/svg"
   xmlns="http://www.w3.org/2000/svg"
   xmlns:sodipodi="http://sodipodi.sourceforge.net/DTD/sodipodi-0.dtd"
   xmlns:inkscape="http://www.inkscape.org/namespaces/inkscape"
   version="1.0"
   width="512.81836"
   height="453.10556"
   viewBox="0 0 512.81839 453.10555"
   id="svg1903"
   xml:space="preserve"
   inkscape:version="0.48.2 r9819"
   sodipodi:docname="Aa.svg"><metadata
   id="metadata12"><rdf:RDF><cc:Work
       rdf:about=""><dc:format>image/svg+xml</dc:format><dc:type
         rdf:resource="http://purl.org/dc/dcmitype/StillImage" /></cc:Work></rdf:RDF></metadata><sodipodi:namedview
   pagecolor="#ffffff"
   bordercolor="#666666"
   borderopacity="1"
   objecttolerance="10"
   gridtolerance="10"
   guidetolerance="10"
   inkscape:pageopacity="0"
   inkscape:pageshadow="2"
   inkscape:window-width="1280"
   inkscape:window-height="1004"
   id="namedview10"
   showgrid="false"
   fit-margin-top="0"
   fit-margin-left="0"
   fit-margin-right="0"
   fit-margin-bottom="0"
   inkscape:zoom="0.50193189"
   inkscape:cx="262.24691"
   inkscape:cy="7.8458468"
   inkscape:window-x="-8"
   inkscape:window-y="-8"
   inkscape:window-maximized="1"
   inkscape:current-layer="g3797" /><defs
   id="defs1912">
			
			
			
		</defs>
	
		
	<g
   id="g2874"
   transform="translate(-1.2492967e-4,5.7530595e-4)" /><g
   id="g2893"
   transform="translate(-1.2492967e-4,5.7530595e-4)" /><g
   id="g3797"
   transform="translate(-1.2492967e-4,5.7530595e-4)"><path
     d="m 271.333,25.071 c -3.258,-5.646 -9.328,-8.938 -15.838,-8.591 -5.848,0.312 -11.086,3.522 -14.013,8.594 0,0 -222.736,385.738 -222.735,385.737 -3.066,5.313 -3.065,11.914 0.002,17.227 3.068,5.313 8.787,8.612 14.924,8.612 0,0 445.47,0 445.472,0 6.14,0 11.854,-3.3 14.927,-8.613 3.065,-5.312 3.065,-11.908 0.002,-17.225 -0.004,0 -222.741,-385.738 -222.741,-385.741 z"
     style="fill:#febe0b;fill-opacity:1;stroke:none"
     id="yellow"
     inkscape:connector-curvature="0" /><path
     d="M 508.319,402.583 285.585,16.844 C 279.213,5.808 267.352,-0.629 254.624,0.048 c -11.429,0.604 -21.668,6.885 -27.391,16.797 0,-10e-4 -222.735,385.738 -222.735,385.738 -5.998,10.39 -5.997,23.296 0.002,33.683 5.999,10.387 17.177,16.839 29.174,16.839 l 445.47,0 c 11.996,0 23.179,-6.452 29.177,-16.839 5.996,-10.388 5.998,-23.295 -0.002,-33.683 z m -14.25,25.454 c -3.068,5.313 -8.787,8.613 -14.927,8.613 -0.002,0 -445.472,0 -445.472,0 -6.138,0 -11.855,-3.3 -14.924,-8.611 -3.068,-5.312 -3.069,-11.91 -0.002,-17.228 0,0.001 222.735,-385.737 222.735,-385.737 2.927,-5.068 8.166,-8.28 14.013,-8.594 6.51,-0.347 12.581,2.946 15.838,8.592 0,0.001 222.736,385.74 222.736,385.74 3.071,5.313 3.069,11.912 0.003,17.225 z"
     style="fill:#d40000;fill-opacity:1;stroke:none"
     id="boarder"
     inkscape:connector-curvature="0" /><path
     inkscape:connector-curvature="0"
     d="m 344.64415,377.61501 c -1.53,4.313 -8.781,8.896 -19.21,8.896 -7.805,0 -17.223,-7.525 -20.192,-10.426 l -0.213,-0.208 c -0.004,-0.003 -0.245,-0.181 -0.245,-0.181 l -3.062,-2.246 -2.688,2.638 c -2.967,2.897 -12.387,10.423 -20.189,10.423 -7.804,0 -17.223,-7.525 -20.193,-10.426 l -3.106,-3.033 c -0.004,-0.004 -3.102,3.036 -3.102,3.036 -2.967,2.897 -12.386,10.423 -20.189,10.423 -7.803,0 -17.22302,-7.525 -20.19302,-10.426 l -3.106,-3.033 c -0.004,-0.003 -3.103,3.036 -3.103,3.036 -2.967,2.897 -12.386,10.423 -20.189,10.423 -10.428,0 -17.68,-4.583 -19.209,-8.896 l -8.171,2.576 c 3.016,8.506 14.275,14.445 27.381,14.445 9.396,0 18.635,-6.389 23.296,-10.188 4.661,3.799 13.89902,10.188 23.29502,10.188 9.396,0 18.634,-6.389 23.295,-10.188 4.661,3.799 13.899,10.188 23.295,10.188 9.396,0 18.634,-6.389 23.295,-10.188 4.661,3.799 13.898,10.188 23.296,10.188 13.107,0 24.365,-5.939 27.381,-14.445 l -8.174,-2.576 z"
     id="water_2"
     style="fill:#000000;fill-opacity:1;stroke:none" /><path
     inkscape:connector-curvature="0"
     d="m 344.64415,404.88401 c -1.53,4.313 -8.781,8.896 -19.21,8.896 -7.805,0 -17.223,-7.525 -20.192,-10.426 l -0.213,-0.208 c -0.004,-0.003 -0.245,-0.181 -0.245,-0.181 l -3.062,-2.246 -2.688,2.638 c -2.967,2.897 -12.387,10.423 -20.189,10.423 -7.804,0 -17.223,-7.525 -20.193,-10.426 l -3.106,-3.033 c -0.004,-0.004 -3.102,3.036 -3.102,3.036 -2.967,2.897 -12.386,10.423 -20.189,10.423 -7.803,0 -17.22302,-7.525 -20.19302,-10.426 l -3.106,-3.033 c -0.004,-0.003 -3.103,3.036 -3.103,3.036 -2.967,2.897 -12.386,10.423 -20.189,10.423 -10.428,0 -17.68,-4.583 -19.209,-8.896 l -8.171,2.576 c 3.016,8.506 14.275,14.445 27.381,14.445 9.396,0 18.635,-6.389 23.296,-10.188 4.661,3.799 13.89902,10.188 23.29502,10.188 9.396,0 18.634,-6.389 23.295,-10.188 4.661,3.799 13.899,10.188 23.295,10.188 9.396,0 18.634,-6.389 23.295,-10.188 4.661,3.799 13.898,10.188 23.296,10.188 13.107,0 24.365,-5.939 27.381,-14.445 l -8.174,-2.576 z"
     id="water_1"
     style="fill:#000000;fill-opacity:1;stroke:none" /><polygon
     transform="translate(1.2693879e-4,-4.5883509e-5)"
     points="359.025,325.744 359.025,421.906 460.706,421.906 407.235,325.739 359.025,325.744 "
     id="brigde_1"
     style="fill:#000000;fill-opacity:1;stroke:none" /><polygon
     transform="translate(1.2693879e-4,-4.5883509e-5)"
     points="103.858,325.739 50.388,421.906 152.068,421.906 152.068,325.744 103.858,325.739 "
     id="brigde_2"
     style="fill:#000000;fill-opacity:1;stroke:none" /><rect
     width="210.99138"
     height="39.432133"
     x="-41.051933"
     y="320.46298"
     transform="matrix(0.86601905,-0.500011,0.500011,0.86601905,0,0)"
     id="bridge_3"
     style="fill:#000000;fill-opacity:1;stroke:none" /></g></svg>