<?xml version="1.0" encoding="UTF-8" standalone="no"?>
<!-- Created with Inkscape (http://www.inkscape.org/) -->

<svg
   xmlns:dc="http://purl.org/dc/elements/1.1/"
   xmlns:cc="http://creativecommons.org/ns#"
   xmlns:rdf="http://www.w3.org/1999/02/22-rdf-syntax-ns#"
   xmlns:svg="http://www.w3.org/2000/svg"
   xmlns="http://www.w3.org/2000/svg"
   xmlns:sodipodi="http://sodipodi.sourceforge.net/DTD/sodipodi-0.dtd"
   xmlns:inkscape="http://www.inkscape.org/namespaces/inkscape"
   version="1.0"
   width="512.81836"
   height="453.10556"
   viewBox="0 0 512.81839 453.10555"
   id="svg1903"
   xml:space="preserve"
   inkscape:version="0.48.2 r9819"
   sodipodi:docname="Aa.svg"><metadata
   id="metadata12"><rdf:RDF><cc:Work
       rdf:about=""><dc:format>image/svg+xml</dc:format><dc:type
         rdf:resource="http://purl.org/dc/dcmitype/StillImage" /></cc:Work></rdf:RDF></metadata><sodipodi:namedview
   pagecolor="#ffffff"
   bordercolor="#666666"
   borderopacity="1"
   objecttolerance="10"
   gridtolerance="10"
   guidetolerance="10"
   inkscape:pageopacity="0"
   inkscape:pageshadow="2"
   inkscape:window-width="1280"
   inkscape:window-height="1004"
   id="namedview10"
   showgrid="false"
   fit-margin-top="0"
   fit-margin-left="0"
   fit-margin-right="0"
   fit-margin-bottom="0"
   inkscape:zoom="0.50193189"
   inkscape:cx="262.24691"
   inkscape:cy="7.8458468"
   inkscape:window-x="-8"
   inkscape:window-y="-8"
   inkscape:window-maximized="1"
   inkscape:current-layer="g3797" /><defs
   id="defs1912">
			
			
			
		</defs>
	
		
	<g
   id="g2874"
   transform="translate(-1.2492967e-4,5.7530595e-4)" /><g
   id="g2893"
   transform="translate(-1.2492967e-4,5.7530595e-4)" /><g
   id="g3797"
   transform="translate(-1.2492967e-4,5.7530595e-4)"><path
     d="m 271.333,25.071 c -3.258,-5.646 -9.328,-8.938 -15.838,-8.591 -5.848,0.312 -11.086,3.522 -14.013,8.594 0,0 -222.736,385.738 -222.735,385.737 -3.066,5.313 -3.065,11.914 0.002,17.227 3.068,5.313 8.787,8.612 14.924,8.612 0,0 445.47,0 445.472,0 6.14,0 11.854,-3.3 14.927,-8.613 3.065,-5.312 3.065,-11.908 0.002,-17.225 -0.004,0 -222.741,-385.738 -222.741,-385.741 z"
     style="fill:#febe0b;fill-opacity:1;stroke:none"
     id="yellow"
     inkscape:connector-curvature="0" /><path
     d="M 508.319,402.583 285.585,16.844 C 279.213,5.808 267.352,-0.629 254.624,0.048 c -11.429,0.604 -21.668,6.885 -27.391,16.797 0,-10e-4 -222.735,385.738 -222.735,385.738 -5.998,10.39 -5.997,23.296 0.002,33.683 5.999,10.387 17.177,16.839 29.174,16.839 l 445.47,0 c 11.996,0 23.179,-6.452 29.177,-16.839 5.996,-10.388 5.998,-23.295 -0.002,-33.683 z m -14.25,25.454 c -3.068,5.313 -8.787,8.613 -14.927,8.613 -0.002,0 -445.472,0 -445.472,0 -6.138,0 -11.855,-3.3 -14.924,-8.611 -3.068,-5.312 -3.069,-11.91 -0.002,-17.228 0,0.001 222.735,-385.737 222.735,-385.737 2.927,-5.068 8.166,-8.28 14.013,-8.594 6.51,-0.347 12.581,2.946 15.838,8.592 0,0.001 222.736,385.74 222.736,385.74 3.071,5.313 3.069,11.912 0.003,17.225 z"
     style="fill:#d40000;fill-opacity:1;stroke:none"
     id="boarder"
     inkscape:connector-curvature="0" /><g
     transform="matrix(0.673979,0,0,0.673979,1120.7791,153.25207)"
     style="fill:#000000;fill-opacity:1;stroke:none"
     id="g3719"><path
       inkscape:connector-curvature="0"
       d="m 256.53125,94.8125 c -10.75765,3e-6 -19.46875,10.74234 -19.46875,21.5 1e-5,10.67362 8.57701,19.3339 19.21875,19.46875 l 0.0312,-0.0625 0.15625,0.0625 c -0.063,-2e-4 -0.12466,8e-4 -0.1875,0 L 226.25,201.625 l -38.0625,34.40625 10.375,22.625 51.09375,-53.03125 6.8125,51.78125 -33.34375,45.65625 -26.5625,73.5 -30.0625,3 -0.65625,7.59375 52.84375,12.0625 25.9375,-81.375 29.21875,-31.90625 49.34375,89.28125 -32.6875,23.15625 38.15625,0 31.875,-18.96875 -60.09375,-110.8125 2.59375,-11.96875 -7.8125,-18.25 0,-51.90625 16.96875,20.875 0,67.40625 21.90625,-11.90625 0,-62.71875 L 293.25,149.8125 256.53125,135.78125 c 10.75765,0 19.5,-8.71109 19.5,-19.46875 -10e-6,-10.75766 -8.74235,-21.499993 -19.5,-21.5 z M 90.4375,332.90625 80.875,347.9375 l 120.9375,0 6,-15.03125 -117.375,0 z m 154.1875,0 -4,15.03125 62.875,0 -8,-15.03125 -50.875,0 z m 95.4375,0 7.84375,15.03125 84.375,0 -9.125,-15.03125 -83.09375,0 z m -283.1875,70 -8,15.03125 419.71875,0 -8,-15.03125 -403.71875,0 z"
       transform="matrix(1.483726,0,0,1.483726,-1662.929,-227.3841)"
       style="fill:#000000;fill-opacity:1;fill-rule:evenodd;stroke:none"
       id="path1933" /></g></g></svg>