<?xml version="1.0" encoding="UTF-8" standalone="no"?>
<!-- Created with Inkscape (http://www.inkscape.org/) -->

<svg
   xmlns:dc="http://purl.org/dc/elements/1.1/"
   xmlns:cc="http://creativecommons.org/ns#"
   xmlns:rdf="http://www.w3.org/1999/02/22-rdf-syntax-ns#"
   xmlns:svg="http://www.w3.org/2000/svg"
   xmlns="http://www.w3.org/2000/svg"
   xmlns:sodipodi="http://sodipodi.sourceforge.net/DTD/sodipodi-0.dtd"
   xmlns:inkscape="http://www.inkscape.org/namespaces/inkscape"
   version="1.0"
   width="512.81836"
   height="453.10556"
   viewBox="0 0 512.81839 453.10555"
   id="svg1903"
   xml:space="preserve"
   inkscape:version="0.48.2 r9819"
   sodipodi:docname="Aa.svg"><metadata
   id="metadata12"><rdf:RDF><cc:Work
       rdf:about=""><dc:format>image/svg+xml</dc:format><dc:type
         rdf:resource="http://purl.org/dc/dcmitype/StillImage" /></cc:Work></rdf:RDF></metadata><sodipodi:namedview
   pagecolor="#ffffff"
   bordercolor="#666666"
   borderopacity="1"
   objecttolerance="10"
   gridtolerance="10"
   guidetolerance="10"
   inkscape:pageopacity="0"
   inkscape:pageshadow="2"
   inkscape:window-width="1280"
   inkscape:window-height="1004"
   id="namedview10"
   showgrid="false"
   fit-margin-top="0"
   fit-margin-left="0"
   fit-margin-right="0"
   fit-margin-bottom="0"
   inkscape:zoom="0.50193189"
   inkscape:cx="262.24691"
   inkscape:cy="7.8458468"
   inkscape:window-x="-8"
   inkscape:window-y="-8"
   inkscape:window-maximized="1"
   inkscape:current-layer="g3797" /><defs
   id="defs1912">
			
			
			
		</defs>
	
		
	<g
   id="g2874"
   transform="translate(-1.2492967e-4,5.7530595e-4)" /><g
   id="g2893"
   transform="translate(-1.2492967e-4,5.7530595e-4)" /><g
   id="g3797"
   transform="translate(-1.2492967e-4,5.7530595e-4)"><path
     d="m 271.333,25.071 c -3.258,-5.646 -9.328,-8.938 -15.838,-8.591 -5.848,0.312 -11.086,3.522 -14.013,8.594 0,0 -222.736,385.738 -222.735,385.737 -3.066,5.313 -3.065,11.914 0.002,17.227 3.068,5.313 8.787,8.612 14.924,8.612 0,0 445.47,0 445.472,0 6.14,0 11.854,-3.3 14.927,-8.613 3.065,-5.312 3.065,-11.908 0.002,-17.225 -0.004,0 -222.741,-385.738 -222.741,-385.741 z"
     style="fill:#febe0b;fill-opacity:1;stroke:none"
     id="yellow"
     inkscape:connector-curvature="0" /><path
     d="M 508.319,402.583 285.585,16.844 C 279.213,5.808 267.352,-0.629 254.624,0.048 c -11.429,0.604 -21.668,6.885 -27.391,16.797 0,-10e-4 -222.735,385.738 -222.735,385.738 -5.998,10.39 -5.997,23.296 0.002,33.683 5.999,10.387 17.177,16.839 29.174,16.839 l 445.47,0 c 11.996,0 23.179,-6.452 29.177,-16.839 5.996,-10.388 5.998,-23.295 -0.002,-33.683 z m -14.25,25.454 c -3.068,5.313 -8.787,8.613 -14.927,8.613 -0.002,0 -445.472,0 -445.472,0 -6.138,0 -11.855,-3.3 -14.924,-8.611 -3.068,-5.312 -3.069,-11.91 -0.002,-17.228 0,0.001 222.735,-385.737 222.735,-385.737 2.927,-5.068 8.166,-8.28 14.013,-8.594 6.51,-0.347 12.581,2.946 15.838,8.592 0,0.001 222.736,385.74 222.736,385.74 3.071,5.313 3.069,11.912 0.003,17.225 z"
     style="fill:#d40000;fill-opacity:1;stroke:none"
     id="boarder"
     inkscape:connector-curvature="0" /><g
     transform="translate(1.2822305e-4,-2.7526408e-5)"
     id="g3713"
     style="fill:#000000;stroke:none"><g
       id="g3703"
       style="fill:#000000;stroke:none"><g
         transform="matrix(0.673979,0,0,0.673979,1654.614,36.68844)"
         style="fill:#000000;fill-opacity:1;stroke:none"
         id="g3719"><path
           inkscape:connector-curvature="0"
           d="m -2078.9548,344.91079 -37.7887,22.33299 14.4864,17.93368 56.3305,-28.11337 11.1355,-19.4297 12.0241,59.91981 -52.1113,44.40322 0,89.04176 -39.5832,26.13343 67.748,0.004 0,-95.57645 34.4646,-21.1031 24.842,55.57287 75.1848,0 24.9506,37.06353 0,-69.64181 -81.9717,0 0,-144.78404 19.5608,15.38062 0,70.27963 28.6723,-16.36767 0,-69.18615 -89.0514,-75.51257 -68.8933,101.64903 z"
           style="fill:#000000;fill-opacity:1;fill-rule:evenodd;stroke:none"
           id="path1933" /></g><path
         inkscape:connector-curvature="0"
         d="m 320.39365,176.24771 a 22.402195,22.402195 0 1 1 -44.80439,0 22.402195,22.402195 0 1 1 44.80439,0 z"
         transform="translate(0,-0.499902)"
         style="fill:#000000;fill-opacity:1;fill-rule:nonzero;stroke:none"
         id="path2810" /></g><g
       id="g3708"
       style="fill:#000000;stroke:none"><g
         transform="matrix(0.50889,0,0,0.50889,1201.304,131.2017)"
         style="fill:#000000;fill-opacity:1;stroke:none"
         id="g2812"><path
           inkscape:connector-curvature="0"
           d="m -2064.8346,324.14585 -67.6903,32.30016 11.9946,21.25607 69.6201,-23.96038 14.4579,-21.0909 8.7017,62.41161 -52.1113,34.43604 0,89.04176 -38.7526,33.60881 67.748,0.004 0,-95.57645 35.2952,-16.11951 28.1644,43.9445 75.1848,0 27.4424,38.72473 0,-68.81122 -81.9717,0 0,-135.64746 17.069,15.38062 0,70.27963 31.1641,-14.70647 0,-80.81452 -91.5432,-65.5454 -54.7731,80.88409 z"
           style="fill:#000000;fill-opacity:1;fill-rule:evenodd;stroke:none"
           id="path2814" /></g><path
         inkscape:connector-curvature="0"
         d="m 320.39365,176.24771 a 22.402195,22.402195 0 1 1 -44.80439,0 22.402195,22.402195 0 1 1 44.80439,0 z"
         transform="matrix(0.868261,0,0,0.868261,-81.751,81.4793)"
         style="fill:#000000;fill-opacity:1;fill-rule:nonzero;stroke:none"
         id="path2816" /></g></g></g></svg>