<?xml version="1.0" encoding="UTF-8" standalone="no"?>
<!-- Created with Inkscape (http://www.inkscape.org/) -->

<svg
   xmlns:dc="http://purl.org/dc/elements/1.1/"
   xmlns:cc="http://creativecommons.org/ns#"
   xmlns:rdf="http://www.w3.org/1999/02/22-rdf-syntax-ns#"
   xmlns:svg="http://www.w3.org/2000/svg"
   xmlns="http://www.w3.org/2000/svg"
   xmlns:sodipodi="http://sodipodi.sourceforge.net/DTD/sodipodi-0.dtd"
   xmlns:inkscape="http://www.inkscape.org/namespaces/inkscape"
   version="1.0"
   width="512.81836"
   height="453.10556"
   viewBox="0 0 512.81839 453.10555"
   id="svg1903"
   xml:space="preserve"
   inkscape:version="0.48.2 r9819"
   sodipodi:docname="Aa.svg"><metadata
   id="metadata12"><rdf:RDF><cc:Work
       rdf:about=""><dc:format>image/svg+xml</dc:format><dc:type
         rdf:resource="http://purl.org/dc/dcmitype/StillImage" /></cc:Work></rdf:RDF></metadata><sodipodi:namedview
   pagecolor="#ffffff"
   bordercolor="#666666"
   borderopacity="1"
   objecttolerance="10"
   gridtolerance="10"
   guidetolerance="10"
   inkscape:pageopacity="0"
   inkscape:pageshadow="2"
   inkscape:window-width="1280"
   inkscape:window-height="1004"
   id="namedview10"
   showgrid="false"
   fit-margin-top="0"
   fit-margin-left="0"
   fit-margin-right="0"
   fit-margin-bottom="0"
   inkscape:zoom="0.50193189"
   inkscape:cx="262.24691"
   inkscape:cy="7.8458468"
   inkscape:window-x="-8"
   inkscape:window-y="-8"
   inkscape:window-maximized="1"
   inkscape:current-layer="g3797" /><defs
   id="defs1912">
			
			
			
		</defs>
	
		
	<g
   id="g2874"
   transform="translate(-1.2492967e-4,5.7530595e-4)" /><g
   id="g2893"
   transform="translate(-1.2492967e-4,5.7530595e-4)" /><g
   id="g3797"
   transform="translate(-1.2492967e-4,5.7530595e-4)"><path
     d="m 271.333,25.071 c -3.258,-5.646 -9.328,-8.938 -15.838,-8.591 -5.848,0.312 -11.086,3.522 -14.013,8.594 0,0 -222.736,385.738 -222.735,385.737 -3.066,5.313 -3.065,11.914 0.002,17.227 3.068,5.313 8.787,8.612 14.924,8.612 0,0 445.47,0 445.472,0 6.14,0 11.854,-3.3 14.927,-8.613 3.065,-5.312 3.065,-11.908 0.002,-17.225 -0.004,0 -222.741,-385.738 -222.741,-385.741 z"
     style="fill:#febe0b;fill-opacity:1;stroke:none"
     id="yellow"
     inkscape:connector-curvature="0" /><path
     d="M 508.319,402.583 285.585,16.844 C 279.213,5.808 267.352,-0.629 254.624,0.048 c -11.429,0.604 -21.668,6.885 -27.391,16.797 0,-10e-4 -222.735,385.738 -222.735,385.738 -5.998,10.39 -5.997,23.296 0.002,33.683 5.999,10.387 17.177,16.839 29.174,16.839 l 445.47,0 c 11.996,0 23.179,-6.452 29.177,-16.839 5.996,-10.388 5.998,-23.295 -0.002,-33.683 z m -14.25,25.454 c -3.068,5.313 -8.787,8.613 -14.927,8.613 -0.002,0 -445.472,0 -445.472,0 -6.138,0 -11.855,-3.3 -14.924,-8.611 -3.068,-5.312 -3.069,-11.91 -0.002,-17.228 0,0.001 222.735,-385.737 222.735,-385.737 2.927,-5.068 8.166,-8.28 14.013,-8.594 6.51,-0.347 12.581,2.946 15.838,8.592 0,0.001 222.736,385.74 222.736,385.74 3.071,5.313 3.069,11.912 0.003,17.225 z"
     style="fill:#d40000;fill-opacity:1;stroke:none"
     id="boarder"
     inkscape:connector-curvature="0" /><g
     transform="translate(1.2381474e-4,-2.325259e-5)"
     id="g5455"><path
       inkscape:connector-curvature="0"
       d="m 215.26954,207.00813 -61.45704,17.2731 -5.03125,0 0,173.4375 11,0 0,-154.1875 32.99304,29.26472 7.38196,6.54778 167.65625,37.78125 c 7.18669,2.28595 16.64187,-5.56417 20.86759,-19.33311 4.22572,-13.76893 1.63159,-28.25594 -5.55509,-30.54189 l -156.95911,-60.0465 c -3.63212,-0.95299 -7.26423,-1.60192 -10.89635,-0.19535 z m -13.98829,12.92935 c -7.40507,11.15186 -10.9541,24.2268 -11.15625,37.53125 l -28.75,-26.3125 39.90625,-11.21875 z"
       style="fill:#000000;fill-opacity:1;fill-rule:nonzero;stroke:none"
       id="rect1886" /><path
       inkscape:connector-curvature="0"
       d="m 220.0625,212.53123 c -6.89123,0.29242 -15.56718,11.37457 -20.3125,26.5625 -5.23621,16.75909 -3.72053,32.17957 3.40625,34.40625 7.12678,2.22669 17.17003,-9.5534 22.40625,-26.3125 5.23621,-16.75909 3.68929,-32.17956 -3.4375,-34.40625 -0.66814,-0.20875 -1.34961,-0.28025 -2.0625,-0.25 z m 37.34375,13.8125 c 1.643,18.494 -1.58835,40.31038 -15.40625,54.9375 l 23.03125,5.5 c 14.8467,-14.73092 17.09484,-32.46577 15.84375,-51.34375 l -23.46875,-9.09375 z m 48.40625,17.96875 c 1.53007,16.42474 -1.5069,35.79075 -14.375,48.78125 l 21.46875,4.875 c 13.82617,-13.08271 15.91507,-28.82799 14.75,-45.59375 l -21.84375,-8.0625 z m 43.5,16.25 c 1.41209,14.54947 -1.3742,31.74267 -13.25,43.25 l 19.8125,4.3125 c 12.76,-11.58901 14.70022,-25.55468 13.625,-40.40625 l -20.1875,-7.15625 z"
       style="fill:#ffffff;fill-opacity:1;fill-rule:nonzero;stroke:none"
       id="path2779" /></g></g></svg>