<?xml version="1.0" encoding="UTF-8" standalone="no"?>
<!-- Created with Inkscape (http://www.inkscape.org/) -->

<svg
   xmlns:dc="http://purl.org/dc/elements/1.1/"
   xmlns:cc="http://creativecommons.org/ns#"
   xmlns:rdf="http://www.w3.org/1999/02/22-rdf-syntax-ns#"
   xmlns:svg="http://www.w3.org/2000/svg"
   xmlns="http://www.w3.org/2000/svg"
   xmlns:sodipodi="http://sodipodi.sourceforge.net/DTD/sodipodi-0.dtd"
   xmlns:inkscape="http://www.inkscape.org/namespaces/inkscape"
   version="1.0"
   width="512.81836"
   height="453.10556"
   viewBox="0 0 512.81839 453.10555"
   id="svg1903"
   xml:space="preserve"
   inkscape:version="0.48.4 r9939"
   sodipodi:docname="Znak_A-22.svg"><title
     id="title3877">Znak A-22</title><metadata
     id="metadata12"><rdf:RDF><cc:Work
         rdf:about=""><dc:format>image/svg+xml</dc:format><dc:type
           rdf:resource="http://purl.org/dc/dcmitype/StillImage" /><dc:title>Znak A-22</dc:title><dc:date>2015-03-25</dc:date><dc:creator><cc:Agent><dc:title>Blackfish</dc:title></cc:Agent></dc:creator><dc:subject><rdf:Bag><rdf:li>Znak A-22</rdf:li></rdf:Bag></dc:subject></cc:Work></rdf:RDF></metadata><sodipodi:namedview
     pagecolor="#ffffff"
     bordercolor="#666666"
     borderopacity="1"
     objecttolerance="10"
     gridtolerance="10"
     guidetolerance="10"
     inkscape:pageopacity="0"
     inkscape:pageshadow="2"
     inkscape:window-width="1680"
     inkscape:window-height="997"
     id="namedview10"
     showgrid="false"
     fit-margin-top="0"
     fit-margin-left="0"
     fit-margin-right="0"
     fit-margin-bottom="0"
     inkscape:zoom="1.4185032"
     inkscape:cx="195.24561"
     inkscape:cy="233.09936"
     inkscape:window-x="-4"
     inkscape:window-y="-4"
     inkscape:window-maximized="1"
     inkscape:current-layer="svg1903" /><defs
     id="defs1912" /><g
     id="g3797"
     transform="translate(-1.2492967e-4,5.7530595e-4)"><path
       d="m 271.333,25.071 c -3.258,-5.646 -9.328,-8.938 -15.838,-8.591 -5.848,0.312 -11.086,3.522 -14.013,8.594 0,0 -222.736,385.738 -222.735,385.737 -3.066,5.313 -3.065,11.914 0.002,17.227 3.068,5.313 8.787,8.612 14.924,8.612 0,0 445.47,0 445.472,0 6.14,0 11.854,-3.3 14.927,-8.613 3.065,-5.312 3.065,-11.908 0.002,-17.225 -0.004,0 -222.741,-385.738 -222.741,-385.741 z"
       style="fill:#febe0b;fill-opacity:1;stroke:none"
       id="yellow"
       inkscape:connector-curvature="0" /><path
       d="M 508.319,402.583 285.585,16.844 C 279.213,5.808 267.352,-0.629 254.624,0.048 c -11.429,0.604 -21.668,6.885 -27.391,16.797 0,-10e-4 -222.735,385.738 -222.735,385.738 -5.998,10.39 -5.997,23.296 0.002,33.683 5.999,10.387 17.177,16.839 29.174,16.839 l 445.47,0 c 11.996,0 23.179,-6.452 29.177,-16.839 5.996,-10.388 5.998,-23.295 -0.002,-33.683 z m -14.25,25.454 c -3.068,5.313 -8.787,8.613 -14.927,8.613 -0.002,0 -445.472,0 -445.472,0 -6.138,0 -11.855,-3.3 -14.924,-8.611 -3.068,-5.312 -3.069,-11.91 -0.002,-17.228 0,0.001 222.735,-385.737 222.735,-385.737 2.927,-5.068 8.166,-8.28 14.013,-8.594 6.51,-0.347 12.581,2.946 15.838,8.592 0,0.001 222.736,385.74 222.736,385.74 3.071,5.313 3.069,11.912 0.003,17.225 z"
       style="fill:#d40000;fill-opacity:1;stroke:none"
       id="boarder"
       inkscape:connector-curvature="0" /><path
       inkscape:connector-curvature="0"
       id="path3028"
       d="m 243.53138,193.62441 -61.21875,21.84375 -5.0625,8.78125 4.0625,7.03125 5.84375,3.375 a 14.312559,14.312559 0 0 0 2.28125,17.28125 L 141.62513,224.34316 30.312625,416.99941 a 3.6971459,3.6971459 0 0 0 3.1875,5.53125 l 451.656255,0 -191.8125,-110.65625 a 14.312559,14.312559 0 0 0 16.09375,-6.6875 l 5.84375,3.375 8.125,0 12.25,-21.21875 -37.75,-21.75 0,-40.59375 -54.375,-31.375 z m -6.5,13.1875 30.6875,17.71875 -10.21875,17.71875 -30.71875,-17.6875 10.25,-17.75 z m 35.84375,20.6875 18.40625,10.625 0,23.625 -28.65625,-16.53125 10.25,-17.71875 z m -60.90625,21.46875 72.65625,41.90625 a 14.312559,14.312559 0 0 0 2.28125,17.28125 l -91.03125,-52.53125 a 14.312559,14.312559 0 0 0 16.09375,-6.65625 z"
       style="fill:#000000;fill-opacity:1;stroke:none" /></g></svg>