<?xml version="1.0" encoding="UTF-8" standalone="no"?>
<!-- Created with Inkscape (http://www.inkscape.org/) -->

<svg
   xmlns:dc="http://purl.org/dc/elements/1.1/"
   xmlns:cc="http://creativecommons.org/ns#"
   xmlns:rdf="http://www.w3.org/1999/02/22-rdf-syntax-ns#"
   xmlns:svg="http://www.w3.org/2000/svg"
   xmlns="http://www.w3.org/2000/svg"
   xmlns:sodipodi="http://sodipodi.sourceforge.net/DTD/sodipodi-0.dtd"
   xmlns:inkscape="http://www.inkscape.org/namespaces/inkscape"
   version="1.0"
   width="512.81836"
   height="453.10556"
   viewBox="0 0 512.81839 453.10555"
   id="svg1903"
   xml:space="preserve"
   inkscape:version="0.48.2 r9819"
   sodipodi:docname="Aa.svg"><metadata
   id="metadata12"><rdf:RDF><cc:Work
       rdf:about=""><dc:format>image/svg+xml</dc:format><dc:type
         rdf:resource="http://purl.org/dc/dcmitype/StillImage" /></cc:Work></rdf:RDF></metadata><sodipodi:namedview
   pagecolor="#ffffff"
   bordercolor="#666666"
   borderopacity="1"
   objecttolerance="10"
   gridtolerance="10"
   guidetolerance="10"
   inkscape:pageopacity="0"
   inkscape:pageshadow="2"
   inkscape:window-width="1280"
   inkscape:window-height="1004"
   id="namedview10"
   showgrid="false"
   fit-margin-top="0"
   fit-margin-left="0"
   fit-margin-right="0"
   fit-margin-bottom="0"
   inkscape:zoom="0.50193189"
   inkscape:cx="262.24691"
   inkscape:cy="7.8458468"
   inkscape:window-x="-8"
   inkscape:window-y="-8"
   inkscape:window-maximized="1"
   inkscape:current-layer="g3797" /><defs
   id="defs1912">
			
			
			
		</defs>
	
		
	<g
   id="g2874"
   transform="translate(-1.2492967e-4,5.7530595e-4)" /><g
   id="g2893"
   transform="translate(-1.2492967e-4,5.7530595e-4)" /><g
   id="g3797"
   transform="translate(-1.2492967e-4,5.7530595e-4)"><path
     d="m 271.333,25.071 c -3.258,-5.646 -9.328,-8.938 -15.838,-8.591 -5.848,0.312 -11.086,3.522 -14.013,8.594 0,0 -222.736,385.738 -222.735,385.737 -3.066,5.313 -3.065,11.914 0.002,17.227 3.068,5.313 8.787,8.612 14.924,8.612 0,0 445.47,0 445.472,0 6.14,0 11.854,-3.3 14.927,-8.613 3.065,-5.312 3.065,-11.908 0.002,-17.225 -0.004,0 -222.741,-385.738 -222.741,-385.741 z"
     style="fill:#febe0b;fill-opacity:1;stroke:none"
     id="yellow"
     inkscape:connector-curvature="0" /><path
     d="M 508.319,402.583 285.585,16.844 C 279.213,5.808 267.352,-0.629 254.624,0.048 c -11.429,0.604 -21.668,6.885 -27.391,16.797 0,-10e-4 -222.735,385.738 -222.735,385.738 -5.998,10.39 -5.997,23.296 0.002,33.683 5.999,10.387 17.177,16.839 29.174,16.839 l 445.47,0 c 11.996,0 23.179,-6.452 29.177,-16.839 5.996,-10.388 5.998,-23.295 -0.002,-33.683 z m -14.25,25.454 c -3.068,5.313 -8.787,8.613 -14.927,8.613 -0.002,0 -445.472,0 -445.472,0 -6.138,0 -11.855,-3.3 -14.924,-8.611 -3.068,-5.312 -3.069,-11.91 -0.002,-17.228 0,0.001 222.735,-385.737 222.735,-385.737 2.927,-5.068 8.166,-8.28 14.013,-8.594 6.51,-0.347 12.581,2.946 15.838,8.592 0,0.001 222.736,385.74 222.736,385.74 3.071,5.313 3.069,11.912 0.003,17.225 z"
     style="fill:#d40000;fill-opacity:1;stroke:none"
     id="boarder"
     inkscape:connector-curvature="0" /><g
     transform="matrix(0.465979,0,0,0.479655,210.93402,254.41137)"
     style="fill:#000000"
     id="g7305"><g
       transform="matrix(2.474893,0,0,2.474893,-2538.307,-1269.59)"
       style="fill:#000000"
       id="g6959"><g
         transform="matrix(0.861528,0,0,0.794592,343.0558,249.6858)"
         style="fill:#000000"
         id="g5756"><path
           inkscape:connector-curvature="0"
           d="m 733.14165,373.3532 c -35.18039,0.44612 -63.59643,29.14093 -63.59643,64.42654 0,35.56345 28.86309,64.42654 64.42654,64.42654 35.56345,0 64.42654,-28.86309 64.42654,-64.42654 0,-35.56345 -28.86309,-64.42654 -64.42654,-64.42654 -0.27784,0 -0.5531,-0.004 -0.83011,0 z m 0.1239,9.91178 c 0.23439,-0.003 0.47112,0 0.70621,0 30.09215,0 54.51477,24.42261 54.51477,54.51476 0,30.09215 -24.42262,54.51476 -54.51477,54.51476 -30.09215,0 -54.51476,-24.42261 -54.51476,-54.51476 0,-29.85706 24.04053,-54.13728 53.80855,-54.51476 z"
           style="fill:#000000;fill-opacity:1;fill-rule:nonzero;stroke:none"
           id="opona" /><path
           inkscape:connector-curvature="0"
           d="m 262.5,562.5 c 0,13.80712 -11.19288,25 -25,25 -13.80712,0 -25,-11.19288 -25,-25 0,-13.80712 11.19288,-25 25,-25 13.80712,0 25,11.19288 25,25 z"
           transform="matrix(0.396471,0,0,0.396471,639.8099,214.7648)"
           style="fill:#000000;fill-opacity:1;fill-rule:nonzero;stroke:none"
           id="piasta" /><path
           inkscape:connector-curvature="0"
           d="m 941.28895,373.3532 c -35.18039,0.44612 -63.59643,29.14093 -63.59643,64.42654 0,35.56345 28.86309,64.42654 64.42654,64.42654 35.56345,0 64.42654,-28.86309 64.42654,-64.42654 0,-35.56345 -28.86309,-64.42654 -64.42654,-64.42654 -0.27784,0 -0.5531,-0.004 -0.83011,0 z m 0.1239,9.91178 c 0.23439,-0.003 0.47112,0 0.70621,0 30.09215,0 54.51476,24.42261 54.51476,54.51476 0,30.09215 -24.42261,54.51476 -54.51476,54.51476 -30.09215,0 -54.51476,-24.42261 -54.51476,-54.51476 0,-29.85706 24.04053,-54.13728 53.80855,-54.51476 z"
           style="fill:#000000;fill-opacity:1;fill-rule:nonzero;stroke:none"
           id="path1324" /><path
           inkscape:connector-curvature="0"
           d="m 262.5,562.5 c 0,13.80712 -11.19288,25 -25,25 -13.80712,0 -25,-11.19288 -25,-25 0,-13.80712 11.19288,-25 25,-25 13.80712,0 25,11.19288 25,25 z"
           transform="matrix(0.396471,0,0,0.396471,847.9572,214.7648)"
           style="fill:#000000;fill-opacity:1;fill-rule:nonzero;stroke:none"
           id="path1326" /><path
           inkscape:connector-curvature="0"
           d="m 852.91304,437.77974 89.20594,0"
           style="fill:none;stroke:#000000;stroke-width:9.91177464;stroke-linecap:butt;stroke-linejoin:miter;stroke-miterlimit:4;stroke-opacity:1;stroke-dasharray:none"
           id="wzdlozlancucha" /><path
           inkscape:connector-curvature="0"
           d="M 852.91304,437.77974 757.1653,353.33358"
           style="fill:none;stroke:#000000;stroke-width:9.91177464;stroke-linecap:butt;stroke-linejoin:miter;stroke-miterlimit:4;stroke-opacity:1;stroke-dasharray:none"
           id="ukos-damka" /><path
           inkscape:connector-curvature="0"
           d="m 852.91304,437.77974 39.6471,-123.89719"
           style="fill:none;stroke:#000000;stroke-width:12.81200218;stroke-linecap:butt;stroke-linejoin:miter;stroke-miterlimit:4;stroke-opacity:1;stroke-dasharray:none"
           id="slupek-siodelko" /><path
           inkscape:connector-curvature="0"
           d="m 733.97174,437.77974 c 0,0 36.0294,-128.32522 36.67357,-129.94229 2.73105,-6.85585 3.63598,-9.17434 11.89413,-10.90295 1.20635,-0.25252 25.14467,0 25.14467,0"
           style="fill:none;stroke:#000000;stroke-width:9.91177464;stroke-linecap:butt;stroke-linejoin:miter;stroke-miterlimit:4;stroke-opacity:1;stroke-dasharray:none"
           id="kierownica" /><path
           inkscape:connector-curvature="0"
           d="m 587.5,562.5 c 0,27.61424 -22.38576,50 -50,50 -27.61424,0 -50,-22.38576 -50,-50 0,-27.61424 22.38576,-50 50,-50 27.61424,0 50,22.38576 50,50 z"
           transform="matrix(0.396471,0,0,0.396471,639.8099,214.7648)"
           style="fill:#000000;fill-opacity:1;fill-rule:nonzero;stroke:none"
           id="kolo=pedalowe" /><path
           inkscape:connector-curvature="0"
           d="m 887.60425,323.79433 24.01933,-1.27128 4.54349,-18.55227 c 0,0 -41.93771,-0.55235 -47.00383,0 -4.70178,0.51262 -2.90665,9.05571 0,9.91177 49.4917,14.57622 18.44101,9.91178 18.44101,9.91178 z"
           style="fill:#000000;fill-opacity:1;fill-rule:evenodd;stroke:none"
           id="siodelko" /><path
           inkscape:connector-curvature="0"
           d="M 945.87098,442.41731 871.10603,319.90317"
           style="fill:none;stroke:#000000;stroke-width:12.16281986;stroke-linecap:butt;stroke-linejoin:miter;stroke-miterlimit:4;stroke-opacity:1;stroke-dasharray:none"
           id="path4256" /><path
           inkscape:connector-curvature="0"
           d="m 874.37366,335.1842 -109.15338,0"
           style="fill:none;stroke:#000000;stroke-width:10.5829258;stroke-linecap:butt;stroke-linejoin:miter;stroke-miterlimit:4;stroke-opacity:1;stroke-dasharray:none"
           id="path12185" /></g><path
         inkscape:connector-curvature="0"
         d="m 1080.6483,632.40574 47.7699,-6.42291 -3.8267,-15.3384 -8.6499,-55.8357 20.0073,-70.43436 -23.0215,-53.69975 -25.2011,-45.37224 -22.7808,10.13454 -48.9854,86.19195 19.2756,-0.11315 30.9686,-44.0153 22.56,34.64285 -53.3386,42.45836 23.8358,49.53275 -12.4752,12.02681 41.298,-1.72924 -23.5143,-50.64554 32.2286,-19.82777 -9.3771,50.00282 14.8914,57.61632 -22.4029,14.27102 0.7383,6.55694 z"
         style="fill:#000000;fill-rule:evenodd;stroke:none"
         id="path4258" /><path
         inkscape:connector-curvature="0"
         d="m 1084.9847,371.08044 c 0,10.59449 -8.5984,19.19291 -19.1929,19.19291 -10.5945,0 -19.1929,-8.59842 -19.1929,-19.19291 0,-10.59447 8.5984,-19.19289 19.1929,-19.19289 10.5945,0 19.1929,8.59842 19.1929,19.19289 z"
         style="fill:#000000;fill-opacity:1;fill-rule:nonzero;stroke:none"
         id="path6956" /></g></g></g></svg>