<?xml version="1.0" encoding="UTF-8" standalone="no"?>
<!-- Created with Inkscape (http://www.inkscape.org/) -->

<svg
   xmlns:dc="http://purl.org/dc/elements/1.1/"
   xmlns:cc="http://creativecommons.org/ns#"
   xmlns:rdf="http://www.w3.org/1999/02/22-rdf-syntax-ns#"
   xmlns:svg="http://www.w3.org/2000/svg"
   xmlns="http://www.w3.org/2000/svg"
   xmlns:sodipodi="http://sodipodi.sourceforge.net/DTD/sodipodi-0.dtd"
   xmlns:inkscape="http://www.inkscape.org/namespaces/inkscape"
   version="1.0"
   width="512.81836"
   height="453.10556"
   viewBox="0 0 512.81839 453.10555"
   id="svg1903"
   xml:space="preserve"
   inkscape:version="0.48.2 r9819"
   sodipodi:docname="Aa.svg"><metadata
   id="metadata12"><rdf:RDF><cc:Work
       rdf:about=""><dc:format>image/svg+xml</dc:format><dc:type
         rdf:resource="http://purl.org/dc/dcmitype/StillImage" /></cc:Work></rdf:RDF></metadata><sodipodi:namedview
   pagecolor="#ffffff"
   bordercolor="#666666"
   borderopacity="1"
   objecttolerance="10"
   gridtolerance="10"
   guidetolerance="10"
   inkscape:pageopacity="0"
   inkscape:pageshadow="2"
   inkscape:window-width="1280"
   inkscape:window-height="1004"
   id="namedview10"
   showgrid="false"
   fit-margin-top="0"
   fit-margin-left="0"
   fit-margin-right="0"
   fit-margin-bottom="0"
   inkscape:zoom="0.50193189"
   inkscape:cx="262.24691"
   inkscape:cy="7.8458468"
   inkscape:window-x="-8"
   inkscape:window-y="-8"
   inkscape:window-maximized="1"
   inkscape:current-layer="g3797" /><defs
   id="defs1912">
			
			
			
		</defs>
	
		
	<g
   id="g2874"
   transform="translate(-1.2492967e-4,5.7530595e-4)" /><g
   id="g2893"
   transform="translate(-1.2492967e-4,5.7530595e-4)" /><g
   id="g3797"
   transform="translate(-1.2492967e-4,5.7530595e-4)"><path
     d="m 271.333,25.071 c -3.258,-5.646 -9.328,-8.938 -15.838,-8.591 -5.848,0.312 -11.086,3.522 -14.013,8.594 0,0 -222.736,385.738 -222.735,385.737 -3.066,5.313 -3.065,11.914 0.002,17.227 3.068,5.313 8.787,8.612 14.924,8.612 0,0 445.47,0 445.472,0 6.14,0 11.854,-3.3 14.927,-8.613 3.065,-5.312 3.065,-11.908 0.002,-17.225 -0.004,0 -222.741,-385.738 -222.741,-385.741 z"
     style="fill:#febe0b;fill-opacity:1;stroke:none"
     id="yellow"
     inkscape:connector-curvature="0" /><path
     d="M 508.319,402.583 285.585,16.844 C 279.213,5.808 267.352,-0.629 254.624,0.048 c -11.429,0.604 -21.668,6.885 -27.391,16.797 0,-10e-4 -222.735,385.738 -222.735,385.738 -5.998,10.39 -5.997,23.296 0.002,33.683 5.999,10.387 17.177,16.839 29.174,16.839 l 445.47,0 c 11.996,0 23.179,-6.452 29.177,-16.839 5.996,-10.388 5.998,-23.295 -0.002,-33.683 z m -14.25,25.454 c -3.068,5.313 -8.787,8.613 -14.927,8.613 -0.002,0 -445.472,0 -445.472,0 -6.138,0 -11.855,-3.3 -14.924,-8.611 -3.068,-5.312 -3.069,-11.91 -0.002,-17.228 0,0.001 222.735,-385.737 222.735,-385.737 2.927,-5.068 8.166,-8.28 14.013,-8.594 6.51,-0.347 12.581,2.946 15.838,8.592 0,0.001 222.736,385.74 222.736,385.74 3.071,5.313 3.069,11.912 0.003,17.225 z"
     style="fill:#d40000;fill-opacity:1;stroke:none"
     id="boarder"
     inkscape:connector-curvature="0" /><path
     inkscape:connector-curvature="0"
     d="m 269.18766,193.78121 -50.8125,17.0625 c -11.78649,4.01286 -21.44499,9.24235 -12.84375,20.3125 l 5.6875,3.3125 c -1.24133,2.19323 -1.96099,4.71032 -2,7.40625 -0.12415,8.57821 6.73428,15.62584 15.3125,15.75 5.71175,0.0826 10.73291,-2.94397 13.5,-7.5 l 72.09375,42.0625 c -1.03092,2.03906 -1.65223,4.34426 -1.6875,6.78125 -0.12413,8.57822 6.7343,15.62586 15.3125,15.75 5.4667,0.0791 10.32405,-2.67504 13.15625,-6.90625 l 4.3125,2.53125 c 4.77265,1.1829 7.4585,-0.41636 9.875,-2.375 l 12.75,-18.9375 -40.84375,-23.5 -0.3125,-41.25 -53.5,-30.5 z m -6.5625,12.28125 30.15625,18.09375 -11.125,16.5625 -30.15625,-18.09375 11.125,-16.5625 z m 36.71875,22.03125 17.90625,10.75 -1.125,22.5625 -27.90625,-16.75 11.125,-16.5625 z m -172.09377,27.75 -98.343765,170.37502 173.125035,0 0,-170.37502 -74.78127,0 z m 131.25002,102.21877 c -5.8739,5.74659 -18.57034,10.48955 -28.875,11.1875 -8.30521,-0.10237 -15.88739,-2.62156 -21.875,-6.75 l 0,15.28125 c 5.99298,4.12531 13.58188,4.64774 21.875,4.75 11.53684,0.1423 21.87214,-2.40017 28.53125,-9.5625 6.43186,6.92231 16.30739,9.42487 27.46875,9.5625 11.53688,0.1423 21.87214,-2.40017 28.53125,-9.5625 6.43194,6.92231 16.30739,9.42487 27.46875,9.5625 11.53688,0.1423 21.87214,-2.40017 28.53126,-9.5625 6.43194,6.92231 16.30739,9.42487 27.46875,9.5625 11.53689,0.1423 21.87215,-2.40017 28.53125,-9.5625 6.43191,6.92231 16.30739,9.42487 27.46875,9.5625 1.95893,0.0242 3.87241,-0.10794 5.75,-0.34375 l 0,-13.25 c -1.87527,0.23471 -3.79311,0.33663 -5.75,0.3125 -10.97167,-0.13525 -20.69682,-4.46652 -27.125,-11.1875 -6.0988,6.05645 -18.411,10.03088 -28.875,11.1875 -10.97163,-0.13525 -20.69682,-4.46652 -27.125,-11.1875 -6.09882,6.05645 -18.41103,10.03089 -28.87501,11.1875 -10.97163,-0.13525 -20.69683,-4.46652 -27.125,-11.1875 -6.0988,6.05645 -18.41101,10.03089 -28.875,11.1875 -10.97163,-0.13524 -20.69683,-4.46652 -27.125,-11.1875 z m 0,28 c -5.8739,5.74659 -18.57034,10.48955 -28.875,11.1875 -8.30521,-0.10237 -15.88739,-2.62156 -21.875,-6.75 l 0,15.28125 c 5.99298,4.12531 13.58188,4.64774 21.875,4.75 11.53684,0.1423 21.87214,-2.40017 28.53125,-9.5625 6.43186,6.92231 16.30739,9.42487 27.46875,9.5625 11.53688,0.1423 21.87214,-2.40017 28.53125,-9.5625 6.43194,6.92231 16.30739,9.42487 27.46875,9.5625 11.53688,0.1423 21.87214,-2.40017 28.53126,-9.5625 6.43194,6.92231 16.30739,9.42487 27.46875,9.5625 11.53689,0.1423 21.87215,-2.40017 28.53125,-9.5625 6.43191,6.92231 16.30739,9.42487 27.46875,9.5625 7.15951,0.0883 13.85706,-1.63004 19.5,-4.65625 l 0,-13.3125 c -5.6447,3.03067 -12.32787,4.77594 -19.5,4.6875 -10.97167,-0.13525 -20.69682,-4.46652 -27.125,-11.1875 -6.0988,6.05645 -18.411,10.03088 -28.875,11.1875 -10.97163,-0.13525 -20.69682,-4.46652 -27.125,-11.1875 -6.09882,6.05645 -18.41103,10.03089 -28.87501,11.1875 -10.97163,-0.13525 -20.69683,-4.46652 -27.125,-11.1875 -6.0988,6.05645 -18.41101,10.03089 -28.875,11.1875 -10.97163,-0.13524 -20.69683,-4.46652 -27.125,-11.1875 z"
     style="fill:#000000;fill-opacity:1;stroke:none"
     id="path7379" /></g></svg>