<?xml version="1.0" encoding="UTF-8" standalone="no"?>
<!-- Created with Inkscape (http://www.inkscape.org/) -->

<svg
   xmlns:dc="http://purl.org/dc/elements/1.1/"
   xmlns:cc="http://creativecommons.org/ns#"
   xmlns:rdf="http://www.w3.org/1999/02/22-rdf-syntax-ns#"
   xmlns:svg="http://www.w3.org/2000/svg"
   xmlns="http://www.w3.org/2000/svg"
   xmlns:sodipodi="http://sodipodi.sourceforge.net/DTD/sodipodi-0.dtd"
   xmlns:inkscape="http://www.inkscape.org/namespaces/inkscape"
   version="1.0"
   width="512.81836"
   height="453.10556"
   viewBox="0 0 512.81839 453.10555"
   id="svg1903"
   xml:space="preserve"
   inkscape:version="0.48.2 r9819"
   sodipodi:docname="Aa.svg"><metadata
   id="metadata12"><rdf:RDF><cc:Work
       rdf:about=""><dc:format>image/svg+xml</dc:format><dc:type
         rdf:resource="http://purl.org/dc/dcmitype/StillImage" /></cc:Work></rdf:RDF></metadata><sodipodi:namedview
   pagecolor="#ffffff"
   bordercolor="#666666"
   borderopacity="1"
   objecttolerance="10"
   gridtolerance="10"
   guidetolerance="10"
   inkscape:pageopacity="0"
   inkscape:pageshadow="2"
   inkscape:window-width="1280"
   inkscape:window-height="1004"
   id="namedview10"
   showgrid="false"
   fit-margin-top="0"
   fit-margin-left="0"
   fit-margin-right="0"
   fit-margin-bottom="0"
   inkscape:zoom="0.50193189"
   inkscape:cx="262.24691"
   inkscape:cy="7.8458468"
   inkscape:window-x="-8"
   inkscape:window-y="-8"
   inkscape:window-maximized="1"
   inkscape:current-layer="g3797" /><defs
   id="defs1912">
			
			
			
		</defs>
	
		
	<g
   id="g2874"
   transform="translate(-1.2492967e-4,5.7530595e-4)" /><g
   id="g2893"
   transform="translate(-1.2492967e-4,5.7530595e-4)" /><g
   id="g3797"
   transform="translate(-1.2492967e-4,5.7530595e-4)"><path
     d="m 271.333,25.071 c -3.258,-5.646 -9.328,-8.938 -15.838,-8.591 -5.848,0.312 -11.086,3.522 -14.013,8.594 0,0 -222.736,385.738 -222.735,385.737 -3.066,5.313 -3.065,11.914 0.002,17.227 3.068,5.313 8.787,8.612 14.924,8.612 0,0 445.47,0 445.472,0 6.14,0 11.854,-3.3 14.927,-8.613 3.065,-5.312 3.065,-11.908 0.002,-17.225 -0.004,0 -222.741,-385.738 -222.741,-385.741 z"
     style="fill:#febe0b;fill-opacity:1;stroke:none"
     id="yellow"
     inkscape:connector-curvature="0" /><path
     d="M 508.319,402.583 285.585,16.844 C 279.213,5.808 267.352,-0.629 254.624,0.048 c -11.429,0.604 -21.668,6.885 -27.391,16.797 0,-10e-4 -222.735,385.738 -222.735,385.738 -5.998,10.39 -5.997,23.296 0.002,33.683 5.999,10.387 17.177,16.839 29.174,16.839 l 445.47,0 c 11.996,0 23.179,-6.452 29.177,-16.839 5.996,-10.388 5.998,-23.295 -0.002,-33.683 z m -14.25,25.454 c -3.068,5.313 -8.787,8.613 -14.927,8.613 -0.002,0 -445.472,0 -445.472,0 -6.138,0 -11.855,-3.3 -14.924,-8.611 -3.068,-5.312 -3.069,-11.91 -0.002,-17.228 0,0.001 222.735,-385.737 222.735,-385.737 2.927,-5.068 8.166,-8.28 14.013,-8.594 6.51,-0.347 12.581,2.946 15.838,8.592 0,0.001 222.736,385.74 222.736,385.74 3.071,5.313 3.069,11.912 0.003,17.225 z"
     style="fill:#d40000;fill-opacity:1;stroke:none"
     id="boarder"
     inkscape:connector-curvature="0" /><path
     inkscape:connector-curvature="0"
     d="m 149.46889,206.74996 -12.34376,21.34376 29.12501,0 6.21875,42.65625 -59.96876,0 -41.781253,72.375 117.562503,0 0,11.93751 -124.437503,0 -16.937502,29.31251 106.718765,0 0,35.59375 37.06249,0 200.84379,-34.71875 -122.53127,4.78125 124.34377,-48.12502 -108.50002,23.03127 80.375,-65.15627 -82.78125,44.21875 73.53125,-101.59375 -165.28127,174.65627 0,-32.6875 9.5625,0 0,-101.62502 -11.96875,-12 -10.0625,-64.00001 -28.75,0 z m 21.375,86.15626 c 0.33628,-0.0122 0.65976,-0.005 1,0 10.77604,0.15598 19.4198,8.91034 19.43749,19.6875 l 0,0.3125 c -0.15756,10.88776 -9.11226,19.59507 -19.99999,19.4375 -10.8877,-0.15756 -19.59507,-9.11227 -19.4375,-20 0.15266,-10.54748 8.57548,-19.05965 19,-19.4375 z"
     style="fill:#000000;fill-opacity:1;fill-rule:nonzero;stroke:none"
     id="rect11917" /><rect
     width="28.094908"
     height="28.094908"
     x="298.18613"
     y="200.25085"
     style="fill:#000000;fill-opacity:1;fill-rule:nonzero;stroke:none"
     id="rect12828" /><rect
     width="28.094908"
     height="28.094908"
     x="364.12469"
     y="264.07599"
     style="fill:#000000;fill-opacity:1;fill-rule:nonzero;stroke:none"
     id="rect12830" /><rect
     width="28.094908"
     height="28.094908"
     x="399.20737"
     y="313.10721"
     style="fill:#000000;fill-opacity:1;fill-rule:nonzero;stroke:none"
     id="rect12832" /><rect
     width="28.094908"
     height="28.094908"
     x="414.84665"
     y="369.74677"
     style="fill:#000000;fill-opacity:1;fill-rule:nonzero;stroke:none"
     id="rect12834" /></g></svg>