<?xml version="1.0" encoding="UTF-8" standalone="no"?>
<!-- Created with Inkscape (http://www.inkscape.org/) -->

<svg
   xmlns:dc="http://purl.org/dc/elements/1.1/"
   xmlns:cc="http://creativecommons.org/ns#"
   xmlns:rdf="http://www.w3.org/1999/02/22-rdf-syntax-ns#"
   xmlns:svg="http://www.w3.org/2000/svg"
   xmlns="http://www.w3.org/2000/svg"
   xmlns:sodipodi="http://sodipodi.sourceforge.net/DTD/sodipodi-0.dtd"
   xmlns:inkscape="http://www.inkscape.org/namespaces/inkscape"
   version="1.0"
   width="512.81836"
   height="453.10556"
   viewBox="0 0 512.81839 453.10555"
   id="svg1903"
   xml:space="preserve"
   inkscape:version="0.48.2 r9819"
   sodipodi:docname="Aa.svg"><metadata
   id="metadata12"><rdf:RDF><cc:Work
       rdf:about=""><dc:format>image/svg+xml</dc:format><dc:type
         rdf:resource="http://purl.org/dc/dcmitype/StillImage" /></cc:Work></rdf:RDF></metadata><sodipodi:namedview
   pagecolor="#ffffff"
   bordercolor="#666666"
   borderopacity="1"
   objecttolerance="10"
   gridtolerance="10"
   guidetolerance="10"
   inkscape:pageopacity="0"
   inkscape:pageshadow="2"
   inkscape:window-width="1280"
   inkscape:window-height="1004"
   id="namedview10"
   showgrid="false"
   fit-margin-top="0"
   fit-margin-left="0"
   fit-margin-right="0"
   fit-margin-bottom="0"
   inkscape:zoom="0.50193189"
   inkscape:cx="262.24691"
   inkscape:cy="7.8458468"
   inkscape:window-x="-8"
   inkscape:window-y="-8"
   inkscape:window-maximized="1"
   inkscape:current-layer="g3797" /><defs
   id="defs1912">
			
			
			
		</defs>
	
		
	<g
   id="g2874"
   transform="translate(-1.2492967e-4,5.7530595e-4)" /><g
   id="g2893"
   transform="translate(-1.2492967e-4,5.7530595e-4)" /><g
   id="g3797"
   transform="translate(-1.2492967e-4,5.7530595e-4)"><path
     d="m 241.48562,25.071 c 3.258,-5.646 9.328,-8.938 15.838,-8.591 5.848,0.312 11.086,3.522 14.013,8.594 0,0 222.736,385.738 222.735,385.737 3.066,5.313 3.065,11.914 -0.002,17.227 -3.068,5.313 -8.787,8.612 -14.924,8.612 0,0 -445.469995,0 -445.471995,0 -6.14,0 -11.854,-3.3 -14.927,-8.613 -3.065,-5.312 -3.065,-11.908 -0.002,-17.225 0.004,0 222.740995,-385.738 222.740995,-385.741 z"
     style="fill:#febe0b;fill-opacity:1;stroke:none"
     id="yellow"
     inkscape:connector-curvature="0" /><path
     d="M 4.4996249,402.583 227.23362,16.844 c 6.372,-11.036 18.233,-17.473 30.961,-16.796 11.429,0.604 21.668,6.885 27.391,16.797 0,-10e-4 222.735,385.738 222.735,385.738 5.998,10.39 5.997,23.296 -0.002,33.683 -5.999,10.387 -17.177,16.839 -29.174,16.839 l -445.469995,0 c -11.996,0 -23.179,-6.452 -29.1770001,-16.839 -5.996,-10.388 -5.998,-23.295 0.002,-33.683 z m 14.2500001,25.454 c 3.068,5.313 8.787,8.613 14.927,8.613 0.002,0 445.471995,0 445.471995,0 6.138,0 11.855,-3.3 14.924,-8.611 3.068,-5.312 3.069,-11.91 0.002,-17.228 0,0.001 -222.735,-385.737 -222.735,-385.737 -2.927,-5.068 -8.166,-8.28 -14.013,-8.594 -6.51,-0.347 -12.581,2.946 -15.838,8.592 0,0.001 -222.735995,385.74 -222.735995,385.74 -3.071,5.313 -3.069,11.912 -0.003,17.225 z"
     style="fill:#d40000;fill-opacity:1;stroke:none"
     id="boarder"
     inkscape:connector-curvature="0" /><path
     inkscape:connector-curvature="0"
     d="m 357.75215,257.8259 -5.30654,-57.18558 -162.58389,-20.76282 -20.13705,53.23089 -10.43725,7.9655 -11.12302,82.81334 9.20138,1.23587 -3.70763,27.60415 27.60511,3.70776 3.70763,-27.60415 132.81725,17.30201 -3.70763,27.60413 27.60512,3.70776 3.70763,-27.60413 9.20137,1.23589 11.12302,-82.81336 -7.9655,-10.43726 z m -15.48692,-3.17885 -156.58388,-20.76282 12.3044,-37.81682 141.86109,18.78534 2.41839,39.7943 z"
     style="fill:#000000;fill-opacity:1;stroke:none"
     id="car" /><rect
     width="141.37115"
     height="21.519501"
     x="100.60686"
     y="355.767"
     style="fill:#000000;fill-opacity:1;fill-rule:nonzero;stroke:none"
     id="rect5632" /><rect
     width="37.061356"
     height="21.519501"
     x="241.97807"
     y="377.2865"
     style="fill:#000000;fill-opacity:1;fill-rule:nonzero;stroke:none"
     id="rect5634" /><rect
     width="37.061356"
     height="21.519501"
     x="291.97806"
     y="377.2865"
     style="fill:#000000;fill-opacity:1;fill-rule:nonzero;stroke:none"
     id="rect5636" /><rect
     width="37.061356"
     height="21.519501"
     x="341.97806"
     y="377.2865"
     style="fill:#000000;fill-opacity:1;fill-rule:nonzero;stroke:none"
     id="rect5638" /><rect
     width="37.061356"
     height="21.519501"
     x="389.97806"
     y="377.2865"
     style="fill:#000000;fill-opacity:1;fill-rule:nonzero;stroke:none"
     id="rect5640" /></g></svg>