<?xml version="1.0" encoding="UTF-8" standalone="no"?>
<!-- Created with Inkscape (http://www.inkscape.org/) -->

<svg
   xmlns:dc="http://purl.org/dc/elements/1.1/"
   xmlns:cc="http://creativecommons.org/ns#"
   xmlns:rdf="http://www.w3.org/1999/02/22-rdf-syntax-ns#"
   xmlns:svg="http://www.w3.org/2000/svg"
   xmlns="http://www.w3.org/2000/svg"
   xmlns:sodipodi="http://sodipodi.sourceforge.net/DTD/sodipodi-0.dtd"
   xmlns:inkscape="http://www.inkscape.org/namespaces/inkscape"
   version="1.0"
   width="512.81836"
   height="453.10556"
   viewBox="0 0 512.81839 453.10555"
   id="svg1903"
   xml:space="preserve"
   inkscape:version="0.48.2 r9819"
   sodipodi:docname="Aa.svg"><metadata
   id="metadata12"><rdf:RDF><cc:Work
       rdf:about=""><dc:format>image/svg+xml</dc:format><dc:type
         rdf:resource="http://purl.org/dc/dcmitype/StillImage" /></cc:Work></rdf:RDF></metadata><sodipodi:namedview
   pagecolor="#ffffff"
   bordercolor="#666666"
   borderopacity="1"
   objecttolerance="10"
   gridtolerance="10"
   guidetolerance="10"
   inkscape:pageopacity="0"
   inkscape:pageshadow="2"
   inkscape:window-width="1280"
   inkscape:window-height="1004"
   id="namedview10"
   showgrid="false"
   fit-margin-top="0"
   fit-margin-left="0"
   fit-margin-right="0"
   fit-margin-bottom="0"
   inkscape:zoom="2.0077276"
   inkscape:cx="127.32726"
   inkscape:cy="114.60653"
   inkscape:window-x="-8"
   inkscape:window-y="-8"
   inkscape:window-maximized="1"
   inkscape:current-layer="g3797" /><defs
   id="defs1912">
			
			
			
		</defs>
	
		
	<g
   id="g2874"
   transform="translate(-1.2492967e-4,5.7530595e-4)" /><g
   id="g2893"
   transform="translate(-1.2492967e-4,5.7530595e-4)" /><g
   id="g3797"
   transform="translate(-1.2492967e-4,5.7530595e-4)"><path
     d="m 271.333,25.071 c -3.258,-5.646 -9.328,-8.938 -15.838,-8.591 -5.848,0.312 -11.086,3.522 -14.013,8.594 0,0 -222.736,385.738 -222.735,385.737 -3.066,5.313 -3.065,11.914 0.002,17.227 3.068,5.313 8.787,8.612 14.924,8.612 0,0 445.47,0 445.472,0 6.14,0 11.854,-3.3 14.927,-8.613 3.065,-5.312 3.065,-11.908 0.002,-17.225 -0.004,0 -222.741,-385.738 -222.741,-385.741 z"
     style="fill:#febe0b;fill-opacity:1;stroke:none"
     id="yellow"
     inkscape:connector-curvature="0" /><path
     d="M 508.319,402.583 285.585,16.844 C 279.213,5.808 267.352,-0.629 254.624,0.048 c -11.429,0.604 -21.668,6.885 -27.391,16.797 0,-10e-4 -222.735,385.738 -222.735,385.738 -5.998,10.39 -5.997,23.296 0.002,33.683 5.999,10.387 17.177,16.839 29.174,16.839 l 445.47,0 c 11.996,0 23.179,-6.452 29.177,-16.839 5.996,-10.388 5.998,-23.295 -0.002,-33.683 z m -14.25,25.454 c -3.068,5.313 -8.787,8.613 -14.927,8.613 -0.002,0 -445.472,0 -445.472,0 -6.138,0 -11.855,-3.3 -14.924,-8.611 -3.068,-5.312 -3.069,-11.91 -0.002,-17.228 0,0.001 222.735,-385.737 222.735,-385.737 2.927,-5.068 8.166,-8.28 14.013,-8.594 6.51,-0.347 12.581,2.946 15.838,8.592 0,0.001 222.736,385.74 222.736,385.74 3.071,5.313 3.069,11.912 0.003,17.225 z"
     style="fill:#d40000;fill-opacity:1;stroke:none"
     id="boarder"
     inkscape:connector-curvature="0" /><g
     id="g4890"
     transform="matrix(0.36666055,0,0,0.36666055,305.30002,203.52549)"><path
       inkscape:connector-curvature="0"
       id="path1307"
       d="m -118.125,19.25 -26.65625,100 -16.6875,16.6875 0,150 16.6875,0 0,50 50,0 0,-50 233.34375,0 0,50 50,0 0,-50 16.65625,0 0,-150 -16.65625,-16.6875 -26.6875,-100 -280,0 z"
       style="fill:#febe0b;fill-opacity:1;fill-rule:evenodd;stroke:#febe0b;stroke-width:8.50000000000000000;stroke-linecap:butt;stroke-linejoin:miter;stroke-miterlimit:4;stroke-opacity:1;stroke-dasharray:none" /><path
       inkscape:connector-curvature="0"
       id="path2265"
       d="m 205.21001,135.9267 -16.66683,-16.66682 -26.66692,-100.000902 -280.00254,0 -26.66691,100.000902 -16.66682,16.66682 0,150.00136 16.66682,0 0,50.00046 50.000448,0 0,-50.00046 233.335472,0 0,50.00046 50.00045,0 0,-50.00046 16.66683,0 0,-150.00136 z m -43.33375,-33.33364 -280.00254,0 13.33345,-66.667262 253.33565,0 13.33344,66.667262 z"
       style="fill:#000000;fill-opacity:1;fill-rule:evenodd;stroke:none" /></g><path
     inkscape:connector-curvature="0"
     id="path4896"
     d="m 191.49142,240.64101 -10.65518,39.97257 -6.67044,6.67042 0,59.95886 6.67044,0 0,19.9863 19.9863,0 0,-19.9863 93.2735,0 0,19.9863 19.9863,0 0,-19.9863 6.65793,0 0,-59.95886 -6.65793,-6.67042 -10.66769,-39.97257 -111.92323,0 z"
     style="fill:#febe0b;fill-opacity:1;fill-rule:evenodd;stroke:#febe0b;stroke-width:4.99707460000000040;stroke-linecap:butt;stroke-linejoin:miter;stroke-miterlimit:4;stroke-opacity:1;stroke-dasharray:none" /><path
     inkscape:connector-curvature="0"
     id="path4898"
     d="m 320.73676,287.27969 -6.66214,-6.66216 -10.65946,-39.97293 -111.92426,0 -10.65943,39.97293 -6.66216,6.66216 0,59.9594 6.66216,0 0,19.98649 19.98647,0 0,-19.98649 93.27019,0 0,19.98649 19.98649,0 0,-19.98649 6.66214,0 0,-59.9594 z m -17.3216,-13.32432 -111.92426,0 5.32975,-26.64862 101.26478,0 5.32973,26.64862 z"
     style="fill:#000000;fill-opacity:1;fill-rule:evenodd;stroke:none" /><path
     inkscape:connector-curvature="0"
     id="path5781"
     d="m 115.50927,265.22386 -11.9832,44.95457 -7.501791,7.50179 0,67.43185 7.501791,0 0,22.47729 22.47729,0 0,-22.47729 104.89867,0 0,22.47729 22.47728,0 0,-22.47729 7.48775,0 0,-67.43185 -7.48775,-7.50179 -11.99725,-44.95457 -125.87279,0 z"
     style="fill:#febe0b;fill-opacity:1;fill-rule:evenodd;stroke:#febe0b;stroke-width:4.98229646999999960;stroke-linecap:butt;stroke-linejoin:miter;stroke-miterlimit:4;stroke-opacity:1;stroke-dasharray:none" /><path
     inkscape:connector-curvature="0"
     id="path5783"
     d="m 260.86312,317.67537 -7.4925,-7.4925 -11.98799,-44.95497 -125.87393,0 -11.988,44.95497 -7.492492,7.4925 0,67.43246 7.492492,0 0,22.47749 22.47749,0 0,-22.47749 104.89495,0 0,22.47749 22.47748,0 0,-22.47749 7.4925,0 0,-67.43246 z m -19.48049,-14.98499 -125.87393,0 5.994,-29.96998 113.88594,0 5.99399,29.96998 z"
     style="fill:#000000;fill-opacity:1;fill-rule:evenodd;stroke:none" /></g></svg>