<?xml version="1.0" encoding="UTF-8" standalone="no"?>
<svg
   xmlns:dc="http://purl.org/dc/elements/1.1/"
   xmlns:cc="http://creativecommons.org/ns#"
   xmlns:rdf="http://www.w3.org/1999/02/22-rdf-syntax-ns#"
   xmlns:svg="http://www.w3.org/2000/svg"
   xmlns="http://www.w3.org/2000/svg"
   viewBox="0 0 601.01166 600.99805"
   height="600.99805"
   width="601.01166"
   xml:space="preserve"
   version="1.1"
   id="svg3490"><metadata
     id="metadata3496"><rdf:RDF><cc:Work
         rdf:about=""><dc:format>image/svg+xml</dc:format><dc:type
           rdf:resource="http://purl.org/dc/dcmitype/StillImage" /><dc:title></dc:title></cc:Work></rdf:RDF></metadata><defs
     id="defs3494" /><g
     transform="matrix(1.25,0,0,-1.25,0,600.99804)"
     id="g3498"><g
       id="g3500"><path
         id="path3502"
         style="fill:#ffffff;fill-opacity:1;fill-rule:nonzero;stroke:none"
         d="m 448.402,480.4 -415.992,0 C 14.727,480.4 0.406,466.08 0.406,448.408 l 0,-416.012 C 0.406,14.724 14.727,0.388 32.41,0.388 l 415.992,0 c 17.672,0 32.004,14.336 32.004,32.008 l 0,416.012 c 0,17.672 -14.332,31.992 -32.004,31.992" /><path
         id="path3504"
         style="fill:#000000;fill-opacity:1;fill-rule:nonzero;stroke:none"
         d="M 32.41,480.798 C 14.512,480.798 0,466.298 0,448.408 L 0,32.388 C 0,14.502 14.512,0.002 32.41,0.002 l 415.988,0 c 17.887,0 32.411,14.496 32.411,32.386 l 0,416.02 c 0,17.89 -14.524,32.39 -32.411,32.39 l -415.988,0 z m 0,-0.398 415.992,0 c 17.672,0 32.004,-14.32 32.004,-31.992 l 0,-416.012 c 0,-17.672 -14.332,-32.008 -32.004,-32.008 l -415.992,0 C 14.727,0.388 0.406,14.724 0.406,32.396 l 0,416.012 c 0,17.672 14.321,31.992 32.004,31.992 z" /><path
         id="path3506"
         style="fill:#231f20;fill-opacity:1;fill-rule:nonzero;stroke:none"
         d="m 32.41,472.408 c -13.254,0 -24.008,-10.754 -24.008,-24 l 0,-416.012 c 0,-13.258 10.754,-24 24.008,-24 l 416.004,0 c 13.246,0 24,10.742 24,24 l 0,416.012 c 0,13.246 -10.754,24 -24,24 l -416.004,0 z m 0,-12 416.004,0 c 6.617,0 11.988,-5.371 11.988,-12 l 0,-416.012 c 0,-6.629 -5.371,-12 -11.988,-12 l -416.004,0 c -6.629,0 -12.012,5.371 -12.012,12 l 0,416.012 c 0,6.629 5.383,12 12.012,12 z" /><path
         id="path3508"
         style="fill:#231f20;fill-opacity:1;fill-rule:nonzero;stroke:none"
         d="m 200.402,60.396 0,100.004 c 0,22.09 -17.902,40 -40,40 l -99.992,0 0,80 99.992,0 c 66.282,0 120.012,-53.727 120.012,-120 l 0,-100.004" /><path
         id="path3510"
         style="fill:#231f20;fill-opacity:1;fill-rule:nonzero;stroke:none"
         d="m 300.406,260.396 119.996,0 0,-40 -119.996,0 0,40 z" /></g></g></svg>