<?xml version="1.0" encoding="UTF-8" standalone="no"?>
<svg
   xmlns:dc="http://purl.org/dc/elements/1.1/"
   xmlns:cc="http://creativecommons.org/ns#"
   xmlns:rdf="http://www.w3.org/1999/02/22-rdf-syntax-ns#"
   xmlns:svg="http://www.w3.org/2000/svg"
   xmlns="http://www.w3.org/2000/svg"
   viewBox="0 0 601.01166 600.99805"
   height="600.99805"
   width="601.01166"
   xml:space="preserve"
   version="1.1"
   id="svg3615"><metadata
     id="metadata3621"><rdf:RDF><cc:Work
         rdf:about=""><dc:format>image/svg+xml</dc:format><dc:type
           rdf:resource="http://purl.org/dc/dcmitype/StillImage" /><dc:title></dc:title></cc:Work></rdf:RDF></metadata><defs
     id="defs3619" /><g
     transform="matrix(1.25,0,0,-1.25,0,600.99804)"
     id="g3623"><g
       id="g3625"><path
         id="path3627"
         style="fill:#ffffff;fill-opacity:1;fill-rule:nonzero;stroke:none"
         d="m 32.406,480.4 415.992,0 c 17.684,0 32.004,-14.32 32.004,-31.992 l 0,-416.012 c 0,-17.672 -14.32,-32.008 -32.004,-32.008 l -415.992,0 C 14.734,0.388 0.402,14.724 0.402,32.396 l 0,416.012 c 0,17.672 14.332,31.992 32.004,31.992" /><path
         id="path3629"
         style="fill:#000000;fill-opacity:1;fill-rule:nonzero;stroke:none"
         d="m 448.398,480.798 c 17.899,0 32.411,-14.5 32.411,-32.39 l 0,-416.02 c 0,-17.886 -14.512,-32.386 -32.411,-32.386 l -415.988,0 C 14.523,0.002 0,14.498 0,32.388 l 0,416.02 c 0,17.89 14.523,32.39 32.41,32.39 l 415.988,0 z m 0,-0.398 -415.992,0 C 14.734,480.4 0.402,466.08 0.402,448.408 l 0,-416.012 C 0.402,14.724 14.734,0.388 32.406,0.388 l 415.992,0 c 17.684,0 32.004,14.336 32.004,32.008 l 0,416.012 c 0,17.672 -14.32,31.992 -32.004,31.992 z" /><path
         id="path3631"
         style="fill:#231f20;fill-opacity:1;fill-rule:nonzero;stroke:none"
         d="m 448.398,472.408 c 13.254,0 24.008,-10.754 24.008,-24 l 0,-416.012 c 0,-13.258 -10.754,-24 -24.008,-24 l -416.003,0 c -13.247,0 -24,10.742 -24,24 l 0,416.012 c 0,13.246 10.753,24 24,24 l 416.003,0 z m 0,-12 -416.003,0 c -6.618,0 -11.989,-5.371 -11.989,-12 l 0,-416.012 c 0,-6.629 5.371,-12 11.989,-12 l 416.003,0 c 6.629,0 12.012,5.371 12.012,12 l 0,416.012 c 0,6.629 -5.383,12 -12.012,12 z" /><path
         id="path3633"
         style="fill:#231f20;fill-opacity:1;fill-rule:nonzero;stroke:none"
         d="m 280.406,60.396 0,100.004 c 0,22.09 17.903,40 40,40 l 99.992,0 0,80 -99.992,0 c -66.281,0 -120.011,-53.727 -120.011,-120 l 0,-100.004" /><path
         id="path3635"
         style="fill:#231f20;fill-opacity:1;fill-rule:nonzero;stroke:none"
         d="m 220.402,420.396 40,0 0,-120 -40,0 0,120 z" /></g></g></svg>