<?xml version="1.0" encoding="UTF-8" standalone="no"?>
<svg
   xmlns:dc="http://purl.org/dc/elements/1.1/"
   xmlns:cc="http://creativecommons.org/ns#"
   xmlns:rdf="http://www.w3.org/1999/02/22-rdf-syntax-ns#"
   xmlns:svg="http://www.w3.org/2000/svg"
   xmlns="http://www.w3.org/2000/svg"
   viewBox="0 0 601.01166 600.99805"
   height="600.99805"
   width="601.01166"
   xml:space="preserve"
   version="1.1"
   id="svg36465"><metadata
     id="metadata36471"><rdf:RDF><cc:Work
         rdf:about=""><dc:format>image/svg+xml</dc:format><dc:type
           rdf:resource="http://purl.org/dc/dcmitype/StillImage" /><dc:title></dc:title></cc:Work></rdf:RDF></metadata><defs
     id="defs36469" /><g
     transform="matrix(1.25,0,0,-1.25,0,600.99804)"
     id="g36473"><g
       id="g36475"><path
         id="path36477"
         style="fill:#ffffff;fill-opacity:1;fill-rule:nonzero;stroke:none"
         d="m 0.402,448.396 0,-415.992 C 0.402,14.724 14.723,0.4 32.395,0.4 l 416.015,0 c 17.672,0 32.004,14.324 32.004,32.004 l 0,415.992 c 0,17.672 -14.332,32.004 -32.004,32.004 l -416.015,0 C 14.723,480.4 0.402,466.068 0.402,448.396" /><path
         id="path36479"
         style="fill:#000000;fill-opacity:1;fill-rule:nonzero;stroke:none"
         d="m 0.004,32.404 c 0,-17.899 14.504,-32.41 32.391,-32.41 l 416.023,0 c 17.887,0 32.387,14.511 32.387,32.41 l 0,415.988 c 0,17.887 -14.5,32.41 -32.387,32.41 l -416.023,0 c -17.887,0 -32.391,-14.523 -32.391,-32.41 l 0,-415.988 z m 0.398,0 0,415.992 c 0,17.672 14.321,32.008 31.993,32.008 l 416.015,0 c 17.672,0 32.004,-14.336 32.004,-32.008 l 0,-415.992 c 0,-17.684 -14.332,-32 -32.004,-32 l -416.015,0 c -17.672,0 -31.993,14.316 -31.993,32 z" /><path
         id="path36481"
         style="fill:#231f20;fill-opacity:1;fill-rule:nonzero;stroke:none"
         d="M 8.398,32.404 C 8.398,19.15 19.148,8.396 32.395,8.396 l 416.015,0 c 13.254,0 23.996,10.754 23.996,24.008 l 0,416.008 c 0,13.242 -10.742,23.996 -23.996,23.996 l -416.015,0 c -13.247,0 -23.997,-10.754 -23.997,-23.996 l 0,-416.008 z m 11.997,0 0,416.008 c 0,6.613 5.371,11.984 12,11.984 l 416.015,0 c 6.629,0 12,-5.371 12,-11.984 l 0,-416.008 c 0,-6.625 -5.371,-12.008 -12,-12.008 l -416.015,0 c -6.629,0 -12,5.383 -12,12.008 z" /><path
         id="path36483"
         style="fill:#231f20;fill-opacity:1;fill-rule:nonzero;stroke:none"
         d="m 420.406,200.396 -100.004,0 c -22.086,0 -40,-17.902 -40,-40 l 0,-99.988 -80,0 0,99.988 c 0,66.285 53.727,120.012 120,120.012 l 100.004,0" /><path
         id="path36485"
         style="fill:#231f20;fill-opacity:1;fill-rule:nonzero;stroke:none"
         d="m 220.406,420.396 40,0 0,-119.996 -40,0 0,119.996 z" /><path
         id="path36487"
         style="fill:#231f20;fill-opacity:1;fill-rule:nonzero;stroke:none"
         d="m 60.406,260.4 120,0 0,-39.996 -120,0 0,39.996 z" /></g></g></svg>