<?xml version="1.0" encoding="UTF-8" standalone="no"?>
<svg
   xmlns:dc="http://purl.org/dc/elements/1.1/"
   xmlns:cc="http://creativecommons.org/ns#"
   xmlns:rdf="http://www.w3.org/1999/02/22-rdf-syntax-ns#"
   xmlns:svg="http://www.w3.org/2000/svg"
   xmlns="http://www.w3.org/2000/svg"
   viewBox="0 0 601.01166 600.99805"
   height="600.99805"
   width="601.01166"
   xml:space="preserve"
   version="1.1"
   id="svg35844"><metadata
     id="metadata35850"><rdf:RDF><cc:Work
         rdf:about=""><dc:format>image/svg+xml</dc:format><dc:type
           rdf:resource="http://purl.org/dc/dcmitype/StillImage" /><dc:title></dc:title></cc:Work></rdf:RDF></metadata><defs
     id="defs35848" /><g
     transform="matrix(1.25,0,0,-1.25,0,600.99804)"
     id="g35852"><g
       id="g35854"><path
         id="path35856"
         style="fill:#ffffff;fill-opacity:1;fill-rule:nonzero;stroke:none"
         d="m 32.406,0.396 415.992,0 c 17.684,0 32.004,14.32 32.004,31.992 l 0,416.016 c 0,17.672 -14.32,32.004 -32.004,32.004 l -415.992,0 c -17.672,0 -32.004,-14.332 -32.004,-32.004 l 0,-416.016 C 0.402,14.716 14.734,0.396 32.406,0.396" /><path
         id="path35858"
         style="fill:#000000;fill-opacity:1;fill-rule:nonzero;stroke:none"
         d="m 448.398,0.002 c 17.899,0 32.411,14.5 32.411,32.386 l 0,416.024 c 0,17.886 -14.512,32.386 -32.411,32.386 l -415.988,0 C 14.523,480.798 0,466.298 0,448.412 L 0,32.388 C 0,14.502 14.523,0.002 32.41,0.002 l 415.988,0 z m 0,0.394 -415.992,0 c -17.672,0 -32.004,14.32 -32.004,31.992 l 0,416.016 c 0,17.672 14.332,32.004 32.004,32.004 l 415.992,0 c 17.684,0 32.004,-14.332 32.004,-32.004 l 0,-416.016 c 0,-17.672 -14.32,-31.992 -32.004,-31.992 z" /><path
         id="path35860"
         style="fill:#231f20;fill-opacity:1;fill-rule:nonzero;stroke:none"
         d="m 448.398,8.392 c 13.258,0 24.008,10.754 24.008,23.996 l 0,416.016 c 0,13.258 -10.75,23.996 -24.008,23.996 l -416.003,0 C 19.148,472.4 8.398,461.662 8.398,448.404 l 0,-416.016 c 0,-13.242 10.75,-23.996 23.997,-23.996 l 416.003,0 z m 0,12 -416.003,0 c -6.618,0 -11.989,5.367 -11.989,11.996 l 0,416.016 c 0,6.629 5.371,12 11.989,12 l 416.003,0 c 6.629,0 12.012,-5.371 12.012,-12 l 0,-416.016 c 0,-6.629 -5.383,-11.996 -12.012,-11.996 z" /><path
         id="path35862"
         style="fill:#231f20;fill-opacity:1;fill-rule:nonzero;stroke:none"
         d="m 280.406,420.404 0,-100.008 c 0,-22.086 17.903,-40 40,-40 l 99.992,0 0,-80 -99.992,0 c -66.281,0 -120.008,53.731 -120.008,120 l 0,100.008" /><path
         id="path35864"
         style="fill:#231f20;fill-opacity:1;fill-rule:nonzero;stroke:none"
         d="m 60.406,260.404 119.996,0 0,-40 -119.996,0 0,40 z" /><path
         id="path35866"
         style="fill:#231f20;fill-opacity:1;fill-rule:nonzero;stroke:none"
         d="m 220.402,180.404 40,0 0,-120 -40,0 0,120 z" /></g></g></svg>