<?xml version="1.0" encoding="UTF-8" standalone="no"?>
<svg
   xmlns:dc="http://purl.org/dc/elements/1.1/"
   xmlns:cc="http://creativecommons.org/ns#"
   xmlns:rdf="http://www.w3.org/1999/02/22-rdf-syntax-ns#"
   xmlns:svg="http://www.w3.org/2000/svg"
   xmlns="http://www.w3.org/2000/svg"
   viewBox="0 0 953.08307 1402.0106"
   height="1402.0106"
   width="953.08307"
   xml:space="preserve"
   id="svg5885"
   version="1.1"><metadata
     id="metadata5891"><rdf:RDF><cc:Work
         rdf:about=""><dc:format>image/svg+xml</dc:format><dc:type
           rdf:resource="http://purl.org/dc/dcmitype/StillImage" /><dc:title></dc:title></cc:Work></rdf:RDF></metadata><defs
     id="defs5889" /><g
     transform="matrix(1.3333333,0,0,-1.3333333,0,1402.0106)"
     id="g5893"><g
       id="g5895"><path
         id="path5897"
         style="fill:#656565;fill-opacity:1;fill-rule:nonzero;stroke:none"
         d="m 668.988,938.18 -0.613,-1.063 3.199,-1.843 0.61,1.062 c -1.114,0.641 -2.246,1.297 -3.196,1.844 z m 4.262,-2.461 -0.613,-1.063 3.199,-1.843 0.609,1.062 z m 4.262,-2.461 -0.614,-1.066 3.2,-1.844 0.613,1.066 z m 4.265,-2.465 -0.613,-1.062 3.195,-1.844 0.618,1.062 z m 4.262,-2.457 -0.613,-1.066 3.195,-1.844 0.613,1.066 c -1.062,0.61 -2.136,1.231 -3.195,1.844 z m 4.266,-2.465 -0.617,-1.062 3.199,-1.844 0.609,1.066 c -1.062,0.61 -2.129,1.231 -3.191,1.84 z m 4.258,-2.461 -0.61,-1.062 3.195,-1.844 0.614,1.063 c -1.11,0.644 -2.246,1.296 -3.199,1.843 z m 4.261,-2.461 -0.609,-1.062 3.195,-1.844 0.613,1.063 z m 4.27,-2.461 -0.617,-1.062 3.199,-1.844 0.613,1.063 c -1.066,0.613 -2.133,1.234 -3.195,1.843 z m 4.258,-2.464 -0.614,-1.059 3.2,-1.844 0.613,1.063 c -1.067,0.613 -2.145,1.226 -3.199,1.84 z m 4.265,-2.457 -0.617,-1.063 3.199,-1.844 0.614,1.063 c -1.114,0.644 -2.243,1.304 -3.196,1.844 z" /><path
         id="path5899"
         style="fill:#000000;fill-opacity:1;fill-rule:evenodd;stroke:none"
         d="m 274.207,812.555 -116.918,-67.5 122.16,-211.574 -122.082,-211.45 116.914,-67.5 83.114,143.95 82.503,-142.907 116.915,67.5 -121.481,210.407 121.555,210.531 -116.914,67.5 -82.578,-143.031 z" /><path
         id="path5901"
         style="fill:#ffffff;fill-opacity:1;fill-rule:evenodd;stroke:none"
         d="M 271,816.098 155.957,749.68 280.746,533.539 153.734,313.551 268.773,247.137 357.441,400.707 445.512,248.16 560.551,314.578 434.133,533.543 559.859,751.309 444.82,817.723 357.441,666.383 271,816.102 Z" /><path
         id="path5903"
         style="fill:#c1121c;fill-opacity:1;fill-rule:evenodd;stroke:none"
         d="m 552,61.406 116.918,67.5 -112.5,194.856 -116.766,-67.758 z" /><path
         id="path5905"
         style="fill:#c1121c;fill-opacity:1;fill-rule:evenodd;stroke:none"
         d="m 275.242,256.188 -116.918,67.5 -112.5,-194.856 116.918,-67.5 z" /><path
         id="path5907"
         style="fill:#c1121c;fill-opacity:1;fill-rule:evenodd;stroke:none"
         d="m 158.246,743.399 116.922,67.5 -112.504,194.859 -116.766,-67.762 z" /><path
         id="path5909"
         style="fill:#c1121c;fill-opacity:1;fill-rule:evenodd;stroke:none"
         d="m 668.992,938.18 -116.914,67.5 -112.504,-194.852 116.918,-67.5 c 39.129,67.785 79.008,136.84 112.5,194.852 z" /><path
         id="path5911"
         style="fill:#656565;fill-opacity:1;fill-rule:nonzero;stroke:none"
         d="m 640.441,981.399 -0.636,-1.102 14.39,-8.348 -3.871,-4.359 22.387,-5.676 -16.012,16.649 -1.867,-5.52 -14.387,8.356 z" /><path
         id="path5913"
         style="fill:#656565;fill-opacity:1;fill-rule:nonzero;stroke:none"
         d="m 571.043,1020.992 16.016,-16.644 1.871,5.519 13.508,-7.843 0.632,1.101 -13.504,7.84 3.868,4.355 z" /><path
         id="path5915"
         style="fill:#656565;fill-opacity:1;fill-rule:nonzero;stroke:none"
         d="m 620.141,992.426 c -0.153,0.156 -0.317,0.289 -0.496,0.391 -0.399,0.226 -0.848,0.367 -1.356,0.417 -0.508,0.055 -1.012,0.016 -1.508,-0.101 -0.5,-0.109 -0.965,-0.301 -1.402,-0.566 -0.418,-0.27 -0.754,-0.61 -0.992,-1.024 -0.278,-0.473 -0.348,-0.93 -0.211,-1.367 0.144,-0.434 0.449,-0.789 0.933,-1.07 0.371,-0.211 0.805,-0.348 1.305,-0.403 0.504,-0.058 1.008,-0.031 1.508,0.078 0.5,0.106 0.973,0.289 1.41,0.547 0.441,0.27 0.785,0.617 1.035,1.047 0.215,0.371 0.301,0.738 0.258,1.098 -0.031,0.363 -0.195,0.679 -0.484,0.953 z m 2.547,-0.121 c 0.125,-0.555 0.152,-1.074 0.089,-1.567 -0.066,-0.484 -0.238,-0.972 -0.519,-1.461 -0.262,-0.449 -0.586,-0.847 -0.973,-1.195 -0.39,-0.344 -0.816,-0.637 -1.281,-0.875 -0.465,-0.238 -0.957,-0.418 -1.473,-0.539 -0.519,-0.121 -1.047,-0.184 -1.574,-0.184 -0.527,0 -1.039,0.051 -1.539,0.172 -0.5,0.121 -0.973,0.305 -1.41,0.559 -0.512,0.297 -0.93,0.66 -1.262,1.082 -0.328,0.426 -0.558,0.875 -0.695,1.355 -0.125,0.481 -0.156,0.977 -0.086,1.489 0.074,0.519 0.246,1.023 0.531,1.504 0.266,0.461 0.598,0.871 0.981,1.222 0.394,0.36 0.828,0.653 1.304,0.879 0.477,0.238 0.989,0.418 1.535,0.543 0.551,0.117 1.114,0.172 1.688,0.164 -0.016,0.578 0.137,1.137 0.445,1.672 0.297,0.512 0.692,0.938 1.196,1.274 0.496,0.343 1.043,0.589 1.625,0.742 0.589,0.144 1.187,0.187 1.793,0.121 0.613,-0.067 1.179,-0.246 1.695,-0.551 0.414,-0.234 0.742,-0.527 1,-0.871 0.254,-0.344 0.433,-0.711 0.535,-1.094 0.105,-0.39 0.133,-0.785 0.074,-1.195 -0.051,-0.399 -0.183,-0.785 -0.398,-1.149 -0.328,-0.57 -0.789,-1.039 -1.375,-1.398 -0.574,-0.355 -1.211,-0.59 -1.906,-0.699 z m -2.239,2.633 c 0.059,-0.067 0.16,-0.141 0.301,-0.227 0.219,-0.125 0.484,-0.211 0.793,-0.25 0.32,-0.043 0.633,-0.031 0.949,0.035 0.317,0.067 0.617,0.18 0.899,0.344 0.285,0.156 0.515,0.383 0.679,0.668 0.153,0.254 0.188,0.5 0.106,0.73 -0.067,0.227 -0.242,0.422 -0.516,0.582 -0.246,0.145 -0.539,0.231 -0.863,0.258 -0.324,0.028 -0.649,0 -0.965,-0.078 -0.305,-0.066 -0.602,-0.191 -0.879,-0.367 -0.269,-0.168 -0.473,-0.371 -0.613,-0.606 -0.129,-0.226 -0.18,-0.433 -0.152,-0.617 0.031,-0.183 0.121,-0.343 0.261,-0.472 z" /><path
         id="path5917"
         style="fill:#656565;fill-opacity:1;fill-rule:nonzero;stroke:none"
         d="m 607.785,991.625 c -0.387,-0.406 -0.789,-0.488 -1.211,-0.254 -0.351,0.199 -0.574,0.434 -0.664,0.699 -0.078,0.274 -0.058,0.516 0.067,0.735 0.062,0.109 0.148,0.222 0.265,0.34 l 7.141,7.297 -0.231,-0.051 c -0.144,-0.02 -0.285,-0.024 -0.418,0 -0.136,0.019 -0.25,0.058 -0.347,0.109 -0.102,0.063 -0.196,0.152 -0.278,0.277 -0.07,0.133 -0.129,0.27 -0.171,0.422 -0.032,0.149 -0.047,0.301 -0.04,0.457 0.016,0.153 0.055,0.289 0.122,0.411 0.144,0.253 0.418,0.414 0.812,0.48 l 3.449,0.535 c 0.258,0.043 0.485,0 0.688,-0.109 0.16,-0.094 0.289,-0.196 0.383,-0.313 0.093,-0.117 0.16,-0.242 0.199,-0.379 0.039,-0.125 0.051,-0.246 0.031,-0.367 -0.012,-0.121 -0.047,-0.234 -0.109,-0.344 -0.063,-0.109 -0.149,-0.214 -0.254,-0.312 l -9.434,-9.629 z" /><path
         id="path5919"
         style="fill:#656565;fill-opacity:1;fill-rule:nonzero;stroke:none"
         d="m 635.066,992.762 c 0.477,-0.27 0.852,-0.617 1.122,-1.043 0.273,-0.422 0.437,-0.906 0.496,-1.442 0.062,-0.543 0.019,-1.117 -0.125,-1.73 -0.145,-0.617 -0.399,-1.242 -0.762,-1.879 -0.395,-0.703 -0.883,-1.367 -1.457,-1.988 -0.567,-0.617 -1.18,-1.176 -1.848,-1.672 -0.652,-0.492 -1.344,-0.918 -2.07,-1.266 -0.719,-0.355 -1.434,-0.617 -2.133,-0.781 -0.695,-0.164 -1.363,-0.234 -2.012,-0.199 -0.636,0.043 -1.214,0.207 -1.722,0.496 -0.469,0.262 -0.844,0.609 -1.117,1.027 -0.27,0.426 -0.446,0.903 -0.508,1.438 -0.059,0.531 -0.02,1.101 0.129,1.719 0.148,0.617 0.406,1.257 0.777,1.914 0.394,0.691 0.871,1.347 1.437,1.964 0.563,0.618 1.176,1.172 1.829,1.668 0.66,0.5 1.351,0.93 2.07,1.282 0.723,0.355 1.43,0.617 2.129,0.797 0.707,0.167 1.375,0.23 2.019,0.187 0.641,-0.031 1.227,-0.199 1.746,-0.492 z m -0.836,-2.063 c -0.039,0.055 -0.113,0.114 -0.222,0.176 -0.32,0.176 -0.703,0.258 -1.16,0.246 -0.453,-0.012 -0.942,-0.097 -1.461,-0.269 -0.512,-0.168 -1.039,-0.403 -1.586,-0.703 -0.539,-0.305 -1.067,-0.657 -1.582,-1.055 -0.504,-0.395 -0.973,-0.832 -1.41,-1.313 -0.434,-0.476 -0.793,-0.976 -1.086,-1.492 -0.203,-0.363 -0.364,-0.715 -0.473,-1.051 -0.109,-0.332 -0.168,-0.636 -0.18,-0.91 -0.007,-0.269 0.032,-0.508 0.114,-0.715 0.097,-0.203 0.238,-0.359 0.433,-0.468 0.317,-0.176 0.696,-0.262 1.145,-0.25 0.449,0.015 0.929,0.109 1.441,0.277 0.516,0.168 1.051,0.398 1.594,0.695 0.547,0.301 1.078,0.653 1.59,1.047 0.511,0.403 0.984,0.84 1.414,1.32 0.441,0.481 0.808,0.981 1.101,1.504 0.364,0.641 0.575,1.227 0.637,1.754 0.055,0.532 -0.051,0.93 -0.309,1.207 z" /><path
         id="path5921"
         style="fill:#656565;fill-opacity:1;fill-rule:nonzero;stroke:none"
         d="m 528.246,1010.137 -16.621,-16.039 5.523,-1.86 -225.613,-389.707 1.098,-0.636 225.617,389.703 4.359,-3.864 c 1.879,7.469 3.762,14.942 5.637,22.403 z M 265.621,557.942 39.352,167.137 l -4.364,3.859 -5.636,-22.394 16.617,16.035 -5.516,1.863 226.262,390.801 c -0.383,0.223 -0.77,0.449 -1.094,0.641 z" /><path
         id="path5923"
         style="fill:#646464;fill-opacity:1;fill-rule:nonzero;stroke:none"
         d="m 623.023,819.981 c 0.204,-0.418 0.223,-0.766 0.063,-1.039 -0.078,-0.133 -0.18,-0.25 -0.313,-0.348 -0.132,-0.09 -0.277,-0.16 -0.421,-0.203 -0.153,-0.051 -0.297,-0.071 -0.434,-0.071 -0.145,0 -0.27,0.032 -0.375,0.09 -0.188,0.106 -0.348,0.282 -0.492,0.532 -0.141,0.253 -0.258,0.531 -0.348,0.839 -0.098,0.317 -0.168,0.637 -0.215,0.965 -0.047,0.34 -0.074,0.645 -0.082,0.922 -0.008,0.973 0.211,1.848 0.66,2.621 0.254,0.445 0.571,0.817 0.942,1.106 0.379,0.3 0.785,0.507 1.222,0.629 0.434,0.128 0.887,0.164 1.356,0.101 0.469,-0.051 0.93,-0.203 1.375,-0.465 0.375,-0.215 0.711,-0.472 1.004,-0.785 0.297,-0.308 0.551,-0.652 0.765,-1.027 0.208,-0.375 0.375,-0.781 0.497,-1.223 0.117,-0.433 0.191,-0.879 0.222,-1.34 0.43,0.055 0.832,0.047 1.207,-0.019 0.375,-0.074 0.754,-0.219 1.137,-0.438 0.391,-0.226 0.738,-0.508 1.043,-0.847 0.301,-0.332 0.562,-0.704 0.777,-1.114 0.215,-0.406 0.379,-0.84 0.496,-1.3 0.114,-0.461 0.172,-0.922 0.18,-1.391 0.012,-0.465 -0.035,-0.922 -0.144,-1.375 -0.11,-0.449 -0.274,-0.879 -0.504,-1.274 -0.243,-0.418 -0.543,-0.781 -0.907,-1.085 -0.359,-0.297 -0.754,-0.516 -1.175,-0.657 -0.422,-0.136 -0.864,-0.191 -1.317,-0.156 -0.453,0.031 -0.894,0.172 -1.32,0.414 -0.297,0.176 -0.477,0.387 -0.531,0.641 -0.063,0.265 0.004,0.558 0.191,0.894 0.32,0.547 0.789,0.68 1.402,0.391 0.336,-0.16 0.657,-0.188 0.973,-0.082 0.309,0.113 0.574,0.355 0.789,0.73 0.18,0.313 0.289,0.676 0.332,1.082 0.039,0.418 0.012,0.836 -0.078,1.246 -0.086,0.411 -0.242,0.797 -0.461,1.153 -0.219,0.355 -0.504,0.629 -0.848,0.828 -0.371,0.215 -0.722,0.269 -1.058,0.16 -0.332,-0.109 -0.606,-0.348 -0.82,-0.719 -0.071,-0.129 -0.165,-0.234 -0.278,-0.316 -0.109,-0.074 -0.23,-0.129 -0.367,-0.168 -0.133,-0.035 -0.273,-0.043 -0.422,-0.024 -0.141,0.02 -0.273,0.071 -0.402,0.145 -0.129,0.074 -0.235,0.164 -0.321,0.27 -0.089,0.117 -0.152,0.238 -0.195,0.371 -0.031,0.136 -0.047,0.269 -0.035,0.398 0.008,0.145 0.047,0.277 0.121,0.402 0.172,0.313 0.281,0.68 0.324,1.094 0.035,0.422 0.012,0.836 -0.078,1.25 -0.09,0.41 -0.238,0.789 -0.453,1.141 -0.219,0.355 -0.5,0.633 -0.844,0.832 -0.164,0.094 -0.336,0.152 -0.508,0.183 -0.167,0.028 -0.335,0.024 -0.5,-0.019 -0.16,-0.039 -0.316,-0.121 -0.468,-0.242 -0.16,-0.121 -0.301,-0.285 -0.422,-0.492 -0.129,-0.223 -0.219,-0.469 -0.281,-0.747 -0.059,-0.269 -0.082,-0.546 -0.071,-0.839 0.008,-0.286 0.047,-0.571 0.121,-0.856 0.071,-0.277 0.164,-0.535 0.289,-0.769 z" /><path
         id="path5925"
         style="fill:#646464;fill-opacity:1;fill-rule:nonzero;stroke:none"
         d="m 626.879,834.359 c 0.277,0.477 0.633,0.856 1.066,1.125 0.434,0.27 0.922,0.434 1.469,0.485 0.551,0.062 1.133,0.012 1.754,-0.141 0.621,-0.152 1.254,-0.418 1.898,-0.793 0.707,-0.406 1.375,-0.906 2,-1.496 0.622,-0.578 1.18,-1.207 1.68,-1.887 0.496,-0.668 0.918,-1.375 1.266,-2.117 0.351,-0.734 0.609,-1.457 0.769,-2.172 0.16,-0.703 0.223,-1.386 0.18,-2.039 -0.047,-0.652 -0.219,-1.234 -0.516,-1.746 -0.273,-0.472 -0.621,-0.847 -1.05,-1.121 -0.438,-0.269 -0.926,-0.437 -1.469,-0.5 -0.539,-0.058 -1.117,-0.008 -1.738,0.145 -0.629,0.156 -1.274,0.429 -1.938,0.808 -0.699,0.403 -1.355,0.899 -1.977,1.477 -0.621,0.578 -1.183,1.203 -1.675,1.871 -0.5,0.676 -0.926,1.379 -1.278,2.113 -0.355,0.735 -0.617,1.457 -0.785,2.168 -0.168,0.715 -0.226,1.399 -0.176,2.047 0.039,0.656 0.219,1.246 0.52,1.773 z m 2.082,-0.871 c -0.055,-0.039 -0.117,-0.117 -0.18,-0.226 -0.183,-0.32 -0.273,-0.711 -0.261,-1.172 0.003,-0.461 0.089,-0.957 0.257,-1.488 0.164,-0.52 0.399,-1.059 0.7,-1.614 0.3,-0.55 0.652,-1.089 1.05,-1.613 0.399,-0.516 0.84,-1 1.325,-1.449 0.476,-0.438 0.98,-0.809 1.5,-1.109 0.367,-0.215 0.722,-0.379 1.062,-0.497 0.336,-0.109 0.645,-0.171 0.922,-0.187 0.269,-0.008 0.512,0.027 0.727,0.113 0.203,0.09 0.363,0.235 0.476,0.43 0.184,0.32 0.277,0.703 0.266,1.16 -0.012,0.457 -0.102,0.941 -0.266,1.461 -0.164,0.531 -0.394,1.07 -0.695,1.629 -0.297,0.555 -0.649,1.098 -1.047,1.621 -0.399,0.523 -0.836,1.008 -1.317,1.445 -0.484,0.453 -0.992,0.828 -1.515,1.133 -0.652,0.379 -1.242,0.598 -1.777,0.66 -0.536,0.067 -0.946,-0.035 -1.227,-0.297 z" /><path
         id="path5927"
         style="fill:#646464;fill-opacity:1;fill-rule:nonzero;stroke:none"
         d="m 633.055,845.059 c 0.273,0.472 0.629,0.851 1.066,1.121 0.434,0.273 0.922,0.433 1.469,0.488 0.547,0.059 1.133,0.012 1.754,-0.144 0.621,-0.157 1.254,-0.415 1.894,-0.79 0.715,-0.41 1.383,-0.91 2.004,-1.496 0.621,-0.582 1.184,-1.211 1.676,-1.89 0.5,-0.672 0.922,-1.375 1.27,-2.114 0.351,-0.738 0.605,-1.457 0.769,-2.171 0.164,-0.707 0.223,-1.391 0.184,-2.039 -0.051,-0.653 -0.227,-1.235 -0.52,-1.747 -0.273,-0.472 -0.625,-0.847 -1.051,-1.121 -0.437,-0.277 -0.925,-0.441 -1.468,-0.504 -0.539,-0.058 -1.118,-0.007 -1.743,0.149 -0.625,0.156 -1.269,0.426 -1.933,0.808 -0.696,0.403 -1.36,0.895 -1.977,1.473 -0.621,0.582 -1.179,1.203 -1.676,1.875 -0.5,0.672 -0.929,1.375 -1.281,2.113 -0.351,0.731 -0.613,1.454 -0.781,2.164 -0.164,0.715 -0.227,1.403 -0.176,2.051 0.039,0.653 0.215,1.242 0.52,1.774 z m 2.078,-0.875 c -0.055,-0.039 -0.113,-0.117 -0.18,-0.227 -0.18,-0.316 -0.269,-0.711 -0.258,-1.172 0.004,-0.461 0.09,-0.957 0.258,-1.484 0.168,-0.524 0.399,-1.059 0.695,-1.617 0.305,-0.551 0.657,-1.086 1.055,-1.61 0.399,-0.515 0.836,-1 1.32,-1.453 0.481,-0.437 0.981,-0.808 1.5,-1.113 0.372,-0.207 0.723,-0.371 1.067,-0.488 0.332,-0.11 0.64,-0.176 0.918,-0.188 0.273,-0.012 0.515,0.027 0.726,0.106 0.211,0.093 0.371,0.238 0.485,0.433 0.183,0.317 0.269,0.707 0.265,1.16 -0.015,0.457 -0.105,0.946 -0.273,1.465 -0.16,0.528 -0.391,1.071 -0.688,1.625 -0.3,0.559 -0.652,1.098 -1.05,1.621 -0.403,0.528 -0.84,1.008 -1.321,1.45 -0.484,0.449 -0.988,0.828 -1.515,1.128 -0.649,0.379 -1.242,0.598 -1.778,0.661 -0.531,0.062 -0.945,-0.036 -1.226,-0.297 z" /><path
         id="path5929"
         style="fill:#646464;fill-opacity:1;fill-rule:nonzero;stroke:none"
         d="m 275.246,561.594 c 0.402,-0.399 0.488,-0.809 0.242,-1.235 -0.203,-0.355 -0.441,-0.574 -0.711,-0.66 -0.277,-0.082 -0.527,-0.058 -0.746,0.071 -0.109,0.062 -0.222,0.156 -0.343,0.273 l -7.329,7.32 0.047,-0.238 c 0.02,-0.152 0.02,-0.293 -0.004,-0.43 -0.015,-0.132 -0.058,-0.25 -0.113,-0.347 -0.062,-0.106 -0.156,-0.196 -0.285,-0.278 -0.129,-0.07 -0.274,-0.128 -0.43,-0.168 -0.148,-0.039 -0.301,-0.05 -0.461,-0.043 -0.152,0.02 -0.293,0.059 -0.414,0.133 -0.258,0.149 -0.418,0.426 -0.476,0.828 l -0.516,3.504 c -0.039,0.262 0,0.493 0.117,0.692 0.098,0.168 0.207,0.293 0.324,0.39 0.122,0.094 0.25,0.161 0.383,0.196 0.129,0.039 0.254,0.05 0.371,0.031 0.125,-0.016 0.243,-0.055 0.352,-0.117 0.109,-0.063 0.215,-0.153 0.316,-0.258 z" /><path
         id="path5931"
         style="fill:#646464;fill-opacity:1;fill-rule:nonzero;stroke:none"
         d="m 270.098,574.219 c 0.199,-0.418 0.222,-0.762 0.062,-1.039 -0.078,-0.133 -0.183,-0.25 -0.308,-0.348 -0.137,-0.094 -0.282,-0.164 -0.43,-0.207 -0.149,-0.043 -0.293,-0.07 -0.434,-0.07 -0.14,0.004 -0.269,0.035 -0.371,0.094 -0.183,0.109 -0.351,0.285 -0.492,0.531 -0.141,0.25 -0.258,0.527 -0.348,0.836 -0.097,0.316 -0.168,0.64 -0.214,0.968 -0.047,0.34 -0.079,0.649 -0.083,0.918 -0.007,0.977 0.208,1.852 0.657,2.622 0.258,0.449 0.574,0.816 0.945,1.109 0.375,0.297 0.781,0.508 1.223,0.633 0.429,0.121 0.886,0.156 1.355,0.097 0.469,-0.05 0.93,-0.207 1.375,-0.461 0.375,-0.218 0.707,-0.48 1.004,-0.789 0.293,-0.308 0.551,-0.656 0.766,-1.031 0.211,-0.375 0.375,-0.781 0.492,-1.215 0.117,-0.437 0.191,-0.883 0.223,-1.34 0.433,0.051 0.832,0.043 1.21,-0.027 0.379,-0.07 0.754,-0.215 1.137,-0.437 0.391,-0.223 0.735,-0.504 1.039,-0.844 0.309,-0.332 0.567,-0.703 0.782,-1.11 0.21,-0.41 0.375,-0.847 0.496,-1.304 0.109,-0.457 0.171,-0.922 0.175,-1.391 0.012,-0.461 -0.035,-0.922 -0.14,-1.375 -0.11,-0.453 -0.278,-0.879 -0.508,-1.277 -0.238,-0.418 -0.543,-0.778 -0.902,-1.082 -0.364,-0.297 -0.754,-0.52 -1.176,-0.656 -0.426,-0.141 -0.863,-0.192 -1.32,-0.161 -0.454,0.036 -0.895,0.172 -1.313,0.418 -0.301,0.172 -0.48,0.387 -0.539,0.641 -0.059,0.266 0.008,0.562 0.199,0.891 0.317,0.554 0.781,0.683 1.403,0.39 0.332,-0.16 0.652,-0.183 0.964,-0.078 0.313,0.113 0.575,0.359 0.793,0.731 0.18,0.312 0.289,0.671 0.332,1.082 0.036,0.421 0.012,0.836 -0.078,1.246 -0.09,0.41 -0.246,0.793 -0.465,1.148 -0.218,0.356 -0.5,0.633 -0.839,0.832 -0.375,0.215 -0.731,0.266 -1.063,0.156 -0.336,-0.109 -0.605,-0.347 -0.816,-0.714 -0.075,-0.125 -0.172,-0.235 -0.286,-0.313 -0.109,-0.078 -0.23,-0.137 -0.363,-0.168 -0.137,-0.039 -0.277,-0.051 -0.422,-0.031 -0.14,0.027 -0.277,0.074 -0.402,0.152 -0.129,0.071 -0.234,0.164 -0.324,0.27 -0.086,0.113 -0.149,0.238 -0.188,0.367 -0.039,0.133 -0.051,0.269 -0.039,0.402 0.008,0.141 0.047,0.274 0.117,0.395 0.176,0.316 0.282,0.679 0.325,1.097 0.043,0.418 0.015,0.836 -0.075,1.247 -0.089,0.41 -0.238,0.793 -0.453,1.144 -0.222,0.356 -0.504,0.633 -0.843,0.828 -0.165,0.098 -0.336,0.16 -0.508,0.184 -0.168,0.035 -0.336,0.027 -0.5,-0.02 -0.16,-0.035 -0.321,-0.117 -0.473,-0.238 -0.156,-0.121 -0.301,-0.285 -0.418,-0.496 -0.129,-0.219 -0.223,-0.469 -0.281,-0.742 -0.059,-0.27 -0.082,-0.551 -0.07,-0.844 0.007,-0.281 0.05,-0.563 0.117,-0.852 0.07,-0.277 0.172,-0.531 0.293,-0.769 z" /><path
         id="path5933"
         style="fill:#646464;fill-opacity:1;fill-rule:nonzero;stroke:none"
         d="m 275.711,591.637 c 0.363,0.64 0.867,0.773 1.504,0.406 0.629,-0.363 0.762,-0.867 0.394,-1.504 l -2.863,-4.961 2.609,-2.613 c 0.122,0.562 0.325,1.094 0.614,1.598 0.265,0.464 0.601,0.843 1,1.136 0.402,0.301 0.84,0.504 1.312,0.614 0.469,0.121 0.949,0.148 1.449,0.074 0.497,-0.07 0.989,-0.242 1.465,-0.516 0.465,-0.269 0.879,-0.597 1.235,-0.984 0.359,-0.387 0.66,-0.809 0.906,-1.274 0.25,-0.461 0.441,-0.945 0.578,-1.461 0.141,-0.503 0.227,-1.011 0.246,-1.523 0.02,-0.508 -0.027,-1.004 -0.133,-1.488 -0.109,-0.481 -0.277,-0.918 -0.511,-1.328 -0.211,-0.364 -0.469,-0.688 -0.766,-0.965 -0.301,-0.266 -0.629,-0.477 -0.988,-0.629 -0.356,-0.149 -0.731,-0.235 -1.125,-0.27 -0.403,-0.031 -0.805,0.004 -1.207,0.11 -0.145,0.043 -0.274,0.093 -0.391,0.164 -0.113,0.062 -0.211,0.148 -0.289,0.25 -0.074,0.109 -0.125,0.234 -0.156,0.375 -0.024,0.136 -0.024,0.281 0.008,0.437 0.031,0.16 0.093,0.328 0.195,0.5 0.223,0.391 0.613,0.524 1.172,0.399 0.359,-0.094 0.683,-0.075 0.961,0.058 0.277,0.137 0.504,0.36 0.687,0.672 0.129,0.235 0.227,0.496 0.285,0.789 0.055,0.297 0.067,0.602 0.047,0.914 -0.019,0.325 -0.074,0.645 -0.164,0.965 -0.09,0.328 -0.211,0.641 -0.359,0.93 -0.156,0.297 -0.344,0.566 -0.567,0.82 -0.226,0.254 -0.484,0.461 -0.765,0.629 -0.438,0.246 -0.852,0.336 -1.246,0.262 -0.395,-0.074 -0.719,-0.328 -0.969,-0.766 -0.102,-0.176 -0.184,-0.351 -0.254,-0.523 -0.066,-0.176 -0.117,-0.371 -0.156,-0.586 -0.035,-0.207 -0.059,-0.449 -0.067,-0.731 -0.004,-0.285 -0.004,-0.629 0.004,-1.035 0.004,-0.133 -0.004,-0.25 -0.019,-0.355 -0.02,-0.102 -0.055,-0.203 -0.114,-0.305 -0.097,-0.164 -0.203,-0.293 -0.324,-0.387 -0.121,-0.093 -0.246,-0.16 -0.371,-0.203 -0.125,-0.031 -0.25,-0.039 -0.367,-0.019 -0.121,0.019 -0.231,0.062 -0.336,0.121 -0.059,0.023 -0.117,0.058 -0.172,0.101 -0.058,0.047 -0.109,0.098 -0.172,0.157 l -4.894,4.886 c -0.446,0.387 -0.516,0.848 -0.207,1.379 z" /><path
         id="path5935"
         style="fill:#646464;fill-opacity:1;fill-rule:nonzero;stroke:none"
         d="m 279.852,598.817 c 0.273,0.476 0.628,0.851 1.066,1.125 0.434,0.269 0.922,0.429 1.469,0.484 0.547,0.062 1.133,0.012 1.758,-0.141 0.617,-0.156 1.25,-0.418 1.894,-0.793 0.711,-0.41 1.379,-0.906 2,-1.496 0.621,-0.578 1.184,-1.207 1.68,-1.89 0.496,-0.668 0.918,-1.372 1.265,-2.114 0.352,-0.734 0.606,-1.457 0.77,-2.172 0.164,-0.707 0.223,-1.386 0.184,-2.039 -0.051,-0.652 -0.227,-1.234 -0.52,-1.746 -0.273,-0.472 -0.625,-0.847 -1.051,-1.121 -0.437,-0.273 -0.926,-0.437 -1.469,-0.5 -0.535,-0.058 -1.117,-0.008 -1.742,0.145 -0.625,0.156 -1.269,0.429 -1.933,0.808 -0.696,0.403 -1.356,0.895 -1.977,1.473 -0.621,0.582 -1.18,1.207 -1.672,1.875 -0.504,0.676 -0.933,1.379 -1.285,2.113 -0.351,0.735 -0.609,1.453 -0.781,2.164 -0.164,0.719 -0.227,1.403 -0.176,2.051 0.043,0.656 0.215,1.246 0.52,1.774 z m 2.082,-0.872 c -0.059,-0.039 -0.118,-0.117 -0.184,-0.226 -0.18,-0.32 -0.27,-0.711 -0.258,-1.172 0.004,-0.461 0.09,-0.957 0.258,-1.488 0.168,-0.52 0.398,-1.059 0.695,-1.614 0.305,-0.55 0.657,-1.089 1.055,-1.613 0.398,-0.515 0.836,-1 1.32,-1.449 0.481,-0.441 0.981,-0.809 1.5,-1.113 0.371,-0.215 0.727,-0.375 1.067,-0.493 0.332,-0.109 0.64,-0.175 0.918,-0.187 0.273,-0.008 0.515,0.027 0.726,0.109 0.211,0.094 0.371,0.239 0.485,0.43 0.183,0.32 0.269,0.707 0.265,1.164 -0.015,0.457 -0.105,0.941 -0.269,1.461 -0.164,0.531 -0.395,1.07 -0.692,1.629 -0.3,0.555 -0.648,1.094 -1.05,1.621 -0.403,0.523 -0.84,1.008 -1.321,1.445 -0.484,0.453 -0.988,0.828 -1.515,1.133 -0.649,0.379 -1.243,0.598 -1.778,0.66 -0.531,0.063 -0.941,-0.039 -1.222,-0.297 z" /><path
         id="path5937"
         style="fill:#656565;fill-opacity:1;fill-rule:nonzero;stroke:none"
         d="m 506.25,1032.141 -0.613,-1.063 3.199,-1.847 0.609,1.062 c -1.109,0.645 -2.242,1.297 -3.195,1.848 z m 4.262,-2.461 -0.614,-1.063 3.2,-1.847 0.613,1.062 z m 4.265,-2.461 -0.613,-1.063 3.195,-1.847 0.614,1.062 z m 4.266,-2.461 -0.617,-1.063 3.199,-1.847 0.613,1.062 z m 4.258,-2.461 -0.613,-1.063 3.199,-1.847 0.613,1.062 c -1.066,0.618 -2.137,1.235 -3.199,1.848 z m 4.265,-2.461 -0.613,-1.062 3.195,-1.848 0.614,1.062 c -1.067,0.618 -2.133,1.231 -3.196,1.848 z m 4.258,-2.461 -0.609,-1.062 3.195,-1.848 0.613,1.062 c -1.109,0.641 -2.246,1.297 -3.199,1.848 z m 4.266,-2.461 -0.613,-1.066 3.199,-1.848 0.609,1.067 z m 4.265,-2.461 -0.613,-1.062 3.196,-1.852 0.613,1.063 c -1.067,0.617 -2.133,1.234 -3.196,1.851 z m 4.258,-2.465 -0.609,-1.062 3.195,-1.844 0.614,1.063 c -1.063,0.613 -2.145,1.222 -3.2,1.843 z m 4.27,-2.461 -0.617,-1.062 3.195,-1.848 0.613,1.067 c -1.113,0.64 -2.242,1.304 -3.191,1.843 z" /><path
         id="path5939"
         style="fill:#656565;fill-opacity:1;fill-rule:nonzero;stroke:none"
         d="M 0.613,156.352 0,155.289 l 3.195,-1.847 0.618,1.066 c -1.114,0.641 -2.25,1.297 -3.2,1.844 z m 4.266,-2.461 -0.617,-1.063 3.199,-1.847 0.613,1.062 z m 4.262,-2.461 -0.614,-1.063 3.196,-1.847 0.613,1.062 z m 4.261,-2.465 -0.613,-1.059 3.195,-1.847 0.618,1.062 z m 4.266,-2.461 -0.617,-1.059 3.199,-1.847 0.613,1.062 c -1.066,0.614 -2.136,1.235 -3.195,1.844 z m 4.262,-2.461 -0.617,-1.059 3.199,-1.847 0.613,1.062 c -1.066,0.614 -2.133,1.235 -3.195,1.844 z m 4.261,-2.461 -0.617,-1.058 3.199,-1.848 0.618,1.062 c -1.118,0.641 -2.246,1.297 -3.2,1.844 z m 4.262,-2.461 -0.613,-1.058 3.195,-1.848 0.617,1.062 z m 4.262,-2.461 -0.613,-1.058 3.199,-1.848 0.613,1.063 c -1.066,0.613 -2.137,1.23 -3.199,1.843 z m 4.265,-2.461 -0.613,-1.054 3.199,-1.848 0.61,1.062 c -1.063,0.614 -2.141,1.227 -3.196,1.844 z m 4.262,-2.461 -0.613,-1.058 3.199,-1.848 0.61,1.063 c -1.11,0.644 -2.243,1.304 -3.196,1.843 z" /><path
         id="path5941"
         style="fill:#656565;fill-opacity:1;fill-rule:nonzero;stroke:none"
         d="m 695.445,984.008 -1.062,0.617 -1.844,-3.199 1.063,-0.613 c 0.64,1.113 1.296,2.242 1.843,3.195 z m -2.461,-4.262 -1.062,0.613 -1.844,-3.195 1.063,-0.617 z m -2.461,-4.262 -1.062,0.61 -1.844,-3.195 1.063,-0.614 z m -2.46,-4.265 -1.063,0.617 -1.844,-3.203 1.063,-0.613 z m -2.461,-4.262 -1.063,0.613 -1.844,-3.195 1.063,-0.613 c 0.613,1.062 1.23,2.133 1.844,3.195 z m -2.461,-4.262 -1.063,0.614 -1.844,-3.196 1.063,-0.617 c 0.613,1.067 1.226,2.133 1.844,3.199 z m -2.461,-4.265 -1.063,0.617 -1.844,-3.195 1.063,-0.618 c 0.641,1.114 1.297,2.247 1.844,3.196 z m -2.461,-4.262 -1.067,0.613 -1.843,-3.199 1.066,-0.609 z m -2.461,-4.266 -1.063,0.618 -1.847,-3.2 1.066,-0.613 c 0.609,1.063 1.227,2.133 1.844,3.195 z m -2.461,-4.257 -1.067,0.609 -1.839,-3.191 1.062,-0.618 c 0.641,1.11 1.289,2.247 1.844,3.2 z m -2.461,-4.266 -1.066,0.613 -1.844,-3.195 1.066,-0.613 c 0.641,1.113 1.301,2.242 1.844,3.195 z" /><path
         id="path5943"
         style="fill:#656565;fill-opacity:1;fill-rule:nonzero;stroke:none"
         d="m 579.598,1050.891 -1.067,0.617 -1.843,-3.195 1.066,-0.618 c 0.641,1.114 1.293,2.25 1.844,3.196 z m -2.465,-4.262 -1.063,0.617 -1.843,-3.199 1.062,-0.613 z m -2.461,-4.262 -1.063,0.617 -1.843,-3.199 1.062,-0.613 z m -2.461,-4.261 -1.063,0.613 -1.843,-3.195 1.062,-0.618 z m -2.461,-4.262 -1.062,0.613 -1.844,-3.195 1.062,-0.617 c 0.614,1.066 1.235,2.14 1.844,3.199 z m -2.461,-4.266 -1.062,0.617 -1.844,-3.199 1.062,-0.613 c 0.614,1.066 1.231,2.129 1.844,3.195 z m -2.461,-4.261 -1.062,0.613 -1.844,-3.196 1.062,-0.613 c 0.641,1.113 1.297,2.242 1.844,3.196 z m -2.461,-4.262 -1.062,0.613 -1.844,-3.195 1.062,-0.617 z m -2.461,-4.266 -1.062,0.617 -1.844,-3.199 1.063,-0.613 c 0.613,1.066 1.23,2.137 1.843,3.195 z m -2.461,-4.262 -1.062,0.614 -1.844,-3.196 1.063,-0.613 c 0.644,1.11 1.289,2.246 1.843,3.195 z m -2.461,-4.261 -1.062,0.617 -1.848,-3.203 1.067,-0.61 c 0.64,1.114 1.3,2.243 1.843,3.196 z" /><path
         id="path5945"
         style="fill:#656565;fill-opacity:1;fill-rule:nonzero;stroke:none"
         d="m 557.102,744.391 -0.61,-1.063 3.196,-1.847 0.609,1.062 c -1.109,0.645 -2.242,1.297 -3.195,1.848 z m 4.261,-2.461 -0.609,-1.063 3.195,-1.847 0.614,1.062 z m 4.266,-2.461 -0.613,-1.063 3.199,-1.847 0.609,1.062 z m 4.266,-2.461 -0.618,-1.063 3.2,-1.847 0.613,1.062 z m 4.257,-2.461 -0.613,-1.063 3.199,-1.847 0.614,1.062 c -1.063,0.614 -2.137,1.235 -3.2,1.848 z m 4.266,-2.461 -0.613,-1.062 3.195,-1.848 0.613,1.062 c -1.066,0.614 -2.133,1.231 -3.195,1.848 z m 4.262,-2.461 -0.614,-1.062 3.196,-1.848 0.617,1.062 c -1.113,0.641 -2.25,1.297 -3.199,1.848 z m 4.261,-2.461 -0.613,-1.066 3.199,-1.848 0.61,1.067 z m 4.266,-2.461 -0.613,-1.062 3.195,-1.852 0.613,1.063 c -1.062,0.617 -2.132,1.234 -3.195,1.851 z m 4.258,-2.465 -0.61,-1.062 3.196,-1.844 0.617,1.063 c -1.066,0.613 -2.148,1.222 -3.203,1.843 z m 4.269,-2.461 -0.617,-1.062 3.199,-1.848 0.61,1.067 c -1.113,0.64 -2.242,1.304 -3.192,1.843 z" /><path
         id="path5947"
         style="fill:#656565;fill-opacity:1;fill-rule:nonzero;stroke:none"
         d="m 645.164,851.77 1.102,-0.641 28.597,49.469 4.36,-3.871 5.675,22.386 -16.648,-16.011 5.52,-1.871 z" /><path
         id="path5949"
         style="fill:#656565;fill-opacity:1;fill-rule:nonzero;stroke:none"
         d="m 619.559,807.422 1.101,-0.633 -28.535,-49.504 5.531,-1.836 -16.547,-16.109 5.539,22.422 4.375,-3.844 z" /><path
         id="path5951"
         style="fill:#000000;fill-opacity:1;fill-rule:nonzero;stroke:none"
         d="m 501.586,0.871 c 0,-0.265 -0.074,-0.402 -0.234,-0.402 -0.645,0 -1.434,0.023 -2.368,0.082 -0.89,0.058 -1.629,0.09 -2.218,0.09 -0.59,0 -1.309,-0.032 -2.161,-0.09 -0.894,-0.059 -1.664,-0.082 -2.308,-0.082 -0.18,0 -0.262,0.137 -0.262,0.402 0,0.242 0.074,0.371 0.231,0.391 1.129,0.137 1.902,0.344 2.304,0.629 0.422,0.277 0.629,0.812 0.629,1.593 V 3.719 L 494.586,17.785 487.59,0.234 C 487.531,0.074 487.398,0 487.18,0 c -0.219,0 -0.352,0.074 -0.387,0.234 l -6.594,16.852 -1.043,-13.367 c -0.019,-0.168 -0.027,-0.313 -0.027,-0.434 0,-0.652 0.219,-1.117 0.668,-1.394 0.441,-0.285 1.238,-0.485 2.383,-0.614 0.133,-0.019 0.195,-0.152 0.195,-0.406 0,-0.265 -0.078,-0.402 -0.258,-0.402 -0.5,0 -1.187,0.023 -2.062,0.082 -0.809,0.058 -1.438,0.09 -1.887,0.09 -0.484,0 -1.141,-0.032 -1.969,-0.09 -0.808,-0.059 -1.429,-0.082 -1.863,-0.082 -0.133,0 -0.199,0.137 -0.199,0.402 0,0.242 0.082,0.371 0.261,0.391 1.219,0.148 2.059,0.375 2.52,0.683 0.477,0.309 0.746,0.903 0.816,1.774 l 1.512,13.66 c 0.008,0.172 0.012,0.328 0.012,0.465 0,0.625 -0.223,1.082 -0.668,1.363 -0.442,0.281 -1.254,0.496 -2.426,0.641 -0.133,0 -0.199,0.136 -0.199,0.402 0,0.098 0.027,0.192 0.082,0.277 0.062,0.086 0.117,0.133 0.176,0.133 0.359,0 0.871,-0.027 1.527,-0.09 0.563,-0.054 0.969,-0.086 1.227,-0.086 0.343,0 0.824,0.032 1.457,0.086 0.648,0.063 1.156,0.09 1.511,0.09 l 6.227,-16.16 6.445,16.16 c 0.387,0 0.895,-0.027 1.528,-0.09 0.57,-0.054 1.015,-0.086 1.347,-0.086 0.406,0 0.895,0.032 1.469,0.086 0.59,0.063 1.102,0.09 1.523,0.09 0.172,0 0.258,-0.133 0.258,-0.41 0,-0.266 -0.078,-0.402 -0.23,-0.402 -1.133,-0.141 -1.907,-0.344 -2.324,-0.625 -0.403,-0.281 -0.61,-0.813 -0.61,-1.598 v -0.246 l 0.668,-13.66 c 0.031,-0.68 0.133,-1.156 0.301,-1.422 0.191,-0.273 0.5,-0.488 0.933,-0.652 0.438,-0.157 1.059,-0.286 1.872,-0.383 0.16,-0.02 0.234,-0.149 0.234,-0.391 z" /><path
         id="path5953"
         style="fill:#000000;fill-opacity:1;fill-rule:nonzero;stroke:none"
         d="m 512.566,0.149 c -0.543,0 -1.015,0.132 -1.421,0.402 -0.399,0.266 -0.672,0.621 -0.813,1.074 -1.039,-1.066 -2.394,-1.594 -4.066,-1.594 -0.871,0 -1.582,0.266 -2.133,0.797 -0.551,0.543 -0.828,1.215 -0.828,2.02 0,1.98 2.351,3.59 7.054,4.816 l 0.09,2.266 v 0.074 c 0,0.695 -0.179,1.25 -0.527,1.656 -0.34,0.414 -0.789,0.621 -1.363,0.621 -0.571,0 -1.055,-0.14 -1.454,-0.422 -0.394,-0.269 -0.597,-0.613 -0.609,-1.027 -0.008,-0.621 -0.172,-1.105 -0.488,-1.453 -0.313,-0.344 -0.731,-0.52 -1.254,-0.52 -0.305,0 -0.563,0.09 -0.75,0.274 -0.199,0.184 -0.297,0.43 -0.297,0.738 0,0.746 0.68,1.524 2.035,2.336 1.356,0.824 2.613,1.235 3.778,1.235 1.043,0 1.886,-0.305 2.543,-0.926 0.644,-0.617 0.968,-1.453 0.968,-2.496 V 9.844 L 512.828,3.285 V 3.184 c 0,-1.02 0.328,-1.524 0.988,-1.524 0.317,0 0.688,0.188 1.114,0.578 l 0.101,0.028 c 0.082,0 0.153,-0.055 0.223,-0.157 0.062,-0.097 0.098,-0.207 0.098,-0.32 0,-0.281 -0.289,-0.625 -0.883,-1.031 -0.578,-0.406 -1.215,-0.609 -1.903,-0.609 z m -2.234,6.531 c -2.828,-0.641 -4.242,-1.696 -4.242,-3.164 0,-1.379 0.535,-2.063 1.598,-2.063 0.515,0 1.015,0.125 1.515,0.375 0.496,0.266 0.836,0.586 1.012,0.957 z" /><path
         id="path5955"
         style="fill:#000000;fill-opacity:1;fill-rule:nonzero;stroke:none"
         d="m 530.102,6.301 c 0,-1.789 -0.438,-3.285 -1.313,-4.484 -0.859,-1.192 -1.898,-1.786 -3.117,-1.786 -0.738,0 -1.34,0.246 -1.805,0.739 -0.465,0.492 -0.695,1.14 -0.695,1.933 0,0.547 0.141,0.992 0.41,1.317 0.27,0.339 0.633,0.507 1.098,0.507 0.343,0 0.633,-0.113 0.875,-0.347 0.254,-0.231 0.379,-0.524 0.379,-0.871 0,-0.426 -0.207,-0.758 -0.625,-1 -0.301,-0.176 -0.454,-0.371 -0.454,-0.598 0,-0.5 0.235,-0.754 0.7,-0.754 1.082,0 1.629,1.781 1.629,5.344 0,1.867 -0.403,3.426 -1.211,4.676 -0.789,1.257 -1.84,1.886 -3.149,1.886 -0.156,0 -0.234,0.137 -0.234,0.407 0,0.273 0.078,0.406 0.234,0.406 0.969,0 1.735,0.336 2.293,1.004 0.563,0.676 0.844,1.574 0.844,2.699 0,2.09 -0.691,3.137 -2.059,3.137 -0.73,0 -1.382,-0.461 -1.961,-1.383 -0.574,-0.906 -0.855,-1.949 -0.855,-3.121 V 3.719 c 0,-0.934 0.09,-1.555 0.285,-1.875 0.207,-0.309 0.613,-0.504 1.219,-0.582 0.16,-0.02 0.234,-0.149 0.234,-0.391 0,-0.265 -0.074,-0.402 -0.234,-0.402 -0.395,0 -0.848,0.023 -1.36,0.082 -0.574,0.058 -1.097,0.09 -1.574,0.09 -0.484,0 -1.039,-0.032 -1.679,-0.09 -0.571,-0.059 -1.055,-0.082 -1.454,-0.082 -0.156,0 -0.234,0.137 -0.234,0.402 0,0.242 0.078,0.371 0.234,0.391 0.825,0.109 1.352,0.305 1.586,0.597 0.239,0.29 0.36,0.907 0.36,1.86 v 6.937 c 0,0.27 -0.117,0.407 -0.352,0.407 h -1.476 c -0.196,0 -0.289,0.125 -0.289,0.375 0,0.254 0.086,0.402 0.257,0.437 1.239,0.281 1.86,0.555 1.86,0.813 0,2.539 0.547,4.648 1.64,6.332 1.098,1.695 2.512,2.539 4.258,2.539 1.215,0 2.211,-0.367 2.985,-1.102 0.785,-0.738 1.179,-1.629 1.179,-2.672 0,-1.926 -1.152,-3.371 -3.441,-4.343 1.469,-0.403 2.672,-1.282 3.598,-2.625 0.945,-1.348 1.414,-2.852 1.414,-4.516 z" /><path
         id="path5957"
         style="fill:#000000;fill-opacity:1;fill-rule:nonzero;stroke:none"
         d="m 543.859,8.711 c 0,-0.269 -0.171,-0.406 -0.515,-0.406 h -7.957 c -0.059,-0.524 -0.086,-1.067 -0.086,-1.625 0,-1.563 0.363,-2.758 1.097,-3.602 0.747,-0.832 1.801,-1.25 3.165,-1.25 0.695,0 1.382,0.184 2.078,0.551 0.699,0.371 1.261,0.84 1.683,1.41 l 0.074,0.031 c 0.086,0 0.168,-0.05 0.247,-0.164 0.089,-0.105 0.132,-0.23 0.132,-0.371 0,-0.207 -0.308,-0.633 -0.933,-1.277 -0.617,-0.645 -1.289,-1.129 -2.016,-1.469 -0.723,-0.34 -1.488,-0.508 -2.277,-0.508 -1.742,0 -3.211,0.637 -4.399,1.914 -1.191,1.278 -1.785,2.848 -1.785,4.704 0,1.898 0.582,3.503 1.742,4.82 1.168,1.32 2.649,1.973 4.442,1.973 1.496,0 2.762,-0.489 3.773,-1.477 1.031,-0.981 1.535,-2.063 1.535,-3.254 z m -2.64,1.277 c 0,0.727 -0.25,1.329 -0.754,1.801 -0.492,0.481 -1.133,0.727 -1.914,0.727 -0.746,0 -1.395,-0.313 -1.949,-0.946 -0.543,-0.617 -0.907,-1.437 -1.098,-2.453 l 4.031,0.117 c 0.613,0.008 1.043,0.067 1.293,0.172 0.262,0.11 0.391,0.301 0.391,0.582 z" /><path
         id="path5959"
         style="fill:#000000;fill-opacity:1;fill-rule:nonzero;stroke:none"
         d="m 557.91,18.422 c 0,-0.406 -0.148,-0.758 -0.453,-1.059 -0.285,-0.3 -0.644,-0.449 -1.055,-0.449 -0.422,0 -0.781,0.149 -1.078,0.449 -0.293,0.301 -0.437,0.653 -0.437,1.059 0,0.426 0.144,0.785 0.437,1.074 0.293,0.293 0.645,0.438 1.078,0.438 0.411,0 0.77,-0.145 1.055,-0.438 0.305,-0.289 0.453,-0.648 0.453,-1.074 z m 2.035,-17.551 c 0,-0.265 -0.078,-0.402 -0.234,-0.402 -0.398,0 -0.906,0.023 -1.523,0.082 -0.7,0.058 -1.286,0.09 -1.758,0.09 -0.485,0 -1.067,-0.032 -1.746,-0.09 -0.606,-0.059 -1.11,-0.082 -1.508,-0.082 -0.153,0 -0.235,0.137 -0.235,0.402 0,0.242 0.082,0.371 0.235,0.391 0.82,0.109 1.351,0.305 1.586,0.597 0.238,0.29 0.359,0.907 0.359,1.86 V 9.09 c 0,0.773 -0.098,1.285 -0.305,1.523 -0.191,0.239 -0.625,0.403 -1.293,0.481 -0.156,0 -0.234,0.125 -0.234,0.375 0,0.234 0.078,0.348 0.234,0.348 1.02,0.265 1.852,0.539 2.5,0.828 0.649,0.3 1.055,0.547 1.219,0.738 0.098,0.117 0.203,0.176 0.321,0.176 0.273,0 0.402,-0.075 0.402,-0.235 -0.156,-2.164 -0.235,-3.847 -0.235,-5.05 V 3.719 c 0,-0.953 0.118,-1.57 0.352,-1.86 0.242,-0.292 0.785,-0.488 1.629,-0.597 0.156,-0.02 0.234,-0.149 0.234,-0.391 z" /><path
         id="path5961"
         style="fill:#000000;fill-opacity:1;fill-rule:nonzero;stroke:none"
         d="m 576.082,0.871 c 0,-0.265 -0.078,-0.402 -0.234,-0.402 -0.383,0 -0.86,0.023 -1.422,0.082 -0.621,0.058 -1.164,0.09 -1.641,0.09 -0.484,0 -1.039,-0.032 -1.668,-0.09 -0.574,-0.059 -1.051,-0.082 -1.437,-0.082 -0.157,0 -0.235,0.137 -0.235,0.402 0,0.242 0.078,0.371 0.235,0.391 0.664,0.078 1.101,0.269 1.3,0.566 0.215,0.301 0.325,0.934 0.325,1.891 v 4.848 c 0,1.085 -0.219,1.878 -0.641,2.378 -0.426,0.504 -1.086,0.758 -1.973,0.758 -0.562,0 -1.062,-0.105 -1.496,-0.32 -0.429,-0.215 -0.882,-0.586 -1.382,-1.133 V 3.719 c 0,-0.957 0.109,-1.59 0.308,-1.891 0.215,-0.297 0.652,-0.488 1.324,-0.566 0.149,-0.02 0.235,-0.149 0.235,-0.391 0,-0.265 -0.086,-0.402 -0.235,-0.402 -0.398,0 -0.882,0.023 -1.457,0.082 -0.629,0.058 -1.179,0.09 -1.652,0.09 -0.465,0 -1.008,-0.032 -1.625,-0.09 -0.57,-0.059 -1.055,-0.082 -1.457,-0.082 -0.152,0 -0.231,0.137 -0.231,0.402 0,0.242 0.079,0.371 0.231,0.391 0.832,0.109 1.371,0.305 1.613,0.597 0.242,0.301 0.363,0.918 0.363,1.86 V 9.09 c 0,0.773 -0.101,1.285 -0.304,1.523 -0.196,0.239 -0.633,0.403 -1.324,0.481 -0.153,0 -0.231,0.125 -0.231,0.375 0,0.234 0.078,0.348 0.231,0.348 0.964,0.242 1.757,0.515 2.398,0.812 0.641,0.313 1.043,0.563 1.203,0.754 0.102,0.117 0.207,0.176 0.324,0.176 0.27,0 0.403,-0.075 0.403,-0.235 L 565.813,11.5 c 1.398,1.293 2.695,1.942 3.89,1.942 1.32,0 2.344,-0.375 3.082,-1.129 0.742,-0.758 1.113,-1.77 1.113,-3.047 V 3.719 c 0,-0.953 0.118,-1.57 0.352,-1.86 0.238,-0.292 0.777,-0.488 1.598,-0.597 0.156,-0.02 0.234,-0.149 0.234,-0.391 z" /><path
         id="path5963"
         style="fill:#000000;fill-opacity:1;fill-rule:nonzero;stroke:none"
         d="m 611.094,0.871 c 0,-0.265 -0.082,-0.402 -0.235,-0.402 -0.648,0 -1.437,0.023 -2.367,0.082 -0.887,0.058 -1.625,0.09 -2.219,0.09 -0.593,0 -1.316,-0.032 -2.164,-0.09 -0.89,-0.059 -1.656,-0.082 -2.308,-0.082 -0.172,0 -0.262,0.137 -0.262,0.402 0,0.242 0.078,0.371 0.231,0.391 1.136,0.137 1.902,0.344 2.312,0.629 0.41,0.277 0.621,0.812 0.621,1.593 V 3.719 L 604.094,17.785 597.098,0.234 C 597.039,0.074 596.906,0 596.691,0 c -0.222,0 -0.351,0.074 -0.394,0.234 l -6.586,16.852 -1.047,-13.367 c -0.019,-0.168 -0.031,-0.313 -0.031,-0.434 0,-0.652 0.226,-1.117 0.668,-1.394 0.449,-0.285 1.238,-0.485 2.379,-0.614 0.14,-0.019 0.207,-0.152 0.207,-0.406 0,-0.265 -0.09,-0.402 -0.258,-0.402 -0.508,0 -1.199,0.023 -2.066,0.082 -0.817,0.058 -1.442,0.09 -1.887,0.09 -0.485,0 -1.145,-0.032 -1.977,-0.09 -0.801,-0.059 -1.418,-0.082 -1.855,-0.082 -0.141,0 -0.207,0.137 -0.207,0.402 0,0.242 0.09,0.371 0.265,0.391 1.219,0.148 2.059,0.375 2.528,0.683 0.468,0.309 0.742,0.903 0.808,1.774 l 1.508,13.66 c 0.012,0.172 0.016,0.328 0.016,0.465 0,0.625 -0.219,1.082 -0.668,1.363 -0.442,0.281 -1.25,0.496 -2.422,0.641 -0.133,0 -0.203,0.136 -0.203,0.402 0,0.098 0.031,0.192 0.09,0.277 0.054,0.086 0.113,0.133 0.171,0.133 0.356,0 0.868,-0.027 1.524,-0.09 0.562,-0.054 0.976,-0.086 1.234,-0.086 0.34,0 0.825,0.032 1.457,0.086 0.645,0.063 1.145,0.09 1.504,0.09 l 6.231,-16.16 6.445,16.16 c 0.383,0 0.895,-0.027 1.523,-0.09 0.571,-0.054 1.024,-0.086 1.352,-0.086 0.406,0 0.891,0.032 1.465,0.086 0.59,0.063 1.101,0.09 1.527,0.09 0.172,0 0.258,-0.133 0.258,-0.41 0,-0.266 -0.074,-0.402 -0.234,-0.402 -1.129,-0.141 -1.903,-0.344 -2.321,-0.625 -0.406,-0.281 -0.609,-0.813 -0.609,-1.598 v -0.246 l 0.672,-13.66 c 0.023,-0.68 0.125,-1.156 0.301,-1.422 0.179,-0.273 0.492,-0.488 0.929,-0.652 0.434,-0.157 1.059,-0.286 1.871,-0.383 0.153,-0.02 0.235,-0.149 0.235,-0.391 z" /><path
         id="path5965"
         style="fill:#000000;fill-opacity:1;fill-rule:nonzero;stroke:none"
         d="m 617.395,18.422 c 0,-0.406 -0.145,-0.758 -0.446,-1.059 -0.293,-0.3 -0.644,-0.449 -1.058,-0.449 -0.422,0 -0.778,0.149 -1.078,0.449 -0.286,0.301 -0.434,0.653 -0.434,1.059 0,0.426 0.148,0.785 0.434,1.074 0.292,0.293 0.652,0.438 1.078,0.438 0.414,0 0.765,-0.145 1.058,-0.438 0.301,-0.289 0.446,-0.648 0.446,-1.074 z m 2.039,-17.551 c 0,-0.265 -0.082,-0.402 -0.235,-0.402 -0.402,0 -0.906,0.023 -1.523,0.082 -0.699,0.058 -1.281,0.09 -1.758,0.09 -0.484,0 -1.066,-0.032 -1.746,-0.09 -0.606,-0.059 -1.113,-0.082 -1.508,-0.082 -0.152,0 -0.23,0.137 -0.23,0.402 0,0.242 0.078,0.371 0.23,0.391 0.824,0.109 1.356,0.305 1.586,0.597 0.238,0.29 0.359,0.907 0.359,1.86 V 9.09 c 0,0.773 -0.097,1.285 -0.304,1.523 -0.196,0.239 -0.621,0.403 -1.293,0.481 -0.153,0 -0.231,0.125 -0.231,0.375 0,0.234 0.078,0.348 0.231,0.348 1.019,0.265 1.851,0.539 2.496,0.828 0.652,0.3 1.055,0.547 1.222,0.738 0.102,0.117 0.208,0.176 0.317,0.176 0.273,0 0.406,-0.075 0.406,-0.235 -0.152,-2.164 -0.23,-3.847 -0.23,-5.05 V 3.719 c 0,-0.953 0.117,-1.57 0.351,-1.86 0.239,-0.292 0.781,-0.488 1.625,-0.597 0.153,-0.02 0.235,-0.149 0.235,-0.391 z" /><path
         id="path5967"
         style="fill:#000000;fill-opacity:1;fill-rule:nonzero;stroke:none"
         d="m 627.219,0.902 c 0,-0.273 -0.074,-0.41 -0.235,-0.41 -0.39,0 -0.898,0.028 -1.523,0.075 -0.695,0.046 -1.281,0.074 -1.758,0.074 -0.461,0 -1.039,-0.028 -1.719,-0.074 -0.625,-0.047 -1.132,-0.075 -1.527,-0.075 -0.156,0 -0.23,0.137 -0.23,0.41 0,0.239 0.074,0.372 0.23,0.391 0.824,0.098 1.352,0.289 1.598,0.582 0.246,0.301 0.371,0.922 0.371,1.871 v 13.488 c 0,0.782 -0.09,1.297 -0.285,1.536 -0.196,0.242 -0.641,0.402 -1.332,0.48 -0.161,0.024 -0.235,0.145 -0.235,0.363 0,0.235 0.074,0.348 0.235,0.348 1.011,0.266 1.839,0.539 2.492,0.828 0.644,0.301 1.054,0.555 1.219,0.754 0.097,0.109 0.203,0.16 0.32,0.16 0.269,0 0.406,-0.074 0.406,-0.234 -0.156,-2.164 -0.234,-3.848 -0.234,-5.047 V 3.746 c 0,-0.949 0.121,-1.57 0.367,-1.871 0.242,-0.293 0.777,-0.484 1.605,-0.582 0.161,-0.019 0.235,-0.152 0.235,-0.391 z" /><path
         id="path5969"
         style="fill:#000000;fill-opacity:1;fill-rule:nonzero;stroke:none"
         d="m 634.762,0.902 c 0,-0.273 -0.078,-0.41 -0.231,-0.41 -0.398,0 -0.906,0.028 -1.523,0.075 -0.699,0.046 -1.285,0.074 -1.758,0.074 -0.465,0 -1.039,-0.028 -1.727,-0.074 C 628.902,0.52 628.391,0.492 628,0.492 c -0.152,0 -0.234,0.137 -0.234,0.41 0,0.239 0.082,0.372 0.234,0.391 0.82,0.098 1.352,0.289 1.598,0.582 0.25,0.301 0.375,0.922 0.375,1.871 v 13.488 c 0,0.782 -0.098,1.297 -0.293,1.536 -0.192,0.242 -0.637,0.402 -1.332,0.48 -0.153,0.024 -0.231,0.145 -0.231,0.363 0,0.235 0.078,0.348 0.231,0.348 1.015,0.266 1.847,0.539 2.496,0.828 0.648,0.301 1.054,0.555 1.222,0.754 0.09,0.109 0.196,0.16 0.313,0.16 0.273,0 0.41,-0.074 0.41,-0.234 -0.156,-2.164 -0.23,-3.848 -0.23,-5.047 V 3.746 c 0,-0.949 0.121,-1.57 0.363,-1.871 0.238,-0.293 0.777,-0.484 1.609,-0.582 0.153,-0.019 0.231,-0.152 0.231,-0.391 z" /><path
         id="path5971"
         style="fill:#000000;fill-opacity:1;fill-rule:nonzero;stroke:none"
         d="m 640.59,18.422 c 0,-0.406 -0.149,-0.758 -0.445,-1.059 -0.293,-0.3 -0.645,-0.449 -1.059,-0.449 -0.418,0 -0.777,0.149 -1.082,0.449 -0.285,0.301 -0.43,0.653 -0.43,1.059 0,0.426 0.145,0.785 0.43,1.074 0.297,0.293 0.656,0.438 1.082,0.438 0.414,0 0.766,-0.145 1.059,-0.438 0.296,-0.289 0.445,-0.648 0.445,-1.074 z m 2.035,-17.551 c 0,-0.265 -0.078,-0.402 -0.23,-0.402 -0.403,0 -0.911,0.023 -1.528,0.082 -0.695,0.058 -1.281,0.09 -1.754,0.09 -0.484,0 -1.066,-0.032 -1.742,-0.09 -0.613,-0.059 -1.117,-0.082 -1.512,-0.082 -0.156,0 -0.234,0.137 -0.234,0.402 0,0.242 0.078,0.371 0.234,0.391 0.821,0.109 1.352,0.305 1.586,0.597 0.243,0.29 0.364,0.907 0.364,1.86 V 9.09 c 0,0.773 -0.106,1.285 -0.309,1.523 -0.195,0.239 -0.625,0.403 -1.293,0.481 -0.152,0 -0.23,0.125 -0.23,0.375 0,0.234 0.078,0.348 0.23,0.348 1.016,0.265 1.852,0.539 2.496,0.828 0.652,0.3 1.055,0.547 1.223,0.738 0.097,0.117 0.199,0.176 0.316,0.176 0.274,0 0.41,-0.075 0.41,-0.235 -0.152,-2.164 -0.23,-3.847 -0.23,-5.05 V 3.719 c 0,-0.953 0.113,-1.57 0.344,-1.86 0.246,-0.292 0.789,-0.488 1.629,-0.597 0.152,-0.02 0.23,-0.149 0.23,-0.391 z" /><path
         id="path5973"
         style="fill:#000000;fill-opacity:1;fill-rule:nonzero;stroke:none"
         d="m 666.867,0.871 c 0,-0.265 -0.078,-0.402 -0.234,-0.402 -0.391,0 -0.863,0.023 -1.426,0.082 -0.613,0.058 -1.172,0.09 -1.656,0.09 -0.473,0 -1.016,-0.032 -1.641,-0.09 -0.555,-0.059 -1.039,-0.082 -1.433,-0.082 -0.157,0 -0.235,0.137 -0.235,0.402 0,0.242 0.078,0.371 0.235,0.391 0.656,0.078 1.086,0.269 1.289,0.566 0.207,0.301 0.308,0.934 0.308,1.891 v 4.848 c 0,1.093 -0.207,1.886 -0.629,2.378 -0.414,0.504 -1.066,0.758 -1.957,0.758 -1.172,0 -2.14,-0.398 -2.902,-1.195 V 3.719 c 0,-0.957 0.105,-1.59 0.32,-1.891 0.211,-0.297 0.645,-0.488 1.305,-0.566 0.152,-0.02 0.23,-0.149 0.23,-0.391 0,-0.265 -0.078,-0.402 -0.23,-0.402 -0.391,0 -0.832,0.023 -1.352,0.082 -0.562,0.058 -1.074,0.09 -1.539,0.09 -0.48,0 -1.011,-0.032 -1.578,-0.09 -0.515,-0.059 -0.969,-0.082 -1.355,-0.082 -0.153,0 -0.231,0.137 -0.231,0.402 0,0.242 0.078,0.371 0.231,0.391 0.672,0.078 1.105,0.269 1.308,0.566 0.211,0.301 0.321,0.934 0.321,1.891 v 4.848 c 0,1.085 -0.215,1.878 -0.641,2.378 -0.422,0.504 -1.082,0.758 -1.973,0.758 -0.562,0 -1.058,-0.105 -1.496,-0.32 -0.426,-0.215 -0.886,-0.586 -1.379,-1.133 V 3.719 c 0,-0.957 0.102,-1.59 0.305,-1.891 0.215,-0.297 0.652,-0.488 1.32,-0.566 0.153,-0.02 0.235,-0.149 0.235,-0.391 0,-0.265 -0.082,-0.402 -0.235,-0.402 -0.39,0 -0.882,0.023 -1.449,0.082 -0.629,0.058 -1.18,0.09 -1.66,0.09 -0.484,0 -1.031,-0.032 -1.652,-0.09 -0.551,-0.059 -1.024,-0.082 -1.422,-0.082 -0.153,0 -0.231,0.137 -0.231,0.402 0,0.242 0.078,0.371 0.231,0.391 0.824,0.109 1.351,0.305 1.582,0.597 0.242,0.29 0.363,0.907 0.363,1.86 V 9.09 c 0,0.773 -0.101,1.285 -0.305,1.523 -0.191,0.239 -0.621,0.403 -1.289,0.481 -0.156,0 -0.234,0.125 -0.234,0.375 0,0.234 0.078,0.348 0.234,0.348 0.953,0.242 1.758,0.515 2.395,0.812 0.637,0.313 1.043,0.563 1.203,0.754 0.098,0.117 0.203,0.176 0.32,0.176 0.274,0 0.403,-0.075 0.403,-0.235 L 648.527,11.5 c 1.391,1.293 2.692,1.942 3.887,1.942 1.844,0 3.09,-0.708 3.75,-2.122 1.473,1.414 2.906,2.122 4.313,2.122 1.324,0 2.359,-0.375 3.089,-1.129 0.747,-0.758 1.118,-1.77 1.118,-3.047 V 3.719 c 0,-0.953 0.117,-1.57 0.347,-1.86 0.242,-0.292 0.782,-0.488 1.602,-0.597 0.156,-0.02 0.234,-0.149 0.234,-0.391 z" /><path
         id="path5975"
         style="fill:#000000;fill-opacity:1;fill-rule:nonzero;stroke:none"
         d="m 679.516,8.711 c 0,-0.269 -0.18,-0.406 -0.528,-0.406 h -7.949 c -0.062,-0.524 -0.094,-1.067 -0.094,-1.625 0,-1.563 0.371,-2.758 1.106,-3.602 0.746,-0.832 1.801,-1.25 3.164,-1.25 0.687,0 1.383,0.184 2.078,0.551 0.699,0.371 1.254,0.84 1.684,1.41 l 0.074,0.031 c 0.082,0 0.164,-0.05 0.242,-0.164 0.086,-0.105 0.133,-0.23 0.133,-0.371 0,-0.207 -0.309,-0.633 -0.93,-1.277 -0.617,-0.645 -1.289,-1.129 -2.016,-1.469 -0.73,-0.34 -1.484,-0.508 -2.277,-0.508 -1.75,0 -3.211,0.637 -4.402,1.914 -1.192,1.278 -1.789,2.848 -1.789,4.704 0,1.898 0.582,3.503 1.746,4.82 1.172,1.32 2.652,1.973 4.445,1.973 1.496,0 2.754,-0.489 3.77,-1.477 1.027,-0.981 1.543,-2.063 1.543,-3.254 z m -2.645,1.277 c 0,0.727 -0.25,1.329 -0.754,1.801 -0.496,0.481 -1.133,0.727 -1.914,0.727 -0.75,0 -1.398,-0.313 -1.945,-0.946 -0.543,-0.617 -0.91,-1.437 -1.11,-2.453 l 4.043,0.117 c 0.606,0.008 1.036,0.067 1.289,0.172 0.262,0.11 0.391,0.301 0.391,0.582 z" /><path
         id="path5977"
         style="fill:#000000;fill-opacity:1;fill-rule:nonzero;stroke:none"
         d="m 690.625,12.024 c 0,-0.524 -0.125,-0.786 -0.375,-0.786 l -4.328,0.114 V 4.383 c 0,-1.82 0.652,-2.723 1.949,-2.723 0.801,0 1.531,0.184 2.192,0.563 0.078,0 0.144,-0.055 0.199,-0.16 0.07,-0.098 0.101,-0.204 0.101,-0.321 0,-0.242 -0.363,-0.57 -1.086,-0.984 -0.718,-0.406 -1.523,-0.609 -2.425,-0.609 -1.102,0 -1.985,0.332 -2.637,0.996 -0.664,0.683 -0.988,1.57 -0.988,2.675 v 0.129 l 0.054,7.055 c 0,0.273 -0.117,0.41 -0.347,0.41 h -1.106 c -0.215,0 -0.316,0.125 -0.316,0.375 0,0.192 0.082,0.34 0.261,0.434 1.344,0.797 2.516,1.91 3.512,3.355 0.106,0.153 0.242,0.231 0.406,0.231 0.274,0 0.407,-0.078 0.407,-0.231 l -0.118,-2.773 h 4.27 c 0.25,0 0.375,-0.262 0.375,-0.781 z" /><path
         id="path5979"
         style="fill:#000000;fill-opacity:1;fill-rule:nonzero;stroke:none"
         d="m 703.785,8.711 c 0,-0.269 -0.176,-0.406 -0.519,-0.406 h -7.961 c -0.055,-0.524 -0.082,-1.067 -0.082,-1.625 0,-1.563 0.363,-2.758 1.101,-3.602 0.742,-0.832 1.797,-1.25 3.16,-1.25 0.692,0 1.383,0.184 2.082,0.551 0.696,0.371 1.254,0.84 1.68,1.41 l 0.074,0.031 c 0.086,0 0.168,-0.05 0.246,-0.164 0.09,-0.105 0.133,-0.23 0.133,-0.371 0,-0.207 -0.308,-0.633 -0.933,-1.277 -0.618,-0.645 -1.286,-1.129 -2.016,-1.469 -0.723,-0.34 -1.484,-0.508 -2.281,-0.508 -1.742,0 -3.203,0.637 -4.395,1.914 -1.187,1.278 -1.785,2.848 -1.785,4.704 0,1.898 0.578,3.503 1.738,4.82 1.172,1.32 2.653,1.973 4.442,1.973 1.5,0 2.761,-0.489 3.781,-1.477 1.023,-0.981 1.535,-2.063 1.535,-3.254 z m -2.64,1.277 c 0,0.727 -0.254,1.329 -0.758,1.801 -0.496,0.481 -1.133,0.727 -1.918,0.727 -0.742,0 -1.395,-0.313 -1.942,-0.946 -0.543,-0.617 -0.91,-1.437 -1.105,-2.453 l 4.039,0.117 c 0.609,0.008 1.043,0.067 1.289,0.172 0.262,0.11 0.395,0.301 0.395,0.582 z" /><path
         id="path5981"
         style="fill:#000000;fill-opacity:1;fill-rule:nonzero;stroke:none"
         d="m 707.695,5.633 c 0,-1.512 0,-2.524 -0.027,-3.484 0,-0.375 -0.203,-0.555 -0.641,-0.555 h -1.132 c -0.262,0 -0.317,-0.051 -0.317,-0.258 V 0.84 c 0,-0.231 0.055,-0.289 0.172,-0.289 0.18,0 1.395,0.09 3.195,0.09 1.567,0 2.903,-0.09 3.082,-0.09 0.114,0 0.145,0.09 0.145,0.266 v 0.519 c 0,0.176 -0.031,0.258 -0.207,0.258 h -1.363 c -0.606,0 -0.813,0.297 -0.813,1.191 v 6.098 c 0,0.09 0.117,0.613 0.285,0.93 0.5,0.929 1.25,1.222 1.719,1.222 0.379,0 0.723,-0.09 0.957,-0.234 0.23,-0.117 0.527,-0.234 0.84,-0.234 0.523,0 1.223,0.585 1.223,1.425 0,0.668 -0.493,1.278 -1.481,1.278 -1.254,0 -2.613,-1.188 -3.488,-2.528 h -0.117 l -0.141,2.004 c 0,0.176 -0.027,0.348 -0.207,0.348 -0.117,0 -0.231,-0.024 -0.402,-0.113 L 706.098,11.5 c -0.168,-0.086 -0.231,-0.148 -0.231,-0.262 v -0.175 c 0,-0.118 0.063,-0.145 0.231,-0.204 l 0.554,-0.292 c 0.813,-0.434 1.043,-0.723 1.043,-2.204 z" /></g></g></svg>