<?xml version="1.0" encoding="UTF-8" standalone="no"?>
<svg
   xmlns:dc="http://purl.org/dc/elements/1.1/"
   xmlns:cc="http://creativecommons.org/ns#"
   xmlns:rdf="http://www.w3.org/1999/02/22-rdf-syntax-ns#"
   xmlns:svg="http://www.w3.org/2000/svg"
   xmlns="http://www.w3.org/2000/svg"
   viewBox="0 0 1259.1364 830.88373"
   height="830.88373"
   width="1259.1364"
   xml:space="preserve"
   version="1.1"
   id="svg3969"><metadata
     id="metadata3975"><rdf:RDF><cc:Work
         rdf:about=""><dc:format>image/svg+xml</dc:format><dc:type
           rdf:resource="http://purl.org/dc/dcmitype/StillImage" /><dc:title></dc:title></cc:Work></rdf:RDF></metadata><defs
     id="defs3973" /><g
     transform="matrix(1.25,0,0,-1.25,0,830.88371)"
     id="g3977"><g
       id="g3979"><path
         id="path3981"
         style="fill:#000000;fill-opacity:1;fill-rule:evenodd;stroke:none"
         d="m 801.227,421.098 -72,124.711 L 503.547,415.512 278,545.727 206,421.019 359.547,332.371 207.113,244.363 l 72,-124.707 224.434,129.574 224.566,-129.652 72,124.707 -152.566,88.086 153.68,88.727 z" /><path
         id="path3983"
         style="fill:#ffffff;fill-opacity:1;fill-rule:evenodd;stroke:none"
         d="M 805.004,424.523 734.16,547.234 503.609,414.129 268.957,549.602 198.109,426.894 361.922,332.32 199.207,238.379 270.051,115.668 503.609,250.512 735.895,116.406 806.738,239.117 645.305,332.32 805.004,424.523 Z" /><path
         id="path3985"
         style="fill:#c1121c;fill-opacity:1;fill-rule:evenodd;stroke:none"
         d="M 0,124.789 72,0.078 279.848,120.078 207.57,244.629 0,124.789 Z" /><path
         id="path3987"
         style="fill:#c1121c;fill-opacity:1;fill-rule:evenodd;stroke:none"
         d="m 207.766,420 72,124.707 -207.844,120 L 0.195,539.84 207.766,420 Z" /><path
         id="path3989"
         style="fill:#c1121c;fill-opacity:1;fill-rule:evenodd;stroke:none"
         d="m 727.461,544.789 72,-124.711 207.848,120 -72.278,124.551 -207.57,-119.84 z" /><path
         id="path3991"
         style="fill:#c1121c;fill-opacity:1;fill-rule:evenodd;stroke:none"
         d="m 935.227,0 72,124.707 -207.844,120 L 727.656,119.84 935.227,0 Z" /><path
         id="path3993"
         style="fill:#c1121c;fill-opacity:1;fill-rule:evenodd;stroke:none"
         d="m 487.809,403.371 -10.364,-74.848 27.071,2.489 -7.977,-33.668 -10.891,5.027 7.129,-41.019 0.086,0.093 0.016,-0.105 27.422,30.269 -0.043,0.008 0.547,0.598 -11.895,1.566 20.953,61.082 -36.804,-10.73 21.91,56.621 -27.16,2.617 z" /></g></g></svg>