<?xml version="1.0" encoding="UTF-8" standalone="no"?>
<svg
   xmlns:dc="http://purl.org/dc/elements/1.1/"
   xmlns:cc="http://creativecommons.org/ns#"
   xmlns:rdf="http://www.w3.org/1999/02/22-rdf-syntax-ns#"
   xmlns:svg="http://www.w3.org/2000/svg"
   xmlns="http://www.w3.org/2000/svg"
   viewBox="0 0 1355.5114 966.29791"
   height="966.29791"
   width="1355.5114"
   xml:space="preserve"
   version="1.1"
   id="svg9482"><metadata
     id="metadata9488"><rdf:RDF><cc:Work
         rdf:about=""><dc:format>image/svg+xml</dc:format><dc:type
           rdf:resource="http://purl.org/dc/dcmitype/StillImage" /><dc:title></dc:title></cc:Work></rdf:RDF></metadata><defs
     id="defs9486" /><g
     transform="matrix(1.25,0,0,-1.25,0,966.29791)"
     id="g9490"><g
       id="g9492"><path
         id="path9494"
         style="fill:#000000;fill-opacity:1;fill-rule:evenodd;stroke:none"
         d="M 829.449,480.472 757.453,605.179 531.77,474.882 306.223,605.097 l -72,-124.707 153.547,-88.649 -152.434,-88.003 72,-124.707 224.434,129.574 224.57,-129.657 72,124.708 -152.57,88.089 153.683,88.727 -0.004,0 z" /><path
         id="path9496"
         style="fill:#ffffff;fill-opacity:1;fill-rule:evenodd;stroke:none"
         d="M 833.141,484.05 762.387,606.605 531.75,473.448 297.113,608.937 226.445,486.331 390.25,391.753 227.434,297.749 l 70.754,-122.554 233.589,134.964 232.36,-134.277 70.804,122.516 -161.64,93.367 c 53.226,30.746 106.621,61.535 159.84,92.285 z" /><path
         id="path9498"
         style="fill:#656565;fill-opacity:1;fill-rule:nonzero;stroke:none"
         d="m 1035.527,599.448 -1.136,-0.652 1.968,-3.41 1.137,0.652 c -0.687,1.188 -1.387,2.399 -1.969,3.41 z m 2.625,-4.546 -1.136,-0.653 1.968,-3.41 1.137,0.652 -1.969,3.411 z m 2.625,-4.547 -1.132,-0.657 1.968,-3.41 1.133,0.657 -1.969,3.41 z m 2.625,-4.547 -1.132,-0.652 1.968,-3.415 1.133,0.657 -1.969,3.41 z m 2.625,-4.547 -1.132,-0.656 1.964,-3.407 1.137,0.653 c -0.656,1.137 -1.316,2.281 -1.969,3.41 z m 2.625,-4.547 -1.132,-0.656 1.968,-3.406 1.133,0.652 c -0.656,1.137 -1.312,2.273 -1.969,3.41 z m 2.625,-4.547 -1.132,-0.652 1.968,-3.41 1.133,0.652 c -0.687,1.188 -1.383,2.395 -1.969,3.41 z m 2.625,-4.547 -1.132,-0.656 1.968,-3.41 1.133,0.656 -1.969,3.41 z m 2.625,-4.547 -1.132,-0.656 1.968,-3.41 1.133,0.652 c -0.656,1.137 -1.312,2.278 -1.969,3.414 z m 2.621,-4.55 -1.128,-0.653 1.968,-3.406 1.133,0.652 c -0.656,1.133 -1.328,2.278 -1.973,3.407 z m 2.629,-4.547 -1.132,-0.653 1.968,-3.41 1.133,0.657 c -0.684,1.187 -1.375,2.402 -1.969,3.406 z" /><path
         id="path9500"
         style="fill:#656565;fill-opacity:1;fill-rule:nonzero;stroke:none"
         d="m 1032.207,654.597 -1.176,-0.676 8.84,-15.39 -5.898,-1.958 17.652,-17.183 -5.91,23.918 -4.672,-4.102 -8.836,15.391 z" /><path
         id="path9502"
         style="fill:#656565;fill-opacity:1;fill-rule:nonzero;stroke:none"
         d="m 989.215,728.183 5.918,-23.914 4.672,4.101 8.293,-14.449 1.172,0.676 -8.293,14.445 5.898,1.961 -17.66,17.18 z" /><path
         id="path9504"
         style="fill:#656565;fill-opacity:1;fill-rule:nonzero;stroke:none"
         d="m 1019.336,675.613 c -0.059,0.222 -0.145,0.433 -0.254,0.621 -0.242,0.422 -0.586,0.793 -1.027,1.109 -0.442,0.32 -0.926,0.559 -1.45,0.715 -0.515,0.164 -1.046,0.238 -1.589,0.223 -0.536,-0.024 -1.024,-0.161 -1.469,-0.415 -0.508,-0.293 -0.817,-0.675 -0.922,-1.152 -0.102,-0.476 0,-0.969 0.289,-1.484 0.231,-0.399 0.563,-0.754 0.992,-1.071 0.434,-0.32 0.914,-0.566 1.434,-0.734 0.523,-0.168 1.055,-0.25 1.594,-0.242 0.546,0.012 1.054,0.148 1.515,0.414 0.399,0.226 0.672,0.519 0.824,0.875 0.165,0.355 0.184,0.73 0.063,1.141 z m 2.285,-1.469 c -0.18,-0.582 -0.43,-1.078 -0.754,-1.5 -0.316,-0.414 -0.734,-0.77 -1.254,-1.071 -0.484,-0.277 -0.996,-0.468 -1.539,-0.582 -0.539,-0.113 -1.094,-0.156 -1.652,-0.128 -0.555,0.027 -1.106,0.125 -1.649,0.285 -0.543,0.168 -1.062,0.39 -1.55,0.675 -0.489,0.274 -0.93,0.598 -1.328,0.977 -0.399,0.375 -0.735,0.801 -1.004,1.27 -0.313,0.546 -0.512,1.105 -0.594,1.671 -0.07,0.567 -0.043,1.106 0.086,1.622 0.137,0.511 0.379,0.984 0.715,1.421 0.343,0.442 0.773,0.813 1.289,1.106 0.496,0.281 1.015,0.484 1.562,0.609 0.555,0.117 1.11,0.157 1.672,0.114 0.567,-0.036 1.137,-0.145 1.707,-0.321 0.57,-0.183 1.121,-0.429 1.649,-0.746 0.293,0.543 0.726,0.981 1.3,1.309 0.547,0.312 1.141,0.496 1.782,0.539 0.648,0.051 1.281,-0.012 1.898,-0.184 0.621,-0.179 1.195,-0.461 1.719,-0.844 0.535,-0.386 0.961,-0.855 1.277,-1.41 0.254,-0.437 0.402,-0.883 0.457,-1.34 0.051,-0.453 0.024,-0.886 -0.09,-1.296 -0.105,-0.418 -0.297,-0.797 -0.566,-1.145 -0.262,-0.34 -0.59,-0.621 -0.981,-0.848 -0.613,-0.347 -1.281,-0.535 -2.015,-0.558 -0.723,-0.024 -1.434,0.101 -2.137,0.375 z m -0.66,3.621 c 0.016,-0.094 0.07,-0.215 0.156,-0.363 0.133,-0.239 0.336,-0.457 0.598,-0.661 0.273,-0.207 0.57,-0.363 0.894,-0.472 0.329,-0.106 0.664,-0.16 1.012,-0.16 0.352,-0.008 0.68,0.078 0.984,0.254 0.278,0.156 0.442,0.363 0.493,0.617 0.054,0.25 0,0.523 -0.168,0.816 -0.153,0.266 -0.371,0.496 -0.66,0.695 -0.286,0.204 -0.594,0.348 -0.93,0.446 -0.324,0.097 -0.664,0.14 -1.012,0.133 -0.336,-0.012 -0.637,-0.094 -0.89,-0.239 -0.239,-0.14 -0.399,-0.3 -0.469,-0.492 -0.071,-0.183 -0.071,-0.379 -0.01,-0.574 z" /><path
         id="path9506"
         style="fill:#656565;fill-opacity:1;fill-rule:nonzero;stroke:none"
         d="m 1007.496,681.46 c -0.578,-0.164 -0.992,-0.027 -1.254,0.414 -0.222,0.371 -0.301,0.703 -0.242,1 0.07,0.289 0.223,0.504 0.453,0.641 0.113,0.066 0.258,0.125 0.426,0.172 l 10.492,2.929 -0.242,0.079 c -0.149,0.058 -0.277,0.132 -0.391,0.222 -0.113,0.09 -0.199,0.184 -0.261,0.285 -0.063,0.11 -0.102,0.243 -0.11,0.403 0,0.16 0.028,0.316 0.067,0.48 0.046,0.156 0.117,0.305 0.207,0.446 0.093,0.132 0.203,0.238 0.332,0.312 0.269,0.16 0.605,0.164 1.004,0.012 l 3.476,-1.344 c 0.258,-0.102 0.445,-0.254 0.57,-0.465 0.102,-0.176 0.168,-0.34 0.192,-0.5 0.023,-0.156 0.019,-0.308 -0.02,-0.449 -0.031,-0.137 -0.086,-0.258 -0.164,-0.356 -0.078,-0.105 -0.172,-0.195 -0.289,-0.261 -0.113,-0.067 -0.246,-0.121 -0.398,-0.157 l -13.848,-3.863 z" /><path
         id="path9508"
         style="fill:#656565;fill-opacity:1;fill-rule:nonzero;stroke:none"
         d="m 1033.305,667.956 c 0.293,-0.5 0.453,-1.015 0.476,-1.554 0.028,-0.539 -0.078,-1.075 -0.312,-1.598 -0.231,-0.535 -0.574,-1.043 -1.039,-1.531 -0.461,-0.492 -1.032,-0.934 -1.703,-1.332 -0.743,-0.438 -1.547,-0.789 -2.407,-1.059 -0.851,-0.269 -1.718,-0.457 -2.597,-0.559 -0.868,-0.109 -1.735,-0.128 -2.59,-0.066 -0.856,0.055 -1.649,0.195 -2.387,0.418 -0.73,0.215 -1.383,0.512 -1.961,0.891 -0.57,0.379 -1.015,0.84 -1.332,1.375 -0.293,0.492 -0.453,1.007 -0.48,1.543 -0.024,0.539 0.074,1.074 0.297,1.601 0.226,0.524 0.57,1.028 1.035,1.52 0.468,0.488 1.047,0.941 1.742,1.351 0.73,0.43 1.519,0.778 2.371,1.051 0.852,0.266 1.715,0.457 2.582,0.563 0.875,0.113 1.742,0.14 2.594,0.082 0.855,-0.059 1.652,-0.192 2.39,-0.403 0.743,-0.218 1.399,-0.519 1.969,-0.902 0.574,-0.375 1.024,-0.84 1.352,-1.391 z m -1.875,-1.453 c -0.01,0.07 -0.047,0.164 -0.114,0.281 -0.199,0.332 -0.511,0.614 -0.941,0.844 -0.422,0.235 -0.918,0.41 -1.492,0.531 -0.559,0.118 -1.176,0.184 -1.84,0.196 -0.66,0.008 -1.332,-0.035 -2.02,-0.129 -0.679,-0.098 -1.347,-0.25 -2.007,-0.461 -0.653,-0.211 -1.254,-0.477 -1.797,-0.801 -0.383,-0.226 -0.719,-0.465 -1,-0.719 -0.278,-0.25 -0.492,-0.496 -0.649,-0.746 -0.148,-0.242 -0.242,-0.484 -0.273,-0.718 -0.024,-0.239 0.023,-0.461 0.144,-0.665 0.2,-0.332 0.504,-0.613 0.926,-0.839 0.422,-0.227 0.918,-0.399 1.481,-0.512 0.562,-0.125 1.179,-0.195 1.843,-0.207 0.664,-0.016 1.34,0.023 2.028,0.117 0.687,0.098 1.355,0.25 2.011,0.465 0.661,0.207 1.266,0.476 1.817,0.801 0.68,0.398 1.187,0.828 1.523,1.285 0.332,0.457 0.453,0.883 0.36,1.277 z" /><path
         id="path9510"
         style="fill:#646464;fill-opacity:1;fill-rule:nonzero;stroke:none"
         d="m 930.027,514.777 c -0.035,-0.493 -0.203,-0.825 -0.496,-0.993 -0.144,-0.086 -0.301,-0.136 -0.472,-0.156 -0.176,-0.015 -0.344,-0.004 -0.504,0.035 -0.16,0.039 -0.309,0.094 -0.438,0.168 -0.133,0.078 -0.23,0.176 -0.297,0.285 -0.109,0.196 -0.168,0.446 -0.168,0.75 0.004,0.309 0.047,0.629 0.121,0.961 0.082,0.344 0.188,0.68 0.321,1.008 0.136,0.34 0.273,0.637 0.414,0.891 0.515,0.906 1.183,1.597 2.004,2.074 0.48,0.273 0.968,0.449 1.465,0.52 0.507,0.074 0.996,0.05 1.464,-0.071 0.469,-0.113 0.903,-0.324 1.309,-0.633 0.406,-0.296 0.746,-0.683 1.02,-1.16 0.23,-0.398 0.402,-0.816 0.507,-1.261 0.11,-0.442 0.161,-0.895 0.161,-1.36 -0.008,-0.457 -0.071,-0.922 -0.192,-1.39 -0.125,-0.465 -0.297,-0.914 -0.512,-1.356 0.426,-0.18 0.793,-0.402 1.106,-0.668 0.308,-0.265 0.582,-0.601 0.812,-1.004 0.243,-0.418 0.414,-0.867 0.512,-1.34 0.109,-0.468 0.148,-0.953 0.129,-1.441 -0.02,-0.492 -0.102,-0.984 -0.238,-1.473 -0.137,-0.48 -0.332,-0.937 -0.575,-1.375 -0.238,-0.433 -0.527,-0.832 -0.867,-1.195 -0.34,-0.359 -0.722,-0.664 -1.148,-0.91 -0.442,-0.258 -0.914,-0.43 -1.414,-0.516 -0.492,-0.082 -0.969,-0.078 -1.434,0.02 -0.465,0.097 -0.902,0.285 -1.301,0.558 -0.402,0.27 -0.734,0.633 -0.996,1.086 -0.183,0.321 -0.234,0.614 -0.152,0.875 0.086,0.278 0.305,0.516 0.656,0.719 0.59,0.34 1.09,0.211 1.504,-0.383 0.223,-0.328 0.508,-0.523 0.852,-0.594 0.347,-0.062 0.722,0.024 1.121,0.254 0.332,0.192 0.629,0.469 0.883,0.825 0.257,0.367 0.457,0.765 0.593,1.191 0.137,0.426 0.2,0.863 0.184,1.309 -0.012,0.445 -0.125,0.851 -0.336,1.218 -0.23,0.399 -0.527,0.637 -0.895,0.711 -0.367,0.075 -0.746,0 -1.136,-0.226 -0.137,-0.078 -0.282,-0.125 -0.43,-0.141 -0.141,-0.012 -0.281,0 -0.426,0.039 -0.144,0.039 -0.281,0.106 -0.402,0.199 -0.117,0.098 -0.215,0.215 -0.297,0.352 -0.078,0.137 -0.129,0.277 -0.152,0.422 -0.02,0.156 -0.012,0.305 0.019,0.445 0.039,0.141 0.098,0.274 0.18,0.391 0.082,0.125 0.191,0.226 0.32,0.301 0.332,0.199 0.625,0.48 0.891,0.839 0.258,0.368 0.453,0.766 0.59,1.192 0.136,0.429 0.203,0.859 0.191,1.301 -0.012,0.445 -0.125,0.851 -0.336,1.214 -0.101,0.18 -0.226,0.325 -0.371,0.442 -0.141,0.121 -0.297,0.203 -0.473,0.25 -0.168,0.051 -0.355,0.058 -0.562,0.027 -0.211,-0.027 -0.43,-0.105 -0.652,-0.23 -0.235,-0.137 -0.454,-0.317 -0.657,-0.539 -0.195,-0.219 -0.367,-0.465 -0.511,-0.739 -0.145,-0.265 -0.258,-0.55 -0.348,-0.855 -0.082,-0.289 -0.129,-0.578 -0.141,-0.863 z" /><path
         id="path9512"
         style="fill:#646464;fill-opacity:1;fill-rule:nonzero;stroke:none"
         d="m 941.258,526.003 c 0.508,0.293 1.035,0.449 1.582,0.469 0.547,0.019 1.086,-0.09 1.617,-0.332 0.539,-0.238 1.055,-0.594 1.547,-1.07 0.492,-0.473 0.934,-1.055 1.332,-1.739 0.437,-0.758 0.785,-1.578 1.047,-2.453 0.265,-0.867 0.449,-1.746 0.547,-2.64 0.097,-0.883 0.113,-1.758 0.039,-2.629 -0.067,-0.868 -0.215,-1.672 -0.449,-2.414 -0.227,-0.743 -0.532,-1.403 -0.918,-1.985 -0.395,-0.574 -0.864,-1.019 -1.411,-1.336 -0.503,-0.289 -1.027,-0.449 -1.57,-0.472 -0.547,-0.02 -1.086,0.086 -1.621,0.316 -0.527,0.234 -1.039,0.59 -1.531,1.066 -0.496,0.481 -0.946,1.071 -1.352,1.778 -0.429,0.746 -0.777,1.551 -1.043,2.418 -0.265,0.867 -0.449,1.742 -0.551,2.625 -0.101,0.886 -0.121,1.765 -0.054,2.633 0.066,0.867 0.211,1.671 0.433,2.418 0.227,0.75 0.539,1.414 0.93,1.988 0.387,0.582 0.863,1.035 1.426,1.359 z m 1.457,-1.918 c -0.074,-0.008 -0.168,-0.043 -0.289,-0.113 -0.34,-0.195 -0.625,-0.508 -0.864,-0.941 -0.242,-0.43 -0.425,-0.93 -0.554,-1.512 -0.125,-0.567 -0.196,-1.188 -0.219,-1.863 -0.012,-0.668 0.023,-1.352 0.113,-2.051 0.094,-0.688 0.243,-1.367 0.45,-2.043 0.207,-0.664 0.472,-1.274 0.793,-1.828 0.226,-0.391 0.464,-0.735 0.718,-1.024 0.254,-0.281 0.504,-0.504 0.75,-0.664 0.246,-0.152 0.489,-0.25 0.731,-0.285 0.238,-0.027 0.465,0.023 0.676,0.141 0.339,0.199 0.625,0.507 0.859,0.929 0.23,0.43 0.41,0.93 0.535,1.5 0.133,0.571 0.207,1.196 0.227,1.867 0.019,0.676 -0.012,1.36 -0.102,2.059 -0.09,0.699 -0.238,1.379 -0.449,2.043 -0.203,0.672 -0.469,1.289 -0.793,1.852 -0.402,0.695 -0.832,1.211 -1.293,1.554 -0.457,0.348 -0.891,0.473 -1.289,0.379 z" /><path
         id="path9514"
         style="fill:#646464;fill-opacity:1;fill-rule:nonzero;stroke:none"
         d="m 952.664,532.589 c 0.512,0.293 1.039,0.453 1.586,0.469 0.547,0.019 1.086,-0.09 1.617,-0.332 0.539,-0.238 1.055,-0.594 1.543,-1.07 0.492,-0.473 0.938,-1.051 1.332,-1.739 0.438,-0.758 0.789,-1.574 1.051,-2.453 0.266,-0.867 0.445,-1.746 0.543,-2.641 0.102,-0.882 0.113,-1.757 0.043,-2.628 -0.067,-0.864 -0.215,-1.668 -0.449,-2.414 -0.227,-0.739 -0.532,-1.403 -0.922,-1.981 -0.391,-0.574 -0.86,-1.023 -1.41,-1.34 -0.504,-0.289 -1.024,-0.449 -1.567,-0.472 -0.547,-0.02 -1.09,0.085 -1.621,0.316 -0.531,0.238 -1.039,0.59 -1.531,1.066 -0.496,0.481 -0.945,1.075 -1.356,1.778 -0.429,0.746 -0.777,1.55 -1.039,2.418 -0.265,0.867 -0.449,1.742 -0.55,2.625 -0.102,0.89 -0.122,1.765 -0.055,2.632 0.066,0.868 0.211,1.672 0.433,2.418 0.227,0.754 0.536,1.415 0.93,1.989 0.387,0.582 0.86,1.035 1.422,1.359 z m 1.461,-1.914 c -0.074,-0.008 -0.172,-0.047 -0.289,-0.113 -0.34,-0.199 -0.629,-0.512 -0.863,-0.946 -0.243,-0.425 -0.43,-0.929 -0.555,-1.507 -0.125,-0.571 -0.199,-1.192 -0.219,-1.868 -0.011,-0.668 0.024,-1.351 0.113,-2.05 0.094,-0.688 0.243,-1.368 0.446,-2.043 0.211,-0.66 0.476,-1.27 0.797,-1.828 0.226,-0.391 0.465,-0.731 0.718,-1.02 0.25,-0.285 0.5,-0.504 0.75,-0.664 0.247,-0.156 0.489,-0.25 0.727,-0.289 0.242,-0.024 0.469,0.023 0.676,0.144 0.34,0.196 0.629,0.504 0.863,0.93 0.231,0.43 0.41,0.926 0.535,1.496 0.129,0.571 0.207,1.196 0.227,1.871 0.019,0.672 -0.016,1.36 -0.102,2.055 -0.09,0.699 -0.238,1.379 -0.449,2.043 -0.207,0.676 -0.473,1.293 -0.797,1.855 -0.398,0.692 -0.828,1.211 -1.289,1.555 -0.461,0.344 -0.891,0.469 -1.289,0.379 z" /><path
         id="path9516"
         style="fill:#646464;fill-opacity:1;fill-rule:nonzero;stroke:none"
         d="m 469.355,459.972 c 0.165,-0.586 0.02,-1.012 -0.429,-1.27 -0.379,-0.218 -0.719,-0.296 -1.016,-0.234 -0.297,0.074 -0.512,0.227 -0.648,0.465 -0.067,0.117 -0.125,0.262 -0.172,0.433 l -2.867,10.672 -0.082,-0.246 c -0.063,-0.148 -0.137,-0.277 -0.231,-0.394 -0.09,-0.114 -0.187,-0.2 -0.293,-0.258 -0.109,-0.067 -0.246,-0.102 -0.41,-0.106 -0.156,0.004 -0.32,0.028 -0.484,0.071 -0.161,0.047 -0.309,0.117 -0.45,0.211 -0.132,0.097 -0.238,0.211 -0.312,0.34 -0.16,0.277 -0.16,0.617 0,1.019 l 1.394,3.512 c 0.102,0.261 0.262,0.453 0.477,0.578 0.176,0.101 0.348,0.164 0.508,0.187 0.16,0.024 0.312,0.016 0.457,-0.023 0.141,-0.031 0.262,-0.09 0.359,-0.172 0.106,-0.078 0.196,-0.176 0.262,-0.293 0.066,-0.117 0.121,-0.254 0.156,-0.406 l 3.781,-14.086 z" /><path
         id="path9518"
         style="fill:#646464;fill-opacity:1;fill-rule:nonzero;stroke:none"
         d="m 471.336,474.378 c -0.039,-0.492 -0.203,-0.824 -0.5,-0.992 -0.141,-0.086 -0.301,-0.137 -0.473,-0.156 -0.172,-0.016 -0.34,-0.004 -0.504,0.035 -0.16,0.039 -0.304,0.094 -0.433,0.168 -0.133,0.078 -0.235,0.176 -0.297,0.285 -0.113,0.195 -0.172,0.445 -0.172,0.75 0.004,0.309 0.047,0.629 0.125,0.961 0.082,0.344 0.188,0.68 0.32,1.008 0.133,0.34 0.274,0.636 0.414,0.89 0.512,0.911 1.18,1.598 2.004,2.075 0.477,0.277 0.965,0.449 1.465,0.519 0.504,0.074 0.992,0.051 1.465,-0.07 0.465,-0.113 0.902,-0.324 1.305,-0.629 0.406,-0.297 0.746,-0.684 1.023,-1.164 0.231,-0.399 0.399,-0.817 0.508,-1.262 0.105,-0.441 0.16,-0.894 0.156,-1.359 -0.008,-0.457 -0.07,-0.922 -0.191,-1.391 -0.121,-0.465 -0.293,-0.914 -0.512,-1.355 0.426,-0.18 0.797,-0.403 1.106,-0.668 0.312,-0.266 0.582,-0.602 0.816,-1.004 0.242,-0.418 0.41,-0.867 0.512,-1.34 0.105,-0.469 0.148,-0.949 0.125,-1.441 -0.02,-0.493 -0.098,-0.981 -0.235,-1.469 -0.14,-0.485 -0.332,-0.942 -0.578,-1.379 -0.234,-0.434 -0.523,-0.832 -0.863,-1.195 -0.34,-0.36 -0.723,-0.664 -1.149,-0.911 -0.445,-0.253 -0.918,-0.425 -1.414,-0.515 -0.492,-0.082 -0.972,-0.078 -1.437,0.019 -0.465,0.098 -0.899,0.285 -1.301,0.559 -0.402,0.273 -0.73,0.633 -0.992,1.086 -0.184,0.32 -0.238,0.613 -0.156,0.879 0.086,0.273 0.304,0.511 0.66,0.719 0.586,0.335 1.086,0.21 1.504,-0.387 0.218,-0.324 0.504,-0.524 0.851,-0.594 0.348,-0.062 0.719,0.023 1.117,0.254 0.336,0.191 0.629,0.469 0.887,0.824 0.258,0.367 0.453,0.766 0.59,1.192 0.137,0.425 0.199,0.863 0.188,1.308 -0.016,0.445 -0.125,0.852 -0.336,1.219 -0.231,0.398 -0.532,0.637 -0.895,0.711 -0.367,0.078 -0.746,0 -1.141,-0.227 -0.136,-0.078 -0.277,-0.125 -0.425,-0.14 -0.141,-0.012 -0.285,0 -0.43,0.039 -0.145,0.039 -0.277,0.105 -0.402,0.199 -0.118,0.098 -0.215,0.215 -0.293,0.352 -0.082,0.14 -0.133,0.281 -0.153,0.421 -0.019,0.157 -0.015,0.305 0.02,0.446 0.039,0.144 0.097,0.273 0.18,0.39 0.082,0.125 0.187,0.227 0.32,0.301 0.328,0.199 0.625,0.481 0.887,0.84 0.257,0.367 0.457,0.766 0.593,1.191 0.137,0.43 0.2,0.864 0.192,1.301 -0.016,0.445 -0.125,0.852 -0.336,1.219 -0.106,0.176 -0.227,0.32 -0.371,0.437 -0.141,0.121 -0.297,0.204 -0.473,0.25 -0.168,0.051 -0.359,0.059 -0.566,0.028 -0.211,-0.028 -0.426,-0.102 -0.649,-0.231 -0.234,-0.136 -0.453,-0.316 -0.656,-0.539 -0.199,-0.215 -0.371,-0.465 -0.516,-0.738 -0.14,-0.266 -0.258,-0.551 -0.343,-0.852 -0.082,-0.293 -0.129,-0.582 -0.141,-0.867 z" /><path
         id="path9520"
         style="fill:#646464;fill-opacity:1;fill-rule:nonzero;stroke:none"
         d="m 485.809,487.476 c 0.679,0.394 1.214,0.25 1.605,-0.43 0.391,-0.672 0.246,-1.207 -0.434,-1.598 l -5.292,-3.054 1.019,-3.805 c 0.406,0.453 0.879,0.836 1.414,1.145 0.496,0.289 1.008,0.461 1.531,0.519 0.532,0.063 1.043,0.02 1.539,-0.133 0.5,-0.136 0.957,-0.375 1.375,-0.707 0.426,-0.328 0.786,-0.75 1.082,-1.257 0.286,-0.497 0.493,-1.02 0.618,-1.567 0.121,-0.547 0.175,-1.101 0.16,-1.66 -0.02,-0.559 -0.102,-1.109 -0.246,-1.656 -0.141,-0.543 -0.336,-1.055 -0.586,-1.539 -0.258,-0.481 -0.563,-0.914 -0.922,-1.305 -0.352,-0.387 -0.746,-0.703 -1.176,-0.953 -0.391,-0.227 -0.801,-0.387 -1.223,-0.485 -0.421,-0.085 -0.835,-0.105 -1.25,-0.054 -0.406,0.054 -0.8,0.172 -1.183,0.351 -0.383,0.184 -0.738,0.434 -1.059,0.746 -0.105,0.114 -0.195,0.231 -0.269,0.356 -0.071,0.125 -0.117,0.254 -0.133,0.391 -0.012,0.14 0.004,0.285 0.055,0.425 0.046,0.141 0.128,0.274 0.238,0.399 0.113,0.136 0.262,0.258 0.445,0.363 0.418,0.242 0.852,0.156 1.301,-0.258 0.281,-0.281 0.59,-0.433 0.918,-0.461 0.324,-0.023 0.656,0.063 0.988,0.258 0.25,0.141 0.477,0.336 0.688,0.578 0.207,0.242 0.386,0.516 0.531,0.817 0.156,0.308 0.277,0.632 0.363,0.98 0.094,0.352 0.149,0.699 0.164,1.051 0.012,0.355 -0.015,0.707 -0.086,1.058 -0.078,0.356 -0.203,0.688 -0.375,0.985 -0.269,0.465 -0.605,0.769 -1.007,0.91 -0.407,0.141 -0.84,0.078 -1.301,-0.191 -0.192,-0.11 -0.363,-0.227 -0.52,-0.348 -0.152,-0.125 -0.304,-0.277 -0.453,-0.461 -0.144,-0.168 -0.297,-0.383 -0.453,-0.641 -0.156,-0.254 -0.34,-0.574 -0.547,-0.953 -0.066,-0.129 -0.137,-0.234 -0.207,-0.316 -0.074,-0.086 -0.164,-0.16 -0.266,-0.219 -0.179,-0.105 -0.347,-0.168 -0.507,-0.187 -0.16,-0.024 -0.313,-0.02 -0.453,0.011 -0.133,0.035 -0.25,0.094 -0.348,0.176 -0.102,0.082 -0.184,0.18 -0.246,0.289 -0.043,0.055 -0.078,0.117 -0.11,0.188 -0.023,0.074 -0.046,0.152 -0.07,0.234 l -1.918,7.125 c -0.203,0.598 -0.023,1.059 0.547,1.387 l 6.059,3.496 z" /><path
         id="path9522"
         style="fill:#646464;fill-opacity:1;fill-rule:nonzero;stroke:none"
         d="m 493.461,491.898 c 0.512,0.293 1.039,0.449 1.586,0.468 0.547,0.02 1.086,-0.089 1.617,-0.332 0.539,-0.238 1.055,-0.593 1.543,-1.07 0.492,-0.473 0.938,-1.055 1.332,-1.738 0.438,-0.758 0.789,-1.578 1.051,-2.453 0.265,-0.867 0.445,-1.746 0.543,-2.641 0.101,-0.883 0.117,-1.758 0.043,-2.629 -0.067,-0.867 -0.215,-1.672 -0.449,-2.414 -0.227,-0.742 -0.532,-1.402 -0.922,-1.984 -0.391,-0.574 -0.86,-1.02 -1.41,-1.336 -0.5,-0.289 -1.024,-0.449 -1.567,-0.473 -0.547,-0.019 -1.09,0.086 -1.621,0.317 -0.531,0.234 -1.039,0.589 -1.531,1.066 -0.496,0.48 -0.946,1.074 -1.356,1.777 -0.429,0.746 -0.777,1.551 -1.039,2.418 -0.265,0.867 -0.449,1.742 -0.551,2.625 -0.101,0.891 -0.121,1.766 -0.054,2.633 0.066,0.867 0.211,1.672 0.433,2.418 0.227,0.75 0.539,1.414 0.93,1.988 0.387,0.582 0.863,1.035 1.422,1.36 z m 1.461,-1.914 c -0.074,-0.008 -0.172,-0.047 -0.289,-0.118 -0.34,-0.195 -0.629,-0.507 -0.863,-0.941 -0.243,-0.43 -0.426,-0.93 -0.555,-1.512 -0.125,-0.566 -0.199,-1.187 -0.219,-1.863 -0.012,-0.668 0.024,-1.352 0.113,-2.051 0.094,-0.687 0.243,-1.367 0.45,-2.043 0.207,-0.664 0.472,-1.273 0.793,-1.828 0.226,-0.39 0.464,-0.73 0.718,-1.019 0.25,-0.286 0.5,-0.504 0.75,-0.668 0.246,-0.153 0.489,-0.25 0.727,-0.285 0.242,-0.028 0.469,0.023 0.676,0.144 0.339,0.195 0.629,0.504 0.863,0.926 0.23,0.43 0.41,0.93 0.535,1.5 0.129,0.57 0.207,1.195 0.227,1.867 0.019,0.676 -0.016,1.359 -0.102,2.059 -0.09,0.699 -0.238,1.379 -0.449,2.043 -0.207,0.671 -0.469,1.289 -0.797,1.851 -0.398,0.695 -0.828,1.211 -1.289,1.559 -0.461,0.343 -0.891,0.468 -1.289,0.379 z" /><path
         id="path9524"
         style="fill:#656565;fill-opacity:1;fill-rule:nonzero;stroke:none"
         d="m 935.309,773.038 -1.133,-0.652 1.969,-3.41 1.132,0.652 c -0.687,1.188 -1.382,2.399 -1.968,3.41 z m 2.625,-4.547 -1.133,-0.652 1.969,-3.41 1.132,0.652 -1.968,3.41 z m 2.625,-4.546 -1.133,-0.657 1.969,-3.41 1.132,0.656 -1.968,3.411 z m 2.625,-4.547 -1.133,-0.653 1.969,-3.414 1.132,0.657 -1.968,3.41 z m 2.625,-4.547 -1.133,-0.656 1.969,-3.407 1.132,0.653 c -0.656,1.136 -1.316,2.281 -1.968,3.41 z m 2.625,-4.547 -1.133,-0.656 1.969,-3.407 1.132,0.653 c -0.656,1.137 -1.312,2.273 -1.968,3.41 z m 2.625,-4.547 -1.133,-0.652 1.969,-3.41 1.132,0.652 c -0.683,1.187 -1.382,2.394 -1.968,3.41 z m 2.625,-4.547 -1.133,-0.656 1.969,-3.41 1.132,0.656 -1.968,3.41 z m 2.625,-4.547 -1.133,-0.656 1.969,-3.41 1.132,0.652 c -0.656,1.137 -1.312,2.278 -1.968,3.414 z m 2.621,-4.55 -1.129,-0.653 1.969,-3.41 1.132,0.656 c -0.652,1.133 -1.328,2.278 -1.972,3.407 z m 2.629,-4.547 -1.133,-0.653 1.969,-3.41 1.132,0.656 c -0.683,1.188 -1.375,2.399 -1.968,3.407 z" /><path
         id="path9526"
         style="fill:#656565;fill-opacity:1;fill-rule:nonzero;stroke:none"
         d="M 1.133,233.695 0,233.038 l 1.969,-3.41 1.133,0.656 c -0.684,1.188 -1.383,2.395 -1.969,3.411 z m 2.625,-4.547 -1.133,-0.657 1.969,-3.41 1.133,0.657 -1.969,3.41 z m 2.625,-4.547 -1.133,-0.656 1.969,-3.411 1.133,0.657 -1.969,3.41 z m 2.629,-4.551 -1.137,-0.652 1.969,-3.41 1.136,0.652 -1.968,3.41 z m 2.621,-4.547 -1.133,-0.652 1.969,-3.41 1.133,0.656 c -0.653,1.133 -1.313,2.277 -1.969,3.406 z m 2.629,-4.547 -1.137,-0.652 1.969,-3.41 1.133,0.656 c -0.653,1.133 -1.313,2.273 -1.965,3.406 z m 2.625,-4.547 -1.137,-0.652 1.969,-3.41 1.136,0.652 c -0.687,1.188 -1.382,2.395 -1.968,3.41 z m 2.625,-4.543 -1.137,-0.656 1.973,-3.41 1.132,0.652 -1.968,3.414 z m 2.625,-4.55 -1.137,-0.653 1.973,-3.41 1.132,0.653 c -0.656,1.136 -1.316,2.277 -1.968,3.41 z m 2.625,-4.547 -1.133,-0.653 1.969,-3.41 1.136,0.657 c -0.656,1.132 -1.328,2.277 -1.972,3.41 l 0,-0.004 z m 2.625,-4.547 -1.133,-0.652 1.969,-3.411 1.132,0.653 c -0.687,1.187 -1.378,2.402 -1.968,3.41 z" /><path
         id="path9528"
         style="fill:#656565;fill-opacity:1;fill-rule:nonzero;stroke:none"
         d="m 1084.41,627.671 -0.656,1.137 -3.41,-1.969 0.656,-1.137 c 1.188,0.688 2.395,1.383 3.41,1.969 z m -4.547,-2.625 -0.656,1.137 -3.41,-1.969 0.656,-1.137 3.41,1.969 z m -4.547,-2.625 -0.656,1.133 -3.41,-1.969 0.656,-1.133 3.41,1.969 z m -4.55,-2.625 -0.653,1.133 -3.41,-1.969 0.652,-1.133 3.411,1.969 z m -4.543,-2.625 -0.657,1.133 -3.41,-1.969 0.656,-1.133 c 1.133,0.657 2.278,1.317 3.411,1.969 z m -4.551,-2.625 -0.652,1.133 -3.411,-1.969 0.657,-1.133 c 1.136,0.657 2.273,1.313 3.406,1.969 z m -4.543,-2.625 -0.656,1.133 -3.411,-1.969 0.653,-1.133 c 1.187,0.684 2.398,1.383 3.414,1.969 z m -4.547,-2.625 -0.656,1.133 -3.41,-1.969 0.656,-1.133 3.41,1.969 z m -4.551,-2.625 -0.652,1.133 -3.41,-1.969 0.652,-1.133 c 1.137,0.653 2.277,1.313 3.41,1.969 z m -4.543,-2.625 -0.656,1.133 -3.41,-1.969 0.652,-1.133 c 1.188,0.68 2.391,1.387 3.414,1.969 z m -4.55,-2.625 -0.653,1.133 -3.41,-1.969 0.656,-1.133 c 1.184,0.684 2.399,1.375 3.407,1.969 z" /><path
         id="path9530"
         style="fill:#656565;fill-opacity:1;fill-rule:nonzero;stroke:none"
         d="m 1013.062,751.245 -0.652,1.133 -3.41,-1.969 0.656,-1.132 c 1.184,0.683 2.395,1.382 3.406,1.968 z m -4.546,-2.625 -0.653,1.133 -3.41,-1.969 0.652,-1.132 3.411,1.968 z m -4.547,-2.625 -0.653,1.133 -3.41,-1.969 0.653,-1.132 3.41,1.968 z m -4.547,-2.625 -0.652,1.133 -3.411,-1.969 0.653,-1.136 3.41,1.972 z m -4.547,-2.625 -0.652,1.133 -3.411,-1.969 0.657,-1.132 c 1.133,0.656 2.277,1.316 3.406,1.968 z m -4.547,-2.629 -0.652,1.137 -3.41,-1.969 0.652,-1.132 c 1.137,0.656 2.277,1.312 3.41,1.964 z m -4.547,-2.621 -0.652,1.133 -3.41,-1.969 0.652,-1.136 c 1.188,0.687 2.395,1.383 3.41,1.972 z m -4.547,-2.625 -0.652,1.133 -3.414,-1.969 0.656,-1.132 3.41,1.968 z m -4.546,-2.629 -0.653,1.137 -3.414,-1.969 0.656,-1.136 c 1.137,0.656 2.278,1.316 3.411,1.968 z m -4.547,-2.625 -0.657,1.137 -3.406,-1.969 0.652,-1.136 c 1.188,0.683 2.387,1.386 3.411,1.968 z m -4.547,-2.625 -0.653,1.137 -3.414,-1.969 0.657,-1.136 c 1.187,0.687 2.402,1.379 3.41,1.968 z" /><path
         id="path9532"
         style="fill:#656565;fill-opacity:1;fill-rule:nonzero;stroke:none"
         d="m 828.816,480.105 -1.132,-0.653 1.968,-3.41 1.133,0.653 c -0.687,1.187 -1.383,2.398 -1.969,3.41 z m 2.625,-4.547 -1.132,-0.652 1.968,-3.411 1.133,0.653 -1.969,3.41 z m 2.625,-4.547 -1.132,-0.656 1.968,-3.41 1.133,0.656 -1.969,3.41 z m 2.625,-4.547 -1.132,-0.652 1.968,-3.414 1.133,0.656 -1.969,3.41 z m 2.625,-4.547 -1.132,-0.656 1.968,-3.406 1.133,0.652 c -0.656,1.137 -1.316,2.281 -1.969,3.41 z m 2.625,-4.547 -1.132,-0.656 1.968,-3.406 1.133,0.652 c -0.656,1.137 -1.312,2.274 -1.969,3.41 z m 2.625,-4.547 -1.132,-0.652 1.968,-3.41 1.133,0.652 c -0.683,1.188 -1.383,2.395 -1.969,3.41 z m 2.625,-4.546 -1.132,-0.657 1.968,-3.41 1.133,0.656 -1.969,3.411 z m 2.625,-4.547 -1.132,-0.657 1.968,-3.41 1.137,0.653 c -0.656,1.136 -1.316,2.277 -1.973,3.414 z m 2.625,-4.551 -1.132,-0.652 1.968,-3.407 1.137,0.653 c -0.656,1.133 -1.328,2.277 -1.973,3.406 z m 2.629,-4.547 -1.136,-0.652 1.968,-3.41 1.133,0.656 c -0.683,1.187 -1.375,2.398 -1.965,3.406 z" /><path
         id="path9534"
         style="fill:#656565;fill-opacity:1;fill-rule:nonzero;stroke:none"
         d="m 967.434,532.331 0.675,-1.175 52.801,30.437 1.961,-5.895 17.184,17.649 -23.918,-5.91 4.101,-4.668 -52.804,-30.438 z" /><path
         id="path9536"
         style="fill:#656565;fill-opacity:1;fill-rule:nonzero;stroke:none"
         d="m 920.129,505.023 0.68,-1.176 -52.762,-30.508 4.129,-4.644 -23.879,-6.059 17.078,17.758 1.992,-5.883 52.762,30.512 z" /><path
         id="path9538"
         style="fill:#c1121c;fill-opacity:1;fill-rule:evenodd;stroke:none"
         d="m 28.223,184.159 72,-124.707 207.843,120 -71.996,124.707 -207.847,-120 z" /><path
         id="path9540"
         style="fill:#c1121c;fill-opacity:1;fill-rule:evenodd;stroke:none"
         d="m 235.992,479.37 72,124.707 -207.847,120 -72,-124.707 207.847,-120 z" /><path
         id="path9542"
         style="fill:#c1121c;fill-opacity:1;fill-rule:evenodd;stroke:none"
         d="m 755.684,604.159 72,-124.707 207.847,120 -72,124.707 -207.847,-120 z" /><path
         id="path9544"
         style="fill:#c1121c;fill-opacity:1;fill-rule:evenodd;stroke:none"
         d="m 963.453,59.37 72,124.707 -207.848,120 -72,-124.707 c 72.309,-41.738 145.969,-84.281 207.848,-120 z" /><path
         id="path9546"
         style="fill:#656565;fill-opacity:1;fill-rule:nonzero;stroke:none"
         d="m 943.891,740.984 -23.907,-5.953 4.11,-4.668 -417.992,-240.661 1.363,-0.789 417.305,240.278 1.968,-5.895 c 5.719,5.899 11.438,11.793 17.153,17.688 z M 460.113,463.327 42.672,222.995 l -1.977,5.891 -17.148,-17.68 23.906,5.95 -4.105,4.667 417.437,240.333 c -0.234,0.406 -0.473,0.824 -0.672,1.171 z" /><path
         id="path9548"
         style="fill:#000000;fill-opacity:1;fill-rule:nonzero;stroke:none"
         d="m 856.969,0.929 c 0,-0.285 -0.082,-0.43 -0.25,-0.43 -0.688,0 -1.531,0.028 -2.524,0.09 -0.949,0.063 -1.738,0.094 -2.367,0.094 -0.629,0 -1.398,-0.031 -2.308,-0.094 -0.95,-0.062 -1.77,-0.09 -2.461,-0.09 -0.188,0 -0.278,0.145 -0.278,0.43 0,0.258 0.082,0.398 0.246,0.418 1.207,0.144 2.028,0.367 2.461,0.668 0.446,0.297 0.668,0.867 0.668,1.703 l 0,0.25 -0.652,15.004 -7.465,-18.723 c -0.059,-0.168 -0.203,-0.25 -0.434,-0.25 -0.234,0 -0.375,0.082 -0.414,0.25 l -7.035,17.977 -1.113,-14.258 c -0.02,-0.18 -0.031,-0.336 -0.031,-0.465 0,-0.695 0.238,-1.191 0.715,-1.488 0.472,-0.301 1.32,-0.516 2.539,-0.652 0.144,-0.02 0.214,-0.165 0.214,-0.434 0,-0.285 -0.089,-0.43 -0.277,-0.43 -0.535,0 -1.269,0.028 -2.199,0.09 -0.867,0.063 -1.539,0.094 -2.012,0.094 -0.519,0 -1.219,-0.031 -2.105,-0.094 -0.86,-0.062 -1.52,-0.09 -1.985,-0.09 -0.144,0 -0.214,0.145 -0.214,0.43 0,0.258 0.089,0.398 0.277,0.418 1.301,0.156 2.199,0.398 2.691,0.726 0.508,0.333 0.797,0.965 0.871,1.895 l 1.61,14.57 c 0.011,0.184 0.015,0.348 0.015,0.496 0,0.668 -0.238,1.153 -0.711,1.454 -0.476,0.3 -1.339,0.527 -2.586,0.683 -0.144,0 -0.218,0.145 -0.218,0.43 0,0.105 0.031,0.203 0.093,0.297 0.063,0.09 0.125,0.14 0.184,0.14 0.383,0 0.926,-0.031 1.629,-0.097 0.598,-0.059 1.035,-0.09 1.312,-0.09 0.364,0 0.879,0.031 1.551,0.09 0.692,0.066 1.231,0.097 1.61,0.097 L 842.66,4.8 l 6.875,17.238 c 0.414,0 0.957,-0.031 1.629,-0.097 0.606,-0.059 1.086,-0.09 1.438,-0.09 0.433,0 0.953,0.031 1.566,0.09 0.629,0.066 1.172,0.097 1.625,0.097 0.184,0 0.277,-0.144 0.277,-0.437 0,-0.285 -0.082,-0.43 -0.246,-0.43 -1.207,-0.148 -2.035,-0.367 -2.48,-0.668 -0.43,-0.297 -0.649,-0.867 -0.649,-1.703 l 0,-0.262 0.711,-14.57 c 0.032,-0.727 0.141,-1.234 0.324,-1.52 0.2,-0.289 0.528,-0.519 0.993,-0.695 0.465,-0.164 1.132,-0.301 1.996,-0.406 0.168,-0.02 0.25,-0.16 0.25,-0.418 z" /><path
         id="path9550"
         style="fill:#000000;fill-opacity:1;fill-rule:nonzero;stroke:none"
         d="m 868.68,0.159 c -0.575,0 -1.082,0.141 -1.516,0.43 -0.422,0.281 -0.715,0.66 -0.867,1.145 -1.106,-1.137 -2.551,-1.7 -4.336,-1.7 -0.93,0 -1.688,0.282 -2.277,0.848 -0.586,0.582 -0.883,1.297 -0.883,2.156 0,2.114 2.508,3.828 7.527,5.137 l 0.094,2.418 0,0.078 c 0,0.742 -0.188,1.332 -0.559,1.766 -0.363,0.441 -0.847,0.664 -1.457,0.664 -0.609,0 -1.125,-0.149 -1.547,-0.449 -0.425,-0.289 -0.64,-0.657 -0.652,-1.098 -0.008,-0.664 -0.184,-1.18 -0.523,-1.551 -0.332,-0.367 -0.778,-0.555 -1.336,-0.555 -0.328,0 -0.598,0.098 -0.801,0.293 -0.211,0.196 -0.313,0.457 -0.313,0.79 0,0.796 0.723,1.625 2.168,2.492 1.446,0.879 2.789,1.316 4.028,1.316 1.113,0 2.015,-0.328 2.711,-0.988 0.691,-0.66 1.035,-1.551 1.035,-2.664 l 0,-0.188 -0.215,-6.996 0,-0.109 c 0,-1.086 0.348,-1.625 1.051,-1.625 0.34,0 0.738,0.203 1.191,0.617 l 0.109,0.031 c 0.083,0 0.161,-0.058 0.235,-0.168 0.07,-0.105 0.105,-0.218 0.105,-0.34 0,-0.3 -0.312,-0.668 -0.941,-1.101 -0.621,-0.434 -1.297,-0.649 -2.031,-0.649 z m -2.383,6.965 c -3.016,-0.683 -4.524,-1.808 -4.524,-3.375 0,-1.468 0.571,-2.199 1.704,-2.199 0.55,0 1.085,0.133 1.613,0.402 0.535,0.282 0.898,0.621 1.082,1.02 l 0.125,4.152 z" /><path
         id="path9552"
         style="fill:#000000;fill-opacity:1;fill-rule:nonzero;stroke:none"
         d="m 887.383,6.722 c 0,-1.91 -0.465,-3.504 -1.395,-4.785 -0.918,-1.27 -2.027,-1.903 -3.328,-1.903 -0.785,0 -1.426,0.262 -1.922,0.786 -0.496,0.527 -0.742,1.218 -0.742,2.062 0,0.586 0.145,1.059 0.434,1.406 0.289,0.364 0.679,0.543 1.175,0.543 0.364,0 0.672,-0.121 0.93,-0.371 0.27,-0.246 0.403,-0.558 0.403,-0.929 0,-0.454 -0.223,-0.809 -0.665,-1.067 -0.32,-0.187 -0.484,-0.398 -0.484,-0.637 0,-0.535 0.25,-0.804 0.746,-0.804 1.156,0 1.735,1.898 1.735,5.699 0,1.992 -0.43,3.652 -1.286,4.988 -0.847,1.34 -1.968,2.012 -3.359,2.012 -0.168,0 -0.25,0.144 -0.25,0.434 0,0.289 0.082,0.433 0.25,0.433 1.031,0 1.848,0.356 2.445,1.07 0.598,0.719 0.899,1.68 0.899,2.879 0,2.227 -0.735,3.344 -2.199,3.344 -0.774,0 -1.473,-0.492 -2.09,-1.473 -0.61,-0.968 -0.914,-2.078 -0.914,-3.328 l 0,-13.113 c 0,-0.996 0.101,-1.66 0.308,-2 0.219,-0.332 0.653,-0.539 1.301,-0.621 0.168,-0.02 0.25,-0.16 0.25,-0.418 0,-0.285 -0.082,-0.43 -0.25,-0.43 -0.422,0 -0.906,0.028 -1.453,0.09 -0.61,0.063 -1.168,0.094 -1.676,0.094 -0.516,0 -1.113,-0.031 -1.793,-0.094 -0.609,-0.062 -1.125,-0.09 -1.551,-0.09 -0.164,0 -0.25,0.145 -0.25,0.43 0,0.258 0.086,0.398 0.25,0.418 0.879,0.117 1.442,0.324 1.688,0.637 0.258,0.308 0.387,0.968 0.387,1.984 l 0,7.398 c 0,0.29 -0.125,0.434 -0.372,0.434 l -1.578,0 c -0.207,0 -0.312,0.133 -0.312,0.402 0,0.27 0.094,0.426 0.281,0.465 1.32,0.301 1.981,0.59 1.981,0.867 0,2.707 0.585,4.957 1.75,6.754 1.168,1.809 2.679,2.707 4.539,2.707 1.3,0 2.363,-0.39 3.187,-1.175 0.836,-0.786 1.258,-1.735 1.258,-2.848 0,-2.055 -1.227,-3.598 -3.672,-4.633 1.57,-0.43 2.848,-1.367 3.84,-2.801 1.004,-1.437 1.504,-3.043 1.504,-4.816 z" /><path
         id="path9554"
         style="fill:#000000;fill-opacity:1;fill-rule:nonzero;stroke:none"
         d="m 902.062,9.292 c 0,-0.289 -0.183,-0.433 -0.554,-0.433 l -8.488,0 c -0.059,-0.559 -0.09,-1.137 -0.09,-1.735 0,-1.664 0.39,-2.941 1.175,-3.84 0.793,-0.89 1.918,-1.332 3.375,-1.332 0.735,0 1.473,0.196 2.215,0.586 0.743,0.395 1.344,0.895 1.797,1.504 l 0.078,0.031 c 0.09,0 0.18,-0.054 0.262,-0.171 0.094,-0.114 0.141,-0.246 0.141,-0.399 0,-0.219 -0.332,-0.672 -0.993,-1.363 -0.66,-0.684 -1.375,-1.203 -2.152,-1.567 -0.773,-0.359 -1.586,-0.539 -2.43,-0.539 -1.859,0 -3.425,0.68 -4.691,2.039 -1.273,1.364 -1.906,3.04 -1.906,5.02 0,2.023 0.621,3.738 1.859,5.141 1.246,1.406 2.828,2.105 4.738,2.105 1.598,0 2.942,-0.523 4.024,-1.578 1.098,-1.043 1.64,-2.199 1.64,-3.469 z m -2.816,1.364 c 0,0.773 -0.269,1.414 -0.805,1.917 -0.527,0.516 -1.207,0.778 -2.043,0.778 -0.796,0 -1.488,-0.336 -2.078,-1.008 -0.578,-0.66 -0.968,-1.535 -1.175,-2.617 l 4.304,0.125 c 0.653,0.008 1.11,0.07 1.379,0.183 0.281,0.118 0.418,0.321 0.418,0.622 z" /><path
         id="path9556"
         style="fill:#000000;fill-opacity:1;fill-rule:nonzero;stroke:none"
         d="m 917.047,19.652 c 0,-0.434 -0.16,-0.809 -0.481,-1.129 -0.308,-0.321 -0.687,-0.481 -1.128,-0.481 -0.446,0 -0.829,0.16 -1.149,0.481 -0.309,0.32 -0.465,0.695 -0.465,1.129 0,0.453 0.156,0.836 0.465,1.144 0.313,0.313 0.691,0.465 1.149,0.465 0.441,0 0.82,-0.152 1.128,-0.465 0.321,-0.308 0.481,-0.691 0.481,-1.144 z m 2.168,-18.723 c 0,-0.285 -0.082,-0.43 -0.246,-0.43 -0.426,0 -0.965,0.028 -1.625,0.09 -0.746,0.063 -1.371,0.094 -1.875,0.094 -0.516,0 -1.137,-0.031 -1.86,-0.094 -0.648,-0.062 -1.187,-0.09 -1.609,-0.09 -0.164,0 -0.25,0.145 -0.25,0.43 0,0.258 0.086,0.398 0.25,0.418 0.875,0.117 1.438,0.324 1.688,0.637 0.257,0.308 0.386,0.968 0.386,1.984 l 0,5.727 c 0,0.824 -0.109,1.371 -0.324,1.625 -0.207,0.257 -0.668,0.429 -1.379,0.515 -0.168,0 -0.25,0.133 -0.25,0.399 0,0.25 0.082,0.371 0.25,0.371 1.086,0.281 1.973,0.574 2.664,0.883 0.692,0.32 1.125,0.582 1.301,0.789 0.102,0.125 0.215,0.187 0.34,0.187 0.289,0 0.433,-0.082 0.433,-0.25 -0.168,-2.308 -0.25,-4.105 -0.25,-5.387 l 0,-4.859 c 0,-1.016 0.125,-1.676 0.375,-1.984 0.258,-0.313 0.836,-0.52 1.735,-0.637 0.164,-0.02 0.246,-0.16 0.246,-0.418 z" /><path
         id="path9558"
         style="fill:#000000;fill-opacity:1;fill-rule:nonzero;stroke:none"
         d="m 936.43,0.929 c 0,-0.285 -0.082,-0.43 -0.25,-0.43 -0.41,0 -0.918,0.028 -1.516,0.09 -0.66,0.063 -1.242,0.094 -1.75,0.094 -0.516,0 -1.109,-0.031 -1.781,-0.094 -0.61,-0.062 -1.121,-0.09 -1.531,-0.09 -0.168,0 -0.25,0.145 -0.25,0.43 0,0.258 0.082,0.398 0.25,0.418 0.71,0.082 1.175,0.285 1.39,0.605 0.227,0.321 0.344,0.993 0.344,2.016 l 0,5.168 c 0,1.16 -0.231,2.004 -0.684,2.539 -0.453,0.539 -1.156,0.809 -2.105,0.809 -0.598,0 -1.133,-0.114 -1.594,-0.344 -0.457,-0.227 -0.945,-0.625 -1.473,-1.207 l 0,-6.965 c 0,-1.023 0.11,-1.695 0.325,-2.016 0.23,-0.32 0.699,-0.523 1.41,-0.605 0.164,-0.02 0.25,-0.16 0.25,-0.418 0,-0.285 -0.086,-0.43 -0.25,-0.43 -0.422,0 -0.938,0.028 -1.551,0.09 -0.668,0.063 -1.258,0.094 -1.762,0.094 -0.496,0 -1.074,-0.031 -1.734,-0.094 -0.609,-0.062 -1.125,-0.09 -1.551,-0.09 -0.164,0 -0.246,0.145 -0.246,0.43 0,0.258 0.082,0.398 0.246,0.418 0.887,0.117 1.461,0.324 1.719,0.637 0.258,0.32 0.387,0.98 0.387,1.984 l 0,5.727 c 0,0.824 -0.106,1.371 -0.325,1.625 -0.207,0.257 -0.675,0.429 -1.41,0.515 -0.164,0 -0.246,0.133 -0.246,0.399 0,0.25 0.082,0.371 0.246,0.371 1.024,0.258 1.875,0.551 2.555,0.867 0.684,0.332 1.113,0.598 1.285,0.805 0.106,0.125 0.219,0.187 0.344,0.187 0.289,0 0.433,-0.082 0.433,-0.25 l -0.125,-1.949 c 1.485,1.383 2.872,2.074 4.149,2.074 1.406,0 2.5,-0.402 3.285,-1.207 0.793,-0.805 1.191,-1.887 1.191,-3.25 l 0,-5.914 c 0,-1.016 0.125,-1.676 0.372,-1.984 0.257,-0.313 0.828,-0.52 1.703,-0.637 0.168,-0.02 0.25,-0.16 0.25,-0.418 z" /><path
         id="path9560"
         style="fill:#000000;fill-opacity:1;fill-rule:nonzero;stroke:none"
         d="m 973.777,0.929 c 0,-0.285 -0.086,-0.43 -0.25,-0.43 -0.691,0 -1.531,0.028 -2.523,0.09 -0.949,0.063 -1.738,0.094 -2.371,0.094 -0.629,0 -1.399,-0.031 -2.305,-0.094 -0.949,-0.062 -1.769,-0.09 -2.461,-0.09 -0.187,0 -0.281,0.145 -0.281,0.43 0,0.258 0.082,0.398 0.246,0.418 1.211,0.144 2.031,0.367 2.465,0.668 0.441,0.297 0.664,0.867 0.664,1.703 l 0,0.25 -0.649,15.004 -7.464,-18.723 c -0.063,-0.168 -0.207,-0.25 -0.434,-0.25 -0.238,0 -0.375,0.082 -0.418,0.25 l -7.031,17.977 -1.113,-14.258 c -0.02,-0.18 -0.032,-0.336 -0.032,-0.465 0,-0.695 0.239,-1.191 0.711,-1.488 0.477,-0.301 1.321,-0.516 2.539,-0.652 0.145,-0.02 0.219,-0.165 0.219,-0.434 0,-0.285 -0.094,-0.43 -0.277,-0.43 -0.539,0 -1.274,0.028 -2.2,0.09 -0.871,0.063 -1.539,0.094 -2.015,0.094 -0.516,0 -1.219,-0.031 -2.106,-0.094 -0.855,-0.062 -1.515,-0.09 -1.98,-0.09 -0.149,0 -0.219,0.145 -0.219,0.43 0,0.258 0.094,0.398 0.278,0.418 1.304,0.156 2.199,0.398 2.695,0.726 0.504,0.333 0.793,0.965 0.867,1.895 l 1.609,14.57 c 0.012,0.184 0.016,0.348 0.016,0.496 0,0.668 -0.234,1.153 -0.711,1.454 -0.473,0.3 -1.336,0.527 -2.586,0.683 -0.144,0 -0.215,0.145 -0.215,0.43 0,0.105 0.032,0.203 0.094,0.297 0.059,0.09 0.121,0.14 0.184,0.14 0.382,0 0.925,-0.031 1.625,-0.097 0.601,-0.059 1.039,-0.09 1.316,-0.09 0.363,0 0.879,0.031 1.551,0.09 0.691,0.066 1.226,0.097 1.609,0.097 l 6.645,-17.238 6.875,17.238 c 0.41,0 0.953,-0.031 1.625,-0.097 0.609,-0.059 1.09,-0.09 1.441,-0.09 0.434,0 0.953,0.031 1.563,0.09 0.629,0.066 1.172,0.097 1.629,0.097 0.183,0 0.277,-0.144 0.277,-0.437 0,-0.285 -0.082,-0.43 -0.25,-0.43 -1.207,-0.148 -2.031,-0.367 -2.477,-0.668 -0.433,-0.297 -0.648,-0.867 -0.648,-1.703 l 0,-0.262 0.711,-14.57 c 0.031,-0.727 0.14,-1.234 0.324,-1.52 0.195,-0.289 0.527,-0.519 0.992,-0.695 0.465,-0.164 1.129,-0.301 1.996,-0.406 0.164,-0.02 0.25,-0.16 0.25,-0.418 z" /><path
         id="path9562"
         style="fill:#000000;fill-opacity:1;fill-rule:nonzero;stroke:none"
         d="m 980.5,19.652 c 0,-0.434 -0.156,-0.809 -0.477,-1.129 -0.312,-0.321 -0.687,-0.481 -1.132,-0.481 -0.446,0 -0.825,0.16 -1.145,0.481 -0.308,0.32 -0.465,0.695 -0.465,1.129 0,0.453 0.157,0.836 0.465,1.144 0.309,0.313 0.692,0.465 1.145,0.465 0.445,0 0.82,-0.152 1.132,-0.465 0.321,-0.308 0.477,-0.691 0.477,-1.144 z m 2.172,-18.723 c 0,-0.285 -0.086,-0.43 -0.25,-0.43 -0.426,0 -0.965,0.028 -1.625,0.09 -0.746,0.063 -1.367,0.094 -1.875,0.094 -0.516,0 -1.137,-0.031 -1.86,-0.094 -0.648,-0.062 -1.187,-0.09 -1.609,-0.09 -0.164,0 -0.246,0.145 -0.246,0.43 0,0.258 0.082,0.398 0.246,0.418 0.879,0.117 1.442,0.324 1.688,0.637 0.257,0.308 0.386,0.968 0.386,1.984 l 0,5.727 c 0,0.824 -0.105,1.371 -0.324,1.625 -0.207,0.257 -0.664,0.429 -1.379,0.515 -0.164,0 -0.246,0.133 -0.246,0.399 0,0.25 0.082,0.371 0.246,0.371 1.086,0.281 1.973,0.574 2.664,0.883 0.692,0.32 1.125,0.582 1.301,0.789 0.106,0.125 0.219,0.187 0.34,0.187 0.289,0 0.433,-0.082 0.433,-0.25 -0.164,-2.308 -0.246,-4.105 -0.246,-5.387 l 0,-4.859 c 0,-1.016 0.125,-1.676 0.372,-1.984 0.257,-0.313 0.835,-0.52 1.734,-0.637 0.164,-0.02 0.25,-0.16 0.25,-0.418 z" /><path
         id="path9564"
         style="fill:#000000;fill-opacity:1;fill-rule:nonzero;stroke:none"
         d="m 990.98,0.964 c 0,-0.293 -0.082,-0.437 -0.25,-0.437 -0.421,0 -0.964,0.027 -1.625,0.078 -0.742,0.051 -1.367,0.078 -1.875,0.078 -0.492,0 -1.109,-0.027 -1.839,-0.078 -0.661,-0.051 -1.207,-0.078 -1.629,-0.078 -0.164,0 -0.246,0.144 -0.246,0.437 0,0.254 0.082,0.395 0.246,0.414 0.879,0.106 1.445,0.309 1.703,0.621 0.269,0.321 0.402,0.985 0.402,1.996 l 0,14.387 c 0,0.836 -0.101,1.383 -0.308,1.641 -0.207,0.258 -0.68,0.429 -1.422,0.511 -0.168,0.024 -0.25,0.153 -0.25,0.387 0,0.25 0.082,0.371 0.25,0.371 1.082,0.281 1.968,0.574 2.66,0.883 0.691,0.32 1.125,0.59 1.301,0.805 0.105,0.117 0.218,0.172 0.343,0.172 0.286,0 0.434,-0.082 0.434,-0.25 -0.168,-2.309 -0.25,-4.106 -0.25,-5.387 l 0,-13.52 c 0,-1.011 0.129,-1.675 0.387,-1.996 0.258,-0.312 0.832,-0.515 1.718,-0.621 0.168,-0.019 0.25,-0.16 0.25,-0.414 z" /><path
         id="path9566"
         style="fill:#000000;fill-opacity:1;fill-rule:nonzero;stroke:none"
         d="m 999.023,0.964 c 0,-0.293 -0.082,-0.437 -0.246,-0.437 -0.422,0 -0.965,0.027 -1.625,0.078 -0.746,0.051 -1.371,0.078 -1.875,0.078 -0.496,0 -1.109,-0.027 -1.843,-0.078 -0.661,-0.051 -1.204,-0.078 -1.625,-0.078 -0.164,0 -0.247,0.144 -0.247,0.437 0,0.254 0.083,0.395 0.247,0.414 0.875,0.106 1.445,0.309 1.703,0.621 0.269,0.321 0.402,0.985 0.402,1.996 l 0,14.387 c 0,0.836 -0.105,1.383 -0.309,1.641 -0.207,0.258 -0.683,0.429 -1.425,0.511 -0.164,0.024 -0.246,0.153 -0.246,0.387 0,0.25 0.082,0.371 0.246,0.371 1.082,0.281 1.972,0.574 2.664,0.883 0.691,0.32 1.125,0.59 1.301,0.805 0.101,0.117 0.214,0.172 0.339,0.172 0.289,0 0.434,-0.082 0.434,-0.25 -0.164,-2.309 -0.246,-4.106 -0.246,-5.387 l 0,-13.52 c 0,-1.011 0.129,-1.675 0.387,-1.996 0.257,-0.312 0.828,-0.515 1.718,-0.621 0.164,-0.019 0.246,-0.16 0.246,-0.414 z" /><path
         id="path9568"
         style="fill:#000000;fill-opacity:1;fill-rule:nonzero;stroke:none"
         d="m 1005.242,19.652 c 0,-0.434 -0.16,-0.809 -0.48,-1.129 -0.309,-0.321 -0.684,-0.481 -1.129,-0.481 -0.445,0 -0.828,0.16 -1.149,0.481 -0.308,0.32 -0.464,0.695 -0.464,1.129 0,0.453 0.156,0.836 0.464,1.144 0.313,0.313 0.696,0.465 1.149,0.465 0.445,0 0.82,-0.152 1.129,-0.465 0.32,-0.308 0.48,-0.691 0.48,-1.144 z m 2.168,-18.723 c 0,-0.285 -0.082,-0.43 -0.246,-0.43 -0.426,0 -0.969,0.028 -1.629,0.09 -0.742,0.063 -1.367,0.094 -1.871,0.094 -0.519,0 -1.137,-0.031 -1.859,-0.094 -0.653,-0.062 -1.188,-0.09 -1.61,-0.09 -0.168,0 -0.25,0.145 -0.25,0.43 0,0.258 0.082,0.398 0.25,0.418 0.875,0.117 1.438,0.324 1.688,0.637 0.258,0.308 0.387,0.968 0.387,1.984 l 0,5.727 c 0,0.824 -0.11,1.371 -0.325,1.625 -0.207,0.257 -0.668,0.429 -1.379,0.515 -0.164,0 -0.246,0.133 -0.246,0.399 0,0.25 0.082,0.371 0.246,0.371 1.082,0.281 1.973,0.574 2.661,0.883 0.695,0.32 1.128,0.582 1.304,0.789 0.102,0.125 0.215,0.187 0.34,0.187 0.289,0 0.434,-0.082 0.434,-0.25 -0.164,-2.308 -0.246,-4.105 -0.246,-5.387 l 0,-4.859 c 0,-1.016 0.121,-1.676 0.367,-1.984 0.262,-0.313 0.84,-0.52 1.738,-0.637 0.164,-0.02 0.246,-0.16 0.246,-0.418 z" /><path
         id="path9570"
         style="fill:#000000;fill-opacity:1;fill-rule:nonzero;stroke:none"
         d="m 1033.266,0.929 c 0,-0.285 -0.082,-0.43 -0.25,-0.43 -0.411,0 -0.918,0.028 -1.516,0.09 -0.66,0.063 -1.25,0.094 -1.766,0.094 -0.504,0 -1.089,-0.031 -1.75,-0.094 -0.597,-0.062 -1.109,-0.09 -1.531,-0.09 -0.168,0 -0.25,0.145 -0.25,0.43 0,0.258 0.082,0.398 0.25,0.418 0.699,0.082 1.16,0.285 1.375,0.605 0.219,0.321 0.328,0.993 0.328,2.016 l 0,5.168 c 0,1.168 -0.222,2.016 -0.668,2.539 -0.445,0.539 -1.14,0.809 -2.09,0.809 -1.25,0 -2.281,-0.426 -3.097,-1.274 l 0,-7.242 c 0,-1.023 0.113,-1.695 0.34,-2.016 0.23,-0.32 0.691,-0.523 1.394,-0.605 0.164,-0.02 0.246,-0.16 0.246,-0.418 0,-0.285 -0.082,-0.43 -0.246,-0.43 -0.414,0 -0.89,0.028 -1.441,0.09 -0.598,0.063 -1.145,0.094 -1.641,0.094 -0.515,0 -1.078,-0.031 -1.687,-0.094 -0.547,-0.062 -1.028,-0.09 -1.442,-0.09 -0.164,0 -0.246,0.145 -0.246,0.43 0,0.258 0.082,0.398 0.246,0.418 0.715,0.082 1.18,0.285 1.395,0.605 0.226,0.321 0.343,0.993 0.343,2.016 l 0,5.168 c 0,1.16 -0.23,2.004 -0.683,2.539 -0.453,0.539 -1.156,0.809 -2.106,0.809 -0.601,0 -1.132,-0.114 -1.597,-0.344 -0.453,-0.227 -0.942,-0.625 -1.469,-1.207 l 0,-6.965 c 0,-1.023 0.109,-1.695 0.324,-2.016 0.227,-0.32 0.696,-0.523 1.41,-0.605 0.164,-0.02 0.247,-0.16 0.247,-0.418 0,-0.285 -0.083,-0.43 -0.247,-0.43 -0.421,0 -0.941,0.028 -1.55,0.09 -0.668,0.063 -1.258,0.094 -1.766,0.094 -0.516,0 -1.102,-0.031 -1.762,-0.094 -0.59,-0.062 -1.097,-0.09 -1.519,-0.09 -0.164,0 -0.246,0.145 -0.246,0.43 0,0.258 0.082,0.398 0.246,0.418 0.879,0.117 1.441,0.324 1.687,0.637 0.258,0.308 0.387,0.968 0.387,1.984 l 0,5.727 c 0,0.824 -0.106,1.371 -0.324,1.625 -0.207,0.257 -0.664,0.429 -1.379,0.515 -0.164,0 -0.246,0.133 -0.246,0.399 0,0.25 0.082,0.371 0.246,0.371 1.023,0.258 1.875,0.551 2.558,0.867 0.68,0.332 1.11,0.598 1.282,0.805 0.105,0.125 0.218,0.187 0.343,0.187 0.29,0 0.43,-0.082 0.43,-0.25 l -0.121,-1.949 c 1.484,1.383 2.871,2.074 4.148,2.074 1.965,0 3.293,-0.754 3.997,-2.262 1.57,1.508 3.101,2.262 4.601,2.262 1.414,0 2.512,-0.402 3.297,-1.207 0.793,-0.805 1.191,-1.887 1.191,-3.25 l 0,-5.914 c 0,-1.016 0.125,-1.676 0.371,-1.984 0.258,-0.313 0.829,-0.52 1.704,-0.637 0.168,-0.02 0.25,-0.16 0.25,-0.418 z" /><path
         id="path9572"
         style="fill:#000000;fill-opacity:1;fill-rule:nonzero;stroke:none"
         d="m 1046.758,9.292 c 0,-0.289 -0.188,-0.433 -0.559,-0.433 l -8.484,0 c -0.063,-0.559 -0.094,-1.137 -0.094,-1.735 0,-1.664 0.391,-2.941 1.176,-3.84 0.797,-0.89 1.922,-1.332 3.375,-1.332 0.734,0 1.473,0.196 2.215,0.586 0.746,0.395 1.343,0.895 1.797,1.504 l 0.078,0.031 c 0.093,0 0.179,-0.054 0.261,-0.171 0.094,-0.114 0.141,-0.246 0.141,-0.399 0,-0.219 -0.328,-0.672 -0.992,-1.363 -0.66,-0.684 -1.375,-1.203 -2.152,-1.567 -0.774,-0.359 -1.582,-0.539 -2.43,-0.539 -1.86,0 -3.422,0.68 -4.692,2.039 -1.269,1.364 -1.906,3.04 -1.906,5.02 0,2.023 0.621,3.738 1.86,5.141 1.25,1.406 2.828,2.105 4.738,2.105 1.601,0 2.941,-0.523 4.027,-1.578 1.094,-1.043 1.641,-2.199 1.641,-3.469 z m -2.817,1.364 c 0,0.773 -0.269,1.414 -0.808,1.917 -0.524,0.516 -1.207,0.778 -2.043,0.778 -0.797,0 -1.485,-0.336 -2.074,-1.008 -0.578,-0.66 -0.969,-1.535 -1.18,-2.617 l 4.309,0.125 c 0.648,0.008 1.109,0.07 1.375,0.183 0.281,0.118 0.421,0.321 0.421,0.622 z" /><path
         id="path9574"
         style="fill:#000000;fill-opacity:1;fill-rule:nonzero;stroke:none"
         d="m 1058.613,12.823 c 0,-0.558 -0.136,-0.835 -0.402,-0.835 l -4.617,0.121 0,-7.434 c 0,-1.941 0.695,-2.906 2.078,-2.906 0.855,0 1.633,0.199 2.336,0.601 0.082,0 0.156,-0.058 0.215,-0.172 0.074,-0.101 0.109,-0.214 0.109,-0.339 0,-0.258 -0.387,-0.61 -1.16,-1.051 -0.766,-0.434 -1.625,-0.649 -2.586,-0.649 -1.176,0 -2.117,0.352 -2.816,1.063 -0.704,0.726 -1.055,1.676 -1.055,2.851 l 0,0.141 0.062,7.524 c 0,0.293 -0.125,0.437 -0.371,0.437 l -1.176,0 c -0.23,0 -0.343,0.133 -0.343,0.398 0,0.208 0.093,0.364 0.281,0.465 1.434,0.848 2.684,2.039 3.746,3.578 0.113,0.165 0.258,0.247 0.434,0.247 0.289,0 0.433,-0.082 0.433,-0.247 l -0.125,-2.957 4.555,0 c 0.266,0 0.402,-0.281 0.402,-0.836 z" /><path
         id="path9576"
         style="fill:#000000;fill-opacity:1;fill-rule:nonzero;stroke:none"
         d="m 1072.648,9.292 c 0,-0.289 -0.187,-0.433 -0.558,-0.433 l -8.485,0 c -0.062,-0.559 -0.093,-1.137 -0.093,-1.735 0,-1.664 0.39,-2.941 1.176,-3.84 0.796,-0.89 1.921,-1.332 3.374,-1.332 0.735,0 1.473,0.196 2.219,0.586 0.742,0.395 1.34,0.895 1.793,1.504 l 0.078,0.031 c 0.094,0 0.18,-0.054 0.262,-0.171 0.094,-0.114 0.141,-0.246 0.141,-0.399 0,-0.219 -0.328,-0.672 -0.993,-1.363 -0.66,-0.684 -1.374,-1.203 -2.152,-1.567 -0.773,-0.359 -1.582,-0.539 -2.43,-0.539 -1.859,0 -3.421,0.68 -4.691,2.039 -1.269,1.364 -1.906,3.04 -1.906,5.02 0,2.023 0.621,3.738 1.859,5.141 1.25,1.406 2.828,2.105 4.738,2.105 1.598,0 2.942,-0.523 4.028,-1.578 1.094,-1.043 1.64,-2.199 1.64,-3.469 z m -2.816,1.364 c 0,0.773 -0.273,1.414 -0.809,1.917 -0.527,0.516 -1.207,0.778 -2.043,0.778 -0.796,0 -1.488,-0.336 -2.074,-1.008 -0.578,-0.66 -0.972,-1.535 -1.176,-2.617 l 4.305,0.125 c 0.649,0.008 1.11,0.07 1.375,0.183 0.281,0.118 0.422,0.321 0.422,0.622 z" /><path
         id="path9578"
         style="fill:#000000;fill-opacity:1;fill-rule:nonzero;stroke:none"
         d="m 1076.82,6.007 c 0,-1.609 0,-2.691 -0.031,-3.715 0,-0.402 -0.215,-0.59 -0.68,-0.59 l -1.211,0 c -0.277,0 -0.339,-0.058 -0.339,-0.277 l 0,-0.527 c 0,-0.246 0.062,-0.309 0.187,-0.309 0.188,0 1.488,0.094 3.406,0.094 1.672,0 3.098,-0.094 3.286,-0.094 0.121,0 0.152,0.094 0.152,0.281 l 0,0.555 c 0,0.188 -0.031,0.277 -0.215,0.277 l -1.457,0 c -0.648,0 -0.867,0.313 -0.867,1.27 l 0,6.504 c 0,0.094 0.125,0.652 0.308,0.992 0.528,0.992 1.332,1.301 1.829,1.301 0.402,0 0.773,-0.094 1.023,-0.246 0.246,-0.125 0.559,-0.25 0.898,-0.25 0.555,0 1.301,0.621 1.301,1.519 0,0.711 -0.527,1.364 -1.578,1.364 -1.336,0 -2.789,-1.27 -3.719,-2.696 l -0.125,0 -0.152,2.137 c 0,0.187 -0.031,0.371 -0.219,0.371 -0.125,0 -0.246,-0.027 -0.433,-0.121 l -3.067,-1.582 c -0.183,-0.09 -0.246,-0.156 -0.246,-0.277 l 0,-0.188 c 0,-0.125 0.063,-0.152 0.246,-0.215 l 0.59,-0.312 c 0.867,-0.465 1.113,-0.774 1.113,-2.352 l 0,-2.914 z" /></g></g></svg>