<?xml version="1.0" encoding="UTF-8" standalone="no"?>
<svg
   xmlns:dc="http://purl.org/dc/elements/1.1/"
   xmlns:cc="http://creativecommons.org/ns#"
   xmlns:rdf="http://www.w3.org/1999/02/22-rdf-syntax-ns#"
   xmlns:svg="http://www.w3.org/2000/svg"
   xmlns="http://www.w3.org/2000/svg"
   id="svg3632"
   version="1.1"
   xml:space="preserve"
   width="601"
   height="601"
   viewBox="0 0 601 601"><metadata
     id="metadata3638"><rdf:RDF><cc:Work
         rdf:about=""><dc:format>image/svg+xml</dc:format><dc:type
           rdf:resource="http://purl.org/dc/dcmitype/StillImage" /><dc:title></dc:title></cc:Work></rdf:RDF></metadata><defs
     id="defs3636" /><g
     transform="matrix(-1,0,0,1,601.00125,0)"
     id="g3799"><path
       id="path3644"
       style="fill:#000000;fill-opacity:1;fill-rule:evenodd;stroke:none"
       d="m 300.5325,-2e-5 c 55.2925,0 102.31,12.5925 150.2,40.23875 47.925,27.68125 82.34875,62.105 110.03,110.03 27.64625,47.89 40.23875,94.93625 40.23875,150.26375 0,55.2925 -12.5925,102.31375 -40.23875,150.23375 -27.68125,47.89125 -62.105,82.34875 -110.03,109.995 -47.89,27.6475 -94.9075,40.24 -150.2,40.24 -55.3275,0 -102.3725,-12.5925 -150.2975,-40.24 C 102.34375,533.11498 67.88625,498.65748 40.24,450.76623 12.5925,402.84623 0,355.82498 0,300.53248 0,245.20998 12.5925,198.15873 40.24,150.26873 67.88625,102.34373 102.34375,67.91498 150.235,40.23873 198.16,12.59248 245.205,-2e-5 300.5325,-2e-5 Z m 0,0.4975 c -55.24875,0 -102.1925,12.56375 -150.04875,40.17625 -47.8275,27.64125 -82.2075,61.9875 -109.815,109.84375 -27.6075,47.8275 -40.165,94.76625 -40.165,150.015 0,55.22 12.5575,102.12875 40.165,149.985 27.6075,47.8225 61.9875,82.2025 109.815,109.81 47.85625,27.6075 94.8,40.17 150.04875,40.17 55.215,0 102.12875,-12.5625 149.95125,-40.17 47.85625,-27.6075 82.2025,-61.9875 109.84375,-109.81 27.6125,-47.85625 40.17625,-94.765 40.17625,-149.985 0,-55.24875 -12.56375,-102.1875 -40.17625,-150.015 C 532.68625,102.66123 498.34,68.31498 450.48375,40.67373 402.66125,13.06123 355.7475,0.49748 300.5325,0.49748 Z" /><path
       id="path3646"
       style="fill:#ffffff;fill-opacity:1;fill-rule:evenodd;stroke:none"
       d="m 0.50375,300.53248 c 0,-55.24875 12.5575,-102.1875 40.165,-150.015 27.6075,-47.85625 61.9875,-82.2025 109.815,-109.84375 47.86125,-27.6125 94.8,-40.17625 150.04875,-40.17625 55.22,0 102.12875,12.56375 149.95125,40.17625 47.85625,27.64125 82.2075,61.9875 109.84875,109.84375 27.6075,47.8275 40.17125,94.76625 40.17125,150.015 0,55.22 -12.56375,102.12875 -40.17125,149.98 -27.64125,47.8275 -61.9925,82.2075 -109.84875,109.815 -47.8225,27.6075 -94.73125,40.17 -149.95125,40.17 -55.24875,0 -102.1875,-12.5625 -150.04875,-40.17 -47.8275,-27.6075 -82.2075,-61.9875 -109.815,-109.815 -27.6075,-47.85125 -40.165,-94.76 -40.165,-149.98 z" /><path
       id="path3648"
       style="fill:#154889;fill-opacity:1;fill-rule:evenodd;stroke:none"
       d="m 14.50375,300.49748 c 0,-52.6277 11.97502,-97.39286 38.32153,-142.96672 C 79.14098,111.92363 111.9299,79.135946 157.50375,52.823946 203.07637,26.47373 247.86989,14.49748 300.5321,14.49748 c 52.63263,0 97.36328,12.009534 142.93713,38.326466 45.60714,26.345284 78.36277,59.099684 104.70805,104.706814 26.3157,45.57386 38.32647,90.33902 38.32647,142.96672 0,52.66222 -11.97625,97.42615 -38.32647,143 -26.312,45.57385 -59.10091,78.36153 -104.70805,104.67847 -45.57385,26.34528 -90.3045,38.32153 -142.93713,38.32153 -52.66221,0 -97.45573,-11.97625 -143.02835,-38.32153 C 111.9299,521.85901 79.14098,489.07133 52.82528,443.49748 26.47877,397.92363 14.50375,353.1597 14.50375,300.49748 Z" /><path
       style="fill:#ffffff"
       d="m 308.55096,161.91702 107.07335,107.20703 -341.217782,0 0,62.69339 341.565342,0 -107.12683,107.2605 79.00169,0 138.75424,-138.48689 -13.76849,0.18715 13.4744,-0.37429 -138.78097,-138.48689 z"
       id="path3763" /></g></svg>