<?xml version="1.0" encoding="UTF-8" standalone="no"?>
<svg
   xmlns:dc="http://purl.org/dc/elements/1.1/"
   xmlns:cc="http://creativecommons.org/ns#"
   xmlns:rdf="http://www.w3.org/1999/02/22-rdf-syntax-ns#"
   xmlns:svg="http://www.w3.org/2000/svg"
   xmlns="http://www.w3.org/2000/svg"
   viewBox="0 0 2252.9099 2252.9153"
   height="2252.9153"
   width="2252.9099"
   xml:space="preserve"
   version="1.1"
   id="svg9951"><metadata
     id="metadata9957"><rdf:RDF><cc:Work
         rdf:about=""><dc:format>image/svg+xml</dc:format><dc:type
           rdf:resource="http://purl.org/dc/dcmitype/StillImage" /><dc:title></dc:title></cc:Work></rdf:RDF></metadata><defs
     id="defs9955" /><g
     transform="matrix(1.25,0,0,-1.25,0,2252.9153)"
     id="g9959"><g
       id="g9961"><path
         id="path9963"
         style="fill:#ffffff;fill-opacity:1;fill-rule:evenodd;stroke:none"
         d="m 45.008,1.168 1712.765,0 c 3.782,0 7.563,0.5 11.207,1.551 3.7,0.91 7.161,2.414 10.391,4.371 3.281,1.871 6.34,4.191 8.984,6.879 2.688,2.652 5.012,5.66 6.879,8.941 1.918,3.282 3.422,6.797 4.383,10.438 1.047,3.648 1.59,7.426 1.547,11.219 l 0,1713.234 c 0,3.738 -0.5,7.57 -1.547,11.211 -0.914,3.652 -2.418,7.117 -4.383,10.398 -1.867,3.282 -4.191,6.297 -6.879,8.938 -2.644,2.73 -5.703,5.008 -8.984,6.922 -3.23,1.918 -6.691,3.383 -10.391,4.383 -3.691,1.003 -7.425,1.597 -11.207,1.503 l -1713.218,0 c -3.739,0 -7.571,-0.5 -11.168,-1.503 -3.692,-0.954 -7.207,-2.465 -10.442,-4.383 -3.277,-1.914 -6.289,-4.192 -8.968,-6.922 -2.704,-2.641 -5.024,-5.656 -6.887,-8.938 -1.918,-3.281 -3.375,-6.746 -4.371,-10.398 -1.008,-3.688 -1.551,-7.473 -1.551,-11.211 l 0,-1713.234 C 1.211,40.774 1.711,36.996 2.719,33.348 3.672,29.66 5.172,26.192 7.09,22.91 9,19.629 11.273,16.621 13.977,13.969 16.656,11.281 19.668,8.961 22.945,7.09 26.18,5.133 29.695,3.676 33.387,2.719 36.984,1.668 40.816,1.125 44.555,1.168 l 0.453,0 z" /><path
         id="path9965"
         style="fill:#154889;fill-opacity:1;fill-rule:evenodd;stroke:none"
         d="m 44.961,28.793 c -1.363,0 -2.731,0.184 -4.094,0.547 -1.332,0.367 -2.656,0.914 -3.836,1.641 -1.187,0.683 -2.277,1.5 -3.281,2.508 -0.957,1.003 -1.867,2.093 -2.551,3.324 -0.683,1.183 -1.226,2.457 -1.594,3.824 -0.457,1.332 -0.593,2.746 -0.593,4.113 l 0,1712.821 c 0,1.421 0,2.789 0.593,4.152 0.454,1.32 0.911,2.601 1.594,3.785 0.731,1.227 1.594,2.32 2.551,3.324 1.004,0.957 2.094,1.867 3.281,2.559 1.18,0.683 2.504,1.23 3.836,1.551 1.363,0.406 2.731,0.589 4.094,0.589 l 1712.355,0 c 1.368,0 2.786,-0.183 4.102,-0.589 1.363,-0.321 2.594,-0.868 3.781,-1.551 1.278,-0.692 2.367,-1.602 3.324,-2.559 1,-1.004 1.875,-2.097 2.559,-3.324 0.731,-1.184 1.231,-2.465 1.645,-3.785 0.453,-1.363 0.543,-2.731 0.543,-4.152 l 0,-1712.821 c 0,-1.367 0,-2.781 -0.543,-4.113 -0.461,-1.367 -0.914,-2.641 -1.645,-3.824 -0.684,-1.231 -1.559,-2.321 -2.559,-3.324 -0.957,-1.008 -2.046,-1.825 -3.324,-2.508 -1.187,-0.727 -2.461,-1.231 -3.781,-1.641 -1.316,-0.363 -2.734,-0.59 -4.102,-0.547 l -1712.355,0" /><path
         id="path9967"
         style="fill:#ffffff;fill-opacity:1;fill-rule:evenodd;stroke:none"
         d="m 255.449,1385.883 -57.984,-14.996 c -0.453,-0.047 -0.5,-0.094 -0.774,-0.137 -0.453,-0.094 -0.5,-0.14 -0.816,-0.14 -0.457,-0.09 -0.867,-0.137 -1.367,-0.137 -0.504,-0.039 -1.004,-0.039 -1.551,0 -0.5,0 -1.004,0.039 -1.504,0.137 -1.183,0.183 -2.363,0.457 -3.508,0.961 -1.507,0.589 -2.875,1.41 -4.101,2.41 -1.192,1.05 -2.235,2.234 -3.102,3.554 -0.73,1.094 -1.277,2.235 -1.64,3.465 -0.547,1.551 -0.864,3.242 -0.817,4.883 0,0.727 0.043,1.457 0,2.188 0,0.589 0,1.183 0.453,1.773 0,0.594 0.453,1.137 0.543,1.73 0,0.411 0.461,0.868 0.594,1.325 0.457,0.5 0.641,1.047 0.957,1.547 l 113.121,168.992 113.18,-168.992 c 0.039,-0.036 0,-0.137 0,-0.227 0.453,-0.547 0.637,-1.094 0.914,-1.641 0.453,-0.593 0.5,-1.136 0.683,-1.687 0.454,-0.594 0.454,-1.137 0.5,-1.731 0,-0.5 0,-0.953 0.454,-1.457 0.046,-0.593 0,-1.23 0,-1.82 0,-1.957 -0.454,-3.973 -1.137,-5.797 -0.547,-1.504 -1.367,-2.871 -2.414,-4.101 -1.051,-1.227 -2.235,-2.227 -3.555,-3.094 -1.058,-0.731 -2.242,-1.274 -3.469,-1.688 -1.277,-0.41 -2.687,-0.683 -4.101,-0.73 -0.453,-0.047 -0.727,-0.047 -1.137,-0.047 -0.453,0.047 -0.867,0.047 -1.32,0.094 -0.461,0.09 -0.914,0.136 -1.414,0.23 -0.453,0.035 -0.504,0.137 -0.727,0.184 l -57.894,14.949 0,-1149.074 -77.203,0 0,1149.074" /><path
         id="path9969"
         style="fill:#ffffff;fill-opacity:1;fill-rule:evenodd;stroke:none"
         d="m 573.047,1386.426 -57.984,-14.992 -0.821,-0.141 c -0.453,-0.09 -0.5,-0.137 -0.769,-0.137 -0.461,-0.089 -0.914,-0.132 -1.368,-0.132 -0.546,-0.051 -1.05,-0.051 -1.55,0 -0.5,0 -1,0.043 -1.5,0.132 -1.188,0.184 -2.418,0.461 -3.555,0.958 -1.457,0.593 -2.832,1.414 -4.062,2.417 -1.231,1.047 -2.278,2.231 -3.145,3.551 -0.684,1.094 -1.23,2.235 -1.641,3.473 -0.504,1.547 -0.82,3.23 -0.773,4.871 l 0,2.188 c 0,0.593 0,1.187 0.457,1.777 0,0.59 0.457,1.14 0.59,1.734 0,0.406 0.457,0.867 0.59,1.321 0.461,0.5 0.593,1.054 0.961,1.558 l 113.132,168.977 113.121,-168.977 c 0.047,-0.047 0,-0.137 0,-0.23 0.454,-0.547 0.684,-1.102 0.958,-1.649 0.453,-0.594 0.5,-1.14 0.683,-1.683 0,-0.594 0.453,-1.145 0.5,-1.735 l 0,-3.281 c 0,-1.957 -0.453,-3.961 -1.137,-5.793 -0.593,-1.504 -1.414,-2.871 -2.464,-4.102 -1,-1.226 -2.18,-2.23 -3.504,-3.093 -1.094,-0.731 -2.231,-1.278 -3.469,-1.688 -1.328,-0.41 -2.734,-0.683 -4.149,-0.726 -0.457,-0.051 -0.726,-0.051 -1.089,-0.051 -0.457,0.051 -0.868,0.051 -1.368,0.094 -0.457,0.089 -0.914,0.136 -1.367,0.226 -0.453,0.047 -0.504,0.141 -0.773,0.184 l -57.891,14.949 0,-1149.074 -77.16,0 0,1149.074" /><path
         id="path9971"
         style="fill:#ffffff;fill-opacity:1;fill-rule:evenodd;stroke:none"
         d="m 890.656,1386.965 -57.968,-14.996 c -0.454,-0.043 -0.59,-0.09 -0.821,-0.137 -0.453,-0.09 -0.5,-0.136 -0.785,-0.136 -0.5,-0.09 -0.906,-0.137 -1.41,-0.137 -0.5,-0.043 -1.047,-0.043 -1.547,0 -0.504,0 -0.957,0.047 -1.457,0.137 -1.23,0.183 -2.414,0.457 -3.555,0.957 -1.504,0.593 -2.867,1.414 -4.054,2.414 -1.286,1.047 -2.332,2.234 -3.149,3.554 -0.687,1.102 -1.277,2.243 -1.687,3.469 -0.504,1.551 -0.774,3.238 -0.774,4.875 l 0,2.188 c 0,0.593 0.453,1.183 0.453,1.773 0,0.598 0.457,1.145 0.547,1.734 0,0.418 0.457,0.875 0.594,1.329 0.457,0.503 0.637,1.05 0.957,1.546 l 113.129,168.985 113.172,-168.985 c 0.043,-0.043 0,-0.132 0,-0.222 0.453,-0.547 0.683,-1.094 0.953,-1.641 0.453,-0.594 0.504,-1.148 0.684,-1.695 0,-0.59 0.453,-1.137 0.453,-1.735 0,-0.496 0.461,-0.953 0.461,-1.457 l 0,-1.82 c 0,-1.957 -0.461,-3.961 -1.094,-5.785 -0.59,-1.504 -1.457,-2.879 -2.461,-4.106 -1,-1.234 -2.184,-2.238 -3.551,-3.101 -1.098,-0.727 -2.234,-1.274 -3.418,-1.684 -1.324,-0.41 -2.742,-0.683 -4.152,-0.73 -0.461,-0.043 -0.731,-0.043 -1.094,-0.043 -0.457,0.043 -0.91,0.043 -1.367,0.09 -0.504,0.09 -0.91,0.136 -1.363,0.226 -0.461,0.047 -0.508,0.137 -0.778,0.184 l -57.883,14.949 0,-1149.074 -77.168,0 0,1149.074" /><path
         id="path9973"
         style="fill:#ffffff;fill-opacity:1;fill-rule:evenodd;stroke:none"
         d="m 1459.316,1387.895 -58.015,-14.996 c -0.461,-0.047 -0.504,-0.09 -0.778,-0.137 -0.453,-0.094 -0.503,-0.137 -0.773,-0.137 -0.453,-0.094 -0.91,-0.133 -1.367,-0.133 -0.547,-0.046 -1.094,-0.046 -1.59,0 -0.504,0 -0.961,0.039 -1.461,0.133 -1.242,0.184 -2.422,0.457 -3.562,0.957 -1.457,0.59 -2.872,1.414 -4.055,2.418 -1.227,1.043 -2.277,2.227 -3.145,3.547 -0.683,1.106 -1.273,2.242 -1.636,3.473 -0.547,1.551 -0.821,3.238 -0.821,4.875 l 0,2.187 c 0,0.59 0,1.184 0.457,1.774 0,0.593 0.453,1.144 0.547,1.742 0,0.41 0.453,0.867 0.59,1.32 0.453,0.5 0.637,1.047 0.957,1.551 l 113.125,168.98 113.172,-168.98 c 0.047,-0.047 0,-0.137 0,-0.227 0.461,-0.546 0.684,-1.093 0.961,-1.644 0.453,-0.59 0.5,-1.137 0.683,-1.692 0,-0.589 0.454,-1.14 0.5,-1.73 0,-0.504 0,-0.957 0.458,-1.461 0.042,-0.59 0,-1.23 0,-1.82 0,-1.957 -0.458,-3.961 -1.141,-5.785 -0.547,-1.504 -1.363,-2.879 -2.414,-4.106 -1.012,-1.23 -2.195,-2.234 -3.563,-3.101 -1.043,-0.731 -2.234,-1.274 -3.457,-1.688 -1.281,-0.406 -2.691,-0.684 -4.101,-0.723 -0.457,-0.046 -0.731,-0.046 -1.094,-0.046 -0.457,0.046 -0.914,0.046 -1.367,0.085 -0.453,0.094 -0.918,0.137 -1.422,0.231 -0.453,0.047 -0.453,0.137 -0.731,0.184 l -57.878,14.949 0,-1149.067 -77.172,0 0,1149.067" /><path
         id="path9975"
         style="fill:#ffffff;fill-opacity:1;fill-rule:nonzero;stroke:none"
         d="m 1184.262,1625.246 48.246,0 0,-1447.25 -48.246,0 0,1447.25 z" /><path
         id="path9977"
         style="fill:#c1121c;fill-opacity:1;fill-rule:evenodd;stroke:none"
         d="m 1693.238,1773.531 64.77,0 c 1.367,-0.042 2.781,-0.222 4.101,-0.636 1.368,-0.41 2.688,-0.953 3.879,-1.739 1.184,-0.734 2.278,-1.593 3.235,-2.644 1.004,-1 1.777,-2.137 2.461,-3.367 0.683,-1.278 1.183,-2.555 1.5,-3.922 0.457,-1.09 0.457,-2.231 0.457,-3.379 l 0,-57.484 -450.586,-1671.567 -100.098,0 470.281,1744.738" /><path
         id="path9979"
         style="fill:#000000;fill-opacity:1;fill-rule:evenodd;stroke:none"
         d="m 1759.211,1802.324 c -0.477,0.012 -0.957,0.012 -1.441,0 l -1713.215,0 c -3.836,0 -7.774,-0.511 -11.477,-1.546 l -0.004,0 c -3.801,-0.985 -7.406,-2.536 -10.722,-4.5 -3.352,-1.954 -6.434,-4.293 -9.192,-7.098 l -0.008,0 c -2.769,-2.711 -5.156,-5.809 -7.074,-9.176 0,0 0,-0.012 -0.004,-0.012 l 0,-0.011 c -1.961,-3.36 -3.457,-6.918 -4.484,-10.664 l -0.004,0 C 0.563,1765.535 0,1761.656 0,1757.801 L 0,44.555 c 0.047,-3.887 0.559,-7.762 1.586,-11.508 0.988,-3.801 2.535,-7.371 4.492,-10.726 1.961,-3.36 4.297,-6.446 7.07,-9.172 l 0.004,0 0,-0.008 c 2.75,-2.75 5.832,-5.129 9.188,-7.051 l 0.012,0 C 25.68,4.078 29.297,2.578 33.09,1.594 36.789,0.524 40.711,-0.039 44.555,0.008 l 1713.218,0 c 3.883,0 7.762,0.516 11.508,1.59 3.809,0.941 7.371,2.488 10.68,4.492 3.367,1.918 6.5,4.297 9.223,7.063 2.754,2.718 5.136,5.8 7.054,9.171 1.969,3.364 3.512,6.969 4.5,10.719 l 0,0.008 c 1.071,3.742 1.637,7.629 1.586,11.531 l 0,1713.219 c 0,3.836 -0.511,7.762 -1.586,11.512 -0.945,3.769 -2.492,7.328 -4.504,10.687 -1.918,3.364 -4.3,6.457 -7.054,9.168 -2.731,2.817 -5.871,5.156 -9.227,7.11 -3.316,1.964 -6.879,3.476 -10.676,4.5 -3.293,0.894 -6.652,1.48 -10.066,1.546 z m -0.02,-1.164 c 3.297,-0.066 6.559,-0.632 9.789,-1.507 3.7,-1 7.161,-2.465 10.395,-4.383 3.277,-1.914 6.336,-4.192 8.984,-6.922 2.684,-2.641 5.008,-5.656 6.875,-8.938 1.965,-3.281 3.469,-6.746 4.383,-10.398 1.047,-3.641 1.547,-7.473 1.547,-11.211 l 0,-1713.234 c 0.047,-3.793 -0.5,-7.571 -1.547,-11.219 -0.961,-3.641 -2.465,-7.16 -4.383,-10.442 -1.867,-3.277 -4.191,-6.285 -6.875,-8.937 -2.648,-2.688 -5.707,-5.008 -8.984,-6.879 -3.234,-1.953 -6.695,-3.461 -10.395,-4.371 -3.644,-1.051 -7.425,-1.551 -11.207,-1.551 l -1713.218,0 C 40.816,1.125 36.984,1.668 33.387,2.719 29.695,3.676 26.18,5.137 22.945,7.09 19.668,8.961 16.656,11.281 13.977,13.969 11.273,16.621 9,19.629 7.09,22.906 5.172,26.188 3.672,29.66 2.711,33.348 c -1,3.648 -1.504,7.426 -1.543,11.219 l 0,1713.234 c 0,3.738 0.543,7.523 1.543,11.211 1,3.652 2.461,7.117 4.379,10.398 1.863,3.282 4.183,6.297 6.887,8.938 2.679,2.73 5.691,5.008 8.968,6.922 3.235,1.918 6.75,3.426 10.442,4.383 3.597,1.003 7.429,1.503 11.168,1.503 l 1713.218,0 c 0.473,0.012 0.95,0.012 1.418,0 l 0,0 z" /></g></g></svg>