<?xml version="1.0" encoding="UTF-8" standalone="no"?>
<svg
   xmlns:dc="http://purl.org/dc/elements/1.1/"
   xmlns:cc="http://creativecommons.org/ns#"
   xmlns:rdf="http://www.w3.org/1999/02/22-rdf-syntax-ns#"
   xmlns:svg="http://www.w3.org/2000/svg"
   xmlns="http://www.w3.org/2000/svg"
   viewBox="0 0 461.78763 461.89426"
   height="461.89426"
   width="461.78763"
   xml:space="preserve"
   version="1.1"
   id="svg9003"><metadata
     id="metadata9009"><rdf:RDF><cc:Work
         rdf:about=""><dc:format>image/svg+xml</dc:format><dc:type
           rdf:resource="http://purl.org/dc/dcmitype/StillImage" /><dc:title></dc:title></cc:Work></rdf:RDF></metadata><defs
     id="defs9007" /><g
     transform="matrix(1.25,0,0,-1.25,0,461.89426)"
     id="g9011"><g
       id="g9013"><path
         id="path9015"
         style="fill:#ffffff;fill-opacity:1;fill-rule:evenodd;stroke:none"
         d="m 0.016,8.406 c -0.012,-5.605 -0.004,-2.801 0,0 z M 359.434,368.91 c 5.332,0 9.367,-4.352 9.367,-9.578 L 368.824,8.488 c 0,-1.867 -1.144,-3.855 -2.761,-5.363 -1.618,-1.508 -3.696,-2.52 -5.442,-2.52 -89.867,0 -259.414,0.032 -350.949,0.016 -2.387,0 -4.645,1.121 -6.309,2.668 C 1.703,4.836 0.652,6.812 0.621,8.414 L 0.605,359.797 c 0,2.058 0.879,4.336 2.446,6.086 1.562,1.754 3.797,2.976 6.519,2.976 l 349.864,0.051 z" /><path
         id="path9017"
         style="fill:#000000;fill-opacity:1;fill-rule:evenodd;stroke:none"
         d="M 359.434,369.515 9.57,369.465 c -2.906,0 -5.308,-1.317 -6.972,-3.176 C 0.938,364.429 0,362.027 0,359.797 L 0.016,8.406 l 0,-0.004 C 0.051,6.551 1.195,4.48 2.953,2.847 4.707,1.215 7.098,0.015 9.672,0.015 101.207,0.027 270.754,0 360.621,0 c 1.973,0 4.149,1.094 5.856,2.683 1.707,1.59 2.953,3.696 2.953,5.805 l -0.028,350.844 c 0,5.539 -4.308,10.183 -9.968,10.183 z m 0,-0.605 c 5.332,0 9.367,-4.352 9.367,-9.578 L 368.824,8.488 c 0,-1.867 -1.144,-3.855 -2.761,-5.363 -1.618,-1.508 -3.696,-2.52 -5.442,-2.52 -89.867,0 -259.414,0.032 -350.949,0.016 -2.387,0 -4.645,1.121 -6.309,2.668 C 1.703,4.836 0.652,6.812 0.621,8.414 L 0.605,359.797 c 0,2.058 0.879,4.336 2.446,6.086 1.562,1.754 3.797,2.976 6.519,2.976 l 349.864,0.051 z" /><path
         id="path9019"
         style="fill:#154889;fill-opacity:1;fill-rule:evenodd;stroke:none"
         d="M 360.012,6.719 9.422,6.734 C 8.34,6.734 6.801,7.972 6.801,8.965 L 6.785,360.137 c 0,1.003 1.024,2.507 2.11,2.507 l 351.628,-0.011 c 1.133,0 2.129,-1.461 2.129,-2.551 L 362.676,9.316 c 0,-1.199 -1.774,-2.597 -2.664,-2.597 z" /><path
         id="path9021"
         style="fill:#ffffff;fill-opacity:1;fill-rule:evenodd;stroke:none"
         d="m 76.957,319.996 0,-0.027 -23.461,-34.957 c -1.133,-2.77 1.867,-4.922 3.617,-4.383 l 11.93,3.043 0.051,0 -0.047,-234.434 15.855,0 0,234.441 11.918,-3.039 c 1.754,-0.539 4.75,1.614 3.618,4.383 l -23.465,34.953 0,0.008 -0.004,-0.004 -0.012,0.016 z" /><path
         id="path9023"
         style="fill:#ffffff;fill-opacity:1;fill-rule:evenodd;stroke:none"
         d="m 162.926,320.043 0,-0.028 -23.461,-34.957 c -1.137,-2.769 1.867,-4.918 3.617,-4.379 l 11.93,3.04 0.051,0 -0.047,-234.43 15.855,0 0,234.441 11.918,-3.043 c 1.75,-0.539 4.746,1.614 3.613,4.387 l -23.461,34.949 0,0.012 -0.003,-0.004 -0.012,0.012 z" /><path
         id="path9025"
         style="fill:#ffffff;fill-opacity:1;fill-rule:evenodd;stroke:none"
         d="m 292.391,320.043 0,-0.028 -23.465,-34.957 c -1.133,-2.769 1.871,-4.918 3.621,-4.379 l 11.926,3.04 0.05,0 -0.043,-234.43 15.856,0 0,234.441 11.918,-3.043 c 1.75,-0.539 4.746,1.614 3.613,4.387 l -23.461,34.949 0,0.012 -0.008,-0.004 -0.007,0.012 z" /><path
         id="path9027"
         style="fill:#ffffff;fill-opacity:1;fill-rule:evenodd;stroke:none"
         d="m 223.313,332.437 10.011,0 0,-295.449 -10.039,-0.023 0.028,295.472 z" /><path
         id="path9029"
         style="fill:#c1121c;fill-opacity:1;fill-rule:evenodd;stroke:none"
         d="M 347.52,362.676 229.902,6.703 l 21.301,0 111.469,341.527 -0.067,11.66 c 0,1.145 -0.722,2.704 -2.078,2.731 l -13.007,0.055 z" /></g></g></svg>