<?xml version="1.0" encoding="UTF-8" standalone="no"?>
<svg
   xmlns:dc="http://purl.org/dc/elements/1.1/"
   xmlns:cc="http://creativecommons.org/ns#"
   xmlns:rdf="http://www.w3.org/1999/02/22-rdf-syntax-ns#"
   xmlns:svg="http://www.w3.org/2000/svg"
   xmlns="http://www.w3.org/2000/svg"
   viewBox="0 0 600 900"
   height="900"
   width="600"
   xml:space="preserve"
   version="1.1"
   id="svg6928"><metadata
     id="metadata6934"><rdf:RDF><cc:Work
         rdf:about=""><dc:format>image/svg+xml</dc:format><dc:type
           rdf:resource="http://purl.org/dc/dcmitype/StillImage" /><dc:title></dc:title></cc:Work></rdf:RDF></metadata><defs
     id="defs6932" /><g
     transform="matrix(1.25,0,0,-1.25,0,900)"
     id="g6936"><g
       id="g6938"><path
         id="path6940"
         style="fill:#ffffff;fill-opacity:1;fill-rule:nonzero;stroke:none"
         d="m 30.445,719.762 c -30.273,0 -30.207,-30.141 -30.207,-30.141 l 0,-659.242 c 0,0 -0.066,-30.137 30.207,-30.137 l 419.11,0 c 30.273,0 30.203,30.137 30.203,30.137 l 0,659.242 c 0,0 0.07,30.141 -30.203,30.141 l -419.11,0 z" /><path
         id="path6942"
         style="fill:#000000;fill-opacity:1;fill-rule:nonzero;stroke:none"
         d="M 29.832,712.313 C 8.148,712.348 8.23,690.699 8.23,690.699 l 0,-660.941 c 0,0 -0.082,-21.645 21.602,-21.606 l 420.801,0 c 21.683,-0.039 21.597,21.606 21.597,21.606 l 0,660.941 c 0,0 0.086,21.649 -21.597,21.614 l -420.801,0 z m 0,-12 420.801,0 c 0,0 9.574,-0.383 9.597,-9.614 l 0,-660.941 c -0.023,-9.227 -9.597,-9.606 -9.597,-9.606 l -420.801,0 c 0,0 -9.578,0.379 -9.602,9.606 l 0,660.941 c 0.024,9.231 9.602,9.614 9.602,9.614 z" /><path
         id="path6944"
         style="fill:#000000;fill-opacity:1;fill-rule:nonzero;stroke:none"
         d="m 110.188,609.543 0,-0.016 -0.012,0 0.012,0.016 z" /><path
         id="path6946"
         style="fill:#000000;fill-opacity:1;fill-rule:nonzero;stroke:none"
         d="m 110.176,609.543 0.012,0 0,-0.016 -0.012,0 0,0.016 z" /><path
         id="path6948"
         style="fill:#000000;fill-opacity:1;fill-rule:nonzero;stroke:none"
         d="m 110.176,609.527 0,0.016 0.012,-0.016 -0.012,0 z m 0.012,0 -0.012,0.016 0,-0.016 0.012,0 z" /><path
         id="path6950"
         style="fill:#000000;fill-opacity:1;fill-rule:nonzero;stroke:none"
         d="m 110.203,609.527 -0.027,0 0.012,0 0,0.016 0.015,-0.016 z" /><path
         id="path6952"
         style="fill:#000000;fill-opacity:1;fill-rule:nonzero;stroke:none"
         d="m 110.176,609.527 0,0.016 0,-0.016 0.012,0.016 -0.012,-0.016 z" /><path
         id="path6954"
         style="fill:#000000;fill-opacity:1;fill-rule:nonzero;stroke:none"
         d="m 110.176,609.543 0.012,0 0,-0.016 -0.012,0 0,0.016 z" /><path
         id="path6956"
         style="fill:#000000;fill-opacity:1;fill-rule:nonzero;stroke:none"
         d="m 110.203,609.543 0,-0.027 -0.027,0 0.027,0.027 z" /><path
         id="path6958"
         style="fill:#000000;fill-opacity:1;fill-rule:nonzero;stroke:none"
         d="m 110.176,609.543 0.031,0 0,-0.027 -0.031,0 0,0.027 z" /><path
         id="path6960"
         style="fill:#000000;fill-opacity:1;fill-rule:nonzero;stroke:none"
         d="m 110.176,609.516 0,0.027 0.031,-0.027 -0.031,0 z m 0.031,0 -0.031,0.027 0,-0.027 0.031,0 z" /><path
         id="path6962"
         style="fill:#000000;fill-opacity:1;fill-rule:nonzero;stroke:none"
         d="m 110.203,609.516 -0.027,0 0.012,0 0,0.027 0.015,-0.027 z" /><path
         id="path6964"
         style="fill:#000000;fill-opacity:1;fill-rule:nonzero;stroke:none"
         d="m 110.176,609.516 0,0.027 0,-0.027 0.031,0.027 -0.031,-0.027 z" /><path
         id="path6966"
         style="fill:#000000;fill-opacity:1;fill-rule:nonzero;stroke:none"
         d="m 110.176,609.543 0.031,0 0,-0.027 -0.031,0 0,0.027 z" /><path
         id="path6968"
         style="fill:#000000;fill-opacity:1;fill-rule:nonzero;stroke:none"
         d="m 110.203,609.543 0,-0.027 -0.027,0 0.027,0.027 z" /><path
         id="path6970"
         style="fill:#000000;fill-opacity:1;fill-rule:nonzero;stroke:none"
         d="m 110.176,609.543 0.031,0 0,-0.027 -0.031,0 0,0.027 z" /><path
         id="path6972"
         style="fill:#000000;fill-opacity:1;fill-rule:nonzero;stroke:none"
         d="m 110.176,609.516 0,0.027 0.031,-0.027 -0.031,0 z m 0.031,0 -0.031,0.027 0,-0.027 0.031,0 z" /><path
         id="path6974"
         style="fill:#000000;fill-opacity:1;fill-rule:nonzero;stroke:none"
         d="m 110.203,609.516 -0.027,0 0.012,0 0,0.027 0.015,-0.027 z" /><path
         id="path6976"
         style="fill:#000000;fill-opacity:1;fill-rule:nonzero;stroke:none"
         d="m 110.176,609.516 0,0.027 0,-0.027 0.031,0.027 -0.031,-0.027 z" /><path
         id="path6978"
         style="fill:#000000;fill-opacity:1;fill-rule:nonzero;stroke:none"
         d="m 110.176,609.543 0.031,0 0,-0.027 -0.031,0 0,0.027 z" /><path
         id="path6980"
         style="fill:#000000;fill-opacity:1;fill-rule:nonzero;stroke:none"
         d="m 110.203,609.543 0,-0.027 -0.027,0 0.027,0.027 z" /><path
         id="path6982"
         style="fill:#000000;fill-opacity:1;fill-rule:nonzero;stroke:none"
         d="m 110.176,609.543 0.031,0 0,-0.027 -0.031,0 0,0.027 z" /><path
         id="path6984"
         style="fill:#000000;fill-opacity:1;fill-rule:nonzero;stroke:none"
         d="m 110.176,609.516 0,0.027 0.031,-0.027 -0.031,0 z m 0.031,0 -0.031,0.027 0,-0.027 0.031,0 z" /><path
         id="path6986"
         style="fill:#000000;fill-opacity:1;fill-rule:nonzero;stroke:none"
         d="m 110.203,609.516 -0.027,0 0.012,0 0,0.027 0.015,-0.027 z" /><path
         id="path6988"
         style="fill:#000000;fill-opacity:1;fill-rule:nonzero;stroke:none"
         d="m 110.176,609.516 0,0.027 0,-0.027 0.031,0.027 -0.031,-0.027 z" /><path
         id="path6990"
         style="fill:#000000;fill-opacity:1;fill-rule:nonzero;stroke:none"
         d="m 110.176,609.543 0.031,0 0,-0.027 -0.031,0 0,0.027 z" /><path
         id="path6992"
         style="fill:#000000;fill-opacity:1;fill-rule:nonzero;stroke:none"
         d="M 30.445,720 C 15.23,720 7.57,712.391 3.777,704.797 -0.02,697.203 0,689.617 0,689.617 L 0,30.379 c 0,0 -0.02,-7.582 3.777,-15.176 C 7.57,7.613 15.23,0 30.445,0 l 419.11,0 c 15.215,0 22.875,7.613 26.668,15.203 3.797,7.594 3.777,15.18 3.777,15.18 l 0,659.234 c 0,0.004 0.02,7.586 -3.777,15.18 C 472.43,712.387 464.77,720 449.555,720 l -419.11,0 z m 0,-0.238 419.11,0 c 30.273,0 30.203,-30.141 30.203,-30.141 l 0,-659.242 c 0,0 0.07,-30.137 -30.203,-30.137 l -419.11,0 C 0.172,0.242 0.238,30.379 0.238,30.379 l 0,659.242 c 0,0 -0.066,30.141 30.207,30.141 z" /><path
         id="path6994"
         style="fill:#000000;fill-opacity:1;fill-rule:nonzero;stroke:none"
         d="m 105.191,662.004 0,-0.016 -0.015,0 0.015,0.016 z" /><path
         id="path6996"
         style="fill:#000000;fill-opacity:1;fill-rule:nonzero;stroke:none"
         d="m 105.176,662.004 0.016,0 0,-0.016 -0.016,0 0,0.016 z" /><path
         id="path6998"
         style="fill:#000000;fill-opacity:1;fill-rule:nonzero;stroke:none"
         d="m 105.176,661.988 0,0.016 0.015,-0.016 -0.015,0 z m 0.015,0 -0.015,0.016 0,-0.016 0.015,0 z" /><path
         id="path7000"
         style="fill:#000000;fill-opacity:1;fill-rule:nonzero;stroke:none"
         d="m 105.207,661.988 -0.031,0 0.015,0 0,0.016 0.016,-0.016 z" /><path
         id="path7002"
         style="fill:#000000;fill-opacity:1;fill-rule:nonzero;stroke:none"
         d="m 105.176,661.988 0,0.016 0,-0.016 0.015,0.016 -0.015,-0.016 z" /><path
         id="path7004"
         style="fill:#000000;fill-opacity:1;fill-rule:nonzero;stroke:none"
         d="m 105.176,662.004 0.016,0 0,-0.016 -0.016,0 0,0.016 z" /><path
         id="path7006"
         style="fill:#000000;fill-opacity:1;fill-rule:nonzero;stroke:none"
         d="m 105.207,662.004 0,-0.027 -0.031,0 0.031,0.027 z" /><path
         id="path7008"
         style="fill:#000000;fill-opacity:1;fill-rule:nonzero;stroke:none"
         d="m 105.176,662.004 0.031,0 0,-0.027 -0.031,0 0,0.027 z" /><path
         id="path7010"
         style="fill:#000000;fill-opacity:1;fill-rule:nonzero;stroke:none"
         d="m 105.176,661.977 0,0.027 0.031,-0.027 -0.031,0 z m 0.031,0 -0.031,0.027 0,-0.027 0.031,0 z" /><path
         id="path7012"
         style="fill:#000000;fill-opacity:1;fill-rule:nonzero;stroke:none"
         d="m 105.207,661.977 -0.031,0 0.015,0 0,0.027 0.016,-0.027 z" /><path
         id="path7014"
         style="fill:#000000;fill-opacity:1;fill-rule:nonzero;stroke:none"
         d="m 105.176,661.977 0,0.027 0,-0.027 0.031,0.027 -0.031,-0.027 z" /><path
         id="path7016"
         style="fill:#000000;fill-opacity:1;fill-rule:nonzero;stroke:none"
         d="m 105.176,662.004 0.031,0 0,-0.027 -0.031,0 0,0.027 z" /><path
         id="path7018"
         style="fill:#000000;fill-opacity:1;fill-rule:nonzero;stroke:none"
         d="m 105.207,662.004 0,-0.027 -0.031,0 0.031,0.027 z" /><path
         id="path7020"
         style="fill:#000000;fill-opacity:1;fill-rule:nonzero;stroke:none"
         d="m 105.176,662.004 0.031,0 0,-0.027 -0.031,0 0,0.027 z" /><path
         id="path7022"
         style="fill:#000000;fill-opacity:1;fill-rule:nonzero;stroke:none"
         d="m 105.176,661.977 0,0.027 0.031,-0.027 -0.031,0 z m 0.031,0 -0.031,0.027 0,-0.027 0.031,0 z" /><path
         id="path7024"
         style="fill:#000000;fill-opacity:1;fill-rule:nonzero;stroke:none"
         d="m 105.207,661.977 -0.031,0 0.015,0 0,0.027 0.016,-0.027 z" /><path
         id="path7026"
         style="fill:#000000;fill-opacity:1;fill-rule:nonzero;stroke:none"
         d="m 105.176,661.977 0,0.027 0,-0.027 0.031,0.027 -0.031,-0.027 z" /><path
         id="path7028"
         style="fill:#000000;fill-opacity:1;fill-rule:nonzero;stroke:none"
         d="m 105.176,662.004 0.031,0 0,-0.027 -0.031,0 0,0.027 z" /><path
         id="path7030"
         style="fill:#000000;fill-opacity:1;fill-rule:nonzero;stroke:none"
         d="m 105.207,662.004 0,-0.027 -0.031,0 0.031,0.027 z" /><path
         id="path7032"
         style="fill:#000000;fill-opacity:1;fill-rule:nonzero;stroke:none"
         d="m 105.176,662.004 0.031,0 0,-0.027 -0.031,0 0,0.027 z" /><path
         id="path7034"
         style="fill:#000000;fill-opacity:1;fill-rule:nonzero;stroke:none"
         d="m 105.176,661.977 0,0.027 0.031,-0.027 -0.031,0 z m 0.031,0 -0.031,0.027 0,-0.027 0.031,0 z" /><path
         id="path7036"
         style="fill:#000000;fill-opacity:1;fill-rule:nonzero;stroke:none"
         d="m 105.207,661.977 -0.031,0 0.015,0 0,0.027 0.016,-0.027 z" /><path
         id="path7038"
         style="fill:#000000;fill-opacity:1;fill-rule:nonzero;stroke:none"
         d="m 105.176,661.977 0,0.027 0,-0.027 0.031,0.027 -0.031,-0.027 z" /><path
         id="path7040"
         style="fill:#000000;fill-opacity:1;fill-rule:nonzero;stroke:none"
         d="m 105.176,662.004 0.031,0 0,-0.027 -0.031,0 0,0.027 z" /><path
         id="path7042"
         style="fill:#000000;fill-opacity:1;fill-rule:nonzero;stroke:none"
         d="m 105.199,661.992 0,-0.015 -0.015,0 0.015,0.015 z" /><path
         id="path7044"
         style="fill:#000000;fill-opacity:1;fill-rule:nonzero;stroke:none"
         d="m 105.184,661.992 0.016,0 0,-0.012 -0.016,0 0,0.012 z" /><path
         id="path7046"
         style="fill:#000000;fill-opacity:1;fill-rule:nonzero;stroke:none"
         d="m 105.184,661.977 0,0.015 0.015,-0.015 -0.015,0 z m 0.015,0 -0.015,0.015 0,-0.015 0.015,0 z" /><path
         id="path7048"
         style="fill:#000000;fill-opacity:1;fill-rule:nonzero;stroke:none"
         d="m 105.215,661.977 -0.031,0 0.015,0 0,0.015 0.016,-0.015 z" /><path
         id="path7050"
         style="fill:#000000;fill-opacity:1;fill-rule:nonzero;stroke:none"
         d="m 105.184,661.977 0,0.015 0,-0.015 0.015,0.015 -0.015,-0.015 z" /><path
         id="path7052"
         style="fill:#000000;fill-opacity:1;fill-rule:nonzero;stroke:none"
         d="m 105.184,661.992 0.016,0 0,-0.012 -0.016,0 0,0.012 z" /><path
         id="path7054"
         style="fill:#000000;fill-opacity:1;fill-rule:nonzero;stroke:none"
         d="m 105.215,661.992 0,-0.027 -0.031,0 0.031,0.027 z" /><path
         id="path7056"
         style="fill:#000000;fill-opacity:1;fill-rule:nonzero;stroke:none"
         d="m 105.184,661.992 0.031,0 0,-0.027 -0.031,0 0,0.027 z" /><path
         id="path7058"
         style="fill:#000000;fill-opacity:1;fill-rule:nonzero;stroke:none"
         d="m 105.184,661.965 0,0.027 0.031,-0.027 -0.031,0 z m 0.031,0 -0.031,0.027 0,-0.027 0.031,0 z" /><path
         id="path7060"
         style="fill:#000000;fill-opacity:1;fill-rule:nonzero;stroke:none"
         d="m 105.215,661.965 -0.031,0 0.015,0 0,0.027 0.016,-0.027 z" /><path
         id="path7062"
         style="fill:#000000;fill-opacity:1;fill-rule:nonzero;stroke:none"
         d="m 105.184,661.965 0,0.027 0,-0.027 0.031,0.027 -0.031,-0.027 z" /><path
         id="path7064"
         style="fill:#000000;fill-opacity:1;fill-rule:nonzero;stroke:none"
         d="m 105.184,661.992 0.031,0 0,-0.027 -0.031,0 0,0.027 z" /><path
         id="path7066"
         style="fill:#000000;fill-opacity:1;fill-rule:nonzero;stroke:none"
         d="m 105.215,661.992 0,-0.027 -0.031,0 0.031,0.027 z" /><path
         id="path7068"
         style="fill:#000000;fill-opacity:1;fill-rule:nonzero;stroke:none"
         d="m 105.184,661.992 0.031,0 0,-0.027 -0.031,0 0,0.027 z" /><path
         id="path7070"
         style="fill:#000000;fill-opacity:1;fill-rule:nonzero;stroke:none"
         d="m 105.184,661.965 0,0.027 0.031,-0.027 -0.031,0 z m 0.031,0 -0.031,0.027 0,-0.027 0.031,0 z" /><path
         id="path7072"
         style="fill:#000000;fill-opacity:1;fill-rule:nonzero;stroke:none"
         d="m 105.215,661.965 -0.031,0 0.015,0 0,0.027 0.016,-0.027 z" /><path
         id="path7074"
         style="fill:#000000;fill-opacity:1;fill-rule:nonzero;stroke:none"
         d="m 105.184,661.965 0,0.027 0,-0.027 0.031,0.027 -0.031,-0.027 z" /><path
         id="path7076"
         style="fill:#000000;fill-opacity:1;fill-rule:nonzero;stroke:none"
         d="m 105.184,661.992 0.031,0 0,-0.027 -0.031,0 0,0.027 z" /><path
         id="path7078"
         style="fill:#000000;fill-opacity:1;fill-rule:nonzero;stroke:none"
         d="m 105.215,661.992 0,-0.027 -0.031,0 0.031,0.027 z" /><path
         id="path7080"
         style="fill:#000000;fill-opacity:1;fill-rule:nonzero;stroke:none"
         d="m 105.184,661.992 0.031,0 0,-0.027 -0.031,0 0,0.027 z" /><path
         id="path7082"
         style="fill:#000000;fill-opacity:1;fill-rule:nonzero;stroke:none"
         d="m 105.184,661.965 0,0.027 0.031,-0.027 -0.031,0 z m 0.031,0 -0.031,0.027 0,-0.027 0.031,0 z" /><path
         id="path7084"
         style="fill:#000000;fill-opacity:1;fill-rule:nonzero;stroke:none"
         d="m 105.215,661.965 -0.031,0 0.015,0 0,0.027 0.016,-0.027 z" /><path
         id="path7086"
         style="fill:#000000;fill-opacity:1;fill-rule:nonzero;stroke:none"
         d="m 105.184,661.965 0,0.027 0,-0.027 0.031,0.027 -0.031,-0.027 z" /><path
         id="path7088"
         style="fill:#000000;fill-opacity:1;fill-rule:nonzero;stroke:none"
         d="m 105.184,661.992 0.031,0 0,-0.027 -0.031,0 0,0.027 z" /><path
         id="path7090"
         style="fill:#f0c900;fill-opacity:1;fill-rule:nonzero;stroke:none"
         d="m 72.063,480.227 c 0,92.73 75.441,168.171 168.171,168.171 92.731,0 168.164,-75.441 168.164,-168.171 0,-92.723 -75.433,-168.161 -168.164,-168.161 -92.73,0 -168.171,75.438 -168.171,168.161" /><path
         id="path7092"
         style="fill:#008754;fill-opacity:1;fill-rule:nonzero;stroke:none"
         d="m 240.234,640.301 c -88.406,0 -160.074,-71.66 -160.074,-160.074 0,-88.403 71.668,-160.075 160.074,-160.075 88.407,0 160.075,71.672 160.075,160.075 0,88.414 -71.668,160.074 -160.075,160.074 z m 0,-42.121 c 65.149,0 117.954,-52.805 117.954,-117.953 0,-65.137 -52.805,-117.942 -117.954,-117.942 -65.136,0 -117.953,52.805 -117.953,117.942 0,65.148 52.817,117.953 117.953,117.953 z" /><path
         id="path7094"
         style="fill:#008754;fill-opacity:1;fill-rule:nonzero;stroke:none"
         d="m 178.047,393.172 0,174.121 26.43,0 0,-74.625 71.511,0 0,74.625 26.426,0 0,-174.121 -26.426,0 0,76.176 -71.511,0 0,-76.176" /><path
         id="path7096"
         style="fill:#000000;fill-opacity:1;fill-rule:nonzero;stroke:none"
         d="m 92.688,290.605 c 0,0 -22.629,0.098 -22.629,-22.488 l 0,-207.023 c 0,-22.582 22.629,-22.489 22.629,-22.489 l 294.742,0 c 0,0 22.629,-0.093 22.629,22.489 l 0,207.023 c 0,22.586 -22.629,22.488 -22.629,22.488 l -294.742,0 z m 0,-8.433 294.742,0 c 7.812,0 14.144,-6.293 14.144,-14.055 l 0,-207.023 c 0,-7.762 -6.332,-14.055 -14.144,-14.055 l -294.742,0 c -7.809,0 -14.141,6.293 -14.141,14.055 l 0,207.023 c 0,7.762 6.332,14.055 14.141,14.055 z" /><path
         id="path7098"
         style="fill:#000000;fill-opacity:1;fill-rule:nonzero;stroke:none"
         d="m 153.031,226.039 c 0,3.703 -1.152,6.805 -3.527,8.871 -1.82,1.641 -4.07,2.613 -8.082,3.223 l -4.922,0.726 c -2.008,0.305 -3.77,1.036 -4.859,2.008 -1.157,1.031 -1.645,2.43 -1.645,4.012 0,3.828 2.797,6.746 7.902,6.746 3.649,0 6.747,-0.793 9.418,-3.344 l 4.196,4.133 c -3.707,3.465 -7.719,4.922 -13.434,4.922 -8.992,0 -14.461,-5.168 -14.461,-12.699 0,-3.528 1.031,-6.262 3.16,-8.266 1.883,-1.766 4.68,-2.98 8.203,-3.465 l 5.106,-0.73 c 2.555,-0.363 3.644,-0.789 4.738,-1.824 1.156,-1.032 1.703,-2.614 1.703,-4.497 0,-4.195 -3.281,-6.625 -8.933,-6.625 -4.438,0 -7.899,0.973 -11.059,4.133 l -4.379,-4.312 c 4.137,-4.196 8.813,-5.715 15.317,-5.715 9.054,0 15.558,4.742 15.558,12.703" /><path
         id="path7100"
         style="fill:#000000;fill-opacity:1;fill-rule:nonzero;stroke:none"
         d="m 183.406,217.711 -4.254,4.074 c -1.941,-2.129 -3.461,-2.918 -5.894,-2.918 -2.371,0 -4.375,0.973 -5.711,2.735 -1.336,1.703 -1.824,3.949 -1.824,7.535 0,3.586 0.488,5.773 1.824,7.476 1.336,1.762 3.34,2.735 5.711,2.735 2.433,0 3.953,-0.789 5.894,-2.918 l 4.254,4.133 c -2.918,3.097 -5.894,4.316 -10.148,4.316 -6.926,0 -13.735,-4.195 -13.735,-15.742 0,-11.547 6.809,-15.801 13.735,-15.801 4.254,0 7.23,1.277 10.148,4.375" /><path
         id="path7102"
         style="fill:#000000;fill-opacity:1;fill-rule:nonzero;stroke:none"
         d="m 212.199,213.699 0,19.875 c 0,6.684 -3.828,11.305 -10.699,11.305 -3.039,0 -5.832,-1.156 -7.961,-3.465 l 0,15.559 -6.195,0 0,-43.274 6.195,0 0,18.903 c 0,4.621 2.797,6.746 6.262,6.746 3.465,0 6.199,-2.067 6.199,-6.746 l 0,-18.903 6.199,0" /><path
         id="path7104"
         style="fill:#000000;fill-opacity:1;fill-rule:nonzero;stroke:none"
         d="m 244.742,213.699 0,30.813 -6.195,0 0,-18.778 c 0,-4.742 -2.918,-6.867 -6.383,-6.867 -3.465,0 -6.199,2.067 -6.199,6.867 l 0,18.778 -6.199,0 0,-19.692 c 0,-3.461 0.73,-6.379 3.101,-8.687 1.821,-1.762 4.438,-2.797 7.598,-2.797 3.098,0 6.074,1.156 8.203,3.465 l 0,-3.102 6.074,0" /><path
         id="path7106"
         style="fill:#000000;fill-opacity:1;fill-rule:nonzero;stroke:none"
         d="m 263.504,213.699 0,5.289 -2.734,0 c -2.493,0 -3.344,1.215 -3.344,3.586 l 0,34.399 -6.196,0 0,-34.762 c 0,-4.559 2.551,-8.512 8.446,-8.512 l 3.828,0" /><path
         id="path7108"
         style="fill:#000000;fill-opacity:1;fill-rule:nonzero;stroke:none"
         d="m 293.859,229.137 c 0,4.679 -0.367,9.906 -3.464,13.008 -1.704,1.699 -4.375,2.734 -7.477,2.734 -3.281,0 -5.832,-0.793 -8.082,-3.465 l 0,15.559 -6.199,0 0,-43.274 6.078,0 0,3.281 c 2.308,-2.792 4.801,-3.644 8.144,-3.644 3.098,0 5.832,1.035 7.536,2.734 3.097,3.098 3.464,8.387 3.464,13.067 m -6.199,0 c 0,-5.469 -0.789,-10.27 -6.383,-10.27 -5.589,0 -6.441,4.801 -6.441,10.27 0,5.468 0.852,10.211 6.441,10.211 5.594,0 6.383,-4.743 6.383,-10.211" /><path
         id="path7110"
         style="fill:#000000;fill-opacity:1;fill-rule:nonzero;stroke:none"
         d="m 325.301,213.699 0,30.813 -6.196,0 0,-18.778 c 0,-4.742 -2.917,-6.867 -6.382,-6.867 -3.465,0 -6.2,2.067 -6.2,6.867 l 0,18.778 -6.199,0 0,-19.692 c 0,-3.461 0.731,-6.379 3.102,-8.687 1.824,-1.762 4.433,-2.797 7.594,-2.797 3.101,0 6.078,1.156 8.207,3.465 l 0,-3.102 6.074,0" /><path
         id="path7112"
         style="fill:#000000;fill-opacity:1;fill-rule:nonzero;stroke:none"
         d="m 357.961,223.121 c 0,5.469 -3.402,8.203 -9.176,8.692 l -4.863,0.425 c -3.281,0.301 -4.254,1.7 -4.254,3.524 0,2.308 1.883,3.949 5.59,3.949 2.918,0 5.652,-0.609 7.597,-2.246 l 3.891,3.949 c -2.855,2.492 -6.808,3.465 -11.426,3.465 -6.441,0 -11.609,-3.402 -11.609,-9.422 0,-5.406 3.344,-8.023 9.117,-8.508 l 4.922,-0.426 c 2.98,-0.242 4.133,-1.578 4.133,-3.644 0,-2.918 -2.977,-4.254 -6.746,-4.254 -3.039,0 -6.383,0.668 -8.875,3.219 l -4.071,-4.071 c 3.649,-3.585 7.903,-4.437 12.946,-4.437 7.355,0 12.824,3.34 12.824,9.785" /><path
         id="path7114"
         style="fill:#000000;fill-opacity:1;fill-rule:nonzero;stroke:none"
         d="m 172.316,179.41 -0.086,0 -4.562,-15.277 -3.875,0 -6.969,21.816 4.645,0 4.176,-15.273 0.085,0 4.95,15.273 3.183,0 4.95,-15.273 0.085,0 4.172,15.273 4.649,0 -6.969,-21.816 -3.875,0 -4.559,15.277" /><path
         id="path7116"
         style="fill:#000000;fill-opacity:1;fill-rule:nonzero;stroke:none"
         d="m 193.984,173.387 c 0,-1.809 0.489,-3.157 1.465,-4.047 0.973,-0.891 2.227,-1.336 3.746,-1.336 0.832,0 1.664,0.191 2.493,0.562 0.863,0.372 1.625,0.887 2.281,1.547 l 3.187,-2.711 c -1.093,-1.261 -2.312,-2.164 -3.66,-2.707 -1.351,-0.547 -2.754,-0.82 -4.219,-0.82 -1.117,0 -2.25,0.156 -3.398,0.473 -1.145,0.316 -2.191,0.89 -3.141,1.722 -0.918,0.832 -1.679,1.965 -2.281,3.399 -0.574,1.433 -0.859,3.269 -0.859,5.508 0,2.125 0.269,3.902 0.816,5.336 0.547,1.433 1.25,2.582 2.109,3.441 0.86,0.891 1.821,1.519 2.883,1.894 1.063,0.375 2.125,0.559 3.184,0.559 1.207,0 2.355,-0.215 3.441,-0.644 1.09,-0.434 2.039,-1.047 2.84,-1.852 0.832,-0.805 1.492,-1.777 1.981,-2.926 0.488,-1.117 0.73,-2.379 0.73,-3.785 l 0,-3.613 -13.598,0 m 9.211,3.613 c -0.058,1.66 -0.515,2.926 -1.379,3.785 -0.859,0.86 -1.933,1.289 -3.226,1.289 -1.289,0 -2.367,-0.429 -3.227,-1.289 -0.859,-0.859 -1.32,-2.125 -1.379,-3.785 l 9.211,0" /><path
         id="path7118"
         style="fill:#000000;fill-opacity:1;fill-rule:nonzero;stroke:none"
         d="m 212.188,185.949 4.386,0 0,-2.324 0.09,0 c 0.688,0.863 1.504,1.504 2.453,1.938 0.973,0.429 2.047,0.644 3.227,0.644 0.89,0 1.707,-0.156 2.453,-0.473 0.746,-0.285 1.449,-0.687 2.109,-1.203 l -3.187,-3.789 c -0.516,0.403 -0.989,0.676 -1.418,0.821 -0.403,0.167 -0.891,0.253 -1.465,0.253 -0.543,0 -1.074,-0.086 -1.59,-0.253 -0.488,-0.176 -0.933,-0.45 -1.336,-0.821 -0.398,-0.371 -0.73,-0.844 -0.988,-1.418 -0.231,-0.574 -0.348,-1.261 -0.348,-2.07 l 0,-13.121 -4.386,0 0,21.816" /><path
         id="path7120"
         style="fill:#000000;fill-opacity:1;fill-rule:nonzero;stroke:none"
         d="m 228.91,194.77 4.391,0 0,-19.059 0.086,0 8.394,10.238 5.246,0 -7.531,-8.519 8.567,-13.297 -5.508,0 -5.813,10.195 -3.441,-3.91 0,-6.285 -4.391,0 0,30.637" /><path
         id="path7122"
         style="fill:#000000;fill-opacity:1;fill-rule:nonzero;stroke:none"
         d="m 251.527,192.578 4.391,0 0,-6.629 3.18,0 0,-3.355 -3.18,0 0,-12.696 c 0,-0.601 0.113,-1.031 0.344,-1.289 0.254,-0.23 0.656,-0.347 1.203,-0.347 l 1.633,0 0,-4.129 -2.278,0 c -1.55,0 -2.828,0.457 -3.832,1.379 -0.972,0.945 -1.461,2.277 -1.461,4 l 0,13.082 -2.195,0 0,3.355 2.195,0 0,6.629" /><path
         id="path7124"
         style="fill:#000000;fill-opacity:1;fill-rule:nonzero;stroke:none"
         d="m 274.648,166.07 -0.085,0 c -0.461,-0.746 -1.106,-1.304 -1.938,-1.679 -0.801,-0.344 -1.949,-0.516 -3.441,-0.516 -1.204,0 -2.293,0.172 -3.27,0.516 -0.949,0.343 -1.75,0.804 -2.41,1.375 -0.66,0.605 -1.16,1.308 -1.504,2.109 -0.348,0.832 -0.52,1.723 -0.52,2.672 0,0.855 0.145,1.676 0.43,2.453 0.317,0.801 0.762,1.488 1.336,2.063 0.602,0.601 1.348,1.078 2.238,1.421 0.887,0.344 1.922,0.516 3.098,0.516 l 6.066,0 0,2.277 c 0,1.036 -0.359,1.75 -1.074,2.157 -0.687,0.425 -1.824,0.64 -3.402,0.64 -1.145,0 -2.024,-0.129 -2.625,-0.383 -0.602,-0.23 -1.102,-0.664 -1.504,-1.293 l -3.445,2.625 c 0.832,1.176 1.855,1.993 3.054,2.454 1.239,0.488 2.672,0.73 4.309,0.73 1.344,0 2.582,-0.129 3.695,-0.387 1.121,-0.23 2.071,-0.629 2.844,-1.203 0.801,-0.547 1.418,-1.277 1.848,-2.195 0.461,-0.918 0.687,-2.051 0.687,-3.402 l 0,-14.887 -4.387,0 0,1.937 m 0,7.317 -5.25,0 c -1.289,0 -2.25,-0.246 -2.882,-0.731 -0.602,-0.461 -0.903,-1.093 -0.903,-1.894 0,-0.75 0.313,-1.391 0.946,-1.938 0.629,-0.547 1.691,-0.82 3.183,-0.82 0.918,0 1.68,0.031 2.281,0.09 0.633,0.086 1.133,0.258 1.504,0.515 0.407,0.258 0.688,0.629 0.864,1.118 0.172,0.515 0.257,1.207 0.257,2.066 l 0,1.594" /><path
         id="path7126"
         style="fill:#000000;fill-opacity:1;fill-rule:nonzero;stroke:none"
         d="m 296.98,166.414 c -0.687,-0.746 -1.519,-1.363 -2.492,-1.848 -0.976,-0.461 -2.023,-0.691 -3.144,-0.691 -1.434,0 -2.637,0.285 -3.614,0.859 -0.949,0.575 -1.664,1.176 -2.152,1.809 -0.316,0.402 -0.574,0.789 -0.773,1.164 -0.203,0.371 -0.375,0.844 -0.516,1.418 -0.117,0.574 -0.203,1.32 -0.258,2.238 -0.062,0.918 -0.09,2.137 -0.09,3.657 0,1.523 0.028,2.738 0.09,3.656 0.055,0.918 0.141,1.664 0.258,2.238 0.141,0.602 0.313,1.09 0.516,1.465 0.199,0.371 0.457,0.758 0.773,1.16 0.488,0.633 1.203,1.234 2.152,1.809 0.977,0.574 2.18,0.859 3.614,0.859 1.121,0 2.121,-0.215 3.011,-0.644 0.918,-0.434 1.793,-1.075 2.625,-1.938 l 0,2.324 4.391,0 0,-21.301 c 0,-1.632 -0.258,-3.054 -0.773,-4.261 -0.52,-1.199 -1.223,-2.192 -2.11,-2.965 -0.859,-0.805 -1.867,-1.391 -3.015,-1.766 -1.145,-0.402 -2.336,-0.601 -3.567,-0.601 -1.406,0 -2.785,0.343 -4.133,1.031 -1.32,0.66 -2.468,1.535 -3.445,2.625 l 3.402,2.711 c 0.547,-0.547 1.176,-1.004 1.891,-1.379 0.75,-0.398 1.535,-0.602 2.367,-0.602 1.461,0 2.653,0.403 3.571,1.207 0.949,0.801 1.421,1.977 1.421,3.528 l 0,2.238 m -8.648,8.606 0,-2.106 c 0.027,-0.547 0.07,-1.008 0.129,-1.379 0.059,-0.344 0.144,-0.633 0.258,-0.859 0.117,-0.231 0.273,-0.477 0.476,-0.735 0.313,-0.402 0.743,-0.789 1.289,-1.16 0.575,-0.343 1.305,-0.519 2.196,-0.519 0.859,0 1.562,0.176 2.105,0.519 0.574,0.371 1.02,0.758 1.336,1.16 0.199,0.258 0.359,0.504 0.473,0.735 0.117,0.226 0.199,0.515 0.258,0.859 0.058,0.371 0.086,0.832 0.086,1.379 0.027,0.543 0.042,1.246 0.042,2.106 0,0.89 -0.015,1.609 -0.042,2.152 0,0.547 -0.028,0.988 -0.086,1.336 -0.059,0.371 -0.141,0.672 -0.258,0.902 -0.114,0.227 -0.274,0.473 -0.473,0.731 -0.316,0.398 -0.762,0.773 -1.336,1.117 -0.543,0.375 -1.246,0.558 -2.105,0.558 -0.891,0 -1.621,-0.183 -2.196,-0.558 -0.546,-0.344 -0.976,-0.719 -1.289,-1.117 -0.203,-0.258 -0.359,-0.504 -0.476,-0.731 -0.114,-0.23 -0.199,-0.531 -0.258,-0.902 -0.059,-0.348 -0.098,-0.789 -0.129,-1.336 l 0,-2.152" /><path
         id="path7128"
         style="fill:#000000;fill-opacity:1;fill-rule:nonzero;stroke:none"
         d="m 307.719,170.805 c 0.945,-0.922 1.965,-1.625 3.054,-2.11 1.09,-0.461 2.368,-0.691 3.832,-0.691 1.262,0 2.293,0.23 3.094,0.691 0.805,0.485 1.207,1.188 1.207,2.11 0,0.773 -0.258,1.3 -0.777,1.59 -0.512,0.316 -1.145,0.503 -1.891,0.558 l -3.871,0.344 c -1.808,0.144 -3.312,0.734 -4.519,1.766 -1.176,1.062 -1.766,2.539 -1.766,4.429 0,1.121 0.199,2.098 0.606,2.93 0.425,0.832 1,1.519 1.718,2.066 0.746,0.571 1.606,1 2.582,1.289 1.004,0.286 2.082,0.43 3.227,0.43 1.922,0 3.555,-0.273 4.906,-0.816 1.348,-0.516 2.567,-1.235 3.66,-2.153 l -2.711,-3.183 c -0.863,0.601 -1.75,1.09 -2.668,1.461 -0.918,0.375 -1.98,0.558 -3.187,0.558 -1.402,0 -2.379,-0.258 -2.926,-0.773 -0.543,-0.488 -0.816,-1.106 -0.816,-1.848 0,-0.488 0.199,-0.933 0.601,-1.336 0.43,-0.398 1.192,-0.644 2.281,-0.73 l 3.614,-0.258 c 1.121,-0.086 2.082,-0.316 2.886,-0.691 0.801,-0.344 1.461,-0.817 1.977,-1.418 0.516,-0.575 0.887,-1.25 1.117,-2.02 0.231,-0.75 0.344,-1.551 0.344,-2.414 0,-1.059 -0.227,-2.008 -0.688,-2.84 -0.457,-0.828 -1.101,-1.531 -1.933,-2.109 -0.805,-0.574 -1.766,-1.016 -2.887,-1.332 -1.086,-0.289 -2.262,-0.43 -3.527,-0.43 -1.778,0 -3.469,0.316 -5.074,0.945 -1.61,0.66 -3.118,1.649 -4.52,2.969 l 3.055,3.016" /><path
         id="path7130"
         style="fill:#000000;fill-opacity:1;fill-rule:nonzero;stroke:none"
         d="m 129.309,142.352 15.664,0 0,-3.946 -9.321,-23.593 -4.406,0 9.317,23.593 -7.309,0 0,-3.984 -3.945,0 0,7.93" /><path
         id="path7132"
         style="fill:#000000;fill-opacity:1;fill-rule:nonzero;stroke:none"
         d="m 149.566,127.5 11.645,0 0,-3.945 -11.645,0 0,3.945 z" /><path
         id="path7134"
         style="fill:#000000;fill-opacity:1;fill-rule:nonzero;stroke:none"
         d="m 173.57,114.813 -4.406,0 5.797,11.644 -0.074,0 c -0.285,-0.129 -0.617,-0.219 -1.008,-0.269 -0.387,-0.051 -0.746,-0.083 -1.082,-0.083 -0.875,0 -1.715,0.145 -2.512,0.43 -0.773,0.309 -1.472,0.774 -2.09,1.391 -0.593,0.617 -1.07,1.406 -1.429,2.359 -0.364,0.981 -0.543,2.141 -0.543,3.481 0,1.574 0.234,2.914 0.695,4.023 0.465,1.133 1.07,2.047 1.82,2.746 0.774,0.719 1.637,1.238 2.59,1.547 0.981,0.332 1.985,0.504 3.016,0.504 0.957,0 1.883,-0.195 2.785,-0.582 0.93,-0.387 1.754,-0.941 2.473,-1.664 0.722,-0.723 1.304,-1.61 1.742,-2.668 0.437,-1.031 0.656,-2.192 0.656,-3.481 0,-1.675 -0.348,-3.207 -1.043,-4.605 l -7.387,-14.773 m 0.543,14.773 c 1.082,0 2.008,0.363 2.782,1.086 0.773,0.75 1.164,1.894 1.164,3.441 0,1.547 -0.364,2.684 -1.082,3.403 -0.7,0.75 -1.653,1.121 -2.864,1.121 -0.465,0 -0.929,-0.09 -1.394,-0.27 -0.465,-0.156 -0.887,-0.414 -1.274,-0.773 -0.363,-0.36 -0.672,-0.824 -0.929,-1.391 -0.231,-0.57 -0.348,-1.265 -0.348,-2.09 0,-1.547 0.387,-2.691 1.16,-3.441 0.774,-0.723 1.699,-1.086 2.785,-1.086" /><path
         id="path7136"
         style="fill:#000000;fill-opacity:1;fill-rule:nonzero;stroke:none"
         d="m 189.543,114.813 0,27.539 3.945,0 0,-9.825 0.078,0 c 0.411,0.621 0.903,1.121 1.469,1.508 0.59,0.414 1.34,0.621 2.242,0.621 l 0.309,0 c 0.93,-0.078 1.777,-0.476 2.555,-1.199 0.797,-0.723 1.195,-1.922 1.195,-3.598 l 0,-15.046 -3.941,0 0,13.578 c 0,0.722 -0.168,1.289 -0.504,1.699 -0.336,0.414 -0.813,0.621 -1.43,0.621 -0.723,0 -1.238,-0.231 -1.547,-0.695 -0.285,-0.465 -0.426,-1.137 -0.426,-2.012 l 0,-13.191 -3.945,0" /><path
         id="path7138"
         style="fill:#000000;fill-opacity:1;fill-rule:nonzero;stroke:none"
         d="m 255.375,138.176 -3.906,-2.863 0,4.175 3.906,2.864 3.945,0 0,-27.539 -3.945,0 0,23.363" /><path
         id="path7140"
         style="fill:#000000;fill-opacity:1;fill-rule:nonzero;stroke:none"
         d="m 271.414,138.176 -3.906,-2.863 0,4.175 3.906,2.864 3.945,0 0,-27.539 -3.945,0 0,23.363" /><path
         id="path7142"
         style="fill:#000000;fill-opacity:1;fill-rule:nonzero;stroke:none"
         d="m 281.996,127.5 11.641,0 0,-3.945 -11.641,0 0,3.945 z" /><path
         id="path7144"
         style="fill:#000000;fill-opacity:1;fill-rule:nonzero;stroke:none"
         d="m 303.602,138.176 -3.907,-2.863 0,4.175 3.907,2.864 3.945,0 0,-27.539 -3.945,0 0,23.363" /><path
         id="path7146"
         style="fill:#000000;fill-opacity:1;fill-rule:nonzero;stroke:none"
         d="m 320.324,130.75 1.352,0 c 1.316,0 2.347,0.359 3.094,1.082 0.773,0.746 1.16,1.688 1.16,2.824 0,0.567 -0.102,1.082 -0.309,1.547 -0.207,0.488 -0.5,0.914 -0.891,1.277 -0.359,0.36 -0.785,0.641 -1.277,0.848 -0.488,0.207 -1.004,0.313 -1.543,0.313 -0.824,0 -1.613,-0.274 -2.359,-0.813 -0.746,-0.543 -1.227,-1.383 -1.43,-2.515 l -3.945,0 c 0.074,0.98 0.336,1.906 0.773,2.785 0.438,0.879 0.992,1.648 1.66,2.32 0.7,0.672 1.485,1.199 2.36,1.586 0.875,0.387 1.804,0.582 2.785,0.582 1.238,0 2.348,-0.223 3.324,-0.66 1.008,-0.438 1.856,-1.031 2.555,-1.778 0.722,-0.722 1.277,-1.562 1.664,-2.515 0.387,-0.926 0.578,-1.895 0.578,-2.903 0,-1.054 -0.207,-2.085 -0.617,-3.089 -0.387,-0.981 -1.16,-1.844 -2.324,-2.594 1.164,-0.746 1.988,-1.664 2.48,-2.746 0.512,-1.055 0.77,-2.153 0.77,-3.285 0,-1.293 -0.219,-2.45 -0.657,-3.481 -0.414,-1.031 -1.004,-1.922 -1.781,-2.672 -0.746,-0.718 -1.633,-1.285 -2.668,-1.699 -1.004,-0.387 -2.086,-0.578 -3.246,-0.578 -0.93,0 -1.832,0.152 -2.707,0.461 -0.852,0.308 -1.625,0.762 -2.32,1.351 -0.7,0.594 -1.289,1.332 -1.782,2.207 -0.488,0.875 -0.824,1.895 -1.003,3.055 l 3.945,0 c 0.359,-0.953 0.848,-1.715 1.469,-2.281 0.621,-0.566 1.496,-0.852 2.629,-0.852 0.542,0 1.058,0.106 1.546,0.309 0.516,0.207 0.969,0.492 1.356,0.855 0.383,0.383 0.695,0.848 0.93,1.391 0.23,0.539 0.347,1.145 0.347,1.816 0,1.395 -0.429,2.461 -1.277,3.207 -0.828,0.774 -1.82,1.165 -2.977,1.165 l -1.664,0 0,3.48" /><path
         id="path7148"
         style="fill:#000000;fill-opacity:1;fill-rule:nonzero;stroke:none"
         d="m 339.012,114.813 0,27.539 3.945,0 0,-9.825 0.078,0 c 0.414,0.621 0.903,1.121 1.469,1.508 0.594,0.414 1.344,0.621 2.246,0.621 l 0.309,0 c 0.925,-0.078 1.777,-0.476 2.55,-1.199 0.797,-0.723 1.2,-1.922 1.2,-3.598 l 0,-15.046 -3.946,0 0,13.578 c 0,0.722 -0.168,1.289 -0.504,1.699 -0.332,0.414 -0.808,0.621 -1.429,0.621 -0.719,0 -1.239,-0.231 -1.547,-0.695 -0.285,-0.465 -0.426,-1.137 -0.426,-2.012 l 0,-13.191 -3.945,0" /><path
         id="path7150"
         style="fill:#000000;fill-opacity:1;fill-rule:nonzero;stroke:none"
         d="m 359.016,66.668 0,2.207 c -1.496,-1.648 -3.34,-2.473 -5.524,-2.473 -1.402,0 -2.578,0.274 -3.527,0.825 -0.934,0.562 -1.641,1.152 -2.121,1.773 -0.617,0.797 -1.047,1.641 -1.278,2.535 -0.222,0.891 -0.332,2.824 -0.332,5.793 0,2.969 0.11,4.899 0.332,5.793 0.231,0.895 0.661,1.746 1.278,2.555 0.48,0.605 1.187,1.191 2.121,1.754 0.949,0.578 2.125,0.867 3.527,0.867 2.09,0 3.93,-0.848 5.524,-2.539 l 0,2.289 4.308,0 0,-20.902 c 0,-3.219 -0.941,-5.59 -2.824,-7.114 -1.867,-1.527 -4.02,-2.289 -6.453,-2.289 -1.371,0 -2.719,0.328 -4.039,0.988 -1.32,0.661 -2.453,1.528 -3.403,2.598 l 3.34,2.66 c 0.524,-0.523 1.141,-0.976 1.856,-1.359 0.73,-0.387 1.504,-0.578 2.332,-0.578 1.43,0 2.597,0.398 3.504,1.195 0.922,0.797 1.379,1.938 1.379,3.422 z m -8.473,10.66 c 0,-1.719 0.043,-2.859 0.125,-3.422 0.098,-0.566 0.336,-1.086 0.723,-1.566 0.289,-0.387 0.714,-0.758 1.277,-1.113 0.562,-0.36 1.277,-0.539 2.145,-0.539 0.835,0 1.531,0.179 2.082,0.539 0.562,0.355 0.996,0.726 1.296,1.113 0.372,0.48 0.598,1 0.68,1.566 0.098,0.563 0.145,1.703 0.145,3.422 0,1.719 -0.047,2.86 -0.145,3.422 -0.082,0.563 -0.308,1.094 -0.68,1.586 -0.3,0.371 -0.734,0.734 -1.296,1.094 -0.551,0.371 -1.247,0.554 -2.082,0.554 -0.868,0 -1.583,-0.183 -2.145,-0.554 -0.563,-0.36 -0.988,-0.723 -1.277,-1.094 -0.387,-0.492 -0.625,-1.023 -0.723,-1.586 -0.082,-0.562 -0.125,-1.703 -0.125,-3.422 z" /><path
         id="path7152"
         style="fill:#000000;fill-opacity:1;fill-rule:nonzero;stroke:none"
         d="m 108.309,66.566 0,1.895 -0.082,0 c -0.399,-0.742 -0.997,-1.277 -1.793,-1.606 -0.852,-0.359 -1.965,-0.539 -3.34,-0.539 -2.364,0.055 -4.153,0.688 -5.36,1.899 -1.32,1.211 -1.98,2.754 -1.98,4.637 0,1.789 0.57,3.285 1.711,4.496 1.14,1.211 2.824,1.828 5.051,1.855 l 5.793,0 0,2.27 c 0.015,1.894 -1.407,2.816 -4.266,2.761 -0.992,0 -1.816,-0.109 -2.477,-0.332 -0.644,-0.289 -1.132,-0.734 -1.461,-1.339 l -3.3,2.597 c 1.593,2.133 3.937,3.168 7.031,3.113 2.598,0.028 4.687,-0.48 6.266,-1.523 1.554,-1.086 2.343,-2.93 2.371,-5.527 l 0,-14.657 -4.164,0 z m 0,7.524 0,1.566 -5.008,0 c -2.449,-0.066 -3.656,-0.933 -3.629,-2.597 0,-0.715 0.316,-1.332 0.949,-1.856 0.602,-0.562 1.602,-0.844 2.988,-0.844 1.758,-0.027 2.996,0.184 3.711,0.637 0.66,0.457 0.989,1.484 0.989,3.094 z" /><path
         id="path7154"
         style="fill:#000000;fill-opacity:1;fill-rule:nonzero;stroke:none"
         d="m 117.176,73.824 0,14.223 4.308,0 0,-12.762 c 0,-1.457 0.399,-2.59 1.196,-3.402 0.808,-0.797 1.836,-1.195 3.07,-1.195 1.195,0 2.191,0.398 2.992,1.195 0.809,0.812 1.215,1.945 1.215,3.402 l 0,12.762 4.309,0 0,-21.399 -4.309,0 0,2.266 -0.082,0 c -1.332,-1.676 -3.176,-2.512 -5.527,-2.512 -1.688,0 -3.313,0.625 -4.864,1.875 -1.539,1.262 -2.308,3.114 -2.308,5.547 z" /><path
         id="path7156"
         style="fill:#000000;fill-opacity:1;fill-rule:nonzero;stroke:none"
         d="m 147.789,82.934 0,4.043 2.578,0 c 1.512,0 2.27,0.832 2.27,2.492 0,1.101 -0.223,1.863 -0.66,2.289 -0.786,0.633 -2.028,0.93 -3.735,0.887 -1.566,-0.04 -2.656,-0.29 -3.277,-0.743 -0.606,-0.437 -0.926,-1.093 -0.969,-1.957 l 0,-23.297 -4.308,0 0,23.297 c 0,2.348 0.843,4.102 2.535,5.258 1.707,1.168 3.855,1.75 6.453,1.75 2.445,0 4.433,-0.652 5.957,-1.957 1.543,-1.293 2.312,-3.019 2.312,-5.176 0,-2.324 -1.027,-3.918 -3.074,-4.781 2.047,-0.824 3.074,-2.387 3.074,-4.68 l 0,-7.648 c 0,-1.68 -0.55,-3.109 -1.652,-4.289 -1.086,-1.184 -2.516,-1.774 -4.285,-1.774 l -2.66,0 0,4.04 1.504,0 c 1.855,0 2.785,0.75 2.785,2.25 l 0,7.503 c 0,1.661 -0.785,2.493 -2.352,2.493 l -2.496,0 z" /><path
         id="path7158"
         style="fill:#000000;fill-opacity:1;fill-rule:nonzero;stroke:none"
         d="m 178.941,75.719 -13.316,0 c 0,-1.758 0.473,-3.078 1.422,-3.957 0.961,-0.879 2.183,-1.321 3.668,-1.321 1.773,0 3.34,0.688 4.699,2.063 l 3.113,-2.66 c -1.054,-1.239 -2.254,-2.125 -3.586,-2.66 -1.32,-0.524 -2.699,-0.782 -4.144,-0.782 -2.199,0 -4.328,0.707 -6.391,2.121 -2.062,1.43 -3.093,4.344 -3.093,8.743 0,4.164 0.949,7.043 2.847,8.636 1.91,1.594 3.903,2.395 5.977,2.395 2.351,0 4.406,-0.82 6.164,-2.457 1.762,-1.621 2.64,-3.813 2.64,-6.574 l 0,-3.547 z m -13.316,3.547 9.027,0 c -0.066,1.609 -0.519,2.836 -1.359,3.691 -0.84,0.852 -1.891,1.277 -3.156,1.277 -1.278,0 -2.344,-0.425 -3.196,-1.277 -0.836,-0.855 -1.277,-2.082 -1.316,-3.691 z" /><path
         id="path7160"
         style="fill:#000000;fill-opacity:1;fill-rule:nonzero;stroke:none"
         d="m 183.477,66.648 0,21.399 4.308,0 0,-2.289 0.082,0 c 1.336,1.691 3.192,2.539 5.567,2.539 1.566,0 3.058,-0.551 4.476,-1.652 l -3.113,-3.711 c -0.938,0.703 -1.883,1.05 -2.848,1.05 -1.058,0 -2.019,-0.355 -2.886,-1.07 -0.852,-0.699 -1.278,-1.836 -1.278,-3.402 l 0,-12.864 -4.308,0 z" /><path
         id="path7162"
         style="fill:#000000;fill-opacity:1;fill-rule:nonzero;stroke:none"
         d="m 210.859,70.215 3.012,2.969 c 1.867,-1.829 4.117,-2.743 6.742,-2.743 1.223,0 2.231,0.227 3.028,0.68 0.797,0.469 1.199,1.156 1.199,2.063 0,1.25 -0.875,1.953 -2.621,2.101 l -3.793,0.352 c -1.774,0.136 -3.242,0.722 -4.41,1.754 -1.168,1.027 -1.754,2.464 -1.754,4.308 0,2.172 0.761,3.813 2.289,4.926 1.523,1.113 3.422,1.672 5.691,1.672 1.867,0 3.469,-0.27 4.801,-0.805 1.336,-0.523 2.531,-1.222 3.59,-2.105 l -2.66,-3.133 c -0.852,0.578 -1.735,1.051 -2.641,1.422 -0.906,0.371 -1.937,0.558 -3.09,0.558 -1.375,0 -2.332,-0.25 -2.867,-0.742 -0.535,-0.48 -0.805,-1.094 -0.805,-1.836 0,-0.468 0.2,-0.898 0.598,-1.297 0.398,-0.398 1.141,-0.64 2.227,-0.722 l 3.546,-0.246 c 2.211,-0.153 3.801,-0.84 4.762,-2.063 0.961,-1.211 1.445,-2.66 1.445,-4.351 0,-2.102 -0.859,-3.723 -2.578,-4.864 -1.718,-1.14 -3.816,-1.711 -6.289,-1.711 -3.558,0 -6.699,1.27 -9.422,3.813 z" /><path
         id="path7164"
         style="fill:#000000;fill-opacity:1;fill-rule:nonzero;stroke:none"
         d="m 246.457,66.566 0,1.895 -0.082,0 c -0.398,-0.742 -0.996,-1.277 -1.793,-1.606 -0.855,-0.359 -1.969,-0.539 -3.34,-0.539 -2.367,0.055 -4.152,0.688 -5.363,1.899 -1.316,1.211 -1.977,2.754 -1.977,4.637 0,1.789 0.571,3.285 1.711,4.496 1.141,1.211 2.825,1.828 5.051,1.855 l 5.793,0 0,2.27 c 0.012,1.894 -1.41,2.816 -4.269,2.761 -0.989,0 -1.813,-0.109 -2.473,-0.332 -0.645,-0.289 -1.133,-0.734 -1.465,-1.339 l -3.297,2.597 c 1.594,2.133 3.938,3.168 7.031,3.113 2.598,0.028 4.684,-0.48 6.266,-1.523 1.555,-1.086 2.344,-2.93 2.371,-5.527 l 0,-14.657 -4.164,0 z m 0,7.524 0,1.566 -5.012,0 c -2.445,-0.066 -3.656,-0.933 -3.629,-2.597 0,-0.715 0.317,-1.332 0.95,-1.856 0.605,-0.562 1.601,-0.844 2.992,-0.844 1.758,-0.027 2.996,0.184 3.711,0.637 0.656,0.457 0.988,1.484 0.988,3.094 z" /><path
         id="path7166"
         style="fill:#000000;fill-opacity:1;fill-rule:nonzero;stroke:none"
         d="m 255.57,66.648 0,21.399 4.309,0 0,-2.289 0.082,0 c 1.359,1.691 3.215,2.539 5.566,2.539 1.496,0 2.688,-0.27 3.567,-0.805 0.879,-0.539 1.703,-1.195 2.472,-1.98 1.692,1.855 3.946,2.785 6.762,2.785 1.664,0 3.266,-0.633 4.805,-1.899 1.555,-1.265 2.328,-3.105 2.328,-5.523 l 0,-14.227 -4.309,0 0,12.743 c 0,1.441 -0.402,2.566 -1.214,3.379 -0.813,0.812 -1.813,1.214 -3.012,1.214 -1.235,0 -2.258,-0.402 -3.071,-1.214 -0.796,-0.813 -1.195,-1.938 -1.195,-3.379 l 0,-12.743 -4.289,0 0,12.743 c 0,1.441 -0.406,2.566 -1.215,3.379 -0.812,0.812 -1.816,1.214 -3.011,1.214 -1.235,0 -2.262,-0.402 -3.071,-1.214 -0.797,-0.813 -1.195,-1.938 -1.195,-3.379 l 0,-12.743 -4.309,0 z" /><path
         id="path7168"
         style="fill:#000000;fill-opacity:1;fill-rule:nonzero;stroke:none"
         d="m 288.824,70.215 3.008,2.969 c 1.871,-1.829 4.117,-2.743 6.742,-2.743 1.223,0 2.235,0.227 3.031,0.68 0.797,0.469 1.196,1.156 1.196,2.063 0,1.25 -0.871,1.953 -2.617,2.101 l -3.793,0.352 c -1.774,0.136 -3.246,0.722 -4.414,1.754 -1.168,1.027 -1.75,2.464 -1.75,4.308 0,2.172 0.761,3.813 2.285,4.926 1.527,1.113 3.426,1.672 5.691,1.672 1.871,0 3.473,-0.27 4.805,-0.805 1.332,-0.523 2.527,-1.222 3.586,-2.105 l -2.66,-3.133 c -0.852,0.578 -1.731,1.051 -2.637,1.422 -0.906,0.371 -1.938,0.558 -3.094,0.558 -1.375,0 -2.328,-0.25 -2.863,-0.742 -0.539,-0.48 -0.805,-1.094 -0.805,-1.836 0,-0.468 0.199,-0.898 0.598,-1.297 0.398,-0.398 1.14,-0.64 2.226,-0.722 l 3.547,-0.246 c 2.211,-0.153 3.797,-0.84 4.762,-2.063 0.961,-1.211 1.441,-2.66 1.441,-4.351 0,-2.102 -0.859,-3.723 -2.578,-4.864 -1.715,-1.14 -3.812,-1.711 -6.285,-1.711 -3.562,0 -6.703,1.27 -9.422,3.813 z" /><path
         id="path7170"
         style="fill:#000000;fill-opacity:1;fill-rule:nonzero;stroke:none"
         d="m 313.328,88.047 0,6.496 4.309,0 0,-6.496 3.133,0 0,-3.297 -3.133,0 0,-12.453 c 0,-1.07 0.508,-1.609 1.527,-1.609 l 1.606,0 0,-4.04 -2.247,0 c -1.5,0 -2.742,0.454 -3.73,1.36 -0.977,0.906 -1.465,2.207 -1.465,3.898 l 0,12.844 -2.144,0 0,3.297 2.144,0 z" /><path
         id="path7172"
         style="fill:#000000;fill-opacity:1;fill-rule:nonzero;stroke:none"
         d="m 336.129,66.566 0,1.895 -0.082,0 c -0.399,-0.742 -0.996,-1.277 -1.793,-1.606 -0.852,-0.359 -1.965,-0.539 -3.34,-0.539 -2.363,0.055 -4.152,0.688 -5.359,1.899 -1.321,1.211 -1.981,2.754 -1.981,4.637 0,1.789 0.571,3.285 1.711,4.496 1.141,1.211 2.824,1.828 5.051,1.855 l 5.793,0 0,2.27 c 0.016,1.894 -1.406,2.816 -4.266,2.761 -0.992,0 -1.816,-0.109 -2.476,-0.332 -0.645,-0.289 -1.133,-0.734 -1.461,-1.339 l -3.301,2.597 c 1.594,2.133 3.938,3.168 7.031,3.113 2.598,0.028 4.688,-0.48 6.266,-1.523 1.555,-1.086 2.344,-2.93 2.371,-5.527 l 0,-14.657 -4.164,0 z m 0,7.524 0,1.566 -5.008,0 c -2.449,-0.066 -3.656,-0.933 -3.629,-2.597 0,-0.715 0.317,-1.332 0.949,-1.856 0.602,-0.562 1.602,-0.844 2.989,-0.844 1.758,-0.027 2.996,0.184 3.711,0.637 0.66,0.457 0.988,1.484 0.988,3.094 z" /><path
         id="path7174"
         style="fill:#000000;fill-opacity:1;fill-rule:nonzero;stroke:none"
         d="m 366.078,70.215 3.008,2.969 c 1.871,-1.829 4.117,-2.743 6.742,-2.743 1.223,0 2.235,0.227 3.031,0.68 0.797,0.469 1.196,1.156 1.196,2.063 0,1.25 -0.871,1.953 -2.617,2.101 l -3.793,0.352 c -1.774,0.136 -3.247,0.722 -4.415,1.754 -1.167,1.027 -1.75,2.464 -1.75,4.308 0,2.172 0.762,3.813 2.29,4.926 1.523,1.113 3.421,1.672 5.687,1.672 1.871,0 3.473,-0.27 4.805,-0.805 1.332,-0.523 2.527,-1.222 3.586,-2.105 l -2.66,-3.133 c -0.852,0.578 -1.731,1.051 -2.637,1.422 -0.906,0.371 -1.938,0.558 -3.094,0.558 -1.375,0 -2.328,-0.25 -2.863,-0.742 -0.539,-0.48 -0.805,-1.094 -0.805,-1.836 0,-0.468 0.199,-0.898 0.598,-1.297 0.398,-0.398 1.14,-0.64 2.226,-0.722 l 3.547,-0.246 c 2.211,-0.153 3.801,-0.84 4.762,-2.063 0.961,-1.211 1.441,-2.66 1.441,-4.351 0,-2.102 -0.859,-3.723 -2.574,-4.864 -1.719,-1.14 -3.816,-1.711 -6.289,-1.711 -3.562,0 -6.699,1.27 -9.422,3.813 z" /></g></g></svg>