<?xml version="1.0" encoding="UTF-8" standalone="no"?>
<svg
   xmlns:dc="http://purl.org/dc/elements/1.1/"
   xmlns:cc="http://creativecommons.org/ns#"
   xmlns:rdf="http://www.w3.org/1999/02/22-rdf-syntax-ns#"
   xmlns:svg="http://www.w3.org/2000/svg"
   xmlns="http://www.w3.org/2000/svg"
   viewBox="0 0 421.02505 630.72418"
   height="630.72418"
   width="421.02505"
   xml:space="preserve"
   version="1.1"
   id="svg5986"><metadata
     id="metadata5992"><rdf:RDF><cc:Work
         rdf:about=""><dc:format>image/svg+xml</dc:format><dc:type
           rdf:resource="http://purl.org/dc/dcmitype/StillImage" /><dc:title></dc:title></cc:Work></rdf:RDF></metadata><defs
     id="defs5990" /><g
     transform="matrix(1.25,0,0,-1.25,0,630.72418)"
     id="g5994"><g
       id="g5996"><path
         id="path5998"
         style="fill:#ffffff;fill-opacity:1;fill-rule:evenodd;stroke:none"
         d="m 23.035,0.4 291.195,0 c 22.301,0 22.192,18.187 22.192,18.187 l 0,467.641 c 0,0 0.144,17.949 -19.176,17.949 l -297.039,0 c 0,0 -19.766,0.328 -19.809,-19.742 l 0,-464.051 C 0.398,0.353 23.035,0.4 23.035,0.4 Z" /><path
         id="path6000"
         style="fill:#154889;fill-opacity:1;fill-rule:evenodd;stroke:none"
         d="m 19.648,9.306 297.622,0 c 0,0 10.828,0.027 10.828,10.953 l 0,464.926 c 0,0 -0.008,10.73 -11.981,10.73 l -295.312,0 c 0,0 -11.895,0 -11.895,-10.726 l 0,-465.614 C 8.949,9.197 19.648,9.306 19.648,9.306 Z" /><path
         id="path6002"
         style="fill:#ffffff;fill-opacity:1;fill-rule:evenodd;stroke:none"
         d="m 39.133,148.907 67.355,0.032 -0.097,-13.246 -25.711,-0.032 -0.032,-81.566 -15.07,0 0,81.613 -26.41,-0.066 -0.035,13.265 z" /><path
         id="path6004"
         style="fill:#ffffff;fill-opacity:1;fill-rule:evenodd;stroke:none"
         d="m 147.379,149.103 -12.203,-0.074 -34.676,-95.055 16.027,0.094 7.422,20.843 34.848,0.075 7.851,-21.746 15.84,0 -35.109,95.863 z m -5.848,-21.313 12.824,-39.441 -26.32,-0.074 13.496,39.515 z" /><path
         id="path6006"
         style="fill:#ffffff;fill-opacity:1;fill-rule:evenodd;stroke:none"
         d="m 191.18,149.087 27.824,-46.16 -29.551,-48.91 17.902,0 19.727,34.676 19.746,-34.676 17.688,0 -29.18,48.695 27.887,46.16 -18.121,0 -17.903,-32.14 -18.332,32.14 -17.687,0.215 z" /><path
         id="path6008"
         style="fill:#ffffff;fill-opacity:1;fill-rule:evenodd;stroke:none"
         d="m 277.309,54.126 -0.028,94.797 15.004,0 -0.023,-94.824 -14.953,0.027 z" /><path
         id="path6010"
         style="fill:#000000;fill-opacity:1;fill-rule:evenodd;stroke:none"
         d="m 20.207,504.579 c -0.008,0 -5.023,0.086 -10.062,-2.386 C 5.098,499.716 0.02,494.603 0,484.439 L 0,20.384 C 0,10.22 5.805,5.048 11.555,2.513 c 5.75,-2.531 11.48,-2.512 11.48,-2.512 l 291.195,0 c 11.258,0 16.977,4.637 19.801,9.285 2.821,4.649 2.789,9.297 2.789,9.297 l 0,467.645 c 0,0.004 0.039,4.578 -2.39,9.164 -2.43,4.586 -7.399,9.187 -17.184,9.187 l -297.039,0 z m 0,-0.402 297.039,0 c 19.32,0 19.176,-17.949 19.176,-17.949 l 0,-467.645 c 0,0 0.109,-18.183 -22.192,-18.183 l -291.195,0 c 0,0 -22.637,-0.047 -22.637,19.98 l 0,464.055 c 0.043,20.07 19.809,19.742 19.809,19.742 z" /><path
         id="path6012"
         style="fill:#c1121c;fill-opacity:1;fill-rule:nonzero;stroke:none"
         d="m 168.504,196.771 c 69.383,0 126,56.621 126,126 0,69.383 -56.617,126 -126,126 -69.379,0 -126,-56.617 -126,-126 0,-69.379 56.621,-126 126,-126 z m 0,34.929 c -20.524,0 -39.406,6.7 -54.594,18.043 l 54.594,54.594 54.594,-54.59 C 207.91,238.404 189.027,231.7 168.504,231.7 Z m -73.027,36.477 c -11.344,15.188 -18.043,34.07 -18.043,54.594 0,20.523 6.703,39.406 18.043,54.594 L 150.07,322.771 95.477,268.177 Z m 146.054,0.004 -54.593,54.59 54.593,54.594 c 11.344,-15.188 18.043,-34.071 18.043,-54.594 0,-20.524 -6.699,-39.406 -18.043,-54.59 z m -73.027,73.023 -54.594,54.594 c 15.188,11.344 34.07,18.043 54.594,18.043 20.523,0 39.406,-6.699 54.594,-18.043 l -54.594,-54.594 z" /><path
         id="path6014"
         style="fill:#000000;fill-opacity:1;fill-rule:nonzero;stroke:none"
         d="m 286.125,205.4 0,0.011 0.012,0 -0.012,-0.011 z" /><path
         id="path6016"
         style="fill:#000000;fill-opacity:1;fill-rule:nonzero;stroke:none"
         d="m 286.125,205.411 0.012,0 0,-0.012 -0.012,0 0,0.012 z" /><path
         id="path6018"
         style="fill:#000000;fill-opacity:1;fill-rule:nonzero;stroke:none"
         d="m 286.137,205.411 0,-0.011 -0.012,0.011 0.012,0 z m -0.012,0 0.012,-0.011 0,0.011 -0.012,0 z" /><path
         id="path6020"
         style="fill:#000000;fill-opacity:1;fill-rule:nonzero;stroke:none"
         d="m 286.109,205.411 0.028,0 -0.012,0 0,-0.011 -0.016,0.011 z" /><path
         id="path6022"
         style="fill:#000000;fill-opacity:1;fill-rule:nonzero;stroke:none"
         d="m 286.137,205.411 0,-0.011 0,0.011 -0.012,-0.011 0.012,0.011 z" /><path
         id="path6024"
         style="fill:#000000;fill-opacity:1;fill-rule:nonzero;stroke:none"
         d="m 286.125,205.411 0.012,0 0,-0.012 -0.012,0 0,0.012 z" /><path
         id="path6026"
         style="fill:#000000;fill-opacity:1;fill-rule:nonzero;stroke:none"
         d="m 286.109,205.4 0,0.023 0.028,0 -0.028,-0.023 z" /><path
         id="path6028"
         style="fill:#000000;fill-opacity:1;fill-rule:nonzero;stroke:none"
         d="m 286.109,205.423 0.027,0 0,-0.023 -0.027,0 0,0.023 z" /><path
         id="path6030"
         style="fill:#000000;fill-opacity:1;fill-rule:nonzero;stroke:none"
         d="m 286.137,205.423 0,-0.023 -0.028,0.023 0.028,0 z m -0.028,0 0.028,-0.023 0,0.023 -0.028,0 z" /><path
         id="path6032"
         style="fill:#000000;fill-opacity:1;fill-rule:nonzero;stroke:none"
         d="m 286.109,205.423 0.028,0 -0.012,0 0,-0.023 -0.016,0.023 z" /><path
         id="path6034"
         style="fill:#000000;fill-opacity:1;fill-rule:nonzero;stroke:none"
         d="m 286.137,205.423 0,-0.023 0,0.023 -0.028,-0.023 0.028,0.023 z" /><path
         id="path6036"
         style="fill:#000000;fill-opacity:1;fill-rule:nonzero;stroke:none"
         d="m 286.109,205.423 0.027,0 0,-0.023 -0.027,0 0,0.023 z" /><path
         id="path6038"
         style="fill:#000000;fill-opacity:1;fill-rule:nonzero;stroke:none"
         d="m 286.109,205.4 0,0.023 0.028,0 -0.028,-0.023 z" /><path
         id="path6040"
         style="fill:#000000;fill-opacity:1;fill-rule:nonzero;stroke:none"
         d="m 286.109,205.423 0.027,0 0,-0.023 -0.027,0 0,0.023 z" /><path
         id="path6042"
         style="fill:#000000;fill-opacity:1;fill-rule:nonzero;stroke:none"
         d="m 286.137,205.423 0,-0.023 -0.028,0.023 0.028,0 z m -0.028,0 0.028,-0.023 0,0.023 -0.028,0 z" /><path
         id="path6044"
         style="fill:#000000;fill-opacity:1;fill-rule:nonzero;stroke:none"
         d="m 286.109,205.423 0.028,0 -0.012,0 0,-0.023 -0.016,0.023 z" /><path
         id="path6046"
         style="fill:#000000;fill-opacity:1;fill-rule:nonzero;stroke:none"
         d="m 286.137,205.423 0,-0.023 0,0.023 -0.028,-0.023 0.028,0.023 z" /><path
         id="path6048"
         style="fill:#000000;fill-opacity:1;fill-rule:nonzero;stroke:none"
         d="m 286.109,205.423 0.027,0 0,-0.023 -0.027,0 0,0.023 z" /><path
         id="path6050"
         style="fill:#000000;fill-opacity:1;fill-rule:nonzero;stroke:none"
         d="m 286.109,205.4 0,0.023 0.028,0 -0.028,-0.023 z" /><path
         id="path6052"
         style="fill:#000000;fill-opacity:1;fill-rule:nonzero;stroke:none"
         d="m 286.109,205.423 0.027,0 0,-0.023 -0.027,0 0,0.023 z" /><path
         id="path6054"
         style="fill:#000000;fill-opacity:1;fill-rule:nonzero;stroke:none"
         d="m 286.137,205.423 0,-0.023 -0.028,0.023 0.028,0 z m -0.028,0 0.028,-0.023 0,0.023 -0.028,0 z" /><path
         id="path6056"
         style="fill:#000000;fill-opacity:1;fill-rule:nonzero;stroke:none"
         d="m 286.109,205.423 0.028,0 -0.012,0 0,-0.023 -0.016,0.023 z" /><path
         id="path6058"
         style="fill:#000000;fill-opacity:1;fill-rule:nonzero;stroke:none"
         d="m 286.137,205.423 0,-0.023 0,0.023 -0.028,-0.023 0.028,0.023 z" /><path
         id="path6060"
         style="fill:#000000;fill-opacity:1;fill-rule:nonzero;stroke:none"
         d="m 286.109,205.423 0.027,0 0,-0.023 -0.027,0 0,0.023 z" /><path
         id="path6062"
         style="fill:#ffffff;fill-opacity:1;fill-rule:nonzero;stroke:none"
         d="m 202.793,257.493 -19.582,-19.586 -10.883,0 15.231,15.231 -53.344,0 0,8.707 53.344,0 -15.231,15.234 10.883,0" /></g></g></svg>