<?xml version="1.0" encoding="UTF-8" standalone="no"?>
<svg
   xmlns:dc="http://purl.org/dc/elements/1.1/"
   xmlns:cc="http://creativecommons.org/ns#"
   xmlns:rdf="http://www.w3.org/1999/02/22-rdf-syntax-ns#"
   xmlns:svg="http://www.w3.org/2000/svg"
   xmlns="http://www.w3.org/2000/svg"
   viewBox="0 0 421.02505 630.72418"
   height="630.72418"
   width="421.02505"
   xml:space="preserve"
   version="1.1"
   id="svg5908"><metadata
     id="metadata5914"><rdf:RDF><cc:Work
         rdf:about=""><dc:format>image/svg+xml</dc:format><dc:type
           rdf:resource="http://purl.org/dc/dcmitype/StillImage" /><dc:title></dc:title></cc:Work></rdf:RDF></metadata><defs
     id="defs5912" /><g
     transform="matrix(1.25,0,0,-1.25,0,630.72418)"
     id="g5916"><g
       id="g5918"><path
         id="path5920"
         style="fill:#ffffff;fill-opacity:1;fill-rule:evenodd;stroke:none"
         d="m 23.035,0.4 291.195,0 c 22.301,0 22.192,18.187 22.192,18.187 l 0,467.641 c 0,0 0.144,17.949 -19.176,17.949 l -297.039,0 c 0,0 -19.766,0.328 -19.809,-19.742 l 0,-464.051 C 0.398,0.353 23.035,0.4 23.035,0.4 Z" /><path
         id="path5922"
         style="fill:#154889;fill-opacity:1;fill-rule:evenodd;stroke:none"
         d="m 19.648,9.306 297.622,0 c 0,0 10.828,0.027 10.828,10.953 l 0,464.926 c 0,0 -0.008,10.73 -11.981,10.73 l -295.312,0 c 0,0 -11.895,0 -11.895,-10.726 l 0,-465.614 C 8.949,9.197 19.648,9.306 19.648,9.306 Z" /><path
         id="path5924"
         style="fill:#ffffff;fill-opacity:1;fill-rule:evenodd;stroke:none"
         d="m 39.133,148.907 67.355,0.032 -0.097,-13.246 -25.711,-0.032 -0.032,-81.566 -15.07,0 0,81.613 -26.41,-0.066 -0.035,13.265 z" /><path
         id="path5926"
         style="fill:#ffffff;fill-opacity:1;fill-rule:evenodd;stroke:none"
         d="m 147.379,149.103 -12.203,-0.074 -34.676,-95.055 16.027,0.094 7.422,20.843 34.848,0.075 7.851,-21.746 15.84,0 -35.109,95.863 z m -5.848,-21.313 12.824,-39.441 -26.32,-0.074 13.496,39.515 z" /><path
         id="path5928"
         style="fill:#ffffff;fill-opacity:1;fill-rule:evenodd;stroke:none"
         d="m 191.18,149.087 27.824,-46.16 -29.551,-48.91 17.902,0 19.727,34.676 19.746,-34.676 17.688,0 -29.18,48.695 27.887,46.16 -18.121,0 -17.903,-32.14 -18.332,32.14 -17.687,0.215 z" /><path
         id="path5930"
         style="fill:#ffffff;fill-opacity:1;fill-rule:evenodd;stroke:none"
         d="m 277.309,54.126 -0.028,94.797 15.004,0 -0.023,-94.824 -14.953,0.027 z" /><path
         id="path5932"
         style="fill:#000000;fill-opacity:1;fill-rule:evenodd;stroke:none"
         d="m 20.207,504.579 c -0.008,0 -5.023,0.086 -10.062,-2.386 C 5.098,499.716 0.02,494.603 0,484.439 L 0,20.384 C 0,10.22 5.805,5.048 11.555,2.513 c 5.75,-2.531 11.48,-2.512 11.48,-2.512 l 291.195,0 c 11.258,0 16.977,4.637 19.801,9.285 2.821,4.649 2.789,9.297 2.789,9.297 l 0,467.645 c 0,0.004 0.039,4.578 -2.39,9.164 -2.43,4.586 -7.399,9.187 -17.184,9.187 l -297.039,0 z m 0,-0.402 297.039,0 c 19.32,0 19.176,-17.949 19.176,-17.949 l 0,-467.645 c 0,0 0.109,-18.183 -22.192,-18.183 l -291.195,0 c 0,0 -22.637,-0.047 -22.637,19.98 l 0,464.055 c 0.043,20.07 19.809,19.742 19.809,19.742 z" /><path
         id="path5934"
         style="fill:#c1121c;fill-opacity:1;fill-rule:nonzero;stroke:none"
         d="m 168.504,448.771 c 69.383,0 126,-56.617 126,-126 0,-69.379 -56.617,-126 -126,-126 -69.379,0 -126,56.621 -126,126 0,69.383 56.621,126 126,126 z m 0,-34.93 c -20.524,0 -39.406,-6.699 -54.594,-18.043 l 54.594,-54.594 54.594,54.594 c -15.188,11.344 -34.071,18.043 -54.594,18.043 z M 95.477,377.365 C 84.133,362.177 77.434,343.294 77.434,322.771 c 0,-20.524 6.703,-39.406 18.043,-54.59 l 54.593,54.59 -54.593,54.594 z m 146.054,0 -54.593,-54.594 54.593,-54.59 c 11.344,15.184 18.043,34.066 18.043,54.59 0,20.523 -6.699,39.406 -18.043,54.594 z M 168.504,304.337 113.91,249.743 C 129.098,238.4 147.98,231.7 168.504,231.7 c 20.523,0 39.406,6.704 54.594,18.047 l -54.594,54.59 z" /><path
         id="path5936"
         style="fill:#000000;fill-opacity:1;fill-rule:nonzero;stroke:none"
         d="m 286.125,440.146 0,-0.016 0.012,0 -0.012,0.016 z" /><path
         id="path5938"
         style="fill:#000000;fill-opacity:1;fill-rule:nonzero;stroke:none"
         d="m 286.125,440.146 0.012,0 0,-0.016 -0.012,0 0,0.016 z" /><path
         id="path5940"
         style="fill:#000000;fill-opacity:1;fill-rule:nonzero;stroke:none"
         d="m 286.137,440.13 0,0.016 -0.012,-0.016 0.012,0 z m -0.012,0 0.012,0.016 0,-0.016 -0.012,0 z" /><path
         id="path5942"
         style="fill:#000000;fill-opacity:1;fill-rule:nonzero;stroke:none"
         d="m 286.109,440.13 0.028,0 -0.012,0 0,0.016 -0.016,-0.016 z" /><path
         id="path5944"
         style="fill:#000000;fill-opacity:1;fill-rule:nonzero;stroke:none"
         d="m 286.137,440.13 0,0.016 0,-0.016 -0.012,0.016 0.012,-0.016 z" /><path
         id="path5946"
         style="fill:#000000;fill-opacity:1;fill-rule:nonzero;stroke:none"
         d="m 286.125,440.146 0.012,0 0,-0.016 -0.012,0 0,0.016 z" /><path
         id="path5948"
         style="fill:#000000;fill-opacity:1;fill-rule:nonzero;stroke:none"
         d="m 286.109,440.146 0,-0.028 0.028,0 -0.028,0.028 z" /><path
         id="path5950"
         style="fill:#000000;fill-opacity:1;fill-rule:nonzero;stroke:none"
         d="m 286.109,440.146 0.027,0 0,-0.027 -0.027,0 0,0.027 z" /><path
         id="path5952"
         style="fill:#000000;fill-opacity:1;fill-rule:nonzero;stroke:none"
         d="m 286.137,440.118 0,0.028 -0.028,-0.028 0.028,0 z m -0.028,0 0.028,0.028 0,-0.028 -0.028,0 z" /><path
         id="path5954"
         style="fill:#000000;fill-opacity:1;fill-rule:nonzero;stroke:none"
         d="m 286.109,440.118 0.028,0 -0.012,0 0,0.028 -0.016,-0.028 z" /><path
         id="path5956"
         style="fill:#000000;fill-opacity:1;fill-rule:nonzero;stroke:none"
         d="m 286.137,440.118 0,0.028 0,-0.028 -0.028,0.028 0.028,-0.028 z" /><path
         id="path5958"
         style="fill:#000000;fill-opacity:1;fill-rule:nonzero;stroke:none"
         d="m 286.109,440.146 0.027,0 0,-0.027 -0.027,0 0,0.027 z" /><path
         id="path5960"
         style="fill:#000000;fill-opacity:1;fill-rule:nonzero;stroke:none"
         d="m 286.109,440.146 0,-0.028 0.028,0 -0.028,0.028 z" /><path
         id="path5962"
         style="fill:#000000;fill-opacity:1;fill-rule:nonzero;stroke:none"
         d="m 286.109,440.146 0.027,0 0,-0.027 -0.027,0 0,0.027 z" /><path
         id="path5964"
         style="fill:#000000;fill-opacity:1;fill-rule:nonzero;stroke:none"
         d="m 286.137,440.118 0,0.028 -0.028,-0.028 0.028,0 z m -0.028,0 0.028,0.028 0,-0.028 -0.028,0 z" /><path
         id="path5966"
         style="fill:#000000;fill-opacity:1;fill-rule:nonzero;stroke:none"
         d="m 286.109,440.118 0.028,0 -0.012,0 0,0.028 -0.016,-0.028 z" /><path
         id="path5968"
         style="fill:#000000;fill-opacity:1;fill-rule:nonzero;stroke:none"
         d="m 286.137,440.118 0,0.028 0,-0.028 -0.028,0.028 0.028,-0.028 z" /><path
         id="path5970"
         style="fill:#000000;fill-opacity:1;fill-rule:nonzero;stroke:none"
         d="m 286.109,440.146 0.027,0 0,-0.027 -0.027,0 0,0.027 z" /><path
         id="path5972"
         style="fill:#000000;fill-opacity:1;fill-rule:nonzero;stroke:none"
         d="m 286.109,440.146 0,-0.028 0.028,0 -0.028,0.028 z" /><path
         id="path5974"
         style="fill:#000000;fill-opacity:1;fill-rule:nonzero;stroke:none"
         d="m 286.109,440.146 0.027,0 0,-0.027 -0.027,0 0,0.027 z" /><path
         id="path5976"
         style="fill:#000000;fill-opacity:1;fill-rule:nonzero;stroke:none"
         d="m 286.137,440.118 0,0.028 -0.028,-0.028 0.028,0 z m -0.028,0 0.028,0.028 0,-0.028 -0.028,0 z" /><path
         id="path5978"
         style="fill:#000000;fill-opacity:1;fill-rule:nonzero;stroke:none"
         d="m 286.109,440.118 0.028,0 -0.012,0 0,0.028 -0.016,-0.028 z" /><path
         id="path5980"
         style="fill:#000000;fill-opacity:1;fill-rule:nonzero;stroke:none"
         d="m 286.137,440.118 0,0.028 0,-0.028 -0.028,0.028 0.028,-0.028 z" /><path
         id="path5982"
         style="fill:#000000;fill-opacity:1;fill-rule:nonzero;stroke:none"
         d="m 286.109,440.146 0.027,0 0,-0.027 -0.027,0 0,0.027 z" /><path
         id="path5984"
         style="fill:#ffffff;fill-opacity:1;fill-rule:nonzero;stroke:none"
         d="m 202.793,388.048 -19.582,19.59 -10.883,0 15.231,-15.234 -53.344,0 0,-8.707 53.344,0 -15.231,-15.231 10.883,0" /></g></g></svg>