<?xml version="1.0" encoding="UTF-8" standalone="no"?>
<svg
   xmlns:dc="http://purl.org/dc/elements/1.1/"
   xmlns:cc="http://creativecommons.org/ns#"
   xmlns:rdf="http://www.w3.org/1999/02/22-rdf-syntax-ns#"
   xmlns:svg="http://www.w3.org/2000/svg"
   xmlns="http://www.w3.org/2000/svg"
   viewBox="0 0 600.995 600.995"
   height="600.995"
   width="600.995"
   xml:space="preserve"
   version="1.1"
   id="svg4315"><metadata
     id="metadata4321"><rdf:RDF><cc:Work
         rdf:about=""><dc:format>image/svg+xml</dc:format><dc:type
           rdf:resource="http://purl.org/dc/dcmitype/StillImage" /><dc:title></dc:title></cc:Work></rdf:RDF></metadata><defs
     id="defs4319" /><g
     transform="matrix(1.25,0,0,-1.25,0,600.99499)"
     id="g4323"><g
       id="g4325"><path
         id="path4327"
         style="fill:#ffffff;fill-opacity:1;fill-rule:nonzero;stroke:none"
         d="m 480.398,240.398 c 0,-132.551 -107.449,-240 -240,-240 -132.55,0 -240,107.449 -240,240 0,132.55 107.45,240 240,240 132.551,0 240,-107.45 240,-240 z" /><path
         id="path4329"
         style="fill:#000000;fill-opacity:1;fill-rule:nonzero;stroke:none"
         d="M 240.398,480.796 C 107.633,480.796 0,373.163 0,240.398 0,107.632 107.633,-0.001 240.398,-0.001 c 132.766,0 240.399,107.633 240.399,240.399 0,132.765 -107.633,240.398 -240.399,240.398 z m 0,-0.398 c 132.551,0 240,-107.45 240,-240 0,-132.551 -107.449,-240 -240,-240 -132.55,0 -240,107.449 -240,240 0,132.55 107.45,240 240,240 z" /><g
         transform="matrix(1,0,0,-1,0,480.79599)"
         id="g4331"><path
           id="path4333"
           style="fill:none;stroke:#c1121c;stroke-width:64.3168335;stroke-linecap:butt;stroke-linejoin:miter;stroke-miterlimit:4;stroke-dasharray:none;stroke-opacity:1"
           d="m 440.238,240.398 c 0,110.368 -89.472,199.84 -199.84,199.84 -110.367,0 -199.839,-89.472 -199.839,-199.84 0,-110.367 89.472,-199.839 199.839,-199.839 110.368,0 199.84,89.472 199.84,199.839 z" /></g><path
         id="path4335"
         style="fill:#000000;fill-opacity:1;fill-rule:nonzero;stroke:none"
         d="m 23.832,456.511 0,-0.024 -0.023,0 0.023,0.024 z" /><path
         id="path4337"
         style="fill:#000000;fill-opacity:1;fill-rule:nonzero;stroke:none"
         d="m 23.809,456.511 0.023,0 0,-0.023 -0.023,0 0,0.023 z" /><path
         id="path4339"
         style="fill:#000000;fill-opacity:1;fill-rule:nonzero;stroke:none"
         d="m 23.809,456.487 0,0.024 0.023,-0.024 -0.023,0 z m 0.023,0 -0.023,0.024 0,-0.024 0.023,0 z" /><path
         id="path4341"
         style="fill:#000000;fill-opacity:1;fill-rule:nonzero;stroke:none"
         d="m 23.859,456.487 -0.05,0 0.023,0 0,0.024 0.027,-0.024 z" /><path
         id="path4343"
         style="fill:#000000;fill-opacity:1;fill-rule:nonzero;stroke:none"
         d="m 23.809,456.487 0,0.024 0,-0.024 0.023,0.024 -0.023,-0.024 z" /><path
         id="path4345"
         style="fill:#000000;fill-opacity:1;fill-rule:nonzero;stroke:none"
         d="m 23.809,456.511 0.023,0 0,-0.023 -0.023,0 0,0.023 z" /><path
         id="path4347"
         style="fill:#000000;fill-opacity:1;fill-rule:nonzero;stroke:none"
         d="m 23.859,456.511 0,-0.047 -0.05,0 0.05,0.047 z" /><path
         id="path4349"
         style="fill:#000000;fill-opacity:1;fill-rule:nonzero;stroke:none"
         d="m 23.809,456.511 0.051,0 0,-0.047 -0.051,0 0,0.047 z" /><path
         id="path4351"
         style="fill:#000000;fill-opacity:1;fill-rule:nonzero;stroke:none"
         d="m 23.809,456.464 0,0.047 0.05,-0.047 -0.05,0 z m 0.05,0 -0.05,0.047 0,-0.047 0.05,0 z" /><path
         id="path4353"
         style="fill:#000000;fill-opacity:1;fill-rule:nonzero;stroke:none"
         d="m 23.859,456.464 -0.05,0 0.023,0 0,0.047 0.027,-0.047 z" /><path
         id="path4355"
         style="fill:#000000;fill-opacity:1;fill-rule:nonzero;stroke:none"
         d="m 23.809,456.464 0,0.047 0,-0.047 0.05,0.047 -0.05,-0.047 z" /><path
         id="path4357"
         style="fill:#000000;fill-opacity:1;fill-rule:nonzero;stroke:none"
         d="m 23.809,456.511 0.051,0 0,-0.047 -0.051,0 0,0.047 z" /><path
         id="path4359"
         style="fill:#000000;fill-opacity:1;fill-rule:nonzero;stroke:none"
         d="m 23.859,456.511 0,-0.047 -0.05,0 0.05,0.047 z" /><path
         id="path4361"
         style="fill:#000000;fill-opacity:1;fill-rule:nonzero;stroke:none"
         d="m 23.809,456.511 0.051,0 0,-0.047 -0.051,0 0,0.047 z" /><path
         id="path4363"
         style="fill:#000000;fill-opacity:1;fill-rule:nonzero;stroke:none"
         d="m 23.809,456.464 0,0.047 0.05,-0.047 -0.05,0 z m 0.05,0 -0.05,0.047 0,-0.047 0.05,0 z" /><path
         id="path4365"
         style="fill:#000000;fill-opacity:1;fill-rule:nonzero;stroke:none"
         d="m 23.859,456.464 -0.05,0 0.023,0 0,0.047 0.027,-0.047 z" /><path
         id="path4367"
         style="fill:#000000;fill-opacity:1;fill-rule:nonzero;stroke:none"
         d="m 23.809,456.464 0,0.047 0,-0.047 0.05,0.047 -0.05,-0.047 z" /><path
         id="path4369"
         style="fill:#000000;fill-opacity:1;fill-rule:nonzero;stroke:none"
         d="m 23.809,456.511 0.051,0 0,-0.047 -0.051,0 0,0.047 z" /><path
         id="path4371"
         style="fill:#000000;fill-opacity:1;fill-rule:nonzero;stroke:none"
         d="m 23.859,456.511 0,-0.047 -0.05,0 0.05,0.047 z" /><path
         id="path4373"
         style="fill:#000000;fill-opacity:1;fill-rule:nonzero;stroke:none"
         d="m 23.809,456.511 0.051,0 0,-0.047 -0.051,0 0,0.047 z" /><path
         id="path4375"
         style="fill:#000000;fill-opacity:1;fill-rule:nonzero;stroke:none"
         d="m 23.809,456.464 0,0.047 0.05,-0.047 -0.05,0 z m 0.05,0 -0.05,0.047 0,-0.047 0.05,0 z" /><path
         id="path4377"
         style="fill:#000000;fill-opacity:1;fill-rule:nonzero;stroke:none"
         d="m 23.859,456.464 -0.05,0 0.023,0 0,0.047 0.027,-0.047 z" /><path
         id="path4379"
         style="fill:#000000;fill-opacity:1;fill-rule:nonzero;stroke:none"
         d="m 23.809,456.464 0,0.047 0,-0.047 0.05,0.047 -0.05,-0.047 z" /><path
         id="path4381"
         style="fill:#000000;fill-opacity:1;fill-rule:nonzero;stroke:none"
         d="m 23.809,456.511 0.051,0 0,-0.047 -0.051,0 0,0.047 z" /><path
         id="path4383"
         style="fill:#000000;fill-opacity:1;fill-rule:nonzero;stroke:none"
         d="m 94.695,181.862 0,33.36 24.274,15.886 -1.27,2.938 c -1.554,3.586 -2.355,7.453 -2.355,11.359 0,2.918 0.445,5.817 1.324,8.598 l -9.266,16.82 -22.238,-4.765 -4.766,4.765 19.063,22.239 0,9.531 6.352,-6.356 c 10.808,0 20.871,-5.492 26.718,-14.578 l 15.805,-24.832 c 5.41,-0.761 10.863,-1.14 16.328,-1.14 8.539,0 17.051,0.929 25.387,2.781 l 0.109,0.019 c 1.524,0.278 3.067,0.422 4.61,0.422 5.007,0 9.898,-1.48 14.07,-4.25 l 4.223,4.227 c 3.574,3.574 8.421,5.582 13.48,5.582 8.621,0 16.172,-5.789 18.41,-14.117 l 3.035,-11.301 -11.914,-6.352 -2.539,14.489 c -0.867,4.941 -5.156,8.543 -10.172,8.543 -2.738,0 -5.363,-1.086 -7.3,-3.024 l -2.309,-2.312 c 4.144,-4.653 6.434,-10.668 6.434,-16.903 0,-2.937 -0.508,-5.855 -1.504,-8.617 l 12.625,-20.855 -4.766,-30.184 -9.016,-3.09 4.766,30.18 -22.488,17.547 2.91,-22.313 -14.297,-27.004 -9.531,0 14.297,27.004 -14.086,24.922 c -7.352,-1.781 -14.887,-2.68 -22.45,-2.68 -7.183,0 -14.343,0.813 -21.347,2.418 l 14.992,-43.718 -1.59,-7.946 -7.941,0 1.59,7.946 -19.063,44.031 -20.652,-12.262 0,-22.242 -7.942,-4.766" /><path
         id="path4385"
         style="fill:#000000;fill-opacity:1;fill-rule:nonzero;stroke:none"
         d="m 313.688,197.089 c 0,-15.426 -12.504,-27.934 -27.93,-27.934 -15.426,0 -27.934,12.508 -27.934,27.934 0,15.426 12.508,27.93 27.934,27.93 15.426,0 27.93,-12.504 27.93,-27.93 z m -7.18,0 c 0,11.457 -9.293,20.75 -20.75,20.75 -11.461,0 -20.75,-9.293 -20.75,-20.75 0,-11.461 9.289,-20.75 20.75,-20.75 11.457,0 20.75,9.289 20.75,20.75" /><path
         id="path4387"
         style="fill:#000000;fill-opacity:1;fill-rule:nonzero;stroke:none"
         d="m 391.641,197.089 c 0,-15.426 -12.508,-27.934 -27.934,-27.934 -15.426,0 -27.93,12.508 -27.93,27.934 0,15.426 12.504,27.93 27.93,27.93 15.426,0 27.934,-12.504 27.934,-27.93 z m -7.184,0 c 0,11.457 -9.289,20.75 -20.75,20.75 -11.461,0 -20.75,-9.293 -20.75,-20.75 0,-11.461 9.289,-20.75 20.75,-20.75 11.461,0 20.75,9.289 20.75,20.75" /><path
         id="path4389"
         style="fill:#000000;fill-opacity:1;fill-rule:nonzero;stroke:none"
         d="m 264.75,217.839 0,11.172 -12.77,9.574 4.79,6.387 7.98,-5.985 16.758,25.137 c 1.508,2.012 3.871,3.192 6.383,3.192 l 11.972,0 0,7.98 -15.961,0 c -2.425,0 -4.39,1.965 -4.39,4.391 0,2.425 1.965,4.39 4.39,4.39 l 15.961,0 0,11.571 c 0,5.07 4.11,9.179 9.176,9.179 5.07,0 9.18,-4.109 9.18,-9.179 l 0,-34.715 73.422,0 0,-43.094 -6.926,0 c -5.547,5.617 -13.113,8.777 -21.008,8.777 -7.894,0 -15.461,-3.16 -21.008,-8.777 l -35.933,0 c -5.547,5.617 -13.114,8.777 -21.008,8.777 -7.895,0 -15.461,-3.16 -21.012,-8.777 l 0.004,0 z m 13.566,20.746 10.375,0 9.575,14.367 -10.375,0 -9.575,-14.367" /><path
         id="path4391"
         style="fill:#000000;fill-opacity:1;fill-rule:nonzero;stroke:none"
         d="m 319.414,318.394 c 0,-5.731 -4.644,-10.375 -10.375,-10.375 -5.726,0 -10.371,4.644 -10.371,10.375 0,5.73 4.645,10.375 10.371,10.375 5.731,0 10.375,-4.645 10.375,-10.375" /><path
         id="path4393"
         style="fill:#000000;fill-opacity:1;fill-rule:nonzero;stroke:none"
         d="m 260.758,217.839 -36.711,9.574 0,3.992 36.711,-9.578 0,-3.988" /></g></g></svg>