<?xml version="1.0" encoding="UTF-8" standalone="no"?>
<svg
   xmlns:dc="http://purl.org/dc/elements/1.1/"
   xmlns:cc="http://creativecommons.org/ns#"
   xmlns:rdf="http://www.w3.org/1999/02/22-rdf-syntax-ns#"
   xmlns:svg="http://www.w3.org/2000/svg"
   xmlns="http://www.w3.org/2000/svg"
   id="svg3636"
   version="1.1"
   xml:space="preserve"
   width="600.995"
   height="600.995"
   viewBox="0 0 600.995 600.995"><metadata
     id="metadata3642"><rdf:RDF><cc:Work
         rdf:about=""><dc:format>image/svg+xml</dc:format><dc:type
           rdf:resource="http://purl.org/dc/dcmitype/StillImage" /><dc:title></dc:title></cc:Work></rdf:RDF></metadata><defs
     id="defs3640" /><g
     id="g3644"
     transform="matrix(1.25,0,0,-1.25,0,600.99499)"><g
       id="g3646"><path
         d="m 480.398,240.398 c 0,-132.551 -107.449,-240 -240,-240 -132.55,0 -240,107.449 -240,240 0,132.55 107.45,240 240,240 132.551,0 240,-107.45 240,-240 z"
         style="fill:#ffffff;fill-opacity:1;fill-rule:nonzero;stroke:none"
         id="path3648" /><path
         d="M 240.398,480.796 C 107.633,480.796 0,373.163 0,240.398 0,107.632 107.633,-0.001 240.398,-0.001 c 132.766,0 240.399,107.633 240.399,240.399 0,132.765 -107.633,240.398 -240.399,240.398 z m 0,-0.398 c 132.551,0 240,-107.45 240,-240 0,-132.551 -107.449,-240 -240,-240 -132.55,0 -240,107.449 -240,240 0,132.55 107.45,240 240,240 z"
         style="fill:#000000;fill-opacity:1;fill-rule:nonzero;stroke:none"
         id="path3650" /><path
         d="m 440.238,240.398 c 0,-110.368 -89.472,-199.84 -199.84,-199.84 -110.367,0 -199.839,89.472 -199.839,199.84 0,110.367 89.472,199.839 199.839,199.839 110.368,0 199.84,-89.472 199.84,-199.839 z"
         style="fill:none;stroke:#c1121c;stroke-width:64.3168335;stroke-linecap:butt;stroke-linejoin:miter;stroke-miterlimit:4;stroke-dasharray:none;stroke-opacity:1"
         id="path3652" /><path
         d="m 23.832,456.511 0,-0.024 -0.023,0 0.023,0.024 z"
         style="fill:#000000;fill-opacity:1;fill-rule:nonzero;stroke:none"
         id="path3654" /><path
         d="m 23.809,456.511 0.023,0 0,-0.023 -0.023,0 0,0.023 z"
         style="fill:#000000;fill-opacity:1;fill-rule:nonzero;stroke:none"
         id="path3656" /><path
         d="m 23.809,456.487 0,0.024 0.023,-0.024 -0.023,0 z m 0.023,0 -0.023,0.024 0,-0.024 0.023,0 z"
         style="fill:#000000;fill-opacity:1;fill-rule:nonzero;stroke:none"
         id="path3658" /><path
         d="m 23.859,456.487 -0.05,0 0.023,0 0,0.024 0.027,-0.024 z"
         style="fill:#000000;fill-opacity:1;fill-rule:nonzero;stroke:none"
         id="path3660" /><path
         d="m 23.809,456.487 0,0.024 0,-0.024 0.023,0.024 -0.023,-0.024 z"
         style="fill:#000000;fill-opacity:1;fill-rule:nonzero;stroke:none"
         id="path3662" /><path
         d="m 23.809,456.511 0.023,0 0,-0.023 -0.023,0 0,0.023 z"
         style="fill:#000000;fill-opacity:1;fill-rule:nonzero;stroke:none"
         id="path3664" /><path
         d="m 23.859,456.511 0,-0.047 -0.05,0 0.05,0.047 z"
         style="fill:#000000;fill-opacity:1;fill-rule:nonzero;stroke:none"
         id="path3666" /><path
         d="m 23.809,456.511 0.051,0 0,-0.047 -0.051,0 0,0.047 z"
         style="fill:#000000;fill-opacity:1;fill-rule:nonzero;stroke:none"
         id="path3668" /><path
         d="m 23.809,456.464 0,0.047 0.05,-0.047 -0.05,0 z m 0.05,0 -0.05,0.047 0,-0.047 0.05,0 z"
         style="fill:#000000;fill-opacity:1;fill-rule:nonzero;stroke:none"
         id="path3670" /><path
         d="m 23.859,456.464 -0.05,0 0.023,0 0,0.047 0.027,-0.047 z"
         style="fill:#000000;fill-opacity:1;fill-rule:nonzero;stroke:none"
         id="path3672" /><path
         d="m 23.809,456.464 0,0.047 0,-0.047 0.05,0.047 -0.05,-0.047 z"
         style="fill:#000000;fill-opacity:1;fill-rule:nonzero;stroke:none"
         id="path3674" /><path
         d="m 23.809,456.511 0.051,0 0,-0.047 -0.051,0 0,0.047 z"
         style="fill:#000000;fill-opacity:1;fill-rule:nonzero;stroke:none"
         id="path3676" /><path
         d="m 23.859,456.511 0,-0.047 -0.05,0 0.05,0.047 z"
         style="fill:#000000;fill-opacity:1;fill-rule:nonzero;stroke:none"
         id="path3678" /><path
         d="m 23.809,456.511 0.051,0 0,-0.047 -0.051,0 0,0.047 z"
         style="fill:#000000;fill-opacity:1;fill-rule:nonzero;stroke:none"
         id="path3680" /><path
         d="m 23.809,456.464 0,0.047 0.05,-0.047 -0.05,0 z m 0.05,0 -0.05,0.047 0,-0.047 0.05,0 z"
         style="fill:#000000;fill-opacity:1;fill-rule:nonzero;stroke:none"
         id="path3682" /><path
         d="m 23.859,456.464 -0.05,0 0.023,0 0,0.047 0.027,-0.047 z"
         style="fill:#000000;fill-opacity:1;fill-rule:nonzero;stroke:none"
         id="path3684" /><path
         d="m 23.809,456.464 0,0.047 0,-0.047 0.05,0.047 -0.05,-0.047 z"
         style="fill:#000000;fill-opacity:1;fill-rule:nonzero;stroke:none"
         id="path3686" /><path
         d="m 23.809,456.511 0.051,0 0,-0.047 -0.051,0 0,0.047 z"
         style="fill:#000000;fill-opacity:1;fill-rule:nonzero;stroke:none"
         id="path3688" /><path
         d="m 23.859,456.511 0,-0.047 -0.05,0 0.05,0.047 z"
         style="fill:#000000;fill-opacity:1;fill-rule:nonzero;stroke:none"
         id="path3690" /><path
         d="m 23.809,456.511 0.051,0 0,-0.047 -0.051,0 0,0.047 z"
         style="fill:#000000;fill-opacity:1;fill-rule:nonzero;stroke:none"
         id="path3692" /><path
         d="m 23.809,456.464 0,0.047 0.05,-0.047 -0.05,0 z m 0.05,0 -0.05,0.047 0,-0.047 0.05,0 z"
         style="fill:#000000;fill-opacity:1;fill-rule:nonzero;stroke:none"
         id="path3694" /><path
         d="m 23.859,456.464 -0.05,0 0.023,0 0,0.047 0.027,-0.047 z"
         style="fill:#000000;fill-opacity:1;fill-rule:nonzero;stroke:none"
         id="path3696" /><path
         d="m 23.809,456.464 0,0.047 0,-0.047 0.05,0.047 -0.05,-0.047 z"
         style="fill:#000000;fill-opacity:1;fill-rule:nonzero;stroke:none"
         id="path3698" /><path
         d="m 23.809,456.511 0.051,0 0,-0.047 -0.051,0 0,0.047 z"
         style="fill:#000000;fill-opacity:1;fill-rule:nonzero;stroke:none"
         id="path3700" /></g></g><g
     transform="matrix(0.64570201,0,0,0.64570201,132.96363,187.52041)"
     id="layer1-9"><path
       d="M 0,107.46706 C 2.6406914,100.7933 50.773488,53.053348 78.505879,27.72301 L 30.247665,3.050815 93.792453,2.926998 112.74757,23.138076 129.41392,6.5673646 c 6.56103,6.3030554 6.50927,21.2137254 0.24763,37.2451764 l 82.90324,11.384487 270.81362,-0.169785 c 5.69821,3.11761 20.44541,0.344451 27.18041,29.193368 l 0.13791,110.409129 8.2253,10.28422 c -4.46142,13.21745 -8.62672,26.80505 -14.342,38.45518 -5.81991,-10.35555 -10.07878,-24.27536 -10.94928,-43.20989 L 493.46096,82.12981 c -5.34267,-8.122241 -11.65903,-13.161149 -20.93988,-8.812504 3.86189,6.555864 7.28898,13.34585 6.92337,22.178062 l 0.12382,251.313572 -30.94461,0.12381 c 15.05229,-37.87936 5.60085,-75.62435 -24.19101,-110.53295 l -47.3915,110.6108 h -29.39503 c 10.0608,-16.40644 21.76838,-30.17804 23.96465,-59.16772 -0.47499,-28.91835 -4.30557,-55.5375 -22.44697,-72.35109 l -87.81365,15.33254 9.22993,116.06245 -29.84433,0.0919 c 10.97343,-34.23524 -0.9307,-77.02292 -21.89856,-101.51877 L 205.5176,347.0106 174.57301,346.93275 C 216.5578,238.86207 152.61888,185.07857 105.60844,129.04013 l -83.600163,-0.0919 C 11.283857,126.30558 5.1805853,117.50144 0,107.46706 Z"
       style="fill:#000000;fill-opacity:1;fill-rule:evenodd;stroke:none;stroke-width:1px;stroke-linecap:butt;stroke-linejoin:miter;stroke-opacity:1"
       id="path33566" /></g></svg>