<?xml version="1.0" encoding="UTF-8" standalone="no"?>
<!-- Created with Inkscape (http://www.inkscape.org/) -->

<svg
   xmlns:dc="http://purl.org/dc/elements/1.1/"
   xmlns:cc="http://creativecommons.org/ns#"
   xmlns:rdf="http://www.w3.org/1999/02/22-rdf-syntax-ns#"
   xmlns:svg="http://www.w3.org/2000/svg"
   xmlns="http://www.w3.org/2000/svg"
   xmlns:sodipodi="http://sodipodi.sourceforge.net/DTD/sodipodi-0.dtd"
   xmlns:inkscape="http://www.inkscape.org/namespaces/inkscape"
   width="159.0136mm"
   height="159.0136mm"
   viewBox="0 0 159.0136 159.0136"
   version="1.1"
   id="svg2965"
   inkscape:version="0.92.4 (33fec40, 2019-01-16)"
   sodipodi:docname="265.svg">
  <defs
     id="defs2959" />
  <sodipodi:namedview
     id="base"
     pagecolor="#ffffff"
     bordercolor="#666666"
     borderopacity="1.0"
     inkscape:pageopacity="0.0"
     inkscape:pageshadow="2"
     inkscape:zoom="0.7"
     inkscape:cx="182.83321"
     inkscape:cy="277.7863"
     inkscape:document-units="mm"
     inkscape:current-layer="layer1"
     showgrid="false"
     fit-margin-top="0"
     fit-margin-left="0"
     fit-margin-right="0"
     fit-margin-bottom="0"
     inkscape:window-width="1366"
     inkscape:window-height="740"
     inkscape:window-x="1920"
     inkscape:window-y="0"
     inkscape:window-maximized="1" />
  <metadata
     id="metadata2962">
    <rdf:RDF>
      <cc:Work
         rdf:about="">
        <dc:format>image/svg+xml</dc:format>
        <dc:type
           rdf:resource="http://purl.org/dc/dcmitype/StillImage" />
        <dc:title></dc:title>
      </cc:Work>
    </rdf:RDF>
  </metadata>
  <g
     inkscape:label="Layer 1"
     inkscape:groupmode="layer"
     id="layer1"
     transform="translate(-22.546775,-48.159868)">
    <path
       d="m 181.42841,127.6665 c 0,43.83848 -35.53652,79.375 -79.375,79.375 -43.838155,0 -79.375005,-35.53652 -79.375005,-79.375 0,-43.838152 35.53685,-79.375002 79.375005,-79.375002 43.83848,0 79.375,35.53685 79.375,79.375002 z"
       style="fill:#ffffff;fill-opacity:1;fill-rule:nonzero;stroke:none;stroke-width:0.33072916"
       id="path4885"
       inkscape:connector-curvature="0" />
    <path
       d="m 102.05341,48.159868 c -43.909262,0 -79.506635,35.597373 -79.506635,79.506632 0,43.90959 35.597373,79.50696 79.506635,79.50696 43.90958,0 79.50696,-35.59737 79.50696,-79.50696 0,-43.909259 -35.59738,-79.506632 -79.50696,-79.506632 z m 0,0.13163 c 43.83848,0 79.375,35.53685 79.375,79.375002 0,43.83848 -35.53652,79.375 -79.375,79.375 -43.838155,0 -79.375005,-35.53652 -79.375005,-79.375 0,-43.838152 35.53685,-79.375002 79.375005,-79.375002 z"
       style="fill:#000000;fill-opacity:1;fill-rule:nonzero;stroke:none;stroke-width:0.33072916"
       id="path4887"
       inkscape:connector-curvature="0" />
    <path
       d="m 102.05341,50.937332 c -42.249333,0 -76.729171,34.479838 -76.729171,76.729168 0,42.24966 34.479838,76.72917 76.729171,76.72917 42.24966,0 76.72916,-34.47951 76.72916,-76.72917 0,-42.24933 -34.4795,-76.729168 -76.72916,-76.729168 z m 0,21.27283 c 30.75417,0 55.45666,24.702493 55.45666,55.456338 0,30.75417 -24.70249,55.45667 -55.45666,55.45667 -30.753848,0 -55.45634,-24.7025 -55.45634,-55.45667 0,-30.753845 24.702492,-55.456338 55.45634,-55.456338 z"
       style="fill:#c1121c;fill-opacity:1;fill-rule:nonzero;stroke:none;stroke-width:0.33072916"
       id="path4889"
       inkscape:connector-curvature="0" />
    <path
       d="m 30.428713,56.191626 v 0.0079 h -0.0076 z"
       style="fill:#000000;fill-opacity:1;fill-rule:nonzero;stroke:none;stroke-width:0.33072916"
       id="path4891"
       inkscape:connector-curvature="0" />
    <path
       d="m 30.421106,56.191626 h 0.0076 v 0.0076 h -0.0076 z"
       style="fill:#000000;fill-opacity:1;fill-rule:nonzero;stroke:none;stroke-width:0.33072916"
       id="path4893"
       inkscape:connector-curvature="0" />
    <path
       d="m 30.421106,56.199563 v -0.0079 l 0.0076,0.0079 z m 0.0076,0 -0.0076,-0.0079 v 0.0079 z"
       style="fill:#000000;fill-opacity:1;fill-rule:nonzero;stroke:none;stroke-width:0.33072916"
       id="path4895"
       inkscape:connector-curvature="0" />
    <path
       d="m 30.437642,56.199563 h -0.01654 0.0076 v -0.0079 z"
       style="fill:#000000;fill-opacity:1;fill-rule:nonzero;stroke:none;stroke-width:0.33072916"
       id="path4897"
       inkscape:connector-curvature="0" />
    <path
       d="m 30.421106,56.199563 v -0.0079 0.0079 l 0.0076,-0.0079 z"
       style="fill:#000000;fill-opacity:1;fill-rule:nonzero;stroke:none;stroke-width:0.33072916"
       id="path4899"
       inkscape:connector-curvature="0" />
    <path
       d="m 30.421106,56.191626 h 0.0076 v 0.0076 h -0.0076 z"
       style="fill:#000000;fill-opacity:1;fill-rule:nonzero;stroke:none;stroke-width:0.33072916"
       id="path4901"
       inkscape:connector-curvature="0" />
    <path
       d="m 30.437642,56.191626 v 0.01554 h -0.01654 z"
       style="fill:#000000;fill-opacity:1;fill-rule:nonzero;stroke:none;stroke-width:0.33072916"
       id="path4903"
       inkscape:connector-curvature="0" />
    <path
       d="m 30.421106,56.191626 h 0.01687 v 0.01554 h -0.01687 z"
       style="fill:#000000;fill-opacity:1;fill-rule:nonzero;stroke:none;stroke-width:0.33072916"
       id="path4905"
       inkscape:connector-curvature="0" />
    <path
       d="m 30.421106,56.20717 v -0.01554 l 0.01654,0.01554 z m 0.01654,0 -0.01654,-0.01554 v 0.01554 z"
       style="fill:#000000;fill-opacity:1;fill-rule:nonzero;stroke:none;stroke-width:0.33072916"
       id="path4907"
       inkscape:connector-curvature="0" />
    <path
       d="m 30.437642,56.20717 h -0.01654 0.0076 v -0.01554 z"
       style="fill:#000000;fill-opacity:1;fill-rule:nonzero;stroke:none;stroke-width:0.33072916"
       id="path4909"
       inkscape:connector-curvature="0" />
    <path
       d="m 30.421106,56.20717 v -0.01554 0.01554 l 0.01654,-0.01554 z"
       style="fill:#000000;fill-opacity:1;fill-rule:nonzero;stroke:none;stroke-width:0.33072916"
       id="path4911"
       inkscape:connector-curvature="0" />
    <path
       d="m 30.421106,56.191626 h 0.01687 v 0.01554 h -0.01687 z"
       style="fill:#000000;fill-opacity:1;fill-rule:nonzero;stroke:none;stroke-width:0.33072916"
       id="path4913"
       inkscape:connector-curvature="0" />
    <path
       d="m 30.437642,56.191626 v 0.01554 h -0.01654 z"
       style="fill:#000000;fill-opacity:1;fill-rule:nonzero;stroke:none;stroke-width:0.33072916"
       id="path4915"
       inkscape:connector-curvature="0" />
    <path
       d="m 30.421106,56.191626 h 0.01687 v 0.01554 h -0.01687 z"
       style="fill:#000000;fill-opacity:1;fill-rule:nonzero;stroke:none;stroke-width:0.33072916"
       id="path4917"
       inkscape:connector-curvature="0" />
    <path
       d="m 30.421106,56.20717 v -0.01554 l 0.01654,0.01554 z m 0.01654,0 -0.01654,-0.01554 v 0.01554 z"
       style="fill:#000000;fill-opacity:1;fill-rule:nonzero;stroke:none;stroke-width:0.33072916"
       id="path4919"
       inkscape:connector-curvature="0" />
    <path
       d="m 30.437642,56.20717 h -0.01654 0.0076 v -0.01554 z"
       style="fill:#000000;fill-opacity:1;fill-rule:nonzero;stroke:none;stroke-width:0.33072916"
       id="path4921"
       inkscape:connector-curvature="0" />
    <path
       d="m 30.421106,56.20717 v -0.01554 0.01554 l 0.01654,-0.01554 z"
       style="fill:#000000;fill-opacity:1;fill-rule:nonzero;stroke:none;stroke-width:0.33072916"
       id="path4923"
       inkscape:connector-curvature="0" />
    <path
       d="m 30.421106,56.191626 h 0.01687 v 0.01554 h -0.01687 z"
       style="fill:#000000;fill-opacity:1;fill-rule:nonzero;stroke:none;stroke-width:0.33072916"
       id="path4925"
       inkscape:connector-curvature="0" />
    <path
       d="m 30.437642,56.191626 v 0.01554 h -0.01654 z"
       style="fill:#000000;fill-opacity:1;fill-rule:nonzero;stroke:none;stroke-width:0.33072916"
       id="path4927"
       inkscape:connector-curvature="0" />
    <path
       d="m 30.421106,56.191626 h 0.01687 v 0.01554 h -0.01687 z"
       style="fill:#000000;fill-opacity:1;fill-rule:nonzero;stroke:none;stroke-width:0.33072916"
       id="path4929"
       inkscape:connector-curvature="0" />
    <path
       d="m 30.421106,56.20717 v -0.01554 l 0.01654,0.01554 z m 0.01654,0 -0.01654,-0.01554 v 0.01554 z"
       style="fill:#000000;fill-opacity:1;fill-rule:nonzero;stroke:none;stroke-width:0.33072916"
       id="path4931"
       inkscape:connector-curvature="0" />
    <path
       d="m 30.437642,56.20717 h -0.01654 0.0076 v -0.01554 z"
       style="fill:#000000;fill-opacity:1;fill-rule:nonzero;stroke:none;stroke-width:0.33072916"
       id="path4933"
       inkscape:connector-curvature="0" />
    <path
       d="m 30.421106,56.20717 v -0.01554 0.01554 l 0.01654,-0.01554 z"
       style="fill:#000000;fill-opacity:1;fill-rule:nonzero;stroke:none;stroke-width:0.33072916"
       id="path4935"
       inkscape:connector-curvature="0" />
    <path
       d="m 30.421106,56.191626 h 0.01687 v 0.01554 h -0.01687 z"
       style="fill:#000000;fill-opacity:1;fill-rule:nonzero;stroke:none;stroke-width:0.33072916"
       id="path4937"
       inkscape:connector-curvature="0" />
    <path
       d="m 102.05605,167.71714 19.65788,11.1674 c -12.65436,4.8561 -26.662391,4.8561 -39.32072,0"
       style="fill:#000000;fill-opacity:1;fill-rule:nonzero;stroke:none;stroke-width:0.33072916"
       id="path4939"
       inkscape:connector-curvature="0" />
    <path
       d="M 102.05605,87.616189 82.39321,76.452756 c 12.658329,-4.860065 26.66636,-4.860065 39.32072,0"
       style="fill:#000000;fill-opacity:1;fill-rule:nonzero;stroke:none;stroke-width:0.33072916"
       id="path4941"
       inkscape:connector-curvature="0" />
  </g>
</svg>
