<?xml version="1.0" encoding="UTF-8" standalone="no"?>
<!-- Created with Inkscape (http://www.inkscape.org/) -->

<svg
   xmlns:dc="http://purl.org/dc/elements/1.1/"
   xmlns:cc="http://creativecommons.org/ns#"
   xmlns:rdf="http://www.w3.org/1999/02/22-rdf-syntax-ns#"
   xmlns:svg="http://www.w3.org/2000/svg"
   xmlns="http://www.w3.org/2000/svg"
   xmlns:sodipodi="http://sodipodi.sourceforge.net/DTD/sodipodi-0.dtd"
   xmlns:inkscape="http://www.inkscape.org/namespaces/inkscape"
   width="159.0136mm"
   height="159.0136mm"
   viewBox="0 0 159.0136 159.0136"
   version="1.1"
   id="svg3122"
   inkscape:version="0.92.4 (33fec40, 2019-01-16)"
   sodipodi:docname="266.svg">
  <defs
     id="defs3116" />
  <sodipodi:namedview
     id="base"
     pagecolor="#ffffff"
     bordercolor="#666666"
     borderopacity="1.0"
     inkscape:pageopacity="0.0"
     inkscape:pageshadow="2"
     inkscape:zoom="0.7"
     inkscape:cx="281.51498"
     inkscape:cy="294.885"
     inkscape:document-units="mm"
     inkscape:current-layer="layer1"
     showgrid="false"
     fit-margin-top="0"
     fit-margin-left="0"
     fit-margin-right="0"
     fit-margin-bottom="0"
     inkscape:window-width="1366"
     inkscape:window-height="740"
     inkscape:window-x="1920"
     inkscape:window-y="0"
     inkscape:window-maximized="1" />
  <metadata
     id="metadata3119">
    <rdf:RDF>
      <cc:Work
         rdf:about="">
        <dc:format>image/svg+xml</dc:format>
        <dc:type
           rdf:resource="http://purl.org/dc/dcmitype/StillImage" />
        <dc:title></dc:title>
      </cc:Work>
    </rdf:RDF>
  </metadata>
  <g
     inkscape:label="Layer 1"
     inkscape:groupmode="layer"
     id="layer1"
     transform="translate(-20.278918,-64.034878)">
    <path
       d="m 179.16055,143.54151 c 0,43.83848 -35.53652,79.375 -79.375001,79.375 -43.838151,0 -79.375001,-35.53652 -79.375001,-79.375 0,-43.838152 35.53685,-79.375002 79.375001,-79.375002 43.838481,0 79.375001,35.53685 79.375001,79.375002 z"
       style="fill:#ffffff;fill-opacity:1;fill-rule:nonzero;stroke:none;stroke-width:0.33072916"
       id="path4776"
       inkscape:connector-curvature="0" />
    <path
       d="m 99.785549,64.034878 c -43.909258,0 -79.506631,35.597373 -79.506631,79.506632 0,43.90959 35.597373,79.50696 79.506631,79.50696 43.909591,0 79.506961,-35.59737 79.506961,-79.50696 0,-43.909259 -35.59737,-79.506632 -79.506961,-79.506632 z m 0,0.13163 c 43.838481,0 79.375001,35.53685 79.375001,79.375002 0,43.83848 -35.53652,79.375 -79.375001,79.375 -43.838151,0 -79.375001,-35.53652 -79.375001,-79.375 0,-43.838152 35.53685,-79.375002 79.375001,-79.375002 z"
       style="fill:#000000;fill-opacity:1;fill-rule:nonzero;stroke:none;stroke-width:0.33072916"
       id="path4778"
       inkscape:connector-curvature="0" />
    <path
       d="m 99.785549,66.812342 c -42.249329,0 -76.729167,34.479838 -76.729167,76.729168 0,42.24966 34.479838,76.72917 76.729167,76.72917 42.249661,0 76.729171,-34.47951 76.729171,-76.72917 0,-42.24933 -34.47951,-76.729168 -76.729171,-76.729168 z m 0,21.27283 c 30.754171,0 55.456671,24.702488 55.456671,55.456338 0,30.75417 -24.7025,55.45667 -55.456671,55.45667 -30.753844,0 -55.456336,-24.7025 -55.456336,-55.45667 0,-30.75385 24.702492,-55.456338 55.456336,-55.456338 z"
       style="fill:#c1121c;fill-opacity:1;fill-rule:nonzero;stroke:none;stroke-width:0.33072916"
       id="path4780"
       inkscape:connector-curvature="0" />
    <path
       d="m 28.160856,72.066636 v 0.0079 h -0.0076 z"
       style="fill:#000000;fill-opacity:1;fill-rule:nonzero;stroke:none;stroke-width:0.33072916"
       id="path4782"
       inkscape:connector-curvature="0" />
    <path
       d="m 28.153249,72.066636 h 0.0076 v 0.0076 h -0.0076 z"
       style="fill:#000000;fill-opacity:1;fill-rule:nonzero;stroke:none;stroke-width:0.33072916"
       id="path4784"
       inkscape:connector-curvature="0" />
    <path
       d="m 28.153249,72.074573 v -0.0079 l 0.0076,0.0079 z m 0.0076,0 -0.0076,-0.0079 v 0.0079 z"
       style="fill:#000000;fill-opacity:1;fill-rule:nonzero;stroke:none;stroke-width:0.33072916"
       id="path4786"
       inkscape:connector-curvature="0" />
    <path
       d="m 28.169785,72.074573 h -0.01654 0.0076 v -0.0079 z"
       style="fill:#000000;fill-opacity:1;fill-rule:nonzero;stroke:none;stroke-width:0.33072916"
       id="path4788"
       inkscape:connector-curvature="0" />
    <path
       d="m 28.153249,72.074573 v -0.0079 0.0079 l 0.0076,-0.0079 z"
       style="fill:#000000;fill-opacity:1;fill-rule:nonzero;stroke:none;stroke-width:0.33072916"
       id="path4790"
       inkscape:connector-curvature="0" />
    <path
       d="m 28.153249,72.066636 h 0.0076 v 0.0076 h -0.0076 z"
       style="fill:#000000;fill-opacity:1;fill-rule:nonzero;stroke:none;stroke-width:0.33072916"
       id="path4792"
       inkscape:connector-curvature="0" />
    <path
       d="m 28.169785,72.066636 v 0.01554 h -0.01654 z"
       style="fill:#000000;fill-opacity:1;fill-rule:nonzero;stroke:none;stroke-width:0.33072916"
       id="path4794"
       inkscape:connector-curvature="0" />
    <path
       d="m 28.153249,72.066636 h 0.01687 v 0.01554 h -0.01687 z"
       style="fill:#000000;fill-opacity:1;fill-rule:nonzero;stroke:none;stroke-width:0.33072916"
       id="path4796"
       inkscape:connector-curvature="0" />
    <path
       d="m 28.153249,72.08218 v -0.01554 l 0.01654,0.01554 z m 0.01654,0 -0.01654,-0.01554 v 0.01554 z"
       style="fill:#000000;fill-opacity:1;fill-rule:nonzero;stroke:none;stroke-width:0.33072916"
       id="path4798"
       inkscape:connector-curvature="0" />
    <path
       d="m 28.169785,72.08218 h -0.01654 0.0076 v -0.01554 z"
       style="fill:#000000;fill-opacity:1;fill-rule:nonzero;stroke:none;stroke-width:0.33072916"
       id="path4800"
       inkscape:connector-curvature="0" />
    <path
       d="m 28.153249,72.08218 v -0.01554 0.01554 l 0.01654,-0.01554 z"
       style="fill:#000000;fill-opacity:1;fill-rule:nonzero;stroke:none;stroke-width:0.33072916"
       id="path4802"
       inkscape:connector-curvature="0" />
    <path
       d="m 28.153249,72.066636 h 0.01687 v 0.01554 h -0.01687 z"
       style="fill:#000000;fill-opacity:1;fill-rule:nonzero;stroke:none;stroke-width:0.33072916"
       id="path4804"
       inkscape:connector-curvature="0" />
    <path
       d="m 28.169785,72.066636 v 0.01554 h -0.01654 z"
       style="fill:#000000;fill-opacity:1;fill-rule:nonzero;stroke:none;stroke-width:0.33072916"
       id="path4806"
       inkscape:connector-curvature="0" />
    <path
       d="m 28.153249,72.066636 h 0.01687 v 0.01554 h -0.01687 z"
       style="fill:#000000;fill-opacity:1;fill-rule:nonzero;stroke:none;stroke-width:0.33072916"
       id="path4808"
       inkscape:connector-curvature="0" />
    <path
       d="m 28.153249,72.08218 v -0.01554 l 0.01654,0.01554 z m 0.01654,0 -0.01654,-0.01554 v 0.01554 z"
       style="fill:#000000;fill-opacity:1;fill-rule:nonzero;stroke:none;stroke-width:0.33072916"
       id="path4810"
       inkscape:connector-curvature="0" />
    <path
       d="m 28.169785,72.08218 h -0.01654 0.0076 v -0.01554 z"
       style="fill:#000000;fill-opacity:1;fill-rule:nonzero;stroke:none;stroke-width:0.33072916"
       id="path4812"
       inkscape:connector-curvature="0" />
    <path
       d="m 28.153249,72.08218 v -0.01554 0.01554 l 0.01654,-0.01554 z"
       style="fill:#000000;fill-opacity:1;fill-rule:nonzero;stroke:none;stroke-width:0.33072916"
       id="path4814"
       inkscape:connector-curvature="0" />
    <path
       d="m 28.153249,72.066636 h 0.01687 v 0.01554 h -0.01687 z"
       style="fill:#000000;fill-opacity:1;fill-rule:nonzero;stroke:none;stroke-width:0.33072916"
       id="path4816"
       inkscape:connector-curvature="0" />
    <path
       d="m 28.169785,72.066636 v 0.01554 h -0.01654 z"
       style="fill:#000000;fill-opacity:1;fill-rule:nonzero;stroke:none;stroke-width:0.33072916"
       id="path4818"
       inkscape:connector-curvature="0" />
    <path
       d="m 28.153249,72.066636 h 0.01687 v 0.01554 h -0.01687 z"
       style="fill:#000000;fill-opacity:1;fill-rule:nonzero;stroke:none;stroke-width:0.33072916"
       id="path4820"
       inkscape:connector-curvature="0" />
    <path
       d="m 28.153249,72.08218 v -0.01554 l 0.01654,0.01554 z m 0.01654,0 -0.01654,-0.01554 v 0.01554 z"
       style="fill:#000000;fill-opacity:1;fill-rule:nonzero;stroke:none;stroke-width:0.33072916"
       id="path4822"
       inkscape:connector-curvature="0" />
    <path
       d="m 28.169785,72.08218 h -0.01654 0.0076 v -0.01554 z"
       style="fill:#000000;fill-opacity:1;fill-rule:nonzero;stroke:none;stroke-width:0.33072916"
       id="path4824"
       inkscape:connector-curvature="0" />
    <path
       d="m 28.153249,72.08218 v -0.01554 0.01554 l 0.01654,-0.01554 z"
       style="fill:#000000;fill-opacity:1;fill-rule:nonzero;stroke:none;stroke-width:0.33072916"
       id="path4826"
       inkscape:connector-curvature="0" />
    <path
       d="m 28.153249,72.066636 h 0.01687 v 0.01554 h -0.01687 z"
       style="fill:#000000;fill-opacity:1;fill-rule:nonzero;stroke:none;stroke-width:0.33072916"
       id="path4828"
       inkscape:connector-curvature="0" />
    <path
       d="m 127.38358,148.32683 c 0,3.81 -3.09431,6.90397 -6.90398,6.90397 -3.81132,0 -6.90397,-3.09397 -6.90397,-6.90397 0,-3.81496 3.09265,-6.90397 6.90397,-6.90397 3.80967,0 6.90398,3.08901 6.90398,6.90397 z m -53.25137,0 c 0,3.81 -3.090333,6.90397 -6.903971,6.90397 -3.810992,0 -6.900003,-3.09397 -6.900003,-6.90397 0,-3.81496 3.089011,-6.90397 6.900003,-6.90397 3.813638,0 6.903971,3.08901 6.903971,6.90397 z m 66.0734,-8.87545 H 83.006335 v -27.61192 h 57.199275 z m -5.91806,8.87545 h -4.92886 c 0,-2.68056 -1.21411,-5.21659 -3.302,-6.90397 h 14.14892 v 4.93249 z M 79.059413,118.74344 v 22.67942 h 35.837817 c -2.07864,1.68738 -3.29307,4.22341 -3.29307,6.90397 H 76.102364 c 0,-4.90008 -3.970073,-8.87545 -8.874125,-8.87545 -4.901407,0 -8.875448,3.97537 -8.875448,8.87545 h -0.985573 c -1.090414,0 -1.971477,-0.88239 -1.971477,-1.97148 V 135.4608 c 0,-0.94588 0.168011,-1.88747 0.499732,-2.7725 L 60.2482,121.08831 c 0.27252,-0.72992 0.949523,-1.22999 1.722106,-1.2753"
       style="fill:#000000;fill-opacity:1;fill-rule:nonzero;stroke:none;stroke-width:0.33072916"
       id="path4830"
       inkscape:connector-curvature="0" />
    <path
       d="m 72.160734,132.05925 -13.094891,1.53856 c -0.541073,0.0632 -1.033529,-0.32544 -1.094052,-0.86552 -0.01951,-0.15644 0,-0.31254 0.05556,-0.46137 l 3.302,-8.81459 c 0.140891,-0.36546 0.476912,-0.61351 0.865519,-0.63699 l 9.965862,-0.62508"
       style="fill:#ffffff;fill-opacity:1;fill-rule:nonzero;stroke:none;stroke-width:0.33072916"
       id="path4832"
       inkscape:connector-curvature="0" />
    <path
       d="m 59.369452,169.14226 9.277284,-9.27199 h 5.152099 l -7.212542,7.21254 h 13.984883 v 4.11857 H 66.586293 l 7.212542,7.21684 h -5.152099"
       style="fill:#000000;fill-opacity:1;fill-rule:nonzero;stroke:none;stroke-width:0.33072916"
       id="path4834"
       inkscape:connector-curvature="0" />
    <path
       d="m 144.17569,169.14226 -9.27596,9.27596 h -5.1521 l 7.21684,-7.21684 h -13.98885 v -4.11857 h 13.98885 l -7.21684,-7.21254 h 5.1521"
       style="fill:#000000;fill-opacity:1;fill-rule:nonzero;stroke:none;stroke-width:0.33072916"
       id="path4836"
       inkscape:connector-curvature="0" />
  </g>
</svg>
