<?xml version="1.0" encoding="UTF-8" standalone="no"?>
<svg
   xmlns:dc="http://purl.org/dc/elements/1.1/"
   xmlns:cc="http://creativecommons.org/ns#"
   xmlns:rdf="http://www.w3.org/1999/02/22-rdf-syntax-ns#"
   xmlns:svg="http://www.w3.org/2000/svg"
   xmlns="http://www.w3.org/2000/svg"
   viewBox="0 0 600.995 600.995"
   height="600.995"
   width="600.995"
   xml:space="preserve"
   version="1.1"
   id="svg5234"><metadata
     id="metadata5240"><rdf:RDF><cc:Work
         rdf:about=""><dc:format>image/svg+xml</dc:format><dc:type
           rdf:resource="http://purl.org/dc/dcmitype/StillImage" /><dc:title></dc:title></cc:Work></rdf:RDF></metadata><defs
     id="defs5238" /><g
     transform="matrix(1.25,0,0,-1.25,0,600.99499)"
     id="g5242"><g
       id="g5244"><path
         id="path5246"
         style="fill:#ffffff;fill-opacity:1;fill-rule:nonzero;stroke:none"
         d="m 480.398,238.362 c 0,-132.55 -107.449,-240 -240,-240 -132.55,0 -240,107.45 -240,240 0,132.551 107.45,240 240,240 132.551,0 240,-107.449 240,-240 z" /><path
         id="path5248"
         style="fill:#000000;fill-opacity:1;fill-rule:nonzero;stroke:none"
         d="M 240.398,478.761 C 107.633,478.761 0,371.128 0,238.362 0,105.597 107.633,-2.036 240.398,-2.036 c 132.766,0 240.399,107.633 240.399,240.398 0,132.766 -107.633,240.399 -240.399,240.399 z m 0,-0.399 c 132.551,0 240,-107.449 240,-240 0,-132.55 -107.449,-240 -240,-240 -132.55,0 -240,107.45 -240,240 0,132.551 107.45,240 240,240 z" /><path
         id="path5250"
         style="fill:#214495;fill-opacity:1;fill-rule:nonzero;stroke:none"
         d="m 240.398,470.362 c -127.746,0 -232,-104.254 -232,-232 0,-127.75 104.254,-232 232,-232 127.747,0 232,104.25 232,232 0,127.746 -104.253,232 -232,232 z" /><path
         id="path5252"
         style="fill:#000000;fill-opacity:1;fill-rule:nonzero;stroke:none"
         d="m 23.832,454.476 0,-0.024 -0.023,0 0.023,0.024 z" /><path
         id="path5254"
         style="fill:#000000;fill-opacity:1;fill-rule:nonzero;stroke:none"
         d="m 23.809,454.476 0.023,0 0,-0.023 -0.023,0 0,0.023 z" /><path
         id="path5256"
         style="fill:#000000;fill-opacity:1;fill-rule:nonzero;stroke:none"
         d="m 23.809,454.452 0,0.024 0.023,-0.024 -0.023,0 z m 0.023,0 -0.023,0.024 0,-0.024 0.023,0 z" /><path
         id="path5258"
         style="fill:#000000;fill-opacity:1;fill-rule:nonzero;stroke:none"
         d="m 23.859,454.452 -0.05,0 0.023,0 0,0.024 0.027,-0.024 z" /><path
         id="path5260"
         style="fill:#000000;fill-opacity:1;fill-rule:nonzero;stroke:none"
         d="m 23.809,454.452 0,0.024 0,-0.024 0.023,0.024 -0.023,-0.024 z" /><path
         id="path5262"
         style="fill:#000000;fill-opacity:1;fill-rule:nonzero;stroke:none"
         d="m 23.809,454.476 0.023,0 0,-0.023 -0.023,0 0,0.023 z" /><path
         id="path5264"
         style="fill:#000000;fill-opacity:1;fill-rule:nonzero;stroke:none"
         d="m 23.859,454.476 0,-0.047 -0.05,0 0.05,0.047 z" /><path
         id="path5266"
         style="fill:#000000;fill-opacity:1;fill-rule:nonzero;stroke:none"
         d="m 23.809,454.476 0.051,0 0,-0.047 -0.051,0 0,0.047 z" /><path
         id="path5268"
         style="fill:#000000;fill-opacity:1;fill-rule:nonzero;stroke:none"
         d="m 23.809,454.429 0,0.047 0.05,-0.047 -0.05,0 z m 0.05,0 -0.05,0.047 0,-0.047 0.05,0 z" /><path
         id="path5270"
         style="fill:#000000;fill-opacity:1;fill-rule:nonzero;stroke:none"
         d="m 23.859,454.429 -0.05,0 0.023,0 0,0.047 0.027,-0.047 z" /><path
         id="path5272"
         style="fill:#000000;fill-opacity:1;fill-rule:nonzero;stroke:none"
         d="m 23.809,454.429 0,0.047 0,-0.047 0.05,0.047 -0.05,-0.047 z" /><path
         id="path5274"
         style="fill:#000000;fill-opacity:1;fill-rule:nonzero;stroke:none"
         d="m 23.809,454.476 0.051,0 0,-0.047 -0.051,0 0,0.047 z" /><path
         id="path5276"
         style="fill:#000000;fill-opacity:1;fill-rule:nonzero;stroke:none"
         d="m 23.859,454.476 0,-0.047 -0.05,0 0.05,0.047 z" /><path
         id="path5278"
         style="fill:#000000;fill-opacity:1;fill-rule:nonzero;stroke:none"
         d="m 23.809,454.476 0.051,0 0,-0.047 -0.051,0 0,0.047 z" /><path
         id="path5280"
         style="fill:#000000;fill-opacity:1;fill-rule:nonzero;stroke:none"
         d="m 23.809,454.429 0,0.047 0.05,-0.047 -0.05,0 z m 0.05,0 -0.05,0.047 0,-0.047 0.05,0 z" /><path
         id="path5282"
         style="fill:#000000;fill-opacity:1;fill-rule:nonzero;stroke:none"
         d="m 23.859,454.429 -0.05,0 0.023,0 0,0.047 0.027,-0.047 z" /><path
         id="path5284"
         style="fill:#000000;fill-opacity:1;fill-rule:nonzero;stroke:none"
         d="m 23.809,454.429 0,0.047 0,-0.047 0.05,0.047 -0.05,-0.047 z" /><path
         id="path5286"
         style="fill:#000000;fill-opacity:1;fill-rule:nonzero;stroke:none"
         d="m 23.809,454.476 0.051,0 0,-0.047 -0.051,0 0,0.047 z" /><path
         id="path5288"
         style="fill:#000000;fill-opacity:1;fill-rule:nonzero;stroke:none"
         d="m 23.859,454.476 0,-0.047 -0.05,0 0.05,0.047 z" /><path
         id="path5290"
         style="fill:#000000;fill-opacity:1;fill-rule:nonzero;stroke:none"
         d="m 23.809,454.476 0.051,0 0,-0.047 -0.051,0 0,0.047 z" /><path
         id="path5292"
         style="fill:#000000;fill-opacity:1;fill-rule:nonzero;stroke:none"
         d="m 23.809,454.429 0,0.047 0.05,-0.047 -0.05,0 z m 0.05,0 -0.05,0.047 0,-0.047 0.05,0 z" /><path
         id="path5294"
         style="fill:#000000;fill-opacity:1;fill-rule:nonzero;stroke:none"
         d="m 23.859,454.429 -0.05,0 0.023,0 0,0.047 0.027,-0.047 z" /><path
         id="path5296"
         style="fill:#000000;fill-opacity:1;fill-rule:nonzero;stroke:none"
         d="m 23.809,454.429 0,0.047 0,-0.047 0.05,0.047 -0.05,-0.047 z" /><path
         id="path5298"
         style="fill:#000000;fill-opacity:1;fill-rule:nonzero;stroke:none"
         d="m 23.809,454.476 0.051,0 0,-0.047 -0.051,0 0,0.047 z" /><path
         id="path5300"
         style="fill:#000000;fill-opacity:1;fill-rule:nonzero;stroke:none"
         d="m 223.273,36.476 c -2.824,-3.883 -7.558,-5.844 -12.601,-4.934 -3.516,0.285 -7.352,0.594 -11.543,1.348 -4.133,0.738 -7.918,1.812 -11.262,2.75 -3.031,0.539 -5.574,1.972 -7.461,4.066 -6.129,1.469 -11.886,3.578 -17.547,6.363 -4.773,-0.16 -8.976,2.196 -11.308,6.539 -18.832,12.825 -34.344,33.247 -45.914,59.911 -1.961,0.183 -3.871,0.789 -5.649,1.898 -6.09,3.809 -7.929,11.824 -4.117,17.906 0.481,0.766 1.012,1.481 1.602,2.098 -8.633,26.758 -13.774,58.242 -14.785,93.316 -3.368,2.379 -5.524,6.289 -5.524,10.629 0,4.344 2.156,8.25 5.524,10.621 1.011,35.082 6.152,66.579 14.785,93.329 -0.59,0.617 -1.121,1.332 -1.602,2.097 -3.812,6.078 -1.973,14.094 4.117,17.906 1.778,1.11 3.688,1.727 5.649,1.899 11.57,26.664 27.082,47.086 45.914,59.91 2.332,4.34 6.535,6.684 11.308,6.535 5.661,2.789 11.418,4.899 17.547,6.363 1.887,2.098 4.43,3.528 7.461,4.071 3.344,0.949 7.129,2.011 11.262,2.75 4.191,0.754 8.027,1.062 11.543,1.344 5.043,0.914 9.777,-1.036 12.601,-4.934 2.344,4.195 6.86,6.637 11.938,6.363 3.465,0.137 7.402,0.297 11.582,0.063 4.266,-0.235 8.078,-0.813 11.543,-1.367 l 0,0.011 c 4.23,-0.234 7.805,-2.504 9.988,-5.773 0.852,0.988 1.813,1.851 2.985,2.578 5.597,3.516 12.824,2.258 16.906,-2.723 l 5.922,0.035 c 59.773,0 108.793,-89.937 108.523,-201.078 C 402.387,127.23 353.91,37.304 294.137,37.304 l -5.922,0.035 c -4.082,-4.992 -11.309,-6.25 -16.906,-2.738 -1.172,0.73 -2.133,1.593 -2.985,2.578 -2.183,-3.266 -5.758,-5.535 -9.988,-5.77 l 0,0.012 c -3.465,-0.543 -7.277,-1.137 -11.543,-1.371 -4.18,-0.234 -8.117,-0.074 -11.582,0.062 -5.078,-0.281 -9.594,2.172 -11.938,6.364" /><path
         id="path5302"
         style="fill:#ffffff;fill-opacity:1;fill-rule:nonzero;stroke:none"
         d="m 145.262,330.452 c -1.063,0.692 -7.461,4.574 -8.844,5.266 -2.797,1.383 -8.313,3.453 -9.469,3.922 -2.281,1.172 -3.183,3.972 -2.011,6.254 1.269,2.453 3.984,3.179 6.265,1.996 1.934,-0.504 8.125,-3.231 9.496,-3.86 1.848,-0.863 7.719,-4.625 8.781,-5.316 l 0,0.012 c 2.282,-1.184 3.18,-3.981 2.008,-6.262 -1.183,-2.281 -3.945,-3.195 -6.226,-2.012" /><path
         id="path5304"
         style="fill:#ffffff;fill-opacity:1;fill-rule:nonzero;stroke:none"
         d="m 192.27,367.546 c -1.27,0.074 -8.754,0.273 -10.282,0.176 -3.121,-0.199 -8.941,-1.137 -10.175,-1.321 -2.567,-0.113 -4.735,1.864 -4.848,4.426 -0.121,2.75 1.875,4.735 4.441,4.86 l -0.011,0.011 c 1.925,0.508 8.671,1.223 10.175,1.36 2.024,0.172 8.989,-0.16 10.246,-0.235 l 0,0.012 c 2.567,0.109 4.75,-1.875 4.86,-4.441 0.109,-2.567 -1.836,-4.735 -4.403,-4.848" /><path
         id="path5306"
         style="fill:#ffffff;fill-opacity:1;fill-rule:nonzero;stroke:none"
         d="m 148.441,363.452 c -1.257,-0.172 -8.632,-1.453 -10.125,-1.836 -3.019,-0.8 -8.543,-2.863 -9.714,-3.281 -2.493,-0.617 -5.008,0.902 -5.614,3.391 -0.664,2.675 0.903,5.019 3.391,5.636 l -0.008,0 c 1.789,0.887 8.262,2.911 9.703,3.329 1.961,0.57 8.856,1.593 10.114,1.777 l -0.008,0 c 2.488,0.617 5.019,-0.899 5.633,-3.391 0.617,-2.504 -0.875,-5.008 -3.364,-5.625" /><path
         id="path5308"
         style="fill:#ffffff;fill-opacity:1;fill-rule:nonzero;stroke:none"
         d="m 234.066,281.976 c -1.246,0.207 -8.671,1.242 -10.199,1.316 -3.121,0.16 -9.004,-0.121 -10.25,-0.144 -2.562,0.171 -4.5,2.378 -4.328,4.929 0.188,2.75 2.395,4.504 4.957,4.328 l -0.008,0 c 1.973,0.297 8.754,0.262 10.262,0.223 2.031,-0.047 8.914,-1.172 10.172,-1.391 l -0.008,0.012 c 2.563,-0.176 4.5,-2.394 4.328,-4.961 -0.176,-2.562 -2.355,-4.488 -4.922,-4.316" /><path
         id="path5310"
         style="fill:#ffffff;fill-opacity:1;fill-rule:nonzero;stroke:none"
         d="m 251.625,349.616 c -0.961,0.828 -6.707,5.637 -7.965,6.512 -2.566,1.789 -7.707,4.66 -8.793,5.289 -2.07,1.492 -2.554,4.391 -1.047,6.477 1.602,2.23 4.403,2.55 6.485,1.058 1.824,-0.789 7.558,-4.414 8.816,-5.238 1.703,-1.125 6.957,-5.711 7.906,-6.551 2.086,-1.492 2.555,-4.402 1.063,-6.484 -1.52,-2.086 -4.391,-2.567 -6.465,-1.063" /><path
         id="path5312"
         style="fill:#ffffff;fill-opacity:1;fill-rule:nonzero;stroke:none"
         d="m 283.344,431.132 c 0,-2.848 -2.305,-5.141 -5.153,-5.141 -2.836,0 -5.132,2.293 -5.132,5.141 0,2.836 2.296,5.144 5.132,5.144 2.848,0 5.153,-2.308 5.153,-5.144" /><path
         id="path5314"
         style="fill:#ffffff;fill-opacity:1;fill-rule:nonzero;stroke:none"
         d="m 256.078,428.026 c -1.258,0.196 -8.68,1.145 -10.223,1.207 -3.121,0.11 -9.003,-0.222 -10.25,-0.269 l 0,-0.027 c -2.55,0.136 -4.523,2.332 -4.375,4.898 0.149,2.75 2.329,4.523 4.907,4.375 l -0.02,0.012 c 1.973,0.32 8.758,0.359 10.262,0.336 2.047,-0.028 8.926,-1.063 10.172,-1.258 2.566,-0.137 4.539,-2.332 4.39,-4.899 -0.136,-2.562 -2.293,-4.523 -4.859,-4.378" /><path
         id="path5316"
         style="fill:#ffffff;fill-opacity:1;fill-rule:nonzero;stroke:none"
         d="m 225.469,378.241 c 11.937,19.325 26.871,33.961 44.297,43.012 3.293,-2.762 7.871,-3.785 12.027,-2.602 0.195,-1.554 0.715,-3.046 1.516,-4.511 1.949,-2.875 4.031,-6.203 6.043,-9.879 1.281,-2.367 2.39,-4.699 3.425,-6.895 -11.629,-5.968 -22.281,-17.535 -31.211,-33.246 -2.281,2.008 -4.808,4.129 -7.707,6.215 -3.406,2.453 -6.796,4.438 -9.804,6.191 -5.231,3.762 -12.075,3.403 -16.649,-1.308 -0.429,1.086 -1.207,2.058 -1.937,3.023" /><path
         id="path5318"
         style="fill:#ffffff;fill-opacity:1;fill-rule:nonzero;stroke:none"
         d="m 214.605,357.558 c 3.59,-0.235 7.153,0.988 9.891,3.699 0.875,-2.231 2.391,-4.18 4.477,-5.684 2.996,-1.75 6.312,-3.859 9.703,-6.3 3.469,-2.493 6.527,-4.973 9.164,-7.301 0.902,-0.641 1.777,-1.125 2.777,-1.504 -4.75,-12.508 -8.609,-26.539 -11.457,-41.649 -0.914,0.114 -1.68,0.223 -2.629,0.434 l 0.012,-0.012 c -3.48,0.578 -7.277,1.219 -11.543,1.504 -4.172,0.281 -8.105,0.172 -11.57,0.074 -4.774,0.321 -9.063,-1.753 -11.555,-5.453 -1.258,1.457 -2.875,2.567 -4.66,3.356 3.785,21.703 9.668,41.57 17.387,58.836" /><path
         id="path5320"
         style="fill:#ffffff;fill-opacity:1;fill-rule:nonzero;stroke:none"
         d="m 123.68,375.441 c 8.066,14.292 17.683,26.031 28.562,34.875 1.715,-2.418 4.305,-4.329 7.399,-5.106 3.441,-0.519 7.289,-1.293 11.359,-2.258 1.652,-0.394 3.23,-0.676 2.574,-0.578 1.567,-0.383 3.035,-0.469 4.567,-0.297 l -0.024,0.012 c 0.645,-1.715 1.68,-3.266 3.059,-4.625 2.715,-2.168 5.664,-4.758 8.66,-7.684 1.676,-1.652 3.34,-3.265 4.809,-4.855 -0.629,0.074 -1.207,0.098 -1.864,0.074 l 0.012,-0.016 c -3.527,0.188 -7.363,0.399 -11.629,0.2 -4.184,-0.184 -8.078,-0.739 -11.519,-1.235 -5.071,-0.234 -9.286,-3.07 -11.211,-7.449 -3.071,3.602 -7.993,5.379 -12.899,4.172 l 0,-0.016 c -3.476,-0.504 -7.289,-1.047 -11.433,-2.07 -3.809,-0.937 -7.301,-2.047 -10.418,-3.144" /><path
         id="path5322"
         style="fill:#ffffff;fill-opacity:1;fill-rule:nonzero;stroke:none"
         d="m 197.746,417.085 c 1.914,0.434 3.899,0.84 5.969,1.211 4.207,0.75 8.101,1.23 11.617,1.516 3.898,0.703 7.004,3.07 8.844,6.254 2.195,-3.059 5.547,-4.997 9.605,-5.219 3.465,0.148 7.399,0.148 11.582,-0.086 3.391,-0.184 6.61,-0.504 9.543,-0.903 -13.269,-8.976 -24.836,-21.691 -34.543,-37.328 -0.937,0.418 -1.859,0.703 -2.871,0.864 3.254,5.043 2.75,11.949 -1.715,16.316 -2.269,2.699 -4.734,5.637 -7.793,8.633 -2.984,2.922 -6.058,5.387 -8.757,7.57 -0.457,0.445 -0.973,0.801 -1.481,1.172" /><path
         id="path5324"
         style="fill:#ffffff;fill-opacity:1;fill-rule:nonzero;stroke:none"
         d="m 220.477,370.472 c 0,-2.836 -2.309,-5.145 -5.145,-5.145 -2.836,0 -5.141,2.309 -5.141,5.145 0,2.847 2.305,5.14 5.141,5.14 2.836,0 5.145,-2.293 5.145,-5.14" /><path
         id="path5326"
         style="fill:#ffffff;fill-opacity:1;fill-rule:nonzero;stroke:none"
         d="m 202.68,388.179 c -0.828,0.976 -5.785,6.586 -6.907,7.633 -2.269,2.148 -6.918,5.761 -7.89,6.539 -1.84,1.8 -1.875,4.734 -0.07,6.57 1.921,1.961 4.734,1.863 6.574,0.062 l 0,0.024 c 1.687,-1.059 6.816,-5.5 7.941,-6.512 1.504,-1.355 6.004,-6.683 6.832,-7.644 1.824,-1.801 1.86,-4.746 0.059,-6.586 -1.789,-1.836 -4.711,-1.887 -6.535,-0.086" /><path
         id="path5328"
         style="fill:#ffffff;fill-opacity:1;fill-rule:nonzero;stroke:none"
         d="m 174.254,410.87 c -4.219,1.012 -10.063,1.766 -11.297,1.949 -2.492,0.618 -4.008,3.133 -3.391,5.625 0.68,2.676 3.157,4.008 5.649,3.391 l -0.012,0 c 2,-0.051 8.684,-1.234 10.141,-1.594 3.625,-0.972 5.129,-3.488 4.523,-5.98 -0.629,-2.488 -3.121,-4.008 -5.609,-3.391" /><path
         id="path5330"
         style="fill:#ffffff;fill-opacity:1;fill-rule:nonzero;stroke:none"
         d="m 212.473,427.827 c -1.258,-0.097 -8.707,-0.886 -10.223,-1.183 -3.059,-0.606 -8.695,-2.305 -9.906,-2.653 -2.528,-0.457 -4.93,1.223 -5.387,3.75 -0.492,2.715 1.234,4.946 3.762,5.403 l -0.02,0 c 1.848,0.761 8.434,2.367 9.903,2.699 1.984,0.445 8.941,1.023 10.199,1.121 l 0,0.012 c 2.527,0.457 4.945,-1.231 5.398,-3.746 0.457,-2.543 -1.195,-4.934 -3.722,-5.403" /><path
         id="path5332"
         style="fill:#ffffff;fill-opacity:1;fill-rule:nonzero;stroke:none"
         d="m 301.164,398.983 c -0.504,1.172 -3.601,7.977 -4.363,9.309 -1.555,2.727 -4.946,7.535 -5.649,8.559 -1.234,2.257 -0.422,5.082 1.836,6.304 2.43,1.332 5.082,0.407 6.317,-1.851 l 0,0.012 c 1.316,-1.504 4.918,-7.25 5.683,-8.536 1.075,-1.738 3.809,-8.148 4.305,-9.308 1.23,-2.258 0.406,-5.082 -1.852,-6.317 -2.242,-1.23 -5.043,-0.429 -6.277,1.828" /><path
         id="path5334"
         style="fill:#ffffff;fill-opacity:1;fill-rule:nonzero;stroke:none"
         d="m 112.027,351.308 c 0,-2.84 -2.308,-5.145 -5.144,-5.145 -2.836,0 -5.141,2.305 -5.141,5.145 0,2.836 2.305,5.14 5.141,5.14 2.836,0 5.144,-2.304 5.144,-5.14" /><path
         id="path5336"
         style="fill:#ffffff;fill-opacity:1;fill-rule:nonzero;stroke:none"
         d="m 169.371,278.757 c -1.246,-0.246 -8.582,-1.887 -10.051,-2.356 -2.972,-0.949 -8.398,-3.269 -9.558,-3.738 l 0.019,-0.023 c -2.465,-0.742 -5.054,0.664 -5.797,3.117 -0.789,2.641 0.668,5.059 3.121,5.797 l -0.007,0 c 1.75,0.976 8.113,3.304 9.543,3.801 1.91,0.664 8.757,2.035 9.988,2.269 l 0,0.012 c 2.469,0.726 5.059,-0.668 5.797,-3.121 0.742,-2.465 -0.653,-5.055 -3.121,-5.797" /><path
         id="path5338"
         style="fill:#ffffff;fill-opacity:1;fill-rule:nonzero;stroke:none"
         d="m 127.688,262.366 c -1.133,-0.554 -7.758,-4.047 -9.051,-4.883 -2.629,-1.691 -7.239,-5.351 -8.227,-6.117 -2.183,-1.355 -5.031,-0.691 -6.387,1.481 -1.468,2.344 -0.703,5.054 1.477,6.41 1.434,1.394 6.957,5.316 8.203,6.168 1.676,1.144 7.918,4.254 9.051,4.82 2.184,1.344 5.043,0.692 6.402,-1.492 1.356,-2.195 0.715,-5.02 -1.468,-6.387" /><path
         id="path5340"
         style="fill:#ffffff;fill-opacity:1;fill-rule:nonzero;stroke:none"
         d="m 197.055,286.921 c 0,-2.852 -2.305,-5.156 -5.141,-5.156 -2.836,0 -5.144,2.304 -5.144,5.156 0,2.836 2.308,5.141 5.144,5.141 2.836,0 5.141,-2.305 5.141,-5.141" /><path
         id="path5342"
         style="fill:#ffffff;fill-opacity:1;fill-rule:nonzero;stroke:none"
         d="m 161.391,333.351 c 0.187,4.847 -2.403,9.593 -7.004,11.972 -2.961,1.914 -6.192,3.996 -9.989,5.957 -1.418,0.715 -2.761,1.446 -4.144,2.047 4.156,1.024 8.066,1.801 11.555,2.297 3.972,0.984 6.98,3.66 8.558,7.113 2.504,-2.961 6.266,-4.757 10.446,-4.574 3.429,0.492 7.351,0.899 11.519,1.086 4.266,0.195 8.199,0.149 11.715,-0.039 4.082,0.184 7.535,2.219 9.766,5.289 0.667,-1.269 1.531,-2.476 2.652,-3.523 0.582,-0.543 1.195,-1.024 1.851,-1.446 -6.363,-14.5 -11.433,-30.621 -15.156,-48.093 -0.445,0.714 -0.961,1.464 -1.566,2.082 -2.172,2.761 -4.551,5.797 -7.5,8.879 -2.899,3.023 -5.883,5.601 -8.508,7.855 -3.848,4.023 -9.297,5.281 -14.195,3.098" /><path
         id="path5344"
         style="fill:#ffffff;fill-opacity:1;fill-rule:nonzero;stroke:none"
         d="m 178.141,302.433 c -0.793,0.988 -5.575,6.746 -6.649,7.843 -2.195,2.231 -6.734,5.993 -7.683,6.809 l -0.008,-0.027 c -1.778,1.851 -1.715,4.8 0.144,6.574 1.985,1.91 4.797,1.726 6.575,-0.137 1.652,-1.109 6.632,-5.707 7.718,-6.742 1.481,-1.406 5.797,-6.883 6.575,-7.883 l 0,0.012 c 1.773,-1.863 1.726,-4.797 -0.137,-6.574 -1.848,-1.774 -4.758,-1.739 -6.535,0.125" /><path
         id="path5346"
         style="fill:#ffffff;fill-opacity:1;fill-rule:nonzero;stroke:none"
         d="m 94.809,259.776 c 1.468,29.29 5.968,55.743 13.097,78.606 1.985,0.172 4.059,0.777 5.871,1.922 0.555,0.347 1.075,0.703 1.543,1.113 0.864,-3.516 3.192,-6.637 6.657,-8.426 3.218,-1.281 6.82,-2.883 10.531,-4.797 3.801,-1.961 7.18,-3.945 10.14,-5.855 3.454,-1.777 7.274,-1.828 10.618,-0.508 -0.137,-3.379 1.144,-6.781 3.675,-9.433 2.625,-2.258 5.512,-4.934 8.411,-7.954 2.836,-2.972 5.398,-5.921 7.519,-8.609 -2.305,0.68 -4.808,0.691 -7.285,-0.047 l 0.008,-0.012 c -3.453,-0.679 -7.239,-1.406 -11.332,-2.64 -4.008,-1.195 -7.66,-2.688 -10.867,-3.996 -5.5,-1.653 -9.137,-6.364 -9.211,-11.949 -4.145,3.144 -9.903,3.55 -14.59,0.64 -3.145,-1.555 -6.598,-3.254 -10.223,-5.512 -3.551,-2.207 -6.683,-4.601 -9.445,-6.711 -2.43,-1.515 -4.094,-3.414 -5.117,-5.832" /><path
         id="path5348"
         style="fill:#ffffff;fill-opacity:1;fill-rule:nonzero;stroke:none"
         d="m 145.262,146.284 c 2.281,1.184 5.043,0.27 6.226,-2 1.172,-2.293 0.274,-5.093 -2.008,-6.265 -1.062,-0.688 -6.933,-4.45 -8.781,-5.301 -1.371,-0.641 -7.562,-3.367 -9.496,-3.887 -2.281,-1.172 -4.996,-0.43 -6.265,2.012 -1.172,2.281 -0.27,5.082 2.011,6.254 1.156,0.469 6.672,2.551 9.469,3.922 1.383,0.675 7.781,4.574 8.844,5.265" /><path
         id="path5350"
         style="fill:#ffffff;fill-opacity:1;fill-rule:nonzero;stroke:none"
         d="m 192.27,109.187 c 2.566,-0.11 4.515,-2.282 4.406,-4.832 -0.113,-2.579 -2.297,-4.563 -4.86,-4.454 l 0,0.012 c -1.257,-0.074 -8.226,-0.418 -10.25,-0.222 -1.503,0.125 -8.25,0.839 -10.171,1.359 l 0.007,0 c -2.562,0.121 -4.562,2.094 -4.437,4.855 0.109,2.567 2.281,4.539 4.844,4.418 1.234,-0.175 7.054,-1.109 10.175,-1.32 1.528,-0.074 9.016,0.121 10.286,0.184" /><path
         id="path5352"
         style="fill:#ffffff;fill-opacity:1;fill-rule:nonzero;stroke:none"
         d="m 148.441,113.269 c 2.493,-0.606 3.985,-3.121 3.368,-5.598 -0.618,-2.504 -3.145,-4.02 -5.637,-3.402 l 0.012,0 c -1.258,0.183 -8.153,1.195 -10.114,1.773 -1.441,0.434 -7.918,2.441 -9.703,3.332 l 0.008,0.012 c -2.492,0.601 -4.059,2.945 -3.391,5.621 0.602,2.48 3.121,3.996 5.61,3.391 1.172,-0.418 6.699,-2.477 9.719,-3.278 1.492,-0.394 8.867,-1.652 10.125,-1.851" /><path
         id="path5354"
         style="fill:#ffffff;fill-opacity:1;fill-rule:nonzero;stroke:none"
         d="m 234.066,194.761 c 2.563,0.172 4.747,-1.75 4.918,-4.317 0.176,-2.566 -1.761,-4.785 -4.328,-4.957 l 0.012,0 c -1.258,-0.199 -8.141,-1.332 -10.176,-1.371 -1.504,-0.047 -8.285,-0.086 -10.258,0.211 l 0.008,0 c -2.566,-0.172 -4.773,1.578 -4.957,4.328 -0.172,2.567 1.762,4.774 4.328,4.946 1.246,-0.035 7.129,-0.321 10.25,-0.172 1.528,0.086 8.953,1.133 10.196,1.332" /><path
         id="path5356"
         style="fill:#ffffff;fill-opacity:1;fill-rule:nonzero;stroke:none"
         d="m 251.625,127.132 c 2.074,1.492 4.945,1.012 6.465,-1.074 1.492,-2.082 1.023,-4.996 -1.063,-6.5 -0.949,-0.825 -6.203,-5.426 -7.906,-6.535 -1.258,-0.825 -6.992,-4.454 -8.816,-5.243 l 0,0.012 c -2.082,-1.504 -4.883,-1.184 -6.485,1.051 -1.507,2.082 -1.023,4.98 1.047,6.484 1.086,0.629 6.227,3.492 8.793,5.278 1.258,0.878 7.004,5.687 7.965,6.527" /><path
         id="path5358"
         style="fill:#ffffff;fill-opacity:1;fill-rule:nonzero;stroke:none"
         d="m 283.344,45.601 c 0,-2.836 -2.305,-5.141 -5.153,-5.141 -2.836,0 -5.132,2.305 -5.132,5.141 0,2.851 2.296,5.156 5.132,5.156 2.848,0 5.153,-2.305 5.153,-5.156" /><path
         id="path5360"
         style="fill:#ffffff;fill-opacity:1;fill-rule:nonzero;stroke:none"
         d="m 256.078,48.722 c 2.567,0.136 4.723,-1.824 4.86,-4.391 0.148,-2.562 -1.825,-4.758 -4.391,-4.894 -1.246,-0.2 -8.125,-1.246 -10.176,-1.258 -1.504,-0.012 -8.285,0.012 -10.258,0.332 l 0.02,0 c -2.578,-0.137 -4.762,1.64 -4.91,4.39 -0.149,2.567 1.828,4.762 4.379,4.911 l 0,-0.028 c 1.246,-0.047 7.128,-0.394 10.25,-0.281 1.539,0.074 8.964,1.023 10.222,1.219" /><path
         id="path5362"
         style="fill:#ffffff;fill-opacity:1;fill-rule:nonzero;stroke:none"
         d="m 225.469,98.495 c 0.726,0.973 1.504,1.938 1.937,3.035 4.574,-4.722 11.418,-5.082 16.649,-1.32 3.008,1.75 6.398,3.734 9.804,6.191 2.899,2.082 5.426,4.204 7.707,6.204 8.93,-15.7 19.582,-27.254 31.211,-33.223 -1.035,-2.207 -2.144,-4.539 -3.425,-6.906 -2.012,-3.676 -4.094,-7.008 -6.043,-9.879 -0.801,-1.469 -1.321,-2.961 -1.516,-4.528 -4.156,1.196 -8.734,0.188 -12.027,-2.589 -17.426,9.054 -32.36,23.691 -44.297,43.015" /><path
         id="path5364"
         style="fill:#ffffff;fill-opacity:1;fill-rule:nonzero;stroke:none"
         d="m 214.605,119.175 c -7.718,17.266 -13.601,37.144 -17.39,58.84 1.789,0.789 3.406,1.898 4.664,3.351 2.492,-3.699 6.781,-5.769 11.555,-5.449 3.464,-0.098 7.398,-0.211 11.566,0.074 4.27,0.27 8.066,0.914 11.543,1.504 l -0.008,-0.012 c 0.949,0.196 1.715,0.321 2.625,0.43 2.852,-15.117 6.711,-29.14 11.457,-41.644 -1,-0.383 -1.875,-0.852 -2.773,-1.516 -2.641,-2.332 -5.699,-4.797 -9.164,-7.277 -3.391,-2.453 -6.707,-4.551 -9.703,-6.313 -2.086,-1.492 -3.602,-3.453 -4.477,-5.676 -2.738,2.715 -6.305,3.911 -9.891,3.688" /><path
         id="path5366"
         style="fill:#ffffff;fill-opacity:1;fill-rule:nonzero;stroke:none"
         d="m 233.695,238.269 c 0,-11.973 0.653,-23.703 1.813,-34.938 -0.406,0 -0.504,-0.074 -0.617,-0.086 -3.477,-0.578 -7.375,-1.058 -11.629,-1.355 -4.168,-0.285 -8.102,-0.321 -11.567,-0.211 -3.636,-0.246 -6.797,-1.922 -8.976,-4.512 -2.012,2.934 -5.196,4.981 -8.867,5.5 -1.125,11.504 -1.692,23.418 -1.715,35.699 -0.02,12.285 0.59,24.196 1.715,35.703 3.671,0.52 6.855,2.567 8.867,5.489 2.179,-2.567 5.34,-4.242 8.976,-4.489 3.465,0.098 7.399,0.059 11.567,-0.222 4.254,-0.285 8.152,-0.778 11.629,-1.356 0.113,-0.015 0.211,-0.074 0.617,-0.09 -1.16,-11.246 -1.813,-22.96 -1.813,-34.937" /><path
         id="path5368"
         style="fill:#ffffff;fill-opacity:1;fill-rule:nonzero;stroke:none"
         d="M 394.496,238.366 C 394.25,140.066 355.957,59.218 304.84,48.585 c 0.371,0.52 0.789,1.051 1.109,1.629 1.961,2.875 4.168,6.129 6.18,9.805 2.047,3.75 3.551,7.3 4.934,10.543 l 0,-0.024 c 0.851,1.567 1.332,3.305 1.503,4.969 39.129,8.043 69.715,77.879 69.715,162.762 l 0,0.199 c 0,84.883 -30.586,154.719 -69.715,162.758 -0.171,1.668 -0.652,3.406 -1.503,4.972 l 0,-0.011 c -1.383,3.242 -2.887,6.781 -4.934,10.531 -2.012,3.672 -4.219,6.93 -6.18,9.805 -0.32,0.578 -0.738,1.109 -1.109,1.625 51.117,-10.641 89.41,-91.481 89.656,-189.782" /><path
         id="path5370"
         style="fill:#ffffff;fill-opacity:1;fill-rule:nonzero;stroke:none"
         d="m 123.68,101.308 c 3.121,-1.11 6.609,-2.219 10.422,-3.157 4.14,-1.023 7.953,-1.566 11.429,-2.074 l 0,-0.011 c 4.91,-1.208 9.828,0.566 12.903,4.179 1.921,-4.387 6.14,-7.238 11.207,-7.461 3.441,-0.48 7.339,-1.035 11.519,-1.23 4.266,-0.199 8.102,0.012 11.629,0.195 l -0.008,0 c 0.653,-0.035 1.231,0 1.86,0.063 -1.465,-1.579 -3.133,-3.207 -4.809,-4.86 -2.996,-2.922 -5.945,-5.5 -8.656,-7.683 -1.383,-1.356 -2.418,-2.922 -3.059,-4.621 l 0.02,0.011 c -1.532,0.184 -2.996,0.086 -4.563,-0.297 0.653,0.098 -0.926,-0.187 -2.578,-0.582 -4.07,-0.961 -7.918,-1.75 -11.359,-2.254 -3.094,-0.777 -5.684,-2.675 -7.399,-5.093 -10.875,8.84 -20.496,20.57 -28.562,34.875" /><path
         id="path5372"
         style="fill:#ffffff;fill-opacity:1;fill-rule:nonzero;stroke:none"
         d="m 197.746,59.648 c 0.508,0.371 1.024,0.73 1.481,1.171 2.699,2.172 5.773,4.649 8.757,7.575 3.059,2.984 5.524,5.929 7.793,8.632 4.465,4.364 4.969,11.258 1.715,16.313 1.012,0.16 1.934,0.457 2.871,0.863 9.707,-15.636 21.274,-28.34 34.543,-37.328 -2.933,-0.394 -6.152,-0.715 -9.543,-0.914 -4.183,-0.219 -8.117,-0.219 -11.582,-0.074 -4.058,-0.219 -7.41,-2.156 -9.605,-5.215 -1.84,3.184 -4.946,5.551 -8.844,6.254 -3.516,0.293 -7.41,0.762 -11.617,1.516 -2.07,0.371 -4.055,0.777 -5.969,1.207" /><path
         id="path5374"
         style="fill:#ffffff;fill-opacity:1;fill-rule:nonzero;stroke:none"
         d="m 220.477,106.265 c 0,-2.836 -2.309,-5.145 -5.145,-5.145 -2.836,0 -5.141,2.309 -5.141,5.145 0,2.847 2.305,5.14 5.141,5.14 2.836,0 5.145,-2.293 5.145,-5.14" /><path
         id="path5376"
         style="fill:#ffffff;fill-opacity:1;fill-rule:nonzero;stroke:none"
         d="m 202.68,88.554 c 1.824,1.801 4.75,1.754 6.535,-0.086 1.801,-1.836 1.765,-4.781 -0.059,-6.582 l 0,0.012 c -0.828,-0.977 -5.328,-6.305 -6.832,-7.661 -1.121,-1.011 -6.254,-5.437 -7.941,-6.5 l 0,0.016 c -1.84,-1.801 -4.649,-1.914 -6.574,0.07 -1.801,1.84 -1.762,4.762 0.07,6.563 0.973,0.789 5.621,4.39 7.891,6.535 1.125,1.047 6.082,6.66 6.906,7.633" /><path
         id="path5378"
         style="fill:#ffffff;fill-opacity:1;fill-rule:nonzero;stroke:none"
         d="m 174.254,65.862 c 2.492,0.618 4.98,-0.898 5.613,-3.39 0.602,-2.489 -0.902,-5.004 -4.527,-5.981 -1.457,-0.355 -8.141,-1.539 -10.137,-1.59 l 0.008,0 c -2.492,-0.617 -4.969,0.715 -5.648,3.391 -0.618,2.492 0.902,5.008 3.39,5.637 1.235,0.183 7.082,0.937 11.297,1.933" /><path
         id="path5380"
         style="fill:#ffffff;fill-opacity:1;fill-rule:nonzero;stroke:none"
         d="m 212.473,48.909 c 2.527,-0.457 4.179,-2.875 3.722,-5.39 -0.457,-2.528 -2.871,-4.207 -5.402,-3.75 -1.258,0.097 -8.211,0.679 -10.195,1.121 -1.469,0.336 -8.055,1.937 -9.907,2.703 l 0.02,0 c -2.527,0.457 -4.254,2.699 -3.758,5.414 0.453,2.527 2.86,4.18 5.387,3.723 1.211,-0.332 6.844,-2.036 9.902,-2.637 1.52,-0.297 8.965,-1.086 10.223,-1.184" /><path
         id="path5382"
         style="fill:#ffffff;fill-opacity:1;fill-rule:nonzero;stroke:none"
         d="m 301.164,77.753 c 1.234,2.258 4.035,3.07 6.277,1.813 2.258,-1.223 3.082,-4.047 1.852,-6.301 -0.496,-1.16 -3.23,-7.574 -4.305,-9.313 -0.765,-1.293 -4.367,-7.027 -5.683,-8.547 l 0,0.028 c -1.235,-2.258 -3.887,-3.172 -6.317,-1.852 -2.258,1.223 -3.07,4.047 -1.836,6.301 0.703,1.023 4.094,5.836 5.649,8.559 0.762,1.332 3.859,8.14 4.363,9.312" /><path
         id="path5384"
         style="fill:#ffffff;fill-opacity:1;fill-rule:nonzero;stroke:none"
         d="m 112.027,125.429 c 0,-2.836 -2.308,-5.141 -5.144,-5.141 -2.836,0 -5.141,2.305 -5.141,5.141 0,2.836 2.305,5.144 5.141,5.144 2.836,0 5.144,-2.308 5.144,-5.144" /><path
         id="path5386"
         style="fill:#ffffff;fill-opacity:1;fill-rule:nonzero;stroke:none"
         d="m 373.652,238.366 c 0,-81.664 -28.066,-147.875 -62.672,-147.875 -34.617,0 -62.671,66.211 -62.671,147.875 0,81.664 28.054,147.875 62.671,147.875 34.606,0 62.672,-66.211 62.672,-147.875" /><path
         id="path5388"
         style="fill:#000000;fill-opacity:1;fill-rule:nonzero;stroke:none"
         d="m 370.496,238.366 c 0,-74.375 -25.664,-134.679 -57.332,-134.679 -31.668,0 -60.144,60.304 -60.144,134.679 0,74.391 28.476,134.68 60.144,134.68 31.668,0 57.332,-60.289 57.332,-134.68" /><path
         id="path5390"
         style="fill:#ffffff;fill-opacity:1;fill-rule:nonzero;stroke:none"
         d="m 366.02,238.366 c 0,-68.566 -24.602,-128.82 -53.793,-128.82 -18.016,0 -34.579,23 -44.594,56.691 4.219,-6.882 9.066,-10.781 14.258,-10.781 15.933,0 28.867,37.035 29.043,82.91 -0.176,45.879 -13.11,82.91 -29.043,82.91 -5.192,0 -10.039,-3.894 -14.258,-10.789 10.015,33.704 26.578,56.704 44.594,56.704 29.191,0 53.793,-60.254 53.793,-128.825" /><path
         id="path5392"
         style="fill:#ffffff;fill-opacity:1;fill-rule:nonzero;stroke:none"
         d="m 303.359,238.366 c -0.171,-39.535 -10.765,-71.699 -24.269,-74.289 10.234,11.817 17.609,40.61 17.746,74.289 0.137,33.668 -7.512,62.477 -17.746,74.289 13.504,-2.589 24.098,-34.738 24.269,-74.289" /><path
         id="path5394"
         style="fill:#ffffff;fill-opacity:1;fill-rule:nonzero;stroke:none"
         d="m 169.371,197.98 -0.058,0.039 c 2.464,-0.743 3.859,-3.332 3.117,-5.786 -0.739,-2.468 -3.328,-3.859 -5.793,-3.121 -1.235,0.235 -8.078,1.606 -9.992,2.27 -1.43,0.492 -7.793,2.836 -9.543,3.797 l 0.007,0 c -2.453,0.742 -3.906,3.16 -3.117,5.797 0.738,2.468 3.328,3.859 5.793,3.121 l -0.019,-0.024 c 1.16,-0.468 6.586,-2.789 9.558,-3.738 1.469,-0.469 8.805,-2.121 10.051,-2.355" /><path
         id="path5396"
         style="fill:#ffffff;fill-opacity:1;fill-rule:nonzero;stroke:none"
         d="m 95.289,238.366 c 0,-2.836 -2.305,-5.14 -5.141,-5.14 -2.835,0 -5.144,2.304 -5.144,5.14 0,2.836 2.309,5.145 5.144,5.145 2.836,0 5.141,-2.309 5.141,-5.145" /><path
         id="path5398"
         style="fill:#ffffff;fill-opacity:1;fill-rule:nonzero;stroke:none"
         d="m 127.688,214.37 c 2.183,-1.359 2.824,-4.195 1.468,-6.379 -1.359,-2.191 -4.218,-2.847 -6.402,-1.492 -1.133,0.559 -7.375,3.652 -9.051,4.824 -1.246,0.84 -6.769,4.774 -8.203,6.153 -2.18,1.359 -2.945,4.07 -1.477,6.402 1.356,2.184 4.204,2.848 6.387,1.48 0.988,-0.753 5.598,-4.417 8.227,-6.117 1.293,-0.828 7.918,-4.316 9.051,-4.871" /><path
         id="path5400"
         style="fill:#ffffff;fill-opacity:1;fill-rule:nonzero;stroke:none"
         d="m 197.055,189.827 c 0,-2.847 -2.305,-5.152 -5.141,-5.152 -2.836,0 -5.144,2.305 -5.144,5.152 0,2.836 2.308,5.129 5.144,5.129 2.836,0 5.141,-2.293 5.141,-5.129" /><path
         id="path5402"
         style="fill:#ffffff;fill-opacity:1;fill-rule:nonzero;stroke:none"
         d="m 161.391,143.386 c 4.898,-2.172 10.347,-0.926 14.195,3.094 2.625,2.257 5.609,4.836 8.508,7.855 2.949,3.082 5.328,6.117 7.5,8.879 l 0,-0.012 c 0.605,0.641 1.121,1.383 1.566,2.086 3.723,-17.465 8.793,-33.582 15.156,-48.086 -0.652,-0.418 -1.269,-0.898 -1.851,-1.453 -1.121,-1.035 -1.985,-2.234 -2.652,-3.516 -2.231,3.071 -5.684,5.106 -9.766,5.293 -3.516,-0.187 -7.449,-0.234 -11.715,-0.039 -4.168,0.188 -8.09,0.594 -11.519,1.086 -4.18,0.184 -7.942,-1.601 -10.446,-4.574 -1.578,3.453 -4.586,6.117 -8.558,7.113 -3.489,0.496 -7.399,1.274 -11.555,2.282 1.383,0.617 2.726,1.332 4.144,2.062 3.797,1.961 7.028,4.043 9.989,5.969 4.601,2.367 7.191,7.101 7.004,11.961" /><path
         id="path5404"
         style="fill:#ffffff;fill-opacity:1;fill-rule:nonzero;stroke:none"
         d="m 178.141,174.316 c 1.773,1.847 4.683,1.898 6.535,0.109 1.859,-1.762 1.91,-4.723 0.133,-6.574 -0.778,-0.985 -5.094,-6.461 -6.571,-7.856 -1.086,-1.047 -6.07,-5.648 -7.722,-6.758 -1.774,-1.863 -4.586,-2.046 -6.571,-0.136 -1.863,1.777 -1.925,4.726 -0.148,6.574 l 0.008,-0.035 c 0.949,0.824 5.488,4.586 7.683,6.82 1.075,1.082 5.86,6.856 6.649,7.856" /><path
         id="path5406"
         style="fill:#ffffff;fill-opacity:1;fill-rule:nonzero;stroke:none"
         d="m 94.809,216.96 c 1.023,-2.418 2.691,-4.316 5.121,-5.82 2.761,-2.121 5.894,-4.504 9.445,-6.723 3.625,-2.258 7.078,-3.957 10.223,-5.512 4.687,-2.91 10.445,-2.504 14.59,0.641 0.066,-5.598 3.71,-10.297 9.21,-11.949 3.207,-1.321 6.856,-2.801 10.864,-3.996 4.097,-1.235 7.883,-1.961 11.336,-2.653 l -0.012,0 c 2.48,-0.738 4.984,-0.715 7.289,-0.05 -2.121,-2.688 -4.687,-5.633 -7.523,-8.606 -2.899,-3.023 -5.782,-5.699 -8.411,-7.969 -2.527,-2.636 -3.808,-6.043 -3.675,-9.422 -3.34,1.321 -7.164,1.286 -10.618,-0.503 -2.957,-1.911 -6.335,-3.911 -10.136,-5.844 -3.711,-1.926 -7.313,-3.516 -10.532,-4.813 -3.464,-1.789 -5.796,-4.906 -6.66,-8.433 -0.468,0.429 -0.984,0.777 -1.539,1.121 -1.812,1.148 -3.886,1.75 -5.871,1.926 -7.129,22.875 -11.629,49.316 -13.097,78.605" /><path
         id="path5408"
         style="fill:#ffffff;fill-opacity:1;fill-rule:nonzero;stroke:none"
         d="m 185.836,238.366 c -0.023,-12.48 0.613,-24.566 1.75,-36.343 -2.453,-0.848 -4.551,-2.368 -6.082,-4.387 -1.332,3.746 -4.316,6.781 -8.422,8.015 -3.453,0.676 -7.277,1.59 -11.359,2.809 -4.008,1.211 -7.696,2.555 -10.914,3.848 -4.106,1.246 -8.309,0.394 -11.481,-1.996 -0.16,4.144 -2.23,8.101 -6.015,10.457 -3.161,1.554 -6.598,3.453 -10.227,5.699 -3.551,2.207 -6.77,4.465 -9.52,6.586 -3.488,2.156 -7.535,2.527 -11.109,1.23 0.293,0.938 0.543,1.949 0.629,2.961 0.039,0.395 0.047,0.789 0.047,1.184 l 0,-0.121 c 0,0.394 -0.008,0.789 -0.047,1.183 -0.09,1.024 -0.336,2.02 -0.629,2.957 3.574,-1.281 7.621,-0.922 11.109,1.246 2.75,2.11 5.969,4.368 9.52,6.575 3.629,2.257 7.066,4.144 10.227,5.695 3.785,2.355 5.855,6.316 6.015,10.473 3.172,-2.407 7.375,-3.258 11.481,-2.012 3.218,1.308 6.906,2.641 10.914,3.848 4.082,1.222 7.906,2.132 11.359,2.812 4.106,1.223 7.09,4.266 8.422,8.016 1.531,-2.024 3.629,-3.539 6.082,-4.403 -1.137,-11.754 -1.727,-23.851 -1.75,-36.332" /></g></g></svg>