<?xml version="1.0" encoding="UTF-8" standalone="no"?>
<svg
   xmlns:dc="http://purl.org/dc/elements/1.1/"
   xmlns:cc="http://creativecommons.org/ns#"
   xmlns:rdf="http://www.w3.org/1999/02/22-rdf-syntax-ns#"
   xmlns:svg="http://www.w3.org/2000/svg"
   xmlns="http://www.w3.org/2000/svg"
   viewBox="0 0 601.00201 601.00195"
   height="601.00195"
   width="601.00201"
   xml:space="preserve"
   version="1.1"
   id="svg5518"><metadata
     id="metadata5524"><rdf:RDF><cc:Work
         rdf:about=""><dc:format>image/svg+xml</dc:format><dc:type
           rdf:resource="http://purl.org/dc/dcmitype/StillImage" /><dc:title></dc:title></cc:Work></rdf:RDF></metadata><defs
     id="defs5522" /><g
     transform="matrix(1.25,0,0,-1.25,0,601.00197)"
     id="g5526"><g
       id="g5528"><path
         id="path5530"
         style="fill:#ffffff;fill-opacity:1;fill-rule:nonzero;stroke:none"
         d="m 480.402,240.403 c 0,-132.551 -107.453,-240 -240,-240 -132.55,0 -240,107.449 -240,240 0,132.547 107.45,240 240,240 132.547,0 240,-107.453 240,-240 z" /><path
         id="path5532"
         style="fill:#8a8a8a;fill-opacity:1;fill-rule:nonzero;stroke:none"
         d="m 95.852,303.809 c -0.215,0 -0.43,-0.011 -0.645,-0.027 -0.062,-0.004 -0.129,-0.008 -0.191,-0.012 -0.164,-0.015 -0.325,-0.035 -0.485,-0.054 -0.058,-0.008 -0.113,-0.016 -0.172,-0.024 -0.031,-0.004 -0.058,-0.012 -0.089,-0.015 -0.149,-0.024 -0.297,-0.051 -0.446,-0.082 -0.129,-0.028 -0.258,-0.059 -0.383,-0.09 -0.043,-0.012 -0.086,-0.024 -0.129,-0.035 -2.882,-0.762 -5.32,-2.797 -6.546,-5.618 L 71.102,261.833 c -1.11,-2.531 -2.508,-4.942 -4.18,-7.164 l -2.371,-3.172 C 63,249.438 62.164,246.942 62.164,244.36 l 0,-25.75 c 0,-5.48 4.445,-9.91 9.91,-9.91 l 146.336,0 c 0.774,-0.02 1.528,0.047 2.258,0.199 0.02,0.004 0.043,0.008 0.062,0.012 0.129,0.027 0.258,0.055 0.387,0.09 0.051,0.012 0.102,0.027 0.149,0.039 0.089,0.023 0.179,0.051 0.269,0.078 0.094,0.027 0.184,0.055 0.274,0.086 0.05,0.016 0.105,0.031 0.156,0.051 0.109,0.039 0.223,0.082 0.332,0.125 0.031,0.011 0.062,0.023 0.094,0.035 0.132,0.055 0.261,0.109 0.39,0.168 0.004,0 0.008,0.004 0.012,0.004 0,0 0.004,0.004 0.004,0.004 3.258,1.484 5.566,4.675 5.785,8.437 0.012,0.192 0.02,0.387 0.02,0.582 l 0,25.75 c 0,2.582 -0.825,5.078 -2.383,7.137 l -2.449,3.258 c -0.786,1.054 -1.508,2.152 -2.168,3.281 -0.122,0.207 -0.239,0.418 -0.356,0.629 -0.047,0.078 -0.09,0.16 -0.137,0.242 -0.129,0.234 -0.254,0.477 -0.379,0.715 -0.046,0.094 -0.097,0.183 -0.144,0.277 -0.063,0.125 -0.121,0.25 -0.184,0.375 -0.254,0.512 -0.496,1.031 -0.726,1.559 l -1.653,3.801 -0.257,0.589 L 204,297.852 c -1.477,3.399 -4.711,5.661 -8.352,5.926 -0.238,0.02 -0.48,0.027 -0.722,0.027 l -99.074,0 0,0.004 z m 2.398,-9.91 94.27,0 c 1.457,0 2.792,-0.804 3.48,-2.074 0.012,-0.027 0.027,-0.059 0.043,-0.086 0.039,-0.074 0.074,-0.148 0.109,-0.226 l 9.258,-21.293 0.012,0.011 4.359,-10.008 -128.781,0 2.484,5.692 -0.031,-0.031 11.164,25.629 c 0.625,1.449 2.047,2.386 3.633,2.386 z m -26.176,-89.156 0,-21.789 c 0,-0.414 0.043,-0.813 0.121,-1.199 0.555,-2.711 2.95,-4.758 5.821,-4.758 l 11.894,0 c 3.281,0 5.942,2.672 5.942,5.957 l 0,21.789 -23.778,0 z m 122.84,0 0,-2.234 0.012,0.015 0,-16.34 -0.012,-0.011 0,-3.219 c 0,-2.375 1.41,-4.52 3.582,-5.469 l 0.004,0.004 c 0.723,-0.312 1.52,-0.492 2.355,-0.492 l 11.895,0 c 0.672,0 1.32,0.121 1.922,0.328 0.211,0.07 0.418,0.156 0.617,0.25 0.012,0.008 0.02,0.012 0.031,0.016 0.196,0.093 0.383,0.199 0.563,0.312 0.008,0.004 0.015,0.008 0.023,0.012 0.567,0.359 1.071,0.805 1.485,1.328 0.136,0.168 0.257,0.348 0.375,0.527 0.011,0.02 0.023,0.039 0.035,0.063 0.101,0.164 0.195,0.332 0.281,0.508 0.016,0.031 0.027,0.058 0.043,0.089 0.078,0.168 0.152,0.34 0.215,0.52 0.008,0.023 0.019,0.043 0.027,0.066 l -0.004,-0.003 c 0.207,0.609 0.328,1.257 0.328,1.937 l 0,21.793 -23.777,0 z" /><path
         id="path5534"
         style="fill:#8a8a8a;fill-opacity:1;fill-rule:nonzero;stroke:none"
         d="m 285.891,303.809 c -0.215,0 -0.43,-0.011 -0.645,-0.027 -0.066,-0.004 -0.129,-0.008 -0.191,-0.012 -0.164,-0.015 -0.325,-0.035 -0.485,-0.054 -0.058,-0.008 -0.113,-0.016 -0.172,-0.024 -0.031,-0.004 -0.058,-0.012 -0.089,-0.015 -0.149,-0.024 -0.301,-0.051 -0.45,-0.082 -0.125,-0.028 -0.254,-0.059 -0.379,-0.09 -0.042,-0.012 -0.085,-0.024 -0.132,-0.035 -2.879,-0.762 -5.317,-2.797 -6.543,-5.618 l -15.664,-36.019 c -1.11,-2.531 -2.508,-4.942 -4.184,-7.164 l -2.371,-3.172 c -1.547,-2.059 -2.383,-4.555 -2.383,-7.137 l 0,-25.75 c 0,-5.48 4.445,-9.91 9.91,-9.91 l 146.336,0 c 0.77,-0.02 1.528,0.047 2.258,0.199 0.02,0.004 0.043,0.008 0.063,0.012 0.128,0.027 0.257,0.055 0.386,0.09 0.051,0.012 0.098,0.027 0.149,0.039 0.09,0.023 0.179,0.051 0.269,0.078 0.09,0.027 0.184,0.055 0.274,0.086 0.05,0.016 0.105,0.031 0.156,0.051 0.109,0.039 0.219,0.082 0.328,0.125 0.031,0.011 0.066,0.023 0.098,0.035 0.129,0.055 0.261,0.109 0.39,0.168 0.004,0 0.008,0.004 0.012,0.004 0,0 0.004,0.004 0.004,0.004 3.258,1.484 5.566,4.675 5.785,8.437 0.012,0.192 0.02,0.387 0.02,0.582 l 0,25.75 c 0,2.582 -0.825,5.078 -2.387,7.137 l -2.445,3.258 c -0.786,1.054 -1.508,2.152 -2.168,3.281 -0.121,0.207 -0.239,0.418 -0.356,0.629 -0.047,0.078 -0.09,0.16 -0.137,0.242 -0.128,0.234 -0.253,0.477 -0.378,0.715 -0.047,0.094 -0.098,0.183 -0.145,0.277 -0.063,0.125 -0.125,0.25 -0.184,0.375 -0.253,0.512 -0.496,1.031 -0.726,1.559 l -1.653,3.801 -0.257,0.589 -13.766,31.629 c -1.477,3.399 -4.711,5.661 -8.351,5.926 -0.239,0.02 -0.481,0.027 -0.723,0.027 l -99.074,0 0,0.004 z m 2.394,-9.91 94.274,0 c 1.453,0 2.793,-0.804 3.476,-2.074 0.016,-0.027 0.031,-0.059 0.047,-0.086 0.039,-0.074 0.074,-0.148 0.106,-0.226 l 9.261,-21.293 0.012,0.011 4.355,-10.008 -128.777,0 2.481,5.692 -0.028,-0.031 11.164,25.629 c 0.621,1.449 2.047,2.386 3.629,2.386 z m -26.172,-89.156 0,-21.789 c 0,-0.414 0.043,-0.813 0.121,-1.199 0.555,-2.711 2.95,-4.758 5.821,-4.758 l 11.894,0 c 3.281,0 5.942,2.672 5.942,5.957 l 0,21.789 -23.778,0 z m 122.84,0 0,-2.234 0.012,0.015 0,-16.34 -0.012,-0.011 0,-3.219 c 0,-2.375 1.41,-4.52 3.582,-5.469 l 0.004,0.004 c 0.723,-0.312 1.52,-0.492 2.356,-0.492 l 11.894,0 c 0.672,0 1.316,0.121 1.922,0.328 0.211,0.07 0.414,0.156 0.617,0.25 0.008,0.008 0.02,0.012 0.031,0.016 0.196,0.093 0.383,0.199 0.563,0.312 0.008,0.004 0.016,0.008 0.019,0.012 0.571,0.359 1.075,0.805 1.489,1.328 0.136,0.168 0.258,0.348 0.375,0.527 0.011,0.02 0.023,0.039 0.035,0.063 0.101,0.164 0.195,0.332 0.281,0.508 0.016,0.031 0.027,0.058 0.043,0.089 0.078,0.168 0.148,0.34 0.215,0.52 0.008,0.023 0.019,0.043 0.027,0.066 l -0.004,-0.003 c 0.207,0.609 0.328,1.257 0.328,1.937 l 0,21.793 -23.777,0 z" /><path
         id="path5536"
         style="fill:#000000;fill-opacity:1;fill-rule:nonzero;stroke:none"
         d="M 240.398,480.802 C 107.633,480.802 0,373.169 0,240.403 0,107.638 107.633,0.001 240.398,0.001 c 132.766,0 240.403,107.637 240.403,240.402 0,132.766 -107.637,240.399 -240.403,240.399 z m 0,-0.399 c 132.551,0 240,-107.453 240,-240 0,-132.551 -107.449,-240 -240,-240 -132.546,0 -240,107.449 -240,240 0,132.547 107.454,240 240,240 z" /><path
         id="path5538"
         style="fill:#000000;fill-opacity:1;fill-rule:nonzero;stroke:none"
         d="M 240.398,472.348 C 112.375,472.348 8.457,368.427 8.457,240.403 8.457,112.376 112.375,8.458 240.398,8.458 c 128.028,0 231.946,103.918 231.946,231.945 0,128.024 -103.918,231.945 -231.946,231.945 z m 0,-12 c 46.309,0 89.25,-14.296 124.676,-38.703 L 59.156,115.727 c -24.406,35.426 -38.703,78.368 -38.703,124.676 0,121.539 98.406,219.945 219.945,219.945 z M 372.32,416.446 c 2.418,-1.816 4.793,-3.683 7.133,-5.594 L 69.949,101.348 c -1.91,2.34 -3.777,4.715 -5.594,7.133 L 372.32,416.446 Z m 13.856,-11.316 c 2.25,-1.992 4.461,-4.024 6.629,-6.102 L 81.773,88.001 c -2.078,2.164 -4.109,4.375 -6.101,6.625 L 386.176,405.13 Z m 12.847,-12.328 c 2.082,-2.164 4.114,-4.375 6.106,-6.625 L 94.625,75.673 c -2.25,1.992 -4.461,4.023 -6.625,6.105 l 311.023,311.024 z m 11.829,-13.344 c 1.91,-2.34 3.777,-4.715 5.593,-7.133 L 108.48,64.356 c -2.418,1.817 -4.796,3.684 -7.136,5.594 l 309.508,309.508 z m 10.793,-14.383 c 24.406,-35.426 38.703,-78.367 38.703,-124.672 0,-121.543 -98.407,-219.945 -219.95,-219.945 -46.304,0 -89.246,14.297 -124.671,38.703 l 305.918,305.914 z" /></g></g></svg>