<?xml version="1.0" encoding="UTF-8" standalone="no"?>
<svg
   xmlns:dc="http://purl.org/dc/elements/1.1/"
   xmlns:cc="http://creativecommons.org/ns#"
   xmlns:rdf="http://www.w3.org/1999/02/22-rdf-syntax-ns#"
   xmlns:svg="http://www.w3.org/2000/svg"
   xmlns="http://www.w3.org/2000/svg"
   viewBox="0 0 601.00201 601.00195"
   height="601.00195"
   width="601.00201"
   xml:space="preserve"
   version="1.1"
   id="svg7791"><metadata
     id="metadata7797"><rdf:RDF><cc:Work
         rdf:about=""><dc:format>image/svg+xml</dc:format><dc:type
           rdf:resource="http://purl.org/dc/dcmitype/StillImage" /><dc:title></dc:title></cc:Work></rdf:RDF></metadata><defs
     id="defs7795" /><g
     transform="matrix(1.25,0,0,-1.25,0,601.00197)"
     id="g7799"><g
       id="g7801"><path
         id="path7803"
         style="fill:#ffffff;fill-opacity:1;fill-rule:nonzero;stroke:none"
         d="m 480.402,240.403 c 0,-132.551 -107.453,-240 -240,-240 -132.55,0 -240,107.449 -240,240 0,132.547 107.45,240 240,240 132.547,0 240,-107.453 240,-240 z" /><path
         id="path7805"
         style="fill:#8a8a8a;fill-opacity:1;fill-rule:nonzero;stroke:none"
         d="m 89.227,194.684 0,125.641 c 0,7.477 6.05,13.527 13.523,13.527 l 112.117,0 c 7.465,0 13.528,-6.05 13.528,-13.527 l 0,-125.641 -139.168,0 z M 212.93,144.423 c -2.133,0 -3.868,1.738 -3.868,3.867 l 0,38.66 c 0,2.133 1.735,3.867 3.868,3.867 l 11.597,0 c 2.141,0 3.868,-1.734 3.868,-3.867 l 0,-38.66 c 0,-2.129 -1.727,-3.867 -3.868,-3.867 l -11.597,0 z m -96.641,0 c -2.144,0 -3.867,1.738 -3.867,3.867 l 0,38.66 c 0,2.133 1.723,3.867 3.867,3.867 l 11.598,0 c 2.129,0 3.855,-1.734 3.855,-3.867 l 0,-10.633 c 0,-2.133 1.735,-3.867 3.875,-3.867 l 7.348,0 c 1.98,0 3.887,0.762 5.32,2.133 l 2.527,2.398 c 4.477,4.274 11.516,4.274 15.993,0 l 2.527,-2.398 c 1.434,-1.371 3.34,-2.133 5.32,-2.133 l 7.348,0 c 2.141,0 3.867,1.734 3.867,3.867 l 0,10.633 c 0,2.133 1.735,3.867 3.863,3.867 l 11.602,0 c 2.141,0 3.863,-1.734 3.863,-3.867 l 0,-38.66 c 0,-2.129 -1.722,-3.867 -3.863,-3.867 l -11.602,0 c -2.128,0 -3.863,1.738 -3.863,3.867 l 0,10.637 c 0,2.128 -1.726,3.863 -3.867,3.863 l -7.348,0 c -1.98,0 -3.886,-0.758 -5.32,-2.129 l -2.527,-2.41 c -4.477,-4.262 -11.516,-4.262 -15.993,0 l -2.527,2.41 c -1.433,1.371 -3.34,2.129 -5.32,2.129 l -7.348,0 c -2.14,0 -3.875,-1.735 -3.875,-3.863 l 0,-10.637 c 0,-2.129 -1.726,-3.867 -3.855,-3.867 l -11.598,0 z m -23.199,0 c -2.141,0 -3.863,1.738 -3.863,3.867 l 0,38.66 c 0,2.133 1.722,3.867 3.863,3.867 l 11.598,0 c 2.132,0 3.867,-1.734 3.867,-3.867 l 0,-38.66 c 0,-2.129 -1.735,-3.867 -3.867,-3.867" /><path
         id="path7807"
         style="fill:#8a8a8a;fill-opacity:1;fill-rule:nonzero;stroke:none"
         d="m 283.477,261.423 c -0.2,0 -0.395,-0.008 -0.594,-0.02 -0.059,-0.004 -0.117,-0.012 -0.18,-0.015 -0.148,-0.012 -0.297,-0.028 -0.445,-0.051 -0.051,-0.004 -0.106,-0.012 -0.156,-0.02 -0.028,-0.004 -0.055,-0.008 -0.086,-0.015 -0.137,-0.02 -0.274,-0.047 -0.411,-0.075 -0.117,-0.027 -0.234,-0.054 -0.351,-0.082 -0.043,-0.011 -0.082,-0.023 -0.121,-0.031 -2.66,-0.707 -4.91,-2.582 -6.039,-5.184 l -14.453,-33.234 c -1.024,-2.336 -2.313,-4.558 -3.856,-6.609 l -2.187,-2.926 c -1.43,-1.898 -2.203,-4.203 -2.203,-6.586 l 0,-23.758 c 0,-5.054 4.101,-9.144 9.144,-9.144 l 135.016,0 c 0.711,-0.02 1.41,0.047 2.082,0.183 0.019,0.004 0.039,0.008 0.058,0.012 0.121,0.023 0.239,0.051 0.356,0.082 0.047,0.012 0.094,0.023 0.14,0.035 0.082,0.024 0.164,0.047 0.247,0.07 0.085,0.028 0.167,0.055 0.253,0.083 0.047,0.015 0.094,0.031 0.145,0.046 0.102,0.036 0.203,0.075 0.305,0.114 0.027,0.011 0.058,0.023 0.086,0.035 0.121,0.051 0.242,0.101 0.363,0.156 0,0 0.004,0 0.008,0.004 0.004,0 0.004,0 0.004,0.004 3.007,1.367 5.136,4.312 5.339,7.781 0.008,0.18 0.016,0.36 0.016,0.539 l 0,23.758 c 0,2.383 -0.762,4.688 -2.199,6.586 l -2.258,3.008 c -0.723,0.972 -1.391,1.98 -2,3.027 -0.113,0.192 -0.223,0.383 -0.328,0.578 -0.043,0.074 -0.086,0.149 -0.125,0.223 -0.121,0.219 -0.238,0.437 -0.352,0.66 -0.043,0.086 -0.09,0.168 -0.133,0.254 -0.058,0.117 -0.113,0.23 -0.171,0.348 -0.231,0.472 -0.457,0.953 -0.668,1.437 l -1.528,3.508 -0.234,0.547 0,-0.004 -12.703,29.183 c -1.36,3.133 -4.344,5.223 -7.703,5.469 -0.223,0.016 -0.442,0.024 -0.668,0.024 l -91.41,0 z m 2.211,-9.141 86.976,0 c 1.344,0 2.578,-0.742 3.211,-1.914 0.016,-0.027 0.027,-0.051 0.043,-0.078 0.035,-0.07 0.07,-0.137 0.098,-0.211 l 8.546,-19.645 0.012,0.012 4.02,-9.234 -118.821,0 2.293,5.25 -0.031,-0.028 10.301,23.649 c 0.578,1.332 1.891,2.199 3.352,2.199 z m -24.149,-82.258 0,-20.105 c 0,-0.379 0.039,-0.75 0.113,-1.106 0.512,-2.5 2.719,-4.39 5.368,-4.39 l 10.976,0 c 3.027,0 5.481,2.465 5.481,5.496 l 0,20.105 -21.938,0 z m 113.34,0 0,-2.062 0.012,0.011 0,-15.074 -0.012,-0.011 0,-2.969 c 0,-2.192 1.301,-4.172 3.305,-5.047 l 0.004,0.008 c 0.664,-0.293 1.398,-0.453 2.171,-0.453 l 10.973,0 c 0.621,0 1.219,0.105 1.773,0.296 0.196,0.067 0.387,0.145 0.571,0.235 0.008,0.004 0.019,0.008 0.031,0.015 0.176,0.086 0.348,0.18 0.516,0.286 0.007,0.004 0.015,0.007 0.019,0.011 0.524,0.328 0.988,0.743 1.375,1.227 0.121,0.156 0.235,0.316 0.344,0.484 0.012,0.02 0.023,0.039 0.035,0.059 0.094,0.148 0.176,0.308 0.258,0.469 0.012,0.027 0.023,0.054 0.039,0.082 0.074,0.156 0.137,0.316 0.195,0.48 0.008,0.02 0.02,0.039 0.028,0.063 l -0.004,-0.008 c 0.191,0.562 0.304,1.164 0.304,1.793 l 0,20.105 -21.941,0 0.004,0 z" /><path
         id="path7809"
         style="fill:#000000;fill-opacity:1;fill-rule:nonzero;stroke:none"
         d="M 240.398,480.802 C 107.633,480.802 0,373.169 0,240.403 0,107.638 107.633,0.001 240.398,0.001 c 132.766,0 240.403,107.637 240.403,240.402 0,132.766 -107.637,240.399 -240.403,240.399 z m 0,-0.399 c 132.551,0 240,-107.453 240,-240 0,-132.551 -107.449,-240 -240,-240 -132.546,0 -240,107.449 -240,240 0,132.547 107.454,240 240,240 z" /><path
         id="path7811"
         style="fill:#000000;fill-opacity:1;fill-rule:nonzero;stroke:none"
         d="M 240.398,472.348 C 112.375,472.348 8.457,368.427 8.457,240.403 8.457,112.376 112.375,8.458 240.398,8.458 c 128.028,0 231.946,103.918 231.946,231.945 0,128.024 -103.918,231.945 -231.946,231.945 z m 0,-12 c 46.309,0 89.25,-14.296 124.676,-38.703 L 59.156,115.727 c -24.406,35.426 -38.703,78.368 -38.703,124.676 0,121.539 98.406,219.945 219.945,219.945 z M 372.32,416.446 c 2.418,-1.816 4.793,-3.683 7.133,-5.594 L 69.949,101.348 c -1.91,2.34 -3.777,4.715 -5.594,7.133 L 372.32,416.446 Z m 13.856,-11.316 c 2.25,-1.992 4.461,-4.024 6.629,-6.102 L 81.773,88.001 c -2.078,2.164 -4.109,4.375 -6.101,6.625 L 386.176,405.13 Z m 12.847,-12.328 c 2.082,-2.164 4.114,-4.375 6.106,-6.625 L 94.625,75.673 c -2.25,1.992 -4.461,4.023 -6.625,6.105 l 311.023,311.024 z m 11.829,-13.344 c 1.91,-2.34 3.777,-4.715 5.593,-7.133 L 108.48,64.356 c -2.418,1.817 -4.796,3.684 -7.136,5.594 l 309.508,309.508 z m 10.793,-14.383 c 24.406,-35.426 38.703,-78.367 38.703,-124.672 0,-121.543 -98.407,-219.945 -219.95,-219.945 -46.304,0 -89.246,14.297 -124.671,38.703 l 305.918,305.914 z" /></g></g></svg>