<?xml version="1.0" encoding="UTF-8" standalone="no"?>
<!-- Created with Inkscape (http://www.inkscape.org/) -->

<svg
   xmlns:dc="http://purl.org/dc/elements/1.1/"
   xmlns:cc="http://creativecommons.org/ns#"
   xmlns:rdf="http://www.w3.org/1999/02/22-rdf-syntax-ns#"
   xmlns:svg="http://www.w3.org/2000/svg"
   xmlns="http://www.w3.org/2000/svg"
   xmlns:sodipodi="http://sodipodi.sourceforge.net/DTD/sodipodi-0.dtd"
   xmlns:inkscape="http://www.inkscape.org/namespaces/inkscape"
   version="1.0"
   width="497.19662"
   height="497.2099"
   id="svg2"
   inkscape:version="0.48.2 r9819"
   sodipodi:docname="Aa.svg">
  <metadata
     id="metadata15">
    <rdf:RDF>
      <cc:Work
         rdf:about="">
        <dc:format>image/svg+xml</dc:format>
        <dc:type
           rdf:resource="http://purl.org/dc/dcmitype/StillImage" />
      </cc:Work>
    </rdf:RDF>
  </metadata>
  <sodipodi:namedview
     pagecolor="#ffffff"
     bordercolor="#666666"
     borderopacity="1"
     objecttolerance="10"
     gridtolerance="10"
     guidetolerance="10"
     inkscape:pageopacity="0"
     inkscape:pageshadow="2"
     inkscape:window-width="1280"
     inkscape:window-height="1004"
     id="namedview13"
     showgrid="false"
     fit-margin-top="0"
     fit-margin-left="0"
     fit-margin-right="0"
     fit-margin-bottom="0"
     inkscape:zoom="0.94397511"
     inkscape:cx="106.21438"
     inkscape:cy="274.54786"
     inkscape:window-x="-8"
     inkscape:window-y="-8"
     inkscape:window-maximized="1"
     inkscape:current-layer="svg2" />
  <defs
     id="defs4" />
  <path
     d="m 497.19663,248.60495 a 248.59832,248.60495 0 1 1 -497.19663,0 248.59832,248.60495 0 1 1 497.19663,0 z"
     style="fill:#d40000;fill-opacity:1;fill-rule:nonzero;stroke:none"
     id="path3063"
     inkscape:connector-curvature="0" />
  <path
     d="m 448.59851,248.61156 a 200.00006,200.00004 0 1 1 -400.000111,0 200.00006,200.00004 0 1 1 400.000111,0 z"
     style="fill:#ffffff;fill-opacity:1;fill-rule:nonzero;stroke:none"
     id="path6586"
     inkscape:connector-curvature="0" />
  <g
     transform="matrix(4.44727,0,0,4.44727,-1316.4307,-3087.1916)"
     id="g10987">
    <g
       transform="translate(-67.837474,34.478452)"
       id="g10983">
      <path
         d="m 441.69644,693.61218 c 0,1.57796 -1.83883,2.85714 -4.10715,2.85714 -2.26831,0 -4.10714,-1.27918 -4.10714,-2.85714 0,-1.57796 1.83883,-2.85714 4.10714,-2.85714 2.26832,0 4.10715,1.27918 4.10715,2.85714 z"
         transform="matrix(0.8112738,0,0,1.0099561,82.563691,-5.9541637)"
         style="fill:#000000;fill-opacity:1;fill-rule:evenodd;stroke:#000000;stroke-width:0.60000002;stroke-linecap:round;stroke-linejoin:round;stroke-miterlimit:4;stroke-opacity:1;stroke-dasharray:none;stroke-dashoffset:0"
         id="path2172"
         inkscape:connector-curvature="0" />
      <path
         d="m 383.37199,720.7244 0,-11.78571 38.57143,0 0,7.80344 3.17754,0 12.04567,-18.29451 -0.53571,-2.09822 3.16964,-0.49107 0.3125,1.29465 5.04464,0.71428 8.02782,10.04573 -2.31353,8.82914 4.95215,0 0,3.98227 -9.95215,0 3.21428,8.92858 0,12.5 -10,0 0,-1.226 4.64286,-1.98829 -5.35714,-13.21429 -7.14286,15.35715 -8.57143,-4.28572 0.3319,-0.77265 4.6681,-0.29878 2.5,-9.28571 3.57143,-6.07143 -50.35714,0.35714 z m 47.44751,-3.98227 4.35589,0 0.85856,-5.15136 -5.21445,5.15136 z m 14.34075,0 1.49038,0 1.21217,-6.80739 -2.53298,-1.10818 -0.16957,7.91557 z"
         style="fill:#000000;fill-opacity:1;fill-rule:evenodd;stroke:none"
         id="path2170"
         inkscape:connector-curvature="0" />
    </g>
    <g
       id="g10979">
      <path
         d="m 334.15221,752.3731 c -3.501,0 -6.65014,1.5308 -8.71875,3.9375 3.1578,2.50262 5.99097,4.7705 8.875,7.0625 3.11799,-2.48394 5.94001,-4.75215 8.65625,-6.90625 -2.05914,-2.49803 -5.23869,-4.09375 -8.8125,-4.09375 z m -8.75,4 c -1.5825,1.86428 -2.53125,4.25284 -2.53125,6.84375 0,2.70064 1.04383,5.16867 2.75,7.0625 3.33159,-2.66129 4.37159,-3.48647 8.625,-6.875 l -8.84375,-7.03125 z m 17.59375,0.15625 -8.65625,6.875 c 2.74863,2.18444 5.55303,4.39005 8.46875,6.71875 1.62614,-1.87669 2.59374,-4.27585 2.59375,-6.90625 0,-2.52099 -0.90515,-4.84337 -2.40625,-6.6875 z m -8.6875,6.90625 -8.65625,6.875 c 2.0693,2.27854 5.10451,3.71875 8.5,3.71875 3.46864,0 6.55613,-1.50657 8.625,-3.875 l -8.46875,-6.71875 z m 11.07576,-0.31056 c 0,0 -14.70283,0.03 -22.2357,-0.026 m 11.10117,-10.56229 0,21.44742"
         style="fill:none;stroke:#000000;stroke-width:1.66199994;stroke-linecap:round;stroke-linejoin:round;stroke-miterlimit:4;stroke-opacity:1;stroke-dasharray:none;stroke-dashoffset:0"
         id="path7037"
         inkscape:connector-curvature="0" />
      <path
         d="m 336.88654,762.17749 c 10e-4,0.96243 -0.51126,1.85235 -1.34452,2.33396 -0.83326,0.48162 -1.86028,0.48162 -2.69354,0 -0.83326,-0.48161 -1.34591,-1.37153 -1.34452,-2.33396 -0.001,-0.96243 0.51126,-1.85235 1.34452,-2.33396 0.83326,-0.48162 1.86028,-0.48162 2.69354,0 0.83326,0.48161 1.34591,1.37153 1.34452,2.33396 z"
         transform="translate(-0.05866647,1.0237348)"
         style="fill:#000000;fill-opacity:1;fill-rule:evenodd;stroke:#000000;stroke-width:1.66199994;stroke-linecap:round;stroke-linejoin:round;stroke-miterlimit:4;stroke-opacity:1;stroke-dasharray:none;stroke-dashoffset:0"
         id="path10008"
         inkscape:connector-curvature="0" />
    </g>
  </g>
</svg>
