<?xml version="1.0" encoding="UTF-8" standalone="no"?>
<!-- Created with Inkscape (http://www.inkscape.org/) -->

<svg
   xmlns:dc="http://purl.org/dc/elements/1.1/"
   xmlns:cc="http://creativecommons.org/ns#"
   xmlns:rdf="http://www.w3.org/1999/02/22-rdf-syntax-ns#"
   xmlns:svg="http://www.w3.org/2000/svg"
   xmlns="http://www.w3.org/2000/svg"
   xmlns:sodipodi="http://sodipodi.sourceforge.net/DTD/sodipodi-0.dtd"
   xmlns:inkscape="http://www.inkscape.org/namespaces/inkscape"
   width="500.00009"
   height="499.99969"
   id="svg2"
   sodipodi:version="0.32"
   inkscape:version="0.48.2 r9819"
   version="1.0"
   sodipodi:docname="Aa.svg">
  <defs
     id="defs4" />
  <sodipodi:namedview
     id="base"
     pagecolor="#ffffff"
     bordercolor="#666666"
     borderopacity="1.0"
     gridtolerance="10000"
     guidetolerance="10"
     objecttolerance="10"
     inkscape:pageopacity="0.0"
     inkscape:pageshadow="2"
     inkscape:zoom="0.98994948"
     inkscape:cx="131.40705"
     inkscape:cy="292.45329"
     inkscape:document-units="px"
     inkscape:current-layer="layer1"
     showguides="true"
     inkscape:guide-bbox="true"
     inkscape:window-width="1280"
     inkscape:window-height="1004"
     inkscape:window-x="-8"
     inkscape:window-y="-8"
     showgrid="false"
     fit-margin-top="0"
     fit-margin-left="0"
     fit-margin-right="0"
     fit-margin-bottom="0"
     inkscape:window-maximized="1" />
  <metadata
     id="metadata7">
    <rdf:RDF>
      <cc:Work
         rdf:about="">
        <dc:format>image/svg+xml</dc:format>
        <dc:type
           rdf:resource="http://purl.org/dc/dcmitype/StillImage" />
      </cc:Work>
    </rdf:RDF>
  </metadata>
  <g
     inkscape:label="Layer 1"
     inkscape:groupmode="layer"
     id="layer1"
     transform="translate(-592.81276,-145.29564)">
    <g
       id="g13065"
       transform="matrix(1.005657,0,0,1.005593,-3.353434,-3.609174)">
      <g
         inkscape:label="Layer 1"
         id="g5928"
         transform="translate(591.4064,146.686)">
        <path
           sodipodi:type="arc"
           style="fill:#ffffff;fill-opacity:1;fill-rule:nonzero;stroke:none"
           id="path8679"
           sodipodi:cx="249.71306"
           sodipodi:cy="244.34138"
           sodipodi:rx="140.71133"
           sodipodi:ry="122.87468"
           d="m 390.42439,244.34138 c 0,67.86182 -62.99861,122.87468 -140.71133,122.87468 -77.71273,0 -140.71134,-55.01286 -140.71134,-122.87468 0,-67.86181 62.99861,-122.87467 140.71134,-122.87467 77.71272,0 140.71133,55.01286 140.71133,122.87467 z"
           transform="matrix(1.766691,0,0,2.023277,-191.1658,-244.3703)" />
        <path
           style="fill:#d40000;fill-opacity:1;fill-rule:nonzero;stroke:none"
           d="m 250,1.390623 c -137.22627,0 -248.59375,111.395057 -248.59375,248.625007 0,137.22993 111.36749,248.59376 248.59375,248.59375 137.22627,0 248.59374,-111.36382 248.59375,-248.59375 C 498.59375,112.78569 387.22627,1.390623 250,1.390623 z m 0,48.625 c 110.40002,1e-6 200,89.599987 200,200.000007 -10e-6,110.40003 -89.59997,200 -200,200 -110.40004,-10e-6 -200,-89.59998 -200,-200 C 50,139.61561 139.59997,50.015623 250,50.015623 z"
           id="path5931"
           inkscape:connector-curvature="0" />
      </g>
      <path
         sodipodi:nodetypes="cccccccccccccccc"
         id="path5941"
         d="m 949.42086,480.20071 55.44954,-100.64252 -34.93642,-21.15416 23.07727,-75.32164 -100.64251,53.52644 -32.05177,-91.98855 -27.56451,58.3342 -53.84695,-55.77006 -0.64103,78.52681 -72.43697,-14.10277 23.07727,72.75749 -50.9623,6.73087 58.97523,63.14197 29.99139,-88.27591 152.307,-0.54174 30.20476,114.77957 z"
         style="fill:#ff9700;fill-opacity:1;fill-rule:evenodd;stroke:#d40000;stroke-width:5.7531743;stroke-linecap:butt;stroke-linejoin:miter;stroke-miterlimit:4;stroke-opacity:1;stroke-dasharray:none"
         inkscape:connector-curvature="0" />
      <g
         transform="matrix(0.399526,0,0,-0.399526,641.6434,651.5098)"
         id="g3067">
        <path
           style="fill:#000000;fill-opacity:1;fill-rule:evenodd;stroke:none"
           d="m 325,325 0,-75 -75,0 0,75 -25,0 0,225 25,25 40,150 420,0 40,-150 25,-25 0,-225 -25,0 0,-75 -75,0 0,75 -350,0 z"
           id="path1307"
           inkscape:connector-curvature="0" />
        <path
           style="fill:#ffffff;fill-opacity:1;fill-rule:evenodd;stroke:none"
           d="m 290,600 20,100 380,0 20,-100 -420,0 z"
           id="path2186"
           inkscape:connector-curvature="0" />
        <path
           sodipodi:type="arc"
           style="fill:#ffffff;fill-opacity:1;fill-rule:nonzero;stroke:none"
           id="path3061"
           sodipodi:cx="324.03241"
           sodipodi:cy="506.36258"
           sodipodi:rx="34.682369"
           sodipodi:ry="32.70052"
           d="m 358.71478,506.36258 c 0,18.06 -15.52783,32.70052 -34.68237,32.70052 -19.15454,0 -34.68237,-14.64052 -34.68237,-32.70052 0,-18.06 15.52783,-32.70052 34.68237,-32.70052 19.15454,0 34.68237,14.64052 34.68237,32.70052 z"
           transform="matrix(1.081241,0,0,1.146771,-62.85713,-65.81963)" />
        <path
           sodipodi:type="arc"
           style="fill:#ffffff;fill-opacity:1;fill-rule:nonzero;stroke:none"
           id="path3122"
           sodipodi:cx="324.03241"
           sodipodi:cy="506.36258"
           sodipodi:rx="34.682369"
           sodipodi:ry="32.70052"
           d="m 358.71478,506.36258 c 0,18.06 -15.52783,32.70052 -34.68237,32.70052 -19.15454,0 -34.68237,-14.64052 -34.68237,-32.70052 0,-18.06 15.52783,-32.70052 34.68237,-32.70052 19.15454,0 34.68237,14.64052 34.68237,32.70052 z"
           transform="matrix(1.081241,0,0,1.146771,362.1429,-65.81975)" />
        <rect
           style="fill:#ffffff;fill-opacity:1;fill-rule:nonzero;stroke:none"
           id="rect3065"
           width="500"
           height="25"
           x="250"
           y="427.36218" />
      </g>
    </g>
  </g>
</svg>
