<?xml version="1.0" encoding="UTF-8" standalone="no"?>
<!-- Created with Inkscape (http://www.inkscape.org/) -->

<svg
   xmlns:dc="http://purl.org/dc/elements/1.1/"
   xmlns:cc="http://creativecommons.org/ns#"
   xmlns:rdf="http://www.w3.org/1999/02/22-rdf-syntax-ns#"
   xmlns:svg="http://www.w3.org/2000/svg"
   xmlns="http://www.w3.org/2000/svg"
   xmlns:sodipodi="http://sodipodi.sourceforge.net/DTD/sodipodi-0.dtd"
   xmlns:inkscape="http://www.inkscape.org/namespaces/inkscape"
   width="132.29167mm"
   height="132.32692mm"
   viewBox="0 0 132.29167 132.32692"
   version="1.1"
   id="svg234"
   inkscape:version="0.92.4 (33fec40, 2019-01-16)"
   sodipodi:docname="B-15.svg">
  <defs
     id="defs228" />
  <sodipodi:namedview
     id="base"
     pagecolor="#ffffff"
     bordercolor="#666666"
     borderopacity="1.0"
     inkscape:pageopacity="0.0"
     inkscape:pageshadow="2"
     inkscape:zoom="0.35"
     inkscape:cx="329.99999"
     inkscape:cy="464.35232"
     inkscape:document-units="mm"
     inkscape:current-layer="layer1"
     showgrid="false"
     fit-margin-top="0"
     fit-margin-left="0"
     fit-margin-right="0"
     fit-margin-bottom="0"
     inkscape:window-width="1366"
     inkscape:window-height="740"
     inkscape:window-x="1920"
     inkscape:window-y="0"
     inkscape:window-maximized="1" />
  <metadata
     id="metadata231">
    <rdf:RDF>
      <cc:Work
         rdf:about="">
        <dc:format>image/svg+xml</dc:format>
        <dc:type
           rdf:resource="http://purl.org/dc/dcmitype/StillImage" />
        <dc:title></dc:title>
      </cc:Work>
    </rdf:RDF>
  </metadata>
  <g
     inkscape:label="Layer 1"
     inkscape:groupmode="layer"
     id="layer1"
     transform="translate(-18.520835,-139.36631)">
    <g
       id="layer1-0"
       transform="matrix(0.26458333,0,0,0.26458333,-227.82237,92.057575)">
      <g
         id="g10384"
         transform="translate(234.2857,22.85714)">
        <g
           id="g10349"
           transform="translate(6.060915,22.22336)">
          <path
             style="fill:#ffffff;fill-opacity:1;fill-rule:nonzero;stroke:none"
             id="path8679"
             transform="matrix(1.776687,0,0,2.034593,497.0524,-113.3445)"
             d="m 390.42439,244.34138 a 140.71134,122.87468 0 1 1 -281.42267,0 140.71134,122.87468 0 1 1 281.42267,0 z"
             inkscape:connector-curvature="0" />
          <g
             id="g10332"
             transform="translate(4.471687e-5,-3.697189e-6)">
            <path
               style="fill:#000000;fill-rule:evenodd;stroke:none"
               id="path10320"
               d="M 739.45605,440.4455 808.46758,384.02392 736.192,327.13604 Z"
               inkscape:connector-curvature="0" />
            <path
               style="fill:#000000;fill-rule:evenodd;stroke:none"
               id="path10322"
               d="m 1141.9726,440.44551 -69.0116,-56.42159 72.2756,-56.88788 z"
               inkscape:connector-curvature="0" />
          </g>
          <path
             style="fill:#d40000;fill-opacity:1;fill-rule:nonzero;stroke:none"
             id="path3063"
             d="m 940.7143,135.18139 c -137.22627,0 -248.59375,111.39506 -248.59375,248.62501 0,137.22993 111.36749,248.59376 248.59375,248.59375 137.2263,0 248.5937,-111.36382 248.5938,-248.59375 0,-137.22994 -111.3675,-248.62501 -248.5938,-248.62501 z m 0,48.625 c 110.4,0 200,89.59999 200,200.00001 0,110.40003 -89.6,200 -200,200 -110.40004,-1e-5 -200,-89.59998 -200,-200 0,-110.40002 89.59997,-200.00001 200,-200.00001 z"
             inkscape:connector-curvature="0" />
        </g>
        <g
           id="g10378"
           transform="matrix(0.63439,0,0,0.63439,850.2265,82.62499)" />
      </g>
    </g>
  </g>
</svg>
