<?xml version="1.0" encoding="UTF-8" standalone="no"?>
<!-- Created with Inkscape (http://www.inkscape.org/) -->

<svg
   xmlns:dc="http://purl.org/dc/elements/1.1/"
   xmlns:cc="http://creativecommons.org/ns#"
   xmlns:rdf="http://www.w3.org/1999/02/22-rdf-syntax-ns#"
   xmlns:svg="http://www.w3.org/2000/svg"
   xmlns="http://www.w3.org/2000/svg"
   xmlns:sodipodi="http://sodipodi.sourceforge.net/DTD/sodipodi-0.dtd"
   xmlns:inkscape="http://www.inkscape.org/namespaces/inkscape"
   width="131.48235mm"
   height="131.49069mm"
   viewBox="0 0 131.48235 131.49069"
   version="1.1"
   id="svg539"
   inkscape:version="0.92.4 (33fec40, 2019-01-16)"
   sodipodi:docname="B-19.svg">
  <defs
     id="defs533" />
  <sodipodi:namedview
     id="base"
     pagecolor="#ffffff"
     bordercolor="#666666"
     borderopacity="1.0"
     inkscape:pageopacity="0.0"
     inkscape:pageshadow="2"
     inkscape:zoom="0.35"
     inkscape:cx="171.32774"
     inkscape:cy="265.62919"
     inkscape:document-units="mm"
     inkscape:current-layer="layer1"
     showgrid="false"
     fit-margin-top="0"
     fit-margin-left="0"
     fit-margin-right="0"
     fit-margin-bottom="0"
     inkscape:window-width="1366"
     inkscape:window-height="740"
     inkscape:window-x="1920"
     inkscape:window-y="0"
     inkscape:window-maximized="1" />
  <metadata
     id="metadata536">
    <rdf:RDF>
      <cc:Work
         rdf:about="">
        <dc:format>image/svg+xml</dc:format>
        <dc:type
           rdf:resource="http://purl.org/dc/dcmitype/StillImage" />
        <dc:title></dc:title>
      </cc:Work>
    </rdf:RDF>
  </metadata>
  <g
     inkscape:label="Layer 1"
     inkscape:groupmode="layer"
     id="layer1"
     transform="translate(-60.50287,-87.623702)">
    <path
       inkscape:connector-curvature="0"
       d="m 126.24405,100.42746 c -35.449479,0 -52.937421,30.43231 -52.937421,52.94572 0,21.63954 16.647628,52.83948 52.937421,52.83948 35.43928,0 52.79566,-28.14223 52.79566,-52.83948 0,-35.48106 -30.39059,-52.94572 -52.79566,-52.94572 z"
       id="path41279"
       style="fill:#ffffff;fill-opacity:1;fill-rule:nonzero;stroke:none;stroke-width:0.26458332" />
    <path
       inkscape:connector-curvature="0"
       d="m 126.24405,87.623702 c -36.289799,0 -65.74118,29.458688 -65.74118,65.749478 0,36.29079 29.451387,65.74122 65.74118,65.74121 36.28981,0 65.74117,-29.45042 65.74117,-65.74121 0,-36.29079 -29.45136,-65.749478 -65.74117,-65.749478 z m 0,12.858998 c 29.19554,0 52.89046,23.69493 52.89046,52.89048 0,29.19555 -23.69492,52.89048 -52.89046,52.89048 -29.195536,0 -52.89045,-23.69493 -52.89045,-52.89048 0,-29.19555 23.694914,-52.89048 52.89045,-52.89048 z"
       id="path3063-4"
       style="fill:#d40000;fill-opacity:1;fill-rule:nonzero;stroke:none;stroke-width:0.26458332" />
    <path
       inkscape:connector-curvature="0"
       d="m 101.60323,170.52548 h 19.507 c 0,0 1.48626,-3.03374 5.16348,-3.03374 3.67722,0 5.12101,3.03374 5.12101,3.03374 h 19.507 v -4.02437 h 1.9004 v -5.81297 c 0,0 2.52454,-0.55333 3.85668,-0.55333 1.33215,0 4.13616,0.55333 4.13616,0.55333 v 7.60158 h 1.67682 v 9.78144 h -1.73271 v 7.60159 c 0,0 -2.51989,0.71141 -3.85669,0.71141 -1.33679,0 -4.1641,-0.71141 -4.1641,-0.71141 v -5.78982 h -1.80977 v -4.38289 h -19.17842 c 0,0 -1.44249,3.5271 -5.38129,3.5271 -3.93879,0 -5.57394,-3.5271 -5.57394,-3.5271 h -19.28342 v 4.24795 h -1.732715 v 5.98065 c 0,0 -2.468647,0.71141 -3.800789,0.71141 -1.332143,0 -4.192051,-0.71141 -4.192051,-0.71141 v -7.60158 h -1.8445 v -9.83734 h 1.8445 v -7.60158 c 0,0 2.790844,-0.58689 4.136157,-0.58689 1.345314,0 3.935733,0.58689 3.935733,0.58689 v 5.86886 h 1.709555 z"
       id="path3610"
       style="fill:#000000;stroke:#000000;stroke-width:0.4471519;stroke-linecap:butt;stroke-linejoin:miter;stroke-miterlimit:4;stroke-dasharray:none;stroke-opacity:1" />
  </g>
</svg>
