<?xml version="1.0" encoding="UTF-8" standalone="no"?>
<!-- Created with Inkscape (http://www.inkscape.org/) -->

<svg
   xmlns:svg="http://www.w3.org/2000/svg"
   xmlns="http://www.w3.org/2000/svg"
   version="1.1"
   width="500"
   height="499.99997"
   id="svg2">
  <defs
     id="defs4" />
  <g
     transform="translate(-89.411223,-361.12756)"
     id="layer1">
    <g
       id="g4001">
      <g
         transform="translate(87.335312,357.81405)"
         id="layer1-5">
        <path
           d="m 390.42439,244.34138 a 140.71134,122.87468 0 1 1 -281.42267,0 140.71134,122.87468 0 1 1 281.42267,0 z"
           transform="matrix(1.42135,0,0,1.627675,-104.9296,-147.7083)"
           id="path6586"
           style="fill:#ffffff;fill-opacity:1;fill-rule:nonzero;stroke:none" />
        <path
           d="M 355.97965,502.96315 149.01798,503.31349 2.426255,357.21724 2.0759107,150.25558 148.17217,3.663855 355.13383,3.3135071 501.72556,149.40976 502.0759,356.37144 355.97965,502.96315 z"
           id="path2180"
           style="fill:#d40000;fill-opacity:1;fill-rule:evenodd;stroke:none" />
        <path
           d="M 348.00239,483.79619 156.9303,484.11963 21.593215,349.23999 21.269769,158.1679 156.14942,22.830815 347.22151,22.507365 482.5586,157.38701 482.88204,348.45912 348.00239,483.79619 z"
           id="path2175"
           style="fill:none;stroke:#ffffff;stroke-width:10;stroke-linecap:round;stroke-linejoin:round;stroke-miterlimit:4;stroke-opacity:1;stroke-dasharray:none;stroke-dashoffset:0" />
      </g>
      <g
         transform="translate(-1116,-229.5)"
         id="g3993"
         style="fill:#ffffff">
        <path
           d="m 1498.5507,772.32997 c 12.4559,1.1e-4 22.8527,5.33489 31.1898,16.00434 4.9129,6.84847 7.3693,14.49084 7.3694,22.92715 l 0,54.25039 c -10e-5,13.10126 -5.5085,23.77081 -16.5254,32.00869 -6.7491,4.66484 -14.1931,6.99724 -22.3316,6.99724 -12.4562,0 -22.8776,-5.35958 -31.2644,-16.07877 -4.8633,-6.79872 -7.295,-14.44111 -7.2948,-22.92716 l 0,-54.25039 c -2e-4,-13.05152 5.4836,-23.69626 16.4509,-31.93425 6.749,-4.66471 14.2178,-6.99713 22.4061,-6.99724 z m -24.4904,38.93149 0,54.25039 c 0,9.72671 4.4664,17.09613 13.399,22.10833 3.4241,1.68729 7.1212,2.53093 11.0914,2.53092 8.0889,10e-6 14.7635,-3.57305 20.024,-10.71919 2.779,-4.11892 4.1685,-8.75893 4.1686,-13.92006 l 0,-54.25039 c -1e-4,-9.67696 -4.4913,-17.02158 -13.4734,-22.03389 -3.3747,-1.7368 -7.047,-2.60525 -11.017,-2.60535 -8.0891,10e-5 -14.7886,3.59797 -20.0985,10.79362 -2.7294,4.11903 -4.0941,8.73423 -4.0941,13.84562 z"
           id="path2936-1"
           style="font-size:121.59870911px;font-style:normal;font-variant:normal;font-weight:normal;font-stretch:normal;text-align:start;line-height:100%;writing-mode:lr-tb;text-anchor:start;fill:#ffffff;fill-opacity:1;stroke:none" />
        <path
           d="m 1368.1156,772.19087 68.7814,0 c 0.9924,0.0994 1.4887,0.57082 1.4888,1.41433 l 0,11.46358 c -0.149,0.94299 -0.6452,1.41444 -1.4888,1.41434 l -27.1702,0 0,116.48123 c -0.1489,0.94288 -0.6451,1.41433 -1.4887,1.41433 l -11.4636,0 c -0.9429,-0.14888 -1.4144,-0.62031 -1.4143,-1.41433 l 0,-116.48123 -27.2446,0 c -0.9429,-0.0992 -1.4144,-0.5706 -1.4144,-1.41434 l 0,-11.46358 c 0.1489,-0.94277 0.6203,-1.41422 1.4144,-1.41433 z"
           id="path2934-7"
           style="font-size:121.59870911px;font-style:normal;font-variant:normal;font-weight:normal;font-stretch:normal;text-align:start;line-height:100%;writing-mode:lr-tb;text-anchor:start;fill:#ffffff;fill-opacity:1;stroke:none;" />
        <path
           d="m 1316.6874,902.12873 c 14.2588,-3.96032 24.8521,-18.05608 24.8521,-33.069 0,-9.94033 -2.7046,-17.86083 -8.3519,-24.4584 -5.2797,-6.16802 -9.5241,-8.4434 -25.7466,-13.80206 -13.6544,-4.51034 -17.3311,-6.885 -20.2792,-13.09778 -4.8895,-10.3038 -0.807,-22.69324 9.2438,-28.05272 4.8125,-2.56622 7.0381,-2.94858 15.1423,-2.60149 8.0762,0.34589 10.1782,0.92379 14.0207,3.85462 2.486,1.89625 4.8519,3.44773 5.2575,3.44773 0.4056,0 2.9993,-1.49679 5.7637,-3.32622 l 5.0262,-3.3262 -2.8591,-3.0617 c -10.2696,-10.99722 -30.8418,-14.42849 -46.1124,-7.69117 -21.694,9.57126 -26.9452,38.2208 -10.0942,55.07183 5.1051,5.10512 7.6552,6.44471 20.1924,10.60703 7.8921,2.62019 15.8471,5.94756 17.6778,7.39417 9.2452,7.30574 11.5239,21.3864 4.9334,30.4844 -5.5297,7.63341 -13.0604,10.7642 -24.5022,10.18642 -8.0964,-0.40885 -9.8522,-0.95073 -14.0736,-4.34307 l -4.8231,-3.87592 -5.3015,4.06982 -5.3015,4.06983 3.9908,3.90162 c 5.9563,5.82343 14.8618,8.77155 26.7046,8.84043 5.5163,0.0321 12.1044,-0.51789 14.64,-1.22217 z"
           id="path3730-1"
           style="fill:#ffffff;fill-opacity:1;stroke:none" />
        <g
           id="g3989"
           style="fill:#ffffff">
          <path
             d="m 1586.5,875.88033 0,-28.65317 c 13.0518,-0.9883 26.4533,1.51936 38.6771,-3.80621 13.1233,-6.57755 20.6161,-21.1752 19.3278,-35.38309 -1.2768,-14.07974 -5.9663,-24.09268 -18.53,-29.90473 -6.5736,-3.04111 -9.2835,-4.72994 -25.1028,-4.72994 l -30.3755,-0.0564 0,65.85112 0,65.33561 6.2686,0 9.7348,0 0,-28.65312 0,-5e-5 z"
             id="path3820-1"
             style="fill:#ffffff;fill-opacity:1;stroke:none" />
          <path
             d="m 1629.0252,812.13537 c 0.5453,-8.48843 -4.5871,-16.377 -11.2566,-20.44343 -3.3738,-2.05705 -6.2611,-2.49561 -8.0584,-2.49597 l -23.184,-0.005 0,21.94008 0,19.43265 22.5571,-0.03 c 10.7399,-0.1303 19.0172,-8.09409 19.9419,-18.39837 z"
             id="path3730-8-8-2-5"
             style="fill:#d40000;fill-opacity:1;stroke:none" />
        </g>
      </g>
    </g>
  </g>
</svg>
