<?xml version="1.0" encoding="UTF-8" standalone="no"?>
<!-- Created with Inkscape (http://www.inkscape.org/) -->

<svg
   xmlns:dc="http://purl.org/dc/elements/1.1/"
   xmlns:cc="http://creativecommons.org/ns#"
   xmlns:rdf="http://www.w3.org/1999/02/22-rdf-syntax-ns#"
   xmlns:svg="http://www.w3.org/2000/svg"
   xmlns="http://www.w3.org/2000/svg"
   xmlns:sodipodi="http://sodipodi.sourceforge.net/DTD/sodipodi-0.dtd"
   xmlns:inkscape="http://www.inkscape.org/namespaces/inkscape"
   width="500.00006"
   height="499.99969"
   id="svg8160"
   sodipodi:version="0.32"
   inkscape:version="0.48.2 r9819"
   version="1.0"
   sodipodi:docname="AJAX.svg">
  <defs
     id="defs8162" />
  <sodipodi:namedview
     id="base"
     pagecolor="#ffffff"
     bordercolor="#666666"
     borderopacity="1.0"
     gridtolerance="10000"
     guidetolerance="10"
     objecttolerance="10"
     inkscape:pageopacity="0.0"
     inkscape:pageshadow="2"
     inkscape:zoom="0.9899495"
     inkscape:cx="184.41974"
     inkscape:cy="220.20017"
     inkscape:document-units="px"
     inkscape:current-layer="g8360"
     width="500px"
     height="500px"
     inkscape:window-width="1280"
     inkscape:window-height="1004"
     inkscape:window-x="-8"
     inkscape:window-y="-8"
     showgrid="false"
     fit-margin-top="0"
     fit-margin-left="0"
     fit-margin-right="0"
     fit-margin-bottom="0"
     inkscape:window-maximized="1" />
  <metadata
     id="metadata8165">
    <rdf:RDF>
      <cc:Work
         rdf:about="">
        <dc:format>image/svg+xml</dc:format>
        <dc:type
           rdf:resource="http://purl.org/dc/dcmitype/StillImage" />
      </cc:Work>
    </rdf:RDF>
  </metadata>
  <g
     inkscape:label="Layer 1"
     inkscape:groupmode="layer"
     id="layer1"
     transform="translate(-263.15749,-23.725723)">
    <g
       id="g3067"
       transform="matrix(0.401786,0,0,-0.401761,312.2645,529.9748)">
      <g
         id="g8360">
        <path
           transform="matrix(4.421968,0,0,-5.064187,-604.2232,1875.205)"
           d="m 390.42439,244.34138 c 0,67.86182 -62.99861,122.87468 -140.71133,122.87468 -77.71273,0 -140.71134,-55.01286 -140.71134,-122.87468 0,-67.86181 62.99861,-122.87467 140.71134,-122.87467 77.71272,0 140.71133,55.01286 140.71133,122.87467 z"
           sodipodi:ry="122.87468"
           sodipodi:rx="140.71133"
           sodipodi:cy="244.34138"
           sodipodi:cx="249.71306"
           id="path8679"
           style="fill:#ffffff;fill-opacity:1;fill-rule:nonzero;stroke:none"
           sodipodi:type="arc" />
        <path
           transform="matrix(2.488887,0,0,-2.489042,-777.1911,1319.13)"
           id="path5931"
           d="m 513.15755,23.725911 c -138.00256,0 -250.00004,112.018089 -250.00004,250.015569 0,137.99745 111.99749,249.98414 250.00004,249.98413 138.00256,0 250.00003,-111.98668 250.00004,-249.98413 0,-137.99747 -111.99748,-250.015569 -250.00004,-250.015569 z m 0,48.896959 c 111.02455,10e-7 201.1314,90.10112 201.1314,201.11861 -10e-6,111.01749 -90.10684,201.1186 -201.1314,201.1186 -111.02457,-10e-6 -201.1314,-90.10112 -201.1314,-201.1186 0,-111.01749 90.10684,-201.11861 201.1314,-201.11861 z"
           style="fill:#d40000;fill-opacity:1;fill-rule:nonzero;stroke:none"
           inkscape:connector-curvature="0" />
        <g
           id="g8370"
           transform="translate(-5.004519e-5,-55.48709)">
          <path
             style="fill:#000000;fill-opacity:1;fill-rule:evenodd;stroke:none"
             d="m 592.93599,768.21917 -26.13943,-98.10512 -16.37524,-16.32544 0,-147.13225 16.37524,0 0,-49.02714 49.02412,0 0,49.02714 228.84685,0 0,-49.02714 49.02409,0 0,49.02714 16.37526,0 0,147.13225 -16.37526,16.32544 -26.1394,98.10512 -274.61623,0 z m 13.06969,-16.37628 248.47684,0 13.0697,-65.35256 -274.61623,0 13.06969,65.35256 z"
             id="path1307"
             inkscape:connector-curvature="0" />
          <path
             sodipodi:nodetypes="csccccccccccsss"
             style="fill:#d40000;fill-opacity:1;fill-rule:evenodd;stroke:none"
             d="m 116.2642,928.9744 c -11.38263,0 -26.330828,-12.935 -26.330828,-31.25968 0,-41.069 0,-391.05837 0,-391.05837 l 16.375278,0 0,-49.02713 49.0242,0 0,49.02713 228.84682,0 0,-49.02713 49.0241,0 0,49.02713 16.37525,0 c 0,0 0,349.98937 0,391.05837 0,19.57426 -16.95056,31.25968 -26.3308,31.25968 -85.91458,0 -221.06944,0 -306.98402,0 z"
             id="path8348"
             inkscape:connector-curvature="0" />
          <path
             sodipodi:type="arc"
             style="fill:#d40000;fill-opacity:1;fill-rule:nonzero;stroke:none"
             id="path8380"
             sodipodi:cx="-277.79196"
             sodipodi:cy="309.08118"
             sodipodi:rx="27.274118"
             sodipodi:ry="27.274118"
             d="m -250.51784,309.08118 c 0,15.06308 -12.21104,27.27412 -27.27412,27.27412 -15.06308,0 -27.27412,-12.21104 -27.27412,-27.27412 0,-15.06308 12.21104,-27.27412 27.27412,-27.27412 15.06308,0 27.27412,12.21104 27.27412,27.27412 z"
             transform="matrix(1.659258,0,0,-1.659361,730.6847,1041.523)" />
        </g>
      </g>
    </g>
  </g>
</svg>
