<?xml version="1.0" encoding="UTF-8" standalone="no"?>
<!-- Created with Inkscape (http://www.inkscape.org/) -->
<svg
   xmlns:dc="http://purl.org/dc/elements/1.1/"
   xmlns:cc="http://web.resource.org/cc/"
   xmlns:rdf="http://www.w3.org/1999/02/22-rdf-syntax-ns#"
   xmlns:svg="http://www.w3.org/2000/svg"
   xmlns="http://www.w3.org/2000/svg"
   xmlns:sodipodi="http://sodipodi.sourceforge.net/DTD/sodipodi-0.dtd"
   xmlns:inkscape="http://www.inkscape.org/namespaces/inkscape"
   width="500.00006"
   height="500"
   id="svg8160"
   sodipodi:version="0.32"
   inkscape:version="0.44.1"
   version="1.0"
   sodipodi:docbase="C:\Documents and Settings\Damian\Pulpit\znaki drogowe\svg"
   sodipodi:docname="Znak B-27.svg">
  <defs
     id="defs8162" />
  <sodipodi:namedview
     id="base"
     pagecolor="#ffffff"
     bordercolor="#666666"
     borderopacity="1.0"
     gridtolerance="10000"
     guidetolerance="10"
     objecttolerance="10"
     inkscape:pageopacity="0.0"
     inkscape:pageshadow="2"
     inkscape:zoom="0.49497475"
     inkscape:cx="666.64978"
     inkscape:cy="309.60202"
     inkscape:document-units="px"
     inkscape:current-layer="g8370"
     width="500px"
     height="500px"
     inkscape:window-width="853"
     inkscape:window-height="573"
     inkscape:window-x="87"
     inkscape:window-y="55" />
  <metadata
     id="metadata8165">
    <rdf:RDF>
      <cc:Work
         rdf:about="">
        <dc:format>image/svg+xml</dc:format>
        <dc:type
           rdf:resource="http://purl.org/dc/dcmitype/StillImage" />
      </cc:Work>
    </rdf:RDF>
  </metadata>
  <g
     inkscape:label="Layer 1"
     inkscape:groupmode="layer"
     id="layer1"
     transform="translate(-263.1575,-23.72572)">
    <g
       id="g3067"
       transform="matrix(0.401786,0,0,-0.401761,312.2645,529.9748)">
      <g
         id="g8360">
        <g
           id="g8370"
           transform="translate(-5.004519e-5,-55.48709)">
          <path
             sodipodi:nodetypes="csccccccccccsss"
             style="fill:#a9a8a7;fill-opacity:1;fill-rule:evenodd;stroke:none;stroke-width:1px;stroke-linecap:butt;stroke-linejoin:miter;stroke-opacity:1"
             d="M -2544.8608,1258.9974 C -2556.2434,1258.9974 -2571.1916,1246.0624 -2571.1916,1227.7378 C -2571.1916,1186.6688 -2571.1916,836.67941 -2571.1916,836.67941 L -2554.8163,836.67941 L -2554.8163,787.65228 L -2505.7921,787.65228 L -2505.7921,836.67941 L -2276.9453,836.67941 L -2276.9453,787.65228 L -2227.9212,787.65228 L -2227.9212,836.67941 L -2211.546,836.67941 C -2211.546,836.67941 -2211.546,1186.6688 -2211.546,1227.7378 C -2211.546,1247.312 -2228.4965,1258.9974 -2237.8768,1258.9974 C -2323.7913,1258.9974 -2458.9462,1258.9974 -2544.8608,1258.9974 z "
             id="path8386" />
          <g
             id="g8533"
             transform="matrix(2.488463,0,0,2.488616,-196.8766,-1798.641)">
            <path
               transform="matrix(0.821736,0,0,-0.821736,882.2581,1098.771)"
               d="M -428.57141 118.57164 A 304.28571 304.28571 0 1 1  -1037.1428,118.57164 A 304.28571 304.28571 0 1 1  -428.57141 118.57164 z"
               sodipodi:ry="304.28571"
               sodipodi:rx="304.28571"
               sodipodi:cy="118.57164"
               sodipodi:cx="-732.85712"
               id="path8158"
               style="fill:white;fill-opacity:1;fill-rule:nonzero;stroke:none;stroke-width:119.19999695;stroke-miterlimit:4;stroke-dasharray:none;stroke-dashoffset:0;stroke-opacity:1"
               sodipodi:type="arc" />
            <path
               style="fill:black;fill-opacity:1;fill-rule:nonzero;stroke:none;stroke-width:119.19999695;stroke-miterlimit:4;stroke-dasharray:none;stroke-dashoffset:0;stroke-opacity:1"
               d="M 50.38163,1100.1075 C -4.13969,973.33453 54.49934,826.19673 181.27236,771.67541 C 308.04539,717.15401 455.18313,775.79311 509.70443,902.56612 C 564.22584,1029.3391 505.58673,1176.4769 378.81371,1230.9982 C 252.04078,1285.5196 104.90304,1226.8805 50.38163,1100.1075 z M 52.67828,1099.1198 C 106.65446,1224.6251 252.32064,1282.6778 377.82607,1228.7016 C 503.3314,1174.7254 561.38405,1029.0592 507.40786,903.55388 C 453.43172,778.04848 307.76549,719.99592 182.26012,773.97196 C 56.75468,827.94818 -1.29789,973.61445 52.67828,1099.1198 z "
               id="path3467" />
            <path
               style="fill:black;fill-rule:evenodd;stroke:black;stroke-width:0.56346178px;stroke-linecap:butt;stroke-linejoin:miter;stroke-opacity:1"
               d="M 226.5372,758.24038 C 260.69298,837.65941 380.62806,1116.5323 419.63969,1207.242 C 420.74542,1209.813 398.91062,1221.3662 376.63671,1230.5224 C 355.58113,1239.178 334.06343,1245.5704 333.51012,1244.2838 C 294.43485,1153.4261 184.12587,896.93586 140.40761,795.28224 C 140.22454,794.85646 156.73652,783.65689 176.4447,775.16902 C 199.52452,765.22906 226.36432,757.83841 226.5372,758.24038 z "
               id="path3465"
               sodipodi:nodetypes="cssssss" />
          </g>
          <g
             id="g8548"
             transform="translate(7.437712,-4.307847e-6)">
            <path
               id="path8382"
               d="M 733.70393,835.56944 L 709.75721,745.69416 L 694.75569,730.73817 L 694.75569,595.94855 L 709.75721,595.94855 L 709.75721,551.03419 L 754.66879,551.03419 L 754.66879,595.94855 L 964.31823,595.94855 L 964.31823,551.03419 L 1009.2299,551.03419 L 1009.2299,595.94855 L 1024.2316,595.94855 L 1024.2316,730.73817 L 1009.2299,745.69416 L 985.28319,835.56944 L 733.70393,835.56944 z M 745.67715,820.56691 L 973.30988,820.56691 L 985.28319,760.69669 L 733.70393,760.69669 L 745.67715,820.56691 z "
               style="fill:#a9a8a7;fill-opacity:1;fill-rule:evenodd;stroke:none;stroke-width:1px;stroke-linecap:butt;stroke-linejoin:miter;stroke-opacity:1" />
            <path
               id="path8546"
               d="M -0.15850464,835.56944 L -24.105241,745.69416 L -39.106773,730.73817 L -39.106773,595.94855 L -24.105241,595.94855 L -24.105241,551.03419 L 20.806376,551.03419 L 20.806376,595.94855 L 230.45588,595.94855 L 230.45588,551.03419 L 275.36749,551.03419 L 275.36749,595.94855 L 290.3691,595.94855 L 290.3691,730.73817 L 275.36749,745.69416 L 251.42084,835.56944 L -0.15850464,835.56944 z M 11.814728,820.56691 L 239.44753,820.56691 L 251.42084,760.69669 L -0.15850464,760.69669 L 11.814728,820.56691 z "
               style="fill:#a9a8a7;fill-opacity:1;fill-rule:evenodd;stroke:none;stroke-width:1px;stroke-linecap:butt;stroke-linejoin:miter;stroke-opacity:1" />
          </g>
        </g>
      </g>
    </g>
  </g>
</svg>
