<?xml version="1.0" encoding="UTF-8" standalone="no"?>
<!-- Created with Inkscape (http://www.inkscape.org/) -->

<svg
   xmlns:dc="http://purl.org/dc/elements/1.1/"
   xmlns:cc="http://creativecommons.org/ns#"
   xmlns:rdf="http://www.w3.org/1999/02/22-rdf-syntax-ns#"
   xmlns:svg="http://www.w3.org/2000/svg"
   xmlns="http://www.w3.org/2000/svg"
   xmlns:sodipodi="http://sodipodi.sourceforge.net/DTD/sodipodi-0.dtd"
   xmlns:inkscape="http://www.inkscape.org/namespaces/inkscape"
   version="1.0"
   width="500.00009"
   height="500.00021"
   id="svg2291"
   inkscape:version="0.48.2 r9819"
   sodipodi:docname="AJAX.svg">
  <metadata
     id="metadata12">
    <rdf:RDF>
      <cc:Work
         rdf:about="">
        <dc:format>image/svg+xml</dc:format>
        <dc:type
           rdf:resource="http://purl.org/dc/dcmitype/StillImage" />
      </cc:Work>
    </rdf:RDF>
  </metadata>
  <sodipodi:namedview
     pagecolor="#ffffff"
     bordercolor="#666666"
     borderopacity="1"
     objecttolerance="10"
     gridtolerance="10"
     guidetolerance="10"
     inkscape:pageopacity="0"
     inkscape:pageshadow="2"
     inkscape:window-width="1280"
     inkscape:window-height="1004"
     id="namedview10"
     showgrid="false"
     fit-margin-top="0"
     fit-margin-left="0"
     fit-margin-right="0"
     fit-margin-bottom="0"
     inkscape:zoom="0.9439996"
     inkscape:cx="215.99661"
     inkscape:cy="190.37913"
     inkscape:window-x="-8"
     inkscape:window-y="-8"
     inkscape:window-maximized="1"
     inkscape:current-layer="svg2291" />
  <defs
     id="defs2293" />
  <g
     transform="translate(-104.16968,-150.93351)"
     id="layer1">
    <g
       id="g6035">
      <path
         d="m 390.42439,244.34138 a 140.71134,122.87468 0 1 1 -281.42267,0 140.71134,122.87468 0 1 1 281.42267,0 z"
         transform="matrix(-1.743421,0,0,1.996373,789.5247,-86.86293)"
         style="fill:#ffffff;fill-opacity:1;fill-rule:nonzero;stroke:none"
         id="path8679"
         inkscape:connector-curvature="0" />
      <path
         d="m 354.16972,150.93351 c 138.00256,0 250.00005,112.01821 250.00005,250.01582 0,137.99759 -111.9975,249.98439 -250.00005,249.98438 -138.00256,0 -250.00003,-111.98679 -250.00004,-249.98438 0,-137.9976 111.99748,-250.01582 250.00004,-250.01582 z m 0,48.89701 c -111.02455,0 -201.1314,90.10121 -201.1314,201.11881 1e-5,111.01761 90.10684,201.1188 201.1314,201.1188 111.02457,-10e-6 201.1314,-90.1012 201.1314,-201.1188 0,-111.0176 -90.10684,-201.11881 -201.1314,-201.11881 z"
         style="fill:#d40000;fill-opacity:1;fill-rule:nonzero;stroke:none"
         id="path3063"
         inkscape:connector-curvature="0" />
      <path
         d="m 187.88616,326.15622 c -0.35032,0.0321 -0.22161,1.25378 -0.22161,4.01813 0,44.18575 0,102.11749 0,102.1175 0,0 28.54643,-35.63842 109.99647,-35.63842 114.00237,0 133.89848,-5.82072 133.89848,6.97176 0,13.80506 -19.67375,8.45607 -140.21427,8.45607 -11.46378,0 -34.96654,1.13963 -34.96654,29.92608 0,30.32191 37.3567,33.70432 37.3567,33.70431 0,0 74.16286,-0.97454 124.29019,-0.97453 35.82378,0 40.9974,-43.80961 40.9974,-43.80962 l 20.92608,0 c 4.10682,6.87744 11.89935,11.52963 20.83113,11.52963 13.20151,0 23.91776,-10.15024 23.91781,-22.65446 -5e-5,-12.50423 -10.7163,-22.65446 -23.91781,-22.65446 -9.35443,0 -17.45539,5.10066 -21.38512,12.51916 l -20.37209,0 c 0,0 -6.45286,-35.5656 -28.06499,-35.90829 -12.57389,-0.19938 -99.92931,-1.89316 -133.29697,-6.71687 -95.01549,-13.73568 -108.08685,-41.04079 -109.77486,-40.88599 z m 103.26911,102.90307 c 0.15825,-0.008 0.33041,0 0.49068,0 l 131.27085,0 c 12.14208,1.63877 13.83181,24.48172 0,25.98884 l -131.27085,0 c -12.63285,-1.75231 -12.7229,-23.31838 -0.49068,-25.98884 z"
         style="fill:#000000;fill-rule:evenodd;stroke:none"
         id="path2342"
         inkscape:connector-curvature="0" />
      <rect
         width="467.75986"
         height="49.13353"
         ry="0"
         x="-767.81964"
         y="8.5169086"
         transform="matrix(-0.707129,-0.707085,-0.707129,0.707085,0,0)"
         style="fill:#d40000;fill-opacity:1;fill-rule:nonzero;stroke:none"
         id="rect3274" />
    </g>
  </g>
</svg>
