<?xml version="1.0" encoding="UTF-8" standalone="no"?>
<!-- Created with Inkscape (http://www.inkscape.org/) -->

<svg
   xmlns:dc="http://purl.org/dc/elements/1.1/"
   xmlns:cc="http://creativecommons.org/ns#"
   xmlns:rdf="http://www.w3.org/1999/02/22-rdf-syntax-ns#"
   xmlns:svg="http://www.w3.org/2000/svg"
   xmlns="http://www.w3.org/2000/svg"
   xmlns:sodipodi="http://sodipodi.sourceforge.net/DTD/sodipodi-0.dtd"
   xmlns:inkscape="http://www.inkscape.org/namespaces/inkscape"
   version="1.0"
   width="500.00009"
   height="500.00021"
   id="svg2291"
   sodipodi:version="0.32"
   inkscape:version="0.48.2 r9819"
   sodipodi:docname="AJAX.svg"
   inkscape:output_extension="org.inkscape.output.svg.inkscape">
  <metadata
     id="metadata11">
    <rdf:RDF>
      <cc:Work
         rdf:about="">
        <dc:format>image/svg+xml</dc:format>
        <dc:type
           rdf:resource="http://purl.org/dc/dcmitype/StillImage" />
      </cc:Work>
    </rdf:RDF>
  </metadata>
  <sodipodi:namedview
     inkscape:window-height="1004"
     inkscape:window-width="1280"
     inkscape:pageshadow="2"
     inkscape:pageopacity="0.0"
     guidetolerance="10.0"
     gridtolerance="10.0"
     objecttolerance="10.0"
     borderopacity="1.0"
     bordercolor="#666666"
     pagecolor="#ffffff"
     id="base"
     showgrid="false"
     inkscape:zoom="1.0273417"
     inkscape:cx="-23.622342"
     inkscape:cy="256.65302"
     inkscape:window-x="-8"
     inkscape:window-y="-8"
     inkscape:current-layer="g6035"
     fit-margin-top="0"
     fit-margin-left="0"
     fit-margin-right="0"
     fit-margin-bottom="0"
     inkscape:window-maximized="1" />
  <defs
     id="defs2293" />
  <g
     transform="translate(-104.16968,-150.93351)"
     id="layer1">
    <g
       id="g6035">
      <path
         d="m 390.42439,244.34138 a 140.71134,122.87468 0 1 1 -281.42267,0 140.71134,122.87468 0 1 1 281.42267,0 z"
         transform="matrix(-1.743421,0,0,1.996373,789.5247,-86.86293)"
         style="fill:#ffffff;fill-opacity:1;fill-rule:nonzero;stroke:none"
         id="path8679"
         inkscape:connector-curvature="0" />
      <path
         d="m 354.16972,150.93351 c 138.00256,0 250.00005,112.01821 250.00005,250.01582 0,137.99759 -111.9975,249.98439 -250.00005,249.98438 -138.00256,0 -250.00003,-111.98679 -250.00004,-249.98438 0,-137.9976 111.99748,-250.01582 250.00004,-250.01582 z m 0,48.89701 c -111.02455,0 -201.1314,90.10121 -201.1314,201.11881 1e-5,111.01761 90.10684,201.1188 201.1314,201.1188 111.02457,-10e-6 201.1314,-90.1012 201.1314,-201.1188 0,-111.0176 -90.10684,-201.11881 -201.1314,-201.11881 z"
         style="fill:#d40000;fill-opacity:1;fill-rule:nonzero;stroke:none"
         id="path3063"
         inkscape:connector-curvature="0" />
      <rect
         width="467.76001"
         height="24.566723"
         ry="0"
         x="120.31467"
         y="-413.22247"
         transform="matrix(1,-1.5556318e-5,6.222552e-5,-1,0,0)"
         style="fill:#d40000;fill-opacity:1;fill-rule:nonzero;stroke:none"
         id="rect3274" />
      <g
         id="g3067"
         transform="matrix(0.4331774,0,0,-0.405284,301.95327,508.53345)">
        <g
           transform="matrix(-1,0,0,-1,1733.6902,496.41374)"
           inkscape:label="Layer 1"
           id="g2548">
          <g
             id="g2552"
             transform="matrix(1.0315178,0,0,-1.0315178,1826.9563,577.72801)">
            <g
               transform="translate(-6.1818038,-19.882516)"
               id="g2419">
              <path
                 style="fill:#000000;fill-opacity:1;fill-rule:evenodd;stroke:none"
                 d="m -75.545131,735.98453 23.914129,-89.68341 14.925428,-14.92492 0,-134.50279 -14.925428,0 0,-44.86406 -44.818084,0 0,44.86406 -209.248624,0 0,-44.86406 -44.81807,0 0,44.86406 -14.96724,0 0,134.50279 14.96724,14.92492 23.91413,89.68341 251.056519,0 z m -11.957062,-14.92488 -227.142387,0 -11.95707,-59.78896 251.056519,0 -11.957062,59.78896 z m 13.462149,-116.89679 c -12.37432,-10e-6 -22.409042,-10.01303 -22.409042,-22.38736 2e-5,-12.37432 10.034722,-22.43203 22.409042,-22.43203 12.374311,0 22.409042,10.05771 22.409042,22.43203 0,12.37432 -10.034712,22.38736 -22.409042,22.38736 z m -254.066696,0 c -12.37435,0 -22.40904,-10.01303 -22.40904,-22.38736 -10e-6,-12.37431 10.03472,-22.43203 22.40904,-22.43203 12.37429,-2e-5 22.40903,10.05771 22.40903,22.43203 -1e-5,12.37433 -10.0347,22.38736 -22.40903,22.38736 z m 276.475738,-68.32385 -298.884778,0 0,-14.96959 298.884778,0 0,14.96959 z"
                 id="path2554"
                 inkscape:connector-curvature="0" />
              <g
                 id="g2627"
                 inkscape:label="Layer 1"
                 transform="matrix(-1.017135,0,0,-1.0867041,973.71147,842.86472)">
                <path
                   style="fill:#000000;fill-opacity:1;fill-rule:evenodd;stroke:none"
                   d="m 1137.5017,523.33581 c -11.5396,0 -20.9434,9.41203 -20.9434,20.95167 0,7.36361 3.8465,13.83156 9.6051,17.55605 l -2.5276,5.34629 -8.7384,4.33482 c -2.386,1.18895 -3.6894,4.18745 -4.2609,6.79124 l -16.9713,77.23217 -54.8137,0 0,12.93223 -38.7812,12.85999 -12.85481,51.6567 12.85481,0 c 0,28.49878 23.1374,51.65669 51.6361,51.65669 19.0957,-2e-5 35.7708,-10.07627 44.7031,-25.50324 l 86.7341,0 28.1651,-51.94567 7.7996,0 c -3.871,7.78003 -6.0664,16.5177 -6.0664,25.79222 l 0,25.79222 13.4326,0 c 8.9323,15.42697 25.6074,25.86447 44.7032,25.86447 28.4987,-2e-5 51.636,-23.15791 51.636,-51.65669 0,-16.88026 -8.1149,-31.90253 -20.6544,-41.32536 l 3.8276,-5.12954 c -9.7117,-7.30179 -21.7322,-11.63179 -34.8092,-11.63179 -8.5775,0 -16.7185,1.8597 -24.0488,5.20179 l -11.7715,-18.13402 15.888,0 2.1666,-25.79223 -33.8704,0 -1.5166,-5.85201 0.5055,-3.90135 c 0.3442,-2.81491 -1.9995,-5.25751 -4.6942,-6.14101 l -7.3662,-2.38416 -34.3759,-17.48379 -33.1482,-29.69358 1.0833,-5.70752 c 10.3283,-1.26831 18.3434,-10.06558 18.3434,-20.73492 0,-11.53964 -9.3314,-20.95167 -20.871,-20.95167 z m 14.0103,95.43845 11.0494,5.77977 34.2315,7.22472 c 0,0 7.0506,3.42407 8.8106,3.97359 1.4793,0.46189 4.6942,0.0722 4.6942,0.0722 l 1.9498,2.09517 -36.398,1.95068 -17.8379,13.43796 -17.7657,-6.06876 4.1888,-12.64325 7.0773,-15.82212 z m -99.8056,75.64274 c 11.3708,0 21.6118,4.95303 28.6707,12.78775 -9.5701,0.1818 -19.1251,0.28325 -28.6707,0 -14.4304,0 -26.143,11.36171 -26.143,25.79222 0,14.43051 11.7124,26.15345 26.143,26.15345 l 28.6707,0 c -7.0589,7.83472 -17.2999,12.42652 -28.6707,12.42652 -21.2891,0 -38.5646,-17.29091 -38.5646,-38.57997 0,-21.28906 17.2755,-38.57997 38.5646,-38.57997 z m 219.4713,0 c 21.289,0 38.5645,17.29093 38.5645,38.57997 0,21.28906 -17.2755,38.57997 -38.5645,38.57997 -21.2891,0 -38.5646,-17.29091 -38.5646,-38.57997 0,-12.06851 5.5404,-22.83819 14.227,-29.91031 l 7.7996,9.60886 c -5.8849,4.79368 -9.605,12.12344 -9.605,20.30145 0,14.43051 11.7124,26.15345 26.143,26.15345 14.4305,0 26.1429,-11.72294 26.1429,-26.15345 0,-14.43051 -11.7125,-26.15346 -26.1429,-26.15346 -2.124,0 -4.2335,0.24388 -6.2108,0.72247 l -7.0052,-10.76482 c 4.124,-1.50605 8.5723,-2.38416 13.216,-2.38416 z m -90.3451,12.78775 12.8549,0 -12.8549,19.36223 0,-19.36223 z"
                   id="motocyklista"
                   inkscape:connector-curvature="0" />
              </g>
            </g>
          </g>
        </g>
      </g>
    </g>
  </g>
</svg>
