<?xml version="1.0" encoding="UTF-8" standalone="no"?>
<!-- Created with Inkscape (http://www.inkscape.org/) -->

<svg
   xmlns:dc="http://purl.org/dc/elements/1.1/"
   xmlns:cc="http://creativecommons.org/ns#"
   xmlns:rdf="http://www.w3.org/1999/02/22-rdf-syntax-ns#"
   xmlns:svg="http://www.w3.org/2000/svg"
   xmlns="http://www.w3.org/2000/svg"
   xmlns:sodipodi="http://sodipodi.sourceforge.net/DTD/sodipodi-0.dtd"
   xmlns:inkscape="http://www.inkscape.org/namespaces/inkscape"
   version="1.0"
   width="500.00009"
   height="500.00021"
   id="svg2291"
   sodipodi:version="0.32"
   inkscape:version="0.48.2 r9819"
   sodipodi:docname="AJAX.svg"
   inkscape:output_extension="org.inkscape.output.svg.inkscape">
  <metadata
     id="metadata11">
    <rdf:RDF>
      <cc:Work
         rdf:about="">
        <dc:format>image/svg+xml</dc:format>
        <dc:type
           rdf:resource="http://purl.org/dc/dcmitype/StillImage" />
      </cc:Work>
    </rdf:RDF>
  </metadata>
  <sodipodi:namedview
     inkscape:window-height="1004"
     inkscape:window-width="1280"
     inkscape:pageshadow="2"
     inkscape:pageopacity="0.0"
     guidetolerance="10.0"
     gridtolerance="10.0"
     objecttolerance="10.0"
     borderopacity="1.0"
     bordercolor="#666666"
     pagecolor="#ffffff"
     id="base"
     showgrid="false"
     inkscape:zoom="0.65995531"
     inkscape:cx="205.41944"
     inkscape:cy="223.18666"
     inkscape:window-x="-8"
     inkscape:window-y="-8"
     inkscape:current-layer="g6035"
     fit-margin-top="0"
     fit-margin-left="0"
     fit-margin-right="0"
     fit-margin-bottom="0"
     inkscape:window-maximized="1" />
  <defs
     id="defs2293" />
  <g
     transform="translate(-104.16968,-150.93351)"
     id="layer1">
    <g
       id="g6035">
      <path
         d="m 390.42439,244.34138 a 140.71134,122.87468 0 1 1 -281.42267,0 140.71134,122.87468 0 1 1 281.42267,0 z"
         transform="matrix(-1.743421,0,0,1.996373,789.5247,-86.86293)"
         style="fill:#ffffff;fill-opacity:1;fill-rule:nonzero;stroke:none"
         id="path8679"
         inkscape:connector-curvature="0" />
      <path
         d="m 354.16972,150.93351 c 138.00256,0 250.00005,112.01821 250.00005,250.01582 0,137.99759 -111.9975,249.98439 -250.00005,249.98438 -138.00256,0 -250.00003,-111.98679 -250.00004,-249.98438 0,-137.9976 111.99748,-250.01582 250.00004,-250.01582 z m 0,48.89701 c -111.02455,0 -201.1314,90.10121 -201.1314,201.11881 1e-5,111.01761 90.10684,201.1188 201.1314,201.1188 111.02457,-10e-6 201.1314,-90.1012 201.1314,-201.1188 0,-111.0176 -90.10684,-201.11881 -201.1314,-201.11881 z"
         style="fill:#d40000;fill-opacity:1;fill-rule:nonzero;stroke:none"
         id="path3063"
         inkscape:connector-curvature="0" />
      <path
         style="fill:#d40000;fill-opacity:1;fill-rule:nonzero;stroke:none"
         d="M 237.71875,16.125 237.719,237.71921 41.3125,356.3125 53.59375,377.59375 250,259.00021 446.40625,377.59375 458.6875,356.3125 262.281,237.71921 262.28125,16.125 l -24.5625,0 z"
         transform="translate(104.1697,150.9335)"
         id="rect3274"
         sodipodi:nodetypes="cccccccccc"
         inkscape:connector-curvature="0" />
      <g
         id="g3067"
         transform="matrix(0.4331774,0,0,-0.405284,-132.29591,489.87401)">
        <g
           transform="matrix(-1,0,0,-1,1733.6902,496.41374)"
           inkscape:label="Layer 1"
           id="g2548">
          <g
             id="g2552"
             transform="matrix(1.0315178,0,0,-1.0315178,1826.9563,577.72801)">
            <g
               transform="translate(-6.1818038,-19.882516)"
               id="g2419">
              <path
                 style="fill:#000000;fill-opacity:1;fill-rule:evenodd;stroke:none"
                 d="m -831.17924,605.19261 23.91413,-89.68341 14.92543,-14.92492 0,-134.50279 -14.92543,0 0,-44.86406 -44.81808,0 0,44.86406 -209.24861,0 0,-44.86406 -44.8181,0 0,44.86406 -14.9672,0 0,134.50279 14.9672,14.92492 23.9141,89.68341 251.05656,0 z m -11.95706,-14.92488 -227.1424,0 -11.9571,-59.78896 251.05656,0 -11.95706,59.78896 z m 13.46215,-116.89679 c -12.37432,-1e-5 -22.40904,-10.01303 -22.40904,-22.38736 2e-5,-12.37432 10.03472,-22.43203 22.40904,-22.43203 12.37431,0 22.40904,10.05771 22.40904,22.43203 0,12.37432 -10.03471,22.38736 -22.40904,22.38736 z m -254.06665,0 c -12.3744,0 -22.4091,-10.01303 -22.4091,-22.38736 0,-12.37431 10.0347,-22.43203 22.4091,-22.43203 12.3742,-2e-5 22.409,10.05771 22.409,22.43203 0,12.37433 -10.0347,22.38736 -22.409,22.38736 z m 276.47569,-68.32385 -298.88479,0 0,-14.96959 298.88479,0 0,14.96959 z"
                 id="path2554"
                 inkscape:connector-curvature="0" />
              <g
                 id="g2627"
                 inkscape:label="Layer 1"
                 transform="matrix(-1.0756934,0,0,-1.1492677,-164.64451,1222.9953)">
                <path
                   style="fill:#000000;fill-opacity:1;fill-rule:evenodd;stroke:none"
                   d="m 1137.5017,523.33581 c -11.5396,0 -20.9434,9.41203 -20.9434,20.95167 0,7.36361 3.8465,13.83156 9.6051,17.55605 l -2.5276,5.34629 -8.7384,4.33482 c -2.386,1.18895 -3.6894,4.18745 -4.2609,6.79124 l -16.9713,77.23217 -54.8137,0 0,12.93223 -38.7812,12.85999 -12.85481,51.6567 12.85481,0 c 0,28.49878 23.1374,51.65669 51.6361,51.65669 19.0957,-2e-5 35.7708,-10.07627 44.7031,-25.50324 l 86.7341,0 28.1651,-51.94567 7.7996,0 c -3.871,7.78003 -6.0664,16.5177 -6.0664,25.79222 l 0,25.79222 13.4326,0 c 8.9323,15.42697 25.6074,25.86447 44.7032,25.86447 28.4987,-2e-5 51.636,-23.15791 51.636,-51.65669 0,-16.88026 -8.1149,-31.90253 -20.6544,-41.32536 l 3.8276,-5.12954 c -9.7117,-7.30179 -21.7322,-11.63179 -34.8092,-11.63179 -8.5775,0 -16.7185,1.8597 -24.0488,5.20179 l -11.7715,-18.13402 15.888,0 2.1666,-25.79223 -33.8704,0 -1.5166,-5.85201 0.5055,-3.90135 c 0.3442,-2.81491 -1.9995,-5.25751 -4.6942,-6.14101 l -7.3662,-2.38416 -34.3759,-17.48379 -33.1482,-29.69358 1.0833,-5.70752 c 10.3283,-1.26831 18.3434,-10.06558 18.3434,-20.73492 0,-11.53964 -9.3314,-20.95167 -20.871,-20.95167 z m 14.0103,95.43845 11.0494,5.77977 34.2315,7.22472 c 0,0 7.0506,3.42407 8.8106,3.97359 1.4793,0.46189 4.6942,0.0722 4.6942,0.0722 l 1.9498,2.09517 -36.398,1.95068 -17.8379,13.43796 -17.7657,-6.06876 4.1888,-12.64325 7.0773,-15.82212 z m -99.8056,75.64274 c 11.3708,0 21.6118,4.95303 28.6707,12.78775 -9.5701,0.1818 -19.1251,0.28325 -28.6707,0 -14.4304,0 -26.143,11.36171 -26.143,25.79222 0,14.43051 11.7124,26.15345 26.143,26.15345 l 28.6707,0 c -7.0589,7.83472 -17.2999,12.42652 -28.6707,12.42652 -21.2891,0 -38.5646,-17.29091 -38.5646,-38.57997 0,-21.28906 17.2755,-38.57997 38.5646,-38.57997 z m 219.4713,0 c 21.289,0 38.5645,17.29093 38.5645,38.57997 0,21.28906 -17.2755,38.57997 -38.5645,38.57997 -21.2891,0 -38.5646,-17.29091 -38.5646,-38.57997 0,-12.06851 5.5404,-22.83819 14.227,-29.91031 l 7.7996,9.60886 c -5.8849,4.79368 -9.605,12.12344 -9.605,20.30145 0,14.43051 11.7124,26.15345 26.143,26.15345 14.4305,0 26.1429,-11.72294 26.1429,-26.15345 0,-14.43051 -11.7125,-26.15346 -26.1429,-26.15346 -2.124,0 -4.2335,0.24388 -6.2108,0.72247 l -7.0052,-10.76482 c 4.124,-1.50605 8.5723,-2.38416 13.216,-2.38416 z m -90.3451,12.78775 12.8549,0 -12.8549,19.36223 0,-19.36223 z"
                   id="motocyklista"
                   inkscape:connector-curvature="0" />
              </g>
              <g
                 transform="matrix(-0.9999994,0,0,-1.0688239,938.9505,1166.8942)"
                 id="g2732"
                 inkscape:label="Layer 1">
                <g
                   transform="matrix(1.005657,0,0,1.005593,-3.345478,-3.616951)"
                   id="g5756">
                  <g
                     id="g5670"
                     transform="matrix(1.0697299,0,0,1.0697299,1075.5074,753.51667)">
                    <g
                       transform="translate(30.30458,-105.0559)"
                       id="g3865">
                      <g
                         transform="matrix(0.396471,0,0,0.396471,730.3361,190.6416)"
                         id="kolo-przod"
                         style="fill:#000000;fill-opacity:1;stroke:none">
                        <path
                           id="opona"
                           d="M 235.40625,400 C 146.67242,401.12523 75,473.50078 75,562.5 75,652.2 147.8,725 237.5,725 327.2,725 400,652.2 400,562.5 400,472.8 327.2,400 237.5,400 c -0.70078,0 -1.39506,-0.009 -2.09375,0 z m 0.3125,25 c 0.5912,-0.007 1.18828,0 1.78125,0 C 313.4,425 375,486.6 375,562.5 375,638.4 313.4,700 237.5,700 161.6,700 100,638.4 100,562.5 100,487.19297 160.63628,425.95212 235.71875,425 z"
                           style="fill:#000000;fill-opacity:1;fill-rule:nonzero;stroke:none"
                           inkscape:connector-curvature="0" />
                        <path
                           d="m 262.5,562.5 c 0,13.80712 -11.19288,25 -25,25 -13.80712,0 -25,-11.19288 -25,-25 0,-13.80712 11.19288,-25 25,-25 13.80712,0 25,11.19288 25,25 z"
                           sodipodi:ry="25"
                           sodipodi:rx="25"
                           sodipodi:cy="562.5"
                           sodipodi:cx="237.5"
                           id="piasta"
                           style="fill:#000000;fill-opacity:1;fill-rule:nonzero;stroke:none"
                           sodipodi:type="arc" />
                      </g>
                      <g
                         id="kolo-tyl"
                         transform="matrix(0.396471,0,0,0.396471,938.4834,190.6416)"
                         style="fill:#000000;fill-opacity:1;stroke:none">
                        <path
                           id="path1324"
                           d="M 235.40625,400 C 146.67242,401.12523 75,473.50078 75,562.5 75,652.2 147.8,725 237.5,725 327.2,725 400,652.2 400,562.5 400,472.8 327.2,400 237.5,400 c -0.70078,0 -1.39506,-0.009 -2.09375,0 z m 0.3125,25 c 0.5912,-0.007 1.18828,0 1.78125,0 C 313.4,425 375,486.6 375,562.5 375,638.4 313.4,700 237.5,700 161.6,700 100,638.4 100,562.5 100,487.19297 160.63628,425.95212 235.71875,425 z"
                           style="fill:#000000;fill-opacity:1;fill-rule:nonzero;stroke:none"
                           inkscape:connector-curvature="0" />
                        <path
                           d="m 262.5,562.5 c 0,13.80712 -11.19288,25 -25,25 -13.80712,0 -25,-11.19288 -25,-25 0,-13.80712 11.19288,-25 25,-25 13.80712,0 25,11.19288 25,25 z"
                           sodipodi:ry="25"
                           sodipodi:rx="25"
                           sodipodi:cy="562.5"
                           sodipodi:cx="237.5"
                           id="path1326"
                           style="fill:#000000;fill-opacity:1;fill-rule:nonzero;stroke:none"
                           sodipodi:type="arc" />
                      </g>
                      <path
                         style="fill:none;stroke:#000000;stroke-width:9.91177464;stroke-linecap:butt;stroke-linejoin:miter;stroke-miterlimit:4;stroke-opacity:1;stroke-dasharray:none"
                         d="m 943.43926,413.65654 89.20594,0"
                         id="wzdlozlancucha"
                         inkscape:connector-curvature="0" />
                      <path
                         style="fill:none;stroke:#000000;stroke-width:9.91177464;stroke-linecap:butt;stroke-linejoin:miter;stroke-miterlimit:4;stroke-opacity:1;stroke-dasharray:none"
                         d="M 943.43926,413.65654 847.69152,333.37116"
                         id="ukos-damka"
                         inkscape:connector-curvature="0" />
                      <path
                         style="fill:none;stroke:#000000;stroke-width:12.81200218;stroke-linecap:butt;stroke-linejoin:miter;stroke-miterlimit:4;stroke-opacity:1;stroke-dasharray:none"
                         d="m 943.43926,413.65654 39.6471,-123.89719"
                         id="slupek-siodelko"
                         inkscape:connector-curvature="0" />
                      <path
                         style="fill:none;stroke:#000000;stroke-width:9.93202972;stroke-linecap:butt;stroke-linejoin:miter;stroke-miterlimit:4;stroke-opacity:1;stroke-dasharray:none"
                         d="m 1037.5848,393.45814 -59.77293,-91.08885 60.46393,92.14204"
                         id="poprzeczka"
                         sodipodi:nodetypes="ccc"
                         inkscape:connector-curvature="0" />
                      <path
                         style="fill:none;stroke:#000000;stroke-width:9.91177464;stroke-linecap:butt;stroke-linejoin:miter;stroke-miterlimit:4;stroke-opacity:1;stroke-dasharray:none"
                         d="m 824.49796,413.65654 c 0,0 36.0294,-126.24483 36.67357,-127.8619 2.73105,-6.85585 3.63598,-9.17434 11.89413,-10.90295 1.20635,-0.25252 15.85884,0 15.85884,0"
                         id="kierownica"
                         sodipodi:nodetypes="cssc"
                         inkscape:connector-curvature="0" />
                      <path
                         transform="matrix(0.396471,0,0,0.396471,730.3361,190.6416)"
                         sodipodi:type="arc"
                         style="fill:#000000;fill-opacity:1;fill-rule:nonzero;stroke:none"
                         id="kolo=pedalowe"
                         sodipodi:cx="537.5"
                         sodipodi:cy="562.5"
                         sodipodi:rx="50"
                         sodipodi:ry="50"
                         d="m 587.5,562.5 c 0,27.61424 -22.38576,50 -50,50 -27.61424,0 -50,-22.38576 -50,-50 0,-27.61424 22.38576,-50 50,-50 27.61424,0 50,22.38576 50,50 z" />
                      <path
                         style="fill:#000000;fill-opacity:1;fill-rule:evenodd;stroke:none"
                         d="m 978.13047,299.67113 29.73533,0 0,-19.82355 c 0,0 -59.36042,-0.55235 -64.42654,0 -4.70178,0.51262 -2.90665,9.05571 0,9.91177 49.4917,14.57622 34.69121,9.91178 34.69121,9.91178 z"
                         id="siodelko"
                         sodipodi:nodetypes="ccczsc"
                         inkscape:connector-curvature="0" />
                      <path
                         style="fill:#000000;fill-opacity:1;fill-rule:nonzero;stroke:#000000;stroke-width:0.2586599;stroke-miterlimit:4;stroke-opacity:1;stroke-dasharray:none;stroke-dashoffset:0"
                         d="m 848.29502,354.23182 c -35.45705,-14.67428 -75.97754,1.29077 -92.13401,35.65888 l 26.3754,10.91573 105.76567,43.77226 c 12.85604,-35.73403 -4.55001,-75.67258 -40.00706,-90.34687 z m -7.02415,16.97224 c 24.94642,10.32434 35.1724,38.07947 28.67968,57.05352 l -89.27143,-36.94594 c 8.81479,-18.01304 35.64535,-30.43192 60.59175,-20.10758 z"
                         id="path2063"
                         sodipodi:nodetypes="ccccccccc"
                         inkscape:transform-center-y="-17.990787"
                         inkscape:transform-center-x="-1.0492184"
                         inkscape:connector-curvature="0" />
                      <path
                         style="fill:#000000;fill-opacity:1;fill-rule:nonzero;stroke:#000000;stroke-width:0.2586599;stroke-miterlimit:4;stroke-opacity:1;stroke-dasharray:none;stroke-dashoffset:0"
                         d="m 1033.376,349.04556 c -38.3737,0 -69.70931,30.24686 -71.49526,68.18113 l 28.54496,0 114.4657,0 c -1.7859,-37.93427 -33.1417,-68.18112 -71.5154,-68.18113 z m 0,18.36833 c 26.9984,0 47.0609,21.73513 48.3175,41.7499 l -96.61478,0 c 1.25654,-20.01478 21.29878,-41.7499 48.29728,-41.7499 z"
                         id="path2089"
                         sodipodi:nodetypes="ccccccccc"
                         inkscape:connector-curvature="0" />
                    </g>
                    <path
                       sodipodi:nodetypes="cccssssss"
                       id="path2093"
                       d="m 865.1111,225.46803 c -6.42857,-9.46429 -5.35715,-16.96428 4.28571,-20.71428 45.80412,-22.50821 57.65627,45.53827 100.00001,77.92857 6.26551,3.36028 13.04046,-6.04501 19.54702,-3.58406 36.52086,13.81315 80.71156,6.672 95.73866,10.51263 19.1511,4.89462 19.8215,18.17858 -14.9999,28.71429 -34.8215,10.53571 -62.9362,10.93537 -118.85721,7.14286 -39.28701,-2.66441 3.27819,-27.48025 -2.85714,-33.57143 -24.34315,-24.168 -66.28223,-42.02659 -82.85715,-66.42858 z"
                       style="fill:#000000;fill-opacity:1;fill-rule:evenodd;stroke:#000000;stroke-width:5.5999999;stroke-linecap:butt;stroke-linejoin:miter;stroke-miterlimit:4;stroke-opacity:1;stroke-dasharray:none"
                       inkscape:connector-curvature="0" />
                    <rect
                       ry="3.2974274"
                       y="343.80176"
                       x="950.20184"
                       height="6.5948548"
                       width="26.170092"
                       id="rect4781"
                       style="fill:#000000;fill-opacity:1;fill-rule:nonzero;stroke:#000000;stroke-width:3.90589237;stroke-miterlimit:4;stroke-opacity:1;stroke-dasharray:none;stroke-dashoffset:0" />
                    <path
                       id="path4783"
                       d="m 968.74146,349.16717 c 0.86567,-0.17313 20.25671,-20.2567 20.25671,-20.2567"
                       style="fill:none;stroke:#000000;stroke-width:2.46807623;stroke-linecap:butt;stroke-linejoin:miter;stroke-miterlimit:4;stroke-opacity:1;stroke-dasharray:none"
                       inkscape:connector-curvature="0" />
                  </g>
                </g>
              </g>
            </g>
          </g>
        </g>
      </g>
    </g>
  </g>
</svg>
