<?xml version="1.0" encoding="UTF-8" standalone="no"?>
<!-- Created with Inkscape (http://www.inkscape.org/) -->
<svg
   xmlns:dc="http://purl.org/dc/elements/1.1/"
   xmlns:cc="http://creativecommons.org/ns#"
   xmlns:rdf="http://www.w3.org/1999/02/22-rdf-syntax-ns#"
   xmlns:svg="http://www.w3.org/2000/svg"
   xmlns="http://www.w3.org/2000/svg"
   xmlns:sodipodi="http://sodipodi.sourceforge.net/DTD/sodipodi-0.dtd"
   xmlns:inkscape="http://www.inkscape.org/namespaces/inkscape"
   width="497.19662"
   height="497.2099"
   id="svg2"
   sodipodi:version="0.32"
   inkscape:version="0.46"
   version="1.0"
   sodipodi:docname="Znak_B-3.svg"
   inkscape:output_extension="org.inkscape.output.svg.inkscape">
  <defs
     id="defs4">
    <inkscape:perspective
       sodipodi:type="inkscape:persp3d"
       inkscape:vp_x="0 : 248.60495 : 1"
       inkscape:vp_y="0 : 1000 : 0"
       inkscape:vp_z="497.19662 : 248.60495 : 1"
       inkscape:persp3d-origin="248.59831 : 165.73663 : 1"
       id="perspective17" />
  </defs>
  <sodipodi:namedview
     id="base"
     pagecolor="#ffffff"
     bordercolor="#666666"
     borderopacity="1.0"
     inkscape:pageopacity="0.0"
     inkscape:pageshadow="2"
     inkscape:zoom="0.7509474"
     inkscape:cx="256.69225"
     inkscape:cy="215.12844"
     inkscape:document-units="px"
     inkscape:current-layer="g2394"
     inkscape:window-width="1280"
     inkscape:window-height="712"
     inkscape:window-x="-4"
     inkscape:window-y="-4"
     showgrid="false"
     fit-margin-top="0"
     fit-margin-left="0"
     fit-margin-right="0"
     fit-margin-bottom="0"
     inkscape:window-maximized="1" />
  <metadata
     id="metadata7">
    <rdf:RDF>
      <cc:Work
         rdf:about="">
        <dc:format>image/svg+xml</dc:format>
        <dc:type
           rdf:resource="http://purl.org/dc/dcmitype/StillImage" />
        <dc:title>PL - Znak drogowy B3</dc:title>
        <dc:date>03.07.2006</dc:date>
        <dc:creator>
          <cc:Agent>
            <dc:title>MaciekS</dc:title>
          </cc:Agent>
        </dc:creator>
        <dc:rights>
          <cc:Agent>
            <dc:title>Free</dc:title>
          </cc:Agent>
        </dc:rights>
        <dc:subject>
          <rdf:Bag>
            <rdf:li>Znak zakazu</rdf:li>
            <rdf:li>znak B3</rdf:li>
          </rdf:Bag>
        </dc:subject>
        <dc:description>Znaki drogowe -Polska. Wykonane na podstawie załącznika do Ustawy.</dc:description>
        <cc:license
           rdf:resource="http://web.resource.org/cc/PublicDomain" />
        <dc:publisher>
          <cc:Agent>
            <dc:title>Wikipedia</dc:title>
          </cc:Agent>
        </dc:publisher>
      </cc:Work>
      <cc:License
         rdf:about="http://web.resource.org/cc/PublicDomain">
        <cc:permits
           rdf:resource="http://web.resource.org/cc/Reproduction" />
        <cc:permits
           rdf:resource="http://web.resource.org/cc/Distribution" />
        <cc:permits
           rdf:resource="http://web.resource.org/cc/DerivativeWorks" />
      </cc:License>
    </rdf:RDF>
  </metadata>
  <g
     inkscape:label="Layer 1"
     inkscape:groupmode="layer"
     id="layer1"
     transform="translate(-1.4016024,-1.3885009)">
    <path
       sodipodi:type="arc"
       style="fill:#d40000;fill-opacity:1;fill-rule:nonzero;stroke:none"
       id="path3063"
       sodipodi:cx="484.56226"
       sodipodi:cy="627.25543"
       sodipodi:rx="179.35739"
       sodipodi:ry="175.39369"
       d="m 663.91965,627.25543 c 0,96.86726 -80.30104,175.39369 -179.35739,175.39369 -99.05636,0 -179.3574,-78.52643 -179.3574,-175.39369 0,-96.86726 80.30104,-175.39369 179.3574,-175.39369 99.05635,0 179.35739,78.52643 179.35739,175.39369 z"
       transform="matrix(1.38605,0,0,1.417411,-421.6276,-639.0853)"
       inkscape:label="tarcza" />
    <path
       sodipodi:type="arc"
       style="fill:#ffffff;fill-opacity:1;fill-rule:nonzero;stroke:none"
       id="path6586"
       sodipodi:cx="249.71306"
       sodipodi:cy="244.34138"
       sodipodi:rx="140.71133"
       sodipodi:ry="122.87468"
       d="m 390.42439,244.34138 c 0,67.86182 -62.99861,122.87468 -140.71133,122.87468 -77.71273,0 -140.71134,-55.01286 -140.71134,-122.87468 0,-67.86181 62.99861,-122.87467 140.71134,-122.87467 77.71272,0 140.71133,55.01286 140.71133,122.87467 z"
       transform="matrix(1.42135,0,0,1.627675,-104.9296,-147.7083)" />
    <g
       id="g3067"
       transform="matrix(0.5,0,0,-0.5,0,493.75)" />
    <g
       id="g2394"
       transform="translate(-8.5266113e-5,-6.5506907e-3)">
      <path
         inkscape:connector-curvature="0"
         style="fill:#000000;fill-opacity:1;fill-rule:evenodd;stroke:none"
         d="M 325,325 L 325,250 L 250,250 L 250,325 L 225,325 L 225,550 L 250,575 L 290,725 L 710,725 L 750,575 L 775,550 L 775,325 L 750,325 L 750,250 L 675,250 L 675,325 L 325,325 z"
         id="path1307"
         transform="matrix(0.5,0,0,-0.5,0,493.75)" />
      <path
         inkscape:connector-curvature="0"
         style="fill:#ffffff;fill-opacity:1;fill-rule:evenodd;stroke:none"
         d="M 290,600 L 310,700 L 690,700 L 710,600 L 290,600 z"
         id="path2186"
         transform="matrix(0.5,0,0,-0.5,0,493.75)" />
      <path
         sodipodi:type="arc"
         style="fill:#ffffff;fill-opacity:1;fill-rule:nonzero;stroke:none"
         id="path3061"
         sodipodi:cx="324.03241"
         sodipodi:cy="506.36258"
         sodipodi:rx="34.682369"
         sodipodi:ry="32.70052"
         d="M 358.71478,506.36258 A 34.682369,32.70052 0 1 1 289.35004,506.36258 A 34.682369,32.70052 0 1 1 358.71478,506.36258 z"
         transform="matrix(0.5406205,0,0,-0.5733855,-31.428565,542.65981)" />
      <path
         sodipodi:type="arc"
         style="fill:#ffffff;fill-opacity:1;fill-rule:nonzero;stroke:none"
         id="path3122"
         sodipodi:cx="324.03241"
         sodipodi:cy="506.36258"
         sodipodi:rx="34.682369"
         sodipodi:ry="32.70052"
         d="M 358.71478,506.36258 A 34.682369,32.70052 0 1 1 289.35004,506.36258 A 34.682369,32.70052 0 1 1 358.71478,506.36258 z"
         transform="matrix(0.5406205,0,0,-0.5733855,181.07145,542.65987)" />
      <rect
         style="fill:#ffffff;fill-opacity:1;fill-rule:nonzero;stroke:none"
         id="rect3065"
         width="250"
         height="12.5"
         x="125"
         y="-296.06891"
         transform="scale(1,-1)" />
      <path
         transform="translate(1.4016024,-10.611499)"
         d="M 238.22975,245.32666 A 1.8832392,0.47080979 0 1 1 234.46327,245.32666 A 1.8832392,0.47080979 0 1 1 238.22975,245.32666 z"
         sodipodi:ry="0.47080979"
         sodipodi:rx="1.8832392"
         sodipodi:cy="245.32666"
         sodipodi:cx="236.34651"
         id="path3758"
         style="fill:#d40000;fill-opacity:1;stroke:none"
         sodipodi:type="arc" />
    </g>
  </g>
</svg>
