<?xml version="1.0" encoding="UTF-8" standalone="no"?>
<!-- Created with Inkscape (http://www.inkscape.org/) -->
<svg
   xmlns:svg="http://www.w3.org/2000/svg"
   xmlns="http://www.w3.org/2000/svg"
   version="1.0"
   width="499.99985"
   height="500.15622"
   id="svg6045">
  <defs
     id="defs6047" />
  <g
     transform="translate(-90.0001,-265.141)"
     id="layer1">
    <g
       id="g7025">
      <path
         d="M 589.99993,515.21917 C 590.0433,653.32079 478.10183,765.29728 340.00003,765.29728 C 201.89822,765.29728 89.956735,653.32079 90.000115,515.21917 C 89.956735,377.11754 201.89822,265.14105 340.00003,265.14105 C 478.10183,265.14105 590.0433,377.11754 589.99993,515.21917 L 589.99993,515.21917 z "
         style="fill:white;fill-opacity:1;fill-rule:nonzero;stroke:none;stroke-width:119.19999695;stroke-miterlimit:4;stroke-dasharray:none;stroke-dashoffset:0;stroke-opacity:1"
         id="path8158" />
      <path
         d="M 110.37781,416.46541 C 55.865838,543.21664 114.49482,690.32921 241.2462,744.84118 C 367.99758,799.35323 515.11019,740.72419 569.62217,613.97291 C 624.13429,487.22167 565.50516,340.1091 438.75378,285.59715 C 312.00255,231.0851 164.88993,289.71414 110.37781,416.46541 z M 112.67406,417.45294 C 166.64104,291.96916 312.28234,233.92642 437.76635,287.89336 C 563.25023,341.8603 621.29297,487.50152 567.32599,612.98533 C 513.35908,738.4692 367.71772,796.51181 242.23377,742.54502 C 116.74975,688.57806 58.707155,542.93677 112.67406,417.45294 z "
         style="fill:black;fill-opacity:1;fill-rule:nonzero;stroke:none;stroke-width:119.19999695;stroke-miterlimit:4;stroke-dasharray:none;stroke-dashoffset:0;stroke-opacity:1"
         id="path3467" />
      <path
         d="M 137.71919,425.33497 C 137.2981,425.37359 137.45282,426.84204 137.45282,430.16486 C 137.45282,483.27718 137.45282,552.91251 137.45282,552.91252 C 137.45282,552.91252 171.7663,510.07429 269.67117,510.07429 C 406.70471,510.07429 430.62031,503.07765 430.62031,518.45452 C 430.62031,535.04852 406.972,528.61891 262.07944,528.61891 C 248.29971,528.61891 220.04884,529.98877 220.04884,564.59077 C 220.04884,601.03841 264.95248,605.10416 264.95248,605.10414 C 264.95248,605.10414 354.09799,603.93272 414.35222,603.93273 C 457.41325,603.93273 463.63206,551.27254 463.63206,551.27253 L 488.78571,551.27253 C 493.7222,559.53938 503.089,565.13142 513.82521,565.13142 C 529.69374,565.13142 542.57492,552.93059 542.57499,537.90023 C 542.57492,522.86985 529.69374,510.66903 513.82521,510.66903 C 502.58097,510.66903 492.84342,516.80015 488.1198,525.71735 L 463.63206,525.71735 C 463.63206,525.71735 455.87557,482.96666 429.89728,482.55474 C 414.78317,482.31508 309.77989,480.27912 269.67117,474.48091 C 155.46031,457.97029 139.74823,425.1489 137.71919,425.33497 z M 261.85111,549.0269 C 262.04133,549.01683 262.24827,549.0269 262.44092,549.0269 L 420.23157,549.0269 C 434.82665,550.99674 436.85774,578.4545 420.23157,580.2661 L 262.44092,580.2661 C 247.25594,578.15979 247.14769,552.23686 261.85111,549.0269 z "
         style="fill:#b7b7b7;fill-opacity:1;fill-rule:evenodd;stroke:#b7b7b7;stroke-width:2.84431148;stroke-linecap:butt;stroke-linejoin:miter;stroke-miterlimit:4;stroke-dasharray:none;stroke-opacity:1"
         id="path2342" />
      <path
         d="M 286.50334,758.27388 C 320.65324,678.86846 440.56789,400.04339 479.5728,309.34925 C 480.67835,306.77869 458.84732,295.22747 436.5772,286.07284 C 415.5252,277.41873 394.01118,271.02742 393.45799,272.3138 C 354.38933,363.15592 244.0992,619.60218 200.38846,721.23836 C 200.20541,721.66407 216.71456,732.86173 236.41934,741.34814 C 259.49523,751.28639 286.33049,758.67578 286.50334,758.27388 z "
         style="fill:black;fill-rule:evenodd;stroke:black;stroke-width:0.56336534px;stroke-linecap:butt;stroke-linejoin:miter;stroke-opacity:1"
         id="path3465" />
    </g>
  </g>
</svg>
