<?xml version="1.0" encoding="UTF-8" standalone="no"?>
<!-- Created with Inkscape (http://www.inkscape.org/) -->

<svg
   xmlns:dc="http://purl.org/dc/elements/1.1/"
   xmlns:cc="http://creativecommons.org/ns#"
   xmlns:rdf="http://www.w3.org/1999/02/22-rdf-syntax-ns#"
   xmlns:svg="http://www.w3.org/2000/svg"
   xmlns="http://www.w3.org/2000/svg"
   xmlns:sodipodi="http://sodipodi.sourceforge.net/DTD/sodipodi-0.dtd"
   xmlns:inkscape="http://www.inkscape.org/namespaces/inkscape"
   version="1.0"
   width="497.1875"
   height="497.21875"
   id="svg8039"
   sodipodi:version="0.32"
   inkscape:version="0.48.2 r9819"
   sodipodi:docname="AJAX.svg"
   inkscape:output_extension="org.inkscape.output.svg.inkscape">
  <metadata
     id="metadata14">
    <rdf:RDF>
      <cc:Work
         rdf:about="">
        <dc:format>image/svg+xml</dc:format>
        <dc:type
           rdf:resource="http://purl.org/dc/dcmitype/StillImage" />
      </cc:Work>
    </rdf:RDF>
  </metadata>
  <sodipodi:namedview
     inkscape:window-height="1004"
     inkscape:window-width="1280"
     inkscape:pageshadow="2"
     inkscape:pageopacity="0.0"
     guidetolerance="10.0"
     gridtolerance="10.0"
     objecttolerance="10.0"
     borderopacity="1.0"
     bordercolor="#666666"
     pagecolor="#ffffff"
     id="base"
     showgrid="false"
     inkscape:zoom="0.86264828"
     inkscape:cx="63.476144"
     inkscape:cy="231.4133"
     inkscape:window-x="-8"
     inkscape:window-y="-8"
     inkscape:current-layer="g8101"
     fit-margin-top="0"
     fit-margin-left="0"
     fit-margin-right="0"
     fit-margin-bottom="0"
     inkscape:window-maximized="1" />
  <defs
     id="defs8041" />
  <g
     transform="translate(-124.99985,-285.14332)"
     id="layer1">
    <g
       id="g8101">
      <g
         transform="translate(123.5936,283.7527)"
         id="g8079">
        <path
           d="m 473.58524,250.34829 a 225.65636,229.7136 0 0 1 -451.312723,0 225.65636,229.7136 0 1 1 451.312723,0 z"
           style="fill:#ffffff;fill-opacity:1;fill-rule:nonzero;stroke:none"
           id="path8679"
           inkscape:connector-curvature="0" />
        <path
           d="m 250,1.390623 c -137.22627,0 -248.59375,111.395057 -248.59375,248.625007 0,137.22993 111.36749,248.59376 248.59375,248.59375 137.22627,0 248.59374,-111.36382 248.59375,-248.59375 C 498.59375,112.78569 387.22627,1.390623 250,1.390623 z m 0,48.625 c 110.40002,1e-6 200,89.599987 200,200.000007 -10e-6,110.40003 -89.59997,200 -200,200 -110.40004,-10e-6 -200,-89.59998 -200,-200 C 50,139.61561 139.59997,50.015623 250,50.015623 z"
           style="fill:#d40000;fill-opacity:1;fill-rule:nonzero;stroke:none"
           id="path3063"
           inkscape:connector-curvature="0" />
      </g>
      <g
         transform="translate(1.193183e-6,-2.760189)"
         id="g8096">
        <path
           d="m 212.06547,514.54291 329.23646,0 c 36.24727,0 36.39795,44.88476 0,44.88476 l -329.23646,0 c -39.09763,0 -42.49215,-44.88476 0,-44.88476 z"
           style="fill:#000000;fill-opacity:1;fill-rule:nonzero;stroke:none"
           id="rect8083"
           inkscape:connector-curvature="0" />
      </g>
      <g
         transform="matrix(0.7304712,0,0,0.582418,-4335.8366,4521.0003)"
         id="g3011" />
      <g
         style="fill:#000000"
         id="g3396"
         transform="matrix(21.98635,0,0,21.99026,-18078.657,-23724.254)">
        <g
           style="fill:#000000"
           transform="translate(134.2857,-4.285714)"
           id="g3398" />
        <g
           style="fill:#000000"
           transform="translate(29.68471,14.06375)"
           id="g3404" />
      </g>
      <g
         transform="matrix(0.3699959,0,0,0.3699959,-1082.2934,-291.85017)"
         id="g4805"
         inkscape:label="Warstwa 1">
        <g
           transform="matrix(14.8746,0,0,14.86043,-37574.7,-34487.9)"
           id="g4807">
          <g
             id="g8849">
            <g
               transform="translate(0,-0.021442)"
               id="g8778">
              <g
                 id="g9349"
                 style="fill:#ffffff"
                 transform="matrix(1.052479,0,0,1.050851,3039.18,2247.03)" />
            </g>
          </g>
        </g>
      </g>
      <g
         id="g6223"
         transform="translate(12,-8.6471175)">
        <g
           transform="matrix(0.9451756,0,0,0.9451756,8.7503477,28.454496)"
           id="g5296">
          <path
             id="path5708"
             style="fill:#000000;fill-opacity:1;stroke:none"
             d="m 338.22094,454.90688 c -3.55855,0 -6.89642,0.95049 -9.77907,2.60268 l 0,-0.0906 c -5.44533,3.09955 -9.27464,8.71526 -9.90208,15.2605 l 0,3.80126 c 0.62744,6.54591 4.45675,12.15216 9.90208,15.25239 l 0,-0.0162 c 0.72072,0.41238 1.46765,0.78689 2.24142,1.10733 0.19385,0.0804 0.38669,0.15616 0.5831,0.23052 0.19656,0.0744 0.4,0.14534 0.59953,0.21362 0.19925,0.0676 0.39702,0.13521 0.59932,0.19672 0.40446,0.12304 0.81642,0.2312 1.23149,0.32855 0.20757,0.0487 0.41413,0.0974 0.62399,0.13926 0.21014,0.0426 0.42001,0.0798 0.63244,0.11492 0.21203,0.0358 0.42582,0.0622 0.64042,0.0906 0.19168,0.025 0.3808,0.0541 0.57465,0.0737 0.28976,0.0297 0.58506,0.0487 0.87854,0.0656 0.0413,0.002 0.0819,0.006 0.12335,0.008 0.0384,0.002 0.0764,-10e-4 0.11477,0 0.28773,0.0129 0.57931,0.0243 0.87022,0.025 0.022,0 0.0437,0 0.0658,0 0.3291,-6.8e-4 0.65157,-0.009 0.97695,-0.025 0.011,0 0.022,6.8e-4 0.0327,0 0.32545,-0.0169 0.64826,-0.0412 0.96918,-0.0737 0.0106,-6.8e-4 0.0219,10e-4 0.0327,0 0.65197,-0.0676 1.29773,-0.16563 1.9297,-0.29542 2.22952,-0.45632 4.319,-1.28985 6.2072,-2.4303 l 0,2.81563 c -0.61338,5.82392 -4.28602,8.68214 -9.82834,9.56434 -2.26217,0 -4.34503,-0.77066 -6.00187,-2.06118 l -6.04309,8.06155 c 0.62987,0.46578 1.28637,0.89167 1.97066,1.28106 l 0,-0.0169 c 0.72051,0.41305 1.46765,0.78756 2.24142,1.10867 0.19344,0.0798 0.38648,0.15549 0.5831,0.22917 0.19655,0.075 0.39979,0.14602 0.59912,0.21362 0.19945,0.0683 0.39702,0.13521 0.59932,0.1974 0.40466,0.12304 0.81662,0.23053 1.23189,0.32855 0.20757,0.0487 0.41372,0.0974 0.624,0.13926 0.20986,0.0419 0.41993,0.0791 0.63203,0.11492 0.21244,0.0352 0.42602,0.0615 0.64021,0.0906 0.1923,0.0243 0.38142,0.0541 0.57506,0.073 0.28976,0.0304 0.5852,0.0487 0.87854,0.0656 0.0413,0.003 0.0819,0.007 0.12294,0.009 0.0384,0.002 0.0768,-0.002 0.11511,0 0.288,0.0129 0.57931,0.0243 0.87015,0.025 0.0221,0 0.044,0 0.0658,0 0.3295,-6.8e-4 0.65177,-0.008 0.97715,-0.025 0.011,0 0.0222,6.8e-4 0.0329,0 0.32518,-0.0169 0.64826,-0.0412 0.96898,-0.0744 0.0107,-6.8e-4 0.022,10e-4 0.0329,0 0.65198,-0.0669 1.29753,-0.16563 1.92909,-0.29475 2.56944,-0.52662 4.96105,-1.55282 7.06127,-2.97178 0.002,-10e-4 0.007,0.001 0.008,0 5.26013,-3.65457 8.5978,-9.66372 8.68668,-16.04874 l 0.21358,-39.40392 -9.78704,0 0,2.82442 c -2.96545,-1.78808 -6.43525,-2.82442 -10.14845,-2.82442 z m 0.29564,9.98213 c 5.3995,0 9.78704,4.3867 9.78704,9.7854 0,5.39871 -4.38754,9.7773 -9.78704,9.7773 -5.39997,0 -9.77887,-4.37859 -9.77887,-9.7773 0,-5.3987 4.3789,-9.7854 9.77887,-9.7854 z"
             inkscape:connector-curvature="0" />
          <g
             id="g5275">
            <path
               id="path4370"
               style="fill:#000000;fill-opacity:1;stroke:none"
               d="m 422.60097,435.30031 -9.77832,9.69009 0,9.57516 -7.58834,0 0,9.78879 7.58834,0 0,12.69567 c -0.13681,9.37439 4.9628,16.68488 14.76647,17.06412 l 4.96287,-9.72929 c -2.77822,0 -3.05582,0 -6.48101,0 -1.32186,0 -3.47001,-2.57699 -3.47001,-3.95202 0,-4.96875 0,-16.07848 0,-16.07848 l 7.57239,0 0,-9.78879 -7.57239,0 0,-19.26525 z"
               inkscape:connector-curvature="0" />
            <path
               id="path4649"
               style="fill:#000000;fill-opacity:1;stroke:none"
               d="m 495.31985,454.90492 c -10.83828,0 -19.63452,8.78016 -19.63452,19.60055 0,10.81972 8.79624,19.59988 19.63452,19.59988 4.23898,0 8.16184,-1.35137 11.37196,-3.63429 l 0.95714,3.64308 9.75183,0 -2.54436,-9.57178 0,-8.03654 c 0.067,-0.65845 0.0982,-1.32433 0.0982,-2.00035 0,-0.6767 -0.0312,-1.34258 -0.0982,-2.00102 l 0,-17.5921 -9.75196,0 0,2.60539 c -2.88164,-1.65761 -6.22167,-2.61282 -9.78461,-2.61282 z m 0.29462,9.93075 c 4.61201,0 8.4787,3.20636 9.48999,7.50518 l 0,4.45971 c -1.01129,4.29679 -4.87798,7.49708 -9.48999,7.49708 -5.38037,0 -9.74372,-4.35628 -9.74372,-9.7266 0,-5.37166 4.36335,-9.73537 9.74372,-9.73537 z"
               inkscape:connector-curvature="0" />
            <path
               id="path4665"
               style="fill:#000000;fill-opacity:1;stroke:none"
               d="m 295.74207,454.90492 c -10.87328,0 -19.69811,8.78286 -19.69811,19.60528 0,10.82175 8.82483,19.60394 19.69811,19.60394 10.87336,0 19.69805,-8.78219 19.69805,-19.60394 0,-10.82242 -8.82469,-19.60528 -19.69805,-19.60528 z m 0.29551,9.93277 c 5.39767,0 9.78332,4.36507 9.78332,9.73741 0,5.37234 -4.38565,9.72862 -9.78332,9.72862 -5.39768,0 -9.77515,-4.35628 -9.77515,-9.72862 0,-5.37234 4.37747,-9.73741 9.77515,-9.73741 z"
               inkscape:connector-curvature="0" />
            <path
               d="m 381.31985,454.90492 c -10.83828,0 -19.63452,8.78016 -19.63452,19.60055 0,10.81972 8.79624,19.59988 19.63452,19.59988 4.23898,0 8.16184,-1.35137 11.37196,-3.63429 l 0.95714,3.64308 9.75183,0 -2.54436,-9.57178 0,-8.03654 c 0.067,-0.65845 0.0982,-1.32433 0.0982,-2.00035 0,-0.6767 -0.0312,-1.34258 -0.0982,-2.00102 l 0,-17.5921 -9.75196,0 0,2.60539 c -2.88164,-1.65761 -6.22167,-2.61282 -9.78461,-2.61282 z m 0.29462,9.93075 c 4.61201,0 8.4787,3.20636 9.48999,7.50518 l 0,4.45971 c -1.01129,4.29679 -4.87798,7.49708 -9.48999,7.49708 -5.38037,0 -9.74372,-4.35628 -9.74372,-9.7266 0,-5.37166 4.36335,-9.73537 9.74372,-9.73537 z"
               style="fill:#000000;fill-opacity:1;stroke:none"
               id="path5252"
               inkscape:connector-curvature="0" />
            <g
               transform="matrix(0.2407658,0,0,0.2407658,140.37267,584.41753)"
               id="g5236">
              <g
                 transform="matrix(24.12743,0,0,23.99522,-1907.368,-5643.379)"
                 id="g9677">
                <g
                   transform="translate(63.4565,-31.94113)"
                   id="g9396">
                  <g
                     transform="matrix(0.0674273,0,0,0.07080033,39.16136,177.0295)"
                     id="g8070" />
                  <g
                     transform="matrix(0.0674273,0,0,0.09527638,-76.77098,150.027)"
                     id="g8074" />
                </g>
                <g
                   transform="translate(467.627,12.45117)"
                   id="g8350">
                  <g
                     transform="matrix(0.260999,0,0,0.439416,-607.27,585.5121)"
                     id="g5881">
                    <g
                       transform="matrix(0.129076,0,0,0.09519717,575.6726,288.6603)"
                       id="g3072" />
                  </g>
                  <g
                     transform="matrix(1,0,0,0.999633,7.21672,-12.39608)"
                     style="fill:#ffffff"
                     id="g8315" />
                </g>
                <g
                   transform="translate(475,0)"
                   style="fill:#000000"
                   id="g9658">
                  <g
                     transform="translate(-0.01804875,0)"
                     style="fill:#000000"
                     id="g9359">
                    <path
                       d="m -380.10395,209.37448 0,10.18222 1.74068,0 0,-4.23499 1.40427,0 2.50197,4.23499 1.97878,0 -2.64167,-4.47146 c 0.51216,-0.39436 1.4085,-1.29 1.4085,-2.73359 0,-2.19583 -1.75779,-2.97717 -1.75779,-2.97717 l -2.89406,0 -1.74068,0 z m 4.11864,1.69656 c 0,0 0.59735,0.64 0.59735,1.28061 0,0.64063 -0.59735,1.28204 -0.59735,1.28204 l -2.37796,0 0,-2.53843 2.37796,-0.0242 z"
                       style="fill:#000000;fill-opacity:1;stroke:none"
                       id="path9317"
                       inkscape:connector-curvature="0" />
                  </g>
                  <g
                     transform="translate(0.488281,0)"
                     id="g9386"
                     style="fill:#000000" />
                </g>
              </g>
            </g>
          </g>
        </g>
        <g
           inkscape:label="Layer 1"
           id="g6146"
           transform="matrix(1.3312616,0,0,1.3312616,-5269.9091,4722.342)">
          <g
             id="g2631"
             transform="translate(-1030.621,-1685.5114)">
            <g
               id="g5641"
               transform="translate(1375.4193,-196.19726)"
               style="fill:#000000">
              <path
                 d="m 3932.1476,-1335.2666 0,41.8948 7.0776,0 0,-10.6494 2.1656,0 8.4629,10.6494 7.7936,0 -9.9299,-13.7032 9.4956,-14.0665 -7.7937,0 -7.5354,10.1338 -2.6587,0 0,-24.2589 -7.0776,0 z"
                 style="fill:#000000;fill-opacity:1;stroke:none"
                 id="path5605"
                 inkscape:connector-curvature="0" />
            </g>
          </g>
        </g>
      </g>
      <g
         id="g6159"
         transform="matrix(0.9451756,0,0,0.9451756,16.859996,34.664495)">
        <path
           id="path2827"
           style="fill:#000000;fill-opacity:1;stroke:none"
           d="m 478.31372,583.23922 0,39.21192 9.75284,0 0,-24.80186 c 0.35418,-1.06135 3.07157,-4.58275 7.15874,-4.58275 5.33164,0 7.13407,4.89575 7.13407,4.89575 l 0.16525,24.48886 9.74676,0 0.0305,-24.48886 c -0.78885,-9.70766 -7.56516,-14.72306 -14.42731,-14.72306 -5.21038,0 -8.87782,2.84537 -9.808,3.61468 l 0,-3.61468 -9.75284,0 z"
           inkscape:connector-curvature="0" />
        <path
           d="m 344.51398,583.24192 c -10.87329,0 -19.69812,8.78287 -19.69812,19.60529 0,10.82174 8.82483,19.60393 19.69812,19.60393 10.87335,0 19.69805,-8.78219 19.69805,-19.60393 0,-10.82242 -8.8247,-19.60529 -19.69805,-19.60529 z m 0.2955,9.93278 c 5.39768,0 9.78333,4.36507 9.78333,9.73741 0,5.37233 -4.38565,9.72861 -9.78333,9.72861 -5.39767,0 -9.77515,-4.35628 -9.77515,-9.72861 0,-5.37234 4.37748,-9.73741 9.77515,-9.73741 z"
           style="fill:#000000;fill-opacity:1;stroke:none"
           id="path4813"
           inkscape:connector-curvature="0" />
        <path
           id="path4815"
           style="fill:#000000;fill-opacity:1;stroke:none"
           d="m 456.49759,583.24192 c -10.87329,0 -19.69812,8.78287 -19.69812,19.60529 0,10.82174 8.82483,19.60393 19.69812,19.60393 10.87335,0 19.69804,-8.78219 19.69804,-19.60393 0,-10.82242 -8.82469,-19.60529 -19.69804,-19.60529 z m 0.2955,9.93278 c 5.39768,0 9.78333,4.36507 9.78333,9.73741 0,5.37233 -4.38565,9.72861 -9.78333,9.72861 -5.39768,0 -9.77515,-4.35628 -9.77515,-9.72861 0,-5.37234 4.37747,-9.73741 9.77515,-9.73741 z"
           inkscape:connector-curvature="0" />
        <path
           d="m 534.44906,583.23854 c -10.82313,0 -19.60707,8.78219 -19.60707,19.60258 0,10.81972 8.78394,19.60191 19.60707,19.60191 4.23296,0 8.15042,-1.35204 11.35601,-3.63429 l 0.95573,3.6424 9.73824,0 -2.54078,-9.57245 0,-8.03654 c 0.0669,-0.65912 0.0981,-1.325 0.0981,-2.00103 0,-0.67669 -0.0312,-1.34257 -0.0981,-2.00102 l 0,-17.59277 -9.73824,0 0,2.60539 c -2.87765,-1.65828 -6.21302,-2.61418 -9.77096,-2.61418 z m 0.29415,9.9321 c 4.60559,0 8.46688,3.20705 9.47681,7.50587 l 0,4.45971 c -1.00993,4.29746 -4.87122,7.49775 -9.47681,7.49775 -5.3728,0 -9.73006,-4.35628 -9.73006,-9.72727 0,-5.37166 4.35726,-9.73606 9.73006,-9.73606 z"
           style="fill:#000000;fill-opacity:1;stroke:none"
           id="path5684"
           inkscape:connector-curvature="0" />
        <g
           inkscape:label="Warstwa 1"
           id="g4034"
           transform="matrix(0.4072631,0,0,0.4072631,-1091.1771,-516.21675)">
          <g
             id="g8869"
             transform="matrix(14.8746,0,0,14.86043,-37574.7,-34487.9)">
            <g
               id="g8822">
              <g
                 id="g8805">
                <g
                   style="fill:#ffffff"
                   id="g8716">
                  <path
                     id="path8696"
                     style="fill:#000000;fill-opacity:1;stroke:none"
                     d="m 2773.1159,2499.1816 0,9.75 -1.6479,0 0,-0.431 c -0.4797,0.2745 -1.0351,0.431 -1.6274,0.431 -1.8102,0 -3.2795,-1.4666 -3.2795,-3.2737 0,-1.8071 1.4693,-3.2736 3.2795,-3.2736 0.5923,0 1.1477,0.1579 1.6274,0.4324 l 0,-3.6351 1.6479,0 z m -3.3245,4.8613 c -0.8986,0 -1.6288,0.7289 -1.6288,1.626 0,0.8969 0.7302,1.6245 1.6288,1.6245 0.8987,0 1.6274,-0.7276 1.6274,-1.6245 0,-0.8971 -0.7287,-1.626 -1.6274,-1.626 z"
                     inkscape:connector-curvature="0" />
                </g>
              </g>
            </g>
          </g>
        </g>
        <g
           inkscape:label="Warstwa 1"
           id="g4928"
           transform="matrix(0.4067902,0,0,0.4067902,-1107.4787,-609.93888)">
          <g
             id="g4930"
             transform="matrix(14.8746,0,0,14.86043,-37574.7,-34487.9)">
            <g
               id="g4932">
              <g
                 id="g4935">
                <g
                   style="fill:#ffffff"
                   id="g4937" />
                <g
                   transform="translate(-0.1011,0)"
                   id="g8796">
                  <g
                     id="g8771"
                     style="fill:#ffffff">
                    <path
                       d="m 2741.9692,2518.1542 c 0,1.258 0.027,2.457 0,3.666 0,1.563 1.276,2.834 2.849,2.834 1.505,0 2.835,-1.145 2.835,-2.834 0,-1.627 0,-3.666 0,-3.666 l -1.596,0 c 0.01,1.237 -0.025,2.466 0,3.71 0,0.679 -0.554,1.229 -1.235,1.229 -0.57,0 -1.05,-0.385 -1.193,-0.908 l 0.031,-4.031 -1.682,0 z"
                       style="fill:#000000;fill-opacity:1;stroke:none"
                       id="path8758"
                       inkscape:connector-curvature="0" />
                  </g>
                </g>
              </g>
            </g>
          </g>
        </g>
        <g
           transform="matrix(0.240737,0,0,0.240737,100.22636,624.59177)"
           id="g5670">
          <g
             transform="matrix(24.12743,0,0,23.99522,-1907.368,-5643.379)"
             id="g5672">
            <g
               transform="translate(63.4565,-31.94113)"
               id="g5674">
              <g
                 transform="matrix(0.0674273,0,0,0.07080033,39.16136,177.0295)"
                 id="g5676" />
              <g
                 transform="matrix(0.0674273,0,0,0.09527638,-76.77098,150.027)"
                 id="g5678" />
            </g>
            <g
               transform="translate(467.627,12.45117)"
               id="g5680">
              <g
                 transform="matrix(0.260999,0,0,0.439416,-607.27,585.5121)"
                 id="g5682">
                <g
                   transform="matrix(0.129076,0,0,0.09519717,575.6726,288.6603)"
                   id="g5684" />
              </g>
              <g
                 transform="matrix(1,0,0,0.999633,7.21672,-12.39608)"
                 style="fill:#ffffff"
                 id="g5687" />
            </g>
            <g
               transform="translate(475,0)"
               style="fill:#000000"
               id="g5689">
              <g
                 transform="translate(-0.01804875,0)"
                 style="fill:#000000"
                 id="g5691" />
              <g
                 transform="translate(0.488281,0)"
                 id="g5693"
                 style="fill:#000000">
                <path
                   d="m -343.3115,228.02891 0,1.68572 2.33046,0 -2.33046,4.26664 0,0.83579 4.62682,0 0,-1.68573 -2.35178,0 2.35178,-4.38117 0,-0.72125 -4.62682,0 z"
                   style="fill:#000000;fill-opacity:1;stroke:none"
                   id="path9343"
                   inkscape:connector-curvature="0" />
              </g>
            </g>
          </g>
        </g>
        <g
           id="g5697"
           transform="matrix(0.240737,0,0,0.240737,-47.773639,624.59177)">
          <g
             id="g5699"
             transform="matrix(24.12743,0,0,23.99522,-1907.368,-5643.379)">
            <g
               id="g5701"
               transform="translate(63.4565,-31.94113)">
              <g
                 id="g5703"
                 transform="matrix(0.0674273,0,0,0.07080033,39.16136,177.0295)" />
              <g
                 id="g5705"
                 transform="matrix(0.0674273,0,0,0.09527638,-76.77098,150.027)" />
            </g>
            <g
               id="g5707"
               transform="translate(467.627,12.45117)">
              <g
                 id="g5709"
                 transform="matrix(0.260999,0,0,0.439416,-607.27,585.5121)">
                <g
                   id="g5711"
                   transform="matrix(0.129076,0,0,0.09519717,575.6726,288.6603)" />
              </g>
              <g
                 id="g5713"
                 style="fill:#ffffff"
                 transform="matrix(1,0,0,0.999633,7.21672,-12.39608)" />
            </g>
            <g
               id="g5715"
               style="fill:#000000"
               transform="translate(475,0)">
              <g
                 id="g5717"
                 style="fill:#000000"
                 transform="translate(-0.01804875,0)" />
              <g
                 style="fill:#000000"
                 id="g5719"
                 transform="translate(0.488281,0)">
                <path
                   id="path5721"
                   style="fill:#000000;fill-opacity:1;stroke:none"
                   d="m -343.3115,228.02891 0,1.68572 2.33046,0 -2.33046,4.26664 0,0.83579 4.62682,0 0,-1.68573 -2.35178,0 2.35178,-4.38117 0,-0.72125 -4.62682,0 z"
                   inkscape:connector-curvature="0" />
              </g>
            </g>
          </g>
        </g>
        <g
           inkscape:label="Warstwa 1"
           id="g5784"
           transform="matrix(0.369884,0,0,0.369884,-1096.8821,-293.4107)">
          <g
             id="g5786"
             transform="matrix(14.8746,0,0,14.86043,-37574.7,-34487.9)">
            <g
               id="g5788">
              <g
                 id="g5790"
                 transform="translate(0,-0.021442)">
                <g
                   transform="translate(-110.3516,20.89844)"
                   id="g7653">
                  <g
                     id="g7649"
                     transform="matrix(0.08630775,0,0,0.07466136,2490.274,2203.982)" />
                  <g
                     id="g7645"
                     style="fill:#ffffff"
                     transform="translate(109.2336,-21.3297)" />
                </g>
                <g
                   transform="matrix(1.052479,0,0,1.050851,3039.18,2247.03)"
                   style="fill:#ffffff"
                   id="g5795">
                  <path
                     d="m -255.46356,221.97996 c -0.0701,7.2e-4 -0.14162,0.002 -0.21639,0.004 -0.83801,1e-5 -1.5496,0.84631 -1.5496,1.73098 0.007,1.04644 0.50845,1.44742 1.28551,1.97387 0.97913,0.59736 1.30523,0.49714 1.2261,1.23989 -0.33293,0.8142 -1.83338,0.33258 -2.60176,0.0965 l -0.40729,1.26535 c 0.64275,0.27039 1.33531,0.44268 2.01522,0.47729 1.07446,-1e-5 2.38116,-0.37801 2.38116,-2.03432 0.0698,-0.87278 -0.55855,-1.41125 -1.04367,-1.72992 -0.42802,-0.37431 -1.42193,-0.59308 -1.42869,-1.26747 0.19613,-0.69755 1.20324,-0.31056 1.679,-0.15168 l 0.01,-1.47642 c -0.46735,-0.0983 -0.85825,-0.13333 -1.34914,-0.12834 z"
                     style="fill:#000000;fill-opacity:1;stroke:none"
                     id="path8365"
                     inkscape:connector-curvature="0" />
                </g>
              </g>
            </g>
            <g
               id="g5798">
              <g
                 id="g5800">
                <g
                   style="fill:#ffffff"
                   id="g5802" />
                <g
                   transform="translate(-0.1011,0)"
                   id="g5804">
                  <g
                     id="g5806"
                     style="fill:#ffffff" />
                </g>
              </g>
            </g>
          </g>
        </g>
        <g
           transform="matrix(1.4084803,0,0,1.4084803,-5732.8437,5094.4894)"
           id="g6151"
           inkscape:label="Layer 1">
          <g
             transform="translate(-1030.621,-1685.5114)"
             id="g6153">
            <g
               style="fill:#000000"
               transform="translate(1375.4193,-196.19726)"
               id="g6155">
              <path
                 id="path6157"
                 style="fill:#000000;fill-opacity:1;stroke:none"
                 d="m 3932.1476,-1335.2666 0,41.8948 7.0776,0 0,-10.6494 2.1656,0 8.4629,10.6494 7.7936,0 -9.9299,-13.7032 9.4956,-14.0665 -7.7937,0 -7.5354,10.1338 -2.6587,0 0,-24.2589 -7.0776,0 z"
                 inkscape:connector-curvature="0" />
            </g>
          </g>
        </g>
      </g>
    </g>
  </g>
</svg>
