<?xml version="1.0" encoding="UTF-8" standalone="no"?>
<!-- Created with Inkscape (http://www.inkscape.org/) -->

<svg
   xmlns:dc="http://purl.org/dc/elements/1.1/"
   xmlns:cc="http://creativecommons.org/ns#"
   xmlns:rdf="http://www.w3.org/1999/02/22-rdf-syntax-ns#"
   xmlns:svg="http://www.w3.org/2000/svg"
   xmlns="http://www.w3.org/2000/svg"
   xmlns:sodipodi="http://sodipodi.sourceforge.net/DTD/sodipodi-0.dtd"
   xmlns:inkscape="http://www.inkscape.org/namespaces/inkscape"
   version="1.0"
   width="497.1875"
   height="497.21875"
   id="svg8039"
   sodipodi:version="0.32"
   inkscape:version="0.48.2 r9819"
   sodipodi:docname="AJAX.svg"
   inkscape:output_extension="org.inkscape.output.svg.inkscape">
  <metadata
     id="metadata14">
    <rdf:RDF>
      <cc:Work
         rdf:about="">
        <dc:format>image/svg+xml</dc:format>
        <dc:type
           rdf:resource="http://purl.org/dc/dcmitype/StillImage" />
      </cc:Work>
    </rdf:RDF>
  </metadata>
  <sodipodi:namedview
     inkscape:window-height="1004"
     inkscape:window-width="1280"
     inkscape:pageshadow="2"
     inkscape:pageopacity="0.0"
     guidetolerance="10.0"
     gridtolerance="10.0"
     objecttolerance="10.0"
     borderopacity="1.0"
     bordercolor="#666666"
     pagecolor="#ffffff"
     id="base"
     showgrid="false"
     inkscape:zoom="0.92400012"
     inkscape:cx="122.00118"
     inkscape:cy="167.16585"
     inkscape:window-x="-8"
     inkscape:window-y="-8"
     inkscape:current-layer="g8101"
     fit-margin-top="0"
     fit-margin-left="0"
     fit-margin-right="0"
     fit-margin-bottom="0"
     inkscape:window-maximized="1" />
  <defs
     id="defs8041" />
  <g
     transform="translate(-124.99985,-285.14332)"
     id="layer1">
    <g
       id="g8101">
      <g
         transform="translate(123.5936,283.7527)"
         id="g8079">
        <path
           d="m 493.83078,251.85622 a 241.34199,242.42422 0 0 1 -482.683983,0 241.34199,242.42422 0 1 1 482.683983,0 z"
           style="fill:#ffffff;fill-opacity:1;fill-rule:nonzero;stroke:none"
           id="path8679"
           inkscape:connector-curvature="0" />
        <path
           d="m 250,1.390623 c -137.22627,0 -248.59375,111.395057 -248.59375,248.625007 0,137.22993 111.36749,248.59376 248.59375,248.59375 137.22627,0 248.59374,-111.36382 248.59375,-248.59375 C 498.59375,112.78569 387.22627,1.390623 250,1.390623 z m 0,48.625 c 110.40002,1e-6 200,89.599987 200,200.000007 -10e-6,110.40003 -89.59997,200 -200,200 -110.40004,-10e-6 -200,-89.59998 -200,-200 C 50,139.61561 139.59997,50.015623 250,50.015623 z"
           style="fill:#d40000;fill-opacity:1;fill-rule:nonzero;stroke:none"
           id="path3063"
           inkscape:connector-curvature="0" />
      </g>
      <g
         transform="translate(1.193183e-6,-2.760189)"
         id="g8096">
        <path
           d="m 212.06547,514.54291 329.23646,0 c 36.24727,0 36.39795,44.88476 0,44.88476 l -329.23646,0 c -39.09763,0 -42.49215,-44.88476 0,-44.88476 z"
           style="fill:#000000;fill-opacity:1;fill-rule:nonzero;stroke:none"
           id="rect8083"
           inkscape:connector-curvature="0" />
      </g>
      <g
         transform="matrix(0.7304712,0,0,0.582418,-4335.8366,4521.0003)"
         id="g3011" />
      <g
         style="fill:#000000"
         id="g3396"
         transform="matrix(21.98635,0,0,21.99026,-18078.657,-23724.254)">
        <g
           style="fill:#000000"
           transform="translate(134.2857,-4.285714)"
           id="g3398" />
        <g
           style="fill:#000000"
           transform="translate(29.68471,14.06375)"
           id="g3404" />
      </g>
      <g
         id="g2896"
         transform="matrix(6.7590085,0,0,6.7602105,-4963.9,-7062.2018)">
        <path
           id="path4364"
           style="fill:#000000;fill-opacity:1;stroke:none"
           d="m 802.6115,1107.7426 1.47086,0 0,8.7 -1.47086,0 0,-8.7 z"
           inkscape:connector-curvature="0" />
        <path
           id="path4370"
           style="fill:#000000;fill-opacity:1;stroke:none"
           d="m 790.2521,1107.7426 -1.44671,1.4334 0,1.4164 -1.1227,0 0,1.448 1.1227,0 0,1.878 c -0.0202,1.3867 0.73425,2.4681 2.18471,2.5242 l 0.73426,-1.4392 c -0.41104,0 -0.45211,0 -0.95887,0 -0.19557,0 -0.51339,-0.3812 -0.51339,-0.5846 0,-0.735 0,-2.3784 0,-2.3784 l 1.12034,0 0,-1.448 -1.12034,0 0,-2.8498 z"
           inkscape:connector-curvature="0" />
        <path
           id="path4647"
           style="fill:#000000;fill-opacity:1;stroke:none"
           d="m 768.87455,1107.7426 0,8.7 1.47033,0 0,-2.9345 0.67055,-0.7546 2.52251,3.6891 1.92996,0 -3.47223,-4.7918 3.47223,-3.9082 -1.92874,0 -3.19428,3.5942 0,-3.5942 -1.47033,0 z"
           inkscape:connector-curvature="0" />
        <path
           id="path4649"
           style="fill:#000000;fill-opacity:1;stroke:none"
           d="m 807.81664,1110.6426 c -1.60353,0 -2.90494,1.2988 -2.90494,2.8994 0,1.6005 1.30141,2.8993 2.90494,2.8993 0.62716,0 1.20755,-0.1999 1.68249,-0.5376 l 0.14161,0.5389 1.44279,0 -0.37644,-1.4159 0,-1.1888 c 0.01,-0.097 0.0145,-0.1959 0.0145,-0.2959 0,-0.1001 -0.005,-0.1986 -0.0145,-0.296 l 0,-2.6023 -1.44281,0 0,0.3854 c -0.42634,-0.2452 -0.9205,-0.3865 -1.44764,-0.3865 z m 0.0436,1.469 c 0.68235,0 1.25443,0.4743 1.40405,1.1102 l 0,0.6597 c -0.14962,0.6356 -0.7217,1.109 -1.40405,1.109 -0.79603,0 -1.44159,-0.6444 -1.44159,-1.4388 0,-0.7946 0.64556,-1.4401 1.44159,-1.4401 z"
           inkscape:connector-curvature="0" />
        <path
           id="path4659"
           style="fill:#000000;fill-opacity:1;stroke:none"
           d="m 793.98974,1110.9121 0,-0.2695 -1.44212,0 0,5.8 1.44212,0 0,-3.7591 c 0.34821,-0.4204 0.90364,-0.632 1.44456,-0.6107 l 0,-1.4302 c -0.64168,0.021 -1.1541,0.082 -1.44456,0.2695 z"
           inkscape:connector-curvature="0" />
        <path
           id="path4665"
           style="fill:#000000;fill-opacity:1;stroke:none"
           d="m 778.28897,1110.6426 c -1.60871,0 -2.91435,1.2992 -2.91435,2.9001 0,1.6008 1.30564,2.8999 2.91435,2.8999 1.60872,0 2.91434,-1.2991 2.91434,-2.8999 0,-1.6009 -1.30562,-2.9001 -2.91434,-2.9001 z m 0.0437,1.4693 c 0.79859,0 1.44745,0.6457 1.44745,1.4404 0,0.7947 -0.64886,1.4391 -1.44745,1.4391 -0.79859,0 -1.44624,-0.6444 -1.44624,-1.4391 0,-0.7947 0.64765,-1.4404 1.44624,-1.4404 z"
           inkscape:connector-curvature="0" />
        <path
           d="m 798.93916,1110.6426 c -1.60871,0 -2.91435,1.2992 -2.91435,2.9001 0,1.6008 1.30564,2.8999 2.91435,2.8999 1.60872,0 2.91434,-1.2991 2.91434,-2.8999 0,-1.6009 -1.30562,-2.9001 -2.91434,-2.9001 z m 0.0437,1.4693 c 0.79859,0 1.44745,0.6457 1.44745,1.4404 0,0.7947 -0.64886,1.4391 -1.44745,1.4391 -0.79859,0 -1.44624,-0.6444 -1.44624,-1.4391 0,-0.7947 0.64765,-1.4404 1.44624,-1.4404 z"
           style="fill:#000000;fill-opacity:1;stroke:none"
           id="path2737"
           inkscape:connector-curvature="0" />
        <path
           id="path2827"
           style="fill:#000000;fill-opacity:1;stroke:none"
           d="m 781.9421,1110.6422 0,5.8004 1.44294,0 0,-3.6688 c 0.0524,-0.157 0.45444,-0.6779 1.05914,-0.6779 0.78882,0 1.05549,0.7242 1.05549,0.7242 l 0.0245,3.6225 1.44204,0 0.005,-3.6225 c -0.11671,-1.436 -1.11927,-2.1779 -2.13453,-2.1779 -0.77088,0 -1.31348,0.4209 -1.4511,0.5347 l 0,-0.5347 -1.44294,0 z"
           inkscape:connector-curvature="0" />
      </g>
      <g
         id="g2906"
         transform="matrix(6.7590085,0,0,6.7602105,-4969.9003,-6993.2632)">
        <path
           id="path4368"
           style="fill:#000000;fill-opacity:1;stroke:none"
           d="m 775.66907,1121.0992 0,-0.2696 -1.44079,0 0,5.8 1.44079,0 0,-3.7591 c 0.34789,-0.4204 0.90288,-0.6318 1.4433,-0.6107 l 0,-1.4302 c -0.64113,0.021 -1.15313,0.082 -1.4433,0.2696 z"
           inkscape:connector-curvature="0" />
        <path
           d="m 811.41328,1120.8291 c -1.60129,0 -2.90088,1.2991 -2.90088,2.8997 0,1.6005 1.29959,2.8996 2.90088,2.8996 0.62627,0 1.20586,-0.2 1.68013,-0.5376 l 0.1414,0.5388 1.44078,0 -0.37591,-1.416 0,-1.1888 c 0.01,-0.097 0.0145,-0.196 0.0145,-0.296 0,-0.1001 -0.005,-0.1986 -0.0145,-0.296 l 0,-2.6024 -1.44078,0 0,0.3854 c -0.42575,-0.2453 -0.91922,-0.3867 -1.44562,-0.3867 z m 0.0435,1.4692 c 0.6814,0 1.25268,0.4744 1.4021,1.1103 l 0,0.6597 c -0.14942,0.6357 -0.7207,1.1091 -1.4021,1.1091 -0.79491,0 -1.43957,-0.6444 -1.43957,-1.4389 0,-0.7946 0.64466,-1.4402 1.43957,-1.4402 z"
           style="fill:#000000;fill-opacity:1;stroke:none"
           id="path5684"
           inkscape:connector-curvature="0" />
        <path
           d="m 798.03341,1120.8292 0,1.4404 1.98821,0 -1.98821,3.6459 0,0.7141 3.94734,0 0,-1.4404 -2.00642,0 2.00642,-3.7437 0,-0.6163 -3.94734,0 z"
           style="fill:#000000;fill-opacity:1;stroke:none"
           id="path5690"
           inkscape:connector-curvature="0" />
        <path
           d="m 780.33045,1120.8292 c -1.60191,0 -2.902,1.299 -2.902,2.8996 0,1.6006 1.30009,2.8996 2.902,2.8996 0.62651,0 1.20633,-0.1999 1.68078,-0.5376 l 0.14146,0.5388 1.44133,0 -0.37605,-1.416 0,-1.1888 c 0.01,-0.097 0.0145,-0.1959 0.0145,-0.296 0,-0.1 -0.005,-0.1986 -0.0145,-0.296 l 0,-2.6024 -1.44134,0 0,0.3854 c -0.42592,-0.2453 -0.91958,-0.3866 -1.44618,-0.3866 z m 0.0435,1.4691 c 0.68166,0 1.25317,0.4744 1.40264,1.1103 l 0,0.6597 c -0.14947,0.6357 -0.72098,1.1091 -1.40264,1.1091 -0.79522,0 -1.44013,-0.6444 -1.44013,-1.4389 0,-0.7946 0.64491,-1.4402 1.44013,-1.4402 z"
           style="fill:#000000;fill-opacity:1;stroke:none"
           id="path5704"
           inkscape:connector-curvature="0" />
        <path
           d="m 770.3405,1120.83 c -0.52649,0 -1.02033,0.1406 -1.44682,0.385 l 0,-0.013 c -0.80564,0.4585 -1.37219,1.2892 -1.46502,2.2574 l 0,0.5623 c 0.0928,0.9683 0.65938,1.7976 1.46502,2.2562 l 0,0 c 0.10663,0.061 0.21714,0.1164 0.33162,0.1638 0.0287,0.012 0.0572,0.023 0.0863,0.034 0.0291,0.011 0.0592,0.022 0.0887,0.032 0.0295,0.01 0.0587,0.02 0.0887,0.029 0.0598,0.018 0.12079,0.034 0.1822,0.049 0.0307,0.01 0.0613,0.014 0.0923,0.021 0.0311,0.01 0.0621,0.012 0.0936,0.017 0.0314,0.01 0.063,0.01 0.0947,0.013 0.0284,0 0.0563,0.01 0.085,0.011 0.0429,0 0.0866,0.01 0.12998,0.01 0.006,3e-4 0.0121,9e-4 0.0182,0 0.006,3e-4 0.0113,-2e-4 0.017,0 0.0426,0 0.0857,0 0.12875,0 0.003,0 0.006,0 0.01,0 0.0487,-10e-5 0.0964,0 0.14454,0 0.002,0 0.003,10e-5 0.005,0 0.0482,0 0.0959,-0.01 0.14339,-0.011 0.002,-10e-5 0.003,2e-4 0.005,0 0.0965,-0.01 0.192,-0.024 0.2855,-0.044 0.32986,-0.068 0.639,-0.1908 0.91836,-0.3595 l 0,0.4165 c -0.0907,0.8615 -0.63412,1.2843 -1.45411,1.4148 -0.33469,0 -0.64285,-0.114 -0.88798,-0.3049 l -0.89408,1.1925 c 0.0932,0.069 0.19032,0.1319 0.29156,0.1895 l 0,0 c 0.1066,0.061 0.21714,0.1165 0.33162,0.164 0.0286,0.012 0.0572,0.023 0.0863,0.034 0.0291,0.011 0.0592,0.022 0.0886,0.032 0.0295,0.01 0.0587,0.02 0.0887,0.029 0.0599,0.018 0.12082,0.034 0.18226,0.049 0.0307,0.01 0.0612,0.014 0.0923,0.021 0.031,0.01 0.0621,0.012 0.0935,0.017 0.0314,0.01 0.063,0.01 0.0947,0.013 0.0285,0 0.0564,0.01 0.0851,0.011 0.0429,0 0.0866,0.01 0.12998,0.01 0.006,4e-4 0.0121,10e-4 0.0182,0 0.006,3e-4 0.0114,-3e-4 0.017,0 0.0426,0 0.0857,0 0.12874,0 0.003,0 0.007,0 0.01,0 0.0488,-10e-5 0.0964,0 0.14457,0 0.002,0 0.003,10e-5 0.005,0 0.0481,0 0.0959,-0.01 0.14336,-0.011 0.002,-10e-5 0.003,2e-4 0.005,0 0.0965,-0.01 0.19197,-0.024 0.28541,-0.044 0.38015,-0.078 0.73399,-0.2297 1.04472,-0.4396 2.6e-4,-2e-4 9.9e-4,2e-4 10e-4,0 0.77824,-0.5406 1.27205,-1.4295 1.2852,-2.374 l 0.0316,-5.8288 -1.448,0 0,0.4178 c -0.43874,-0.2645 -0.9521,-0.4178 -1.50147,-0.4178 z m 0.0437,1.4766 c 0.79886,0 1.448,0.6489 1.448,1.4475 0,0.7986 -0.64914,1.4463 -1.448,1.4463 -0.79893,0 -1.44679,-0.6477 -1.44679,-1.4463 0,-0.7986 0.64786,-1.4475 1.44679,-1.4475 z"
           style="fill:#000000;fill-opacity:1;stroke:none"
           id="path5708"
           inkscape:connector-curvature="0" />
        <path
           d="m 790.51755,1117.9289 0,1.4692 1.47182,0 0,-1.4692 -1.47182,0 z m 0.01,2.863 0,5.8377 1.45234,0 0,-5.8377 -1.45234,0 z"
           style="fill:#000000;fill-opacity:1;stroke:none"
           id="path5710"
           inkscape:connector-curvature="0" />
        <path
           d="m 795.7073,1120.8292 c -1.60286,0 -2.904,1.2994 -2.904,2.9002 0,1.6008 1.30114,2.9002 2.904,2.9002 0.69858,0 1.34007,-0.2465 1.84132,-0.6576 l -0.6447,-1.282 c -0.28157,0.3494 -0.71321,0.573 -1.19662,0.573 -0.84748,0 -1.5356,-0.6873 -1.5356,-1.5336 0,-0.8463 0.68812,-1.5336 1.5356,-1.5336 0.43535,0 0.82771,0.1823 1.10731,0.4735 l 0.52788,-1.3369 c -0.46577,-0.3176 -1.02914,-0.5032 -1.63519,-0.5032 z"
           style="fill:#000000;fill-opacity:1;stroke:none"
           id="path5712"
           inkscape:connector-curvature="0" />
        <path
           d="m 784.46615,1120.8292 0,5.8004 1.44294,0 0,-3.6687 c 0.0524,-0.1571 0.45444,-0.678 1.05914,-0.678 0.78881,0 1.05549,0.7242 1.05549,0.7242 l 0.0245,3.6225 1.44204,0 0.005,-3.6225 c -0.11671,-1.436 -1.11928,-2.1779 -2.13453,-2.1779 -0.77089,0 -1.31348,0.421 -1.4511,0.5347 l 0,-0.5347 -1.44294,0 z"
           style="fill:#000000;fill-opacity:1;stroke:none"
           id="path5714"
           inkscape:connector-curvature="0" />
        <path
           id="path2848"
           style="fill:#000000;fill-opacity:1;stroke:none"
           d="m 802.9103,1120.8292 0,5.8004 1.44294,0 0,-3.6687 c 0.0524,-0.1571 0.45444,-0.678 1.05914,-0.678 0.78882,0 1.05549,0.7242 1.05549,0.7242 l 0.0245,3.6225 1.44204,0 0.005,-3.6225 c -0.11672,-1.436 -1.11928,-2.1779 -2.13454,-2.1779 -0.77088,0 -1.31348,0.421 -1.4511,0.5347 l 0,-0.5347 -1.44294,0 z"
           inkscape:connector-curvature="0" />
      </g>
    </g>
  </g>
</svg>
