<?xml version="1.0" encoding="UTF-8" standalone="no"?>
<!-- Created with Inkscape (http://www.inkscape.org/) -->

<svg
   xmlns:dc="http://purl.org/dc/elements/1.1/"
   xmlns:cc="http://creativecommons.org/ns#"
   xmlns:rdf="http://www.w3.org/1999/02/22-rdf-syntax-ns#"
   xmlns:svg="http://www.w3.org/2000/svg"
   xmlns="http://www.w3.org/2000/svg"
   xmlns:sodipodi="http://sodipodi.sourceforge.net/DTD/sodipodi-0.dtd"
   xmlns:inkscape="http://www.inkscape.org/namespaces/inkscape"
   version="1.0"
   width="497.1875"
   height="497.21875"
   id="svg8039"
   sodipodi:version="0.32"
   inkscape:version="0.48.2 r9819"
   sodipodi:docname="AJAX.svg"
   inkscape:output_extension="org.inkscape.output.svg.inkscape">
  <metadata
     id="metadata14">
    <rdf:RDF>
      <cc:Work
         rdf:about="">
        <dc:format>image/svg+xml</dc:format>
        <dc:type
           rdf:resource="http://purl.org/dc/dcmitype/StillImage" />
      </cc:Work>
    </rdf:RDF>
  </metadata>
  <sodipodi:namedview
     inkscape:window-height="1004"
     inkscape:window-width="1280"
     inkscape:pageshadow="2"
     inkscape:pageopacity="0.0"
     guidetolerance="10.0"
     gridtolerance="10.0"
     objecttolerance="10.0"
     borderopacity="1.0"
     bordercolor="#666666"
     pagecolor="#ffffff"
     id="base"
     showgrid="false"
     inkscape:zoom="1"
     inkscape:cx="166.75554"
     inkscape:cy="183.93879"
     inkscape:window-x="-8"
     inkscape:window-y="-8"
     inkscape:current-layer="g8101"
     fit-margin-top="0"
     fit-margin-left="0"
     fit-margin-right="0"
     fit-margin-bottom="0"
     inkscape:window-maximized="1" />
  <defs
     id="defs8041" />
  <g
     transform="translate(-124.99985,-285.14332)"
     id="layer1">
    <g
       id="g8101">
      <g
         transform="translate(123.5936,283.7527)"
         id="g8079">
        <path
           d="m 486.40654,246.60946 a 235,238.99997 0 0 1 -470.000001,0 235,238.99997 0 1 1 470.000001,0 z"
           style="fill:#ffffff;fill-opacity:1;fill-rule:nonzero;stroke:none"
           id="path8679"
           inkscape:connector-curvature="0" />
        <path
           d="m 250,1.390623 c -137.22627,0 -248.59375,111.395057 -248.59375,248.625007 0,137.22993 111.36749,248.59376 248.59375,248.59375 137.22627,0 248.59374,-111.36382 248.59375,-248.59375 C 498.59375,112.78569 387.22627,1.390623 250,1.390623 z m 0,48.625 c 110.40002,1e-6 200,89.599987 200,200.000007 -10e-6,110.40003 -89.59997,200 -200,200 -110.40004,-10e-6 -200,-89.59998 -200,-200 C 50,139.61561 139.59997,50.015623 250,50.015623 z"
           style="fill:#d40000;fill-opacity:1;fill-rule:nonzero;stroke:none"
           id="path3063"
           inkscape:connector-curvature="0" />
      </g>
      <g
         transform="translate(1.193183e-6,-2.760189)"
         id="g8096">
        <path
           d="m 212.06547,514.54291 329.23646,0 c 36.24727,0 36.39795,44.88476 0,44.88476 l -329.23646,0 c -39.09763,0 -42.49215,-44.88476 0,-44.88476 z"
           style="fill:#000000;fill-opacity:1;fill-rule:nonzero;stroke:none"
           id="rect8083"
           inkscape:connector-curvature="0" />
      </g>
      <g
         transform="matrix(0.7304712,0,0,0.582418,-4335.8366,4521.0003)"
         id="g3011" />
      <g
         style="fill:#000000"
         id="g3396"
         transform="matrix(21.98635,0,0,21.99026,-18078.657,-23724.254)">
        <g
           style="fill:#000000"
           transform="translate(134.2857,-4.285714)"
           id="g3398" />
        <g
           style="fill:#000000"
           transform="translate(29.68471,14.06375)"
           id="g3404" />
      </g>
      <g
         transform="matrix(0.3699959,0,0,0.3699959,-1082.2934,-291.85017)"
         id="g4805"
         inkscape:label="Warstwa 1">
        <g
           transform="matrix(14.8746,0,0,14.86043,-37574.7,-34487.9)"
           id="g4807">
          <g
             id="g8849">
            <g
               transform="translate(0,-0.021442)"
               id="g8778">
              <g
                 id="g9349"
                 style="fill:#ffffff"
                 transform="matrix(1.052479,0,0,1.050851,3039.18,2247.03)" />
            </g>
          </g>
        </g>
      </g>
      <g
         transform="matrix(5.4899241,0,0,5.4598412,-113.92315,-834.00617)"
         id="g5701">
        <g
           transform="matrix(0.0674273,0,0,0.07080033,39.16136,177.0295)"
           id="g5703" />
        <g
           transform="matrix(0.0674273,0,0,0.09527638,-76.77098,150.027)"
           id="g5705" />
      </g>
      <g
         transform="matrix(5.4899241,0,0,5.4598412,2104.9422,-591.63126)"
         id="g5707">
        <g
           transform="matrix(0.260999,0,0,0.439416,-607.27,585.5121)"
           id="g5709">
          <g
             transform="matrix(0.129076,0,0,0.09519717,575.6726,288.6603)"
             id="g5711" />
        </g>
        <g
           transform="matrix(1,0,0,0.999633,7.21672,-12.39608)"
           style="fill:#ffffff"
           id="g5713" />
      </g>
      <g
         id="g5717"
         style="fill:#000000"
         transform="matrix(5.4899241,0,0,5.4598412,2145.3203,-659.61267)" />
      <g
         id="g4935"
         transform="matrix(5.5855804,0,0,5.5802594,-15105.015,-13467.774)">
        <g
           style="fill:#ffffff"
           id="g4937" />
        <g
           transform="translate(-0.1011,0)"
           id="g8796">
          <g
             id="g8771"
             style="fill:#ffffff" />
        </g>
      </g>
      <g
         id="g5684"
         transform="matrix(0.1806303,0,0,0.2230591,-247.4435,3233.248)" />
      <g
         id="g5790"
         transform="matrix(5.0788266,0,0,5.0739883,-13815.123,-12000.746)">
        <g
           transform="translate(-110.3516,20.89844)"
           id="g7653">
          <g
             id="g7649"
             transform="matrix(0.08630775,0,0,0.07466136,2490.274,2203.982)" />
          <g
             id="g7645"
             style="fill:#ffffff"
             transform="translate(109.2336,-21.3297)" />
        </g>
        <g
           transform="matrix(1.052479,0,0,1.050851,3039.18,2247.03)"
           style="fill:#ffffff"
           id="g5795" />
      </g>
      <g
         id="g5800"
         transform="matrix(5.0788266,0,0,5.0739883,-13815.123,-12000.637)">
        <g
           style="fill:#ffffff"
           id="g5802" />
        <g
           transform="translate(-0.1011,0)"
           id="g5804">
          <g
             id="g5806"
             style="fill:#ffffff" />
        </g>
      </g>
      <g
         id="g3911"
         transform="matrix(14.8746,0,0,14.86043,-40702.742,-36870.205)" />
      <g
         id="g3913"
         transform="matrix(14.527314,0,0,14.513475,-39705.107,-36005.332)">
        <g
           id="g3915">
          <g
             id="g3917"
             style="fill:#ffffff" />
          <g
             id="g3920"
             transform="translate(-0.1011,0)">
            <g
               style="fill:#ffffff"
               id="g3923" />
          </g>
        </g>
      </g>
      <g
         transform="matrix(0.3747349,0,0,0.3747349,-803.24051,-648.59981)"
         id="g4688"
         inkscape:label="Warstwa 1">
        <g
           transform="matrix(14.8746,0,0,14.86043,-37574.7,-34487.9)"
           id="g4690">
          <g
             id="g4692">
            <g
               id="g4694">
              <g
                 id="g4696"
                 style="fill:#ffffff" />
              <g
                 id="g4698"
                 transform="translate(-0.1011,0)">
                <g
                   style="fill:#ffffff"
                   id="g4700" />
              </g>
            </g>
          </g>
        </g>
      </g>
      <g
         id="g3857"
         transform="matrix(1.079829,0,0,1.079829,-20.264872,-40.343034)">
        <path
           d="m 469.38437,432.20673 0,54.47078 -9.21518,0 0,-2.40789 c -2.68252,1.53356 -5.78836,2.40789 -9.10054,2.40789 -10.12277,0 -18.33921,-8.19353 -18.33921,-18.28933 0,-10.09581 8.21644,-18.28878 18.33921,-18.28878 3.31218,0 6.41802,0.88215 9.10054,2.41571 l 0,-20.30838 9.21518,0 z m -18.59085,27.15885 c -5.02504,0 -9.10837,4.07218 -9.10837,9.08405 0,5.01075 4.08333,9.07567 9.10837,9.07567 5.02559,0 9.10054,-4.06492 9.10054,-9.07567 0,-5.01187 -4.07495,-9.08405 -9.10054,-9.08405 z"
           style="fill:#000000;fill-opacity:1;stroke:none"
           id="path8696"
           inkscape:connector-curvature="0" />
        <path
           d="m 398.54743,450.48027 0,8.98887 12.49533,0 -12.49533,22.7513 0,4.45674 24.80784,0 0,-8.98894 -12.60966,0 12.60966,-23.362 0,-3.84597 -24.80784,0 z"
           style="fill:#000000;fill-opacity:1;stroke:none"
           id="path5101"
           inkscape:connector-curvature="0" />
        <g
           transform="matrix(0.9766524,0,0,0.9766524,28.285478,2.766255)"
           id="g6223">
          <g
             id="g5296"
             transform="matrix(0.9451756,0,0,0.9451756,8.7503477,28.454496)">
            <g
               id="g5275">
              <g
                 id="g5236"
                 transform="matrix(0.2407658,0,0,0.2407658,140.37267,584.41753)">
                <g
                   id="g9677"
                   transform="matrix(24.12743,0,0,23.99522,-1907.368,-5643.379)">
                  <g
                     id="g9396"
                     transform="translate(63.4565,-31.94113)">
                    <g
                       id="g8070"
                       transform="matrix(0.0674273,0,0,0.07080033,39.16136,177.0295)" />
                    <g
                       id="g8074"
                       transform="matrix(0.0674273,0,0,0.09527638,-76.77098,150.027)" />
                  </g>
                  <g
                     id="g8350"
                     transform="translate(467.627,12.45117)">
                    <g
                       id="g5881"
                       transform="matrix(0.260999,0,0,0.439416,-607.27,585.5121)">
                      <g
                         id="g3072"
                         transform="matrix(0.129076,0,0,0.09519717,575.6726,288.6603)" />
                    </g>
                    <g
                       id="g8315"
                       style="fill:#ffffff"
                       transform="matrix(1,0,0,0.999633,7.21672,-12.39608)" />
                  </g>
                  <g
                     id="g9658"
                     style="fill:#000000"
                     transform="translate(475,0)">
                    <g
                       id="g9359"
                       style="fill:#000000"
                       transform="translate(-0.01804875,0)" />
                    <g
                       style="fill:#000000"
                       id="g9386"
                       transform="translate(0.488281,0)" />
                  </g>
                </g>
              </g>
              <path
                 id="path5103"
                 style="fill:#000000;fill-opacity:1;stroke:none"
                 d="m 357.56018,454.90492 c -10.83828,0 -19.63452,8.78016 -19.63452,19.60055 0,10.81972 8.79624,19.59988 19.63452,19.59988 4.23898,0 8.16184,-1.35137 11.37196,-3.63429 l 0.95714,3.64308 9.75183,0 -2.54436,-9.57178 0,-8.03654 c 0.067,-0.65845 0.0982,-1.32433 0.0982,-2.00035 0,-0.6767 -0.0312,-1.34258 -0.0982,-2.00102 l 0,-17.5921 -9.75196,0 0,2.60539 c -2.88164,-1.65761 -6.22167,-2.61282 -9.78461,-2.61282 z m 0.29462,9.93075 c 4.61201,0 8.4787,3.20636 9.48999,7.50518 l 0,4.45971 c -1.01129,4.29679 -4.87798,7.49708 -9.48999,7.49708 -5.38037,0 -9.74372,-4.35628 -9.74372,-9.7266 0,-5.37166 4.36335,-9.73537 9.74372,-9.73537 z"
                 inkscape:connector-curvature="0" />
            </g>
          </g>
          <g
             transform="matrix(1.3312616,0,0,1.3312616,-5269.9091,4722.342)"
             id="g6146"
             inkscape:label="Layer 1">
            <g
               transform="translate(-1030.621,-1685.5114)"
               id="g2631">
              <g
                 style="fill:#000000"
                 transform="translate(1375.4193,-196.19726)"
                 id="g5641" />
            </g>
          </g>
        </g>
        <g
           inkscape:label="Layer 1"
           id="g5091"
           transform="matrix(0.9766524,0,0,0.9766524,-3839.8287,3605.3922)">
          <g
             id="g5093"
             transform="translate(-1030.621,-1685.5114)">
            <g
               id="g5065"
               transform="matrix(0.1841218,0,0,0.1841218,3615.4779,-492.99075)">
              <g
                 style="fill:#ffffff"
                 transform="translate(2089.3872,-6773.4048)"
                 id="g5022">
                <path
                   id="path4992"
                   style="fill:#000000;fill-opacity:1;stroke:none"
                   d="m 7055.7718,961.97938 0,51.25812 51.2561,0 0,-51.25812 -51.2561,0 z m 0,100.07872 0,203.815 c -3.6665,32.9493 -17.0864,46.3773 -51.2622,51.2582 l 24.4108,48.8198 c 45.1558,-14.6431 78.1075,-51.2622 78.1075,-100.078 l 0,-203.815 -51.2561,0 z"
                   inkscape:connector-curvature="0" />
              </g>
              <g
                 style="fill:#ffffff"
                 transform="translate(952.49985,-4298.5209)"
                 id="g4960" />
            </g>
          </g>
        </g>
        <path
           d="m 255.7057,432.37514 13.70487,54.302 9.19451,0 8.7377,-35.59075 8.73782,35.59075 9.19438,0 13.70487,-54.302 -9.19524,0 -9.04191,35.84173 -8.80659,-35.84173 -9.18655,0 -8.80671,35.84173 -9.04191,-35.84173 -9.19524,0 z"
           style="fill:#000000;fill-opacity:1;stroke:none"
           id="path13639"
           inkscape:connector-curvature="0" />
      </g>
      <g
         id="g3887"
         transform="matrix(1.0798269,0,0,1.0798269,-29.523032,-47.107209)">
        <path
           id="path2827"
           style="fill:#000000;fill-opacity:1;stroke:none"
           d="m 244.56723,584.25438 0,36.19684 9.00293,0 0,-22.8948 c 0.32694,-0.97973 2.83539,-4.23037 6.60829,-4.23037 4.92168,0 6.58551,4.51931 6.58551,4.51931 l 0.15256,22.60586 8.9973,0 0.0282,-22.60586 c -0.7282,-8.96123 -6.98346,-13.59098 -13.31797,-13.59098 -4.80974,0 -8.19519,2.62659 -9.05384,3.33674 l 0,-3.33674 -9.00293,0 z"
           inkscape:connector-curvature="0" />
        <path
           id="path4815"
           style="fill:#000000;fill-opacity:1;stroke:none"
           d="m 432.42866,584.25687 c -10.03722,0 -18.18349,8.10754 -18.18349,18.0978 0,9.98964 8.14627,18.09655 18.18349,18.09655 10.03727,0 18.18342,-8.10691 18.18342,-18.09655 0,-9.99026 -8.14615,-18.0978 -18.18342,-18.0978 z m 0.27278,9.16903 c 4.98264,0 9.03107,4.02943 9.03107,8.98869 0,4.95923 -4.04843,8.98055 -9.03107,8.98055 -4.98265,0 -9.02352,-4.02132 -9.02352,-8.98055 0,-4.95926 4.04087,-8.98869 9.02352,-8.98869 z"
           inkscape:connector-curvature="0" />
        <path
           d="m 300.09052,584.25376 c -9.99092,0 -18.09945,8.1069 -18.09945,18.09529 0,9.98777 8.10853,18.09469 18.09945,18.09469 3.90748,0 7.52372,-1.24809 10.48282,-3.35485 l 0.88224,3.36233 8.98945,0 -2.34541,-8.83641 0,-7.41859 c 0.0618,-0.60844 0.0905,-1.22311 0.0905,-1.84717 0,-0.62465 -0.0288,-1.23934 -0.0905,-1.84716 l 0,-16.24002 -8.98945,0 0,2.40506 c -2.65638,-1.53078 -5.73529,-2.41317 -9.01965,-2.41317 z m 0.27153,9.1684 c 4.25145,0 7.81585,2.96045 8.74812,6.92872 l 0,4.1168 c -0.93227,3.96702 -4.49667,6.92123 -8.74812,6.92123 -4.95968,0 -8.98189,-4.02132 -8.98189,-8.97932 0,-4.95862 4.02221,-8.98743 8.98189,-8.98743 z"
           style="fill:#000000;fill-opacity:1;stroke:none"
           id="path5684"
           inkscape:connector-curvature="0" />
        <path
           id="path3667"
           style="fill:#000000;fill-opacity:1;stroke:none"
           d="m 350.45682,638.72214 0,-54.47077 9.21517,0 0,2.40789 c 2.68252,-1.53357 5.78836,-2.40789 9.10054,-2.40789 10.12277,0 18.33921,8.19352 18.33921,18.28933 0,10.09581 -8.21644,18.28877 -18.33921,18.28877 -3.31218,0 -6.41802,-0.88215 -9.10054,-2.41571 l 0,20.30838 -9.21517,0 z m 18.59084,-27.15885 c 5.02504,0 9.10837,-4.07218 9.10837,-9.08405 0,-5.01075 -4.08333,-9.07566 -9.10837,-9.07566 -5.02559,0 -9.10054,4.06491 -9.10054,9.07566 0,5.01187 4.07495,9.08405 9.10054,9.08405 z"
           inkscape:connector-curvature="0" />
        <path
           d="m 492.30984,584.25715 c -5.38077,0.0523 -9.00862,3.5259 -9.00862,3.5259 0,0 -4.19857,-3.5259 -8.72901,-3.5259 -4.81189,0 -8.32385,2.62766 -9.18288,3.33684 l 0,-3.33684 -9.00079,0 0,36.19399 9.00079,0 0,-22.88927 c 0.32758,-0.97927 1.69284,-4.23423 5.46705,-4.23423 4.92336,0 5.67874,4.52087 5.67874,4.52087 l 0.15075,22.60263 9.00165,0 0.0305,-22.60263 c 0,0 0.99681,-4.56617 5.8295,-4.56617 3.9241,0 5.53068,4.09134 5.67874,4.49037 l 0,22.67843 9.00079,0 0.0306,-22.60263 c -0.32245,-7.55279 -6.52823,-13.46417 -13.94778,-13.59136 z"
           style="fill:#000000;fill-opacity:1;stroke:none"
           id="path13643"
           inkscape:connector-curvature="0" />
        <path
           d="m 402.39943,585.93578 0,-1.68164 -9.00152,0 0,36.197 9.00152,0 0,-23.46013 c 2.17302,-2.6244 5.63995,-3.94357 9.01548,-3.812 l 0,-8.92487 c -4.00462,0.12983 -7.20308,0.50972 -9.01548,1.68164 z"
           style="fill:#000000;fill-opacity:1;stroke:none"
           id="path13645"
           inkscape:connector-curvature="0" />
      </g>
    </g>
  </g>
</svg>
