<?xml version="1.0" encoding="UTF-8" standalone="no"?>
<!-- Created with Inkscape (http://www.inkscape.org/) -->

<svg
   xmlns:svg="http://www.w3.org/2000/svg"
   xmlns="http://www.w3.org/2000/svg"
   version="1.0"
   width="497.1875"
   height="497.21875"
   id="svg8039">
  <defs
     id="defs8041" />
  <g
     transform="translate(-124.99985,-285.14332)"
     id="layer1">
    <g
       id="g8101">
      <g
         transform="translate(123.5936,283.7527)"
         id="g8079">
        <path
           d="m 481.27942,250.19844 a 235.16949,239.93641 0 0 1 -470.338984,0 235.16949,239.93641 0 1 1 470.338984,0 z"
           id="path8679"
           style="fill:#ffffff;fill-opacity:1;fill-rule:nonzero;stroke:none" />
        <path
           d="m 250,1.390623 c -137.22627,0 -248.59375,111.395057 -248.59375,248.625007 0,137.22993 111.36749,248.59376 248.59375,248.59375 137.22627,0 248.59374,-111.36382 248.59375,-248.59375 C 498.59375,112.78569 387.22627,1.390623 250,1.390623 z m 0,48.625 c 110.40002,1e-6 200,89.599987 200,200.000007 -10e-6,110.40003 -89.59997,200 -200,200 -110.40004,-10e-6 -200,-89.59998 -200,-200 C 50,139.61561 139.59997,50.015623 250,50.015623 z"
           id="path3063"
           style="fill:#d40000;fill-opacity:1;fill-rule:nonzero;stroke:none" />
        <g
           id="text2821"
           style="font-size:150.64094543px;font-style:normal;font-variant:normal;font-weight:bold;font-stretch:normal;text-align:start;line-height:125%;writing-mode:lr-tb;text-anchor:start;fill:#000000;fill-opacity:1;stroke:none;font-family:Drogowskaz;-inkscape-font-specification:Drogowskaz Bold">
          <path
             d="m 220.58536,184.04514 c -8.50105,6.75049 -18.18854,10.12573 -29.0625,10.12573 -13.00053,0 -24.06314,-4.56238 -33.18787,-13.68714 -9.12476,-9.12473 -13.68714,-20.18734 -13.68713,-33.18786 -1e-5,-13.00043 4.56237,-24.06304 13.68713,-33.18787 9.12473,-9.12467 20.18734,-13.68704 33.18787,-13.68713 11.00091,9e-5 20.75066,3.43759 29.24927,10.3125 l -7.31324,13.49853 c -6.12311,-5.87395 -13.43511,-8.81096 -21.93603,-8.81103 -8.75004,7e-5 -16.25004,3.12507 -22.5,9.375 -6.25002,6.25006 -9.37502,13.75005 -9.375,22.5 -2e-5,8.75003 3.12498,16.25003 9.375,22.5 6.24996,6.25001 13.74996,9.37501 22.5,9.375 8.37396,1e-5 15.62371,-2.87474 21.74927,-8.62427 z"
             id="path2830"
             style="font-size:120px;fill:#000000" />
          <path
             d="m 247.06973,102.29587 15,0 0,22.5 15,-7.5 0,15 -15,7.5 0,52.5 -15,0 0,-45 -15,7.5 0,-15 15,-7.5 z"
             id="path2832"
             style="font-size:120px;fill:#000000" />
          <path
             d="m 293.94473,184.79587 c -6.25001,-6.24999 -9.375,-13.74998 -9.375,-22.5 0,-8.74996 3.12499,-16.24996 9.375,-22.5 6.24998,-6.24994 13.74997,-9.37494 22.5,-9.375 8.74995,6e-5 16.24995,3.12506 22.5,9.375 6.24993,6.25004 9.37493,13.75004 9.375,22.5 -7e-5,8.75002 -3.12507,16.25001 -9.375,22.5 -6.25005,6.25 -13.75005,9.375 -22.5,9.375 -8.75003,0 -16.25002,-3.125 -22.5,-9.375 z m 10.59449,-34.40552 c -3.31302,3.31303 -4.96951,7.28153 -4.96949,11.90552 -2e-5,4.62405 1.65647,8.59255 4.96949,11.90552 3.31295,3.313 7.28145,4.96949 11.90551,4.96948 4.62398,1e-5 8.59248,-1.65648 11.90552,-4.96948 3.31293,-3.31297 4.96943,-7.28147 4.96948,-11.90552 -5e-5,-4.62399 -1.65655,-8.59249 -4.96948,-11.90552 -3.31304,-3.31294 -7.28154,-4.96944 -11.90552,-4.96948 -4.62406,4e-5 -8.59256,1.65654 -11.90551,4.96948 z"
             id="path2834"
             style="font-size:120px;fill:#000000" />
        </g>
        <g
           id="text2825"
           style="font-size:150.64094543px;font-style:normal;font-variant:normal;font-weight:bold;font-stretch:normal;text-align:start;line-height:125%;writing-mode:lr-tb;text-anchor:start;fill:#000000;fill-opacity:1;stroke:none;font-family:Drogowskaz;-inkscape-font-specification:Drogowskaz Bold">
          <path
             d="m 168.83609,375.17722 32.24854,0 0,15 -52.5,0 0,-7.5 32.25219,-67.5 -32.25219,0 0,-15 52.5,0 0,7.5 z"
             id="path2837"
             style="font-size:120px;fill:#000000" />
          <path
             d="m 225.50723,382.67722 c -6.25001,-6.24999 -9.375,-13.74998 -9.375,-22.5 0,-8.74997 3.12499,-16.24996 9.375,-22.5 6.24998,-6.24995 13.74997,-9.37494 22.5,-9.375 8.74995,6e-5 16.24995,3.12505 22.5,9.375 6.24993,6.25004 9.37493,13.75003 9.375,22.5 -7e-5,8.75002 -3.12507,16.25001 -9.375,22.5 -6.25005,6.25 -13.75005,9.37499 -22.5,9.375 -8.75003,-10e-6 -16.25002,-3.125 -22.5,-9.375 z m 10.59449,-34.40552 c -3.31302,3.31302 -4.96951,7.28153 -4.96949,11.90552 -2e-5,4.62404 1.65647,8.59255 4.96949,11.90551 3.31295,3.31301 7.28145,4.9695 11.90551,4.96949 4.62398,1e-5 8.59248,-1.65648 11.90552,-4.96949 3.31293,-3.31296 4.96943,-7.28147 4.96948,-11.90551 -5e-5,-4.62399 -1.65655,-8.5925 -4.96948,-11.90552 -3.31304,-3.31295 -7.28154,-4.96944 -11.90552,-4.96948 -4.62406,4e-5 -8.59256,1.65653 -11.90551,4.96948 z"
             id="path2839"
             style="font-size:120px;fill:#000000" />
          <path
             d="m 298.63223,300.17722 15,0 0,90 -15,0 z"
             id="path2841"
             style="font-size:120px;fill:#000000" />
          <path
             d="m 336.13223,300.17722 15,0 0,90 -15,0 z"
             id="path2843"
             style="font-size:120px;fill:#000000" />
        </g>
      </g>
      <g
         transform="translate(1.193183e-6,-2.760189)"
         id="g8096">
        <path
           d="m 212.06547,514.54291 329.23646,0 c 36.24727,0 36.39795,44.88476 0,44.88476 l -329.23646,0 c -39.09763,0 -42.49215,-44.88476 0,-44.88476 z"
           id="rect8083"
           style="fill:#000000;fill-opacity:1;fill-rule:nonzero;stroke:none" />
      </g>
    </g>
  </g>
</svg>
