<?xml version="1.0" encoding="UTF-8" standalone="no"?>
<!-- Created with Inkscape (http://www.inkscape.org/) -->

<svg
   xmlns:dc="http://purl.org/dc/elements/1.1/"
   xmlns:cc="http://creativecommons.org/ns#"
   xmlns:rdf="http://www.w3.org/1999/02/22-rdf-syntax-ns#"
   xmlns:svg="http://www.w3.org/2000/svg"
   xmlns="http://www.w3.org/2000/svg"
   xmlns:sodipodi="http://sodipodi.sourceforge.net/DTD/sodipodi-0.dtd"
   xmlns:inkscape="http://www.inkscape.org/namespaces/inkscape"
   version="1.0"
   width="497.1875"
   height="497.21875"
   id="svg8039"
   sodipodi:version="0.32"
   inkscape:version="0.48.2 r9819"
   sodipodi:docname="AJAX.svg"
   inkscape:output_extension="org.inkscape.output.svg.inkscape">
  <metadata
     id="metadata14">
    <rdf:RDF>
      <cc:Work
         rdf:about="">
        <dc:format>image/svg+xml</dc:format>
        <dc:type
           rdf:resource="http://purl.org/dc/dcmitype/StillImage" />
      </cc:Work>
    </rdf:RDF>
  </metadata>
  <sodipodi:namedview
     inkscape:window-height="1004"
     inkscape:window-width="1280"
     inkscape:pageshadow="2"
     inkscape:pageopacity="0.0"
     guidetolerance="10.0"
     gridtolerance="10.0"
     objecttolerance="10.0"
     borderopacity="1.0"
     bordercolor="#666666"
     pagecolor="#ffffff"
     id="base"
     showgrid="false"
     inkscape:zoom="1"
     inkscape:cx="392.43784"
     inkscape:cy="239.99082"
     inkscape:window-x="-8"
     inkscape:window-y="-8"
     inkscape:current-layer="g8101"
     fit-margin-top="0"
     fit-margin-left="0"
     fit-margin-right="0"
     fit-margin-bottom="0"
     inkscape:window-maximized="1" />
  <defs
     id="defs8041" />
  <g
     transform="translate(-124.99985,-285.14332)"
     id="layer1">
    <g
       id="g8101">
      <g
         transform="translate(123.5936,283.7527)"
         id="g8079">
        <path
           d="m 492.40654,248.60946 a 242.50001,241.00241 0 1 1 -485.0000012,0 242.50001,241.00241 0 1 1 485.0000012,0 z"
           style="fill:#ffffff;fill-opacity:1;fill-rule:nonzero;stroke:none"
           id="path8679"
           inkscape:connector-curvature="0" />
        <path
           d="m 250,1.390623 c -137.22627,0 -248.59375,111.395057 -248.59375,248.625007 0,137.22993 111.36749,248.59376 248.59375,248.59375 137.22627,0 248.59374,-111.36382 248.59375,-248.59375 C 498.59375,112.78569 387.22627,1.390623 250,1.390623 z m 0,48.625 c 110.40002,1e-6 200,89.599987 200,200.000007 -10e-6,110.40003 -89.59997,200 -200,200 -110.40004,-10e-6 -200,-89.59998 -200,-200 C 50,139.61561 139.59997,50.015623 250,50.015623 z"
           style="fill:#d40000;fill-opacity:1;fill-rule:nonzero;stroke:none"
           id="path3063"
           inkscape:connector-curvature="0" />
      </g>
      <g
         transform="translate(1.193183e-6,-2.760189)"
         id="g8096">
        <path
           d="m 212.06547,514.54291 329.23646,0 c 36.24727,0 36.39795,44.88476 0,44.88476 l -329.23646,0 c -39.09763,0 -42.49215,-44.88476 0,-44.88476 z"
           style="fill:#000000;fill-opacity:1;fill-rule:nonzero;stroke:none"
           id="rect8083"
           inkscape:connector-curvature="0" />
      </g>
      <g
         transform="matrix(0.7304712,0,0,0.582418,-4335.8366,4521.0003)"
         id="g3011" />
      <g
         style="fill:#000000"
         id="g3396"
         transform="matrix(21.98635,0,0,21.99026,-18078.657,-23724.254)">
        <g
           style="fill:#000000"
           transform="translate(134.2857,-4.285714)"
           id="g3398" />
        <g
           style="fill:#000000"
           transform="translate(29.68471,14.06375)"
           id="g3404" />
      </g>
      <g
         transform="matrix(0.3699959,0,0,0.3699959,-1082.2934,-291.85017)"
         id="g4805"
         inkscape:label="Warstwa 1">
        <g
           transform="matrix(14.8746,0,0,14.86043,-37574.7,-34487.9)"
           id="g4807">
          <g
             id="g8849">
            <g
               transform="translate(0,-0.021442)"
               id="g8778">
              <g
                 id="g9349"
                 style="fill:#ffffff"
                 transform="matrix(1.052479,0,0,1.050851,3039.18,2247.03)" />
            </g>
          </g>
        </g>
      </g>
      <g
         transform="matrix(5.4899241,0,0,5.4598412,-113.92315,-834.00617)"
         id="g5701">
        <g
           transform="matrix(0.0674273,0,0,0.07080033,39.16136,177.0295)"
           id="g5703" />
        <g
           transform="matrix(0.0674273,0,0,0.09527638,-76.77098,150.027)"
           id="g5705" />
      </g>
      <g
         transform="matrix(5.4899241,0,0,5.4598412,2104.9422,-591.63126)"
         id="g5707">
        <g
           transform="matrix(0.260999,0,0,0.439416,-607.27,585.5121)"
           id="g5709">
          <g
             transform="matrix(0.129076,0,0,0.09519717,575.6726,288.6603)"
             id="g5711" />
        </g>
        <g
           transform="matrix(1,0,0,0.999633,7.21672,-12.39608)"
           style="fill:#ffffff"
           id="g5713" />
      </g>
      <g
         id="g5717"
         style="fill:#000000"
         transform="matrix(5.4899241,0,0,5.4598412,2145.3203,-659.61267)" />
      <g
         transform="matrix(0.3759478,0,0,0.3759478,-980.24235,-430.66225)"
         id="g4034"
         inkscape:label="Warstwa 1">
        <g
           transform="matrix(14.8746,0,0,14.86043,-37574.7,-34487.9)"
           id="g8869">
          <g
             id="g8822">
            <g
               id="g8805">
              <g
                 id="g8716"
                 style="fill:#ffffff" />
            </g>
          </g>
        </g>
      </g>
      <g
         transform="matrix(0.3755113,0,0,0.3755113,-995.29042,-517.17789)"
         id="g4928"
         inkscape:label="Warstwa 1">
        <g
           transform="matrix(14.8746,0,0,14.86043,-37574.7,-34487.9)"
           id="g4930">
          <g
             id="g4932">
            <g
               id="g4935">
              <g
                 id="g4937"
                 style="fill:#ffffff" />
              <g
                 id="g8796"
                 transform="translate(-0.1011,0)">
                <g
                   style="fill:#ffffff"
                   id="g8771" />
              </g>
            </g>
          </g>
        </g>
      </g>
      <g
         transform="matrix(5.3617475,0,0,5.332367,-304.31542,-631.67952)"
         id="g5672">
        <g
           transform="translate(63.4565,-31.94113)"
           id="g5674">
          <g
             transform="matrix(0.0674273,0,0,0.07080033,39.16136,177.0295)"
             id="g5676" />
          <g
             transform="matrix(0.0674273,0,0,0.09527638,-76.77098,150.027)"
             id="g5678" />
        </g>
        <g
           transform="translate(467.627,12.45117)"
           id="g5680">
          <g
             transform="matrix(0.260999,0,0,0.439416,-607.27,585.5121)"
             id="g5682">
            <g
               transform="matrix(0.129076,0,0,0.09519717,575.6726,288.6603)"
               id="g5684" />
          </g>
          <g
             transform="matrix(1,0,0,0.999633,7.21672,-12.39608)"
             style="fill:#ffffff"
             id="g5687" />
        </g>
        <g
           transform="translate(475,0)"
           style="fill:#000000"
           id="g5689">
          <g
             transform="translate(-0.01804875,0)"
             style="fill:#000000"
             id="g5691" />
          <g
             transform="translate(0.488281,0)"
             id="g5693"
             style="fill:#000000" />
        </g>
      </g>
      <g
         transform="matrix(0.3414429,0,0,0.3414429,-985.50866,-224.98819)"
         id="g5784"
         inkscape:label="Warstwa 1">
        <g
           transform="matrix(14.8746,0,0,14.86043,-37574.7,-34487.9)"
           id="g5786">
          <g
             id="g5788">
            <g
               transform="translate(0,-0.021442)"
               id="g5790">
              <g
                 id="g7653"
                 transform="translate(-110.3516,20.89844)">
                <g
                   transform="matrix(0.08630775,0,0,0.07466136,2490.274,2203.982)"
                   id="g7649" />
                <g
                   transform="translate(109.2336,-21.3297)"
                   style="fill:#ffffff"
                   id="g7645" />
              </g>
              <g
                 id="g5795"
                 style="fill:#ffffff"
                 transform="matrix(1.052479,0,0,1.050851,3039.18,2247.03)" />
            </g>
          </g>
          <g
             id="g5798">
            <g
               id="g5800">
              <g
                 id="g5802"
                 style="fill:#ffffff" />
              <g
                 id="g5804"
                 transform="translate(-0.1011,0)">
                <g
                   style="fill:#ffffff"
                   id="g5806" />
              </g>
            </g>
          </g>
        </g>
      </g>
      <g
         inkscape:label="Layer 1"
         id="g6151"
         transform="matrix(1.3001794,0,0,1.3001794,-5265.002,4748.6256)">
        <g
           id="g6153"
           transform="translate(-1030.621,-1685.5114)">
          <g
             id="g6155"
             transform="translate(1375.4193,-196.19726)"
             style="fill:#000000" />
        </g>
      </g>
      <g
         id="g3911"
         transform="matrix(14.8746,0,0,14.86043,-40702.742,-36870.205)" />
      <g
         id="g5304"
         transform="matrix(0.9766524,0,0,0.9766524,6.565649,12.532779)">
        <g
           transform="translate(12,-10)"
           id="g6223">
          <g
             id="g5296"
             transform="matrix(0.9451756,0,0,0.9451756,8.7503477,28.454496)">
            <g
               id="g5275">
              <g
                 id="g5236"
                 transform="matrix(0.2407658,0,0,0.2407658,140.37267,584.41753)">
                <g
                   id="g9677"
                   transform="matrix(24.12743,0,0,23.99522,-1907.368,-5643.379)">
                  <g
                     id="g9396"
                     transform="translate(63.4565,-31.94113)">
                    <g
                       id="g8070"
                       transform="matrix(0.0674273,0,0,0.07080033,39.16136,177.0295)" />
                    <g
                       id="g8074"
                       transform="matrix(0.0674273,0,0,0.09527638,-76.77098,150.027)" />
                  </g>
                  <g
                     id="g8350"
                     transform="translate(467.627,12.45117)">
                    <g
                       id="g5881"
                       transform="matrix(0.260999,0,0,0.439416,-607.27,585.5121)">
                      <g
                         id="g3072"
                         transform="matrix(0.129076,0,0,0.09519717,575.6726,288.6603)" />
                    </g>
                    <g
                       id="g8315"
                       style="fill:#ffffff"
                       transform="matrix(1,0,0,0.999633,7.21672,-12.39608)" />
                  </g>
                  <g
                     id="g9658"
                     style="fill:#000000"
                     transform="translate(475,0)">
                    <g
                       id="g9359"
                       style="fill:#000000"
                       transform="translate(-0.01804875,0)" />
                    <g
                       style="fill:#000000"
                       id="g9386"
                       transform="translate(0.488281,0)" />
                  </g>
                </g>
              </g>
            </g>
          </g>
          <g
             transform="matrix(1.3312616,0,0,1.3312616,-5269.9091,4722.342)"
             id="g6146"
             inkscape:label="Layer 1">
            <g
               transform="translate(-1030.621,-1685.5114)"
               id="g2631">
              <g
                 style="fill:#000000"
                 transform="translate(1375.4193,-196.19726)"
                 id="g5641" />
            </g>
          </g>
        </g>
        <g
           transform="matrix(14.8746,0,0,14.86043,-40661.01,-36878.899)"
           id="g3913">
          <g
             id="g3915">
            <g
               style="fill:#ffffff"
               id="g3917" />
            <g
               transform="translate(-0.1011,0)"
               id="g3920">
              <g
                 id="g3923"
                 style="fill:#ffffff" />
            </g>
          </g>
        </g>
        <g
           inkscape:label="Warstwa 1"
           id="g4688"
           transform="matrix(0.3836932,0,0,0.3836932,-829.16518,-676.93745)">
          <g
             id="g4690"
             transform="matrix(14.8746,0,0,14.86043,-37574.7,-34487.9)">
            <g
               id="g4692">
              <g
                 id="g4694">
                <g
                   style="fill:#ffffff"
                   id="g4696" />
                <g
                   transform="translate(-0.1011,0)"
                   id="g4698">
                  <g
                     id="g4700"
                     style="fill:#ffffff" />
                </g>
              </g>
            </g>
          </g>
        </g>
        <g
           inkscape:label="Layer 1"
           id="g5091"
           transform="translate(-3954.7278,3678.7494)">
          <g
             id="g5093"
             transform="translate(-1030.621,-1685.5114)">
            <g
               id="g5065"
               transform="matrix(0.1841218,0,0,0.1841218,3615.4779,-492.99075)">
              <g
                 style="fill:#ffffff"
                 transform="translate(2089.3872,-6773.4048)"
                 id="g5022" />
              <g
                 style="fill:#ffffff"
                 transform="translate(952.49985,-4298.5209)"
                 id="g4960" />
            </g>
          </g>
        </g>
      </g>
      <g
         id="g6675"
         transform="matrix(1.1024466,0,0,1.1024466,64.855606,-51.350485)">
        <g
           id="g6633">
          <g
             id="g6626">
            <path
               d="m 242.42874,450.48279 c -10.03722,0 -18.18349,8.10754 -18.18349,18.0978 0,9.98964 8.14627,18.09655 18.18349,18.09655 10.03727,0 18.18342,-8.10691 18.18342,-18.09655 0,-9.99026 -8.14615,-18.0978 -18.18342,-18.0978 z m 0.27278,9.16903 c 4.98264,0 9.03106,4.02943 9.03106,8.98869 0,4.95923 -4.04842,8.98055 -9.03106,8.98055 -4.98265,0 -9.02352,-4.02132 -9.02352,-8.98055 0,-4.95926 4.04087,-8.98869 9.02352,-8.98869 z"
               style="fill:#000000;fill-opacity:1;stroke:none"
               id="path5914"
               inkscape:connector-curvature="0" />
            <g
               id="g5909"
               transform="translate(-3528.6844,1698.8464)"
               style="fill:#000000">
              <path
                 d="m 3716.4404,-1266.4712 0,54.302 9.2806,0 0,-22.5852 15.4296,0 c 0,0 9.3715,-5.0742 9.3715,-15.8395 0,-11.7104 -9.3715,-15.8773 -9.3715,-15.8773 l -15.4296,0 -9.2806,0 z m 21.9585,9.0479 c 0,0 3.1848,3.413 3.1848,6.8294 0,3.4167 -3.1848,6.8372 -3.1848,6.8372 l -12.6779,0 0,-13.5375 12.6779,-0.1291 z"
                 style="fill:#000000;fill-opacity:1;stroke:none"
                 id="path5595"
                 inkscape:connector-curvature="0" />
              <path
                 d="m 3796.2772,-1266.6402 0,54.471 9.2021,0 0,-2.4081 c 2.6786,1.5336 5.7801,2.4081 9.0872,2.4081 10.1082,0 18.3118,-8.1935 18.3118,-18.2891 0,-10.0955 -8.2036,-18.2889 -18.3118,-18.2889 -3.3071,0 -6.4086,0.8819 -9.0872,2.4155 l 0,-20.3085 -9.2021,0 z m 18.5639,27.1593 c 5.0179,0 9.0951,4.0718 9.0951,9.0838 0,5.0113 -4.0772,9.0758 -9.0951,9.0758 -5.0177,0 -9.0872,-4.0645 -9.0872,-9.0758 0,-5.012 4.0695,-9.0838 9.0872,-9.0838 z"
                 style="fill:#000000;fill-opacity:1;stroke:none"
                 id="path5599"
                 inkscape:connector-curvature="0" />
              <path
                 d="m 3895.1632,-1246.6813 0,-1.6819 -9.0002,0 0,36.194 9.0002,0 0,-23.4582 c 2.1731,-2.6234 5.6397,-3.9432 9.0154,-3.8113 l 0,-8.9245 c -4.0047,0.1301 -7.2027,0.5103 -9.0154,1.6819 z"
                 style="fill:#000000;fill-opacity:1;stroke:none"
                 id="path5607"
                 inkscape:connector-curvature="0" />
            </g>
          </g>
        </g>
        <g
           id="g4749"
           transform="matrix(55.101751,0,0,55.108309,-36234.009,-18522.599)">
          <path
             id="path4001"
             style="fill:#000000;fill-opacity:1;stroke:none"
             d="m 663.63657,343.95547 -0.0747,0.24321 0.24505,-0.24321 -0.17036,0 z m -0.0623,0.32949 c -0.18371,0 -0.33309,0.14762 -0.33309,0.32946 0,0.18188 0.14938,0.32949 0.33309,0.32949 0.18402,0 0.3334,-0.14761 0.3334,-0.32949 0,-0.18184 -0.14938,-0.32946 -0.3334,-0.32946 z m 0.005,0.16691 c 0.0912,0 0.16559,0.0734 0.16559,0.16369 0,0.0903 -0.0744,0.16351 -0.16559,0.16351 -0.0912,0 -0.16527,-0.0732 -0.16527,-0.16351 0,-0.0903 0.0741,-0.16369 0.16527,-0.16369 z"
             inkscape:connector-curvature="0" />
        </g>
      </g>
      <g
         id="g7998"
         transform="matrix(55.101751,0,0,55.108309,-36029.718,-18596.132)">
        <g
           id="g7975"
           transform="matrix(0.04919456,0,0,0.02951559,177.53281,332.42372)" />
      </g>
      <g
         id="g7441"
         transform="matrix(1.1024466,0,0,1.1024466,-38.364622,-54.020149)">
        <path
           d="m 295.05564,584.25687 c -10.03721,0 -18.18349,8.10754 -18.18349,18.0978 0,9.98964 8.14628,18.09655 18.18349,18.09655 10.03728,0 18.18343,-8.10691 18.18343,-18.09655 0,-9.99026 -8.14615,-18.0978 -18.18343,-18.0978 z m 0.27278,9.16903 c 4.98265,0 9.03107,4.02943 9.03107,8.98869 0,4.95923 -4.04842,8.98055 -9.03107,8.98055 -4.98263,0 -9.02352,-4.02132 -9.02352,-8.98055 0,-4.95926 4.04089,-8.98869 9.02352,-8.98869 z"
           style="fill:#000000;fill-opacity:1;stroke:none"
           id="path4813"
           inkscape:connector-curvature="0" />
        <path
           d="m 416.57214,584.25376 c -9.99092,0 -18.09945,8.1069 -18.09945,18.09529 0,9.98777 8.10853,18.09469 18.09945,18.09469 3.90748,0 7.52372,-1.24809 10.48282,-3.35485 l 0.88224,3.36233 8.98945,0 -2.34541,-8.83641 0,-7.41859 c 0.0618,-0.60844 0.0905,-1.22311 0.0905,-1.84717 0,-0.62465 -0.0288,-1.23934 -0.0905,-1.84716 l 0,-16.24002 -8.98945,0 0,2.40506 c -2.65637,-1.53078 -5.73528,-2.41317 -9.01965,-2.41317 z m 0.27153,9.1684 c 4.25146,0 7.81585,2.96045 8.74812,6.92872 l 0,4.1168 c -0.93227,3.96702 -4.49666,6.92123 -8.74812,6.92123 -4.95967,0 -8.98189,-4.02132 -8.98189,-8.97932 0,-4.95862 4.02222,-8.98743 8.98189,-8.98743 z"
           style="fill:#000000;fill-opacity:1;stroke:none"
           id="path5684"
           inkscape:connector-curvature="0" />
        <g
           id="g5906"
           transform="matrix(0.1841218,0,0,0.1841218,-1123.1599,702.2022)"
           style="fill:#000000">
          <path
             d="m 7851.6682,-342.48012 0,-295.84221 50.3056,0 0,13.17516 c 14.3722,-8.38409 31.1407,-13.17516 49.1068,-13.17516 55.0964,0 99.4135,44.31645 99.4135,99.41273 0,55.09598 -44.3171,99.41236 -99.4135,99.41236 -17.9661,0 -34.7346,-4.79093 -49.1068,-13.17502 l 0,110.19214 -50.3056,0 z m 100.6101,-147.3222 c 27.5487,0 49.1079,-22.75712 49.1079,-49.10728 0,-27.54826 -21.5592,-49.1075 -49.1079,-49.1075 -27.5477,0 -49.1069,21.55924 -49.1069,49.1075 0,26.35016 21.5592,49.10728 49.1069,49.10728 z"
             style="fill:#000000;fill-opacity:1;stroke:none"
             id="path4946"
             inkscape:connector-curvature="0" />
        </g>
        <g
           transform="matrix(55.101751,0,0,55.108309,-36222.965,-18522.599)"
           id="g5069">
          <path
             id="path5917"
             style="fill:#000000;fill-opacity:1;stroke:none"
             d="m 665.75078,346.38294 -0.16473,0.16286 0,0.16092 -0.12782,0 0,0.16451 0.12782,0 0,0.21336 c -0.002,0.15756 0.0836,0.28042 0.24875,0.28679 l 0.0836,-0.16351 c -0.0468,0 -0.0515,0 -0.10917,0 -0.0223,0 -0.0584,-0.0433 -0.0584,-0.0664 0,-0.0835 0,-0.27022 0,-0.27022 l 0.12754,0 0,-0.16451 -0.12754,0 0,-0.32378 z"
             inkscape:connector-curvature="0" />
        </g>
        <g
           inkscape:label="Warstwa 1"
           id="g7428"
           transform="matrix(0.3759494,0,0,0.3759494,-803.51628,-518.50524)">
          <g
             id="g7430"
             transform="matrix(14.8746,0,0,14.86043,-37574.7,-34487.9)">
            <g
               id="g7432">
              <g
                 id="g7434">
                <g
                   transform="translate(-0.1011,0)"
                   id="g7436">
                  <g
                     id="g7438"
                     style="fill:#ffffff">
                    <path
                       d="m 2736.8149,2514.9042 0,3.199 -1.634,0.797 0,1.646 1.634,-0.798 0,4.906 1.649,0 0,-5.71 1.634,-0.797 0,-1.647 -1.634,0.798 0,-2.394 -1.649,0 z"
                       style="fill:#000000;fill-opacity:1;stroke:none"
                       id="path8754"
                       inkscape:connector-curvature="0" />
                  </g>
                </g>
              </g>
            </g>
          </g>
        </g>
      </g>
    </g>
  </g>
</svg>
