<?xml version="1.0" encoding="UTF-8" standalone="no"?>
<!-- Created with Inkscape (http://www.inkscape.org/) -->

<svg
   xmlns:dc="http://purl.org/dc/elements/1.1/"
   xmlns:cc="http://creativecommons.org/ns#"
   xmlns:rdf="http://www.w3.org/1999/02/22-rdf-syntax-ns#"
   xmlns:svg="http://www.w3.org/2000/svg"
   xmlns="http://www.w3.org/2000/svg"
   xmlns:sodipodi="http://sodipodi.sourceforge.net/DTD/sodipodi-0.dtd"
   xmlns:inkscape="http://www.inkscape.org/namespaces/inkscape"
   version="1.0"
   width="497.1875"
   height="497.21875"
   id="svg8039"
   sodipodi:version="0.32"
   inkscape:version="0.48.2 r9819"
   sodipodi:docname="AJAX.svg"
   inkscape:output_extension="org.inkscape.output.svg.inkscape">
  <metadata
     id="metadata14">
    <rdf:RDF>
      <cc:Work
         rdf:about="">
        <dc:format>image/svg+xml</dc:format>
        <dc:type
           rdf:resource="http://purl.org/dc/dcmitype/StillImage" />
      </cc:Work>
    </rdf:RDF>
  </metadata>
  <sodipodi:namedview
     inkscape:window-height="1004"
     inkscape:window-width="1280"
     inkscape:pageshadow="2"
     inkscape:pageopacity="0.0"
     guidetolerance="10.0"
     gridtolerance="10.0"
     objecttolerance="10.0"
     borderopacity="1.0"
     bordercolor="#666666"
     pagecolor="#ffffff"
     id="base"
     showgrid="false"
     inkscape:zoom="0.86264828"
     inkscape:cx="182.2092"
     inkscape:cy="265.20713"
     inkscape:window-x="-8"
     inkscape:window-y="-8"
     inkscape:current-layer="g8079"
     fit-margin-top="0"
     fit-margin-left="0"
     fit-margin-right="0"
     fit-margin-bottom="0"
     inkscape:window-maximized="1" />
  <defs
     id="defs8041" />
  <g
     transform="translate(-124.99985,-285.14332)"
     id="layer1">
    <g
       id="g8101">
      <g
         transform="translate(123.5936,283.7527)"
         id="g8079">
        <path
           d="m 489.81433,246.87063 a 241.30585,240.14877 0 1 1 -482.6116862,0 241.30585,240.14877 0 1 1 482.6116862,0 z"
           style="fill:#ffffff;fill-opacity:1;fill-rule:nonzero;stroke:none"
           id="path8679"
           inkscape:connector-curvature="0" />
        <path
           d="m 250,1.390623 c -137.22627,0 -248.59375,111.395057 -248.59375,248.625007 0,137.22993 111.36749,248.59376 248.59375,248.59375 137.22627,0 248.59374,-111.36382 248.59375,-248.59375 C 498.59375,112.78569 387.22627,1.390623 250,1.390623 z m 0,48.625 c 110.40002,1e-6 200,89.599987 200,200.000007 -10e-6,110.40003 -89.59997,200 -200,200 -110.40004,-10e-6 -200,-89.59998 -200,-200 C 50,139.61561 139.59997,50.015623 250,50.015623 z"
           style="fill:#d40000;fill-opacity:1;fill-rule:nonzero;stroke:none"
           id="path3063"
           inkscape:connector-curvature="0" />
      </g>
      <g
         transform="translate(1.193183e-6,-2.760189)"
         id="g8096"
         style="stroke:none;fill:#000000">
        <path
           d="m 212.06547,514.54291 329.23646,0 c 36.24727,0 36.39795,44.88476 0,44.88476 l -329.23646,0 c -39.09763,0 -42.49215,-44.88476 0,-44.88476 z"
           style="fill:#000000;fill-opacity:1;fill-rule:nonzero;stroke:none"
           id="rect8083"
           inkscape:connector-curvature="0" />
      </g>
      <g
         transform="matrix(0.7304712,0,0,0.582418,-4335.8366,4521.0003)"
         id="g3011" />
      <g
         style="fill:#000000"
         id="g3396"
         transform="matrix(21.98635,0,0,21.99026,-18078.657,-23724.254)">
        <g
           style="fill:#000000"
           transform="translate(134.2857,-4.285714)"
           id="g3398" />
        <g
           style="fill:#000000"
           transform="translate(29.68471,14.06375)"
           id="g3404" />
      </g>
      <g
         id="g4847"
         transform="translate(0,-9.063991)"
         style="stroke:none;fill:#000000">
        <path
           id="path4364"
           style="fill:#000000;fill-opacity:1;stroke:none"
           d="m 460.95795,435.4353 9.94156,0 0,58.81383 -9.94156,0 0,-58.81383 z"
           inkscape:connector-curvature="0" />
        <path
           id="path4370"
           style="fill:#000000;fill-opacity:1;stroke:none"
           d="m 377.42066,435.30931 -9.77832,9.69009 0,9.57516 -7.58834,0 0,9.78879 7.58834,0 0,12.69567 c -0.13681,9.37439 4.9628,16.68488 14.76647,17.06412 l 4.96287,-9.72929 c -2.77822,0 -3.05582,0 -6.48101,0 -1.32186,0 -3.47001,-2.57699 -3.47001,-3.95202 0,-4.96875 0,-16.07848 0,-16.07848 l 7.57239,0 0,-9.78879 -7.57239,0 0,-19.26525 z"
           inkscape:connector-curvature="0" />
        <path
           id="path4647"
           style="fill:#000000;fill-opacity:1;stroke:none"
           d="m 232.92962,435.30956 0,58.81383 9.93797,0 0,-19.83784 4.53226,-5.10126 17.04966,24.9391 13.04462,0 -23.46883,-32.39358 23.46883,-26.42025 -13.03637,0 -21.59017,24.29754 0,-24.29754 -9.93797,0 z"
           inkscape:connector-curvature="0" />
        <path
           id="path4649"
           style="fill:#000000;fill-opacity:1;stroke:none"
           d="m 496.13954,454.91417 c -10.83828,0 -19.63452,8.78016 -19.63452,19.60055 0,10.81972 8.79624,19.59988 19.63452,19.59988 4.23898,0 8.16184,-1.35137 11.37196,-3.63429 l 0.95714,3.64308 9.75183,0 -2.54436,-9.57178 0,-8.03654 c 0.067,-0.65845 0.0982,-1.32433 0.0982,-2.00035 0,-0.6767 -0.0312,-1.34258 -0.0982,-2.00102 l 0,-17.5921 -9.75196,0 0,2.60539 c -2.88164,-1.65761 -6.22167,-2.61282 -9.78461,-2.61282 z m 0.29462,9.93075 c 4.61201,0 8.4787,3.20636 9.48999,7.50518 l 0,4.45971 c -1.01129,4.29679 -4.87798,7.49708 -9.48999,7.49708 -5.38037,0 -9.74372,-4.35628 -9.74372,-9.7266 0,-5.37166 4.36335,-9.73537 9.74372,-9.73537 z"
           inkscape:connector-curvature="0" />
        <path
           id="path4659"
           style="fill:#000000;fill-opacity:1;stroke:none"
           d="m 402.6834,456.73604 0,-1.82187 -9.7473,0 0,39.20922 9.7473,0 0,-25.41231 c 2.35356,-2.84199 6.10771,-4.27245 9.76379,-4.12846 l 0,-9.66845 c -4.33712,0.14061 -7.80057,0.55298 -9.76379,1.82187 z"
           inkscape:connector-curvature="0" />
        <path
           id="path4665"
           style="fill:#000000;fill-opacity:1;stroke:none"
           d="m 296.56176,454.91417 c -10.87328,0 -19.69811,8.78286 -19.69811,19.60528 0,10.82175 8.82483,19.60394 19.69811,19.60394 10.87336,0 19.69805,-8.78219 19.69805,-19.60394 0,-10.82242 -8.82469,-19.60528 -19.69805,-19.60528 z m 0.29551,9.93277 c 5.39767,0 9.78332,4.36507 9.78332,9.73741 0,5.37234 -4.38565,9.72862 -9.78332,9.72862 -5.39768,0 -9.77515,-4.35628 -9.77515,-9.72862 0,-5.37234 4.37747,-9.73741 9.77515,-9.73741 z"
           inkscape:connector-curvature="0" />
        <path
           d="m 436.13657,454.91417 c -10.87328,0 -19.69811,8.78286 -19.69811,19.60528 0,10.82175 8.82483,19.60394 19.69811,19.60394 10.87336,0 19.69805,-8.78219 19.69805,-19.60394 0,-10.82242 -8.82469,-19.60528 -19.69805,-19.60528 z m 0.29551,9.93277 c 5.39767,0 9.78332,4.36507 9.78332,9.73741 0,5.37234 -4.38565,9.72862 -9.78332,9.72862 -5.39768,0 -9.77515,-4.35628 -9.77515,-9.72862 0,-5.37234 4.37747,-9.73741 9.77515,-9.73741 z"
           style="fill:#000000;fill-opacity:1;stroke:none"
           id="path2737"
           inkscape:connector-curvature="0" />
        <path
           id="path2827"
           style="fill:#000000;fill-opacity:1;stroke:none"
           d="m 321.2533,454.92093 0,39.21192 9.75284,0 0,-24.80186 c 0.35418,-1.06135 3.07157,-4.58275 7.15874,-4.58275 5.33164,0 7.13407,4.89575 7.13407,4.89575 l 0.16525,24.48886 9.74676,0 0.0305,-24.48886 c -0.78885,-9.70766 -7.56516,-14.72306 -14.42731,-14.72306 -5.21038,0 -8.87782,2.84537 -9.808,3.61468 l 0,-3.61468 -9.75284,0 z"
           inkscape:connector-curvature="0" />
      </g>
      <g
         id="g4827"
         transform="translate(4,0)"
         style="stroke:none;fill:#000000">
        <path
           d="m 310.51398,583.78092 c -10.87329,0 -19.69812,8.78287 -19.69812,19.60529 0,10.82174 8.82483,19.60393 19.69812,19.60393 10.87335,0 19.69805,-8.78219 19.69805,-19.60393 0,-10.82242 -8.8247,-19.60529 -19.69805,-19.60529 z m 0.2955,9.93278 c 5.39768,0 9.78333,4.36507 9.78333,9.73741 0,5.37233 -4.38565,9.72861 -9.78333,9.72861 -5.39767,0 -9.77515,-4.35628 -9.77515,-9.72861 0,-5.37234 4.37748,-9.73741 9.77515,-9.73741 z"
           style="fill:#000000;fill-opacity:1;stroke:none"
           id="path4813"
           inkscape:connector-curvature="0" />
        <path
           id="path4815"
           style="fill:#000000;fill-opacity:1;stroke:none"
           d="m 396.51358,583.78092 c -10.87329,0 -19.69812,8.78287 -19.69812,19.60529 0,10.82174 8.82483,19.60393 19.69812,19.60393 10.87335,0 19.69804,-8.78219 19.69804,-19.60393 0,-10.82242 -8.82469,-19.60529 -19.69804,-19.60529 z m 0.2955,9.93278 c 5.39768,0 9.78333,4.36507 9.78333,9.73741 0,5.37233 -4.38565,9.72861 -9.78333,9.72861 -5.39768,0 -9.77515,-4.35628 -9.77515,-9.72861 0,-5.37234 4.37747,-9.73741 9.77515,-9.73741 z"
           inkscape:connector-curvature="0" />
        <g
           transform="matrix(6.7590085,0,0,6.7602105,-4969.9003,-6993.2632)"
           id="g2906"
           style="stroke:none;fill:#000000">
          <path
             d="m 776.55677,1121.0992 0,-0.2696 -1.44079,0 0,5.8 1.44079,0 0,-3.7591 c 0.34789,-0.4204 0.90288,-0.6318 1.4433,-0.6107 l 0,-1.4302 c -0.64113,0.021 -1.15313,0.082 -1.4433,0.2696 z"
             style="fill:#000000;fill-opacity:1;stroke:none"
             id="path4368"
             inkscape:connector-curvature="0" />
          <path
             id="path5684"
             style="fill:#000000;fill-opacity:1;stroke:none"
             d="m 808.15838,1120.8291 c -1.60129,0 -2.90088,1.2991 -2.90088,2.8997 0,1.6005 1.29959,2.8996 2.90088,2.8996 0.62627,0 1.20586,-0.2 1.68013,-0.5376 l 0.1414,0.5388 1.44078,0 -0.37591,-1.416 0,-1.1888 c 0.01,-0.097 0.0145,-0.196 0.0145,-0.296 0,-0.1001 -0.005,-0.1986 -0.0145,-0.296 l 0,-2.6024 -1.44078,0 0,0.3854 c -0.42575,-0.2453 -0.91922,-0.3867 -1.44562,-0.3867 z m 0.0435,1.4692 c 0.6814,0 1.25268,0.4744 1.4021,1.1103 l 0,0.6597 c -0.14942,0.6357 -0.7207,1.1091 -1.4021,1.1091 -0.79491,0 -1.43957,-0.6444 -1.43957,-1.4389 0,-0.7946 0.64466,-1.4402 1.43957,-1.4402 z"
             inkscape:connector-curvature="0" />
          <path
             id="path5708"
             style="fill:#000000;fill-opacity:1;stroke:none"
             d="m 787.5027,1120.83 c -0.52649,0 -1.02033,0.1406 -1.44682,0.385 l 0,-0.013 c -0.80564,0.4585 -1.37219,1.2892 -1.46502,2.2574 l 0,0.5623 c 0.0928,0.9683 0.65938,1.7976 1.46502,2.2562 l 0,0 c 0.10663,0.061 0.21714,0.1164 0.33162,0.1638 0.0287,0.012 0.0572,0.023 0.0863,0.034 0.0291,0.011 0.0592,0.022 0.0887,0.032 0.0295,0.01 0.0587,0.02 0.0887,0.029 0.0598,0.018 0.12079,0.034 0.1822,0.049 0.0307,0.01 0.0613,0.014 0.0923,0.021 0.0311,0.01 0.0621,0.012 0.0936,0.017 0.0314,0.01 0.063,0.01 0.0947,0.013 0.0284,0 0.0563,0.01 0.085,0.011 0.0429,0 0.0866,0.01 0.12998,0.01 0.006,3e-4 0.0121,9e-4 0.0182,0 0.006,3e-4 0.0113,-2e-4 0.017,0 0.0426,0 0.0857,0 0.12875,0 0.003,0 0.006,0 0.01,0 0.0487,-10e-5 0.0964,0 0.14454,0 0.002,0 0.003,10e-5 0.005,0 0.0482,0 0.0959,-0.01 0.14339,-0.011 0.002,-10e-5 0.003,2e-4 0.005,0 0.0965,-0.01 0.192,-0.024 0.2855,-0.044 0.32986,-0.068 0.639,-0.1908 0.91836,-0.3595 l 0,0.4165 c -0.0908,0.8615 -0.63412,1.2843 -1.45411,1.4148 -0.33469,0 -0.64285,-0.114 -0.88798,-0.3049 l -0.89408,1.1925 c 0.0932,0.069 0.19032,0.1319 0.29156,0.1895 l 0,0 c 0.1066,0.061 0.21714,0.1165 0.33162,0.164 0.0286,0.012 0.0572,0.023 0.0863,0.034 0.0291,0.011 0.0592,0.022 0.0886,0.032 0.0295,0.01 0.0587,0.02 0.0887,0.029 0.0599,0.018 0.12082,0.034 0.18226,0.049 0.0307,0.01 0.0612,0.014 0.0923,0.021 0.031,0.01 0.0621,0.012 0.0935,0.017 0.0314,0.01 0.063,0.01 0.0947,0.013 0.0285,0 0.0564,0.01 0.0851,0.011 0.0429,0 0.0866,0.01 0.12998,0.01 0.006,4e-4 0.0121,10e-4 0.0182,0 0.006,3e-4 0.0114,-3e-4 0.017,0 0.0426,0 0.0857,0 0.12874,0 0.003,0 0.007,0 0.01,0 0.0488,-10e-5 0.0964,0 0.14457,0 0.002,0 0.003,10e-5 0.005,0 0.0481,0 0.0959,-0.01 0.14336,-0.011 0.002,-10e-5 0.003,2e-4 0.005,0 0.0965,-0.01 0.19197,-0.024 0.28541,-0.044 0.38015,-0.078 0.73399,-0.2297 1.04472,-0.4396 2.6e-4,-2e-4 9.9e-4,2e-4 10e-4,0 0.77824,-0.5406 1.27205,-1.4295 1.2852,-2.374 l 0.0316,-5.8288 -1.448,0 0,0.4178 c -0.43874,-0.2645 -0.9521,-0.4178 -1.50147,-0.4178 z m 0.0437,1.4766 c 0.79886,0 1.448,0.6489 1.448,1.4475 0,0.7986 -0.64914,1.4463 -1.448,1.4463 -0.79893,0 -1.44679,-0.6477 -1.44679,-1.4463 0,-0.7986 0.64786,-1.4475 1.44679,-1.4475 z"
             inkscape:connector-curvature="0" />
        </g>
        <g
           inkscape:label="Warstwa 1"
           id="g4034"
           transform="matrix(0.3699959,0,0,0.3699959,-992.4316,-411.48202)"
           style="stroke:none;fill:#000000">
          <g
             id="g8869"
             transform="matrix(14.8746,0,0,14.86043,-37574.7,-34487.9)"
             style="stroke:none;fill:#000000">
            <g
               id="g8822"
               style="stroke:none;fill:#000000">
              <g
                 id="g8805"
                 style="stroke:none;fill:#000000">
                <g
                   style="fill:#000000;stroke:none"
                   id="g8716">
                  <path
                     id="path8696"
                     style="fill:#000000;fill-opacity:1;stroke:none"
                     d="m 2754.4118,2498.1628 0,10.7688 -1.8196,0 0,-0.4758 c -0.5301,0.3025 -1.1444,0.4758 -1.7983,0.4758 -1.9997,0 -3.622,-1.6193 -3.622,-3.6153 0,-1.9965 1.6223,-3.6153 3.622,-3.6153 0.6539,0 1.2682,0.1736 1.7983,0.4773 l 0,-4.0155 1.8196,0 z m -3.6721,5.3695 c -0.9929,0 -1.7983,0.8045 -1.7983,1.7953 0,0.9918 0.8054,1.794 1.7983,1.794 0.9924,0 1.7977,-0.8022 1.7977,-1.794 0,-0.9908 -0.8053,-1.7953 -1.7977,-1.7953 z"
                     inkscape:connector-curvature="0" />
                </g>
              </g>
            </g>
          </g>
        </g>
        <g
           inkscape:label="Warstwa 1"
           id="g4805"
           transform="matrix(0.3699959,0,0,0.3699959,-1086.2934,-291.85017)"
           style="stroke:none;fill:#000000">
          <g
             id="g4807"
             transform="matrix(14.8746,0,0,14.86043,-37574.7,-34487.9)"
             style="stroke:none;fill:#000000">
            <g
               id="g8849"
               style="stroke:none;fill:#000000">
              <g
                 id="g8778"
                 transform="translate(0,-0.021442)"
                 style="stroke:none;fill:#000000">
                <g
                   transform="matrix(1.052479,0,0,1.050851,3039.18,2247.03)"
                   style="fill:#000000;stroke:none"
                   id="g9349">
                  <path
                     d="m -227.72646,221.75521 1.65575,6.78815 1.69265,0 1.25814,-4.05875 1.25813,4.05875 1.69266,0 1.65575,-6.78815 -1.69267,0 -0.91023,3.73207 -1.15731,-3.73207 -1.69266,0 -1.15731,3.73207 -0.91023,-3.73207 -1.69267,0 z"
                     style="fill:#000000;fill-opacity:1;stroke:none"
                     id="path8367"
                     inkscape:connector-curvature="0" />
                </g>
              </g>
            </g>
          </g>
        </g>
      </g>
    </g>
  </g>
</svg>
