<?xml version="1.0" encoding="UTF-8" standalone="no"?>
<!-- Created with Inkscape (http://www.inkscape.org/) -->

<svg
   xmlns:dc="http://purl.org/dc/elements/1.1/"
   xmlns:cc="http://creativecommons.org/ns#"
   xmlns:rdf="http://www.w3.org/1999/02/22-rdf-syntax-ns#"
   xmlns:svg="http://www.w3.org/2000/svg"
   xmlns="http://www.w3.org/2000/svg"
   xmlns:sodipodi="http://sodipodi.sourceforge.net/DTD/sodipodi-0.dtd"
   xmlns:inkscape="http://www.inkscape.org/namespaces/inkscape"
   version="1.0"
   width="500.00009"
   height="500.00021"
   id="svg10969"
   inkscape:version="0.48.2 r9819"
   sodipodi:docname="AJAX.svg">
  <metadata
     id="metadata16">
    <rdf:RDF>
      <cc:Work
         rdf:about="">
        <dc:format>image/svg+xml</dc:format>
        <dc:type
           rdf:resource="http://purl.org/dc/dcmitype/StillImage" />
      </cc:Work>
    </rdf:RDF>
  </metadata>
  <sodipodi:namedview
     pagecolor="#ffffff"
     bordercolor="#666666"
     borderopacity="1"
     objecttolerance="10"
     gridtolerance="10"
     guidetolerance="10"
     inkscape:pageopacity="0"
     inkscape:pageshadow="2"
     inkscape:window-width="1280"
     inkscape:window-height="1004"
     id="namedview14"
     showgrid="false"
     fit-margin-top="0"
     fit-margin-left="0"
     fit-margin-right="0"
     fit-margin-bottom="0"
     inkscape:zoom="0.4719998"
     inkscape:cx="-80.50856"
     inkscape:cy="250.00009"
     inkscape:window-x="-8"
     inkscape:window-y="-8"
     inkscape:window-maximized="1"
     inkscape:current-layer="g14051" />
  <defs
     id="defs10971" />
  <g
     transform="translate(-178.57139,-162.36211)"
     id="layer1">
    <g
       id="g14051">
      <path
         d="m 390.42439,244.34138 a 140.71134,122.87468 0 1 1 -281.42267,0 140.71134,122.87468 0 1 1 281.42267,0 z"
         transform="matrix(-1.743421,0,0,1.996373,863.9264,-75.43433)"
         style="fill:#ffffff;fill-opacity:1;fill-rule:nonzero;stroke:none"
         id="path8679"
         inkscape:connector-curvature="0" />
      <path
         d="m 31.428558,219.50504 a 310,310 0 1 1 -619.999998,0 310,310 0 1 1 619.999998,0 z"
         transform="matrix(0.639516,0,0,0.639516,606.7223,271.9852)"
         style="fill:#0f00fb;fill-opacity:1;fill-rule:nonzero;stroke:none"
         id="path11256"
         inkscape:connector-curvature="0" />
      <rect
         width="467.75955"
         height="49.133499"
         ry="0"
         x="-828.50928"
         y="-36.009895"
         transform="matrix(-0.707129,-0.707085,-0.707129,0.707085,0,0)"
         style="fill:#ff0000;fill-opacity:1;fill-rule:nonzero;stroke:#ffffff;stroke-width:3.5;stroke-miterlimit:4;stroke-opacity:1;stroke-dasharray:none;stroke-dashoffset:0"
         id="rect3274" />
      <path
         d="m 428.57143,162.36211 c 138.00256,0 250.00005,112.01821 250.00005,250.01582 0,137.99759 -111.9975,249.98439 -250.00005,249.98438 -138.00256,0 -250.00003,-111.98679 -250.00004,-249.98438 0,-137.9976 111.99748,-250.01582 250.00004,-250.01582 z m 0,48.89701 c -111.02455,0 -201.1314,90.10121 -201.1314,201.11881 1e-5,111.01761 90.10684,201.1188 201.1314,201.1188 111.02457,-10e-6 201.1314,-90.1012 201.1314,-201.1188 0,-111.0176 -90.10684,-201.11881 -201.1314,-201.11881 z"
         style="fill:#ff0000;fill-opacity:1;fill-rule:nonzero;stroke:none"
         id="path3063"
         inkscape:connector-curvature="0" />
      <path
         d="m 390.42439,244.34138 a 140.71134,122.87468 0 1 1 -281.42267,0 140.71134,122.87468 0 1 1 281.42267,0 z"
         transform="matrix(-1.743421,0,0,1.996373,863.9264,-75.43433)"
         style="fill:#ffffff;fill-opacity:1;fill-rule:nonzero;stroke:none"
         id="path14027"
         inkscape:connector-curvature="0" />
      <path
         d="m 31.428558,219.50504 a 310,310 0 1 1 -619.999998,0 310,310 0 1 1 619.999998,0 z"
         transform="matrix(0.63871,0,0,0.63871,606.4978,272.1621)"
         style="fill:#003399;fill-opacity:1;fill-rule:nonzero;stroke:none"
         id="path14029"
         inkscape:connector-curvature="0" />
      <rect
         width="467.75986"
         height="49.13353"
         ry="0"
         x="-828.50952"
         y="-36.010014"
         transform="matrix(-0.707129,-0.707085,-0.707129,0.707085,0,0)"
         style="fill:#d40000;fill-opacity:1;fill-rule:nonzero;stroke:#ffffff;stroke-width:3.50000238;stroke-miterlimit:4;stroke-opacity:1;stroke-dasharray:none;stroke-dashoffset:0"
         id="rect14031" />
      <path
         d="m 428.57143,162.36211 c 138.00256,0 250.00005,112.01821 250.00005,250.01582 0,137.99759 -111.9975,249.98439 -250.00005,249.98438 -138.00256,0 -250.00003,-111.98679 -250.00004,-249.98438 0,-137.9976 111.99748,-250.01582 250.00004,-250.01582 z m 0,48.89701 c -111.02455,0 -201.1314,90.10121 -201.1314,201.11881 1e-5,111.01761 90.10684,201.1188 201.1314,201.1188 111.02457,-10e-6 201.1314,-90.1012 201.1314,-201.1188 0,-111.0176 -90.10684,-201.11881 -201.1314,-201.11881 z"
         style="fill:#d40000;fill-opacity:1;fill-rule:nonzero;stroke:none"
         id="path14033"
         inkscape:connector-curvature="0" />
    </g>
  </g>
</svg>
