<?xml version="1.0" encoding="UTF-8" standalone="no"?>
<!-- Created with Inkscape (http://www.inkscape.org/) -->

<svg
   xmlns:dc="http://purl.org/dc/elements/1.1/"
   xmlns:cc="http://creativecommons.org/ns#"
   xmlns:rdf="http://www.w3.org/1999/02/22-rdf-syntax-ns#"
   xmlns:svg="http://www.w3.org/2000/svg"
   xmlns="http://www.w3.org/2000/svg"
   xmlns:sodipodi="http://sodipodi.sourceforge.net/DTD/sodipodi-0.dtd"
   xmlns:inkscape="http://www.inkscape.org/namespaces/inkscape"
   width="500.00009"
   height="500.00021"
   id="svg2"
   sodipodi:version="0.32"
   inkscape:version="0.48.2 r9819"
   version="1.0"
   sodipodi:docname="AJAX.svg">
  <defs
     id="defs4" />
  <sodipodi:namedview
     id="base"
     pagecolor="#ffffff"
     bordercolor="#666666"
     borderopacity="1.0"
     gridtolerance="10000"
     guidetolerance="10"
     objecttolerance="10"
     inkscape:pageopacity="0.0"
     inkscape:pageshadow="2"
     inkscape:zoom="0.49497475"
     inkscape:cx="240.82471"
     inkscape:cy="323.27727"
     inkscape:document-units="px"
     inkscape:current-layer="g1985"
     inkscape:window-width="1280"
     inkscape:window-height="1004"
     inkscape:window-x="-8"
     inkscape:window-y="-8"
     showgrid="false"
     fit-margin-top="0"
     fit-margin-left="0"
     fit-margin-right="0"
     fit-margin-bottom="0"
     inkscape:window-maximized="1" />
  <metadata
     id="metadata7">
    <rdf:RDF>
      <cc:Work
         rdf:about="">
        <dc:format>image/svg+xml</dc:format>
        <dc:type
           rdf:resource="http://purl.org/dc/dcmitype/StillImage" />
      </cc:Work>
    </rdf:RDF>
  </metadata>
  <g
     inkscape:label="Layer 1"
     inkscape:groupmode="layer"
     id="layer1"
     transform="translate(32.85721,-333.79061)">
    <g
       id="g1985">
      <path
         d="m -28.17626,583.79071 c 0,135.47749 109.833099,245.3037 245.31909,245.3037 135.486,0 245.3191,-109.82621 245.3191,-245.3037 0,-135.47748 -109.8331,-245.30369 -245.31909,-245.30369 -135.486001,0 -245.3191,109.82621 -245.3191,245.30369 z"
         style="fill:#ffffff;fill-opacity:1;fill-rule:nonzero;stroke:none"
         id="path8679"
         inkscape:connector-curvature="0" />
      <path
         d="m 415.3928,583.79072 c 0.009,109.49665 -88.75331,198.26588 -198.24996,198.26588 -109.49665,0 -198.258759,-88.76923 -198.249966,-198.26588 -0.0088,-109.49665 88.753316,-198.26589 198.249966,-198.26589 109.49665,0 198.25875,88.76924 198.24996,198.26589 l 0,0 z"
         style="fill:#0f00fb;fill-opacity:1;fill-rule:nonzero;stroke:none"
         id="path11256"
         inkscape:connector-curvature="0" />
      <rect
         width="467.76001"
         height="49.133545"
         ry="0"
         x="-800.23364"
         y="234.70999"
         transform="matrix(-0.707129,-0.707085,-0.707129,0.707085,0,0)"
         style="fill:#ff0000;fill-opacity:1;fill-rule:nonzero;stroke:#ffffff;stroke-width:3.50000358;stroke-miterlimit:4;stroke-opacity:1;stroke-dasharray:none;stroke-dashoffset:0"
         id="rect3274" />
      <path
         d="m 217.14283,333.79061 c 138.00256,0 250.00005,112.01821 250.00005,250.01582 0,137.99759 -111.9975,249.98439 -250.00005,249.98438 -138.00256,0 -250.00003,-111.98679 -250.00004,-249.98438 0,-137.9976 111.99748,-250.01582 250.00004,-250.01582 z m 0,48.89701 c -111.02455,0 -201.1314,90.10121 -201.1314,201.11881 10e-6,111.01761 90.10684,201.1188 201.1314,201.1188 111.02457,-1e-5 201.1314,-90.1012 201.1314,-201.1188 0,-111.0176 -90.10684,-201.11881 -201.1314,-201.11881 z"
         style="fill:#ff0000;fill-opacity:1;fill-rule:nonzero;stroke:none"
         id="path3063"
         inkscape:connector-curvature="0" />
      <path
         d="m -28.17626,583.79071 c 0,135.47749 109.833099,245.3037 245.31909,245.3037 135.486,0 245.3191,-109.82621 245.3191,-245.3037 0,-135.47748 -109.8331,-245.30369 -245.31909,-245.30369 -135.486001,0 -245.3191,109.82621 -245.3191,245.30369 z"
         style="fill:#ffffff;fill-opacity:1;fill-rule:nonzero;stroke:none"
         id="path14027"
         inkscape:connector-curvature="0" />
      <path
         d="m 415.14293,583.79071 c 0.009,109.35865 -88.64145,198.01601 -198.00009,198.01601 -109.35865,0 -198.008885,-88.65736 -198.000102,-198.01601 -0.0088,-109.35864 88.641452,-198.016 198.000102,-198.016 109.35864,0 198.00888,88.65736 198.00009,198.016 l 0,0 z"
         style="fill:#003399;fill-opacity:1;fill-rule:nonzero;stroke:none"
         id="path14029"
         inkscape:connector-curvature="0" />
      <path
         id="rect14031"
         d="m 69.111587,401.05634 -34.71875,34.71875 147.999993,148 -147.999993,148.03125 34.71875,34.71875 148.031243,-148 148,148 34.75,-34.71875 -148.03125,-148.03125 148.03125,-148 -34.75,-34.71875 -148,148 -148.031243,-148 z"
         style="fill:#d40000;fill-opacity:1;fill-rule:nonzero;stroke:#ffffff;stroke-width:3.50000715;stroke-miterlimit:4;stroke-opacity:1;stroke-dasharray:none;stroke-dashoffset:0"
         inkscape:connector-curvature="0" />
      <path
         d="m 217.14283,333.79061 c 138.00256,0 250.00005,112.01821 250.00005,250.01582 0,137.99759 -111.9975,249.98439 -250.00005,249.98438 -138.00256,0 -250.00003,-111.98679 -250.00004,-249.98438 0,-137.9976 111.99748,-250.01582 250.00004,-250.01582 z m 0,48.89701 c -111.02455,0 -201.1314,90.10121 -201.1314,201.11881 10e-6,111.01761 90.10684,201.1188 201.1314,201.1188 111.02457,-1e-5 201.1314,-90.1012 201.1314,-201.1188 0,-111.0176 -90.10684,-201.11881 -201.1314,-201.11881 z"
         style="fill:#d40000;fill-opacity:1;fill-rule:nonzero;stroke:none"
         id="path14033"
         inkscape:connector-curvature="0" />
    </g>
  </g>
</svg>
