<?xml version="1.0" encoding="UTF-8" standalone="no"?>
<!-- Created with Inkscape (http://www.inkscape.org/) -->

<svg
   xmlns:dc="http://purl.org/dc/elements/1.1/"
   xmlns:cc="http://creativecommons.org/ns#"
   xmlns:rdf="http://www.w3.org/1999/02/22-rdf-syntax-ns#"
   xmlns:svg="http://www.w3.org/2000/svg"
   xmlns="http://www.w3.org/2000/svg"
   xmlns:sodipodi="http://sodipodi.sourceforge.net/DTD/sodipodi-0.dtd"
   xmlns:inkscape="http://www.inkscape.org/namespaces/inkscape"
   width="500.00009"
   height="500.00021"
   id="svg2321"
   sodipodi:version="0.32"
   inkscape:version="0.48.2 r9819"
   version="1.0"
   sodipodi:docname="AJAX.svg">
  <defs
     id="defs2323" />
  <sodipodi:namedview
     id="base"
     pagecolor="#ffffff"
     bordercolor="#666666"
     borderopacity="1.0"
     gridtolerance="10000"
     guidetolerance="10"
     objecttolerance="10"
     inkscape:pageopacity="0.0"
     inkscape:pageshadow="2"
     inkscape:zoom="0.49497475"
     inkscape:cx="255.22053"
     inkscape:cy="97.506039"
     inkscape:document-units="px"
     inkscape:current-layer="layer1"
     inkscape:window-width="1280"
     inkscape:window-height="1004"
     inkscape:window-x="-8"
     inkscape:window-y="-8"
     showgrid="false"
     fit-margin-top="0"
     fit-margin-left="0"
     fit-margin-right="0"
     fit-margin-bottom="0"
     inkscape:window-maximized="1" />
  <metadata
     id="metadata2326">
    <rdf:RDF>
      <cc:Work
         rdf:about="">
        <dc:format>image/svg+xml</dc:format>
        <dc:type
           rdf:resource="http://purl.org/dc/dcmitype/StillImage" />
      </cc:Work>
    </rdf:RDF>
  </metadata>
  <g
     inkscape:label="Layer 1"
     inkscape:groupmode="layer"
     id="layer1"
     transform="translate(-258.57138,-16.64781)">
    <path
       id="path8679"
       style="fill:#ffffff;fill-opacity:1;fill-rule:nonzero;stroke:none"
       d="m 263.25233,266.64791 c 0,135.47749 109.8331,245.3037 245.31909,245.3037 135.486,0 245.3191,-109.82621 245.3191,-245.3037 0,-135.47748 -109.8331,-245.303697 -245.31909,-245.303697 -135.486,0 -245.3191,109.826217 -245.3191,245.303697 z"
       inkscape:connector-curvature="0" />
    <path
       id="path11256"
       style="fill:#0f00fb;fill-opacity:1;fill-rule:nonzero;stroke:none"
       d="m 706.82139,266.64791 c 0.009,109.49665 -88.75331,198.26588 -198.24996,198.26588 -109.49665,0 -198.25876,-88.76923 -198.24996,-198.26588 -0.009,-109.49665 88.75331,-198.265882 198.24996,-198.265882 109.49665,0 198.25875,88.769232 198.24996,198.265882 l 0,0 z"
       inkscape:connector-curvature="0" />
    <rect
       id="rect3274"
       style="fill:#ff0000;fill-opacity:1;fill-rule:nonzero;stroke:#ffffff;stroke-width:3.50000477;stroke-miterlimit:4;stroke-opacity:1;stroke-dasharray:none;stroke-dashoffset:0"
       transform="matrix(-0.707129,-0.707085,-0.707129,0.707085,0,0)"
       y="-195.61548"
       x="-782.0376"
       ry="0"
       height="49.13356"
       width="467.76016" />
    <path
       id="path3063"
       style="fill:#ff0000;fill-opacity:1;fill-rule:nonzero;stroke:none"
       d="m 508.57142,16.64781 c 138.00256,0 250.00005,112.01821 250.00005,250.01582 0,137.99759 -111.9975,249.98439 -250.00005,249.98438 -138.00256,0 -250.00003,-111.98679 -250.00004,-249.98438 0,-137.9976 111.99748,-250.01582 250.00004,-250.01582 z m 0,48.89701 c -111.02455,0 -201.1314,90.10121 -201.1314,201.11881 10e-6,111.01761 90.10684,201.1188 201.1314,201.1188 111.02457,-10e-6 201.1314,-90.1012 201.1314,-201.1188 0,-111.0176 -90.10684,-201.11881 -201.1314,-201.11881 z"
       inkscape:connector-curvature="0" />
    <path
       id="path14027"
       style="fill:#ffffff;fill-opacity:1;fill-rule:nonzero;stroke:none"
       d="m 263.25233,266.64791 c 0,135.47749 109.8331,245.3037 245.31909,245.3037 135.486,0 245.3191,-109.82621 245.3191,-245.3037 0,-135.47748 -109.8331,-245.303697 -245.31909,-245.303697 -135.486,0 -245.3191,109.826217 -245.3191,245.303697 z"
       inkscape:connector-curvature="0" />
    <path
       id="path14029"
       style="fill:#003399;fill-opacity:1;fill-rule:nonzero;stroke:none"
       d="m 706.57152,266.64791 c 0.009,109.35865 -88.64145,198.01601 -198.00009,198.01601 -109.35865,0 -198.00889,-88.65736 -198.0001,-198.01601 -0.009,-109.35864 88.64145,-198.016007 198.0001,-198.016007 109.35864,0 198.00888,88.657367 198.00009,198.016007 l 0,0 z"
       inkscape:connector-curvature="0" />
    <rect
       style="fill:#ffffff;fill-opacity:1;fill-rule:nonzero;stroke:none"
       id="rect2423"
       width="59.796947"
       height="321.60001"
       x="478.67294"
       y="105.84791" />
    <rect
       id="rect14031"
       style="fill:#d40000;fill-opacity:1;fill-rule:nonzero;stroke:#ffffff;stroke-width:3.50000715;stroke-miterlimit:4;stroke-opacity:1;stroke-dasharray:none;stroke-dashoffset:0"
       transform="matrix(-0.707129,-0.707085,-0.707129,0.707085,0,0)"
       y="-195.61551"
       x="-782.03778"
       ry="0"
       height="49.133591"
       width="467.76047" />
    <path
       id="path14033"
       style="fill:#d40000;fill-opacity:1;fill-rule:nonzero;stroke:none"
       d="m 508.57142,16.64781 c 138.00256,0 250.00005,112.01821 250.00005,250.01582 0,137.99759 -111.9975,249.98439 -250.00005,249.98438 -138.00256,0 -250.00003,-111.98679 -250.00004,-249.98438 0,-137.9976 111.99748,-250.01582 250.00004,-250.01582 z m 0,48.89701 c -111.02455,0 -201.1314,90.10121 -201.1314,201.11881 10e-6,111.01761 90.10684,201.1188 201.1314,201.1188 111.02457,-10e-6 201.1314,-90.1012 201.1314,-201.1188 0,-111.0176 -90.10684,-201.11881 -201.1314,-201.11881 z"
       inkscape:connector-curvature="0" />
  </g>
</svg>
