<?xml version="1.0" encoding="UTF-8" standalone="no"?>
<!-- Created with Inkscape (http://www.inkscape.org/) -->
<svg
   xmlns:dc="http://purl.org/dc/elements/1.1/"
   xmlns:cc="http://creativecommons.org/ns#"
   xmlns:rdf="http://www.w3.org/1999/02/22-rdf-syntax-ns#"
   xmlns:svg="http://www.w3.org/2000/svg"
   xmlns="http://www.w3.org/2000/svg"
   xmlns:sodipodi="http://sodipodi.sourceforge.net/DTD/sodipodi-0.dtd"
   xmlns:inkscape="http://www.inkscape.org/namespaces/inkscape"
   width="727.98138"
   height="1000.0015"
   id="svg3424"
   sodipodi:version="0.32"
   inkscape:version="0.46"
   version="1.0"
   sodipodi:docname="Znak_B-39.svg"
   inkscape:output_extension="org.inkscape.output.svg.inkscape">
  <defs
     id="defs3426" />
  <sodipodi:namedview
     id="base"
     pagecolor="#ffffff"
     bordercolor="#666666"
     borderopacity="1.0"
     gridtolerance="10000"
     guidetolerance="10"
     objecttolerance="10"
     inkscape:pageopacity="0.0"
     inkscape:pageshadow="2"
     inkscape:zoom="0.49497475"
     inkscape:cx="487.7941"
     inkscape:cy="500.00076"
     inkscape:document-units="px"
     inkscape:current-layer="g5318"
     inkscape:window-width="1280"
     inkscape:window-height="746"
     inkscape:window-x="0"
     inkscape:window-y="0"
     showgrid="false"
     inkscape:window-maximized="1" />
  <metadata
     id="metadata3429">
    <rdf:RDF>
      <cc:Work
         rdf:about="">
        <dc:format>image/svg+xml</dc:format>
        <dc:type
           rdf:resource="http://purl.org/dc/dcmitype/StillImage" />
      </cc:Work>
    </rdf:RDF>
  </metadata>
  <g
     inkscape:label="Layer 1"
     inkscape:groupmode="layer"
     id="layer1"
     transform="translate(210.3207,-14.28331)">
    <g
       id="g5343"
       transform="matrix(1.383059,0,0,1.38217,214.9197,-245.4623)">
      <g
         transform="translate(-17.14286,-37.14286)"
         id="g5318">
        <path
           style="fill:white;fill-opacity:1;fill-rule:nonzero;stroke:black;stroke-width:3.5;stroke-miterlimit:4;stroke-dashoffset:0;stroke-opacity:1"
           d="M -245.71427,226.81937 L 191.42856,226.81937 C 215.17142,226.81937 234.28571,245.93365 234.28571,269.67651 L 234.28571,903.96222 C 234.28571,927.70508 215.17142,946.81937 191.42856,946.81937 L -245.71427,946.81937 C -269.45713,946.81937 -288.57141,927.70508 -288.57141,903.96222 L -288.57141,269.67651 C -288.57141,245.93365 -269.45713,226.81937 -245.71427,226.81937 z "
           id="rect3542"
           sodipodi:nodetypes="ccccccccc" />
        <path
           style="fill:none;fill-opacity:1;fill-rule:nonzero;stroke:black;stroke-width:3.36701035;stroke-miterlimit:4;stroke-dashoffset:0;stroke-opacity:1"
           d="M -237.40921,237.8385 L 183.1235,237.8385 C 205.9642,237.8385 224.3522,256.2265 224.3522,279.0672 L 224.3522,894.57153 C 224.3522,917.41223 205.9642,935.80023 183.1235,935.80023 L -237.40921,935.80023 C -260.24991,935.80023 -278.63791,917.41223 -278.63791,894.57153 L -278.63791,279.0672 C -278.63791,256.2265 -260.24991,237.8385 -237.40921,237.8385 z "
           id="rect4429"
           sodipodi:nodetypes="ccccccccc" />
        <path
           style="font-size:75.58145142px;font-style:normal;font-variant:normal;font-weight:bold;font-stretch:normal;text-align:start;line-height:125%;writing-mode:lr-tb;text-anchor:start;fill:#000000;fill-opacity:1;stroke:none;stroke-width:1px;stroke-linecap:butt;stroke-linejoin:miter;stroke-opacity:1;font-family:Drogowskaz;-inkscape-font-specification:Drogowskaz Bold"
           d="M -244.51654,658.53575 L -230.34958,715.24006 L -220.90493,715.24006 L -211.46029,677.43718 L -202.01564,715.24006 L -192.571,715.24006 L -178.40403,658.53575 L -187.84868,658.53575 L -197.29332,696.33862 L -206.73797,658.53575 L -216.18261,658.53575 L -225.62725,696.33862 L -235.0719,658.53575 L -244.51654,658.53575 z M -117.26238,658.53575 L -117.26238,679.96943 C -118.65871,679.15459 -120.14716,678.5327 -121.73616,678.09286 C -123.32523,677.65311 -124.98498,677.4422 -126.70703,677.43718 C -132.03936,677.57505 -136.47656,679.4128 -140.03799,682.97648 C -143.59942,686.54023 -145.45858,691.0029 -145.59632,696.33862 C -145.45858,701.67436 -143.59942,706.11444 -140.03799,709.67815 C -136.47656,713.2419 -132.03936,715.10223 -126.70703,715.24006 C -124.98498,715.2351 -123.32523,715.00158 -121.73616,714.56178 C -120.14716,714.12196 -118.6587,713.5001 -117.26238,712.6852 L -117.26238,715.24006 L -107.81774,715.24006 L -107.81774,658.53575 L -117.26238,658.53575 z M -46.472739,658.53575 L -46.472739,667.98647 L -37.028094,667.98647 L -37.028094,658.53575 L -46.472739,658.53575 z M -93.695962,677.43718 L -93.695962,715.24006 L -84.251317,715.24006 L -84.251317,693.96464 C -84.200126,691.95716 -83.528015,690.27895 -82.195186,688.94536 C -80.862394,687.61182 -79.18465,686.93867 -77.179131,686.8879 C -75.173345,686.93872 -73.495984,687.61165 -72.163076,688.94536 C -70.830233,690.27912 -70.135143,691.95756 -70.08435,693.96464 L -70.08435,715.24006 L -60.639706,715.24006 L -60.639706,691.61326 C -60.745355,687.5991 -62.141811,684.24221 -64.819752,681.5747 C -67.497758,678.90724 -70.823588,677.53882 -74.806673,677.43718 C -76.634693,677.44768 -78.353094,677.76402 -79.958297,678.40939 C -81.563529,679.05482 -82.993323,679.96772 -84.251317,681.12251 L -84.251317,677.43718 L -93.695962,677.43718 z M -46.472739,677.43718 L -46.472739,715.24006 L -37.028094,715.24006 L -37.028094,677.43718 L -46.472739,677.43718 z M -126.70703,686.75225 C -124.0409,686.81872 -121.8223,687.76166 -120.04155,689.55581 C -118.26087,691.34998 -117.33128,693.61417 -117.26238,696.33862 C -117.33128,699.06311 -118.26087,701.30467 -120.04155,703.09883 C -121.82231,704.893 -124.0409,705.83593 -126.70703,705.90239 C -129.37321,705.83594 -131.59181,704.893 -133.37251,703.09883 C -135.15324,701.30467 -136.08283,699.06312 -136.15167,696.33862 C -136.08281,693.61415 -135.15325,691.35 -133.37251,689.55581 C -131.59182,687.76165 -129.37321,686.81872 -126.70703,686.75225 z M 60.423467,753.04293 L 60.423467,774.47662 C 59.027142,773.66173 57.538702,773.03987 55.949688,772.60004 C 54.360616,772.1603 52.700875,771.94939 50.978823,771.94437 C 45.646505,772.08224 41.186687,773.91998 37.62527,777.48367 C 34.063831,781.04742 32.227264,785.51008 32.089533,790.84581 C 32.227264,796.18155 34.063831,800.62163 37.62527,804.18534 C 41.186687,807.74903 45.64649,809.60942 50.978823,809.74725 C 52.700889,809.74228 54.360624,809.50877 55.949688,809.06897 C 57.538688,808.62916 59.027142,808.0073 60.423467,807.19239 L 60.423467,809.74725 L 69.868112,809.74725 L 69.868112,753.04293 L 60.423467,753.04293 z M 131.19052,753.04293 L 131.19052,762.49365 L 140.63516,762.49365 L 140.63516,753.04293 L 131.19052,753.04293 z M -170.45065,770.74608 C -176.13381,770.89004 -180.86372,772.86824 -184.64021,776.64712 C -188.4167,780.42609 -190.37103,785.15903 -190.51487,790.84581 C -190.37103,796.5326 -188.41671,801.26558 -184.64021,805.0445 C -180.86373,808.82343 -176.13381,810.779 -170.45065,810.92293 C -164.76753,810.77898 -160.03761,808.82343 -156.26108,805.0445 C -152.48464,801.26558 -150.50771,796.5326 -150.36383,790.84581 C -150.50771,785.15903 -152.48463,780.42608 -156.26108,776.64712 C -160.03761,772.86825 -164.76753,770.89003 -170.45065,770.74608 z M 6.3540065,770.74608 C 0.66257864,770.88886 -4.085209,772.84917 -7.8581502,776.62451 C -11.631113,780.39991 -13.567568,785.15077 -13.710215,790.84581 C -13.56756,796.54088 -11.631113,801.26914 -7.8581502,805.0445 C -4.0852162,808.81987 0.66258587,810.78018 6.3540065,810.92293 C 7.4361802,810.90322 8.4627308,810.81206 9.4269052,810.67423 L 15.798651,809.74725 L 20.520973,800.29653 C 19.480555,800.44915 17.399017,800.67455 14.307391,800.97481 C 11.215715,801.27508 8.5749531,801.43776 6.3540065,801.47222 C 4.0203604,801.44268 1.975133,800.79776 0.20820898,799.52781 C -1.5587512,798.25786 -2.8556446,796.52884 -3.6781042,794.37287 L 22.870837,794.37287 L 22.870837,779.4959 C 21.008913,776.80594 18.649238,774.67307 15.798651,773.12006 C 12.948006,771.5671 9.809651,770.7781 6.3540065,770.74608 z M 172.51649,770.74608 C 166.82504,770.88886 162.09987,772.84917 158.32693,776.62451 C 154.55398,780.39991 152.59491,785.15077 152.45227,790.84581 C 152.5949,796.54088 154.55396,801.26914 158.32693,805.0445 C 162.09984,808.81987 166.82506,810.78018 172.51649,810.92293 C 173.59864,810.90322 174.62522,810.81206 175.58939,810.67423 L 181.96113,809.74725 L 186.68345,800.29653 C 185.64301,800.44915 183.58409,800.67455 180.49247,800.97481 C 177.40079,801.27508 174.73743,801.43776 172.51649,801.47222 C 170.18282,801.44268 168.13761,800.79776 166.37069,799.52781 C 164.60373,798.25786 163.30683,796.52884 162.48438,794.37287 L 189.03332,794.37287 L 189.03332,779.4959 C 187.17139,776.80594 184.83431,774.67307 181.98373,773.12006 C 179.13305,771.5671 175.97212,770.7781 172.51649,770.74608 z M -237.44436,771.94437 L -237.44436,828.64868 L -227.99971,828.64868 L -227.99971,807.19239 C -226.60343,808.00727 -225.11499,808.62917 -223.52593,809.06897 C -221.93691,809.50876 -220.27718,809.74226 -218.55507,809.74725 C -213.22279,809.60944 -208.76298,807.74906 -205.20152,804.18534 C -201.64013,800.6216 -199.80355,796.18156 -199.66578,790.84581 C -199.80355,785.51009 -201.64013,781.04743 -205.20152,777.48367 C -208.76299,773.91998 -213.22279,772.08224 -218.55507,771.94437 C -220.27717,771.94939 -221.93692,772.16029 -223.52593,772.60004 C -225.11499,773.03989 -226.60343,773.66175 -227.99971,774.47662 L -227.99971,771.94437 L -237.44436,771.94437 z M -143.29164,771.94437 L -133.847,809.74725 L -124.40235,809.74725 L -117.30757,787.04743 L -110.23539,809.74725 L -100.79074,809.74725 L -91.346098,771.94437 L -100.79074,771.94437 L -106.03275,792.92587 L -112.58525,771.94437 L -122.0299,771.94437 L -128.605,792.92587 L -133.847,771.94437 L -143.29164,771.94437 z M -70.061755,771.94437 C -72.993561,772.01087 -75.503071,773.0253 -77.608433,774.99664 C -79.71381,776.96805 -80.808911,779.49193 -80.90728,782.57078 C -80.81137,785.04178 -80.213875,787.005 -79.099693,788.47183 C -77.985518,789.93866 -76.940378,790.9659 -75.95901,791.5467 L -68.276763,796.02336 C -67.738138,796.32855 -67.328755,796.77065 -67.011451,797.31209 C -66.694191,797.85354 -66.521769,798.43866 -66.514365,799.09823 C -66.536533,800.12455 -66.874451,800.97337 -67.531133,801.63048 C -68.187851,802.28762 -69.036145,802.62576 -70.061755,802.6479 C -72.291125,802.63806 -74.388643,802.41552 -76.365717,801.99223 C -78.342813,801.56898 -80.188613,801.01518 -81.901454,800.29653 L -84.499861,808.20981 C -82.417729,809.06376 -80.155028,809.72444 -77.698813,810.19943 C -75.242619,810.67441 -72.695128,810.91554 -70.061755,810.92293 C -66.729085,810.83677 -63.950179,809.66841 -61.724258,807.44109 C -59.498388,805.21378 -58.330773,802.43307 -58.244652,799.09823 C -58.271737,796.88816 -58.803609,794.89648 -59.848886,793.12936 C -60.894236,791.36229 -62.290055,789.9754 -64.028932,788.94662 L -71.236687,784.58301 C -71.595804,784.40335 -71.883789,784.13381 -72.095291,783.79168 C -72.30683,783.44963 -72.406717,783.04581 -72.411619,782.57078 C -72.394433,781.90384 -72.178968,781.34318 -71.733774,780.89768 C -71.288608,780.45224 -70.728314,780.21405 -70.061755,780.19679 C -68.603466,780.20174 -67.169261,780.3243 -65.768735,780.53593 C -64.368245,780.74763 -63.057433,781.03574 -61.859827,781.39509 L -61.859827,772.87136 C -62.957828,772.58641 -64.221158,772.36357 -65.610571,772.19308 C -67.00002,772.02267 -68.481721,771.94871 -70.061755,771.94437 z M -49.206715,771.94437 L -49.206715,781.39509 L -36.214679,781.39509 L -49.206715,805.36103 L -49.206715,809.74725 L -23.222644,809.74725 L -23.222644,800.29653 L -36.259869,800.29653 L -23.222644,776.30798 L -23.222644,771.94437 L -49.206715,771.94437 z M 83.967294,771.94437 L 83.967294,809.74725 L 93.411939,809.74725 L 93.411939,788.47183 C 93.46313,786.46432 94.157837,784.78614 95.490665,783.45254 C 96.823457,782.11901 98.501195,781.44586 100.50672,781.39509 C 102.51253,781.44592 104.16727,782.11884 105.50018,783.45254 C 106.83302,784.78632 107.52811,786.46474 107.57891,788.47183 L 107.57891,809.74725 L 117.02355,809.74725 L 117.02355,786.12045 C 116.91789,782.10629 115.52145,778.7494 112.8435,776.08189 C 110.16548,773.41447 106.83966,772.046 102.85658,771.94437 C 101.02855,771.95488 99.310162,772.27121 97.704959,772.91658 C 96.099728,773.562 94.669933,774.47491 93.411939,775.6297 L 93.411939,771.94437 L 83.967294,771.94437 z M 131.19052,771.94437 L 131.19052,809.74725 L 140.63516,809.74725 L 140.63516,771.94437 L 131.19052,771.94437 z M -170.45065,780.19679 C -167.44195,780.27302 -164.92592,781.3163 -162.92656,783.31689 C -160.92728,785.31752 -159.88466,787.83517 -159.80847,790.84581 C -159.88465,793.85647 -160.92728,796.35153 -162.92656,798.35212 C -164.92593,800.35276 -167.44195,801.39602 -170.45065,801.47222 C -173.45939,801.39601 -175.95283,800.35274 -177.95213,798.35212 C -179.95147,796.35154 -180.99409,793.85647 -181.07022,790.84581 C -180.99409,787.83517 -179.95147,785.31752 -177.95213,783.31689 C -175.95283,781.31631 -173.45939,780.27302 -170.45065,780.19679 z M 6.3540065,780.19679 C 8.6979341,780.23374 10.769624,780.91697 12.567588,782.20903 C 14.365487,783.50115 15.635917,785.19189 16.386117,787.29614 L -3.6781042,787.29614 C -2.9279553,785.19191 -1.657525,783.50116 0.14042445,782.20903 C 1.9383377,780.91696 4.0100282,780.23374 6.3540065,780.19679 z M 172.51649,780.19679 C 174.86039,780.23374 176.93211,780.91697 178.73007,782.20903 C 180.52799,783.50115 181.7984,785.19189 182.5486,787.29614 L 162.48438,787.29614 C 163.2345,785.19191 164.50496,783.50116 166.30291,782.20903 C 168.1008,780.91696 170.17251,780.23374 172.51649,780.19679 z M -218.55507,781.25943 C -215.88894,781.3259 -213.67034,782.26886 -211.88959,784.063 C -210.10891,785.85716 -209.17932,788.12135 -209.11042,790.84581 C -209.17932,793.57029 -210.10891,795.81186 -211.88959,797.60601 C -213.67034,799.40018 -215.88894,800.34314 -218.55507,800.40958 C -221.22125,800.34312 -223.43985,799.40019 -225.22055,797.60601 C -227.00127,795.81186 -227.93087,793.57029 -227.99971,790.84581 C -227.93087,788.12135 -227.00129,785.85718 -225.22055,784.063 C -223.43985,782.26884 -221.22125,781.32592 -218.55507,781.25943 z M 50.978823,781.25943 C 53.644964,781.3259 55.86356,782.26886 57.644301,784.063 C 59.424992,785.85716 60.354569,788.12135 60.423467,790.84581 C 60.354569,793.57029 59.424985,795.81186 57.644301,797.60601 C 55.86356,799.40018 53.644949,800.34314 50.978823,800.40958 C 48.31266,800.34312 46.094042,799.40019 44.313344,797.60601 C 42.532602,795.81186 41.603033,793.57029 41.534178,790.84581 C 41.603025,788.12135 42.53261,785.85718 44.313344,784.063 C 46.094034,782.26884 48.312645,781.32592 50.978823,781.25943 z M 33.942311,847.55012 L 33.942311,857.00084 L 55.881905,857.00084 L 38.664634,904.25443 L 48.809719,904.25443 L 66.998568,854.03901 L 66.998568,847.55012 L 33.942311,847.55012 z M 143.39173,847.55012 C 138.71148,847.66873 134.79765,849.27653 131.6876,852.38853 C 128.57753,855.50061 126.97075,859.39437 126.85231,864.07758 L 136.29695,864.07758 C 136.34772,862.07051 137.04278,860.39208 138.37568,859.05829 C 139.70852,857.72462 141.3859,857.05169 143.39173,857.00084 C 145.39751,857.0517 147.05229,857.72461 148.38519,859.05829 C 149.71806,860.3921 150.41313,862.07051 150.46392,864.07758 C 150.47599,864.85747 150.39261,865.57005 150.19278,866.22547 C 149.99289,866.88093 149.59775,867.5837 149.04044,868.32814 L 126.85231,898.03686 L 126.85231,904.25443 L 157.5587,904.25443 L 157.5587,894.80372 L 141.10965,894.80372 L 156.47415,874.18397 C 157.56298,872.77771 158.40452,871.214 159.00477,869.50383 C 159.60497,867.79374 159.89994,865.98863 159.90856,864.07758 C 159.7901,859.39437 158.18329,855.50063 155.07327,852.38853 C 151.96319,849.27652 148.07194,847.66871 143.39173,847.55012 z M 185.89263,847.55012 L 176.44799,847.57273 C 176.38031,850.24052 175.44599,852.44716 173.66882,854.21989 C 171.89163,855.99273 169.67777,856.93336 167.00335,857.00084 L 167.00335,866.45156 L 176.44799,866.45156 L 176.44799,904.25443 L 185.89263,904.25443 L 185.89263,847.55012 z M -88.499148,864.46193 L -88.499148,879.20325 C -89.459013,878.64307 -90.502302,878.21687 -91.594641,877.91451 C -92.687017,877.61222 -93.822674,877.44316 -95.006463,877.43972 C -98.67206,877.53447 -101.73174,878.81092 -104.17997,881.2607 C -106.62822,883.71054 -107.88122,886.77218 -107.9759,890.44011 C -107.88122,894.10806 -106.6282,897.16971 -104.17997,899.61951 C -101.73174,902.06933 -98.67206,903.34576 -95.006463,903.4405 C -93.822674,903.43708 -92.68701,903.26803 -91.594641,902.9657 C -90.502309,902.66337 -89.459027,902.23716 -88.499148,901.67697 L -88.499148,903.4405 L -82.014428,903.4405 L -82.014428,864.46193 L -88.499148,864.46193 z M 85.119631,871.17692 L 85.119631,880.62764 L 104.00892,880.62764 L 104.00892,871.17692 L 85.119631,871.17692 z M -128.10791,876.62578 C -132.01468,876.72476 -135.27282,878.07513 -137.86888,880.67286 C -140.46497,883.27062 -141.81449,886.53085 -141.91336,890.44011 C -141.81448,894.34937 -140.46497,897.60961 -137.86888,900.20736 C -135.27282,902.80508 -132.01468,904.1555 -128.10791,904.25443 C -124.20116,904.15551 -120.96564,902.80511 -118.36953,900.20736 C -115.77348,897.60959 -114.42397,894.34938 -114.32505,890.44011 C -114.42397,886.53084 -115.77349,883.27062 -118.36953,880.67286 C -120.96563,878.07513 -124.20116,876.72474 -128.10791,876.62578 z M -235.84012,877.43972 L -229.3554,903.4405 L -222.87068,903.4405 L -217.9902,887.84003 L -213.13231,903.4405 L -206.62499,903.4405 L -200.14027,877.43972 L -206.62499,877.43972 L -210.24017,891.88711 L -214.73654,877.43972 L -221.24386,877.43972 L -225.74023,891.88711 L -229.3554,877.43972 L -235.84012,877.43972 z M -162.97175,877.43972 C -166.63735,877.53447 -169.69703,878.81092 -172.14526,881.2607 C -174.59351,883.71054 -175.86911,886.77218 -175.96379,890.44011 C -175.86911,894.10806 -174.59349,897.16971 -172.14526,899.61951 C -169.69703,902.06933 -166.63735,903.34576 -162.97175,903.4405 C -161.78796,903.43708 -160.6523,903.26803 -159.55993,902.9657 C -158.4676,902.66337 -157.44691,902.23716 -156.48703,901.67697 L -156.48703,903.4405 C -156.5344,905.31339 -157.1609,906.86466 -158.385,908.09803 C -159.60914,909.33137 -161.13897,909.97414 -162.97175,910.01983 C -163.71163,910.0166 -164.40842,909.89079 -165.07307,909.65808 C -165.73776,909.42535 -166.35364,909.08702 -166.90326,908.66326 L -170.74438,913.8182 C -169.65156,914.6434 -168.44583,915.28555 -167.1292,915.74 C -165.81259,916.19444 -164.43505,916.41183 -162.97175,916.41828 C -159.30618,916.32354 -156.24651,915.0697 -153.79825,912.6199 C -151.35004,910.1701 -150.07443,907.10845 -149.97972,903.4405 L -149.97972,877.43972 L -156.48703,877.43972 L -156.48703,879.20325 C -157.44691,878.64307 -158.46759,878.21687 -159.55993,877.91451 C -160.65231,877.61222 -161.78796,877.44316 -162.97175,877.43972 z M -74.174017,877.43972 L -74.174017,883.95122 L -65.249054,883.95122 L -74.174017,900.43345 L -74.174017,903.4405 L -56.32409,903.4405 L -56.32409,896.929 L -65.294243,896.929 L -56.32409,880.44676 L -56.32409,877.43972 L -74.174017,877.43972 z M -128.10791,883.13728 C -126.03963,883.18968 -124.33069,883.88731 -122.95628,885.26256 C -121.58192,886.63785 -120.86215,888.37051 -120.80977,890.44011 C -120.86215,892.50972 -121.5819,894.24238 -122.95628,895.61765 C -124.33069,896.99292 -126.03963,897.69056 -128.10791,897.74293 C -130.1762,897.69055 -131.90775,896.99293 -133.28213,895.61765 C -134.65654,894.24237 -135.35371,892.50973 -135.40604,890.44011 C -135.3537,888.3705 -134.65654,886.63785 -133.28213,885.26256 C -131.90775,883.8873 -130.1762,883.18969 -128.10791,883.13728 z M -162.97175,883.86078 C -161.13897,883.90649 -159.60913,884.54923 -158.385,885.78258 C -157.1609,887.01596 -156.5344,888.56723 -156.48703,890.44011 C -156.5344,892.313 -157.1609,893.86428 -158.385,895.09764 C -159.60914,896.33099 -161.13897,896.97376 -162.97175,897.01943 C -164.80456,896.97378 -166.3344,896.33102 -167.55851,895.09764 C -168.78265,893.86427 -169.40914,892.31301 -169.45647,890.44011 C -169.40914,888.56723 -168.78263,887.01596 -167.55851,885.78258 C -166.3344,884.54923 -164.80457,883.90648 -162.97175,883.86078 z M -95.006463,883.86078 C -93.173678,883.90649 -91.643851,884.54923 -90.41971,885.78258 C -89.195604,887.01596 -88.546514,888.56723 -88.499148,890.44011 C -88.546499,892.313 -89.195611,893.86428 -90.41971,895.09764 C -91.643844,896.33099 -93.173685,896.97376 -95.006463,897.01943 C -96.83927,896.97378 -98.369111,896.33102 -99.59322,895.09764 C -100.81735,893.86427 -101.44386,892.31301 -101.49118,890.44011 C -101.44385,888.56723 -100.81734,887.01596 -99.59322,885.78258 C -98.369111,884.54923 -96.839277,883.90648 -95.006463,883.86078 z M -48.980766,896.929 L -48.980766,903.4405 L -42.496046,903.4405 L -42.496046,896.929 L -48.980766,896.929 z"
           id="text2399"
           sodipodi:nodetypes="ccccccccccccccccscscscsccccccccccccccscsccccscscccccccccscscscscccscscscscccccccccccscscscsccscsccccscscccsccscsccccscscccscccccscscscsccccccccccccccccccscsccscscsccscscsccscscsccsccccccccccccccccscsccccscscccccccccscscscsccsccsccsccsccscscscsccscscscsccccccccccsccscscscccccccscscccsccccccccscscscscccccccccccscscscsccccccccccccccccscscsccscsccscsccccscccccccccccccscscscsccscscscsccscscscscccccc" />
      </g>
      <g
         transform="matrix(0.691428,0,0,0.691428,-340.612,123.243)"
         id="g3531">
        <g
           id="g14051">
          <path
             d="M 390.42439,244.34138 C 390.42439,312.20319 327.42578,367.21606 249.71306,367.21606 C 172.00033,367.21606 109.00172,312.20319 109.00172,244.34138 C 109.00172,176.47957 172.00033,121.4667 249.71305,121.4667 C 327.42578,121.4667 390.42439,176.47957 390.42439,244.34138 z "
             transform="matrix(-1.743421,0,0,1.996373,863.9264,-75.43433)"
             style="fill:white;fill-opacity:1;fill-rule:nonzero;stroke:none;stroke-width:2;stroke-linecap:butt;stroke-linejoin:miter;stroke-miterlimit:4;stroke-dasharray:none;stroke-dashoffset:0;stroke-opacity:1"
             id="path8679" />
          <path
             d="M 31.428558,219.50504 C 31.442311,390.72304 -107.35344,529.52994 -278.57144,529.52994 C -449.78944,529.52994 -588.58519,390.72304 -588.57144,219.50504 C -588.58519,48.287044 -449.78944,-90.51986 -278.57144,-90.51986 C -107.35344,-90.51986 31.442311,48.287044 31.428558,219.50504 L 31.428558,219.50504 z "
             transform="matrix(0.639516,0,0,0.639516,606.7223,271.9852)"
             style="opacity:1;fill:#0f00fb;fill-opacity:1;fill-rule:nonzero;stroke:none;stroke-width:3.5;stroke-miterlimit:4;stroke-dasharray:none;stroke-dashoffset:0;stroke-opacity:1"
             id="path11256" />
          <rect
             width="467.75955"
             height="49.133499"
             ry="0"
             x="-828.50928"
             y="-36.009895"
             transform="matrix(-0.707129,-0.707085,-0.707129,0.707085,0,0)"
             style="fill:red;fill-opacity:1;fill-rule:nonzero;stroke:white;stroke-width:3.5;stroke-miterlimit:4;stroke-dasharray:none;stroke-dashoffset:0;stroke-opacity:1"
             id="rect3274" />
          <path
             d="M 428.57143,162.36211 C 566.57399,162.36211 678.57148,274.38032 678.57148,412.37793 C 678.57148,550.37552 566.57398,662.36232 428.57143,662.36231 C 290.56887,662.36231 178.5714,550.37552 178.57139,412.37793 C 178.57139,274.38033 290.56887,162.36211 428.57143,162.36211 z M 428.57143,211.25912 C 317.54688,211.25912 227.44003,301.36033 227.44003,412.37793 C 227.44004,523.39554 317.54687,613.49673 428.57143,613.49673 C 539.596,613.49672 629.70283,523.39553 629.70283,412.37793 C 629.70283,301.36033 539.59599,211.25912 428.57143,211.25912 z "
             style="fill:red;fill-opacity:1;fill-rule:nonzero;stroke:none;stroke-width:2;stroke-linecap:butt;stroke-linejoin:miter;stroke-miterlimit:4;stroke-dasharray:none;stroke-dashoffset:0;stroke-opacity:1"
             id="path3063" />
          <path
             d="M 390.42439,244.34138 C 390.42439,312.20319 327.42578,367.21606 249.71306,367.21606 C 172.00033,367.21606 109.00172,312.20319 109.00172,244.34138 C 109.00172,176.47957 172.00033,121.4667 249.71305,121.4667 C 327.42578,121.4667 390.42439,176.47957 390.42439,244.34138 z "
             transform="matrix(-1.743421,0,0,1.996373,863.9264,-75.43433)"
             style="fill:white;fill-opacity:1;fill-rule:nonzero;stroke:none;stroke-width:2;stroke-linecap:butt;stroke-linejoin:miter;stroke-miterlimit:4;stroke-dasharray:none;stroke-dashoffset:0;stroke-opacity:1"
             id="path14027" />
          <path
             d="M 31.428558,219.50504 C 31.442311,390.72304 -107.35344,529.52994 -278.57144,529.52994 C -449.78944,529.52994 -588.58519,390.72304 -588.57144,219.50504 C -588.58519,48.287044 -449.78944,-90.51986 -278.57144,-90.51986 C -107.35344,-90.51986 31.442311,48.287044 31.428558,219.50504 L 31.428558,219.50504 z "
             transform="matrix(0.63871,0,0,0.63871,606.4978,272.1621)"
             style="opacity:1;fill:#003399;fill-opacity:1;fill-rule:nonzero;stroke:none;stroke-width:3.50000000000000000;stroke-miterlimit:4;stroke-dasharray:none;stroke-dashoffset:0;stroke-opacity:1"
             id="path14029" />
          <rect
             width="467.75986"
             height="49.13353"
             ry="0"
             x="-828.50952"
             y="-36.010014"
             transform="matrix(-0.707129,-0.707085,-0.707129,0.707085,0,0)"
             style="fill:#d40000;fill-opacity:1;fill-rule:nonzero;stroke:white;stroke-width:3.50000238000000020;stroke-miterlimit:4;stroke-dasharray:none;stroke-dashoffset:0;stroke-opacity:1"
             id="rect14031" />
          <path
             d="M 428.57143,162.36211 C 566.57399,162.36211 678.57148,274.38032 678.57148,412.37793 C 678.57148,550.37552 566.57398,662.36232 428.57143,662.36231 C 290.56887,662.36231 178.5714,550.37552 178.57139,412.37793 C 178.57139,274.38033 290.56887,162.36211 428.57143,162.36211 z M 428.57143,211.25912 C 317.54688,211.25912 227.44003,301.36033 227.44003,412.37793 C 227.44004,523.39554 317.54687,613.49673 428.57143,613.49673 C 539.596,613.49672 629.70283,523.39553 629.70283,412.37793 C 629.70283,301.36033 539.59599,211.25912 428.57143,211.25912 z "
             style="fill:#d40000;fill-opacity:1;fill-rule:nonzero;stroke:none;stroke-width:2;stroke-linecap:butt;stroke-linejoin:miter;stroke-miterlimit:4;stroke-dasharray:none;stroke-dashoffset:0;stroke-opacity:1"
             id="path14033" />
        </g>
      </g>
    </g>
    <text
       xml:space="preserve"
       style="font-size:40px;font-style:normal;font-variant:normal;font-weight:normal;font-stretch:normal;text-align:start;line-height:125%;writing-mode:lr-tb;text-anchor:start;fill:black;fill-opacity:1;stroke:none;stroke-width:1px;stroke-linecap:butt;stroke-linejoin:miter;stroke-opacity:1;font-family:Arial"
       x="-488.57144"
       y="1126.6479"
       id="text5332"
       sodipodi:linespacing="125%"><tspan
         sodipodi:role="line"
         id="tspan5334"
         x="-488.57144"
         y="1126.6479">   </tspan></text>
    <text
       xml:space="preserve"
       style="font-size:40px;font-style:normal;font-variant:normal;font-weight:normal;font-stretch:normal;text-align:start;line-height:125%;writing-mode:lr-tb;text-anchor:start;fill:black;fill-opacity:1;stroke:none;stroke-width:1px;stroke-linecap:butt;stroke-linejoin:miter;stroke-opacity:1;font-family:Arial"
       x="-388.57144"
       y="1109.505"
       id="text5338"
       sodipodi:linespacing="125%"><tspan
         sodipodi:role="line"
         id="tspan5340"
         x="-388.57144"
         y="1109.505"> </tspan></text>
  </g>
</svg>
