<?xml version="1.0" encoding="UTF-8" standalone="no"?>
<!-- Created with Inkscape (http://www.inkscape.org/) -->

<svg
   xmlns:dc="http://purl.org/dc/elements/1.1/"
   xmlns:cc="http://creativecommons.org/ns#"
   xmlns:rdf="http://www.w3.org/1999/02/22-rdf-syntax-ns#"
   xmlns:svg="http://www.w3.org/2000/svg"
   xmlns="http://www.w3.org/2000/svg"
   xmlns:sodipodi="http://sodipodi.sourceforge.net/DTD/sodipodi-0.dtd"
   xmlns:inkscape="http://www.inkscape.org/namespaces/inkscape"
   width="497.19662"
   height="497.2099"
   id="svg2"
   sodipodi:version="0.32"
   inkscape:version="0.48.2 r9819"
   version="1.0"
   sodipodi:docname="AJAX.svg">
  <defs
     id="defs4" />
  <sodipodi:namedview
     id="base"
     pagecolor="#ffffff"
     bordercolor="#666666"
     borderopacity="1.0"
     inkscape:pageopacity="0.0"
     inkscape:pageshadow="2"
     inkscape:zoom="1.062"
     inkscape:cx="101.70574"
     inkscape:cy="248.5984"
     inkscape:document-units="px"
     inkscape:current-layer="layer1"
     inkscape:window-width="1280"
     inkscape:window-height="1004"
     inkscape:window-x="-8"
     inkscape:window-y="-8"
     showgrid="false"
     fit-margin-top="0"
     fit-margin-left="0"
     fit-margin-right="0"
     fit-margin-bottom="0"
     inkscape:window-maximized="1" />
  <metadata
     id="metadata7">
    <rdf:RDF>
      <cc:Work
         rdf:about="">
        <dc:format>image/svg+xml</dc:format>
        <dc:type
           rdf:resource="http://purl.org/dc/dcmitype/StillImage" />
        <dc:title>PL - Znak drogowy B4</dc:title>
        <dc:date>22.07.2006</dc:date>
        <dc:creator>
          <cc:Agent>
            <dc:title>MaciekS</dc:title>
          </cc:Agent>
        </dc:creator>
        <dc:rights>
          <cc:Agent>
            <dc:title>Free</dc:title>
          </cc:Agent>
        </dc:rights>
        <dc:subject>
          <rdf:Bag>
            <rdf:li>Znak zakazu wjazdu motocykli</rdf:li>
            <rdf:li>znak B4</rdf:li>
          </rdf:Bag>
        </dc:subject>
        <dc:description>Znaki drogowe -Polska. Wykonane na podstawie załącznika do Ustawy.</dc:description>
        <cc:license
           rdf:resource="http://web.resource.org/cc/PublicDomain" />
        <dc:publisher>
          <cc:Agent>
            <dc:title>Wikipedia</dc:title>
          </cc:Agent>
        </dc:publisher>
      </cc:Work>
      <cc:License
         rdf:about="http://web.resource.org/cc/PublicDomain">
        <cc:permits
           rdf:resource="http://web.resource.org/cc/Reproduction" />
        <cc:permits
           rdf:resource="http://web.resource.org/cc/Distribution" />
        <cc:permits
           rdf:resource="http://web.resource.org/cc/DerivativeWorks" />
      </cc:License>
    </rdf:RDF>
  </metadata>
  <g
     inkscape:label="Layer 1"
     inkscape:groupmode="layer"
     id="layer1"
     transform="translate(-1.4016024,-1.3885009)">
    <path
       sodipodi:type="arc"
       style="fill:#d40000;fill-opacity:1;fill-rule:nonzero;stroke:none"
       id="path3063"
       sodipodi:cx="484.56226"
       sodipodi:cy="627.25543"
       sodipodi:rx="179.35739"
       sodipodi:ry="175.39369"
       d="m 663.91965,627.25543 c 0,96.86726 -80.30104,175.39369 -179.35739,175.39369 -99.05636,0 -179.3574,-78.52643 -179.3574,-175.39369 0,-96.86726 80.30104,-175.39369 179.3574,-175.39369 99.05635,0 179.35739,78.52643 179.35739,175.39369 z"
       transform="matrix(1.38605,0,0,1.417411,-421.6276,-639.0853)"
       inkscape:label="tarcza" />
    <path
       sodipodi:type="arc"
       style="fill:#ffffff;fill-opacity:1;fill-rule:nonzero;stroke:none"
       id="path6586"
       sodipodi:cx="249.71306"
       sodipodi:cy="244.34138"
       sodipodi:rx="140.71133"
       sodipodi:ry="122.87468"
       d="m 390.42439,244.34138 c 0,67.86182 -62.99861,122.87468 -140.71133,122.87468 -77.71273,0 -140.71134,-55.01286 -140.71134,-122.87468 0,-67.86181 62.99861,-122.87467 140.71134,-122.87467 77.71272,0 140.71133,55.01286 140.71133,122.87467 z"
       transform="matrix(1.42135,0,0,1.627675,-104.9296,-147.7083)" />
    <path
       style="fill:#000000;fill-opacity:1;fill-rule:evenodd;stroke:none"
       d="m 237.5,95.82032 c -9.20124,-2e-5 -16.67969,7.47853 -16.67969,16.67968 0,9.20115 7.47845,16.67969 16.67969,16.67969 9.20124,0 16.67969,-7.47854 16.67969,-16.67969 0,-9.20115 -7.47845,-16.67968 -16.67969,-16.67968 z M 226.25,132.30469 206.52344,148.75 190.625,225 l -53.125,0 0,12.5 -37.5,12.5 -12.5,50 12.5,0 c 1e-5,27.59858 22.40144,50 50,50 18.49261,0 34.63116,-10.06031 43.28125,-25 l 83.98438,0 27.26562,-50 7.57813,0 c -3.74876,7.53428 -5.85938,16.01843 -5.85938,25 l 0,25 12.96875,0 c 8.6501,14.93969 24.78864,25 43.28125,25 27.59858,0 50,-22.40142 50,-50 0,-16.34706 -7.85663,-30.87481 -20,-40 l 3.75,-5 c -9.4049,-7.07116 -21.08596,-11.25 -33.75,-11.25 -8.30652,0 -16.18254,1.80254 -23.28125,5.03906 L 327.8125,231.25 l 15.42969,0 2.07031,-25 -32.8125,0 0,-15.625 L 263.71094,178.4375 226.25,132.30469 z m 18.63281,53.67187 12.42188,12.03125 55.19531,11.79688 -42.26562,0 -17.30469,13.00781 -17.1875,-5.89844 9.14062,-30.9375 z M 150,262.65625 c 11.0117,0 20.93759,4.75651 27.77344,12.34375 l -23.71094,0 c -1.31891,-0.21236 -2.68399,-0.3125 -4.0625,-0.3125 -13.97468,0 -25.3125,11.33781 -25.3125,25.3125 0,13.97469 11.33782,25.3125 25.3125,25.3125 1.37851,0 2.74359,-0.10014 4.0625,-0.3125 l 23.71094,0 c -6.83585,7.58724 -16.76174,12.34375 -27.77344,12.34375 -20.61661,0 -37.34374,-16.72714 -37.34375,-37.34375 0,-20.61661 16.72715,-37.34376 37.34375,-37.34375 z m 212.5,0 c 20.61661,0 37.34376,16.72715 37.34375,37.34375 0,20.61661 -16.72714,37.34375 -37.34375,37.34375 -20.61661,0 -37.34375,-16.72714 -37.34375,-37.34375 0,-11.68729 5.37687,-22.13564 13.78906,-28.98438 l 7.57813,9.33594 c -5.699,4.64227 -9.33593,11.72875 -9.33594,19.64844 0,13.97469 11.33783,25.3125 25.3125,25.3125 13.97469,0 25.31249,-11.33781 25.3125,-25.3125 -10e-6,-13.97469 -11.33783,-25.3125 -25.3125,-25.3125 -2.05685,0 -4.0617,0.23964 -5.97656,0.70312 l -6.83594,-10.46875 c 3.99366,-1.45847 8.3155,-2.26562 12.8125,-2.26562 z M 275,275 287.5,275 275,293.75 275,275 z"
       id="motocyklista"
       inkscape:connector-curvature="0" />
  </g>
</svg>
