<?xml version="1.0" encoding="UTF-8" standalone="no"?>
<!-- Created with Inkscape (http://www.inkscape.org/) -->

<svg
   xmlns:dc="http://purl.org/dc/elements/1.1/"
   xmlns:cc="http://creativecommons.org/ns#"
   xmlns:rdf="http://www.w3.org/1999/02/22-rdf-syntax-ns#"
   xmlns:svg="http://www.w3.org/2000/svg"
   xmlns="http://www.w3.org/2000/svg"
   xmlns:sodipodi="http://sodipodi.sourceforge.net/DTD/sodipodi-0.dtd"
   xmlns:inkscape="http://www.inkscape.org/namespaces/inkscape"
   width="497.1875"
   height="497.21875"
   id="svg5856"
   sodipodi:version="0.32"
   inkscape:version="0.48.2 r9819"
   version="1.0"
   sodipodi:docname="AJAX.svg">
  <defs
     id="defs5858" />
  <sodipodi:namedview
     id="base"
     pagecolor="#ffffff"
     bordercolor="#666666"
     borderopacity="1.0"
     gridtolerance="10000"
     guidetolerance="10"
     objecttolerance="10"
     inkscape:pageopacity="0.0"
     inkscape:pageshadow="2"
     inkscape:zoom="0.49497475"
     inkscape:cx="375.30506"
     inkscape:cy="540.25602"
     inkscape:document-units="px"
     inkscape:current-layer="g5975"
     inkscape:window-width="1280"
     inkscape:window-height="1004"
     inkscape:window-x="-8"
     inkscape:window-y="-8"
     showgrid="false"
     fit-margin-top="0"
     fit-margin-left="0"
     fit-margin-right="0"
     fit-margin-bottom="0"
     inkscape:window-maximized="1" />
  <metadata
     id="metadata5861">
    <rdf:RDF>
      <cc:Work
         rdf:about="">
        <dc:format>image/svg+xml</dc:format>
        <dc:type
           rdf:resource="http://purl.org/dc/dcmitype/StillImage" />
      </cc:Work>
    </rdf:RDF>
  </metadata>
  <g
     inkscape:label="Layer 1"
     inkscape:groupmode="layer"
     id="layer1"
     transform="translate(-242.35425,-259.91762)">
    <g
       id="g5979">
      <g
         inkscape:label="Layer 1"
         id="g5971"
         transform="translate(240.948,258.527)">
        <path
           sodipodi:type="arc"
           style="fill:#ffffff;fill-opacity:1;fill-rule:nonzero;stroke:none"
           id="path8679"
           sodipodi:cx="249.71306"
           sodipodi:cy="244.34138"
           sodipodi:rx="140.71133"
           sodipodi:ry="122.87468"
           d="m 390.42439,244.34138 a 140.71133,122.87468 0 1 1 -281.42267,0 140.71133,122.87468 0 1 1 281.42267,0 z"
           transform="matrix(1.7192558,0,0,1.935941,-179.93439,-224.42103)" />
        <path
           style="fill:#d40000;fill-opacity:1;fill-rule:nonzero;stroke:none"
           d="m 250,1.390623 c -137.22627,0 -248.59375,111.395057 -248.59375,248.625007 0,137.22993 111.36749,248.59376 248.59375,248.59375 137.22627,0 248.59374,-111.36382 248.59375,-248.59375 C 498.59375,112.78569 387.22627,1.390623 250,1.390623 z m 0,48.625 c 110.40002,1e-6 200,89.599987 200,200.000007 -10e-6,110.40003 -89.59997,200 -200,200 -110.40004,-10e-6 -200,-89.59998 -200,-200 C 50,139.61561 139.59997,50.015623 250,50.015623 z"
           id="path3063"
           inkscape:connector-curvature="0" />
      </g>
      <g
         transform="matrix(1.103007,0,0,1.103007,236.6667,-139.0486)"
         id="g5975">
        <path
           style="fill:#000000;fill-rule:evenodd;stroke:none;stroke-width:1px;stroke-linecap:butt;stroke-linejoin:miter;stroke-opacity:1"
           d="m 232.84016,641.2301 -5.55583,101.01526 -25.25382,0 0,-189.90868 -3.07107,53.53808 -13.13198,0 0,-119.198 38.17743,-13.3014 17.90721,0 35.87985,15.32171 0,117.17769 -13.23998,0 -2.92246,-53.53808 0,189.90868 -23.23351,0 -5.55584,-101.01526 z"
           id="path5935"
           sodipodi:nodetypes="cccccccccccccccc"
           inkscape:connector-curvature="0" />
        <path
           sodipodi:type="arc"
           style="fill:#000000;fill-opacity:1;fill-rule:nonzero;stroke:none"
           id="path5937"
           sodipodi:cx="112.14286"
           sodipodi:cy="363.07648"
           sodipodi:rx="20.714285"
           sodipodi:ry="20.714285"
           d="m 132.85715,363.07648 c 0,11.44018 -9.27411,20.71428 -20.71429,20.71428 -11.44018,0 -20.714284,-9.2741 -20.714284,-20.71428 0,-11.44019 9.274104,-20.71429 20.714284,-20.71429 11.44018,0 20.71429,9.2741 20.71429,20.71429 z"
           transform="translate(119.6668,86.57143)" />
      </g>
    </g>
  </g>
</svg>
