<?xml version="1.0" encoding="UTF-8" standalone="no"?>
<!-- Created with Inkscape (http://www.inkscape.org/) -->

<svg
   xmlns:dc="http://purl.org/dc/elements/1.1/"
   xmlns:cc="http://creativecommons.org/ns#"
   xmlns:rdf="http://www.w3.org/1999/02/22-rdf-syntax-ns#"
   xmlns:svg="http://www.w3.org/2000/svg"
   xmlns="http://www.w3.org/2000/svg"
   xmlns:sodipodi="http://sodipodi.sourceforge.net/DTD/sodipodi-0.dtd"
   xmlns:inkscape="http://www.inkscape.org/namespaces/inkscape"
   width="132.29166mm"
   height="132.29166mm"
   viewBox="0 0 132.29165 132.29166"
   version="1.1"
   id="svg768"
   inkscape:version="0.92.4 (33fec40, 2019-01-16)"
   sodipodi:docname="B-44_stripe.svg">
  <defs
     id="defs762" />
  <sodipodi:namedview
     id="base"
     pagecolor="#ffffff"
     bordercolor="#666666"
     borderopacity="1.0"
     inkscape:pageopacity="0.0"
     inkscape:pageshadow="2"
     inkscape:zoom="0.35"
     inkscape:cx="446.49175"
     inkscape:cy="245.84313"
     inkscape:document-units="mm"
     inkscape:current-layer="layer1"
     showgrid="false"
     fit-margin-top="0"
     fit-margin-left="0"
     fit-margin-right="0"
     fit-margin-bottom="0"
     inkscape:window-width="1366"
     inkscape:window-height="740"
     inkscape:window-x="1920"
     inkscape:window-y="0"
     inkscape:window-maximized="1" />
  <metadata
     id="metadata765">
    <rdf:RDF>
      <cc:Work
         rdf:about="">
        <dc:format>image/svg+xml</dc:format>
        <dc:type
           rdf:resource="http://purl.org/dc/dcmitype/StillImage" />
        <dc:title></dc:title>
      </cc:Work>
    </rdf:RDF>
  </metadata>
  <g
     inkscape:label="Layer 1"
     inkscape:groupmode="layer"
     id="layer1"
     transform="translate(12.300941,-81.587668)">
    <g
       id="g4545"
       transform="matrix(0.26458333,0,0,0.26458333,-101.83883,16.097237)">
      <rect
         style="fill:#ffffff;fill-opacity:1;fill-rule:nonzero;stroke:#000000;stroke-width:3.25408435;stroke-miterlimit:4;stroke-dasharray:none;stroke-dashoffset:0;stroke-opacity:1"
         id="rect2064"
         y="249.14993"
         x="340.03796"
         ry="39.845932"
         height="496.74591"
         width="496.74591" />
      <g
         id="g3652"
         transform="matrix(0.8,0,0,0.8,-344.1604,180.2045)">
        <g
           id="g3644"
           transform="translate(914.3078,148.0385)">
          <path
             style="fill:#ffffff;fill-opacity:1;fill-rule:nonzero;stroke:none"
             id="path8679"
             transform="matrix(1.776687,0,0,2.034593,-192.2554,-248.5258)"
             d="m 390.42439,244.34138 a 140.71133,122.87468 0 1 1 -281.42267,0 140.71133,122.87468 0 1 1 281.42267,0 z"
             inkscape:connector-curvature="0" />
          <path
             style="fill:#a9a8a7;fill-opacity:1;fill-rule:nonzero;stroke:none"
             id="path3063"
             d="m 250,1.390623 c -137.22627,0 -248.59375,111.395057 -248.59375,248.625007 0,137.22993 111.36749,248.59376 248.59375,248.59375 137.22627,0 248.59374,-111.36382 248.59375,-248.59375 C 498.59375,112.78569 387.22627,1.390623 250,1.390623 Z m 0,48.625 c 110.40002,1e-6 200,89.599987 200,200.000007 -10e-6,110.40003 -89.59997,200 -200,200 -110.40004,-10e-6 -200,-89.59998 -200,-200 C 50,139.61561 139.59997,50.015623 250,50.015623 Z"
             inkscape:connector-curvature="0" />
        </g>
        <g
           id="g3648"
           transform="translate(600.2316,178.1396)" />
      </g>
    </g>
  </g>
</svg>
