<?xml version="1.0" encoding="UTF-8" standalone="no"?>
<!-- Created with Inkscape (http://www.inkscape.org/) -->

<svg
   xmlns:dc="http://purl.org/dc/elements/1.1/"
   xmlns:cc="http://creativecommons.org/ns#"
   xmlns:rdf="http://www.w3.org/1999/02/22-rdf-syntax-ns#"
   xmlns:svg="http://www.w3.org/2000/svg"
   xmlns="http://www.w3.org/2000/svg"
   xmlns:sodipodi="http://sodipodi.sourceforge.net/DTD/sodipodi-0.dtd"
   xmlns:inkscape="http://www.inkscape.org/namespaces/inkscape"
   width="996.03223"
   height="994.38892"
   id="svg1324"
   sodipodi:version="0.32"
   inkscape:version="0.48.2 r9819"
   version="1.0"
   sodipodi:docname="AJAX.svg">
  <defs
     id="defs1326" />
  <sodipodi:namedview
     id="base"
     pagecolor="#ffffff"
     bordercolor="#666666"
     borderopacity="1.0"
     inkscape:pageopacity="0.0"
     inkscape:pageshadow="2"
     inkscape:zoom="0.531"
     inkscape:cx="203.4091"
     inkscape:cy="497.19476"
     inkscape:document-units="px"
     inkscape:current-layer="layer1"
     showgrid="true"
     inkscape:grid-bbox="true"
     gridtolerance="10px"
     inkscape:grid-points="true"
     inkscape:window-width="1280"
     inkscape:window-height="1004"
     inkscape:window-x="-8"
     inkscape:window-y="-8"
     fit-margin-top="0"
     fit-margin-left="0"
     fit-margin-right="0"
     fit-margin-bottom="0"
     inkscape:window-maximized="1">
    <inkscape:grid
       id="GridFromPre046Settings"
       type="xygrid"
       originx="0px"
       originy="0px"
       spacingx="100px"
       spacingy="100px"
       color="#0000ff"
       empcolor="#0000ff"
       opacity="0.2"
       empopacity="0.4"
       empspacing="5"
       visible="true"
       enabled="true"
       snapvisiblegridlinesonly="true" />
  </sodipodi:namedview>
  <metadata
     id="metadata1329">
    <rdf:RDF>
      <cc:Work
         rdf:about="">
        <dc:format>image/svg+xml</dc:format>
        <dc:type
           rdf:resource="http://purl.org/dc/dcmitype/StillImage" />
        <dc:title>PL - Znak drogowy B5</dc:title>
        <dc:subject>
          <rdf:Bag>
            <rdf:li>Znak zakazu</rdf:li>
            <rdf:li>znak B5</rdf:li>
          </rdf:Bag>
        </dc:subject>
        <dc:description>Znaki drogowe -Polska. Wykonane na podstawie załącznika do Ustawy.</dc:description>
        <dc:date>12.07.2006</dc:date>
        <dc:creator>
          <cc:Agent>
            <dc:title>MaciekS</dc:title>
          </cc:Agent>
        </dc:creator>
        <dc:rights>
          <cc:Agent>
            <dc:title>Free</dc:title>
          </cc:Agent>
        </dc:rights>
        <dc:publisher>
          <cc:Agent>
            <dc:title>Wikipedia</dc:title>
          </cc:Agent>
        </dc:publisher>
        <cc:license
           rdf:resource="http://web.resource.org/cc/PublicDomain" />
      </cc:Work>
      <cc:License
         rdf:about="http://web.resource.org/cc/PublicDomain">
        <cc:permits
           rdf:resource="http://web.resource.org/cc/Reproduction" />
        <cc:permits
           rdf:resource="http://web.resource.org/cc/Distribution" />
        <cc:permits
           rdf:resource="http://web.resource.org/cc/DerivativeWorks" />
      </cc:License>
    </rdf:RDF>
  </metadata>
  <g
     inkscape:label="Layer 1"
     inkscape:groupmode="layer"
     id="layer1"
     transform="translate(-2.8055859,-2.805838)">
    <path
       sodipodi:type="arc"
       style="fill:#d40000;fill-opacity:1;fill-rule:nonzero;stroke:none"
       id="path3063"
       sodipodi:cx="484.56226"
       sodipodi:cy="627.25543"
       sodipodi:rx="179.35739"
       sodipodi:ry="175.39369"
       d="m 663.91965,627.25543 c 0,96.86726 -80.30104,175.39369 -179.35739,175.39369 -99.05636,0 -179.3574,-78.52643 -179.3574,-175.39369 0,-96.86726 80.30104,-175.39369 179.3574,-175.39369 99.05635,0 179.35739,78.52643 179.35739,175.39369 z"
       transform="matrix(2.776669,0,0,2.834734,-844.6473,-1278.102)"
       inkscape:label="tarcza" />
    <path
       sodipodi:type="arc"
       style="fill:#ffffff;fill-opacity:1;fill-rule:nonzero;stroke:none"
       id="path6586"
       sodipodi:cx="249.71306"
       sodipodi:cy="244.34138"
       sodipodi:rx="140.71133"
       sodipodi:ry="122.87468"
       d="m 390.42439,244.34138 c 0,67.86182 -62.99861,122.87468 -140.71133,122.87468 -77.71273,0 -140.71134,-55.01286 -140.71134,-122.87468 0,-67.86181 62.99861,-122.87467 140.71134,-122.87467 77.71272,0 140.71133,55.01286 140.71133,122.87467 z"
       transform="matrix(2.847386,0,0,3.255249,-210.2074,-295.3788)" />
    <path
       style="fill:#000000;fill-opacity:1;fill-rule:evenodd;stroke:none;stroke-width:1px;stroke-linecap:butt;stroke-linejoin:miter;stroke-opacity:1"
       d="m 335,325 -25,25 0,25 -60,0 -15,75 -45,25 0,90 -10,0 0,10 10,0 0,15 55,0 c 0,30.36 24.64,55 55,55 30.36,0 55,-24.64 55,-55 l 240,0 c 0,30.36 24.64,55 55,55 30.36,0 55,-24.64 55,-55 l 95,0 0,-240 -20,-25 -445,0 z m -80,85 55,0 0,40 -60,0 -2,0 7,-40 z"
       id="korpus"
       inkscape:connector-curvature="0" />
  </g>
</svg>
