<?xml version="1.0" encoding="UTF-8" standalone="no"?>
<!-- Created with Inkscape (http://www.inkscape.org/) -->

<svg
   xmlns:dc="http://purl.org/dc/elements/1.1/"
   xmlns:cc="http://creativecommons.org/ns#"
   xmlns:rdf="http://www.w3.org/1999/02/22-rdf-syntax-ns#"
   xmlns:svg="http://www.w3.org/2000/svg"
   xmlns="http://www.w3.org/2000/svg"
   xmlns:sodipodi="http://sodipodi.sourceforge.net/DTD/sodipodi-0.dtd"
   xmlns:inkscape="http://www.inkscape.org/namespaces/inkscape"
   version="1.0"
   width="500.00009"
   height="500.00021"
   id="svg2291"
   sodipodi:version="0.32"
   inkscape:version="0.48.2 r9819"
   sodipodi:docname="AJAX.svg"
   inkscape:output_extension="org.inkscape.output.svg.inkscape">
  <metadata
     id="metadata11">
    <rdf:RDF>
      <cc:Work
         rdf:about="">
        <dc:format>image/svg+xml</dc:format>
        <dc:type
           rdf:resource="http://purl.org/dc/dcmitype/StillImage" />
      </cc:Work>
    </rdf:RDF>
  </metadata>
  <sodipodi:namedview
     inkscape:window-height="1004"
     inkscape:window-width="1280"
     inkscape:pageshadow="2"
     inkscape:pageopacity="0.0"
     guidetolerance="10.0"
     gridtolerance="10.0"
     objecttolerance="10.0"
     borderopacity="1.0"
     bordercolor="#666666"
     pagecolor="#ffffff"
     id="base"
     showgrid="false"
     inkscape:zoom="0.93331775"
     inkscape:cx="91.915882"
     inkscape:cy="263.08981"
     inkscape:window-x="-8"
     inkscape:window-y="-8"
     inkscape:current-layer="g6035"
     showguides="true"
     inkscape:guide-bbox="true"
     fit-margin-top="0"
     fit-margin-left="0"
     fit-margin-right="0"
     fit-margin-bottom="0"
     inkscape:window-maximized="1" />
  <defs
     id="defs2293" />
  <g
     transform="translate(-104.16968,-150.93351)"
     id="layer1">
    <g
       id="g6035">
      <path
         d="m 390.42439,244.34138 a 140.71134,122.87468 0 1 1 -281.42267,0 140.71134,122.87468 0 1 1 281.42267,0 z"
         style="fill:#ffffff;fill-opacity:1;fill-rule:nonzero;stroke:none"
         id="path8679"
         transform="matrix(-1.743421,0,0,1.996373,789.5247,-86.86293)"
         inkscape:connector-curvature="0" />
      <g
         id="g3067"
         transform="matrix(0.4331774,0,0,-0.405284,-132.29591,489.87401)">
        <path
           style="fill:#000000;fill-opacity:1;fill-rule:evenodd;stroke:none;stroke-width:5.82999659000000040;stroke-linecap:butt;stroke-linejoin:miter;stroke-miterlimit:4;stroke-opacity:1;stroke-dasharray:none"
           d="m 1279.0462,493.33433 0,-83.86336 -89.9798,0 0,-81.1328 c 0,0 17.2215,-14.44846 19.5647,-19.31807 -10.9081,-7.33177 -18.1694,-20.2979 -18.1694,-35.07384 0,-22.8635 17.3626,-41.41382 38.7623,-41.41382 21.3995,0 38.7766,18.55032 38.7767,41.41382 -10e-5,0.59889 -0.021,1.19626 -0.044,1.789 0.9114,2.67736 1.7307,5.52487 2.4235,8.53699 l 99.9826,-0.15694 c 0,0 69.1228,-117.42952 140.4777,3.01306 l 21.6211,0 0,23.80627 -21.6211,0 c 0,0 -0.2798,47.87933 -30.7569,57.92285 l 0,110.13344 -109.7208,0 -22.8255,-69.51996 -42.9777,0 0,83.86336 -25.5134,0 z m 138.2305,-37.96135 37.1318,0 0,-45.90201 -37.1318,0 0,45.90201 z m -32.8427,0 23.501,0 0,-45.90201 -37.205,0 13.704,45.90201 z"
           id="path1959"
           sodipodi:nodetypes="cccccssscccccccccccccccccccccccc"
           inkscape:connector-curvature="0" />
        <g
           transform="matrix(0.8159283,0,0,-0.872084,484.9432,833.63155)"
           id="g2798">
          <g
             transform="matrix(1.005657,0,0,1.005593,-0.782672,-5.109255)"
             id="g11404">
            <g
               transform="matrix(1.9046706,0,0,1.9046706,77.060449,-213.19921)"
               id="g11399">
              <path
                 style="fill:#000000;fill-rule:evenodd;stroke:none;stroke-width:2.56890249000000010px;stroke-linecap:butt;stroke-linejoin:miter;stroke-opacity:1"
                 d="m 158.875,322.75 4.125,8.28125 -14.6875,25.625 7.15625,7.53125 20.34375,-13.9375 15.09375,17.71875 0.21875,6.46875 -19,-1.46875 0,6.46875 21.1875,1.875 2.09375,2.09375 -23.34375,9.03125 0,21.09375 14.3125,9.8125 0,-10.53125 -3.375,-2.28125 0,-12.0625 23.71875,-8.28125 8.28125,35.78125 -4.90625,9.40625 9.4375,0 3.375,-6.375 -4.875,-39.5625 40.3125,-0.75 2.25,18.8125 L 241,435.375 l 11.3125,0 16.59375,-24.46875 0,-20.71875 22.96875,17.3125 8.28125,27.875 7.15625,-3.375 -5.65625,-30.15625 -12.0625,-12.0625 81.71875,7.1875 c 0,2e-5 0.0241,0.35227 0.0625,0.875 -5.43625,3.39211 -9.03384,9.40126 -9.03125,16.28125 -3.3e-4,0.88289 0.0724,1.74082 0.1875,2.59375 19.30717,-13.06211 36.19885,-29.42189 49.9375,-48.21875 1.32924,-3.00256 2.56788,-6.06214 3.71875,-9.15625 l -26.875,-16.21875 -24.5,0 1.3125,38.5 11.65625,1.71875 -3.21875,5.1875 -68.96875,-5.28125 -9.1875,-28.875 -15.84375,2.65625 L 270.03125,348.375 212,350.25 183.71875,331.8125 166.03125,329.15625 158.875,322.75 z M 286.96875,365.34375 290,378.875 l 6.4375,3.65625 -11.1875,-0.84375 -0.90625,-15.625 2.625,-0.71875 z"
                 transform="matrix(1.4771087,0,0,1.4772027,-1.0556317,113.00274)"
                 id="path9603"
                 inkscape:connector-curvature="0" />
            </g>
          </g>
        </g>
        <g
           id="g3135"
           transform="matrix(1.6264879,0,0,-1.7384295,-1562.407,1276.8188)">
          <g
             id="g3137">
            <g
               transform="matrix(0.6214594,0,0,0.6214594,892.72034,387.95406)"
               inkscape:label="Layer 1"
               id="g2922">
              <g
                 id="g1362"
                 inkscape:label="Layer 1"
                 transform="matrix(0.396471,0,0,0.396471,770.12337,57.69159)">
                <g
                   id="g2204">
                  <g
                     id="kolo-przod"
                     style="fill:#000000;fill-opacity:1;stroke:none">
                    <path
                       id="opona"
                       d="M 235.40625,400 C 146.67242,401.12523 75,473.50078 75,562.5 75,652.2 147.8,725 237.5,725 327.2,725 400,652.2 400,562.5 400,472.8 327.2,400 237.5,400 c -0.70078,0 -1.39506,-0.009 -2.09375,0 z m 0.3125,25 c 0.5912,-0.007 1.18828,0 1.78125,0 C 313.4,425 375,486.6 375,562.5 375,638.4 313.4,700 237.5,700 161.6,700 100,638.4 100,562.5 100,487.19297 160.63628,425.95212 235.71875,425 z"
                       style="fill:#000000;fill-opacity:1;fill-rule:nonzero;stroke:none"
                       inkscape:connector-curvature="0" />
                    <path
                       d="m 262.5,562.5 c 0,13.80712 -11.19288,25 -25,25 -13.80712,0 -25,-11.19288 -25,-25 0,-13.80712 11.19288,-25 25,-25 13.80712,0 25,11.19288 25,25 z"
                       sodipodi:ry="25"
                       sodipodi:rx="25"
                       sodipodi:cy="562.5"
                       sodipodi:cx="237.5"
                       id="piasta"
                       style="fill:#000000;fill-opacity:1;fill-rule:nonzero;stroke:none"
                       sodipodi:type="arc" />
                  </g>
                  <g
                     id="kolo-tyl"
                     transform="translate(525,0)"
                     style="fill:#000000;fill-opacity:1;stroke:none">
                    <path
                       id="path1324"
                       d="M 235.40625,400 C 146.67242,401.12523 75,473.50078 75,562.5 75,652.2 147.8,725 237.5,725 327.2,725 400,652.2 400,562.5 400,472.8 327.2,400 237.5,400 c -0.70078,0 -1.39506,-0.009 -2.09375,0 z m 0.3125,25 c 0.5912,-0.007 1.18828,0 1.78125,0 C 313.4,425 375,486.6 375,562.5 375,638.4 313.4,700 237.5,700 161.6,700 100,638.4 100,562.5 100,487.19297 160.63628,425.95212 235.71875,425 z"
                       style="fill:#000000;fill-opacity:1;fill-rule:nonzero;stroke:none"
                       inkscape:connector-curvature="0" />
                    <path
                       d="m 262.5,562.5 c 0,13.80712 -11.19288,25 -25,25 -13.80712,0 -25,-11.19288 -25,-25 0,-13.80712 11.19288,-25 25,-25 13.80712,0 25,11.19288 25,25 z"
                       sodipodi:ry="25"
                       sodipodi:rx="25"
                       sodipodi:cy="562.5"
                       sodipodi:cx="237.5"
                       id="path1326"
                       style="fill:#000000;fill-opacity:1;fill-rule:nonzero;stroke:none"
                       sodipodi:type="arc" />
                  </g>
                  <path
                     style="fill:none;stroke:#000000;stroke-width:25;stroke-linecap:butt;stroke-linejoin:miter;stroke-miterlimit:4;stroke-opacity:1;stroke-dasharray:none"
                     d="m 537.5,562.5 225,0"
                     id="wzdlozlancucha"
                     inkscape:connector-curvature="0" />
                  <path
                     style="fill:none;stroke:#000000;stroke-width:25;stroke-linecap:butt;stroke-linejoin:miter;stroke-miterlimit:4;stroke-opacity:1;stroke-dasharray:none"
                     d="M 537.5,562.5 296,360"
                     id="ukos-damka"
                     inkscape:connector-curvature="0" />
                  <path
                     style="fill:none;stroke:#000000;stroke-width:25;stroke-linecap:butt;stroke-linejoin:miter;stroke-miterlimit:4;stroke-opacity:1;stroke-dasharray:none"
                     d="M 537.5,562.5 637.5,250"
                     id="slupek-siodelko"
                     inkscape:connector-curvature="0" />
                  <path
                     style="fill:none;stroke:#000000;stroke-width:25;stroke-linecap:butt;stroke-linejoin:miter;stroke-miterlimit:4;stroke-opacity:1;stroke-dasharray:none"
                     d="m 300,312.5 310,0 152.5,250"
                     id="poprzeczka"
                     inkscape:connector-curvature="0" />
                  <path
                     style="fill:none;stroke:#000000;stroke-width:25;stroke-linecap:butt;stroke-linejoin:miter;stroke-miterlimit:4;stroke-opacity:1;stroke-dasharray:none"
                     d="m 237.5,562.5 c 0,0 90.87525,-318.42134 92.5,-322.5 6.88841,-17.29219 9.17087,-23.14 30,-27.5 3.04271,-0.63691 40,0 40,0"
                     id="kierownica"
                     sodipodi:nodetypes="cssc"
                     inkscape:connector-curvature="0" />
                  <path
                     sodipodi:type="arc"
                     style="fill:#000000;fill-opacity:1;fill-rule:nonzero;stroke:none"
                     id="kolo=pedalowe"
                     sodipodi:cx="537.5"
                     sodipodi:cy="562.5"
                     sodipodi:rx="50"
                     sodipodi:ry="50"
                     d="m 587.5,562.5 c 0,27.61424 -22.38576,50 -50,50 -27.61424,0 -50,-22.38576 -50,-50 0,-27.61424 22.38576,-50 50,-50 27.61424,0 50,22.38576 50,50 z" />
                  <path
                     style="fill:#000000;fill-opacity:1;fill-rule:evenodd;stroke:none"
                     d="m 625,275 75,0 0,-50 c 0,0 -149.72198,-1.39316 -162.5,0 -11.85908,1.29297 -7.3313,22.8408 0,25 124.83056,36.76492 87.5,25 87.5,25 z"
                     id="siodelko"
                     sodipodi:nodetypes="ccczsc"
                     inkscape:connector-curvature="0" />
                </g>
              </g>
            </g>
          </g>
        </g>
      </g>
      <path
         style="fill:#d40000;fill-opacity:1;fill-rule:nonzero;stroke:none"
         d="M 237.71875,16.125 237.719,237.71921 41.3125,356.3125 53.59375,377.59375 250,259.00021 446.40625,377.59375 458.6875,356.3125 262.281,237.71921 262.28125,16.125 l -24.5625,0 z"
         id="rect3274"
         sodipodi:nodetypes="cccccccccc"
         transform="translate(104.1697,150.9335)"
         inkscape:connector-curvature="0" />
      <path
         d="m 354.16972,150.93351 c 138.00256,0 250.00005,112.01821 250.00005,250.01582 0,137.99759 -111.9975,249.98439 -250.00005,249.98438 -138.00256,0 -250.00003,-111.98679 -250.00004,-249.98438 0,-137.9976 111.99748,-250.01582 250.00004,-250.01582 z m 0,48.89701 c -111.02455,0 -201.1314,90.10121 -201.1314,201.11881 1e-5,111.01761 90.10684,201.1188 201.1314,201.1188 111.02457,-10e-6 201.1314,-90.1012 201.1314,-201.1188 0,-111.0176 -90.10684,-201.11881 -201.1314,-201.11881 z"
         style="fill:#d40000;fill-opacity:1;fill-rule:nonzero;stroke:none"
         id="path3063"
         inkscape:connector-curvature="0" />
    </g>
  </g>
</svg>
