<?xml version="1.0" encoding="UTF-8" standalone="no"?>
<!-- Created with Inkscape (http://www.inkscape.org/) -->

<svg
   xmlns:dc="http://purl.org/dc/elements/1.1/"
   xmlns:cc="http://creativecommons.org/ns#"
   xmlns:rdf="http://www.w3.org/1999/02/22-rdf-syntax-ns#"
   xmlns:svg="http://www.w3.org/2000/svg"
   xmlns="http://www.w3.org/2000/svg"
   xmlns:sodipodi="http://sodipodi.sourceforge.net/DTD/sodipodi-0.dtd"
   xmlns:inkscape="http://www.inkscape.org/namespaces/inkscape"
   version="1.0"
   width="500.00012"
   height="500.00018"
   id="svg2291"
   sodipodi:version="0.32"
   inkscape:version="0.48.2 r9819"
   sodipodi:docname="AJAX.svg"
   inkscape:output_extension="org.inkscape.output.svg.inkscape">
  <metadata
     id="metadata11">
    <rdf:RDF>
      <cc:Work
         rdf:about="">
        <dc:format>image/svg+xml</dc:format>
        <dc:type
           rdf:resource="http://purl.org/dc/dcmitype/StillImage" />
      </cc:Work>
    </rdf:RDF>
  </metadata>
  <sodipodi:namedview
     inkscape:window-height="1004"
     inkscape:window-width="1280"
     inkscape:pageshadow="2"
     inkscape:pageopacity="0.0"
     guidetolerance="10.0"
     gridtolerance="10.0"
     objecttolerance="10.0"
     borderopacity="1.0"
     bordercolor="#666666"
     pagecolor="#ffffff"
     id="base"
     showgrid="false"
     inkscape:zoom="1.0273417"
     inkscape:cx="118.97869"
     inkscape:cy="256.65304"
     inkscape:window-x="-8"
     inkscape:window-y="-8"
     inkscape:current-layer="g6035"
     fit-margin-top="0"
     fit-margin-left="0"
     fit-margin-right="0"
     fit-margin-bottom="0"
     inkscape:window-maximized="1" />
  <defs
     id="defs2293" />
  <g
     transform="translate(-104.1697,-150.93352)"
     id="layer1">
    <g
       id="g6035">
      <path
         d="m 390.42439,244.34138 a 140.71134,122.87468 0 1 1 -281.42267,0 140.71134,122.87468 0 1 1 281.42267,0 z"
         transform="matrix(-1.743421,0,0,1.996373,789.5247,-86.86293)"
         style="fill:#ffffff;fill-opacity:1;fill-rule:nonzero;stroke:none"
         id="path8679"
         inkscape:connector-curvature="0" />
      <rect
         width="467.76001"
         height="24.566723"
         ry="0"
         x="120.31467"
         y="-413.22247"
         transform="matrix(1,-1.5556318e-5,6.222552e-5,-1,0,0)"
         style="fill:#d40000;fill-opacity:1;fill-rule:nonzero;stroke:none"
         id="rect3274" />
      <g
         id="g2552"
         transform="matrix(-0.4468302,0,0,-0.4180577,261.55252,541.48882)">
        <path
           sodipodi:nodetypes="cccccssscccccccccccccccccccccccc"
           id="path1959"
           d="m -101.05445,734.83206 0,-109.0107 116.961268,0 0,-105.46133 c 0,0 -22.3855692,-18.78099 -25.431343,-25.11081 14.1789892,-9.53028 23.617577,-26.38445 23.617577,-45.59112 0,-29.71935 -22.5689197,-53.83219 -50.385402,-53.83219 -27.816422,0 -50.404281,24.11284 -50.404464,53.83219 1.22e-4,0.77849 0.02664,1.55498 0.05731,2.32545 -1.18478,3.48019 -2.249872,7.18158 -3.15031,11.0969 l -129.963296,-0.20399 c 0,0 -89.85008,-152.64202 -182.60163,3.91656 l -28.1043,0 0,30.94484 28.1043,0 c 0,0 0.36383,62.23647 39.97991,75.29164 l 0,143.15814 142.62172,0 29.6699,-90.36628 55.86495,0 0,109.0107 33.16381,0 z m -179.68042,-49.34447 -48.2661,0 0,-59.66623 48.2661,0 0,59.66623 z m 42.69105,0 -30.54816,0 0,-59.66623 48.36153,0 -17.81337,59.66623 z"
           style="fill:#000000;fill-opacity:1;fill-rule:evenodd;stroke:none;stroke-width:7.57818317000000000;stroke-linecap:butt;stroke-linejoin:miter;stroke-miterlimit:4;stroke-opacity:1;stroke-dasharray:none"
           inkscape:connector-curvature="0" />
        <g
           id="g2798"
           transform="matrix(-0.9664342,0,0,-1.0329484,580.87674,1215.6632)">
          <g
             id="g11404"
             transform="matrix(1.005657,0,0,1.005593,-0.782672,-5.109255)">
            <g
               id="g11399"
               transform="matrix(1.9046706,0,0,1.9046706,77.060449,-213.19921)">
              <path
                 style="fill:#000000;fill-rule:evenodd;stroke:none;stroke-width:3.13866282000000000px;stroke-linecap:butt;stroke-linejoin:miter;stroke-opacity:1"
                 d="m 124.1875,275.34375 5.0625,10.125 -17.96875,31.3125 8.75,9.1875 24.875,-17.03125 18.40625,21.65625 0.28125,7.90625 -23.21875,-1.78125 0,7.90625 25.90625,2.28125 2.5625,2.5625 -28.53125,11.03125 0,25.78125 17.46875,11.96875 0,-12.875 -4.125,-2.78125 0,-14.71875 29,-10.125 10.125,43.71875 -6,11.5 11.53125,0 4.125,-7.8125 -5.96875,-48.34375 49.25,-0.90625 2.75,23 -23.9375,34.0625 13.8125,0 20.28125,-29.90625 0,-25.3125 28.0625,21.15625 10.125,34.0625 8.75,-4.125 L 298.65625,372 l -14.75,-14.75 99.84375,8.78125 c 0,0 0.0468,0.42383 0.0937,1.0625 -6.64198,4.14443 -11.06567,11.50034 -11.0625,19.90625 -0.002,6.50244 2.63772,12.40232 6.90625,16.65625 3.96087,-3.34704 7.77638,-6.86287 11.46875,-10.5 0.0137,0.0185 0.0175,0.0441 0.0312,0.0625 4.68918,-4.62376 9.12463,-9.49886 13.34375,-14.5625 0.0897,-0.10744 0.19182,-0.20487 0.28125,-0.3125 1.16236,-1.40092 2.31281,-2.81738 3.4375,-4.25 0.26136,-0.33253 0.52197,-0.66577 0.78125,-1 16.5037,-21.29669 28.83486,-45.98904 35.75,-72.84375 l -68.96875,0 1.59375,47.03125 14.25,2.09375 -3.9375,6.34375 L 303.4375,349.25 292.21875,314 272.875,317.21875 260,306.65625 l -70.90625,2.28125 -34.53125,-22.53125 -21.625,-3.25 -8.75,-7.8125 z m 156.53125,52.03125 3.6875,16.5625 7.875,4.4375 -13.6875,-1.03125 -1.09375,-19.0625 3.21875,-0.90625 z"
                 transform="matrix(1.2089697,0,0,1.2090466,83.470919,256.86141)"
                 id="path9603"
                 inkscape:connector-curvature="0" />
            </g>
          </g>
        </g>
        <path
           d="m -207.27614,934.21387 c -308.84788,0 -559.49676,-267.94916 -559.49676,-598.04141 0,-330.0922065 250.6489,-597.96623 559.49676,-597.96621 308.84788,0 559.49668,267.8740035 559.49678,597.96621 0,330.09223 -250.6489,598.04141 -559.49678,598.04141 z m 0,-116.9623 c 248.471462,0 450.12938,-215.52343 450.12938,-481.07911 0,-265.555706 -201.657898,-481.07905 -450.12938,-481.07905 -248.4715,3e-5 -450.12938,215.523364 -450.12938,481.07905 0,265.55568 201.6579,481.07911 450.12938,481.07911 z"
           style="fill:#d40000;fill-opacity:1;fill-rule:nonzero;stroke:none"
           id="path3063"
           inkscape:connector-curvature="0" />
      </g>
    </g>
  </g>
</svg>
