<?xml version="1.0" encoding="UTF-8" standalone="no"?>
<!-- Created with Inkscape (http://www.inkscape.org/) -->

<svg
   xmlns:dc="http://purl.org/dc/elements/1.1/"
   xmlns:cc="http://creativecommons.org/ns#"
   xmlns:rdf="http://www.w3.org/1999/02/22-rdf-syntax-ns#"
   xmlns:svg="http://www.w3.org/2000/svg"
   xmlns="http://www.w3.org/2000/svg"
   xmlns:sodipodi="http://sodipodi.sourceforge.net/DTD/sodipodi-0.dtd"
   xmlns:inkscape="http://www.inkscape.org/namespaces/inkscape"
   width="500.00006"
   height="500.00012"
   id="svg2"
   sodipodi:version="0.32"
   inkscape:version="0.48.2 r9819"
   version="1.0"
   sodipodi:docname="AJAX.svg">
  <defs
     id="defs4" />
  <sodipodi:namedview
     id="base"
     pagecolor="#ffffff"
     bordercolor="#666666"
     borderopacity="1.0"
     gridtolerance="10000"
     guidetolerance="10"
     objecttolerance="10"
     inkscape:pageopacity="0.0"
     inkscape:pageshadow="2"
     inkscape:zoom="0.7"
     inkscape:cx="72.637863"
     inkscape:cy="167.01363"
     inkscape:document-units="px"
     inkscape:current-layer="g7679"
     inkscape:window-width="1280"
     inkscape:window-height="1004"
     inkscape:window-x="-8"
     inkscape:window-y="-8"
     showgrid="false"
     fit-margin-top="0"
     fit-margin-left="0"
     fit-margin-right="0"
     fit-margin-bottom="0"
     inkscape:window-maximized="1" />
  <metadata
     id="metadata7">
    <rdf:RDF>
      <cc:Work
         rdf:about="">
        <dc:format>image/svg+xml</dc:format>
        <dc:type
           rdf:resource="http://purl.org/dc/dcmitype/StillImage" />
      </cc:Work>
    </rdf:RDF>
  </metadata>
  <g
     inkscape:label="Layer 1"
     inkscape:groupmode="layer"
     id="layer1"
     transform="translate(168.58766,-454.88736)">
    <g
       id="g3716"
       transform="matrix(0.517755,0,0,0.518557,-81.97818,460.2119)">
      <g
         id="g3740"
         transform="matrix(0.999996,0,0,0.998432,-6.688004e-4,1.500379)">
        <g
           id="g7679"
           transform="matrix(1.005657,0,0,1.005657,0.946278,-5.396188)">
          <path
             transform="matrix(2.97072,0,0,3.401954,-438.6244,-367.1021)"
             d="m 390.42439,244.34138 c 0,67.86182 -62.99861,122.87468 -140.71133,122.87468 -77.71273,0 -140.71134,-55.01286 -140.71134,-122.87468 0,-67.86181 62.99861,-122.87467 140.71134,-122.87467 77.71272,0 140.71133,55.01286 140.71133,122.87467 z"
             sodipodi:ry="122.87468"
             sodipodi:rx="140.71133"
             sodipodi:cy="244.34138"
             sodipodi:cx="249.71306"
             id="path6743"
             style="fill:#ffffff;fill-opacity:1;fill-rule:nonzero;stroke:none"
             sodipodi:type="arc" />
          <path
             sodipodi:nodetypes="ccccsssccssscccccccc"
             id="path1884"
             d="m 117.51299,359.3642 c -37.781699,0.0399 -107.200807,2.12372 -167.895706,2.12372 -33.599283,89.20625 -20.074771,187.44272 4.587201,231.13273 14.103001,0 56.314702,0 70.04135,0 -0.0049,0.26972 -0.0354,0.5432 -0.0354,0.81409 0,24.11184 19.56623,43.6781 43.678044,43.67807 24.111837,0 43.678101,-19.56623 43.678101,-43.67807 0,-0.27071 0.005,-0.54452 0,-0.81409 94.03221,0 213.14028,0 303.15557,0 -0.005,0.26972 -0.0354,0.5432 -0.0354,0.81409 0,24.11184 19.56624,43.67805 43.67807,43.67807 24.11185,0 43.67806,-19.5662 43.67806,-43.67807 0,-0.27071 0.005,-0.54452 0,-0.81409 51.78703,0 119.724,0 176.29334,0 0,0 28.20993,-60.27867 16.81759,-145.65254 l -317.66772,0 0,116.52203 -175.30701,0 c 0,2e-5 3.46357,-127.50775 0,-178.00406 0,-21.84035 -29.44661,-26.18016 -84.6661,-26.12188 z"
             style="fill:#000000;fill-rule:evenodd;stroke:#000000;stroke-width:15.63066006;stroke-linecap:butt;stroke-linejoin:miter;stroke-miterlimit:4;stroke-opacity:1;stroke-dasharray:none"
             inkscape:connector-curvature="0" />
          <path
             id="path3063"
             d="m 312.86083,-6.3547132 c -265.040873,0 -480.13967,215.1001532 -480.13969,480.1481432 0,265.04799 215.098777,480.14812 480.13969,480.14814 265.0409,0 480.1396,-215.10017 480.1397,-480.14814 0,-265.04799 -215.0989,-480.1481412 -480.1397,-480.1481432 z m 0,93.8567382 c 213.2283,-5e-6 386.2846,173.063105 386.2846,386.291405 0,213.22827 -173.0563,386.2914 -386.2846,386.2914 -213.228253,4e-5 -386.284603,-173.06311 -386.284603,-386.2914 -2e-5,-213.2283 173.05631,-386.291405 386.284603,-386.291405 z"
             style="fill:#d40000;fill-opacity:1;fill-rule:nonzero;stroke:none"
             inkscape:connector-curvature="0" />
        </g>
      </g>
    </g>
  </g>
</svg>
