<?xml version="1.0" encoding="UTF-8" standalone="no"?>
<!-- Created with Inkscape (http://www.inkscape.org/) -->

<svg
   xmlns:dc="http://purl.org/dc/elements/1.1/"
   xmlns:cc="http://creativecommons.org/ns#"
   xmlns:rdf="http://www.w3.org/1999/02/22-rdf-syntax-ns#"
   xmlns:svg="http://www.w3.org/2000/svg"
   xmlns="http://www.w3.org/2000/svg"
   xmlns:xlink="http://www.w3.org/1999/xlink"
   xmlns:sodipodi="http://sodipodi.sourceforge.net/DTD/sodipodi-0.dtd"
   xmlns:inkscape="http://www.inkscape.org/namespaces/inkscape"
   version="1.0"
   width="500.00009"
   height="499.99969"
   id="svg5701"
   inkscape:version="0.48.2 r9819"
   sodipodi:docname="AJAX.svg">
  <metadata
     id="metadata18">
    <rdf:RDF>
      <cc:Work
         rdf:about="">
        <dc:format>image/svg+xml</dc:format>
        <dc:type
           rdf:resource="http://purl.org/dc/dcmitype/StillImage" />
      </cc:Work>
    </rdf:RDF>
  </metadata>
  <sodipodi:namedview
     pagecolor="#ffffff"
     bordercolor="#666666"
     borderopacity="1"
     objecttolerance="10"
     gridtolerance="10"
     guidetolerance="10"
     inkscape:pageopacity="0"
     inkscape:pageshadow="2"
     inkscape:window-width="1280"
     inkscape:window-height="1004"
     id="namedview16"
     showgrid="false"
     fit-margin-top="0"
     fit-margin-left="0"
     fit-margin-right="0"
     fit-margin-bottom="0"
     inkscape:zoom="0.47200003"
     inkscape:cx="-80.508371"
     inkscape:cy="249.99984"
     inkscape:window-x="-8"
     inkscape:window-y="-8"
     inkscape:window-maximized="1"
     inkscape:current-layer="g11404" />
  <defs
     id="defs5703">
    <radialGradient
       cx="145.29903"
       cy="106.93237"
       r="145.51834"
       fx="145.29903"
       fy="106.93237"
       id="radialGradient2827"
       xlink:href="#linearGradient2821"
       gradientUnits="userSpaceOnUse"
       gradientTransform="matrix(1,0,0,0.712223,318.2724,353.3454)" />
    <linearGradient
       id="linearGradient2821">
      <stop
         style="stop-color:#ff4cfe;stop-opacity:1"
         offset="0"
         id="stop2823" />
      <stop
         style="stop-color:#f9e8fd;stop-opacity:1"
         offset="1"
         id="stop2825" />
    </linearGradient>
  </defs>
  <g
     transform="translate(-138.35856,-413.49982)"
     id="layer1">
    <g
       transform="matrix(1.005657,0,0,1.005593,-0.782672,-5.109255)"
       id="g11404">
      <path
         d="m 390.42439,244.34138 a 140.71134,122.87468 0 1 1 -281.42267,0 140.71134,122.87468 0 1 1 281.42267,0 z"
         transform="matrix(1.766691,0,0,2.023277,-54.21353,170.5199)"
         style="fill:#ffffff;fill-opacity:1;fill-rule:nonzero;stroke:none"
         id="path8679"
         inkscape:connector-curvature="0" />
      <g
         id="g11399">
        <path
           d="m 253.16571,673.53531 0,-9.58298 299.03168,22.99915 4.79152,-7.66637 -17.24938,-2.54107 -1.91662,-56.87347 43.12346,0 c 0,0 36.47159,123.60907 -16.04086,117.87073 -15.76883,-1.72316 -17.49961,-38.33193 -17.49961,-38.33193 L 253.16571,673.53531 z"
           style="fill:#000000;fill-rule:evenodd;stroke:#000000;stroke-width:3.79466891px;stroke-linecap:butt;stroke-linejoin:miter;stroke-opacity:1"
           id="path9603"
           inkscape:connector-curvature="0" />
        <path
           d="m 239.73038,602.00925 -21.706,37.84636 10.57471,11.13128 30.05447,-20.59287 22.26256,26.15851 0.55656,16.69693 6.12221,6.12224 -34.50698,13.3575 0,31.16763 21.14944,14.47067 0,-15.58384 -5.00908,-3.33934 0,-17.81006 35.06354,-12.24441 12.24441,52.87359 -7.23533,13.91411 13.9141,0 5.00908,-9.46159 -7.23533,-58.43927 59.55239,-1.11313 3.33939,27.82824 -28.94137,41.18575 16.69692,0 24.48886,-36.17667 0,-30.61103 33.95041,25.60195 12.24441,41.18575 10.57472,-5.00908 -8.34847,-44.52513 -23.93225,-23.93229 -1.66969,-28.94134 3.89594,-1.11312 4.45252,20.03634 25.60195,14.47063 -16.14036,-50.64733 -23.3757,3.89595 -15.58379,-12.80098 -85.71091,2.78282 -41.74231,-27.27164 -26.15851,-3.89595 -10.57472,-9.46159 6.12221,12.24441 z"
           style="fill:#000000;fill-opacity:1;fill-rule:evenodd;stroke:#000000;stroke-width:3.01339746px;stroke-linecap:butt;stroke-linejoin:miter;stroke-opacity:1"
           id="path1932"
           inkscape:connector-curvature="0" />
        <path
           d="m 532.5,736.82648 a 28.392857,28.392857 0 1 1 -56.78571,0 28.392857,28.392857 0 1 1 56.78571,0 z"
           transform="translate(58.44731,-12.05148)"
           style="fill:#000000;fill-opacity:1;fill-rule:nonzero;stroke:#000000;stroke-width:0.40000001;stroke-miterlimit:4;stroke-opacity:1;stroke-dasharray:none;stroke-dashoffset:0"
           id="path11381"
           inkscape:connector-curvature="0" />
      </g>
      <path
         d="m 386.95233,416.28082 c -137.22631,0 -248.59379,111.39506 -248.59379,248.62501 0,137.22993 111.36749,248.59376 248.59379,248.59375 137.2262,0 248.5937,-111.36382 248.5937,-248.59375 0,-137.22994 -111.3675,-248.62501 -248.5937,-248.62501 z m 0,48.625 c 110.4,0 200,89.59999 200,200.00001 -10e-5,110.40003 -89.6,200 -200,200 -110.40008,-1e-5 -200.00004,-89.59998 -200.00004,-200 0,-110.40002 89.59997,-200.00001 200.00004,-200.00001 z"
         style="fill:#d40000;fill-opacity:1;fill-rule:nonzero;stroke:none"
         id="path3063"
         inkscape:connector-curvature="0" />
    </g>
  </g>
</svg>
