<?xml version="1.0" encoding="UTF-8" standalone="no"?>
<!-- Created with Inkscape (http://www.inkscape.org/) -->
<svg
   xmlns:dc="http://purl.org/dc/elements/1.1/"
   xmlns:cc="http://web.resource.org/cc/"
   xmlns:rdf="http://www.w3.org/1999/02/22-rdf-syntax-ns#"
   xmlns:svg="http://www.w3.org/2000/svg"
   xmlns="http://www.w3.org/2000/svg"
   xmlns:sodipodi="http://sodipodi.sourceforge.net/DTD/sodipodi-0.dtd"
   xmlns:inkscape="http://www.inkscape.org/namespaces/inkscape"
   width="497.19662"
   height="497.2099"
   id="svg2"
   sodipodi:version="0.32"
   inkscape:version="0.45.1"
   version="1.0"
   sodipodi:docbase="C:\Users\Mistrz\Desktop"
   sodipodi:docname="20110911210240!Znak_B-9.svg"
   inkscape:output_extension="org.inkscape.output.svg.inkscape">
  <defs
     id="defs4">
    <inkscape:perspective
       sodipodi:type="inkscape:persp3d"
       inkscape:vp_x="0 : 0.5 : 1"
       inkscape:vp_y="0 : 1000 : 0"
       inkscape:vp_z="1 : 0.5 : 1"
       inkscape:persp3d-origin="0.5 : 0.33333333 : 1"
       id="perspective2839" />
    <inkscape:perspective
       sodipodi:type="inkscape:persp3d"
       inkscape:vp_x="0 : 0.5 : 1"
       inkscape:vp_y="0 : 1000 : 0"
       inkscape:vp_z="1 : 0.5 : 1"
       inkscape:persp3d-origin="0.5 : 0.33333333 : 1"
       id="perspective4177" />
    <inkscape:perspective
       id="perspective4167"
       inkscape:persp3d-origin="250 : 166.66667 : 1"
       inkscape:vp_z="500 : 250 : 1"
       inkscape:vp_y="0 : 1000 : 0"
       inkscape:vp_x="0 : 250 : 1"
       sodipodi:type="inkscape:persp3d" />
  </defs>
  <sodipodi:namedview
     id="base"
     pagecolor="#ffffff"
     bordercolor="#666666"
     borderopacity="1.0"
     inkscape:pageopacity="0.0"
     inkscape:pageshadow="2"
     inkscape:zoom="1.062"
     inkscape:cx="250"
     inkscape:cy="250"
     inkscape:document-units="px"
     inkscape:current-layer="layer1"
     inkscape:window-width="1016"
     inkscape:window-height="695"
     inkscape:window-x="0"
     inkscape:window-y="0"
     showgrid="true"
     gridspacingx="50px"
     gridspacingy="50px" />
  <metadata
     id="metadata7">
    <rdf:RDF>
      <cc:Work
         rdf:about="">
        <dc:format>image/svg+xml</dc:format>
        <dc:type
           rdf:resource="http://purl.org/dc/dcmitype/StillImage" />
        <dc:title>PL - Znak drogowy B9</dc:title>
        <dc:date>26.07.2006</dc:date>
        <dc:creator>
          <cc:Agent>
            <dc:title>MaciekS</dc:title>
          </cc:Agent>
        </dc:creator>
        <dc:rights>
          <cc:Agent>
            <dc:title>Free</dc:title>
          </cc:Agent>
        </dc:rights>
        <dc:subject>
          <rdf:Bag>
            <rdf:li>Znak zakazu</rdf:li>
            <rdf:li>znak B9</rdf:li>
          </rdf:Bag>
        </dc:subject>
        <dc:description>Znaki drogowe -Polska. Wykonane na podstawie załącznika do Ustawy.</dc:description>
        <cc:license
           rdf:resource="http://creativecommons.org/licenses/by-sa/2.0/" />
        <dc:publisher>
          <cc:Agent>
            <dc:title>Wikipedia</dc:title>
          </cc:Agent>
        </dc:publisher>
      </cc:Work>
      <cc:License
         rdf:about="http://artlibre.org/licence.php/lalgb.html">
        <cc:permits
           rdf:resource="http://web.resource.org/cc/Reproduction" />
        <cc:permits
           rdf:resource="http://web.resource.org/cc/Distribution" />
        <cc:permits
           rdf:resource="http://web.resource.org/cc/DerivativeWorks" />
        <cc:requires
           rdf:resource="http://web.resource.org/cc/ShareAlike" />
        <cc:requires
           rdf:resource="http://web.resource.org/cc/Notice" />
        <cc:requires
           rdf:resource="http://web.resource.org/cc/Attribution" />
      </cc:License>
    </rdf:RDF>
  </metadata>
  <g
     inkscape:label="Layer 1"
     inkscape:groupmode="layer"
     id="layer1"
     transform="translate(-1.4016024,-1.3885009)">
    <path
       sodipodi:type="arc"
       style="opacity:1;fill:#d40000;fill-opacity:1;fill-rule:nonzero;stroke:none;stroke-width:2;stroke-linecap:butt;stroke-linejoin:miter;stroke-miterlimit:4;stroke-dasharray:none;stroke-dashoffset:0;stroke-opacity:1"
       id="path3063"
       sodipodi:cx="484.56226"
       sodipodi:cy="627.25543"
       sodipodi:rx="179.35739"
       sodipodi:ry="175.39369"
       d="M 663.91965 627.25543 A 179.35739 175.39369 0 1 1  305.20486,627.25543 A 179.35739 175.39369 0 1 1  663.91965 627.25543 z"
       transform="matrix(1.38605,0,0,1.417411,-421.6276,-639.0853)"
       inkscape:label="tarcza" />
    <path
       sodipodi:type="arc"
       style="opacity:1;fill:#ffffff;fill-opacity:1;fill-rule:nonzero;stroke:none;stroke-width:2;stroke-linecap:butt;stroke-linejoin:miter;stroke-miterlimit:4;stroke-dasharray:none;stroke-dashoffset:0;stroke-opacity:1"
       id="path6586"
       sodipodi:cx="249.71306"
       sodipodi:cy="244.34138"
       sodipodi:rx="140.71133"
       sodipodi:ry="122.87468"
       d="M 390.42439 244.34138 A 140.71133 122.87468 0 1 1  109.00172,244.34138 A 140.71133 122.87468 0 1 1  390.42439 244.34138 z"
       transform="matrix(1.42135,0,0,1.627675,-104.9296,-147.7083)" />
    <g
       id="g1362"
       inkscape:label="Layer 1"
       transform="matrix(0.396471,0,0,0.396471,51.7645,62.55852)">
      <g
         id="g2204">
        <g
           id="kolo-przod"
           style="fill:#000000;fill-opacity:1;stroke:none;stroke-opacity:1">
          <path
             id="opona"
             d="M 235.40625,400 C 146.67242,401.12523 75,473.50078 75,562.5 C 75,652.2 147.8,725 237.5,725 C 327.2,725 400,652.2 400,562.5 C 400,472.8 327.2,400 237.5,400 C 236.79922,400 236.10494,399.99114 235.40625,400 z M 235.71875,425 C 236.30995,424.9925 236.90703,425 237.5,425 C 313.4,425 375,486.6 375,562.5 C 375,638.4 313.4,700 237.5,700 C 161.6,700 100,638.4 100,562.5 C 100,487.19297 160.63628,425.95212 235.71875,425 z "
             style="opacity:1;fill:#000000;fill-opacity:1;fill-rule:nonzero;stroke:none;stroke-width:2;stroke-linecap:butt;stroke-linejoin:round;stroke-miterlimit:4;stroke-dasharray:none;stroke-dashoffset:0;stroke-opacity:1" />
          <path
             d="M 262.5 562.5 A 25 25 0 1 1  212.5,562.5 A 25 25 0 1 1  262.5 562.5 z"
             sodipodi:ry="25"
             sodipodi:rx="25"
             sodipodi:cy="562.5"
             sodipodi:cx="237.5"
             id="piasta"
             style="opacity:1;fill:#000000;fill-opacity:1;fill-rule:nonzero;stroke:none;stroke-width:2;stroke-linecap:butt;stroke-linejoin:round;stroke-miterlimit:4;stroke-dasharray:none;stroke-dashoffset:0;stroke-opacity:1"
             sodipodi:type="arc" />
        </g>
        <g
           id="kolo-tyl"
           transform="translate(525,0)"
           style="fill:#000000;fill-opacity:1;stroke:none">
          <path
             id="path1324"
             d="M 235.40625,400 C 146.67242,401.12523 75,473.50078 75,562.5 C 75,652.2 147.8,725 237.5,725 C 327.2,725 400,652.2 400,562.5 C 400,472.8 327.2,400 237.5,400 C 236.79922,400 236.10494,399.99114 235.40625,400 z M 235.71875,425 C 236.30995,424.9925 236.90703,425 237.5,425 C 313.4,425 375,486.6 375,562.5 C 375,638.4 313.4,700 237.5,700 C 161.6,700 100,638.4 100,562.5 C 100,487.19297 160.63628,425.95212 235.71875,425 z "
             style="opacity:1;fill:#000000;fill-opacity:1;fill-rule:nonzero;stroke:none;stroke-width:2;stroke-linecap:butt;stroke-linejoin:round;stroke-miterlimit:4;stroke-dasharray:none;stroke-dashoffset:0;stroke-opacity:1" />
          <path
             d="M 262.5 562.5 A 25 25 0 1 1  212.5,562.5 A 25 25 0 1 1  262.5 562.5 z"
             sodipodi:ry="25"
             sodipodi:rx="25"
             sodipodi:cy="562.5"
             sodipodi:cx="237.5"
             id="path1326"
             style="opacity:1;fill:#000000;fill-opacity:1;fill-rule:nonzero;stroke:none;stroke-width:2;stroke-linecap:butt;stroke-linejoin:round;stroke-miterlimit:4;stroke-dasharray:none;stroke-dashoffset:0;stroke-opacity:1"
             sodipodi:type="arc" />
        </g>
        <path
           style="fill:none;fill-opacity:1;fill-rule:evenodd;stroke:#000000;stroke-width:25;stroke-linecap:butt;stroke-linejoin:miter;stroke-miterlimit:4;stroke-dasharray:none;stroke-opacity:1"
           d="M 537.5,562.5 L 762.5,562.5"
           id="wzdlozlancucha" />
        <path
           style="fill:none;fill-opacity:0.75;fill-rule:evenodd;stroke:#000000;stroke-width:25;stroke-linecap:butt;stroke-linejoin:miter;stroke-miterlimit:4;stroke-dasharray:none;stroke-opacity:1"
           d="M 537.5,562.5 L 296,360"
           id="ukos-damka" />
        <path
           style="fill:none;fill-opacity:0.75;fill-rule:evenodd;stroke:#000000;stroke-width:25;stroke-linecap:butt;stroke-linejoin:miter;stroke-miterlimit:4;stroke-dasharray:none;stroke-opacity:1"
           d="M 537.5,562.5 L 637.5,250"
           id="slupek-siodelko" />
        <path
           style="fill:none;fill-opacity:0.75;fill-rule:evenodd;stroke:#000000;stroke-width:25;stroke-linecap:butt;stroke-linejoin:miter;stroke-miterlimit:4;stroke-dasharray:none;stroke-opacity:1"
           d="M 300,312.5 L 610,312.5 L 762.5,562.5"
           id="poprzeczka" />
        <path
           style="fill:none;fill-opacity:0.75;fill-rule:evenodd;stroke:#000000;stroke-width:25;stroke-linecap:butt;stroke-linejoin:miter;stroke-miterlimit:4;stroke-dasharray:none;stroke-opacity:1"
           d="M 237.5,562.5 C 237.5,562.5 328.37525,244.07866 330,240 C 336.88841,222.70781 339.17087,216.86 360,212.5 C 363.04271,211.86309 400,212.5 400,212.5"
           id="kierownica"
           sodipodi:nodetypes="cssc" />
        <path
           sodipodi:type="arc"
           style="fill:#000000;fill-opacity:1;fill-rule:nonzero;stroke:none;stroke-width:25;stroke-linecap:butt;stroke-linejoin:round;stroke-miterlimit:4;stroke-dasharray:none;stroke-dashoffset:0;stroke-opacity:1"
           id="kolo=pedalowe"
           sodipodi:cx="537.5"
           sodipodi:cy="562.5"
           sodipodi:rx="50"
           sodipodi:ry="50"
           d="M 587.5 562.5 A 50 50 0 1 1  487.5,562.5 A 50 50 0 1 1  587.5 562.5 z" />
        <path
           style="fill:#000000;fill-opacity:1;fill-rule:evenodd;stroke:none;stroke-width:1px;stroke-linecap:butt;stroke-linejoin:miter;stroke-opacity:1"
           d="M 625,275 L 700,275 L 700,225 C 700,225 550.27802,223.60684 537.5,225 C 525.64092,226.29297 530.1687,247.8408 537.5,250 C 662.33056,286.76492 625,275 625,275 z "
           id="siodelko"
           sodipodi:nodetypes="ccczsc" />
      </g>
    </g>
  </g>
</svg>
