<?xml version="1.0" encoding="UTF-8" standalone="no"?>
<svg
   xmlns:dc="http://purl.org/dc/elements/1.1/"
   xmlns:cc="http://creativecommons.org/ns#"
   xmlns:rdf="http://www.w3.org/1999/02/22-rdf-syntax-ns#"
   xmlns:svg="http://www.w3.org/2000/svg"
   xmlns="http://www.w3.org/2000/svg"
   viewBox="0 0 601.33594 601.33594"
   height="601.33594"
   width="601.33594"
   xml:space="preserve"
   id="svg5354"
   version="1.1"><metadata
     id="metadata5360"><rdf:RDF><cc:Work
         rdf:about=""><dc:format>image/svg+xml</dc:format><dc:type
           rdf:resource="http://purl.org/dc/dcmitype/StillImage" /><dc:title></dc:title></cc:Work></rdf:RDF></metadata><defs
     id="defs5358" /><g
     transform="matrix(1.3333333,0,0,-1.3333333,0,601.33594)"
     id="g5362"><g
       id="g5364"><path
         id="path5366"
         style="fill:#ffffff;fill-opacity:1;fill-rule:nonzero;stroke:none"
         d="M 30.301,450.502 C 13.875,450.502 0.5,437.127 0.5,420.701 V 30.303 C 0.5,13.865 13.875,0.502 30.301,0.502 h 390.39 c 16.438,0 29.809,13.363 29.809,29.801 v 390.398 c 0,16.426 -13.371,29.801 -29.809,29.801" /><path
         id="path5368"
         style="fill:#000000;fill-opacity:1;fill-rule:nonzero;stroke:none"
         d="m 30.297,443.217 c -12.434,0 -22.512,-10.086 -22.512,-22.516 V 30.303 C 7.785,17.869 17.863,7.779 30.297,7.779 h 390.394 c 12.434,0 22.524,10.09 22.524,22.524 v 390.398 c 0,12.43 -10.09,22.516 -22.524,22.516 z m 0,-11.262 h 390.394 c 6.223,0 11.262,-5.031 11.262,-11.254 V 30.303 c 0,-6.223 -5.039,-11.258 -11.262,-11.258 H 30.297 c -6.207,0 -11.254,5.035 -11.254,11.258 v 390.398 c 0,6.223 5.047,11.254 11.254,11.254 z" /><path
         id="path5370"
         style="fill:#000000;fill-opacity:1;fill-rule:nonzero;stroke:none"
         d="M 209.641,384.775 C 195.238,370.381 180.84,355.979 166.438,341.58 v -22.863 l 16.652,16.644 c 11.258,11.258 16.734,16.426 16.914,15.961 0.144,-0.383 0.211,-17.629 0.141,-38.324 l -0.114,-37.445 c -6.101,-0.824 -12.101,-2.391 -17.84,-4.696 l 6.989,-16.48 c 6.539,2.551 13.492,3.863 20.511,3.883 31.426,0 56.903,-25.473 56.903,-56.903 0,-31.425 -25.477,-56.902 -56.903,-56.902 -3.293,0 -6.519,0.293 -9.66,0.832 0,-26.355 0,-52.707 0,-79.062 h 18.547 c 0.156,17.996 0.317,41.769 0.473,60.839 36.933,4.606 65.515,36.11 65.515,74.293 0,38.258 -28.691,69.809 -65.73,74.321 v 37.629 c 0,30.023 0.125,38.039 0.594,38.039 0.324,0 8.043,-7.45 17.152,-16.555 l 16.555,-16.551 v 23.067 z" /><path
         id="path5372"
         style="fill:#000000;fill-opacity:1;fill-rule:nonzero;stroke:none"
         d="M 30.297,451.002 C 13.602,451.002 0,437.4 0,420.701 V 30.303 C 0,13.592 13.602,0.002 30.297,0.002 h 390.394 c 16.707,0 30.309,13.59 30.309,30.301 v 390.398 c 0,16.699 -13.602,30.301 -30.309,30.301 z m 0,-0.5 h 390.394 c 16.438,0 29.809,-13.375 29.809,-29.801 V 30.303 C 450.5,13.865 437.129,0.502 420.691,0.502 H 30.297 C 13.871,0.502 0.5,13.865 0.5,30.303 v 390.398 c 0,16.426 13.371,29.801 29.797,29.801 z" /></g></g></svg>