<?xml version="1.0" encoding="UTF-8" standalone="no"?>
<!-- Created with Inkscape (http://www.inkscape.org/) -->

<svg
   xmlns:dc="http://purl.org/dc/elements/1.1/"
   xmlns:cc="http://creativecommons.org/ns#"
   xmlns:rdf="http://www.w3.org/1999/02/22-rdf-syntax-ns#"
   xmlns:svg="http://www.w3.org/2000/svg"
   xmlns="http://www.w3.org/2000/svg"
   xmlns:sodipodi="http://sodipodi.sourceforge.net/DTD/sodipodi-0.dtd"
   xmlns:inkscape="http://www.inkscape.org/namespaces/inkscape"
   width="158.75mm"
   height="119.06383mm"
   viewBox="0 0 158.75 119.06383"
   version="1.1"
   id="svg8"
   inkscape:version="0.92.4 (f8dce91, 2019-08-02)"
   sodipodi:docname="1001-32.svg">
  <defs
     id="defs2" />
  <sodipodi:namedview
     id="base"
     pagecolor="#ffffff"
     bordercolor="#666666"
     borderopacity="1.0"
     inkscape:pageopacity="0.0"
     inkscape:pageshadow="2"
     inkscape:zoom="0.7"
     inkscape:cx="268.16832"
     inkscape:cy="202.46219"
     inkscape:document-units="mm"
     inkscape:current-layer="layer1"
     showgrid="false"
     fit-margin-top="0"
     fit-margin-left="0"
     fit-margin-right="0"
     fit-margin-bottom="0"
     inkscape:window-width="1366"
     inkscape:window-height="740"
     inkscape:window-x="1920"
     inkscape:window-y="312"
     inkscape:window-maximized="1" />
  <metadata
     id="metadata5">
    <rdf:RDF>
      <cc:Work
         rdf:about="">
        <dc:format>image/svg+xml</dc:format>
        <dc:type
           rdf:resource="http://purl.org/dc/dcmitype/StillImage" />
        <dc:title></dc:title>
      </cc:Work>
    </rdf:RDF>
  </metadata>
  <g
     inkscape:label="Layer 1"
     inkscape:groupmode="layer"
     id="layer1"
     transform="translate(-10.583333,-80.229997)">
    <path
       d="m 21.165344,80.306395 c -5.789084,0 -10.501975,4.712891 -10.501975,10.505612 v 97.898483 c 0,5.7904 4.712891,10.50329 10.501975,10.50329 H 158.75132 c 5.79306,0 10.50595,-4.71289 10.50595,-10.50329 V 90.812007 c 0,-5.792721 -4.71289,-10.505612 -10.50595,-10.505612"
       style="fill:#ffffff;fill-opacity:1;fill-rule:nonzero;stroke:none;stroke-width:0.33072916"
       id="path3433"
       inkscape:connector-curvature="0" />
    <path
       d="m 21.165344,199.13871 c -5.749066,0 -10.424253,-4.67783 -10.424253,-10.42822 V 90.812007 c 0,-5.748734 4.675187,-10.425575 10.424253,-10.425575 H 158.75132 c 5.74907,0 10.42426,4.676841 10.42426,10.425575 v 97.898483 c 0,5.75039 -4.67519,10.42822 -10.42426,10.42822 z M 158.75132,80.229997 H 21.165344 c -5.843323,0 -10.582011,4.738687 -10.582011,10.58201 v 97.898483 c 0,5.84464 4.738688,10.58333 10.582011,10.58333 H 158.75132 c 5.84333,0 10.58201,-4.73869 10.58201,-10.58333 V 90.812007 c 0,-5.843323 -4.73868,-10.58201 -10.58201,-10.58201"
       style="fill:#000000;fill-opacity:1;fill-rule:nonzero;stroke:none;stroke-width:0.33072916"
       id="path3435"
       inkscape:connector-curvature="0" />
    <path
       d="m 21.165344,82.873184 c -4.382162,0 -7.934855,3.554347 -7.934855,7.938823 v 97.898483 c 0,4.38216 3.552693,7.93882 7.934855,7.93882 H 158.75132 c 4.38217,0 7.93883,-3.55666 7.93883,-7.93882 V 90.812007 c 0,-4.384476 -3.55666,-7.938823 -7.93883,-7.938823 z m 0,3.971396 H 158.75132 c 2.19241,0 3.97008,1.775023 3.97008,3.967427 v 97.898483 c 0,2.19372 -1.77767,3.96742 -3.97008,3.96742 H 21.165344 c -2.188435,0 -3.967428,-1.7737 -3.967428,-3.96742 V 90.812007 c 0,-2.192404 1.778993,-3.967427 3.967428,-3.967427 z"
       style="fill:#000000;fill-opacity:1;fill-rule:nonzero;stroke:none;stroke-width:0.33072916"
       id="path3437"
       inkscape:connector-curvature="0" />
    <path
       d="M 65.569703,131.68054 V 116.1581 c 0,-2.72984 -0.574807,-5.0294 -2.443096,-6.84973 -1.436688,-1.38874 -3.49713,-2.20398 -5.987852,-2.20398 -2.443096,0 -4.790612,0.91083 -6.467409,2.73116 v -2.4431 h -4.790281 v 24.28809 h 4.885862 v -14.80277 c 0,-3.73758 2.29956,-5.41305 5.030722,-5.41305 2.729838,0 4.885862,1.62785 4.885862,5.41305 v 14.80277 z"
       style="fill:#000000;fill-opacity:1;fill-rule:nonzero;stroke:none;stroke-width:0.33072916"
       id="path3439"
       inkscape:connector-curvature="0" />
    <path
       d="m 88.953248,119.51202 c 0,-4.07227 -0.574807,-7.13779 -2.874367,-9.53293 -1.580224,-1.62918 -3.975365,-2.8747 -7.281334,-2.8747 -3.304646,0 -5.652161,1.24552 -7.233377,2.8747 -2.29956,2.39514 -2.874698,5.46066 -2.874698,9.53293 0,4.1199 0.575138,7.18542 2.874698,9.58057 1.581216,1.62917 3.928731,2.87469 7.233377,2.87469 3.305969,0 5.70111,-1.24552 7.281334,-2.87469 2.29956,-2.39515 2.874367,-5.46067 2.874367,-9.58057 z m -4.885862,0 c 0,2.63525 -0.191492,5.17393 -1.677128,6.65857 -0.909505,0.9105 -2.1547,1.43768 -3.592711,1.43768 -1.436687,0 -2.634258,-0.52718 -3.545086,-1.43768 -1.484312,-1.48464 -1.676797,-4.02332 -1.676797,-6.65857 0,-2.63425 0.192485,-5.17425 1.676797,-6.65857 0.910828,-0.91083 2.108399,-1.38873 3.545086,-1.38873 1.438011,0 2.683206,0.4779 3.592711,1.38873 1.485636,1.48432 1.677128,4.02432 1.677128,6.65857 z"
       style="fill:#000000;fill-opacity:1;fill-rule:nonzero;stroke:none;stroke-width:0.33072916"
       id="path3441"
       inkscape:connector-curvature="0" />
    <path
       d="m 110.94012,128.51778 -3.35227,-3.20907 c -1.53359,1.6768 -2.73116,2.29956 -4.64707,2.29956 -1.86829,0 -3.449509,-0.76729 -4.503542,-2.15602 -1.053042,-1.34111 -1.436688,-3.11348 -1.436688,-5.94023 0,-2.82674 0.383646,-4.55149 1.436688,-5.8926 1.054033,-1.38873 2.635252,-2.1547 4.503542,-2.1547 1.91591,0 3.11348,0.62276 4.64707,2.29824 l 3.35227,-3.25702 c -2.29956,-2.44277 -4.64542,-3.40155 -7.99934,-3.40155 -5.461003,0 -10.826092,3.30597 -10.826092,12.40763 0,9.10134 5.365089,12.45526 10.826092,12.45526 3.35392,0 5.69978,-1.00641 7.99934,-3.4495 z"
       style="fill:#000000;fill-opacity:1;fill-rule:nonzero;stroke:none;stroke-width:0.33072916"
       id="path3443"
       inkscape:connector-curvature="0" />
    <path
       d="m 134.03957,131.68054 v -15.66565 c 0,-5.26984 -3.0179,-8.9105 -8.43095,-8.9105 -2.39514,0 -4.59912,0.91083 -6.27492,2.73116 v -12.2641 h -4.88719 v 34.10909 h 4.88719 v -14.89968 c 0,-3.64067 2.20265,-5.31614 4.93382,-5.31614 2.72984,0 4.88619,1.62785 4.88619,5.31614 v 14.89968 z"
       style="fill:#000000;fill-opacity:1;fill-rule:nonzero;stroke:none;stroke-width:0.33072916"
       id="path3445"
       inkscape:connector-curvature="0" />
  </g>
</svg>
