<?xml version="1.0" encoding="UTF-8" standalone="no"?>
<!-- Created with Inkscape (http://www.inkscape.org/) -->

<svg
   xmlns:dc="http://purl.org/dc/elements/1.1/"
   xmlns:cc="http://creativecommons.org/ns#"
   xmlns:rdf="http://www.w3.org/1999/02/22-rdf-syntax-ns#"
   xmlns:svg="http://www.w3.org/2000/svg"
   xmlns="http://www.w3.org/2000/svg"
   xmlns:sodipodi="http://sodipodi.sourceforge.net/DTD/sodipodi-0.dtd"
   xmlns:inkscape="http://www.inkscape.org/namespaces/inkscape"
   width="330.72916mm"
   height="132.29298mm"
   viewBox="0 0 330.72916 132.29298"
   version="1.1"
   id="svg1545"
   inkscape:version="0.92.4 (33fec40, 2019-01-16)"
   sodipodi:docname="1001-34.svg">
  <defs
     id="defs1539" />
  <sodipodi:namedview
     id="base"
     pagecolor="#ffffff"
     bordercolor="#666666"
     borderopacity="1.0"
     inkscape:pageopacity="0.0"
     inkscape:pageshadow="2"
     inkscape:zoom="0.49497475"
     inkscape:cx="609.20883"
     inkscape:cy="291.24546"
     inkscape:document-units="mm"
     inkscape:current-layer="layer1"
     showgrid="false"
     fit-margin-top="0"
     fit-margin-left="0"
     fit-margin-right="0"
     fit-margin-bottom="0"
     inkscape:window-width="1366"
     inkscape:window-height="740"
     inkscape:window-x="1920"
     inkscape:window-y="312"
     inkscape:window-maximized="1" />
  <metadata
     id="metadata1542">
    <rdf:RDF>
      <cc:Work
         rdf:about="">
        <dc:format>image/svg+xml</dc:format>
        <dc:type
           rdf:resource="http://purl.org/dc/dcmitype/StillImage" />
        <dc:title></dc:title>
      </cc:Work>
    </rdf:RDF>
  </metadata>
  <g
     inkscape:label="Layer 1"
     inkscape:groupmode="layer"
     id="layer1"
     transform="translate(45.168156,-97.805889)">
    <path
       d="m -29.294479,97.969931 c -8.660805,0 -15.709635,7.048829 -15.709635,15.714929 V 214.2252 c 0,8.66081 7.04883,15.70964 15.709635,15.70964 H 269.68866 c 8.65948,0 15.70831,-7.04883 15.70831,-15.70964 V 113.68486 c 0,-8.6661 -7.04883,-15.714929 -15.70831,-15.714929"
       style="fill:#ffffff;fill-opacity:1;fill-rule:nonzero;stroke:none;stroke-width:0.33072916"
       id="path3775"
       inkscape:connector-curvature="0" />
    <path
       d="m -29.294479,97.805889 c -8.766969,0 -15.873677,7.110681 -15.873677,15.878971 V 214.2252 c 0,8.76829 7.106708,15.87368 15.873677,15.87368 H 269.68866 c 8.76697,0 15.87235,-7.10539 15.87235,-15.87368 V 113.68486 c 0,-8.76829 -7.10538,-15.878971 -15.87235,-15.878971 z m 0,0.164042 H 269.68866 c 8.65948,0 15.70831,7.048829 15.70831,15.714929 V 214.2252 c 0,8.66081 -7.04883,15.70964 -15.70831,15.70964 H -29.294479 c -8.659812,0 -15.709635,-7.04883 -15.709635,-15.70964 V 113.68486 c 0,-8.6661 7.049823,-15.714929 15.709635,-15.714929 z"
       style="fill:#000000;fill-opacity:1;fill-rule:nonzero;stroke:none;stroke-width:0.33072916"
       id="path3777"
       inkscape:connector-curvature="0" />
    <path
       d="m -29.294479,101.77464 c -6.574565,0 -11.904927,5.33036 -11.904927,11.91022 V 214.2252 c 0,6.57457 5.330362,11.90493 11.904927,11.90493 H 269.68866 c 6.57324,0 11.9036,-5.33036 11.9036,-11.90493 V 113.68486 c 0,-6.57986 -5.33036,-11.91022 -11.9036,-11.91022 z m 0,5.29034 H 269.68866 c 3.65092,0 6.61326,2.96234 6.61326,6.61988 V 214.2252 c 0,3.65224 -2.96234,6.61459 -6.61326,6.61459 H -29.294479 c -3.652242,0 -6.614583,-2.96235 -6.614583,-6.61459 V 113.68486 c 0,-3.65754 2.962341,-6.61988 6.614583,-6.61988 z"
       style="fill:#000000;fill-opacity:1;fill-rule:nonzero;stroke:none;stroke-width:0.33072916"
       id="path3779"
       inkscape:connector-curvature="0" />
    <path
       d="m 19.43648,185.41803 v -20.44039 c 0,-6.93505 -4.220766,-10.49172 -12.6027657,-10.49172 -5.065448,0 -8.0793829,1.0246 -10.974586,4.40168 l 4.03985678,3.79809 c 1.68837242,-2.17057 3.31754432,-2.95473 6.69329692,-2.95473 4.764484,0 6.693297,1.86961 6.693297,5.72856 v 2.17157 H 5.2058653 c -6.9942604,0 -10.5522449,3.67803 -10.5522449,8.80301 0,2.59292 0.8436902,4.94407 2.4120079,6.57325 1.869612,1.86828 4.4016745,2.77382 8.1997683,2.77382 3.7994167,0 5.9091384,-0.90554 8.1402374,-3.13663 v 2.77349 z m -6.150901,-11.03412 c 0,2.17025 -0.422341,3.61851 -1.326885,4.52306 -1.627519,1.56699 -3.3767453,1.7479 -5.7282297,1.7479 -3.8589479,0 -5.60685161,-1.567 -5.60685161,-4.34082 0,-2.77383 1.86795831,-4.403 5.48679691,-4.403 h 7.1751694 z"
       style="fill:#000000;fill-opacity:1;fill-rule:nonzero;stroke:none;stroke-width:0.33072916"
       id="path3781"
       inkscape:connector-curvature="0" />
    <path
       d="M 50.695348,185.41803 V 154.84774 H 44.5461 v 18.63196 c 0,4.70363 -2.895203,6.81335 -6.33181,6.81335 -3.436276,0 -6.15057,-2.05019 -6.15057,-6.81335 v -18.63196 h -6.150901 v 19.53617 c 0,3.43793 0.724627,6.33181 3.076112,8.62344 1.808427,1.7479 4.401343,2.77382 7.536987,2.77382 3.074789,0 6.029193,-1.14598 8.140237,-3.43793 v 3.07479 z"
       style="fill:#000000;fill-opacity:1;fill-rule:nonzero;stroke:none;stroke-width:0.33072916"
       id="path3783"
       inkscape:connector-curvature="0" />
    <path
       d="m 69.987772,160.09278 v -4.70264 h -6.090377 v -4.40135 c 0,-2.2311 1.085453,-3.55798 3.377075,-3.55798 h 2.713302 v -5.24636 h -3.858948 c -5.72856,0 -8.382,4.10038 -8.382,8.50206 v 4.70363 h -3.49713 v 4.70264 h 3.49713 v 25.32525 h 6.150571 v -25.32525 z"
       style="fill:#000000;fill-opacity:1;fill-rule:nonzero;stroke:none;stroke-width:0.33072916"
       id="path3785"
       inkscape:connector-curvature="0" />
  </g>
</svg>
