<?xml version="1.0" encoding="UTF-8" standalone="no"?>
<!-- Created with Inkscape (http://www.inkscape.org/) -->

<svg
   xmlns:dc="http://purl.org/dc/elements/1.1/"
   xmlns:cc="http://creativecommons.org/ns#"
   xmlns:rdf="http://www.w3.org/1999/02/22-rdf-syntax-ns#"
   xmlns:svg="http://www.w3.org/2000/svg"
   xmlns="http://www.w3.org/2000/svg"
   xmlns:sodipodi="http://sodipodi.sourceforge.net/DTD/sodipodi-0.dtd"
   xmlns:inkscape="http://www.inkscape.org/namespaces/inkscape"
   width="176.3889mm"
   height="97.013893mm"
   viewBox="0 0 158.75001 87.312501"
   version="1.1"
   id="svg8"
   inkscape:version="0.92.4 (f8dce91, 2019-08-02)"
   sodipodi:docname="1004-30.svg">
  <defs
     id="defs2">
    <clipPath
       clipPathUnits="userSpaceOnUse"
       id="clipPath4088">
      <path
         d="M 0,0 H 480 V 264 H 0 Z"
         id="path4090"
         inkscape:connector-curvature="0" />
    </clipPath>
  </defs>
  <sodipodi:namedview
     id="base"
     pagecolor="#ffffff"
     bordercolor="#666666"
     borderopacity="1.0"
     inkscape:pageopacity="0.0"
     inkscape:pageshadow="2"
     inkscape:zoom="0.49497475"
     inkscape:cx="368.16052"
     inkscape:cy="267.91464"
     inkscape:document-units="mm"
     inkscape:current-layer="layer1"
     showgrid="false"
     scale-x="0.9"
     fit-margin-top="0"
     fit-margin-left="0"
     fit-margin-right="0"
     fit-margin-bottom="0"
     inkscape:window-width="1366"
     inkscape:window-height="740"
     inkscape:window-x="1920"
     inkscape:window-y="312"
     inkscape:window-maximized="1" />
  <metadata
     id="metadata5">
    <rdf:RDF>
      <cc:Work
         rdf:about="">
        <dc:format>image/svg+xml</dc:format>
        <dc:type
           rdf:resource="http://purl.org/dc/dcmitype/StillImage" />
        <dc:title></dc:title>
      </cc:Work>
    </rdf:RDF>
  </metadata>
  <g
     inkscape:label="Layer 1"
     inkscape:groupmode="layer"
     id="layer1"
     transform="translate(-2.2678563,-125.5878)">
    <g
       id="g4082"
       transform="matrix(0.33072917,0,0,-0.33072917,2.2678563,212.9003)">
      <g
         id="g4084">
        <g
           id="g4086"
           clip-path="url(#clipPath4088)">
          <g
             id="g4092">
            <path
               d="m 31.996,263.758 c -17.512,0 -31.754,-14.254 -31.754,-31.766 V 31.996 C 0.242,14.484 14.484,0.242 31.996,0.242 h 416.008 c 17.512,0 31.754,14.242 31.754,31.754 v 199.996 c 0,17.512 -14.242,31.766 -31.754,31.766"
               style="fill:#ffffff;fill-opacity:1;fill-rule:nonzero;stroke:none"
               id="path4094"
               inkscape:connector-curvature="0" />
            <path
               d="M 31.996,0.484 C 14.613,0.484 0.484,14.613 0.484,31.996 v 199.996 c 0,17.383 14.129,31.524 31.512,31.524 h 416.008 c 17.383,0 31.512,-14.141 31.512,-31.524 V 31.996 c 0,-17.383 -14.129,-31.512 -31.512,-31.512 z M 448.004,264 H 31.996 C 14.32,264 0,249.672 0,231.992 V 31.996 C 0,14.328 14.32,0 31.996,0 H 448.004 C 465.672,0 480,14.328 480,31.996 V 231.992 C 480,249.672 465.672,264 448.004,264"
               style="fill:#000000;fill-opacity:1;fill-rule:nonzero;stroke:none"
               id="path4096"
               inkscape:connector-curvature="0" />
          </g>
        </g>
      </g>
    </g>
    <path
       d="M 12.849867,206.28704 H 150.43585 c 2.1924,0 3.96875,-1.77635 3.96875,-3.96875 v -66.14451 c 0,-2.19241 -1.77635,-3.96875 -3.96875,-3.96875 H 12.849867 c -2.192404,0 -3.9687502,1.77634 -3.9687502,3.96875 v 66.14451 c 0,2.1924 1.7763462,3.96875 3.9687502,3.96875 z m 0,3.96875 c -4.3848075,0 -7.9375003,-3.55269 -7.9375003,-7.9375 v -66.14451 c 0,-4.38481 3.5526928,-7.9375 7.9375003,-7.9375 H 150.43585 c 4.3848,0 7.9375,3.55269 7.9375,7.9375 v 66.14451 c 0,4.38481 -3.5527,7.9375 -7.9375,7.9375"
       style="fill:#000000;fill-opacity:1;fill-rule:nonzero;stroke:none;stroke-width:0.33072916"
       id="path4098"
       inkscape:connector-curvature="0" />
  </g>
</svg>
