<?xml version="1.0" encoding="UTF-8" standalone="no"?>
<!-- Created with Inkscape (http://www.inkscape.org/) -->

<svg
   xmlns:dc="http://purl.org/dc/elements/1.1/"
   xmlns:cc="http://creativecommons.org/ns#"
   xmlns:rdf="http://www.w3.org/1999/02/22-rdf-syntax-ns#"
   xmlns:svg="http://www.w3.org/2000/svg"
   xmlns="http://www.w3.org/2000/svg"
   xmlns:sodipodi="http://sodipodi.sourceforge.net/DTD/sodipodi-0.dtd"
   xmlns:inkscape="http://www.inkscape.org/namespaces/inkscape"
   width="158.75mm"
   height="119.06391mm"
   viewBox="0 0 158.75 119.06391"
   version="1.1"
   id="svg242"
   inkscape:version="0.92.4 (f8dce91, 2019-08-02)"
   sodipodi:docname="1004-32.svg">
  <defs
     id="defs236" />
  <sodipodi:namedview
     id="base"
     pagecolor="#ffffff"
     bordercolor="#666666"
     borderopacity="1.0"
     inkscape:pageopacity="0.0"
     inkscape:pageshadow="2"
     inkscape:zoom="0.7"
     inkscape:cx="278.71078"
     inkscape:cy="109.68202"
     inkscape:document-units="mm"
     inkscape:current-layer="layer1"
     showgrid="false"
     fit-margin-top="0"
     fit-margin-left="0"
     fit-margin-right="0"
     fit-margin-bottom="0"
     inkscape:window-width="1366"
     inkscape:window-height="740"
     inkscape:window-x="1920"
     inkscape:window-y="312"
     inkscape:window-maximized="1" />
  <metadata
     id="metadata239">
    <rdf:RDF>
      <cc:Work
         rdf:about="">
        <dc:format>image/svg+xml</dc:format>
        <dc:type
           rdf:resource="http://purl.org/dc/dcmitype/StillImage" />
        <dc:title></dc:title>
      </cc:Work>
    </rdf:RDF>
  </metadata>
  <g
     inkscape:label="Layer 1"
     inkscape:groupmode="layer"
     id="layer1"
     transform="translate(-30.994049,-16.729954)">
    <path
       d="m 41.575971,16.805802 c -5.789083,0 -10.501841,4.713111 -10.501841,10.506427 v 97.898301 c 0,5.79049 4.712758,10.50361 10.501841,10.50361 H 179.16212 c 5.79332,0 10.50608,-4.71312 10.50608,-10.50361 V 27.312229 c 0,-5.793316 -4.71276,-10.506427 -10.50608,-10.506427"
       style="fill:#ffffff;fill-opacity:1;fill-rule:nonzero;stroke:none;stroke-width:0.35277778"
       id="path5587"
       inkscape:connector-curvature="0" />
    <path
       d="m 41.575971,135.63829 c -5.749219,0 -10.424936,-4.67713 -10.424936,-10.42776 V 27.312229 c 0,-5.749219 4.675717,-10.426347 10.424936,-10.426347 H 179.16212 c 5.74922,0 10.42494,4.677128 10.42494,10.426347 v 97.898301 c 0,5.75063 -4.67572,10.42776 -10.42494,10.42776 z M 179.16212,16.729954 H 41.575971 c -5.842705,0 -10.581922,4.739217 -10.581922,10.582275 v 97.898301 c 0,5.84447 4.739217,10.58333 10.581922,10.58333 H 179.16212 c 5.84271,0 10.58193,-4.73886 10.58193,-10.58333 V 27.312229 c 0,-5.843058 -4.73922,-10.582275 -10.58193,-10.582275"
       style="fill:#000000;fill-opacity:1;fill-rule:nonzero;stroke:none;stroke-width:0.35277778"
       id="path5589"
       inkscape:connector-curvature="0" />
    <path
       d="m 41.575971,133.14944 c -4.382205,0 -7.934678,-3.5567 -7.934678,-7.93891 V 27.312229 c 0,-4.385028 3.552473,-7.938911 7.934678,-7.938911 H 179.16212 c 4.38221,0 7.93891,3.553883 7.93891,7.938911 v 97.898301 c 0,4.38221 -3.5567,7.93891 -7.93891,7.93891"
       style="fill:#000000;fill-opacity:1;fill-rule:nonzero;stroke:none;stroke-width:0.35277778"
       id="path5591"
       inkscape:connector-curvature="0" />
    <path
       d="m 41.575971,129.17787 c -2.188281,0 -3.967339,-1.77342 -3.967339,-3.96734 V 27.312229 c 0,-2.192514 1.779058,-3.967692 3.967339,-3.967692 H 179.16212 c 2.19252,0 3.97016,1.775178 3.97016,3.967692 v 97.898301 c 0,2.19392 -1.77764,3.96734 -3.97016,3.96734"
       style="fill:#ffffff;fill-opacity:1;fill-rule:nonzero;stroke:none;stroke-width:0.35277778"
       id="path5593"
       inkscape:connector-curvature="0" />
    <path
       d="m 50.461737,70.093236 3.811411,-4.335286 c 1.427692,1.14935 3.071637,2.071159 4.935009,2.7686 1.861608,0.695678 3.811411,1.044575 5.84835,1.044575 2.3495,0 4.194527,-0.487891 5.535436,-1.462264 1.339497,-0.975783 2.01048,-2.254602 2.01048,-3.83928 0,-2.992967 -1.653469,-4.707114 -4.960761,-5.142794 -0.871008,-0.104775 -1.679928,-0.20955 -2.428169,-0.313973 -0.748242,-0.103363 -1.61925,-0.22613 -2.611261,-0.365477 -3.289653,-0.451909 -5.796139,-1.657703 -7.520164,-3.615972 -1.722614,-1.957917 -2.585156,-4.321528 -2.585156,-7.088364 0,-3.2385 1.084439,-5.900914 3.250848,-7.990064 2.167819,-2.08915 5.218641,-3.133725 9.151408,-3.133725 2.350911,0 4.561416,0.375003 6.632575,1.123245 2.071158,0.748241 3.977216,1.697566 5.717469,2.845505 l -3.210631,4.752975 c -1.393472,-0.871008 -2.889955,-1.576564 -4.491213,-2.115256 -1.601259,-0.540102 -3.2385,-0.81033 -4.90855,-0.81033 -1.776236,0 -3.281186,0.453319 -4.51732,1.3589 -1.23578,0.905228 -1.853141,2.262717 -1.853141,4.072114 0,1.080205 0.417336,2.088797 1.252361,3.02895 0.836436,0.9398 2.22003,1.558219 4.152194,1.854552 0.504472,0.08678 1.113367,0.1778 1.827389,0.274461 0.713669,0.0949 1.532114,0.195439 2.454275,0.298803 3.551061,0.435681 6.174669,1.724025 7.872589,3.865386 1.696508,2.140303 2.545291,4.507795 2.545291,7.101064 0,3.49885 -1.210027,6.214886 -3.62973,8.14705 -2.418645,1.932164 -5.665258,2.898069 -9.738783,2.898069 -5.726995,0 -10.574867,-1.740605 -14.542206,-5.221464 z m 40.496419,4.90855 V 42.076332 H 80.539923 v -5.1181 h 26.605797 v 5.1181 H 96.727836 V 75.001786 Z M 109.93901,55.993062 c 0,-4.577645 0.12277,-7.528278 0.36654,-8.851194 0.24271,-1.322917 0.67804,-2.541059 1.30528,-3.655837 0.88723,-1.653469 2.34526,-3.21063 4.37373,-4.672894 2.02706,-1.461911 4.53778,-2.193925 7.53251,-2.193925 2.97639,0 5.479,0.732014 7.50606,2.193925 2.02847,1.462264 3.50308,3.019425 4.4263,4.672894 0.60889,1.114778 1.0347,2.33292 1.27882,3.655837 0.24377,1.322916 0.36512,4.273549 0.36512,8.851194 0,4.577997 -0.12135,7.528277 -0.36512,8.851194 -0.24412,1.322917 -0.66993,2.541058 -1.27882,3.655836 -0.92322,1.670403 -2.39783,3.224742 -4.4263,4.660547 -2.02706,1.436158 -4.52967,2.154061 -7.50606,2.154061 -2.99473,0 -5.50545,-0.717903 -7.53251,-2.154061 -2.02847,-1.435805 -3.4865,-2.990144 -4.37373,-4.660547 -0.62724,-1.114778 -1.06257,-2.332919 -1.30528,-3.655836 -0.24377,-1.322917 -0.36654,-4.273197 -0.36654,-8.851194 z m 5.77145,0 c 0,3.916539 0.13476,6.457597 0.40357,7.624938 0.27023,1.165578 0.77999,2.21862 1.52824,3.15842 0.57467,0.766233 1.35749,1.423458 2.3495,1.972028 0.99236,0.548216 2.16782,0.822677 3.5253,0.822677 1.35714,0 2.5326,-0.274461 3.52496,-0.822677 0.99201,-0.54857 1.77483,-1.205795 2.3495,-1.972028 0.74824,-0.9398 1.25801,-1.992842 1.52682,-3.15842 0.27023,-1.167341 0.40499,-3.708399 0.40499,-7.624938 0,-3.898195 -0.13476,-6.431139 -0.40499,-7.598481 -0.26881,-1.165577 -0.77858,-2.236611 -1.52682,-3.21063 -0.57467,-0.732014 -1.35749,-1.375481 -2.3495,-1.932164 -0.99236,-0.556683 -2.16782,-0.836436 -3.52496,-0.836436 -1.35748,0 -2.53294,0.279753 -3.5253,0.836436 -0.99201,0.556683 -1.77483,1.20015 -2.3495,1.932164 -0.74825,0.974019 -1.25801,2.045053 -1.52824,3.21063 -0.26881,1.167342 -0.40357,3.700286 -0.40357,7.598481 z M 149.5743,42.415351 v 12.272786 h 8.56439 c 2.14136,0 3.73873,-0.644878 4.79142,-1.931811 1.05304,-1.288697 1.57939,-2.689931 1.57939,-4.204406 0,-2.297289 -0.82691,-3.986741 -2.48038,-5.065889 -1.06116,-0.713669 -2.42817,-1.07068 -4.09998,-1.07068 z m -5.77003,32.586435 V 36.958232 h 13.8123 c 1.47991,0.0014 2.90195,0.157339 4.26897,0.471311 1.3656,0.312914 2.78941,1.043164 4.26931,2.192514 1.14794,0.887588 2.12337,2.111022 2.92418,3.668536 0.80045,1.558219 1.20015,3.363736 1.20015,5.418313 0,2.714625 -1.01283,5.299781 -3.0413,7.754056 -2.02847,2.454275 -4.9911,3.682294 -8.88964,3.682294 h -8.77394 v 14.85653 z"
       style="fill:#000000;fill-opacity:1;fill-rule:nonzero;stroke:none;stroke-width:0.35277778"
       id="path5595"
       inkscape:connector-curvature="0" />
  </g>
</svg>
