<?xml version="1.0" encoding="UTF-8" standalone="no"?>
<!-- Created with Inkscape (http://www.inkscape.org/) -->

<svg
   xmlns:dc="http://purl.org/dc/elements/1.1/"
   xmlns:cc="http://creativecommons.org/ns#"
   xmlns:rdf="http://www.w3.org/1999/02/22-rdf-syntax-ns#"
   xmlns:svg="http://www.w3.org/2000/svg"
   xmlns="http://www.w3.org/2000/svg"
   xmlns:sodipodi="http://sodipodi.sourceforge.net/DTD/sodipodi-0.dtd"
   xmlns:inkscape="http://www.inkscape.org/namespaces/inkscape"
   width="330.72916mm"
   height="132.29298mm"
   viewBox="0 0 330.72916 132.29298"
   version="1.1"
   id="svg181"
   inkscape:version="0.92.4 (f8dce91, 2019-08-02)"
   sodipodi:docname="1005-30.svg">
  <defs
     id="defs175" />
  <sodipodi:namedview
     id="base"
     pagecolor="#ffffff"
     bordercolor="#666666"
     borderopacity="1.0"
     inkscape:pageopacity="0.0"
     inkscape:pageshadow="2"
     inkscape:zoom="0.7"
     inkscape:cx="708.39446"
     inkscape:cy="163.64236"
     inkscape:document-units="mm"
     inkscape:current-layer="layer1"
     showgrid="false"
     fit-margin-top="0"
     fit-margin-left="0"
     fit-margin-right="0"
     fit-margin-bottom="0"
     inkscape:window-width="1366"
     inkscape:window-height="740"
     inkscape:window-x="1920"
     inkscape:window-y="312"
     inkscape:window-maximized="1" />
  <metadata
     id="metadata178">
    <rdf:RDF>
      <cc:Work
         rdf:about="">
        <dc:format>image/svg+xml</dc:format>
        <dc:type
           rdf:resource="http://purl.org/dc/dcmitype/StillImage" />
        <dc:title></dc:title>
      </cc:Work>
    </rdf:RDF>
  </metadata>
  <g
     inkscape:label="Layer 1"
     inkscape:groupmode="layer"
     id="layer1"
     transform="translate(72.382442,-66.81184)">
    <path
       d="m -56.508765,66.975881 c -8.660805,0 -15.709635,7.048501 -15.709635,15.714928 V 183.23115 c 0,8.66081 7.04883,15.70964 15.709635,15.70964 H 242.47437 c 8.65949,0 15.70832,-7.04883 15.70832,-15.70964 V 82.690809 c 0,-8.666427 -7.04883,-15.714928 -15.70832,-15.714928"
       style="fill:#ffffff;fill-opacity:1;fill-rule:nonzero;stroke:none;stroke-width:0.33072916"
       id="path7093"
       inkscape:connector-curvature="0" />
    <path
       d="m -56.508765,66.81184 c -8.766969,0 -15.873677,7.110677 -15.873677,15.878969 V 183.23115 c 0,8.76796 7.106708,15.87368 15.873677,15.87368 H 242.47437 c 8.76697,0 15.87236,-7.10572 15.87236,-15.87368 V 82.690809 c 0,-8.768292 -7.10539,-15.878969 -15.87236,-15.878969 z m 0,0.164041 H 242.47437 c 8.65949,0 15.70832,7.048501 15.70832,15.714928 V 183.23115 c 0,8.66081 -7.04883,15.70964 -15.70832,15.70964 H -56.508765 c -8.659812,0 -15.709635,-7.04883 -15.709635,-15.70964 V 82.690809 c 0,-8.666427 7.049823,-15.714928 15.709635,-15.714928 z"
       style="fill:#000000;fill-opacity:1;fill-rule:nonzero;stroke:none;stroke-width:0.33072916"
       id="path7095"
       inkscape:connector-curvature="0" />
    <path
       d="m -56.508765,70.78059 c -6.574565,0 -11.904927,5.330362 -11.904927,11.910219 V 183.23115 c 0,6.57457 5.330362,11.90493 11.904927,11.90493 H 242.47437 c 6.57325,0 11.90361,-5.33036 11.90361,-11.90493 V 82.690809 c 0,-6.579857 -5.33036,-11.910219 -11.90361,-11.910219 z m 0,5.290344 H 242.47437 c 3.65092,0 6.61326,2.962341 6.61326,6.619875 V 183.23115 c 0,3.65225 -2.96234,6.61459 -6.61326,6.61459 H -56.508765 c -3.652242,0 -6.614583,-2.96234 -6.614583,-6.61459 V 82.690809 c 0,-3.657534 2.962341,-6.619875 6.614583,-6.619875 z"
       style="fill:#000000;fill-opacity:1;fill-rule:nonzero;stroke:none;stroke-width:0.33072916"
       id="path7097"
       inkscape:connector-curvature="0" />
    <path
       d="m 215.44222,121.10169 2.9845,-3.00235 c 2.47022,2.45996 6.14429,3.24544 9.39999,2.02439 1.0967,-0.41341 1.651,-1.62785 1.24387,-2.72455 -0.29832,-0.78019 -1.02294,-1.31762 -1.85374,-1.36823 l -4.49328,-0.28277 c -3.50507,-0.22093 -6.16248,-3.23387 -5.94155,-6.73232 0.17198,-2.78143 2.14213,-5.12763 4.8551,-5.77718 3.94031,-0.94985 8.10022,-0.0235 11.27191,2.50362 l -2.63954,3.31225 c -2.15338,-1.71813 -4.97516,-2.34454 -7.64812,-1.70127 -1.13043,0.2712 -1.83687,1.41321 -1.56038,2.55026 0.21696,0.90421 0.99484,1.55938 1.9222,1.62255 l 4.4999,0.27649 c 3.49846,0.22093 6.16116,3.23883 5.94023,6.73861 -0.15379,2.49866 -1.76345,4.6689 -4.10964,5.545 -4.8098,1.80347 -10.22549,0.63798 -13.87145,-2.9845 z m -21.69484,0 2.98946,-3.00235 c 2.46493,2.45996 6.139,3.24544 9.3947,2.02439 1.09703,-0.41341 1.651,-1.62785 1.23891,-2.72455 -0.28939,-0.78019 -1.01799,-1.31762 -1.84878,-1.36823 l -4.49957,-0.28277 c -3.49977,-0.22093 -6.15586,-3.23387 -5.94155,-6.73232 0.17694,-2.78143 2.14842,-5.12763 4.85643,-5.77718 3.94527,-0.94985 8.10518,-0.0235 11.27059,2.50362 l -2.63955,3.31225 c -2.14842,-1.71813 -4.96855,-2.34454 -7.64282,-1.70127 -1.13573,0.2712 -1.8372,1.41321 -1.55939,2.55026 0.212,0.90421 0.99483,1.55938 1.92121,1.62255 l 4.49957,0.27649 c 3.49977,0.22093 6.16247,3.23883 5.94155,6.73861 -0.15908,2.49866 -1.76345,4.6689 -4.10964,5.545 -4.81112,1.80347 -10.23177,0.63798 -13.87112,-2.9845 z m -5.29166,3.3913 h -4.23367 v -2.39117 c -2.48179,3.0695 -6.9764,3.55005 -10.0459,1.06825 -1.67812,-1.35632 -2.65112,-3.39758 -2.65112,-5.55658 v -14.28452 h 4.23499 v 12.96161 c 0,2.3409 1.89276,4.23366 4.22705,4.23366 2.3409,0 4.23498,-1.89276 4.23498,-4.23366 v -12.96161 h 4.23367 z m -21.16402,0 h -2.64584 c -2.63426,0 -4.76614,-2.13155 -4.76614,-4.76581 V 94.860319 h 4.23499 v 24.342331 c 0,0.72859 0.593,1.32159 1.32292,1.32159 h 1.85407 z m -30.16383,0 V 94.860319 h 4.23367 v 10.853541 c 2.48179,-3.06818 6.9764,-3.54376 10.0459,-1.06197 1.67812,1.35665 2.65641,3.39758 2.65641,5.55658 v 14.28452 h -4.23895 v -12.96161 c 0,-2.3409 -1.89376,-4.23366 -4.22838,-4.23366 -2.3409,0 -4.23498,1.89276 -4.23498,4.23366 v 12.96161 z m -4.23333,-3.17665 c -3.36418,4.04746 -9.36658,4.60672 -13.41405,1.24387 -2.17685,-1.80975 -3.43759,-4.49428 -3.43759,-7.32631 v -2.64584 c 0,-5.26322 4.26177,-9.52533 9.525,-9.52533 2.83203,0 5.51656,1.26107 7.32664,3.43793 l -3.25702,2.70768 c -1.87061,-2.25028 -5.20502,-2.56183 -7.45034,-0.6899 -1.20947,1.00013 -1.91095,2.49238 -1.91095,4.06962 v 2.64584 c 0,2.92232 2.36934,5.29034 5.29167,5.29034 1.57096,0 3.06321,-0.70015 4.06962,-1.91062 z m -39.077967,-0.21465 2.9845,-3.00235 c 2.470216,2.45996 6.138997,3.24544 9.399987,2.02439 1.0967,-0.41341 1.651,-1.62785 1.23891,-2.72455 -0.29468,-0.78019 -1.01799,-1.31762 -1.84878,-1.36823 l -4.49957,-0.28277 c -3.498782,-0.22093 -6.161151,-3.23387 -5.941547,-6.73232 0.17694,-2.78143 2.141802,-5.12763 4.856097,-5.77718 3.9456,-0.94985 8.10022,-0.0235 11.27191,2.50362 l -2.64054,3.31225 c -2.14709,-1.71813 -4.96888,-2.34454 -7.64183,-1.70127 -1.136715,0.2712 -1.838192,1.41321 -1.566994,2.55026 0.22225,0.90421 1.001444,1.55938 1.928814,1.62255 l 4.4999,0.27649 c 3.49845,0.22093 6.15454,3.23883 5.94023,6.73861 -0.15776,2.49866 -1.76874,4.6689 -4.10964,5.545 -4.8098,1.80347 -10.230781,0.63798 -13.871447,-2.9845 z m -15.873678,3.3913 v -21.16402 h 4.233665 v 2.38489 c 2.4765,-3.06818 6.976401,-3.54376 10.045898,-1.06197 v 0.005 l -3.007651,3.7078 c -1.746581,-1.55442 -4.420857,-1.39534 -5.974953,0.35124 -0.689901,0.7739 -1.068586,1.77502 -1.068586,2.81516 V 124.4927 H 77.937935 Z M 58.893887,111.79101 h 8.992857 c 0,-2.48179 -2.012817,-4.49329 -4.49957,-4.49329 -2.481792,0 -4.493287,2.0115 -4.493287,4.49329 z m 13.226521,3.70912 H 58.893887 v 0.52454 c 0,1.83687 1.118527,3.49449 2.82542,4.17777 2.352476,0.94456 5.042297,0.28311 6.693297,-1.64438 l 3.210388,2.75828 c -2.82542,3.29571 -7.444052,4.43111 -11.474649,2.81483 -3.318867,-1.32291 -5.489443,-4.5333 -5.489443,-8.1065 v -4.23366 c 0,-4.82137 3.906904,-8.72828 8.728274,-8.72828 4.82137,0 8.733234,3.90691 8.733234,8.72828 z m -32.01756,8.99286 -7.66994,-21.16402 h 4.498247 l 5.025761,14.81568 5.02543,-14.81568 h 4.499901 l -7.670271,21.16402 z m -28.835284,0 V 101.209 c 0,-2.736457 1.747904,-5.161363 4.342143,-6.025558 2.674276,-0.893961 5.573118,-0.893961 8.247394,0 2.594239,0.864195 4.34082,3.289101 4.34082,6.025558 v 0.79176 c 0,1.89938 -1.192279,3.59536 -2.979208,4.23367 1.786929,0.64459 2.979208,2.33957 2.979208,4.23366 v 8.20241 c 0,3.21668 -2.605815,5.82249 -5.821164,5.82249 h -2.645833 v -3.96875 h 2.118651 c 1.17045,0 2.114682,-0.94952 2.114682,-2.11336 v -7.94279 c 0,-1.16913 -0.944232,-2.11369 -2.114682,-2.11369 h -2.644511 v -3.96875 h 2.644511 c 1.17045,0 2.114682,-0.94952 2.114682,-2.11997 V 101.209 c 0,-0.90951 -0.582414,-1.718472 -1.44694,-2.006537 -1.808427,-0.604573 -3.759399,-0.604573 -5.568157,0 -0.865518,0.288065 -1.453224,1.097027 -1.453224,2.006537 v 23.28399 z M 4.913926,99.089022 H 0.68026186 V 94.860319 H 4.913926 Z m 0,25.403968 H 0.68026186 V 103.32897 H 4.913926 Z m -23.283003,-12.70198 h 8.9994716 c 0,-2.48179 -2.0128176,-4.49329 -4.4995706,-4.49329 -2.481791,0 -4.499901,2.0115 -4.499901,4.49329 z m 13.2331357,3.70912 H -18.369077 v 0.52454 c 0,1.83687 1.124149,3.49449 2.832034,4.17777 2.351154,0.94456 5.042297,0.28311 6.691974,-1.64438 l 3.211711,2.75828 c -2.8317031,3.29571 -7.445375,4.43111 -11.475971,2.81483 -3.317545,-1.32291 -5.48812,-4.5333 -5.48812,-8.1065 v -4.23366 c 0,-4.82137 3.90558,-8.72828 8.728273,-8.72828 4.8213701,0 8.7332347,3.90691 8.7332347,8.72828 z m -37.8347557,-7.67655 h 7.405026 c 2.488406,0 4.499901,-2.01282 4.499901,-4.49461 0,-2.48708 -2.011495,-4.499901 -4.499901,-4.499901 h -7.405026 z m -4.499901,16.66941 V 94.860319 h 12.171164 c 4.675518,0 8.467328,3.788172 8.467328,8.468651 0,3.62909 -2.311466,6.85106 -5.754356,8.01489 l 6.812359,13.14913 h -5.291667 l -6.087401,-12.70198 h -5.817526 v 12.70198"
       style="fill:#000000;fill-opacity:1;fill-rule:nonzero;stroke:none;stroke-width:0.33072916"
       id="path7099"
       inkscape:connector-curvature="0" />
    <path
       d="m 74.726224,171.06131 v -21.17063 h 4.234656 v 2.3915 c 2.480469,-3.06983 6.975078,-3.54376 10.044906,-1.06859 1.679443,1.35665 2.656086,3.39791 2.656086,5.55658 v 14.29114 h -4.233664 v -12.96822 c 0,-2.33462 -1.899047,-4.23366 -4.233664,-4.23366 -2.340901,0 -4.233664,1.89904 -4.233664,4.23366 v 12.96822 z m -6.347355,-25.4043 h -4.234656 v -4.22837 h 4.234656 z m 0,25.4043 h -4.234656 v -21.17063 h 4.234656 z m -25.403969,0 h -2.645833 c -2.627643,0 -4.759524,-2.13155 -4.759524,-4.76581 v -12.96193 h -2.119974 v -3.44289 h 2.119974 v -6.34703 h 4.233665 v 6.34703 H 42.9749 v 3.44289 h -3.171692 v 12.43608 c 0,0.72991 0.587705,1.32291 1.322916,1.32291 H 42.9749 Z m -31.220503,-3.39262 2.9845,-3.00103 c 2.470217,2.45831 6.144287,3.24511 9.401308,2.02307 1.096698,-0.41209 1.649677,-1.62785 1.237588,-2.72455 -0.294679,-0.7792 -1.017984,-1.31663 -1.848776,-1.3669 l -4.49957,-0.28311 c -3.498784,-0.22093 -6.156193,-3.23354 -5.94155,-6.73331 0.176941,-2.78673 2.148417,-5.12631 4.856097,-5.77619 3.945599,-0.94952 8.106833,-0.0231 11.271911,2.50395 l -2.640541,3.30729 c -2.147094,-1.71317 -4.967552,-2.34123 -7.641829,-1.69631 -1.136716,0.2712 -1.836869,1.41321 -1.565671,2.54893 0.220927,0.90554 1.000125,1.56038 1.927489,1.62256 l 4.499901,0.27781 c 3.498453,0.21961 6.161154,3.23222 5.94155,6.732 -0.159081,2.49865 -1.764771,4.67419 -4.110964,5.55128 -4.809794,1.80248 -10.230776,0.63831 -13.871443,-2.98549 z m -15.8736769,3.39262 v -21.17063 h 4.23498707 v 2.3915 C 2.5908843,149.21235 7.0907854,148.73842 10.160283,151.21359 v 0.005 l -3.0126122,3.71409 c -1.7465808,-1.55409 -4.4208568,-1.40163 -5.9752839,0.35025 -0.68990108,0.77522 -1.06825525,1.77502 -1.06825525,2.80987 v 12.96822 H -4.1295325 Z M -23.168288,158.35933 h 8.992857 c 0,-2.48179 -2.011495,-4.4999 -4.493287,-4.4999 -2.488075,0 -4.49957,2.01811 -4.49957,4.4999 z m 13.2265211,3.70251 H -23.168288 v 0.53082 c 0,1.8372 1.118857,3.49349 2.825419,4.1781 2.352477,0.93795 5.042297,0.27649 6.693297,-1.64571 l 3.210388,2.75928 c -2.825419,3.29571 -7.444052,4.43144 -11.474648,2.81516 -3.317875,-1.32291 -5.48812,-4.5333 -5.48812,-8.10683 v -4.23333 c 0,-4.8217 3.910542,-8.72828 8.733234,-8.72828 4.816409,0 8.7269511,3.90658 8.7269511,8.72828"
       style="fill:#000000;fill-opacity:1;fill-rule:nonzero;stroke:none;stroke-width:0.33072916"
       id="path7101"
       inkscape:connector-curvature="0"
       sodipodi:nodetypes="cccccsccssscccccccccccccssccccccccccsscccccccccccccccccccccccccccscccccscccsccccsssc" />
  </g>
</svg>
