<?xml version="1.0" encoding="UTF-8" standalone="no"?>
<svg
   xmlns:dc="http://purl.org/dc/elements/1.1/"
   xmlns:cc="http://creativecommons.org/ns#"
   xmlns:rdf="http://www.w3.org/1999/02/22-rdf-syntax-ns#"
   xmlns:svg="http://www.w3.org/2000/svg"
   xmlns="http://www.w3.org/2000/svg"
   viewBox="0 0 600 330"
   height="330"
   width="600"
   xml:space="preserve"
   version="1.1"
   id="svg34995"><metadata
     id="metadata35001"><rdf:RDF><cc:Work
         rdf:about=""><dc:format>image/svg+xml</dc:format><dc:type
           rdf:resource="http://purl.org/dc/dcmitype/StillImage" /><dc:title></dc:title></cc:Work></rdf:RDF></metadata><defs
     id="defs34999"><clipPath
       id="clipPath35013"
       clipPathUnits="userSpaceOnUse"><path
         id="path35015"
         d="M 0,0 480,0 480,264 0,264 0,0 Z" /></clipPath><clipPath
       id="clipPath35031"
       clipPathUnits="userSpaceOnUse"><path
         id="path35033"
         d="M 0,0 480,0 480,264 0,264 0,0 Z" /></clipPath><clipPath
       id="clipPath35043"
       clipPathUnits="userSpaceOnUse"><path
         id="path35045"
         d="M 0,0 480,0 480,264 0,264 0,0 Z" /></clipPath><clipPath
       id="clipPath35053"
       clipPathUnits="userSpaceOnUse"><path
         id="path35055"
         d="m 0,264 479.996,0 0,-264 L 0,0 0,264 Z" /></clipPath><clipPath
       id="clipPath35063"
       clipPathUnits="userSpaceOnUse"><path
         id="path35065"
         d="m 224,40 145,0 0,110 -145,0 0,-110 z" /></clipPath><clipPath
       id="clipPath35077"
       clipPathUnits="userSpaceOnUse"><path
         id="path35079"
         d="M 0,0 480,0 480,264 0,264 0,0 Z" /></clipPath><clipPath
       id="clipPath35089"
       clipPathUnits="userSpaceOnUse"><path
         id="path35091"
         d="M 0,0 480,0 480,264 0,264 0,0 Z" /></clipPath><clipPath
       id="clipPath35099"
       clipPathUnits="userSpaceOnUse"><path
         id="path35101"
         d="m 0,264 479.996,0 0,-264 L 0,0 0,264 Z" /></clipPath><clipPath
       id="clipPath35109"
       clipPathUnits="userSpaceOnUse"><path
         id="path35111"
         d="m 241,111 112,0 0,30 -112,0 0,-30 z" /></clipPath><clipPath
       id="clipPath35123"
       clipPathUnits="userSpaceOnUse"><path
         id="path35125"
         d="M 0,0 480,0 480,264 0,264 0,0 Z" /></clipPath><clipPath
       id="clipPath35135"
       clipPathUnits="userSpaceOnUse"><path
         id="path35137"
         d="M 0,0 480,0 480,264 0,264 0,0 Z" /></clipPath><clipPath
       id="clipPath35145"
       clipPathUnits="userSpaceOnUse"><path
         id="path35147"
         d="m 0,264 479.996,0 0,-264 L 0,0 0,264 Z" /></clipPath><clipPath
       id="clipPath35155"
       clipPathUnits="userSpaceOnUse"><path
         id="path35157"
         d="m 164,95 121,0 0,94 -121,0 0,-94 z" /></clipPath><clipPath
       id="clipPath35169"
       clipPathUnits="userSpaceOnUse"><path
         id="path35171"
         d="M 0,0 480,0 480,264 0,264 0,0 Z" /></clipPath><clipPath
       id="clipPath35181"
       clipPathUnits="userSpaceOnUse"><path
         id="path35183"
         d="M 0,0 480,0 480,264 0,264 0,0 Z" /></clipPath><clipPath
       id="clipPath35191"
       clipPathUnits="userSpaceOnUse"><path
         id="path35193"
         d="m 0,264 479.996,0 0,-264 L 0,0 0,264 Z" /></clipPath><clipPath
       id="clipPath35201"
       clipPathUnits="userSpaceOnUse"><path
         id="path35203"
         d="m 178,156 96,0 0,26 -96,0 0,-26 z" /></clipPath><clipPath
       id="clipPath35215"
       clipPathUnits="userSpaceOnUse"><path
         id="path35217"
         d="M 0,0 480,0 480,264 0,264 0,0 Z" /></clipPath><clipPath
       id="clipPath35227"
       clipPathUnits="userSpaceOnUse"><path
         id="path35229"
         d="M 0,0 480,0 480,264 0,264 0,0 Z" /></clipPath><clipPath
       id="clipPath35237"
       clipPathUnits="userSpaceOnUse"><path
         id="path35239"
         d="m 0,264 479.996,0 0,-264 L 0,0 0,264 Z" /></clipPath><clipPath
       id="clipPath35247"
       clipPathUnits="userSpaceOnUse"><path
         id="path35249"
         d="m 111,145 103,0 0,79 -103,0 0,-79 z" /></clipPath><clipPath
       id="clipPath35261"
       clipPathUnits="userSpaceOnUse"><path
         id="path35263"
         d="M 0,0 480,0 480,264 0,264 0,0 Z" /></clipPath><clipPath
       id="clipPath35273"
       clipPathUnits="userSpaceOnUse"><path
         id="path35275"
         d="M 0,0 480,0 480,264 0,264 0,0 Z" /></clipPath><clipPath
       id="clipPath35283"
       clipPathUnits="userSpaceOnUse"><path
         id="path35285"
         d="m 0,264 479.996,0 0,-264 L 0,0 0,264 Z" /></clipPath><clipPath
       id="clipPath35293"
       clipPathUnits="userSpaceOnUse"><path
         id="path35295"
         d="m 123,196 81,0 0,22 -81,0 0,-22 z" /></clipPath></defs><g
     transform="matrix(1.25,0,0,-1.25,0,330)"
     id="g35003"><g
       id="g35005"><g
         id="g35007"><g
           id="g35009"><g
             clip-path="url(#clipPath35013)"
             id="g35011"><g
               id="g35017"><path
                 id="path35019"
                 style="fill:#ffffff;fill-opacity:1;fill-rule:nonzero;stroke:none"
                 d="m 31.996,263.77 c -17.512,0 -31.754,-14.254 -31.754,-31.766 l 0,-199.996 C 0.242,14.492 14.484,0.25 31.996,0.25 l 416.008,0 c 17.512,0 31.754,14.242 31.754,31.758 l 0,199.996 c 0,17.512 -14.242,31.766 -31.754,31.766" /><path
                 id="path35021"
                 style="fill:#000000;fill-opacity:1;fill-rule:nonzero;stroke:none"
                 d="M 31.996,0.48 C 14.613,0.48 0.48,14.625 0.48,32.008 l 0,199.996 c 0,17.383 14.133,31.527 31.516,31.527 l 416.008,0 c 17.383,0 31.516,-14.144 31.516,-31.527 l 0,-199.996 C 479.52,14.625 465.387,0.48 448.004,0.48 l -416.008,0 z m 416.008,263.532 -416.008,0 C 14.32,264.012 0,249.68 0,232.004 L 0,32.008 C 0,14.34 14.32,0 31.996,0 L 448.004,0 C 465.672,0 480,14.34 480,32.008 l 0,199.996 c 0,17.676 -14.328,32.008 -31.996,32.008" /></g></g></g></g><path
         id="path35023"
         style="fill:#000000;fill-opacity:1;fill-rule:nonzero;stroke:none"
         d="m 31.996,20.008 416.008,0 c 6.629,0 12,5.371 12,12 l 0,199.996 c 0,6.629 -5.371,12 -12,12 l -416.008,0 c -6.629,0 -12,-5.371 -12,-12 l 0,-199.996 c 0,-6.629 5.371,-12 12,-12 z m 0,-12 c -13.258,0 -24,10.742 -24,24 l 0,199.996 c 0,13.258 10.742,24 24,24 l 416.008,0 c 13.258,0 24,-10.742 24,-24 l 0,-199.996 c 0,-13.258 -10.742,-24 -24,-24" /><g
         id="g35025"><g
           id="g35027"><g
             clip-path="url(#clipPath35031)"
             id="g35029"><g
               id="g35035"><g
                 id="g35037"><g
                   id="g35039"><g
                     clip-path="url(#clipPath35043)"
                     id="g35041"><g
                       id="g35047" /><g
                       id="g35049"><g
                         clip-path="url(#clipPath35053)"
                         id="g35051"><g
                           id="g35057"><g
                             id="g35059"><g
                               clip-path="url(#clipPath35063)"
                               id="g35061"><g
                                 id="g35067"><path
                                   id="path35069"
                                   style="fill:#231f20;fill-opacity:1;fill-rule:nonzero;stroke:none"
                                   d="m 339.484,63.926 20.5,0 0,-18.793 c 0,-2.832 -2.285,-5.129 -5.121,-5.129 l -10.25,0 c -2.843,0 -5.129,2.297 -5.129,5.129 l 0,18.793 z m -105.964,0 20.507,0 0,-18.793 c 0,-2.832 -2.297,-5.129 -5.129,-5.129 l -10.25,0 c -2.832,0 -5.128,2.297 -5.128,5.129 l 0,18.793 z m -8.543,34.183 c 0,2.223 0.711,4.379 2.043,6.149 l 2.058,2.734 c 1.434,1.914 2.637,3.992 3.586,6.184 l 13.524,31.066 c 1.367,3.129 4.441,5.141 7.839,5.141 l 85.457,0 c 3.391,0 6.477,-2.012 7.832,-5.141 l 13.52,-31.066 c 0.953,-2.192 2.168,-4.27 3.602,-6.184 l 2.054,-2.734 c 1.324,-1.77 2.047,-3.926 2.047,-6.149 l 0,-22.214 c 0,-4.715 -3.828,-8.555 -8.555,-8.555 l -126.464,0 c -4.727,0 -8.543,3.84 -8.543,8.555" /></g></g></g></g></g></g></g></g></g></g></g></g></g><g
         id="g35071"><g
           id="g35073"><g
             clip-path="url(#clipPath35077)"
             id="g35075"><g
               id="g35081"><g
                 id="g35083"><g
                   id="g35085"><g
                     clip-path="url(#clipPath35089)"
                     id="g35087"><g
                       id="g35093" /><g
                       id="g35095"><g
                         clip-path="url(#clipPath35099)"
                         id="g35097"><g
                           id="g35103"><g
                             id="g35105"><g
                               clip-path="url(#clipPath35109)"
                               id="g35107"><g
                                 id="g35113"><path
                                   id="path35115"
                                   style="fill:#ffffff;fill-opacity:1;fill-rule:nonzero;stroke:none"
                                   d="m 241.207,111.785 11.75,26.996 c 0.547,1.246 1.773,2.059 3.141,2.059 l 81.32,0 c 1.355,0 2.582,-0.813 3.129,-2.059 l 11.746,-26.996" /></g></g></g></g></g></g></g></g></g></g></g></g></g><g
         id="g35117"><g
           id="g35119"><g
             clip-path="url(#clipPath35123)"
             id="g35121"><g
               id="g35127"><g
                 id="g35129"><g
                   id="g35131"><g
                     clip-path="url(#clipPath35135)"
                     id="g35133"><g
                       id="g35139" /><g
                       id="g35141"><g
                         clip-path="url(#clipPath35145)"
                         id="g35143"><g
                           id="g35149"><g
                             id="g35151"><g
                               clip-path="url(#clipPath35155)"
                               id="g35153"><g
                                 id="g35159"><path
                                   id="path35161"
                                   style="fill:#231f20;fill-opacity:1;fill-rule:nonzero;stroke:none"
                                   d="m 172.164,116.039 17.481,0 0,-16.023 c 0,-2.407 -1.961,-4.368 -4.379,-4.368 l -8.739,0 c -2.406,0 -4.363,1.961 -4.363,4.368 l 0,16.023 z m -7.289,29.141 c 0,1.894 0.613,3.73 1.754,5.242 l 1.738,2.328 c 1.223,1.641 2.262,3.402 3.074,5.273 l 11.516,26.485 c 1.16,2.656 3.785,4.375 6.688,4.375 l 72.839,0 c 2.911,0 5.524,-1.719 6.684,-4.375 l 11.531,-26.485 c 0.809,-1.871 1.836,-3.632 3.063,-5.273 l 0.863,-1.148 -30.598,0 c -4.285,0 -8.168,-2.536 -9.875,-6.465 l -11.398,-26.176 -60.59,0 c -4.027,0 -7.289,3.258 -7.289,7.273" /></g></g></g></g></g></g></g></g></g></g></g></g></g><g
         id="g35163"><g
           id="g35165"><g
             clip-path="url(#clipPath35169)"
             id="g35167"><g
               id="g35173"><g
                 id="g35175"><g
                   id="g35177"><g
                     clip-path="url(#clipPath35181)"
                     id="g35179"><g
                       id="g35185" /><g
                       id="g35187"><g
                         clip-path="url(#clipPath35191)"
                         id="g35189"><g
                           id="g35195"><g
                             id="g35197"><g
                               clip-path="url(#clipPath35201)"
                               id="g35199"><g
                                 id="g35205"><path
                                   id="path35207"
                                   style="fill:#ffffff;fill-opacity:1;fill-rule:nonzero;stroke:none"
                                   d="m 178.715,156.832 10.019,23.016 c 0.461,1.07 1.512,1.761 2.668,1.761 l 69.321,0 c 1.16,0 2.211,-0.691 2.672,-1.761 l 10.031,-23.016" /></g></g></g></g></g></g></g></g></g></g></g></g></g><g
         id="g35209"><g
           id="g35211"><g
             clip-path="url(#clipPath35215)"
             id="g35213"><g
               id="g35219"><g
                 id="g35221"><g
                   id="g35223"><g
                     clip-path="url(#clipPath35227)"
                     id="g35225"><g
                       id="g35231" /><g
                       id="g35233"><g
                         clip-path="url(#clipPath35237)"
                         id="g35235"><g
                           id="g35241"><g
                             id="g35243"><g
                               clip-path="url(#clipPath35247)"
                               id="g35245"><g
                                 id="g35251"><path
                                   id="path35253"
                                   style="fill:#231f20;fill-opacity:1;fill-rule:nonzero;stroke:none"
                                   d="m 117.621,162.367 14.789,0 0,-13.566 c 0,-2.035 -1.652,-3.696 -3.699,-3.696 l -7.395,0 c -2.043,0 -3.695,1.661 -3.695,3.696 l 0,13.566 z m -6.16,24.656 c 0,1.598 0.516,3.149 1.477,4.442 l 1.476,1.969 c 1.039,1.378 1.906,2.875 2.594,4.453 l 9.758,22.414 c 0.972,2.242 3.195,3.695 5.644,3.695 l 61.641,0 c 2.449,0 4.672,-1.453 5.656,-3.695 l 9.746,-22.414 c 0.688,-1.578 1.563,-3.075 2.594,-4.453 l 1.476,-1.969 c 0.086,-0.121 0.176,-0.231 0.25,-0.352 l -24.128,0 c -3.786,0 -7.211,-2.242 -8.719,-5.711 l -8.949,-20.574 -54.356,0 c -3.402,0 -6.16,2.758 -6.16,6.168" /></g></g></g></g></g></g></g></g></g></g></g></g></g><g
         id="g35255"><g
           id="g35257"><g
             clip-path="url(#clipPath35261)"
             id="g35259"><g
               id="g35265"><g
                 id="g35267"><g
                   id="g35269"><g
                     clip-path="url(#clipPath35273)"
                     id="g35271"><g
                       id="g35277" /><g
                       id="g35279"><g
                         clip-path="url(#clipPath35283)"
                         id="g35281"><g
                           id="g35287"><g
                             id="g35289"><g
                               clip-path="url(#clipPath35293)"
                               id="g35291"><g
                                 id="g35297"><path
                                   id="path35299"
                                   style="fill:#ffffff;fill-opacity:1;fill-rule:nonzero;stroke:none"
                                   d="m 123.168,196.879 8.477,19.48 c 0.394,0.899 1.281,1.477 2.253,1.477 l 58.664,0 c 0.985,0 1.872,-0.578 2.254,-1.477 l 8.477,-19.48" /></g></g></g></g></g></g></g></g></g></g></g></g></g></g></g></svg>