<?xml version="1.0" encoding="UTF-8" standalone="no"?>
<svg
   xmlns:dc="http://purl.org/dc/elements/1.1/"
   xmlns:cc="http://creativecommons.org/ns#"
   xmlns:rdf="http://www.w3.org/1999/02/22-rdf-syntax-ns#"
   xmlns:svg="http://www.w3.org/2000/svg"
   xmlns="http://www.w3.org/2000/svg"
   viewBox="0 0 600 330"
   height="330"
   width="600"
   xml:space="preserve"
   id="svg5810"
   version="1.1"><metadata
     id="metadata5816"><rdf:RDF><cc:Work
         rdf:about=""><dc:format>image/svg+xml</dc:format><dc:type
           rdf:resource="http://purl.org/dc/dcmitype/StillImage" /><dc:title></dc:title></cc:Work></rdf:RDF></metadata><defs
     id="defs5814"><clipPath
       id="clipPath5832"
       clipPathUnits="userSpaceOnUse"><path
         id="path5830"
         d="M 0,0 H 450 V 248 H 0 Z" /></clipPath></defs><g
     transform="matrix(1.3333333,0,0,-1.3333333,0,330)"
     id="g5818"><g
       id="g5820" /><g
       id="g5822"><g
         transform="translate(0,-0.5)"
         id="g5824"><g
           id="g5826"><g
             clip-path="url(#clipPath5832)"
             id="g5828"><g
               id="g5834"><path
                 id="path5836"
                 style="fill:#ffffff;fill-opacity:1;fill-rule:nonzero;stroke:none"
                 d="m 29.996,247.785 c -16.418,0 -29.769,-13.363 -29.769,-29.781 V 30.508 C 0.227,14.086 13.578,0.734 29.996,0.734 h 390.008 c 16.418,0 29.769,13.352 29.769,29.774 v 187.496 c 0,16.418 -13.351,29.781 -29.769,29.781" /><path
                 id="path5838"
                 style="fill:#000000;fill-opacity:1;fill-rule:nonzero;stroke:none"
                 d="M 29.996,0.949 C 13.699,0.949 0.449,14.211 0.449,30.508 v 187.496 c 0,16.297 13.25,29.555 29.547,29.555 h 390.008 c 16.297,0 29.547,-13.258 29.547,-29.555 V 30.508 c 0,-16.297 -13.25,-29.559 -29.547,-29.559 z M 420.004,248.012 H 29.996 C 13.426,248.012 0,234.574 0,218.004 V 30.508 C 0,13.945 13.426,0.5 29.996,0.5 H 420.004 C 436.566,0.5 450,13.945 450,30.508 v 187.496 c 0,16.57 -13.434,30.008 -29.996,30.008" /></g></g></g></g><path
         id="path5840"
         style="fill:#000000;fill-opacity:1;fill-rule:nonzero;stroke:none"
         d="m 29.996,18.758 h 390.008 c 6.215,0 11.25,5.035 11.25,11.25 v 187.496 c 0,6.215 -5.035,11.25 -11.25,11.25 H 29.996 c -6.215,0 -11.25,-5.035 -11.25,-11.25 V 30.008 c 0,-6.215 5.035,-11.25 11.25,-11.25 z m 0,-11.25 c -12.43,0 -22.5,10.07 -22.5,22.5 v 187.496 c 0,12.43 10.07,22.5 22.5,22.5 h 390.008 c 12.43,0 22.5,-10.07 22.5,-22.5 V 30.008 c 0,-12.43 -10.07,-22.5 -22.5,-22.5" /><path
         id="path5842"
         style="fill:#000000;fill-opacity:1;fill-rule:nonzero;stroke:none"
         d="m 211.73,118.266 c 0,-7.325 -5.937,-13.274 -13.269,-13.274 -7.324,0 -13.273,5.949 -13.273,13.274 0,7.332 5.949,13.269 13.273,13.269 7.332,0 13.269,-5.937 13.269,-13.269 z m -117.761,0 c 0,-7.325 -5.938,-13.274 -13.27,-13.274 -7.332,0 -13.273,5.949 -13.273,13.274 0,7.332 5.941,13.269 13.273,13.269 7.332,0 13.27,-5.937 13.27,-13.269" /><path
         id="path5844"
         style="fill:#000000;fill-opacity:1;fill-rule:nonzero;stroke:none"
         d="m 64.105,118.266 h -8.289 c -1.832,0 -3.32,1.484 -3.32,3.32 v 15.434 c 0,1.621 1.18,3.003 2.781,3.273 l 46.977,7.836 22.254,22.242 c 0.625,0.625 1.469,0.977 2.351,0.977 h 63.805 c 0.75,0 1.488,-0.258 2.074,-0.731 l 31.02,-24.816 c 0.793,-0.629 1.242,-1.582 1.242,-2.586 v -21.629 c 0,-1.836 -1.488,-3.32 -3.312,-3.32 h -6.633 c 0,9.164 -7.438,16.593 -16.594,16.593 -9.16,0 -16.586,-7.429 -16.586,-16.593 H 97.281 c 0,9.164 -7.422,16.593 -16.582,16.593 -9.16,0 -16.594,-7.429 -16.594,-16.593" /><path
         id="path5846"
         style="fill:#ffffff;fill-opacity:1;fill-rule:nonzero;stroke:none"
         d="m 155.336,144.805 h -45.758 c -0.914,0 -1.652,0.75 -1.652,1.66 0,0.441 0.176,0.863 0.484,1.168 l 16.098,16.101 c 0.625,0.625 1.469,0.977 2.347,0.977 h 28.481" /><path
         id="path5848"
         style="fill:#ffffff;fill-opacity:1;fill-rule:nonzero;stroke:none"
         d="m 160.309,144.805 v 19.906 h 23.507 c 0.883,0 1.719,-0.352 2.348,-0.977 l 13.27,-13.269 c 1.293,-1.293 1.293,-3.395 0,-4.688 -0.614,-0.625 -1.469,-0.972 -2.348,-0.972" /><path
         id="path5850"
         style="fill:#000000;fill-opacity:1;fill-rule:nonzero;stroke:none"
         d="m 228.754,118.449 v 6.727 h 27.574 l -7.269,34.672 c -0.094,0.422 -0.094,0.851 -0.024,1.273 l 6.801,38.609 c 0.273,1.614 1.668,2.782 3.309,2.782 h 128.183 c 1.629,0 3.035,-1.168 3.309,-2.782 l 6.812,-38.671 c 0.074,-0.379 0.074,-0.778 0,-1.161 l -6.812,-38.671 c -0.274,-1.61 -1.68,-2.778 -3.309,-2.778 h -44.254 c 0,9.281 -7.527,16.809 -16.808,16.809 -9.293,0 -16.817,-7.528 -16.817,-16.809" /><path
         id="path5852"
         style="fill:#ffffff;fill-opacity:1;fill-rule:nonzero;stroke:none"
         d="m 272.461,125.176 c -0.922,0 -1.68,0.75 -1.68,1.683 v 60.524 c 0,0.922 0.758,1.683 1.68,1.683 h 26.898 c 0.934,0 1.684,-0.761 1.684,-1.683 v -60.524 c 0,-0.933 -0.75,-1.683 -1.684,-1.683" /><path
         id="path5854"
         style="fill:#ffffff;fill-opacity:1;fill-rule:nonzero;stroke:none"
         d="m 339.715,167.203 c -0.922,0 -1.68,0.754 -1.68,1.68 v 18.5 c 0,0.922 0.758,1.683 1.68,1.683 h 38.672 c 0.926,0 1.679,-0.761 1.679,-1.683 v -18.5 c 0,-0.926 -0.753,-1.68 -1.679,-1.68" /><path
         id="path5856"
         style="fill:#000000;fill-opacity:1;fill-rule:nonzero;stroke:none"
         d="m 339.715,118.449 c 0,-7.426 -6.02,-13.457 -13.442,-13.457 -7.437,0 -13.457,6.031 -13.457,13.457 0,7.426 6.02,13.453 13.457,13.453 7.422,0 13.442,-6.027 13.442,-13.453" /><path
         id="path5858"
         style="fill:#000000;fill-opacity:1;fill-rule:nonzero;stroke:none"
         d="m 49.063,49.348 3.308,3.906 c 3.559,-3.012 8.34,-4.121 12.852,-2.992 2.429,0.605 3.894,3.054 3.293,5.476 -0.453,1.805 -1.95,3.149 -3.797,3.383 l -5.473,0.731 c -5.273,0.699 -8.984,5.546 -8.289,10.828 0.578,4.355 4.031,7.773 8.402,8.308 4.758,0.571 9.567,-0.609 13.512,-3.336 l -2.91,-4.214 c -2.91,2.011 -6.469,2.882 -9.984,2.464 -2.485,-0.3 -4.25,-2.558 -3.954,-5.035 0.254,-2.047 1.856,-3.664 3.899,-3.941 l 5.476,-0.719 c 5.282,-0.695 8.993,-5.547 8.293,-10.828 -0.519,-3.918 -3.382,-7.125 -7.218,-8.09 -6.121,-1.531 -12.602,-0.019 -17.41,4.063" /><path
         id="path5860"
         style="fill:#000000;fill-opacity:1;fill-rule:nonzero;stroke:none"
         d="m 97.793,48.621 c -3.832,-4.617 -10.676,-5.238 -15.277,-1.418 -2.485,2.063 -3.918,5.121 -3.918,8.352 v 3.004 c 0,5.996 4.859,10.847 10.847,10.847 3.223,0 6.285,-1.433 8.348,-3.918 l -3.711,-3.074 c -2.121,2.563 -5.93,2.91 -8.492,0.789 -1.371,-1.148 -2.176,-2.851 -2.176,-4.644 v -3.004 c 0,-3.336 2.699,-6.032 6.031,-6.032 1.785,0 3.489,0.797 4.637,2.176" /><path
         id="path5862"
         style="fill:#000000;fill-opacity:1;fill-rule:nonzero;stroke:none"
         d="m 102.613,45 v 33.75 h 4.825 V 66.395 c 2.816,3.484 7.945,4.039 11.441,1.207 1.91,-1.547 3.016,-3.875 3.016,-6.329 V 45 h -4.821 v 14.77 c 0,2.668 -2.152,4.82 -4.82,4.82 -2.664,0 -4.816,-2.152 -4.816,-4.82 V 45" /><path
         id="path5864"
         style="fill:#000000;fill-opacity:1;fill-rule:nonzero;stroke:none"
         d="m 136.961,45 h -3.008 c -3.004,0 -5.422,2.434 -5.422,5.422 V 78.75 h 4.817 V 51.031 c 0,-0.832 0.679,-1.508 1.511,-1.508 h 2.102" /><path
         id="path5866"
         style="fill:#000000;fill-opacity:1;fill-rule:nonzero;stroke:none"
         d="m 146.609,59.469 h 10.246 c 0,2.832 -2.3,5.121 -5.128,5.121 -2.829,0 -5.118,-2.289 -5.118,-5.121 z m 15.067,-4.223 h -15.067 v -0.598 c 0,-2.101 1.27,-3.988 3.219,-4.765 2.676,-1.067 5.746,-0.309 7.621,1.875 l 3.66,-3.137 c -3.222,-3.754 -8.48,-5.047 -13.078,-3.211 -3.769,1.508 -6.242,5.168 -6.242,9.238 v 4.821 c 0,5.488 4.449,9.937 9.938,9.937 5.496,0 9.949,-4.449 9.949,-9.937" /><path
         id="path5868"
         style="fill:#000000;fill-opacity:1;fill-rule:nonzero;stroke:none"
         d="m 187.59,45 h -4.82 v 2.727 c -2.821,-3.497 -7.95,-4.039 -11.446,-1.219 -1.906,1.551 -3.023,3.863 -3.023,6.328 v 16.277 h 4.828 V 54.344 c 0,-2.668 2.156,-4.821 4.82,-4.821 2.656,0 4.821,2.153 4.821,4.821 v 14.769 h 4.82" /><path
         id="path5870"
         style="fill:#000000;fill-opacity:1;fill-rule:nonzero;stroke:none"
         d="m 208.688,54.344 v 5.426 c 0,2.668 -2.168,4.82 -4.825,4.82 -2.668,0 -4.82,-2.152 -4.82,-4.82 v -5.426 c 0,-2.668 2.152,-4.821 4.82,-4.821 2.657,0 4.825,2.153 4.825,4.821 z M 213.504,45 h -4.816 v 2.727 c -2.821,-3.497 -7.954,-4.039 -11.45,-1.219 -1.906,1.551 -3.027,3.863 -3.027,6.328 v 8.437 c 0,4.493 3.652,8.133 8.148,8.133 2.45,0 4.778,-1.109 6.329,-3.011 V 78.75 h 4.816" /><path
         id="path5872"
         style="fill:#000000;fill-opacity:1;fill-rule:nonzero;stroke:none"
         d="m 224.961,59.469 h 10.242 c 0,2.832 -2.297,5.121 -5.129,5.121 -2.828,0 -5.113,-2.289 -5.113,-5.121 z m 15.062,-4.223 h -15.062 v -0.598 c 0,-2.101 1.269,-3.988 3.219,-4.765 2.675,-1.067 5.742,-0.309 7.621,1.875 l 3.66,-3.137 c -3.223,-3.754 -8.481,-5.047 -13.078,-3.211 -3.77,1.508 -6.254,5.168 -6.254,9.238 v 4.821 c 0,5.488 4.461,9.937 9.945,9.937 5.496,0 9.949,-4.449 9.949,-9.937" /><path
         id="path5874"
         style="fill:#000000;fill-opacity:1;fill-rule:nonzero;stroke:none"
         d="m 246.652,45 v 24.113 h 4.828 v -2.718 c 2.821,3.484 7.938,4.039 11.434,1.207 0,0 0.008,0 0.008,-0.008 l -3.426,-4.223 c -1.988,1.774 -5.035,1.598 -6.812,-0.402 -0.774,-0.871 -1.207,-2.02 -1.207,-3.199 V 45.004" /><path
         id="path5876"
         style="fill:#000000;fill-opacity:1;fill-rule:nonzero;stroke:none"
         d="m 279.805,54.344 v 5.426 c 0,2.668 -2.164,4.82 -4.832,4.82 -2.653,0 -4.821,-2.152 -4.821,-4.82 v -5.426 c 0,-2.668 2.168,-4.821 4.821,-4.821 2.668,0 4.832,2.153 4.832,4.821 z m 4.82,14.769 v -24.41 c 0,-3.652 -2.062,-6.992 -5.336,-8.625 -4.601,-2.305 -10.191,-1.098 -13.441,2.902 l 3.742,3.036 c 1.824,-2.246 4.961,-2.922 7.535,-1.629 1.641,0.82 2.68,2.488 2.68,4.316 v 3.024 c -2.832,-3.497 -7.95,-4.039 -11.446,-1.219 -1.918,1.551 -3.023,3.863 -3.023,6.328 v 8.437 c 0,4.493 3.637,8.133 8.141,8.133 2.453,0 4.777,-1.109 6.328,-3.011 v 2.718" /><path
         id="path5878"
         style="fill:#000000;fill-opacity:1;fill-rule:nonzero;stroke:none"
         d="m 296.07,59.469 h 10.243 c 0,2.832 -2.286,5.121 -5.118,5.121 -2.828,0 -5.125,-2.289 -5.125,-5.121 z m 15.075,-4.223 H 296.07 v -0.598 c 0,-2.101 1.282,-3.988 3.219,-4.765 2.68,-1.067 5.754,-0.309 7.629,1.875 l 3.652,-3.137 c -3.218,-3.754 -8.472,-5.047 -13.062,-3.211 -3.778,1.508 -6.262,5.168 -6.262,9.238 v 4.821 c 0,5.488 4.465,9.937 9.949,9.937 5.5,0 9.95,-4.449 9.95,-9.937" /><path
         id="path5880"
         style="fill:#000000;fill-opacity:1;fill-rule:nonzero;stroke:none"
         d="m 318.375,45 v 20.191 h -2.414 v 3.922 h 2.414 v 3.617 c 0,3.325 2.695,6.02 6.027,6.02 h 3.614 v -4.523 h -3.313 c -0.832,0 -1.508,-0.676 -1.508,-1.497 v -3.617 h 4.821 v -3.922 h -4.821 V 45" /><path
         id="path5882"
         style="fill:#000000;fill-opacity:1;fill-rule:nonzero;stroke:none"
         d="m 346.094,55.555 h -6.93 c -1.664,0 -3.008,-1.356 -3.008,-3.02 0,-1.656 1.344,-3.012 3.008,-3.012 h 3.914 c 1.672,0 3.016,1.356 3.016,3.012 z M 350.926,45 h -4.832 v 2.492 C 345.242,45.953 343.633,45 341.867,45 h -3.004 c -4,0 -7.23,3.242 -7.23,7.242 0,3.985 3.23,7.227 7.23,7.227 h 7.231 v 2.41 c 0,1.312 -0.953,2.441 -2.246,2.668 -1.7,0.297 -3.442,0.297 -5.149,0 -0.851,-0.145 -1.578,-0.688 -1.969,-1.469 l -3.816,3.016 c 1.152,1.691 2.934,2.851 4.957,3.199 2.254,0.402 4.551,0.402 6.805,0 3.613,-0.625 6.25,-3.754 6.25,-7.414" /><path
         id="path5884"
         style="fill:#000000;fill-opacity:1;fill-rule:nonzero;stroke:none"
         d="m 358.152,45 v 33.75 h 4.821 V 66.395 c 2.82,3.484 7.949,4.039 11.445,1.207 1.895,-1.547 3.02,-3.875 3.02,-6.329 V 45 h -4.825 v 14.77 c 0,2.668 -2.16,4.82 -4.82,4.82 -2.664,0 -4.82,-2.152 -4.82,-4.82 V 45" /><path
         id="path5886"
         style="fill:#000000;fill-opacity:1;fill-rule:nonzero;stroke:none"
         d="m 384.676,45 v 24.113 h 4.82 v -2.718 c 2.82,3.484 7.945,4.039 11.43,1.207 l 0.008,-0.008 -3.422,-4.223 c -1.989,1.774 -5.035,1.598 -6.809,-0.402 -0.781,-0.871 -1.211,-2.02 -1.211,-3.199 V 45.004" /></g></g></svg>