<?xml version="1.0" encoding="UTF-8" standalone="no"?>
<svg
   xmlns:dc="http://purl.org/dc/elements/1.1/"
   xmlns:cc="http://creativecommons.org/ns#"
   xmlns:rdf="http://www.w3.org/1999/02/22-rdf-syntax-ns#"
   xmlns:svg="http://www.w3.org/2000/svg"
   xmlns="http://www.w3.org/2000/svg"
   viewBox="0 0 600.99414 600.99414"
   height="600.99414"
   width="600.99414"
   xml:space="preserve"
   version="1.1"
   id="svg5202"><metadata
     id="metadata5208"><rdf:RDF><cc:Work
         rdf:about=""><dc:format>image/svg+xml</dc:format><dc:type
           rdf:resource="http://purl.org/dc/dcmitype/StillImage" /><dc:title></dc:title></cc:Work></rdf:RDF></metadata><defs
     id="defs5206" /><g
     transform="matrix(1.25,0,0,-1.25,0,600.99415)"
     id="g5210"><g
       id="g5212"><path
         id="path5214"
         style="fill:#ffffff;fill-opacity:1;fill-rule:nonzero;stroke:none"
         d="m 32.195,480.401 c -17.535,0 -31.793,-14.27 -31.793,-31.793 l 0,-416.414 C 0.402,14.659 14.66,0.401 32.195,0.401 l 416.414,0 c 17.524,0 31.793,14.258 31.793,31.793 l 0,416.414 c 0,17.523 -14.269,31.793 -31.793,31.793 l -416.414,0 z" /><path
         id="path5216"
         style="fill:#000000;fill-opacity:1;fill-rule:nonzero;stroke:none"
         d="M 32.203,480.795 C 14.449,480.795 0,466.354 0,448.616 L 0,32.202 C 0,14.452 14.449,-0.002 32.203,-0.002 l 416.414,0 c 17.738,0 32.18,14.454 32.18,32.204 l 0,416.414 c 0,17.738 -14.442,32.179 -32.18,32.179 l -416.414,0 z m -0.008,-0.394 416.414,0 c 17.52,0 31.793,-14.274 31.793,-31.793 l 0,-416.414 c 0,-17.535 -14.273,-31.793 -31.793,-31.793 l -416.414,0 C 14.66,0.401 0.402,14.659 0.402,32.194 l 0,416.414 c 0,17.519 14.258,31.793 31.793,31.793 z" /><path
         id="path5218"
         style="fill:#000000;fill-opacity:1;fill-rule:nonzero;stroke:none"
         d="m 32.195,472.623 c -13.273,0 -24.027,-10.753 -24.027,-24.015 l 0,-416.414 C 8.168,18.92 18.922,8.166 32.195,8.166 l 416.414,0 c 13.274,0 24.016,10.754 24.016,24.028 l 0,416.414 c 0,13.262 -10.742,24.015 -24.016,24.015 l -416.414,0 z m 0,-12.015 416.414,0 c 6.629,0 12.012,-5.367 12.012,-12 l 0,-416.414 c 0,-6.645 -5.383,-12.016 -12.012,-12.016 l -416.414,0 c -6.633,0 -12.015,5.371 -12.015,12.016 l 0,416.414 c 0,6.633 5.382,12 12.015,12 z" /><path
         id="path5220"
         style="fill:#000000;fill-opacity:1;fill-rule:evenodd;stroke:none"
         d="m 88.348,112.01 154.777,0 0.059,140.254 c 0,4.891 -7.02,12.957 -12.723,12.957 l -129.375,-0.125 c -5.922,0 -12.625,-7.316 -12.625,-12.344 L 88.348,112.01 Z" /><path
         id="path5222"
         style="fill:#000000;fill-opacity:1;fill-rule:evenodd;stroke:none"
         d="m 90.703,109.256 17.703,0 2.137,-3.234 0.066,-45.438 -3.32,-3.226 -15.984,-0.199 -2.743,2.757 0.133,47.102 2.008,2.238 z" /><path
         id="path5224"
         style="fill:#000000;fill-opacity:1;fill-rule:evenodd;stroke:none"
         d="m 116.52,108.94 -2.016,-2.231 -0.137,-47.105 2.758,-2.762 15.977,0.199 3.328,3.231 -0.02,14.879 1.82,1.918 12.61,0.058 0.019,-0.589 1.762,0.039 c 0.055,-1.254 7.043,-7.672 13.488,-7.672 l 0,0.039 c 6.442,0.011 13.399,6.398 13.45,7.656 l 1.765,-0.043 0.039,0.609 12.606,-0.078 1.742,-1.82 -0.039,-15.664 2.742,-2.762 15.977,0.199 3.328,3.231 -0.078,45.437 -2.137,3.231 -17.695,0 -2.02,-2.231 -0.039,-14.879 -2.523,-2.605 -11.883,0.039 0.019,0.609 -1.922,0.02 c 0,1.809 -6.894,7.555 -13.351,7.555 l 0,-0.02 c -6.449,-0.012 -13.332,-5.765 -13.332,-7.574 l -1.918,0 0,-0.629 -11.883,-0.02 -2.586,2.665 -0.019,13.839 -2.133,3.231 -17.699,0 z" /><path
         id="path5226"
         style="fill:#000000;fill-opacity:1;fill-rule:evenodd;stroke:none"
         d="m 223.418,109.315 17.703,0 2.137,-3.235 0.066,-45.437 -3.32,-3.227 -15.981,-0.199 -2.746,2.758 0.133,47.102 2.008,2.238 z" /><path
         id="path5228"
         style="fill:#000000;fill-opacity:1;fill-rule:nonzero;stroke:none"
         d="m 154.625,275.28 c -4.902,14.082 3.742,21.465 12.742,28.668 -7.152,19.289 0.059,32.543 21.5,39.812 -5.707,17.457 -3.66,32.238 20.512,39.391 1.219,20.027 10.07,36.828 44.789,26.707 7.793,36.437 51.07,29.273 57.332,-2.391 8.734,9.082 38.945,2.496 38.223,-25.48 9.703,-1.321 21.297,-7.039 24.687,-26.282 14.192,-0.726 40.047,-7.832 27.871,-46.98 17.285,-4.82 39.555,-35.82 0.797,-54.945 8.445,-25.664 -0.789,-41.223 -28.668,-42.207 -6.058,-22.707 -24.226,-28.731 -46.187,-19.11 -1.121,-6.492 -5.969,-9.933 -13.535,-11.148 l 20.703,-117.059 -41.411,0 1.594,117.852 c -7.203,2.203 -13.078,5.32 -12.742,12.742 -10.617,-2.652 -21.234,-3.668 -31.852,2.391 l 0,60.519 c 0,8.594 -10.781,17.121 -17.121,17.121 l -79.234,0.399 z" /><path
         id="path5230"
         style="fill:#000000;fill-opacity:1;fill-rule:nonzero;stroke:none"
         d="m 56.277,57.256 214.273,0 0,-10.777 -214.273,0 0,10.777 z" /><path
         id="path5232"
         style="fill:#000000;fill-opacity:1;fill-rule:nonzero;stroke:none"
         d="m 275.629,57.295 14.984,0 0,-10.793 -15.035,0 0.051,10.793 z" /><path
         id="path5234"
         style="fill:#000000;fill-opacity:1;fill-rule:nonzero;stroke:none"
         d="m 295.586,57.295 14.988,0 0,-10.793 -15.035,0 0.047,10.793 z" /><path
         id="path5236"
         style="fill:#000000;fill-opacity:1;fill-rule:nonzero;stroke:none"
         d="m 315.664,57.295 14.988,0 0,-10.793 -15.035,0 0.047,10.793 z" /><path
         id="path5238"
         style="fill:#000000;fill-opacity:1;fill-rule:nonzero;stroke:none"
         d="m 335.742,57.295 14.988,0 0,-10.793 -15.035,0 0.047,10.793 z" /><path
         id="path5240"
         style="fill:#000000;fill-opacity:1;fill-rule:nonzero;stroke:none"
         d="m 355.82,57.295 14.989,0 0,-10.793 -15.036,0 0.047,10.793 z" /><path
         id="path5242"
         style="fill:#000000;fill-opacity:1;fill-rule:nonzero;stroke:none"
         d="m 396.023,57.295 14.985,0 0,-10.793 -15.035,0 0.05,10.793 z" /><path
         id="path5244"
         style="fill:#000000;fill-opacity:1;fill-rule:nonzero;stroke:none"
         d="m 375.863,57.295 14.989,0 0,-10.793 -15.036,0 0.047,10.793 z" /></g></g></svg>