<?xml version="1.0" encoding="UTF-8" standalone="no"?>
<svg
   xmlns:dc="http://purl.org/dc/elements/1.1/"
   xmlns:cc="http://creativecommons.org/ns#"
   xmlns:rdf="http://www.w3.org/1999/02/22-rdf-syntax-ns#"
   xmlns:svg="http://www.w3.org/2000/svg"
   xmlns="http://www.w3.org/2000/svg"
   viewBox="0 0 600 330"
   height="330"
   width="600"
   xml:space="preserve"
   version="1.1"
   id="svg5985"><metadata
     id="metadata5991"><rdf:RDF><cc:Work
         rdf:about=""><dc:format>image/svg+xml</dc:format><dc:type
           rdf:resource="http://purl.org/dc/dcmitype/StillImage" /><dc:title></dc:title></cc:Work></rdf:RDF></metadata><defs
     id="defs5989"><clipPath
       id="clipPath6003"
       clipPathUnits="userSpaceOnUse"><path
         id="path6005"
         d="M 0,0 480,0 480,264 0,264 0,0 Z" /></clipPath></defs><g
     transform="matrix(1.25,0,0,-1.25,0,330)"
     id="g5993"><g
       id="g5995"><g
         id="g5997"><g
           id="g5999"><g
             clip-path="url(#clipPath6003)"
             id="g6001"><g
               id="g6007"><path
                 id="path6009"
                 style="fill:#ffffff;fill-opacity:1;fill-rule:nonzero;stroke:none"
                 d="m 31.996,263.77 c -17.512,0 -31.754,-14.254 -31.754,-31.766 l 0,-199.996 C 0.242,14.492 14.484,0.25 31.996,0.25 l 416.008,0 c 17.512,0 31.754,14.242 31.754,31.758 l 0,199.996 c 0,17.512 -14.242,31.766 -31.754,31.766" /><path
                 id="path6011"
                 style="fill:#000000;fill-opacity:1;fill-rule:nonzero;stroke:none"
                 d="M 31.996,0.48 C 14.613,0.48 0.48,14.625 0.48,32.008 l 0,199.996 c 0,17.383 14.133,31.527 31.516,31.527 l 416.008,0 c 17.383,0 31.516,-14.144 31.516,-31.527 l 0,-199.996 C 479.52,14.625 465.387,0.48 448.004,0.48 l -416.008,0 z m 416.008,263.532 -416.008,0 C 14.32,264.012 0,249.68 0,232.004 L 0,32.008 C 0,14.34 14.32,0 31.996,0 L 448.004,0 C 465.672,0 480,14.34 480,32.008 l 0,199.996 c 0,17.676 -14.328,32.008 -31.996,32.008" /></g></g></g></g><path
         id="path6013"
         style="fill:#000000;fill-opacity:1;fill-rule:nonzero;stroke:none"
         d="m 31.996,20.008 416.008,0 c 6.629,0 12,5.371 12,12 l 0,199.996 c 0,6.629 -5.371,12 -12,12 l -416.008,0 c -6.629,0 -12,-5.371 -12,-12 l 0,-199.996 c 0,-6.629 5.371,-12 12,-12 z m 0,-12 c -13.258,0 -24,10.742 -24,24 l 0,199.996 c 0,13.258 10.742,24 24,24 l 416.008,0 c 13.258,0 24,-10.742 24,-24 l 0,-199.996 c 0,-13.258 -10.742,-24 -24,-24" /><path
         id="path6015"
         style="fill:#000000;fill-opacity:1;fill-rule:nonzero;stroke:none"
         d="m 240,224 10.621,-6.125 0,-10.742 9.297,5.371 10.625,-6.137 0,-12.25 -19.922,-11.496 0,-32.226 27.906,16.113 0,22.992 10.61,6.137 10.621,-6.137 0,-10.742 9.301,5.371 10.621,-6.125 0,-12.262 -9.297,-5.371 9.297,-5.371 0,-12.254 -10.621,-6.125 -19.922,11.496 -27.903,-16.113 27.903,-16.113 19.922,11.5 10.621,-6.129 0,-12.262 -9.297,-5.371 9.297,-5.371 0,-12.25 -10.621,-6.137 -9.301,5.371 0,-10.742 -10.621,-6.125 -10.61,6.125 0,23.004 -27.906,16.113 0,-32.226 19.922,-11.508 0,-12.25 -10.625,-6.137 -9.297,5.379 0,-10.75 L 240,40 l -10.609,6.125 0,10.75 -9.309,-5.379 -10.613,6.137 0,12.25 19.922,11.508 0,32.226 -27.918,-16.113 0,-23.004 -10.61,-6.125 -10.621,6.125 0,10.742 -9.301,-5.371 -10.621,6.137 0,12.25 9.309,5.371 -9.309,5.371 0,12.262 10.621,6.129 19.922,-11.5 27.907,16.113 -27.907,16.113 -19.922,-11.496 -10.621,6.125 0,12.254 9.309,5.371 -9.309,5.371 0,12.262 10.621,6.125 9.301,-5.371 0,10.742 10.621,6.137 10.61,-6.137 0,-22.992 27.918,-16.113 0,32.226 -19.922,11.496 0,12.25 10.613,6.137 9.309,-5.371 0,10.742" /></g></g></svg>