<?xml version="1.0" encoding="UTF-8" standalone="no"?>
<svg
   xmlns:dc="http://purl.org/dc/elements/1.1/"
   xmlns:cc="http://creativecommons.org/ns#"
   xmlns:rdf="http://www.w3.org/1999/02/22-rdf-syntax-ns#"
   xmlns:svg="http://www.w3.org/2000/svg"
   xmlns="http://www.w3.org/2000/svg"
   viewBox="0 0 847.15851 743.62274"
   height="743.62274"
   width="847.15851"
   xml:space="preserve"
   id="svg4622"
   version="1.1"><metadata
     id="metadata4628"><rdf:RDF><cc:Work
         rdf:about=""><dc:format>image/svg+xml</dc:format><dc:type
           rdf:resource="http://purl.org/dc/dcmitype/StillImage" /><dc:title></dc:title></cc:Work></rdf:RDF></metadata><defs
     id="defs4626" /><g
     transform="matrix(1.3333333,0,0,-1.3333333,0,743.62272)"
     id="g4630"><g
       id="g4632"><path
         id="path4634"
         style="fill:#ffffff;fill-opacity:1;fill-rule:nonzero;stroke:none"
         d="m 317.688,557.342 c -7.043,0 -14.086,-2.687 -19.461,-8.059 -1.762,-1.761 -3.231,-3.707 -4.414,-5.769 l -14.293,-24.52 h -0.063 L 4.672,42.705 C 4.621,42.615 4.582,42.526 4.531,42.432 3.137,40.19 2.039,37.705 1.316,35.018 -2.613,20.338 6.098,5.248 20.777,1.315 23.203,0.662 25.641,0.365 28.031,0.377 h 579.442 c 15.199,0 27.519,12.321 27.519,27.52 0,4.972 -1.328,9.64 -3.637,13.668 -0.019,0.031 -0.035,0.058 -0.046,0.09 L 345.961,537.041 c -3.621,6.246 -5.297,8.723 -8.816,12.242 -5.372,5.372 -12.415,8.059 -19.457,8.059 z" /><path
         id="path4636"
         style="fill:#c1121c;fill-opacity:1;fill-rule:nonzero;stroke:none"
         d="m 317.688,550.448 c -6.68,0.046 -14.016,-3.368 -17.606,-9.754 L 10.117,38.295 C 8.445,34.873 7.742,31.901 7.719,28.498 c 0,-6.09 2.695,-11.867 7.359,-15.789 4.11,-3.179 8,-4.836 13.238,-4.836 h 579.286 c 3.535,-0.031 7.074,0.817 10.293,2.938 6.046,3.652 9.75,10.203 9.757,17.273 -0.172,3.653 -1.074,7.5 -2.699,10.211 L 335.16,540.776 c -0.027,0.043 -0.055,0.089 -0.086,0.132 -0.027,0.043 -0.058,0.086 -0.086,0.137 -1.027,1.645 -2.316,3.098 -3.789,4.34 -3.363,2.918 -7.578,4.668 -12.019,4.984 -0.5,0.047 -0.996,0.075 -1.492,0.079 z M 28.316,7.873 h -1.429 1.457 z m 289.071,443 220.972,-383 H 96.105 Z" /><path
         id="path4638"
         style="fill:#000000;fill-opacity:1;fill-rule:nonzero;stroke:none"
         d="m 317.688,557.717 c -7.141,0 -14.278,-2.723 -19.723,-8.172 -1.789,-1.781 -3.274,-3.758 -4.477,-5.844 l -14.183,-24.332 h -0.067 L 4.352,42.893 C 4.289,42.783 4.242,42.69 4.199,42.612 2.789,40.342 1.684,37.83 0.957,35.115 -3.027,20.237 5.805,4.94 20.68,0.951 c 2.457,-0.66 4.929,-0.957 7.351,-0.953 h 579.442 c 15.402,0 27.894,12.496 27.894,27.899 0,5.039 -1.347,9.765 -3.687,13.851 -0.012,0.016 -0.024,0.047 -0.047,0.09 l -285.34,495.391 c -3.629,6.25 -5.34,8.777 -8.879,12.316 -5.445,5.449 -12.586,8.172 -19.723,8.172 z m 0,-0.375 c 7.042,0 14.085,-2.687 19.457,-8.059 3.519,-3.519 5.195,-5.996 8.816,-12.242 L 631.305,41.655 c 0.015,-0.032 0.031,-0.059 0.05,-0.09 2.309,-4.028 3.637,-8.696 3.637,-13.668 0,-15.199 -12.32,-27.52 -27.519,-27.52 H 28.031 C 25.641,0.365 23.203,0.662 20.777,1.315 6.098,5.248 -2.613,20.338 1.316,35.018 c 0.719,2.687 1.821,5.172 3.215,7.414 0.051,0.094 0.09,0.183 0.141,0.273 l 274.785,476.289 h 0.063 l 14.293,24.52 c 1.183,2.062 2.652,4.008 4.414,5.769 5.375,5.372 12.414,8.059 19.461,8.059 z" /><path
         id="path4640"
         style="fill:#000000;fill-opacity:1;fill-rule:nonzero;stroke:none"
         d="m 283.68,96.162 17.285,-9.968 11.848,100.386 60.316,-31.347 3.309,-34.2 10.375,-6.003 11.054,35.125 24.899,27.156 -10.375,5.988 -31.278,-14.234 -57.3,36.539 81.011,60.472 -17.289,9.969 -103.972,-45.262 c -9.836,5.915 -19.735,11.762 -29.672,17.5 -12.411,7.165 -25.391,7.957 -28.981,1.754 -3.586,-6.238 3.59,-17.074 16.004,-24.234 9.957,-5.742 19.938,-11.402 29.992,-16.941" /></g></g></svg>