<?xml version="1.0" encoding="UTF-8" standalone="no"?>
<svg
   xmlns:dc="http://purl.org/dc/elements/1.1/"
   xmlns:cc="http://creativecommons.org/ns#"
   xmlns:rdf="http://www.w3.org/1999/02/22-rdf-syntax-ns#"
   xmlns:svg="http://www.w3.org/2000/svg"
   xmlns="http://www.w3.org/2000/svg"
   viewBox="0 0 847.15851 743.62274"
   height="743.62274"
   width="847.15851"
   xml:space="preserve"
   version="1.1"
   id="svg4553"><metadata
     id="metadata4559"><rdf:RDF><cc:Work
         rdf:about=""><dc:format>image/svg+xml</dc:format><dc:type
           rdf:resource="http://purl.org/dc/dcmitype/StillImage" /><dc:title></dc:title></cc:Work></rdf:RDF></metadata><defs
     id="defs4557" /><g
     transform="matrix(1.25,0,0,-1.25,0,743.62274)"
     id="g4561"><g
       id="g4563"><path
         id="path4565"
         style="fill:#ffffff;fill-opacity:1;fill-rule:nonzero;stroke:none"
         d="m 338.867,594.5 c -7.512,0 -15.023,-2.867 -20.758,-8.598 -1.879,-1.879 -3.445,-3.953 -4.707,-6.152 l -15.246,-26.156 -0.07,0 L 4.984,45.551 C 4.93,45.457 4.887,45.359 4.832,45.261 3.348,42.871 2.176,40.219 1.402,37.351 -2.789,21.695 6.504,5.597 22.164,1.402 c 2.586,-0.695 5.188,-1.012 7.734,-1 l 618.075,0 c 16.211,0 29.351,13.141 29.351,29.356 0,5.3 -1.414,10.281 -3.879,14.578 -0.019,0.035 -0.039,0.062 -0.05,0.097 L 369.023,572.844 c -3.859,6.664 -5.648,9.304 -9.402,13.058 -5.73,5.731 -13.242,8.598 -20.754,8.598 z" /><path
         id="path4567"
         style="fill:#c1121c;fill-opacity:1;fill-rule:nonzero;stroke:none"
         d="m 338.867,587.144 c -7.125,0.051 -14.949,-3.593 -18.781,-10.402 L 10.793,40.847 C 9.008,37.199 8.258,34.027 8.234,30.398 c 0,-6.496 2.875,-12.66 7.848,-16.844 4.387,-3.39 8.535,-5.156 14.121,-5.156 l 617.906,0 c 3.77,-0.035 7.547,0.871 10.981,3.133 6.445,3.895 10.398,10.883 10.406,18.426 -0.183,3.894 -1.144,8 -2.879,10.89 L 357.504,576.828 c -0.027,0.047 -0.059,0.094 -0.09,0.141 -0.031,0.046 -0.062,0.089 -0.094,0.144 -1.093,1.758 -2.468,3.305 -4.043,4.633 -3.586,3.109 -8.082,4.976 -12.82,5.312 -0.531,0.051 -1.062,0.082 -1.59,0.086 z M 30.203,8.398 l -1.523,0 1.554,0 -0.031,0 z M 338.547,480.929 574.25,72.398 l -471.738,0 236.035,408.531 z" /><path
         id="path4569"
         style="fill:#000000;fill-opacity:1;fill-rule:nonzero;stroke:none"
         d="m 338.867,594.898 c -7.617,0 -15.23,-2.906 -21.039,-8.719 -1.906,-1.898 -3.492,-4.007 -4.773,-6.23 l -15.129,-25.957 -0.071,0 L 4.641,45.754 C 4.574,45.636 4.523,45.535 4.48,45.453 2.977,43.031 1.797,40.351 1.02,37.457 -3.23,21.586 6.191,5.269 22.059,1.015 24.68,0.312 27.316,-0.008 29.898,0 l 618.075,0 c 16.425,0 29.754,13.328 29.754,29.758 0,5.375 -1.438,10.414 -3.934,14.773 -0.016,0.016 -0.027,0.051 -0.051,0.098 L 369.379,573.043 c -3.871,6.668 -5.695,9.363 -9.469,13.136 -5.808,5.813 -13.426,8.719 -21.039,8.719 l -0.004,0 z m 0,-0.398 c 7.512,0 15.024,-2.867 20.754,-8.598 3.754,-3.754 5.543,-6.394 9.402,-13.058 L 673.391,44.433 c 0.015,-0.035 0.035,-0.062 0.054,-0.097 2.465,-4.297 3.879,-9.278 3.879,-14.578 0,-16.215 -13.14,-29.356 -29.351,-29.356 l -618.075,0 C 27.352,0.39 24.75,0.707 22.164,1.402 6.504,5.597 -2.789,21.695 1.402,37.351 c 0.77,2.868 1.946,5.52 3.43,7.91 0.055,0.098 0.098,0.196 0.152,0.29 l 293.102,508.043 0.07,0 15.246,26.156 c 1.262,2.199 2.828,4.273 4.707,6.152 5.735,5.731 13.243,8.598 20.758,8.598 z" /><path
         id="path4571"
         style="fill:#000000;fill-opacity:1;fill-rule:nonzero;stroke:none"
         d="m 246.672,106.566 0,51.344 37.363,24.449 -1.957,4.52 c -2.387,5.519 -3.621,11.468 -3.621,17.484 0,4.488 0.688,8.953 2.039,13.234 l -14.262,25.887 -34.23,-7.336 -7.336,7.336 29.34,34.227 0,14.672 9.781,-9.782 c 16.629,0 32.121,-8.453 41.121,-22.437 l 9.59,-14.906 21.031,10.543 -1.406,2.503 c -1.23,2.192 -1.879,4.668 -1.879,7.184 0,8.102 6.57,14.668 14.672,14.668 5.301,0 10.191,-2.863 12.789,-7.488 l 19.895,-35.426 c 1.027,-1.828 1.562,-3.887 1.562,-5.984 0,-3.875 -1.836,-7.524 -4.953,-9.829 l 17.703,3.122 c 2.242,0.394 4.512,0.593 6.793,0.593 7.703,0 15.234,-2.273 21.648,-6.539 l 6.504,6.504 c 5.5,5.504 12.965,8.594 20.746,8.594 13.27,0 24.891,-8.91 28.333,-21.731 l 4.675,-17.39 -18.34,-9.778 -3.906,22.301 c -1.332,7.602 -7.933,13.149 -15.652,13.149 -4.215,0 -8.258,-1.672 -11.238,-4.653 l -3.559,-3.558 c 6.383,-7.164 9.906,-16.422 9.906,-26.016 0,-4.523 -0.785,-9.012 -2.316,-13.266 l 19.43,-32.097 -7.333,-46.457 -13.878,-4.758 7.336,46.457 -34.614,27.004 4.481,-34.34 -22.004,-41.562 -14.668,0 22.004,41.562 -21.684,38.356 c -11.312,-2.743 -22.91,-4.129 -34.551,-4.129 -11.058,0 -22.078,1.254 -32.851,3.726 l 23.07,-67.293 -2.445,-12.222 -12.223,0 2.445,12.222 -29.339,67.778 -31.786,-18.879 0,-34.227 -12.226,-7.336 z m 83.129,114.91 19.512,9.782 -7.79,13.871 -20.371,-10.211 8.649,-13.442 z m 19.562,75.793 c 0,-8.101 -6.57,-14.668 -14.672,-14.668 -8.101,0 -14.668,6.567 -14.668,14.668 0,8.102 6.567,14.672 14.668,14.672 8.102,0 14.672,-6.57 14.672,-14.672" /></g></g></svg>