<?xml version="1.0" encoding="UTF-8" standalone="no"?>
<svg
   xmlns:dc="http://purl.org/dc/elements/1.1/"
   xmlns:cc="http://creativecommons.org/ns#"
   xmlns:rdf="http://www.w3.org/1999/02/22-rdf-syntax-ns#"
   xmlns:svg="http://www.w3.org/2000/svg"
   xmlns="http://www.w3.org/2000/svg"
   viewBox="0 0 847.15851 743.62274"
   height="743.62274"
   width="847.15851"
   xml:space="preserve"
   version="1.1"
   id="svg4426"><metadata
     id="metadata4432"><rdf:RDF><cc:Work
         rdf:about=""><dc:format>image/svg+xml</dc:format><dc:type
           rdf:resource="http://purl.org/dc/dcmitype/StillImage" /><dc:title></dc:title></cc:Work></rdf:RDF></metadata><defs
     id="defs4430" /><g
     transform="matrix(1.25,0,0,-1.25,0,743.62274)"
     id="g4434"><g
       id="g4436"><path
         id="path4438"
         style="fill:#ffffff;fill-opacity:1;fill-rule:nonzero;stroke:none"
         d="m 338.867,594.5 c -7.512,0 -15.023,-2.867 -20.758,-8.598 -1.879,-1.879 -3.445,-3.953 -4.707,-6.152 l -15.246,-26.156 -0.07,0 L 4.984,45.551 C 4.93,45.457 4.887,45.359 4.832,45.261 3.348,42.871 2.176,40.219 1.402,37.351 -2.789,21.695 6.504,5.597 22.164,1.402 c 2.586,-0.695 5.188,-1.012 7.734,-1 l 618.075,0 c 16.211,0 29.351,13.141 29.351,29.356 0,5.3 -1.414,10.281 -3.879,14.578 -0.019,0.035 -0.039,0.062 -0.05,0.097 L 369.023,572.844 c -3.859,6.664 -5.648,9.304 -9.402,13.058 -5.73,5.731 -13.242,8.598 -20.754,8.598 z" /><path
         id="path4440"
         style="fill:#c1121c;fill-opacity:1;fill-rule:nonzero;stroke:none"
         d="m 338.867,587.144 c -7.125,0.051 -14.949,-3.593 -18.781,-10.402 L 10.793,40.847 C 9.008,37.199 8.258,34.027 8.234,30.398 c 0,-6.496 2.875,-12.66 7.848,-16.844 4.387,-3.39 8.535,-5.156 14.121,-5.156 l 617.906,0 c 3.77,-0.035 7.547,0.871 10.981,3.133 6.445,3.895 10.398,10.883 10.406,18.426 -0.183,3.894 -1.144,8 -2.879,10.89 L 357.504,576.828 c -0.027,0.047 -0.059,0.094 -0.09,0.141 -0.031,0.046 -0.062,0.089 -0.094,0.144 -1.093,1.758 -2.468,3.305 -4.043,4.633 -3.586,3.109 -8.082,4.976 -12.82,5.312 -0.531,0.051 -1.062,0.082 -1.59,0.086 z M 30.203,8.398 l -1.523,0 1.554,0 -0.031,0 z M 338.547,480.929 574.25,72.398 l -471.738,0 236.035,408.531 z" /><path
         id="path4442"
         style="fill:#000000;fill-opacity:1;fill-rule:nonzero;stroke:none"
         d="m 338.867,594.898 c -7.617,0 -15.23,-2.906 -21.039,-8.719 -1.906,-1.898 -3.492,-4.007 -4.773,-6.23 l -15.129,-25.957 -0.071,0 L 4.641,45.754 C 4.574,45.636 4.523,45.535 4.48,45.453 2.977,43.031 1.797,40.351 1.02,37.457 -3.23,21.586 6.191,5.269 22.059,1.015 24.68,0.312 27.316,-0.008 29.898,0 l 618.075,0 c 16.425,0 29.754,13.328 29.754,29.758 0,5.375 -1.438,10.414 -3.934,14.773 -0.016,0.016 -0.027,0.051 -0.051,0.098 L 369.379,573.043 c -3.871,6.668 -5.695,9.363 -9.469,13.136 -5.808,5.813 -13.426,8.719 -21.039,8.719 l -0.004,0 z m 0,-0.398 c 7.512,0 15.024,-2.867 20.754,-8.598 3.754,-3.754 5.543,-6.394 9.402,-13.058 L 673.391,44.433 c 0.015,-0.035 0.035,-0.062 0.054,-0.097 2.465,-4.297 3.879,-9.278 3.879,-14.578 0,-16.215 -13.14,-29.356 -29.351,-29.356 l -618.075,0 C 27.352,0.39 24.75,0.707 22.164,1.402 6.504,5.597 -2.789,21.695 1.402,37.351 c 0.77,2.868 1.946,5.52 3.43,7.91 0.055,0.098 0.098,0.196 0.152,0.29 l 293.102,508.043 0.07,0 15.246,26.156 c 1.262,2.199 2.828,4.273 4.707,6.152 5.735,5.731 13.243,8.598 20.758,8.598 z" /><path
         id="path4444"
         style="fill:#000000;fill-opacity:1;fill-rule:evenodd;stroke:none"
         d="m 252.703,120.742 c 8.742,4.734 17.742,8.273 36.539,0 10.067,-4.375 20.586,-4.715 31.68,0 11.07,5.559 22.621,6.773 35.062,0 10.723,-5.449 23.364,-3.258 35.457,1.223 11.973,5.914 21.68,2.953 32.762,-1.223 l 0,-13.727 c -12.109,7.016 -24.219,5.465 -36.328,0 -12.613,-7.007 -21.977,-3.964 -31.047,0 -13.558,8.661 -25.441,5.61 -36.961,0 -13.183,-7 -22.594,-3.359 -32.105,0 -15.879,8.02 -25.59,4.043 -35.27,0 l 0.211,13.727 z" /><path
         id="path4446"
         style="fill:#000000;fill-opacity:1;fill-rule:evenodd;stroke:none"
         d="m 431.063,188.136 0,-110.132 132.57,0 -63.703,110.132 c -23.989,-0.007 -48.34,0.004 -68.867,0 z" /><path
         id="path4448"
         style="fill:#000000;fill-opacity:1;fill-rule:evenodd;stroke:none"
         d="m 252.703,95.41 c 8.742,4.73 17.742,8.273 36.539,0 10.067,-4.375 20.586,-4.719 31.68,0 11.07,5.559 22.621,6.769 35.062,0 10.723,-5.453 23.364,-3.262 35.457,1.223 11.973,5.914 21.68,2.953 32.762,-1.223 l 0,-13.731 c -12.109,7.02 -24.219,5.469 -36.328,0 -12.613,-7.003 -21.977,-3.96 -31.047,0 -13.558,8.665 -25.441,5.614 -36.961,0 -13.183,-6.996 -22.594,-3.355 -32.105,0 -15.879,8.024 -25.59,4.043 -35.27,0 l 0.211,13.731 z" /><path
         id="path4450"
         style="fill:#000000;fill-opacity:1;fill-rule:evenodd;stroke:none"
         d="m 175.543,188.136 -62.918,-110.132 133.199,0 0,110.132 -70.281,0 z" /><path
         id="path4452"
         style="fill:#000000;fill-opacity:1;fill-rule:evenodd;stroke:none"
         d="m 245.82,188.14 162.95,93.563 -17.622,27.734 c 0,0 -108.761,-61.554 -163.144,-92.332 L 245.82,188.14 Z" /></g></g></svg>