<?xml version="1.0" encoding="UTF-8" standalone="no"?>
<svg
   xmlns:dc="http://purl.org/dc/elements/1.1/"
   xmlns:cc="http://creativecommons.org/ns#"
   xmlns:rdf="http://www.w3.org/1999/02/22-rdf-syntax-ns#"
   xmlns:svg="http://www.w3.org/2000/svg"
   xmlns="http://www.w3.org/2000/svg"
   viewBox="0 0 847.15851 743.62274"
   height="743.62274"
   width="847.15851"
   xml:space="preserve"
   version="1.1"
   id="svg3615"><metadata
     id="metadata3621"><rdf:RDF><cc:Work
         rdf:about=""><dc:format>image/svg+xml</dc:format><dc:type
           rdf:resource="http://purl.org/dc/dcmitype/StillImage" /><dc:title></dc:title></cc:Work></rdf:RDF></metadata><defs
     id="defs3619" /><g
     transform="matrix(1.25,0,0,-1.25,0,743.62274)"
     id="g3623"><g
       id="g3625"><path
         id="path3627"
         style="fill:#ffffff;fill-opacity:1;fill-rule:nonzero;stroke:none"
         d="m 338.859,594.5 c 7.512,0 15.024,-2.867 20.758,-8.598 1.879,-1.879 3.445,-3.953 4.707,-6.152 l 15.246,-26.156 0.071,0 293.101,-508.043 c 0.055,-0.094 0.098,-0.192 0.153,-0.29 1.484,-2.39 2.656,-5.042 3.429,-7.91 4.192,-15.656 -5.101,-31.754 -20.762,-35.949 -2.585,-0.695 -5.187,-1.012 -7.734,-1 l -618.074,0 c -16.211,0 -29.352,13.141 -29.352,29.356 0,5.3 1.414,10.281 3.879,14.578 0.02,0.035 0.039,0.062 0.051,0.097 l 304.371,528.411 c 3.859,6.664 5.649,9.304 9.402,13.058 5.731,5.731 13.243,8.598 20.754,8.598 z" /><path
         id="path3629"
         style="fill:#c1121c;fill-opacity:1;fill-rule:nonzero;stroke:none"
         d="m 338.859,587.144 c 7.125,0.051 14.95,-3.593 18.782,-10.402 L 666.934,40.847 c 1.785,-3.648 2.535,-6.82 2.558,-10.449 0,-6.496 -2.875,-12.66 -7.847,-16.844 -4.387,-3.39 -8.536,-5.156 -14.122,-5.156 l -617.906,0 C 25.848,8.363 22.07,9.269 18.637,11.531 12.191,15.426 8.238,22.414 8.23,29.957 c 0.184,3.894 1.145,8 2.879,10.89 l 309.114,535.981 c 0.027,0.047 0.058,0.094 0.089,0.141 0.032,0.046 0.063,0.089 0.094,0.144 1.094,1.758 2.469,3.305 4.043,4.633 3.586,3.109 8.082,4.976 12.821,5.312 0.531,0.051 1.062,0.082 1.589,0.086 z M 647.523,8.398 l 1.524,0 -1.555,0 0.031,0 z M 339.18,480.929 103.477,72.398 l 471.738,0 -236.035,408.531 z" /><path
         id="path3631"
         style="fill:#000000;fill-opacity:1;fill-rule:nonzero;stroke:none"
         d="m 338.859,594.898 c 7.618,0 15.231,-2.906 21.039,-8.719 1.907,-1.898 3.493,-4.007 4.774,-6.23 l 15.129,-25.957 0.07,0 293.215,-508.238 c 0.066,-0.118 0.117,-0.219 0.16,-0.301 1.504,-2.422 2.684,-5.102 3.461,-7.996 C 680.957,21.586 671.535,5.269 655.668,1.015 653.047,0.312 650.41,-0.008 647.828,0 L 29.754,0 C 13.328,0 0,13.328 0,29.758 c 0,5.375 1.438,10.414 3.934,14.773 0.015,0.016 0.027,0.051 0.05,0.098 l 304.364,528.414 c 3.871,6.668 5.695,9.363 9.468,13.136 5.809,5.813 13.426,8.719 21.039,8.719 l 0.004,0 z m 0,-0.398 c -7.511,0 -15.023,-2.867 -20.754,-8.598 -3.753,-3.754 -5.543,-6.394 -9.402,-13.058 L 4.336,44.433 C 4.32,44.398 4.301,44.371 4.281,44.336 1.816,40.039 0.402,35.058 0.402,29.758 0.402,13.543 13.543,0.402 29.754,0.402 l 618.074,0 c 2.547,-0.012 5.149,0.305 7.734,1 15.661,4.195 24.954,20.293 20.762,35.949 -0.769,2.868 -1.945,5.52 -3.429,7.91 -0.055,0.098 -0.098,0.196 -0.153,0.29 l -293.101,508.043 -0.071,0 -15.246,26.156 c -1.262,2.199 -2.828,4.273 -4.707,6.152 -5.734,5.731 -13.242,8.598 -20.758,8.598 z" /><path
         id="path3633"
         style="fill:#000000;fill-opacity:1;fill-rule:evenodd;stroke:none"
         d="m 467.668,209.308 c -1.309,3.313 -25.203,27.012 -38.973,39.586 l 23.957,12.25 -31.543,0.059 -9.41,-10.031 -8.277,8.226 c -3.254,-3.129 -3.231,-10.531 -0.121,-18.492 l -41.156,-5.648 -134.442,0.082 c -2.828,-1.547 -10.148,-0.172 -13.492,-14.493 l -0.07,-54.812 -4.082,-5.106 c 2.214,-6.558 4.281,-13.304 7.117,-19.089 2.89,5.14 5.004,12.05 5.437,21.453 l 0.086,58.593 c 2.653,4.032 5.785,6.532 10.395,4.375 -1.918,-3.257 -3.621,-6.625 -3.438,-11.011 l -0.062,-124.762 15.363,-0.062 c -7.473,18.804 -2.781,37.543 12.008,54.875 l 23.527,-54.911 14.594,0 c -4.996,8.145 -10.809,14.981 -11.898,29.371 0.238,14.356 2.136,27.571 11.144,35.918 l 43.594,-7.613 -4.582,-57.617 14.816,-0.043 c -5.449,16.996 0.461,38.234 10.871,50.395 l 6.614,-50.411 15.359,0.036 c -20.84,53.652 10.898,80.351 34.238,108.171 l 41.5,0.047 c 5.324,1.309 8.356,5.68 10.926,10.664 z" /></g></g></svg>