<?xml version="1.0" encoding="UTF-8" standalone="no"?>
<svg
   xmlns:dc="http://purl.org/dc/elements/1.1/"
   xmlns:cc="http://creativecommons.org/ns#"
   xmlns:rdf="http://www.w3.org/1999/02/22-rdf-syntax-ns#"
   xmlns:svg="http://www.w3.org/2000/svg"
   xmlns="http://www.w3.org/2000/svg"
   viewBox="0 0 847.15851 743.62274"
   height="743.62274"
   width="847.15851"
   xml:space="preserve"
   version="1.1"
   id="svg3571"><metadata
     id="metadata3577"><rdf:RDF><cc:Work
         rdf:about=""><dc:format>image/svg+xml</dc:format><dc:type
           rdf:resource="http://purl.org/dc/dcmitype/StillImage" /><dc:title></dc:title></cc:Work></rdf:RDF></metadata><defs
     id="defs3575" /><g
     transform="matrix(1.25,0,0,-1.25,0,743.62274)"
     id="g3579"><g
       id="g3581"><path
         id="path3583"
         style="fill:#ffffff;fill-opacity:1;fill-rule:nonzero;stroke:none"
         d="m 338.867,594.5 c -7.512,0 -15.023,-2.867 -20.758,-8.598 -1.879,-1.879 -3.445,-3.953 -4.707,-6.152 l -15.246,-26.156 -0.07,0 L 4.984,45.551 C 4.93,45.457 4.887,45.359 4.832,45.261 3.348,42.871 2.176,40.219 1.402,37.351 -2.789,21.695 6.504,5.597 22.164,1.402 c 2.586,-0.695 5.188,-1.012 7.734,-1 l 618.075,0 c 16.211,0 29.351,13.141 29.351,29.356 0,5.3 -1.414,10.281 -3.879,14.578 -0.019,0.035 -0.039,0.062 -0.05,0.097 L 369.023,572.844 c -3.859,6.664 -5.648,9.304 -9.402,13.058 -5.73,5.731 -13.242,8.598 -20.754,8.598 z" /><path
         id="path3585"
         style="fill:#c1121c;fill-opacity:1;fill-rule:nonzero;stroke:none"
         d="m 338.867,587.144 c -7.125,0.051 -14.949,-3.593 -18.781,-10.402 L 10.793,40.847 C 9.008,37.199 8.258,34.027 8.234,30.398 c 0,-6.496 2.875,-12.66 7.848,-16.844 4.387,-3.39 8.535,-5.156 14.121,-5.156 l 617.906,0 c 3.77,-0.035 7.547,0.871 10.981,3.133 6.445,3.895 10.398,10.883 10.406,18.426 -0.183,3.894 -1.144,8 -2.879,10.89 L 357.504,576.828 c -0.027,0.047 -0.059,0.094 -0.09,0.141 -0.031,0.046 -0.062,0.089 -0.094,0.144 -1.093,1.758 -2.468,3.305 -4.043,4.633 -3.586,3.109 -8.082,4.976 -12.82,5.312 -0.531,0.051 -1.062,0.082 -1.59,0.086 z M 30.203,8.398 l -1.523,0 1.554,0 -0.031,0 z M 338.547,480.929 574.25,72.398 l -471.738,0 236.035,408.531 z" /><path
         id="path3587"
         style="fill:#000000;fill-opacity:1;fill-rule:nonzero;stroke:none"
         d="m 338.867,594.898 c -7.617,0 -15.23,-2.906 -21.039,-8.719 -1.906,-1.898 -3.492,-4.007 -4.773,-6.23 l -15.129,-25.957 -0.071,0 L 4.641,45.754 C 4.574,45.636 4.523,45.535 4.48,45.453 2.977,43.031 1.797,40.351 1.02,37.457 -3.23,21.586 6.191,5.269 22.059,1.015 24.68,0.312 27.316,-0.008 29.898,0 l 618.075,0 c 16.425,0 29.754,13.328 29.754,29.758 0,5.375 -1.438,10.414 -3.934,14.773 -0.016,0.016 -0.027,0.051 -0.051,0.098 L 369.379,573.043 c -3.871,6.668 -5.695,9.363 -9.469,13.136 -5.808,5.813 -13.426,8.719 -21.039,8.719 l -0.004,0 z m 0,-0.398 c 7.512,0 15.024,-2.867 20.754,-8.598 3.754,-3.754 5.543,-6.394 9.402,-13.058 L 673.391,44.433 c 0.015,-0.035 0.035,-0.062 0.054,-0.097 2.465,-4.297 3.879,-9.278 3.879,-14.578 0,-16.215 -13.14,-29.356 -29.351,-29.356 l -618.075,0 C 27.352,0.39 24.75,0.707 22.164,1.402 6.504,5.597 -2.789,21.695 1.402,37.351 c 0.77,2.868 1.946,5.52 3.43,7.91 0.055,0.098 0.098,0.196 0.152,0.29 l 293.102,508.043 0.07,0 15.246,26.156 c 1.262,2.199 2.828,4.273 4.707,6.152 5.735,5.731 13.243,8.598 20.758,8.598 z" /><path
         id="path3589"
         style="fill:#000000;fill-opacity:1;fill-rule:nonzero;stroke:none"
         d="m 387.91,179.98 c -2.445,-8.746 2.66,-17.82 11.406,-20.269 8.747,-2.446 17.821,2.66 20.27,11.406 2.445,8.75 -2.66,17.824 -11.406,20.269 -8.75,2.446 -17.825,-2.66 -20.27,-11.406 z" /><path
         id="path3591"
         style="fill:#000000;fill-opacity:1;fill-rule:evenodd;stroke:none"
         d="m 370.145,250.164 c -0.571,1.215 -1.297,2.32 -3.102,2.707 l -76.613,21.437 -46.535,-19.582 c -0.672,-0.769 -1.075,-1.39 -1.34,-1.937 l -7.641,-26.75 c 0.277,-1.731 0.742,-3.278 2.191,-3.828 l 8.836,-2.473 c 7.329,26.191 46.067,15.414 38.723,-10.832 l 99.492,-27.836 c 7.297,26.09 46.344,15.274 39.016,-10.918 l 10.781,-3.016 c 1.039,0.176 1.754,-0.457 3.832,2.29 l 5.512,19.234 c -0.137,1.93 -0.734,2.816 -1.324,3.715 l -53.399,24.969 -18.429,32.82 z" /><path
         id="path3593"
         style="fill:#000000;fill-opacity:1;fill-rule:nonzero;stroke:none"
         d="m 249.621,218.676 c -2.445,-8.747 2.66,-17.821 11.406,-20.266 8.746,-2.449 17.821,2.66 20.27,11.406 2.445,8.746 -2.66,17.82 -11.406,20.266 -8.746,2.449 -17.821,-2.66 -20.27,-11.406 z" /><path
         id="path3595"
         style="fill:#ffffff;fill-opacity:1;fill-rule:evenodd;stroke:none"
         d="m 380.645,219.242 -13.817,24.172 c -0.328,0.484 -0.523,1.082 -1.301,1.18 l -33.937,9.496 -6.453,-23.067 53.082,-14.851 c 2.246,0.234 2.855,1.363 2.426,3.07 z" /><path
         id="path3597"
         style="fill:#ffffff;fill-opacity:1;fill-rule:evenodd;stroke:none"
         d="m 274.047,251.609 20.961,11.895 c 0.531,0.246 1.012,0.652 1.73,0.332 l 28.547,-7.985 -6.453,-23.066 -48.656,13.613 c -2.172,1.102 1.726,3.36 3.871,5.211 z" /><path
         id="path3599"
         style="fill:#000000;fill-opacity:1;fill-rule:evenodd;stroke:none"
         d="m 259.25,189.515 0,-108.273 -142.398,0 62.586,108.281 79.812,-0.004 0,-0.004 z" /><path
         id="path3601"
         style="fill:#000000;fill-opacity:1;fill-rule:evenodd;stroke:none"
         d="m 282.957,128.554 c -6.66,-0.015 -11.57,-2.253 -16.402,-4.871 l -0.219,-13.484 c 9.508,3.973 19.074,7.883 34.676,0 9.34,-3.297 18.582,-6.875 31.535,0 11.316,5.516 22.976,8.512 36.297,0 8.91,-3.891 18.101,-6.879 30.492,0 5.598,2.531 11.215,4.195 16.812,4.543 4.926,0.023 10.481,-1.172 17.145,-4.543 9.344,-3.297 18.586,-6.875 31.539,0 11.313,5.516 23.004,8.512 36.324,0 8.91,-3.891 18.102,-6.879 30.492,0 0.887,-0.215 5.477,2.207 8.391,3.746 0.586,0.309 -3.851,7.531 -5.586,10.922 -11.879,-4.402 -23.59,-6.535 -34.125,-1.184 -12.219,6.653 -23.578,5.461 -34.453,0 -10.797,-4.589 -21.043,-4.297 -30.848,-0.109 l 0,0.109 c -0.82,0.313 -1.613,0.59 -2.422,0.883 -17.003,6.926 -25.496,3.582 -33.738,-0.883 l 0,-0.191 c -10.637,-3.41 -21.484,-4.566 -30.847,0.191 -12.223,6.653 -23.582,5.461 -34.454,0 -10.898,-4.632 -21.238,-4.297 -31.125,0 -8.078,3.559 -14.304,4.887 -19.484,4.871 z" /><path
         id="path3603"
         style="fill:#000000;fill-opacity:1;fill-rule:evenodd;stroke:none"
         d="m 283.316,104.082 c -6.66,-0.016 -11.574,-2.254 -16.402,-4.871 l -0.223,-13.485 c 9.512,3.973 19.075,7.879 34.676,0 9.344,-3.297 18.586,-6.875 31.535,0 11.317,5.512 22.981,8.508 36.301,0 8.906,-3.894 18.098,-6.882 30.488,0 5.602,2.528 11.215,4.196 16.817,4.543 4.922,0.02 10.476,-1.175 17.144,-4.543 9.34,-3.297 18.582,-6.875 31.536,0 11.316,5.512 23.007,8.508 36.324,0 8.91,-3.894 18.101,-6.882 30.492,0 0.887,-0.218 5.262,2.719 8.394,3.743 6.942,2.273 14.981,-1.02 13.125,1.804 -1.843,2.809 -5.296,10.238 -6.89,11.996 -1.07,1.184 -9.094,-2.203 -11.82,-2.875 -11.883,-4.402 -23.59,-6.539 -34.125,-1.183 -12.219,6.652 -23.579,5.461 -34.454,0 -10.8,-4.59 -21.043,-4.297 -30.851,-0.11 l 0,0.11 c -0.82,0.308 -1.613,0.59 -2.418,0.883 -17.008,6.925 -25.496,3.582 -33.738,-0.883 l 0,-0.192 c -10.641,-3.41 -21.489,-4.566 -30.852,0.192 -12.219,6.652 -23.578,5.461 -34.453,0 -10.899,-4.633 -21.234,-4.297 -31.125,0 -8.078,3.554 -14.305,4.883 -19.481,4.871 z" /></g></g></svg>