<?xml version="1.0" encoding="UTF-8" standalone="no"?>
<svg
   xmlns:dc="http://purl.org/dc/elements/1.1/"
   xmlns:cc="http://creativecommons.org/ns#"
   xmlns:rdf="http://www.w3.org/1999/02/22-rdf-syntax-ns#"
   xmlns:svg="http://www.w3.org/2000/svg"
   xmlns="http://www.w3.org/2000/svg"
   viewBox="0 0 847.15851 743.62274"
   height="743.62274"
   width="847.15851"
   xml:space="preserve"
   version="1.1"
   id="svg3434"><metadata
     id="metadata3440"><rdf:RDF><cc:Work
         rdf:about=""><dc:format>image/svg+xml</dc:format><dc:type
           rdf:resource="http://purl.org/dc/dcmitype/StillImage" /><dc:title></dc:title></cc:Work></rdf:RDF></metadata><defs
     id="defs3438" /><g
     transform="matrix(1.25,0,0,-1.25,0,743.62274)"
     id="g3442"><g
       id="g3444"><path
         id="path3446"
         style="fill:#ffffff;fill-opacity:1;fill-rule:nonzero;stroke:none"
         d="m 338.859,594.5 c 7.512,0 15.024,-2.867 20.758,-8.598 1.879,-1.879 3.445,-3.953 4.707,-6.152 l 15.246,-26.156 0.067,0 293.105,-508.043 c 0.055,-0.094 0.098,-0.192 0.153,-0.29 1.484,-2.39 2.656,-5.042 3.425,-7.91 4.192,-15.656 -5.097,-31.754 -20.758,-35.949 -2.585,-0.695 -5.187,-1.012 -7.738,-1 l -618.07,0 c -16.211,0 -29.352,13.141 -29.352,29.356 0,5.3 1.414,10.281 3.879,14.578 0.02,0.035 0.035,0.062 0.047,0.097 l 304.371,528.411 c 3.863,6.664 5.653,9.304 9.406,13.058 5.731,5.731 13.243,8.598 20.754,8.598 z" /><path
         id="path3448"
         style="fill:#c1121c;fill-opacity:1;fill-rule:nonzero;stroke:none"
         d="m 338.859,587.144 c 7.125,0.051 14.95,-3.593 18.778,-10.402 L 666.934,40.847 c 1.785,-3.648 2.535,-6.82 2.558,-10.449 0,-6.496 -2.875,-12.66 -7.847,-16.844 -4.387,-3.39 -8.536,-5.156 -14.122,-5.156 l -617.906,0 C 25.848,8.363 22.07,9.269 18.637,11.531 12.188,15.426 8.238,22.414 8.23,29.957 c 0.184,3.894 1.145,8 2.879,10.89 l 309.114,535.981 c 0.027,0.047 0.058,0.094 0.089,0.141 0.032,0.046 0.063,0.089 0.094,0.144 1.094,1.758 2.469,3.305 4.039,4.633 3.59,3.109 8.086,4.976 12.821,5.312 0.535,0.051 1.062,0.082 1.593,0.086 z M 647.523,8.398 l 1.524,0 -1.555,0 0.031,0 z M 339.18,480.929 103.477,72.398 l 471.738,0 -236.035,408.531 z" /><path
         id="path3450"
         style="fill:#000000;fill-opacity:1;fill-rule:nonzero;stroke:none"
         d="m 338.859,594.898 c 7.618,0 15.231,-2.906 21.039,-8.719 1.907,-1.898 3.493,-4.007 4.774,-6.23 l 15.129,-25.957 0.07,0 293.211,-508.238 c 0.07,-0.118 0.117,-0.219 0.164,-0.301 1.504,-2.422 2.684,-5.102 3.457,-7.996 C 680.953,21.586 671.535,5.269 655.668,1.015 653.047,0.312 650.41,-0.008 647.824,0 L 29.754,0 C 13.324,0 0,13.328 0,29.758 c 0,5.375 1.438,10.414 3.934,14.773 0.011,0.016 0.027,0.051 0.05,0.098 l 304.364,528.414 c 3.871,6.668 5.695,9.363 9.468,13.136 5.809,5.813 13.426,8.719 21.039,8.719 l 0.004,0 z m 0,-0.398 c -7.511,0 -15.023,-2.867 -20.754,-8.598 -3.753,-3.754 -5.543,-6.394 -9.406,-13.058 L 4.332,44.433 C 4.316,44.398 4.301,44.371 4.281,44.336 1.816,40.039 0.402,35.058 0.402,29.758 0.402,13.543 13.543,0.402 29.754,0.402 l 618.07,0 c 2.551,-0.012 5.153,0.305 7.738,1 15.661,4.195 24.95,20.293 20.758,35.949 -0.765,2.868 -1.941,5.52 -3.425,7.91 -0.055,0.098 -0.098,0.196 -0.153,0.29 l -293.105,508.043 -0.067,0 -15.246,26.156 c -1.262,2.199 -2.828,4.273 -4.707,6.152 -5.734,5.731 -13.242,8.598 -20.758,8.598 z" /><path
         id="path3452"
         style="fill:#000000;fill-opacity:1;fill-rule:nonzero;stroke:none"
         d="m 375.133,102.574 -18.438,-10.633 -12.636,107.078 -64.336,-33.437 -3.532,-36.481 -11.066,-6.402 -11.789,37.465 -26.559,28.969 11.067,6.386 33.363,-15.183 61.117,38.976 -86.41,64.504 18.441,10.633 110.903,-48.281 c 10.492,6.308 21.051,12.547 31.652,18.668 13.238,7.64 27.082,8.488 30.91,1.871 3.828,-6.656 -3.828,-18.215 -17.07,-25.852 -10.621,-6.125 -21.266,-12.16 -31.992,-18.07" /></g></g></svg>