<?xml version="1.0" encoding="UTF-8" standalone="no"?>
<svg
   xmlns:dc="http://purl.org/dc/elements/1.1/"
   xmlns:cc="http://creativecommons.org/ns#"
   xmlns:rdf="http://www.w3.org/1999/02/22-rdf-syntax-ns#"
   xmlns:svg="http://www.w3.org/2000/svg"
   xmlns="http://www.w3.org/2000/svg"
   viewBox="0 0 847.15851 743.62274"
   height="743.62274"
   width="847.15851"
   xml:space="preserve"
   version="1.1"
   id="svg4600"><metadata
     id="metadata4606"><rdf:RDF><cc:Work
         rdf:about=""><dc:format>image/svg+xml</dc:format><dc:type
           rdf:resource="http://purl.org/dc/dcmitype/StillImage" /><dc:title></dc:title></cc:Work></rdf:RDF></metadata><defs
     id="defs4604" /><g
     transform="matrix(1.25,0,0,-1.25,0,743.62274)"
     id="g4608"><g
       id="g4610"><path
         id="path4612"
         style="fill:#ffffff;fill-opacity:1;fill-rule:nonzero;stroke:none"
         d="m 338.867,594.5 c -7.512,0 -15.023,-2.867 -20.758,-8.598 -1.879,-1.879 -3.445,-3.953 -4.707,-6.152 l -15.246,-26.156 -0.07,0 L 4.984,45.551 C 4.93,45.457 4.887,45.359 4.832,45.261 3.348,42.871 2.176,40.219 1.402,37.351 -2.789,21.695 6.504,5.597 22.164,1.402 c 2.586,-0.695 5.188,-1.012 7.734,-1 l 618.075,0 c 16.211,0 29.351,13.141 29.351,29.356 0,5.3 -1.414,10.281 -3.879,14.578 -0.019,0.035 -0.039,0.062 -0.05,0.097 L 369.023,572.844 c -3.859,6.664 -5.648,9.304 -9.402,13.058 -5.73,5.731 -13.242,8.598 -20.754,8.598 z" /><path
         id="path4614"
         style="fill:#c1121c;fill-opacity:1;fill-rule:nonzero;stroke:none"
         d="m 338.867,587.144 c -7.125,0.051 -14.949,-3.593 -18.781,-10.402 L 10.793,40.847 C 9.008,37.199 8.258,34.027 8.234,30.398 c 0,-6.496 2.875,-12.66 7.848,-16.844 4.387,-3.39 8.535,-5.156 14.121,-5.156 l 617.906,0 c 3.77,-0.035 7.547,0.871 10.981,3.133 6.445,3.895 10.398,10.883 10.406,18.426 -0.183,3.894 -1.144,8 -2.879,10.89 L 357.504,576.828 c -0.027,0.047 -0.059,0.094 -0.09,0.141 -0.031,0.046 -0.062,0.089 -0.094,0.144 -1.093,1.758 -2.468,3.305 -4.043,4.633 -3.586,3.109 -8.082,4.976 -12.82,5.312 -0.531,0.051 -1.062,0.082 -1.59,0.086 z M 30.203,8.398 l -1.523,0 1.554,0 -0.031,0 z M 338.547,480.929 574.25,72.398 l -471.738,0 236.035,408.531 z" /><path
         id="path4616"
         style="fill:#000000;fill-opacity:1;fill-rule:nonzero;stroke:none"
         d="m 338.867,594.898 c -7.617,0 -15.23,-2.906 -21.039,-8.719 -1.906,-1.898 -3.492,-4.007 -4.773,-6.23 l -15.129,-25.957 -0.071,0 L 4.641,45.754 C 4.574,45.636 4.523,45.535 4.48,45.453 2.977,43.031 1.797,40.351 1.02,37.457 -3.23,21.586 6.191,5.269 22.059,1.015 24.68,0.312 27.316,-0.008 29.898,0 l 618.075,0 c 16.425,0 29.754,13.328 29.754,29.758 0,5.375 -1.438,10.414 -3.934,14.773 -0.016,0.016 -0.027,0.051 -0.051,0.098 L 369.379,573.043 c -3.871,6.668 -5.695,9.363 -9.469,13.136 -5.808,5.813 -13.426,8.719 -21.039,8.719 l -0.004,0 z m 0,-0.398 c 7.512,0 15.024,-2.867 20.754,-8.598 3.754,-3.754 5.543,-6.394 9.402,-13.058 L 673.391,44.433 c 0.015,-0.035 0.035,-0.062 0.054,-0.097 2.465,-4.297 3.879,-9.278 3.879,-14.578 0,-16.215 -13.14,-29.356 -29.351,-29.356 l -618.075,0 C 27.352,0.39 24.75,0.707 22.164,1.402 6.504,5.597 -2.789,21.695 1.402,37.351 c 0.77,2.868 1.946,5.52 3.43,7.91 0.055,0.098 0.098,0.196 0.152,0.29 l 293.102,508.043 0.07,0 15.246,26.156 c 1.262,2.199 2.828,4.273 4.707,6.152 5.735,5.731 13.243,8.598 20.758,8.598 z" /><path
         id="path4618"
         style="fill:#000000;fill-opacity:1;fill-rule:nonzero;stroke:none"
         d="M 116.582,80.508 227.961,273.304 561.922,80.508" /><path
         id="path4620"
         style="fill:#000000;fill-opacity:1;fill-rule:nonzero;stroke:none"
         d="m 267.914,271.367 36.137,62.129 -14.863,-1.555 6.476,11.133 14.832,1.504 10.531,-6.125 -42.582,-73.211 -10.531,6.125 z" /><path
         id="path4622"
         style="fill:#000000;fill-opacity:1;fill-rule:nonzero;stroke:none"
         d="m 338.098,258.933 18.054,31.043 c 2.039,3.508 2.684,6.805 1.922,9.887 -0.722,3.059 -2.625,5.484 -5.699,7.273 -3.109,1.809 -6.172,2.27 -9.191,1.387 -3.02,-0.883 -5.551,-3.078 -7.594,-6.59 l -18.055,-31.039 c -2.058,-3.543 -2.726,-6.847 -2.004,-9.91 0.746,-3.027 2.672,-5.445 5.782,-7.254 3.074,-1.789 6.113,-2.258 9.113,-1.406 3.051,0.863 5.609,3.066 7.672,6.609 z m -31.391,17.453 18.754,32.247 c 3.906,6.718 9.027,10.675 15.359,11.867 6.352,1.23 12.235,0.269 17.653,-2.883 5.379,-3.129 9.109,-7.758 11.183,-13.887 2.125,-6.113 1.235,-12.531 -2.676,-19.25 l -18.753,-32.242 c -3.911,-6.723 -9.047,-10.668 -15.411,-11.844 -6.332,-1.191 -12.187,-0.222 -17.57,2.907 -5.418,3.152 -9.172,7.773 -11.266,13.867 -2.089,6.093 -1.183,12.5 2.727,19.218 z" /><path
         id="path4624"
         style="fill:#000000;fill-opacity:1;fill-rule:nonzero;stroke:none"
         d="m 354.605,221.14 76.899,53.164 7.133,-4.152 -76.813,-53.164 -7.219,4.152 z m 50.364,44.95 c -2.887,-5.055 -9.387,-6.77 -14.442,-3.879 -5.054,2.886 -6.769,9.386 -3.882,14.441 l 5.328,9.117 c 2.886,5.055 9.386,6.86 14.441,3.879 5.055,-2.887 6.77,-9.387 3.789,-14.441 l -5.234,-9.117 z m -5.235,3.07 5.325,9.117 c 1.171,2.164 0.453,4.965 -1.715,6.137 -2.168,1.262 -4.875,0.543 -6.137,-1.625 l -5.324,-9.117 c -1.266,-2.164 -0.453,-4.965 1.715,-6.227 2.164,-1.266 4.871,-0.543 6.136,1.715 z m -11.375,-43.957 -5.324,-9.117 c -2.887,-5.055 -1.172,-11.551 3.883,-14.442 5.055,-2.976 11.551,-1.172 14.441,3.883 l 5.235,9.117 c 2.976,5.055 1.172,11.461 -3.883,14.442 -4.965,2.886 -11.461,1.172 -14.352,-3.883 z m 5.239,-2.977 c 1.172,2.075 3.968,2.887 6.136,1.625 2.164,-1.265 2.887,-4.062 1.625,-6.14 l -5.234,-9.207 c -1.266,-2.164 -4.062,-2.887 -6.23,-1.621 -2.165,1.261 -2.887,3.968 -1.625,6.136 l 5.328,9.207 z" /><path
         id="path4626"
         style="fill:#000000;fill-opacity:1;fill-rule:nonzero;stroke:none"
         d="m 354.605,221.14 76.899,53.164 7.133,-4.152 -76.813,-53.164 -7.219,4.152 z m 50.364,44.95 c -2.887,-5.055 -9.387,-6.77 -14.442,-3.879 -5.054,2.886 -6.769,9.386 -3.882,14.441 l 5.328,9.117 c 2.886,5.055 9.386,6.86 14.441,3.879 5.055,-2.887 6.77,-9.387 3.789,-14.441 l -5.234,-9.117 z m -5.235,3.07 5.325,9.117 c 1.171,2.164 0.453,4.965 -1.715,6.137 -2.168,1.262 -4.875,0.543 -6.137,-1.625 l -5.324,-9.117 c -1.266,-2.164 -0.453,-4.965 1.715,-6.227 2.164,-1.266 4.871,-0.543 6.136,1.715 z m -11.375,-43.957 -5.324,-9.117 c -2.887,-5.055 -1.172,-11.551 3.883,-14.442 5.055,-2.976 11.551,-1.172 14.441,3.883 l 5.235,9.117 c 2.976,5.055 1.172,11.461 -3.883,14.442 -4.965,2.886 -11.461,1.172 -14.352,-3.883 z m 5.239,-2.977 c 1.172,2.075 3.968,2.887 6.136,1.625 2.164,-1.265 2.887,-4.062 1.625,-6.14 l -5.234,-9.207 c -1.266,-2.164 -4.062,-2.887 -6.23,-1.621 -2.165,1.261 -2.887,3.968 -1.625,6.136 l 5.328,9.207 z" /></g></g></svg>