<?xml version="1.0" encoding="UTF-8" standalone="no"?>
<svg
   xmlns:dc="http://purl.org/dc/elements/1.1/"
   xmlns:cc="http://creativecommons.org/ns#"
   xmlns:rdf="http://www.w3.org/1999/02/22-rdf-syntax-ns#"
   xmlns:svg="http://www.w3.org/2000/svg"
   xmlns="http://www.w3.org/2000/svg"
   viewBox="0 0 847.15851 743.62274"
   height="743.62274"
   width="847.15851"
   xml:space="preserve"
   version="1.1"
   id="svg4162"><metadata
     id="metadata4168"><rdf:RDF><cc:Work
         rdf:about=""><dc:format>image/svg+xml</dc:format><dc:type
           rdf:resource="http://purl.org/dc/dcmitype/StillImage" /><dc:title></dc:title></cc:Work></rdf:RDF></metadata><defs
     id="defs4166" /><g
     transform="matrix(1.25,0,0,-1.25,0,743.62274)"
     id="g4170"><g
       id="g4172"><path
         id="path4174"
         style="fill:#ffffff;fill-opacity:1;fill-rule:nonzero;stroke:none"
         d="m 338.867,594.5 c -7.512,0 -15.023,-2.867 -20.758,-8.598 -1.879,-1.879 -3.445,-3.953 -4.707,-6.152 l -15.246,-26.156 -0.07,0 L 4.984,45.551 C 4.93,45.457 4.887,45.359 4.832,45.261 3.348,42.871 2.176,40.219 1.402,37.351 -2.789,21.695 6.504,5.597 22.164,1.402 c 2.586,-0.695 5.188,-1.012 7.734,-1 l 618.075,0 c 16.211,0 29.351,13.141 29.351,29.356 0,5.3 -1.414,10.281 -3.879,14.578 -0.019,0.035 -0.039,0.062 -0.05,0.097 L 369.023,572.844 c -3.859,6.664 -5.648,9.304 -9.402,13.058 -5.73,5.731 -13.242,8.598 -20.754,8.598 z" /><path
         id="path4176"
         style="fill:#c1121c;fill-opacity:1;fill-rule:nonzero;stroke:none"
         d="m 338.867,587.144 c -7.125,0.051 -14.949,-3.593 -18.781,-10.402 L 10.793,40.847 C 9.008,37.199 8.258,34.027 8.234,30.398 c 0,-6.496 2.875,-12.66 7.848,-16.844 4.387,-3.39 8.535,-5.156 14.121,-5.156 l 617.906,0 c 3.77,-0.035 7.547,0.871 10.981,3.133 6.445,3.895 10.398,10.883 10.406,18.426 -0.183,3.894 -1.144,8 -2.879,10.89 L 357.504,576.828 c -0.027,0.047 -0.059,0.094 -0.09,0.141 -0.031,0.046 -0.062,0.089 -0.094,0.144 -1.093,1.758 -2.468,3.305 -4.043,4.633 -3.586,3.109 -8.082,4.976 -12.82,5.312 -0.531,0.051 -1.062,0.082 -1.59,0.086 z M 30.203,8.398 l -1.523,0 1.554,0 -0.031,0 z M 338.547,480.929 574.25,72.398 l -471.738,0 236.035,408.531 z" /><path
         id="path4178"
         style="fill:#000000;fill-opacity:1;fill-rule:nonzero;stroke:none"
         d="m 338.867,594.898 c -7.617,0 -15.23,-2.906 -21.039,-8.719 -1.906,-1.898 -3.492,-4.007 -4.773,-6.23 l -15.129,-25.957 -0.071,0 L 4.641,45.754 C 4.574,45.636 4.523,45.535 4.48,45.453 2.977,43.031 1.797,40.351 1.02,37.457 -3.23,21.586 6.191,5.269 22.059,1.015 24.68,0.312 27.316,-0.008 29.898,0 l 618.075,0 c 16.425,0 29.754,13.328 29.754,29.758 0,5.375 -1.438,10.414 -3.934,14.773 -0.016,0.016 -0.027,0.051 -0.051,0.098 L 369.379,573.043 c -3.871,6.668 -5.695,9.363 -9.469,13.136 -5.808,5.813 -13.426,8.719 -21.039,8.719 l -0.004,0 z m 0,-0.398 c 7.512,0 15.024,-2.867 20.754,-8.598 3.754,-3.754 5.543,-6.394 9.402,-13.058 L 673.391,44.433 c 0.015,-0.035 0.035,-0.062 0.054,-0.097 2.465,-4.297 3.879,-9.278 3.879,-14.578 0,-16.215 -13.14,-29.356 -29.351,-29.356 l -618.075,0 C 27.352,0.39 24.75,0.707 22.164,1.402 6.504,5.597 -2.789,21.695 1.402,37.351 c 0.77,2.868 1.946,5.52 3.43,7.91 0.055,0.098 0.098,0.196 0.152,0.29 l 293.102,508.043 0.07,0 15.246,26.156 c 1.262,2.199 2.828,4.273 4.707,6.152 5.735,5.731 13.243,8.598 20.758,8.598 z" /><path
         id="path4180"
         style="fill:#000000;fill-opacity:1;fill-rule:nonzero;stroke:none"
         d="M 560.32,80.508 448.941,273.304 114.98,80.508" /><path
         id="path4182"
         style="fill:#000000;fill-opacity:1;fill-rule:nonzero;stroke:none"
         d="m 280.934,199.222 -35.739,62.364 -6.082,-13.649 -6.402,11.172 6.113,13.602 10.567,6.054 42.113,-73.484 -10.57,-6.059 z" /><path
         id="path4184"
         style="fill:#000000;fill-opacity:1;fill-rule:nonzero;stroke:none"
         d="m 367.773,249.187 -7.589,93.18 7.164,4.102 7.632,-93.102 -7.207,-4.18 z m -13.742,66.094 c 2.934,-5.031 1.168,-11.516 -3.859,-14.449 -5.031,-2.934 -11.516,-1.168 -14.449,3.859 l -5.231,9.172 c -2.933,5.027 -1.25,11.559 3.86,14.445 5.027,2.934 11.511,1.172 14.402,-3.937 l 5.277,-9.09 z m -5.277,-3 -5.231,9.168 c -1.289,2.102 -4.074,2.875 -6.171,1.586 -2.18,-1.246 -2.907,-3.949 -1.664,-6.129 l 5.234,-9.168 c 1.242,-2.18 4.07,-2.875 6.25,-1.629 2.176,1.242 2.906,3.949 1.582,6.172 z m 32.383,-31.828 5.23,-9.168 c 2.934,-5.031 9.418,-6.793 14.449,-3.859 5.106,2.886 6.793,9.418 3.86,14.445 l -5.278,9.094 c -2.89,5.105 -9.339,6.746 -14.449,3.859 -4.984,-2.855 -6.746,-9.344 -3.812,-14.371 z m 5.199,3.047 c -1.215,2.051 -0.52,4.883 1.66,6.125 2.176,1.246 4.965,0.472 6.125,-1.66 l 5.356,-9.137 c 1.246,-2.18 0.472,-4.961 -1.707,-6.207 -2.176,-1.242 -4.883,-0.516 -6.125,1.66 l -5.309,9.219 z" /><path
         id="path4186"
         style="fill:#000000;fill-opacity:1;fill-rule:nonzero;stroke:none"
         d="m 367.773,249.187 -7.589,93.18 7.164,4.102 7.632,-93.102 -7.207,-4.18 z m -13.742,66.094 c 2.934,-5.031 1.168,-11.516 -3.859,-14.449 -5.031,-2.934 -11.516,-1.168 -14.449,3.859 l -5.231,9.172 c -2.933,5.027 -1.25,11.559 3.86,14.445 5.027,2.934 11.511,1.172 14.402,-3.937 l 5.277,-9.09 z m -5.277,-3 -5.231,9.168 c -1.289,2.102 -4.074,2.875 -6.171,1.586 -2.18,-1.246 -2.907,-3.949 -1.664,-6.129 l 5.234,-9.168 c 1.242,-2.18 4.07,-2.875 6.25,-1.629 2.176,1.242 2.906,3.949 1.582,6.172 z m 32.383,-31.828 5.23,-9.168 c 2.934,-5.031 9.418,-6.793 14.449,-3.859 5.106,2.886 6.793,9.418 3.86,14.445 l -5.278,9.094 c -2.89,5.105 -9.339,6.746 -14.449,3.859 -4.984,-2.855 -6.746,-9.344 -3.812,-14.371 z m 5.199,3.047 c -1.215,2.051 -0.52,4.883 1.66,6.125 2.176,1.246 4.965,0.472 6.125,-1.66 l 5.356,-9.137 c 1.246,-2.18 0.472,-4.961 -1.707,-6.207 -2.176,-1.242 -4.883,-0.516 -6.125,1.66 l -5.309,9.219 z" /><path
         id="path4188"
         style="fill:#000000;fill-opacity:1;fill-rule:nonzero;stroke:none"
         d="m 307.66,215.332 -5.648,9.781 7.902,52.008 c 0.297,2.031 0.27,3.726 -0.07,5.082 -0.34,1.355 -0.828,2.586 -1.461,3.683 -1.461,2.528 -3.711,4.356 -6.754,5.481 -3.07,1.156 -6.149,0.844 -9.242,-0.941 -2.828,-1.633 -4.711,-3.985 -5.645,-7.055 -0.922,-3.016 -0.554,-6.219 1.098,-9.613 l -10.434,-6.024 c -3.367,5.91 -4.218,12.027 -2.547,18.36 1.649,6.363 5.219,11.128 10.707,14.3 6.055,3.496 12.278,4.36 18.664,2.59 6.407,-1.715 11.266,-5.449 14.59,-11.207 2.844,-4.922 3.856,-10.016 3.035,-15.281 l -6.464,-42.86 27.75,16.02 5.992,-10.379 -41.473,-23.945 z" /></g></g></svg>