<?xml version="1.0" encoding="UTF-8" standalone="no"?>
<svg
   xmlns:dc="http://purl.org/dc/elements/1.1/"
   xmlns:cc="http://creativecommons.org/ns#"
   xmlns:rdf="http://www.w3.org/1999/02/22-rdf-syntax-ns#"
   xmlns:svg="http://www.w3.org/2000/svg"
   xmlns="http://www.w3.org/2000/svg"
   id="svg4889"
   version="1.1"
   xml:space="preserve"
   width="847.15863"
   height="743.62268"
   viewBox="0 0 847.15863 743.62268"><metadata
     id="metadata4895"><rdf:RDF><cc:Work
         rdf:about=""><dc:format>image/svg+xml</dc:format><dc:type
           rdf:resource="http://purl.org/dc/dcmitype/StillImage" /><dc:title></dc:title></cc:Work></rdf:RDF></metadata><defs
     id="defs4893" /><g
     transform="matrix(-1,0,0,1,847.15851,0)"
     id="g4190"><g
       transform="matrix(1.25,0,0,-1.25,0,743.62267)"
       id="g4897"><g
         id="g4899"><path
           id="path4901"
           style="fill:#ffffff;fill-opacity:1;fill-rule:nonzero;stroke:none"
           d="m 338.859,594.5 c 7.512,0 15.028,-2.867 20.758,-8.598 1.879,-1.879 3.445,-3.953 4.707,-6.152 l 15.246,-26.157 0.071,0 293.101,-508.039 c 0.055,-0.097 0.098,-0.195 0.153,-0.293 1.488,-2.394 2.656,-5.043 3.425,-7.91 4.196,-15.656 -5.097,-31.754 -20.758,-35.949 -2.585,-0.695 -5.183,-1.012 -7.738,-1 l -618.066,0 c -16.215,0 -29.356,13.141 -29.356,29.356 0,5.304 1.414,10.281 3.879,14.578 0.02,0.031 0.035,0.062 0.051,0.097 l 304.367,528.41 c 3.863,6.665 5.653,9.305 9.406,13.059 5.731,5.731 13.243,8.598 20.754,8.598 z" /><path
           id="path4903"
           style="fill:#c1121c;fill-opacity:1;fill-rule:nonzero;stroke:none"
           d="m 338.859,587.144 c 7.125,0.051 14.95,-3.59 18.782,-10.406 L 666.934,40.847 c 1.785,-3.648 2.535,-6.82 2.558,-10.449 0,-6.496 -2.875,-12.66 -7.847,-16.84 -4.383,-3.394 -8.536,-5.16 -14.122,-5.16 l -617.906,0 C 25.848,8.363 22.07,9.269 18.641,11.531 12.188,15.429 8.238,22.414 8.23,29.957 c 0.184,3.894 1.145,8 2.879,10.89 l 309.114,535.981 c 0.027,0.047 0.058,0.094 0.089,0.14 0.032,0.047 0.063,0.094 0.094,0.145 1.098,1.754 2.473,3.305 4.039,4.633 3.59,3.109 8.086,4.976 12.825,5.316 0.531,0.047 1.062,0.078 1.589,0.082 z M 647.523,8.398 l 1.524,0 -1.555,0 0.031,0 z M 339.18,480.933 103.477,72.398 l 471.738,0 -236.035,408.535 z" /><path
           id="path4905"
           style="fill:#000000;fill-opacity:1;fill-rule:nonzero;stroke:none"
           d="m 338.859,594.898 c 7.618,0 15.231,-2.906 21.039,-8.715 1.907,-1.902 3.493,-4.008 4.774,-6.234 l 15.129,-25.957 0.07,0 293.215,-508.238 c 0.066,-0.118 0.113,-0.219 0.16,-0.301 1.504,-2.422 2.684,-5.102 3.461,-7.996 C 680.957,21.586 671.535,5.269 655.668,1.015 653.047,0.312 650.41,-0.008 647.824,0 L 29.758,0 C 13.328,0 0,13.328 0,29.758 c 0,5.375 1.438,10.417 3.934,14.773 0.011,0.019 0.027,0.051 0.05,0.098 l 304.364,528.414 c 3.871,6.668 5.695,9.363 9.468,13.14 5.809,5.809 13.426,8.715 21.039,8.715 l 0.004,0 z m 0,-0.398 c -7.511,0 -15.023,-2.867 -20.754,-8.598 -3.753,-3.754 -5.543,-6.394 -9.406,-13.059 L 4.336,44.433 C 4.316,44.398 4.301,44.367 4.281,44.336 1.816,40.039 0.402,35.062 0.402,29.758 0.402,13.543 13.543,0.402 29.758,0.402 l 618.066,0 c 2.555,-0.012 5.153,0.305 7.738,1 15.661,4.195 24.954,20.293 20.758,35.949 -0.765,2.867 -1.937,5.516 -3.425,7.91 -0.055,0.098 -0.098,0.196 -0.153,0.293 l -293.101,508.039 -0.071,0 -15.246,26.157 c -1.262,2.199 -2.828,4.273 -4.707,6.152 -5.73,5.731 -13.242,8.598 -20.758,8.598 z" /></g></g><g
       id="g3366"
       transform="matrix(-1.4152643,0,0,-1.4152643,847.15999,743.62249)"><path
         d="m 288.223,279.151 -60.473,-16.477 -0.078,-0.301 0,2.301 -9.699,0 0,-189.601 9.699,-0.075 0,176.551 14.578,-52.75 151.297,-62.875 c 1.215,-0.496 1.922,-1.496 3.801,-1.324 15.648,9.031 24.222,23.453 24.601,41.023 -12.699,10.856 -89.156,69.016 -133.726,103.528 z m -11,-9.352 C 261.52,258.326 247.867,241.237 243.125,212.248 l -11.102,46.602 45.2,10.949 z m 38.652,-20.449 26.023,-19.527 c -20.343,-11.207 -29.734,-31.336 -31.023,-53.848 l -29.078,12.25 c 0.441,19.273 5.703,41.242 34.078,61.125 z m 54.773,-41.074 23.426,-17.578 C 381.199,179.823 375.215,165.627 370.473,150.85 L 344,161.998 c 2.762,17.133 9.25,33.227 26.648,46.278 z m 45.801,-34.375 1,-0.75 0.223,0.125 c -1.711,-14.227 -9.887,-24.504 -19.574,-34.051 l -0.801,0.348 c 2.711,12.781 9.332,24.132 19.152,34.328 z"
         style="fill:#000000;fill-opacity:1;fill-rule:evenodd;stroke:none"
         id="path3372" /></g></g></svg>