<?xml version="1.0" encoding="UTF-8" standalone="no"?>
<svg
   xmlns:dc="http://purl.org/dc/elements/1.1/"
   xmlns:cc="http://creativecommons.org/ns#"
   xmlns:rdf="http://www.w3.org/1999/02/22-rdf-syntax-ns#"
   xmlns:svg="http://www.w3.org/2000/svg"
   xmlns="http://www.w3.org/2000/svg"
   viewBox="0 0 847.15863 743.62268"
   height="743.62268"
   width="847.15863"
   xml:space="preserve"
   version="1.1"
   id="svg4170"><metadata
     id="metadata4176"><rdf:RDF><cc:Work
         rdf:about=""><dc:format>image/svg+xml</dc:format><dc:type
           rdf:resource="http://purl.org/dc/dcmitype/StillImage" /><dc:title></dc:title></cc:Work></rdf:RDF></metadata><defs
     id="defs4174" /><g
     transform="matrix(1.25,0,0,-1.25,0,743.62267)"
     id="g4178"><g
       id="g4180"><path
         id="path4182"
         style="fill:#ffffff;fill-opacity:1;fill-rule:nonzero;stroke:none"
         d="m 338.859,594.5 c 7.512,0 15.028,-2.867 20.758,-8.598 1.879,-1.879 3.446,-3.953 4.707,-6.152 l 15.246,-26.157 0.071,0 293.101,-508.039 c 0.055,-0.097 0.098,-0.195 0.153,-0.293 1.488,-2.394 2.656,-5.043 3.425,-7.91 4.196,-15.656 -5.097,-31.754 -20.757,-35.949 -2.586,-0.695 -5.184,-1.012 -7.739,-1 l -618.066,0 c -16.215,0 -29.356,13.141 -29.356,29.356 0,5.304 1.414,10.281 3.879,14.578 0.02,0.031 0.035,0.062 0.051,0.097 l 304.367,528.41 c 3.864,6.665 5.653,9.305 9.406,13.059 5.731,5.731 13.243,8.598 20.754,8.598 z" /><path
         id="path4184"
         style="fill:#c1121c;fill-opacity:1;fill-rule:nonzero;stroke:none"
         d="m 338.859,587.144 c 7.125,0.051 14.95,-3.59 18.782,-10.406 L 666.934,40.847 c 1.785,-3.648 2.535,-6.82 2.558,-10.449 0,-6.496 -2.875,-12.66 -7.847,-16.84 -4.383,-3.394 -8.536,-5.16 -14.122,-5.16 l -617.906,0 C 25.848,8.363 22.07,9.269 18.641,11.531 12.188,15.429 8.238,22.414 8.23,29.957 c 0.184,3.894 1.145,8 2.879,10.89 l 309.114,535.981 c 0.027,0.047 0.058,0.094 0.09,0.14 0.031,0.047 0.062,0.094 0.093,0.145 1.098,1.754 2.473,3.305 4.039,4.633 3.59,3.109 8.086,4.976 12.825,5.316 0.531,0.047 1.062,0.078 1.589,0.082 z M 647.523,8.398 l 1.524,0 -1.555,0 0.031,0 z M 339.18,480.933 103.477,72.398 l 471.738,0 -236.035,408.535 z" /><path
         id="path4186"
         style="fill:#000000;fill-opacity:1;fill-rule:nonzero;stroke:none"
         d="m 338.859,594.898 c 7.618,0 15.231,-2.906 21.039,-8.715 1.907,-1.902 3.493,-4.008 4.774,-6.234 l 15.129,-25.957 0.07,0 293.215,-508.238 c 0.066,-0.118 0.113,-0.219 0.16,-0.301 1.504,-2.422 2.684,-5.102 3.461,-7.996 C 680.957,21.586 671.535,5.269 655.668,1.015 653.047,0.312 650.41,-0.008 647.824,0 L 29.758,0 C 13.328,0 0,13.328 0,29.758 c 0,5.375 1.438,10.417 3.934,14.773 0.011,0.019 0.027,0.051 0.05,0.098 l 304.364,528.414 c 3.871,6.668 5.695,9.363 9.468,13.14 5.809,5.809 13.426,8.715 21.039,8.715 l 0.004,0 z m 0,-0.398 c -7.511,0 -15.023,-2.867 -20.754,-8.598 -3.753,-3.754 -5.542,-6.394 -9.406,-13.059 L 4.336,44.433 C 4.316,44.398 4.301,44.367 4.281,44.336 1.816,40.039 0.402,35.062 0.402,29.758 0.402,13.543 13.543,0.402 29.758,0.402 l 618.066,0 c 2.555,-0.012 5.153,0.305 7.739,1 15.66,4.195 24.953,20.293 20.757,35.949 -0.765,2.867 -1.937,5.516 -3.425,7.91 -0.055,0.098 -0.098,0.196 -0.153,0.293 l -293.101,508.039 -0.071,0 -15.246,26.157 c -1.261,2.199 -2.828,4.273 -4.707,6.152 -5.73,5.731 -13.242,8.598 -20.758,8.598 z" /><path
         id="path4188"
         style="fill:#000000;fill-opacity:1;fill-rule:evenodd;stroke:none"
         d="m 351.398,316.058 68.469,-18.656 0.09,-0.34 0,2.606 10.981,0 0,-214.668 -10.981,-0.086 0,199.894 -16.508,-59.726 -171.301,-71.188 c -1.375,-0.562 -2.175,-1.691 -4.3,-1.5 -17.719,10.227 -27.426,26.555 -27.856,46.449 14.379,12.29 100.946,78.141 151.406,117.215 z m 12.454,-10.59 c 17.781,-12.988 33.238,-32.335 38.609,-65.16 l 12.566,52.766 -51.175,12.394 z M 320.09,282.316 290.629,260.207 c 23.031,-12.688 33.664,-35.477 35.121,-60.965 l 32.926,13.867 c -0.5,21.824 -6.457,46.695 -38.586,69.207 z M 258.074,235.812 231.555,215.91 c 14.574,-12.313 21.351,-28.387 26.718,-45.117 l 29.973,12.625 c -3.125,19.398 -10.473,37.617 -30.172,52.394 z m -51.855,-38.918 -1.133,-0.851 -0.25,0.14 c 1.937,-16.105 11.191,-27.742 22.16,-38.55 l 0.906,0.394 c -3.066,14.469 -10.562,27.32 -21.683,38.867 z" /></g></g></svg>