<?xml version="1.0" encoding="UTF-8" standalone="no"?>
<svg
   xmlns:dc="http://purl.org/dc/elements/1.1/"
   xmlns:cc="http://creativecommons.org/ns#"
   xmlns:rdf="http://www.w3.org/1999/02/22-rdf-syntax-ns#"
   xmlns:svg="http://www.w3.org/2000/svg"
   xmlns="http://www.w3.org/2000/svg"
   id="svg7283"
   version="1.1"
   xml:space="preserve"
   width="847.15857"
   height="743.62268"
   viewBox="0 0 847.15857 743.62268"><metadata
     id="metadata7289"><rdf:RDF><cc:Work
         rdf:about=""><dc:format>image/svg+xml</dc:format><dc:type
           rdf:resource="http://purl.org/dc/dcmitype/StillImage" /><dc:title></dc:title></cc:Work></rdf:RDF></metadata><defs
     id="defs7287"><clipPath
       clipPathUnits="userSpaceOnUse"
       id="clipEmfPath1"><path
         d="m 0,48.2246 54.8246,0 L 54.8246,0 0,0 0,48.2246 Z"
         id="path3344" /></clipPath><pattern
       id="EMFhbasepattern"
       patternUnits="userSpaceOnUse"
       width="6"
       height="6"
       x="0"
       y="0" /></defs><g
     id="g7291"
     transform="matrix(1.25,0,0,-1.25,0,743.62267)"><g
       id="g7293"><path
         d="m 338.859,594.5 c 7.512,0 15.028,-2.867 20.758,-8.598 1.879,-1.879 3.445,-3.953 4.707,-6.152 l 15.246,-26.157 0.071,0 293.101,-508.039 c 0.055,-0.097 0.098,-0.195 0.153,-0.293 1.488,-2.394 2.656,-5.043 3.425,-7.91 4.196,-15.656 -5.097,-31.754 -20.758,-35.949 -2.585,-0.695 -5.183,-1.012 -7.738,-1 l -618.066,0 c -16.215,0 -29.356,13.141 -29.356,29.356 0,5.304 1.414,10.281 3.879,14.578 0.02,0.031 0.035,0.062 0.051,0.097 l 304.367,528.41 c 3.863,6.665 5.653,9.305 9.406,13.059 5.731,5.731 13.243,8.598 20.754,8.598 z"
         style="fill:#ffffff;fill-opacity:1;fill-rule:nonzero;stroke:none"
         id="path7295" /><path
         d="m 338.859,587.144 c 7.125,0.051 14.95,-3.59 18.782,-10.406 L 666.934,40.847 c 1.785,-3.648 2.535,-6.82 2.558,-10.449 0,-6.496 -2.875,-12.66 -7.847,-16.84 -4.383,-3.394 -8.536,-5.16 -14.122,-5.16 l -617.906,0 C 25.848,8.363 22.07,9.269 18.641,11.531 12.188,15.429 8.238,22.414 8.23,29.957 c 0.184,3.894 1.145,8 2.879,10.89 l 309.114,535.981 c 0.027,0.047 0.058,0.094 0.089,0.14 0.032,0.047 0.063,0.094 0.094,0.145 1.098,1.754 2.473,3.305 4.039,4.633 3.59,3.109 8.086,4.976 12.825,5.316 0.531,0.047 1.062,0.078 1.589,0.082 z M 647.523,8.398 l 1.524,0 -1.555,0 0.031,0 z M 339.18,480.933 103.477,72.398 l 471.738,0 -236.035,408.535 z"
         style="fill:#c1121c;fill-opacity:1;fill-rule:nonzero;stroke:none"
         id="path7297" /><path
         d="m 338.859,594.898 c 7.618,0 15.231,-2.906 21.039,-8.715 1.907,-1.902 3.493,-4.008 4.774,-6.234 l 15.129,-25.957 0.07,0 293.215,-508.238 c 0.066,-0.118 0.113,-0.219 0.16,-0.301 1.504,-2.422 2.684,-5.102 3.461,-7.996 C 680.957,21.586 671.535,5.269 655.668,1.015 653.047,0.312 650.41,-0.008 647.824,0 L 29.758,0 C 13.328,0 0,13.328 0,29.758 c 0,5.375 1.438,10.417 3.934,14.773 0.011,0.019 0.027,0.051 0.05,0.098 l 304.364,528.414 c 3.871,6.668 5.695,9.363 9.468,13.14 5.809,5.809 13.426,8.715 21.039,8.715 l 0.004,0 z m 0,-0.398 c -7.511,0 -15.023,-2.867 -20.754,-8.598 -3.753,-3.754 -5.543,-6.394 -9.406,-13.059 L 4.336,44.433 C 4.316,44.398 4.301,44.367 4.281,44.336 1.816,40.039 0.402,35.062 0.402,29.758 0.402,13.543 13.543,0.402 29.758,0.402 l 618.066,0 c 2.555,-0.012 5.153,0.305 7.738,1 15.661,4.195 24.954,20.293 20.758,35.949 -0.765,2.867 -1.937,5.516 -3.425,7.91 -0.055,0.098 -0.098,0.196 -0.153,0.293 l -293.101,508.039 -0.071,0 -15.246,26.157 c -1.262,2.199 -2.828,4.273 -4.707,6.152 -5.73,5.731 -13.242,8.598 -20.758,8.598 z"
         style="fill:#000000;fill-opacity:1;fill-rule:nonzero;stroke:none"
         id="path7299" /></g></g><g
     transform="matrix(54.637771,0,0,54.637771,13508.661,-8580.5364)"
     id="g3369"><path
       id="path3347"
       d=""
       clip-path="url(#clipEmfPath1)"
       style="fill:none;stroke:none"
       transform="translate(-247.20807,157.04404)" /><path
       id="path3355"
       d="m -239.39763,168.30462 0.762,-0.91017 c 0.0423,-0.0212 0.0847,-0.0635 0.127,-0.0635 l 0.14817,-0.0635 c 0.0847,-0.0212 0.16933,-0.0847 0.23283,-0.14816 l 0.52914,-0.61381 c 0.23283,-0.29633 0.65617,-0.3175 0.93133,-0.0847 0.0423,0.0212 0.0847,0.0635 0.10584,0.10584 l 1.37583,1.77797 c 0.0423,0.0635 0.0423,0.14817 -0.0212,0.1905 -0.0212,0.0212 -0.0635,0.0423 -0.0847,0.0423 l -4.00047,0 c -0.0847,0 -0.127,-0.0635 -0.127,-0.14817 0,-0.0212 0,-0.0635 0.0212,-0.0847 z m 1.016,-5.1223 c 0,0.27516 -0.23283,0.508 -0.508,0.508 -0.27516,0 -0.508,-0.23284 -0.508,-0.508 0,-0.27517 0.23284,-0.48681 0.508,-0.48681 0.27517,0 0.508,0.21164 0.508,0.48681 z m -2.75166,2.13783 0.74083,-1.397 -0.52917,0 -0.3175,0.59267 0.3175,0.27516 -0.10583,0.1905 -0.3175,-0.254 -0.14814,0.27517 c -0.23283,-0.127 -0.3175,-0.42333 -0.1905,-0.635 l 0.38097,-0.74083 c 0.0635,-0.10584 0.16934,-0.16934 0.29634,-0.16934 l 1.18533,0 c 0.29633,0 0.52917,0.23284 0.52917,0.52917 0,0.0212 0,0.0212 0,0.0423 l -0.127,1.98967 1.24883,1.0583 c -0.0423,0.0423 -0.10583,0.0847 -0.1905,0.127 l -1.0795,-0.91014 -0.0212,0.23284 c -0.254,-0.0212 -0.4445,-0.23284 -0.42333,-0.48684 l 0,-0.10583 -0.3175,-0.254 0.10583,-0.1905 0.23284,0.16933 0.0423,-0.8255 -0.48683,0.93134 -0.8255,-0.4445 z m 1.37583,3.2173 c -0.29633,0 -0.55033,-0.23283 -0.55033,-0.52916 l -0.0423,-1.12184 -0.55033,-0.84663 -1.33347,2.49763 c -0.254,-0.14816 -0.35984,-0.46566 -0.21167,-0.74083 l 1.24881,-2.34947 0.8255,0.42333 0.52916,0.82547 c 0,0.0212 0.0212,0.0423 0.0212,0.0635"
       style="fill:#000000;fill-opacity:1;fill-rule:nonzero;stroke:none" /></g></svg>