<?xml version="1.0" encoding="UTF-8" standalone="no"?>
<svg
   xmlns:dc="http://purl.org/dc/elements/1.1/"
   xmlns:cc="http://creativecommons.org/ns#"
   xmlns:rdf="http://www.w3.org/1999/02/22-rdf-syntax-ns#"
   xmlns:svg="http://www.w3.org/2000/svg"
   xmlns="http://www.w3.org/2000/svg"
   viewBox="0 0 847.15863 743.62268"
   height="743.62268"
   width="847.15863"
   xml:space="preserve"
   version="1.1"
   id="svg7437"><metadata
     id="metadata7443"><rdf:RDF><cc:Work
         rdf:about=""><dc:format>image/svg+xml</dc:format><dc:type
           rdf:resource="http://purl.org/dc/dcmitype/StillImage" /><dc:title></dc:title></cc:Work></rdf:RDF></metadata><defs
     id="defs7441" /><g
     transform="matrix(1.25,0,0,-1.25,0,743.62267)"
     id="g7445"><g
       id="g7447"><path
         id="path7449"
         style="fill:#ffffff;fill-opacity:1;fill-rule:nonzero;stroke:none"
         d="m 338.859,594.5 c 7.512,0 15.028,-2.867 20.758,-8.598 1.879,-1.879 3.446,-3.953 4.707,-6.152 l 15.246,-26.157 0.071,0 293.101,-508.039 c 0.055,-0.097 0.098,-0.195 0.153,-0.293 1.488,-2.394 2.656,-5.043 3.425,-7.91 4.196,-15.656 -5.097,-31.754 -20.757,-35.949 -2.586,-0.695 -5.184,-1.012 -7.739,-1 l -618.066,0 c -16.215,0 -29.356,13.141 -29.356,29.356 0,5.304 1.414,10.281 3.879,14.578 0.02,0.031 0.035,0.062 0.051,0.097 l 304.367,528.41 c 3.864,6.665 5.653,9.305 9.406,13.059 5.731,5.731 13.243,8.598 20.754,8.598 z" /><path
         id="path7451"
         style="fill:#c1121c;fill-opacity:1;fill-rule:nonzero;stroke:none"
         d="m 338.859,587.144 c 7.125,0.051 14.95,-3.59 18.782,-10.406 L 666.934,40.847 c 1.785,-3.648 2.535,-6.82 2.558,-10.449 0,-6.496 -2.875,-12.66 -7.847,-16.84 -4.383,-3.394 -8.536,-5.16 -14.122,-5.16 l -617.906,0 C 25.848,8.363 22.07,9.269 18.641,11.531 12.188,15.429 8.238,22.414 8.23,29.957 c 0.184,3.894 1.145,8 2.879,10.89 l 309.114,535.981 c 0.027,0.047 0.058,0.094 0.09,0.14 0.031,0.047 0.062,0.094 0.093,0.145 1.098,1.754 2.473,3.305 4.039,4.633 3.59,3.109 8.086,4.976 12.825,5.316 0.531,0.047 1.062,0.078 1.589,0.082 z M 647.523,8.398 l 1.524,0 -1.555,0 0.031,0 z M 339.18,480.933 103.477,72.398 l 471.738,0 -236.035,408.535 z" /><path
         id="path7453"
         style="fill:#000000;fill-opacity:1;fill-rule:nonzero;stroke:none"
         d="m 338.859,594.898 c 7.618,0 15.231,-2.906 21.039,-8.715 1.907,-1.902 3.493,-4.008 4.774,-6.234 l 15.129,-25.957 0.07,0 293.215,-508.238 c 0.066,-0.118 0.113,-0.219 0.16,-0.301 1.504,-2.422 2.684,-5.102 3.461,-7.996 C 680.957,21.586 671.535,5.269 655.668,1.015 653.047,0.312 650.41,-0.008 647.824,0 L 29.758,0 C 13.328,0 0,13.328 0,29.758 c 0,5.375 1.438,10.417 3.934,14.773 0.011,0.019 0.027,0.051 0.05,0.098 l 304.364,528.414 c 3.871,6.668 5.695,9.363 9.468,13.14 5.809,5.809 13.426,8.715 21.039,8.715 l 0.004,0 z m 0,-0.398 c -7.511,0 -15.023,-2.867 -20.754,-8.598 -3.753,-3.754 -5.542,-6.394 -9.406,-13.059 L 4.336,44.433 C 4.316,44.398 4.301,44.367 4.281,44.336 1.816,40.039 0.402,35.062 0.402,29.758 0.402,13.543 13.543,0.402 29.758,0.402 l 618.066,0 c 2.555,-0.012 5.153,0.305 7.739,1 15.66,4.195 24.953,20.293 20.757,35.949 -0.765,2.867 -1.937,5.516 -3.425,7.91 -0.055,0.098 -0.098,0.196 -0.153,0.293 l -293.101,508.039 -0.071,0 -15.246,26.157 c -1.261,2.199 -2.828,4.273 -4.707,6.152 -5.73,5.731 -13.242,8.598 -20.758,8.598 z" /><path
         id="path7455"
         style="fill:#000000;fill-opacity:1;fill-rule:nonzero;stroke:none"
         d="m 231.254,105.968 c 25.48,-6.589 51.48,8.75 58.055,34.227 l -49.118,0 c -0.847,0 -1.668,0.152 -2.437,0.508 -2.996,1.344 -4.352,4.879 -2.996,7.871 l 21.976,49.211 c -0.543,0.156 -1.097,0.308 -1.652,0.449 -25.477,6.602 -51.48,-8.734 -58.055,-34.23 -6.589,-25.477 8.75,-51.461 34.227,-58.036 z m 36.391,87.016 -18.274,-40.891 41.449,0 c 0,16.774 -8.812,32.282 -23.175,40.891 z m 35.089,-40.891 11.914,0 -29.785,79.442 -12.343,-27.61 c 18.671,-10.57 30.214,-30.367 30.214,-51.832 z m 24.399,0.633 74.594,82.758 -105.629,0 31.035,-82.758 z m 63.238,-20.308 c 10.863,-23.95 39.102,-34.598 63.082,-23.735 23.965,10.879 34.598,39.106 23.719,63.086 -8.981,19.828 -30.262,31.047 -51.68,27.266 l 13.981,-45.184 c 0.972,-3.133 -0.785,-6.465 -3.934,-7.437 -3.148,-0.973 -6.484,0.785 -7.457,3.918 l -13.98,45.168 c -23.981,-10.864 -34.598,-39.102 -23.731,-63.082 z m -203.836,38.144 c 10.184,31.281 43.809,48.363 75.09,38.164 l 17.281,38.672 -4.457,11.926 -13.41,0 0,11.914 50.629,0 c 1.375,0 2.562,-0.957 2.887,-2.281 0.402,-1.59 -0.602,-3.211 -2.192,-3.614 l -25.199,-6.019 4.461,-11.926 106.414,0 -4.785,15.445 c -1.543,4.985 -6.156,8.395 -11.371,8.395 l -19.582,0 0,11.898 19.582,0 c 10.445,0 19.66,-6.804 22.762,-16.757 l 17.296,-55.895 c 27.762,5.617 55.649,-9.074 66.696,-35.168 12.824,-30.293 -1.344,-65.258 -31.633,-78.066 -30.309,-12.825 -65.262,1.328 -78.086,31.617 -12.824,30.324 1.344,65.262 31.637,78.101 l -4.723,15.278 -70.43,-78.117 c -2.254,-2.5 -5.476,-3.934 -8.859,-3.934 l -25.012,0 c -0.465,-2.223 -1.035,-4.414 -1.73,-6.559 -10.199,-31.281 -43.809,-48.378 -75.09,-38.16 -31.277,10.184 -48.359,43.809 -38.176,75.086" /></g></g></svg>