<?xml version="1.0" encoding="UTF-8" standalone="no"?>
<svg
   xmlns:dc="http://purl.org/dc/elements/1.1/"
   xmlns:cc="http://creativecommons.org/ns#"
   xmlns:rdf="http://www.w3.org/1999/02/22-rdf-syntax-ns#"
   xmlns:svg="http://www.w3.org/2000/svg"
   xmlns="http://www.w3.org/2000/svg"
   viewBox="0 0 847.15851 743.62268"
   height="743.62268"
   width="847.15851"
   xml:space="preserve"
   version="1.1"
   id="svg3796"><metadata
     id="metadata3802"><rdf:RDF><cc:Work
         rdf:about=""><dc:format>image/svg+xml</dc:format><dc:type
           rdf:resource="http://purl.org/dc/dcmitype/StillImage" /><dc:title></dc:title></cc:Work></rdf:RDF></metadata><defs
     id="defs3800" /><g
     transform="matrix(1.25,0,0,-1.25,0,743.62267)"
     id="g3804"><g
       id="g3806"><path
         id="path3808"
         style="fill:#ffffff;fill-opacity:1;fill-rule:nonzero;stroke:none"
         d="m 338.867,594.5 c -7.512,0 -15.027,-2.867 -20.758,-8.598 -1.879,-1.879 -3.445,-3.953 -4.707,-6.152 l -15.246,-26.157 -0.07,0 L 4.984,45.554 C 4.93,45.457 4.887,45.359 4.832,45.261 3.344,42.867 2.176,40.218 1.406,37.351 -2.789,21.695 6.504,5.597 22.164,1.402 c 2.586,-0.695 5.184,-1.012 7.738,-1 l 618.067,0 c 16.215,0 29.355,13.141 29.355,29.356 0,5.304 -1.414,10.281 -3.879,14.578 -0.019,0.031 -0.035,0.062 -0.05,0.097 l -304.368,528.41 c -3.863,6.665 -5.652,9.305 -9.406,13.059 -5.73,5.731 -13.242,8.598 -20.754,8.598 z" /><path
         id="path3810"
         style="fill:#c1121c;fill-opacity:1;fill-rule:nonzero;stroke:none"
         d="m 338.867,587.144 c -7.125,0.051 -14.949,-3.59 -18.781,-10.406 L 10.793,40.847 C 9.008,37.199 8.258,34.027 8.234,30.398 c 0,-6.496 2.875,-12.66 7.848,-16.84 4.383,-3.394 8.535,-5.16 14.121,-5.16 l 617.906,0 c 3.77,-0.035 7.547,0.871 10.977,3.133 6.453,3.898 10.402,10.883 10.41,18.426 -0.184,3.894 -1.144,8 -2.879,10.89 L 357.504,576.828 c -0.027,0.047 -0.059,0.094 -0.09,0.14 -0.031,0.047 -0.062,0.094 -0.094,0.145 -1.097,1.754 -2.472,3.305 -4.039,4.633 -3.59,3.109 -8.086,4.976 -12.824,5.316 -0.531,0.047 -1.062,0.078 -1.59,0.082 z M 30.203,8.398 l -1.523,0 1.554,0 -0.031,0 z M 338.547,480.933 574.25,72.398 l -471.738,0 236.035,408.535 z" /><path
         id="path3812"
         style="fill:#000000;fill-opacity:1;fill-rule:nonzero;stroke:none"
         d="m 338.867,594.898 c -7.617,0 -15.23,-2.906 -21.039,-8.715 -1.906,-1.902 -3.492,-4.008 -4.773,-6.234 l -15.129,-25.957 -0.071,0 L 4.641,45.754 C 4.574,45.636 4.527,45.535 4.48,45.453 2.977,43.031 1.797,40.351 1.02,37.457 -3.23,21.586 6.191,5.269 22.059,1.015 24.68,0.312 27.316,-0.008 29.902,0 l 618.067,0 c 16.429,0 29.758,13.328 29.758,29.758 0,5.375 -1.438,10.417 -3.934,14.773 -0.012,0.019 -0.027,0.051 -0.051,0.098 L 369.379,573.043 c -3.871,6.668 -5.695,9.363 -9.469,13.14 -5.808,5.809 -13.426,8.715 -21.039,8.715 l -0.004,0 z m 0,-0.398 c 7.512,0 15.024,-2.867 20.754,-8.598 3.754,-3.754 5.543,-6.394 9.406,-13.059 L 673.391,44.433 c 0.019,-0.035 0.035,-0.066 0.054,-0.097 2.465,-4.297 3.879,-9.274 3.879,-14.578 0,-16.215 -13.14,-29.356 -29.355,-29.356 l -618.067,0 C 27.348,0.39 24.75,0.707 22.164,1.402 6.504,5.597 -2.789,21.695 1.406,37.351 c 0.766,2.867 1.938,5.516 3.426,7.91 0.055,0.098 0.098,0.196 0.152,0.293 l 293.102,508.039 0.07,0 15.246,26.157 c 1.262,2.199 2.828,4.273 4.707,6.152 5.731,5.731 13.243,8.598 20.758,8.598 z" /><path
         id="path3814"
         style="fill:#000000;fill-opacity:1;fill-rule:nonzero;stroke:none"
         d="m 365.328,162.402 9.137,15.137 c 6.836,-3.317 15.078,-0.449 18.39,6.402 0.016,0.02 0.032,0.031 0.032,0.063 l 5.496,11.449 -45.465,-12.387 -1.512,5.567 c -26.543,-10.926 -54.949,-16.555 -83.652,-16.602 -5.246,-16.699 -18.133,-29.906 -34.692,-35.586 l -15.632,-5.371 c -8.516,-2.899 -15.938,-8.379 -21.262,-15.633 L 184.625,99.703 c -5.414,-7.426 -13.039,-12.949 -21.773,-15.82 l 2.761,16.625 c 4.567,-0.575 9.012,1.738 11.145,5.816 l 17.773,34.039 11.094,7.824 c 13.551,7.039 20.527,22.453 16.867,37.27 l -1.465,5.984 c -1.172,4.738 0.911,9.676 5.125,12.129 l 13.657,8.012 c 2.253,1.308 4.644,2.359 7.14,3.117 l 74.66,22.594 c 14.258,4.304 25.383,15.519 29.551,29.843 l 10.051,34.364 c -7.301,0 -14.137,3.625 -18.246,9.644 l 22.363,1.371 -28.023,16.02 c -8.137,4.648 -13.348,13.105 -13.856,22.453 -0.051,1.066 0.77,1.961 1.836,2.023 0.91,0.047 1.742,-0.558 1.957,-1.453 l 0.356,-1.328 c 1.57,-6.14 5.711,-11.293 11.359,-14.164 l 1.586,-0.816 c 0.82,-0.418 1.805,-0.078 2.227,0.726 0.179,0.352 0.23,0.754 0.136,1.137 l -2.609,10.836 c -0.203,0.879 0.34,1.773 1.234,1.988 0.742,0.188 1.516,-0.183 1.856,-0.859 l 8.976,-18.012 c 0.789,-1.586 2.067,-2.867 3.66,-3.672 l 3.782,-1.929 c 0.816,-0.415 1.82,-0.094 2.238,0.722 0.168,0.34 0.23,0.742 0.117,1.129 l -3.945,16.5 c -0.219,0.891 0.32,1.789 1.219,1.988 0.738,0.184 1.527,-0.171 1.867,-0.863 l 9.797,-19.676 c 2.363,-4.738 6.578,-8.304 11.636,-9.843 l 32.161,-9.789 0,-9.629 -28.922,-8.286 -8.547,-64.902 c -0.848,-6.605 -3.688,-12.762 -8.133,-17.734 l 42.207,6.851 c 2.238,0.34 4.367,-1.172 4.734,-3.425 0.141,-0.922 -0.027,-1.836 -0.464,-2.668 l -15.29,-27.809 c -4.324,-7.84 -12.207,-13.113 -21.125,-14.106" /></g></g></svg>