<?xml version="1.0" encoding="UTF-8" standalone="no"?>
<svg
   xmlns:dc="http://purl.org/dc/elements/1.1/"
   xmlns:cc="http://creativecommons.org/ns#"
   xmlns:rdf="http://www.w3.org/1999/02/22-rdf-syntax-ns#"
   xmlns:svg="http://www.w3.org/2000/svg"
   xmlns="http://www.w3.org/2000/svg"
   viewBox="0 0 847.15851 743.62268"
   height="743.62268"
   width="847.15851"
   xml:space="preserve"
   version="1.1"
   id="svg9640"><metadata
     id="metadata9646"><rdf:RDF><cc:Work
         rdf:about=""><dc:format>image/svg+xml</dc:format><dc:type
           rdf:resource="http://purl.org/dc/dcmitype/StillImage" /><dc:title></dc:title></cc:Work></rdf:RDF></metadata><defs
     id="defs9644" /><g
     transform="matrix(1.25,0,0,-1.25,0,743.62267)"
     id="g9648"><g
       id="g9650"><path
         id="path9652"
         style="fill:#ffffff;fill-opacity:1;fill-rule:nonzero;stroke:none"
         d="m 338.859,594.5 c 7.512,0 15.028,-2.867 20.758,-8.598 1.879,-1.879 3.445,-3.953 4.707,-6.152 l 15.246,-26.157 0.071,0 293.101,-508.039 c 0.055,-0.097 0.098,-0.195 0.153,-0.293 1.488,-2.394 2.656,-5.043 3.425,-7.91 4.196,-15.656 -5.097,-31.754 -20.758,-35.949 -2.585,-0.695 -5.183,-1.012 -7.738,-1 l -618.066,0 c -16.215,0 -29.356,13.141 -29.356,29.356 0,5.304 1.414,10.281 3.879,14.578 0.02,0.031 0.035,0.062 0.051,0.097 l 304.367,528.41 c 3.863,6.665 5.653,9.305 9.406,13.059 5.731,5.731 13.243,8.598 20.754,8.598 z" /><path
         id="path9654"
         style="fill:#000000;fill-opacity:1;fill-rule:nonzero;stroke:none"
         d="m 197.855,212.031 c -1.667,0 -3.007,-1.328 -3.007,-2.996 l 0,-5.992 c 0,-1.438 1,-2.657 2.39,-2.95 0.141,-0.027 0.278,-0.062 0.403,-0.113 1.558,-0.555 2.379,-2.269 1.824,-3.828 l -15.57,-43.582 c -0.696,-1.961 -1.036,-3.984 -1.036,-6.055 l 0,-30.488 c 0,-3.32 2.676,-6.008 5.996,-6.008 l 35.997,0 0,0.004 c 0,14.918 12.093,27.012 26.996,27.012 14.922,0 26.996,-12.094 26.996,-27.012 l 111.011,0 c 0,14.918 12.079,27.012 26.997,27.012 14.921,0 27.011,-12.094 27.011,-27.012 l 38.996,0 c 6.625,0 12,5.375 12,12 l 0,33.5 c 0,1.652 -0.23,3.32 -0.691,4.942 l -12.25,42.871 c -1.465,5.144 -6.176,8.695 -11.535,8.695 l -272.528,0 z m 12.172,-12.004 24.125,0 c 2.485,0 4.508,-2.008 4.508,-4.492 l 0,-33.004 c 0,-2.488 -2.023,-4.496 -4.508,-4.496 l -35.91,0 c -2.484,0 -4.508,2.008 -4.508,4.496 0,0.508 0.086,1.035 0.262,1.512 l 11.785,33.004 c 0.649,1.793 2.348,2.98 4.246,2.98 z m 40.926,0 22.102,0 c 2.007,0 3.785,-1.324 4.324,-3.258 l 9.437,-33.004 c 0.68,-2.379 -0.695,-4.879 -3.089,-5.558 -0.403,-0.125 -0.817,-0.172 -1.235,-0.172 l -31.539,0 c -2.484,0 -4.492,2.008 -4.492,4.496 l 0,33.004 c 0,2.484 2.008,4.492 4.492,4.492 z m 39.277,0 30.239,0 c 2.008,0 3.765,-1.328 4.324,-3.258 l 9.418,-33.004 c 0.695,-2.379 -0.691,-4.879 -3.086,-5.558 -0.402,-0.125 -0.82,-0.172 -1.238,-0.172 l -30.239,0 c -2.007,0 -3.769,1.312 -4.324,3.258 l -9.433,33.007 c -0.68,2.375 0.711,4.879 3.086,5.559 0.418,0.109 0.835,0.168 1.253,0.168 z m 47.395,0 30.227,0 c 2.019,0 3.796,-1.328 4.339,-3.258 l 9.422,-33.004 c 0.692,-2.379 -0.695,-4.879 -3.09,-5.558 -0.402,-0.125 -0.804,-0.172 -1.234,-0.172 l -30.242,0 c -2.008,0 -3.77,1.312 -4.324,3.258 l -9.422,33.007 c -0.696,2.375 0.695,4.879 3.09,5.559 0.402,0.109 0.816,0.168 1.234,0.168 z m 47.398,0 30.243,0 c 2.007,0 3.765,-1.328 4.324,-3.258 l 9.418,-33.004 c 0.695,-2.379 -0.696,-4.879 -3.09,-5.558 -0.383,-0.125 -0.801,-0.172 -1.234,-0.172 l -30.239,0 c -2.007,0 -3.769,1.312 -4.324,3.258 l -9.437,33.007 c -0.68,2.375 0.711,4.879 3.105,5.559 0.402,0.109 0.816,0.168 1.234,0.168 z m 47.399,0 30.238,0 c 2.008,0 3.785,-1.328 4.324,-3.258 l 9.438,-33.004 c 0.68,-2.379 -0.711,-4.879 -3.09,-5.558 -0.398,-0.125 -0.816,-0.172 -1.25,-0.172 l -30.223,0 c -2.007,0 -3.785,1.312 -4.339,3.258 l -9.422,33.007 c -0.68,2.375 0.695,4.879 3.09,5.559 0.402,0.109 0.816,0.168 1.234,0.168 z m -180.57,-69.004 c -11.602,0 -20.989,-9.387 -20.989,-21.004 0,-11.582 9.387,-21.004 20.989,-21.004 11.597,0 21.003,9.422 21.003,21.004 0,11.617 -9.406,21.004 -21.003,21.004 z m 165.003,0 c -11.601,0 -21.003,-9.387 -21.003,-21.004 0,-11.582 9.402,-21.004 21.003,-21.004 11.598,0 21.004,9.422 21.004,21.004 0,11.617 -9.406,21.004 -21.004,21.004 z" /><path
         id="path9656"
         style="fill:#c1121c;fill-opacity:1;fill-rule:nonzero;stroke:none"
         d="m 338.859,587.144 c 7.125,0.051 14.95,-3.59 18.782,-10.406 L 666.934,40.847 c 1.785,-3.648 2.535,-6.82 2.558,-10.449 0,-6.496 -2.875,-12.66 -7.847,-16.84 -4.383,-3.394 -8.536,-5.16 -14.122,-5.16 l -617.906,0 C 25.848,8.363 22.07,9.269 18.641,11.531 12.188,15.429 8.238,22.414 8.23,29.957 c 0.184,3.894 1.145,8 2.879,10.89 l 309.114,535.981 c 0.027,0.047 0.058,0.094 0.089,0.14 0.032,0.047 0.063,0.094 0.094,0.145 1.098,1.754 2.473,3.305 4.039,4.633 3.59,3.109 8.086,4.976 12.825,5.316 0.531,0.047 1.062,0.078 1.589,0.082 z M 647.523,8.398 l 1.524,0 -1.555,0 0.031,0 z M 339.18,480.933 103.477,72.398 l 471.738,0 -236.035,408.535 z" /><path
         id="path9658"
         style="fill:#000000;fill-opacity:1;fill-rule:nonzero;stroke:none"
         d="m 338.859,594.898 c 7.618,0 15.231,-2.906 21.039,-8.715 1.907,-1.902 3.493,-4.008 4.774,-6.234 l 15.129,-25.957 0.07,0 293.215,-508.238 c 0.066,-0.118 0.113,-0.219 0.16,-0.301 1.504,-2.422 2.684,-5.102 3.461,-7.996 C 680.957,21.586 671.535,5.269 655.668,1.015 653.047,0.312 650.41,-0.008 647.824,0 L 29.758,0 C 13.328,0 0,13.328 0,29.758 c 0,5.375 1.438,10.417 3.934,14.773 0.011,0.019 0.027,0.051 0.05,0.098 l 304.364,528.414 c 3.871,6.668 5.695,9.363 9.468,13.14 5.809,5.809 13.426,8.715 21.039,8.715 l 0.004,0 z m 0,-0.398 c -7.511,0 -15.023,-2.867 -20.754,-8.598 -3.753,-3.754 -5.543,-6.394 -9.406,-13.059 L 4.336,44.433 C 4.316,44.398 4.301,44.367 4.281,44.336 1.816,40.039 0.402,35.062 0.402,29.758 0.402,13.543 13.543,0.402 29.758,0.402 l 618.066,0 c 2.555,-0.012 5.153,0.305 7.738,1 15.661,4.195 24.954,20.293 20.758,35.949 -0.765,2.867 -1.937,5.516 -3.425,7.91 -0.055,0.098 -0.098,0.196 -0.153,0.293 l -293.101,508.039 -0.071,0 -15.246,26.157 c -1.262,2.199 -2.828,4.273 -4.707,6.152 -5.73,5.731 -13.242,8.598 -20.758,8.598 z" /></g></g></svg>