<?xml version="1.0" encoding="UTF-8" standalone="no"?>
<svg
   xmlns:dc="http://purl.org/dc/elements/1.1/"
   xmlns:cc="http://creativecommons.org/ns#"
   xmlns:rdf="http://www.w3.org/1999/02/22-rdf-syntax-ns#"
   xmlns:svg="http://www.w3.org/2000/svg"
   xmlns="http://www.w3.org/2000/svg"
   viewBox="0 0 300.99631 1001.0051"
   height="1001.0051"
   width="300.99631"
   xml:space="preserve"
   version="1.1"
   id="svg28759"><metadata
     id="metadata28765"><rdf:RDF><cc:Work
         rdf:about=""><dc:format>image/svg+xml</dc:format><dc:type
           rdf:resource="http://purl.org/dc/dcmitype/StillImage" /><dc:title></dc:title></cc:Work></rdf:RDF></metadata><defs
     id="defs28763" /><g
     transform="matrix(1.25,0,0,-1.25,0,1001.0051)"
     id="g28767"><g
       id="g28769"><path
         id="path28771"
         style="fill:#ffffff;fill-opacity:1;fill-rule:nonzero;stroke:none"
         d="m 208.395,0.39 c 17.667,0 32.015,14.316 32.015,32.004 l 0,735.992 c 0,17.692 -14.348,32.004 -32.015,32.004 l -176.004,0 c -17.668,0 -32.004,-14.312 -32.004,-32.004 l 0,-735.992 C 0.387,14.706 14.723,0.39 32.391,0.39" /><path
         id="path28773"
         style="fill:#000000;fill-opacity:1;fill-rule:nonzero;stroke:none"
         d="m 208.395,800.804 c 17.863,0 32.402,-14.535 32.402,-32.418 l 0,-735.992 c 0,-17.863 -14.539,-32.395 -32.402,-32.395 l -176.004,0 C 14.527,-0.001 0,14.531 0,32.394 l 0,735.992 c 0,17.883 14.527,32.418 32.391,32.418 l 176.004,0 z m 0,-0.414 -176.004,0 c -17.668,0 -32.004,-14.312 -32.004,-32.004 l 0,-735.992 C 0.387,14.706 14.723,0.39 32.391,0.39 l 176.004,0 c 17.667,0 32.015,14.316 32.015,32.004 l 0,735.992 c 0,17.692 -14.348,32.004 -32.015,32.004 z" /><path
         id="path28775"
         style="fill:#000000;fill-opacity:1;fill-rule:nonzero;stroke:none"
         d="m 20.383,32.394 c 0,-6.621 5.375,-12 12.008,-12 l 176.004,0 c 6.632,0 11.992,5.379 11.992,12 l 0,735.992 c 0,6.637 -5.36,12.016 -11.992,12.016 l -176.004,0 c -6.633,0 -12.008,-5.379 -12.008,-12.016 l 0,-735.992 z m 12.008,760.008 176.004,0 c 13.246,0 24.003,-10.75 24.003,-24.016 l 0,-735.992 c 0,-13.254 -10.757,-23.992 -24.003,-23.992 l -176.004,0 C 19.137,8.402 8.398,19.14 8.398,32.394 l 0,735.992 c 0,13.266 10.739,24.016 23.993,24.016" /><path
         id="path28777"
         style="fill:#c1121c;fill-opacity:1;fill-rule:nonzero;stroke:none"
         d="m 220.387,400.917 0,84.008 -200.004,115.473 0,-84.004 200.004,-115.477 z m 0,-175.996 0,84.004 -200.004,115.457 0,-83.988 200.004,-115.473 z m 0,-176 0,84 -200.004,115.481 0,-84.012" /></g></g></svg>