<?xml version="1.0" encoding="UTF-8" standalone="no"?>
<svg
   xmlns:dc="http://purl.org/dc/elements/1.1/"
   xmlns:cc="http://creativecommons.org/ns#"
   xmlns:rdf="http://www.w3.org/1999/02/22-rdf-syntax-ns#"
   xmlns:svg="http://www.w3.org/2000/svg"
   xmlns="http://www.w3.org/2000/svg"
   viewBox="0 0 300.99625 1001.0051"
   height="1001.0051"
   width="300.99625"
   xml:space="preserve"
   version="1.1"
   id="svg28929"><metadata
     id="metadata28935"><rdf:RDF><cc:Work
         rdf:about=""><dc:format>image/svg+xml</dc:format><dc:type
           rdf:resource="http://purl.org/dc/dcmitype/StillImage" /><dc:title></dc:title></cc:Work></rdf:RDF></metadata><defs
     id="defs28933" /><g
     transform="matrix(1.25,0,0,-1.25,0,1001.0051)"
     id="g28937"><g
       id="g28939"><path
         id="path28941"
         style="fill:#ffffff;fill-opacity:1;fill-rule:nonzero;stroke:none"
         d="m 208.395,0.39 c 17.667,0 32.015,14.316 32.015,32.004 l 0,735.992 c 0,17.692 -14.348,32.004 -32.015,32.004 l -176.004,0 c -17.668,0 -32.004,-14.312 -32.004,-32.004 l 0,-735.992 C 0.387,14.706 14.723,0.39 32.391,0.39" /><path
         id="path28943"
         style="fill:#000000;fill-opacity:1;fill-rule:nonzero;stroke:none"
         d="m 208.395,800.804 c 17.863,0 32.402,-14.535 32.402,-32.418 l 0,-735.992 c 0,-17.863 -14.539,-32.395 -32.402,-32.395 l -176.004,0 C 14.527,-0.001 0,14.531 0,32.394 l 0,735.992 c 0,17.883 14.527,32.418 32.391,32.418 l 176.004,0 z m 0,-0.414 -176.004,0 c -17.668,0 -32.004,-14.312 -32.004,-32.004 l 0,-735.992 C 0.387,14.706 14.723,0.39 32.391,0.39 l 176.004,0 c 17.667,0 32.015,14.316 32.015,32.004 l 0,735.992 c 0,17.692 -14.348,32.004 -32.015,32.004 z" /><path
         id="path28945"
         style="fill:#000000;fill-opacity:1;fill-rule:nonzero;stroke:none"
         d="m 20.383,32.394 c 0,-6.621 5.375,-12 12.008,-12 l 176.004,0 c 6.632,0 11.992,5.379 11.992,12 l 0,735.992 c 0,6.637 -5.36,12.016 -11.992,12.016 l -176.004,0 c -6.633,0 -12.008,-5.379 -12.008,-12.016 l 0,-735.992 z m 12.008,760.008 176.004,0 c 13.246,0 24.003,-10.75 24.003,-24.016 l 0,-735.992 c 0,-13.254 -10.757,-23.992 -24.003,-23.992 l -176.004,0 C 19.137,8.402 8.398,19.14 8.398,32.394 l 0,735.992 c 0,13.266 10.739,24.016 23.993,24.016" /><path
         id="path28947"
         style="fill:#c1121c;fill-opacity:1;fill-rule:nonzero;stroke:none"
         d="m 220.387,400.917 0,84.008 -200.004,115.473 0,-84.004 200.004,-115.477 z m 0,-175.996 0,84.004 -200.004,115.457 0,-83.988 200.004,-115.473 z m 0,-176 0,84 -200.004,115.481 0,-84.012" /><path
         id="path28949"
         style="fill:#000000;fill-opacity:1;fill-rule:nonzero;stroke:none"
         d="m 88.195,611.535 0,46.011 9.207,0 0,-5.203 c 5.375,6.676 15.157,7.703 21.832,2.324 1.051,-0.847 1.977,-1.824 2.778,-2.898 6.004,7.402 16.883,8.476 24.261,2.476 4,-3.3 6.329,-8.203 6.329,-13.378 l 0,-29.332 -9.18,0 0,28.183 c 0,5.074 -4.102,9.199 -9.203,9.199 -5.106,0 -9.207,-4.125 -9.207,-9.199 l 0,-28.183 -9.203,0 0,28.183 c 0,5.074 -4.125,9.199 -9.204,9.199 -5.078,0 -9.203,-4.125 -9.203,-9.199 l 0,-28.183 -9.207,0 z M 152,701.828 c 0,-5.102 4.125,-9.204 9.203,-9.204 5.078,0 9.18,4.102 9.18,9.204 l 0,28.73 c 0,5.102 -4.102,9.203 -9.18,9.203 -5.078,0 -9.203,-4.101 -9.203,-9.203 l 0,-28.73 z m -9.203,0 0,28.73 c 0,10.176 8.226,18.402 18.406,18.402 10.156,0 18.383,-8.226 18.383,-18.402 l 0,-28.73 c 0,-10.176 -8.227,-18.403 -18.383,-18.403 -10.18,0 -18.406,8.227 -18.406,18.403 m -47.172,12.054 0,34.504 34.516,0 0,-9.199 -25.887,0 0,-14.531 c 7.226,5.726 17.707,4.504 23.434,-2.723 2.351,-2.926 3.601,-6.578 3.601,-10.352 l 0,-9.753 c 0,-10.176 -8.25,-18.403 -18.406,-18.403 -9.481,0 -17.434,7.227 -18.309,16.653 l 9.281,0 c 0.95,-4.977 5.75,-8.25 10.754,-7.301 4.352,0.824 7.477,4.625 7.477,9.051 l 0,8.05 c 0,5.078 -4.102,9.18 -9.203,9.18 -3.528,0 -6.727,-2.004 -8.278,-5.176 l -8.98,0 z m -34.414,17.828 0,9.774 9.203,6.902 9.203,0 0,-64.387 -9.203,0 0,54.61 -9.203,-6.899 z" /></g></g></svg>