<?xml version="1.0" encoding="UTF-8" standalone="no"?>
<svg
   xmlns:dc="http://purl.org/dc/elements/1.1/"
   xmlns:cc="http://creativecommons.org/ns#"
   xmlns:rdf="http://www.w3.org/1999/02/22-rdf-syntax-ns#"
   xmlns:svg="http://www.w3.org/2000/svg"
   xmlns="http://www.w3.org/2000/svg"
   viewBox="0 0 300.99631 1001.0051"
   height="1001.0051"
   width="300.99631"
   xml:space="preserve"
   version="1.1"
   id="svg29589"><metadata
     id="metadata29595"><rdf:RDF><cc:Work
         rdf:about=""><dc:format>image/svg+xml</dc:format><dc:type
           rdf:resource="http://purl.org/dc/dcmitype/StillImage" /><dc:title></dc:title></cc:Work></rdf:RDF></metadata><defs
     id="defs29593" /><g
     transform="matrix(1.25,0,0,-1.25,0,1001.0051)"
     id="g29597"><g
       id="g29599"><path
         id="path29601"
         style="fill:#ffffff;fill-opacity:1;fill-rule:nonzero;stroke:none"
         d="M 32.402,0.39 C 14.734,0.39 0.387,14.706 0.387,32.394 l 0,735.988 c 0,17.696 14.347,32.004 32.015,32.004 l 176.004,0 c 17.668,0 32.004,-14.308 32.004,-32.004 l 0,-735.988 C 240.41,14.706 226.074,0.39 208.406,0.39" /><path
         id="path29603"
         style="fill:#000000;fill-opacity:1;fill-rule:nonzero;stroke:none"
         d="M 32.402,800.804 C 14.539,800.804 0,786.269 0,768.386 L 0,32.394 C 0,14.531 14.539,-0.001 32.402,-0.001 l 176.004,0 c 17.864,0 32.391,14.532 32.391,32.395 l 0,735.992 c 0,17.883 -14.527,32.418 -32.391,32.418 l -176.004,0 z m 0,-0.414 176.004,0 c 17.668,0 32.004,-14.312 32.004,-32.004 l 0,-735.992 C 240.41,14.706 226.074,0.39 208.406,0.39 l -176.004,0 C 14.734,0.39 0.387,14.706 0.387,32.394 l 0,735.992 c 0,17.692 14.347,32.004 32.015,32.004 z" /><path
         id="path29605"
         style="fill:#000000;fill-opacity:1;fill-rule:nonzero;stroke:none"
         d="m 220.414,32.394 c 0,-6.621 -5.375,-12 -12.008,-12 l -176.004,0 c -6.632,0 -11.992,5.379 -11.992,12 l 0,735.992 c 0,6.637 5.36,12.016 11.992,12.016 l 176.004,0 c 6.633,0 12.008,-5.379 12.008,-12.016 l 0,-735.992 z m -12.008,760.008 -176.004,0 c -13.246,0 -24.004,-10.75 -24.004,-24.016 l 0,-735.992 C 8.398,19.14 19.156,8.402 32.402,8.402 l 176.004,0 c 13.254,0 23.992,10.738 23.992,23.992 l 0,735.992 c 0,13.266 -10.738,24.016 -23.992,24.016" /><path
         id="path29607"
         style="fill:#c1121c;fill-opacity:1;fill-rule:nonzero;stroke:none"
         d="m 20.625,407.886 199.547,115.77 0,-92.239 -199.547,-114.832 0,91.301 z m 0,-192.019 199.547,115.777 0,-92.246 L 20.625,124.566" /><path
         id="path29609"
         style="fill:#000000;fill-opacity:1;fill-rule:nonzero;stroke:none"
         d="m 88.82,611.535 0,46.007 9.188,0 0,-5.203 c 5.367,6.684 15.152,7.707 21.808,2.317 1.075,-0.836 2.004,-1.789 2.793,-2.887 6.016,7.394 16.871,8.492 24.246,2.457 4.008,-3.27 6.348,-8.184 6.348,-13.363 l 0,-29.328 -9.187,0 0,28.183 c 0,5.082 -4.106,9.188 -9.211,9.188 -5.082,0 -9.188,-4.106 -9.188,-9.188 l 0,-28.183 -9.211,0 0,28.183 c 0,5.082 -4.129,9.188 -9.211,9.188 -5.058,0 -9.187,-4.106 -9.187,-9.188 l 0,-28.183 -9.188,0 z m 64.383,90.273 c 0,-5.082 4.125,-9.188 9.188,-9.188 5.105,0 9.211,4.106 9.211,9.188 l 0,28.754 c 0,5.082 -4.106,9.211 -9.211,9.211 -5.063,0 -9.188,-4.129 -9.188,-9.211 l 0,-28.754 z m -9.187,0 0,28.754 c 0,10.164 8.23,18.398 18.375,18.398 10.187,0 18.421,-8.234 18.421,-18.398 l 0,-28.754 c 0,-10.164 -8.234,-18.398 -18.421,-18.398 -10.145,0 -18.375,8.234 -18.375,18.398 0,0 0,-10.164 0,0 m -40.258,0 c 0,-5.082 4.105,-9.188 9.187,-9.188 5.082,0 9.188,4.106 9.188,9.188 l 0,28.754 c 0,5.082 -4.106,9.211 -9.188,9.211 -5.082,0 -9.187,-4.129 -9.187,-9.211 l 0,-28.754 z m -9.211,0 0,28.754 c 0,10.164 8.258,18.398 18.398,18.398 10.164,0 18.399,-8.234 18.399,-18.398 l 0,-28.754 c 0,-10.164 -8.235,-18.398 -18.399,-18.398 -10.14,0 -18.398,8.234 -18.398,18.398 m -33.336,29.922 0,9.762 9.211,6.894 9.187,0 0,-64.402 -9.187,0 0,54.621 -9.211,-6.875 z" /></g></g></svg>