<?xml version="1.0" encoding="UTF-8" standalone="no"?>
<svg
   xmlns:dc="http://purl.org/dc/elements/1.1/"
   xmlns:cc="http://creativecommons.org/ns#"
   xmlns:rdf="http://www.w3.org/1999/02/22-rdf-syntax-ns#"
   xmlns:svg="http://www.w3.org/2000/svg"
   xmlns="http://www.w3.org/2000/svg"
   viewBox="0 0 300.99631 1001.0051"
   height="1001.0051"
   width="300.99631"
   xml:space="preserve"
   version="1.1"
   id="svg30029"><metadata
     id="metadata30035"><rdf:RDF><cc:Work
         rdf:about=""><dc:format>image/svg+xml</dc:format><dc:type
           rdf:resource="http://purl.org/dc/dcmitype/StillImage" /><dc:title></dc:title></cc:Work></rdf:RDF></metadata><defs
     id="defs30033" /><g
     transform="matrix(1.25,0,0,-1.25,0,1001.0051)"
     id="g30037"><g
       id="g30039"><path
         id="path30041"
         style="fill:#ffffff;fill-opacity:1;fill-rule:nonzero;stroke:none"
         d="m 208.395,0.39 c 17.667,0 32.015,14.316 32.015,32.004 l 0,735.988 c 0,17.696 -14.348,32.004 -32.015,32.004 l -176.004,0 c -17.668,0 -32.004,-14.308 -32.004,-32.004 l 0,-735.988 C 0.387,14.706 14.723,0.39 32.391,0.39" /><path
         id="path30043"
         style="fill:#000000;fill-opacity:1;fill-rule:nonzero;stroke:none"
         d="m 208.395,800.804 c 17.863,0 32.402,-14.535 32.402,-32.418 l 0,-735.992 c 0,-17.863 -14.539,-32.395 -32.402,-32.395 l -176.004,0 C 14.527,-0.001 0,14.531 0,32.394 l 0,735.992 c 0,17.883 14.527,32.418 32.391,32.418 l 176.004,0 z m 0,-0.414 -176.004,0 c -17.668,0 -32.004,-14.312 -32.004,-32.004 l 0,-735.992 C 0.387,14.706 14.723,0.39 32.391,0.39 l 176.004,0 c 17.667,0 32.015,14.316 32.015,32.004 l 0,735.992 c 0,17.692 -14.348,32.004 -32.015,32.004 z" /><path
         id="path30045"
         style="fill:#c1121c;fill-opacity:1;fill-rule:nonzero;stroke:none"
         d="m 18.547,316.933 203.703,115.469 0,-99.996 -203.703,-115.469 0,99.996 z" /><path
         id="path30047"
         style="fill:#000000;fill-opacity:1;fill-rule:nonzero;stroke:none"
         d="m 20.383,32.394 c 0,-6.621 5.375,-12 12.008,-12 l 176.004,0 c 6.632,0 11.992,5.379 11.992,12 l 0,735.992 c 0,6.637 -5.36,12.016 -11.992,12.016 l -176.004,0 c -6.633,0 -12.008,-5.379 -12.008,-12.016 l 0,-735.992 z m 12.008,760.008 176.004,0 c 13.246,0 24.003,-10.75 24.003,-24.016 l 0,-735.992 c 0,-13.254 -10.757,-23.992 -24.003,-23.992 l -176.004,0 C 19.137,8.402 8.398,19.14 8.398,32.394 l 0,735.992 c 0,13.266 10.739,24.016 23.993,24.016" /><path
         id="path30049"
         style="fill:#000000;fill-opacity:1;fill-rule:nonzero;stroke:none"
         d="m 78.258,713.878 0,34.496 35.078,0 0,-9.207 -26.309,0 0,-14.519 c 7.36,5.722 18.012,4.508 23.809,-2.731 2.379,-2.922 3.668,-6.578 3.668,-10.328 l 0,-9.793 c 0,-10.16 -8.375,-18.394 -18.707,-18.394 -9.66,0 -17.711,7.234 -18.629,16.687 l 9.437,0 c 0.969,-4.992 5.872,-8.281 10.95,-7.332 4.41,0.828 7.609,4.629 7.609,9.039 l 0,8.063 c 0,5.066 -4.187,9.211 -9.367,9.211 -3.567,0 -6.836,-2.024 -8.399,-5.192 l -9.14,0 z m 47.937,-12.082 0,28.746 c 0,10.184 8.399,18.418 18.731,18.418 10.328,0 18.703,-8.234 18.703,-18.418 l 0,-28.746 c 0,-10.16 -8.375,-18.394 -18.703,-18.394 -10.332,0 -18.731,8.234 -18.731,18.394 m 9.364,0 c 0,-5.066 4.187,-9.183 9.367,-9.183 5.152,0 9.34,4.117 9.34,9.183 l 0,28.746 c 0,5.09 -4.188,9.207 -9.34,9.207 -5.18,0 -9.367,-4.117 -9.367,-9.207 l 0,-28.746 z m -47.911,-90.261 0,45.996 9.364,0 0,-5.192 c 5.476,6.676 15.41,7.699 22.199,2.317 1.062,-0.852 2.004,-1.805 2.797,-2.875 6.144,7.359 17.195,8.453 24.699,2.437 4.063,-3.265 6.441,-8.187 6.441,-13.351 l 0,-29.332 -9.363,0 0,28.164 c 0,5.089 -4.187,9.207 -9.34,9.207 -5.179,0 -9.363,-4.118 -9.363,-9.207 l 0,-28.164 -9.367,0 0,28.164 c 0,5.089 -4.188,9.207 -9.34,9.207 -5.176,0 -9.363,-4.118 -9.363,-9.207 l 0,-28.164 -9.364,0 z" /></g></g></svg>