<?xml version="1.0" encoding="UTF-8" standalone="no"?>
<!-- Created with Inkscape (http://www.inkscape.org/) -->

<svg
   xmlns:svg="http://www.w3.org/2000/svg"
   xmlns="http://www.w3.org/2000/svg"
   version="1.1"
   width="409.99698"
   height="512"
   id="svg2">
  <defs
     id="defs4">
    <pattern
       patternUnits="userSpaceOnUse"
       width="370"
       height="476"
       patternTransform="translate(18.50938,18)"
       id="pattern4002">
      <rect
         ry="20"
         rx="20"
         y="0"
         x="0"
         height="476"
         width="370"
         id="rect2240"
         style="fill:#00e5ff;fill-opacity:1" />
    </pattern>
  </defs>
  <g
     transform="translate(-403.28571,100.21434)"
     id="layer1">
    <rect
       width="407.12177"
       height="509.11353"
       rx="19.754728"
       ry="19.936255"
       x="404.72333"
       y="-98.765442"
       id="rect2860"
       style="fill:#ffffff;stroke:#000000;stroke-width:2.8752284;stroke-linecap:round;stroke-linejoin:miter;stroke-miterlimit:4;stroke-opacity:1;stroke-dasharray:none" />
    <rect
       width="397.13782"
       height="498.76642"
       rx="14.363675"
       ry="15.623411"
       x="409.62457"
       y="-93.319656"
       id="rect3634"
       style="fill:#003399;fill-opacity:1;stroke:#003399;stroke-width:2.8752284;stroke-linecap:round;stroke-linejoin:miter;stroke-miterlimit:4;stroke-opacity:1;stroke-dasharray:none" />
    <path
       d="m 522.36779,380.30418 -33.51712,0 0,-382.5024295 -22.56325,0 40.4859,-64.6676535 40.22824,64.6676535 -24.63377,0 0,283.2844395 131.91211,-143.72232 c 21.92462,-23.15067 41.0646,-43.252404 41.0646,-62.51126 l 0,-77.0508595 -26.0714,0 39.59534,-64.6676535 41.29061,64.6676535 -24.27437,0 0,78.4267715 c 0,29.193648 -26.11043,56.764488 -55.7368,89.361478 L 560.45543,286.2813 c -20.17261,17.68284 -38.16064,38.01422 -38.08764,66.04358 l 0,27.9793 z"
       id="path2104-1"
       style="fill:#ffffff;fill-opacity:1;fill-rule:evenodd;stroke:none" />
    <path
       d="m 577.1052,145.93789 a 69.6438,69.6438 0 0 1 -139.28759,0 69.6438,69.6438 0 1 1 139.28759,0 z"
       id="path2991-7"
       style="fill:#003399;fill-opacity:1;fill-rule:evenodd;stroke:#ffffff;stroke-width:5.75045681;stroke-linecap:round;stroke-linejoin:miter;stroke-miterlimit:4;stroke-opacity:1;stroke-dasharray:none;stroke-dashoffset:0" />
    <g
       transform="matrix(1.4376142,0,0,1.4376142,-176.48355,-180.20327)"
       id="text3680"
       style="font-size:59.84000015px;font-style:normal;font-variant:normal;font-weight:bold;font-stretch:normal;text-align:start;line-height:125%;writing-mode:lr-tb;text-anchor:start;fill:#ffffff;fill-opacity:1;stroke:none;font-family:Drogowskaz;-inkscape-font-specification:Drogowskaz Bold">
      <path
         d="m 456.95141,228.38841 0,-6.17246 c 0.62331,0.18752 1.24664,0.28126 1.87,0.28123 1.55831,3e-5 2.88289,-0.54539 3.97375,-1.63625 1.0908,-1.0908 1.63622,-2.41538 1.63625,-3.97375 -3e-5,-1.5583 -0.54545,-2.88288 -1.63625,-3.97375 -1.09086,-1.09079 -2.41544,-1.63621 -3.97375,-1.63625 -1.55836,4e-5 -2.88294,0.54546 -3.97375,1.63625 -1.09085,1.09087 -1.63627,2.41545 -1.63625,3.97375 l -7.48,0 c -10e-6,-3.61578 1.2777,-6.7014 3.83313,-9.25686 2.55541,-2.55538 5.64072,-3.83309 9.25595,-3.83314 3.61519,5e-5 6.70081,1.27776 9.25687,3.83314 2.556,2.55546 3.83401,5.64108 3.83405,9.25686 -4e-5,2.92921 -0.87295,5.54733 -2.61874,7.85437 2.99246,2.99129 4.4887,6.6065 4.48874,10.84563 -4e-5,4.17586 -1.46493,7.71315 -4.39469,10.61189 -2.92981,2.89874 -6.45158,4.34811 -10.56531,4.34811 -4.11378,0 -7.63555,-1.44937 -10.56532,-4.34811 -2.9298,-2.89874 -4.39469,-6.43603 -4.39468,-10.61189 l 7.48,0 c -2e-5,2.0575 0.73228,3.81854 2.19688,5.28312 1.46457,1.46459 3.22531,2.19689 5.2822,2.19688 2.05686,1e-5 3.8179,-0.73229 5.28312,-2.19688 1.46517,-1.46458 2.19777,-3.22562 2.1978,-5.28312 -3e-5,-2.05747 -0.73263,-3.8185 -2.1978,-5.28311 -1.46522,-1.46457 -3.22596,-2.19687 -5.2822,-2.19689 -0.62336,2e-5 -1.24669,0.0938 -1.87,0.28123 z"
         id="path3790" />
      <path
         d="m 489.72206,216.04532 c -1.24668,3.61585 -1.87001,7.3248 -1.87,11.12686 -10e-6,3.80211 0.62332,7.51106 1.87,11.12687 0.37496,1.12128 1.07651,2.04045 2.10466,2.75752 1.02812,0.71708 2.19687,1.07562 3.50625,1.07561 1.30935,1e-5 2.4781,-0.35853 3.50625,-1.07561 1.02811,-0.71707 1.72906,-1.63624 2.10284,-2.75752 1.24664,-3.61581 1.86997,-7.32476 1.87,-11.12687 -3e-5,-3.80206 -0.62336,-7.51101 -1.87,-11.12686 -0.37378,-1.12124 -1.07473,-2.04041 -2.10284,-2.75752 -1.02815,-0.71704 -2.1969,-1.07558 -3.50625,-1.07562 -1.30938,4e-5 -2.47813,0.35858 -3.50625,1.07562 -1.02815,0.71711 -1.7297,1.63628 -2.10466,2.75752 z m -6.73127,24.96559 c -1.74582,-5.04996 -2.61873,-9.66286 -2.61873,-13.83873 0,-4.17582 0.87291,-8.78872 2.61873,-13.83873 0.93499,-2.55538 2.52437,-4.62778 4.76813,-6.2172 2.24375,-1.58933 4.76812,-2.38402 7.57314,-2.38407 2.80498,5e-5 5.32966,0.79474 7.57405,2.38407 2.24433,1.58942 3.83402,3.66182 4.76904,6.2172 1.74458,5.05001 2.61688,9.66291 2.61691,13.83873 -3e-5,4.17587 -0.87233,8.78877 -2.61691,13.83873 -0.93502,2.55543 -2.52471,4.62783 -4.76904,6.21721 -2.24439,1.58937 -4.76907,2.38406 -7.57405,2.38406 -2.80502,0 -5.32939,-0.79469 -7.57314,-2.38406 -2.24376,-1.58938 -3.83314,-3.66178 -4.76813,-6.21721 z"
         id="path3792" />
    </g>
    <rect
       width="7.2821903"
       height="37.1432"
       x="605.26196"
       y="39.991558"
       id="rect3889-8"
       style="fill:#ffffff;fill-opacity:1;fill-rule:evenodd;stroke:#ffffff;stroke-width:6.32866764;stroke-linecap:round;stroke-linejoin:miter;stroke-miterlimit:4;stroke-opacity:1;stroke-dasharray:none;stroke-dashoffset:0" />
    <rect
       width="7.2821903"
       height="37.1432"
       x="605.26196"
       y="-40.514839"
       id="rect3765"
       style="fill:#ffffff;fill-opacity:1;fill-rule:evenodd;stroke:#ffffff;stroke-width:6.32866764;stroke-linecap:round;stroke-linejoin:miter;stroke-miterlimit:4;stroke-opacity:1;stroke-dasharray:none;stroke-dashoffset:0" />
  </g>
</svg>
