<?xml version="1.0" encoding="UTF-8" standalone="no"?>
<!-- Created with Inkscape (http://www.inkscape.org/) -->

<svg
   xmlns:dc="http://purl.org/dc/elements/1.1/"
   xmlns:cc="http://creativecommons.org/ns#"
   xmlns:rdf="http://www.w3.org/1999/02/22-rdf-syntax-ns#"
   xmlns:svg="http://www.w3.org/2000/svg"
   xmlns="http://www.w3.org/2000/svg"
   xmlns:sodipodi="http://sodipodi.sourceforge.net/DTD/sodipodi-0.dtd"
   xmlns:inkscape="http://www.inkscape.org/namespaces/inkscape"
   width="602.20001"
   height="752.20001"
   id="svg2"
   sodipodi:version="0.32"
   inkscape:version="0.48.2 r9819"
   version="1.0"
   sodipodi:docname="Aa.svg">
  <defs
     id="defs4" />
  <sodipodi:namedview
     id="base"
     pagecolor="#ffffff"
     bordercolor="#666666"
     borderopacity="1.0"
     inkscape:pageopacity="0.0"
     inkscape:pageshadow="2"
     inkscape:zoom="0.708"
     inkscape:cx="237.51129"
     inkscape:cy="237.77706"
     inkscape:document-units="px"
     inkscape:current-layer="layer1"
     showgrid="true"
     inkscape:window-width="1280"
     inkscape:window-height="1004"
     inkscape:window-x="-8"
     inkscape:window-y="-8"
     fit-margin-top="0.1"
     fit-margin-left="0.1"
     fit-margin-right="0.1"
     fit-margin-bottom="0.1"
     inkscape:window-maximized="1">
    <inkscape:grid
       id="GridFromPre046Settings"
       type="xygrid"
       originx="0px"
       originy="230px"
       spacingx="55px"
       spacingy="55px"
       color="#0000ff"
       empcolor="#0000ff"
       opacity="0.2"
       empopacity="0.4"
       empspacing="8"
       visible="true"
       enabled="true"
       snapvisiblegridlinesonly="true" />
  </sodipodi:namedview>
  <metadata
     id="metadata7">
    <rdf:RDF>
      <cc:Work
         rdf:about="">
        <dc:format>image/svg+xml</dc:format>
        <dc:type
           rdf:resource="http://purl.org/dc/dcmitype/StillImage" />
        <dc:title>PL - Znak drogowy D15</dc:title>
        <dc:date>29.07.2006</dc:date>
        <dc:creator>
          <cc:Agent>
            <dc:title>MaciekS</dc:title>
          </cc:Agent>
        </dc:creator>
        <dc:rights>
          <cc:Agent>
            <dc:title>Free</dc:title>
          </cc:Agent>
        </dc:rights>
        <dc:publisher>
          <cc:Agent>
            <dc:title>Wikipedia</dc:title>
          </cc:Agent>
        </dc:publisher>
        <dc:subject>
          <rdf:Bag>
            <rdf:li>znak drogowy informacyjny</rdf:li>
          </rdf:Bag>
        </dc:subject>
        <dc:description>Znaki drogowe -Polska. Wykonane na podstawie załącznika do Ustawy</dc:description>
      </cc:Work>
    </rdf:RDF>
  </metadata>
  <g
     inkscape:label="Layer 1"
     inkscape:groupmode="layer"
     id="layer1"
     transform="translate(1.1,1.1)">
    <rect
       style="fill:#ffffff;fill-opacity:1;fill-rule:nonzero;stroke:#000000;stroke-width:2;stroke-linecap:butt;stroke-linejoin:round;stroke-miterlimit:4;stroke-opacity:1;stroke-dasharray:none;stroke-dashoffset:0"
       id="rect2188"
       width="600"
       height="750"
       x="0"
       y="0"
       ry="21.226416" />
    <rect
       style="fill:#003399;fill-opacity:1;fill-rule:nonzero;stroke:none"
       id="rect1307"
       width="589"
       height="739"
       x="5.5"
       y="5.5"
       ry="20.915094" />
    <rect
       style="fill:#ffffff;fill-opacity:1;fill-rule:nonzero;stroke:none"
       id="rect3055"
       width="440"
       height="440"
       x="80"
       y="80"
       ry="0" />
    <g
       id="g4001"
       inkscape:label="Layer 1"
       transform="matrix(0.539661,0,0,0.539661,33.54238,17.9014)">
      <rect
         y="425.5"
         x="537.5"
         height="87"
         width="25"
         id="rect3082"
         style="fill:#ffffff;fill-opacity:1;fill-rule:nonzero;stroke:none" />
      <rect
         y="425.5"
         x="575"
         height="87"
         width="25"
         id="rect3084"
         style="fill:#ffffff;fill-opacity:1;fill-rule:nonzero;stroke:none" />
      <path
         id="path3968"
         d="m 740,425 10,5 0,77.5 -10,5 -117.5,0 -10,-5 0,-77.5 10,-5 117.5,0 z"
         style="fill:#ffffff;fill-opacity:1;fill-rule:evenodd;stroke:none"
         inkscape:connector-curvature="0" />
      <path
         id="path4847"
         d="m 502.5,425 10,5 0,77.5 -10,5 -92.5,0 -10,-5 0,-77.5 10,-5 92.5,0 z"
         style="fill:#ffffff;fill-opacity:1;fill-rule:evenodd;stroke:none"
         inkscape:connector-curvature="0" />
      <path
         id="path4849"
         d="m 377.5,425 10,5 0,77.5 -10,5 -105,0 -10,-5 0,-77.5 10,-5 105,0 z"
         style="fill:#ffffff;fill-opacity:1;fill-rule:evenodd;stroke:none"
         inkscape:connector-curvature="0" />
      <path
         sodipodi:nodetypes="ccccccccc"
         id="path4854"
         d="m 168,425 -5,5 -6.75,77.5 10,5 77.5,0 6.25,-5 0,-77.5 -6.25,-5 -72.4,0 -3.35,0 z"
         style="fill:#ffffff;fill-opacity:1;fill-rule:evenodd;stroke:none"
         inkscape:connector-curvature="0" />
    </g>
    <path
       style="fill:#000000;fill-opacity:1;fill-rule:evenodd;stroke:none;display:inline"
       d="M 104.78125 289.96875 L 101 330.4375 L 101 397.90625 L 195.4375 404.65625 C 195.58224 419.42696 207.63278 431.34375 222.4375 431.34375 C 237.24223 431.34375 249.26152 419.42696 249.40625 404.65625 L 384.3125 404.65625 C 384.45724 419.42696 396.50778 431.34375 411.3125 431.34375 C 426.11723 431.34375 438.13652 419.42696 438.28125 404.65625 L 489.5625 404.65625 L 499 397.90625 L 499 357.4375 L 474.71875 289.96875 L 104.78125 289.96875 z M 124.21875 303.4375 L 126 303.4375 L 165.09375 303.4375 L 168.46875 306.15625 L 168.46875 347.96875 L 165.09375 350.65625 L 123.25 350.65625 L 117.875 347.96875 L 121.5 306.15625 L 124.21875 303.4375 z M 180.59375 303.4375 L 237.25 303.4375 L 242.65625 306.15625 L 242.65625 347.96875 L 237.25 350.65625 L 180.59375 350.65625 L 175.21875 347.96875 L 175.21875 306.15625 L 180.59375 303.4375 z M 254.8125 303.4375 L 304.71875 303.4375 L 310.125 306.15625 L 310.125 347.96875 L 304.71875 350.65625 L 254.8125 350.65625 L 249.40625 347.96875 L 249.40625 306.15625 L 254.8125 303.4375 z M 369.46875 303.4375 L 432.90625 303.4375 L 438.28125 306.15625 L 438.28125 347.96875 L 432.90625 350.65625 L 369.46875 350.65625 L 364.09375 347.96875 L 364.09375 306.15625 L 369.46875 303.4375 z M 450.4375 303.4375 L 472.8125 303.4375 L 492.25 357.40625 L 478.75 370.90625 L 450.4375 370.90625 L 445.03125 364.15625 L 445.03125 306.15625 L 450.4375 303.4375 z M 323.625 303.71875 L 337.09375 303.71875 L 337.09375 350.65625 L 323.625 350.65625 L 323.625 303.71875 z M 343.84375 303.71875 L 357.34375 303.71875 L 357.34375 350.65625 L 343.84375 350.65625 L 343.84375 303.71875 z "
       transform="translate(-1.1,-1.1)"
       id="path1307" />
    <path
       inkscape:connector-curvature="0"
       sodipodi:nodetypes="cccc"
       id="path2780"
       d="M 308.81141,282.00683 C 105.53944,213.59668 102.7357,212.89142 102.7357,212.89142 l 257.24416,76.16799 -51.16845,-7.05258 z"
       style="fill:#000000;fill-opacity:1;fill-rule:evenodd;stroke:#000000;stroke-width:0.99697125px;stroke-linecap:butt;stroke-linejoin:miter;stroke-opacity:1;display:inline" />
    <rect
       y="281.91125"
       x="299.4888"
       height="8.2930746"
       width="69.382858"
       id="rect2795"
       style="fill:#000000;fill-opacity:1;fill-rule:nonzero;stroke:#000000;stroke-width:1.17756677;stroke-opacity:1;display:inline" />
    <path
       inkscape:connector-curvature="0"
       sodipodi:nodetypes="ccccc"
       id="path3667"
       d="m 103.10358,213.02072 c 0,-7.28035 0,-3.74854 0,-3.74854 l 30.39241,0 0,13.58998 -30.39241,-9.84144 z"
       style="fill:#000000;fill-opacity:1;fill-rule:evenodd;stroke:#000000;stroke-width:0.80802846px;stroke-linecap:butt;stroke-linejoin:miter;stroke-opacity:1;display:inline" />
  </g>
</svg>
