<?xml version="1.0" encoding="UTF-8" standalone="no"?>
<!-- Created with Inkscape (http://www.inkscape.org/) -->

<svg
   xmlns:dc="http://purl.org/dc/elements/1.1/"
   xmlns:cc="http://creativecommons.org/ns#"
   xmlns:rdf="http://www.w3.org/1999/02/22-rdf-syntax-ns#"
   xmlns:svg="http://www.w3.org/2000/svg"
   xmlns="http://www.w3.org/2000/svg"
   xmlns:sodipodi="http://sodipodi.sourceforge.net/DTD/sodipodi-0.dtd"
   xmlns:inkscape="http://www.inkscape.org/namespaces/inkscape"
   width="602.20001"
   height="752.20001"
   id="svg2"
   sodipodi:version="0.32"
   inkscape:version="0.48.2 r9819"
   version="1.0"
   sodipodi:docname="Aa.svg">
  <defs
     id="defs4" />
  <sodipodi:namedview
     id="base"
     pagecolor="#ffffff"
     bordercolor="#666666"
     borderopacity="1.0"
     inkscape:pageopacity="0.0"
     inkscape:pageshadow="2"
     inkscape:zoom="0.708"
     inkscape:cx="237.51129"
     inkscape:cy="237.77706"
     inkscape:document-units="px"
     inkscape:current-layer="layer1"
     showgrid="true"
     inkscape:window-width="1280"
     inkscape:window-height="1004"
     inkscape:window-x="-8"
     inkscape:window-y="-8"
     fit-margin-top="0.1"
     fit-margin-left="0.1"
     fit-margin-right="0.1"
     fit-margin-bottom="0.1"
     inkscape:window-maximized="1">
    <inkscape:grid
       id="GridFromPre046Settings"
       type="xygrid"
       originx="0px"
       originy="230px"
       spacingx="55px"
       spacingy="55px"
       color="#0000ff"
       empcolor="#0000ff"
       opacity="0.2"
       empopacity="0.4"
       empspacing="8"
       visible="true"
       enabled="true"
       snapvisiblegridlinesonly="true" />
  </sodipodi:namedview>
  <metadata
     id="metadata7">
    <rdf:RDF>
      <cc:Work
         rdf:about="">
        <dc:format>image/svg+xml</dc:format>
        <dc:type
           rdf:resource="http://purl.org/dc/dcmitype/StillImage" />
        <dc:title>PL - Znak drogowy D15</dc:title>
        <dc:date>29.07.2006</dc:date>
        <dc:creator>
          <cc:Agent>
            <dc:title>MaciekS</dc:title>
          </cc:Agent>
        </dc:creator>
        <dc:rights>
          <cc:Agent>
            <dc:title>Free</dc:title>
          </cc:Agent>
        </dc:rights>
        <dc:publisher>
          <cc:Agent>
            <dc:title>Wikipedia</dc:title>
          </cc:Agent>
        </dc:publisher>
        <dc:subject>
          <rdf:Bag>
            <rdf:li>znak drogowy informacyjny</rdf:li>
          </rdf:Bag>
        </dc:subject>
        <dc:description>Znaki drogowe -Polska. Wykonane na podstawie załącznika do Ustawy</dc:description>
      </cc:Work>
    </rdf:RDF>
  </metadata>
  <g
     inkscape:label="Layer 1"
     inkscape:groupmode="layer"
     id="layer1"
     transform="translate(1.1,1.1)">
    <rect
       style="fill:#ffffff;fill-opacity:1;fill-rule:nonzero;stroke:#000000;stroke-width:2;stroke-linecap:butt;stroke-linejoin:round;stroke-miterlimit:4;stroke-opacity:1;stroke-dasharray:none;stroke-dashoffset:0"
       id="rect2188"
       width="600"
       height="750"
       x="0"
       y="0"
       ry="21.226416" />
    <rect
       style="fill:#003399;fill-opacity:1;fill-rule:nonzero;stroke:none"
       id="rect1307"
       width="589"
       height="739"
       x="5.5"
       y="5.5"
       ry="20.915094" />
    <rect
       style="fill:#ffffff;fill-opacity:1;fill-rule:nonzero;stroke:none"
       id="rect3055"
       width="440"
       height="440"
       x="80"
       y="80"
       ry="0" />
    <path
       inkscape:connector-curvature="0"
       d="m 354.24375,189.70875 -57.75,35.34157 38.25,31.39052 -5.28125,0 -2.5,9.23983 -111.5625,0 -114.0625,13.0042 0,93.51826 -7.4375,0 0,14.40417 7.4375,0 0,5.97322 25.4375,6.7821 50.1875,0 c -0.006,0.16474 -0.0625,0.33147 -0.0625,0.49777 0,6.97945 5.67675,12.63086 12.6875,12.63087 7.01074,0 12.75001,-5.65143 12.75,-12.63087 0,-0.1663 -0.0561,-0.33303 -0.0625,-0.49777 l 16.6875,0 c -0.006,0.16474 -0.0625,0.33147 -0.0625,0.49777 0,6.97945 5.67675,12.63086 12.6875,12.63087 7.01074,0 12.75001,-5.65143 12.75,-12.63087 0,-0.1663 -0.0561,-0.33303 -0.0625,-0.49777 l 13.8125,0 1,-3.57771 66.125,0 0.875,3.57771 6.875,0 c -0.006,0.16474 -0.0625,0.33147 -0.0625,0.49777 0,6.97945 5.67676,12.63086 12.6875,12.63087 7.01074,0 12.75001,-5.65143 12.75,-12.63087 0,-0.1663 -0.0561,-0.33303 -0.0625,-0.49777 l 16.6875,0 c -0.006,0.16474 -0.0625,0.33147 -0.0625,0.49777 0,6.97945 5.67676,12.63086 12.6875,12.63087 7.01074,0 12.75001,-5.65143 12.75,-12.63087 0,-0.1663 -0.0561,-0.33303 -0.0625,-0.49777 l 49.25,0 1.375,-3.57771 38.5,0 6.6875,-3.91993 0,-5.25768 7.8125,0 0,-14.40417 -7.8125,0 0,-31.63941 -6.6875,-49.21686 4.625,-0.37333 1.75,-20.03518 -113.6875,-5.25768 -3.21875,-9.23983 -5.28125,0 38.40625,-31.39052 -57.75,-35.34157 z m -0.59375,10.73314 42.5625,24.60843 -42.26562,34.65713 -42.85938,-34.65713 42.5625,-24.60843 z m -245.96875,84.2162 14.125,0 0,47.44356 -14.125,0 0,-47.44356 z m 20,0 14.125,0 0,101.23367 -14.125,0 0,-101.23367 z m 21.3125,0 14.125,0 0,101.23367 -14.125,0 0,-101.23367 z m 21.65625,0 74.3125,0 0,47.44356 -74.3125,0 0,-47.44356 z m 81.46875,0 74.3125,0 0,47.44356 -74.3125,0 0,-47.44356 z m 82,0 74.3125,0 0,47.44356 -74.3125,0 0,-47.44356 z m 80.875,0 14.125,0 0,101.23367 -14.125,0 0,-101.23367 z m 20.6875,0 14.125,0 0,101.23367 -14.125,0 0,-101.23367 z m 21.0625,6.84432 27.28125,0 6.46875,48.25243 -3.59375,6.06656 -30.15625,0 0,-54.31899 z"
       style="fill:#000000;fill-rule:evenodd;stroke:none"
       id="path2877" />
  </g>
</svg>
