<?xml version="1.0" encoding="UTF-8" standalone="no"?>
<!-- Created with Inkscape (http://www.inkscape.org/) -->

<svg
   xmlns:svg="http://www.w3.org/2000/svg"
   xmlns="http://www.w3.org/2000/svg"
   version="1.1"
   width="499.9899"
   height="624.05963"
   id="svg2">
  <defs
     id="defs4">
    <pattern
       patternUnits="userSpaceOnUse"
       width="370"
       height="476"
       patternTransform="translate(18.50938,18)"
       id="pattern4002">
      <rect
         ry="20"
         rx="20"
         y="0"
         x="0"
         height="476"
         width="370"
         id="rect2240"
         style="fill:#00e5ff;fill-opacity:1" />
    </pattern>
  </defs>
  <g
     transform="translate(-81.380188,-253.67667)"
     id="layer1">
    <path
       d="m 104.44179,255.36582 453.86669,0 c 11.84033,0 21.37245,9.53212 21.37245,21.37246 l 0,577.93637 c 0,11.84034 -9.53212,21.37247 -21.37245,21.37247 l -453.86669,0 c -11.840334,0 -21.372447,-9.53213 -21.372447,-21.37247 l 0,-577.93637 c 0,-11.84034 9.532113,-21.37246 21.372447,-21.37246 z"
       id="rect3735"
       style="fill:#ffffff;fill-opacity:1;stroke:#000000;stroke-width:3.37830997;stroke-miterlimit:4;stroke-opacity:1" />
    <path
       d="m 105.3377,260.44205 452.37106,0 c 9.52436,0 17.192,7.66763 17.192,17.19201 l 0,576.294 c 0,9.52438 -7.66764,17.19201 -17.192,17.19201 l -452.37106,0 c -9.524378,0 -17.192012,-7.66763 -17.192012,-17.19201 l 0,-576.294 c 0,-9.52438 7.667634,-17.19201 17.192012,-17.19201 z"
       id="rect3737"
       style="fill:#003399;fill-opacity:1;stroke:none" />
    <path
       d="m 278.86072,784.73423 -70.6965,0 0,-366.45381 204.23565,0 c 37.3126,4.48898 58.65549,44.2497 58.65549,66.87305 0,0 0,88.12279 0,132.79343 -6.39589,29.81309 -27.03859,59.91165 -69.25107,59.91165 l -122.94357,0 0,106.87568 z m -0.82386,-297.86173 0,123.02405 118.55186,0 c 0,0 5.52339,-6.46595 5.52339,-6.46595 l 0,-106.00918 c 0,0 -9.40715,-10.54892 -9.40715,-10.54892 l -114.6681,0 z"
       id="path3739"
       style="fill:#ffffff;fill-rule:evenodd;stroke:none" />
    <path
       d="m 132.33507,429.18442 0,-74.65081 198.86979,-74.65082 199.46696,74.65082 0,75.54662 -199.46698,-75.54662 -198.86977,74.65081 z"
       id="path3741"
       style="fill:#ffffff;fill-opacity:1;stroke:none" />
  </g>
</svg>
