<?xml version="1.0" encoding="UTF-8" standalone="no"?>
<!-- Created with Inkscape (http://www.inkscape.org/) -->

<svg
   xmlns:svg="http://www.w3.org/2000/svg"
   xmlns="http://www.w3.org/2000/svg"
   version="1.1"
   width="602"
   height="602"
   id="svg2">
  <defs
     id="defs4">
    <pattern
       patternUnits="userSpaceOnUse"
       width="370"
       height="476"
       patternTransform="translate(18.50938,18)"
       id="pattern4002">
      <rect
         ry="20"
         rx="20"
         y="0"
         x="0"
         height="476"
         width="370"
         id="rect2240"
         style="fill:#00e5ff;fill-opacity:1" />
    </pattern>
  </defs>
  <g
     transform="translate(-78.375,228.26282)"
     id="layer1">
    <path
       d="m 106.13966,-226.18414 546.42563,0 c 14.255,0 25.73103,11.47604 25.73103,25.73103 l 0,546.42564 c 0,14.25499 -11.47603,25.73102 -25.73103,25.73102 l -546.42563,0 c -14.254991,0 -25.731028,-11.47603 -25.731028,-25.73102 l 0,-546.42564 c 0,-14.25499 11.476037,-25.73103 25.731028,-25.73103 z"
       id="rect2854"
       style="fill:#ffffff;fill-opacity:1;stroke:#000000;stroke-width:4.06726313;stroke-miterlimit:4;stroke-opacity:1" />
    <path
       d="m 107.21826,-220.07266 544.625,0 c 11.46672,0 20.69804,9.23133 20.69804,20.69805 l 0,544.26865 c 0,11.46672 -9.23132,20.69804 -20.69804,20.69804 l -544.625,0 c -11.466716,0 -20.698042,-9.23132 -20.698042,-20.69804 l 0,-544.26865 c 0,-11.46672 9.231326,-20.69805 20.698042,-20.69805 z"
       id="rect3628"
       style="fill:#003399;fill-opacity:1;stroke:none" />
    <path
       d="m 316.12856,290.34903 -85.11395,0 0,-441.18628 245.8863,0 c 44.9219,5.40443 70.61734,53.27372 70.61734,80.510758 0,0 0,106.094031 0,159.874557 -7.70022,35.892985 -32.55268,72.129675 -83.37373,72.129675 l -148.01596,0 0,128.67129 z m -0.99189,-358.605937 0,148.112867 142.72865,0 c 0,0 6.64979,-7.784579 6.64979,-7.784579 l 0,-127.628075 c 0,0 -11.32558,-12.700213 -11.32558,-12.700213 l -138.05286,0 z"
       id="path3878-7"
       style="fill:#ffffff;fill-rule:evenodd;stroke:none" />
  </g>
</svg>
