<?xml version="1.0" encoding="UTF-8" standalone="no"?>
<!-- Created with Inkscape (http://www.inkscape.org/) -->

<svg
   xmlns:dc="http://purl.org/dc/elements/1.1/"
   xmlns:cc="http://creativecommons.org/ns#"
   xmlns:rdf="http://www.w3.org/1999/02/22-rdf-syntax-ns#"
   xmlns:svg="http://www.w3.org/2000/svg"
   xmlns="http://www.w3.org/2000/svg"
   xmlns:sodipodi="http://sodipodi.sourceforge.net/DTD/sodipodi-0.dtd"
   xmlns:inkscape="http://www.inkscape.org/namespaces/inkscape"
   width="600.20001"
   height="600.20001"
   id="svg2"
   sodipodi:version="0.32"
   inkscape:version="0.48.2 r9819"
   version="1.0"
   sodipodi:docname="Aa.svg">
  <defs
     id="defs4" />
  <sodipodi:namedview
     id="base"
     pagecolor="#ffffff"
     bordercolor="#666666"
     borderopacity="1.0"
     inkscape:pageopacity="0.0"
     inkscape:pageshadow="2"
     inkscape:zoom="0.70710678"
     inkscape:cx="178.7863"
     inkscape:cy="383.66569"
     inkscape:document-units="px"
     inkscape:current-layer="g14429"
     showgrid="true"
     inkscape:window-width="1280"
     inkscape:window-height="968"
     inkscape:window-x="-4"
     inkscape:window-y="-4"
     showguides="true"
     inkscape:guide-bbox="true"
     fit-margin-bottom="0.1"
     fit-margin-top="0.1"
     fit-margin-right="0.1"
     fit-margin-left="0.1"
     inkscape:window-maximized="0">
    <inkscape:grid
       id="GridFromPre046Settings"
       type="xygrid"
       originx="0px"
       originy="230px"
       spacingx="55px"
       spacingy="55px"
       color="#0000ff"
       empcolor="#0000ff"
       opacity="0.2"
       empopacity="0.4"
       empspacing="8"
       visible="true"
       enabled="true"
       snapvisiblegridlinesonly="true" />
  </sodipodi:namedview>
  <metadata
     id="metadata7">
    <rdf:RDF>
      <cc:Work
         rdf:about="">
        <dc:format>image/svg+xml</dc:format>
        <dc:type
           rdf:resource="http://purl.org/dc/dcmitype/StillImage" />
        <dc:title>PL - Znak drogowy informacyjny</dc:title>
        <dc:date>17.1.2007</dc:date>
        <dc:creator>
          <cc:Agent>
            <dc:title>Julo</dc:title>
          </cc:Agent>
        </dc:creator>
        <dc:rights>
          <cc:Agent>
            <dc:title>Free</dc:title>
          </cc:Agent>
        </dc:rights>
        <dc:publisher>
          <cc:Agent>
            <dc:title>Wikipedia</dc:title>
          </cc:Agent>
        </dc:publisher>
        <dc:subject>
          <rdf:Bag>
            <rdf:li>znak drogowy informacyjny</rdf:li>
          </rdf:Bag>
        </dc:subject>
        <dc:description>Znaki drogowe - Polska. Wykonane na podstawie załącznika do Ustawy</dc:description>
        <dc:contributor>
          <cc:Agent>
            <dc:title>MaciekS</dc:title>
          </cc:Agent>
        </dc:contributor>
        <cc:license
           rdf:resource="http://web.resource.org/cc/PublicDomain" />
      </cc:Work>
      <cc:License
         rdf:about="http://web.resource.org/cc/PublicDomain">
        <cc:permits
           rdf:resource="http://web.resource.org/cc/Reproduction" />
        <cc:permits
           rdf:resource="http://web.resource.org/cc/Distribution" />
        <cc:permits
           rdf:resource="http://web.resource.org/cc/DerivativeWorks" />
      </cc:License>
    </rdf:RDF>
  </metadata>
  <g
     inkscape:label="L1"
     inkscape:groupmode="layer"
     id="layer1"
     style="display:inline"
     transform="translate(1.1,-1.9)" />
  <g
     id="g14429"
     transform="translate(1.1,-1.9)">
    <rect
       rx="21.226416"
       ry="21.226416"
       y="2.9943807"
       x="-0.0022616801"
       height="598.01776"
       width="598.0144"
       id="rect2188"
       style="fill:#ffffff;fill-opacity:1;fill-rule:evenodd;stroke:#000000;stroke-width:1.98349416;stroke-linecap:butt;stroke-linejoin:round;stroke-miterlimit:4;stroke-opacity:1;stroke-dasharray:none;stroke-dashoffset:0;display:inline" />
    <path
       id="rect1307"
       d="M 27.322103,7.4749088 C 210.50524,7.6994985 393.74462,7.0256797 576.8926,7.8119071 c 23.23041,4.7169489 15.21781,26.3208969 16.63445,40.3736849 0,176.919488 0,353.838978 0,530.758478 -0.1925,18.03384 -25.30377,17.34594 -41.56728,16.64473 -176.27601,-0.22458 -352.60825,0.44923 -528.849103,-0.33699 -23.23039865,-4.71695 -15.2178028,-26.3209 -16.6344392,-40.37369 0,-176.91948 0,-353.83897 0,-530.758473 C 6.2056462,15.172671 16.113111,7.2595892 27.322103,7.4749088 z"
       style="fill:#003399;fill-opacity:1;fill-rule:evenodd;stroke:none;display:inline"
       inkscape:connector-curvature="0" />
    <g
       id="g14415">
      <path
         id="path1994"
         d="m 413.78858,59.026461 0,59.577599 -59.54039,0 0,69.01063 59.54039,0 0,59.5776 69.04784,0 0,-59.5776 59.54039,0 0,-69.01063 -59.54039,0 0,-59.577599 -69.04784,0 z"
         style="fill:#ffffff;fill-opacity:1;fill-rule:nonzero;stroke:none"
         sodipodi:nodetypes="ccccccccccccc"
         inkscape:connector-curvature="0" />
      <path
         style="fill:#d40000;fill-opacity:1;fill-rule:nonzero;stroke:none"
         d="m 419.3125,64 0,60.125 -60.09375,0 0,57.96875 60.09375,0 0,60.125 58,0 0,-60.125 60.09375,0 0,-57.96875 -60.09375,0 0,-60.125 -58,0 z"
         id="rect1986"
         inkscape:connector-curvature="0" />
    </g>
    <g
       id="g14419"
       style="stroke:#000000;stroke-opacity:1;fill:#ffffff;fill-opacity:1">
      <path
         sodipodi:nodetypes="ccccc"
         style="fill:#ffffff;fill-opacity:1;fill-rule:evenodd;stroke:#000000;stroke-width:5;stroke-linecap:butt;stroke-linejoin:miter;stroke-miterlimit:4;stroke-opacity:1;stroke-dasharray:none"
         d="m 58.34375,406.21875 0,-104.59375 -16.84375,-8 0,112.59375 16.84375,0 z"
         id="path6447"
         inkscape:connector-curvature="0" />
      <path
         style="fill:#ffffff;fill-opacity:1;fill-rule:nonzero;stroke:#000000;stroke-width:5;stroke-linecap:round;stroke-linejoin:miter;stroke-miterlimit:4;stroke-opacity:1;stroke-dasharray:none;stroke-dashoffset:0"
         d="m 116.5,309.5 202.5,-2 236,114 -210.5,0 -228,-112 z"
         id="rect5554"
         sodipodi:nodetypes="ccccc"
         inkscape:connector-curvature="0" />
      <path
         style="fill:#ffffff;fill-opacity:1;fill-rule:nonzero;stroke:#000000;stroke-width:5;stroke-linecap:round;stroke-linejoin:miter;stroke-miterlimit:4;stroke-opacity:1;stroke-dasharray:none;stroke-dashoffset:0"
         d="m 41.5,276.25 304.5,146 0,26.25 -304.5,-146 0,-26.25 z"
         id="rect6442"
         sodipodi:nodetypes="ccccc"
         inkscape:connector-curvature="0" />
      <path
         style="fill:#ffffff;fill-opacity:1;fill-rule:evenodd;stroke:#000000;stroke-width:5;stroke-linecap:butt;stroke-linejoin:miter;stroke-miterlimit:4;stroke-opacity:1;stroke-dasharray:none"
         d="m 358.75,360 -17.25,14.5 0,180.5 19,0 0,-104.3125 177.03125,0 0,104.65625 16.59375,0.34375 0,-183.8125 L 540.25,360 l -181.5,0 z m 1.59375,17.875 177.34375,0 0,44.5 -177.34375,-0.15625 0,-44.34375 z"
         id="path1996"
         sodipodi:nodetypes="cccccccccccccccc"
         inkscape:connector-curvature="0" />
      <path
         id="path3774"
         d="m 58.75,180 -17.25,16.5 0,61.71875 76.80696,47.39734 209.81804,0.0714 -88,-49.3125 0,-62.5 L 224.25,180 58.75,180 z m 1.59375,19.875 161.34375,0 0,54.5 -161.34375,-0.15625 0,-54.34375 z"
         style="fill:#ffffff;fill-opacity:1;fill-rule:evenodd;stroke:#000000;stroke-width:5;stroke-linecap:butt;stroke-linejoin:miter;stroke-miterlimit:4;stroke-opacity:1;stroke-dasharray:none"
         sodipodi:nodetypes="cccccccccccccc"
         inkscape:connector-curvature="0" />
      <path
         sodipodi:nodetypes="cccc"
         id="path6445"
         d="M 41.5,260.33211 115.9519,309.26256 41.5,274.625 l 0,-14.29289 z"
         style="fill:#ffffff;fill-opacity:1;fill-rule:nonzero;stroke:#000000;stroke-width:5;stroke-linecap:round;stroke-linejoin:miter;stroke-miterlimit:4;stroke-opacity:1;stroke-dasharray:none;stroke-dashoffset:0"
         inkscape:connector-curvature="0" />
    </g>
  </g>
</svg>
