<?xml version="1.0" encoding="UTF-8" standalone="no"?>
<!-- Created with Inkscape (http://www.inkscape.org/) -->

<svg
   xmlns:svg="http://www.w3.org/2000/svg"
   xmlns="http://www.w3.org/2000/svg"
   version="1.1"
   width="597.67798"
   height="602"
   id="svg2">
  <defs
     id="defs4" />
  <g
     transform="translate(-60.25,242.13781)"
     id="layer1">
    <path
       d="m 91.092463,-241.12178 535.993027,0 c 16.52385,0 29.82643,13.30258 29.82643,29.82642 l 0,540.31509 c 0,16.52384 -13.30258,29.82641 -29.82643,29.82641 l -535.993027,0 c -16.523842,0 -29.826429,-13.30257 -29.826429,-29.82641 l 0,-540.31509 c 0,-16.52384 13.302587,-29.82642 29.826429,-29.82642 z"
       id="rect2877"
       style="fill:#ffffff;fill-opacity:1;stroke:#003399;stroke-width:2.03206754;stroke-linecap:butt;stroke-linejoin:miter;stroke-miterlimit:4;stroke-opacity:1" />
    <path
       d="m 93.12453,-234.51756 532.4369,0 c 13.99089,0 25.25429,11.2634 25.25429,25.25428 l 0,536.75895 c 0,13.99087 -11.2634,25.25427 -25.25429,25.25427 l -532.4369,0 c -13.99087,0 -25.254277,-11.2634 -25.254277,-25.25427 l 0,-536.75895 c 0,-13.99088 11.263407,-25.25428 25.254277,-25.25428 z"
       id="rect3651"
       style="fill:#003399;fill-opacity:1;stroke:#003399;stroke-width:2.03206754;stroke-linecap:butt;stroke-linejoin:miter;stroke-miterlimit:4;stroke-opacity:1" />
    <g
       transform="matrix(2.0320675,0,0,2.0320675,-62.182068,-371.40207)"
       id="text3653"
       style="font-size:69.05067444px;font-style:normal;font-variant:normal;font-weight:bold;font-stretch:normal;text-align:start;line-height:125%;writing-mode:lr-tb;text-anchor:start;fill:#ffffff;fill-opacity:1;stroke:none;font-family:Drogowskaz;-inkscape-font-specification:Drogowskaz Bold">
      <path
         d="m 123.49482,215.84395 -15.96832,0 0,21.875 -8.750003,0 0,-52.5 24.718323,0 c 2.47942,1.6777 4.44831,3.8652 5.90668,6.5625 1.45829,2.69739 2.18746,5.61405 2.1875,8.75 -4e-5,3.13602 -0.72921,6.05268 -2.1875,8.75 -1.45837,2.69737 -3.42726,4.88487 -5.90668,6.5625 z m -3.1723,-8.75 c 1.67762,-1.89552 2.51645,-4.08302 2.51648,-6.5625 -3e-5,-2.47941 -0.83886,-4.66691 -2.51648,-6.5625 l -12.79602,0 0,13.125 z"
         id="path3658"
         style="font-size:70px;fill:#ffffff" />
      <path
         d="m 141.43275,233.34395 c -3.64584,-3.64583 -5.46876,-8.02082 -5.46875,-13.125 -1e-5,-5.10415 1.82291,-9.47914 5.46875,-13.125 3.64582,-3.6458 8.02081,-5.46872 13.125,-5.46875 5.10414,3e-5 9.47913,1.82295 13.125,5.46875 3.64579,3.64586 5.46871,8.02085 5.46875,13.125 -4e-5,5.10418 -1.82296,9.47917 -5.46875,13.125 -3.64587,3.64583 -8.02086,5.46875 -13.125,5.46875 -5.10419,0 -9.47918,-1.82292 -13.125,-5.46875 z m 6.18011,-20.06989 c -1.93259,1.9326 -2.89888,4.24756 -2.89886,6.94489 -2e-5,2.69736 0.96627,5.01232 2.89886,6.94488 1.93256,1.93259 4.24752,2.89888 6.94489,2.89887 2.69732,1e-5 5.01228,-0.96628 6.94488,-2.89887 1.93255,-1.93256 2.89883,-4.24752 2.89887,-6.94488 -4e-5,-2.69733 -0.96632,-5.01229 -2.89887,-6.94489 -1.9326,-1.93255 -4.24756,-2.89883 -6.94488,-2.89886 -2.69737,3e-5 -5.01233,0.96631 -6.94489,2.89886 z"
         id="path3660"
         style="font-size:70px;fill:#ffffff" />
      <path
         d="m 183.089,185.21895 8.75,0 0,52.5 -8.75,0 z"
         id="path3662"
         style="font-size:70px;fill:#ffffff" />
      <path
         d="m 204.714,202.71895 8.75,0 0,35 -8.75,0 z m 0,-17.5 8.75,0 0,8.75 -8.75,0 z"
         id="path3664"
         style="font-size:70px;fill:#ffffff" />
      <path
         d="m 254.47962,234.76668 c -3.35391,2.69735 -7.21835,4.04602 -11.59332,4.04602 -5.17682,0 -9.56997,-1.82292 -13.17947,-5.46875 -3.60953,-3.64583 -5.41429,-8.03898 -5.41428,-13.17948 -1e-5,-5.14046 1.80475,-9.51545 5.41428,-13.125 3.6095,-3.60948 8.00265,-5.41424 13.17947,-5.41427 3.8637,3e-5 7.36356,1.09378 10.49957,3.28125 l -3.3902,8.5321 c -1.89557,-2.04221 -4.26536,-3.06332 -7.10937,-3.06335 -2.69879,3e-5 -5.01411,0.9478 -6.94595,2.84332 -1.93188,1.89557 -2.89781,4.21053 -2.8978,6.94489 -1e-5,2.73439 0.96592,5.06786 2.8978,7.00042 1.93184,1.93259 4.24716,2.89888 6.94595,2.89887 3.0619,1e-5 5.57767,-1.16637 7.5473,-3.49915 z"
         id="path3666"
         style="font-size:70px;fill:#ffffff" />
      <path
         d="m 272.73353,237.71895 c -2e-5,4.08304 -1.2579,7.71071 -3.77365,10.88302 -2.51578,3.17229 -5.70552,5.23197 -9.56925,6.17905 l -4.1571,-8.31207 c 2.40682,-1e-5 4.46685,-0.85664 6.18011,-2.56989 1.71325,-1.71326 2.56988,-3.77329 2.56989,-6.18011 l 0,-35 8.75,0 z m -8.75,-52.5 8.75,0 0,8.75 -8.75,0 z"
         id="path3668"
         style="font-size:70px;fill:#ffffff" />
      <path
         d="m 288.3429,232.57918 c -3.42652,-3.42793 -5.13977,-7.548 -5.13977,-12.36023 0,-4.81219 1.71325,-8.93191 5.13977,-12.35916 3.4265,-3.4272 7.54658,-5.14081 12.36023,-5.14084 3.13454,3e-5 6.0512,0.80183 8.75,2.40539 l 0,-2.40539 8.75,0 0,26.25 2.1875,8.75 -8.75,0 -0.7669,-3.28125 c -3.06196,2.1875 -6.45216,3.28125 -10.1706,3.28125 -4.81365,0 -8.93373,-1.71326 -12.36023,-5.13977 z m 6.18012,-18.64929 c -1.71327,1.71327 -2.5699,3.80963 -2.56989,6.28906 -10e-6,2.47946 0.85662,4.57582 2.56989,6.28906 1.71324,1.71327 3.77292,2.56989 6.17904,2.56989 2.40609,0 4.46612,-0.85662 6.18012,-2.56989 1.71394,-1.71324 2.57092,-3.8096 2.57095,-6.28906 -3e-5,-2.47943 -0.85701,-4.57579 -2.57095,-6.28906 -1.714,-1.71324 -3.77403,-2.56986 -6.18012,-2.56989 -2.40612,3e-5 -4.4658,0.85665 -6.17904,2.56989 z"
         id="path3670"
         style="font-size:70px;fill:#ffffff" />
    </g>
  </g>
</svg>
