<?xml version="1.0" encoding="UTF-8" standalone="no"?>
<!-- Created with Inkscape (http://www.inkscape.org/) -->

<svg
   xmlns:dc="http://purl.org/dc/elements/1.1/"
   xmlns:cc="http://creativecommons.org/ns#"
   xmlns:rdf="http://www.w3.org/1999/02/22-rdf-syntax-ns#"
   xmlns:svg="http://www.w3.org/2000/svg"
   xmlns="http://www.w3.org/2000/svg"
   xmlns:sodipodi="http://sodipodi.sourceforge.net/DTD/sodipodi-0.dtd"
   xmlns:inkscape="http://www.inkscape.org/namespaces/inkscape"
   width="602.20001"
   height="752.20001"
   id="svg2"
   sodipodi:version="0.32"
   inkscape:version="0.48.2 r9819"
   version="1.0"
   sodipodi:docname="Aa.svg">
  <defs
     id="defs4" />
  <sodipodi:namedview
     id="base"
     pagecolor="#ffffff"
     bordercolor="#666666"
     borderopacity="1.0"
     inkscape:pageopacity="0.0"
     inkscape:pageshadow="2"
     inkscape:zoom="0.708"
     inkscape:cx="237.51129"
     inkscape:cy="237.77706"
     inkscape:document-units="px"
     inkscape:current-layer="layer1"
     showgrid="true"
     inkscape:window-width="1280"
     inkscape:window-height="1004"
     inkscape:window-x="-8"
     inkscape:window-y="-8"
     fit-margin-top="0.1"
     fit-margin-left="0.1"
     fit-margin-right="0.1"
     fit-margin-bottom="0.1"
     inkscape:window-maximized="1">
    <inkscape:grid
       id="GridFromPre046Settings"
       type="xygrid"
       originx="0px"
       originy="230px"
       spacingx="55px"
       spacingy="55px"
       color="#0000ff"
       empcolor="#0000ff"
       opacity="0.2"
       empopacity="0.4"
       empspacing="8"
       visible="true"
       enabled="true"
       snapvisiblegridlinesonly="true" />
  </sodipodi:namedview>
  <metadata
     id="metadata7">
    <rdf:RDF>
      <cc:Work
         rdf:about="">
        <dc:format>image/svg+xml</dc:format>
        <dc:type
           rdf:resource="http://purl.org/dc/dcmitype/StillImage" />
        <dc:title>PL - Znak drogowy D15</dc:title>
        <dc:date>29.07.2006</dc:date>
        <dc:creator>
          <cc:Agent>
            <dc:title>MaciekS</dc:title>
          </cc:Agent>
        </dc:creator>
        <dc:rights>
          <cc:Agent>
            <dc:title>Free</dc:title>
          </cc:Agent>
        </dc:rights>
        <dc:publisher>
          <cc:Agent>
            <dc:title>Wikipedia</dc:title>
          </cc:Agent>
        </dc:publisher>
        <dc:subject>
          <rdf:Bag>
            <rdf:li>znak drogowy informacyjny</rdf:li>
          </rdf:Bag>
        </dc:subject>
        <dc:description>Znaki drogowe -Polska. Wykonane na podstawie załącznika do Ustawy</dc:description>
      </cc:Work>
    </rdf:RDF>
  </metadata>
  <g
     inkscape:label="Layer 1"
     inkscape:groupmode="layer"
     id="layer1"
     transform="translate(1.1,1.1)">
    <rect
       style="fill:#ffffff;fill-opacity:1;fill-rule:nonzero;stroke:#000000;stroke-width:2;stroke-linecap:butt;stroke-linejoin:round;stroke-miterlimit:4;stroke-opacity:1;stroke-dasharray:none;stroke-dashoffset:0"
       id="rect2188"
       width="600"
       height="750"
       x="0"
       y="0"
       ry="21.226416" />
    <rect
       style="fill:#003399;fill-opacity:1;fill-rule:nonzero;stroke:none"
       id="rect1307"
       width="589"
       height="739"
       x="5.5"
       y="5.5"
       ry="20.915094" />
    <rect
       style="fill:#ffffff;fill-opacity:1;fill-rule:nonzero;stroke:none"
       id="rect3055"
       width="440"
       height="440"
       x="80"
       y="80"
       ry="0" />
    <path
       inkscape:connector-curvature="0"
       style="fill:none;stroke:#000000;stroke-width:1px;stroke-linecap:butt;stroke-linejoin:miter;stroke-opacity:1"
       d="m 353.89998,136.09999 c 0,0 0,-1e-5 0,0 z"
       id="path3690" />
    <path
       inkscape:connector-curvature="0"
       style="fill:none;stroke:#000000;stroke-width:1px;stroke-linecap:butt;stroke-linejoin:miter;stroke-opacity:1"
       d="m 353.89998,136.09999 0,0 z"
       id="path3692" />
    <path
       inkscape:connector-curvature="0"
       style="fill:none;stroke:#000000;stroke-width:1px;stroke-linecap:butt;stroke-linejoin:miter;stroke-opacity:1"
       d="m 353.89998,136.09999 c 0,0 0,0 0,0 l 0,0 z"
       id="path3694" />
    <g
       id="g16602"
       transform="matrix(2.976412,0,0,2.976412,-1667.1448,-954.22123)">
      <rect
         id="rect16600"
         style="fill:#ffffff;fill-opacity:1;fill-rule:nonzero;stroke:none"
         y="356.56912"
         x="663.26617"
         height="36.769554"
         width="43.133514" />
      <g
         id="g13033"
         transform="translate(118.8751,-27.33291)">
        <g
           id="g15700">
          <path
             inkscape:connector-curvature="0"
             id="path13035"
             style="fill:#016633;fill-opacity:1;fill-rule:nonzero;stroke:none"
             d="m 541.79018,379.79464 0,44.96875 4.0625,0 0,67.59375 -11.90625,0 0,8.59375 63.15625,0 0,-8.59375 -12.09375,0 0,-67.59375 4.28125,0 0,-44.96875 -47.5,0 z m 7.0625,7.90625 33.34375,0 0,12.625 -33.34375,0 0,-12.625 z m 0,16.53125 33.34375,0 0,12.625 -33.34375,0 0,-12.625 z" />
          <path
             inkscape:connector-curvature="0"
             id="path13039"
             style="fill:none;stroke:#016633;stroke-width:5;stroke-linecap:butt;stroke-linejoin:miter;stroke-miterlimit:4;stroke-opacity:1"
             d="m 539.5671,415.61591 c 0,0 2.04311,44.14582 -0.36761,58.87796 -3.8754,14.46319 -22.05095,12.10918 -23.83665,-2.94712 0,-9.11808 13.72859,-33.58916 13.72859,-37.84796 0,-18.57336 0,-35.71428 0,-35.71428" />
          <path
             inkscape:connector-curvature="0"
             id="path13041"
             style="fill:#016633;fill-opacity:1;fill-rule:evenodd;stroke:none;stroke-width:1px;stroke-linecap:butt;stroke-linejoin:miter;stroke-opacity:1"
             d="m 542.00751,385.7637 -14.52094,12.12184 c 0,0 1.1901,3.19738 3.45123,4.4483 4.02958,2.22927 10.30671,3.27722 11.09382,4.64053 0.86423,1.49689 -4.31726,8.7151 -4.31726,8.7151 l 8.72399,6.6193 1.37754,-38.06029 -5.80838,1.51522 z" />
        </g>
      </g>
    </g>
    <g
       id="g16592"
       transform="matrix(2.976412,0,0,2.976412,-1548.7589,-877.40184)">
      <rect
         id="rect15705"
         style="fill:#ffffff;fill-opacity:1;fill-rule:nonzero;stroke:none"
         y="348.79092"
         x="590.78772"
         height="33.941124"
         width="38.183765" />
      <g
         id="g13027"
         transform="translate(44.90128,-35.70889)">
        <path
           inkscape:connector-curvature="0"
           id="rect8566"
           style="fill:#000000;fill-opacity:1;fill-rule:nonzero;stroke:none"
           d="m 541.79018,379.79464 0,44.96875 4.0625,0 0,67.59375 -11.90625,0 0,8.59375 63.15625,0 0,-8.59375 -12.09375,0 0,-67.59375 4.28125,0 0,-44.96875 -47.5,0 z m 7.0625,7.90625 33.34375,0 0,12.625 -33.34375,0 0,-12.625 z m 0,16.53125 33.34375,0 0,12.625 -33.34375,0 0,-12.625 z" />
        <g
           id="g13023"
           transform="translate(45.52,-70.09196)">
          <path
             inkscape:connector-curvature="0"
             id="path8583"
             style="fill:none;stroke:#000000;stroke-width:5;stroke-linecap:butt;stroke-linejoin:miter;stroke-miterlimit:4;stroke-opacity:1"
             d="m 494.0471,485.70787 c 0,0 2.04311,44.14582 -0.36761,58.87796 -3.8754,14.46319 -22.05095,12.10918 -23.83665,-2.94712 0,-9.11808 13.72859,-33.58916 13.72859,-37.84796 0,-18.57336 0,-35.71428 0,-35.71428" />
          <path
             inkscape:connector-curvature="0"
             id="path11241"
             style="fill:#000000;fill-rule:evenodd;stroke:none;stroke-width:1px;stroke-linecap:butt;stroke-linejoin:miter;stroke-opacity:1"
             d="m 496.48751,455.85566 -14.52094,12.12184 c 0,0 1.1901,3.19738 3.45123,4.4483 4.02958,2.22927 10.30671,3.27722 11.09382,4.64053 0.86423,1.49689 -4.31726,8.7151 -4.31726,8.7151 l 8.72399,6.6193 1.37754,-38.06029 -5.80838,1.51522 z" />
        </g>
      </g>
    </g>
  </g>
</svg>
