<?xml version="1.0" encoding="UTF-8" standalone="no"?>
<!-- Created with Inkscape (http://www.inkscape.org/) -->

<svg
   xmlns:dc="http://purl.org/dc/elements/1.1/"
   xmlns:cc="http://creativecommons.org/ns#"
   xmlns:rdf="http://www.w3.org/1999/02/22-rdf-syntax-ns#"
   xmlns:svg="http://www.w3.org/2000/svg"
   xmlns="http://www.w3.org/2000/svg"
   xmlns:sodipodi="http://sodipodi.sourceforge.net/DTD/sodipodi-0.dtd"
   xmlns:inkscape="http://www.inkscape.org/namespaces/inkscape"
   width="602.20001"
   height="752.20001"
   id="svg2"
   sodipodi:version="0.32"
   inkscape:version="0.48.2 r9819"
   version="1.0"
   sodipodi:docname="Aa.svg">
  <defs
     id="defs4" />
  <sodipodi:namedview
     id="base"
     pagecolor="#ffffff"
     bordercolor="#666666"
     borderopacity="1.0"
     inkscape:pageopacity="0.0"
     inkscape:pageshadow="2"
     inkscape:zoom="0.708"
     inkscape:cx="237.51129"
     inkscape:cy="294.27423"
     inkscape:document-units="px"
     inkscape:current-layer="layer1"
     showgrid="true"
     inkscape:window-width="1280"
     inkscape:window-height="1004"
     inkscape:window-x="-8"
     inkscape:window-y="-8"
     fit-margin-top="0.1"
     fit-margin-left="0.1"
     fit-margin-right="0.1"
     fit-margin-bottom="0.1"
     inkscape:window-maximized="1">
    <inkscape:grid
       id="GridFromPre046Settings"
       type="xygrid"
       originx="0px"
       originy="230px"
       spacingx="55px"
       spacingy="55px"
       color="#0000ff"
       empcolor="#0000ff"
       opacity="0.2"
       empopacity="0.4"
       empspacing="8"
       visible="true"
       enabled="true"
       snapvisiblegridlinesonly="true" />
  </sodipodi:namedview>
  <metadata
     id="metadata7">
    <rdf:RDF>
      <cc:Work
         rdf:about="">
        <dc:format>image/svg+xml</dc:format>
        <dc:type
           rdf:resource="http://purl.org/dc/dcmitype/StillImage" />
        <dc:title>PL - Znak drogowy D15</dc:title>
        <dc:date>29.07.2006</dc:date>
        <dc:creator>
          <cc:Agent>
            <dc:title>MaciekS</dc:title>
          </cc:Agent>
        </dc:creator>
        <dc:rights>
          <cc:Agent>
            <dc:title>Free</dc:title>
          </cc:Agent>
        </dc:rights>
        <dc:publisher>
          <cc:Agent>
            <dc:title>Wikipedia</dc:title>
          </cc:Agent>
        </dc:publisher>
        <dc:subject>
          <rdf:Bag>
            <rdf:li>znak drogowy informacyjny</rdf:li>
          </rdf:Bag>
        </dc:subject>
        <dc:description>Znaki drogowe -Polska. Wykonane na podstawie załącznika do Ustawy</dc:description>
      </cc:Work>
    </rdf:RDF>
  </metadata>
  <g
     inkscape:label="Layer 1"
     inkscape:groupmode="layer"
     id="layer1"
     transform="translate(1.1,1.1)">
    <rect
       style="fill:#ffffff;fill-opacity:1;fill-rule:nonzero;stroke:#000000;stroke-width:2;stroke-linecap:butt;stroke-linejoin:round;stroke-miterlimit:4;stroke-opacity:1;stroke-dasharray:none;stroke-dashoffset:0"
       id="rect2188"
       width="600"
       height="750"
       x="0"
       y="0"
       ry="21.226416" />
    <rect
       style="fill:#003399;fill-opacity:1;fill-rule:nonzero;stroke:none"
       id="rect1307"
       width="589"
       height="739"
       x="5.5"
       y="5.5"
       ry="20.915094" />
    <rect
       style="fill:#ffffff;fill-opacity:1;fill-rule:nonzero;stroke:none"
       id="rect3055"
       width="440"
       height="440"
       x="80"
       y="80"
       ry="0" />
    <path
       inkscape:connector-curvature="0"
       id="path3690"
       d="m 354.9,135.10001 c 0,0 0,-1e-5 0,0 z"
       style="fill:none;stroke:#000000;stroke-width:1px;stroke-linecap:butt;stroke-linejoin:miter;stroke-opacity:1" />
    <path
       inkscape:connector-curvature="0"
       id="path3692"
       d="m 354.9,135.10001 0,0 z"
       style="fill:none;stroke:#000000;stroke-width:1px;stroke-linecap:butt;stroke-linejoin:miter;stroke-opacity:1" />
    <path
       inkscape:connector-curvature="0"
       id="path3694"
       d="m 354.9,135.10001 c 0,0 0,0 0,0 l 0,0 z"
       style="fill:none;stroke:#000000;stroke-width:1px;stroke-linecap:butt;stroke-linejoin:miter;stroke-opacity:1" />
    <path
       inkscape:connector-curvature="0"
       style="fill:#000000;stroke:none;fill-opacity:1"
       d="m 297.11875,96.412515 c -7.69192,0.02774 -14.47497,0.323765 -18.5,0.9375 -3.13879,0.4786 -10.37174,1.44463 -16.0625,2.125 -5.69075,0.680375 -13.61403,2.113285 -17.625,3.187505 -4.01097,1.07423 -9.98416,2.62402 -13.28125,3.4375 -3.29709,0.81347 -9.62403,3.12168 -14.03125,5.15625 -6.75568,3.11874 -8.97,4.85029 -14.21875,11 -26.70273,31.28631 -43.16044,63.90587 -52.25,103.56249 -13.92593,60.75716 -7.64129,130.0941 16.78125,184.9375 9.22949,20.7258 22.42047,39.22467 34.03125,47.78125 12.76931,9.41035 38.2244,17.98037 67.3125,22.65625 14.25051,2.29076 49.45065,2.10281 66.9375,-0.375 19.28718,-2.7329 26.3834,-4.41178 36.34375,-8.53125 15.83203,-6.5479 30.75902,-18.42773 44.125,-35.15625 15.17971,-18.99855 27.77564,-46.74057 34.8125,-76.625 3.79818,-16.13033 4.47815,-19.87982 6.125,-33.75 4.42823,-37.29544 2.39508,-80.29749 -5.28125,-111.53125 -12.69045,-51.63526 -35.52696,-87.88211 -64.5,-102.37499 -9.22686,-4.61545 -36.94105,-12.13782 -53.1875,-14.437505 -9.36069,-1.325006 -24.71138,-2.046229 -37.53125,-2 z m -5.53125,2 -11.6875,2.875005 c -6.42919,1.58739 -11.9401,3.16166 -12.25,3.46875 -0.30989,0.30708 2.15384,2.14969 5.46875,4.125 16.66332,9.92937 20.42488,10.29736 31.65625,3.09375 10.60119,-6.79943 19.10857,-9.65207 29.875,-10.09375 7.33555,-0.30094 7.94003,-0.24004 3.625,0.46875 -22.19644,3.64601 -40.82812,16.29618 -56.65625,38.46875 -6.01301,8.42321 -17.53126,28.76883 -17.53125,30.96875 0,0.27704 -1.0889,2.95179 -2.4375,5.9375 -9.89787,21.91299 -16.49723,51.01395 -21.28125,93.84374 -1.36653,12.23412 -1.4244,44.57817 -0.0937,56.4375 2.2649,20.18579 5.23677,40.29579 6.71875,45.375 0.82501,2.82757 2.65192,9.28539 4.0625,14.375 3.56895,12.8774 9.73659,27.64686 16.21875,38.84375 3.02239,5.2207 5.78216,9.71723 6.125,10 0.34285,0.28275 2.38073,2.93214 4.53125,5.875 5.44959,7.45738 16.7048,17.49685 25.34375,22.59375 9.855,5.81437 20.49817,9.38805 32.9375,11.0625 7.35538,0.9901 8.99121,1.4249 5.59375,1.5 -5.54697,0.12262 -21.23391,-2.44011 -25.5,-4.15625 -8.43017,-3.39127 -16.80998,-7.50926 -19.875,-9.8125 -3.08676,-2.31958 -4.18002,-2.54106 -10.375,-2.125 -5.5975,0.37594 -9.00661,1.4535 -17.8125,5.625 l -10.90625,5.15625 4.6875,1.28125 c 2.56811,0.70772 9.57026,2.35598 15.5625,3.65625 18.75732,4.07015 -0.82165,1.93703 -30.09375,-3.28125 -9.8082,-1.7485 -9.83779,-1.78103 -5.125,-2.5 2.60503,-0.39742 6.81258,-1.65189 9.34375,-2.78125 2.53118,-1.12936 7.06639,-3.07956 10.0625,-4.34375 2.99612,-1.26419 5.43749,-2.65749 5.4375,-3.09375 0,-1.11323 -50.74897,-17.48262 -54.15625,-17.46875 -1.53572,0.006 -3.06443,0.45193 -3.40625,1 -0.8819,1.414 14.30999,16.89896 21.46875,21.875 3.30014,2.29392 6.00001,4.3509 6,4.5625 0,0.83106 -5.98205,-1.1018 -10.90625,-3.53125 -6.65329,-3.28247 -21.27321,-17.86359 -28.31255,-28.21875 -17.91293,-26.35064 -28.98336,-58.03472 -37.09375,-106.21875 -2.1617,-12.84268 -3.16185,-53.32448 -1.6875,-68.375 4.85803,-49.59201 21.08011,-94.12018 45.75,-125.71874 1.6734,-2.14337 4.34017,-5.62078 5.9375,-7.71875 3.87516,-5.08973 20.98533,-22.08897 24.25,-24.09375 1.42672,-0.87613 3.97543,-1.89602 5.6875,-2.28125 2.82467,-0.63558 2.42002,-6.1e-4 -4.40625,6.84375 -4.1375,4.14847 -7.53125,7.87041 -7.53125,8.28125 0,1.12458 5.71321,0.92375 22.0625,-0.8125 21.40161,-2.27279 23.59987,-2.58913 23.59375,-3.375 -0.003,-0.38949 -4.61868,-3.15606 -10.25,-6.125 -7.56303,-3.98738 -11.42642,-5.42225 -14.78125,-5.5 l -4.53125,-0.0937 3.625,-0.90625 c 1.99742,-0.4982 6.20495,-1.16779 9.34375,-1.46875 3.13879,-0.30095 8.05279,-0.95014 10.90625,-1.46875 2.85344,-0.518605 9.14915,-1.202845 14,-1.500005 l 8.8125,-0.53125 z m 71.65625,8.187505 c 3.72315,0.004 5.50148,0.75734 10.71875,3.34375 23.82389,11.81049 42.79254,31.79327 56.46875,59.46875 10.41699,21.08009 19.57361,55.17578 22.625,84.18749 1.51183,14.37399 1.51426,52.14726 0,66.5 -1.2026,11.3988 -5.55742,35.78502 -7.84375,44 -3.58105,12.86707 -7.05845,23.67002 -10.03125,31.0625 -15.47701,38.48645 -47.19965,72.8826 -71.4375,77.4375 -3.02213,0.56794 -6.26669,0.93881 -7.1875,0.84375 -0.92081,-0.0951 -3.52974,-0.35199 -5.8125,-0.5625 -9.01097,-0.83092 -22.29991,-6.34941 -31.65625,-13.15625 -5.7791,-4.20435 -16.9757,-15.73221 -21.9375,-22.59375 -3.99918,-5.53037 -13.34375,-20.58253 -13.34375,-21.5 0,-0.30686 -1.14805,-3.01561 -2.5625,-6 C 270.7856,387.56499 263.09746,357.8603 259.9,327.10001 c -1.3768,-13.24521 -1.35645,-53.97014 0.0312,-66.4375 3.75933,-33.77463 9.40835,-56.31572 20.6875,-82.43749 19.03712,-44.08875 46.70431,-69.38016 78.0625,-71.40625 1.87648,-0.12124 3.32145,-0.22018 4.5625,-0.21875 z m -76.3125,13.3125 c -6.99984,0 -40.89867,4.12627 -41.875,5.09375 -0.5323,0.52747 3.37976,3.71362 9.3125,7.59375 9.12681,5.9691 10.81321,6.70719 15.5625,6.78125 4.83,0.0753 5.56355,-0.24985 7.90625,-3.28125 1.42036,-1.83792 4.97871,-5.76309 7.90625,-8.75 2.92756,-2.98692 5.34376,-5.88997 5.34375,-6.4375 0,-0.54754 -1.87176,-1 -4.15625,-1 z m -58.40625,5.28125 c -0.47677,-0.001 -0.98458,0.0272 -1.53125,0.0625 -4.38903,0.28368 -5.19099,0.75515 -9.03125,5.53125 -2.31275,2.87634 -4.7742,6.13651 -5.5,7.21875 -0.72581,1.08225 -4.5801,6.78658 -8.5625,12.6875 -3.98238,5.90093 -7.25001,11.10141 -7.25,11.5625 0,0.4611 2.37039,0.84375 5.25,0.84375 4.05894,0 7.37728,-1.00799 14.78125,-4.53125 5.25272,-2.49957 16.01356,-7.57945 23.90625,-11.28125 7.89268,-3.70181 14.05838,-7.17418 13.71875,-7.71875 -0.33965,-0.54456 -5.54132,-4.06698 -11.5625,-7.8125 -8.71706,-5.42249 -10.88136,-6.55518 -14.21875,-6.5625 z m 37.4375,18.375 c -4.20749,0.18476 -8.57149,2.10432 -37.9375,16.03125 -6.42026,3.04483 -11.65624,5.7345 -11.65625,5.96875 0,0.48629 15.03101,10.76277 23.125,15.8125 4.44338,2.77217 6.15369,3.28194 9.5625,2.875 2.28276,-0.27252 4.19766,-0.50252 4.25,-0.53125 0.0523,-0.0287 0.6691,-1.97778 1.375,-4.3125 1.52973,-5.05946 11.51676,-25.81217 14.53125,-30.1875 3.20136,-4.64656 2.77122,-5.65625 -2.40625,-5.65625 -0.28654,0 -0.56325,-0.0123 -0.84375,0 z m -67.75,23.65625 c -3.55312,0.0754 -3.9015,0.60063 -5.8125,4.3125 -6.22376,12.08892 -13.75719,31.97241 -12.5625,33.15624 0.31224,0.30942 2.98084,0.56249 5.9375,0.5625 4.6637,0 7.70228,-1.15651 23.03125,-8.71875 9.71813,-4.79424 18.94065,-9.19375 20.5,-9.78124 3.87256,-1.45899 2.94152,-2.38468 -11.84375,-11.78125 -11.13441,-7.0763 -12.67136,-7.75 -17.53125,-7.75 -0.65173,0 -1.21116,-0.0108 -1.71875,0 z m 164.53125,16.96875 c -6.28598,0.0211 -10.60861,0.35604 -15.875,2.9375 -11.08916,5.43563 -19.22811,14.4621 -28.625,31.68749 -7.24743,13.28523 -10.54165,24.18832 -14.15625,47 -1.89437,11.95533 -2.2409,38.15109 -0.625,47.3125 0.55598,3.15212 1.74717,10.37612 2.65625,16.03125 1.98053,12.32036 4.35989,19.36558 10.875,32.46875 6.16656,12.40219 11.82887,20.04577 19.4375,26.1875 6.25666,5.05041 8.23274,6.05882 15.875,8.28125 10.06736,2.92766 26.22117,-1.65382 33.0625,-9.375 1.75234,-1.97769 3.63274,-3.59375 4.1875,-3.59375 1.54336,0 9.70818,-10.99104 13.90625,-18.71875 4.69411,-8.64082 11.63841,-28.84545 13.1875,-38.34375 0.64562,-3.95859 1.60686,-9.11685 2.125,-11.46875 0.51817,-2.35191 1.23026,-10.20695 1.59375,-17.46875 1.70011,-33.96622 -8.23961,-73.10868 -24.15625,-95.0625 -5.81612,-8.02216 -5.24083,-5.11335 1.0625,5.4375 6.91507,11.57481 12.93566,28.7231 16.90625,48.125 2.55664,12.49281 3.90084,16.4338 3.80166,34.47896 -0.0606,11.0275 -0.81862,20.00273 -1.42436,23.47532 -3.25811,18.6783 -6.20177,26.82712 -11.47105,39.54572 -0.13604,0.6713 -0.65862,1.8915 -1.3125,3.0625 -1.04227,2.3819 -2.15537,4.74207 -3.3125,7.09375 -0.11567,0.47564 -0.69824,1.72212 -1.8125,3.90625 -1.4425,2.82757 -3.39731,6.08772 -4.34375,7.21875 -0.94645,1.13102 -0.18634,-0.73192 1.65625,-4.125 0.88305,-1.62612 1.61714,-2.94914 2.28125,-4.0625 1.39785,-2.83604 2.73139,-5.67926 3.96875,-8.5625 0.11776,-0.62598 0.60344,-1.77242 1.21875,-2.90625 6.13458,-15.03136 10.10007,-30.69375 11.6875,-47.0625 l 0.0937,-0.0312 c 0.0225,-1.91408 0.10039,-4.24727 0.1875,-7.0625 0.61307,-19.81281 -0.89719,-33.46382 -5.71875,-52.15625 -4.76158,-18.45987 -8.5899,-28.96372 -15.75,-43.1875 l -5.9375,-11.81249 c -5.67749,-6.61347 -15.43131,-8.89526 -25.25,-9.25 z m -118.78125,4.4375 c -4.90479,-0.0347 -6.29183,0.59878 -14.8125,4.75 -5.03053,2.45084 -13.22521,6.35534 -18.21875,8.68749 -4.99354,2.33212 -9.09376,4.64786 -9.09375,5.15625 0,0.76965 12.47606,8.06493 25.4375,14.875 1.98303,1.0419 5.15841,1.55933 8.78125,1.40625 l 5.6875,-0.25 0.84375,-5.0625 c 0.68855,-4.08941 3.98725,-15.91672 7.6875,-27.59374 0.47991,-1.51447 -0.15521,-1.80659 -3.96875,-1.90625 -0.87464,-0.0229 -1.64307,-0.0575 -2.34375,-0.0625 z m -63.875,20.68749 c -3.69155,0.0757 -3.58976,2.01308 -7.375,20.53125 -3.06217,14.98074 -3.60117,19.75398 -2.34375,21 0.38046,0.37701 2.83661,0.68749 5.46875,0.6875 4.10413,0 6.1972,-0.92427 14.625,-6.34375 5.40507,-3.47571 11.93189,-7.52173 14.5,-9 9.75055,-5.6127 14.51448,-8.84337 14.5,-9.84375 -0.008,-0.56962 -6.73969,-4.61727 -14.96875,-9 -13.87286,-7.38856 -15.42442,-7.96874 -21.15625,-7.96875 -1.3485,0 -2.3981,-0.08 -3.25,-0.0625 z m 138.96875,14.21875 c 1.61987,-0.3544 5.40112,6.38487 9.90625,17.71875 11.51108,28.95936 11.40534,60.81549 -0.28125,89.96875 -6.22123,15.51938 -11.3305,25.06491 -12.21875,22.84375 -0.82063,-2.0521 -0.67591,-2.60369 3.125,-12.5625 7.59331,-19.89528 11.1818,-33.43916 13.03125,-49.28125 2.29893,-19.69222 -1.03883,-36.02451 -12.59375,-62.03125 -1.70719,-3.84238 -2.07313,-5.71531 -1.28125,-6.5 0.0883,-0.0875 0.20451,-0.13262 0.3125,-0.15625 z M 234.65,229.94376 c -6.32531,0 -7.28952,0.46038 -23.46875,11.0625 -5.42155,3.5527 -11.83815,7.70735 -14.25,9.25 -2.41186,1.54265 -4.25932,3.24869 -4.09375,3.78125 0.16557,0.53257 7.04272,7.81206 15.28125,16.15625 l 15,15.15625 5.96875,0.0625 5.96875,0.0312 0.0312,-9.5 c 0.0251,-5.231 0.43992,-12.76017 0.9375,-16.71875 1.33664,-10.63376 3.16621,-23.24868 3.8125,-26.46875 0.56423,-2.81115 0.50928,-2.8125 -5.1875,-2.8125 z m 81.53125,0.40625 c 0.84079,0.0719 2.10404,3.49802 5.8125,13.96875 6.36113,17.96045 6.95901,21.33426 6.9375,39.59375 -0.0237,20.10435 -2.442,31.76662 -11.75,56.8125 -1.52142,4.09384 -3.0476,7.43137 -3.40625,7.4375 -0.8596,0.0147 -3.31498,-9.93267 -6.21875,-25.1875 -1.93608,-10.17109 -2.34918,-15.847 -2.34375,-32.375 0.006,-18.59058 0.23295,-21.1251 3.25,-35 1.78965,-8.23025 3.78408,-16.33378 4.4375,-18 0.65342,-1.6662 1.66218,-4.17997 2.21875,-5.59375 0.40143,-1.01969 0.68032,-1.68893 1.0625,-1.65625 z m -142.9375,25.34375 c -3.1907,0.07 -4.59398,0.501 -4.96875,1.46875 -1.02752,2.65338 -2.03461,43.94467 -1.25,51.1875 l 0.75,6.9375 5.71875,0 c 5.44794,0 8.70591,-1.37084 13.4375,-5.625 1.76877,-1.59029 4.29763,-3.60323 15.21875,-12.21875 5.4705,-4.3156 10.25199,-8.33942 10.625,-8.9375 0.37302,-0.59809 -6.74071,-8.22736 -15.78125,-16.9375 l -16.4375,-15.84375 -5.84375,-0.0312 c -0.5311,-0.004 -1.01294,-0.01 -1.46875,0 z m 50.375,33.78125 -12.1875,10.1875 c -6.70593,5.609 -14.23407,11.9878 -16.71875,14.1875 l -4.5,4 5.03125,4.1875 c 2.77001,2.29554 8.27786,6.64334 12.21875,9.65625 3.94089,3.01291 7.90252,6.06803 8.8125,6.8125 0.90997,0.74446 3.7444,3.0032 6.3125,5 3.64511,2.8342 5.63645,3.61721 9.03125,3.625 2.39175,0.005 4.51731,-0.32587 4.75,-0.75 0.2327,-0.42414 0.0406,-4.69315 -0.4375,-9.5 -0.47812,-4.80686 -1.0252,-17.31927 -1.21875,-27.78125 l -0.34375,-19 -5.375,-0.3125 -5.375,-0.3125 z m -54.96875,30.9375 -0.0312,4.375 c -0.003,4.58377 6.918,43.86882 8.40625,47.75 0.63002,1.64303 1.90082,2.35932 4.78125,2.65625 2.16794,0.22348 4.01974,0.46743 4.09375,0.5625 0.41793,0.53685 14.40382,-10.93798 28.84375,-23.6875 l 3.1875,-2.8125 -3.40625,-2.84375 c -1.86141,-1.56551 -7.20473,-5.71707 -11.90625,-9.21875 -4.70151,-3.50169 -11.69979,-8.70218 -15.53125,-11.5625 -6.41784,-4.79116 -7.4265,-5.21874 -12.71875,-5.21875 l -5.71875,0 z m 63.8125,30.84375 c -5.50549,0 -5.68924,0.13127 -13.6875,7.53125 -4.46344,4.12957 -10.60085,9.74005 -13.625,12.5 -4.77037,4.35363 -5.26625,5.17307 -3.71875,6.03125 1.75742,0.97458 26.03689,7.30925 34.125,8.90625 6.011,1.18686 9.39663,0.80113 9.15625,-1.03125 -0.11129,-0.84827 -1.37555,-7.08883 -2.78125,-13.875 -1.40571,-6.78615 -2.85514,-14.06684 -3.21875,-16.1875 l -0.65625,-3.875 -5.59375,0 z m -52.65625,28.8125 0.75,3.84375 c 0.40069,2.12067 2.23163,7.78689 4.09375,12.59375 1.86213,4.80686 3.68037,9.54161 4.03125,10.53125 0.48354,1.36377 1.79416,1.81249 5.4375,1.8125 4.28621,0 6.26032,-0.9368 18.09375,-8.65625 7.29919,-4.76157 13.53437,-9.11012 13.875,-9.65625 0.34063,-0.54614 -0.4101,-1.2338 -1.6875,-1.53125 -1.2774,-0.29745 -9.80645,-2.44129 -18.9375,-4.75 -9.13103,-2.30868 -18.63605,-4.18418 -21.125,-4.1875 l -4.53125,0 z M 242.4,392.41251 c -5.17496,-0.0209 -6.33842,0.46853 -14.71875,6.15625 -4.99937,3.39308 -9.4734,6.15624 -9.96875,6.15625 -0.49535,0 -2.52415,1.35215 -4.5,3 l -3.59375,3 2.59375,1 c 1.42672,0.55768 10.54829,4.11524 20.25,7.90625 9.70173,3.79099 19.49849,7.25335 21.78125,7.6875 2.28276,0.43414 4.7712,0.61626 5.53125,0.40625 0.76003,-0.21002 1.79497,-0.37501 2.3125,-0.375 0.51752,0 -1.38113,-4.56125 -4.21875,-10.15625 -2.83765,-5.595 -6.20663,-13.4625 -7.5,-17.46875 l -2.34375,-7.28125 -5.625,-0.0312 z m -48.1875,19.1875 c -1.11221,-0.0255 -1.86397,0.14872 -2.25,0.53125 -1.19259,1.18177 9.2205,21.33694 13.84375,26.78125 2.04321,2.40607 3.2816,2.3003 15.84375,-1.28125 12.66135,-3.60983 20.17844,-6.35051 20.75,-7.5625 0.22508,-0.47728 -3.55539,-2.44529 -8.40625,-4.40625 -4.85086,-1.96097 -14.52337,-5.87807 -21.5,-8.6875 -8.51239,-3.42787 -14.94462,-5.29856 -18.28125,-5.375 z m 65.78125,20.90625 c -5.18837,0 -9.76038,0.97437 -19.5,4.21875 -6.9955,2.33028 -12.71876,4.56106 -12.71875,4.9375 0,0.37643 7.10947,2.90265 15.8125,5.625 8.70302,2.72233 19.80539,6.24416 24.65625,7.84375 8.288,2.73299 19.71874,4.06609 19.71875,2.28125 0,-0.43972 -2.76281,-3.22756 -6.15625,-6.1875 -3.39346,-2.95995 -8.19053,-8.39324 -10.625,-12.0625 l -4.40625,-6.65625 -6.78125,0 z"
       id="path1587"
       sodipodi:nodetypes="csssssssssssssssssscccssssssssssssssssssssscccssssssssssssssssssssssscccsscccsssssssssssssssssccssssssccssssssssssccssssssssccsssssssccssssssssssssssssssscccssscccccssccccsssscccssccssssssssccsssssssccssscccccssccsssssssssccscccssscccccccccssssssccccccssscccsscccsssssscccccssssssscccsscccsssssccccssssssccssssssccc" />
  </g>
</svg>
