<?xml version="1.0" encoding="UTF-8" standalone="no"?>
<!-- Created with Inkscape (http://www.inkscape.org/) -->

<svg
   xmlns:dc="http://purl.org/dc/elements/1.1/"
   xmlns:cc="http://creativecommons.org/ns#"
   xmlns:rdf="http://www.w3.org/1999/02/22-rdf-syntax-ns#"
   xmlns:svg="http://www.w3.org/2000/svg"
   xmlns="http://www.w3.org/2000/svg"
   xmlns:sodipodi="http://sodipodi.sourceforge.net/DTD/sodipodi-0.dtd"
   xmlns:inkscape="http://www.inkscape.org/namespaces/inkscape"
   width="602.20001"
   height="752.20001"
   id="svg2"
   sodipodi:version="0.32"
   inkscape:version="0.48.2 r9819"
   version="1.0"
   sodipodi:docname="Aa.svg">
  <defs
     id="defs4" />
  <sodipodi:namedview
     id="base"
     pagecolor="#ffffff"
     bordercolor="#666666"
     borderopacity="1.0"
     inkscape:pageopacity="0.0"
     inkscape:pageshadow="2"
     inkscape:zoom="0.708"
     inkscape:cx="237.51129"
     inkscape:cy="294.27423"
     inkscape:document-units="px"
     inkscape:current-layer="layer1"
     showgrid="true"
     inkscape:window-width="1280"
     inkscape:window-height="1004"
     inkscape:window-x="-8"
     inkscape:window-y="-8"
     fit-margin-top="0.1"
     fit-margin-left="0.1"
     fit-margin-right="0.1"
     fit-margin-bottom="0.1"
     inkscape:window-maximized="1">
    <inkscape:grid
       id="GridFromPre046Settings"
       type="xygrid"
       originx="0px"
       originy="230px"
       spacingx="55px"
       spacingy="55px"
       color="#0000ff"
       empcolor="#0000ff"
       opacity="0.2"
       empopacity="0.4"
       empspacing="8"
       visible="true"
       enabled="true"
       snapvisiblegridlinesonly="true" />
  </sodipodi:namedview>
  <metadata
     id="metadata7">
    <rdf:RDF>
      <cc:Work
         rdf:about="">
        <dc:format>image/svg+xml</dc:format>
        <dc:type
           rdf:resource="http://purl.org/dc/dcmitype/StillImage" />
        <dc:title>PL - Znak drogowy D15</dc:title>
        <dc:date>29.07.2006</dc:date>
        <dc:creator>
          <cc:Agent>
            <dc:title>MaciekS</dc:title>
          </cc:Agent>
        </dc:creator>
        <dc:rights>
          <cc:Agent>
            <dc:title>Free</dc:title>
          </cc:Agent>
        </dc:rights>
        <dc:publisher>
          <cc:Agent>
            <dc:title>Wikipedia</dc:title>
          </cc:Agent>
        </dc:publisher>
        <dc:subject>
          <rdf:Bag>
            <rdf:li>znak drogowy informacyjny</rdf:li>
          </rdf:Bag>
        </dc:subject>
        <dc:description>Znaki drogowe -Polska. Wykonane na podstawie załącznika do Ustawy</dc:description>
      </cc:Work>
    </rdf:RDF>
  </metadata>
  <g
     inkscape:label="Layer 1"
     inkscape:groupmode="layer"
     id="layer1"
     transform="translate(1.1,1.1)">
    <rect
       style="fill:#ffffff;fill-opacity:1;fill-rule:nonzero;stroke:#000000;stroke-width:2;stroke-linecap:butt;stroke-linejoin:round;stroke-miterlimit:4;stroke-opacity:1;stroke-dasharray:none;stroke-dashoffset:0"
       id="rect2188"
       width="600"
       height="750"
       x="0"
       y="0"
       ry="21.226416" />
    <rect
       style="fill:#003399;fill-opacity:1;fill-rule:nonzero;stroke:none"
       id="rect1307"
       width="589"
       height="739"
       x="5.5"
       y="5.5"
       ry="20.915094" />
    <rect
       style="fill:#ffffff;fill-opacity:1;fill-rule:nonzero;stroke:none"
       id="rect3055"
       width="440"
       height="440"
       x="80"
       y="80"
       ry="0" />
    <path
       inkscape:connector-curvature="0"
       id="path3690"
       d="m 354.9,135.10001 c 0,0 0,-1e-5 0,0 z"
       style="fill:none;stroke:#000000;stroke-width:1px;stroke-linecap:butt;stroke-linejoin:miter;stroke-opacity:1" />
    <path
       inkscape:connector-curvature="0"
       id="path3692"
       d="m 354.9,135.10001 0,0 z"
       style="fill:none;stroke:#000000;stroke-width:1px;stroke-linecap:butt;stroke-linejoin:miter;stroke-opacity:1" />
    <path
       inkscape:connector-curvature="0"
       id="path3694"
       d="m 354.9,135.10001 c 0,0 0,0 0,0 l 0,0 z"
       style="fill:none;stroke:#000000;stroke-width:1px;stroke-linecap:butt;stroke-linejoin:miter;stroke-opacity:1" />
    <path
       inkscape:connector-curvature="0"
       style="fill:#000000;fill-opacity:1;fill-rule:evenodd;stroke:none"
       d="m 244.025,273.60001 -39.59375,1.625 -9.75,54.5625 -12.59375,12.5625 0,96.25 13.78125,0 0,27.5 27.5,0 0,-27.5 75.6875,0 75.6875,0 0,27.5 27.53125,0 0,-27.5 13.75,0 0,-96.25 -12.59375,-12.59375 -9.75,-54.53125 -39.59375,-1.625 -55.03125,0 -55.03125,0 z"
       id="path1881" />
    <path
       inkscape:connector-curvature="0"
       style="fill:#ffffff;fill-opacity:1;fill-rule:evenodd;stroke:none"
       d="m 222.93125,287.35001 -7.375,41.25 83.5,0 83.53125,0 -7.375,-41.25 -76.15625,0 -76.125,0 z"
       id="path3665" />
    <path
       inkscape:connector-curvature="0"
       style="fill:#ffffff;fill-opacity:1;fill-rule:evenodd;stroke:none"
       d="m 195.86875,397.35001 0,13.75 103.1875,0 103.21875,0 0,-13.75 -103.21875,0 -103.1875,0 z"
       id="path2768" />
    <path
       sodipodi:type="arc"
       style="fill:#ffffff;fill-opacity:1;fill-rule:evenodd;stroke:none"
       id="path3655"
       sodipodi:cx="-52.75"
       sodipodi:cy="287"
       sodipodi:rx="18.25"
       sodipodi:ry="17"
       d="m -34.5,287 a 18.25,17 0 1 1 -36.5,0 18.25,17 0 1 1 36.5,0 z"
       transform="matrix(0.753425,0,0,0.808824,249.3532,137.71751)" />
    <path
       sodipodi:type="arc"
       style="fill:#ffffff;fill-opacity:1;fill-rule:evenodd;stroke:none"
       id="path7205"
       sodipodi:cx="-52.75"
       sodipodi:cy="287"
       sodipodi:rx="18.25"
       sodipodi:ry="17"
       d="m -34.5,287 a 18.25,17 0 1 1 -36.5,0 18.25,17 0 1 1 36.5,0 z"
       transform="matrix(-0.753425,0,0,0.808824,348.7668,137.71751)" />
    <path
       inkscape:connector-curvature="0"
       style="fill:#000000;fill-opacity:1;fill-rule:evenodd;stroke:none"
       d="m 271.55625,156.47501 -13.375,20.625 12.65625,0 14.46875,-20.625 -13.75,0 z m 13.75,0 -2.75,20.625 11,0 5.5,-20.625 -13.75,0 z m 13.75,0 5.5,20.625 11,0 -2.75,-20.625 -13.75,0 z m 13.75,0 14.46875,20.625 12.65625,0 -13.375,-20.625 -13.75,0 z m -81.34375,61.90625 -26.875,41.46875 8.15625,0 29.09375,-41.46875 -10.375,0 z m 26.34375,0 -13.78125,41.28125 19.25,-41.28125 -5.46875,0 z m 19.21875,0 -5.5,41.28125 11,-41.28125 -5.5,0 z m 19.28125,0 2.75,41.28125 2.75,-41.28125 -5.5,0 z m 19.28125,0 11,41.28125 -5.5,-41.28125 -5.5,0 z m 19.25,0 19.25,41.28125 -13.78125,-41.28125 -5.46875,0 z m 21.4375,0 29.09375,41.46875 8.15625,0 -26.875,-41.46875 -10.375,0 z m -178.4375,82.71875 -26.71875,41.25 3.6875,0 28.96875,-41.25 -5.9375,0 z m 236.5,0 28.96875,41.25 3.6875,0 -26.71875,-41.25 -5.9375,0 z m -289.96875,82.5 -17.8125,27.5 19.3125,-27.5 -1.5,0 z m 347.875,0 19.3125,27.5 -17.8125,-27.5 -1.5,0 z"
       id="path1888" />
    <path
       inkscape:connector-curvature="0"
       style="fill:#000000;fill-opacity:1;fill-rule:evenodd;stroke:none"
       d="m 312.65,94.850012 c -11.27539,0.09974 -20.40017,9.221758 -20.46875,20.499998 l 0,7 c -15.18,0.004 -27.50353,12.32 -27.5,27.5 l 27.5,0 13.75,0 27.5,0 c 0.004,-15.18 -12.32,-27.49646 -27.5,-27.5 l 0,-6.90625 c 0.0172,-3.72659 3.00591,-6.75859 6.71875,-6.84375 l 0.1875,0 96.0625,0 0,-13.749998 -96.09375,0 -0.15625,0 z"
       id="path1883" />
  </g>
</svg>
