<?xml version="1.0" encoding="UTF-8" standalone="no"?>
<!-- Created with Inkscape (http://www.inkscape.org/) -->

<svg
   xmlns:dc="http://purl.org/dc/elements/1.1/"
   xmlns:cc="http://creativecommons.org/ns#"
   xmlns:rdf="http://www.w3.org/1999/02/22-rdf-syntax-ns#"
   xmlns:svg="http://www.w3.org/2000/svg"
   xmlns="http://www.w3.org/2000/svg"
   xmlns:sodipodi="http://sodipodi.sourceforge.net/DTD/sodipodi-0.dtd"
   xmlns:inkscape="http://www.inkscape.org/namespaces/inkscape"
   width="602.20001"
   height="752.20001"
   id="svg2"
   sodipodi:version="0.32"
   inkscape:version="0.48.2 r9819"
   version="1.0"
   sodipodi:docname="Aa.svg">
  <defs
     id="defs4" />
  <sodipodi:namedview
     id="base"
     pagecolor="#ffffff"
     bordercolor="#666666"
     borderopacity="1.0"
     inkscape:pageopacity="0.0"
     inkscape:pageshadow="2"
     inkscape:zoom="0.708"
     inkscape:cx="237.51129"
     inkscape:cy="294.27423"
     inkscape:document-units="px"
     inkscape:current-layer="layer1"
     showgrid="true"
     inkscape:window-width="1280"
     inkscape:window-height="1004"
     inkscape:window-x="-8"
     inkscape:window-y="-8"
     fit-margin-top="0.1"
     fit-margin-left="0.1"
     fit-margin-right="0.1"
     fit-margin-bottom="0.1"
     inkscape:window-maximized="1">
    <inkscape:grid
       id="GridFromPre046Settings"
       type="xygrid"
       originx="0px"
       originy="230px"
       spacingx="55px"
       spacingy="55px"
       color="#0000ff"
       empcolor="#0000ff"
       opacity="0.2"
       empopacity="0.4"
       empspacing="8"
       visible="true"
       enabled="true"
       snapvisiblegridlinesonly="true" />
  </sodipodi:namedview>
  <metadata
     id="metadata7">
    <rdf:RDF>
      <cc:Work
         rdf:about="">
        <dc:format>image/svg+xml</dc:format>
        <dc:type
           rdf:resource="http://purl.org/dc/dcmitype/StillImage" />
        <dc:title>PL - Znak drogowy D15</dc:title>
        <dc:date>29.07.2006</dc:date>
        <dc:creator>
          <cc:Agent>
            <dc:title>MaciekS</dc:title>
          </cc:Agent>
        </dc:creator>
        <dc:rights>
          <cc:Agent>
            <dc:title>Free</dc:title>
          </cc:Agent>
        </dc:rights>
        <dc:publisher>
          <cc:Agent>
            <dc:title>Wikipedia</dc:title>
          </cc:Agent>
        </dc:publisher>
        <dc:subject>
          <rdf:Bag>
            <rdf:li>znak drogowy informacyjny</rdf:li>
          </rdf:Bag>
        </dc:subject>
        <dc:description>Znaki drogowe -Polska. Wykonane na podstawie załącznika do Ustawy</dc:description>
      </cc:Work>
    </rdf:RDF>
  </metadata>
  <g
     inkscape:label="Layer 1"
     inkscape:groupmode="layer"
     id="layer1"
     transform="translate(1.1,1.1)">
    <rect
       style="fill:#ffffff;fill-opacity:1;fill-rule:nonzero;stroke:#000000;stroke-width:2;stroke-linecap:butt;stroke-linejoin:round;stroke-miterlimit:4;stroke-opacity:1;stroke-dasharray:none;stroke-dashoffset:0"
       id="rect2188"
       width="600"
       height="750"
       x="0"
       y="0"
       ry="21.226416" />
    <rect
       style="fill:#003399;fill-opacity:1;fill-rule:nonzero;stroke:none"
       id="rect1307"
       width="589"
       height="739"
       x="5.5"
       y="5.5"
       ry="20.915094" />
    <rect
       style="fill:#ffffff;fill-opacity:1;fill-rule:nonzero;stroke:none"
       id="rect3055"
       width="440"
       height="440"
       x="80"
       y="80"
       ry="0" />
    <g
       transform="scale(0.95974042,1.0419484)"
       style="font-size:213.6804657px;font-style:normal;font-variant:normal;font-weight:bold;font-stretch:normal;text-align:start;line-height:125%;writing-mode:lr-tb;text-anchor:start;fill:#000000;fill-opacity:1;stroke:none;font-family:Arial"
       id="text1369" />
    <path
       inkscape:connector-curvature="0"
       style="fill:#000000;fill-opacity:1;fill-rule:evenodd;stroke:none"
       d="m 446.71259,118.91251 -92.8125,72.1875 c -3.10859,9.32809 -3.10931,18.17215 0,27.5 1.03361,3.10078 2.38185,5.99816 4,8.6875 L 144.36883,417.00626 c -6.37702,5.03765 -10.46875,12.84215 -10.46875,21.59375 0,15.18 12.31999,27.49999 27.5,27.5 8.7516,0 16.5561,-4.09173 21.59375,-10.46875 L 372.74384,242.10001 c 10.51398,6.31484 23.61754,8.17963 36.15625,4 l 72.1875,-92.8125 -4.5625,-4.5625 -71.59375,65.90625 -1.71875,-1.71875 63,-74.5 -4.59375,-4.59375 -74.46875,63.03125 -1.6875,-1.6875 65.84375,-71.65625 -4.59375,-4.59375 z"
       id="path1876" />
    <path
       inkscape:connector-curvature="0"
       style="fill:#000000;fill-opacity:1;fill-rule:evenodd;stroke:none"
       d="m 150.11883,127.63126 c -13.03003,2.02119 -22.75897,11.97839 -24.46875,25 l -0.0625,0.40625 c -0.004,0.0311 0.004,0.0626 0,0.0937 l 0,0.0312 c 8.53951,34.8279 26.52626,64.24432 54,88.5625 l 0.0312,0 c 14.46202,9.03995 31.55913,9.05502 46.03126,0.0312 0.24421,-0.15227 0.47861,-0.31245 0.71875,-0.46875 l 188.2813,214.12515 c 0.71482,0.92296 1.48824,1.80074 2.3125,2.625 4.9775,4.9775 11.8475,8.0625 19.4375,8.0625 15.18,0 27.5,-12.32001 27.5,-27.5 0,-7.60608 -3.09766,-14.48877 -8.09375,-19.46875 -0.80483,-0.80223 -1.66388,-1.55177 -2.5625,-2.25 L 239.08759,228.56876 c 8.91717,-13.72476 9.69329,-31.92464 0.46875,-46.71875 l 0.0312,-0.0312 c -24.52415,-27.71778 -54.24627,-45.72069 -89.46876,-54.1875 z"
       id="path1878" />
  </g>
</svg>
