<?xml version="1.0" encoding="UTF-8" standalone="no"?>
<!-- Created with Inkscape (http://www.inkscape.org/) -->

<svg
   xmlns:dc="http://purl.org/dc/elements/1.1/"
   xmlns:cc="http://creativecommons.org/ns#"
   xmlns:rdf="http://www.w3.org/1999/02/22-rdf-syntax-ns#"
   xmlns:svg="http://www.w3.org/2000/svg"
   xmlns="http://www.w3.org/2000/svg"
   xmlns:sodipodi="http://sodipodi.sourceforge.net/DTD/sodipodi-0.dtd"
   xmlns:inkscape="http://www.inkscape.org/namespaces/inkscape"
   width="602.20001"
   height="752.20001"
   id="svg2"
   sodipodi:version="0.32"
   inkscape:version="0.48.2 r9819"
   version="1.0"
   sodipodi:docname="Aa.svg">
  <defs
     id="defs4" />
  <sodipodi:namedview
     id="base"
     pagecolor="#ffffff"
     bordercolor="#666666"
     borderopacity="1.0"
     inkscape:pageopacity="0.0"
     inkscape:pageshadow="2"
     inkscape:zoom="0.708"
     inkscape:cx="237.51129"
     inkscape:cy="294.27423"
     inkscape:document-units="px"
     inkscape:current-layer="layer1"
     showgrid="true"
     inkscape:window-width="1280"
     inkscape:window-height="1004"
     inkscape:window-x="-8"
     inkscape:window-y="-8"
     fit-margin-top="0.1"
     fit-margin-left="0.1"
     fit-margin-right="0.1"
     fit-margin-bottom="0.1"
     inkscape:window-maximized="1">
    <inkscape:grid
       id="GridFromPre046Settings"
       type="xygrid"
       originx="0px"
       originy="230px"
       spacingx="55px"
       spacingy="55px"
       color="#0000ff"
       empcolor="#0000ff"
       opacity="0.2"
       empopacity="0.4"
       empspacing="8"
       visible="true"
       enabled="true"
       snapvisiblegridlinesonly="true" />
  </sodipodi:namedview>
  <metadata
     id="metadata7">
    <rdf:RDF>
      <cc:Work
         rdf:about="">
        <dc:format>image/svg+xml</dc:format>
        <dc:type
           rdf:resource="http://purl.org/dc/dcmitype/StillImage" />
        <dc:title>PL - Znak drogowy D15</dc:title>
        <dc:date>29.07.2006</dc:date>
        <dc:creator>
          <cc:Agent>
            <dc:title>MaciekS</dc:title>
          </cc:Agent>
        </dc:creator>
        <dc:rights>
          <cc:Agent>
            <dc:title>Free</dc:title>
          </cc:Agent>
        </dc:rights>
        <dc:publisher>
          <cc:Agent>
            <dc:title>Wikipedia</dc:title>
          </cc:Agent>
        </dc:publisher>
        <dc:subject>
          <rdf:Bag>
            <rdf:li>znak drogowy informacyjny</rdf:li>
          </rdf:Bag>
        </dc:subject>
        <dc:description>Znaki drogowe -Polska. Wykonane na podstawie załącznika do Ustawy</dc:description>
      </cc:Work>
    </rdf:RDF>
  </metadata>
  <g
     inkscape:label="Layer 1"
     inkscape:groupmode="layer"
     id="layer1"
     transform="translate(1.1,1.1)">
    <rect
       style="fill:#ffffff;fill-opacity:1;fill-rule:nonzero;stroke:#000000;stroke-width:2;stroke-linecap:butt;stroke-linejoin:round;stroke-miterlimit:4;stroke-opacity:1;stroke-dasharray:none;stroke-dashoffset:0"
       id="rect2188"
       width="600"
       height="750"
       x="0"
       y="0"
       ry="21.226416" />
    <rect
       style="fill:#003399;fill-opacity:1;fill-rule:nonzero;stroke:none"
       id="rect1307"
       width="589"
       height="739"
       x="5.5"
       y="5.5"
       ry="20.915094" />
    <rect
       style="fill:#ffffff;fill-opacity:1;fill-rule:nonzero;stroke:none"
       id="rect3055"
       width="440"
       height="440"
       x="80"
       y="80"
       ry="0" />
    <g
       transform="scale(0.95974042,1.0419484)"
       style="font-size:213.6804657px;font-style:normal;font-variant:normal;font-weight:bold;font-stretch:normal;text-align:start;line-height:125%;writing-mode:lr-tb;text-anchor:start;fill:#000000;fill-opacity:1;stroke:none;font-family:Arial"
       id="text1369" />
    <path
       inkscape:connector-curvature="0"
       id="path5431"
       d="m 232.224,452.35001 137.17871,0 0,0 L 301.00008,337.44254 232.224,452.35001 z"
       style="fill:#ffffff;fill-opacity:1;fill-rule:evenodd;stroke:none;stroke-width:0;stroke-linecap:butt;stroke-linejoin:miter;stroke-miterlimit:4;stroke-opacity:1;stroke-dasharray:none" />
    <path
       inkscape:connector-curvature="0"
       style="fill:none;stroke:none;stroke-width:1px;stroke-linecap:butt;stroke-linejoin:miter;stroke-opacity:1"
       d="m 353.9,136.10001 c 0,0 0,-1e-5 0,0 z"
       id="path3690" />
    <path
       inkscape:connector-curvature="0"
       style="fill:none;stroke:none;stroke-width:1px;stroke-linecap:butt;stroke-linejoin:miter;stroke-opacity:1"
       d="m 353.9,136.10001 0,0 z"
       id="path3692" />
    <path
       inkscape:connector-curvature="0"
       style="fill:none;stroke:none;stroke-width:1px;stroke-linecap:butt;stroke-linejoin:miter;stroke-opacity:1"
       d="m 353.9,136.10001 c 0,0 0,0 0,0 l 0,0 z"
       id="path3694" />
    <path
       inkscape:connector-curvature="0"
       style="fill:#000000;fill-opacity:1;fill-rule:evenodd;stroke:none"
       d="m 244.025,328.47501 -41.28125,20.625 0,6.875 0,55.03125 41.28125,20.65625 0,34.40625 -82.5625,0 0,13.75 275.1875,0 0,-13.75 -82.5625,0 0,-34.40625 41.28125,-27.53125 0,-48.15625 -41.28125,-27.5 -110.0625,0 z m 6.875,27.5 34.40625,0 0,68.8125 -3.4375,0 0,-65.375 -27.53125,0 0,65.375 -3.4375,0 0,-68.8125 z m 48.15625,0 55.03125,0 0,27.53125 -55.03125,0 0,-27.53125 z m -48.15625,75.6875 34.40625,0 9.0625,0 c -3.15413,7.05169 -3.02784,15.48286 1.0625,22.71875 3.32154,5.87587 8.66282,9.88098 14.65625,11.6875 l -59.1875,0 0,-34.40625 z m 89.4375,0 6.875,0 0,34.40625 -22.53125,0 c 1.7289,-0.527 3.42428,-1.23 5.0625,-2.15625 l 0.3125,-0.1875 c 11.21685,-6.55339 15.51949,-20.44463 10.28125,-32.0625 z"
       id="path1875" />
    <path
       inkscape:connector-curvature="0"
       style="fill:#000000;fill-opacity:1;fill-rule:evenodd;stroke:none"
       d="m 281.30625,106.41251 -6.125,4.0625 18.625,25.125 -97.75,124.0625 -34.59375,0 0,13.75 275.1875,0 0,-13.75 -34.625,0 -97.71875,-124.0625 18.625,-25.125 -6.125,-4.0625 -17.75,22.53125 -17.75,-22.53125 z m 17.75,70.6875 45.875,82.5625 -91.75,0 45.875,-82.5625 z"
       id="path2782" />
  </g>
</svg>
