<?xml version="1.0" encoding="UTF-8" standalone="no"?>
<!-- Created with Inkscape (http://www.inkscape.org/) -->

<svg
   xmlns:dc="http://purl.org/dc/elements/1.1/"
   xmlns:cc="http://creativecommons.org/ns#"
   xmlns:rdf="http://www.w3.org/1999/02/22-rdf-syntax-ns#"
   xmlns:svg="http://www.w3.org/2000/svg"
   xmlns="http://www.w3.org/2000/svg"
   xmlns:sodipodi="http://sodipodi.sourceforge.net/DTD/sodipodi-0.dtd"
   xmlns:inkscape="http://www.inkscape.org/namespaces/inkscape"
   width="602.20001"
   height="752.20001"
   id="svg2"
   sodipodi:version="0.32"
   inkscape:version="0.48.2 r9819"
   version="1.0"
   sodipodi:docname="Aa.svg">
  <defs
     id="defs4" />
  <sodipodi:namedview
     id="base"
     pagecolor="#ffffff"
     bordercolor="#666666"
     borderopacity="1.0"
     inkscape:pageopacity="0.0"
     inkscape:pageshadow="2"
     inkscape:zoom="0.708"
     inkscape:cx="237.51129"
     inkscape:cy="177.88473"
     inkscape:document-units="px"
     inkscape:current-layer="layer1"
     showgrid="true"
     inkscape:window-width="1280"
     inkscape:window-height="1004"
     inkscape:window-x="-8"
     inkscape:window-y="-8"
     fit-margin-top="0.1"
     fit-margin-left="0.1"
     fit-margin-right="0.1"
     fit-margin-bottom="0.1"
     inkscape:window-maximized="1">
    <inkscape:grid
       id="GridFromPre046Settings"
       type="xygrid"
       originx="0px"
       originy="230px"
       spacingx="55px"
       spacingy="55px"
       color="#0000ff"
       empcolor="#0000ff"
       opacity="0.2"
       empopacity="0.4"
       empspacing="8"
       visible="true"
       enabled="true"
       snapvisiblegridlinesonly="true" />
  </sodipodi:namedview>
  <metadata
     id="metadata7">
    <rdf:RDF>
      <cc:Work
         rdf:about="">
        <dc:format>image/svg+xml</dc:format>
        <dc:type
           rdf:resource="http://purl.org/dc/dcmitype/StillImage" />
        <dc:title></dc:title>
        <dc:date>29.07.2006</dc:date>
        <dc:creator>
          <cc:Agent>
            <dc:title>MaciekS</dc:title>
          </cc:Agent>
        </dc:creator>
        <dc:rights>
          <cc:Agent>
            <dc:title>Free</dc:title>
          </cc:Agent>
        </dc:rights>
        <dc:publisher>
          <cc:Agent>
            <dc:title>Wikipedia</dc:title>
          </cc:Agent>
        </dc:publisher>
        <dc:subject>
          <rdf:Bag>
            <rdf:li>znak drogowy informacyjny</rdf:li>
          </rdf:Bag>
        </dc:subject>
        <dc:description>Znaki drogowe -Polska. Wykonane na podstawie załącznika do Ustawy</dc:description>
      </cc:Work>
    </rdf:RDF>
  </metadata>
  <g
     inkscape:label="Layer 1"
     inkscape:groupmode="layer"
     id="layer1"
     transform="translate(1.1,1.1)">
    <rect
       style="fill:#ffffff;fill-opacity:1;fill-rule:nonzero;stroke:#000000;stroke-width:2;stroke-linecap:butt;stroke-linejoin:round;stroke-miterlimit:4;stroke-opacity:1;stroke-dasharray:none;stroke-dashoffset:0"
       id="rect2188"
       width="600"
       height="750"
       x="0"
       y="0"
       ry="21.226416" />
    <rect
       style="fill:#003399;fill-opacity:1;fill-rule:nonzero;stroke:none"
       id="rect1307"
       width="589"
       height="739"
       x="5.5"
       y="5.5"
       ry="20.915094" />
    <rect
       style="fill:#ffffff;fill-opacity:1;fill-rule:nonzero;stroke:none"
       id="rect3055"
       width="440"
       height="386.10001"
       x="80"
       y="63.200008"
       ry="0" />
    <g
       transform="scale(0.95974042,1.0419484)"
       style="font-size:213.6804657px;font-style:normal;font-variant:normal;font-weight:bold;font-stretch:normal;text-align:start;line-height:125%;writing-mode:lr-tb;text-anchor:start;fill:#000000;fill-opacity:1;stroke:none;font-family:Arial"
       id="text1369" />
    <path
       inkscape:connector-curvature="0"
       d="m 136.97043,102.96513 0,96.17804 16.53249,0 0,-40.00238 13.33738,0 23.76303,40.00238 18.79393,0 -25.08987,-42.23598 c 4.86436,-3.72502 13.37756,-12.18497 13.37756,-25.82063 0,-20.74116 -16.69502,-28.12143 -16.69502,-28.12143 l -27.48701,0 -16.53249,0 z m 39.11774,16.02515 c 0,0 5.67346,6.04526 5.67346,12.09628 0,6.05116 -5.67346,12.10973 -5.67346,12.10973 l -22.58525,0 0,-23.97722 22.58525,-0.22879 z"
       style="fill:#000000;fill-opacity:1;stroke:none"
       id="path9317" />
    <path
       inkscape:connector-curvature="0"
       d="m 433.2572,135.02454 c -17.88411,-8e-5 -32.4075,14.36255 -32.4075,32.05934 0,17.69675 14.52339,32.05929 32.4075,32.05929 17.88421,0 32.39721,-14.36254 32.39721,-32.05929 0,-17.69687 -14.51327,-32.05934 -32.39721,-32.05934 z m 0.48353,16.24006 c 8.87792,0 16.08772,7.14444 16.08772,15.92949 -2.9e-4,8.78506 -7.2098,15.90948 -16.08772,15.90948 -8.878,0 -16.07768,-7.12453 -16.07768,-15.90948 0,-8.78497 7.19968,-15.92949 16.07768,-15.92949 z"
       style="fill:#000000;fill-opacity:1;stroke:none"
       id="path9322" />
    <path
       inkscape:connector-curvature="0"
       d="m 243.83527,135.02446 c -17.82658,0 -32.29437,14.35958 -32.29437,32.0526 0,17.69308 14.46779,32.05269 32.29437,32.05269 6.97199,0 13.42425,-2.21011 18.70426,-5.94304 l 1.57411,5.95646 16.03969,0 -4.18499,-15.65245 0,-13.14157 c 0.11029,-1.0771 0.16155,-2.16621 0.16155,-3.27209 0,-1.10579 -0.0513,-2.19499 -0.16155,-3.27201 l 0,-28.76729 -16.03965,0 0,4.26037 c -4.73965,-2.71176 -10.23333,-4.27367 -16.09342,-4.27367 z m 0.48435,16.24005 c 7.58583,0 13.94571,5.24348 15.60907,12.27353 l 0,7.29186 c -1.66336,7.02723 -8.02324,12.26016 -15.60907,12.26016 -8.8493,0 -16.02599,-7.12292 -16.02599,-15.90608 0,-8.78317 7.17669,-15.91947 16.02599,-15.91947 z"
       style="fill:#000000;fill-opacity:1;stroke:none"
       id="path9339" />
    <path
       inkscape:connector-curvature="0"
       d="m 354.13201,102.96497 0,96.1782 -16.27103,0 0,-4.25161 c -4.73649,2.70779 -10.22042,4.25161 -16.06865,4.25161 -17.87366,0 -32.38129,-14.46715 -32.38129,-32.29321 0,-17.82602 14.50763,-32.29221 32.38129,-32.29221 5.84823,0 11.33216,1.55768 16.06865,4.26534 l 0,-35.85812 16.27103,0 z m -32.82552,47.95392 c -8.87264,0 -16.08251,7.19023 -16.08251,16.03961 0,8.84741 7.20987,16.02476 16.08251,16.02476 8.87359,0 16.06869,-7.17735 16.06869,-16.02476 0,-8.84938 -7.1951,-16.03961 -16.06869,-16.03961 z"
       style="fill:#000000;fill-opacity:1;stroke:none"
       id="path8696" />
    <path
       inkscape:connector-curvature="0"
       d="m 371.81914,103.67997 0,16.11943 16.16799,0 0,-16.11943 -16.16799,0 z m 0.10673,31.41186 0,64.05134 15.95347,0 0,-64.05134 -15.95347,0 z"
       style="fill:#000000;fill-opacity:1;stroke:none"
       id="path6128" />
    <path
       inkscape:connector-curvature="0"
       d="m 255.40564,267.51315 0,120.89555 22.26315,0 0,-50.28289 17.96051,0 32.00001,50.28289 25.30847,0 -33.78677,-53.09052 c 6.5505,-4.68234 18.01463,-15.31647 18.01463,-32.45646 0,-26.07159 -22.48202,-35.34857 -22.48202,-35.34857 l -37.01483,0 -22.26315,0 z m 52.67713,20.14358 c 0,0 7.64004,7.59887 7.64004,15.20499 0,7.60629 -7.64004,15.22189 -7.64004,15.22189 l -30.41398,0 0,-30.13929 30.41398,-0.28759 z"
       style="fill:#000000;fill-opacity:1;stroke:none"
       id="path4269" />
    <path
       inkscape:connector-curvature="0"
       d="m 137.41435,267.51918 0,120.875 20.78125,0 0,-50.28125 0.8125,0 53.25,0 0.8125,0 0,50.28125 20.78125,0 0,-120.875 -20.78125,0 0,50.5625 -0.8125,0 -53.25,0 -0.8125,0 0,-50.5625 -20.78125,0 z"
       style="fill:#000000;fill-opacity:1;stroke:none"
       id="path4271" />
    <path
       inkscape:connector-curvature="0"
       d="m 371.7576,352.30994 22.84615,0 c 0.72812,5.59929 2.68782,9.87953 5.87958,12.84067 3.19185,2.96117 7.0553,4.44174 11.59103,4.44174 4.87153,0 8.97329,-1.77672 12.30532,-5.33011 3.33161,-3.55337 4.99754,-8.34505 4.99754,-14.37507 0,-5.70692 -1.59588,-10.22942 -4.78768,-13.5675 -3.19181,-3.33797 -7.0837,-5.00698 -11.67534,-5.00705 -3.02361,7e-5 -6.63513,-1.4681 -10.83501,-0.33755 l 0,-18.49378 c 6.38313,0.16159 13.85911,0.86257 17.21862,-1.96405 3.35995,-2.82649 5.03972,-6.58176 5.03972,-11.26586 0,-3.98402 -1.2321,-7.16053 -3.69583,-9.52956 -2.46375,-2.36881 -5.73935,-3.55328 -9.82694,-3.5534 -4.03169,1.2e-4 -7.47544,1.34609 -10.33143,4.03797 -2.85591,2.69203 -4.59159,6.6223 -5.20746,11.79077 l -21.75424,0 c 1.51164,-7.16049 3.79344,-16.43433 6.84546,-20.71465 3.05158,-4.28012 7.30735,-7.64505 12.76678,-10.09484 5.45986,-2.44957 11.5772,-3.67444 18.35259,-3.67452 11.59106,8e-5 20.88645,3.55349 27.88586,10.66015 5.76736,5.81476 8.65125,12.38313 8.65125,19.70519 0,10.39105 -1.67765,18.68225 -13.49264,24.8737 7.05524,1.45374 8.4671,4.711 12.69491,9.77182 4.22738,5.06093 6.34097,11.17171 6.3415,18.33228 -5.3e-4,10.39098 -3.94786,19.24753 -11.84305,26.56966 -7.89562,7.32213 -17.7226,10.9832 -29.48179,10.9832 -11.14337,0 -20.3824,-3.08233 -27.71767,-9.24689 -7.33575,-6.16457 -11.59105,-16.89205 -12.76723,-26.85232 l 0,0 z"
       style="font-size:40px;font-style:normal;font-variant:normal;font-weight:normal;font-stretch:normal;text-align:start;line-height:125%;writing-mode:lr-tb;text-anchor:start;fill:#000000;fill-opacity:1;stroke:none;font-family:Arial"
       id="text2087" />
    <path
       inkscape:connector-curvature="0"
       d="m 278.76171,582.11413 c 8.57417,-14.82741 24.34154,-38.88044 24.34154,-38.88044 7.34434,-10.55332 11.3842,-18.0328 11.3842,-26.39811 0,-16.94532 -14.29329,-30.69796 -31.26699,-30.69796 -16.97252,0 -30.74767,13.75264 -30.74767,30.69796 0,16.56328 13.16361,30.07133 29.60802,30.67212 l -21.46748,34.60643 18.14838,0 z m 4.45875,-49.74843 c -8.58532,0 -15.5545,-6.95747 -15.5545,-15.53012 0,-8.57271 6.96918,-15.53018 15.5545,-15.53018 8.58774,0 15.55575,6.95747 15.55575,15.53018 0,8.57265 -6.96801,15.53012 -15.55575,15.53012 z"
       style="fill:#ffffff;fill-opacity:1;stroke:none"
       id="path6309" />
    <path
       inkscape:connector-curvature="0"
       d="m 195.01029,486.13762 c -14.82953,0 -26.8654,12.06692 -26.8654,26.93539 0,6.24112 2.13056,11.98205 5.68801,16.5507 -5.72053,5.55452 -9.28939,13.33414 -9.28939,21.94315 0,16.86229 13.64809,30.54727 30.46678,30.54727 16.81546,0 30.46513,-13.68498 30.46513,-30.54727 0,-8.60901 -3.57044,-16.38863 -9.28937,-21.94315 3.55749,-4.56865 5.68641,-10.30958 5.68641,-16.5507 0,-14.86847 -12.03587,-26.93539 -26.86217,-26.93539 z m 0.15275,15.78959 c 6.42102,0 11.63126,5.22452 11.63126,11.66177 0,6.43719 -5.21024,11.66172 -11.63126,11.66172 -6.41933,0 -11.62958,-5.22453 -11.62958,-11.66172 0,-6.43725 5.21025,-11.66177 11.62958,-11.66177 z m 0,34.15952 c 8.43783,0 15.28623,6.86581 15.28623,15.32527 0,8.45973 -6.8484,15.32533 -15.28623,15.32533 -8.43779,0 -15.28294,-6.8656 -15.28294,-15.32533 0,-8.45946 6.84515,-15.32527 15.28294,-15.32527 z"
       style="fill:#ffffff;fill-opacity:1;stroke:none"
       id="path7218" />
    <path
       inkscape:connector-curvature="0"
       d="m 373.13463,553.45567 18.13699,0 c 0.57804,4.44513 2.13379,7.84312 4.66765,10.19389 2.53393,2.3508 5.60103,3.52618 9.20183,3.52618 3.86739,0 7.12367,-1.41048 9.76888,-4.23144 2.64489,-2.82093 3.96743,-6.62492 3.96743,-11.41201 0,-4.53057 -1.26693,-8.12088 -3.80082,-10.7709 -2.5339,-2.64992 -5.62358,-3.97491 -9.26877,-3.97496 -2.40036,5e-5 -5.26745,-1.16549 -8.60164,-0.26798 l 0,-14.68174 c 5.06741,0.12827 11.00241,0.68476 13.66943,-1.55922 2.66739,-2.24388 4.00091,-5.22509 4.00091,-8.94368 0,-3.16281 -0.97812,-5.68456 -2.93402,-7.56529 -1.95591,-1.88053 -4.55633,-2.82085 -7.80136,-2.82095 -3.20066,1e-4 -5.93456,1.06863 -8.20187,3.20565 -2.26723,2.13713 -3.64515,5.25728 -4.13406,9.36039 l -17.27016,0 c 1.20006,-5.68452 3.01152,-13.04679 5.43444,-16.44484 2.42258,-3.39788 5.80113,-6.06921 10.13522,-8.01404 4.33445,-1.94465 9.19086,-2.91704 14.56967,-2.91711 9.20186,7e-5 16.58123,2.82103 22.13789,8.46284 4.57856,4.61618 6.868,9.83065 6.868,15.64344 0,8.2492 -1.33183,14.83138 -10.71146,19.74661 5.60097,1.1541 6.72182,3.73995 10.07816,7.75761 3.35603,4.01774 5.03395,8.86893 5.03437,14.55353 -4.2e-4,8.24915 -3.13411,15.28014 -9.4019,21.09299 -6.26813,5.81287 -14.06953,8.71929 -23.40486,8.71929 -8.84644,0 -16.18107,-2.44698 -22.00437,-7.34088 -5.82366,-4.89389 -9.20183,-13.41017 -10.13558,-21.31738 l 0,0 z"
       style="font-size:40px;font-style:normal;font-variant:normal;font-weight:normal;font-stretch:normal;text-align:start;line-height:125%;writing-mode:lr-tb;text-anchor:start;fill:#ffffff;fill-opacity:1;stroke:none;font-family:Arial"
       id="path5496" />
    <path
       inkscape:connector-curvature="0"
       d="m 332.41167,565.26374 16.37516,0 c -0.11003,12.36205 -5.79553,23.48305 -17.14427,29.0832 l 1.14685,-12.04507 -0.37774,-17.03813 z"
       style="font-size:40px;font-style:normal;font-variant:normal;font-weight:normal;font-stretch:normal;text-align:start;line-height:125%;writing-mode:lr-tb;text-anchor:start;fill:#ffffff;fill-opacity:1;stroke:none;font-family:Arial"
       id="text2099" />
    <path
       inkscape:connector-curvature="0"
       d="m 296.58728,629.71954 0,90.41347 15.54419,0 0,-37.60995 0.60775,0 39.83055,0 0.60775,0 0,37.60995 15.54419,0 0,-90.41347 -15.54419,0 0,37.82032 -0.60775,0 -39.83055,0 -0.60775,0 0,-37.82032 -15.54419,0 z"
       style="fill:#ffffff;fill-opacity:1;stroke:none"
       id="path6905" />
    <path
       inkscape:connector-curvature="0"
       d="m 175.75431,628.77493 -4.00002,90.438 16.37509,0 2.00001,-59.68783 31.00017,58.03157 30.96892,-58.03157 2.00002,59.68783 16.37509,0 -4.00003,-90.438 -14.37508,0 -31.00017,55.59406 -30.96892,-55.59406 -14.37508,0 z"
       style="fill:#ffffff;fill-opacity:1;stroke:none"
       id="path6099" />
    <path
       inkscape:connector-curvature="0"
       d="m 393.64984,659.84101 0,14.9726 20.6658,0 -20.6658,37.8959 0,7.4235 41.0295,0 0,-14.9726 -20.8552,0 20.8552,-38.9134 0,-6.406 -41.0295,0 z"
       style="fill:#ffffff;fill-opacity:1;stroke:none"
       id="path5663" />
  </g>
</svg>
