<?xml version="1.0" encoding="UTF-8" standalone="no"?>
<!-- Created with Inkscape (http://www.inkscape.org/) -->

<svg
   xmlns:dc="http://purl.org/dc/elements/1.1/"
   xmlns:cc="http://creativecommons.org/ns#"
   xmlns:rdf="http://www.w3.org/1999/02/22-rdf-syntax-ns#"
   xmlns:svg="http://www.w3.org/2000/svg"
   xmlns="http://www.w3.org/2000/svg"
   xmlns:sodipodi="http://sodipodi.sourceforge.net/DTD/sodipodi-0.dtd"
   xmlns:inkscape="http://www.inkscape.org/namespaces/inkscape"
   version="1.0"
   width="600.20001"
   height="600.20001"
   id="svg2"
   sodipodi:version="0.32"
   inkscape:version="0.48.2 r9819"
   sodipodi:docname="Aa.svg"
   inkscape:output_extension="org.inkscape.output.svg.inkscape">
  <metadata
     id="metadata14">
    <rdf:RDF>
      <cc:Work
         rdf:about="">
        <dc:format>image/svg+xml</dc:format>
        <dc:type
           rdf:resource="http://purl.org/dc/dcmitype/StillImage" />
      </cc:Work>
    </rdf:RDF>
  </metadata>
  <sodipodi:namedview
     inkscape:window-height="1004"
     inkscape:window-width="1280"
     inkscape:pageshadow="2"
     inkscape:pageopacity="0.0"
     guidetolerance="26.5"
     gridtolerance="28.3"
     objecttolerance="24.3"
     borderopacity="1.0"
     bordercolor="#666666"
     pagecolor="#ffffff"
     id="base"
     showgrid="true"
     inkscape:object-nodes="true"
     inkscape:zoom="1.2866667"
     inkscape:cx="178.86248"
     inkscape:cy="-10.784749"
     inkscape:window-x="-8"
     inkscape:window-y="-8"
     inkscape:current-layer="svg2"
     inkscape:grid-points="true"
     inkscape:guide-points="true"
     showguides="true"
     inkscape:guide-bbox="true"
     inkscape:grid-bbox="true"
     inkscape:object-paths="true"
     fit-margin-top="0.1"
     fit-margin-bottom="0.1"
     fit-margin-right="0.1"
     fit-margin-left="0.1"
     inkscape:window-maximized="1">
    <inkscape:grid
       id="GridFromPre046Settings"
       type="xygrid"
       originx="0px"
       originy="0px"
       spacingx="60px"
       spacingy="60px"
       color="#0000ff"
       empcolor="#0000ff"
       opacity="0.2"
       empopacity="0.4"
       empspacing="5"
       visible="true"
       enabled="true"
       snapvisiblegridlinesonly="true" />
  </sodipodi:namedview>
  <defs
     id="defs4" />
  <g
     transform="translate(1.1,-1.9)"
     id="g3143">
    <rect
       width="598.0144"
       height="598.01776"
       rx="21.226416"
       ry="21.226416"
       x="-0.0022616801"
       y="2.9943807"
       style="fill:#ffffff;fill-opacity:1;fill-rule:evenodd;stroke:#000000;stroke-width:1.98349416;stroke-linecap:butt;stroke-linejoin:round;stroke-miterlimit:4;stroke-opacity:1;stroke-dasharray:none;stroke-dashoffset:0"
       id="rect2188" />
    <path
       d="M 27.322103,7.4749088 C 210.50524,7.6994985 393.74462,7.0256797 576.8926,7.8119071 c 23.23041,4.7169489 15.21781,26.3208969 16.63445,40.3736849 0,176.919488 0,353.838978 0,530.758478 -0.1925,18.03384 -25.30377,17.34594 -41.56728,16.64473 -176.27601,-0.22458 -352.60825,0.44923 -528.849103,-0.33699 -23.23039865,-4.71695 -15.2178028,-26.3209 -16.6344392,-40.37369 0,-176.91948 0,-353.83897 0,-530.758473 C 6.2056462,15.172671 16.113111,7.2595892 27.322103,7.4749088 z"
       style="fill:#003399;fill-opacity:1;fill-rule:evenodd;stroke:none"
       id="rect1307"
       inkscape:connector-curvature="0" />
  </g>
  <path
     style="fill:#ffffff;fill-opacity:1;fill-rule:evenodd;stroke:none"
     d="m 420.10599,70.103889 c -11.04,0 -20.00001,8.96 -20,20 0,11.040001 8.95999,20.000001 20,20.000001 11.04,0 20,-8.96 20,-20.000001 0,-11.04 -8.96,-19.999999 -20,-20 z m -13.78125,40.718751 -3.96875,5.8125 -12.25,43.46875 0,56 0.5625,3.96875 44.4375,28.46875 0,-8.4375 5.3125,7.0625 10,-21.59375 -15.3125,-22.96875 0,-58.5 -6.40625,-30.4375 -22.375,-2.84375 z m -271.21875,69.28125 c -41.399999,0 -74.999999,33.6 -74.999999,75 0,41.4 33.6,75 74.999999,75 l 43.15625,0 61.84375,0 c 21.84981,0 42.34757,5.8452 60,16.0625 l 285,184.25 0,-15.125 -285,-186.125 c -18.08073,-8.99509 -38.44668,-14.0625 -60,-14.0625 l -60,0 -45,0 c -33.12,0 -59.999999,-26.88 -59.999999,-60 0,-33.12 26.879999,-60 59.999999,-60 l 45,0 45,0 61.84375,0 c 21.84981,0 42.34757,5.8452 60,16.0625 l 238.15625,153.96875 0,-15.4375 -238.15625,-155.53125 c -18.08073,-8.99509 -38.44668,-14.0625 -60,-14.0625 -0.60746,0 -1.20694,0.0232 -1.8125,0.0312 l -0.0312,-0.0312 -150,0 z"
     id="path2176"
     inkscape:connector-curvature="0" />
</svg>
