<?xml version="1.0" encoding="UTF-8" standalone="no"?>
<!-- Created with Inkscape (http://www.inkscape.org/) -->

<svg
   xmlns:dc="http://purl.org/dc/elements/1.1/"
   xmlns:cc="http://creativecommons.org/ns#"
   xmlns:rdf="http://www.w3.org/1999/02/22-rdf-syntax-ns#"
   xmlns:svg="http://www.w3.org/2000/svg"
   xmlns="http://www.w3.org/2000/svg"
   xmlns:sodipodi="http://sodipodi.sourceforge.net/DTD/sodipodi-0.dtd"
   xmlns:inkscape="http://www.inkscape.org/namespaces/inkscape"
   version="1.0"
   width="600.20001"
   height="600.20001"
   id="svg2"
   inkscape:version="0.48.2 r9819"
   sodipodi:docname="Aa.svg">
  <metadata
     id="metadata15">
    <rdf:RDF>
      <cc:Work
         rdf:about="">
        <dc:format>image/svg+xml</dc:format>
        <dc:type
           rdf:resource="http://purl.org/dc/dcmitype/StillImage" />
      </cc:Work>
    </rdf:RDF>
  </metadata>
  <sodipodi:namedview
     pagecolor="#ffffff"
     bordercolor="#666666"
     borderopacity="1"
     objecttolerance="10"
     gridtolerance="10"
     guidetolerance="10"
     inkscape:pageopacity="0"
     inkscape:pageshadow="2"
     inkscape:window-width="1280"
     inkscape:window-height="1004"
     id="namedview13"
     showgrid="false"
     fit-margin-bottom="0.1"
     fit-margin-top="0.1"
     fit-margin-right="0.1"
     fit-margin-left="0.1"
     inkscape:zoom="0.78666667"
     inkscape:cx="236.07487"
     inkscape:cy="257.40852"
     inkscape:window-x="-8"
     inkscape:window-y="-8"
     inkscape:window-maximized="1"
     inkscape:current-layer="svg2" />
  <defs
     id="defs4" />
  <g
     style="display:inline"
     id="layer1"
     transform="translate(1.1,-1.9)">
    <rect
       width="598.0144"
       height="598.01776"
       rx="21.226416"
       ry="21.226416"
       x="-0.0022616801"
       y="2.9943807"
       style="fill:#ffffff;fill-opacity:1;fill-rule:evenodd;stroke:#000000;stroke-width:1.98349416;stroke-linecap:butt;stroke-linejoin:round;stroke-miterlimit:4;stroke-opacity:1;stroke-dasharray:none;stroke-dashoffset:0"
       id="rect2188" />
    <path
       d="M 27.322103,7.4749088 C 210.50524,7.6994985 393.74462,7.0256797 576.8926,7.8119071 c 23.23041,4.7169489 15.21781,26.3208969 16.63445,40.3736849 0,176.919488 0,353.838978 0,530.758478 -0.1925,18.03384 -25.30377,17.34594 -41.56728,16.64473 -176.27601,-0.22458 -352.60825,0.44923 -528.849103,-0.33699 -23.23039865,-4.71695 -15.2178028,-26.3209 -16.6344392,-40.37369 0,-176.91948 0,-353.83897 0,-530.758473 C 6.2056462,15.172671 16.113111,7.2595892 27.322103,7.4749088 z"
       style="fill:#003399;fill-opacity:1;fill-rule:evenodd;stroke:none"
       id="rect1307"
       inkscape:connector-curvature="0" />
  </g>
  <g
     style="fill:#ffffff"
     id="g3774"
     transform="translate(1.1,-1.9)">
    <g
       transform="matrix(1.01215,0,0,0.936478,1.4374,20.24475)"
       style="fill:#ffffff"
       id="g2859">
      <g
         style="fill:#ffffff"
         id="g2843">
        <path
           d="m 334.28125,25.78125 c -13.66129,0 -24.75,11.292171 -24.75,25.21875 0,9.380331 5.01007,17.590002 12.46875,21.9375 L 279.5,94.5 l -56,56 0,80 29.4375,17 0,-71 23.0625,-30 0,71 -7.125,19.8125 6.28125,9.53125 L 258.9375,320.9375 216.5,376.5 l 0,20 69.5,0 0,-10.5 -26.75,-9.5 L 304,320.9375 311,285 l 21,29.5 23,113.5 65.5,-12.5 -3,-22.5 -36,-4 -13,-95.5 -42,-62.5 4.25,-58.75 4.78125,13 L 394.5,224.5 408.21875,200.75 353.5,158.5 322.96875,73.4375 c 3.3911,1.7811 7.23737,2.812501 11.3125,2.8125 13.6613,0 24.74999,-11.323422 24.75,-25.25 0,-13.926578 -11.08871,-25.218749 -24.75,-25.21875 z M 5.875,316.15625 l 0,45.4375 97.78125,0 0,-45.4375 -97.78125,0 z m 97.78125,45.4375 0,45.40625 98.1875,0 0,-45.40625 -98.1875,0 z M 201.84375,407 l 0,45.4375 98.1875,0 0,-45.4375 -98.1875,0 z m 98.1875,45.4375 0,45.40625 98.15625,0 0,-45.40625 -98.15625,0 z m 98.15625,45.40625 0,45.4375 98.1875,0 0,-45.4375 -98.1875,0 z m 98.1875,45.4375 0,45.40625 97.74816,-0.25 0,-45.40625 -97.74816,0.25 z"
           transform="matrix(0.987996,0,0,1.067831,-1.420145,-21.61797)"
           style="fill:#ffffff;fill-opacity:1;fill-rule:nonzero;stroke:none"
           id="rect2839"
           inkscape:connector-curvature="0" />
      </g>
      <g
         transform="translate(194,97)"
         style="fill:#ffffff"
         id="g2847" />
      <g
         transform="translate(388,194)"
         style="fill:#ffffff"
         id="g2853" />
    </g>
  </g>
</svg>
