<?xml version="1.0" encoding="UTF-8" standalone="no"?>
<!-- Created with Inkscape (http://www.inkscape.org/) -->

<svg
   xmlns:dc="http://purl.org/dc/elements/1.1/"
   xmlns:cc="http://creativecommons.org/ns#"
   xmlns:rdf="http://www.w3.org/1999/02/22-rdf-syntax-ns#"
   xmlns:svg="http://www.w3.org/2000/svg"
   xmlns="http://www.w3.org/2000/svg"
   xmlns:sodipodi="http://sodipodi.sourceforge.net/DTD/sodipodi-0.dtd"
   xmlns:inkscape="http://www.inkscape.org/namespaces/inkscape"
   version="1.0"
   width="600.20001"
   height="600.20001"
   id="svg2"
   inkscape:version="0.48.2 r9819"
   sodipodi:docname="Aa.svg">
  <metadata
     id="metadata13">
    <rdf:RDF>
      <cc:Work
         rdf:about="">
        <dc:format>image/svg+xml</dc:format>
        <dc:type
           rdf:resource="http://purl.org/dc/dcmitype/StillImage" />
      </cc:Work>
    </rdf:RDF>
  </metadata>
  <sodipodi:namedview
     pagecolor="#ffffff"
     bordercolor="#666666"
     borderopacity="1"
     objecttolerance="10"
     gridtolerance="10"
     guidetolerance="10"
     inkscape:pageopacity="0"
     inkscape:pageshadow="2"
     inkscape:window-width="1280"
     inkscape:window-height="1004"
     id="namedview11"
     showgrid="false"
     fit-margin-bottom="0.1"
     fit-margin-top="0.1"
     fit-margin-right="0.1"
     fit-margin-left="0.1"
     inkscape:zoom="0.78666667"
     inkscape:cx="205.53539"
     inkscape:cy="232.13447"
     inkscape:window-x="-8"
     inkscape:window-y="-8"
     inkscape:window-maximized="1"
     inkscape:current-layer="svg2" />
  <defs
     id="defs4" />
  <g
     style="display:inline"
     id="layer1"
     transform="translate(1.1,-1.9)" />
  <g
     id="g3994"
     transform="translate(1.1,-1.9)">
    <rect
       width="598.0144"
       height="598.01776"
       rx="21.226416"
       ry="21.226416"
       x="-0.0022616801"
       y="2.9943807"
       style="fill:#ffffff;fill-opacity:1;fill-rule:evenodd;stroke:#000000;stroke-width:1.98349416;stroke-linecap:butt;stroke-linejoin:round;stroke-miterlimit:4;stroke-opacity:1;stroke-dasharray:none;stroke-dashoffset:0;display:inline"
       id="rect2188" />
    <path
       d="M 27.322103,7.4749088 C 210.50524,7.6994985 393.74462,7.0256797 576.8926,7.8119071 c 23.23041,4.7169489 15.21781,26.3208969 16.63445,40.3736849 0,176.919488 0,353.838978 0,530.758478 -0.1925,18.03384 -25.30377,17.34594 -41.56728,16.64473 -176.27601,-0.22458 -352.60825,0.44923 -528.849103,-0.33699 -23.23039865,-4.71695 -15.2178028,-26.3209 -16.6344392,-40.37369 0,-176.91948 0,-353.83897 0,-530.758473 C 6.2056462,15.172671 16.113111,7.2595892 27.322103,7.4749088 z"
       style="fill:#003399;fill-opacity:1;fill-rule:evenodd;stroke:none;display:inline"
       id="rect1307"
       inkscape:connector-curvature="0" />
    <path
       d="m 233.84375,86.5 c -15.318,0 -27.75001,12.432 -27.75,27.75 0,12.71984 8.57117,23.44481 20.25,26.71875 L 171.75,171.15625 130.125,221.75 l 0,80.0625 27.53125,17.34375 0,-84.90625 23.5,-24.59375 -0.5,65.90625 -8.5,28.875 -65.15625,154.75 0,29.375 74.875,0 0,-16.6875 -32.78125,-8.6875 60.75,-125.8125 31.40625,27.09375 -20.53125,52.21875 0,25 67.78125,0 0,-12.6875 -32.75,-8.5625 29.71875,-79.375 -57.3125,-41.75 7.34375,-65.375 6.375,13.75 66.125,38 L 312.46875,259.5 260.1875,220.40625 227.125,141.1875 c 2.14988,0.53476 4.40415,0.8125 6.71875,0.8125 15.318,0 27.75001,-12.43199 27.75,-27.75 0,-15.318003 -12.432,-27.750003 -27.75,-27.75 z m 262.5,229.65625 0,45.4375 97.78125,0 0,-45.4375 -97.78125,0 z m 0,45.4375 -98.1875,0 0,45.40625 98.1875,0 0,-45.40625 z M 398.15625,407 l -98.1875,0 0,45.4375 98.1875,0 0,-45.4375 z m -98.1875,45.4375 -98.15625,0 0,45.40625 98.15625,0 0,-45.40625 z m -98.15625,45.40625 -98.1875,0 0,45.4375 98.1875,0 0,-45.4375 z m -98.1875,45.4375 -97.75,-0.25 0,45.40625 97.75,0.25 0,-45.40625 z"
       style="fill:#ffffff;fill-opacity:1;fill-rule:nonzero;stroke:none"
       id="path3881"
       inkscape:connector-curvature="0" />
  </g>
  <g
     transform="matrix(1.01215,0,0,0.936478,198.8945,109.1831)"
     style="fill:#ffffff"
     id="g2847" />
  <g
     transform="matrix(1.01215,0,0,0.936478,395.2516,200.0215)"
     style="fill:#ffffff"
     id="g2853" />
</svg>
