<?xml version="1.0" encoding="UTF-8" standalone="no"?>
<!-- Created with Inkscape (http://www.inkscape.org/) -->

<svg
   xmlns:dc="http://purl.org/dc/elements/1.1/"
   xmlns:cc="http://creativecommons.org/ns#"
   xmlns:rdf="http://www.w3.org/1999/02/22-rdf-syntax-ns#"
   xmlns:svg="http://www.w3.org/2000/svg"
   xmlns="http://www.w3.org/2000/svg"
   xmlns:sodipodi="http://sodipodi.sourceforge.net/DTD/sodipodi-0.dtd"
   xmlns:inkscape="http://www.inkscape.org/namespaces/inkscape"
   width="600.40625"
   height="750"
   id="svg2"
   sodipodi:version="0.32"
   inkscape:version="0.48.2 r9819"
   version="1.0"
   sodipodi:docname="AJAX.svg"
   inkscape:output_extension="org.inkscape.output.svg.inkscape">
  <defs
     id="defs4">
    <clipPath
       id="id0">
      <rect
         id="rect2173"
         height="228.092"
         width="188.608"
         y="34.4538"
         x="10.6959" />
    </clipPath>
    <style
       id="style2170"
       type="text/css">
   
    .fil1 {fill:white}
    .fil0 {fill:black}
   
  </style>
    <metadata
       id="CorelCorpID_0Corel-Layer" />
  </defs>
  <sodipodi:namedview
     id="base"
     pagecolor="#ffffff"
     bordercolor="#666666"
     borderopacity="1.0"
     inkscape:pageopacity="0.0"
     inkscape:pageshadow="2"
     inkscape:zoom="0.70710678"
     inkscape:cx="291.50059"
     inkscape:cy="316.4822"
     inkscape:document-units="px"
     inkscape:current-layer="layer1"
     showgrid="true"
     inkscape:window-width="1280"
     inkscape:window-height="974"
     inkscape:window-x="-8"
     inkscape:window-y="-8"
     showguides="true"
     inkscape:guide-bbox="true"
     inkscape:object-points="true"
     inkscape:object-bbox="true"
     objecttolerance="1"
     inkscape:guide-points="true"
     guidetolerance="1"
     inkscape:object-nodes="true"
     gridtolerance="1"
     inkscape:grid-points="true"
     inkscape:object-paths="true"
     fit-margin-top="0"
     fit-margin-left="0"
     fit-margin-right="0"
     fit-margin-bottom="0"
     inkscape:window-maximized="0">
    <inkscape:grid
       id="GridFromPre046Settings"
       type="xygrid"
       originx="0px"
       originy="230px"
       spacingx="55px"
       spacingy="55px"
       color="#0000ff"
       empcolor="#0000ff"
       opacity="0.2"
       empopacity="0.4"
       empspacing="8"
       visible="true"
       enabled="true"
       snapvisiblegridlinesonly="true" />
  </sodipodi:namedview>
  <metadata
     id="metadata7">
    <rdf:RDF>
      <cc:Work
         rdf:about="">
        <dc:format>image/svg+xml</dc:format>
        <dc:type
           rdf:resource="http://purl.org/dc/dcmitype/StillImage" />
        <dc:title>PL - Znak drogowy D15</dc:title>
        <dc:date>29.07.2006</dc:date>
        <dc:creator>
          <cc:Agent>
            <dc:title>MaciekS</dc:title>
          </cc:Agent>
        </dc:creator>
        <dc:rights>
          <cc:Agent>
            <dc:title>Free</dc:title>
          </cc:Agent>
        </dc:rights>
        <dc:publisher>
          <cc:Agent>
            <dc:title>Wikipedia</dc:title>
          </cc:Agent>
        </dc:publisher>
        <dc:subject>
          <rdf:Bag>
            <rdf:li>znak drogowy informacyjny</rdf:li>
          </rdf:Bag>
        </dc:subject>
        <dc:description>Znaki drogowe -Polska. Wykonane na podstawie załącznika do Ustawy</dc:description>
      </cc:Work>
    </rdf:RDF>
  </metadata>
  <g
     inkscape:label="Layer 1"
     inkscape:groupmode="layer"
     id="layer1">
    <rect
       style="fill:#ffffff;fill-opacity:1;fill-rule:nonzero;stroke:#5a5a5a;stroke-width:1.99468076;stroke-linecap:butt;stroke-linejoin:round;stroke-miterlimit:4;stroke-opacity:1;stroke-dasharray:none;stroke-dashoffset:0"
       id="rect2188"
       width="598.40424"
       height="748.00531"
       x="0.99734038"
       y="0.99735957"
       ry="21.169962" />
    <rect
       style="fill:#003399;fill-opacity:1;fill-rule:nonzero;stroke:none"
       id="rect1307"
       width="587.43347"
       height="737.03455"
       x="6.4827127"
       y="6.4827318"
       ry="20.859468" />
    <rect
       style="fill:#ffffff;fill-opacity:1;fill-rule:nonzero;stroke:none"
       id="rect3055"
       width="438.82977"
       height="438.82977"
       x="80.784569"
       y="80.784592"
       ry="0" />
    <path
       style="fill:#000000;stroke:none"
       class="fil0"
       d="m 100.46391,410.3097 65.7998,0 -0.17931,-148.66561 c 0,-74.26331 61.61522,-134.4887 137.59204,-134.4887 75.97754,0 137.59275,60.22539 137.59275,134.4887 l -3.6e-4,148.66561 69.41622,0 0,5.00336 -97.35128,0 -21.8897,-44.19634 10.63214,44.19634 -197.42424,0 33.5642,-27.31001 -42.32008,27.31001 -95.43218,0 0,-5.00336 0,0 z"
       id="path2181"
       inkscape:connector-curvature="0" />
    <path
       style="fill:#ffffff"
       class="fil1"
       d="m 332.04501,227.26724 c 29.6313,0 53.66118,23.48763 53.66118,52.4503 l -7.2e-4,78.89329 -107.35152,-0.0652 0.0303,-78.82813 c 0,-28.96267 24.02987,-52.4503 53.66081,-52.4503 l 0,0 z"
       id="path2183"
       inkscape:connector-curvature="0" />
    <path
       style="fill:#ffffff;stroke:none"
       class="fil1"
       d="m 303.67608,156.19547 c 4.6469,0 9.22503,0.28337 13.72035,0.82994 l 3.31937,-23.09013 c -5.57909,-0.70283 -11.26548,-1.0683 -17.03972,-1.0683 -5.76525,0 -11.44228,0.36295 -17.01236,1.06398 l 3.31901,23.08905 c 4.48631,-0.54477 9.05581,-0.82454 13.69335,-0.82454 l 0,0 z m 18.67186,1.54826 c 8.75948,1.46399 17.16395,3.94083 25.08701,7.30125 l 9.65639,-21.16311 c -9.89727,-4.28361 -20.42931,-7.42007 -31.42475,-9.22216 l -3.31865,23.08402 0,0 z m 29.64894,9.35645 c 7.4982,3.58798 14.51501,7.98608 20.93735,13.07513 l 15.44251,-17.25468 c -8.13694,-6.6535 -17.10418,-12.36762 -26.7296,-16.97095 l -9.65026,21.1505 0,0 z m 24.79068,16.27172 c 6.48752,5.63994 12.28553,12.018 17.26116,18.99988 l 18.82921,-13.02832 c -5.93987,-8.51176 -12.89078,-16.29405 -20.68927,-23.17979 l -15.4011,17.20823 0,0 z m 20.07033,23.14018 c 4.94683,7.67175 8.92871,15.99592 11.78109,24.8112 l 21.59877,-6.39858 c -3.42595,-11.18698 -8.36125,-21.73667 -14.57657,-31.42294 l -18.80329,13.01032 0,0 z m 13.2062,29.60753 c 2.30796,8.49628 3.58005,17.40555 3.67222,26.58953 l 22.02868,0 0,-0.73307 c 0,-11.13155 -1.44455,-21.93399 -4.15723,-32.23884 l -21.54367,6.38238 0,0 z M 281.71472,134.64675 c -11.03288,1.80677 -21.60237,4.95115 -31.52807,9.25636 l 9.65854,21.16815 c 7.95187,-3.38095 16.39234,-5.87002 25.18854,-7.33834 l -3.31901,-23.08617 z m -36.0774,11.33282 c -9.33738,4.47407 -18.05689,9.99231 -25.99616,16.4017 l 15.45223,17.26476 c 6.21712,-4.85107 12.98476,-9.05798 20.19491,-12.51561 l -9.65098,-21.15085 z m -29.83041,19.61593 c -7.71063,6.72191 -14.61042,14.31444 -20.53661,22.61954 l 18.84794,13.04092 c 4.95907,-6.7752 10.70235,-12.96424 17.09985,-18.44107 l -15.41118,-17.21939 0,0 z m -23.36233,26.74544 c -6.35538,9.67582 -11.42931,20.23379 -14.97732,31.44598 l 21.62578,6.4065 c 2.97047,-8.83904 7.08341,-17.17294 12.16454,-24.83569 l -18.813,-13.01679 0,0 z m -16.38479,36.24627 c -2.91106,10.65158 -4.47191,21.84217 -4.47191,33.38886 l 7.3e-4,0.73307 22.02795,0 c 0.0965,-9.59913 1.48668,-18.89582 3.99736,-27.73667 l -21.55413,-6.38526 0,0 z m 237.69057,39.12529 -3.6e-4,21.68123 22.01499,0 0,-21.68123 -22.01463,0 0,0 z m -242.156,0 0.0252,21.68123 21.97216,0 0.009,-21.68123 -22.00636,0 z m 242.15564,26.68459 -3.7e-4,22.93206 22.015,0 0,-22.93206 -22.01463,0 0,0 z m -242.12467,0 0.0263,22.93206 21.92822,0 0.01,-22.93206 -21.96423,0 0,0 z m 242.1243,27.93543 -3.6e-4,21.68122 22.015,0 3.6e-4,-21.68122 -22.015,0 z m -242.09226,0 0.0252,21.68122 21.88573,0 0.009,-21.68122 -21.92031,0 0,0 z m 242.0919,26.68458 -3.6e-4,21.68123 22.01536,0 0,-21.68123 -22.015,0 0,0 z m -242.06093,0 0.0252,21.68123 21.84325,0 0.009,-21.68123 -21.87782,0 z m 242.06057,26.68459 -3.6e-4,34.60656 22.01536,0 3.6e-4,-34.60656 -22.01536,0 z m -220.20904,34.60656 0.0148,-34.60656 -21.83533,0 0.04,34.60656 21.7806,0 0,0 z"
       id="path2185"
       inkscape:connector-curvature="0" />
    <path
       style="fill:none;stroke:#000000;stroke-width:0.99734038px;stroke-linecap:butt;stroke-linejoin:miter;stroke-opacity:1"
       d="m 355.05318,135.63831 c 0,0 0,-1e-5 0,0 z"
       id="path3690"
       inkscape:connector-curvature="0" />
    <path
       style="fill:none;stroke:#000000;stroke-width:0.99734038px;stroke-linecap:butt;stroke-linejoin:miter;stroke-opacity:1"
       d="m 355.05318,135.63831 0,0 z"
       id="path3692"
       inkscape:connector-curvature="0" />
    <path
       style="fill:none;stroke:#000000;stroke-width:0.99734038px;stroke-linecap:butt;stroke-linejoin:miter;stroke-opacity:1"
       d="m 355.05318,135.63831 c 0,0 0,0 0,0 l 0,0 z"
       id="path3694"
       inkscape:connector-curvature="0" />
    <path
       style="fill:#ffffff;fill-opacity:1;fill-rule:nonzero;stroke:none"
       d="M 524.46875,1 1,641.25 1,727.84375 C 1,739.57191 10.42809,748.99997 22.15625,749 L 67.25,749 599.40625,98.125 l 0,-75.96875 C 599.40625,10.428091 589.94689,0.99999999 578.21875,1 l -53.75,0 z"
       transform="translate(0,1.92e-5)"
       id="rect2273"
       inkscape:connector-curvature="0" />
    <path
       style="fill:#d40000;fill-opacity:1;fill-rule:nonzero;stroke:none"
       d="m 527.28125,6.46875 -520.8125,637 0,79.1875 c 0,11.55615 9.318854,20.87497 20.875,20.875 l 37.09375,0 529.46875,-647.5625 0,-68.625 c 0,-11.556146 -9.28761,-20.8750001 -20.84375,-20.875 l -45.78125,0 z"
       transform="translate(0,1.92e-5)"
       id="rect2256"
       inkscape:connector-curvature="0" />
    <rect
       style="fill:none;stroke:#000000;stroke-width:1.99468076;stroke-linecap:butt;stroke-linejoin:round;stroke-miterlimit:4;stroke-opacity:1;stroke-dasharray:none;stroke-dashoffset:0"
       id="rect3257"
       width="598.40424"
       height="748.00531"
       x="0.99734038"
       y="0.99736875"
       ry="21.169962" />
  </g>
</svg>
