<?xml version="1.0" encoding="UTF-8" standalone="no"?>
<!-- Created with Inkscape (http://www.inkscape.org/) -->

<svg
   xmlns:dc="http://purl.org/dc/elements/1.1/"
   xmlns:cc="http://creativecommons.org/ns#"
   xmlns:rdf="http://www.w3.org/1999/02/22-rdf-syntax-ns#"
   xmlns:svg="http://www.w3.org/2000/svg"
   xmlns="http://www.w3.org/2000/svg"
   xmlns:sodipodi="http://sodipodi.sourceforge.net/DTD/sodipodi-0.dtd"
   xmlns:inkscape="http://www.inkscape.org/namespaces/inkscape"
   version="1.0"
   width="960.01514"
   height="559.99097"
   id="svg10411"
   inkscape:version="0.48.2 r9819"
   sodipodi:docname="Aa.svg">
  <metadata
     id="metadata28">
    <rdf:RDF>
      <cc:Work
         rdf:about="">
        <dc:format>image/svg+xml</dc:format>
        <dc:type
           rdf:resource="http://purl.org/dc/dcmitype/StillImage" />
      </cc:Work>
    </rdf:RDF>
  </metadata>
  <sodipodi:namedview
     pagecolor="#ffffff"
     bordercolor="#666666"
     borderopacity="1"
     objecttolerance="10"
     gridtolerance="10"
     guidetolerance="10"
     inkscape:pageopacity="0"
     inkscape:pageshadow="2"
     inkscape:window-width="1280"
     inkscape:window-height="1004"
     id="namedview26"
     showgrid="false"
     inkscape:zoom="0.67082276"
     inkscape:cx="392.46496"
     inkscape:cy="222.73885"
     inkscape:window-x="-8"
     inkscape:window-y="-8"
     inkscape:window-maximized="1"
     inkscape:current-layer="svg10411" />
  <defs
     id="defs10413">
    <pattern
       patternUnits="userSpaceOnUse"
       width="370"
       height="476"
       patternTransform="translate(18.50938,18)"
       id="pattern4002">
      <rect
         ry="20"
         rx="20"
         y="0"
         x="0"
         height="476"
         width="370"
         id="rect2240"
         style="fill:#00e5ff;fill-opacity:1" />
    </pattern>
    <pattern
       id="pattern15960"
       patternTransform="translate(18.50938,18)"
       height="476"
       width="370"
       patternUnits="userSpaceOnUse">
      <rect
         style="fill:#00e5ff;fill-opacity:1"
         id="rect15962"
         width="370"
         height="476"
         x="0"
         y="0"
         rx="20"
         ry="20" />
    </pattern>
    <pattern
       id="pattern17873"
       patternTransform="translate(18.50938,18)"
       height="476"
       width="370"
       patternUnits="userSpaceOnUse">
      <rect
         style="fill:#00e5ff;fill-opacity:1"
         id="rect17875"
         width="370"
         height="476"
         x="0"
         y="0"
         rx="20"
         ry="20" />
    </pattern>
    <pattern
       patternUnits="userSpaceOnUse"
       width="370"
       height="476"
       patternTransform="translate(18.50938,18)"
       id="pattern17869">
      <rect
         ry="20"
         rx="20"
         y="0"
         x="0"
         height="476"
         width="370"
         id="rect17871"
         style="fill:#00e5ff;fill-opacity:1" />
    </pattern>
  </defs>
  <g
     transform="translate(-2632.856,389.0178)"
     id="layer1">
    <g
       transform="matrix(0.995882,0,0,0.997036,2163.725,-3.496205)"
       id="g16896">
      <g
         transform="matrix(0.996209,0,0,0.998564,1.786034,0.251353)"
         id="g20637">
        <path
           d="M 1411.5255,-334.50658 L 1411.5255,122.01904 C 1411.5255,137.34723 1399.4699,149.68726 1384.495,149.68726 L 525.3002,149.68726 C 510.3254,149.68726 498.2698,137.34723 498.2698,122.01904 L 498.2698,-334.50658 C 498.2698,-349.83479 510.3254,-362.17481 525.3002,-362.17481 L 1384.495,-362.17481 C 1399.4699,-362.17481 1411.5255,-349.83479 1411.5255,-334.50658 z "
           style="opacity:1;fill:#003399;fill-opacity:1;stroke:none;stroke-opacity:1"
           id="rect4005" />
        <g
           transform="translate(23.32958,8.79562)"
           style="fill:white"
           id="g19744">
          <path
             d="M 833.18048,-333.69665 L 821.33668,-289.19665 L 813.89918,-281.7904 L 813.89918,-215.00916 L 821.33668,-215.00916 L 821.33668,-192.75916 L 843.58668,-192.75916 L 843.58668,-215.00916 L 947.43048,-215.00916 L 947.43048,-192.75916 L 969.68044,-192.75916 L 969.68044,-215.00916 L 977.11794,-215.00916 L 977.11794,-281.7904 L 969.68044,-289.19665 L 957.80548,-333.69665 L 833.18048,-333.69665 z M 839.11798,-326.25915 L 951.89918,-326.25915 L 957.80548,-296.6029 L 833.18048,-296.6029 L 839.11798,-326.25915 z M 831.96168,-271.4779 C 838.40298,-271.47789 843.64918,-266.23172 843.64918,-259.7904 C 843.64918,-253.34908 838.40298,-248.13415 831.96168,-248.13415 C 825.52038,-248.13416 820.30548,-253.34908 820.30548,-259.7904 C 820.30548,-266.23172 825.52038,-271.4779 831.96168,-271.4779 z M 959.02418,-271.4779 C 965.46554,-271.47789 970.71164,-266.23172 970.71164,-259.7904 C 970.71164,-253.34908 965.46544,-248.13415 959.02418,-248.13415 C 952.58288,-248.13416 947.36798,-253.34908 947.36798,-259.7904 C 947.36798,-266.23172 952.58288,-271.4779 959.02418,-271.4779 z M 833.18048,-238.60291 L 957.83668,-238.60291 C 961.49408,-238.60291 964.43048,-235.96422 964.43048,-232.69666 C 964.43048,-229.42909 961.49408,-226.79041 957.83668,-226.79041 L 833.18048,-226.79041 C 829.52308,-226.79042 826.58668,-229.4291 826.58668,-232.69666 C 826.58668,-235.9642 829.52308,-238.60291 833.18048,-238.60291 z "
             style="fill:white;fill-opacity:1;fill-rule:evenodd;stroke:none;stroke-width:1px;stroke-linecap:butt;stroke-linejoin:miter;stroke-opacity:1"
             id="path1307" />
          <path
             d="M 637.53788,-257.26089 C 649.59168,-257.26089 659.36738,-247.46153 659.36738,-235.4077 C 659.36738,-223.35386 649.59178,-213.57812 637.53788,-213.57812 C 625.48408,-213.57812 615.70828,-223.35387 615.70828,-235.4077 C 615.70828,-247.46153 625.48408,-257.26088 637.53788,-257.26089 z M 636.85348,-212.25653 L 675.74558,-137.49318 L 715.41638,-100.1115 L 704.72578,-71.886436 L 645.23138,-134.42524 L 637.60878,-68.818506 L 674.99028,-15.436326 L 704.72578,66.949684 L 743.64138,70.772804 L 681.85778,91.375224 L 655.14318,-1.7013959 L 616.25108,-39.838266 L 562.84538,65.439314 L 599.47198,91.375224 L 556.73318,91.375224 L 522.41928,71.527994 L 592.60448,-65.774166 L 598.69308,-94.754406 L 598.69308,-155.02764 L 572.00198,-126.80259 L 572.00198,-51.284036 L 550.64438,-62.729826 L 550.64438,-137.49318 L 596.40398,-189.36499 L 636.85348,-212.25653 z "
             style="fill:white;fill-rule:evenodd;stroke:none;stroke-width:0;stroke-linecap:butt;stroke-linejoin:miter;stroke-miterlimit:4;stroke-dasharray:none;stroke-opacity:1"
             id="path1933" />
          <path
             d="M 1010.2566,-35.140906 C 1005.4591,-35.140906 1001.5683,-31.240716 1001.5683,-26.443226 C 1001.5683,-21.645756 1005.4591,-17.754966 1010.2566,-17.754966 C 1015.054,-17.754966 1018.9448,-21.645756 1018.9448,-26.443226 C 1018.9448,-31.240716 1015.054,-35.140906 1010.2566,-35.140906 z M 1010.5289,-17.228956 L 995.04984,12.527184 L 979.26064,27.405264 L 983.51554,38.638964 L 1007.1945,13.748244 L 1010.2284,39.860014 L 995.35034,61.106364 L 983.51554,93.896394 L 968.02694,95.418014 L 992.61704,103.61786 L 1003.2496,66.572924 L 1018.7288,51.394284 L 1025.8383,78.555854 L 1050.5202,80.259534 L 1045.0499,87.189294 L 1055.6315,87.189294 L 1064.6457,72.504294 L 1035.4623,67.339454 L 1028.1403,41.071674 L 1025.717,29.537404 L 1025.717,5.5483941 L 1036.3401,16.782084 L 1036.3401,46.838814 L 1044.8406,42.283344 L 1044.8406,12.527184 L 1026.628,-8.1180259 L 1010.5289,-17.228956 z "
             style="fill:white;fill-rule:evenodd;stroke:none;stroke-width:0;stroke-linecap:butt;stroke-linejoin:miter;stroke-miterlimit:4;stroke-dasharray:none;stroke-opacity:1"
             id="path11504" />
          <path
             d="M 1118.5096,-156.7402 C 1118.5096,-156.7402 1118.5096,-115.02361 1118.5096,-92.959246 C 1118.5096,-72.895886 1149.1544,-59.597336 1166.2862,-59.597336 C 1223.4789,-59.597336 1360.6525,-59.597336 1360.6525,-59.597336"
             style="fill:none;fill-rule:evenodd;stroke:white;stroke-width:9;stroke-linecap:butt;stroke-linejoin:miter;stroke-miterlimit:4;stroke-dasharray:none;stroke-opacity:1"
             id="path13278" />
          <path
             d="M 1311.904,-314.81543 L 1261.2477,-280.59668 L 1261.2477,-106.84669 L 1289.529,-106.84669 L 1289.529,-163.44043 L 1334.2477,-163.44043 L 1334.2477,-106.84669 L 1362.529,-106.84669 L 1362.529,-280.59668 L 1311.904,-314.81543 z M 1291.6852,-237.69043 L 1332.0915,-237.69043 L 1332.0915,-198.15918 L 1291.6852,-198.15918 L 1291.6852,-237.69043 z "
             style="fill:white;fill-rule:evenodd;stroke:none;stroke-width:1px;stroke-linecap:butt;stroke-linejoin:miter;stroke-opacity:1"
             id="path15050" />
          <path
             d="M 1990.0005 118.98123 A 7.0710678 7.0710678 0 1 1  1975.8584,118.98123 A 7.0710678 7.0710678 0 1 1  1990.0005 118.98123 z"
             transform="translate(-1043.681,-32.4873)"
             style="opacity:1;fill:white;fill-opacity:1;fill-rule:nonzero;stroke:white;stroke-width:9;stroke-miterlimit:4;stroke-dasharray:none;stroke-dashoffset:50;stroke-opacity:1"
             id="path16869" />
        </g>
        <path
           d="M 476.95245,93.311811 L 1382.7675,-383.56054 C 1382.7675,-383.56054 1415.158,-379.98129 1427.2293,-359.09719 C 1437.6525,-341.06483 1434.2723,-307.82565 1434.2723,-307.82565 L 517.0461,171.07299 C 517.0461,171.07299 490.16206,167.3328 480.45563,148.90567 C 470.74919,130.47852 476.95245,93.311811 476.95245,93.311811 z "
           style="fill:#d40000;fill-opacity:1;fill-rule:nonzero;stroke:white;stroke-width:7.84370135999999980;stroke-miterlimit:4;stroke-dashoffset:50;stroke-opacity:1"
           id="rect18842" />
        <path
           d="M 529.74177,-380.63007 C 501.58123,-380.63008 478.89783,-357.74402 478.89783,-329.28909 L 478.89783,116.77057 C 478.89783,145.22552 501.58133,168.14249 529.74177,168.14252 L 1382.1542,168.14252 C 1410.3146,168.14251 1432.9982,145.22549 1432.9982,116.77057 L 1432.9982,-329.28909 C 1432.9982,-357.74402 1410.3145,-380.63007 1382.1542,-380.63007 L 529.74177,-380.63007 z M 543.0836,-361.51897 L 1366.9388,-361.51897 C 1391.5398,-361.51897 1411.3449,-341.50809 1411.3449,-316.6498 L 1411.3449,104.371 C 1411.3449,129.22931 1391.5399,149.24019 1366.9388,149.24018 L 543.0836,149.24018 C 518.48258,149.24016 498.64619,123.28395 498.64619,98.425611 L 498.64619,-316.6498 C 498.64619,-341.50809 518.48268,-361.51897 543.0836,-361.51897 z "
           style="opacity:1;fill:white;fill-opacity:1"
           id="path16908" />
        <path
           d="M 524.28067,-387.07622 C 495.8284,-387.07622 472.91289,-363.63774 472.91289,-334.51417 L 472.91289,122.02661 C 472.91289,151.15019 495.8284,174.58864 524.28067,174.58867 L 1385.5147,174.58867 C 1413.9669,174.58867 1436.8824,151.15017 1436.8824,122.02661 L 1436.8824,-334.51417 C 1436.8824,-363.63774 1413.9668,-387.07622 1385.5147,-387.07622 L 524.28067,-387.07622 z M 524.28067,-378.77034 L 1385.5147,-378.77034 C 1409.4744,-378.77034 1428.7866,-359.03928 1428.7866,-334.51417 L 1428.7866,122.02661 C 1428.7866,146.55171 1409.4745,166.2828 1385.5147,166.2828 L 524.28067,166.2828 C 500.32087,166.28278 481.00872,146.55173 481.00872,122.02661 L 481.00872,-334.51417 C 481.00872,-359.03928 500.32087,-378.77034 524.28067,-378.77034 z "
           style="opacity:1;fill:#003399;fill-opacity:1;stroke:none"
           id="rect1363" />
      </g>
    </g>
  </g>
</svg>
