<?xml version="1.0" encoding="UTF-8" standalone="no"?>
<!-- Created with Inkscape (http://www.inkscape.org/) -->

<svg
   xmlns:dc="http://purl.org/dc/elements/1.1/"
   xmlns:cc="http://creativecommons.org/ns#"
   xmlns:rdf="http://www.w3.org/1999/02/22-rdf-syntax-ns#"
   xmlns:svg="http://www.w3.org/2000/svg"
   xmlns="http://www.w3.org/2000/svg"
   xmlns:sodipodi="http://sodipodi.sourceforge.net/DTD/sodipodi-0.dtd"
   xmlns:inkscape="http://www.inkscape.org/namespaces/inkscape"
   version="1.0"
   width="416.75983"
   height="164.9839"
   id="svg2"
   inkscape:version="0.48.2 r9819"
   sodipodi:docname="Aa.svg">
  <metadata
     id="metadata14">
    <rdf:RDF>
      <cc:Work
         rdf:about="">
        <dc:format>image/svg+xml</dc:format>
        <dc:type
           rdf:resource="http://purl.org/dc/dcmitype/StillImage" />
      </cc:Work>
    </rdf:RDF>
  </metadata>
  <sodipodi:namedview
     pagecolor="#ffffff"
     bordercolor="#666666"
     borderopacity="1"
     objecttolerance="10"
     gridtolerance="10"
     guidetolerance="10"
     inkscape:pageopacity="0"
     inkscape:pageshadow="2"
     inkscape:window-width="1280"
     inkscape:window-height="1004"
     id="namedview12"
     showgrid="false"
     fit-margin-top="0"
     fit-margin-left="0"
     fit-margin-right="0"
     fit-margin-bottom="0"
     inkscape:zoom="1.5152941"
     inkscape:cx="212.25034"
     inkscape:cy="115.14427"
     inkscape:window-x="-8"
     inkscape:window-y="-8"
     inkscape:window-maximized="1"
     inkscape:current-layer="svg2" />
  <defs
     id="defs4" />
  <path
     inkscape:connector-curvature="0"
     d="m 0.9605037,81.978428 -1.1666164,-82.184538 208.5860327,0 206.95277,1.1666164 0.46664,81.2512456 1.16662,82.884508 -208.58603,0 -208.5860327,0 z"
     style="fill:#ffffff"
     id="path1676"
     sodipodi:nodetypes="ccccccccc" />
  <path
     inkscape:connector-curvature="0"
     d="M 10.305634,164.52353 C 6.5823163,163.35083 3.09868,160.28754 1.1781755,156.49742 L 0,154.17229 0,82.445072 0,10.717859 1.1922915,8.364828 C 2.7109177,5.3677633 5.3677632,2.7109178 8.3648283,1.1922916 L 10.717859,0 208.37992,0 l 197.66206,0 2.35303,1.1922916 c 2.99706,1.5186262 5.65391,4.1754717 7.17255,7.1725364 l 1.19228,2.353031 0,71.727213 0,71.727218 -1.19228,2.35303 c -1.51864,2.99706 -4.17549,5.65391 -7.17255,7.17254 l -2.35303,1.19229 -197.04372,0.0764 c -157.479106,0.061 -197.37481,-0.0279 -198.692626,-0.44298 z M 405.9525,160.97208 c 2.91342,-1.09005 5.79922,-3.97585 6.88926,-6.88927 0.81517,-2.17868 0.82639,-3.16338 0.82639,-72.477651 0,-38.647929 -0.10541,-70.268962 -0.23427,-70.268962 -0.12886,0 -36.34799,13.607703 -80.487,30.23934 -44.139,16.631636 -317.628676,119.781253 -318.106768,119.983473 -0.226723,0.0959 87.183858,0.189 194.245738,0.2069 193.84019,0.0324 194.66724,0.0291 196.86665,-0.79383 z M 311.06432,36.481944 398.65997,3.2978029 205.83916,3.19431 C 13.716282,3.0911917 13.010361,3.0938098 10.808498,3.9176323 7.8938723,5.0081333 5.0083163,7.893384 3.9180688,10.807331 3.1029813,12.985848 3.0916901,13.971004 3.0916901,82.908995 l 0,69.892975 1.7519578,-0.29584 C 5.8072243,152.34343 262.88671,54.733222 311.06432,36.481944 z"
     style="fill:#d40000;fill-opacity:1;stroke:none"
     id="path1668"
     sodipodi:nodetypes="cscccsscccsscccsscsccscssssssscssssccs" />
  <path
     inkscape:connector-curvature="0"
     d="M 10.305634,164.52353 C 6.5823163,163.35083 3.09868,160.28754 1.1781755,156.49742 L 0,154.17229 0,82.445072 0,10.717859 1.1922915,8.364828 C 2.7109177,5.3677633 5.3677632,2.7109178 8.3648283,1.1922916 L 10.717859,0 208.37992,0 l 197.66206,0 2.35303,1.1922916 c 2.99706,1.5186262 5.65391,4.1754717 7.17255,7.1725364 l 1.19228,2.353031 0,71.727213 0,71.727218 -1.19228,2.35303 c -1.51864,2.99706 -4.17549,5.65391 -7.17255,7.17254 l -2.35303,1.19229 -197.04372,0.0764 c -157.479106,0.061 -197.37481,-0.0279 -198.692626,-0.44298 z m 396.190686,-3.71246 c 2.69996,-1.2572 4.96023,-3.53101 6.19844,-6.23558 l 0.98035,-2.14146 -0.10652,-70.858086 -0.10656,-70.858085 -1.52676,-1.992364 c -0.83973,-1.0958 -2.40488,-2.765312 -3.47813,-3.7100278 L 406.50578,3.2978029 209.47796,3.1926198 12.45015,3.0874366 10.311678,4.0664614 C 7.6099093,5.3033724 5.3358487,7.564465 4.0790832,10.263516 l -0.9793391,2.103245 -0.00403,70.614064 c -0.00365,64.055985 0.057495,70.733035 0.6584084,71.895075 1.0503993,2.03125 4.3387038,5.325 6.1392828,6.14945 1.5909477,0.72846 8.5526267,0.75518 198.0742847,0.76003 l 196.42539,0.005 2.10324,-0.97933 z M 50.497606,150.21039 c 0.56681,-0.22314 23.359945,-8.8604 50.651414,-19.1939 42.63371,-16.14261 49.94746,-18.79544 51.94039,-18.83969 2.0298,-0.0451 2.33513,-0.16068 2.44427,-0.92551 0.10807,-0.7574 5.30578,-2.83532 38.9553,-15.573442 l 38.83057,-14.699424 10.44562,0.114986 10.44561,0.114986 4.06872,8.862845 4.06871,8.862849 0.0166,6.69866 0.0166,6.69866 2.06113,0 2.06113,0 0,-11.88658 0,-11.886575 21.12654,-8.918521 c 11.61961,-4.905185 21.46225,-9.040889 21.87255,-9.190457 0.50033,-0.182385 7.18339,2.698266 20.29408,8.747504 l 19.54809,9.019446 0.008,12.075653 0.008,12.07565 2.98864,-0.12111 2.98863,-0.12112 0.10675,-21.298037 0.10674,-21.298032 2.77884,-1.053796 c 1.52835,-0.579585 6.4664,-2.438862 10.97344,-4.131727 l 8.19462,-3.07793 9.42802,3.760769 9.42801,3.760773 0,40.94053 0,40.94052 -173.44382,-0.0261 C 108.68567,150.62504 49.818906,150.47759 50.497606,150.21039 z M 14.321638,121.92606 14.427887,96.89377 32.754552,82.792116 c 10.662036,-8.204018 18.527383,-13.983838 18.806595,-13.819954 0.26396,0.154935 8.373909,6.032242 18.022105,13.060685 l 17.542176,12.778986 0.133174,8.656737 0.133173,8.65673 3.297803,0 3.297803,0 0.206112,-5.15282 0.206113,-5.15281 14.788204,-29.268007 c 8.13352,-16.0974 14.90432,-29.392958 15.04623,-29.545684 0.14191,-0.152725 5.60046,11.700811 12.13011,26.341197 6.52966,14.640381 11.7237,26.757148 11.54231,26.926144 -0.30261,0.28195 -133.057719,50.68502 -133.497727,50.68502 -0.106339,0 -0.145532,-11.26452 -0.0871,-25.03228 z m 147.270702,-35.152622 2.68537,-5.358929 11.4363,0.02613 c 6.63422,0.01516 11.09012,0.172512 10.61185,0.374745 -1.47803,0.624992 -27.0781,10.316983 -27.25089,10.316983 -0.0924,0 1.04042,-2.411518 2.51737,-5.35893 z m 38.9553,-12.797272 0,-2.455066 6.25208,0 c 3.43865,0 6.17479,0.07633 6.08033,0.169622 -0.1635,0.161461 -7.50806,3.012189 -10.78657,4.186714 l -1.54584,0.553796 0,-2.455066 z"
     style="fill:#000000;stroke:none"
     id="path3936" />
</svg>
