<?xml version="1.0" encoding="UTF-8" standalone="no"?>
<!-- Created with Inkscape (http://www.inkscape.org/) -->

<svg
   xmlns:svg="http://www.w3.org/2000/svg"
   xmlns="http://www.w3.org/2000/svg"
   version="1.1"
   width="882.14288"
   height="1098.5715"
   id="svg2">
  <defs
     id="defs4">
    <pattern
       id="pattern4002"
       patternTransform="translate(18.50938,18)"
       height="476"
       width="370"
       patternUnits="userSpaceOnUse">
      <rect
         style="fill:#00e5ff;fill-opacity:1"
         id="rect2240"
         width="370"
         height="476"
         x="0"
         y="0"
         rx="20"
         ry="20" />
    </pattern>
    <pattern
       patternUnits="userSpaceOnUse"
       width="370"
       height="476"
       patternTransform="translate(18.50938,18)"
       id="pattern10173">
      <rect
         ry="20"
         rx="20"
         y="0"
         x="0"
         height="476"
         width="370"
         id="rect10175"
         style="fill:#00e5ff;fill-opacity:1" />
    </pattern>
    <pattern
       patternUnits="userSpaceOnUse"
       width="370"
       height="476"
       patternTransform="translate(18.50938,18)"
       id="pattern4002-9">
      <rect
         ry="20"
         rx="20"
         y="0"
         x="0"
         height="476"
         width="370"
         id="rect2240-4"
         style="fill:#00e5ff;fill-opacity:1" />
    </pattern>
  </defs>
  <g
     transform="translate(-33.214287,-44.862183)"
     id="layer1">
    <rect
       width="877.14288"
       height="1093.5715"
       rx="48.867596"
       ry="48.867596"
       x="35.714287"
       y="47.362183"
       id="rect3034"
       style="fill:#ffffff;fill-opacity:1;stroke:#000000;stroke-width:5;stroke-linecap:round;stroke-linejoin:miter;stroke-miterlimit:4;stroke-opacity:1;stroke-dasharray:none" />
    <rect
       width="849.99994"
       height="1066.4286"
       rx="38.867596"
       ry="38.867596"
       x="49.285717"
       y="60.219326"
       id="rect3808"
       style="fill:none;stroke:#000000;stroke-width:10;stroke-linecap:round;stroke-linejoin:miter;stroke-miterlimit:4;stroke-opacity:1;stroke-dasharray:none" />
    <rect
       width="636.42859"
       height="634.99969"
       rx="31.367596"
       ry="31.367596"
       x="155"
       y="167.36218"
       id="rect3810"
       style="fill:#003399;fill-opacity:1;stroke:#003399;stroke-width:5;stroke-linecap:round;stroke-linejoin:miter;stroke-miterlimit:4;stroke-opacity:1;stroke-dasharray:none" />
    <path
       d="m 404.21136,720.85637 -91.93942,0 0,-476.5659 265.60442,0 c 48.52428,5.83781 76.28028,57.54584 76.28028,86.96708 0,0 0,114.60191 0,172.69521 -8.31774,38.77132 -35.16314,77.91391 -90.05964,77.91391 l -159.88564,0 0,138.9897 z m -1.07143,-387.36326 0,159.99032 154.17433,0 c 0,0 7.18304,-8.40883 7.18304,-8.40883 l 0,-137.86283 c 0,0 -12.2338,-13.71866 -12.2338,-13.71866 l -149.12357,0 z"
       id="path3878-7"
       style="fill:#ffffff;fill-rule:evenodd;stroke:none" />
    <g
       id="text3834"
       style="font-size:92px;font-style:normal;font-variant:normal;font-weight:bold;font-stretch:normal;text-align:start;line-height:125%;writing-mode:lr-tb;text-anchor:start;fill:#000000;fill-opacity:1;stroke:none;font-family:Drogowskaz;-inkscape-font-specification:Drogowskaz Bold">
      <path
         d="m 192.58501,911.82605 -20.98694,0 0,28.75 -11.5,0 0,-69 32.48694,0 c 3.25866,2.20498 5.84634,5.07998 7.76306,8.625 1.91661,3.54514 2.87495,7.37847 2.875,11.5 -5e-5,4.12163 -0.95839,7.95496 -2.875,11.5 -1.91672,3.54512 -4.5044,6.42012 -7.76306,8.625 z m -4.16931,-11.5 c 2.20487,-2.49125 3.30733,-5.36625 3.30737,-8.625 -4e-5,-3.25866 -1.1025,-6.13365 -3.30737,-8.625 l -16.81763,0 0,17.25 z"
         id="path3864"
         style="line-height:125%;fill:#000000;font-family:Drogowskaz;-inkscape-font-specification:Drogowskaz Bold" />
      <path
         d="m 216.16057,934.82605 c -4.79168,-4.79166 -7.18751,-10.54165 -7.1875,-17.25 -1e-5,-6.7083 2.39582,-12.4583 7.1875,-17.25 4.79165,-4.79162 10.54164,-7.18745 17.25,-7.1875 6.70829,5e-5 12.45829,2.39588 17.25,7.1875 4.79161,4.7917 7.18744,10.5417 7.1875,17.25 -6e-5,6.70835 -2.39589,12.45834 -7.1875,17.25 -4.79171,4.79167 -10.54171,7.1875 -17.25,7.1875 -6.70836,0 -12.45835,-2.39583 -17.25,-7.1875 z m 8.12243,-26.37756 c -2.53997,2.53998 -3.80995,5.5825 -3.80993,9.12756 -2e-5,3.5451 1.26996,6.58762 3.80993,9.12756 2.53994,2.53997 5.58246,3.80995 9.12757,3.80994 3.54505,10e-6 6.58757,-1.26997 9.12756,-3.80994 2.53992,-2.53994 3.8099,-5.58246 3.80994,-9.12756 -4e-5,-3.54506 -1.27002,-6.58758 -3.80994,-9.12756 -2.53999,-2.53993 -5.58251,-3.8099 -9.12756,-3.80994 -3.54511,4e-5 -6.58763,1.27001 -9.12757,3.80994 z"
         id="path3866"
         style="line-height:125%;fill:#000000;font-family:Drogowskaz;-inkscape-font-specification:Drogowskaz Bold" />
      <path
         d="m 286.59807,894.57605 c 3.73785,5e-5 7.09201,0.38375 10.0625,1.15112 l 0,10.34888 c -3.25874,-0.9583 -6.6129,-1.43746 -10.0625,-1.4375 -0.76744,4e-5 -1.43846,0.28735 -2.01306,0.86194 -0.57465,0.57466 -0.86196,1.24568 -0.86194,2.01306 -2e-5,1.14928 0.47914,1.96349 1.4375,2.44263 l 8.76819,5.32043 c 2.20488,1.24474 3.93016,2.96955 5.17584,5.17444 1.24561,2.20493 1.86843,4.60076 1.86847,7.1875 -4e-5,3.9288 -1.38981,7.30683 -4.16931,10.13409 -2.77957,2.82727 -6.18147,4.24091 -10.20569,4.24091 -6.32464,0 -12.1701,-1.10246 -17.53638,-3.30737 l 3.16138,-9.63013 c 4.60073,1.91668 9.3924,2.87501 14.375,2.875 1.24656,10e-6 2.27695,-0.4071 3.09118,-1.22131 0.81419,-0.8142 1.22129,-1.8446 1.22132,-3.09119 -3e-5,-1.72573 -0.71878,-2.97138 -2.15625,-3.73694 l -9.34375,-5.46362 c -4.02426,-2.68219 -6.03639,-6.32366 -6.03638,-10.92444 -10e-6,-3.64238 1.34156,-6.70923 4.02472,-9.20056 2.68313,-2.49125 5.74951,-3.73689 9.19916,-3.73694 z"
         id="path3868"
         style="line-height:125%;fill:#000000;font-family:Drogowskaz;-inkscape-font-specification:Drogowskaz Bold" />
      <path
         d="m 318.22307,883.07605 11.5,-11.5 0,23 8.625,0 0,11.5 -8.625,0 0,17.25 c -2e-5,1.62843 0.5512,2.99387 1.65368,4.09631 1.10244,1.10247 2.46787,1.6537 4.09632,1.65369 l 6.03638,0 -6.03638,11.5 c -4.79169,0 -8.8646,-1.67708 -12.21875,-5.03125 -3.35418,-3.35416 -5.03126,-7.42707 -5.03125,-12.21875 l 0,-17.25 -8.625,0 0,-11.5 8.625,0 z"
         id="path3870"
         style="line-height:125%;fill:#000000;font-family:Drogowskaz;-inkscape-font-specification:Drogowskaz Bold" />
      <path
         d="m 380.21526,871.57605 11.5,0 -17.25,17.25 z m -23,63.25 c -4.79168,-4.79166 -7.18751,-10.54165 -7.1875,-17.25 -10e-6,-6.7083 2.39582,-12.4583 7.1875,-17.25 4.79164,-4.79162 10.54164,-7.18745 17.25,-7.1875 6.70829,5e-5 12.45829,2.39588 17.25,7.1875 4.79161,4.7917 7.18744,10.5417 7.1875,17.25 -6e-5,6.70835 -2.39589,12.45834 -7.1875,17.25 -4.79171,4.79167 -10.54171,7.1875 -17.25,7.1875 -6.70836,0 -12.45836,-2.39583 -17.25,-7.1875 z m 8.12243,-26.37756 c -2.53997,2.53998 -3.80995,5.5825 -3.80993,9.12756 -2e-5,3.5451 1.26996,6.58762 3.80993,9.12756 2.53994,2.53997 5.58245,3.80995 9.12757,3.80994 3.54505,10e-6 6.58756,-1.26997 9.12756,-3.80994 2.53992,-2.53994 3.80989,-5.58246 3.80994,-9.12756 -5e-5,-3.54506 -1.27002,-6.58758 -3.80994,-9.12756 -2.54,-2.53993 -5.58251,-3.8099 -9.12756,-3.80994 -3.54512,4e-5 -6.58763,1.27001 -9.12757,3.80994 z"
         id="path3872"
         style="line-height:125%;fill:#000000;font-family:Drogowskaz;-inkscape-font-specification:Drogowskaz Bold" />
      <path
         d="m 424.77776,940.57605 c -2e-5,5.36629 -1.65324,10.13408 -4.95966,14.30341 -3.30645,4.16929 -7.49869,6.8763 -12.57672,8.12103 l -5.46362,-10.92444 c 3.16324,-10e-6 5.87072,-1.12587 8.12243,-3.37756 2.2517,-2.25172 3.37756,-4.95919 3.37757,-8.12244 l 0,-46 11.5,0 z m -11.5,-69 11.5,0 0,11.5 -11.5,0 z"
         id="path3874"
         style="line-height:125%;fill:#000000;font-family:Drogowskaz;-inkscape-font-specification:Drogowskaz Bold" />
      <path
         d="m 494.26248,909.31042 c -2.25173,2.25174 -3.37758,5.00695 -3.37756,8.26563 -2e-5,3.25873 1.12583,6.01393 3.37756,8.26562 2.25168,2.25173 4.95916,3.37758 8.12244,3.37757 3.16321,10e-6 5.87069,-1.12584 8.12243,-3.37757 2.25167,-2.25169 3.37752,-5.00689 3.37757,-8.26562 -5e-5,-3.25868 -1.1259,-6.01389 -3.37757,-8.26563 -2.25174,-2.25167 -4.95922,-3.37752 -8.12243,-3.37756 -3.16328,4e-5 -5.87076,1.12589 -8.12244,3.37756 z m -14.87756,-14.73437 11.5,0 0,3.16138 c 3.54506,-2.10754 7.37839,-3.16133 11.5,-3.16138 6.32458,5e-5 11.73907,2.25222 16.24346,6.75653 4.50431,4.50439 6.75648,9.91887 6.75654,16.24347 -6e-5,6.32464 -2.25223,11.73913 -6.75654,16.24347 -4.50439,4.50436 -9.91888,6.75653 -16.24346,6.75653 -4.12161,0 -7.95494,-1.05379 -11.5,-3.16138 l 0,26.16138 -11.5,0 z"
         id="path3876"
         style="line-height:125%;fill:#000000;font-family:Drogowskaz;-inkscape-font-specification:Drogowskaz Bold" />
      <path
         d="m 545.86482,871.57605 11.5,0 0,17.25 11.5,-5.75 0,11.5 -11.5,5.75 0,40.25 -11.5,0 0,-34.5 -11.5,5.75 0,-11.5 11.5,-5.75 0,-23 z"
         id="path3879"
         style="line-height:125%;fill:#000000;font-family:Drogowskaz;-inkscape-font-specification:Drogowskaz Bold" />
      <path
         d="m 582.51213,933.82092 c -4.50342,-4.50528 -6.75513,-9.92023 -6.75513,-16.24487 0,-6.3246 2.25171,-11.73908 6.75513,-16.24347 4.5034,-4.50431 9.91835,-6.75648 16.24487,-6.75653 4.11968,5e-5 7.95301,1.05384 11.5,3.16138 l 0,-3.16138 11.5,0 0,34.5 2.875,11.5 -11.5,0 -1.00793,-4.3125 c -4.02429,2.875 -8.47997,4.3125 -13.36707,4.3125 -6.32652,0 -11.74147,-2.25171 -16.24487,-6.75513 z m 8.12244,-24.5105 c -2.25173,2.25174 -3.37758,5.00695 -3.37757,8.26563 -10e-6,3.25873 1.12584,6.01393 3.37757,8.26562 2.25168,2.25173 4.95869,3.37758 8.12103,3.37757 3.16228,10e-6 5.86976,-1.12584 8.12244,-3.37757 2.2526,-2.25169 3.37892,-5.00689 3.37896,-8.26562 -4e-5,-3.25868 -1.12636,-6.01389 -3.37896,-8.26563 -2.25268,-2.25167 -4.96016,-3.37752 -8.12244,-3.37756 -3.16234,4e-5 -5.86935,1.12589 -8.12103,3.37756 z"
         id="path3881"
         style="line-height:125%;fill:#000000;font-family:Drogowskaz;-inkscape-font-specification:Drogowskaz Bold" />
      <path
         d="m 642.16615,883.07605 11.5,-11.5 0,23 8.625,0 0,11.5 -8.625,0 0,17.25 c -3e-5,1.62843 0.5512,2.99387 1.65368,4.09631 1.10243,1.10247 2.46787,1.6537 4.09632,1.65369 l 6.03637,0 -6.03637,11.5 c -4.79169,0 -8.86461,-1.67708 -12.21875,-5.03125 -3.35418,-3.35416 -5.03127,-7.42707 -5.03125,-12.21875 l 0,-17.25 -8.625,0 0,-11.5 8.625,0 z"
         id="path3883"
         style="line-height:125%;fill:#000000;font-family:Drogowskaz;-inkscape-font-specification:Drogowskaz Bold" />
      <path
         d="m 677.56011,894.57605 11.5,0 0,4.45569 c 3.25869,-2.97042 7.09202,-4.45564 11.5,-4.45569 4.69617,5e-5 8.74522,1.67713 12.14716,5.03125 3.40185,3.3542 5.10279,7.42712 5.10284,12.21875 l 0,28.75 -11.5,0 0,-25.875 c -3e-5,-2.39581 -0.83857,-4.43226 -2.51562,-6.10938 -1.67712,-1.67704 -3.71357,-2.51559 -6.10938,-2.51562 -2.39586,3e-5 -4.43231,0.83858 -6.10937,2.51562 -1.67711,1.67712 -2.51565,3.71357 -2.51563,6.10938 l 0,25.875 -11.5,0 z"
         id="path3885"
         style="line-height:125%;fill:#000000;font-family:Drogowskaz;-inkscape-font-specification:Drogowskaz Bold" />
      <path
         d="m 730.09585,894.57605 11.5,0 8.625,27.59888 8.625,-27.59888 11.5,0 -21.5625,69 -11.5,0 7.1875,-23 z"
         id="path3887"
         style="line-height:125%;fill:#000000;font-family:Drogowskaz;-inkscape-font-specification:Drogowskaz Bold" />
    </g>
    <g
       transform="translate(0.71428572,0)"
       id="text3838"
       style="font-size:92px;font-style:normal;font-variant:normal;font-weight:bold;font-stretch:normal;text-align:start;line-height:125%;writing-mode:lr-tb;text-anchor:start;fill:#000000;fill-opacity:1;stroke:none;font-family:Drogowskaz;-inkscape-font-specification:Drogowskaz Bold">
      <path
         d="m 156.49092,1010.2904 11.5,0 6.32556,25.5886 8.04944,-25.5886 11.5,0 8.04944,25.5886 6.32556,-25.5886 11.5,0 -11.5,46 -11.5,0 -8.625,-27.5989 -8.625,27.5989 -11.5,0 z"
         id="path3843"
         style="line-height:125%;fill:#000000;font-family:Drogowskaz;-inkscape-font-specification:Drogowskaz Bold" />
      <path
         d="m 298.67842,1065.6342 c 2.0121,1.5329 4.31248,2.2994 6.90112,2.2994 3.16135,0 5.86836,-1.1259 8.12104,-3.3776 2.2526,-2.2517 3.37892,-5.0069 3.37896,-8.2656 l 0,-3.1614 c -3.54699,2.1076 -7.38032,3.1614 -11.5,3.1614 -6.32652,0 -11.74147,-2.2522 -16.24487,-6.7565 -4.50342,-4.5044 -6.75513,-9.9189 -6.75513,-16.2435 0,-6.3246 2.25171,-11.7391 6.75513,-16.2435 4.5034,-4.5043 9.91835,-6.7564 16.24487,-6.7565 4.11968,10e-5 7.95301,1.0538 11.5,3.1614 l 0,-3.1614 11.5,0 0,46 c -5e-5,6.3246 -2.25222,11.7391 -6.75653,16.2435 -4.50439,4.5043 -9.91888,6.7565 -16.24347,6.7565 -5.07993,0 -9.68068,-1.533 -13.80224,-4.5989 z m -1.22131,-40.6094 c -2.25173,2.2517 -3.37758,5.0069 -3.37757,8.2656 -1e-5,3.2587 1.12584,6.0139 3.37757,8.2656 2.25168,2.2518 4.95869,3.3776 8.12103,3.3776 3.16228,0 5.86976,-1.1258 8.12244,-3.3776 2.2526,-2.2517 3.37892,-5.0069 3.37896,-8.2656 -4e-5,-3.2587 -1.12636,-6.0139 -3.37896,-8.2656 -2.25268,-2.2517 -4.96016,-3.3775 -8.12244,-3.3776 -3.16234,10e-5 -5.86935,1.1259 -8.12103,3.3776 z"
         id="path3845"
         style="line-height:125%;fill:#000000;font-family:Drogowskaz;-inkscape-font-specification:Drogowskaz Bold" />
      <path
         d="m 350.06905,1050.5404 c -4.79168,-4.7917 -7.18751,-10.5416 -7.1875,-17.25 -1e-5,-6.7083 2.39582,-12.4583 7.1875,-17.25 4.79164,-4.7916 10.54164,-7.1874 17.25,-7.1875 6.70829,10e-5 12.45829,2.3959 17.25,7.1875 4.79161,4.7917 7.18744,10.5417 7.1875,17.25 -6e-5,6.7084 -2.39589,12.4583 -7.1875,17.25 -4.79171,4.7917 -10.54171,7.1875 -17.25,7.1875 -6.70836,0 -12.45836,-2.3958 -17.25,-7.1875 z m 8.12243,-26.3776 c -2.53997,2.54 -3.80995,5.5825 -3.80993,9.1276 -2e-5,3.5451 1.26996,6.5876 3.80993,9.1276 2.53994,2.5399 5.58245,3.8099 9.12757,3.8099 3.54505,0 6.58757,-1.27 9.12756,-3.8099 2.53992,-2.54 3.80989,-5.5825 3.80994,-9.1276 -5e-5,-3.5451 -1.27002,-6.5876 -3.80994,-9.1276 -2.53999,-2.5399 -5.58251,-3.8099 -9.12756,-3.8099 -3.54512,0 -6.58763,1.27 -9.12757,3.8099 z"
         id="path3847"
         style="line-height:125%;fill:#000000;font-family:Drogowskaz;-inkscape-font-specification:Drogowskaz Bold" />
      <path
         d="m 412.22528,1049.5353 c -4.50343,-4.5053 -6.75514,-9.9203 -6.75513,-16.2449 -10e-6,-6.3246 2.2517,-11.7391 6.75513,-16.2435 4.5034,-4.5043 9.91835,-6.7564 16.24487,-6.7565 4.11968,10e-5 7.95301,1.0538 11.5,3.1614 l 0,-26.16139 11.5,0 0,68.99999 -11.5,0 0,-3.1614 c -3.54699,2.1076 -7.38032,3.1614 -11.5,3.1614 -6.32652,0 -11.74147,-2.2517 -16.24487,-6.7551 z m 8.12243,-24.5105 c -2.25172,2.2517 -3.37758,5.0069 -3.37756,8.2656 -2e-5,3.2587 1.12584,6.0139 3.37756,8.2656 2.25169,2.2518 4.9587,3.3776 8.12104,3.3776 3.16228,0 5.86975,-1.1258 8.12243,-3.3776 2.25261,-2.2517 3.37893,-5.0069 3.37897,-8.2656 -4e-5,-3.2587 -1.12636,-6.0139 -3.37897,-8.2656 -2.25268,-2.2517 -4.96015,-3.3775 -8.12243,-3.3776 -3.16234,10e-5 -5.86935,1.1259 -8.12104,3.3776 z"
         id="path3849"
         style="line-height:125%;fill:#000000;font-family:Drogowskaz;-inkscape-font-specification:Drogowskaz Bold" />
      <path
         d="m 498.39334,1044.7904 0,11.5 -31.625,0 0,-5.3176 15.8125,-29.1824 -15.8125,0 0,-11.5 31.625,0 0,5.3176 -15.8125,29.1824 z"
         id="path3851"
         style="line-height:125%;fill:#000000;font-family:Drogowskaz;-inkscape-font-specification:Drogowskaz Bold" />
      <path
         d="m 513.54668,1044.7904 11.5,0 0,11.5 -11.5,0 z"
         id="path3853"
         style="line-height:125%;fill:#000000;font-family:Drogowskaz;-inkscape-font-specification:Drogowskaz Bold" />
      <path
         d="m 588.9753,998.79041 0,-11.5 40.25,0 0,7.90625 -22.13807,61.09374 -12.36193,0 20.98693,-57.49999 z"
         id="path3855"
         style="line-height:125%;fill:#000000;font-family:Drogowskaz;-inkscape-font-specification:Drogowskaz Bold" />
      <path
         d="m 649.7253,1027.5404 0,-11.5 35.625,0 0,11.5 -35.625,0 z"
         id="path3857"
         style="line-height:125%;fill:#000000;font-family:Drogowskaz;-inkscape-font-specification:Drogowskaz Bold" />
      <path
         d="m 700.93951,998.79041 c 3.16324,5e-5 5.87071,-1.1258 8.12243,-3.37757 2.2517,-2.25164 3.37755,-4.95912 3.37757,-8.12243 l 11.5,0 0,68.99999 -11.5,0 0,-46 -11.5,0 z"
         id="path3859"
         style="line-height:125%;fill:#000000;font-family:Drogowskaz;-inkscape-font-specification:Drogowskaz Bold" />
      <path
         d="m 775.86992,1042.8503 c 2.25167,-2.2517 3.37753,-4.9591 3.37757,-8.1224 -4e-5,-3.1632 -1.1259,-5.8707 -3.37757,-8.1224 -2.25174,-2.2517 -4.95922,-3.3776 -8.12243,-3.3776 -3.16328,0 -5.87076,1.1259 -8.12244,3.3776 -2.25173,2.2517 -3.37758,4.9592 -3.37756,8.1224 -2e-5,3.1633 1.12583,5.8707 3.37756,8.1224 2.25168,2.2518 4.95916,3.3776 8.12244,3.3776 3.16321,0 5.87069,-1.1258 8.12243,-3.3776 z m 12.00257,-36.8724 c -5e-5,4.5035 -1.34209,8.5287 -4.02613,12.0756 4.6007,4.5989 6.90107,10.157 6.90113,16.6744 -6e-5,6.4201 -2.25223,11.8585 -6.75653,16.3151 -4.5044,4.4566 -9.91888,6.6849 -16.24347,6.6849 -6.32465,0 -11.73914,-2.2283 -16.24347,-6.6849 -4.50437,-4.4566 -6.75654,-9.895 -6.75653,-16.3151 -10e-6,-6.5174 2.30036,-12.0755 6.90112,-16.6744 -2.68409,-3.5469 -4.02613,-7.5721 -4.02612,-12.0756 -10e-6,-5.559 1.96438,-10.30295 5.89318,-14.23181 3.92878,-3.92872 8.67271,-5.89311 14.23182,-5.89318 5.55904,7e-5 10.30298,1.96446 14.23181,5.89318 3.92874,3.92886 5.89314,8.67281 5.89319,14.23181 z m -26.23438,6.1094 c 1.67706,1.6771 3.71352,2.5156 6.10938,2.5156 2.3958,0 4.43225,-0.8385 6.10937,-2.5156 1.67705,-1.6771 2.51559,-3.7135 2.51563,-6.1094 -4e-5,-2.3958 -0.83858,-4.4322 -2.51563,-6.10937 -1.67712,-1.67702 -3.71357,-2.51557 -6.10937,-2.51562 -2.39586,5e-5 -4.43232,0.8386 -6.10938,2.51562 -1.6771,1.67717 -2.51564,3.71357 -2.51562,6.10937 -2e-5,2.3959 0.83852,4.4323 2.51562,6.1094 z"
         id="path3861"
         style="line-height:125%;fill:#000000;font-family:Drogowskaz;-inkscape-font-specification:Drogowskaz Bold" />
    </g>
    <g
       transform="translate(1054,0)"
       id="g3897"
       style="font-size:92px;font-style:normal;font-variant:normal;font-weight:bold;font-stretch:normal;text-align:start;line-height:125%;writing-mode:lr-tb;text-anchor:start;opacity:0.5;fill:#000000;fill-opacity:1;stroke:none;font-family:Drogowskaz;-inkscape-font-specification:Drogowskaz Bold" />
    <g
       transform="translate(1054.7143,0)"
       id="g3923"
       style="font-size:92px;font-style:normal;font-variant:normal;font-weight:bold;font-stretch:normal;text-align:start;line-height:125%;writing-mode:lr-tb;text-anchor:start;opacity:0.5;fill:#000000;fill-opacity:1;stroke:none;font-family:Drogowskaz;-inkscape-font-specification:Drogowskaz Bold" />
  </g>
</svg>
