<?xml version="1.0" encoding="UTF-8" standalone="no"?>
<!-- Created with Inkscape (http://www.inkscape.org/) -->

<svg
   xmlns:svg="http://www.w3.org/2000/svg"
   xmlns="http://www.w3.org/2000/svg"
   version="1.1"
   width="393.42969"
   height="184.25972"
   id="svg2866">
  <defs
     id="defs2868">
    <pattern
       id="pattern4002"
       patternTransform="translate(18.50938,18)"
       height="476"
       width="370"
       patternUnits="userSpaceOnUse">
      <rect
         style="fill:#00e5ff;fill-opacity:1"
         id="rect2240"
         width="370"
         height="476"
         x="0"
         y="0"
         rx="20"
         ry="20" />
    </pattern>
  </defs>
  <g
     transform="translate(-414.97665,-19.861172)"
     id="layer1">
    <rect
       width="392.05939"
       height="182.8894"
       rx="12.045434"
       ry="12.045434"
       x="415.6618"
       y="20.546328"
       id="rect3698"
       style="fill:#ffffff;stroke:#000000;stroke-width:1.37031043;stroke-opacity:1" />
    <rect
       width="380.25775"
       height="170.83601"
       rx="5.6420736"
       ry="5.6420736"
       x="421.68848"
       y="26.573019"
       id="rect3700"
       style="fill:none;stroke:#000000;stroke-width:3.5;stroke-miterlimit:4;stroke-opacity:1;stroke-dasharray:none" />
    <g
       transform="matrix(1.3703105,0,0,1.3703105,-153.67021,-75.588107)"
       id="text3702"
       style="font-size:43.47795868px;font-style:normal;font-variant:normal;font-weight:bold;font-stretch:normal;text-align:start;line-height:125%;writing-mode:lr-tb;text-anchor:start;fill:#000000;fill-opacity:1;stroke:none;font-family:Drogowskaz;-inkscape-font-specification:Drogowskaz Bold">
      <path
         d="m 508.68335,120.11716 -12.90752,0 0,-32.608472 12.90752,0 c 3.57803,1.042045 6.51056,3.068794 8.79762,6.080253 2.28701,3.011513 3.43052,6.419499 3.43055,10.223979 -3e-5,3.80451 -1.14354,7.2125 -3.43055,10.22398 -2.28706,3.0115 -5.21959,5.03824 -8.79762,6.08026 z m -0.81469,-5.43475 c 2.21847,-0.81556 4.0411,-2.2083 5.46792,-4.17822 1.42677,-1.96991 2.14017,-4.20033 2.1402,-6.69127 -3e-5,-2.44579 -0.70193,-4.664932 -2.1057,-6.657427 -1.40382,-1.99245 -3.23796,-3.396468 -5.50242,-4.21206 l -6.65809,0 0,21.738977 z"
         id="path4207"
         style="fill:#000000" />
      <path
         d="m 527.70495,98.378178 5.43475,0 0,1.154352 c 1.72134,-0.769547 3.53292,-1.154331 5.43474,-1.154352 l 0,5.434742 c -2.08315,2e-5 -3.89473,0.70192 -5.43474,2.1057 l 0,14.19854 -5.43475,0 z"
         id="path4209"
         style="fill:#000000" />
      <path
         d="m 546.04722,117.39978 c -2.26448,-2.26447 -3.39672,-4.98184 -3.39672,-8.15211 0,-3.17026 1.13224,-5.88763 3.39672,-8.15212 2.26446,-2.264456 4.98183,-3.396693 8.15211,-3.396715 3.17025,2.2e-5 5.88762,1.132259 8.15212,3.396715 2.26445,2.26449 3.39669,4.98186 3.39672,8.15212 -3e-5,3.17027 -1.13227,5.88764 -3.39672,8.15211 -2.2645,2.26448 -4.98187,3.39672 -8.15212,3.39672 -3.17028,0 -5.88765,-1.13224 -8.15211,-3.39672 z m 3.83855,-12.46568 c -1.20036,1.20037 -1.80053,2.63822 -1.80052,4.31357 -10e-6,1.67537 0.60016,3.11322 1.80052,4.31356 1.20034,1.20036 2.63819,1.80053 4.31356,1.80053 1.67535,0 3.1132,-0.60017 4.31357,-1.80053 1.20033,-1.20034 1.8005,-2.63819 1.80052,-4.31356 -2e-5,-1.67535 -0.60019,-3.1132 -1.80052,-4.31357 -1.20037,-1.20033 -2.63822,-1.8005 -4.31357,-1.80052 -1.67537,2e-5 -3.11322,0.60019 -4.31356,1.80052 z"
         id="path4211"
         style="fill:#000000" />
      <path
         d="m 578.65568,124.53289 c 0.9509,0.72445 2.03802,1.08668 3.26138,1.08668 1.49401,0 2.77331,-0.53207 3.83789,-1.59619 1.06455,-1.06413 1.59684,-2.3662 1.59686,-3.90622 l 0,-1.49403 c -1.67626,0.99602 -3.48784,1.49403 -5.43475,1.49403 -2.98983,0 -5.54886,-1.06435 -7.67711,-3.19305 -2.12825,-2.12869 -3.19238,-4.6875 -3.19238,-7.67644 0,-2.98892 1.06413,-5.54773 3.19238,-7.67645 2.12825,-2.128673 4.68728,-3.193021 7.67711,-3.193042 1.94691,2.1e-5 3.75849,0.498029 5.43475,1.494024 l 0,-1.494024 5.43474,0 0,21.738982 c -2e-5,2.98893 -1.06437,5.54774 -3.19304,7.67644 -2.12872,2.12869 -4.68753,3.19304 -7.67645,3.19305 -2.40071,-1e-5 -4.57496,-0.72447 -6.52275,-2.17337 z m -0.57717,-19.19145 c -1.06414,1.06415 -1.5962,2.36622 -1.59619,3.90623 -10e-6,1.54003 0.53205,2.8421 1.59619,3.90622 1.06411,1.06413 2.34341,1.5962 3.83789,1.59619 1.49445,1e-5 2.77397,-0.53206 3.83855,-1.59619 1.06455,-1.06412 1.59684,-2.36619 1.59686,-3.90622 -2e-5,-1.54001 -0.53231,-2.84208 -1.59686,-3.90623 -1.06458,-1.06411 -2.3441,-1.59617 -3.83855,-1.59619 -1.49448,2e-5 -2.77378,0.53208 -3.83789,1.59619 z"
         id="path4213"
         style="fill:#000000" />
      <path
         d="m 602.60253,116.92478 c -2.12826,-2.12914 -3.19239,-4.68817 -3.19239,-7.67711 0,-2.98892 1.06413,-5.54773 3.19239,-7.67645 2.12824,-2.128673 4.68728,-3.193021 7.6771,-3.193042 1.94691,2.1e-5 3.75849,0.498029 5.43475,1.494024 l 0,-1.494024 5.43474,0 0,16.304232 1.35869,5.43475 -5.43475,0 -0.47633,-2.03803 c -1.90183,1.35868 -4.00752,2.03803 -6.3171,2.03803 -2.98982,0 -5.54886,-1.06413 -7.6771,-3.19238 z m 3.83855,-11.58334 c -1.06414,1.06415 -1.5962,2.36622 -1.59619,3.90623 -10e-6,1.54003 0.53205,2.8421 1.59619,3.90622 1.06412,1.06413 2.34341,1.5962 3.83789,1.59619 1.49445,1e-5 2.77397,-0.53206 3.83855,-1.59619 1.06456,-1.06412 1.59684,-2.36619 1.59686,-3.90622 -2e-5,-1.54001 -0.5323,-2.84208 -1.59686,-3.90623 -1.06458,-1.06411 -2.3441,-1.59617 -3.83855,-1.59619 -1.49448,2e-5 -2.77377,0.53208 -3.83789,1.59619 z"
         id="path4215"
         style="fill:#000000" />
    </g>
    <g
       transform="matrix(1.3703105,0,0,1.3703105,-153.67021,-75.588107)"
       id="text3706"
       style="font-size:43.47795868px;font-style:normal;font-variant:normal;font-weight:bold;font-stretch:normal;text-align:start;line-height:125%;writing-mode:lr-tb;text-anchor:start;fill:#000000;fill-opacity:1;stroke:none;font-family:Drogowskaz;-inkscape-font-specification:Drogowskaz Bold">
      <path
         d="m 433.19307,150.98714 5.43474,0 2.98938,12.09284 3.80405,-12.09284 5.43475,0 3.80405,12.09284 2.98938,-12.09284 5.43474,0 -5.43474,21.73898 -5.43475,0 -4.07605,-13.04286 -4.07606,13.04286 -5.43475,0 z"
         id="path4186"
         style="fill:#000000" />
      <path
         d="m 484.48347,159.8186 c -0.4078,-1.17734 -1.14376,-2.15102 -2.20787,-2.92104 -1.06414,-0.77 -2.25299,-1.155 -3.56655,-1.15502 -1.31358,2e-5 -2.50243,0.38502 -3.56655,1.15502 -1.06413,0.77002 -1.80009,1.7437 -2.20786,2.92104 z m -11.54883,4.07606 c 0.45288,1.22247 1.20012,2.20743 2.2417,2.95488 1.04156,0.74746 2.21913,1.12118 3.53271,1.12118 2.35469,0 5.07206,-0.22644 8.15212,-0.67934 l -2.71737,5.43474 -3.66872,0.54401 c -0.72447,0.0902 -1.31315,0.13533 -1.76603,0.13533 -3.17028,0 -5.88765,-1.13223 -8.15211,-3.39671 -2.26448,-2.26447 -3.39672,-4.98184 -3.39672,-8.15212 0,-3.17025 1.13224,-5.88762 3.39672,-8.15212 2.26446,-2.26445 4.98183,-3.39669 8.15211,-3.39671 4.03093,2e-5 7.2012,1.67582 9.51081,5.0274 l 0,8.55946 z"
         id="path4188"
         style="fill:#000000" />
      <path
         d="m 492.29592,150.98714 5.43474,0 2.98938,12.09284 3.80405,-12.09284 5.43475,0 3.80405,12.09284 2.98938,-12.09284 5.43474,0 -5.43474,21.73898 -5.43475,0 -4.07606,-13.04286 -4.07605,13.04286 -5.43475,0 z"
         id="path4190"
         style="fill:#000000" />
      <path
         d="m 527.62176,150.98714 5.43474,0 0,2.1057 c 1.54001,-1.40378 3.35159,-2.10568 5.43475,-2.1057 2.21935,2e-5 4.13287,0.79259 5.74058,2.3777 1.60767,1.58515 2.41151,3.50996 2.41154,5.77442 l 0,13.58686 -5.43475,0 0,-12.22818 c -2e-5,-1.13222 -0.3963,-2.09462 -1.18885,-2.8872 -0.79258,-0.79256 -1.75498,-1.18884 -2.88721,-1.18885 -1.13225,1e-5 -2.09465,0.39629 -2.88721,1.18885 -0.79257,0.79258 -1.18886,1.75498 -1.18885,2.8872 l 0,12.22818 -5.43474,0 z"
         id="path4192"
         style="fill:#000000" />
      <path
         d="m 573.00241,180.13123 -2.58204,3.46438 c -1.8116,-1.3587 -2.71739,-3.17028 -2.71737,-5.43475 -2e-5,-2.26448 0.90577,-4.07606 2.71737,-5.43474 -0.54314,0.72446 -0.8147,1.63024 -0.81468,2.71737 -2e-5,1.08712 0.31688,2.0608 0.95068,2.92105 0.63377,0.86022 1.44911,1.44912 2.44604,1.76669 z m -2.24237,-20.31263 c -0.4078,-1.17734 -1.14375,-2.15102 -2.20786,-2.92104 -1.06415,-0.77 -2.253,-1.155 -3.56655,-1.15502 -1.31359,2e-5 -2.50244,0.38502 -3.56655,1.15502 -1.06414,0.77002 -1.8001,1.7437 -2.20787,2.92104 z m -11.54883,4.07606 c 0.45289,1.22247 1.20012,2.20743 2.2417,2.95488 1.04156,0.74746 2.21913,1.12118 3.53272,1.12118 l 8.15211,-0.67934 -2.71737,5.43474 -3.66872,0.54401 c -0.72447,0.0902 -1.31314,0.13533 -1.76602,0.13533 -3.17028,0 -5.88765,-1.13223 -8.15212,-3.39671 -2.26448,-2.26447 -3.39672,-4.98184 -3.39672,-8.15212 0,-3.17025 1.13224,-5.88762 3.39672,-8.15212 2.26447,-2.26445 4.98184,-3.39669 8.15212,-3.39671 4.03092,2e-5 7.20119,1.67582 9.5108,5.0274 l 0,8.55946 z"
         id="path4194"
         style="fill:#000000" />
      <path
         d="m 582.64855,145.5524 5.43475,-5.43475 0,10.86949 4.07605,0 0,5.43475 -4.07605,0 0,8.15211 c -2e-5,0.76958 0.26049,1.41487 0.78151,1.93587 0.52099,0.52101 1.16628,0.78151 1.93586,0.78151 l 2.85271,0 -2.85271,5.43474 c -2.26449,0 -4.18929,-0.79257 -5.77442,-2.3777 -1.58514,-1.58513 -2.3777,-3.50993 -2.3777,-5.77442 l 0,-8.15211 -4.07606,0 0,-5.43475 4.07606,0 z"
         id="path4196"
         style="fill:#000000" />
      <path
         d="m 599.0377,150.98714 5.43474,0 0,1.15435 c 1.72135,-0.76954 3.53293,-1.15433 5.43475,-1.15435 l 0,5.43475 c -2.08316,1e-5 -3.89474,0.70191 -5.43475,2.10569 l 0,14.19854 -5.43474,0 z"
         id="path4198"
         style="fill:#000000" />
      <path
         d="m 628.72446,167.29138 0,5.43474 -14.94555,0 0,-2.51304 7.47277,-13.79119 -7.47277,0 0,-5.43475 14.94555,0 0,2.51304 -7.47278,13.7912 z"
         id="path4200"
         style="fill:#000000" />
      <path
         d="m 635.55239,150.98714 5.43475,0 0,2.1057 c 1.54001,-1.40378 3.35159,-2.10568 5.43474,-2.1057 2.21935,2e-5 4.13287,0.79259 5.74058,2.3777 1.60767,1.58515 2.41152,3.50996 2.41154,5.77442 l 0,13.58686 -5.43475,0 0,-12.22818 c -10e-6,-1.13222 -0.3963,-2.09462 -1.18885,-2.8872 -0.79258,-0.79256 -1.75498,-1.18884 -2.8872,-1.18885 -1.13226,1e-5 -2.09466,0.39629 -2.88721,1.18885 -0.79258,0.79258 -1.18886,1.75498 -1.18885,2.8872 l 0,12.22818 -5.43475,0 z"
         id="path4202"
         style="fill:#000000" />
      <path
         d="m 664.42447,169.53374 c -2.12826,-2.12914 -3.19238,-4.68817 -3.19238,-7.67711 0,-2.98892 1.06412,-5.54773 3.19238,-7.67644 2.12825,-2.12868 4.68728,-3.19303 7.67711,-3.19305 1.9469,2e-5 3.75848,0.49803 5.43474,1.49402 l 0,-1.49402 5.43475,0 0,16.30424 1.35869,5.43474 -5.43475,0 -0.47634,-2.03803 c -1.90182,1.35869 -4.00752,2.03803 -6.31709,2.03803 -2.98983,0 -5.54886,-1.06413 -7.67711,-3.19238 z m 3.83856,-11.58333 c -1.06414,1.06414 -1.5962,2.36621 -1.5962,3.90622 0,1.54003 0.53206,2.8421 1.5962,3.90622 1.06411,1.06414 2.34341,1.5962 3.83789,1.59619 1.49445,1e-5 2.77396,-0.53205 3.83855,-1.59619 1.06455,-1.06412 1.59684,-2.36619 1.59685,-3.90622 -1e-5,-1.54001 -0.5323,-2.84208 -1.59685,-3.90622 -1.06459,-1.06411 -2.3441,-1.59618 -3.83855,-1.59619 -1.49448,1e-5 -2.77378,0.53208 -3.83789,1.59619 z"
         id="path4204"
         style="fill:#000000" />
    </g>
    <path
       d="m 757.76132,29.302444 38.70359,0 c 1.52587,0 2.75428,1.22841 2.75428,2.754284 l 0,5.971879 -333.01653,156.631223 -39.06589,0 c -1.52589,0 -2.75428,-1.22842 -2.75428,-2.75429 l 0,-7.29088 333.37883,-155.312216 z"
       id="rect3710"
       style="fill:#d40000;fill-opacity:1;stroke:#d40000;stroke-width:2.74062085;stroke-linecap:butt;stroke-linejoin:miter;stroke-miterlimit:4;stroke-opacity:1" />
  </g>
</svg>
