<?xml version="1.0" encoding="UTF-8" standalone="no"?>
<!-- Created with Inkscape (http://www.inkscape.org/) -->

<svg
   xmlns:svg="http://www.w3.org/2000/svg"
   xmlns="http://www.w3.org/2000/svg"
   version="1.1"
   width="346.51651"
   height="461.33823"
   id="svg2">
  <defs
     id="defs4"><pattern
   id="pattern4002"
   patternTransform="translate(18.50938,18)"
   height="476"
   width="370"
   patternUnits="userSpaceOnUse">
  <rect
     style="fill:#00e5ff;fill-opacity:1"
     id="rect2240"
     width="370"
     height="476"
     x="0"
     y="0"
     rx="20"
     ry="20" />
</pattern>
<pattern
   patternUnits="userSpaceOnUse"
   width="370"
   height="476"
   patternTransform="translate(18.50938,18)"
   id="pattern4002-4">
  <rect
     ry="20"
     rx="20"
     y="0"
     x="0"
     height="476"
     width="370"
     id="rect2240-0"
     style="fill:#00e5ff;fill-opacity:1" />
</pattern>
<pattern
   id="pattern4002-2"
   patternTransform="translate(18.50938,18)"
   height="476"
   width="370"
   patternUnits="userSpaceOnUse">
  <rect
     style="fill:#00e5ff;fill-opacity:1"
     id="rect2240-4"
     width="370"
     height="476"
     x="0"
     y="0"
     rx="20"
     ry="20" />
</pattern>

			
			
			
		</defs>
  <g
     transform="translate(-398.17813,-181.16504)"
     id="layer1">
    <rect
       width="343.94754"
       height="458.76926"
       rx="10.274232"
       ry="10.274232"
       x="399.46262"
       y="182.44952"
       id="rect2933"
       style="fill:#ffffff;fill-opacity:1;stroke:#000000;stroke-width:2.56896544;stroke-linecap:butt;stroke-linejoin:round;stroke-miterlimit:4;stroke-opacity:1;stroke-dasharray:none;stroke-dashoffset:0" />
    <rect
       width="335.9039"
       height="449.97546"
       rx="9.3920317"
       ry="9.3920317"
       x="403.48834"
       y="187.21346"
       id="rect3707"
       style="fill:#003399;fill-opacity:1;stroke:none" />
    <g
       transform="matrix(0.76004889,0,0,0.76004889,95.538042,154.17461)"
       id="text3709"
       style="font-size:66.83599854px;font-style:normal;font-variant:normal;font-weight:bold;font-stretch:normal;text-align:start;line-height:125%;writing-mode:lr-tb;text-anchor:start;fill:#ffffff;fill-opacity:1;stroke:none;font-family:Drogowskaz;-inkscape-font-specification:Drogowskaz Bold">
      <path
         d="m 516.01202,101.16813 17.96136,0 0,8.3545 -29.24075,0 0,-4.17725 17.9634,-37.59525 -17.9634,0 0,-8.3545 29.24075,0 0,4.17725 z"
         id="path3718" />
      <path
         d="m 545.20064,76.10463 8.3545,0 0,4.177249 c 2.08861,-2.784801 4.87344,-4.177216 8.3545,-4.177249 3.20226,3.3e-5 5.84772,1.218396 7.93637,3.655093 2.43669,-2.436697 5.3609,-3.65506 8.77263,-3.655093 3.481,3.3e-5 6.43988,1.218396 8.87666,3.655093 2.43668,2.436757 3.65504,5.395639 3.65509,8.876656 l 0,20.886251 -8.3545,0 0,-19.841938 c -4e-5,-1.461744 -0.50486,-2.697445 -1.51446,-3.707106 -1.00967,-1.009613 -2.24538,-1.514432 -3.7071,-1.514457 -1.4618,2.5e-5 -2.6975,0.504844 -3.70711,1.514457 -1.00967,1.009661 -1.51449,2.245362 -1.51445,3.707106 l 0,19.841938 -8.3545,0 0,-19.841938 c -3e-5,-1.461744 -0.50485,-2.697445 -1.51446,-3.707106 -1.00966,-1.009613 -2.24536,-1.514432 -3.70711,-1.514457 -1.46178,2.5e-5 -2.69748,0.504844 -3.7071,1.514457 -1.00965,1.009661 -1.51447,2.245362 -1.51446,3.707106 l 0,19.841938 -8.3545,0 z"
         id="path3720" />
      <path
         d="m 605.44993,76.10463 8.3545,0 0,33.418 -8.3545,0 z m 0,-16.709 8.3545,0 0,8.3545 -8.3545,0 z"
         id="path3722" />
      <path
         d="m 629.45203,104.61518 c -3.27164,-3.27299 -4.90745,-7.206836 -4.90745,-11.801551 0,-4.594681 1.63581,-8.528187 4.90745,-11.800527 3.27163,-3.272283 7.20547,-4.908439 11.80155,-4.908472 2.99286,3.3e-5 5.77769,0.765589 8.3545,2.296671 l 0,-2.296671 8.3545,0 0,25.0635 2.08862,8.3545 -8.3545,0 -0.73224,-3.13294 c -2.92356,2.08863 -6.16051,3.13294 -9.71088,3.13294 -4.59608,0 -8.52992,-1.63582 -11.80155,-4.90745 z m 5.90078,-17.806348 c -1.63584,1.635839 -2.45374,3.637436 -2.45373,6.004797 -10e-6,2.367395 0.81789,4.368992 2.45373,6.004797 1.6358,1.635824 3.60238,2.453734 5.89975,2.453724 2.29733,1e-5 4.26425,-0.8179 5.90077,-2.453724 1.63647,-1.635805 2.45472,-3.637402 2.45475,-6.004797 -3e-5,-2.367361 -0.81828,-4.368958 -2.45475,-6.004797 -1.63652,-1.635793 -3.60344,-2.453701 -5.90077,-2.453726 -2.29737,2.5e-5 -4.26395,0.817933 -5.89975,2.453726 z"
         id="path3724" />
      <path
         d="m 671.45145,76.10463 8.3545,0 0,3.23696 c 2.36736,-2.157941 5.15219,-3.236927 8.3545,-3.23696 3.41166,3.3e-5 6.35321,1.218396 8.82464,3.655093 2.47137,2.436757 3.70707,5.395639 3.70711,8.876656 l 0,20.886251 -8.3545,0 0,-18.797626 c -3e-5,-1.7405 -0.60921,-3.219941 -1.82755,-4.438328 -1.21839,-1.21834 -2.69783,-1.827522 -4.43833,-1.827547 -1.74054,2.5e-5 -3.21998,0.609207 -4.43833,1.827547 -1.21838,1.218387 -1.82756,2.697828 -1.82754,4.438328 l 0,18.797626 -8.3545,0 z"
         id="path3726" />
      <path
         d="m 717.09744,104.61518 c -3.27165,-3.27299 -4.90746,-7.206836 -4.90746,-11.801551 0,-4.594681 1.63581,-8.528187 4.90746,-11.800527 3.27162,-3.272283 7.20546,-4.908439 11.80154,-4.908472 2.99286,3.3e-5 5.77769,0.765589 8.3545,2.296671 l 0,-2.296671 8.3545,0 0,25.0635 2.08863,8.3545 -8.3545,0 -0.73225,-3.13294 c -2.92355,2.08863 -6.16051,3.13294 -9.71088,3.13294 -4.59608,0 -8.52992,-1.63582 -11.80154,-4.90745 z m 5.90077,-17.806348 c -1.63583,1.635839 -2.45374,3.637436 -2.45373,6.004797 -10e-6,2.367395 0.8179,4.368992 2.45373,6.004797 1.6358,1.635824 3.60238,2.453734 5.89975,2.453724 2.29733,1e-5 4.26425,-0.8179 5.90078,-2.453724 1.63647,-1.635805 2.45471,-3.637402 2.45474,-6.004797 -3e-5,-2.367361 -0.81827,-4.368958 -2.45474,-6.004797 -1.63653,-1.635793 -3.60345,-2.453701 -5.90078,-2.453726 -2.29737,2.5e-5 -4.26395,0.817933 -5.89975,2.453726 z"
         id="path3728" />
    </g>
    <g
       transform="matrix(0.76004889,0,0,0.76004889,95.538042,154.17461)"
       id="text3730"
       style="font-size:99.73122406px;font-style:normal;font-variant:normal;font-weight:bold;font-stretch:normal;text-align:start;line-height:125%;writing-mode:lr-tb;text-anchor:start;fill:#ffffff;fill-opacity:1;stroke:none;font-family:Drogowskaz;-inkscape-font-specification:Drogowskaz Bold">
      <path
         d="m 467.86285,147.06258 c -1.16869,1.1687 -1.75303,2.5987 -1.75302,4.29002 -10e-6,1.69134 0.58433,3.12134 1.75302,4.29001 1.16866,1.16869 2.57389,1.75302 4.21569,1.75302 1.64177,0 3.047,-0.58433 4.2157,-1.75302 1.16865,-1.16867 1.75299,-2.59867 1.75302,-4.29001 -3e-5,-1.69132 -0.58437,-3.12132 -1.75302,-4.29002 -1.1687,-1.16866 -2.57393,-1.753 -4.2157,-1.75301 -1.6418,1e-5 -3.04703,0.58435 -4.21569,1.75301 z m -7.72173,-7.64741 5.96871,0 0,1.64081 c 1.83995,-1.09385 3.82952,-1.64079 5.96871,-1.64081 3.28258,2e-5 6.0928,1.16894 8.43066,3.50677 2.33782,2.33786 3.50674,5.14807 3.50677,8.43066 -3e-5,3.2826 -1.16895,6.09282 -3.50677,8.43066 -2.33786,2.33784 -5.14808,3.50676 -8.43066,3.50676 -2.13919,0 -4.12876,-0.54693 -5.96871,-1.64081 l 0,13.57824 -5.96871,0 z"
         id="path3740"
         style="font-size:47.74970627px" />
      <path
         d="m 491.29034,139.41517 5.96871,0 0,23.87485 -5.96871,0 z m 0,-11.93743 5.96871,0 0,5.96872 -5.96871,0 z"
         id="path3742"
         style="font-size:47.74970627px" />
      <path
         d="m 523.74522,149.11433 c -0.44787,-1.29301 -1.25613,-2.36236 -2.42479,-3.20804 -1.1687,-0.84564 -2.47435,-1.26848 -3.91697,-1.2685 -1.44265,2e-5 -2.7483,0.42286 -3.91697,1.2685 -1.16869,0.84568 -1.97695,1.91503 -2.42479,3.20804 z m -12.68352,4.47653 c 0.49739,1.34258 1.31803,2.42432 2.46195,3.2452 1.14389,0.8209 2.43716,1.23134 3.87981,1.23134 2.58604,0 5.57039,-0.24869 8.95307,-0.74609 l -2.98436,5.96871 -4.02917,0.59746 c -0.79565,0.0991 -1.44216,0.14863 -1.93954,0.14863 -3.48176,0 -6.46611,-1.24348 -8.95307,-3.73044 -2.48697,-2.48696 -3.73045,-5.47131 -3.73045,-8.95307 0,-3.48174 1.24348,-6.46609 3.73045,-8.95307 2.48696,-2.48694 5.47131,-3.73042 8.95307,-3.73045 4.42697,3e-5 7.90872,1.84047 10.44525,5.52135 l 0,9.40043 z"
         id="path3744"
         style="font-size:47.74970627px" />
      <path
         d="m 535.3096,139.41517 5.96872,0 0,1.26777 c 1.89047,-0.84516 3.88003,-1.26775 5.96871,-1.26777 l 0,5.96871 c -2.28783,2e-5 -4.2774,0.77088 -5.96871,2.31259 l 0,15.59355 -5.96872,0 z"
         id="path3746"
         style="font-size:47.74970627px" />
      <path
         d="m 550.23138,139.41517 5.96872,0 3.28308,13.28097 4.17781,-13.28097 5.96871,0 4.17781,13.28097 3.28308,-13.28097 5.96872,0 -5.96872,23.87485 -5.96871,0 -4.47654,-14.32433 -4.47653,14.32433 -5.96871,0 z"
         id="path3748"
         style="font-size:47.74970627px" />
      <path
         d="m 596.48891,139.41517 c 1.94001,2e-5 3.68088,0.19918 5.22262,0.59745 l 0,5.37126 c -1.69134,-0.49737 -3.43221,-0.74607 -5.22262,-0.74609 -0.39831,2e-5 -0.74659,0.14914 -1.04482,0.44737 -0.29825,0.29826 -0.44737,0.64653 -0.44736,1.04481 -10e-6,0.5965 0.24869,1.01909 0.74609,1.26777 l 4.55085,2.76141 c 1.14438,0.64604 2.03983,1.54125 2.68636,2.68563 0.6465,1.1444 0.96975,2.38788 0.96977,3.73044 -2e-5,2.03912 -0.72133,3.79238 -2.16395,5.25978 -1.44265,1.46741 -3.20829,2.20111 -5.29694,2.20111 -3.28261,0 -6.31651,-0.57219 -9.10171,-1.71658 l 1.64082,-4.99822 c 2.38787,0.99479 4.87483,1.49218 7.46089,1.49218 0.64699,0 1.18178,-0.21129 1.60438,-0.63389 0.42258,-0.42258 0.63387,-0.95737 0.63389,-1.60438 -2e-5,-0.89569 -0.37306,-1.5422 -1.11914,-1.93954 l -4.84958,-2.83572 c -2.08866,-1.3921 -3.13299,-3.2821 -3.13299,-5.66999 0,-1.89046 0.6963,-3.48221 2.08891,-4.77526 1.39259,-1.293 2.9841,-1.93952 4.77453,-1.93954 z"
         id="path3750"
         style="font-size:47.74970627px" />
      <path
         d="m 625.35045,157.32131 0,5.96871 -16.41396,0 0,-2.75994 8.20698,-15.1462 -8.20698,0 0,-5.96871 16.41396,0 0,2.75995 -8.20698,15.14619 z"
         id="path3752"
         style="font-size:47.74970627px" />
      <path
         d="m 650.25605,149.11433 c -0.44787,-1.29301 -1.25613,-2.36236 -2.42479,-3.20804 -1.1687,-0.84564 -2.47435,-1.26848 -3.91697,-1.2685 -1.44265,2e-5 -2.7483,0.42286 -3.91697,1.2685 -1.16868,0.84568 -1.97695,1.91503 -2.42479,3.20804 z m -12.68352,4.47653 c 0.49739,1.34258 1.31804,2.42432 2.46195,3.2452 1.1439,0.8209 2.43716,1.23134 3.87981,1.23134 2.58604,0 5.57039,-0.24869 8.95307,-0.74609 l -2.98435,5.96871 -4.02918,0.59746 c -0.79565,0.0991 -1.44216,0.14863 -1.93954,0.14863 -3.48176,0 -6.46611,-1.24348 -8.95307,-3.73044 -2.48697,-2.48696 -3.73045,-5.47131 -3.73044,-8.95307 -10e-6,-3.48174 1.24347,-6.46609 3.73044,-8.95307 2.48696,-2.48694 5.47131,-3.73042 8.95307,-3.73045 4.42697,3e-5 7.90872,1.84047 10.44525,5.52135 l 0,9.40043 z"
         id="path3754"
         style="font-size:47.74970627px" />
      <path
         d="m 673.75785,127.47774 5.96872,0 -8.95307,8.95307 z m -11.93742,11.93743 5.96871,0 0,2.31259 c 1.69132,-1.5417 3.68089,-2.31257 5.96871,-2.31259 2.4374,2e-5 4.53894,0.87046 6.3046,2.61131 1.76563,1.7409 2.64845,3.85481 2.64847,6.34176 l 0,14.92178 -5.96871,0 0,-13.4296 c -2e-5,-1.24347 -0.43524,-2.30043 -1.30565,-3.17088 -0.87046,-0.87042 -1.92742,-1.30564 -3.17088,-1.30566 -1.2435,2e-5 -2.30046,0.43524 -3.17088,1.30566 -0.87045,0.87045 -1.30567,1.92741 -1.30566,3.17088 l 0,13.4296 -5.96871,0 z"
         id="path3756"
         style="font-size:47.74970627px" />
      <path
         d="m 698.49354,139.41517 c 1.94001,2e-5 3.68088,0.19918 5.22262,0.59745 l 0,5.37126 c -1.69134,-0.49737 -3.43222,-0.74607 -5.22262,-0.74609 -0.39832,2e-5 -0.74659,0.14914 -1.04482,0.44737 -0.29825,0.29826 -0.44737,0.64653 -0.44736,1.04481 -10e-6,0.5965 0.24868,1.01909 0.74609,1.26777 l 4.55085,2.76141 c 1.14438,0.64604 2.03983,1.54125 2.68636,2.68563 0.64649,1.1444 0.96975,2.38788 0.96977,3.73044 -2e-5,2.03912 -0.72134,3.79238 -2.16395,5.25978 -1.44265,1.46741 -3.2083,2.20111 -5.29694,2.20111 -3.28261,0 -6.31651,-0.57219 -9.10171,-1.71658 l 1.64082,-4.99822 c 2.38786,0.99479 4.87482,1.49218 7.46089,1.49218 0.64698,0 1.18178,-0.21129 1.60438,-0.63389 0.42258,-0.42258 0.63387,-0.95737 0.63388,-1.60438 -10e-6,-0.89569 -0.37305,-1.5422 -1.11913,-1.93954 l -4.84958,-2.83572 c -2.08867,-1.3921 -3.133,-3.2821 -3.13299,-5.66999 -10e-6,-1.89046 0.69629,-3.48221 2.0889,-4.77526 1.3926,-1.293 2.98411,-1.93952 4.77454,-1.93954 z"
         id="path3758"
         style="font-size:47.74970627px" />
      <path
         d="m 715.03377,133.44646 5.96871,-5.96872 0,11.93743 4.47654,0 0,5.96871 -4.47654,0 0,8.95307 c -10e-6,0.84519 0.28609,1.55388 0.8583,2.12607 0.57218,0.5722 1.28087,0.8583 2.12606,0.85829 l 3.13299,0 -3.13299,5.96871 c -2.48698,0 -4.60089,-0.87043 -6.34176,-2.61131 -1.74088,-1.74087 -2.61132,-3.85479 -2.61131,-6.34176 l 0,-8.95307 -4.47654,0 0,-5.96871 4.47654,0 z"
         id="path3760"
         style="font-size:47.74970627px" />
      <path
         d="m 730.1751,139.41517 5.96871,0 3.28308,13.28097 4.17781,-13.28097 5.96871,0 4.17781,13.28097 3.28309,-13.28097 5.96871,0 -5.96871,23.87485 -5.96872,0 -4.47653,-14.32433 -4.47654,14.32433 -5.96871,0 z"
         id="path3762"
         style="font-size:47.74970627px" />
      <path
         d="m 770.83693,159.78399 c -2.33736,-2.33833 -3.50604,-5.14879 -3.50603,-8.43139 -1e-5,-3.28259 1.16867,-6.0928 3.50603,-8.43066 2.33735,-2.33783 5.14781,-3.50675 8.43139,-3.50677 2.13819,2e-5 4.12776,0.54696 5.96872,1.64081 l 0,-1.64081 5.96871,0 0,17.90614 1.49218,5.96871 -5.96872,0 -0.52313,-2.23826 c -2.08868,1.49218 -4.40127,2.23826 -6.93776,2.23826 -3.28358,0 -6.09404,-1.16867 -8.43139,-3.50603 z m 4.2157,-12.72141 c -1.16869,1.1687 -1.75303,2.5987 -1.75302,4.29002 -10e-6,1.69134 0.58433,3.12134 1.75302,4.29001 1.16866,1.16869 2.57365,1.75302 4.21496,1.75302 1.64129,0 3.04652,-0.58433 4.2157,-1.75302 1.16914,-1.16867 1.75372,-2.59867 1.75375,-4.29001 -3e-5,-1.69132 -0.58461,-3.12132 -1.75375,-4.29002 -1.16918,-1.16866 -2.57441,-1.753 -4.2157,-1.75301 -1.64131,1e-5 -3.0463,0.58435 -4.21496,1.75301 z"
         id="path3764"
         style="font-size:47.74970627px" />
    </g>
    <path
       d="m 557.60102,404.37524 c 2.50458,-4.0368 7.67077,-6.91431 13.11778,-6.91431 7.11466,0 12.69658,3.79822 15.64401,9.09733 l 90.75902,158.17872 c 4.82201,9.74313 -2.10497,20.89082 -12.43385,22.5478 l -186.71162,0 c -10.86519,-1.74429 -16.87282,-14.03232 -12.66122,-23.72088 l 92.28588,-159.18866 z"
       id="path4146"
       style="fill:#ffffff;fill-opacity:1;stroke:#ffffff;stroke-width:2.37266898;stroke-linecap:butt;stroke-linejoin:miter;stroke-miterlimit:4;stroke-opacity:1;stroke-dasharray:none" />
    <g
       transform="matrix(0.40286242,0,0,0.40286242,468.00319,401.01757)"
       id="g4058">
      <g
         transform="translate(-1.2492967e-4,5.7530595e-4)"
         id="g2874" />
      <g
         transform="translate(-1.2492967e-4,5.7530595e-4)"
         id="g2893" />
      <g
         transform="translate(-1.2492967e-4,5.7530595e-4)"
         id="g3797">
        <path
           d="m 271.333,25.071 c -3.258,-5.646 -9.328,-8.938 -15.838,-8.591 -5.848,0.312 -11.086,3.522 -14.013,8.594 0,0 -222.736,385.738 -222.735,385.737 -3.066,5.313 -3.065,11.914 0.002,17.227 3.068,5.313 8.787,8.612 14.924,8.612 0,0 445.47,0 445.472,0 6.14,0 11.854,-3.3 14.927,-8.613 3.065,-5.312 3.065,-11.908 0.002,-17.225 -0.004,0 -222.741,-385.738 -222.741,-385.741 z"
           id="yellow-9"
           style="fill:#febe0b;fill-opacity:1;stroke:none" />
        <path
           d="M 508.319,402.583 285.585,16.844 C 279.213,5.808 267.352,-0.629 254.624,0.048 c -11.429,0.604 -21.668,6.885 -27.391,16.797 0,-10e-4 -222.735,385.738 -222.735,385.738 -5.998,10.39 -5.997,23.296 0.002,33.683 5.999,10.387 17.177,16.839 29.174,16.839 l 445.47,0 c 11.996,0 23.179,-6.452 29.177,-16.839 5.996,-10.388 5.998,-23.295 -0.002,-33.683 z m -14.25,25.454 c -3.068,5.313 -8.787,8.613 -14.927,8.613 -0.002,0 -445.472,0 -445.472,0 -6.138,0 -11.855,-3.3 -14.924,-8.611 -3.068,-5.312 -3.069,-11.91 -0.002,-17.228 0,0.001 222.735,-385.737 222.735,-385.737 2.927,-5.068 8.166,-8.28 14.013,-8.594 6.51,-0.347 12.581,2.946 15.838,8.592 0,0.001 222.736,385.74 222.736,385.74 3.071,5.313 3.069,11.912 0.003,17.225 z"
           id="boarder-2"
           style="fill:#d40000;fill-opacity:1;stroke:none" />
        <polygon
           points="319.395,389.861 358.771,350.485 294.921,286.637 358.771,222.788 319.395,183.413 255.546,247.261 191.698,183.413 152.323,222.788 152.323,222.788 216.171,286.637 152.323,350.485 191.698,389.861 255.546,326.012 "
           transform="translate(1.4402625e-4,-3.2730814e-5)"
           id="cross-7"
           style="fill:#000000;stroke:none" />
      </g>
    </g>
  </g>
</svg>
