<?xml version="1.0" encoding="UTF-8" standalone="no"?>
<!-- Created with Inkscape (http://www.inkscape.org/) -->

<svg
   xmlns:svg="http://www.w3.org/2000/svg"
   xmlns="http://www.w3.org/2000/svg"
   version="1.1"
   width="354.76837"
   height="531.05328"
   id="svg2">
  <defs
     id="defs4">
    <pattern
       id="pattern4002"
       patternTransform="translate(18.50938,18)"
       height="476"
       width="370"
       patternUnits="userSpaceOnUse">
      <rect
         style="fill:#00e5ff;fill-opacity:1"
         id="rect2240"
         width="370"
         height="476"
         x="0"
         y="0"
         rx="20"
         ry="20" />
    </pattern>
  </defs>
  <g
     transform="translate(-74.249997,83.19112)"
     id="layer1">
    <rect
       width="353.36993"
       height="529.65485"
       rx="7.8911328"
       ry="7.8911328"
       x="74.949211"
       y="-82.491905"
       id="rect2904"
       style="fill:#ffffff;fill-opacity:1;stroke:#003399;stroke-width:1.39842868;stroke-opacity:1" />
    <rect
       width="345.50372"
       height="521.43909"
       rx="4.2202573"
       ry="4.2202573"
       x="79.319298"
       y="-78.47142"
       id="rect3678"
       style="fill:#003399;fill-opacity:1;stroke:#003399;stroke-width:1.39842868;stroke-opacity:1" />
    <path
       d="m 237.5,117.86218 a 40.25,40.25 0 1 1 -80.5,0 40.25,40.25 0 1 1 80.5,0 z"
       transform="matrix(1.5501733,0,0,1.5595285,-53.797874,-186.68778)"
       id="path4038"
       style="fill:#ffffff;fill-opacity:1;stroke:none" />
    <path
       d="m 237.5,117.86218 a 40.25,40.25 0 1 1 -80.5,0 40.25,40.25 0 1 1 80.5,0 z"
       transform="matrix(1.4549792,0,0,1.4551121,-35.144233,-174.62842)"
       id="path3943"
       style="fill:#d40000;fill-opacity:1;stroke:none" />
    <path
       d="m 158.65961,411.68229 -25.67812,0 0,-288.58167 -22.39122,0 35.23028,-57.577842 36.04242,57.577842 -24.27329,0 0,224.57 176.53708,-146.05876 c 11.40334,-11.40333 11.36224,-21.38489 11.02356,-30.47649 l 0,-48.1753 -23.13285,0 34.90199,-57.437292 36.21912,57.437292 -23.38007,0 0,47.58463 c 0,20.33137 -4.95818,34.46302 -29.21222,54.81426 L 209.44431,335.36488 c -19.13712,16.0577 -50.7847,38.97413 -50.7847,53.92911 l 0,22.3883 z"
       id="path1983-9"
       style="fill:#ffffff;fill-opacity:1;fill-rule:evenodd;stroke:none" />
    <path
       d="m 206.71915,73.291511 10.65204,0 0,27.951679 -10.65204,0 0,-27.951679 z"
       id="path1985-8"
       style="fill:#ffffff;fill-opacity:1;fill-rule:evenodd;stroke:none" />
    <path
       d="m 206.71915,126.4318 10.65204,0 0,27.95168 -10.65204,0 0,-27.95168 z"
       id="path4016"
       style="fill:#ffffff;fill-opacity:1;fill-rule:evenodd;stroke:none" />
    <path
       d="m 246.57437,73.291511 10.65204,0 0,27.951679 -10.65204,0 0,-27.951679 z"
       id="path4018"
       style="fill:#ffffff;fill-opacity:1;fill-rule:evenodd;stroke:none" />
    <path
       d="m 246.57437,126.4318 10.65204,0 0,27.95168 -10.65204,0 0,-27.95168 z"
       id="path4020"
       style="fill:#ffffff;fill-opacity:1;fill-rule:evenodd;stroke:none" />
    <path
       d="m 285.73037,73.291511 10.65205,0 0,27.951679 -10.65205,0 0,-27.951679 z"
       id="path4022"
       style="fill:#ffffff;fill-opacity:1;fill-rule:evenodd;stroke:none" />
    <path
       d="m 285.73037,126.4318 10.65205,0 0,27.95168 -10.65205,0 0,-27.95168 z"
       id="path4024"
       style="fill:#ffffff;fill-opacity:1;fill-rule:evenodd;stroke:none" />
    <path
       d="m 237.5,117.86218 a 40.25,40.25 0 1 1 -80.5,0 40.25,40.25 0 1 1 80.5,0 z"
       transform="matrix(1.1759031,0,0,1.1630072,19.379106,-140.0255)"
       id="path4026"
       style="fill:#ffffff;fill-opacity:1;stroke:none" />
    <rect
       width="88.013603"
       height="8.3031778"
       rx="5.069304"
       ry="4.1515851"
       x="207.84988"
       y="-7.1265864"
       id="rect4028"
       style="fill:#000000;fill-opacity:1;stroke:#000000;stroke-width:1.39842868;stroke-linecap:butt;stroke-linejoin:miter;stroke-miterlimit:4;stroke-opacity:1;stroke-dasharray:none" />
    <g
       transform="matrix(1.3790387,0,0,1.4180913,-29.583331,-178.44115)"
       id="text4030"
       style="font-size:16.82770729px;font-style:normal;font-variant:normal;font-weight:bold;font-stretch:normal;text-align:start;line-height:125%;writing-mode:lr-tb;text-anchor:start;fill:#000000;fill-opacity:1;stroke:none;font-family:Drogowskaz;-inkscape-font-specification:Drogowskaz Bold">
      <path
         d="m 186.21062,111.32607 -3.83872,0 0,5.25866 -2.10346,0 0,-12.62078 5.94218,0 c 0.59604,0.40331 1.06936,0.92918 1.41994,1.5776 0.35057,0.64844 0.52586,1.34959 0.52587,2.10346 -1e-5,0.75389 -0.1753,1.45504 -0.52587,2.10347 -0.35058,0.64843 -0.8239,1.1743 -1.41994,1.57759 z m -0.76261,-2.10346 c 0.4033,-0.45567 0.60495,-0.98154 0.60495,-1.5776 0,-0.59604 -0.20165,-1.1219 -0.60495,-1.5776 l -3.07611,0 0,3.1552 z"
         id="path2928"
         style="fill:#000000" />
      <path
         d="m 190.52282,115.533 c -0.87644,-0.87644 -1.31466,-1.92817 -1.31466,-3.15519 0,-1.22702 0.43822,-2.27875 1.31466,-3.1552 0.87644,-0.87643 1.92817,-1.31466 3.1552,-1.31466 1.22701,0 2.27874,0.43823 3.15519,1.31466 0.87644,0.87645 1.31466,1.92818 1.31467,3.1552 -10e-6,1.22702 -0.43823,2.27875 -1.31467,3.15519 -0.87645,0.87644 -1.92818,1.31466 -3.15519,1.31466 -1.22703,0 -2.27876,-0.43822 -3.1552,-1.31466 z m 1.48568,-4.82472 c -0.46459,0.46459 -0.69688,1.0211 -0.69688,1.66953 0,0.64843 0.23229,1.20494 0.69688,1.66952 0.46458,0.46458 1.02108,0.69687 1.66952,0.69687 0.64842,0 1.20493,-0.23229 1.66952,-0.69687 0.46458,-0.46458 0.69687,-1.02109 0.69688,-1.66952 -1e-5,-0.64843 -0.2323,-1.20494 -0.69688,-1.66953 -0.46459,-0.46457 -1.0211,-0.69686 -1.66952,-0.69687 -0.64844,1e-5 -1.20494,0.2323 -1.66952,0.69687 z"
         id="path2930"
         style="fill:#000000" />
      <path
         d="m 203.49846,110.86594 c -0.41186,0.41187 -0.61779,0.91582 -0.61779,1.51187 0,0.59605 0.20593,1.1 0.61779,1.51186 0.41186,0.41186 0.90708,0.61779 1.48568,0.61779 0.57858,0 1.0738,-0.20593 1.48567,-0.61779 0.41185,-0.41186 0.61778,-0.91581 0.61779,-1.51186 -1e-5,-0.59605 -0.20594,-1.1 -0.61779,-1.51187 -0.41187,-0.41185 -0.90709,-0.61778 -1.48567,-0.61779 -0.5786,1e-5 -1.07382,0.20594 -1.48568,0.61779 z m -2.72125,-6.90199 2.10346,0 0,4.78518 c 0.64843,-0.38549 1.34958,-0.57824 2.10347,-0.57825 1.15683,1e-5 2.14719,0.41195 2.97109,1.23583 0.82388,0.8239 1.23582,1.81426 1.23583,2.9711 -1e-5,1.15683 -0.41195,2.1472 -1.23583,2.97109 -0.8239,0.82389 -1.81426,1.23583 -2.97109,1.23583 -0.75389,0 -1.45504,-0.19275 -2.10347,-0.57824 l 0,0.57824 -2.10346,0 z"
         id="path2932"
         style="fill:#000000" />
      <path
         d="m 216.75038,103.96395 2.10347,0 -3.1552,3.1552 z m -4.20692,11.56905 c -0.87645,-0.87644 -1.31467,-1.92817 -1.31467,-3.15519 0,-1.22702 0.43822,-2.27875 1.31467,-3.1552 0.87644,-0.87643 1.92817,-1.31466 3.15519,-1.31466 1.22701,0 2.27874,0.43823 3.1552,1.31466 0.87643,0.87645 1.31465,1.92818 1.31466,3.1552 -1e-5,1.22702 -0.43823,2.27875 -1.31466,3.15519 -0.87646,0.87644 -1.92819,1.31466 -3.1552,1.31466 -1.22702,0 -2.27875,-0.43822 -3.15519,-1.31466 z m 1.48567,-4.82472 c -0.46459,0.46459 -0.69688,1.0211 -0.69688,1.66953 0,0.64843 0.23229,1.20494 0.69688,1.66952 0.46458,0.46458 1.02108,0.69687 1.66952,0.69687 0.64843,0 1.20493,-0.23229 1.66952,-0.69687 0.46458,-0.46458 0.69687,-1.02109 0.69688,-1.66952 -1e-5,-0.64843 -0.2323,-1.20494 -0.69688,-1.66953 -0.46459,-0.46457 -1.02109,-0.69686 -1.66952,-0.69687 -0.64844,1e-5 -1.20494,0.2323 -1.66952,0.69687 z"
         id="path2934"
         style="fill:#000000" />
      <path
         d="m 222.79784,108.17088 2.10347,0 0,0.44678 c 0.66623,-0.29785 1.36738,-0.44677 2.10346,-0.44678 l 0,2.10346 c -0.80626,1e-5 -1.50742,0.27167 -2.10346,0.81499 l 0,5.4954 -2.10347,0 z"
         id="path2936"
         style="fill:#000000" />
    </g>
    <g
       transform="matrix(1.3790387,0,0,1.4180913,-29.583331,-178.44115)"
       id="text4034"
       style="font-size:16.82770729px;font-style:normal;font-variant:normal;font-weight:bold;font-stretch:normal;text-align:start;line-height:125%;writing-mode:lr-tb;text-anchor:start;fill:#000000;fill-opacity:1;stroke:none;font-family:Drogowskaz;-inkscape-font-specification:Drogowskaz Bold">
      <path
         d="m 182.76847,141.29576 c -0.87645,-0.87644 -1.31467,-1.92818 -1.31467,-3.1552 0,-1.22701 0.43822,-2.27874 1.31467,-3.15519 0.87644,-0.87644 1.92817,-1.31466 3.15519,-1.31467 1.22701,1e-5 2.27874,0.43823 3.1552,1.31467 0.87643,0.87645 1.31465,1.92818 1.31466,3.15519 -1e-5,1.22702 -0.43823,2.27876 -1.31466,3.1552 -0.87646,0.87644 -1.92819,1.31466 -3.1552,1.31466 -1.22702,0 -2.27875,-0.43822 -3.15519,-1.31466 z m 1.48567,-4.82472 c -0.46459,0.46459 -0.69688,1.0211 -0.69688,1.66952 0,0.64844 0.23229,1.20494 0.69688,1.66952 0.46458,0.46459 1.02108,0.69688 1.66952,0.69688 0.64843,0 1.20493,-0.23229 1.66952,-0.69688 0.46458,-0.46458 0.69687,-1.02108 0.69688,-1.66952 -1e-5,-0.64842 -0.2323,-1.20493 -0.69688,-1.66952 -0.46459,-0.46458 -1.02109,-0.69687 -1.66952,-0.69687 -0.64844,0 -1.20494,0.23229 -1.66952,0.69687 z"
         id="path2917"
         style="fill:#000000" />
      <path
         d="m 195.7441,136.6287 c -0.41186,0.41186 -0.61779,0.91582 -0.61779,1.51186 0,0.59605 0.20593,1.10001 0.61779,1.51187 0.41186,0.41186 0.90708,0.61779 1.48568,0.61779 0.57858,0 1.0738,-0.20593 1.48567,-0.61779 0.41185,-0.41186 0.61778,-0.91582 0.61779,-1.51187 -1e-5,-0.59604 -0.20594,-1.1 -0.61779,-1.51186 -0.41187,-0.41186 -0.90709,-0.61779 -1.48567,-0.61779 -0.5786,0 -1.07382,0.20593 -1.48568,0.61779 z m -2.72125,-2.69507 2.10346,0 0,0.57825 c 0.64843,-0.38549 1.34958,-0.57824 2.10347,-0.57825 1.15683,1e-5 2.14719,0.41196 2.97109,1.23584 0.82388,0.8239 1.23582,1.81426 1.23583,2.97109 -1e-5,1.15684 -0.41195,2.1472 -1.23583,2.97109 -0.8239,0.82389 -1.81426,1.23584 -2.97109,1.23584 -0.75389,0 -1.45504,-0.19275 -2.10347,-0.57825 l 0,4.78518 -2.10346,0 z"
         id="path2919"
         style="fill:#000000" />
      <path
         d="m 205.05203,129.72671 2.10347,0 0,3.15519 2.10346,-1.05173 0,2.10346 -2.10346,1.05174 0,7.36212 -2.10347,0 0,-6.31039 -2.10346,1.05173 0,-2.10346 2.10346,-1.05174 z"
         id="path2921"
         style="fill:#000000" />
      <path
         d="m 211.49389,141.11191 c -0.82372,-0.82406 -1.23558,-1.81451 -1.23558,-2.97135 0,-1.15683 0.41186,-2.14719 1.23558,-2.97109 0.82371,-0.82388 1.81416,-1.23583 2.97134,-1.23584 0.75353,1e-5 1.45469,0.19276 2.10347,0.57825 l 0,-0.57825 2.10346,0 0,6.31039 0.52587,2.10347 -2.10347,0 -0.18436,-0.7888 c -0.73608,0.52587 -1.55107,0.7888 -2.44497,0.7888 -1.15718,0 -2.14763,-0.41186 -2.97134,-1.23558 z m 1.48567,-4.48321 c -0.41186,0.41186 -0.61779,0.91582 -0.61779,1.51186 0,0.59605 0.20593,1.10001 0.61779,1.51187 0.41186,0.41186 0.90699,0.61779 1.48542,0.61779 0.57841,0 1.07363,-0.20593 1.48567,-0.61779 0.41203,-0.41186 0.61804,-0.91582 0.61805,-1.51187 -1e-5,-0.59604 -0.20602,-1.1 -0.61805,-1.51186 -0.41204,-0.41186 -0.90726,-0.61779 -1.48567,-0.61779 -0.57843,0 -1.07356,0.20593 -1.48542,0.61779 z"
         id="path2923"
         style="fill:#000000" />
      <path
         d="m 222.33987,131.83017 2.10347,-2.10346 0,4.20692 1.57759,0 0,2.10347 -1.57759,0 0,3.15519 c -1e-5,0.29786 0.10082,0.54761 0.30247,0.74926 0.20165,0.20165 0.4514,0.30248 0.74926,0.30247 l 1.10411,0 -1.10411,2.10347 c -0.87645,0 -1.62143,-0.30676 -2.23493,-0.92027 -0.61352,-0.61351 -0.92027,-1.35848 -0.92027,-2.23493 l 0,-3.15519 -1.5776,0 0,-2.10347 1.5776,0 z"
         id="path2925"
         style="fill:#000000" />
    </g>
  </g>
</svg>
