<?xml version="1.0" encoding="UTF-8" standalone="no"?>
<!-- Created with Inkscape (http://www.inkscape.org/) -->

<svg
   xmlns:svg="http://www.w3.org/2000/svg"
   xmlns="http://www.w3.org/2000/svg"
   version="1.0"
   width="401.02414"
   height="613.86719"
   id="svg10889">
  <desc
     id="desc10891">wmf2svg</desc>
  <defs
     id="defs10904">
    <pattern
       id="pattern4002-9"
       patternTransform="translate(18.50938,18)"
       height="476"
       width="370"
       patternUnits="userSpaceOnUse">
      <rect
         style="fill:#00e5ff;fill-opacity:1"
         id="rect2240-4"
         width="370"
         height="476"
         x="0"
         y="0"
         rx="20"
         ry="20" />
    </pattern>
    <pattern
       id="pattern4002-1"
       patternTransform="translate(18.50938,18)"
       height="476"
       width="370"
       patternUnits="userSpaceOnUse">
      <rect
         style="fill:#00e5ff;fill-opacity:1"
         id="rect2240-7"
         width="370"
         height="476"
         x="0"
         y="0"
         rx="20"
         ry="20" />
    </pattern>
    <pattern
       id="pattern4002"
       patternTransform="translate(18.50938,18)"
       height="476"
       width="370"
       patternUnits="userSpaceOnUse">
      <rect
         style="fill:#00e5ff;fill-opacity:1"
         id="rect2240"
         width="370"
         height="476"
         x="0"
         y="0"
         rx="20"
         ry="20" />
    </pattern>
    <pattern
       id="pattern4002-9-7"
       patternTransform="translate(18.50938,18)"
       height="476"
       width="370"
       patternUnits="userSpaceOnUse">
      <rect
         style="fill:#00e5ff;fill-opacity:1"
         id="rect2240-4-1"
         width="370"
         height="476"
         x="0"
         y="0"
         rx="20"
         ry="20" />
    </pattern>
    <pattern
       id="pattern4002-1-5"
       patternTransform="translate(18.50938,18)"
       height="476"
       width="370"
       patternUnits="userSpaceOnUse">
      <rect
         style="fill:#00e5ff;fill-opacity:1"
         id="rect2240-7-1"
         width="370"
         height="476"
         x="0"
         y="0"
         rx="20"
         ry="20" />
    </pattern>
    <pattern
       id="pattern4002-4"
       patternTransform="translate(18.50938,18)"
       height="476"
       width="370"
       patternUnits="userSpaceOnUse">
      <rect
         style="fill:#00e5ff;fill-opacity:1"
         id="rect2240-5"
         width="370"
         height="476"
         x="0"
         y="0"
         rx="20"
         ry="20" />
    </pattern>
    <pattern
       id="pattern5932"
       patternTransform="translate(18.50938,18)"
       height="476"
       width="370"
       patternUnits="userSpaceOnUse">
      <rect
         style="fill:#00e5ff;fill-opacity:1"
         id="rect5934"
         width="370"
         height="476"
         x="0"
         y="0"
         rx="20"
         ry="20" />
    </pattern>
    <pattern
       patternUnits="userSpaceOnUse"
       width="370"
       height="476"
       patternTransform="translate(18.50938,18)"
       id="pattern4002-7">
      <rect
         ry="20"
         rx="20"
         y="0"
         x="0"
         height="476"
         width="370"
         id="rect2240-6"
         style="fill:#00e5ff;fill-opacity:1" />
    </pattern>
    <marker
       refX="0"
       refY="0"
       orient="auto"
       id="Arrow2Lstart"
       style="overflow:visible">
      <path
         d="M 8.7185878,4.0337352 -2.2072895,0.01601326 8.7185884,-4.0017078 c -1.7454984,2.3720609 -1.7354408,5.6174519 -6e-7,8.035443 z"
         transform="matrix(1.1,0,0,1.1,1.1,0)"
         id="path5785"
         style="font-size:12px;fill-rule:evenodd;stroke-width:0.625;stroke-linejoin:round" />
    </marker>
    <pattern
       id="pattern4002-3"
       patternTransform="translate(18.50938,18)"
       height="476"
       width="370"
       patternUnits="userSpaceOnUse">
      <rect
         style="fill:#00e5ff;fill-opacity:1"
         id="rect2240-2"
         width="370"
         height="476"
         x="0"
         y="0"
         rx="20"
         ry="20" />
    </pattern>
  </defs>
  <g
     transform="translate(-87.21953,-44.643374)"
     id="layer1-2">
    <g
       transform="translate(-339.41126,14.142136)"
       id="g3388">
      <g
         transform="matrix(0.9877442,0,0,1.1989594,426.63079,30.501238)"
         id="g1978">
        <rect
           width="406"
           height="512"
           rx="42.232651"
           ry="36.639618"
           x="0"
           y="0"
           id="rect1363"
           style="fill:#003399;fill-opacity:1" />
        <rect
           width="394"
           height="500"
           rx="35.564335"
           ry="30.854416"
           x="6"
           y="6"
           id="rect1365"
           style="fill:#003399;fill-opacity:1;stroke:#ffffff;stroke-width:4.59457684;stroke-miterlimit:4;stroke-opacity:1;stroke-dasharray:none" />
      </g>
      <g
         id="g3382">
        <path
           d="m 821.35718,34.076473 4,2.16526 -4,-2.16526 z M 746.79876,462.51843 c 12.35166,-17.99174 21.4518,-38.09111 26.23364,-57.94196 2.9276,-12.15332 3.60039,-35.32684 1.39357,-48 -3.23888,-18.60006 -11.55256,-38.81533 -21.96223,-53.40266 -5.98318,-8.38437 -13.50431,-16.59734 -15.19923,-16.59734 -2.68356,0 -1.38077,3.09153 3.95173,9.37744 13.91339,16.40098 22.4648,33.27516 27.68136,54.62256 3.08504,12.62471 3.36134,37.02328 0.56592,49.97315 -4.25265,19.70052 -13.25575,40.07695 -26.11451,59.1042 -4.12546,6.10448 -7.23185,11.53428 -6.9031,12.06622 1.39706,2.26049 4.1851,-0.21751 10.35285,-9.20161 z m -18.8506,-5.19196 c 1.19289,-1.2375 4.61446,-5.96355 7.60349,-10.50233 23.16266,-35.17209 26.98226,-75.02919 10.85506,-113.27138 -5.45344,-12.93165 -17.24133,-30.87657 -21.3076,-32.43695 -4.10645,-1.57579 -3.03971,1.74393 3.17961,9.8951 25.439,33.34084 30.67011,79.1974 13.23351,116.00644 -4.45143,9.39707 -11.81528,21.54644 -16.31708,26.92101 -1.87055,2.23319 -2.14407,3.16682 -1.24511,4.25 1.47888,1.78194 1.44192,1.7899 3.99812,-0.86189 z m -9.25558,-19.59876 c 12.91753,-17.61227 18.23757,-33.45355 18.35374,-54.65124 0.0994,-18.13315 -3.81409,-34.10259 -12.46026,-50.84597 -3.80417,-7.36681 -12.79606,-18.65403 -14.86061,-18.65403 -2.70951,0 -1.6791,3.41654 2.3981,7.95137 8.40661,9.35018 16.4032,27.58383 19.26586,43.92962 4.72098,26.95681 -2.08046,52.69118 -19.63466,74.29093 -2.33438,2.87236 -1.98928,6.18424 0.54313,5.21246 0.83403,-0.32004 3.71164,-3.57496 6.3947,-7.23314 z m -16.93533,-10.84618 c 4.51284,-5.47485 10.83408,-18.71314 13.27684,-27.80506 4.45459,-16.57997 2.33704,-38.7453 -5.16766,-54.09207 -3.58433,-7.32979 -10.44944,-15.40793 -13.09424,-15.40793 -2.87341,0 -2.34256,1.70737 2.10008,6.75448 18.41714,20.92298 18.63129,61.11997 0.46035,86.41259 -1.91149,2.66066 -3.47544,5.51152 -3.47544,6.33524 0,2.6374 2.76316,1.60837 5.90007,-2.19725 z m -73.29484,-1.34507 2.39477,-0.91049 0,-45.48957 c 0,-43.95074 -0.0654,-45.52458 -1.93426,-46.52475 -1.1308,-0.60518 -9.52073,-1.03518 -20.19814,-1.03518 l -18.26388,0 -9.05186,-5.25 -9.05186,-5.25 -14.5,0 -14.5,0 -9.11867,5.25 -9.11868,5.25 -18.38132,0.0137 c -10.10973,0.008 -19.39383,0.285 -20.63133,0.61664 l -2.25,0.60297 0,46.32301 0,46.323 3.75,0.40692 c 7.85239,0.85209 138.5522,0.54941 140.85523,-0.3262 z m -80.58099,-10.49875 c -14.99091,-4.20454 -25.44253,-15.35929 -28.60575,-30.53016 -2.78922,-13.37715 1.07408,-26.32841 10.73562,-35.98995 19.45286,-19.45286 51.85393,-13.95182 64.07819,10.87916 3.06261,6.22107 3.2677,7.29797 3.2677,17.15868 0,9.33705 -0.30338,11.1684 -2.69589,16.27367 -8.19812,17.49365 -28.76972,27.25996 -46.77987,22.2086 z m 24.8678,-7.37491 c 6.54803,-3.38715 13.73137,-10.61995 16.84579,-16.96179 2.35844,-4.80244 2.76217,-6.86692 2.76217,-14.12454 0,-7.2717 -0.40191,-9.31843 -2.78131,-14.16366 -9.92538,-20.21135 -34.5939,-26.37527 -52.21869,-13.04788 -5.19077,3.92513 -10.82317,12.11662 -12.51266,18.19782 -0.5369,1.93255 -0.97619,5.98872 -0.97619,9.01372 0,7.12764 1.20685,11.28386 5.22061,17.97905 3.76148,6.27438 11.26027,12.4059 17.76824,14.52852 6.79535,2.21635 20.29207,1.4755 25.89204,-1.42124 z m 116.54762,3.88844 c 6.49883,-8.82804 10.58676,-20.98805 10.54298,-31.36126 -0.0478,-11.31963 -5.59902,-26.19949 -12.92014,-34.6319 -3.17892,-3.66147 -4.13131,-4.24782 -5.20426,-3.20409 -0.89015,0.86591 -0.99833,1.70367 -0.33576,2.60013 10.13197,13.70866 13.42581,22.21888 13.45643,34.76701 0.027,11.06856 -2.56614,19.66535 -8.58272,28.45348 -4.16591,6.08493 -5.02161,9.40186 -2.42551,9.40186 0.5684,0 3.02944,-2.71136 5.46898,-6.02523 z m -16.75993,-9.75545 c 5.71452,-7.7293 6.82028,-11.25073 6.82007,-21.71932 -1.8e-4,-8.90588 -0.30372,-10.61792 -2.7742,-15.64764 -3.26075,-6.63864 -5.28165,-8.69631 -6.92595,-7.05201 -0.82078,0.82078 -0.25409,2.86554 2.14447,7.73771 5.69551,11.56922 5.28994,20.70891 -1.4129,31.84007 -1.93356,3.211 -3.26753,6.23951 -2.96438,6.73003 1.02275,1.65483 3.04537,0.90762 5.11289,-1.88884 z m -14.19524,-14.18492 c 2.33044,-5.168 2.27074,-11.05649 -0.15418,-15.20853 -3.69059,-6.31916 -6.17574,-3.31201 -3.22673,3.9045 1.30586,3.19559 1.09977,4.77533 -1.76376,13.51963 -0.41502,1.26732 -0.0312,1.75 1.39167,1.75 1.32209,0 2.54969,-1.29715 3.753,-3.9656 z m -153.98449,-73.0344 0,-10.5 -7.25,-0.29381 -7.25,-0.29381 0,11.08762 0,11.08762 7.25,-0.29381 7.25,-0.29381 0,-10.5 z"
           id="path3344"
           style="fill:#ffffff;fill-opacity:1" />
        <g
           id="g3378">
          <path
             d="m 470.47323,72.861994 0,49.500186 8.25003,0 0,-16.54203 4.02272,-4.59156 14.77982,21.13359 10.07257,0 -19.25413,-27.523443 19.25413,-21.976743 -10.96378,0 -17.91133,20.438834 0,-20.438834 -8.25003,0 0,0 z m 41.63671,33.000126 c 0.12564,4.96429 1.83786,9.09583 5.13668,12.39463 3.29879,3.29882 7.43034,5.01104 12.39464,5.13669 4.96425,-0.12565 9.0958,-1.83787 12.39464,-5.13669 3.29877,-3.2988 5.01099,-7.43034 5.13667,-12.39463 -0.12568,-4.96426 -1.8379,-9.095807 -5.13667,-12.394642 -3.29884,-3.298778 -7.43039,-5.011001 -12.39464,-5.136675 -4.9643,0.125675 -9.09585,1.837898 -12.39465,5.136676 -3.29881,3.298835 -5.01103,7.430381 -5.13667,12.394641 l 0,0 z m 8.25003,0 c 0.0665,-2.62813 0.97298,-4.81542 2.71942,-6.56187 1.74641,-1.746404 3.9337,-2.652876 6.56187,-2.719416 2.62812,0.06654 4.81541,0.973013 6.56186,2.719416 1.7464,1.74645 2.65287,3.93374 2.71942,6.56187 -0.0665,2.62816 -0.97302,4.81545 -2.71942,6.56187 -1.74645,1.74643 -3.93374,2.65291 -6.56186,2.71942 -2.62817,-0.0665 -4.81546,-0.97299 -6.56187,-2.71942 -1.74645,-1.74642 -2.65292,-3.93371 -2.71942,-6.56187 l 0,0 z m 37.12498,-16.500063 0,33.000123 8.25003,0 0,-18.56257 c 0.0447,-1.75244 0.6492,-3.21074 1.81344,-4.374888 1.16421,-1.164107 2.62224,-1.768317 4.37408,-1.812634 1.75208,0.04437 3.21027,0.648684 4.37458,1.812945 1.16426,1.164307 1.76858,2.622497 1.81295,4.374577 l 0,18.56257 8.25003,0 0,-20.62508 c -0.0923,-3.504171 -1.30803,-6.420554 -3.64724,-8.749154 -2.33927,-2.32854 -5.24854,-3.537169 -8.72781,-3.625889 -1.5968,0.0092 -3.09627,0.295432 -4.49843,0.858803 -1.4022,0.563435 -2.65273,1.34919 -3.7516,2.357266 l 0,-3.216069 -8.25003,0 0,0 z m 43.31251,-8.250032 0,8.250032 -6.18753,0 0,8.250031 6.18753,0 0,12.375052 c 0.0887,3.50421 1.2973,6.4206 3.62589,8.74916 2.32855,2.32857 5.24494,3.5372 8.74915,3.62588 l 4.27971,-8.25003 -4.27971,0 c -1.16808,-0.0296 -2.14021,-0.43243 -2.91638,-1.20862 -0.77621,-0.77618 -1.17909,-1.74831 -1.20863,-2.91639 l 0,-12.375052 6.18752,0 0,-8.250031 -6.18752,0 0,-16.500063 -8.25003,8.250031 0,0 z m 24.87889,8.250032 0,33.000123 8.25004,0 0,-21.59652 c 1.10376,-0.989235 2.35644,-1.759934 3.75801,-2.312094 1.40154,-0.552114 2.89888,-0.832606 4.49202,-0.841478 l 0,-8.250031 c -2.95608,0.02092 -5.70609,0.605841 -8.25003,1.75478 l 0,-1.75478 -8.25004,0 0,0 z m 22.6875,16.500063 c 0.12563,4.96429 1.83786,9.09583 5.13667,12.39463 3.2988,3.29882 7.43034,5.01104 12.39464,5.13669 4.96426,-0.12565 9.0958,-1.83787 12.39464,-5.13669 3.29877,-3.2988 5.011,-7.43034 5.13668,-12.39463 -0.12568,-4.96426 -1.8379,-9.095807 -5.13668,-12.394642 -3.29884,-3.298778 -7.43038,-5.011001 -12.39464,-5.136675 -4.9643,0.125675 -9.09584,1.837898 -12.39464,5.136676 -3.29881,3.298835 -5.01104,7.430381 -5.13667,12.394641 l 0,0 z m 8.25003,0 c 0.0665,-2.62813 0.97297,-4.81542 2.71941,-6.56187 1.74642,-1.746404 3.9337,-2.652876 6.56187,-2.719416 2.62813,0.06654 4.81542,0.973013 6.56187,2.719416 1.7464,1.74645 2.65287,3.93374 2.71942,6.56187 -0.0666,2.62816 -0.97302,4.81545 -2.71942,6.56187 -1.74646,1.74643 -3.93374,2.65291 -6.56187,2.71942 -2.62817,-0.0665 -4.81545,-0.97299 -6.56187,-2.71942 -1.74644,-1.74642 -2.65291,-3.93371 -2.71941,-6.56187 l 0,0 z m 37.12497,-33.000126 0,49.500186 8.25004,0 0,-49.500186 -8.25004,0 0,0 z m 18.35625,33.000126 c 0.1203,4.65784 1.73593,8.54223 4.84689,11.65317 3.11093,3.11095 6.99532,4.72658 11.65317,4.84689 1.78217,-0.007 3.47965,-0.27684 5.09242,-0.80894 1.61272,-0.53209 3.09753,-1.28342 4.45441,-2.254 l 0.76571,3.06294 8.25003,0 -2.06251,-8.25003 0,-24.750093 -8.25003,0 0,2.225344 c -1.21971,-0.711342 -2.52357,-1.25899 -3.91158,-1.642945 -1.38807,-0.38389 -2.83422,-0.578023 -4.33845,-0.582399 -4.65785,0.120346 -8.54223,1.735975 -11.65317,4.846892 -3.11096,3.110974 -4.72659,6.995361 -4.84689,11.653171 l 0,0 z m 8.25003,0 c 0.0601,-2.37831 0.86796,-4.35058 2.42344,-5.916821 1.55546,-1.566193 3.49766,-2.378305 5.82659,-2.436336 2.32889,0.05803 4.27108,0.870144 5.82658,2.436337 1.55545,1.56624 2.36326,3.53851 2.42345,5.91682 -0.0602,2.37834 -0.868,4.35061 -2.42345,5.91682 -1.5555,1.56622 -3.49769,2.37834 -5.82658,2.43634 -2.32894,-0.058 -4.27113,-0.87011 -5.82659,-2.43634 -1.55549,-1.56621 -2.3633,-3.53848 -2.42344,-5.91682 l 0,0 z m -241.62187,82.5 c 0.0601,-2.37831 0.86796,-4.35058 2.42345,-5.91682 1.55545,-1.56619 3.49765,-2.37831 5.82658,-2.43634 2.32889,0.058 4.27108,0.87015 5.82659,2.43634 1.55544,1.56624 2.36326,3.53851 2.42344,5.91682 -0.0602,2.37834 -0.868,4.35061 -2.42344,5.91682 -1.55551,1.56622 -3.4977,2.37834 -5.82659,2.43634 -2.32893,-0.058 -4.27113,-0.87011 -5.82658,-2.43634 -1.5555,-1.56621 -2.36331,-3.53848 -2.42345,-5.91682 l 0,0 z m -8.25003,-16.50006 0,49.50019 8.25003,0 0,-18.72542 c 1.21967,0.71137 2.52353,1.25901 3.91159,1.64294 1.38802,0.38393 2.83417,0.57807 4.33844,0.58241 4.65781,-0.12031 8.54219,-1.73594 11.65317,-4.84689 3.11091,-3.11094 4.72654,-6.99533 4.8469,-11.65317 -0.12036,-4.65781 -1.73599,-8.5422 -4.8469,-11.65317 -3.11098,-3.11092 -6.99537,-4.72655 -11.65317,-4.84689 -1.50427,0.004 -2.95042,0.19851 -4.33844,0.5824 -1.38807,0.38395 -2.69193,0.9316 -3.91159,1.64294 l 0,-2.22534 -8.25003,0 0,0 z m 43.05469,0 0,33.00012 8.25003,0 0,-21.59652 c 1.10377,-0.98924 2.35644,-1.75993 3.75802,-2.31209 1.40154,-0.55212 2.89887,-0.83261 4.49201,-0.84148 l 0,-8.25003 c -2.95608,0.0209 -5.70608,0.60584 -8.25003,1.75478 l 0,-1.75478 -8.25003,0 0,0 z m 52.3876,44.24079 c -1.52328,-0.4963 -2.75648,-1.38576 -3.69962,-2.66837 -0.9432,-1.28263 -1.42875,-2.76506 -1.45665,-4.44728 -3e-5,-0.77774 0.1031,-1.51681 0.30938,-2.2172 0.20622,-0.70039 0.51559,-1.33633 0.92813,-1.90782 -1.25472,0.94317 -2.2516,2.12481 -2.99064,3.54494 -0.73909,1.42011 -1.11722,2.98848 -1.13438,4.70509 0.0172,1.7166 0.39529,3.28497 1.13438,4.7051 0.73904,1.42011 1.73592,2.60175 2.99064,3.54494 l 3.91876,-5.2594 0,0 z m -3.40314,-30.83449 -17.53131,0 c 0.65526,-1.8369 1.76815,-3.31933 3.33868,-4.44729 1.5705,-1.12791 3.37949,-1.70798 5.42698,-1.74024 2.04744,0.0323 3.85643,0.61234 5.42697,1.74025 1.57048,1.12795 2.68338,2.61038 3.33868,4.44728 l 0,0 z m -17.53131,6.18752 23.20321,0 0,-12.9938 c -1.62641,-2.34822 -3.68462,-4.20018 -6.17463,-5.55588 -2.49008,-1.35564 -5.24438,-2.04743 -8.26292,-2.0754 -4.97153,0.12465 -9.10513,1.83481 -12.40083,5.13049 -3.29573,3.29574 -5.00589,7.42935 -5.13049,12.40083 0.1246,4.97151 1.83476,9.10512 5.13049,12.40083 3.2957,3.29571 7.42931,5.00587 12.40083,5.13049 0.94529,-0.0172 1.83904,-0.0859 2.68126,-0.20625 l 5.56877,-0.82501 4.12501,-8.25003 c -0.10698,0.0127 -0.99309,0.10186 -2.65834,0.26736 -1.66532,0.16552 -3.4681,0.33103 -5.40836,0.49653 -1.94031,0.16552 -3.37642,0.25464 -4.30834,0.26737 -2.04105,-0.0258 -3.83715,-0.59297 -5.38831,-1.70157 -1.55119,-1.10859 -2.67697,-2.60391 -3.37735,-4.48596 l 0,0 z m 31.24684,-3.09376 c 0.12031,4.65784 1.73594,8.54223 4.84689,11.65317 3.11094,3.11095 6.99532,4.72658 11.65317,4.84689 1.50423,-0.004 2.95038,-0.19848 4.33845,-0.58241 1.38801,-0.38392 2.69187,-0.93157 3.91158,-1.64294 l 0,2.22535 8.25003,0 0,-49.50019 -8.25003,0 0,18.72541 c -1.2197,-0.71134 -2.52356,-1.25899 -3.91158,-1.64294 -1.38807,-0.38389 -2.83422,-0.57803 -4.33845,-0.5824 -4.65785,0.12034 -8.54223,1.73597 -11.65317,4.84689 -3.11095,3.11097 -4.72658,6.99536 -4.84689,11.65317 l 0,0 z m 8.25003,0 c 0.0601,-2.37831 0.86796,-4.35058 2.42345,-5.91682 1.55546,-1.56619 3.49765,-2.37831 5.82658,-2.43634 2.32889,0.058 4.27109,0.87015 5.82658,2.43634 1.55545,1.56624 2.36327,3.53851 2.42345,5.91682 -0.0602,2.37834 -0.868,4.35061 -2.42344,5.91682 -1.5555,1.56622 -3.4977,2.37834 -5.82659,2.43634 -2.32893,-0.058 -4.27113,-0.87011 -5.82659,-2.43634 -1.55548,-1.56621 -2.3633,-3.53848 -2.42344,-5.91682 l 0,0 z m 37.07341,-33.00013 0,49.50019 8.25004,0 0,-12.32348 3.13243,0 9.24261,12.32348 10.31172,0 -12.37423,-16.50006 12.37423,-16.49934 -10.31172,0 -9.24261,12.32276 -3.13243,0 0,-28.82355 -8.25004,0 0,0 z m 35.0625,33.00013 c 0.12563,4.96429 1.83786,9.09583 5.13667,12.39463 3.2988,3.29882 7.43034,5.01104 12.39464,5.13669 4.96426,-0.12565 9.0958,-1.83787 12.39464,-5.13669 3.29877,-3.2988 5.011,-7.43034 5.13668,-12.39463 -0.12568,-4.96426 -1.8379,-9.09581 -5.13668,-12.39464 -3.29884,-3.29878 -7.43038,-5.011 -12.39464,-5.13668 -4.9643,0.12568 -9.09584,1.8379 -12.39464,5.13668 -3.29881,3.29883 -5.01104,7.43038 -5.13667,12.39464 l 0,0 z m 8.25003,0 c 0.0665,-2.62813 0.97297,-4.81542 2.71941,-6.56187 1.74642,-1.7464 3.9337,-2.65288 6.56187,-2.71942 2.62813,0.0666 4.81542,0.97302 6.56187,2.71942 1.7464,1.74645 2.65287,3.93374 2.71942,6.56187 -0.0666,2.62816 -0.97302,4.81545 -2.71942,6.56187 -1.74646,1.74643 -3.93374,2.65291 -6.56187,2.71942 -2.62817,-0.0665 -4.81545,-0.97299 -6.56187,-2.71942 -1.74644,-1.74642 -2.65291,-3.93371 -2.71941,-6.56187 l 0,0 z m 51.59635,-33.00013 -4.12501,12.37505 12.37505,-12.37505 -8.25004,0 0,0 z m -4.12501,16.50007 c -2.56096,0.058 -4.76097,0.94749 -6.60002,2.66837 -1.83908,1.72093 -2.80158,3.92523 -2.88751,6.61291 0.0838,2.15706 0.6123,3.87582 1.58556,5.15627 0.97323,1.28049 1.88846,2.17425 2.7457,2.68126 l 6.70315,3.91877 c 0.47049,0.26642 0.84432,0.63595 1.12149,1.1086 0.27713,0.47266 0.41892,0.99688 0.42539,1.57266 -0.0194,0.89591 -0.31584,1.63068 -0.88946,2.2043 -0.57365,0.57364 -1.30842,0.87013 -2.2043,0.88946 -1.94738,-0.009 -3.78457,-0.19763 -5.51156,-0.56714 -1.72702,-0.3695 -3.33862,-0.86792 -4.83481,-1.49526 l -2.26875,6.9094 c 1.81876,0.74544 3.80091,1.32549 5.94644,1.74013 2.14551,0.41465 4.3684,0.6252 6.66868,0.63165 2.91112,-0.0752 5.33886,-1.08497 7.28323,-3.02931 1.94431,-1.94434 2.95408,-4.37208 3.02931,-7.28323 -0.0237,-1.9293 -0.49202,-3.66524 -1.40508,-5.20784 -0.91312,-1.54256 -2.12914,-2.76288 -3.64807,-3.66095 l -6.29064,-3.81564 c -0.3137,-0.15681 -0.56292,-0.38455 -0.74767,-0.6832 -0.18478,-0.29861 -0.27931,-0.65526 -0.28359,-1.06993 0.015,-0.5822 0.21698,-1.06775 0.60586,-1.45664 0.38886,-0.38885 0.8744,-0.5908 1.45665,-0.60587 1.27383,0.004 2.52243,0.0989 3.74581,0.28361 1.22333,0.1848 2.35806,0.43405 3.40418,0.74775 l 0,-7.42492 c -0.95911,-0.24875 -2.0455,-0.44754 -3.25916,-0.59638 -1.21371,-0.14877 -2.51065,-0.22505 -3.89083,-0.22883 l 0,0 z m 46.92286,30.18653 -3.85029,-7.70283 c -0.8599,1.02154 -1.89947,1.82375 -3.11872,2.40664 -1.21929,0.58291 -2.55163,0.87991 -3.99703,0.891 -2.64261,-0.0644 -4.83402,-0.96679 -6.57425,-2.70704 -1.74025,-1.74023 -2.6426,-3.93164 -2.70704,-6.57424 0.0644,-2.64257 0.96679,-4.83398 2.70704,-6.57425 1.74023,-1.74021 3.93164,-2.64256 6.57425,-2.70704 1.33053,0.009 2.56725,0.26243 3.71017,0.76117 1.14286,0.49879 2.13976,1.19048 2.99071,2.07509 l 3.21143,-8.02357 c -1.41591,-0.97312 -2.9601,-1.72516 -4.63259,-2.25611 -1.67254,-0.53089 -3.43245,-0.79976 -5.27972,-0.80661 -4.97152,0.12464 -9.10513,1.8348 -12.40083,5.13049 -3.29572,3.29574 -5.00588,7.42935 -5.13049,12.40083 0.12461,4.97151 1.83477,9.10512 5.13049,12.40082 3.2957,3.29572 7.42931,5.00588 12.40083,5.13049 2.08615,-0.01 4.05777,-0.34978 5.91487,-1.01997 1.85704,-0.67019 3.54076,-1.61181 5.05117,-2.82487 l 0,0 z m 9.63312,-30.18653 0,33.00012 8.25003,0 0,-33.00012 -8.25003,0 0,0 z m 0,-16.50007 0,8.25004 8.25003,0 0,-8.25004 -8.25003,0 0,0 z"
             id="text3362"
             style="font-size:66px;font-style:normal;font-variant:normal;font-weight:bold;font-stretch:normal;text-align:start;line-height:125%;writing-mode:lr-tb;text-anchor:start;fill:#ffffff;fill-opacity:1;stroke:none;font-family:Drogowskaz;-inkscape-font-specification:Drogowskaz Bold" />
          <path
             d="m 471.58041,563.96914 18.56257,0 0,-8.25003 -26.8126,0 0,49.50019 8.25003,0 0,-20.62508 14.43755,0 0,-8.25003 -14.43755,0 0,-12.37505 0,0 z m 22.68746,24.7501 c 0.12564,4.96428 1.83786,9.09582 5.13667,12.39463 3.2988,3.29881 7.43034,5.01104 12.39465,5.13668 4.96425,-0.12564 9.09579,-1.83787 12.39463,-5.13668 3.29878,-3.29881 5.011,-7.43035 5.13668,-12.39463 -0.12568,-4.96427 -1.8379,-9.09581 -5.13667,-12.39465 -3.29885,-3.29877 -7.43039,-5.011 -12.39464,-5.13667 -4.96431,0.12567 -9.09585,1.8379 -12.39465,5.13668 -3.29881,3.29883 -5.01104,7.43037 -5.13667,12.39464 l 0,0 z m 8.25003,0 c 0.0665,-2.62813 0.97297,-4.81542 2.71942,-6.56187 1.74641,-1.74641 3.9337,-2.65288 6.56187,-2.71942 2.62812,0.0665 4.81541,0.97301 6.56186,2.71942 1.7464,1.74645 2.65287,3.93373 2.71942,6.56187 -0.0666,2.62816 -0.97302,4.81545 -2.71942,6.56186 -1.74645,1.74644 -3.93374,2.65291 -6.56186,2.71942 -2.62817,-0.0665 -4.81546,-0.97298 -6.56187,-2.71942 -1.74645,-1.74641 -2.65292,-3.9337 -2.71942,-6.56186 l 0,0 z m 39.18748,-24.7501 0,8.25003 -6.18752,0 0,8.25003 6.18752,0 0,12.37505 c 0.0887,3.50422 1.29731,6.42061 3.62589,8.74917 2.32856,2.32857 5.24494,3.53719 8.74916,3.62588 l 4.27971,-8.25003 -4.27971,0 c -1.16808,-0.0296 -2.14021,-0.43243 -2.91638,-1.20863 -0.77621,-0.77617 -1.17909,-1.7483 -1.20863,-2.91639 l 0,-12.37505 6.18752,0 0,-8.25003 -6.18752,0 0,-16.50006 -8.25004,8.25003 0,0 z m 22.81639,24.7501 c 0.12564,4.96428 1.83787,9.09582 5.13668,12.39463 3.2988,3.29881 7.43034,5.01104 12.39464,5.13668 4.96426,-0.12564 9.0958,-1.83787 12.39464,-5.13668 3.29877,-3.29881 5.011,-7.43035 5.13668,-12.39463 -0.12568,-4.96427 -1.83791,-9.09581 -5.13668,-12.39465 -3.29884,-3.29877 -7.43038,-5.011 -12.39464,-5.13667 -4.9643,0.12567 -9.09584,1.8379 -12.39464,5.13668 -3.29882,3.29883 -5.01104,7.43037 -5.13668,12.39464 l 0,0 z m 8.25004,0 c 0.0665,-2.62813 0.97297,-4.81542 2.71941,-6.56187 1.74641,-1.74641 3.9337,-2.65288 6.56187,-2.71942 2.62813,0.0665 4.81541,0.97301 6.56187,2.71942 1.7464,1.74645 2.65287,3.93373 2.71942,6.56187 -0.0666,2.62816 -0.97302,4.81545 -2.71942,6.56186 -1.74646,1.74644 -3.93374,2.65291 -6.56187,2.71942 -2.62817,-0.0665 -4.81545,-0.97298 -6.56187,-2.71942 -1.74644,-1.74641 -2.65291,-3.9337 -2.71941,-6.56186 l 0,0 z m 37.12497,-16.50007 0,33.00013 8.25003,0 0,-21.59652 c 1.10377,-0.98924 2.35644,-1.75994 3.75802,-2.3121 1.40154,-0.55211 2.89888,-0.8326 4.49202,-0.84148 l 0,-8.25003 c -2.95608,0.0209 -5.70609,0.60584 -8.25004,1.75478 l 0,-1.75478 -8.25003,0 0,0 z m 22.48124,16.50007 c 0.12031,4.65784 1.73594,8.54222 4.8469,11.65316 3.11093,3.11095 6.99532,4.72658 11.65317,4.8469 1.78217,-0.007 3.47965,-0.27685 5.09242,-0.80894 1.61272,-0.53209 3.09752,-1.28343 4.45441,-2.25401 l 0.76571,3.06295 8.25003,0 -2.06251,-8.25003 0,-24.7501 -8.25003,0 0,2.22535 c -1.21971,-0.71134 -2.52357,-1.25899 -3.91159,-1.64295 -1.38806,-0.38389 -2.83421,-0.57802 -4.33844,-0.5824 -4.65785,0.12035 -8.54224,1.73598 -11.65317,4.8469 -3.11096,3.11097 -4.72659,6.99536 -4.8469,11.65317 l 0,0 z m 8.25004,0 c 0.0601,-2.37831 0.86796,-4.35059 2.42344,-5.91682 1.55546,-1.5662 3.49765,-2.37831 5.82659,-2.43634 2.32889,0.058 4.27108,0.87014 5.82658,2.43634 1.55545,1.56623 2.36326,3.53851 2.42345,5.91682 -0.0602,2.37834 -0.868,4.35061 -2.42345,5.91682 -1.5555,1.56622 -3.49769,2.37833 -5.82658,2.43633 -2.32894,-0.058 -4.27113,-0.87011 -5.82659,-2.43633 -1.55549,-1.56621 -2.3633,-3.53848 -2.42344,-5.91682 l 0,0 z m 34.80465,0 c 0.12031,4.65784 1.73594,8.54222 4.84689,11.65316 3.11094,3.11095 6.99533,4.72658 11.65317,4.8469 1.50424,-0.004 2.95038,-0.19848 4.33845,-0.58241 1.38802,-0.38393 2.69188,-0.93157 3.91159,-1.64294 l 0,2.22535 8.25003,0 0,-49.50019 -8.25003,0 0,18.72541 c -1.21971,-0.71134 -2.52357,-1.25899 -3.91159,-1.64295 -1.38807,-0.38389 -2.83421,-0.57802 -4.33845,-0.5824 -4.65784,0.12035 -8.54223,1.73598 -11.65317,4.8469 -3.11095,3.11097 -4.72658,6.99536 -4.84689,11.65317 l 0,0 z m 8.25003,0 c 0.0602,-2.37831 0.86796,-4.35059 2.42345,-5.91682 1.55546,-1.5662 3.49765,-2.37831 5.82658,-2.43634 2.3289,0.058 4.27109,0.87014 5.82659,2.43634 1.55544,1.56623 2.36326,3.53851 2.42345,5.91682 -0.0602,2.37834 -0.868,4.35061 -2.42345,5.91682 -1.5555,1.56622 -3.49769,2.37833 -5.82659,2.43633 -2.32893,-0.058 -4.27112,-0.87011 -5.82658,-2.43633 -1.55549,-1.56621 -2.3633,-3.53848 -2.42345,-5.91682 l 0,0 z m 34.80466,0 c 0.12031,4.65784 1.73594,8.54222 4.84689,11.65316 3.11094,3.11095 6.99532,4.72658 11.65317,4.8469 1.78218,-0.007 3.47965,-0.27685 5.09242,-0.80894 1.61273,-0.53209 3.09753,-1.28343 4.45442,-2.25401 l 0.7657,3.06295 8.25003,0 -2.06251,-8.25003 0,-24.7501 -8.25003,0 0,2.22535 c -1.2197,-0.71134 -2.52356,-1.25899 -3.91158,-1.64295 -1.38807,-0.38389 -2.83422,-0.57802 -4.33845,-0.5824 -4.65784,0.12035 -8.54223,1.73598 -11.65317,4.8469 -3.11095,3.11097 -4.72658,6.99536 -4.84689,11.65317 l 0,0 z m 8.25003,0 c 0.0602,-2.37831 0.86796,-4.35059 2.42345,-5.91682 1.55546,-1.5662 3.49765,-2.37831 5.82658,-2.43634 2.32889,0.058 4.27109,0.87014 5.82659,2.43634 1.55544,1.56623 2.36326,3.53851 2.42344,5.91682 -0.0602,2.37834 -0.868,4.35061 -2.42344,5.91682 -1.5555,1.56622 -3.4977,2.37833 -5.82659,2.43633 -2.32893,-0.058 -4.27113,-0.87011 -5.82658,-2.43633 -1.55549,-1.56621 -2.36331,-3.53848 -2.42345,-5.91682 l 0,0 z m 37.07342,-16.50007 0,33.00013 8.25003,0 0,-21.59652 c 1.10377,-0.98924 2.35644,-1.75994 3.75801,-2.3121 1.40155,-0.55211 2.89888,-0.8326 4.49202,-0.84148 l 0,-8.25003 c -2.95608,0.0209 -5.70608,0.60584 -8.25003,1.75478 l 0,-1.75478 -8.25003,0 0,0 z"
             id="text3368"
             style="font-size:66px;font-style:normal;font-variant:normal;font-weight:bold;font-stretch:normal;text-align:start;line-height:125%;writing-mode:lr-tb;text-anchor:start;fill:#ffffff;fill-opacity:1;stroke:none;font-family:Drogowskaz;-inkscape-font-specification:Drogowskaz Bold" />
        </g>
      </g>
    </g>
  </g>
</svg>
