<?xml version="1.0" encoding="UTF-8" standalone="no"?>
<!-- Created with Inkscape (http://www.inkscape.org/) -->

<svg
   xmlns:dc="http://purl.org/dc/elements/1.1/"
   xmlns:cc="http://creativecommons.org/ns#"
   xmlns:rdf="http://www.w3.org/1999/02/22-rdf-syntax-ns#"
   xmlns:svg="http://www.w3.org/2000/svg"
   xmlns="http://www.w3.org/2000/svg"
   xmlns:sodipodi="http://sodipodi.sourceforge.net/DTD/sodipodi-0.dtd"
   xmlns:inkscape="http://www.inkscape.org/namespaces/inkscape"
   width="481"
   height="482.18201"
   viewBox="0 0 481 482.18201"
   id="svg2"
   version="1.1"
   inkscape:version="0.91 r13725"
   sodipodi:docname="Znak D-54.svg">
  <defs
     id="defs4" />
  <sodipodi:namedview
     id="base"
     pagecolor="#ffffff"
     bordercolor="#666666"
     borderopacity="1.0"
     inkscape:pageopacity="0.0"
     inkscape:pageshadow="2"
     inkscape:zoom="2.8"
     inkscape:cx="229.83289"
     inkscape:cy="338.90121"
     inkscape:document-units="px"
     inkscape:current-layer="layer1"
     showgrid="false"
     units="px"
     inkscape:window-width="1920"
     inkscape:window-height="1018"
     inkscape:window-x="-8"
     inkscape:window-y="-8"
     inkscape:window-maximized="1" />
  <metadata
     id="metadata7">
    <rdf:RDF>
      <cc:Work
         rdf:about="">
        <dc:format>image/svg+xml</dc:format>
        <dc:type
           rdf:resource="http://purl.org/dc/dcmitype/StillImage" />
        <dc:title />
      </cc:Work>
    </rdf:RDF>
  </metadata>
  <g
     inkscape:label="Layer 1"
     inkscape:groupmode="layer"
     id="layer1"
     transform="translate(0,-570.18014)">
    <g
       id="g8585"
       transform="translate(-1422.6133,729.05971)">
      <g
         style="fill:#ffffff"
         id="g8534-8-7-6"
         transform="matrix(1,0,0,-1,391.61349,160.48319)">
        <g
           style="fill:#ffffff"
           transform="translate(939.23128,-20.689757)"
           id="g8486-0-4-1-9" />
        <g
           style="fill:#ffffff"
           transform="matrix(-1,0,0,1,1603.7684,-20.68976)"
           id="g8486-0-7-4-0-4">
          <path
             transform="scale(-1,1)"
             style="opacity:1;fill:#ffffff;fill-opacity:1;fill-rule:evenodd;stroke:#000000;stroke-width:3.02599788;stroke-linejoin:miter;stroke-miterlimit:4;stroke-dasharray:none;stroke-dashoffset:0;stroke-opacity:1"
             d="m -93.281738,-114.53179 c 0,-14.45082 -11.633692,-26.08451 -26.084512,-26.08451 l -425.80462,0 c -14.45082,0 -26.08451,11.63369 -26.08451,26.08451 l -1e-5,426.98662 c 0,14.45082 11.63369,26.08451 26.08451,26.08451 l 425.80462,0 c 14.45082,0 26.084514,-11.63369 26.084515,-26.08451 z"
             id="rect8411-5-9-9-0-5"
             inkscape:connector-curvature="0"
             sodipodi:nodetypes="ccccccccc" />
        </g>
      </g>
      <g
         id="g8551">
        <g
           id="g8533">
          <g
             transform="matrix(1.2421877,0,0,1.2421877,-1558.7053,-555.28684)"
             id="g8865-5-5">
            <g
               id="g8753-0-1">
              <ellipse
                 ry="127.74955"
                 rx="127.74953"
                 cy="546.07306"
                 cx="2593.6648"
                 id="path8721-43-1-1"
                 style="opacity:1;fill:#1b8833;fill-opacity:1;fill-rule:evenodd;stroke:#1b8833;stroke-width:0.50042599;stroke-linejoin:miter;stroke-miterlimit:4;stroke-dasharray:none;stroke-dashoffset:0;stroke-opacity:1" />
              <ellipse
                 ry="100.75005"
                 rx="100.75003"
                 cy="546.07306"
                 cx="2593.6648"
                 id="path8721-4-7-5"
                 style="opacity:1;fill:#ffffff;fill-opacity:1;fill-rule:evenodd;stroke:#ffffff;stroke-width:0.49973944;stroke-linejoin:miter;stroke-miterlimit:4;stroke-dasharray:none;stroke-dashoffset:0;stroke-opacity:1" />
            </g>
            <g
               id="g8710-4-2-7-6"
               transform="matrix(1.2504711,0,0,1.2504711,-132.66407,-660.30334)"
               style="stroke-width:0.40020311;stroke-miterlimit:4;stroke-dasharray:none">
              <path
                 sodipodi:nodetypes="ccccccccccccccccc"
                 inkscape:connector-curvature="0"
                 id="path8587-2-1-2-7"
                 d="m 2144.418,997.92705 0,15.47515 -15.2369,0 0,-15.47515 -5.1031,0 4e-4,-46.26186 5.2367,-5.35884 7.9404,-30.23349 85.9718,0 7.9404,30.23349 5.2367,5.35884 4e-4,46.26186 -5.1031,0 0,15.47515 -15.2369,0 0,-15.47515 z"
                 style="opacity:1;fill:#1b8833;fill-opacity:1;fill-rule:evenodd;stroke:#1b8833;stroke-width:0.40020311;stroke-linecap:butt;stroke-linejoin:miter;stroke-miterlimit:4;stroke-dasharray:none;stroke-opacity:1" />
              <g
                 id="g8701-1-0-4-0"
                 style="stroke-width:0.40020311;stroke-miterlimit:4;stroke-dasharray:none">
                <path
                   style="opacity:1;fill:#ffffff;fill-rule:evenodd;stroke:#ffffff;stroke-width:0.40020311;stroke-linecap:butt;stroke-linejoin:miter;stroke-miterlimit:4;stroke-dasharray:none;stroke-opacity:1"
                   d="m 2137.1364,941.59599 4.1816,-20.68373 77.8468,0 4.1816,20.68373 z"
                   id="path8589-2-7-6-3"
                   inkscape:connector-curvature="0"
                   sodipodi:nodetypes="ccccc" />
                <path
                   style="opacity:1;fill:#ffffff;fill-opacity:1;fill-rule:evenodd;stroke:#ffffff;stroke-width:0.40020311;stroke-linejoin:miter;stroke-miterlimit:4;stroke-dasharray:none;stroke-dashoffset:0;stroke-opacity:1"
                   d="m 2129.4214,983.51023 0,-4.85837 101.64,0 0,4.85837 z"
                   id="rect8591-5-1-5-7"
                   inkscape:connector-curvature="0"
                   sodipodi:nodetypes="ccccc" />
                <g
                   id="g8681-0-9-9-9"
                   style="stroke-width:0.40020311;stroke-miterlimit:4;stroke-dasharray:none">
                  <ellipse
                     ry="7.575264"
                     rx="7.380023"
                     cy="965.64099"
                     cx="2136.7979"
                     id="path8614-2-5-2-2"
                     style="opacity:1;fill:#ffffff;fill-opacity:1;fill-rule:evenodd;stroke:#ffffff;stroke-width:0.40020311;stroke-linejoin:miter;stroke-miterlimit:4;stroke-dasharray:none;stroke-dashoffset:0;stroke-opacity:1" />
                  <g
                     id="g8621-0-1-9-9-78"
                     transform="matrix(-1,0,0,1,4360.4828,0)"
                     style="stroke-width:0.40020311;stroke-miterlimit:4;stroke-dasharray:none">
                    <g
                       id="g8616-1-5-0-1-5"
                       style="stroke-width:0.40020311;stroke-miterlimit:4;stroke-dasharray:none">
                      <ellipse
                         ry="7.575264"
                         rx="7.380023"
                         cy="965.64099"
                         cx="2136.7979"
                         id="path8614-3-0-9-2-0"
                         style="opacity:1;fill:#ffffff;fill-opacity:1;fill-rule:evenodd;stroke:#ffffff;stroke-width:0.40020311;stroke-linejoin:miter;stroke-miterlimit:4;stroke-dasharray:none;stroke-dashoffset:0;stroke-opacity:1" />
                    </g>
                  </g>
                </g>
              </g>
            </g>
          </g>
          <g
             transform="scale(0.99825285,1.0017502)"
             style="font-style:normal;font-variant:normal;font-weight:600;font-stretch:condensed;font-size:50.02095032px;line-height:125%;font-family:'Drogowskaz Engschrift';-inkscape-font-specification:'Drogowskaz Engschrift Semi-Bold Condensed';letter-spacing:0px;word-spacing:0px;fill:#000000;fill-opacity:1;stroke:none;stroke-width:1px;stroke-linecap:butt;stroke-linejoin:miter;stroke-opacity:1"
             id="text8880-1-9-8">
            <path
               d="m 1582.9034,-85.99903 -11.1375,-6.56525 q -3.3998,-1.993022 -5.3928,-5.392884 -1.9931,-3.399866 -1.9931,-7.385906 0,-6.0963 4.3378,-10.43406 4.3378,-4.33775 10.4341,-4.33775 6.7997,0 11.7236,1.2896 l 0,8.55827 q -6.2135,-1.40684 -11.7236,-1.40684 -2.6965,0 -4.5723,1.87579 -1.7585,1.75855 -1.7585,4.45499 0,3.63433 3.1654,5.392884 l 11.1374,6.56525 q 3.6344,2.110259 5.7446,5.86183 2.2275,3.634335 2.2275,7.972089 0,6.56525 -4.6894,11.254714 -4.6895,4.689464 -11.2547,4.689464 -8.0894,0 -16.0615,-2.227496 l 2.2275,-8.089325 q 6.7998,1.875785 13.834,1.875785 3.1653,0 5.2756,-2.110259 2.2275,-2.227495 2.2275,-5.392883 0,-4.220518 -3.7516,-6.448013 z"
               style="font-style:normal;font-variant:normal;font-weight:600;font-stretch:normal;font-size:75.03142548px;font-family:Drogowskaz_lekki_owalny;-inkscape-font-specification:'Drogowskaz_lekki_owalny Semi-Bold';fill:#000000"
               id="path8103" />
            <path
               d="m 1610.3368,-115.30818 8.441,-4.22052 0,18.17167 7.0342,0 0,8.44104 -7.0342,0 0,14.537339 q 0.469,2.344732 1.5241,3.517098 1.1724,1.055129 3.7516,2.110259 l 2.6964,0.703419 -3.0481,7.26867 q -5.3929,0 -9.379,-3.986045 -3.986,-3.986044 -3.986,-9.613401 l 0,-14.537339 -7.0342,0 0,-8.44104 7.0342,0 0,-13.95115 z"
               style="font-style:normal;font-variant:normal;font-weight:600;font-stretch:normal;font-size:75.03142548px;font-family:Drogowskaz_lekki_owalny;-inkscape-font-specification:'Drogowskaz_lekki_owalny Semi-Bold';fill:#000000"
               id="path8105" />
            <path
               d="m 1636.2754,-101.35703 8.441,0 0,2.696447 q 4.2205,-2.696447 9.379,-2.696447 l 0,8.44104 q -5.1585,0 -9.379,3.868808 l 0,24.267977 -8.441,0 0,-36.577825 z"
               style="font-style:normal;font-variant:normal;font-weight:600;font-stretch:normal;font-size:75.03142548px;font-family:Drogowskaz_lekki_owalny;-inkscape-font-specification:'Drogowskaz_lekki_owalny Semi-Bold';fill:#000000"
               id="path8107" />
            <path
               d="m 1687.2147,-86.819687 q -0.2345,-2.696441 -2.6964,-5.041173 -2.462,-2.344733 -5.9791,-2.344733 -3.5171,0 -6.0963,2.344733 -2.462,2.227495 -2.5792,5.041173 l 17.351,0 z m -17.351,7.385906 q 0.2344,2.579206 2.6964,5.158411 2.462,2.579205 6.7997,2.579205 3.0482,0 5.5102,-0.937893 l 2.5792,-1.172366 4.455,6.56525 -3.5171,1.875786 q -3.9861,1.758549 -9.8479,1.758549 -7.0342,0 -12.1926,-5.744594 -5.1584,-5.275647 -5.1584,-13.599446 0,-8.323798 5.1584,-13.833919 5.1584,-5.627352 12.1926,-5.627352 7.0342,0 11.9581,5.627352 5.0412,5.510121 5.0412,13.833919 0,1.875786 -0.3517,3.517098 l -25.3231,0 z"
               style="font-style:normal;font-variant:normal;font-weight:600;font-stretch:normal;font-size:75.03142548px;font-family:Drogowskaz_lekki_owalny;-inkscape-font-specification:'Drogowskaz_lekki_owalny Semi-Bold';fill:#000000"
               id="path8109" />
            <path
               d="m 1702.6606,-92.91599 0,-8.44104 7.0342,0 q 0,-7.97208 5.3929,-13.36497 5.3929,-5.39288 12.4271,-5.39288 l 0,8.44103 q -3.6344,0 -6.5653,2.81368 -2.8136,2.81368 -2.8136,7.50314 l 7.0341,0 0,8.44104 -7.0341,0 0,28.136785 -8.4411,0 0,-28.136785 -7.0342,0 z"
               style="font-style:normal;font-variant:normal;font-weight:600;font-stretch:normal;font-size:75.03142548px;font-family:Drogowskaz_lekki_owalny;-inkscape-font-specification:'Drogowskaz_lekki_owalny Semi-Bold';fill:#000000"
               id="path8111" />
            <path
               d="m 1737.0696,-70.172089 q -5.0412,-5.392884 -5.0412,-12.896026 0,-7.503143 5.0412,-12.896027 5.1584,-5.392888 11.0202,-5.392888 5.9791,0 10.1996,2.57921 l 0,-2.57921 8.441,0 0,27.667843 2.2275,8.909982 -8.5583,0 -0.8206,-3.517098 q -4.5722,3.517098 -11.0203,3.517098 -6.3307,0 -11.4891,-5.392884 z m 6.0963,-19.930222 q -2.462,2.813678 -2.462,7.034196 0,4.220517 2.462,7.034196 2.5792,2.813678 6.448,2.813678 3.8688,0 6.3308,-2.813678 2.5792,-2.813679 2.5792,-7.034196 0,-4.220518 -2.5792,-7.034196 -2.462,-2.813679 -6.3308,-2.813679 -3.8688,0 -6.448,2.813679 z"
               style="font-style:normal;font-variant:normal;font-weight:600;font-stretch:normal;font-size:75.03142548px;font-family:Drogowskaz_lekki_owalny;-inkscape-font-specification:'Drogowskaz_lekki_owalny Semi-Bold';fill:#000000"
               id="path8113" />
          </g>
        </g>
        <g
           id="g8501">
          <g
             id="g9139-0-1"
             transform="matrix(-1,0,0,-1,3682.9996,829.93543)">
            <g
               id="g9078-6-46">
              <g
                 transform="translate(748.38643,669.45224)"
                 id="g8575-4-3-3">
                <g
                   id="g8534-7-8-1">
                  <g
                     id="g8486-0-75-4-7"
                     transform="translate(939.23128,-20.689757)" />
                  <g
                     id="g8486-0-7-5-1-9"
                     transform="matrix(-1,0,0,1,1603.7684,-20.68976)" />
                </g>
                <g
                   transform="matrix(1,0,0,-1,7.4121093e-6,156.54352)"
                   id="g8534-8-7-1-4">
                  <g
                     id="g8486-0-4-1-1-0"
                     transform="translate(939.23128,-20.689757)" />
                  <g
                     id="g8486-0-7-4-0-6-8"
                     transform="matrix(-1,0,0,1,1603.7684,-20.68976)" />
                </g>
              </g>
            </g>
          </g>
          <g
             transform="translate(391.61348,3.93967)"
             id="g8534-7-3">
            <g
               transform="translate(939.23128,-20.689757)"
               id="g8486-0-75-7" />
            <g
               transform="matrix(-1,0,0,1,1603.7684,-20.68976)"
               id="g8486-0-7-5-6">
              <path
                 transform="scale(-1,1)"
                 style="opacity:1;fill:none;fill-opacity:1;fill-rule:evenodd;stroke:#000000;stroke-width:5.99999571;stroke-linejoin:miter;stroke-miterlimit:4;stroke-dasharray:none;stroke-dashoffset:0;stroke-opacity:1"
                 d="m -100.76801,-112.64439 c 0,-11.89508 -9.57617,-21.47126 -21.47125,-21.47126 l -420.0586,0 c -11.89508,0 -21.47125,9.57618 -21.47125,21.47126 l 10e-6,423.21182 c 0,11.89508 9.57617,21.47126 21.47125,21.47126 l 420.0586,0 c 11.89508,0 21.47125,-9.57618 21.47125,-21.47126 z"
                 id="rect8411-7-8-2-7-4"
                 inkscape:connector-curvature="0"
                 sodipodi:nodetypes="ccccccccc" />
            </g>
          </g>
        </g>
      </g>
    </g>
  </g>
</svg>
