<?xml version="1.0" encoding="UTF-8" standalone="no"?>
<!-- Created with Inkscape (http://www.inkscape.org/) -->

<svg
   xmlns:dc="http://purl.org/dc/elements/1.1/"
   xmlns:cc="http://creativecommons.org/ns#"
   xmlns:rdf="http://www.w3.org/1999/02/22-rdf-syntax-ns#"
   xmlns:svg="http://www.w3.org/2000/svg"
   xmlns="http://www.w3.org/2000/svg"
   xmlns:sodipodi="http://sodipodi.sourceforge.net/DTD/sodipodi-0.dtd"
   xmlns:inkscape="http://www.inkscape.org/namespaces/inkscape"
   width="400.00012"
   height="399.99991"
   id="svg2"
   sodipodi:version="0.32"
   inkscape:version="0.92.3 (2405546, 2018-03-11)"
   version="1.0"
   sodipodi:docname="Znak_D-6b (2004).svg">
  <defs
     id="defs4">
    <pattern
       id="pattern7217"
       patternTransform="translate(18.50938,18)"
       height="476"
       width="370"
       patternUnits="userSpaceOnUse">
      <rect
         style="fill:#00e5ff;fill-opacity:1"
         id="rect7219"
         width="370"
         height="476"
         x="0"
         y="0"
         rx="20"
         ry="20" />
    </pattern>
    <pattern
       id="pattern7074"
       patternTransform="translate(18.50938,18)"
       height="476"
       width="370"
       patternUnits="userSpaceOnUse">
      <rect
         style="fill:#00e5ff;fill-opacity:1"
         id="rect7076"
         width="370"
         height="476"
         x="0"
         y="0"
         rx="20"
         ry="20" />
    </pattern>
    <pattern
       id="pattern4002"
       patternTransform="translate(18.50938,18)"
       height="476"
       width="370"
       patternUnits="userSpaceOnUse">
      <rect
         style="fill:#00e5ff;fill-opacity:1"
         id="rect2240"
         width="370"
         height="476"
         x="0"
         y="0"
         rx="20"
         ry="20" />
    </pattern>
    <pattern
       id="pattern2142"
       patternTransform="translate(18.50938,18)"
       height="476"
       width="370"
       patternUnits="userSpaceOnUse">
      <rect
         style="fill:#00e5ff;fill-opacity:1"
         id="rect2144"
         width="370"
         height="476"
         x="0"
         y="0"
         rx="20"
         ry="20" />
    </pattern>
    <pattern
       id="pattern4054"
       patternTransform="translate(18.50938,18)"
       height="476"
       width="370"
       patternUnits="userSpaceOnUse">
      <rect
         style="fill:#00e5ff;fill-opacity:1"
         id="rect4056"
         width="370"
         height="476"
         x="0"
         y="0"
         rx="20"
         ry="20" />
    </pattern>
    <pattern
       id="pattern4150"
       patternTransform="translate(18.50938,18)"
       height="476"
       width="370"
       patternUnits="userSpaceOnUse">
      <rect
         style="fill:#00e5ff;fill-opacity:1"
         id="rect4152"
         width="370"
         height="476"
         x="0"
         y="0"
         rx="20"
         ry="20" />
    </pattern>
    <pattern
       id="pattern4233"
       patternTransform="translate(18.50938,18)"
       height="476"
       width="370"
       patternUnits="userSpaceOnUse">
      <rect
         style="fill:#00e5ff;fill-opacity:1"
         id="rect4235"
         width="370"
         height="476"
         x="0"
         y="0"
         rx="20"
         ry="20" />
    </pattern>
  </defs>
  <sodipodi:namedview
     id="base"
     pagecolor="#ffffff"
     bordercolor="#666666"
     borderopacity="1.0"
     gridtolerance="10000"
     guidetolerance="10"
     objecttolerance="10"
     inkscape:pageopacity="0.0"
     inkscape:pageshadow="2"
     inkscape:zoom="1"
     inkscape:cx="19.48561"
     inkscape:cy="184.9316"
     inkscape:document-units="px"
     inkscape:current-layer="g4282"
     inkscape:window-width="1920"
     inkscape:window-height="1057"
     inkscape:window-x="-8"
     inkscape:window-y="-8"
     showgrid="false"
     fit-margin-top="0"
     fit-margin-left="0"
     fit-margin-right="0"
     fit-margin-bottom="0"
     inkscape:window-maximized="1" />
  <metadata
     id="metadata7">
    <rdf:RDF>
      <cc:Work
         rdf:about="">
        <dc:format>image/svg+xml</dc:format>
        <dc:type
           rdf:resource="http://purl.org/dc/dcmitype/StillImage" />
        <dc:title></dc:title>
      </cc:Work>
    </rdf:RDF>
  </metadata>
  <g
     inkscape:label="Layer 1"
     inkscape:groupmode="layer"
     id="layer1"
     transform="translate(-828.5713,-143.79088)">
    <g
       id="g4282">
      <g
         transform="matrix(0.79985538,0,0,0.79921676,752.68005,11.365406)"
         id="layer1-3">
        <rect
           width="496.98404"
           height="497.0549"
           rx="15.463499"
           ry="16.556"
           x="96.434471"
           y="167.41156"
           id="rect3806"
           style="fill:#ffffff;fill-opacity:1;stroke:#000000;stroke-width:3.06894064;stroke-miterlimit:4;stroke-dasharray:none;stroke-opacity:1" />
        <g
           transform="matrix(1.0662173,0,0,1.0662173,23.092846,63.88515)"
           id="layer1-8">
          <g
             transform="matrix(1.4391723,0,0,1.4391723,-29.224564,-217.41603)"
             id="g2912">
            <g
               id="g4333">
              <path
                 inkscape:connector-curvature="0"
                 d="M 79.268811,221.0229 H 380.97579 c 5.58289,0 8.56219,3.80192 8.56219,9.77924 v 299.08077 c 0,5.97733 -2.78989,9.96864 -8.37278,9.96864 H 79.016273 c -5.58289,0 -8.43592,-4.81206 -8.43592,-10.78939 V 230.17079 c 0,-5.97732 3.105568,-9.14789 8.688458,-9.14789 z"
                 id="rect4330"
                 style="fill:#003399;fill-opacity:1;stroke:none" />
            </g>
          </g>
        </g>
      </g>
      <g
         transform="matrix(1.056021,0,0,1.0516023,506.3771,299.23499)"
         id="g4237">
        <g
           id="g4239">
          <g
             transform="matrix(0.673979,0,0,0.673979,654.7392,301.9186)"
             id="g4256">
            <path
               d="m 28.415534,-188.56654 -532.355964,-1e-5 266.17798,-460.46706 z"
               style="fill:#ffffff;fill-opacity:1;fill-rule:nonzero;stroke:none"
               id="path3725"
               inkscape:connector-curvature="0" />
          </g>
        </g>
      </g>
      <g
         transform="matrix(0.52450367,0,0,0.52230902,-285.60817,25.33949)"
         id="g4274">
        <g
           id="g4058"
           transform="matrix(1,0,0,0.921052,3919.836,451.3193)"
           style="fill:#000000">
          <g
             id="g4060"
             style="fill:#000000">
            <g
               id="g4070"
               transform="matrix(0.673979,0,0,0.673979,654.7392,301.9186)"
               style="fill:#000000">
              <g
                 id="g4073"
                 transform="translate(220.7229,-33.85783)"
                 style="fill:#000000">
                <path
                   id="path3712"
                   style="fill:#000000;fill-rule:evenodd;stroke:none;stroke-width:1.95114565px;stroke-linecap:butt;stroke-linejoin:miter;stroke-opacity:1"
                   d="m -3710.9258,86.783101 -16.8058,32.459349 h 501.5389 l 11.7607,-32.459349 z"
                   sodipodi:nodetypes="ccccc"
                   inkscape:connector-curvature="0" />
              </g>
            </g>
          </g>
        </g>
        <path
           style="fill:#000000;fill-rule:evenodd;stroke:#000000;stroke-width:0.73606741px;stroke-linecap:butt;stroke-linejoin:miter;stroke-opacity:1"
           d="m 2696.3235,762.0188 11.2515,20.625 h 87.7265 l -10.7187,-20.625 z m -99.4043,0 -4.839,20.625 h 64.5416 l -9.8754,-20.625 z"
           id="path4265"
           sodipodi:nodetypes="cccccccccc"
           inkscape:connector-curvature="0" />
      </g>
      <g
         style="fill:#000000"
         transform="matrix(0.52434465,0,0,0.52215067,806.53148,304.31432)"
         id="g2146">
        <g
           style="fill:#000000"
           id="g3791">
          <g
             style="fill:#000000"
             transform="matrix(0.673979,0,0,0.673979,654.7392,301.9186)"
             id="g3785">
            <g
               style="fill:#000000"
               transform="translate(220.7229,-33.85783)"
               id="g3719">
              <path
                 d="m -409.01961,-437.09553 c -15.9614,0 -28.9062,12.97608 -28.9062,28.9375 0,15.96142 12.9447,28.90625 28.9062,28.90625 15.9614,0 28.9062,-12.94484 28.9062,-28.90625 0,-15.96142 -12.9448,-28.93749 -28.9062,-28.9375 z m 0.9062,59.59375 -51.4999,99 -52.5313,49.49999 14.1563,37.375 78.7812,-82.81249 10.0937,86.87499 -49.4999,70.6875 -39.375,109.0937548 -51.5313,5.0625 81.8125,27.2812502 35.375,-123.25 51.5,-50.500005 70.7186,139.4062548 -48.5,34.3437502 h 56.5938 l 45.4375,-26.2812502 -92.9375,-181.8125048 -8.0625,-38.375 v -79.81249 l 35.3437,37.375 v 99.99999 l 28.2813,-15.15625 v -98.99999 l -60.5938,-68.6875 z"
                 style="fill:#000000;fill-rule:evenodd;stroke:none"
                 id="path1933"
                 inkscape:connector-curvature="0" />
            </g>
          </g>
        </g>
      </g>
      <g
         transform="matrix(0.61674724,0,0,0.63219037,-507.31609,189.09374)"
         id="g2043">
        <g
           id="g7324">
          <g
             transform="matrix(0.800356,0,0,0.800356,1608.415,233.9768)"
             id="g7305">
            <g
               transform="translate(-65.37327,-503.9363)"
               id="g6959">
              <g
                 transform="matrix(0.861528,0,0,0.794592,343.0558,249.6858)"
                 id="g5756">
                <path
                   d="m 733.14165,373.3532 c -35.18039,0.44612 -63.59643,29.14093 -63.59643,64.42654 0,35.56345 28.86309,64.42654 64.42654,64.42654 35.56345,0 64.42654,-28.86309 64.42654,-64.42654 0,-35.56345 -28.86309,-64.42654 -64.42654,-64.42654 -0.27784,0 -0.5531,-0.004 -0.83011,0 z m 0.1239,9.91178 c 0.23439,-0.003 0.47112,0 0.70621,0 30.09215,0 54.51477,24.42261 54.51477,54.51476 0,30.09215 -24.42262,54.51476 -54.51477,54.51476 -30.09215,0 -54.51476,-24.42261 -54.51476,-54.51476 0,-29.85706 24.04053,-54.13728 53.80855,-54.51476 z"
                   style="fill:#000000;fill-opacity:1;fill-rule:nonzero;stroke:none"
                   id="opona"
                   inkscape:connector-curvature="0" />
                <path
                   d="m 262.5,562.5 c 0,13.80712 -11.19288,25 -25,25 -13.80712,0 -25,-11.19288 -25,-25 0,-13.80712 11.19288,-25 25,-25 13.80712,0 25,11.19288 25,25 z"
                   transform="matrix(0.396471,0,0,0.396471,639.8099,214.7648)"
                   style="fill:#000000;fill-opacity:1;fill-rule:nonzero;stroke:none"
                   id="piasta"
                   inkscape:connector-curvature="0" />
                <path
                   d="m 941.28895,373.3532 c -35.18039,0.44612 -63.59643,29.14093 -63.59643,64.42654 0,35.56345 28.86309,64.42654 64.42654,64.42654 35.56345,0 64.42654,-28.86309 64.42654,-64.42654 0,-35.56345 -28.86309,-64.42654 -64.42654,-64.42654 -0.27784,0 -0.5531,-0.004 -0.83011,0 z m 0.1239,9.91178 c 0.23439,-0.003 0.47112,0 0.70621,0 30.09215,0 54.51476,24.42261 54.51476,54.51476 0,30.09215 -24.42261,54.51476 -54.51476,54.51476 -30.09215,0 -54.51476,-24.42261 -54.51476,-54.51476 0,-29.85706 24.04053,-54.13728 53.80855,-54.51476 z"
                   style="fill:#000000;fill-opacity:1;fill-rule:nonzero;stroke:none"
                   id="path1324"
                   inkscape:connector-curvature="0" />
                <path
                   d="m 262.5,562.5 c 0,13.80712 -11.19288,25 -25,25 -13.80712,0 -25,-11.19288 -25,-25 0,-13.80712 11.19288,-25 25,-25 13.80712,0 25,11.19288 25,25 z"
                   transform="matrix(0.396471,0,0,0.396471,847.9572,214.7648)"
                   style="fill:#000000;fill-opacity:1;fill-rule:nonzero;stroke:none"
                   id="path1326"
                   inkscape:connector-curvature="0" />
                <path
                   d="m 852.91304,437.77974 h 89.20594"
                   style="fill:none;stroke:#000000;stroke-width:9.91177464;stroke-linecap:butt;stroke-linejoin:miter;stroke-miterlimit:4;stroke-dasharray:none;stroke-opacity:1"
                   id="wzdlozlancucha"
                   inkscape:connector-curvature="0" />
                <path
                   d="M 852.91304,437.77974 757.1653,357.49436"
                   style="fill:none;stroke:#000000;stroke-width:9.91177464;stroke-linecap:butt;stroke-linejoin:miter;stroke-miterlimit:4;stroke-dasharray:none;stroke-opacity:1"
                   id="ukos-damka"
                   inkscape:connector-curvature="0" />
                <path
                   d="m 852.91304,437.77974 39.6471,-123.89719"
                   style="fill:none;stroke:#000000;stroke-width:12.81200218;stroke-linecap:butt;stroke-linejoin:miter;stroke-miterlimit:4;stroke-dasharray:none;stroke-opacity:1"
                   id="slupek-siodelko"
                   inkscape:connector-curvature="0" />
                <path
                   d="m 733.97174,437.77974 c 0,0 36.0294,-126.24483 36.67357,-127.8619 2.73105,-6.85585 3.63598,-9.17434 11.89413,-10.90295 1.20635,-0.25252 25.14467,0 25.14467,0"
                   style="fill:none;stroke:#000000;stroke-width:9.91177464;stroke-linecap:butt;stroke-linejoin:miter;stroke-miterlimit:4;stroke-dasharray:none;stroke-opacity:1"
                   id="kierownica"
                   inkscape:connector-curvature="0" />
                <path
                   d="m 587.5,562.5 c 0,27.61424 -22.38576,50 -50,50 -27.61424,0 -50,-22.38576 -50,-50 0,-27.61424 22.38576,-50 50,-50 27.61424,0 50,22.38576 50,50 z"
                   transform="matrix(0.396471,0,0,0.396471,639.8099,214.7648)"
                   style="fill:#000000;fill-opacity:1;fill-rule:nonzero;stroke:none"
                   id="kolo=pedalowe"
                   inkscape:connector-curvature="0" />
                <path
                   d="m 887.60425,323.79433 24.01933,-1.27128 4.54349,-18.55227 c 0,0 -41.93771,-0.55235 -47.00383,0 -4.70178,0.51262 -2.90665,9.05571 0,9.91177 49.4917,14.57622 18.44101,9.91178 18.44101,9.91178 z"
                   style="fill:#000000;fill-opacity:1;fill-rule:evenodd;stroke:none"
                   id="siodelko"
                   inkscape:connector-curvature="0" />
                <path
                   d="M 945.87098,442.41731 887.63476,328.60825"
                   style="fill:none;stroke:#000000;stroke-width:12.16281986;stroke-linecap:butt;stroke-linejoin:miter;stroke-miterlimit:4;stroke-dasharray:none;stroke-opacity:1"
                   id="path4256"
                   inkscape:connector-curvature="0" />
              </g>
              <path
                 d="m 1080.6483,628.94725 h 41.9213 l -3.8267,-18.54986 -2.8013,-55.58866 20.7702,-75.86913 -50.0026,-102.53049 -15.1523,11.61676 -54.5797,94.32562 h 24.1071 l 30.7143,-47.32142 25.3571,34.64285 -52.3214,41.96429 18.75,49.28571 -14.0009,11.28571 h 32.1438 l -12.0715,-56.82142 27.1429,-11.42857 -6.0714,53.21428 12.8571,52.42858 -23.9286,10.07142 z"
                 style="fill:#000000;fill-rule:evenodd;stroke:none;stroke-width:1px;stroke-linecap:butt;stroke-linejoin:miter;stroke-opacity:1"
                 id="path4258"
                 inkscape:connector-curvature="0" />
              <path
                 d="m 1090.7122,365.77189 c 0,10.59449 -8.5984,19.19291 -19.1929,19.19291 -10.5945,0 -19.1929,-8.59842 -19.1929,-19.19291 0,-10.59447 8.5984,-19.19289 19.1929,-19.19289 10.5945,0 19.1929,8.59842 19.1929,19.19289 z"
                 style="fill:#000000;fill-opacity:1;fill-rule:nonzero;stroke:none"
                 id="path6956"
                 inkscape:connector-curvature="0" />
            </g>
          </g>
        </g>
      </g>
    </g>
  </g>
</svg>
